ply
format ascii 1.0
comment PCL generated
element vertex 735
property float x
property float y
property float z
property uchar red
property uchar green
property uchar blue
element camera 1
property float view_px
property float view_py
property float view_pz
property float x_axisx
property float x_axisy
property float x_axisz
property float y_axisx
property float y_axisy
property float y_axisz
property float z_axisx
property float z_axisy
property float z_axisz
property float focal
property float scalex
property float scaley
property float centerx
property float centery
property int viewportx
property int viewporty
property float k1
property float k2
end_header
-0.1832985 -0.16115162 -0.773467 70 140 113
-0.18333146 -0.16138873 -0.77345955 70 140 113
-0.18300422 -0.16042599 -0.77320695 67 142 112
-0.18275829 -0.160714 -0.77280235 65 142 111
-0.18311763 -0.16147898 -0.77315313 69 140 112
-0.18381242 -0.16408853 -0.77337778 69 133 117
-0.18314451 -0.16304348 -0.77279323 70 135 115
-0.18404047 -0.16500844 -0.77340567 67 132 118
-0.18343422 -0.1636368 -0.77300411 69 133 116
-0.18413383 -0.16520897 -0.77347076 67 132 119
-0.18334843 -0.16501158 -0.77250814 65 132 116
-0.18280324 -0.16411479 -0.77203369 65 134 115
-0.18299955 -0.16513041 -0.77203625 64 133 116
-0.18495327 -0.1689329 -0.77376151 63 146 110
-0.18292281 -0.16973545 -0.77149212 55 142 111
-0.18320176 -0.16937904 -0.77177924 57 144 110
-0.18382795 -0.16894604 -0.77242905 61 146 108
-0.18560228 -0.17337698 -0.77367991 54 146 106
-0.1840619 -0.17237957 -0.77222341 53 143 109
-0.18338303 -0.17233275 -0.77156824 56 141 111
-0.18327755 -0.17292356 -0.77139729 61 142 112
-0.1851048 -0.17236009 -0.77331698 57 146 107
-0.18359458 -0.17068541 -0.77205336 56 143 110
-0.18392502 -0.17133194 -0.77227658 55 144 110
-0.18390906 -0.16994488 -0.7725237 58 147 109
-0.18408047 -0.17016341 -0.77266169 58 147 108
-0.18488823 -0.17032036 -0.77347803 61 149 107
-0.1852237 -0.172988 -0.77332205 57 144 107
-0.18539877 -0.17215027 -0.77366942 58 147 107
-0.18562573 -0.17535685 -0.77363443 68 140 109
-0.18569224 -0.17698918 -0.77374691 82 135 112
-0.18506999 -0.17635326 -0.77297968 68 141 109
-0.18450981 -0.17688575 -0.77238441 66 141 110
-0.1850051 -0.17593706 -0.77291405 65 142 109
-0.18273489 -0.17730635 -0.7705068 47 149 111
-0.18520454 -0.17768912 -0.7731126 80 137 111
-0.18377112 -0.17596734 -0.7716105 50 147 109
-0.18551648 -0.17477645 -0.77346218 62 142 108
-0.18291067 -0.17650206 -0.77072579 49 148 111
-0.18514089 -0.1740016 -0.77309215 56 144 108
-0.18237482 -0.17676313 -0.77018386 50 149 112
-0.18344279 -0.17601912 -0.77128148 50 147 110
-0.18325157 -0.17475888 -0.77119434 59 145 111
-0.1831395 -0.17626289 -0.77096725 50 148 110
-0.1855993 -0.17993465 -0.77344364 74 142 113
-0.18461542 -0.17935376 -0.77245128 70 140 110
-0.1848266 -0.1813177 -0.77255839 62 146 111
-0.18500194 -0.18080127 -0.77276224 66 144 112
-0.1849184 -0.17879012 -0.7727859 75 138 110
-0.18456961 -0.17900105 -0.7724241 71 139 109
-0.18484786 -0.17847092 -0.77272838 75 138 110
-0.18295975 -0.17808564 -0.77073795 53 147 110
-0.18405651 -0.17774439 -0.77189964 66 142 111
-0.18353483 -0.17812935 -0.7713449 59 144 110
-0.183541 -0.17885406 -0.77134436 58 144 108
-0.18459219 -0.17879495 -0.77245522 72 138 109
-0.18498211 -0.17788313 -0.77287591 78 138 111
-0.18427482 -0.18206638 -0.77207035 52 146 108
-0.18456675 -0.18179986 -0.77231127 57 147 110
-0.18374437 -0.18904759 -0.77248091 79 132 112
-0.18385984 -0.1883321 -0.7725324 83 132 112
-0.18440376 -0.18909843 -0.77323931 92 131 113
-0.18442114 -0.18798395 -0.7731173 76 135 109
-0.18351611 -0.1869778 -0.77197433 64 136 110
-0.18435022 -0.18800175 -0.77304041 77 134 110
-0.18368372 -0.18749008 -0.77222866 72 134 111
-0.18524301 -0.19278178 -0.77362657 86 137 104
-0.18458813 -0.19126338 -0.77315688 83 134 108
-0.18423928 -0.19164011 -0.77268928 74 136 106
-0.18513682 -0.19280252 -0.77350146 84 137 104
-0.18460028 -0.19057705 -0.77329665 87 133 109
-0.18469435 -0.19468072 -0.77340096 65 139 103
-0.18468019 -0.19429451 -0.77327514 69 138 105
-0.18485916 -0.13028018 -0.78561157 145 134 120
-0.18538049 -0.12922151 -0.78602064 137 137 119
-0.18729062 -0.13399565 -0.78898549 124 131 119
-0.18752021 -0.13306612 -0.78930509 112 134 118
-0.18596888 -0.13095587 -0.78697419 136 133 119
-0.18606195 -0.13122077 -0.78711683 135 134 119
-0.18717712 -0.13194513 -0.78877628 113 135 117
-0.18676834 -0.13398767 -0.78829664 129 131 120
-0.18581417 -0.13322189 -0.78698123 136 130 121
-0.18593039 -0.13304769 -0.78710866 136 131 121
-0.1864441 -0.13383834 -0.78786325 131 131 120
-0.18524376 -0.13298307 -0.78624445 138 130 121
-0.18522376 -0.13232918 -0.78614032 141 131 121
-0.18499742 -0.1318654 -0.78587049 144 131 121
-0.18482815 -0.13191327 -0.7857061 144 131 121
-0.18686999 -0.1363827 -0.78828675 124 134 119
-0.18692896 -0.13563143 -0.78847164 124 132 120
-0.18695207 -0.1354755 -0.78852391 124 132 120
-0.18700714 -0.13526244 -0.78862542 124 132 120
-0.18690057 -0.13860869 -0.78785479 97 142 116
-0.18596394 -0.13652299 -0.78701192 113 134 120
-0.18620612 -0.13617662 -0.7874344 122 133 120
-0.18633814 -0.13651551 -0.78754282 119 134 120
-0.18629099 -0.13816416 -0.78709543 94 140 117
-0.18606955 -0.13830632 -0.78674942 87 141 116
-0.18520795 -0.13765101 -0.78570026 88 138 118
-0.18500721 -0.13558722 -0.78597283 121 131 121
-0.18525617 -0.13636111 -0.78607988 108 133 120
-0.18581235 -0.13983417 -0.78577226 69 141 115
-0.18665744 -0.13911149 -0.78729558 89 141 116
-0.18596059 -0.13870241 -0.786497 79 142 116
-0.18629199 -0.13942647 -0.78663486 81 141 115
-0.1868573 -0.14169174 -0.7863993 76 138 113
-0.18646745 -0.14128527 -0.78603363 72 139 113
-0.18731308 -0.13884668 -0.78834379 103 142 116
-0.18792613 -0.14201313 -0.7877152 95 138 112
-0.18775207 -0.14107488 -0.78792006 97 139 114
-0.18792288 -0.1405226 -0.78841567 103 139 114
-0.1873146 -0.14101064 -0.78735 89 139 113
-0.18806638 -0.14122128 -0.78828222 102 139 113
-0.18963847 -0.14616229 -0.78801817 96 139 114
-0.18956183 -0.14468503 -0.78864938 106 138 113
-0.18903404 -0.14557911 -0.78743577 98 137 114
-0.18891017 -0.14582311 -0.78713852 95 138 115
-0.18847929 -0.14528422 -0.78681207 95 137 114
-0.18783545 -0.14452504 -0.78631788 85 137 113
-0.18821858 -0.14322598 -0.78751475 95 138 112
-0.1885988 -0.14418909 -0.78753912 101 137 114
-0.18725623 -0.14351939 -0.78604239 77 137 112
-0.18720315 -0.14362198 -0.78591657 75 137 113
-0.18873388 -0.14350978 -0.78807533 105 137 113
-0.19068526 -0.14766079 -0.78886014 94 139 113
-0.19127367 -0.14893143 -0.7890839 96 136 115
-0.19194916 -0.15022689 -0.78943235 97 135 116
-0.19053866 -0.14848234 -0.78820515 94 137 115
-0.18997361 -0.150006 -0.78672117 73 139 113
-0.19025497 -0.14910935 -0.7875219 85 138 114
-0.19017157 -0.14950702 -0.78722548 81 138 114
-0.19111097 -0.14945011 -0.78858411 94 136 116
-0.1890461 -0.14702998 -0.78674579 87 138 115
-0.18884148 -0.14872654 -0.78569752 73 139 114
-0.18872185 -0.14658713 -0.78649247 88 137 115
-0.19112462 -0.15213259 -0.78731459 86 135 115
-0.1905117 -0.15371169 -0.78565794 77 135 114
-0.19080946 -0.15279193 -0.78653884 81 135 114
-0.19071168 -0.15070559 -0.78743958 81 138 114
-0.19095992 -0.15296912 -0.78666407 83 135 114
-0.19165799 -0.15262067 -0.7878378 88 136 114
-0.1929388 -0.15358315 -0.78921187 87 141 111
-0.19134337 -0.15345278 -0.78697628 84 136 113
-0.19150794 -0.15321033 -0.78733236 85 136 114
-0.19231956 -0.15356994 -0.78832579 86 139 112
-0.19174089 -0.15255935 -0.78798735 88 136 114
-0.19202287 -0.15134998 -0.78898686 94 136 115
-0.19339645 -0.1571506 -0.78904551 88 141 113
-0.19315271 -0.15636691 -0.78883034 88 140 112
-0.19189292 -0.1580606 -0.78681672 94 134 116
-0.19157191 -0.15814547 -0.78636289 96 132 116
-0.19308509 -0.15568572 -0.78885418 87 140 112
-0.19331726 -0.15668254 -0.78900164 88 140 113
-0.19283441 -0.15725638 -0.7882427 90 138 114
-0.19307607 -0.15477444 -0.78899777 86 141 110
-0.19132756 -0.15444301 -0.7865209 81 136 113
-0.1910928 -0.15605852 -0.78597748 88 133 115
-0.19226789 -0.15516755 -0.78778428 86 138 112
-0.1917987 -0.15639539 -0.7869522 92 135 114
-0.19203597 -0.15525381 -0.78743905 86 137 113
-0.19081609 -0.155472 -0.78565311 84 133 114
-0.19344969 -0.15882502 -0.78892714 88 143 112
-0.19373137 -0.16133197 -0.78930181 84 157 102
-0.19249648 -0.16193055 -0.78740633 98 146 108
-0.19198284 -0.16096359 -0.7865606 109 133 117
-0.19184743 -0.16204113 -0.78634447 110 136 114
-0.19329059 -0.16172491 -0.78870505 87 156 102
-0.19309001 -0.15925574 -0.78836405 93 140 113
-0.19231294 -0.16160724 -0.78710425 102 141 111
-0.19158787 -0.16001804 -0.78613514 106 131 117
-0.19217256 -0.15844117 -0.78714365 95 134 115
-0.19157772 -0.1607084 -0.78602999 110 131 118
-0.19166808 -0.15838464 -0.7864607 97 132 116
-0.19168159 -0.16029519 -0.78622681 107 131 118
-0.19196142 -0.15904668 -0.78677469 99 133 117
-0.19345844 -0.16220082 -0.78891546 87 159 100
-0.19253674 -0.16458797 -0.78628606 136 139 114
-0.19243948 -0.16397856 -0.78641868 128 140 113
-0.19193836 -0.16232492 -0.7863903 111 137 114
-0.1924029 -0.16293196 -0.78685999 113 142 111
-0.19190405 -0.16255765 -0.7862227 116 136 115
-0.19355604 -0.17344153 -0.78579926 76 133 116
-0.19351622 -0.1723074 -0.78592175 111 131 117
-0.19419427 -0.17164199 -0.78723842 111 131 118
-0.19385059 -0.17166923 -0.7866239 120 131 118
-0.19424795 -0.17202608 -0.78726828 99 131 117
-0.19525754 -0.17025442 -0.78933138 126 129 119
-0.19419573 -0.17319524 -0.7868759 76 134 115
-0.19500925 -0.17077006 -0.78880453 117 130 118
-0.19417398 -0.17299126 -0.78689826 80 133 116
-0.19429901 -0.17343375 -0.78697044 71 135 114
-0.19573158 -0.17255436 -0.78943372 83 136 114
-0.19494651 -0.17570557 -0.78771764 51 141 110
-0.19527459 -0.17665631 -0.78807336 78 142 112
-0.19578049 -0.17483881 -0.78904599 67 141 111
-0.19563746 -0.17497252 -0.78882015 64 141 111
-0.19444196 -0.17698421 -0.78681648 54 141 110
-0.19448847 -0.17533296 -0.78704405 51 139 111
-0.19450669 -0.17500058 -0.78709692 54 138 112
-0.1950203 -0.17470178 -0.78791553 55 139 112
-0.19464441 -0.17437814 -0.78735667 58 138 112
-0.19513252 -0.17406499 -0.78813684 59 138 112
-0.19539827 -0.17456196 -0.78851199 54 140 111
-0.19477944 -0.18088554 -0.78716558 140 124 120
-0.19542536 -0.18089727 -0.78810573 139 130 118
-0.19469367 -0.17805769 -0.7870822 83 140 112
-0.19460461 -0.17982146 -0.78692728 126 126 119
-0.19429231 -0.17896402 -0.78648394 94 132 115
-0.19377659 -0.18274803 -0.78582788 120 121 119
-0.19367956 -0.18263416 -0.78567934 123 120 120
-0.19397515 -0.18308076 -0.78614461 113 123 118
-0.19432545 -0.18217528 -0.78653556 132 118 122
-0.19450933 -0.18207744 -0.78679532 134 120 121
-0.19527154 -0.18312882 -0.78798968 111 127 118
-0.19483386 -0.18294938 -0.78733802 115 123 119
-0.18028727 -0.17766646 -0.76792544 47 146 112
-0.18163677 -0.17726478 -0.76946294 45 151 113
-0.18181793 -0.17872687 -0.76958758 41 150 110
-0.18074284 -0.18017551 -0.76836425 44 145 109
-0.18026617 -0.18008588 -0.76784086 46 144 110
-0.18124212 -0.17955931 -0.76893628 42 146 109
-0.18036176 -0.17830366 -0.76799256 46 146 112
-0.18050781 -0.17889018 -0.76814371 46 147 112
-0.18181862 -0.12858987 -0.78193724 148 141 116
-0.18304677 -0.12979536 -0.78351748 149 136 119
-0.18307666 -0.12958875 -0.78349918 148 137 118
-0.18170321 -0.12930536 -0.78198797 151 137 118
-0.18205674 -0.1278325 -0.78202784 144 145 114
-0.18257695 -0.12801029 -0.78262657 143 144 115
-0.18320288 -0.12780756 -0.78332704 139 144 115
-0.1831048 -0.1276439 -0.78318924 139 144 115
-0.18389502 -0.12872198 -0.78426576 141 140 117
-0.18402162 -0.12910603 -0.78446746 142 139 117
-0.1838111 -0.13182014 -0.78464109 148 130 122
-0.18329437 -0.13234536 -0.78413361 147 129 122
-0.18325399 -0.1326316 -0.78411049 146 129 122
-0.18392104 -0.13210848 -0.78477609 146 130 121
-0.18300942 -0.13192521 -0.78380585 149 130 122
-0.18408453 -0.13460265 -0.78510088 133 129 122
-0.18305717 -0.13287914 -0.78391749 145 129 123
-0.18266977 -0.13380207 -0.78351468 129 132 119
-0.18243518 -0.13318509 -0.78323829 135 131 120
-0.18291101 -0.13407826 -0.78378904 128 131 119
-0.18291911 -0.13396755 -0.78379494 130 131 120
-0.18112954 -0.13172914 -0.78167897 145 133 120
-0.18212005 -0.13697435 -0.78187692 103 136 118
-0.18265349 -0.13793343 -0.78202242 102 135 121
-0.18335216 -0.13620125 -0.78361565 117 131 121
-0.1826397 -0.13545753 -0.78318048 114 133 117
-0.182685 -0.13593562 -0.78300399 112 134 118
-0.18330978 -0.13621098 -0.78356415 117 131 121
-0.18311095 -0.1379934 -0.78255826 104 134 122
-0.18387634 -0.13723822 -0.78390807 107 133 121
-0.18408859 -0.13736649 -0.78418005 103 134 121
-0.18454166 -0.13771224 -0.78473884 93 137 119
-0.18431897 -0.13784404 -0.78437281 93 137 119
-0.18446366 -0.13749698 -0.78468984 97 136 120
-0.18447667 -0.13788791 -0.78459048 92 137 120
-0.18517292 -0.14202659 -0.78365391 70 137 114
-0.18485889 -0.1418715 -0.78321224 74 138 113
-0.1853168 -0.14070095 -0.78456914 70 139 115
-0.18449542 -0.14149491 -0.78279805 79 138 114
-0.18451312 -0.14164628 -0.78275239 78 138 113
-0.18443796 -0.14010434 -0.78348845 80 139 115
-0.18485965 -0.14004664 -0.78413856 76 140 115
-0.18430288 -0.13987289 -0.78342116 82 139 117
-0.18421781 -0.14186932 -0.78217071 82 138 113
-0.18303411 -0.13964872 -0.78168935 94 136 119
-0.1847239 -0.13929832 -0.78436178 77 140 117
-0.18316941 -0.13945167 -0.78199863 93 136 119
-0.18609154 -0.14309648 -0.78453928 68 137 113
-0.18735942 -0.14557046 -0.78507936 78 137 115
-0.18534896 -0.14259619 -0.78365558 68 137 113
-0.18509082 -0.14272657 -0.78316343 70 138 112
-0.18757342 -0.14768277 -0.78427887 73 138 115
-0.18822148 -0.14755967 -0.78533608 77 137 116
-0.18839429 -0.14800674 -0.7853806 75 138 115
-0.1882261 -0.14739013 -0.78542787 78 138 115
-0.18995541 -0.15359469 -0.78488064 72 135 114
-0.19007738 -0.15379192 -0.784962 73 134 114
-0.1902509 -0.15332468 -0.78546798 74 136 113
-0.18939844 -0.15286829 -0.78442973 68 135 114
-0.18943666 -0.15379018 -0.78399825 69 133 115
-0.1907149 -0.15693569 -0.78531057 91 131 116
-0.19038177 -0.15529427 -0.78502566 81 132 115
-0.19027096 -0.15614052 -0.78474563 84 131 116
-0.19064224 -0.15783377 -0.78510088 93 130 116
-0.19019806 -0.15712781 -0.78454041 85 131 116
-0.18997289 -0.15640487 -0.78429055 81 131 116
-0.18975233 -0.15739195 -0.78388655 80 132 115
-0.18901454 -0.1578301 -0.78276777 76 134 114
-0.18906115 -0.15698083 -0.7829172 75 133 114
-0.18941595 -0.15523736 -0.78361124 72 132 115
-0.18917708 -0.15433207 -0.78339136 69 132 115
-0.1882129 -0.15474662 -0.78207606 68 133 113
-0.18870172 -0.15534967 -0.78261882 71 132 115
-0.18863778 -0.15469265 -0.78263605 69 133 114
-0.19047712 -0.15827671 -0.78482312 91 131 116
-0.19086607 -0.16055386 -0.78506184 105 130 118
-0.19098693 -0.15852559 -0.78550863 100 130 117
-0.19059944 -0.16084801 -0.78459263 103 131 118
-0.19013403 -0.16157928 -0.78353614 96 134 118
-0.18953831 -0.16071366 -0.78275019 83 135 117
-0.19060786 -0.16086519 -0.78460222 103 131 117
-0.18961492 -0.1618593 -0.78252608 87 136 119
-0.18913709 -0.15908369 -0.78262073 79 134 116
-0.18857197 -0.15939786 -0.78167093 79 136 115
-0.18913074 -0.15892431 -0.78266466 78 134 115
-0.18966578 -0.16401201 -0.78187621 90 139 116
-0.19083123 -0.16259474 -0.78444093 109 132 118
-0.19063377 -0.16363868 -0.78373134 107 134 117
-0.19089629 -0.16250774 -0.78458631 110 131 118
-0.1900817 -0.16212976 -0.78326952 96 134 119
-0.19012679 -0.16414452 -0.78265697 98 137 116
-0.18973945 -0.16217217 -0.78264701 90 135 119
-0.19063175 -0.16543587 -0.78297693 111 138 115
-0.19098251 -0.16545613 -0.78349781 120 138 116
-0.19143227 -0.16320556 -0.78517163 124 131 118
-0.19090562 -0.16521673 -0.78348744 118 137 116
-0.19115047 -0.1635575 -0.78459048 117 133 117
-0.1911823 -0.16306753 -0.78485507 117 132 118
-0.19024609 -0.16584232 -0.78221482 103 140 114
-0.18935519 -0.16277896 -0.78171146 88 138 118
-0.19061127 -0.16973436 -0.78191245 135 128 118
-0.19080134 -0.16848639 -0.78245997 133 132 118
-0.19124216 -0.16771905 -0.78328627 139 133 118
-0.19148964 -0.16656904 -0.78390074 137 136 117
-0.19121116 -0.16603492 -0.78359181 128 138 116
-0.19109961 -0.16643628 -0.78333938 127 137 116
-0.19055679 -0.16859059 -0.78206873 128 131 117
-0.19085965 -0.16783284 -0.78268468 130 134 117
-0.19295572 -0.17317326 -0.78483087 90 132 115
-0.19247867 -0.17365156 -0.78397822 75 134 113
-0.19294827 -0.17275791 -0.78489906 103 132 116
-0.19272031 -0.17291038 -0.78450733 98 133 115
-0.19250797 -0.17234981 -0.78427351 114 132 115
-0.19110532 -0.1706267 -0.78246987 132 130 117
-0.19121714 -0.17299873 -0.78211212 89 135 112
-0.19135277 -0.17124498 -0.78270906 125 131 116
-0.1916187 -0.17267203 -0.78279632 103 134 112
-0.19338605 -0.17441921 -0.78535134 66 134 115
-0.19282603 -0.17557681 -0.78450012 78 136 115
-0.19289581 -0.17660867 -0.78455275 74 137 113
-0.19190638 -0.17727527 -0.78310925 97 139 116
-0.19110243 -0.17752494 -0.78194964 116 140 118
-0.19334036 -0.17598037 -0.78521633 64 137 113
-0.19301885 -0.17691436 -0.78471452 70 139 113
-0.19167963 -0.17503965 -0.78274119 85 136 114
-0.19176456 -0.17478147 -0.78286177 82 136 114
-0.19163911 -0.17522053 -0.78268683 87 137 115
-0.1919038 -0.17443968 -0.78306401 78 135 113
-0.19216341 -0.1746664 -0.78348881 80 136 114
-0.19145185 -0.1747569 -0.78236383 82 136 113
-0.19358505 -0.17874214 -0.78546065 71 132 114
-0.19344927 -0.18068208 -0.78524745 126 119 120
-0.19330704 -0.17996618 -0.78506809 108 125 117
-0.19254027 -0.1797079 -0.78411788 73 139 109
-0.19286853 -0.18045288 -0.7845161 102 129 115
-0.19224043 -0.18057117 -0.78373325 81 138 109
-0.19288376 -0.17953406 -0.78454745 82 135 112
-0.19292495 -0.17828669 -0.7846083 57 143 108
-0.19143154 -0.17907877 -0.78256893 78 146 110
-0.19144231 -0.17891015 -0.7825644 82 145 111
-0.19266702 -0.17824753 -0.7842353 65 142 110
-0.19115892 -0.17806298 -0.78205961 107 141 116
-0.19359758 -0.18205197 -0.78549159 136 116 122
-0.19271009 -0.18185575 -0.78433019 118 125 116
-0.1927955 -0.18301886 -0.78458428 94 133 111
-0.19313757 -0.18305461 -0.78501439 106 129 113
-0.19279915 -0.18193792 -0.78445137 120 124 117
-0.19204256 -0.1816743 -0.78347683 97 133 111
-0.19079991 -0.18854372 -0.78193331 84 124 119
-0.19113457 -0.18829665 -0.78242415 82 127 117
-0.19080769 -0.19196819 -0.78164446 106 121 119
-0.19090131 -0.19088858 -0.7819798 97 122 119
-0.19734932 -0.1501548 -0.79823792 79 138 117
-0.19770986 -0.14882106 -0.79844314 98 137 115
-0.19773027 -0.14982432 -0.79864198 89 138 116
-0.1968265 -0.14977707 -0.79751325 82 137 119
-0.1970433 -0.14754696 -0.79740435 101 135 116
-0.1976238 -0.15090802 -0.79844528 95 138 117
-0.20057505 -0.17449708 -0.79770148 123 130 118
-0.20031832 -0.17419718 -0.79734671 121 129 118
-0.17995341 -0.14026549 -0.77687091 81 135 115
-0.18255502 -0.14724697 -0.77658123 71 138 115
-0.18555991 -0.15640329 -0.77765369 91 128 120
-0.18536459 -0.15689951 -0.77726972 96 128 121
-0.18445359 -0.15770604 -0.77583539 92 131 119
-0.18548919 -0.15794048 -0.77719957 115 123 123
-0.18388014 -0.15746891 -0.775105 78 136 116
-0.1833895 -0.15779665 -0.77436173 75 138 116
-0.18405582 -0.15717734 -0.7754184 77 136 116
-0.18579455 -0.15877558 -0.77746433 113 124 122
-0.18629576 -0.16206555 -0.77752215 73 135 114
-0.18620865 -0.1618263 -0.77744699 76 134 115
-0.18515195 -0.16136979 -0.77605218 80 133 116
-0.18425693 -0.16199541 -0.77464986 75 135 115
-0.18525715 -0.1591278 -0.77662724 109 124 122
-0.18552285 -0.15978533 -0.77688402 99 127 120
-0.18519819 -0.16033676 -0.7763139 93 129 119
-0.18464902 -0.15969919 -0.77565908 100 129 119
-0.18338928 -0.15966621 -0.77394086 77 138 115
-0.18480831 -0.1597046 -0.77587605 102 128 120
-0.18366547 -0.16176851 -0.773857 77 136 115
-0.18453471 -0.15863112 -0.77573735 101 129 120
-0.18357894 -0.15979248 -0.7741729 80 137 116
-0.18647368 -0.1639304 -0.77744019 70 137 113
-0.18633787 -0.16274585 -0.77746034 71 137 113
-0.18675821 -0.16575424 -0.77747864 69 139 113
-0.18643039 -0.16469055 -0.7772314 68 138 113
-0.18583146 -0.16594331 -0.77581429 67 132 118
-0.18662712 -0.1655028 -0.77732724 68 138 113
-0.18516351 -0.16486192 -0.77506423 67 132 119
-0.18553028 -0.16312195 -0.77614766 68 133 116
-0.18506432 -0.16425779 -0.77509576 67 132 118
-0.18446022 -0.16242565 -0.77481759 73 135 115
-0.18436889 -0.16381389 -0.77423751 70 134 117
-0.18407142 -0.16333342 -0.77396619 73 134 117
-0.1847537 -0.16401331 -0.77472502 69 133 117
-0.18535899 -0.16266 -0.77603108 68 134 116
-0.18648778 -0.16767165 -0.77667552 75 139 114
-0.18680422 -0.1686542 -0.77707297 80 141 112
-0.18669695 -0.16668309 -0.77719057 71 139 113
-0.18694815 -0.16711539 -0.77755964 73 141 112
-0.18591061 -0.16924474 -0.77525008 68 146 109
-0.18630998 -0.16800725 -0.77629364 75 139 114
-0.18599182 -0.16726537 -0.77585864 71 136 116
-0.18626617 -0.16945443 -0.77587837 72 147 109
-0.18558174 -0.1698181 -0.77449292 62 151 107
-0.18553557 -0.16729 -0.7749902 65 138 115
-0.18502924 -0.16752511 -0.77417642 65 138 115
-0.18477707 -0.16701223 -0.77390665 66 135 117
-0.18563502 -0.17218591 -0.7740047 56 148 106
-0.18577515 -0.1715259 -0.77443218 60 148 107
-0.18616995 -0.17106847 -0.77529871 66 148 107
-0.18575099 -0.17288926 -0.77404213 54 147 106
-0.1869898 -0.17033526 -0.77704334 80 146 109
-0.18625458 -0.1722718 -0.77515596 63 146 107
-0.1869162 -0.17269409 -0.77598441 73 145 109
-0.18714142 -0.17220962 -0.77651924 77 145 110
-0.18687527 -0.17284422 -0.77586043 71 145 109
-0.18688799 -0.172704 -0.7759394 72 146 109
-0.18754639 -0.1720089 -0.77719116 84 145 111
-0.18606043 -0.17330219 -0.77448505 58 145 107
-0.18611352 -0.17353567 -0.77446085 58 145 107
-0.18713273 -0.17731789 -0.77595478 96 136 113
-0.18810929 -0.17672274 -0.77741987 100 139 114
-0.18813825 -0.17479593 -0.77730572 94 142 114
-0.18680716 -0.17720738 -0.77544081 93 136 113
-0.18842766 -0.17432931 -0.77771592 94 143 114
-0.18696968 -0.17744099 -0.77571213 95 136 113
-0.18601871 -0.17623283 -0.77421886 78 138 111
-0.18626262 -0.17637312 -0.77457261 83 137 112
-0.18757312 -0.1749143 -0.77645338 89 141 113
-0.18666103 -0.17535281 -0.77513927 80 140 112
-0.18637535 -0.17519504 -0.77472502 74 140 111
-0.18767908 -0.17438878 -0.77660185 86 143 113
-0.1857892 -0.17756528 -0.77389908 87 134 112
-0.18758062 -0.17941767 -0.77666277 92 139 114
-0.18774672 -0.17925711 -0.77694464 94 139 114
-0.18774508 -0.17973207 -0.7769779 93 138 113
-0.18699773 -0.18129705 -0.77577382 80 139 114
-0.18802218 -0.18024094 -0.77750731 95 136 113
-0.18607152 -0.18150671 -0.77414984 70 144 115
-0.18639758 -0.17867655 -0.774795 87 137 113
-0.18723579 -0.17850788 -0.77610439 94 138 114
-0.18717562 -0.17923464 -0.77596927 89 140 114
-0.18696654 -0.17825428 -0.77570152 93 137 114
-0.18592048 -0.17869911 -0.77405387 84 136 113
-0.18634792 -0.17882797 -0.77470928 86 137 114
-0.18727787 -0.18529794 -0.77653086 72 139 110
-0.18756846 -0.18475616 -0.77685755 85 135 115
-0.18694186 -0.1842102 -0.77583897 73 139 112
-0.18590721 -0.18208568 -0.7739408 65 144 114
-0.18674918 -0.18331939 -0.7753979 75 140 114
-0.18792413 -0.18233915 -0.77744699 89 135 113
-0.18669936 -0.18251456 -0.77528006 77 140 115
-0.18648025 -0.18235762 -0.7748906 74 141 114
-0.18656743 -0.18268786 -0.77504808 74 141 114
-0.18621585 -0.18201154 -0.77441919 71 142 115
-0.186744 -0.18170024 -0.77535135 77 140 114
-0.18794617 -0.1863334 -0.7776984 90 133 115
-0.18774477 -0.18704924 -0.77753627 86 134 114
-0.1874395 -0.1890675 -0.77745932 85 134 114
-0.18787548 -0.18589729 -0.77751714 86 134 114
-0.18604848 -0.18849562 -0.7753042 78 136 109
-0.18674155 -0.18839808 -0.77631706 73 137 110
-0.18638444 -0.189347 -0.77594084 92 133 112
-0.18576592 -0.18779576 -0.77477139 66 139 106
-0.18549785 -0.18783572 -0.77438706 68 139 106
-0.18759046 -0.18953313 -0.77772444 89 133 114
-0.18759921 -0.19081056 -0.77736175 77 135 111
-0.18630177 -0.19031955 -0.77558041 88 133 110
-0.1871651 -0.19010453 -0.77692503 86 134 112
-0.18641943 -0.19319789 -0.77510411 77 139 103
-0.18589607 -0.19067927 -0.7749297 90 134 109
-0.18590908 -0.19185187 -0.77469337 87 136 106
-0.18651126 -0.19333693 -0.77520037 77 138 104
-0.18661794 -0.19096607 -0.77586138 81 135 109
-0.18661419 -0.19186258 -0.77566177 78 137 107
-0.18551703 -0.19035321 -0.77448124 95 133 109
-0.18626583 -0.19339016 -0.7748577 79 139 103
-0.18565483 -0.19407633 -0.7742098 78 138 102
-0.18575044 -0.19390699 -0.77423841 81 137 103
-0.18609457 -0.19417474 -0.77464044 78 137 104
-0.18948376 -0.13329735 -0.79160225 116 131 119
-0.18950023 -0.13286722 -0.79164118 112 132 119
-0.18929306 -0.13300826 -0.79137111 113 132 119
-0.18889633 -0.1334817 -0.79092133 116 132 119
-0.1901245 -0.13576499 -0.79267931 129 129 121
-0.18952134 -0.13570525 -0.79163009 135 129 121
-0.18927464 -0.13644716 -0.7912696 134 131 121
-0.18846567 -0.13702905 -0.7901333 122 135 119
-0.18803026 -0.13611771 -0.78976411 121 134 119
-0.18802182 -0.13675562 -0.78967404 119 136 118
-0.18849717 -0.13622758 -0.79026973 124 133 119
-0.19124608 -0.14555803 -0.79060054 104 140 112
-0.1903608 -0.14518891 -0.78962976 101 140 111
-0.19078568 -0.14481977 -0.79032123 108 140 111
-0.19262776 -0.14590195 -0.79221153 110 142 113
-0.19144814 -0.14506984 -0.79105848 110 140 112
-0.19057252 -0.14571261 -0.78968215 97 140 110
-0.19401757 -0.14928333 -0.7926088 95 141 116
-0.19351685 -0.14787693 -0.79252672 106 141 113
-0.1934147 -0.15000384 -0.79149806 108 135 115
-0.19376433 -0.1490844 -0.7923525 101 140 114
-0.19305278 -0.14924741 -0.79132694 107 137 114
-0.19217555 -0.15031405 -0.78969532 100 135 116
-0.19335765 -0.14765878 -0.79240465 110 139 113
-0.19278471 -0.14876574 -0.79116696 104 138 114
-0.1913988 -0.14758705 -0.78991872 95 139 112
-0.1911633 -0.1466904 -0.79002088 94 140 111
-0.19290857 -0.14723104 -0.7919935 106 141 113
-0.19183297 -0.14908221 -0.789801 97 137 114
-0.19249395 -0.14819044 -0.79103839 103 138 114
-0.19115102 -0.14705729 -0.78984123 94 140 112
-0.19455269 -0.15113547 -0.79272902 97 140 116
-0.19454263 -0.15123804 -0.79269719 98 140 116
-0.19342771 -0.15325856 -0.79007363 93 140 111
-0.19367741 -0.15276849 -0.79076427 102 138 112
-0.19379333 -0.15350072 -0.79064465 100 139 111
-0.19373025 -0.15366276 -0.7904526 98 140 111
-0.19397534 -0.15290287 -0.79125851 108 137 113
-0.19348924 -0.15351352 -0.79007149 93 140 111
-0.19303885 -0.15326042 -0.78951049 89 140 112
-0.19311412 -0.15245028 -0.78998429 94 139 112
-0.19270994 -0.1511493 -0.79003626 99 136 114
-0.19405214 -0.15555042 -0.79053736 101 140 112
-0.19402862 -0.15699711 -0.79023397 100 139 114
-0.19444317 -0.15643951 -0.79110742 110 138 114
-0.19427322 -0.15554595 -0.7909506 106 139 113
-0.19418831 -0.15456931 -0.7909674 104 139 112
-0.19352658 -0.15432368 -0.78977686 89 142 110
-0.19386984 -0.1581796 -0.78968012 97 140 115
-0.19427708 -0.15797167 -0.79036963 109 138 115
-0.19439645 -0.15939179 -0.79042083 109 145 111
-0.19429241 -0.15841265 -0.79030722 110 139 115
-0.19676059 -0.17340696 -0.79104203 119 134 116
-0.19624867 -0.17344418 -0.79007107 84 136 114
-0.19645506 -0.1727224 -0.79063642 109 131 118
-0.19631523 -0.17218399 -0.79054046 113 129 118
-0.19547042 -0.17018332 -0.78970408 131 128 119
-0.19554944 -0.17051098 -0.78973979 126 129 119
-0.19608028 -0.17228964 -0.79010731 102 132 116
-0.18012448 -0.12651552 -0.779535 148 139 118
-0.1804478 -0.12623252 -0.77975059 141 140 117
-0.18115921 -0.12714309 -0.78089929 144 145 114
-0.18050364 -0.12785622 -0.78031474 148 142 116
-0.18029481 -0.12896834 -0.78031093 151 139 116
-0.18133944 -0.12884647 -0.7814576 150 140 117
-0.18183267 -0.13738143 -0.78134334 103 136 119
-0.1804373 -0.13849626 -0.77884829 89 135 118
-0.18154038 -0.1376923 -0.78083575 100 135 119
-0.18187651 -0.13876165 -0.78075689 96 135 122
-0.18356484 -0.14124696 -0.78158271 87 136 116
-0.1826517 -0.14123692 -0.78034222 82 136 115
-0.18172882 -0.14059421 -0.77940339 80 135 117
-0.18366407 -0.14204983 -0.78130156 82 137 113
-0.18130775 -0.13874899 -0.77999097 93 136 120
-0.18149368 -0.13873339 -0.78027362 94 136 121
-0.18371715 -0.14631383 -0.77892756 77 143 110
-0.1843733 -0.14347231 -0.78160459 75 142 109
-0.18391055 -0.14547934 -0.779715 76 143 109
-0.18411405 -0.14590113 -0.77985567 72 146 108
-0.18353851 -0.14729863 -0.77805877 79 139 113
-0.18386634 -0.14878502 -0.77780688 71 138 114
-0.1856901 -0.15615293 -0.77793205 87 129 120
-0.18687715 -0.15467411 -0.78010744 68 133 115
-0.18588817 -0.15641318 -0.77817231 91 128 120
-0.18573003 -0.15508153 -0.77826369 69 133 117
-0.18581873 -0.15729061 -0.77784836 105 125 122
-0.18704876 -0.15556751 -0.78014565 83 129 117
-0.18629478 -0.15648925 -0.77877098 95 128 120
-0.18723147 -0.15559736 -0.78042144 83 129 117
-0.18793611 -0.155287 -0.78163248 69 134 113
-0.18765625 -0.15665513 -0.78091246 81 131 116
-0.18697958 -0.15668522 -0.77980095 94 128 119
-0.1874463 -0.15809225 -0.78029346 92 130 118
-0.18612725 -0.15814964 -0.77812701 116 123 123
-0.18864419 -0.16043289 -0.78143895 81 136 116
-0.18827127 -0.16120274 -0.78065091 80 136 116
-0.18783113 -0.15987697 -0.78044468 77 135 114
-0.18747225 -0.16156167 -0.77938056 77 136 115
-0.18701603 -0.16192168 -0.77860498 76 136 114
-0.18804559 -0.15924327 -0.78095967 77 134 115
-0.18660398 -0.16028702 -0.77840579 88 131 117
-0.18692285 -0.16028184 -0.77892804 82 133 116
-0.18730445 -0.15940127 -0.77975863 84 132 116
-0.18668947 -0.15879028 -0.7788974 100 128 119
-0.18631028 -0.16002846 -0.77798665 96 128 119
-0.18710411 -0.15945734 -0.77941805 87 131 117
-0.18830326 -0.16563132 -0.77952844 83 141 112
-0.18921028 -0.16411802 -0.78111333 91 140 115
-0.18911961 -0.16550216 -0.7805804 93 142 112
-0.18822354 -0.1643634 -0.77981067 80 138 115
-0.18889958 -0.16257977 -0.78117746 84 137 118
-0.18728353 -0.16378888 -0.77862263 74 137 114
-0.187107 -0.16245928 -0.77861148 76 136 115
-0.18701132 -0.16288836 -0.77839458 75 136 114
-0.18744531 -0.16255932 -0.77908176 77 136 116
-0.18677074 -0.16345926 -0.77794242 73 136 113
-0.18665542 -0.16250981 -0.77794993 74 136 114
-0.188104 -0.16211778 -0.78011417 81 135 117
-0.18985359 -0.16650185 -0.78141481 101 141 113
-0.19013625 -0.16965649 -0.78125834 127 130 117
-0.19018483 -0.16946164 -0.78134608 127 130 117
-0.18887365 -0.16750699 -0.77994734 97 143 111
-0.18809125 -0.16963464 -0.77872986 96 142 110
-0.18873049 -0.16844693 -0.77965432 99 142 111
-0.18809284 -0.1695763 -0.77873927 95 142 111
-0.18755609 -0.16611414 -0.77847385 76 141 111
-0.1872551 -0.16611207 -0.77810067 73 140 112
-0.18772525 -0.16605872 -0.7786898 78 141 111
-0.18814951 -0.16807528 -0.7789939 89 145 110
-0.18734677 -0.16653793 -0.77816749 74 141 111
-0.19047166 -0.17049579 -0.78155011 124 129 117
-0.18980324 -0.17021331 -0.78073829 118 133 114
-0.19024023 -0.17141449 -0.78107667 103 133 113
-0.18945885 -0.173565 -0.77927649 91 142 110
-0.19022888 -0.17257562 -0.78076535 89 136 111
-0.19002762 -0.17172022 -0.78070426 98 135 112
-0.19004394 -0.17301577 -0.78034818 87 139 110
-0.18900982 -0.17268863 -0.77887172 99 141 113
-0.18925083 -0.17076346 -0.77979404 113 136 114
-0.18860389 -0.17036459 -0.77915317 104 139 112
-0.18811835 -0.17265068 -0.77773935 91 145 113
-0.18815109 -0.17251654 -0.77782744 91 144 113
-0.18787917 -0.17007606 -0.77838105 94 143 110
-0.18829066 -0.1727269 -0.77792013 93 144 113
-0.19070916 -0.1744605 -0.78117788 82 138 111
-0.19045784 -0.17513439 -0.78082347 94 139 113
-0.190595 -0.17504872 -0.78103215 90 140 112
-0.19073334 -0.17455029 -0.78122032 82 137 111
-0.18953769 -0.17465577 -0.7793346 93 143 111
-0.18997541 -0.17552736 -0.78007942 102 142 114
-0.18952428 -0.17434591 -0.7793116 91 143 110
-0.18953939 -0.17709744 -0.77933937 102 141 116
-0.18920562 -0.17685537 -0.77889025 100 141 115
-0.18897632 -0.17753519 -0.77861089 103 140 116
-0.1884038 -0.17608947 -0.77781987 99 141 113
-0.18867411 -0.17459534 -0.77810127 94 143 113
-0.18997283 -0.17925148 -0.78028995 81 147 111
-0.18896745 -0.18063213 -0.77889687 87 141 112
-0.18934663 -0.17881559 -0.77919441 96 142 115
-0.18919322 -0.17880347 -0.77896309 98 140 116
-0.18929839 -0.18036188 -0.77935177 84 143 111
-0.18828702 -0.17781189 -0.7777735 103 138 114
-0.18903476 -0.17796868 -0.77869469 103 140 116
-0.18832423 -0.17871615 -0.77786642 101 137 114
-0.1894857 -0.18395028 -0.7796303 90 139 111
-0.18984282 -0.18359832 -0.7802788 72 142 110
-0.19012165 -0.18541856 -0.78060436 77 135 115
-0.18980207 -0.18476206 -0.78010786 84 136 113
-0.18921386 -0.18510321 -0.77918017 98 135 113
-0.18938497 -0.18477182 -0.77941918 97 136 112
-0.18927994 -0.18428431 -0.7793321 92 137 112
-0.18818685 -0.18439484 -0.77790099 89 134 114
-0.18877953 -0.18319725 -0.77877802 81 141 110
-0.18903236 -0.18266234 -0.77915192 78 143 109
-0.19053844 -0.18837816 -0.7815116 86 123 121
-0.18966201 -0.18588486 -0.77982128 99 132 115
-0.18996425 -0.18655705 -0.78039116 93 130 116
-0.1896109 -0.18776925 -0.78001535 108 126 118
-0.18966223 -0.1881187 -0.78014392 109 124 119
-0.18956555 -0.18909937 -0.78016442 114 121 122
-0.18899453 -0.18779415 -0.77922601 105 129 117
-0.18915391 -0.18773364 -0.77941453 107 128 117
-0.18914157 -0.18880199 -0.77957034 111 124 120
-0.1886799 -0.18739527 -0.77877074 99 132 115
-0.18848851 -0.18654913 -0.77840388 95 133 114
-0.18828943 -0.18622965 -0.77810997 93 133 114
-0.18824294 -0.18556195 -0.77795017 92 133 115
-0.18988869 -0.18956366 -0.78066325 110 120 122
-0.19074664 -0.19147101 -0.78162336 105 120 120
-0.19025439 -0.1903791 -0.7810722 107 121 121
-0.18952343 -0.19080958 -0.77990609 108 123 120
-0.18965234 -0.19057664 -0.78015625 113 121 121
-0.18961473 -0.19131286 -0.77995157 106 124 119
-0.19012718 -0.19246411 -0.78053629 106 124 118
-0.18930712 -0.19094694 -0.77956051 102 125 119
-0.18873359 -0.19232352 -0.77847528 72 134 111
-0.18790892 -0.1896389 -0.77809596 92 131 115
-0.18805659 -0.19075882 -0.77800363 80 134 113
-0.18815866 -0.19154498 -0.77793682 72 135 111
-0.18880439 -0.1910203 -0.77886915 89 129 115
-0.18971501 -0.19421926 -0.77961141 85 132 114
-0.18935345 -0.19377707 -0.77914751 83 130 115
-0.19165808 -0.1371247 -0.79508609 120 135 118
-0.19103003 -0.13526827 -0.79429531 113 130 119
-0.19146286 -0.13660043 -0.79486859 119 134 119
-0.19154309 -0.13630366 -0.79502755 116 133 118
-0.1911947 -0.13691521 -0.79440308 124 133 119
-0.19072399 -0.13489319 -0.79383498 113 129 119
-0.19128762 -0.13670744 -0.7945739 122 133 119
-0.19577196 -0.14985786 -0.79523021 81 142 118
-0.19520354 -0.15014502 -0.79395509 78 145 118
-0.19630255 -0.14839186 -0.79603863 92 139 116
-0.19657438 -0.14899729 -0.79688519 88 138 118
-0.19601665 -0.15032329 -0.79596692 77 141 119
-0.19601278 -0.14992417 -0.79583037 80 140 119
-0.1952375 -0.14846465 -0.79443359 92 143 116
-0.19461711 -0.14804129 -0.79387838 95 143 116
-0.19468364 -0.14843364 -0.79380935 92 143 116
-0.19530946 -0.14795732 -0.79470408 96 141 116
-0.19466564 -0.14948454 -0.79339939 84 145 118
-0.19596316 -0.15069918 -0.79576099 82 140 119
-0.19514807 -0.15178815 -0.79345202 97 142 116
-0.1957887 -0.15176058 -0.79500115 97 139 118
-0.19598193 -0.15139529 -0.79558289 91 138 118
-0.1954709 -0.15190044 -0.79419225 98 140 117
-0.19987719 -0.17485437 -0.79645497 114 130 117
-0.20004857 -0.17424572 -0.79690188 117 129 118
-0.20002276 -0.17474391 -0.7967146 116 130 117
-0.19888246 -0.17584829 -0.79448986 116 132 117
-0.19880743 -0.17603932 -0.79431981 114 132 117
0 0 0 1 0 0 0 1 0 0 0 1 0 0 0 0 0 735 1 0 0
