ply
format ascii 1.0
comment PCL generated
element vertex 684
property float x
property float y
property float z
property uchar red
property uchar green
property uchar blue
element camera 1
property float view_px
property float view_py
property float view_pz
property float x_axisx
property float x_axisy
property float x_axisz
property float y_axisx
property float y_axisy
property float y_axisz
property float z_axisx
property float z_axisy
property float z_axisz
property float focal
property float scalex
property float scaley
property float centerx
property float centery
property int viewportx
property int viewporty
property float k1
property float k2
end_header
-0.082188085 -0.35533658 -0.67599177 155 145 126
-0.081990875 -0.35536188 -0.67594904 156 145 126
-0.082238711 -0.35624379 -0.67610395 135 147 123
-0.080267809 -0.35617679 -0.67566437 141 148 124
-0.080477253 -0.35710907 -0.67582107 117 153 120
-0.078594543 -0.3570731 -0.67544115 120 152 120
-0.077305183 -0.35741502 -0.6752212 116 150 122
-0.079347767 -0.35725668 -0.67561138 114 154 119
-0.077138633 -0.35622543 -0.67505831 143 145 123
-0.077427469 -0.35544392 -0.67503071 159 144 124
-0.080026492 -0.35602167 -0.67559606 144 148 124
-0.07854557 -0.35581833 -0.67529368 148 147 123
-0.073565103 -0.35679248 -0.67453402 133 144 127
-0.072670989 -0.35712171 -0.6744346 129 143 128
-0.07381428 -0.35651934 -0.67454213 137 144 126
-0.074273698 -0.35711661 -0.67467618 128 145 126
-0.073954143 -0.35692355 -0.67460698 130 144 126
-0.075351693 -0.35562569 -0.67467684 155 142 125
-0.074273117 -0.35493445 -0.67443931 165 142 126
-0.068485066 -0.35515079 -0.67370009 171 146 126
-0.068798371 -0.35422942 -0.6736728 172 150 125
-0.068557091 -0.35615849 -0.67378807 166 143 127
-0.06975995 -0.35571909 -0.67392284 156 146 127
-0.069677733 -0.35622278 -0.67395025 155 144 128
-0.06937521 -0.35427022 -0.67374873 169 149 126
-0.070977956 -0.35420209 -0.67391652 172 145 127
-0.070633717 -0.35538185 -0.67400664 154 146 127
-0.070878305 -0.35594726 -0.67409462 146 146 128
-0.07120309 -0.35598612 -0.67413437 146 144 128
-0.066607058 -0.35637978 -0.67365324 180 138 128
-0.067987964 -0.3572236 -0.6738165 166 138 128
-0.065281384 -0.35728753 -0.67364031 173 146 125
-0.067101859 -0.35612899 -0.67366558 181 136 129
-0.067296863 -0.35606989 -0.67367542 179 137 128
-0.068010733 -0.35609213 -0.6737296 172 141 128
-0.067531444 -0.35562727 -0.67365843 179 140 128
-0.077472441 -0.3577998 -0.67529589 114 149 121
-0.077952079 -0.35802361 -0.67541558 111 150 120
-0.073111936 -0.35957626 -0.67477322 119 139 125
-0.072291918 -0.35867128 -0.67455173 125 140 128
-0.073645934 -0.35877061 -0.67475909 116 140 126
-0.068768598 -0.36128959 -0.67431521 118 147 121
-0.070257656 -0.36032134 -0.67444235 133 140 124
-0.068872005 -0.36044261 -0.6742444 129 144 123
-0.071541272 -0.36093348 -0.67469972 130 137 125
-0.069558613 -0.36078453 -0.67438358 126 143 123
-0.069625072 -0.35919988 -0.67423177 145 139 126
-0.070991799 -0.35779139 -0.67426926 137 140 128
-0.071837179 -0.35904601 -0.67453045 129 139 127
-0.072126843 -0.35987335 -0.67466509 127 138 126
-0.06853988 -0.35753587 -0.67389631 161 139 128
-0.069808699 -0.35804629 -0.67413229 149 139 128
-0.072133765 -0.36006549 -0.67468792 127 138 126
-0.065555997 -0.35935947 -0.67385125 153 147 124
-0.065362811 -0.35870427 -0.67378062 159 148 124
-0.064608105 -0.35846213 -0.67369503 166 147 125
-0.065263525 -0.35979152 -0.67386132 152 146 125
-0.066068031 -0.36053154 -0.6739921 141 146 124
-0.067463547 -0.36035857 -0.6740979 131 148 121
-0.066741318 -0.35808918 -0.67381763 160 145 125
-0.065786585 -0.35862756 -0.67380863 156 149 123
-0.067552403 -0.35929605 -0.67399532 143 145 123
-0.067094877 -0.35798043 -0.67383021 160 144 126
-0.067403488 -0.35895145 -0.67395014 148 145 124
-0.061413504 -0.35958374 -0.67354274 159 156 122
-0.06100985 -0.36067387 -0.67364162 141 163 113
-0.06218449 -0.36081892 -0.6737268 144 156 119
-0.061477903 -0.35979041 -0.6735698 156 156 121
-0.063478284 -0.36115095 -0.67383993 147 148 124
-0.062727846 -0.35911372 -0.67358178 169 148 128
-0.064206235 -0.35826319 -0.67364323 170 148 125
-0.063594162 -0.35798711 -0.67356616 173 149 126
-0.058486991 -0.36082008 -0.67360598 163 149 116
-0.060145177 -0.36047581 -0.67360044 143 164 112
-0.059232868 -0.35997707 -0.67356312 156 158 114
-0.054290947 -0.36045563 -0.67356819 178 136 126
-0.048635039 -0.36132079 -0.6738894 139 143 124
-0.040524222 -0.36115941 -0.67437249 147 138 124
-0.039414406 -0.36067048 -0.67447376 143 138 123
-0.039466999 -0.36090294 -0.67447174 141 139 122
-0.033533365 -0.35852087 -0.67512828 142 137 121
-0.035109743 -0.36072895 -0.67494363 124 140 117
-0.034735657 -0.35951731 -0.67498636 134 138 119
-0.033610944 -0.36119375 -0.6751231 120 141 119
-0.033376731 -0.36061603 -0.67515016 125 140 119
-0.036187056 -0.35920414 -0.67479891 139 138 119
-0.032355119 -0.3612566 -0.67525578 131 141 120
-0.031387571 -0.35996625 -0.67533654 142 141 120
-0.032708183 -0.35964069 -0.67521346 135 140 120
-0.073110715 -0.36425874 -0.67545974 116 141 121
-0.072943479 -0.36262205 -0.67516994 121 138 123
-0.072586946 -0.364692 -0.67544174 118 142 121
-0.07346642 -0.36288473 -0.67529917 118 138 122
-0.068898313 -0.36418459 -0.6748268 132 137 118
-0.069048651 -0.36294693 -0.67463309 123 143 119
-0.071004957 -0.36494717 -0.67525071 124 141 120
-0.069410995 -0.36350417 -0.67477989 124 142 119
-0.069229625 -0.36374012 -0.67479563 127 140 119
-0.071120299 -0.36421213 -0.67513925 119 144 121
-0.068864271 -0.36134148 -0.67433584 118 147 121
-0.070201546 -0.36241427 -0.67471045 119 144 121
-0.072193392 -0.36465937 -0.675372 119 142 121
-0.071003854 -0.36190802 -0.67475128 122 141 122
-0.071969375 -0.36293176 -0.67506164 122 140 122
-0.071291588 -0.36306196 -0.67497951 120 142 121
-0.06662672 -0.36428827 -0.6746006 137 137 119
-0.064870596 -0.36477137 -0.67447817 114 147 116
-0.066611119 -0.36382601 -0.67452973 142 136 121
-0.065842599 -0.36327416 -0.67436206 141 139 122
-0.066340797 -0.36477357 -0.67464143 128 140 117
-0.067644283 -0.36325628 -0.67452902 135 138 120
-0.067965083 -0.36438772 -0.67475307 140 135 118
-0.06591069 -0.36243227 -0.67423528 145 139 125
-0.066145413 -0.36150604 -0.67409515 137 144 125
-0.06745673 -0.36339179 -0.67453623 138 138 121
-0.06778273 -0.3617579 -0.67428136 124 145 121
-0.062630311 -0.36365101 -0.67414522 117 158 112
-0.060913973 -0.36445528 -0.67403579 146 153 119
-0.061136801 -0.36271665 -0.67388934 130 163 111
-0.062261093 -0.36356089 -0.67409575 121 159 112
-0.060560003 -0.36334014 -0.67388725 142 159 115
-0.063263491 -0.36381528 -0.67421913 115 155 113
-0.064114131 -0.36363083 -0.67424148 121 149 118
-0.06176661 -0.36167121 -0.67381084 131 162 113
-0.063914083 -0.36284602 -0.67411238 130 148 120
-0.063997887 -0.36215571 -0.67401409 138 146 123
-0.05667476 -0.36361304 -0.67380601 181 129 124
-0.057734396 -0.36353475 -0.67383176 176 134 123
-0.056676425 -0.3642416 -0.67386264 179 128 125
-0.05711339 -0.36503938 -0.67394817 174 129 125
-0.058232237 -0.36452511 -0.67393643 170 136 124
-0.059987426 -0.36498648 -0.67403239 160 145 122
-0.060023502 -0.36260638 -0.67380172 145 158 114
-0.059915617 -0.36314464 -0.67385221 151 153 117
-0.059896581 -0.36169639 -0.67370945 140 161 111
-0.060511094 -0.36289641 -0.67384136 139 161 113
-0.059549734 -0.36304629 -0.6738342 156 150 117
-0.054741248 -0.36417398 -0.67388678 157 134 125
-0.054095872 -0.36456889 -0.67394847 146 136 123
-0.055760127 -0.36499631 -0.6739493 165 130 125
-0.055411227 -0.3650088 -0.67396039 161 131 124
-0.054686137 -0.36463824 -0.67393965 154 134 124
-0.054892059 -0.36218736 -0.67368942 169 135 125
-0.054984037 -0.36351171 -0.6738081 165 134 126
-0.056028318 -0.36242464 -0.67370236 180 131 125
-0.055325244 -0.36245939 -0.67371076 172 134 125
-0.055993944 -0.36151806 -0.67362088 183 133 123
-0.050250899 -0.36393735 -0.67403042 135 142 122
-0.050258946 -0.36499435 -0.67410409 137 141 122
-0.049439561 -0.36252582 -0.67395175 136 143 123
-0.051739302 -0.36476365 -0.67405152 128 142 121
-0.049779337 -0.36433151 -0.67406958 138 141 123
-0.051476285 -0.36278147 -0.67387086 136 143 124
-0.052166406 -0.36320299 -0.67387241 135 143 123
-0.05221111 -0.36319372 -0.67386848 136 143 124
-0.052667852 -0.36356801 -0.67388004 135 143 124
-0.051707417 -0.36343235 -0.67392778 132 143 123
-0.045147076 -0.36506432 -0.67429465 150 132 124
-0.046667349 -0.36478561 -0.67421061 149 136 124
-0.046017405 -0.36481786 -0.67423993 150 134 124
-0.045492426 -0.36501822 -0.67427695 150 132 124
-0.046950225 -0.36435863 -0.67416614 150 137 124
-0.048592664 -0.36150104 -0.67390317 139 143 124
-0.0467536 -0.36147523 -0.6739645 149 140 125
-0.047116488 -0.36155668 -0.67395771 148 140 124
-0.048571955 -0.36490539 -0.67414182 146 140 124
-0.047898192 -0.36360726 -0.67407423 147 140 125
-0.041172445 -0.36328658 -0.67442119 151 137 122
-0.041514322 -0.36458012 -0.67447025 153 135 120
-0.041673325 -0.36272129 -0.67436397 149 137 123
-0.043597288 -0.3646782 -0.67436075 150 133 123
-0.041807346 -0.36389089 -0.67441791 151 136 121
-0.044345289 -0.36516601 -0.6743452 151 132 123
-0.038669948 -0.36341423 -0.67466068 136 138 117
-0.038061723 -0.36417091 -0.67475069 137 138 119
-0.038587373 -0.36470047 -0.67472744 142 138 119
-0.039735116 -0.36494967 -0.67463493 148 137 119
-0.039132118 -0.36380154 -0.67463666 139 137 117
-0.039955806 -0.36339107 -0.67453814 143 137 119
-0.04051318 -0.36242753 -0.67443353 146 138 121
-0.03981005 -0.36331967 -0.67454851 142 137 118
-0.039650828 -0.36199352 -0.67449439 139 138 121
-0.037574247 -0.36158526 -0.67467433 122 140 116
-0.033812393 -0.36433992 -0.6752184 149 137 123
-0.034510702 -0.3640354 -0.67512929 142 138 122
-0.036543865 -0.36516023 -0.67494601 142 138 123
-0.03549204 -0.36482322 -0.67505014 145 137 123
-0.035134852 -0.36272529 -0.67500591 126 140 120
-0.036283273 -0.36387542 -0.67492187 132 139 121
-0.035574801 -0.36152491 -0.67489809 120 140 118
-0.037099037 -0.36349255 -0.67480689 130 139 119
-0.036952518 -0.36472031 -0.67488098 137 139 122
-0.033065811 -0.36246678 -0.67522883 134 140 121
-0.031298634 -0.36134088 -0.67536259 145 142 122
-0.027454579 -0.36506999 -0.67581147 148 140 125
-0.026253527 -0.36425719 -0.67591214 147 138 124
-0.025855057 -0.36396697 -0.67594582 148 137 124
-0.024815591 -0.36323479 -0.67608654 144 138 121
-0.072461247 -0.36912686 -0.67613751 128 136 121
-0.07232289 -0.366173 -0.67563683 121 142 121
-0.072568104 -0.36731076 -0.67586237 123 139 120
-0.073105074 -0.3674269 -0.67597067 121 138 120
-0.072310671 -0.3685796 -0.67602533 127 137 121
-0.070371613 -0.36789033 -0.67562366 136 135 120
-0.068911098 -0.36688539 -0.67524409 142 135 119
-0.068577714 -0.36846909 -0.67539507 146 138 120
-0.070118956 -0.36777255 -0.67556536 137 135 120
-0.068825781 -0.3683306 -0.67541897 144 137 120
-0.068575464 -0.36785412 -0.67531407 145 137 120
-0.071980804 -0.3666158 -0.67565978 124 140 121
-0.071922235 -0.36545753 -0.67546374 121 142 120
-0.071124978 -0.36653116 -0.67552751 129 137 120
-0.0700261 -0.36565009 -0.67523235 134 136 119
-0.071074106 -0.36676791 -0.67555887 130 137 120
-0.072092697 -0.36779356 -0.67586637 127 138 121
-0.064714991 -0.36814803 -0.67494315 129 143 119
-0.064664207 -0.36564267 -0.67458028 109 149 115
-0.064955473 -0.36702406 -0.67480642 121 145 118
-0.065286711 -0.36608601 -0.67470533 114 148 115
-0.064588554 -0.36702368 -0.67477 119 146 117
-0.067226537 -0.36762023 -0.67512113 135 141 118
-0.068134554 -0.36640257 -0.67506224 142 135 118
-0.064847842 -0.36535352 -0.67456049 109 149 114
-0.067556649 -0.36671925 -0.67503965 137 138 118
-0.067711383 -0.36576143 -0.67493135 137 135 117
-0.066301003 -0.36621439 -0.67483437 124 143 116
-0.06133372 -0.36631399 -0.67431331 152 146 122
-0.060921509 -0.36828026 -0.67455435 155 139 123
-0.061851565 -0.36702782 -0.67447263 150 144 122
-0.061368421 -0.36886075 -0.67468667 153 137 123
-0.063229278 -0.36801004 -0.67476332 142 143 121
-0.064200468 -0.36671081 -0.67468417 120 146 117
-0.063286178 -0.36770698 -0.67472601 140 143 122
-0.063533261 -0.36747876 -0.67472059 135 144 120
-0.061743878 -0.36587459 -0.67429495 146 147 121
-0.062878266 -0.36588198 -0.6744206 131 148 119
-0.063967586 -0.36690092 -0.67468578 124 146 118
-0.060442451 -0.36904475 -0.67462182 158 136 124
-0.056690808 -0.36836907 -0.67441463 151 138 124
-0.05736452 -0.3661235 -0.6741029 170 129 125
-0.0576966 -0.36655632 -0.67417622 168 130 125
-0.060024448 -0.36881998 -0.6745767 158 135 124
-0.057767335 -0.36703038 -0.67424816 165 131 125
-0.059712112 -0.36715344 -0.67432469 161 137 124
-0.060257949 -0.36683562 -0.67429549 158 142 123
-0.059970614 -0.36638182 -0.67422074 159 141 123
-0.05836691 -0.36647847 -0.6741851 167 132 125
-0.059377544 -0.36650634 -0.67422044 162 138 123
-0.053525429 -0.36694351 -0.67429441 123 144 119
-0.055821735 -0.36895648 -0.67452568 137 142 122
-0.054417994 -0.36887059 -0.67455864 122 145 118
-0.05553199 -0.36864388 -0.67448765 136 142 122
-0.052894928 -0.36890069 -0.67461318 105 149 113
-0.056496922 -0.3674747 -0.67428535 156 135 124
-0.056305379 -0.36838299 -0.67442459 147 139 124
-0.055646118 -0.36601701 -0.6740942 156 133 124
-0.056223545 -0.3675532 -0.67430454 152 136 124
-0.054146379 -0.36528811 -0.67402858 142 136 122
-0.055065051 -0.36608806 -0.6741209 148 136 123
-0.050700318 -0.36903343 -0.6745742 126 144 118
-0.049625169 -0.36785215 -0.67442703 138 141 121
-0.049668971 -0.36620328 -0.67427534 136 142 122
-0.049614411 -0.36737454 -0.67438227 138 141 121
-0.049640223 -0.3682076 -0.67446059 138 141 121
-0.049720798 -0.36892477 -0.67453003 138 141 120
-0.052032996 -0.36650428 -0.67427063 121 144 118
-0.051427331 -0.36587238 -0.67418933 127 142 120
-0.05219071 -0.36641648 -0.67425346 120 144 118
-0.050297134 -0.36527345 -0.67412591 138 140 123
-0.052497555 -0.36768258 -0.67443871 111 146 116
-0.04569025 -0.3681418 -0.67439675 143 135 120
-0.046261285 -0.36872405 -0.67442644 143 137 120
-0.044977117 -0.369041 -0.67439002 139 136 117
-0.046906073 -0.36819008 -0.67443776 146 136 121
-0.045287732 -0.3672359 -0.67436653 145 134 121
-0.045771692 -0.36532706 -0.6742906 149 133 124
-0.045748234 -0.36601862 -0.67435586 149 133 123
-0.047566686 -0.36708781 -0.67438024 148 136 123
-0.047707722 -0.36695883 -0.67436242 148 138 123
-0.048094213 -0.36709204 -0.67435884 148 138 124
-0.042589109 -0.3669011 -0.67447972 148 136 118
-0.044365946 -0.36874425 -0.67441851 141 136 117
-0.041484948 -0.36726993 -0.67459679 161 134 121
-0.041329525 -0.36585137 -0.67453647 155 135 118
-0.04391519 -0.36757678 -0.67441618 144 135 118
-0.043116532 -0.36589742 -0.67442876 150 134 120
-0.043802597 -0.36558059 -0.67438513 150 133 121
-0.044795156 -0.36857527 -0.67438638 140 135 118
-0.044488616 -0.36546639 -0.6743452 150 132 123
-0.038187366 -0.36643177 -0.67485112 150 137 123
-0.037383657 -0.36565584 -0.67488354 143 138 123
-0.039879002 -0.36533242 -0.67464012 151 136 119
-0.038221564 -0.36543751 -0.67479587 145 138 121
-0.04041237 -0.36588028 -0.67462045 156 135 120
-0.040358633 -0.36659032 -0.67466235 159 135 121
-0.039136223 -0.36616254 -0.6747508 152 136 122
-0.03657487 -0.36614716 -0.67499536 152 136 123
-0.035360858 -0.36557287 -0.67509884 154 136 123
-0.028405327 -0.36873856 -0.67586607 142 137 118
-0.02881402 -0.36827859 -0.67579663 149 137 119
-0.027544018 -0.36687639 -0.67584944 142 138 121
-0.028321292 -0.36717489 -0.6758011 148 138 121
-0.070147119 -0.3714076 -0.67599946 138 137 122
-0.06938123 -0.37225685 -0.67596245 141 138 122
-0.070377246 -0.37207714 -0.67608875 138 137 122
-0.068831496 -0.37141812 -0.67578155 143 139 122
-0.069980733 -0.37083361 -0.67591101 139 137 122
-0.06909138 -0.36982277 -0.67564672 143 139 121
-0.069922321 -0.36998418 -0.67580587 140 137 122
-0.068932675 -0.3692551 -0.67555612 145 139 121
-0.069375232 -0.371292 -0.67585969 141 138 122
-0.067214899 -0.37297347 -0.67574263 144 139 123
-0.066355161 -0.37176457 -0.67552835 141 139 122
-0.064713292 -0.3703973 -0.67520732 138 140 122
-0.064507172 -0.3714059 -0.67527759 139 140 121
-0.064776607 -0.37215671 -0.67537963 140 140 122
-0.064527132 -0.37107658 -0.6752491 139 139 122
-0.068103552 -0.37170273 -0.67570794 145 139 122
-0.067722313 -0.36983374 -0.67546058 145 139 121
-0.067726202 -0.37181753 -0.67568344 144 139 122
-0.065954447 -0.37058449 -0.67536962 139 139 122
-0.066968039 -0.37112924 -0.67553115 142 139 122
-0.062389683 -0.37126464 -0.67504334 149 138 123
-0.061909538 -0.37237632 -0.67513663 143 138 122
-0.063323662 -0.37265977 -0.67528629 143 139 122
-0.061583411 -0.37043402 -0.67487818 151 137 123
-0.06303297 -0.37175274 -0.67515421 147 138 122
-0.063631743 -0.37253508 -0.6752966 144 139 122
-0.060798921 -0.36925146 -0.67467642 156 136 123
-0.063807413 -0.36937645 -0.67501163 140 139 122
-0.062084168 -0.36944202 -0.67483252 150 137 123
-0.062836871 -0.37113914 -0.67507243 147 139 122
-0.064242817 -0.37118891 -0.6752283 140 140 121
-0.056818299 -0.37156767 -0.67488205 138 139 122
-0.059079733 -0.37255701 -0.67503071 138 138 122
-0.058720693 -0.3726458 -0.67504305 137 138 122
-0.057181332 -0.36968562 -0.67460757 145 140 124
-0.058774773 -0.37178573 -0.67491746 139 139 123
-0.060071994 -0.3701399 -0.67474455 151 137 123
-0.058223318 -0.36987355 -0.67465973 147 139 124
-0.05869507 -0.36979973 -0.67466444 148 138 124
-0.058227666 -0.36947554 -0.6746124 149 139 124
-0.058691882 -0.37070811 -0.67477274 144 139 123
-0.059637863 -0.37017426 -0.6747362 150 137 124
-0.052945822 -0.37138191 -0.674878 101 147 112
-0.054472238 -0.37091768 -0.67485589 115 145 116
-0.0530761 -0.37274414 -0.67501354 100 146 111
-0.053027675 -0.37022486 -0.67476583 104 148 113
-0.053241447 -0.37180522 -0.67492402 103 146 113
-0.055175204 -0.36926255 -0.67459279 129 143 120
-0.056260068 -0.3701663 -0.67468935 138 141 122
-0.055421919 -0.37115434 -0.67486125 125 142 119
-0.05653568 -0.37181011 -0.67492068 136 139 122
-0.05527715 -0.37086698 -0.674824 125 143 119
-0.049289357 -0.37036425 -0.67466104 141 140 122
-0.050037727 -0.37223455 -0.67487937 130 142 120
-0.050845396 -0.37158784 -0.67483258 121 143 117
-0.050621033 -0.37128565 -0.6747945 124 142 117
-0.048968002 -0.36938363 -0.67454845 146 140 122
-0.050482161 -0.37278745 -0.67494994 124 143 119
-0.050910026 -0.37118807 -0.67479223 121 143 116
-0.052462559 -0.37172237 -0.67489868 102 147 112
-0.051254895 -0.37080342 -0.67476648 118 144 115
-0.051946357 -0.37004319 -0.67471606 110 147 114
-0.052494124 -0.36969566 -0.67470104 104 149 112
-0.04754265 -0.37210527 -0.67479163 142 139 123
-0.045266747 -0.37235236 -0.67474908 145 139 123
-0.047322687 -0.37239248 -0.67481607 142 140 123
-0.045360897 -0.37302858 -0.67482531 147 140 124
-0.046312716 -0.37053964 -0.67458421 140 137 120
-0.048423238 -0.36993346 -0.67458963 146 139 122
-0.048735473 -0.37038407 -0.67464769 146 139 123
-0.047035526 -0.37039372 -0.67459255 142 138 121
-0.047443684 -0.37132341 -0.67470461 142 139 122
-0.048585709 -0.37099752 -0.67470777 145 140 123
-0.043366939 -0.36955979 -0.67457318 154 135 122
-0.044834673 -0.36991104 -0.67448133 141 137 118
-0.043990355 -0.3693653 -0.67449689 147 136 119
-0.030963393 -0.37258264 -0.67577595 150 136 122
-0.029456751 -0.37018079 -0.67581123 144 137 117
-0.030002836 -0.3713645 -0.67580998 143 137 119
-0.030175332 -0.37118495 -0.67578918 148 136 119
-0.069365054 -0.37336078 -0.67606777 143 137 123
-0.067773141 -0.37542647 -0.67612076 146 138 123
-0.067218028 -0.37506428 -0.67600286 146 138 122
-0.065480366 -0.37675771 -0.67600095 147 137 121
-0.065924034 -0.37637696 -0.67600828 147 138 121
-0.066508673 -0.37475011 -0.67587066 146 138 122
-0.065427087 -0.37392631 -0.67564481 144 139 121
-0.066842116 -0.3739714 -0.67581654 145 138 122
-0.06664563 -0.37350765 -0.67573786 144 138 122
-0.064672574 -0.37458125 -0.67563468 144 139 121
-0.063541323 -0.37608132 -0.6757139 146 137 121
-0.061904427 -0.37527096 -0.67548382 146 135 122
-0.063878872 -0.3766464 -0.67580956 148 137 120
-0.061218105 -0.37486488 -0.67537922 146 135 123
-0.061619919 -0.37609285 -0.67556036 152 133 124
-0.063517027 -0.37635809 -0.67574549 147 137 120
-0.062253781 -0.37433848 -0.67539954 142 138 121
-0.063591711 -0.37519893 -0.67561227 144 138 121
-0.064344145 -0.37551984 -0.67571241 146 138 121
-0.06444364 -0.37581849 -0.67575628 146 138 120
-0.063441992 -0.37560225 -0.67564833 145 137 121
-0.057169378 -0.3766087 -0.67548907 153 125 119
-0.057406876 -0.37432009 -0.67524666 141 134 121
-0.057243016 -0.37403178 -0.6752131 139 135 121
-0.058023751 -0.37652436 -0.67549312 154 126 121
-0.056735735 -0.37608838 -0.67542642 150 126 118
-0.058691267 -0.37534505 -0.67537659 148 132 123
-0.058715563 -0.37359113 -0.67516762 138 137 122
-0.060472611 -0.37667862 -0.67554468 158 129 125
-0.060047705 -0.37639248 -0.67550927 156 129 125
-0.059508953 -0.37514919 -0.6753577 148 133 124
-0.060502268 -0.37529716 -0.67537743 151 132 124
-0.053646132 -0.37471381 -0.67521155 117 140 114
-0.053888801 -0.37618393 -0.67534125 131 136 118
-0.053841285 -0.37648356 -0.67536366 133 136 119
-0.055927671 -0.37626708 -0.67543256 144 127 116
-0.054771159 -0.3769044 -0.6754365 142 132 119
-0.056236096 -0.375267 -0.67533046 141 130 117
-0.055841163 -0.37391281 -0.67517877 130 137 117
-0.056401867 -0.37363511 -0.67515755 134 137 120
-0.055746797 -0.37553406 -0.67535168 138 130 116
-0.054740962 -0.37363005 -0.6751315 118 140 115
-0.052983757 -0.37326217 -0.67506498 100 145 111
-0.050005749 -0.37442762 -0.67507941 138 141 124
-0.051140018 -0.37648073 -0.6752876 132 139 122
-0.052057683 -0.37628394 -0.67528343 133 141 123
-0.05075362 -0.37682962 -0.67531413 130 139 121
-0.04918148 -0.37599885 -0.67521274 133 138 121
-0.051279996 -0.37346917 -0.67503333 118 144 117
-0.052067369 -0.37523493 -0.6751982 124 142 120
-0.052555051 -0.37605008 -0.67527765 125 141 121
-0.051082119 -0.37426993 -0.67509317 126 142 120
-0.052645702 -0.37316149 -0.67504495 99 146 111
-0.045024484 -0.37578151 -0.67507458 150 135 125
-0.045294896 -0.37579131 -0.67508346 148 135 125
-0.046015259 -0.37484413 -0.67501521 143 138 123
-0.045966521 -0.37557665 -0.6750828 144 136 123
-0.047331341 -0.3761059 -0.67517251 137 137 121
-0.048307374 -0.3750799 -0.67510605 136 138 122
-0.047705814 -0.37350979 -0.67494184 143 140 124
-0.047090366 -0.37432179 -0.67499852 140 139 123
-0.047225565 -0.37501827 -0.67506737 138 138 122
-0.047987241 -0.37463552 -0.67505503 138 139 123
-0.048422955 -0.37382591 -0.67499304 140 140 124
-0.044395726 -0.37517938 -0.67504638 152 137 125
-0.042783119 -0.3734884 -0.67498368 158 142 123
-0.043192204 -0.37496695 -0.67509848 158 138 125
-0.043388397 -0.37311575 -0.67491233 155 141 123
-0.034827504 -0.37682211 -0.67565262 145 141 120
-0.033560079 -0.3757745 -0.67569482 145 140 122
-0.032079801 -0.37399867 -0.67573953 149 138 123
-0.064709671 -0.37816894 -0.67601508 156 136 121
-0.065567717 -0.37771714 -0.676094 152 137 122
-0.064548224 -0.37765154 -0.67595631 153 137 121
-0.063704431 -0.3793453 -0.67601067 162 135 122
-0.063735753 -0.37916166 -0.67599964 161 135 122
-0.062194701 -0.38084054 -0.67600536 169 134 122
-0.062624022 -0.3803398 -0.67600137 167 134 122
-0.063582636 -0.3805871 -0.67609191 170 133 123
-0.062825494 -0.3798914 -0.67598391 164 134 121
-0.061738171 -0.3781327 -0.67576587 158 132 122
-0.062249895 -0.37843892 -0.67583102 157 134 121
-0.060767557 -0.3770754 -0.6756053 159 129 125
-0.062015291 -0.3785257 -0.67581886 158 134 121
-0.060907774 -0.37919101 -0.67578125 162 132 122
-0.062418137 -0.37881789 -0.67587405 157 135 120
-0.057030115 -0.37915781 -0.67560446 158 131 116
-0.05696182 -0.38002649 -0.67562401 159 134 116
-0.057416808 -0.37845996 -0.67561048 158 128 117
-0.056696828 -0.38024318 -0.67561257 159 136 115
-0.058611222 -0.37983921 -0.67572689 162 131 118
-0.0580252 -0.37978813 -0.67568707 161 132 117
-0.060096201 -0.37906715 -0.67573559 162 131 121
-0.058468007 -0.37713447 -0.67556018 157 125 121
-0.060195245 -0.37889054 -0.67572337 162 130 122
-0.060046542 -0.37973338 -0.67578673 164 131 120
-0.059799649 -0.37756681 -0.6756143 160 128 123
-0.054634012 -0.37964454 -0.67555296 145 141 118
-0.053583287 -0.38037822 -0.67562836 140 143 119
-0.05282937 -0.3808215 -0.67567557 136 145 120
-0.054007448 -0.38019976 -0.67560774 142 142 119
-0.053168166 -0.37938997 -0.67555213 136 143 120
-0.054245934 -0.37870985 -0.67548078 142 140 119
-0.056432597 -0.37747952 -0.67552388 154 126 117
-0.055723924 -0.37773666 -0.67550164 150 130 118
-0.056516234 -0.37781131 -0.67553651 155 127 117
-0.055891693 -0.3798362 -0.67556661 154 137 116
-0.055741947 -0.37893373 -0.6755355 151 134 117
-0.049072776 -0.37961322 -0.67556369 143 138 120
-0.048966143 -0.37833607 -0.67543519 137 137 120
-0.04994176 -0.38082334 -0.67568356 146 140 120
-0.052328262 -0.38060477 -0.67565536 135 145 120
-0.050282672 -0.38054606 -0.67565465 143 140 120
-0.049212869 -0.37947813 -0.67554969 142 138 120
-0.051304296 -0.37878206 -0.67548573 132 141 120
-0.052508399 -0.37881041 -0.67550659 133 142 121
-0.052040786 -0.37960681 -0.67556548 133 143 120
-0.05168514 -0.37776279 -0.67540705 131 141 121
-0.051610578 -0.37796703 -0.67542285 131 140 121
-0.044968415 -0.37811726 -0.67530274 155 134 126
-0.04648931 -0.37966183 -0.67550302 155 136 124
-0.045036796 -0.37846601 -0.67534047 156 135 126
-0.046029344 -0.37842435 -0.67536336 152 135 124
-0.046871901 -0.37893677 -0.67543906 151 135 123
-0.046856765 -0.37835586 -0.67537999 149 135 123
-0.048317324 -0.37982115 -0.67557043 148 137 121
-0.047085483 -0.37900585 -0.67545223 150 135 123
-0.048222352 -0.37859526 -0.67544395 142 137 121
-0.048613425 -0.37842885 -0.67543864 139 137 120
-0.042086564 -0.38031107 -0.67548317 159 140 124
-0.041730683 -0.38054711 -0.67548257 157 141 123
-0.041331291 -0.3806529 -0.67547566 155 141 122
-0.044094425 -0.37721109 -0.67523813 159 133 127
-0.044479419 -0.37823299 -0.67532927 159 135 127
-0.040716164 -0.38066068 -0.67547768 153 142 121
-0.040773734 -0.38011804 -0.67545736 158 141 122
-0.040403068 -0.37969321 -0.67545825 160 140 122
-0.035545867 -0.38063285 -0.67568225 144 139 119
-0.036145106 -0.37860587 -0.67557526 156 138 122
-0.036389638 -0.37938613 -0.67556131 156 137 122
-0.03665727 -0.38033116 -0.67554641 156 135 122
-0.03602748 -0.37869143 -0.6755833 154 138 122
-0.062300317 -0.38087997 -0.67601615 170 133 122
-0.062039226 -0.38106143 -0.676009 171 134 121
-0.05957995 -0.38122872 -0.67584461 168 135 119
-0.057919282 -0.3814263 -0.67574972 168 137 116
-0.055104911 -0.38332132 -0.67591256 160 136 122
-0.053753175 -0.38361612 -0.6759178 160 139 122
-0.053350739 -0.38294706 -0.67585796 154 140 122
-0.053528875 -0.38172653 -0.67576134 144 142 121
-0.052875064 -0.38112232 -0.67570329 138 145 120
-0.054881938 -0.38136667 -0.67570549 150 140 118
-0.056502949 -0.38416427 -0.67598748 172 132 122
-0.055320244 -0.38129464 -0.67569166 153 140 117
-0.055768345 -0.38306692 -0.67587829 163 135 121
-0.054746438 -0.38125721 -0.67569548 149 141 118
-0.050391201 -0.38401726 -0.67585731 168 133 121
-0.049736641 -0.38194701 -0.67576641 156 137 121
-0.050013982 -0.3828797 -0.67580652 161 136 121
-0.051230475 -0.38350952 -0.67588574 164 138 122
-0.049984552 -0.38364851 -0.67582649 166 133 120
-0.052298881 -0.38119218 -0.67570812 140 144 120
-0.052269876 -0.38160729 -0.67574191 143 143 121
-0.051968575 -0.38368234 -0.67591107 163 139 122
-0.052021854 -0.38127866 -0.67571586 142 144 120
-0.051370427 -0.38108969 -0.67570221 143 142 120
-0.051995363 -0.38348147 -0.67589468 161 140 122
-0.046512276 -0.3842499 -0.67575067 162 135 121
-0.045163427 -0.38471201 -0.67575628 151 140 122
-0.048144069 -0.38196725 -0.67570215 160 135 121
-0.048160058 -0.38124648 -0.67568249 155 137 121
-0.048702169 -0.38194418 -0.67571682 158 135 120
-0.041375306 -0.38418466 -0.67568916 149 140 122
-0.043196104 -0.38414451 -0.67570198 150 141 121
-0.042550333 -0.38357419 -0.67566031 150 141 122
-0.043645319 -0.38357377 -0.67566949 150 142 121
-0.042065363 -0.38254577 -0.67559093 151 141 121
-0.042980548 -0.38151017 -0.67555815 156 141 123
-0.044001047 -0.38141826 -0.67558235 158 140 124
-0.043086708 -0.38252291 -0.67560589 152 142 122
-0.044755444 -0.38447538 -0.67573851 150 141 122
-0.044008464 -0.3815102 -0.67558652 158 140 125
-0.040230613 -0.3843551 -0.67571896 152 140 121
-0.040017821 -0.38111496 -0.67550224 154 140 122
-0.039910085 -0.38295922 -0.6756205 153 139 122
-0.04043217 -0.38153052 -0.67552406 153 141 121
-0.039397527 -0.38131055 -0.67552149 155 139 122
-0.039637778 -0.38245821 -0.67559171 154 138 122
-0.040892642 -0.38347748 -0.67564255 151 140 122
-0.033780787 -0.38318568 -0.67594546 152 141 117
-0.033398665 -0.38290516 -0.67595017 149 141 117
-0.035840616 -0.38356471 -0.6759221 154 142 117
-0.035823192 -0.38246113 -0.6758213 151 141 118
-0.03633948 -0.38280582 -0.67579758 157 140 119
-0.035712808 -0.38121364 -0.67570978 147 138 119
-0.053389519 -0.38552353 -0.67602587 175 137 124
-0.053053357 -0.38522762 -0.67601347 172 138 123
-0.053456157 -0.38497266 -0.6760124 171 137 123
-0.052625716 -0.38519159 -0.67600262 172 138 123
-0.047047284 -0.38534015 -0.6758216 164 134 121
-0.046932865 -0.38501859 -0.67579675 163 133 121
-0.041909818 -0.38497478 -0.67575103 150 140 122
-0.089023039 -0.35686904 -0.67762631 134 140 120
-0.088471517 -0.35724765 -0.6775468 127 142 118
-0.090886362 -0.3572368 -0.6781019 131 139 122
-0.086771265 -0.3570258 -0.67715424 129 142 119
-0.086561464 -0.35629556 -0.67703629 140 144 120
-0.085936271 -0.35669622 -0.67694145 132 143 121
-0.084843673 -0.35596737 -0.67663342 142 144 123
-0.084731579 -0.3551749 -0.67653036 155 146 124
-0.086115949 -0.35551044 -0.67685848 152 145 122
-0.087617762 -0.35562533 -0.6771574 152 140 121
-0.086825684 -0.35606891 -0.67706317 144 143 121
-0.083795883 -0.35463464 -0.67627615 162 148 125
-0.083435021 -0.35530636 -0.67626768 150 147 124
-0.082255311 -0.3572593 -0.67621583 114 148 120
-0.083238132 -0.35484463 -0.67617947 158 149 125
-0.092164718 -0.35801041 -0.67853141 126 139 122
-0.091769978 -0.35901713 -0.67859912 120 140 123
-0.090429559 -0.35804319 -0.6781252 124 141 121
-0.091525473 -0.35793835 -0.67835993 126 140 122
-0.087475337 -0.35751161 -0.67735541 123 142 118
-0.023027109 -0.35900569 -0.67644399 146 140 122
-0.02301148 -0.35984164 -0.67643726 141 141 120
-0.023624271 -0.36099243 -0.67632204 149 139 119
-0.023325713 -0.36005712 -0.67638206 146 141 120
-0.021016067 -0.35758677 -0.67682087 141 140 119
-0.02346378 -0.36146185 -0.67634189 144 141 118
-0.073802739 -0.36962205 -0.67638105 120 138 119
-0.073788479 -0.36969692 -0.67638522 120 138 119
-0.072627649 -0.37074661 -0.67629945 131 135 122
-0.073656708 -0.37104037 -0.67647862 124 137 120
-0.07426703 -0.37256312 -0.67671943 124 136 121
-0.07417351 -0.37292141 -0.67673928 125 137 121
-0.075007878 -0.3727839 -0.67686242 120 137 121
-0.072100118 -0.37155297 -0.67628956 135 135 122
-0.071199805 -0.37265825 -0.67625481 139 135 123
-0.073971771 -0.37605122 -0.67706734 128 138 119
-0.074617885 -0.3769117 -0.67727071 124 139 118
-0.074727729 -0.37592459 -0.67716396 121 137 118
-0.072730102 -0.37483183 -0.67673057 137 136 121
-0.073262326 -0.37513614 -0.67684764 133 136 121
-0.073253036 -0.37681076 -0.67705506 136 138 119
-0.075139277 -0.37516075 -0.67714143 119 138 119
-0.07394582 -0.37389496 -0.67680717 127 136 121
-0.0737864 -0.37436351 -0.67683238 127 136 121
-0.075025678 -0.37570968 -0.67718291 119 138 118
-0.074863151 -0.37426135 -0.6769976 120 138 120
-0.075521983 -0.37392297 -0.67706847 117 138 120
-0.069709659 -0.37397674 -0.67619699 143 137 123
-0.069785014 -0.37459627 -0.67628795 143 137 123
-0.069120385 -0.37576535 -0.67634308 145 138 123
-0.072011568 -0.37469149 -0.67660892 141 136 122
-0.071353734 -0.37590921 -0.67667001 143 137 122
-0.072241746 -0.37582535 -0.67678207 142 137 121
-0.071993008 -0.37579432 -0.67674392 142 137 121
-0.070193239 -0.3756403 -0.67647636 144 137 123
-0.0677047 -0.37595138 -0.67618036 147 138 122
-0.081954978 -0.38048986 -0.67899847 144 136 120
-0.080730796 -0.3800368 -0.67869687 129 138 120
-0.080482677 -0.38064793 -0.67871565 132 141 120
-0.080675043 -0.37951097 -0.6786257 124 138 119
-0.080991156 -0.38066417 -0.67882138 137 139 120
-0.083053172 -0.37750313 -0.67883307 120 137 117
-0.083255813 -0.3790459 -0.67907763 140 133 119
-0.078769244 -0.38036677 -0.67837143 134 141 120
-0.076855861 -0.37963289 -0.67795211 140 138 121
-0.076447271 -0.37994286 -0.67791957 147 138 121
-0.076437593 -0.3773708 -0.67760378 114 139 116
-0.076176181 -0.38059801 -0.67795283 157 137 123
-0.080074988 -0.38022414 -0.67858428 125 141 120
-0.079047874 -0.37944379 -0.67830998 121 141 119
-0.079125479 -0.37905744 -0.67828006 118 140 119
-0.074116476 -0.37912077 -0.67746168 157 137 122
-0.074515775 -0.37952572 -0.67757046 159 136 123
-0.075383045 -0.37701771 -0.67739755 118 139 116
-0.074078187 -0.3779566 -0.6773181 142 138 120
-0.075782463 -0.37712157 -0.67746967 116 139 117
-0.073213942 -0.37778524 -0.67716867 147 137 121
-0.074742056 -0.37735775 -0.67734373 128 139 118
-0.07529252 -0.37817156 -0.67752498 134 138 119
-0.068834066 -0.37856233 -0.67658859 169 135 125
-0.068968371 -0.37895688 -0.67664111 174 134 125
-0.071072191 -0.37710491 -0.67677778 148 138 121
-0.070049144 -0.37740454 -0.67666918 153 138 123
-0.071662724 -0.37800249 -0.67695665 161 137 122
-0.071060821 -0.37851691 -0.67692947 170 136 124
-0.066692553 -0.37768108 -0.67623365 152 137 123
-0.066013336 -0.37875637 -0.67622417 159 136 124
-0.065408804 -0.38035411 -0.67626196 173 133 125
-0.067481272 -0.37871575 -0.67640573 164 135 124
-0.064901978 -0.38071084 -0.67622358 174 133 124
-0.067260042 -0.37931553 -0.67642206 171 134 125
-0.080087468 -0.3830004 -0.67882192 148 141 120
-0.081361994 -0.38205603 -0.67903417 151 139 120
-0.076625787 -0.38144735 -0.678105 161 137 123
-0.079469047 -0.38319296 -0.67872953 154 140 121
-0.077241987 -0.38126951 -0.67819959 156 137 123
-0.078527614 -0.38142651 -0.678433 147 139 121
-0.079341516 -0.38202271 -0.67861855 146 140 121
-0.079212673 -0.38120347 -0.67853409 139 140 121
-0.080011576 -0.38209152 -0.67873925 141 141 120
0 0 0 1 0 0 0 1 0 0 0 1 0 0 0 0 0 684 1 0 0
