ply
format ascii 1.0
comment PCL generated
element vertex 1002
property float x
property float y
property float z
property uchar red
property uchar green
property uchar blue
element camera 1
property float view_px
property float view_py
property float view_pz
property float x_axisx
property float x_axisy
property float x_axisz
property float y_axisx
property float y_axisy
property float y_axisz
property float z_axisx
property float z_axisy
property float z_axisz
property float focal
property float scalex
property float scaley
property float centerx
property float centery
property int viewportx
property int viewporty
property float k1
property float k2
end_header
0.017499303 0.087900758 -0.75599647 42 136 105
0.016793191 0.088224038 -0.75620049 43 136 106
0.015506994 0.091045767 -0.75710005 45 135 109
0.01580455 0.091261096 -0.75709873 44 136 110
0.0067681116 0.085680187 -0.75813007 82 131 112
0.0075032543 0.085810699 -0.75794363 80 132 112
0.009454757 0.08647643 -0.75748712 69 133 109
0.0068948995 0.08460889 -0.75786126 91 132 113
0.0080455905 0.083996952 -0.75735652 91 131 112
0.0072020874 0.084902138 -0.75783241 88 131 113
0.0067328648 0.084144808 -0.75780475 95 131 113
0.0097341351 0.085663885 -0.75721067 74 132 110
0.013532842 0.084156349 -0.75590152 85 127 111
0.012442647 0.086470351 -0.75667965 67 133 109
0.012702149 0.08621411 -0.7565586 69 132 109
0.013363731 0.086185887 -0.7563861 69 131 110
0.012399056 0.08464615 -0.75629324 81 128 111
0.01015838 0.085247032 -0.75699973 77 132 110
0.010014458 0.086235113 -0.75726706 69 133 109
0.011459024 0.086142167 -0.75686198 70 133 110
0.010234366 0.08606901 -0.75717014 70 133 109
0.015846906 0.085242577 -0.75571966 68 129 108
0.016758187 0.084212065 -0.75534534 71 128 108
0.014508052 0.085158557 -0.75593495 74 129 109
0.015599353 0.087798879 -0.75631452 50 136 107
0.021193085 0.084701836 -0.75492042 43 138 103
0.020133365 0.085648485 -0.75525725 46 134 106
0.019149266 0.086711466 -0.75558883 45 135 107
0.0056104288 0.083867267 -0.75810903 97 131 114
0.005792615 0.080114372 -0.75735444 111 130 113
0.003987866 0.080484137 -0.75809532 108 129 110
0.0053239195 0.082576714 -0.75798303 103 131 113
0.0041015465 0.080140971 -0.7579897 110 130 111
0.0077739805 0.08048486 -0.75676829 106 130 113
0.0088663073 0.080717422 -0.75645202 103 129 113
0.009145855 0.082675084 -0.75675344 93 130 112
0.0078360979 0.081553794 -0.75696301 101 130 112
0.0088087209 0.082678117 -0.75686622 94 130 111
0.0062706494 0.082936376 -0.75772011 101 130 114
0.0083436854 0.082727052 -0.7570278 94 131 112
0.0065778373 0.08275345 -0.75758952 100 131 113
0.0069761951 0.082071103 -0.75733817 101 131 113
0.0091318451 0.083618671 -0.75694364 89 131 111
0.012925728 0.082327321 -0.75566792 93 126 112
0.011780963 0.082014635 -0.75590634 96 126 112
0.012390792 0.082203627 -0.75578415 95 126 112
0.011375226 0.080548003 -0.75569546 101 128 112
0.011206133 0.080172852 -0.75565904 104 128 113
0.013220983 0.082882687 -0.75570983 91 126 111
0.0098108482 0.083875097 -0.75677776 87 131 111
0.010417135 0.082138285 -0.75627548 95 128 112
0.010505901 0.081821404 -0.75618923 96 128 112
0.010906687 0.082812838 -0.75628823 91 128 111
0.012157305 0.082750119 -0.75596118 91 127 111
0.015567708 0.080764875 -0.75478983 94 126 111
0.016724398 0.080965593 -0.75462544 91 126 110
0.016800666 0.081519052 -0.75473732 87 126 109
0.015121423 0.081283934 -0.75498873 92 127 110
0.016894335 0.081358582 -0.75468385 87 127 109
0.016990943 0.083301514 -0.75510758 75 128 108
0.013742359 0.081659496 -0.75531042 96 127 111
0.014089006 0.081899673 -0.75530303 93 127 111
0.015310742 0.083139889 -0.75536275 83 127 109
0.015780635 0.083171815 -0.75528872 80 128 109
0.016660092 0.083679289 -0.75524771 74 128 108
0.016273709 0.083634049 -0.75530446 76 127 108
0.020171748 0.082288727 -0.75448531 66 132 106
0.021149889 0.082094111 -0.75433928 67 133 106
0.01761944 0.081400096 -0.75456452 86 125 110
0.018171087 0.081216983 -0.75446165 84 127 109
0.01845823 0.081901647 -0.75458521 78 128 108
0.022936901 0.083092511 -0.75435793 49 134 106
0.0028739795 0.078540191 -0.75811887 134 127 111
0.0028216937 0.078387439 -0.75810695 136 127 111
0.0051066536 0.079482861 -0.7574808 120 129 113
0.0029262926 0.077697471 -0.75792545 145 126 112
0.0054359343 0.07822752 -0.75711089 129 129 113
0.005708335 0.078750186 -0.75711513 122 130 113
0.0028657254 0.076548547 -0.75771505 158 125 112
0.0054627405 0.078554779 -0.75716597 126 129 113
0.005650294 0.076487601 -0.75668854 141 128 112
0.0054780925 0.077936843 -0.75703806 131 128 113
0.0086390758 0.078694992 -0.75612682 117 128 113
0.0087925587 0.076865435 -0.75572795 128 129 111
0.008818727 0.07878457 -0.75608546 116 128 113
0.0078802314 0.076956421 -0.75604206 131 128 112
0.0092577655 0.077858031 -0.75576591 120 129 111
0.00782267 0.076384574 -0.7559517 134 128 111
0.0068065282 0.0787545 -0.75674605 120 129 113
0.0073140254 0.079579756 -0.75674063 113 129 113
0.0063188598 0.079854712 -0.75712591 112 130 113
0.0066893459 0.078078732 -0.75665128 126 129 113
0.0061467327 0.078099169 -0.75683576 126 129 113
0.0074977595 0.079076245 -0.75657988 117 129 113
0.013607781 0.076729059 -0.75432515 103 134 105
0.012683769 0.078644231 -0.75496495 109 129 110
0.013337243 0.078153096 -0.75468552 105 131 108
0.012599115 0.076568432 -0.75457293 109 133 106
0.012747593 0.077449575 -0.75470811 109 131 108
0.011760718 0.076821081 -0.75485593 116 131 108
0.0099919392 0.077882588 -0.75554478 118 129 111
0.010126461 0.079856627 -0.75588524 106 127 113
0.0098877111 0.076911546 -0.75538749 124 129 110
0.011765812 0.0785859 -0.75520384 113 128 111
0.010161262 0.076600417 -0.75525486 126 129 110
0.01541069 0.079033203 -0.75445306 99 128 110
0.015886294 0.078824915 -0.75432503 98 128 109
0.014306175 0.077816866 -0.75440997 101 132 107
0.014394653 0.079703435 -0.75477177 101 128 111
0.01571203 0.078838065 -0.75435925 98 128 109
0.0052517913 0.074661054 -0.75647479 166 127 115
0.0034998357 0.07535474 -0.75724965 168 126 114
0.0056129573 0.076152205 -0.75663573 143 128 112
0.0081622731 0.073925041 -0.75535315 166 126 114
0.0086208638 0.074836984 -0.75538731 151 127 113
0.0096278796 0.075276777 -0.75514114 143 127 112
0.0073283147 0.075477205 -0.75593537 147 128 112
0.007386711 0.075236335 -0.75586903 149 128 112
0.0061973277 0.075283982 -0.75626534 153 127 113
0.0061864848 0.075877145 -0.75638551 145 127 113
0.0088537866 0.07604406 -0.75555056 134 128 111
0.006971301 0.074458815 -0.75585127 162 127 114
0.0098613575 0.074788861 -0.75496876 150 126 112
0.010797982 0.075268328 -0.75480801 136 129 110
0.011790833 0.075151697 -0.75450885 131 130 109
0.011850539 0.076142721 -0.75469512 115 132 107
0.0120314 0.075717978 -0.75455803 121 132 107
0.012050536 0.075114757 -0.75442928 130 130 109
0.08587499 0.068372093 -0.75467652 116 127 111
0.085855193 0.069099575 -0.75474012 107 128 111
0.086010747 0.069776461 -0.75483775 98 130 111
0.086587869 0.069136582 -0.75490594 107 129 110
0.084891751 0.069780327 -0.75459021 97 129 112
0.086070098 0.070060648 -0.75487739 95 130 112
0.085956104 0.070704423 -0.75492203 86 130 113
0.086074166 0.070373431 -0.7549122 91 130 112
0.087027669 0.069730386 -0.75507087 99 130 111
0.090432212 0.070315473 -0.75610596 87 130 113
0.091474921 0.070116103 -0.75639331 86 131 109
0.090008244 0.068672851 -0.75578886 109 129 106
0.091421932 0.069376133 -0.75629151 96 130 106
0.091338672 0.070729896 -0.75642401 78 131 113
0.089011736 0.06972041 -0.75561416 98 129 112
0.089812748 0.070884541 -0.7559883 80 130 115
0.08964359 0.070592113 -0.75590384 85 130 115
0.095613532 0.069076069 -0.75776124 101 128 109
0.095158733 0.068618432 -0.75756055 106 128 107
0.094413236 0.068503045 -0.75727385 107 128 106
0.092997462 0.068383142 -0.75673592 108 129 103
0.093188375 0.069630109 -0.75689036 92 130 107
0.094761826 0.069516093 -0.75747174 94 129 109
0.09229029 0.069928102 -0.7566275 87 131 108
0.093820453 0.070823483 -0.75722826 76 131 112
0.096290946 0.070665501 -0.75812018 80 131 113
0.09620823 0.070136428 -0.758053 87 129 112
0.095790081 0.069718771 -0.75787181 92 129 111
0.087445587 0.065884851 -0.75471485 182 124 119
0.085419305 0.068286568 -0.7545653 117 127 111
0.087426074 0.065505013 -0.75466311 191 124 121
0.086473815 0.066002063 -0.7545141 177 124 120
0.087376133 0.066012152 -0.75471532 178 125 119
0.085946746 0.068086319 -0.75465715 123 127 111
0.085089348 0.066856064 -0.75430202 154 125 117
0.089670993 0.066007316 -0.75535351 175 124 116
0.089560352 0.066115685 -0.75533921 172 124 115
0.088749222 0.066072762 -0.75509244 175 125 116
0.089540124 0.067297764 -0.75548071 142 126 110
0.088750727 0.065858237 -0.75506616 181 124 117
0.088017859 0.067977004 -0.75511217 128 128 110
0.088907883 0.066797026 -0.75523001 156 126 113
0.092705138 0.068024732 -0.75657547 117 128 105
0.094315305 0.068301864 -0.75721914 111 127 105
0.091885582 0.067618772 -0.7562086 128 127 106
0.095028423 0.067753643 -0.75740492 127 125 110
0.094166957 0.068087839 -0.75713193 117 127 107
0.096843012 0.068197399 -0.75812268 117 128 105
0.12228291 0.072361283 -0.77210814 49 136 108
0.12216602 0.072449066 -0.77203399 48 136 108
0.12288129 0.074430741 -0.77274567 43 134 114
0.1240418 0.072777845 -0.77360094 51 137 108
0.12387049 0.074061573 -0.77357483 47 135 112
0.12409345 0.074396588 -0.77380884 46 135 113
0.12370448 0.075587429 -0.7735759 42 135 117
0.12253962 0.072192065 -0.77227622 52 136 108
0.12295673 0.071906008 -0.77255291 59 135 108
0.12126483 0.070792541 -0.77120316 80 130 110
0.12091321 0.0718695 -0.77105361 55 135 109
0.12089729 0.071326658 -0.77098757 68 132 109
0.12007917 0.070442036 -0.77028805 77 132 107
0.11988191 0.06947083 -0.77003241 88 131 104
0.1199141 0.069039539 -0.77000803 94 131 104
0.11995605 0.069455929 -0.77008587 89 131 105
0.12068697 0.068500184 -0.77052295 109 129 104
0.12039367 0.06963972 -0.77043229 90 130 106
0.12379379 0.069816679 -0.77308953 106 128 109
0.12419785 0.069965735 -0.77347869 105 127 109
0.12449618 0.069818445 -0.77374285 110 126 109
0.12378055 0.071054965 -0.77319372 80 132 108
0.12347469 0.070794873 -0.77289253 85 131 108
0.12163386 0.066957034 -0.77089548 149 126 113
0.1211758 0.068109542 -0.77081466 121 127 107
0.12139229 0.067789383 -0.77090359 130 126 109
0.12091271 0.067579985 -0.77049923 130 127 109
0.12106743 0.067163065 -0.77052033 140 127 110
0.12329718 0.067464225 -0.77229458 154 122 114
0.12333128 0.068083256 -0.77246606 142 123 112
0.032134414 0.08481802 -0.75398558 42 134 109
0.033198386 0.084706008 -0.7538895 43 135 108
0.032122795 0.084646493 -0.7539531 42 135 108
0.032906227 0.085242577 -0.75401407 42 135 109
0.033634819 0.08467792 -0.753878 42 135 108
0.034531914 0.08500234 -0.75392896 38 137 107
0.034154903 0.084437892 -0.75382447 40 136 107
0.036697652 0.084209099 -0.75374615 30 141 103
0.037283264 0.085461684 -0.75397336 27 139 106
0.037824314 0.084036537 -0.75368106 28 140 105
0.02103202 0.081509426 -0.7542215 74 131 106
0.018739393 0.080476172 -0.75423461 89 125 110
0.020544585 0.081182413 -0.75420028 79 129 107
0.021584081 0.080191463 -0.75386679 91 125 109
0.021912478 0.081398949 -0.75409883 74 130 107
0.024237709 0.083141103 -0.7542184 42 133 108
0.024771083 0.081532031 -0.75385362 45 139 103
0.023563823 0.080633804 -0.75378329 65 134 105
0.022845924 0.080965452 -0.75390816 72 130 108
0.024991501 0.081155017 -0.7537623 44 140 101
0.024438582 0.08155635 -0.75388658 50 136 105
0.027141888 0.081123844 -0.75359225 43 140 102
0.028229332 0.082603976 -0.75382292 40 137 105
0.025884831 0.0803487 -0.75353569 43 143 98
0.028098233 0.081197858 -0.75351948 46 136 105
0.028345969 0.080471531 -0.75333321 51 135 107
0.027252719 0.082230344 -0.75382102 39 140 103
0.028002612 0.082718194 -0.75386882 38 139 104
0.025898788 0.081834808 -0.75382805 38 140 103
0.03319405 0.083869144 -0.75373018 45 135 107
0.031444699 0.081293717 -0.75332838 53 132 109
0.030642366 0.080502339 -0.7532084 55 132 109
0.033073023 0.083116338 -0.75360763 48 134 108
0.03269574 0.080474257 -0.75317693 58 132 110
0.032069478 0.080488406 -0.75318742 57 132 110
0.032379881 0.083437607 -0.75368613 45 135 107
0.029946554 0.081690662 -0.75347084 49 132 109
0.030754268 0.081620909 -0.75339651 51 132 109
0.031033922 0.082197733 -0.75350565 48 133 109
0.030513046 0.082229093 -0.75355053 47 133 108
0.037034288 0.08318007 -0.75356412 36 138 105
0.037019733 0.080428317 -0.75310576 61 128 109
0.035670914 0.082334742 -0.75344378 43 137 107
0.034171607 0.080878638 -0.75322384 54 133 109
0.03624104 0.080946989 -0.75320393 55 131 108
0.033591505 0.082901813 -0.75356543 47 135 108
0.035138573 0.083912648 -0.75371146 36 139 105
0.035782266 0.083513483 -0.75363708 36 138 105
0.035002027 0.083750129 -0.75368643 38 138 106
0.034777403 0.082149498 -0.75342554 46 136 107
0.034267664 0.081740953 -0.75336498 50 134 108
0.040791258 0.082337789 -0.75328225 31 136 110
0.038253769 0.080312356 -0.75303924 57 129 109
0.039647799 0.081545778 -0.75319344 42 133 109
0.038603473 0.081439763 -0.753218 49 130 110
0.038276449 0.081880458 -0.75330395 46 132 109
0.037380539 0.080975622 -0.75318575 56 130 109
0.037310924 0.080423608 -0.75309622 61 127 110
0.037539668 0.081291251 -0.75323254 53 130 109
0.037530228 0.082689084 -0.75346589 40 135 106
0.042441174 0.080404878 -0.75292534 36 135 108
0.041649476 0.081890158 -0.75319183 30 136 109
0.041986477 0.081452519 -0.75311446 33 136 109
0.017316677 0.079945557 -0.75428981 95 125 111
0.015981011 0.076663114 -0.75386721 99 132 108
0.017029665 0.079022802 -0.7541551 95 127 110
0.016073138 0.078247681 -0.75417489 97 129 108
0.017475249 0.077135928 -0.75368488 96 129 109
0.015270063 0.076893725 -0.75404733 100 132 107
0.016415102 0.076244637 -0.7537002 98 132 108
0.019898847 0.076347075 -0.75322104 99 130 112
0.02089899 0.078943804 -0.75367361 95 126 110
0.021144575 0.076590821 -0.75312167 101 128 113
0.020262703 0.077732079 -0.7534833 96 128 110
0.019913713 0.078061141 -0.75359923 95 128 110
0.018120166 0.078737877 -0.75393647 95 126 110
0.020929849 0.079701588 -0.7538349 93 126 109
0.018131686 0.07773485 -0.75372952 95 128 110
0.018191066 0.078015067 -0.75378066 95 128 110
0.017848073 0.078911155 -0.75400096 94 126 110
0.018032268 0.077162847 -0.75362277 96 129 110
0.024993582 0.076420777 -0.75267971 81 134 107
0.024253696 0.077321753 -0.75297463 77 135 106
0.022656584 0.076575845 -0.75296181 93 132 111
0.024462845 0.077416644 -0.75297564 75 136 106
0.0229642 0.079995617 -0.75370896 74 132 105
0.022239137 0.078988694 -0.75354737 86 129 108
0.021496912 0.079304427 -0.75368047 94 126 110
0.021719832 0.079655893 -0.75373942 90 127 109
0.023240823 0.079934545 -0.75367194 70 134 104
0.027816188 0.076454096 -0.75254017 76 133 109
0.027745552 0.077185176 -0.7526781 73 133 109
0.028422305 0.077664897 -0.75274181 69 133 109
0.028650835 0.077549502 -0.75271195 69 133 109
0.027725251 0.077275157 -0.75269556 72 133 109
0.027286073 0.078527212 -0.75296956 64 134 107
0.027998315 0.079962701 -0.75324953 52 135 106
0.026010333 0.077718377 -0.75289351 69 136 105
0.032270093 0.078309126 -0.75277436 66 132 111
0.030290067 0.076280817 -0.75242388 74 133 111
0.032593049 0.077127926 -0.75252372 71 131 113
0.031296894 0.077971496 -0.75273627 68 133 110
0.032238495 0.077293552 -0.75256866 70 132 112
0.031171091 0.080015808 -0.75312001 58 132 110
0.029413551 0.077793695 -0.75273162 67 132 110
0.030434057 0.080003537 -0.7531274 57 131 110
0.029526748 0.076903917 -0.75256544 72 132 111
0.035022795 0.076342605 -0.75232106 80 130 115
0.036253154 0.07793203 -0.75262517 74 129 112
0.036959667 0.076439314 -0.7523157 86 129 115
0.035491563 0.078160256 -0.75268078 70 129 112
0.035191189 0.077083245 -0.75246787 75 130 113
0.035532895 0.07908652 -0.75286794 66 129 111
0.033267066 0.078846343 -0.75285333 65 131 112
0.033821385 0.077171944 -0.75250417 71 131 113
0.034341991 0.077609658 -0.75258541 70 130 113
0.035257656 0.079627261 -0.7529822 64 129 110
0.033393268 0.077981696 -0.75267541 68 131 113
0.040169284 0.077265546 -0.7524237 74 130 112
0.03905895 0.077363126 -0.75244641 74 131 112
0.040591732 0.078201629 -0.75257677 63 132 110
0.039604131 0.07787466 -0.75252819 67 132 111
0.039345276 0.078060508 -0.75256062 66 131 112
0.03771897 0.077684596 -0.75253946 75 129 113
0.03752685 0.079847738 -0.7529825 63 129 109
0.037931837 0.080061875 -0.75300908 60 128 109
0.038249839 0.079118125 -0.75280613 64 129 110
0.037301842 0.077902451 -0.75260031 77 128 113
0.040275648 0.079498589 -0.75279975 50 134 108
0.042983897 0.076349765 -0.75221795 77 128 114
0.044064339 0.078558281 -0.75258517 50 133 110
0.044846687 0.07958553 -0.75274879 36 134 109
0.044140413 0.07682009 -0.75227219 68 130 113
0.042514428 0.07711041 -0.75236619 71 130 113
0.043204591 0.077327982 -0.75238729 66 130 112
0.042408243 0.078324497 -0.75257647 58 132 110
0.041233011 0.076560654 -0.75229871 81 129 113
0.043931805 0.079536386 -0.75275791 40 134 109
0.04119337 0.077463426 -0.75244927 70 130 111
0.042928252 0.079586647 -0.75277936 42 134 109
0.047936179 0.078061461 -0.75233811 41 133 112
0.048178043 0.078485727 -0.7523936 36 134 112
0.047372505 0.076293483 -0.75209641 60 130 114
0.04798419 0.078661568 -0.75242352 36 134 112
0.046280809 0.078329444 -0.75244313 45 133 111
0.044964176 0.078794807 -0.75260293 43 134 110
0.046583358 0.077969894 -0.75236118 48 132 112
0.045307476 0.077228397 -0.75230265 60 129 113
0.050955884 0.077115007 -0.7521286 38 130 114
0.052708473 0.076488689 -0.75201148 36 129 114
0.051393356 0.077920601 -0.75222701 31 132 114
0.052194223 0.077311173 -0.75213057 32 131 114
0.049010076 0.0778419 -0.75228006 38 134 112
0.048881061 0.076538309 -0.75209618 50 131 113
0.054442074 0.077348389 -0.75213331 28 129 116
0.05479208 0.07781028 -0.75219625 25 131 117
0.054485176 0.077221327 -0.75211668 30 129 116
0.055255696 0.076513223 -0.7520265 33 131 116
0.053991962 0.076821245 -0.75206125 33 129 116
0.055660162 0.079098411 -0.75237131 16 132 118
0.053400643 0.077680878 -0.75217229 27 131 115
0.054135691 0.077840917 -0.75219709 25 131 116
0.058863636 0.076963477 -0.75220203 28 129 117
0.058075365 0.077464111 -0.75221771 25 131 118
0.059113391 0.077668041 -0.75229824 24 130 118
0.059530474 0.076742098 -0.75221246 28 129 117
0.059505485 0.078654855 -0.75243533 17 130 120
0.057264522 0.077006653 -0.75212312 28 131 117
0.056975581 0.077187046 -0.75213569 27 131 118
0.056953032 0.078970179 -0.75237131 15 132 119
0.059091117 0.079124182 -0.7524755 15 130 121
0.05956221 0.079095826 -0.75249022 15 132 121
0.058261938 0.078626998 -0.75237709 17 132 119
0.061923321 0.076393351 -0.7523272 28 131 115
0.063020863 0.078463659 -0.75265425 18 132 118
0.062948167 0.07644996 -0.75240827 27 131 115
0.062293477 0.077583872 -0.75249636 24 131 117
0.062594809 0.076325633 -0.75236773 28 131 115
0.060809184 0.076200105 -0.75222337 31 129 115
0.060806241 0.078519486 -0.75249565 17 132 119
0.062085651 0.078512132 -0.75259048 18 132 118
0.061156705 0.079218015 -0.75260377 14 132 121
0.061385989 0.079139538 -0.7526117 14 132 120
0.066810131 0.077375308 -0.75283146 23 131 117
0.068052962 0.07808879 -0.75302589 19 130 118
0.065571927 0.076827593 -0.75266087 25 131 115
0.066112727 0.0771228 -0.7527433 24 131 116
0.066427253 0.076972038 -0.75274569 25 130 117
0.064691119 0.076604083 -0.75255877 27 131 115
0.069372892 0.077018753 -0.75301284 27 130 119
0.068930395 0.076259032 -0.75286597 30 129 117
0.070442848 0.077926733 -0.75326222 24 131 118
0.069011629 0.076252535 -0.7528764 30 129 117
0.069169983 0.076398134 -0.75291455 30 128 119
0.068462603 0.076914839 -0.75289428 26 130 119
0.013511491 0.074705981 -0.7539556 128 129 108
0.013108347 0.073030435 -0.7537365 157 123 112
0.01201651 0.074093141 -0.75423151 147 127 111
0.014640727 0.072615311 -0.75331521 155 122 112
0.015988128 0.073274128 -0.75317961 139 125 109
0.017268689 0.072309442 -0.75271428 141 125 106
0.014099748 0.072553448 -0.75341254 159 122 112
0.017511889 0.072580069 -0.75272185 136 126 106
0.01399136 0.073574044 -0.7536335 144 125 110
0.013779381 0.075508669 -0.754049 114 132 106
0.01387118 0.0745456 -0.75384474 129 128 108
0.016406193 0.07593143 -0.75364023 102 131 108
0.015243581 0.075073533 -0.75369084 119 129 109
0.014203738 0.074973859 -0.75386578 122 130 108
0.020783983 0.072546884 -0.75215387 129 127 107
0.01986566 0.072272502 -0.75224251 133 126 106
0.019604206 0.074200451 -0.75279677 121 127 109
0.020372858 0.07291992 -0.75232428 128 127 107
0.021438411 0.07517723 -0.75273269 110 128 112
0.020195356 0.074960545 -0.75288951 114 128 111
0.018716605 0.076128095 -0.75331855 98 131 110
0.017878268 0.074450746 -0.75306702 116 128 108
0.017691484 0.072922818 -0.75276691 132 126 106
0.018140422 0.073219962 -0.75277448 130 126 107
0.020984437 0.076153345 -0.75304461 102 129 113
0.023950094 0.073511757 -0.75204736 105 131 104
0.023241837 0.073363662 -0.75207323 111 130 106
0.023793649 0.072656184 -0.75184953 111 130 103
0.024440853 0.073046297 -0.75188893 105 131 103
0.021753721 0.072464943 -0.75198233 126 127 106
0.022252006 0.075648539 -0.75276858 102 129 112
0.022129491 0.074655555 -0.75251955 109 129 110
0.02173261 0.073035575 -0.75213391 123 127 108
0.023988482 0.076060347 -0.75269538 90 133 109
0.0216818 0.075516343 -0.75279337 106 129 112
0.02887998 0.073035814 -0.75171882 92 132 107
0.028375126 0.075018808 -0.75218594 82 133 107
0.026589859 0.072413564 -0.75162172 100 132 102
0.027096789 0.072516665 -0.75163525 98 133 103
0.028081862 0.072942503 -0.75171345 94 133 105
0.028363258 0.074234188 -0.7520054 87 133 107
0.027159488 0.074899673 -0.75219768 85 133 106
0.027307499 0.07607758 -0.75248349 79 134 109
0.026043242 0.074839748 -0.75222433 88 133 105
0.026732877 0.076075889 -0.75250441 80 134 108
0.026951605 0.074089631 -0.75200504 90 132 104
0.030507127 0.072425149 -0.75153929 90 133 107
0.031422846 0.07284788 -0.75161159 87 132 108
0.032312792 0.074728437 -0.75200945 80 131 112
0.032314811 0.074642852 -0.75199038 80 131 112
0.032901682 0.075338833 -0.75213146 77 132 113
0.030646797 0.073649094 -0.75180918 88 132 110
0.031500097 0.075520821 -0.7522136 78 131 112
0.029953646 0.07297112 -0.75167477 91 132 108
0.031806927 0.075818963 -0.75227261 76 133 112
0.031184781 0.074402653 -0.75196582 83 132 111
0.035811812 0.072623432 -0.751468 85 134 108
0.035818618 0.072858974 -0.75152218 85 134 109
0.034783136 0.072339907 -0.75142366 84 134 108
0.035352636 0.074321464 -0.75186908 85 131 112
0.034752931 0.072628714 -0.75149089 84 133 108
0.036837384 0.072359808 -0.75138617 87 135 108
0.034274872 0.073485658 -0.75169724 82 133 109
0.034074124 0.075957373 -0.75225097 77 131 115
0.03494022 0.074516743 -0.75191867 83 132 112
0.035758805 0.07559894 -0.75214946 85 130 114
0.033860881 0.073512733 -0.75170857 81 133 109
0.039081473 0.07236138 -0.75137758 88 133 109
0.037497822 0.07256946 -0.75142705 88 134 108
0.038659684 0.072454371 -0.75139922 88 133 109
0.038558248 0.072489403 -0.75140733 88 133 109
0.040398978 0.07370536 -0.75167972 88 131 111
0.038470235 0.075299703 -0.75205076 87 130 113
0.038120046 0.07498835 -0.75198102 87 131 112
0.039656535 0.075661756 -0.75212729 86 129 114
0.040737003 0.075906746 -0.75217748 85 129 114
0.037118282 0.076035306 -0.75222844 88 130 115
0.043430403 0.072944246 -0.75154006 81 131 112
0.043421809 0.072940826 -0.75153923 81 131 112
0.044112455 0.073477715 -0.75165141 79 131 113
0.043595694 0.073300615 -0.75160587 80 131 112
0.044814683 0.073228709 -0.75162947 76 132 113
0.041524306 0.073729411 -0.75167108 86 130 111
0.041360322 0.073224202 -0.75156099 88 130 111
0.042830281 0.075896285 -0.75212765 80 128 114
0.042039387 0.074098043 -0.75174117 84 129 112
0.04371658 0.075524956 -0.75202072 77 128 114
0.042855211 0.075403862 -0.75201559 80 129 113
0.047026634 0.073600955 -0.75166678 67 133 113
0.046323083 0.073141359 -0.75159836 71 133 113
0.048581988 0.073791899 -0.75169778 62 134 113
0.047674414 0.07420633 -0.75175625 63 132 113
0.048051201 0.074411906 -0.75178695 61 133 113
0.04841074 0.07242085 -0.75149769 67 136 112
0.04659602 0.07593032 -0.7520557 64 130 114
0.045406897 0.073126562 -0.7516039 74 133 113
0.045689605 0.073152132 -0.75160164 73 133 113
0.046340264 0.074513167 -0.75181925 68 132 113
0.04551091 0.074502185 -0.75183666 72 131 114
0.050530963 0.072517194 -0.75147682 63 135 113
0.051188264 0.072783865 -0.75150222 60 135 113
0.052412327 0.072771162 -0.75147438 59 134 113
0.051158793 0.073783427 -0.75165021 54 133 113
0.052509252 0.075065479 -0.75181061 45 131 113
0.049499985 0.073893279 -0.75169998 58 133 113
0.051470604 0.075116597 -0.75183982 46 131 114
0.050039016 0.074345127 -0.7517553 54 133 113
0.049980771 0.074132092 -0.75172538 56 132 113
0.05019924 0.075696543 -0.75194907 50 131 114
0.055376612 0.07228484 -0.75147176 58 134 112
0.054874167 0.073191307 -0.75156909 54 133 113
0.056376014 0.072986856 -0.75158721 52 134 112
0.056138743 0.072750412 -0.75155121 54 133 112
0.05373631 0.072715364 -0.75147742 58 134 113
0.056634888 0.072700225 -0.75155938 54 133 112
0.053664975 0.074251719 -0.75169039 50 131 114
0.053439163 0.073723473 -0.75161141 52 134 114
0.052845981 0.073505327 -0.7515763 54 133 113
0.053102303 0.07458394 -0.75173658 48 132 114
0.053161468 0.075131118 -0.75181758 44 131 114
0.057303183 0.072750002 -0.75160348 53 134 112
0.060244329 0.073045231 -0.75182539 51 131 115
0.060319226 0.07271307 -0.75179237 53 131 115
0.059580766 0.073951446 -0.75188619 45 132 114
0.05953981 0.074457675 -0.7519412 43 131 115
0.059632685 0.074927099 -0.75200063 40 131 114
0.058147758 0.075883754 -0.7520346 34 131 116
0.057067405 0.075052492 -0.75187308 40 131 115
0.058121245 0.075835608 -0.75202721 35 130 116
0.056884885 0.074047767 -0.75173914 46 133 114
0.057183899 0.073541157 -0.75169295 48 132 113
0.062727973 0.072473161 -0.75196236 54 130 118
0.063505143 0.074801095 -0.75226444 38 130 115
0.061235625 0.072540082 -0.75184232 54 131 116
0.062316611 0.07266552 -0.75194693 53 131 117
0.063977517 0.073109396 -0.75213313 49 130 119
0.06059999 0.074228957 -0.75198352 43 131 115
0.062574662 0.07577572 -0.75230277 33 131 115
0.061767768 0.074734695 -0.75212568 40 130 115
0.063641883 0.075404726 -0.75233787 34 131 114
0.063108802 0.075079024 -0.75226212 36 132 114
0.06786751 0.073458157 -0.75257337 46 130 118
0.06790743 0.072930321 -0.75255036 49 131 117
0.066283017 0.072639331 -0.75233406 51 131 119
0.065746717 0.07330738 -0.75230318 47 130 119
0.067928188 0.072959982 -0.75255448 49 131 117
0.064644143 0.072656929 -0.75214201 52 130 120
0.064534217 0.074105203 -0.75228059 42 130 117
0.066377699 0.074888311 -0.75249875 38 129 118
0.065106854 0.073145993 -0.75222647 49 130 119
0.065358415 0.074995041 -0.75243282 36 130 117
0.066530764 0.075275823 -0.75254953 35 129 118
0.070920557 0.073679887 -0.75295109 47 133 116
0.070283934 0.07345055 -0.75286788 47 133 116
0.071787067 0.073922396 -0.7530579 46 134 116
0.072176605 0.073425837 -0.75305021 48 134 116
0.070744507 0.073340505 -0.75290269 48 132 116
0.068909734 0.074305445 -0.75275433 42 130 117
0.069434509 0.074197292 -0.75282031 42 132 116
0.069750272 0.073700204 -0.75283712 46 133 116
0.069674492 0.075837865 -0.75294012 33 131 117
0.06969405 0.075777672 -0.75293958 35 130 117
0.069657013 0.073951721 -0.75283772 44 132 116
0.075768434 0.075208806 -0.75360852 46 135 113
0.074321792 0.074895322 -0.7534312 46 134 114
0.074720815 0.07500983 -0.75348771 46 134 114
0.077739477 0.074552149 -0.75376225 48 134 114
0.017566929 0.071880542 -0.75258386 147 125 108
0.015950859 0.071873054 -0.75291979 156 124 110
0.016463241 0.072066627 -0.75284189 149 125 108
0.016463706 0.071655333 -0.75278509 156 124 110
0.021207919 0.071866967 -0.75193995 138 126 108
0.020387199 0.070928857 -0.75193381 160 125 112
0.02138189 0.07211981 -0.75195092 132 126 107
0.018649526 0.072032109 -0.75241733 141 126 107
0.020805646 0.072084099 -0.75204736 134 126 107
0.024959154 0.071793742 -0.75156403 116 130 103
0.025355956 0.07148543 -0.75145102 122 129 103
0.024671916 0.070623778 -0.75135088 145 125 108
0.023401616 0.071707331 -0.75168729 128 128 106
0.023705386 0.072177224 -0.75174493 116 129 103
0.022032095 0.072222114 -0.75190067 126 127 106
0.024150643 0.071438372 -0.75157279 128 128 105
0.027303787 0.070179373 -0.75113153 149 124 112
0.027250553 0.070978262 -0.75130177 131 127 108
0.026884245 0.071271956 -0.75137132 124 128 107
0.028081911 0.071741357 -0.75144649 111 130 107
0.032712329 0.070725247 -0.75110507 120 126 110
0.032926016 0.070269644 -0.75099128 132 123 111
0.031843126 0.069806568 -0.75093019 142 125 112
0.031455465 0.070048958 -0.75100225 136 127 111
0.031468797 0.070594713 -0.75112611 122 130 110
0.031848177 0.071014561 -0.75120604 112 131 109
0.031937044 0.071104839 -0.75122303 110 131 109
0.032402042 0.071957678 -0.75139278 91 132 108
0.030036705 0.069406949 -0.75090855 151 128 112
0.03706982 0.069636822 -0.75082511 128 130 110
0.036621671 0.071307309 -0.75116116 106 131 109
0.03533724 0.070471063 -0.75098288 131 124 111
0.035992526 0.07220982 -0.75136894 87 134 108
0.035044886 0.071379945 -0.7511974 107 129 109
0.035126951 0.071367286 -0.75119281 107 129 109
0.035422653 0.071292438 -0.7511695 110 128 110
0.033930261 0.070515625 -0.75102133 127 124 111
0.039647378 0.068791099 -0.75070155 144 127 112
0.039602965 0.070049256 -0.750925 124 128 111
0.038196828 0.069334254 -0.75076503 133 129 110
0.040171701 0.070732668 -0.75106007 114 129 110
0.038547754 0.069452018 -0.75079417 132 128 111
0.037526567 0.069014885 -0.75069845 137 128 111
0.039247647 0.072106995 -0.75132346 91 133 108
0.038628802 0.070505708 -0.75099939 116 130 110
0.038804553 0.070752084 -0.7510491 112 130 110
0.040525664 0.071891204 -0.75127769 95 131 109
0.043113809 0.068836279 -0.75083154 141 125 112
0.041814435 0.068961754 -0.75079048 141 126 112
0.04276152 0.06985563 -0.75097883 124 128 113
0.044720147 0.069345303 -0.75098902 130 127 111
0.042847045 0.068450488 -0.75075698 148 125 111
0.043702602 0.070210174 -0.7510801 116 128 112
0.042317923 0.071771845 -0.7513032 94 131 111
0.043073069 0.070764631 -0.75114572 108 130 112
0.042098094 0.071330644 -0.75121802 102 130 111
0.042371731 0.070141546 -0.75101388 120 128 112
0.042480346 0.070244633 -0.75103551 119 129 112
0.048709206 0.069840118 -0.75112778 111 128 109
0.045548297 0.068364836 -0.75085348 144 124 109
0.04804834 0.069297537 -0.75103706 122 127 109
0.047694795 0.069800243 -0.75110155 114 128 110
0.047882438 0.070465185 -0.75120014 102 130 110
0.047327247 0.07196933 -0.75142521 76 135 112
0.047610242 0.071776234 -0.75139475 78 135 111
0.047696617 0.071987547 -0.7514289 74 135 112
0.045823324 0.071366705 -0.75132531 91 132 112
0.045010086 0.071279779 -0.75130969 95 131 112
0.052650332 0.071282461 -0.75127208 81 131 112
0.05108241 0.069230862 -0.75102228 121 125 110
0.052277163 0.071524404 -0.75130254 77 132 112
0.052091356 0.068654113 -0.7509495 130 123 111
0.052633628 0.069504783 -0.75105327 115 125 112
0.051189579 0.069040969 -0.75099874 124 125 110
0.048921701 0.069723576 -0.75111157 113 127 109
0.048880678 0.070812173 -0.75126761 93 131 110
0.049635828 0.071589708 -0.75136244 78 133 111
0.048975185 0.069050424 -0.75101447 125 126 108
0.048889738 0.070669256 -0.75124705 95 131 110
0.054943219 0.068434291 -0.75099391 131 121 111
0.053694304 0.06878376 -0.75099427 126 123 111
0.055237684 0.069197707 -0.75109452 117 123 111
0.056335848 0.070991047 -0.75134414 82 129 111
0.056004751 0.068785474 -0.7510708 124 121 111
0.053599682 0.070111677 -0.75115281 102 127 112
0.053422388 0.070935629 -0.75124913 87 130 112
0.053208917 0.070253029 -0.75115889 100 128 112
0.054296587 0.070359938 -0.75120348 96 128 111
0.054973125 0.071759313 -0.75139534 68 133 112
0.059993464 0.0692247 -0.75140256 108 126 110
0.057729024 0.069366954 -0.75123203 112 122 112
0.060008653 0.071307443 -0.75161487 74 129 114
0.060086936 0.06850633 -0.75133741 119 125 109
0.059980929 0.071418092 -0.75162381 72 129 115
0.058396135 0.068783887 -0.75122744 120 123 111
0.057126179 0.072028384 -0.75150877 60 133 112
0.057228085 0.071648002 -0.75147003 68 131 112
0.058309082 0.071185432 -0.75148416 77 128 113
0.057225052 0.071442433 -0.75144535 72 130 112
0.059729375 0.071549036 -0.75161833 70 129 114
0.058225863 0.070715502 -0.75142288 86 127 113
0.064245045 0.071328111 -0.75198668 69 129 117
0.063434564 0.070738263 -0.75185454 80 129 115
0.062758014 0.070318617 -0.75175047 88 128 114
0.064236552 0.069614887 -0.75183892 96 128 112
0.063311636 0.069459058 -0.75173247 99 128 112
0.063967794 0.07188563 -0.7520082 61 129 119
0.06315399 0.071140148 -0.75186348 74 129 116
0.060849186 0.070891179 -0.75164235 80 129 113
0.061839528 0.072002642 -0.75183922 59 131 116
0.061567318 0.070415586 -0.75165522 87 128 113
0.06627471 0.068948314 -0.7520209 107 127 109
0.065397292 0.069245957 -0.75194544 100 129 110
0.066267326 0.070153095 -0.75213104 87 129 112
0.066545188 0.070386946 -0.75218517 83 130 112
0.067471445 0.070579596 -0.75231153 82 129 113
0.066653088 0.071244411 -0.75227243 69 130 115
0.064769804 0.071743898 -0.75208241 63 130 118
0.064820446 0.07082884 -0.75201023 77 129 116
0.064883314 0.07014709 -0.7519595 87 129 113
0.072156712 0.06890773 -0.752666 111 126 112
0.070246063 0.068418011 -0.75241965 119 124 110
0.071774416 0.069111869 -0.75264132 108 126 113
0.071333483 0.070977457 -0.75274605 77 130 115
0.069378227 0.069613941 -0.75242597 100 126 112
0.069381401 0.069664873 -0.75243098 99 126 111
0.072979003 0.068760268 -0.75272506 113 126 112
0.074975416 0.068417557 -0.75286454 116 127 112
0.076009206 0.069683179 -0.75305313 97 129 114
0.076115154 0.070380338 -0.75311822 87 130 116
0.075500876 0.069207221 -0.75297219 105 128 113
0.074895412 0.069923311 -0.75297928 95 128 115
0.073107645 0.070134334 -0.75284755 91 128 115
0.07235834 0.070125438 -0.75278485 91 128 114
0.078110881 0.070189632 -0.75340879 94 129 114
0.076759085 0.068499215 -0.75306201 115 128 111
0.079654373 0.070448786 -0.75366789 90 130 113
0.079237655 0.069898859 -0.75355858 97 129 112
0.079948492 0.069059111 -0.75359935 107 128 109
0.076375633 0.070191979 -0.75313944 90 130 115
0.076566674 0.070064344 -0.75315881 92 130 115
0.077501014 0.070475087 -0.75333714 88 130 115
0.078913786 0.07125593 -0.75361967 80 131 115
0.077689469 0.07098823 -0.75340778 81 131 116
0.082875796 0.069883309 -0.75418949 95 129 113
0.081650615 0.070255041 -0.75399667 91 130 113
0.082834736 0.068407096 -0.75405574 113 127 111
0.083301917 0.068721607 -0.75416452 109 128 112
0.082728989 0.068898998 -0.75407726 107 127 112
0.080661863 0.069106609 -0.75372696 106 128 110
0.08269053 0.069069326 -0.75408435 105 128 112
0.046581015 0.068153627 -0.75082928 146 124 110
0.052660063 0.06824974 -0.75088644 137 122 112
0.049026348 0.067985602 -0.75083929 145 123 109
0.053299572 0.067965485 -0.75087225 143 122 113
0.054745022 0.068018854 -0.75092787 141 121 113
0.060634628 0.067485422 -0.75124621 141 124 112
0.060874119 0.067446291 -0.75126487 142 124 113
0.062106431 0.067288429 -0.75136667 144 125 113
0.061643682 0.068242744 -0.751454 121 126 109
0.066729337 0.067543678 -0.75189173 139 124 112
0.067013912 0.067399748 -0.75190252 144 123 112
0.064483359 0.068019629 -0.7517032 123 127 110
0.072115302 0.066936545 -0.75239331 153 125 115
0.072247818 0.067878388 -0.75255573 131 125 113
0.070791364 0.067639291 -0.75235689 138 124 113
0.071550384 0.067728221 -0.75245333 136 125 113
0.070105053 0.066806376 -0.75214756 158 124 116
0.070229597 0.067973204 -0.75235039 130 124 112
0.075838178 0.067461684 -0.75280285 137 127 113
0.07481458 0.06663762 -0.75258434 157 126 116
0.075934239 0.067607857 -0.75283271 134 127 113
0.075112887 0.067903735 -0.75280017 128 127 113
0.072343394 0.066737629 -0.75238585 157 125 116
0.074142314 0.066626675 -0.75251913 159 126 117
0.074576728 0.06816075 -0.75279546 123 127 112
0.078445405 0.065658003 -0.75294983 176 124 117
0.078093417 0.065268174 -0.75284266 184 123 118
0.079862729 0.066711456 -0.75331533 154 125 114
0.077003919 0.065280735 -0.75266743 183 123 118
0.07863725 0.067347474 -0.7532016 138 125 112
0.078950778 0.067865573 -0.75332081 126 126 110
0.076436982 0.066490166 -0.75274539 158 125 115
0.076850727 0.065516256 -0.75267601 177 124 117
0.076756105 0.067901507 -0.7529875 127 127 112
0.081588216 0.06586653 -0.75350773 172 124 118
0.082529761 0.065635316 -0.7536183 179 124 119
0.083519727 0.065051183 -0.75368285 195 124 120
0.08181645 0.065770991 -0.75352854 175 124 118
0.083545581 0.067844629 -0.75411028 126 126 114
0.083227217 0.067139037 -0.75395411 143 125 116
0.082460552 0.066922635 -0.75380075 147 125 116
0.081666067 0.066324636 -0.75358266 162 125 117
0.081666715 0.066807508 -0.75364488 151 125 115
0.081015341 0.06803102 -0.75368637 122 126 110
0.081906758 0.066574231 -0.75365758 156 125 116
0.081747815 0.067196228 -0.7537092 141 126 114
0.084946714 0.066100568 -0.75415289 172 125 119
0.084484428 0.066773348 -0.75413811 154 125 116
0.084591396 0.065104716 -0.75391418 196 124 121
0.1146341 0.069639452 -0.76657706 98 129 106
0.11366557 0.070999995 -0.76612556 73 132 108
0.11384126 0.070827819 -0.76621383 76 131 107
0.11897815 0.069697551 -0.76940119 80 132 104
0.11731517 0.069136411 -0.76825762 98 129 104
0.11899683 0.0706788 -0.76952338 66 134 106
0.11806363 0.070176102 -0.76886052 79 131 106
0.1187399 0.068816118 -0.76914763 95 130 103
0.11798793 0.068777837 -0.76865464 99 129 104
0.11811394 0.069283031 -0.76879317 91 130 104
0.11557261 0.068840258 -0.76708925 111 128 104
0.116489 0.070585273 -0.76786429 79 131 107
0.11546431 0.070728801 -0.76719171 80 129 109
0.11659704 0.07009232 -0.76789093 87 130 106
0.1174898 0.071339779 -0.76860404 62 133 108
0.11949587 0.068664268 -0.76965499 97 130 103
0.11469292 0.067790747 -0.76640457 135 125 106
0.11477095 0.068206504 -0.76652014 125 126 104
0.11851123 0.067684524 -0.76883435 119 127 106
0.11794794 0.066796258 -0.76831722 144 124 111
0.11682068 0.068160526 -0.76781583 116 128 104
0.11566572 0.06793268 -0.76702702 129 125 106
0.11801259 0.067682199 -0.76851022 121 127 106
0.11797392 0.06732659 -0.76842546 130 126 108
0.11548169 0.068279609 -0.76696563 121 127 104
0.11933239 0.067986377 -0.76943445 110 129 104
0.13249318 0.075131379 -0.78248543 54 133 110
0.13245606 0.074018098 -0.78232318 54 135 105
0.13191982 0.074897245 -0.78181392 53 134 109
0.0042511201 0.094729386 -0.76114237 69 132 112
0.0034483541 0.094837382 -0.76142222 71 130 114
0.003809578 0.094396845 -0.76119435 68 131 112
0.0024164109 0.093855456 -0.7614907 66 130 114
0.0053669875 0.094070405 -0.76060444 67 132 112
0.0057203574 0.094533004 -0.76061541 69 133 111
0.0050735027 0.094609782 -0.76084876 68 133 111
0.0085331686 0.093897961 -0.75959545 68 132 113
0.0059389579 0.094785921 -0.76061565 70 132 112
0.0066042282 0.095249295 -0.76054579 72 133 111
0.006912807 0.095368028 -0.76048696 72 132 112
0.0064809723 0.094538741 -0.7603873 69 133 112
0.0069042109 0.09523277 -0.76045245 72 132 112
-0.0022210449 0.086843319 -0.76177388 67 134 109
-0.0025764124 0.084245086 -0.76134455 98 127 108
-0.0033753586 0.084548593 -0.76180583 108 126 110
-0.0032154121 0.085010394 -0.76183486 101 127 110
0.00088096049 0.084799066 -0.76000226 62 134 107
0.00079210394 0.084379055 -0.75995213 64 134 107
0.00083836052 0.08638186 -0.76034307 62 133 110
0.00058783055 0.086318098 -0.76043111 64 132 110
0.00076244725 0.086574934 -0.76041323 62 133 110
0.00048687542 0.087076686 -0.76064503 59 132 110
-0.00028274208 0.086010851 -0.76072943 70 131 109
-0.00045987184 0.086269461 -0.76086587 67 132 109
0.00037795887 0.086424276 -0.76054054 65 131 110
0.00050620385 0.087350719 -0.76070035 56 133 111
0.0049691452 0.085794687 -0.75873494 69 133 111
0.004034658 0.085308686 -0.7589578 63 134 109
0.0050449618 0.085600615 -0.75866741 72 133 111
0.0026375395 0.084951282 -0.75936717 53 136 107
0.0069806473 0.086388566 -0.75821483 74 131 112
0.0071700355 0.087112524 -0.75831211 65 132 111
-0.0021803202 0.083904304 -0.76107424 96 127 107
-0.0041376418 0.083598144 -0.76197052 128 123 112
-0.0047102887 0.082826942 -0.76209652 142 123 115
-0.0029120992 0.082113139 -0.76108444 127 126 112
-0.0025278761 0.081615515 -0.76080686 131 125 112
-0.004632948 0.080599815 -0.76162142 164 125 119
-0.0028266634 0.080240212 -0.76069021 151 124 114
-0.0029293504 0.082996301 -0.76125932 115 127 111
0.00063819881 0.082488433 -0.75965625 88 131 109
0.0015953328 0.082003795 -0.75921851 87 131 107
0.0014832335 0.083053738 -0.75942975 72 134 107
0.0018245897 0.0823889 -0.75919437 79 133 107
-0.00028365059 0.080137439 -0.75962418 131 126 110
0.001627781 0.08352346 -0.75945109 63 135 107
-0.001300517 0.083901785 -0.76070023 87 129 107
-0.0016893708 0.082107939 -0.76051867 116 126 109
-0.0016087673 0.083933502 -0.76083052 89 128 107
0.0013774817 0.083411939 -0.75952727 67 135 107
-0.0017430193 0.081826046 -0.76048708 120 126 109
-0.0013224492 0.083895907 -0.76070797 87 129 106
0.0020657773 0.082415342 -0.75910866 77 133 107
0.0021753886 0.082063965 -0.75901163 82 133 107
0.0034734483 0.083694443 -0.75882375 75 134 110
0.0037914182 0.080722608 -0.75820982 107 130 110
0.0041694925 0.083378367 -0.75852752 86 133 111
0.0048153549 0.083112277 -0.75825727 96 131 112
0.0028094212 0.083415806 -0.75900817 69 134 108
-0.0034121114 0.079657599 -0.76084054 162 124 116
-0.0036758406 0.078972794 -0.76080543 169 125 117
-0.0021850928 0.079453193 -0.76023406 154 124 113
0.00029504474 0.078407653 -0.75912338 148 126 112
0.00030193361 0.077457771 -0.75892556 162 125 113
0.0010552169 0.078631282 -0.75885189 139 126 110
0.00088596542 0.078262642 -0.75884694 146 126 111
-0.00041642739 0.079533607 -0.75957543 140 125 111
-0.00058752089 0.078925252 -0.75954026 149 126 112
0.0014755835 0.079643503 -0.75888234 122 127 108
-0.0010889044 0.077781856 -0.75954163 168 125 115
0.0006794869 0.079178624 -0.7591055 135 126 111
0.0025591427 0.079707935 -0.75847441 117 127 109
0.0022686438 0.079305559 -0.75849962 123 127 108
0.098625675 0.071208432 -0.75905746 73 132 114
0.098746911 0.069909468 -0.75894994 97 130 110
0.099566996 0.069691449 -0.75925565 100 130 109
0.098006032 0.070830017 -0.75876099 81 131 114
0.097749315 0.070293643 -0.7586022 91 130 112
0.097003251 0.069415361 -0.75828063 100 129 108
0.096598022 0.071289867 -0.75827235 72 132 116
0.097549476 0.068575345 -0.75841117 114 128 106
0.10344226 0.070348531 -0.76099265 94 129 107
0.1021709 0.069773212 -0.76037842 103 129 107
0.10144216 0.069512695 -0.76003414 105 129 106
0.10233045 0.068607658 -0.76031643 131 124 107
0.10172536 0.068760604 -0.76007205 125 126 106
0.10317934 0.07029932 -0.7608735 94 129 107
0.10111284 0.069921292 -0.75993812 94 131 107
0.10275815 0.071511753 -0.76082766 61 135 108
0.10144066 0.071710236 -0.76029283 59 135 110
0.10146851 0.070218906 -0.76012486 88 132 107
0.10026524 0.069248922 -0.75949764 107 130 106
0.10518742 0.069014326 -0.76155454 122 126 105
0.10480464 0.069887698 -0.76150036 103 128 107
0.10536624 0.069737062 -0.76171064 105 129 105
0.1065004 0.069184639 -0.76210654 113 130 103
0.10503135 0.070527665 -0.76166636 88 129 107
0.10364135 0.070960082 -0.76114488 79 131 107
0.10412976 0.070057869 -0.7612446 101 128 107
0.10364427 0.068736427 -0.76089621 133 122 107
0.099160708 0.068284057 -0.75894409 125 127 106
0.099415466 0.067997783 -0.75898665 133 128 107
0.10041366 0.06799151 -0.75940078 137 126 108
0.10080356 0.067880742 -0.75955153 142 125 109
0.12626114 0.076909304 -0.77600205 43 137 114
0.12684672 0.078894965 -0.77682251 47 136 120
0.12656629 0.077768706 -0.77640289 45 135 117
0.12679403 0.077791147 -0.77660757 46 136 117
0.12618954 0.078309461 -0.77615243 45 135 119
0.1261472 0.078020938 -0.77607101 45 135 118
0.12547505 0.077010468 -0.77532488 43 136 117
0.12632979 0.076255798 -0.77596468 43 137 113
0.12503104 0.077071644 -0.77494299 42 136 117
0.12796284 0.076208785 -0.77758819 44 138 111
0.1275979 0.077748299 -0.77742487 46 137 116
0.12706827 0.078847297 -0.77702922 48 135 120
0.12706238 0.077151239 -0.77676427 45 137 114
0.12516163 0.076137155 -0.77492005 42 136 116
0.12688263 0.075340904 -0.77636093 49 136 110
0.1253321 0.075697497 -0.77502888 44 136 114
0.12576076 0.074048899 -0.77525151 56 133 111
0.12495326 0.075547628 -0.77468115 45 134 115
0.12660871 0.074923716 -0.77608049 51 136 110
0.12487113 0.074216932 -0.77448064 51 135 112
0.12547669 0.073130451 -0.77491057 58 134 109
0.12436391 0.073547676 -0.77396536 49 137 109
0.12579477 0.073100448 -0.77518952 59 135 107
0.12759803 0.074192852 -0.77700764 57 135 108
0.127683 0.07381203 -0.77706701 60 135 107
0.12778817 0.073571317 -0.7771607 62 134 107
0.12730217 0.075109214 -0.77677518 51 136 109
0.12703903 0.072616674 -0.77625912 66 134 105
0.12710255 0.075505242 -0.77659857 48 137 110
0.12588406 0.072134905 -0.77517098 65 134 106
0.12561493 0.072249115 -0.77494615 61 135 106
0.12649097 0.071720332 -0.77565926 78 132 106
0.12562913 0.072092347 -0.77493995 64 135 105
0.12470087 0.071759045 -0.77407748 66 135 106
0.12489903 0.069737658 -0.77407891 113 126 109
0.12498967 0.069690399 -0.77415007 114 126 109
0.12542669 0.069551237 -0.77450031 118 126 109
0.12447087 0.071378052 -0.7738561 74 134 107
0.12773579 0.070290305 -0.77675068 111 127 108
0.12720326 0.068810761 -0.77599144 139 123 109
0.12798655 0.068798736 -0.77681708 138 124 107
0.12777743 0.071904592 -0.77699119 78 131 106
0.12770113 0.072142452 -0.77693629 73 132 106
0.12803072 0.071774252 -0.77725226 82 131 106
0.12581757 0.067434274 -0.77451271 161 121 114
0.1258539 0.068129219 -0.77470464 149 121 111
0.12511155 0.06772235 -0.77399606 154 121 113
0.12593061 0.066968903 -0.77449775 168 121 116
0.12507993 0.067595594 -0.77394038 156 120 114
0.1280368 0.068332821 -0.77680564 145 123 106
0.00057236338 0.094538406 -0.76242101 72 129 115
-0.0068615903 0.088242792 -0.76445234 106 124 113
-0.005017492 0.088355705 -0.76352739 85 127 110
-0.0049678553 0.088155769 -0.76345384 84 127 110
-0.0027787648 0.090993591 -0.76305628 66 132 111
-0.0053240578 0.088748202 -0.76376599 86 126 111
-0.006080443 0.086875528 -0.76371008 107 124 112
-0.0063904985 0.087023109 -0.7639221 105 125 112
-0.0046816543 0.08484754 -0.76252174 120 123 111
-0.0049407696 0.085052311 -0.7626965 120 123 111
-0.0054665403 0.084660687 -0.76285374 131 122 113
-0.0028504338 0.087460279 -0.76223195 66 133 110
-0.002935 0.087860279 -0.76236916 62 133 110
-0.0048385337 0.087237239 -0.76316923 91 126 111
-0.0040705632 0.084962472 -0.76224577 112 124 111
-0.0059357048 0.082043126 -0.76252902 163 123 119
-0.0087787211 0.081930414 -0.76386482 169 128 121
-0.0055023292 0.083719663 -0.76265335 143 122 114
-0.0055699348 0.08208476 -0.76236445 159 123 118
-0.0058332644 0.08177036 -0.76242936 165 124 119
0.10728613 0.071161881 -0.7626574 72 132 107
0.10726145 0.069691494 -0.76247036 102 130 104
0.10720005 0.06906338 -0.76236963 114 130 103
0.10668951 0.069178566 -0.76218021 113 130 103
0.11121816 0.070074119 -0.76456201 88 130 105
0.10892219 0.068700857 -0.76321089 119 129 102
0.10982779 0.069713905 -0.76378447 98 131 104
0.1088453 0.068490304 -0.76315147 123 128 102
0.11010872 0.068956695 -0.76387 111 128 104
0.10848439 0.069215328 -0.76302022 111 130 102
0.10852453 0.069847994 -0.76310951 98 131 104
0.11013202 0.07123407 -0.76408452 69 135 105
0.10770835 0.071233332 -0.76286578 71 131 107
0.10822081 0.069539554 -0.76291966 105 131 103
0.11304004 0.070617795 -0.76571506 80 131 107
0.11211241 0.068535216 -0.764965 117 127 104
0.11294721 0.068856984 -0.76550061 112 128 104
0.11279705 0.071049489 -0.76560634 72 131 108
0.11177714 0.070570245 -0.76493955 79 131 106
0.10849764 0.068202257 -0.76293159 130 128 102
0.10799824 0.068151258 -0.76265627 132 129 102
0.11366247 0.068164617 -0.76586282 126 127 103
0.12859857 0.077136599 -0.77840745 48 136 115
0.12926631 0.075386509 -0.77890283 50 138 109
0.12956697 0.075245596 -0.7792114 51 137 109
0.12915395 0.073310576 -0.77859622 61 137 104
0.12842117 0.0749522 -0.77796441 52 137 108
0.12935986 0.072907038 -0.77877861 63 137 102
0.12845007 0.074386865 -0.77794701 56 136 107
0.12858252 0.073736586 -0.77803129 60 135 106
0 0 0 1 0 0 0 1 0 0 0 1 0 0 0 0 0 1002 1 0 0
