ply
format ascii 1.0
comment PCL generated
element vertex 934
property float x
property float y
property float z
property uchar red
property uchar green
property uchar blue
element camera 1
property float view_px
property float view_py
property float view_pz
property float x_axisx
property float x_axisy
property float x_axisz
property float y_axisx
property float y_axisy
property float y_axisz
property float z_axisx
property float z_axisy
property float z_axisz
property float focal
property float scalex
property float scaley
property float centerx
property float centery
property int viewportx
property int viewporty
property float k1
property float k2
end_header
0.26671648 0.052989475 -0.87920618 40 136 104
0.27913159 0.080625877 -0.89505941 71 139 110
0.27942887 0.080374323 -0.89495069 67 140 110
0.28181666 0.080712542 -0.89854765 61 138 113
0.28106716 0.081272662 -0.89865535 68 136 112
0.28111449 0.080611378 -0.89747596 63 138 112
0.28285322 0.080148205 -0.89879274 53 139 114
0.28242922 0.080156833 -0.89827621 54 139 114
0.28166494 0.080527976 -0.89801127 60 139 112
0.28316009 0.078497708 -0.89637488 58 139 117
0.28244364 0.079740286 -0.89760351 55 139 114
0.28184667 0.079955131 -0.89724511 56 140 113
0.2805236 0.079597414 -0.89504421 63 140 111
0.28254122 0.078768522 -0.89608216 58 140 115
0.28292266 0.078721263 -0.89646304 58 138 116
0.28071728 0.079764538 -0.89555997 61 140 111
0.28133884 0.079592697 -0.89602065 60 139 113
0.28537375 0.076348692 -0.89503866 82 133 118
0.28598979 0.076368444 -0.89574265 90 130 119
0.28469923 0.077060476 -0.89557344 77 134 118
0.28520072 0.07719098 -0.89634627 82 132 119
0.28550616 0.07695464 -0.89625865 85 132 119
0.28668818 0.07692448 -0.89748317 97 127 121
0.28325197 0.07983844 -0.8987512 50 139 115
0.28470853 0.07787706 -0.89700139 75 134 119
0.28389883 0.078552179 -0.89727145 63 136 117
0.2834315 0.079587869 -0.89852065 53 139 115
0.2838476 0.079160839 -0.89824629 60 137 116
0.28382289 0.078913562 -0.89780116 61 137 116
0.28450882 0.077589877 -0.89630014 74 134 119
0.28729281 0.076831728 -0.89803237 101 126 121
0.28692946 0.076017514 -0.89622146 100 128 120
0.28730398 0.075831279 -0.89645928 103 127 120
0.28745842 0.075145282 -0.89582521 104 127 120
0.28963974 0.075009435 -0.8982144 104 126 117
0.28961655 0.075021684 -0.89820528 104 126 117
0.28751326 0.074983664 -0.89565647 105 126 120
0.28916004 0.075544134 -0.89844638 103 126 119
0.28821504 0.075383939 -0.89708698 104 126 120
0.29089367 0.073439375 -0.89693499 96 125 115
0.29019511 0.073677309 -0.89653295 97 125 115
0.29082713 0.072556265 -0.89512599 88 125 114
0.29088613 0.072479293 -0.89504868 87 125 114
0.29004145 0.073066846 -0.89514881 92 126 115
0.29022136 0.073348418 -0.89592254 95 125 116
0.29044613 0.072889581 -0.89530462 91 125 115
0.29107958 0.07356108 -0.89742053 96 126 115
0.29179305 0.072906844 -0.89721572 84 127 114
0.29154119 0.073690958 -0.89836943 94 126 115
0.29129219 0.073565535 -0.89774936 95 126 115
0.2927691 0.07262069 -0.89812589 73 129 114
0.29258108 0.072130136 -0.89692241 70 129 114
0.28315833 0.081838325 -0.91387069 72 132 116
0.28259364 0.08221864 -0.91065335 51 130 115
0.28206238 0.082437426 -0.91256309 69 130 115
0.28155258 0.082716361 -0.91194618 67 129 115
0.28261521 0.082137868 -0.9131285 70 130 116
0.2824302 0.082266346 -0.911937 61 131 115
0.28526133 0.080675654 -0.91293287 51 132 116
0.28485754 0.080763482 -0.91187304 46 133 116
0.2852436 0.08032915 -0.91154099 42 133 117
0.28473708 0.080842428 -0.91175938 46 133 116
0.28607169 0.080246225 -0.91413039 54 133 117
0.28426829 0.081234008 -0.91392016 66 131 117
0.28481042 0.080938056 -0.91394842 61 132 117
0.28468555 0.0810344 -0.91294163 55 131 117
0.28328979 0.08177828 -0.91351098 69 132 116
0.28677511 0.07939934 -0.91242754 43 135 118
0.28657916 0.07969474 -0.91325766 48 134 118
0.28573754 0.079828821 -0.91102463 38 135 117
0.28644904 0.079545803 -0.91205376 42 134 118
0.28903827 0.078478985 -0.9125312 54 132 119
0.29095399 0.077412561 -0.91141087 57 132 121
0.28989935 0.078136601 -0.91319561 52 133 120
0.29094756 0.077639088 -0.91331595 51 134 120
0.29036164 0.077835642 -0.91255331 54 133 120
0.28825521 0.07902275 -0.91390914 50 133 118
0.28955415 0.07788416 -0.9107123 51 132 121
0.28853929 0.078278668 -0.9107157 44 134 120
0.28829956 0.078674279 -0.91210777 48 132 119
0.28786272 0.078597061 -0.91097271 40 134 119
0.28812054 0.078436524 -0.9106943 42 134 120
0.29166406 0.076958559 -0.91159576 56 131 120
0.29185352 0.076854452 -0.91180885 56 131 120
0.29144776 0.077219062 -0.91255385 53 133 120
0.29464281 0.075054005 -0.91314286 55 130 117
0.29455388 0.075086385 -0.9127081 60 129 117
0.29392242 0.075531825 -0.91250277 62 129 117
0.29461876 0.074893795 -0.91099077 77 127 117
0.29429966 0.075085923 -0.91075122 76 127 117
0.29359382 0.075672768 -0.91172659 65 129 117
0.29523909 0.074526362 -0.91077745 76 126 117
0.29538858 0.07458239 -0.91226566 58 128 117
0.28741503 0.074211381 -0.92577398 83 127 121
0.28819489 0.073387355 -0.925524 86 121 120
0.28746048 0.073505707 -0.92497122 86 125 122
0.28748351 0.073567614 -0.92506725 85 126 121
0.28932494 0.072994515 -0.92612201 88 117 118
0.29637471 0.072452135 -0.92263681 75 130 114
0.29593509 0.072684966 -0.92304146 78 130 115
0.29626086 0.072583579 -0.92264479 75 129 115
0.25942847 0.072565466 -0.88686103 122 128 115
0.26064715 0.074382231 -0.88689637 115 130 112
0.26065344 0.074404649 -0.88690305 115 129 113
0.26157013 0.074106202 -0.88623387 113 131 111
0.26124722 0.074111253 -0.88642061 114 130 112
0.26013434 0.072963014 -0.88647956 121 128 114
0.26069742 0.072584748 -0.8859095 119 129 114
0.26120254 0.072728984 -0.88565886 115 130 112
0.26157206 0.073692359 -0.88598859 113 131 112
0.26170346 0.074116416 -0.88615453 112 131 111
0.26130661 0.073466286 -0.88603038 114 130 112
0.27847522 0.074429415 -0.88657856 69 138 111
0.27886537 0.073074706 -0.88578582 53 142 110
0.27788728 0.074353203 -0.88615578 72 137 111
0.27896819 0.07268706 -0.8855505 48 143 110
0.27714488 0.076121211 -0.88705599 93 132 112
0.27540496 0.073984571 -0.88448155 95 131 110
0.27757528 0.072554231 -0.88468778 64 137 110
0.27597603 0.073311664 -0.88433206 85 132 110
0.27663428 0.073398367 -0.88475227 78 134 110
0.27739048 0.073168732 -0.88500881 69 137 110
0.27701706 0.072937481 -0.88464522 72 136 110
0.27622077 0.073461153 -0.88456887 83 133 110
0.28025708 0.073472396 -0.88703662 64 138 113
0.28033036 0.073247731 -0.88691837 62 139 113
0.25899193 0.07143537 -0.88692993 117 131 116
0.25829208 0.068487093 -0.88673335 104 134 117
0.25956398 0.071821138 -0.88642186 121 128 116
0.2593202 0.069071382 -0.88567656 123 130 119
0.2595371 0.070366509 -0.88590056 124 128 118
0.26203591 0.068798162 -0.88323396 112 130 112
0.2621451 0.069226503 -0.88336736 112 131 111
0.2622613 0.070567951 -0.88398522 113 132 112
0.2620514 0.068974301 -0.8833099 112 130 112
0.26080307 0.069703616 -0.88467115 124 130 116
0.26013216 0.071374759 -0.8857559 124 128 116
0.26014519 0.069701068 -0.88510895 127 129 118
0.26070967 0.071247645 -0.88532233 121 129 115
0.26258954 0.071431987 -0.88413882 110 132 111
0.26052594 0.071927324 -0.88570404 121 128 114
0.27831274 0.068970904 -0.88333935 47 141 111
0.27573788 0.071912982 -0.88331616 84 132 110
0.27906275 0.071544044 -0.88496333 45 142 111
0.27699041 0.071620986 -0.88386434 69 135 110
0.27923298 0.07111337 -0.88485301 42 143 111
0.27902025 0.071067326 -0.88471472 45 142 111
0.27862585 0.069037303 -0.88353896 46 142 112
0.27829084 0.072076045 -0.88479197 54 140 111
0.28308862 0.069629267 -0.88664341 89 127 122
0.2821621 0.07112769 -0.8868376 75 133 118
0.28193581 0.069659032 -0.88584727 78 131 119
0.28248766 0.069534272 -0.88617164 83 129 120
0.28178406 0.070368417 -0.88613981 73 132 118
0.28241891 0.070011683 -0.88639235 81 130 119
0.27953318 0.071937114 -0.88542461 46 142 111
0.27984774 0.071432009 -0.88538182 49 141 112
0.28021443 0.06840229 -0.88417792 51 140 114
0.27962074 0.069330588 -0.88424695 43 143 112
0.27969998 0.070082732 -0.8846519 45 142 112
0.28033727 0.069514811 -0.88478035 54 139 114
0.27957305 0.069085501 -0.88410139 42 143 113
0.28325769 0.068506487 -0.88613462 94 125 124
0.25801986 0.066194318 -0.88654941 96 135 117
0.25809085 0.0669927 -0.88663584 99 134 118
0.25755104 0.065927729 -0.88707453 86 136 117
0.25798878 0.066296086 -0.88661039 96 134 118
0.25874612 0.06549307 -0.88540465 108 132 119
0.25802791 0.064841293 -0.88618803 93 135 117
0.25765762 0.064960539 -0.8867228 88 135 117
0.25847018 0.064527757 -0.88550013 100 134 118
0.2583237 0.065005988 -0.88583553 99 133 118
0.25917262 0.067023799 -0.88526827 119 130 119
0.25997734 0.064711653 -0.88362306 120 131 118
0.26037028 0.06512703 -0.88341331 119 131 117
0.26065642 0.066480294 -0.88357443 120 130 116
0.26032048 0.067120679 -0.88403571 125 130 117
0.27914828 0.068200819 -0.8834542 38 144 112
0.28133753 0.065251172 -0.88384336 62 131 120
0.28058192 0.066166587 -0.88367194 53 136 117
0.28159446 0.064639226 -0.88380182 66 129 121
0.28109688 0.066321656 -0.88404554 58 134 118
0.27987054 0.066981539 -0.88349408 43 140 115
0.28239211 0.065748781 -0.88466716 76 129 121
0.28300947 0.066941611 -0.88543868 88 126 123
0.28198653 0.067027375 -0.88482928 73 130 120
0.28061435 0.067826144 -0.88423371 55 137 116
0.28310472 0.064971827 -0.88485909 84 125 123
0.28291339 0.064842589 -0.88469791 81 127 123
0.28613827 0.066034816 -0.88701344 97 124 119
0.28659722 0.065137103 -0.88697749 99 123 118
0.28400719 0.068078816 -0.88641918 93 125 122
0.283227 0.065537423 -0.88511783 87 125 124
0.28351018 0.066029854 -0.88544428 89 125 123
0.28508645 0.065447077 -0.88618302 95 123 121
0.28426155 0.066849023 -0.88615221 94 125 122
0.28437859 0.064843751 -0.88557065 90 124 121
0.2858727 0.064872392 -0.88645935 96 124 119
0.25773287 0.061806537 -0.88652927 78 136 113
0.25933716 0.06440179 -0.88430774 113 132 118
0.25917944 0.063754231 -0.88453418 109 133 118
0.25778475 0.061460391 -0.88646615 78 136 112
0.25791138 0.062151458 -0.88628089 82 135 114
0.25902572 0.064015366 -0.8847366 107 133 118
0.25901449 0.060985718 -0.88474762 93 132 113
0.25920227 0.063187465 -0.88450426 107 133 116
0.25898275 0.061373301 -0.88479543 95 133 113
0.25926492 0.063303761 -0.88441765 108 133 116
0.25910676 0.061358877 -0.88462186 97 132 114
0.2597245 0.061762881 -0.88376164 107 131 114
0.25982043 0.063349806 -0.8836661 115 131 117
0.26028654 0.061895046 -0.883232 106 131 113
0.28170693 0.063848577 -0.88370335 66 129 121
0.28191751 0.064098954 -0.88388038 69 129 121
0.28308374 0.063699909 -0.88454312 81 126 123
0.28248408 0.063213527 -0.88407946 73 127 122
0.28231546 0.061611831 -0.88369828 68 127 123
0.28229409 0.061652519 -0.88369191 68 127 123
0.28439403 0.061287526 -0.88487571 78 125 123
0.28707948 0.061299935 -0.88637024 69 127 120
0.28408819 0.061031636 -0.8846519 77 126 123
0.28631574 0.061749704 -0.88604069 76 126 120
0.28703383 0.060865827 -0.88625348 65 128 120
0.28435156 0.06070435 -0.88472921 72 126 123
0.2835539 0.061975304 -0.88451833 80 125 124
0.28519654 0.06254641 -0.88558662 87 124 121
0.28433898 0.062985227 -0.88515985 86 124 122
0.28387487 0.061746668 -0.88466656 81 125 123
0.28338334 0.06256371 -0.88452244 81 125 124
0.28454292 0.063294351 -0.88533473 87 125 121
0.28724828 0.060784195 -0.88635802 63 129 120
0.28795275 0.061338827 -0.88687897 63 129 119
0.28827462 0.060726114 -0.88693398 54 131 119
0.25892124 0.059664182 -0.88474637 88 132 111
0.25904307 0.059093345 -0.88449341 89 131 110
0.25950101 0.057165381 -0.88357401 93 129 109
0.25946555 0.057520431 -0.88367498 93 129 109
0.25844929 0.059450552 -0.88537538 81 134 110
0.2589896 0.058839288 -0.88453138 88 131 110
0.25792012 0.059555806 -0.88612896 73 135 110
0.25780949 0.057762712 -0.88581842 78 132 110
0.2574704 0.059132278 -0.88657576 71 134 110
0.25938413 0.0567737 -0.88363868 92 128 109
0.25831622 0.058790594 -0.88545209 78 133 110
0.25742066 0.058669213 -0.88652152 72 133 111
0.25825855 0.058747526 -0.88551217 78 133 110
0.25998154 0.060469415 -0.88347882 101 131 112
0.28240815 0.059911896 -0.88350993 61 127 124
0.28260827 0.059529092 -0.88357705 59 127 123
0.28313762 0.059060548 -0.88382566 58 128 123
0.28204226 0.059134986 -0.88321245 52 129 123
0.28658289 0.058482464 -0.88563663 46 132 120
0.28700769 0.059727598 -0.88605094 55 130 120
0.2868886 0.058083382 -0.88574082 42 132 120
0.28638452 0.058161117 -0.88548213 43 132 120
0.2847898 0.057858162 -0.88458139 41 132 120
0.28345233 0.060121842 -0.88414103 69 127 123
0.28438553 0.06020372 -0.8846702 67 127 123
0.28598022 0.059667189 -0.88548601 56 130 121
0.28467557 0.059110783 -0.88468856 54 130 121
0.28363326 0.060224343 -0.88425493 70 126 124
0.28436783 0.059791755 -0.88460654 63 128 122
0.28825918 0.059743296 -0.88676685 46 132 119
0.28779513 0.059740789 -0.88650054 50 131 119
0.25566947 0.054228473 -0.88652313 74 130 115
0.25766695 0.052832399 -0.88438398 94 126 114
0.25607073 0.054180257 -0.88620383 77 129 115
0.25736696 0.054153465 -0.88540757 88 126 114
0.25857368 0.052874941 -0.88386601 102 124 114
0.25694403 0.054699518 -0.88599032 83 127 114
0.25675702 0.055606 -0.88650817 77 129 113
0.25639284 0.055640824 -0.88680094 74 129 113
0.25788221 0.055670757 -0.88539338 85 128 112
0.25836802 0.054690413 -0.88473988 93 126 112
0.25933889 0.056338139 -0.88364357 93 128 109
0.25830936 0.054430176 -0.8847968 93 126 112
0.25921881 0.054254137 -0.88366985 101 125 112
0.25899944 0.055959199 -0.88403833 92 128 110
0.25870523 0.053889856 -0.88427931 99 124 113
0.25543344 0.051024225 -0.88522339 73 131 117
0.2564351 0.049765799 -0.88468736 82 128 118
0.25620291 0.051998127 -0.88513458 82 129 116
0.25611091 0.052202411 -0.88520885 82 129 116
0.25721422 0.050769385 -0.88447207 91 128 117
0.25867635 0.049434584 -0.88358116 103 127 118
0.25810742 0.050260838 -0.88396388 99 127 118
0.25908977 0.050881684 -0.88339657 106 125 116
0.25922787 0.051296458 -0.88332909 108 123 116
0.25832355 0.050959133 -0.88386011 101 125 117
0.25881761 0.049900878 -0.88352352 105 125 118
0.25849745 0.052457485 -0.88381159 101 124 114
0.25693533 0.046930797 -0.88410246 74 127 119
0.25724968 0.046243683 -0.88387239 73 127 119
0.2573387 0.046941932 -0.88392997 77 127 119
0.25682887 0.048584003 -0.8843354 83 128 119
0.25781235 0.047585748 -0.88377154 86 127 119
0.25708294 0.048425708 -0.88419974 85 128 119
0.25762716 0.048091158 -0.88390964 88 127 119
0.25818986 0.044544738 -0.88322693 71 126 119
0.28300351 0.080160648 -0.89916199 51 140 114
0.28266484 0.08122243 -0.90153903 52 139 112
0.28306812 0.080547854 -0.90040976 48 140 113
0.28232315 0.08080218 -0.89969784 57 138 113
0.28176957 0.081125714 -0.89954841 61 137 113
0.28046799 0.081813604 -0.8989917 74 135 112
0.28062126 0.081971243 -0.8997305 73 135 112
0.28092465 0.082398891 -0.90150356 73 133 112
0.28289369 0.081422433 -0.90254062 49 140 112
0.28108591 0.082012698 -0.90073717 68 136 112
0.28364569 0.080162421 -0.90064055 48 140 113
0.2832756 0.080997884 -0.90211189 46 140 112
0.28360787 0.080005147 -0.90008175 50 139 114
0.28373244 0.079908207 -0.90000951 51 140 114
0.28516006 0.079487652 -0.90154421 58 138 116
0.285891 0.0793029 -0.90245551 61 137 116
0.28482306 0.079608612 -0.90127099 56 138 115
0.28662696 0.07842613 -0.90096229 77 134 118
0.28526393 0.078630716 -0.89891428 76 132 119
0.28477821 0.079104163 -0.89942122 66 135 117
0.28648436 0.078583762 -0.90116864 74 133 119
0.28510755 0.079263963 -0.90056217 60 137 116
0.2850548 0.07929986 -0.90056932 60 138 116
0.28632471 0.078498401 -0.90059119 77 133 119
0.28846481 0.076758392 -0.89993912 100 126 119
0.28906232 0.076529428 -0.9006089 100 126 118
0.28978983 0.076173417 -0.901214 100 127 117
0.28727943 0.077375293 -0.89905727 100 126 122
0.28774935 0.078025095 -0.90214425 80 133 117
0.28748563 0.077609457 -0.90025449 93 128 121
0.28880435 0.076910496 -0.90112877 97 127 118
0.28931987 0.076721832 -0.90173167 97 126 118
0.29072571 0.075389132 -0.90109563 102 126 116
0.29023713 0.075350188 -0.89993149 102 126 116
0.29002449 0.075507343 -0.89990097 102 126 117
0.290503 0.07539016 -0.90061611 102 126 116
0.29030198 0.075735986 -0.90112644 101 126 116
0.29350331 0.073421463 -0.90074086 73 130 113
0.29338437 0.073694304 -0.90108162 77 129 113
0.29225796 0.073948026 -0.8999182 90 127 114
0.29221225 0.074471436 -0.90120941 91 126 114
0.2913425 0.075369082 -0.90222412 100 125 115
0.29264882 0.07399375 -0.90062565 86 127 114
0.29127556 0.075186081 -0.90161031 101 125 115
0.29153466 0.075106859 -0.90182459 98 125 115
0.29154092 0.074315175 -0.89966196 99 126 115
0.29375878 0.076196082 -0.91854352 66 127 116
0.29480124 0.075034291 -0.92039102 66 129 114
0.29464179 0.07552325 -0.91893274 54 128 116
0.29453266 0.07532651 -0.92012483 66 128 115
0.29397157 0.076027982 -0.91869611 64 127 116
0.29769287 0.072445504 -0.92078292 53 132 115
0.29569605 0.073787339 -0.92197853 76 129 114
0.29655087 0.073599122 -0.92098558 63 131 115
0.29674089 0.07327415 -0.92109835 63 131 115
0.29598197 0.073882379 -0.92146027 70 130 115
0.29644793 0.07299047 -0.92184883 71 130 115
0.2957291 0.074640773 -0.91959572 54 130 115
0.29667038 0.073999733 -0.91991067 53 132 116
0.29561654 0.07443659 -0.92071551 66 129 115
0.29506376 0.075151421 -0.91913605 54 128 115
0.28961143 0.06964992 -0.92186314 31 129 118
0.28810608 0.068741463 -0.92108989 15 130 119
0.28793275 0.070501007 -0.91944426 59 129 119
0.28765598 0.069183573 -0.92026764 26 131 119
0.28817278 0.070765369 -0.91946763 65 129 119
0.28840303 0.069350056 -0.92089128 27 130 118
0.28908175 0.070807882 -0.9203608 62 128 119
0.29057449 0.069407247 -0.92026192 73 125 119
0.29094487 0.068888381 -0.92008662 80 124 120
0.28749895 0.070531048 -0.9184612 71 130 120
0.29013646 0.070025675 -0.92048693 68 126 119
0.28940916 0.069016039 -0.91870427 81 125 120
0.28897643 0.069282368 -0.9185673 80 125 120
0.28938186 0.070848316 -0.92062974 61 128 119
0.29036522 0.070591748 -0.92131239 60 127 118
0.29349834 0.068683326 -0.92207265 93 124 121
0.29298893 0.069157474 -0.9221341 85 124 121
0.29150864 0.068449289 -0.92011881 87 123 121
0.29183161 0.06997665 -0.92200232 70 125 119
0.29855379 0.070524111 -0.92083639 57 129 114
0.29840758 0.069178179 -0.92171979 76 126 115
0.29810652 0.070594631 -0.92137891 65 129 114
0.29715985 0.071297459 -0.92224157 76 128 114
0.29817107 0.07090681 -0.92113429 60 130 115
0.29845303 0.069240533 -0.92165232 74 127 114
0.2998459 0.069309853 -0.92097139 54 129 114
0.29975456 0.069240801 -0.92106152 56 129 114
0.30114308 0.066713393 -0.92226487 58 129 111
0.30128348 0.067327529 -0.92168349 53 129 112
0.30077299 0.068344437 -0.92112917 53 128 114
0.26002663 0.076539636 -0.88830668 107 131 112
0.27608269 0.077771641 -0.88852882 95 134 110
0.27806863 0.0780802 -0.89040077 76 138 110
0.27827066 0.077365972 -0.88965517 75 137 112
0.27693808 0.076335631 -0.88719457 94 132 112
0.27632496 0.076843239 -0.88752532 95 133 111
0.27922851 0.076695636 -0.88921428 71 138 112
0.2782107 0.076350175 -0.88803679 83 134 112
0.27932075 0.077719048 -0.89090979 63 140 111
0.28085551 0.076291509 -0.890203 68 138 114
0.27936304 0.076842278 -0.8895573 69 138 112
0.25912711 0.072555974 -0.88718045 121 129 115
0.25855818 0.073409714 -0.88813549 114 131 114
0.25853923 0.07385619 -0.88835806 112 130 114
0.25885138 0.075069197 -0.88860106 108 131 113
0.25943649 0.075553305 -0.88824028 108 131 112
0.25885099 0.072295584 -0.88740176 119 130 115
0.25820097 0.072413899 -0.88829499 107 131 115
0.26039031 0.075505421 -0.88754731 109 131 111
0.26073864 0.075999357 -0.88758218 106 132 110
0.27770144 0.07616204 -0.88743144 88 133 112
0.27958843 0.075144179 -0.8879258 67 138 112
0.28140208 0.075881004 -0.89034539 65 137 115
0.28111103 0.076031886 -0.89016509 67 137 115
0.28251052 0.075495608 -0.89100045 69 137 117
0.28185821 0.074871361 -0.88982284 70 136 117
0.28169563 0.075912163 -0.89064306 66 138 115
0.28200802 0.074033946 -0.88915533 69 137 117
0.28109801 0.074115567 -0.88840508 68 137 115
0.2813479 0.073842078 -0.88836831 68 137 115
0.2817719 0.073150441 -0.8880856 66 137 115
0.2808302 0.074571572 -0.8886022 68 137 115
0.28275317 0.072286665 -0.8879652 76 135 117
0.28241503 0.072524637 -0.8879658 73 135 116
0.28458568 0.073250256 -0.89016455 87 132 118
0.2835544 0.074088164 -0.89043516 78 134 119
0.28344956 0.073790804 -0.89005476 78 134 119
0.28596449 0.072650746 -0.89035803 98 131 116
0.28385082 0.072507635 -0.88892889 85 133 118
0.28517768 0.073601596 -0.8909266 90 132 118
0.28711978 0.072354555 -0.89078611 107 129 115
0.25684166 0.068361975 -0.88885707 70 138 116
0.25665769 0.069637693 -0.88948756 71 137 116
0.25671831 0.068616211 -0.88911921 68 138 115
0.25733137 0.069555596 -0.8883968 87 136 116
0.25749502 0.069091074 -0.88801926 90 136 117
0.2566998 0.069764122 -0.88945448 72 137 115
0.25727677 0.070496112 -0.88880914 88 135 116
0.25853357 0.070511661 -0.88715106 111 133 116
0.25721511 0.072061293 -0.8894822 89 133 115
0.25802228 0.068931185 -0.88723081 100 135 117
0.25864279 0.072170414 -0.88763314 115 130 115
0.25829068 0.071965195 -0.88802177 108 131 115
0.28316373 0.071318693 -0.88767791 84 131 120
0.28488934 0.068662122 -0.8872382 91 125 120
0.2852428 0.068419755 -0.88732529 92 125 120
0.28357983 0.071222402 -0.88789517 85 130 120
0.28489301 0.069863833 -0.88793147 90 128 118
0.28331521 0.071780413 -0.88805974 83 132 119
0.28544903 0.069798917 -0.88825536 90 128 117
0.28616512 0.070386812 -0.88902521 96 128 116
0.28624335 0.071299955 -0.88957965 98 129 115
0.28499916 0.07166861 -0.88903296 92 130 117
0.28583324 0.069852754 -0.88852817 92 129 116
0.28694224 0.070827305 -0.88973927 102 128 115
0.28700548 0.071669884 -0.89024538 105 129 115
0.28701624 0.072238386 -0.8905676 107 129 115
0.28986278 0.068609081 -0.89045531 74 130 112
0.2891871 0.068550959 -0.88996983 80 129 113
0.28886324 0.068660572 -0.8898195 83 128 113
0.29076511 0.068450913 -0.89096236 66 131 111
0.28861913 0.070606105 -0.8908214 91 129 114
0.28868368 0.069655247 -0.89029521 87 129 114
0.28770247 0.068665043 -0.88904804 92 128 114
0.25658888 0.065435939 -0.88864321 60 139 115
0.25668943 0.065442652 -0.88842314 64 138 116
0.25683528 0.065449454 -0.88810366 68 138 116
0.25738952 0.067227997 -0.88767999 83 136 117
0.2568239 0.066636205 -0.88840699 69 138 115
0.25697646 0.067178227 -0.88831681 73 138 116
0.25724992 0.068353944 -0.88821179 80 137 116
0.25740471 0.067841008 -0.88782591 84 136 116
0.28616643 0.067660399 -0.88762093 95 124 118
0.2868337 0.065786973 -0.88736296 98 124 117
0.28643164 0.066442043 -0.88734668 97 124 118
0.28919807 0.066792011 -0.88929427 81 127 114
0.28839144 0.066555217 -0.88867044 87 127 115
0.28981504 0.067853719 -0.89009053 74 129 113
0.29048657 0.068156444 -0.89064813 68 130 111
0.28714943 0.068193562 -0.88843602 96 126 115
0.28974658 0.068076275 -0.89012563 74 130 112
0.29018536 0.065955356 -0.88955212 68 128 114
0.28796721 0.064775065 -0.88770694 91 124 117
0.28877234 0.064811394 -0.88820988 82 125 116
0.2900795 0.066399299 -0.88967693 70 128 114
0.29026991 0.067163333 -0.89011729 70 129 113
0.29001173 0.065715946 -0.88934517 70 127 114
0.25679788 0.064052626 -0.88814437 63 139 115
0.2568779 0.064142756 -0.88796592 66 139 115
0.25722858 0.062580235 -0.88724864 71 137 113
0.28946179 0.063891612 -0.88833791 70 127 115
0.28937769 0.0631276 -0.88810062 66 128 115
0.29018468 0.06360691 -0.88870615 60 129 115
0.28857163 0.063569285 -0.88772029 79 126 117
0.28835678 0.06192895 -0.88723481 65 129 118
0.28847167 0.061261866 -0.88715994 58 129 118
0.28764674 0.06371624 -0.8872056 88 125 117
0.28901485 0.059969619 -0.88721418 43 132 118
0.28901464 0.06013767 -0.88724476 45 132 118
0.28288451 0.08159966 -0.905469 46 135 113
0.2819531 0.082222402 -0.90598625 59 131 114
0.28217646 0.082062185 -0.90560186 57 132 113
0.28168294 0.082367726 -0.90529042 64 132 113
0.28317702 0.081409708 -0.90544087 42 137 112
0.28213286 0.082014464 -0.90332329 60 135 113
0.28166538 0.08233539 -0.90361261 66 133 112
0.28232756 0.081880979 -0.90328515 58 136 112
0.28433597 0.080334403 -0.90314132 48 139 113
0.2840831 0.080590606 -0.90423894 44 138 114
0.28416097 0.080553576 -0.90500265 43 138 115
0.28344941 0.081213877 -0.90621316 41 135 114
0.28337038 0.081165195 -0.903422 45 140 113
0.28388581 0.080833696 -0.90606904 40 136 114
0.28690761 0.078740656 -0.90428025 58 138 117
0.2867533 0.078862227 -0.9040575 60 137 117
0.28565514 0.079480872 -0.90655106 41 138 117
0.28571269 0.079446107 -0.90645921 42 138 117
0.28518409 0.079785213 -0.9035809 52 138 115
0.28505594 0.079857379 -0.90361458 51 138 115
0.28591835 0.079362392 -0.90300953 60 137 116
0.28494024 0.079972319 -0.90564448 44 136 116
0.28951731 0.076926209 -0.90288413 91 128 116
0.29022321 0.076430045 -0.90304947 96 127 116
0.28986388 0.076843582 -0.90386629 91 128 117
0.28967187 0.076784395 -0.90273464 92 129 116
0.28915414 0.077449061 -0.90430832 84 130 119
0.28893164 0.077530377 -0.90382636 83 131 118
0.28965074 0.077218063 -0.90509921 86 130 119
0.28846246 0.077894337 -0.90457773 75 133 118
0.28762683 0.078361109 -0.90387511 68 136 118
0.28913227 0.077441029 -0.90645134 70 134 119
0.28749645 0.078368694 -0.9048456 59 138 117
0.2874186 0.078474209 -0.9037534 66 136 118
0.28741014 0.078506596 -0.9032883 70 135 118
0.29165483 0.076173849 -0.90654683 92 126 120
0.29082265 0.076160707 -0.90404528 100 125 117
0.29124865 0.0761595 -0.90543729 97 125 119
0.29151651 0.075751252 -0.90391427 98 125 116
0.29151833 0.075872652 -0.9045822 97 125 117
0.29285085 0.075368375 -0.90499347 89 125 115
0.29407984 0.07507392 -0.90630573 80 127 114
0.29258746 0.07558541 -0.90555382 89 125 117
0.2936936 0.074383944 -0.90345585 77 129 112
0.29376251 0.074310772 -0.90336764 76 129 113
0.29473954 0.074762374 -0.90631038 76 127 114
0.29267246 0.075133592 -0.90382153 90 125 115
0.29406354 0.074551247 -0.90455973 77 128 113
0.29458061 0.074464336 -0.90519905 73 127 113
0.2948277 0.073548339 -0.90304136 63 130 111
0.29567423 0.073813662 -0.90548992 61 131 112
0.29496682 0.074662246 -0.90643209 73 127 113
0.28310716 0.081858903 -0.90971488 45 132 114
0.28139022 0.082660221 -0.90904802 54 130 113
0.2830472 0.081760839 -0.9086352 43 133 114
0.2829653 0.081896469 -0.90941983 46 132 115
0.28090966 0.083018892 -0.90998781 59 128 114
0.28243983 0.082206301 -0.90975702 50 130 115
0.28044942 0.083184741 -0.90935647 61 128 113
0.28175935 0.082357466 -0.90796542 51 132 112
0.28167659 0.08242508 -0.90687734 61 130 114
0.28120467 0.082712531 -0.90818971 58 129 114
0.2807501 0.083010986 -0.90780222 68 127 114
0.28449601 0.080489561 -0.90824807 38 135 116
0.28482491 0.080261238 -0.90880376 38 135 117
0.285164 0.080091804 -0.91005957 37 135 117
0.28328601 0.08174029 -0.90975982 45 132 115
0.2833527 0.081432804 -0.90768617 41 134 114
0.28337908 0.081639908 -0.90962142 43 132 114
0.28408208 0.080901086 -0.90873826 39 133 115
0.28702042 0.078782439 -0.90968418 36 137 118
0.28627089 0.079234697 -0.90899396 38 138 118
0.28710797 0.078670867 -0.90908998 36 138 118
0.28627035 0.07931976 -0.90996689 36 136 118
0.28621352 0.079113699 -0.90701371 41 140 117
0.28582117 0.079492457 -0.90833056 39 136 118
0.28690505 0.078614593 -0.90682781 42 141 118
0.28685781 0.078646041 -0.90680695 42 141 118
0.2887004 0.077946454 -0.90942043 55 133 119
0.2899608 0.077318855 -0.90875071 70 130 121
0.29055145 0.076868698 -0.90768248 83 128 121
0.28938249 0.077703513 -0.90952539 59 131 121
0.29014659 0.07703045 -0.90770501 80 128 121
0.29091504 0.076701678 -0.90755707 86 128 121
0.28869012 0.077683277 -0.90697634 63 134 119
0.28997168 0.077009581 -0.90671289 81 129 120
0.28862929 0.077734984 -0.90721536 61 135 119
0.28958914 0.077276498 -0.90754777 74 130 120
0.28881934 0.077717386 -0.90812188 62 132 119
0.28860369 0.077839255 -0.90826404 59 133 119
0.29169628 0.076267727 -0.90750319 87 127 120
0.29184657 0.076611541 -0.9099915 68 129 120
0.2917082 0.076487862 -0.90894705 77 129 120
0.29187992 0.076692589 -0.91049093 64 130 120
0.29480726 0.074747406 -0.90964395 80 126 117
0.29333016 0.07573048 -0.9104116 70 129 118
0.29349035 0.075621806 -0.91039062 71 129 118
0.29247147 0.075878374 -0.90704042 85 127 118
0.29353377 0.075539656 -0.90816915 74 128 116
0.29364148 0.075481229 -0.90806305 74 128 116
0.29461497 0.074930683 -0.90689874 76 127 114
0.29622871 0.074063249 -0.90753305 60 130 114
0.29624832 0.074057117 -0.90756142 60 130 114
0.29627764 0.073937327 -0.90723091 59 130 113
0.29646394 0.074012071 -0.91026396 62 129 116
0.29630059 0.074112296 -0.90927786 62 129 115
0.29603517 0.074254878 -0.90828484 64 129 114
0.29493043 0.074706711 -0.90840793 78 126 116
0.26344949 0.068466671 -0.88208693 97 134 106
0.26360491 0.069100164 -0.8822794 96 134 105
0.26282918 0.069291547 -0.88291347 105 132 109
0.26380375 0.069859214 -0.88254476 97 134 106
0.26376432 0.069036819 -0.88216817 96 134 105
0.26739842 0.069020897 -0.88105959 91 133 110
0.26559436 0.068515934 -0.8813836 93 133 108
0.26508698 0.069213353 -0.88180757 96 134 106
0.26670572 0.069567122 -0.88147748 95 133 109
0.2660566 0.06864208 -0.88129932 92 134 108
0.27057123 0.06985686 -0.88115501 98 128 114
0.27079898 0.068393022 -0.88047665 95 127 115
0.26893884 0.068612657 -0.88073921 92 130 112
0.271249 0.068433411 -0.88045514 96 126 116
0.27021325 0.068735018 -0.88068205 95 128 114
0.26920289 0.06905029 -0.88091278 93 130 112
0.26868579 0.069638379 -0.88121361 95 131 111
0.26919568 0.070330746 -0.88147038 97 130 112
0.27457997 0.07114049 -0.88254297 82 130 111
0.27389666 0.071520098 -0.88251847 88 130 111
0.27373937 0.071861468 -0.88262993 93 129 112
0.27238601 0.071724907 -0.88217181 97 128 113
0.27339277 0.071241528 -0.88224286 88 130 112
0.27215385 0.070105322 -0.88137424 93 128 114
0.27231929 0.069186434 -0.88100743 89 128 115
0.27329266 0.070163503 -0.88171989 82 130 113
0.27303761 0.068501309 -0.8809008 79 129 114
0.27381513 0.069517881 -0.88157612 73 131 112
0.27716127 0.069485828 -0.8829596 57 137 110
0.27575469 0.071551718 -0.88315624 81 131 110
0.2754764 0.070578739 -0.88256115 72 132 110
0.27686781 0.07004407 -0.88305902 63 135 110
0.27561069 0.070352212 -0.88252896 70 133 110
0.26117533 0.066332147 -0.88312095 115 131 114
0.26238599 0.067825958 -0.88264698 107 132 110
0.26150098 0.06704922 -0.88307232 114 130 113
0.2625058 0.06599693 -0.88207126 103 132 109
0.26359323 0.065595351 -0.88114959 95 132 105
0.26345077 0.065082379 -0.88110882 97 131 106
0.26328957 0.067351609 -0.88187629 97 134 106
0.26284379 0.066446722 -0.88194883 101 132 108
0.26231608 0.064887196 -0.88189524 104 131 110
0.26635522 0.066061623 -0.88040268 82 133 109
0.26654002 0.066823632 -0.88058895 87 132 110
0.26630351 0.06552574 -0.88024592 78 133 110
0.26683846 0.06691312 -0.88051963 84 133 110
0.26681992 0.065153509 -0.87995499 70 134 110
0.26499093 0.067410737 -0.88122606 92 133 107
0.26378921 0.068296172 -0.88182801 94 134 105
0.26692358 0.068040803 -0.8808443 90 133 110
0.26410872 0.065305941 -0.88088155 94 131 106
0.26617369 0.067454547 -0.8808949 91 132 108
0.27128333 0.067159772 -0.88003737 80 128 115
0.27101439 0.066768326 -0.87993354 77 129 115
0.26860389 0.065212637 -0.8796351 64 133 113
0.26998827 0.066139258 -0.87981558 72 130 114
0.26987439 0.065089852 -0.87948895 57 132 113
0.26812935 0.065783046 -0.87986088 69 134 112
0.27065444 0.068145774 -0.88040489 93 127 115
0.26889673 0.067974031 -0.88050395 88 131 112
0.2687279 0.066190012 -0.87994015 74 132 113
0.26983282 0.067937039 -0.88040954 89 129 114
0.26892722 0.06805107 -0.88052624 89 131 113
0.27150786 0.065985538 -0.87966001 63 131 114
0.27218768 0.065391846 -0.87969118 55 130 114
0.27199501 0.06776198 -0.88037688 88 126 116
0.27244872 0.066744737 -0.88020176 75 128 116
0.27461907 0.068048425 -0.88119519 60 133 112
0.27380225 0.067807794 -0.88089991 69 130 114
0.27496213 0.06755279 -0.88115525 55 132 112
0.27452031 0.066614985 -0.88077366 59 130 114
0.27491313 0.067838371 -0.88121992 56 134 111
0.27380902 0.066786967 -0.88062137 67 129 115
0.27913865 0.066778697 -0.88298613 36 142 114
0.27877167 0.066862799 -0.88281804 39 140 114
0.27862051 0.066571303 -0.88264287 39 139 115
0.27799135 0.067906298 -0.88273931 42 140 112
0.27842396 0.067633763 -0.88288206 41 140 113
0.27777046 0.066200376 -0.88206869 41 138 114
0.27779606 0.065731861 -0.8819415 40 137 115
0.27777931 0.064530469 -0.88160336 38 135 117
0.27604684 0.067616276 -0.88161105 47 136 111
0.27774972 0.064938888 -0.88170123 38 136 116
0.27844 0.064580239 -0.88193744 36 137 117
0.28037471 0.06501691 -0.88316095 52 134 118
0.26135224 0.061944336 -0.88243854 99 130 110
0.26066878 0.063325815 -0.88297224 111 130 114
0.26069507 0.063771948 -0.88296133 113 131 115
0.26223913 0.063600332 -0.8818121 101 131 109
0.26270893 0.064254373 -0.88147599 101 131 108
0.26151225 0.063705221 -0.88235354 106 131 112
0.26289532 0.061907392 -0.88112491 94 130 106
0.26344997 0.061596841 -0.88061064 90 130 104
0.26190105 0.060697887 -0.88183326 95 130 108
0.26313135 0.061829891 -0.88091272 92 130 106
0.26308006 0.062578954 -0.88104731 94 130 106
0.26347417 0.064170323 -0.88090092 95 131 106
0.2640442 0.060732652 -0.88018298 84 130 104
0.26477978 0.061287552 -0.87999821 76 132 105
0.26615059 0.061830118 -0.87956852 57 136 105
0.2660315 0.062477633 -0.87972635 65 134 107
0.26441649 0.063132897 -0.88036019 86 131 106
0.26391679 0.062913924 -0.88049835 89 131 105
0.26397121 0.06312865 -0.8805064 90 130 105
0.2640833 0.060992863 -0.88021135 85 130 105
0.26582262 0.064267918 -0.88003403 74 133 109
0.26933521 0.06436222 -0.87931585 50 134 112
0.27903289 0.064321496 -0.88217133 33 140 118
0.28105116 0.062575631 -0.88310456 57 129 122
0.28031701 0.063292533 -0.88278759 47 133 120
0.28092375 0.061525818 -0.88287628 52 130 123
0.28112859 0.062086694 -0.88307703 57 129 122
0.27986351 0.064381942 -0.88265568 42 137 119
0.27974406 0.064228244 -0.88256192 40 137 119
0.26022184 0.058336023 -0.88296944 97 129 110
0.26281893 0.060000885 -0.88095486 90 130 105
0.26297534 0.060244359 -0.88085222 90 129 105
0.26152036 0.058859594 -0.88192183 93 130 107
0.26134029 0.059778862 -0.88219661 95 130 108
0.26041082 0.059753809 -0.88299221 98 130 110
0.26020291 0.057319928 -0.88285345 95 129 108
0.2633841 0.059304144 -0.8804763 86 129 104
0.26262626 0.057859469 -0.8810097 85 129 105
0.26072258 0.057086248 -0.88242924 92 129 107
0.26306677 0.059891157 -0.88073289 89 129 105
0.26283649 0.057955537 -0.88085324 83 130 104
0.26144588 0.057533145 -0.88189417 90 129 106
0.2629908 0.059078965 -0.8807677 87 129 104
0.26403204 0.05695216 -0.88005942 71 131 104
0.26497585 0.057335075 -0.87972069 61 133 104
0.26401526 0.059163377 -0.88012731 80 130 104
0.26517075 0.05760695 -0.87965614 61 133 104
0.26575747 0.059660442 -0.87947798 52 137 103
0.26496428 0.060351562 -0.87979525 66 134 103
0.26584062 0.059524398 -0.87944341 50 137 102
0.26535562 0.059023101 -0.87961835 59 134 103
0.28138065 0.059967026 -0.88296908 56 127 123
0.2822715 0.057767976 -0.88319087 40 130 122
0.28123066 0.05963866 -0.8828634 53 129 123
0.281524 0.059430499 -0.8829869 53 127 123
0.28054008 0.059541836 -0.88246632 42 131 122
0.26296401 0.055068918 -0.88072526 78 129 105
0.26358566 0.056514844 -0.88024831 75 130 104
0.26270843 0.055035509 -0.88090688 81 129 105
0.26232749 0.054207176 -0.88119763 83 128 106
0.26201934 0.054616507 -0.88140494 89 126 108
0.26160821 0.05454307 -0.88169754 94 126 108
0.26010385 0.05433907 -0.88282984 103 124 111
0.2605285 0.053520754 -0.88248867 104 123 111
0.25986245 0.053353515 -0.88298887 108 122 112
0.26019344 0.055646338 -0.88279349 97 127 109
0.26219898 0.055742592 -0.8812775 86 128 106
0.26112786 0.0555024 -0.88208264 93 126 108
0.25977942 0.054940913 -0.8830899 102 126 110
0.26405874 0.054243922 -0.88010895 62 134 102
0.26380605 0.055541843 -0.88016486 69 132 103
0.26498041 0.054405283 -0.87977809 58 133 103
0.26407227 0.055046789 -0.88008338 66 132 103
0.26604402 0.05515546 -0.87936109 46 135 104
0.26493648 0.05613061 -0.87973487 60 133 104
0.26596373 0.054960851 -0.87939805 47 135 104
0.26529354 0.054836474 -0.87965077 55 134 104
0.25935823 0.048971828 -0.88316256 109 125 119
0.26152834 0.049848251 -0.88174772 90 126 112
0.26281941 0.051009897 -0.88088524 72 130 106
0.2631616 0.050455786 -0.8806842 70 129 106
0.26336005 0.048837587 -0.88060915 72 124 109
0.26268849 0.049353763 -0.88102192 78 125 110
0.26130253 0.048968285 -0.88192028 95 124 114
0.26151425 0.049905594 -0.88175488 90 126 112
0.26032215 0.05062031 -0.88257796 105 125 114
0.26104242 0.051371135 -0.88209558 95 127 111
0.26171952 0.051996201 -0.88163918 86 128 108
0.26118711 0.05028921 -0.88195449 93 128 112
0.25977367 0.051716179 -0.88300508 112 122 115
0.2598424 0.051928222 -0.88296407 110 122 114
0.26592958 0.049668327 -0.8796382 41 133 108
0.26407313 0.052160662 -0.880171 55 135 101
0.26448247 0.049086787 -0.88013428 59 127 108
0.2645418 0.05127934 -0.88004458 52 134 103
0.26433644 0.050700024 -0.88013089 56 132 105
0.26614156 0.050467115 -0.87953019 40 134 107
0.26638305 0.051397845 -0.87939519 40 134 106
0.26592875 0.050735209 -0.87959135 42 134 106
0.26570046 0.051764403 -0.87961763 44 136 104
0.25932044 0.048660435 -0.88315868 108 126 119
0.25973102 0.047294211 -0.8828178 101 125 119
0.25976434 0.045448884 -0.88267845 87 127 118
0.26047894 0.045326605 -0.88226265 81 127 116
0.26171502 0.045843817 -0.8816219 81 125 114
0.26355609 0.046779733 -0.88065237 80 122 111
0.2622087 0.045336127 -0.88143104 85 123 114
0.26356438 0.04765806 -0.88056833 75 123 110
0.26363602 0.048234336 -0.88048142 72 123 109
0.2612133 0.047179691 -0.88186991 83 125 114
0.2605868 0.046605084 -0.88223147 86 125 116
0.25985605 0.046910036 -0.88271928 97 126 118
0.26154006 0.048780374 -0.88176966 92 123 114
0.26195145 0.048483931 -0.88148659 85 124 113
0.26205638 0.047955498 -0.88138366 80 124 112
0.26030686 0.046869043 -0.88242835 91 126 117
0.26624572 0.048681598 -0.87957919 41 131 111
0.26600921 0.048369952 -0.87969643 44 130 110
0.26611346 0.047050603 -0.87981194 48 130 110
0.26600236 0.046803027 -0.87987471 50 130 109
0.2662864 0.047816299 -0.8796733 43 131 110
0.26507714 0.044938378 -0.88033348 73 125 113
0.26372829 0.045940913 -0.88065583 85 122 112
0.26548329 0.045216456 -0.88018364 66 127 111
0.26458731 0.046141274 -0.88037413 72 125 110
0.26541957 0.045036498 -0.88021952 68 126 112
0.25974947 0.044758603 -0.8826437 81 128 117
0.25972471 0.044319011 -0.88264495 79 131 116
0.26310769 0.043791752 -0.8810547 88 127 112
0.26302829 0.043674026 -0.88109374 87 128 112
0.26221728 0.044040103 -0.88145834 83 128 112
0.26034483 0.04485853 -0.8823635 83 127 117
0.26179942 0.044308681 -0.88166094 83 128 113
0.2619364 0.044777572 -0.88159853 86 124 115
0.26440609 0.043455757 -0.88059717 85 128 114
0.2643525 0.043153852 -0.88062519 86 128 114
0.26464802 0.044575125 -0.88047993 80 125 113
0.26523894 0.04453947 -0.88030005 72 127 112
0.26193607 0.038288057 -0.88123834 82 130 113
0.26139536 0.038129907 -0.88136929 81 129 113
0.26591036 0.034688715 -0.87990344 70 128 111
0.26547733 0.034814849 -0.8799842 78 126 112
0.26628336 0.036388218 -0.87997395 68 128 113
0.26571181 0.035279196 -0.87997043 77 126 113
0.27923197 0.080366641 -0.89468968 68 140 109
0.27663124 0.080464952 -0.89245391 94 137 108
0.25572824 0.076725014 -0.89294297 68 137 110
0.25558171 0.076916702 -0.89329588 66 137 110
0.25590047 0.076964527 -0.89275938 71 137 111
0.27881843 0.079140373 -0.89247113 70 140 110
0.27844372 0.079452723 -0.89256305 75 139 110
0.27864516 0.078362055 -0.89120108 71 139 111
0.27904427 0.07906352 -0.89257425 68 140 110
0.27939638 0.079357333 -0.89337587 66 140 110
0.27997947 0.079673648 -0.89456052 64 140 110
0.2804462 0.07883051 -0.89379632 63 139 112
0.28160483 0.07803154 -0.89384204 62 139 115
0.28014299 0.078049757 -0.89229852 63 140 112
0.27985159 0.079442248 -0.89407575 64 140 110
0.28085434 0.079087853 -0.89462125 63 140 113
0.28157514 0.078170776 -0.89401913 62 139 115
0.28023386 0.077673882 -0.89181656 63 139 113
0.28163844 0.077212349 -0.8925584 63 139 115
0.28154707 0.076927058 -0.89197671 64 138 115
0.28154099 0.076595925 -0.89141005 65 138 115
0.28044575 0.077094376 -0.89106596 64 138 113
0.28292686 0.076912083 -0.8933574 65 137 118
0.28296223 0.076990992 -0.89353848 64 138 118
0.28405732 0.076595202 -0.89398283 73 135 118
0.28336677 0.077403896 -0.89472449 64 138 118
0.28333983 0.0770014 -0.89392281 66 137 118
0.25575057 0.075442716 -0.89253122 67 137 112
0.25587699 0.072640173 -0.89149231 64 136 114
0.2827988 0.075240768 -0.89102608 71 135 118
0.28512019 0.075964257 -0.89423352 82 133 118
0.28543413 0.076153681 -0.89476395 83 133 118
0.28626546 0.075031735 -0.89432514 97 128 120
0.28472206 0.074978821 -0.8927123 85 132 119
0.28479162 0.075376309 -0.89323896 83 132 119
0.28642568 0.074463762 -0.89363945 100 128 119
0.28698531 0.072628133 -0.8910836 105 130 115
0.28640869 0.074353002 -0.89343405 100 128 119
0.2858578 0.073810197 -0.89195591 96 130 118
0.28591439 0.07429257 -0.89283293 96 129 119
0.28654152 0.073309436 -0.89179415 102 129 117
0.28692192 0.074150681 -0.89360768 105 127 119
0.28828651 0.072432674 -0.89215219 100 128 114
0.28826779 0.072453007 -0.89216232 100 129 115
0.28794631 0.073055804 -0.89283895 102 127 116
0.28885704 0.073179141 -0.89403164 97 127 116
0.28736177 0.073855221 -0.89356685 105 127 118
0.28786534 0.073081598 -0.89279544 102 128 116
0.28777084 0.07270997 -0.89206177 103 128 115
0.28951293 0.073047921 -0.89451653 93 126 115
0.2885209 0.073902532 -0.89489836 99 125 118
0.29013225 0.071860328 -0.89349455 88 127 114
0.29051968 0.070541203 -0.89263982 79 128 112
0.28959906 0.071223103 -0.8923198 88 128 113
0.28904745 0.071403809 -0.89190972 91 129 114
0.29090688 0.070872717 -0.89336705 79 127 113
0.28882205 0.071204901 -0.89148068 92 130 113
0.28867298 0.07153663 -0.89164096 95 129 114
0.29026645 0.071567401 -0.89335567 86 127 114
0.29118806 0.070523977 -0.89328438 75 129 112
0.29144776 0.070565164 -0.89352947 73 129 112
0.29132408 0.069871575 -0.89276671 70 130 112
0.28514528 0.0808172 -0.91506273 73 131 118
0.28856477 0.079024427 -0.91630477 70 130 117
0.28980196 0.078394637 -0.91679871 73 130 117
0.2906802 0.077928737 -0.91541404 57 134 118
0.28856766 0.078952491 -0.91513979 56 132 117
0.29064491 0.077988498 -0.91699624 74 130 117
0.29086593 0.077823609 -0.91487539 51 135 119
0.29087099 0.077870131 -0.91669798 71 131 118
0.29364288 0.076273575 -0.91798621 63 128 116
0.29376066 0.076186672 -0.91792625 63 128 116
0.29197472 0.077227317 -0.91651165 61 131 118
0.29152864 0.077499941 -0.91683841 68 131 117
0.29280144 0.076762706 -0.91741705 63 129 117
0.29172572 0.077364907 -0.91615164 58 132 118
0.29413602 0.07591486 -0.91791451 59 127 116
0.29431075 0.075730734 -0.91739726 56 128 116
0.29383475 0.076119736 -0.91780716 61 129 115
0.2858223 0.070893578 -0.917979 97 127 125
0.28630203 0.069328733 -0.91664308 80 127 123
0.28530541 0.070527844 -0.91743249 105 126 126
0.28659445 0.070688136 -0.91806775 80 129 122
0.28599843 0.069621041 -0.9168129 87 127 124
0.28617167 0.06930396 -0.91656506 82 127 123
0.28484312 0.06898579 -0.91828477 35 128 121
0.28605914 0.069113217 -0.91679823 70 127 122
0.28507185 0.0693077 -0.91783613 57 128 122
0.28513032 0.068585016 -0.91817808 19 130 118
0.28768075 0.069988817 -0.91808754 72 129 120
0.28763577 0.069188409 -0.9172731 68 127 120
0.28820512 0.068972848 -0.91756737 73 126 120
0.28758004 0.068704627 -0.91675562 66 127 120
0.28580308 0.067855984 -0.91809118 12 130 119
0.28673214 0.067422159 -0.91749996 26 130 120
0.28673425 0.068298146 -0.91650951 48 128 119
0.28736472 0.074599981 -0.92627311 83 128 121
0.28893474 0.073461853 -0.92688042 91 123 119
0 0 0 1 0 0 0 1 0 0 0 1 0 0 0 0 0 934 1 0 0
