ply
format ascii 1.0
comment PCL generated
element vertex 695
property float x
property float y
property float z
property uchar red
property uchar green
property uchar blue
element camera 1
property float view_px
property float view_py
property float view_pz
property float x_axisx
property float x_axisy
property float x_axisz
property float y_axisx
property float y_axisy
property float y_axisz
property float z_axisx
property float z_axisy
property float z_axisz
property float focal
property float scalex
property float scaley
property float centerx
property float centery
property int viewportx
property int viewporty
property float k1
property float k2
end_header
0.035028949 -0.11783714 -0.72680569 95 132 113
0.034742091 -0.1189451 -0.7262361 92 132 113
0.036145337 -0.11865378 -0.72671902 100 132 114
0.034654386 -0.11754461 -0.72684312 95 132 113
0.035990741 -0.11825505 -0.72686148 99 132 113
0.03633257 -0.12156858 -0.72547895 90 132 112
0.034479327 -0.12083255 -0.72529101 90 131 113
0.036405317 -0.11931348 -0.72648484 100 132 114
0.035427295 -0.11981601 -0.72600436 95 131 114
0.03991713 -0.12095462 -0.72688663 91 132 112
0.038419042 -0.11982726 -0.72687584 100 131 113
0.038579922 -0.12019074 -0.72677803 97 131 114
0.037262443 -0.12149289 -0.72578895 91 133 111
0.060405146 -0.091772176 -0.73941022 109 127 112
0.063034557 -0.091356933 -0.73960632 103 134 113
0.061480917 -0.091621205 -0.73953503 108 129 112
0.063387722 -0.091488004 -0.74009454 103 133 110
0.061768532 -0.091635063 -0.7397033 108 129 112
0.062006738 -0.091365688 -0.73915243 104 132 114
0.061385117 -0.091309801 -0.73875529 102 131 114
0.066893891 -0.091311641 -0.74091929 111 138 113
0.066886678 -0.091350749 -0.74100631 110 138 112
0.06817691 -0.091101035 -0.7407921 113 141 117
0.068048455 -0.091082208 -0.74071401 113 141 117
0.067035832 -0.091425724 -0.74121773 110 138 112
0.066288188 -0.090751052 -0.73942536 108 142 118
0.066821925 -0.090564176 -0.73915416 110 145 120
0.065234914 -0.091328949 -0.74047691 106 136 110
0.066137291 -0.090924248 -0.73979926 109 141 116
0.071375594 -0.09121716 -0.74255145 109 136 116
0.069991797 -0.090994693 -0.74138272 111 140 118
0.071345463 -0.091090254 -0.74224883 109 137 117
0.068409868 -0.091036946 -0.74072057 114 142 117
0.069305539 -0.091387801 -0.74194795 112 138 114
0.074318402 -0.090191498 -0.74177843 109 143 125
0.074253514 -0.090378962 -0.74218577 101 142 122
0.073731184 -0.090500772 -0.74216473 105 141 121
0.055229142 -0.095646895 -0.74212378 86 137 107
0.055015501 -0.095389411 -0.74179882 85 136 108
0.058853734 -0.091861486 -0.73881841 94 130 113
0.060533013 -0.091989145 -0.73973596 111 127 112
0.060233131 -0.091950208 -0.73955458 108 128 112
0.05815696 -0.092956051 -0.73977017 89 135 113
0.059656177 -0.093442813 -0.7409144 101 135 112
0.058263712 -0.092020325 -0.73875564 89 132 113
0.059195179 -0.093616694 -0.74092799 97 136 112
0.059017017 -0.094848648 -0.74241489 100 138 110
0.058444574 -0.093784563 -0.74086761 93 136 112
0.057873636 -0.095168211 -0.74246788 94 138 109
0.057107724 -0.095404416 -0.74253178 90 137 108
0.057192188 -0.094916761 -0.74193126 89 137 109
0.057369087 -0.093842804 -0.74060583 87 136 112
0.059035972 -0.094067968 -0.74141711 97 137 112
0.062935196 -0.092917956 -0.74174035 113 130 110
0.060639758 -0.094221711 -0.74220288 109 136 111
0.060999066 -0.091967225 -0.73990613 112 127 111
0.062008008 -0.093393162 -0.74187136 111 133 110
0.060856044 -0.09438356 -0.74246812 109 137 111
0.060862318 -0.093429819 -0.74143606 110 133 111
0.061995693 -0.092243306 -0.74062508 112 128 110
0.062679969 -0.092507884 -0.74119061 113 129 110
0.065943718 -0.092162617 -0.74210507 110 133 108
0.065436669 -0.092735521 -0.74249959 114 132 109
0.067061044 -0.091875292 -0.74214399 110 134 109
0.042268723 -0.096119873 -0.738819 94 131 107
0.044543818 -0.098073751 -0.73887348 102 129 105
0.045326389 -0.098438486 -0.73898172 103 129 105
0.045379478 -0.098825909 -0.73888183 105 128 105
0.047391903 -0.098545253 -0.73951715 97 132 105
0.045206308 -0.097481832 -0.73923147 94 131 104
0.0485759 -0.098684698 -0.73976493 96 132 106
0.050387934 -0.098063096 -0.74023581 94 133 107
0.052005645 -0.09832523 -0.74065948 93 134 107
0.052516729 -0.098306984 -0.74080628 92 135 107
0.051580835 -0.098166883 -0.7405597 93 134 107
0.052699469 -0.099512734 -0.74070358 96 135 108
0.051575262 -0.098282672 -0.74054325 94 133 108
0.049702756 -0.098621033 -0.73998368 97 132 106
0.04900685 -0.098920025 -0.7397939 97 132 106
0.050645482 -0.097298093 -0.74046272 90 133 107
0.048924681 -0.099316791 -0.73968405 100 132 106
0.056414139 -0.09723369 -0.74232107 95 135 108
0.055911183 -0.097550675 -0.74205297 96 134 108
0.056067154 -0.096164592 -0.74241638 89 137 107
0.055796113 -0.098419644 -0.74181843 101 132 108
0.056011073 -0.095949568 -0.74244106 88 137 108
0.054602034 -0.097418666 -0.74156493 94 133 108
0.05337147 -0.097486459 -0.74116719 91 134 108
0.052937891 -0.099149346 -0.74082208 95 135 108
0.053167466 -0.098890036 -0.74092531 95 134 108
0.053297516 -0.098890632 -0.74096489 95 135 107
0.052952014 -0.099465847 -0.74078584 97 135 108
0.052876089 -0.098105937 -0.74093676 91 135 107
0.057698794 -0.098745808 -0.74235582 100 134 108
0.057595268 -0.098401241 -0.7424047 98 134 108
0.056714911 -0.099569991 -0.74192065 107 131 109
0.047418203 -0.099769078 -0.73914224 107 129 106
0.047809519 -0.099746607 -0.739259 105 130 106
0.048409395 -0.10120896 -0.73879313 113 130 108
0.049532875 -0.10176081 -0.73887086 112 130 109
0.04984716 -0.10146356 -0.73908848 109 131 109
0.052573964 -0.10336481 -0.73904657 109 132 112
0.051850922 -0.1003885 -0.74011743 100 134 108
0.052308932 -0.10072933 -0.74010086 100 134 109
0.052512504 -0.10177243 -0.73971146 104 133 110
0.049597993 -0.099768199 -0.73974645 101 132 107
0.051056832 -0.10054675 -0.73982519 102 133 108
0.051350497 -0.10009416 -0.74010211 100 133 108
0.055295859 -0.10183237 -0.74052572 110 132 110
0.05534235 -0.10268006 -0.74017233 112 131 111
0.054474346 -0.1026778 -0.73991275 111 131 111
0.054825865 -0.10230382 -0.74018031 111 131 111
0.055438485 -0.10239145 -0.74032623 112 131 111
0.055458367 -0.10148129 -0.74072659 109 131 110
0.053876761 -0.099788196 -0.74097288 100 134 108
0.054308493 -0.10134649 -0.74043691 107 132 110
0.053392511 -0.10249598 -0.73966497 108 132 111
0.052795913 -0.10296504 -0.73928195 108 132 111
0.053555846 -0.099942207 -0.74080896 100 134 108
0.054120112 -0.099820614 -0.74103326 101 133 109
0.060333986 -0.10149661 -0.74206406 92 135 109
0.057965338 -0.100004 -0.74207121 103 133 108
0.05853213 -0.099974997 -0.7422297 101 133 108
0.059133016 -0.10052168 -0.74215788 98 134 108
0.059508301 -0.10179178 -0.74172705 96 134 109
0.057837207 -0.10313514 -0.74069548 107 132 111
0.058231667 -0.10216488 -0.74122488 103 132 110
0.057809308 -0.10271667 -0.7408691 107 131 111
0.058090623 -0.10137653 -0.74152756 102 133 109
0.058314692 -0.10177365 -0.74141735 102 132 109
0.058112837 -0.101558 -0.74145502 102 132 109
0.061581407 -0.10284053 -0.7418983 91 135 108
0.061579399 -0.10295588 -0.74184966 91 135 108
0.061601795 -0.1018437 -0.74231988 91 135 108
0.061338164 -0.10308179 -0.74171835 91 134 109
0.061789233 -0.10348269 -0.74169898 91 134 109
0.052066572 -0.10362995 -0.73878425 113 131 112
0.05646221 -0.1042456 -0.73984998 113 131 112
0.055525031 -0.10540326 -0.73909581 108 132 111
0.056357041 -0.1043874 -0.73976058 112 131 111
0.055882603 -0.10415861 -0.73970878 113 131 112
0.056634646 -0.10692594 -0.73881674 105 132 112
0.053373441 -0.10444797 -0.73882776 109 132 112
0.052993298 -0.10394282 -0.73892361 109 132 112
0.057739917 -0.10711975 -0.73910266 103 132 111
0.058713809 -0.10589257 -0.73992097 106 131 111
0.058757465 -0.10650321 -0.73968798 103 132 110
0.058250975 -0.10675857 -0.73941743 104 132 111
0.058981813 -0.10629495 -0.73984635 104 131 110
0.058442734 -0.10646366 -0.73960018 104 132 110
0.060405746 -0.10700212 -0.74001455 99 132 109
0.059164934 -0.10589954 -0.74005938 104 131 110
0.05980676 -0.10406065 -0.74088305 96 134 110
0.059775997 -0.10428408 -0.74079603 97 133 110
0.057692774 -0.10422531 -0.74024117 110 132 111
0.062885523 -0.10519627 -0.74145091 95 133 109
0.062888175 -0.1064717 -0.74098051 97 133 109
0.064018913 -0.10531085 -0.74175882 95 133 108
0.062275052 -0.1057177 -0.74106961 96 133 109
0.063104376 -0.10609286 -0.74118727 96 134 108
0.064171806 -0.1048386 -0.74198049 94 134 108
0.062581725 -0.10417932 -0.74171108 93 134 109
0.063218348 -0.10426571 -0.74188882 93 134 109
0.060619593 -0.10609258 -0.74039704 95 133 109
0.062599629 -0.10359693 -0.7419216 91 135 108
0.060686439 -0.10614339 -0.74040103 96 133 109
0.061879825 -0.1049444 -0.74121267 94 134 109
0.066465512 -0.10657642 -0.74216837 92 134 108
0.065592833 -0.10470367 -0.74253803 91 135 108
0.06515485 -0.10559259 -0.74204791 93 134 109
0.06744229 -0.10671365 -0.74247831 90 134 109
0.066927902 -0.10719881 -0.74210918 92 134 108
0.064455032 -0.10643944 -0.74147671 97 133 108
0.057951674 -0.1074419 -0.73904234 102 133 111
0.059102066 -0.10905986 -0.7387867 100 133 111
0.059482768 -0.10902865 -0.73892444 99 133 111
0.060429871 -0.10877204 -0.7393375 98 132 110
0.058929153 -0.10811217 -0.73910159 100 133 110
0.061240643 -0.1109377 -0.73876804 98 132 112
0.062510923 -0.10966584 -0.73970914 98 131 111
0.060691759 -0.1103619 -0.73880255 98 132 111
0.062271878 -0.10934376 -0.73975229 98 132 110
0.061294802 -0.11007066 -0.7391268 98 132 111
0.062746473 -0.11079701 -0.73934716 97 132 112
0.064420052 -0.10918319 -0.7404806 98 132 110
0.06391333 -0.10770523 -0.74084622 98 132 109
0.064258195 -0.10745588 -0.74104083 99 132 109
0.063766554 -0.10983863 -0.7400471 98 131 111
0.061598103 -0.10779375 -0.74009949 99 132 109
0.06393002 -0.10749624 -0.74092519 99 132 109
0.067138001 -0.1087651 -0.74163032 91 133 110
0.067021795 -0.10927518 -0.7414093 91 133 110
0.065739736 -0.11034221 -0.74055785 94 132 111
0.066437572 -0.11067367 -0.74070364 92 132 111
0.067471623 -0.11017995 -0.74126256 89 133 111
0.064569257 -0.10958101 -0.7403931 97 131 110
0.066996939 -0.10757925 -0.74199665 92 134 108
0.067477442 -0.10817486 -0.74196357 91 133 109
0.064831242 -0.10923333 -0.74061269 97 131 110
0.06708923 -0.10820302 -0.74181032 91 133 109
0.064791389 -0.11095767 -0.73998874 97 131 112
0.062905684 -0.11203356 -0.73891592 95 133 112
0.063895948 -0.11217965 -0.73920268 94 131 112
0.05550513 -0.091502838 -0.73660201 86 135 114
0.05644365 -0.091597162 -0.73686558 86 134 115
0.055357911 -0.091594495 -0.73684919 83 135 114
0.059362564 -0.091552712 -0.73832881 97 130 113
0.059214596 -0.091236047 -0.73737967 105 130 115
0.058848072 -0.091282874 -0.7372942 103 131 115
0.057421122 -0.091188975 -0.73621279 102 133 117
0.059932113 -0.0913454 -0.73809183 105 129 114
0.058344882 -0.090728194 -0.73544049 112 135 120
0.059568774 -0.090405874 -0.73519218 115 140 122
0.059471976 -0.090540349 -0.73552507 114 138 121
0.059552096 -0.090967663 -0.73679769 109 133 118
0.059937801 -0.090630136 -0.73604125 113 137 120
0.061840083 -0.090831719 -0.73764646 113 134 119
0.062098868 -0.091076612 -0.73848194 102 134 116
0.061506178 -0.090805054 -0.73739326 114 134 119
0.061887607 -0.090522319 -0.7367841 119 136 123
0.056919429 -0.092262939 -0.73839921 80 134 114
0.037100859 -0.09858644 -0.73673737 99 132 110
0.034736928 -0.099409953 -0.73591048 99 132 110
0.036117513 -0.098888986 -0.73640376 99 132 110
0.036735576 -0.098864101 -0.73657048 99 132 110
0.039740093 -0.099549852 -0.73715448 114 129 111
0.040964473 -0.096619368 -0.73831242 101 130 109
0.040527485 -0.097571276 -0.73792642 105 130 110
0.040881176 -0.097058743 -0.73816413 104 130 109
0.039033774 -0.099535532 -0.7369805 111 130 111
0.039944954 -0.097077899 -0.73792255 99 131 109
0.038799923 -0.096420594 -0.73777908 93 133 108
0.040017765 -0.095942743 -0.73824692 95 132 107
0.038580284 -0.097279146 -0.73749417 97 131 109
0.038131133 -0.09738905 -0.73733884 96 132 109
0.039047547 -0.096380413 -0.73785943 94 132 108
0.041273527 -0.095960252 -0.73858678 97 130 107
0.043156594 -0.098812886 -0.73827392 111 127 107
0.042136483 -0.099440783 -0.73781353 117 127 110
0.042263437 -0.097442292 -0.73842734 105 129 108
0.043674506 -0.098642595 -0.73846459 110 127 107
0.04145043 -0.096886761 -0.73836654 102 130 108
0.041805346 -0.099595137 -0.73767841 118 128 111
0.033057582 -0.10033528 -0.73507547 98 133 110
0.032972708 -0.10047521 -0.73498702 98 133 110
0.034954831 -0.10078795 -0.73534954 102 132 110
0.036889717 -0.10034099 -0.73606712 104 131 110
0.036956556 -0.10248084 -0.73506224 106 131 109
0.035965886 -0.10120974 -0.73541141 104 132 109
0.034413807 -0.10103435 -0.73509085 101 133 109
0.036932752 -0.10018758 -0.73615164 104 131 111
0.03323346 -0.10086815 -0.73486334 99 134 109
0.035489731 -0.10011102 -0.7358126 102 132 110
0.037481103 -0.10325833 -0.73483032 109 131 109
0.039566439 -0.10252656 -0.73573899 124 130 114
0.037264373 -0.1013071 -0.73570436 106 131 110
0.038152568 -0.10250168 -0.73537183 114 131 111
0.037965462 -0.10059465 -0.73623276 110 130 112
0.039487954 -0.10245942 -0.73575008 123 129 114
0.040430166 -0.10011199 -0.73707902 119 129 112
0.039653283 -0.09986414 -0.73699766 115 129 112
0.039496239 -0.10065225 -0.73659414 117 129 113
0.039625343 -0.10020544 -0.73683298 116 129 112
0.040840916 -0.10029054 -0.73710018 121 129 113
0.039015517 -0.099930145 -0.73680639 113 129 112
0.044614159 -0.10261352 -0.73700333 132 128 112
0.044448283 -0.10262797 -0.73695415 131 128 112
0.043185618 -0.10269067 -0.73660308 131 128 114
0.042781513 -0.10191086 -0.73687494 126 127 111
0.044139348 -0.10141685 -0.73745751 124 126 110
0.043227106 -0.10233419 -0.73678488 129 127 113
0.042442515 -0.10138973 -0.7370261 124 127 111
0.043751072 -0.10009237 -0.73798227 117 126 108
0.041859522 -0.10090771 -0.73708951 123 127 112
0.043168802 -0.10036284 -0.73769844 119 127 109
0.041791275 -0.10013688 -0.73742682 120 128 111
0.042876493 -0.10140883 -0.73713571 124 127 111
0.048321497 -0.10272033 -0.73810858 126 126 111
0.04759527 -0.10162294 -0.73838729 120 127 109
0.046181679 -0.1006548 -0.7384178 118 126 108
0.044930905 -0.10229188 -0.73723894 130 127 112
0.04503157 -0.10199215 -0.73741519 128 127 111
0.048597179 -0.10332201 -0.73792017 130 126 112
0.044978533 -0.099881373 -0.7384122 115 126 106
0.046752386 -0.1032344 -0.73737043 133 127 113
0.046826463 -0.10211581 -0.73793161 126 126 110
0.049987577 -0.10310533 -0.73841363 121 129 111
0.049560063 -0.10285026 -0.73840272 121 129 111
0.040851712 -0.10407981 -0.73531717 133 128 116
0.040782955 -0.10435703 -0.73515427 132 129 115
0.04303645 -0.10553483 -0.73514187 131 130 115
0.043637183 -0.10454368 -0.73579568 134 129 114
0.044632107 -0.10563406 -0.73551261 130 131 114
0.044726212 -0.10694294 -0.73488295 125 134 113
0.043941576 -0.10510677 -0.73559433 132 131 114
0.044475634 -0.10582872 -0.73537403 129 132 114
0.041994382 -0.10478566 -0.73524213 134 128 115
0.043978285 -0.10378167 -0.73626965 136 129 114
0.041570719 -0.1047966 -0.7351287 133 129 115
0.045228127 -0.10570294 -0.73565823 129 131 114
0.046459373 -0.10558771 -0.73613286 125 131 113
0.047213975 -0.10635483 -0.73600489 119 132 112
0.046808198 -0.10626692 -0.73591143 122 131 113
0.046418853 -0.10559505 -0.73611552 125 131 113
0.04566355 -0.10652083 -0.7353968 124 132 113
0.048417971 -0.10435461 -0.73736519 128 128 112
0.046696201 -0.10366011 -0.73714769 134 128 113
0.045815341 -0.10365766 -0.7368663 135 128 113
0.046700515 -0.10426661 -0.7368567 131 128 113
0.048147358 -0.1066004 -0.73619574 115 132 112
0.048798088 -0.10503276 -0.73716021 123 129 112
0.052418698 -0.10485248 -0.73836732 111 131 113
0.049898323 -0.10377301 -0.73809922 125 127 113
0.050124645 -0.10478021 -0.73773742 123 128 112
0.050932482 -0.10539258 -0.73770982 119 129 113
0.05173628 -0.10592382 -0.73771542 114 130 112
0.051691223 -0.10684795 -0.73728359 112 131 112
0.049635313 -0.1070835 -0.73645997 111 133 112
0.05059807 -0.10717446 -0.73674864 111 132 113
0.051106893 -0.10686217 -0.73707491 112 131 112
0.049418543 -0.10464972 -0.73755836 124 128 112
0.050997559 -0.10649803 -0.73721272 115 131 112
0.048867781 -0.10457816 -0.73740268 125 128 112
0.05275818 -0.10667436 -0.73769253 108 132 112
0.055352435 -0.10726023 -0.73827422 105 133 112
0.053156942 -0.10697641 -0.73769188 108 132 113
0.052992646 -0.1054025 -0.73830825 108 132 112
0.054837123 -0.10602679 -0.73863351 106 132 112
0.055673931 -0.10657983 -0.73866457 105 132 112
0.048056748 -0.10764316 -0.73566067 112 133 112
0.046239663 -0.10751718 -0.73509949 119 134 113
0.047644384 -0.10801932 -0.73535782 112 134 112
0.047741715 -0.10940137 -0.73479146 108 134 112
0.049935512 -0.11066376 -0.73498511 101 134 111
0.050920803 -0.10963916 -0.73576152 103 133 112
0.050006226 -0.1090062 -0.73572791 106 133 112
0.051085256 -0.1107923 -0.73531687 99 134 112
0.049210455 -0.1078857 -0.73594576 109 133 112
0.050911848 -0.10810616 -0.73643517 107 132 112
0.051770948 -0.10760901 -0.73695165 108 132 112
0.052294914 -0.1075686 -0.73715049 108 132 113
0.05182378 -0.10962066 -0.73608053 103 132 112
0.052577723 -0.10788697 -0.7371074 107 132 113
0.050099954 -0.10746617 -0.73643774 109 132 112
0.05560239 -0.1088222 -0.73767656 101 133 111
0.056273397 -0.11027279 -0.73730981 97 134 111
0.056159645 -0.10967397 -0.73751807 99 133 111
0.055649351 -0.10968755 -0.73733467 99 133 111
0.056449722 -0.10889455 -0.73794174 100 134 111
0.055982612 -0.1090279 -0.73772383 100 134 111
0.053905219 -0.10754767 -0.73768646 107 132 112
0.055627029 -0.10836835 -0.73787493 102 133 111
0.054939352 -0.10886658 -0.73743445 102 133 112
0.055227134 -0.10796008 -0.73792738 104 133 111
0.055695463 -0.10831452 -0.73792058 102 133 111
0.053053472 -0.10789923 -0.73725826 107 132 113
0.058801986 -0.10926102 -0.73860729 100 133 112
0.059972312 -0.11107428 -0.73827022 99 133 112
0.05699667 -0.10977749 -0.73776716 99 134 111
0.057282854 -0.10955255 -0.73796028 99 133 111
0.05705208 -0.11116169 -0.73721349 96 135 111
0.056707446 -0.10859767 -0.73815453 101 133 111
0.057438873 -0.10918953 -0.73816508 100 134 111
0.060782339 -0.11123771 -0.73848641 98 133 112
0.050787911 -0.11175821 -0.73479557 97 134 111
0.051327385 -0.11171874 -0.73499489 97 134 112
0.053197369 -0.1136109 -0.73481578 92 134 112
0.052815571 -0.11243632 -0.73518717 95 133 112
0.05351812 -0.11348432 -0.73498929 92 134 112
0.055572387 -0.11312696 -0.73588079 91 134 112
0.056334585 -0.11336012 -0.73604941 90 134 111
0.055592675 -0.11312798 -0.73588747 91 134 112
0.055344116 -0.11354648 -0.73562688 90 134 112
0.054926977 -0.1122031 -0.73604012 94 134 112
0.055936053 -0.11230345 -0.73634988 93 134 111
0.059411757 -0.11255625 -0.73745823 94 133 111
0.058938708 -0.11313502 -0.7370519 92 134 111
0.058257006 -0.11185283 -0.73734754 95 134 112
0.057570983 -0.1126181 -0.73678964 92 134 111
0.05884641 -0.11269449 -0.7372036 93 134 112
0.057323411 -0.11181284 -0.7370379 94 134 111
0.05979313 -0.11175452 -0.73792517 96 134 112
0.03184643 -0.10806464 -0.73085272 96 132 112
0.031573031 -0.10873967 -0.73041916 92 133 112
0.031749804 -0.10892453 -0.73036003 93 133 112
0.031333208 -0.10928947 -0.7300638 90 134 112
0.030414041 -0.10825901 -0.73040992 88 133 112
0.031905413 -0.11016172 -0.72972304 89 134 112
0.031494699 -0.11062077 -0.72937888 86 135 113
0.031589601 -0.11009283 -0.72968727 88 134 112
0.033265799 -0.11129794 -0.72942615 92 135 112
0.036171645 -0.11089213 -0.73051536 105 131 114
0.035771474 -0.11093685 -0.73037142 103 132 113
0.033290569 -0.10883603 -0.73077857 100 132 113
0.034810256 -0.10970229 -0.73075837 103 132 113
0.033093419 -0.11320297 -0.72846317 91 134 112
0.031834781 -0.11143655 -0.72902173 85 136 112
0.032155275 -0.11382332 -0.72794724 87 134 111
0.031895779 -0.11361793 -0.72798598 86 135 112
0.036873616 -0.1122491 -0.7300269 104 132 113
0.035508942 -0.11494145 -0.72829175 95 134 111
0.036442827 -0.11309476 -0.72948134 101 132 113
0.036335539 -0.1137412 -0.7291252 99 133 112
0.035852928 -0.11403475 -0.72884429 98 133 112
0.036968071 -0.11186311 -0.73024791 106 131 114
0.034382202 -0.11304282 -0.72891766 96 133 112
0.033882961 -0.11335556 -0.72861809 94 133 112
0.033483576 -0.11472116 -0.72784162 93 133 112
0.033245046 -0.113825 -0.72820169 91 134 112
0.036043741 -0.11216511 -0.72983611 102 131 114
0.034191672 -0.11326221 -0.72875518 95 133 112
0.033434391 -0.11492126 -0.72773057 91 133 111
0.040906627 -0.11455961 -0.73015213 111 134 110
0.040814403 -0.11308517 -0.73084074 115 132 112
0.039990976 -0.11353251 -0.73036832 110 133 112
0.039753143 -0.11364935 -0.73023856 109 132 112
0.038305387 -0.11185155 -0.73066586 110 131 114
0.037860747 -0.1137401 -0.72958326 103 134 112
0.038830128 -0.11378478 -0.72987711 106 134 111
0.037696835 -0.11432499 -0.72923416 101 134 112
0.040048987 -0.11429241 -0.73001832 109 133 111
0.038092449 -0.11269443 -0.73018742 106 132 113
0.039452944 -0.11372621 -0.73010993 108 132 112
0.043346092 -0.11492924 -0.73077571 109 132 111
0.041054517 -0.1144166 -0.7302683 112 133 111
0.041825231 -0.11433479 -0.73056263 112 133 111
0.034991894 -0.11644274 -0.72745013 93 133 112
0.034552492 -0.1161397 -0.72747636 91 134 112
0.036787432 -0.11536286 -0.72843677 95 136 111
0.035726357 -0.11587368 -0.7279138 94 135 111
0.035119299 -0.11702053 -0.7272113 95 133 113
0.035636328 -0.11536968 -0.72811848 94 135 111
0.03337374 -0.11540452 -0.72748202 91 133 111
0.038423542 -0.11906738 -0.72718626 105 131 113
0.037833966 -0.11700777 -0.72797078 100 134 112
0.037369404 -0.11692214 -0.72786713 100 134 113
0.038082127 -0.11693978 -0.7280798 100 134 111
0.038762614 -0.11809834 -0.7277441 102 133 112
0.039272431 -0.11825079 -0.72783029 103 133 112
0.038496595 -0.11532888 -0.72898954 100 135 110
0.040302925 -0.11625659 -0.72912616 106 134 110
0.039690092 -0.11753144 -0.72830391 103 133 111
0.040731695 -0.11525447 -0.72975516 108 134 110
0.040195126 -0.11656837 -0.72893882 106 133 111
0.040886424 -0.11630057 -0.72929507 108 134 110
0.044910636 -0.11894384 -0.72930646 91 131 110
0.044744458 -0.11646162 -0.7304759 101 131 110
0.043892179 -0.11641792 -0.73022151 103 132 110
0.0422507 -0.11619149 -0.72979152 104 133 110
0.042410992 -0.11553799 -0.7301681 107 133 110
0.041867431 -0.11607163 -0.72972435 106 133 110
0.044105735 -0.11662984 -0.73018706 102 132 110
0.041305654 -0.11790858 -0.72864616 106 133 110
0.041877747 -0.1169247 -0.72931123 105 132 110
0.041510638 -0.11610832 -0.72959107 107 133 110
0.043022335 -0.11745031 -0.72942448 99 132 110
0.04360114 -0.118945 -0.7288819 96 132 110
0.043644968 -0.1189029 -0.72891665 96 132 110
0.047093224 -0.11779645 -0.73071659 87 134 110
0.045558687 -0.11908088 -0.72948939 88 131 111
0.045079272 -0.11871291 -0.72948474 92 131 110
0.038832504 -0.11984227 -0.72699857 100 132 113
0.040429723 -0.12035789 -0.72728419 97 132 111
0.038992688 -0.1198936 -0.72702736 99 132 112
0.042055659 -0.12053454 -0.72771853 92 134 111
0.041583337 -0.12069846 -0.72750556 92 133 111
0.041264206 -0.11988017 -0.72773302 100 133 111
0.041921064 -0.11981808 -0.72796535 98 133 111
0.043210652 -0.11956812 -0.72848469 94 132 110
0.072213314 -0.091060877 -0.74259472 108 136 117
0.071420752 -0.091530845 -0.74317247 111 134 114
0.073327415 -0.091418929 -0.74379683 104 135 115
0.074771814 -0.091176286 -0.74397308 86 141 115
0.072831877 -0.091606684 -0.74392295 109 133 114
0.075354069 -0.091093093 -0.74407023 79 143 115
0.07334888 -0.090890713 -0.74280864 101 138 118
0.072888389 -0.09122584 -0.74322933 106 135 116
0.057366706 -0.095530584 -0.74273735 92 138 108
0.059504014 -0.095500134 -0.74324584 100 140 109
0.058841981 -0.095487788 -0.74306571 97 139 109
0.056937162 -0.095526263 -0.74262416 90 138 108
0.060838819 -0.095581032 -0.74369961 103 140 111
0.06285283 -0.095676154 -0.74440593 107 137 113
0.061312273 -0.095421873 -0.74370146 104 139 110
0.063351348 -0.094734706 -0.74370807 110 135 111
0.064222917 -0.094884515 -0.7441119 111 134 112
0.06124578 -0.094498999 -0.74274737 108 137 110
0.060553785 -0.094673865 -0.74265426 108 138 111
0.066979527 -0.095596313 -0.74538863 102 134 114
0.065192156 -0.095135674 -0.74460042 110 135 114
0.067194827 -0.09422449 -0.74426198 107 134 113
0.066047251 -0.09510912 -0.74476618 108 134 114
0.067735896 -0.09544009 -0.74542165 100 134 113
0.066312239 -0.095700555 -0.74533069 104 134 114
0.067954458 -0.095486827 -0.7455098 99 133 114
0.066290326 -0.092983894 -0.74295443 113 133 111
0.064734809 -0.093727678 -0.74321187 113 133 110
0.065943204 -0.093829341 -0.74362636 112 134 112
0.064839073 -0.093188033 -0.74275166 114 132 108
0.069440283 -0.094540469 -0.74511969 96 134 113
0.069754615 -0.094017394 -0.74476993 96 135 112
0.069011733 -0.094790444 -0.74520457 97 134 113
0.068526819 -0.093970321 -0.74436712 103 134 112
0.068933815 -0.092781924 -0.74348164 106 135 111
0.069679551 -0.092808649 -0.74377477 104 134 112
0.070763685 -0.095074788 -0.74600291 87 134 112
0.070692554 -0.092039458 -0.74357796 111 133 112
0.071567528 -0.092015259 -0.74391329 112 132 113
0.072070874 -0.092134237 -0.74421114 112 131 113
0.070220627 -0.092968188 -0.74411994 104 134 112
0.071873173 -0.093279041 -0.74501389 102 132 113
0.072141193 -0.092532039 -0.74453568 108 132 113
0.073318847 -0.092888251 -0.74527884 92 135 111
0.073370114 -0.092634402 -0.74511081 94 135 111
0.057822715 -0.097761959 -0.74260396 95 135 108
0.059719425 -0.099188 -0.74278259 95 135 108
0.060027942 -0.099116683 -0.74287689 93 136 108
0.059361823 -0.09768042 -0.74300796 94 137 108
0.05827016 -0.097070731 -0.7428593 91 137 108
0.059565522 -0.095823683 -0.74344683 99 140 110
0.059040975 -0.097948864 -0.74287081 91 137 108
0.060172733 -0.096740738 -0.74340892 99 139 109
0.060503118 -0.096235991 -0.74359769 101 140 110
0.064404696 -0.09775193 -0.74441355 98 135 112
0.063509405 -0.098314926 -0.74403143 96 135 111
0.063835725 -0.09804406 -0.74418664 97 135 112
0.062981308 -0.098504215 -0.74384069 96 135 110
0.062748767 -0.098436683 -0.74379319 96 136 110
0.063668326 -0.098071367 -0.74413407 97 135 111
0.061355162 -0.098503247 -0.74338466 97 136 109
0.060817029 -0.098962992 -0.74312299 95 136 109
0.064172 -0.095725 -0.74483186 110 135 115
0.06125582 -0.096826963 -0.74370378 101 139 110
0.060806554 -0.097699963 -0.74338329 98 138 109
0.060625706 -0.095921449 -0.74369866 102 140 110
0.067016542 -0.09758734 -0.7450726 90 134 112
0.068255045 -0.09634392 -0.74564642 93 134 112
0.067706749 -0.097311482 -0.74532282 90 134 112
0.066469252 -0.098414376 -0.74477279 87 135 110
0.066084422 -0.098052308 -0.74471927 90 134 111
0.065905273 -0.096030481 -0.7451638 103 134 113
0.065501086 -0.097959369 -0.74460757 92 135 111
0.066431209 -0.097005658 -0.74504358 96 134 113
0.06510669 -0.096452825 -0.7448855 103 134 113
0.064979807 -0.098746769 -0.74430197 89 135 111
0.066139154 -0.097509265 -0.74485719 93 134 112
0.069173865 -0.096054658 -0.74597168 91 134 113
0.069976918 -0.096971355 -0.74607038 84 135 112
0.062466927 -0.10128761 -0.74280035 91 135 109
0.063949205 -0.10059445 -0.7434749 88 135 109
0.062783688 -0.10167508 -0.74274963 91 135 109
0.062002387 -0.10128221 -0.74266994 92 135 108
0.06360101 -0.10225078 -0.74277306 91 135 109
0.063916482 -0.10127705 -0.74321723 89 135 109
0.062822275 -0.09981513 -0.74344367 88 136 109
0.063217081 -0.099672258 -0.74361145 88 135 109
0.066697292 -0.10217845 -0.74380088 87 134 109
0.064500995 -0.10077094 -0.74357051 87 135 109
0.065401159 -0.10171844 -0.74353004 88 135 109
0.064853795 -0.10028994 -0.74386472 86 135 109
0.065365836 -0.1019187 -0.74344522 88 135 109
0.065042496 -0.10317115 -0.74288023 90 135 109
0.067132697 -0.10174903 -0.74408156 85 135 109
0.067274168 -0.10230939 -0.7439431 86 134 109
0.067970589 -0.10484718 -0.74329436 87 135 108
0.067570418 -0.1046307 -0.74323231 88 135 108
0.068133146 -0.10559145 -0.74309754 87 135 108
0.068010949 -0.10504641 -0.74324059 87 135 108
0.067524098 -0.10380454 -0.74349612 88 134 109
0.069255695 -0.10797796 -0.74268413 88 135 109
0.032620654 -0.10146606 -0.73441577 99 134 110
0.031827003 -0.10327966 -0.73336691 102 134 111
0.035309333 -0.1024744 -0.73463428 105 132 110
0.033400312 -0.10315837 -0.7337864 107 135 110
0.033234645 -0.10287011 -0.73388338 106 135 110
0.035119511 -0.10235724 -0.73464078 104 133 109
0.03001482 -0.10493735 -0.73211062 90 132 111
0.030989466 -0.10548285 -0.73204207 95 132 111
0.029610502 -0.10504717 -0.7319575 89 133 111
0.032295976 -0.10654789 -0.7317698 99 132 111
0.031372625 -0.10438208 -0.73270696 98 133 111
0.031975087 -0.10600497 -0.73198575 99 132 112
0.032646928 -0.10656711 -0.73183626 101 132 111
0.03164053 -0.10410371 -0.73291111 100 133 111
0.033033907 -0.10619684 -0.73211443 103 133 112
0.03147177 -0.10441793 -0.73270965 98 133 110
0.036320668 -0.10470153 -0.73377472 107 131 110
0.035068367 -0.10652722 -0.7324841 106 131 112
0.035809096 -0.10488183 -0.73354083 106 131 110
0.034564879 -0.10647437 -0.7323733 105 131 111
0.033731729 -0.10693071 -0.73190796 103 132 111
0.036495 -0.10702984 -0.73261493 110 130 113
0.035001874 -0.10375325 -0.73391616 108 133 110
0.036206167 -0.10413012 -0.73404145 107 132 109
0.03422796 -0.10616754 -0.73244143 104 132 111
0.035305463 -0.10432099 -0.73369962 107 132 110
0.033281896 -0.10548577 -0.73254538 106 134 111
0.033466205 -0.10644759 -0.73209 104 133 111
0.040009737 -0.10545931 -0.73436868 126 130 114
0.040018134 -0.10594522 -0.73411518 126 130 114
0.038541779 -0.10422255 -0.73462224 117 130 111
0.039445989 -0.10571515 -0.73408139 123 129 113
0.037186455 -0.10702615 -0.73280573 112 130 113
0.03729634 -0.10726403 -0.73271126 113 130 113
0.039139733 -0.10623737 -0.73372877 121 130 113
0.038372699 -0.10683548 -0.7332167 118 130 113
0.037241999 -0.10554833 -0.73358685 111 130 112
0.037256941 -0.1073616 -0.73265028 113 130 113
0.041904934 -0.10706456 -0.73404354 131 130 115
0.042142604 -0.1060901 -0.7346226 130 131 115
0.041463185 -0.10573628 -0.7346198 131 129 115
0.031618878 -0.10781803 -0.73093164 95 132 112
0.034973122 -0.1089738 -0.73118263 105 131 113
0.036026977 -0.10878555 -0.73157448 108 131 113
0.034203369 -0.10913597 -0.73088372 102 131 113
0.034545355 -0.10835653 -0.73138112 104 131 113
0.034566697 -0.10881534 -0.73115063 104 131 113
0.036907926 -0.10995948 -0.73121583 108 131 114
0.033337347 -0.10788524 -0.73129827 102 132 112
0.035256337 -0.10769368 -0.73192692 107 131 113
0.037368812 -0.11086432 -0.73088223 108 131 114
0.037432652 -0.10817111 -0.73229074 112 130 114
0.037775002 -0.10900097 -0.73196548 112 130 114
0.038002111 -0.10983855 -0.73160177 112 130 114
0.039528109 -0.11076364 -0.73158163 116 131 114
0.037644301 -0.10905217 -0.73189998 112 130 114
0.040587902 -0.10974385 -0.7323826 124 130 114
0.039935831 -0.10807779 -0.73300952 125 129 115
0.039007887 -0.10752174 -0.73303181 122 129 114
0.040491369 -0.1081552 -0.73311859 127 130 115
0.038540266 -0.10827312 -0.73254871 117 130 114
0.040866174 -0.1076509 -0.73345888 131 129 115
0.042698242 -0.10991659 -0.73289818 120 132 114
0.044882316 -0.10815448 -0.73437792 121 134 113
0.042995006 -0.11101079 -0.73254687 115 133 113
0.043645252 -0.11022943 -0.73309374 116 133 113
0.042164542 -0.11031678 -0.73254919 120 132 113
0.043675669 -0.11096501 -0.73279947 113 133 112
0.041754581 -0.10904323 -0.73303652 126 130 115
0.044533595 -0.10748018 -0.734559 124 134 113
0.041446388 -0.1104214 -0.73229027 122 131 114
0.041401386 -0.10782219 -0.73352343 130 129 115
0.042438895 -0.1088497 -0.73331976 124 132 114
0.041154847 -0.10747827 -0.73361969 132 129 115
0.047329117 -0.10930558 -0.73469049 110 134 112
0.045228448 -0.11083824 -0.73337644 109 135 111
0.045789219 -0.10927345 -0.73420137 114 135 112
0.046192519 -0.10973857 -0.73413581 112 134 112
0.04726658 -0.11013824 -0.73430878 107 134 112
0.047847945 -0.11131378 -0.73400503 101 135 111
0.045155972 -0.11096423 -0.7333014 108 135 112
0.049291361 -0.11105572 -0.73459154 100 134 111
0.040401187 -0.11237025 -0.73105568 116 131 113
0.040419441 -0.11170252 -0.73137808 117 131 113
0.042749949 -0.11310287 -0.73145241 115 131 112
0.04401486 -0.11443881 -0.73122603 110 131 111
0.044260345 -0.11479013 -0.73113841 109 131 111
0.043840308 -0.11380702 -0.7314769 111 131 111
0.04452695 -0.11182799 -0.73269355 108 134 111
0.043805085 -0.11225403 -0.73223454 111 133 112
0.044664647 -0.11474993 -0.73129255 108 132 111
0.043720987 -0.11188864 -0.73238677 111 133 112
0.043327227 -0.11310651 -0.73164791 113 131 112
0.048247885 -0.11327586 -0.73323673 97 133 111
0.048805028 -0.11355694 -0.73332024 93 135 111
0.04707456 -0.11415391 -0.73241514 100 133 111
0.046974637 -0.11375487 -0.7325533 101 133 110
0.04835682 -0.11449184 -0.73274297 93 134 111
0.048444886 -0.11468172 -0.7326923 93 134 112
0.046188157 -0.11136018 -0.73346007 104 135 111
0.045477491 -0.11229468 -0.73277289 106 134 111
0.045501895 -0.11239521 -0.73273075 106 134 111
0.046374738 -0.11352386 -0.73244643 104 132 111
0.047281366 -0.11185534 -0.73355919 103 133 111
0.04570657 -0.11430873 -0.73184687 106 132 111
0.04591566 -0.11400492 -0.73206335 105 132 111
0.052636981 -0.11399155 -0.73445135 91 134 112
0.052618805 -0.11393621 -0.73446906 91 134 112
0.050879698 -0.11257834 -0.7344721 96 134 111
0.049207211 -0.11159813 -0.73432118 99 134 111
0.048837688 -0.11377923 -0.73323447 93 134 111
0.050648909 -0.11503415 -0.7333129 89 134 112
0.048937652 -0.11494735 -0.73275602 90 134 112
0.050638553 -0.11445426 -0.73356402 91 134 112
0.049336608 -0.1122577 -0.73407638 96 134 111
0.049936954 -0.11508255 -0.73304409 90 134 112
0.053153474 -0.11403137 -0.73461807 91 133 112
0.046196587 -0.11646755 -0.73101628 96 133 110
0.048220437 -0.11628406 -0.73186225 88 134 111
0.046189234 -0.11591809 -0.73127627 98 133 111
0.047754019 -0.11651342 -0.73157781 89 134 111
0.047272176 -0.11723515 -0.73105216 88 134 110
0.048029229 -0.11523455 -0.73229498 93 134 112
0.049509194 -0.11544031 -0.73273689 89 134 112
0.051394101 -0.11543812 -0.73339319 88 134 112
0 0 0 1 0 0 0 1 0 0 0 1 0 0 0 0 0 695 1 0 0
