ply
format ascii 1.0
comment PCL generated
element vertex 701
property float x
property float y
property float z
property uchar red
property uchar green
property uchar blue
element camera 1
property float view_px
property float view_py
property float view_pz
property float x_axisx
property float x_axisy
property float x_axisz
property float y_axisx
property float y_axisy
property float y_axisz
property float z_axisx
property float z_axisy
property float z_axisz
property float focal
property float scalex
property float scaley
property float centerx
property float centery
property int viewportx
property int viewporty
property float k1
property float k2
end_header
-0.021885511 -0.25961503 -0.69172579 18 134 124
-0.02084651 -0.25903761 -0.69175822 21 133 124
-0.038621582 -0.26346526 -0.69169903 27 135 117
-0.036173701 -0.26330647 -0.69155562 25 133 117
-0.035149068 -0.26344272 -0.6914615 24 135 118
-0.035400175 -0.26280025 -0.69161147 23 135 117
-0.03339057 -0.261702 -0.6916976 20 135 119
-0.035709973 -0.26288575 -0.69161505 23 133 117
-0.035056565 -0.26184365 -0.69178081 21 133 118
-0.033113528 -0.26136464 -0.69174933 20 133 119
-0.032143183 -0.26321679 -0.69133902 21 133 120
-0.032522891 -0.2620672 -0.691585 20 133 120
-0.031902462 -0.26153284 -0.69167358 20 133 121
-0.032088529 -0.26099199 -0.69179469 19 134 120
-0.030783098 -0.26175636 -0.69159091 20 132 122
-0.029939489 -0.26187107 -0.69154 18 132 122
-0.029168773 -0.26357383 -0.69115824 19 132 122
-0.028838931 -0.26190767 -0.69151676 19 132 123
-0.026985876 -0.26361445 -0.69117188 19 135 122
-0.029143235 -0.26186335 -0.69152313 18 132 122
-0.029055793 -0.26076698 -0.69175774 17 132 122
-0.025471611 -0.26128608 -0.69159693 19 134 122
-0.027056335 -0.26171151 -0.691553 18 134 122
-0.028632149 -0.26079777 -0.69174421 17 132 122
-0.028262002 -0.26106307 -0.69169039 18 132 122
-0.027616384 -0.26135612 -0.69162637 18 134 122
-0.024293561 -0.26165166 -0.6914804 18 136 122
-0.022374088 -0.26026526 -0.69163537 18 134 124
-0.025217744 -0.26147807 -0.69155359 19 135 122
-0.023515051 -0.26145381 -0.69147915 18 136 122
-0.023361888 -0.26117593 -0.69152099 18 136 122
-0.024228537 -0.26298094 -0.69125962 19 135 122
-0.021992374 -0.26079422 -0.69154227 17 136 122
-0.02459649 -0.26337525 -0.69120818 19 135 122
-0.023485987 -0.26343471 -0.69118583 19 132 122
-0.021944091 -0.26067924 -0.691558 17 134 124
-0.022139814 -0.26199743 -0.69137311 18 132 122
-0.02100719 -0.26017565 -0.69158804 19 134 123
-0.021160539 -0.2598604 -0.69164431 18 134 123
-0.048887469 -0.26636818 -0.69176275 36 135 111
-0.047310486 -0.26741233 -0.69140011 37 136 111
-0.048255943 -0.26688772 -0.69159472 37 136 111
-0.047482088 -0.26608354 -0.69170946 33 135 111
-0.046301804 -0.26708147 -0.69138569 33 137 110
-0.045959778 -0.26619926 -0.6915592 31 135 112
-0.045563955 -0.26529002 -0.69173443 29 134 113
-0.04401974 -0.26610178 -0.69146621 30 135 114
-0.043712981 -0.26639062 -0.69138986 30 136 113
-0.04425215 -0.26653191 -0.69137597 30 136 113
-0.042212125 -0.26673329 -0.69126052 33 134 116
-0.042860031 -0.26624736 -0.69139326 31 133 116
-0.041120488 -0.26564705 -0.69143432 32 137 117
-0.042467341 -0.26587155 -0.69145256 30 135 116
-0.04124964 -0.26697525 -0.69116384 33 135 118
-0.041366018 -0.26687023 -0.69119132 33 135 118
-0.038921844 -0.26451761 -0.69150233 28 136 117
-0.040365584 -0.2641305 -0.6916948 29 137 116
-0.040988471 -0.26584202 -0.69138652 33 137 117
-0.040580079 -0.26528087 -0.69147182 32 136 117
-0.040419746 -0.26445603 -0.69163126 29 139 116
-0.038654212 -0.26632339 -0.69117272 31 135 118
-0.037544988 -0.26553932 -0.69126993 27 137 116
-0.038233031 -0.26692235 -0.69107741 30 136 117
-0.037570842 -0.26553527 -0.69127089 28 135 117
-0.038649201 -0.26568332 -0.69126695 30 135 117
-0.035009008 -0.26703259 -0.69091928 27 135 115
-0.034096301 -0.2671648 -0.69084883 26 136 114
-0.036348194 -0.26717317 -0.69097567 28 135 117
-0.034783047 -0.26651293 -0.69097954 26 136 116
-0.035830509 -0.26645035 -0.69104785 27 134 118
-0.033854701 -0.26466045 -0.69118714 24 135 118
-0.034434047 -0.26433086 -0.69127035 24 135 118
-0.035753094 -0.26462618 -0.69131082 26 134 117
-0.035674326 -0.26416019 -0.69137454 26 134 117
-0.035673425 -0.26509184 -0.69123709 26 134 117
-0.03707356 -0.26543033 -0.69127643 27 135 117
-0.035914108 -0.26629138 -0.69107556 27 134 118
-0.031616718 -0.26690879 -0.69077379 24 131 116
-0.029474154 -0.26516229 -0.69093615 21 130 121
-0.032388948 -0.26752526 -0.6907171 25 134 114
-0.031279594 -0.26606035 -0.69087881 24 133 118
-0.029914778 -0.26652804 -0.69076335 23 131 118
-0.030734638 -0.26596802 -0.6908713 23 131 118
-0.030373339 -0.2640723 -0.69112188 20 133 121
-0.032949463 -0.26481441 -0.69111848 24 133 118
-0.03191587 -0.26403421 -0.69118768 21 133 119
-0.030533846 -0.26480395 -0.69102532 21 132 119
-0.030259438 -0.26368397 -0.691172 20 132 121
-0.026238034 -0.26666746 -0.69074529 24 133 120
-0.026727248 -0.26753351 -0.69061905 25 131 120
-0.027480761 -0.26752272 -0.69061542 24 131 119
-0.026451463 -0.26559421 -0.69089603 21 133 120
-0.025524544 -0.26707542 -0.69069237 25 133 121
-0.025452122 -0.26718476 -0.69067734 25 133 121
-0.026098534 -0.26377544 -0.69115442 19 135 121
-0.028537283 -0.2665236 -0.69074881 23 130 119
-0.027813232 -0.26396334 -0.69111085 20 132 122
-0.029060887 -0.26613861 -0.69079673 21 130 119
-0.028816992 -0.26415902 -0.69107348 20 132 121
-0.028488142 -0.26369712 -0.69114083 20 132 122
-0.023053752 -0.26559013 -0.69086605 21 132 122
-0.022028547 -0.26561764 -0.69082344 21 132 122
-0.022905758 -0.26755276 -0.69053394 25 133 121
-0.022486668 -0.26470387 -0.69099247 20 130 122
-0.023114286 -0.26538652 -0.69090217 20 133 121
-0.023745924 -0.26485837 -0.69098711 20 133 122
-0.021980016 -0.2637566 -0.69112122 19 128 122
-0.022144824 -0.26382077 -0.69111419 19 128 122
-0.025252076 -0.2668491 -0.6907236 25 133 122
-0.0247254 -0.26623607 -0.69080395 23 133 121
-0.025202144 -0.26708013 -0.69069028 25 133 121
-0.045059476 -0.26802951 -0.6910966 34 137 111
-0.046189759 -0.26837811 -0.69111276 38 137 111
-0.046773124 -0.26768872 -0.69129676 37 136 111
-0.046026599 -0.26821962 -0.69112962 37 137 111
-0.042882983 -0.26964393 -0.69076562 41 133 115
-0.042365436 -0.26937029 -0.6907829 40 133 116
-0.041816119 -0.2710942 -0.69042939 38 130 115
-0.042458225 -0.2712588 -0.69044024 40 131 114
-0.042651966 -0.26995897 -0.69069266 40 133 115
-0.041872021 -0.26869372 -0.69087607 38 134 117
-0.044532362 -0.26865822 -0.69098002 37 136 112
-0.043435294 -0.26906282 -0.69088012 39 134 114
-0.043994695 -0.26957723 -0.6908198 42 134 114
-0.043645233 -0.26966697 -0.69079399 42 133 114
-0.043242384 -0.26852512 -0.69095659 37 135 114
-0.037311159 -0.27100405 -0.69040143 36 133 117
-0.037710845 -0.26925108 -0.69068593 33 133 117
-0.037615776 -0.26864427 -0.69078553 31 135 117
-0.038206719 -0.26919648 -0.6906926 33 133 116
-0.037408136 -0.27118385 -0.69037169 36 133 117
-0.040443271 -0.27106911 -0.6903764 36 130 115
-0.040437888 -0.26974258 -0.69061786 34 133 116
-0.03997108 -0.27022704 -0.69052064 33 132 115
-0.038635947 -0.26862308 -0.69079453 31 135 116
-0.040229488 -0.26850885 -0.69084209 33 134 117
-0.040351577 -0.26860383 -0.69082659 33 134 117
-0.033248369 -0.27020392 -0.69035596 30 136 113
-0.03524708 -0.27139851 -0.69026124 35 134 116
-0.036130965 -0.27095726 -0.69036186 35 134 116
-0.033217929 -0.27027929 -0.69034362 30 136 113
-0.033940122 -0.26940486 -0.69050133 29 135 114
-0.036361136 -0.26920232 -0.69065416 32 134 117
-0.036481749 -0.2692486 -0.6906535 32 134 117
-0.035732277 -0.26908475 -0.69063765 30 136 115
-0.034983229 -0.26843295 -0.69070154 27 137 114
-0.036660358 -0.27057922 -0.69044632 35 133 117
-0.036952775 -0.27056831 -0.69046468 35 134 117
-0.032275535 -0.27121934 -0.69017863 31 133 115
-0.030951811 -0.26967299 -0.69035393 28 131 117
-0.029540028 -0.26883578 -0.69043165 25 130 117
-0.032238286 -0.27139884 -0.69015348 31 135 115
-0.030134277 -0.2684527 -0.69049799 26 130 117
-0.032220047 -0.26864123 -0.69054723 27 134 114
-0.030898653 -0.26874271 -0.69048327 26 133 116
-0.032326777 -0.26936659 -0.69044459 28 134 115
-0.03310978 -0.27013317 -0.69036108 30 136 113
-0.032026317 -0.26868275 -0.69053394 27 134 115
-0.025856191 -0.27032664 -0.69027668 26 133 118
-0.027336475 -0.27097911 -0.69016844 27 131 117
-0.026797313 -0.26900789 -0.69041997 26 134 119
-0.026617214 -0.26942748 -0.69037211 26 133 119
-0.026046621 -0.26972705 -0.69034642 26 131 119
-0.026910242 -0.26859802 -0.69047415 25 134 119
-0.027086774 -0.26836377 -0.69050443 25 133 119
-0.027864151 -0.26883453 -0.69043565 25 133 118
-0.028904982 -0.2695967 -0.69032586 25 133 117
-0.029061714 -0.26816398 -0.69051772 24 130 118
-0.021497309 -0.27032015 -0.69016635 23 133 118
-0.023361553 -0.26997042 -0.6902585 25 131 118
-0.021998975 -0.26841536 -0.69039655 25 134 120
-0.022522466 -0.26908728 -0.69033509 24 133 119
-0.024922332 -0.27105629 -0.69017935 26 131 117
-0.023386216 -0.26814669 -0.69047803 25 133 120
-0.02281829 -0.26886174 -0.69036943 25 134 119
-0.022841644 -0.26828864 -0.69044048 25 134 120
-0.025252933 -0.26763904 -0.69060934 26 133 121
-0.023794286 -0.2679885 -0.69051248 25 134 120
-0.023778245 -0.26833844 -0.69046909 26 133 120
-0.017851342 -0.27124277 -0.68983561 25 137 122
-0.019230314 -0.27137938 -0.68990505 24 136 119
-0.021321189 -0.27136445 -0.69003922 21 135 117
-0.018061047 -0.27068141 -0.68992186 25 137 121
-0.017697351 -0.27021712 -0.68995929 25 137 121
-0.018886244 -0.26977885 -0.69009149 24 138 119
-0.02092736 -0.2700083 -0.69017541 23 136 118
-0.020448899 -0.26942667 -0.69021904 23 136 118
-0.021470262 -0.26983148 -0.69022077 23 135 118
-0.020761352 -0.27023873 -0.69014156 23 136 118
-0.04129139 -0.27404466 -0.68995339 41 131 115
-0.041500323 -0.27427116 -0.68992925 41 132 115
-0.041399967 -0.27413559 -0.68994468 41 132 115
-0.041175283 -0.27439111 -0.68989986 41 132 115
-0.038603175 -0.27396661 -0.68991375 37 133 116
-0.039109938 -0.27490348 -0.68975621 37 133 116
-0.039504942 -0.27402538 -0.68994504 40 133 116
-0.038870841 -0.27439654 -0.68984312 37 133 116
-0.037817609 -0.27349859 -0.68996722 36 133 117
-0.037371863 -0.27510551 -0.6896348 32 132 118
-0.037556011 -0.27160656 -0.69030458 37 133 117
-0.039918706 -0.27247098 -0.69017106 37 131 116
-0.038137823 -0.27239358 -0.69019032 38 132 117
-0.039487299 -0.27284256 -0.6901204 38 134 115
-0.038557544 -0.27232534 -0.69019806 38 134 116
-0.034912109 -0.27415258 -0.68976253 30 133 116
-0.03386591 -0.27444032 -0.68972629 30 133 115
-0.033910125 -0.27441716 -0.68972939 30 133 115
-0.034361389 -0.27281091 -0.68996358 33 133 116
-0.034858372 -0.27321705 -0.68990076 33 133 116
-0.035490811 -0.27501136 -0.68963248 30 133 116
-0.036739666 -0.27374431 -0.68987113 33 133 117
-0.035447042 -0.27356204 -0.68985415 33 133 117
-0.036613826 -0.27370548 -0.68987358 33 133 117
-0.035770219 -0.27288055 -0.68999922 33 133 117
-0.036567993 -0.27320537 -0.68996859 33 133 117
-0.031242454 -0.27461538 -0.68965298 27 134 114
-0.031226965 -0.27393922 -0.68975377 28 132 115
-0.030098915 -0.27502543 -0.68956047 26 133 115
-0.030233869 -0.27495506 -0.68957466 26 133 115
-0.029670518 -0.27297226 -0.68985629 27 133 115
-0.030486204 -0.27231297 -0.68997633 28 132 116
-0.03082682 -0.27227893 -0.68998981 28 134 115
-0.032622043 -0.27150416 -0.69014859 33 134 115
-0.032796059 -0.27240312 -0.69002038 31 136 114
-0.03257199 -0.27224779 -0.69003767 31 135 114
-0.026353614 -0.27301085 -0.68990165 25 131 117
-0.025973119 -0.27244529 -0.68999207 26 130 117
-0.028373616 -0.2750544 -0.68955708 25 131 117
-0.026062848 -0.27369294 -0.68981332 25 130 119
-0.026364557 -0.27471131 -0.68966109 25 130 119
-0.026822485 -0.27491957 -0.68961906 25 130 119
-0.028218014 -0.27387202 -0.68973219 25 133 116
-0.027044768 -0.27178743 -0.69006681 26 131 117
-0.025667638 -0.27173012 -0.69010186 26 131 117
-0.029248599 -0.27398512 -0.68969542 26 133 116
-0.028583836 -0.27267355 -0.68990463 26 133 116
-0.022707 -0.27371114 -0.68977147 24 133 119
-0.022085972 -0.27509803 -0.68959355 26 134 120
-0.024253413 -0.2750349 -0.68962413 24 131 121
-0.023722513 -0.2744965 -0.68968505 24 131 120
-0.023021277 -0.27477452 -0.68964338 25 133 120
-0.023979682 -0.27313834 -0.68987054 24 131 119
-0.024670612 -0.27193508 -0.69005996 25 130 117
-0.025132053 -0.27284724 -0.68994409 25 130 119
-0.023136275 -0.27184886 -0.69002897 24 133 118
-0.025226401 -0.27481097 -0.68966931 25 130 122
-0.023360392 -0.27151242 -0.69008279 24 131 117
-0.018344479 -0.27279219 -0.68966526 25 137 120
-0.018358566 -0.27459002 -0.68941611 24 136 118
-0.01813237 -0.27344465 -0.68955767 24 138 119
-0.019253802 -0.27372137 -0.68960762 25 136 120
-0.018852755 -0.27383953 -0.68955952 25 136 120
-0.01993967 -0.27330545 -0.68971115 25 136 120
-0.019799005 -0.27275205 -0.6897707 24 136 119
-0.020097993 -0.27385497 -0.68965322 26 136 120
-0.020006116 -0.27317205 -0.68973184 24 138 119
-0.019285675 -0.27285299 -0.6897257 24 138 119
-0.019901361 -0.27260816 -0.6897949 24 136 119
-0.039252046 -0.27772453 -0.68930578 40 133 116
-0.038386442 -0.27744541 -0.6893118 35 133 116
-0.037705589 -0.2790443 -0.68904364 29 134 115
-0.038387876 -0.2772243 -0.689345 35 134 116
-0.038599186 -0.27728385 -0.68934482 36 134 116
-0.037483245 -0.27700242 -0.68934077 30 133 116
-0.040671378 -0.27612874 -0.68962067 42 134 115
-0.039660234 -0.27652919 -0.68951035 40 133 116
-0.040601939 -0.27547741 -0.6897189 42 132 116
-0.040163584 -0.27686042 -0.68948251 42 133 116
-0.03462521 -0.27904859 -0.68906897 26 134 115
-0.036211342 -0.27859494 -0.68909478 25 134 114
-0.036416173 -0.27911678 -0.6890204 25 134 114
-0.033948485 -0.27915886 -0.68906909 27 133 115
-0.033398706 -0.27708364 -0.68935907 28 134 115
-0.034616791 -0.27737921 -0.68929267 27 134 114
-0.035707902 -0.27653155 -0.68940413 28 134 116
-0.034769241 -0.27581501 -0.68951714 28 134 115
-0.034475826 -0.27646321 -0.68942165 27 134 114
-0.034206204 -0.27615279 -0.68946981 28 134 115
-0.035857245 -0.27669969 -0.68937802 28 134 116
-0.029805647 -0.27917367 -0.68894106 24 135 115
-0.030833259 -0.27924106 -0.68897462 25 133 115
-0.029821888 -0.27637741 -0.68935907 25 133 115
-0.030896455 -0.27793169 -0.68917274 26 133 116
-0.031407427 -0.27906093 -0.68902594 26 133 115
-0.030786168 -0.27823716 -0.6891225 26 133 116
-0.032923844 -0.27863809 -0.68914765 27 134 115
-0.032238282 -0.27826902 -0.68917847 27 133 115
-0.032774609 -0.27661747 -0.68941414 28 134 115
-0.029965123 -0.27592507 -0.68943059 25 133 115
-0.032534655 -0.27555481 -0.68954992 28 134 115
-0.025983533 -0.27699289 -0.68933493 24 130 119
-0.02685439 -0.27758059 -0.68922359 24 131 118
-0.025596123 -0.27809232 -0.6891793 24 130 119
-0.026602471 -0.27901158 -0.68901438 24 131 117
-0.028296806 -0.27929121 -0.68892801 24 131 115
-0.027626604 -0.27653962 -0.68935877 24 133 118
-0.027669916 -0.27613845 -0.68941742 24 133 118
-0.028245969 -0.27727121 -0.68923241 25 131 117
-0.02581298 -0.27547964 -0.68956715 24 130 121
-0.02849712 -0.27581456 -0.68944287 24 131 117
-0.022606447 -0.27653784 -0.68938899 26 134 119
-0.02167272 -0.27835038 -0.68900955 36 135 117
-0.023165645 -0.27720776 -0.68928993 26 133 119
-0.022435462 -0.27714396 -0.68926853 27 135 118
-0.021703545 -0.27785602 -0.68910283 35 135 118
-0.02419739 -0.27768257 -0.6892339 25 131 119
-0.023573758 -0.27542439 -0.68956786 25 133 121
-0.025258388 -0.27653846 -0.6894176 24 130 120
-0.024764521 -0.27769712 -0.68923765 25 130 119
-0.023341091 -0.27720624 -0.68929678 25 133 118
-0.021802234 -0.27570733 -0.68950665 26 136 119
-0.01825691 -0.27743375 -0.68895769 32 138 114
-0.019455019 -0.27879608 -0.68880385 38 137 115
-0.017923281 -0.2784332 -0.68878555 37 138 114
-0.018649802 -0.27868912 -0.68878114 38 136 115
-0.018257635 -0.27855512 -0.68878293 37 138 114
-0.019464048 -0.27892992 -0.68878347 39 136 115
-0.018573083 -0.27576381 -0.68925214 25 137 116
-0.019057428 -0.27593228 -0.68925905 26 137 116
-0.019194217 -0.2755852 -0.68933433 25 136 117
-0.016888039 -0.27914658 -0.68862224 44 137 115
-0.016813464 -0.27916238 -0.68861628 45 137 116
-0.017544063 -0.27730498 -0.68894255 32 138 114
-0.017562697 -0.27782059 -0.68886328 35 137 114
-0.017303083 -0.27766883 -0.68887144 35 138 114
-0.039731946 -0.28279737 -0.688537 40 138 109
-0.037174795 -0.28055859 -0.68883222 27 134 114
-0.037605923 -0.28241023 -0.6886096 33 134 112
-0.037678521 -0.28156087 -0.68870825 31 136 112
-0.038021136 -0.28071728 -0.68880278 31 136 112
-0.04004205 -0.28242674 -0.68857646 41 139 109
-0.039381936 -0.28086203 -0.68880683 38 137 112
-0.039880723 -0.27953359 -0.68905538 41 134 114
-0.04057746 -0.28204769 -0.68865299 44 138 110
-0.039575282 -0.27933744 -0.68907636 39 133 114
-0.033230159 -0.28317267 -0.688541 29 132 114
-0.034248602 -0.2820428 -0.68869066 29 132 114
-0.035447635 -0.28260541 -0.68861002 31 133 114
-0.034702227 -0.28262344 -0.68861026 30 133 114
-0.035166632 -0.28263965 -0.68860638 31 133 114
-0.036771178 -0.28273797 -0.68858492 33 134 113
-0.035496902 -0.28009322 -0.68892312 27 134 114
-0.036628373 -0.2821081 -0.68866193 31 135 113
-0.034392864 -0.28000236 -0.68895811 28 132 115
-0.036142845 -0.2822054 -0.68866128 31 135 113
-0.030521261 -0.28253409 -0.68853444 25 134 114
-0.030973885 -0.28166315 -0.6886583 26 134 114
-0.031236177 -0.28158376 -0.68867671 26 134 114
-0.030671179 -0.28150591 -0.68866825 25 134 114
-0.031829651 -0.28212491 -0.68862796 27 134 114
-0.030344451 -0.2828798 -0.68848532 25 134 114
-0.03210656 -0.28120583 -0.68876135 27 133 115
-0.032799706 -0.28204039 -0.68867767 27 132 115
-0.032698918 -0.28068799 -0.68885684 27 133 115
-0.032493774 -0.28222686 -0.68863934 27 132 115
-0.032691989 -0.28114039 -0.68879515 27 134 114
-0.027327009 -0.28246409 -0.68857783 27 134 115
-0.026894676 -0.28297934 -0.68854195 29 134 115
-0.027235882 -0.28235289 -0.68859375 27 134 115
-0.027274154 -0.28175309 -0.68865627 26 133 116
-0.025648842 -0.28173426 -0.68873066 29 132 116
-0.026997942 -0.27965376 -0.68891627 24 131 116
-0.02782784 -0.28053218 -0.68878442 24 131 116
-0.028937658 -0.27930504 -0.68890941 24 133 115
-0.02709059 -0.27973571 -0.68890357 24 131 116
-0.028565148 -0.28048277 -0.68877137 24 133 115
-0.024343401 -0.28291789 -0.6885711 43 135 118
-0.021697637 -0.27999318 -0.68876237 45 135 119
-0.023605879 -0.28241274 -0.68859255 47 135 120
-0.023479916 -0.2812759 -0.68870419 37 135 116
-0.024861615 -0.28261986 -0.68862331 35 134 115
-0.024634665 -0.2803176 -0.68885934 29 132 116
-0.024310548 -0.28189036 -0.68867624 35 135 115
-0.022540027 -0.28016675 -0.68878007 38 136 116
-0.019993208 -0.27982309 -0.68869811 46 136 118
-0.019952908 -0.27953637 -0.68872553 43 137 117
-0.041143402 -0.28456986 -0.68820846 61 137 106
-0.037566978 -0.28639695 -0.68797588 39 138 106
-0.039527614 -0.28625473 -0.68793559 60 135 105
-0.039904222 -0.28597462 -0.68796998 64 135 106
-0.037529722 -0.28511 -0.68819153 38 138 109
-0.037932564 -0.28379849 -0.688398 42 135 111
-0.036453143 -0.28657272 -0.68795854 33 139 106
-0.03535426 -0.28677335 -0.68789744 32 139 106
-0.033861883 -0.284033 -0.68839163 29 135 112
-0.033921093 -0.28629667 -0.68795913 30 137 108
-0.033362381 -0.2856572 -0.68807012 29 137 109
-0.034380939 -0.28383133 -0.6884281 29 135 112
-0.035513956 -0.28411919 -0.68837607 31 136 111
-0.035624236 -0.28428209 -0.68834853 32 136 111
-0.035431709 -0.28400278 -0.68839574 31 135 112
-0.03487562 -0.28402713 -0.68839365 31 135 112
-0.030874098 -0.28679633 -0.68791914 27 138 110
-0.031084679 -0.28651077 -0.68796742 28 136 111
-0.033069517 -0.28444782 -0.68830258 28 135 112
-0.029506003 -0.28703037 -0.68791574 27 137 113
-0.032526858 -0.28331473 -0.68850082 28 132 115
-0.029308384 -0.2843051 -0.6882692 25 136 114
-0.032150451 -0.28397542 -0.68840337 28 132 115
-0.031304754 -0.28363797 -0.68841964 26 136 114
-0.030031936 -0.28356633 -0.68838781 25 134 114
-0.030481162 -0.28378081 -0.68837464 26 134 114
-0.028494976 -0.28654936 -0.68800628 28 135 113
-0.02661108 -0.28492981 -0.68828976 31 136 114
-0.025752539 -0.28579208 -0.68815559 33 134 115
-0.026333608 -0.28628036 -0.68806994 33 134 115
-0.027275456 -0.28527635 -0.68822676 30 136 113
-0.027566887 -0.28374022 -0.68841869 29 134 115
-0.02854065 -0.28562891 -0.68813169 27 135 113
-0.028354621 -0.28393513 -0.68835849 27 134 114
-0.028327288 -0.28329125 -0.68844283 27 134 115
-0.028263902 -0.28469995 -0.68826389 27 135 114
-0.022119749 -0.28620794 -0.68803376 42 134 119
-0.021680152 -0.2868726 -0.68794274 33 133 115
-0.023436055 -0.2865161 -0.68800402 40 134 118
-0.024512934 -0.28455004 -0.68832707 45 134 120
-0.025182679 -0.28620359 -0.68808246 37 135 117
-0.019942889 -0.28673559 -0.68790287 36 136 117
-0.026510112 -0.28724653 -0.68790638 33 134 115
-0.033385739 -0.24801765 -0.69399333 21 130 124
-0.033861779 -0.24793872 -0.69402581 21 132 123
-0.034862019 -0.25098598 -0.6935901 20 132 122
-0.034628078 -0.25128618 -0.69354385 20 132 122
-0.034447443 -0.25064647 -0.69363177 20 132 122
-0.035878155 -0.25179055 -0.69349188 20 133 120
-0.033602163 -0.24811305 -0.69398582 21 130 124
-0.034465905 -0.24910946 -0.69385481 21 132 122
-0.034158234 -0.24830888 -0.69397527 21 132 123
-0.031785008 -0.25118557 -0.69350559 17 130 122
-0.030610861 -0.25185516 -0.69334376 15 132 121
-0.032759957 -0.25184327 -0.69342899 17 130 122
-0.03075929 -0.25076669 -0.69353878 17 132 122
-0.030513592 -0.25123808 -0.69344729 16 132 121
-0.031005841 -0.25043291 -0.69360632 18 130 122
-0.032985475 -0.25153944 -0.69348419 17 130 122
-0.03151527 -0.24929847 -0.69379222 19 130 123
-0.032855771 -0.24959198 -0.69375956 19 130 123
-0.026063843 -0.25141662 -0.69329679 18 134 122
-0.026341287 -0.25098601 -0.69335908 18 134 122
-0.025456453 -0.2495538 -0.69353747 20 135 122
-0.028010517 -0.25111318 -0.69336843 16 136 121
-0.028014623 -0.25048903 -0.69345957 17 134 122
-0.023848038 -0.25086015 -0.69331956 20 135 122
-0.023521354 -0.25092536 -0.69329333 20 135 121
-0.024518538 -0.24973986 -0.69349563 20 135 122
-0.024656409 -0.25002241 -0.69346011 20 135 122
-0.045201194 -0.25585428 -0.69335037 26 133 117
-0.042932495 -0.25524747 -0.69330549 26 133 117
-0.041251425 -0.25523841 -0.69320208 25 134 116
-0.04372577 -0.2557146 -0.69327348 26 133 117
-0.043282595 -0.25500607 -0.69336951 26 133 117
-0.043960758 -0.25569978 -0.69329071 26 133 117
-0.042436011 -0.25482872 -0.69334757 26 133 117
-0.039118662 -0.25520176 -0.69311827 23 133 117
-0.037159607 -0.2555975 -0.69302082 20 135 118
-0.038445391 -0.25496155 -0.69313318 23 133 118
-0.039074108 -0.25311384 -0.69342268 25 134 118
-0.039531935 -0.2537984 -0.69333512 25 134 117
-0.034002904 -0.2552518 -0.6928978 17 130 120
-0.033674147 -0.25367105 -0.69315481 17 130 120
-0.033404283 -0.25486717 -0.69292784 17 130 120
-0.035208967 -0.25535205 -0.69295585 18 132 118
-0.036601491 -0.25535265 -0.69304311 19 135 118
-0.034430183 -0.25331712 -0.69326442 18 130 120
-0.036647692 -0.25455141 -0.69314688 20 135 118
-0.035720751 -0.2521143 -0.69344562 20 133 120
-0.034047794 -0.25266069 -0.6933493 18 130 121
-0.036648877 -0.25527018 -0.6930545 19 135 118
-0.031142421 -0.25540516 -0.69275421 18 130 122
-0.029686002 -0.25331789 -0.69305933 16 132 121
-0.029324822 -0.25405496 -0.69292492 17 132 122
-0.029443717 -0.25360015 -0.69300467 17 132 122
-0.031096723 -0.25521237 -0.69278508 18 130 122
-0.031933449 -0.25451443 -0.69292802 16 130 121
-0.031791486 -0.25321844 -0.69315022 16 130 121
-0.031835221 -0.25433004 -0.69295663 16 130 121
-0.032046515 -0.25380561 -0.69305694 16 130 121
-0.032863062 -0.25533137 -0.69282049 16 130 120
-0.031480335 -0.25265923 -0.69323641 16 130 121
-0.027452029 -0.25531492 -0.69264752 21 133 123
-0.026585355 -0.25475049 -0.69271982 21 133 122
-0.026164047 -0.25443155 -0.69276369 21 133 122
-0.025522914 -0.25385198 -0.69284886 21 135 122
-0.027085558 -0.25245181 -0.69315737 17 134 122
-0.027468903 -0.2535778 -0.69297493 18 134 122
-0.0273418 -0.25319144 -0.69303763 17 136 122
-0.026721276 -0.2520411 -0.69322032 17 134 122
-0.028800262 -0.25218934 -0.69322854 15 132 121
-0.026654284 -0.25223291 -0.69318718 17 134 122
-0.024776174 -0.25227705 -0.69312143 19 134 121
-0.04937277 -0.25784305 -0.69338399 27 134 117
-0.049220789 -0.25796849 -0.6933502 27 134 117
-0.045625187 -0.25972456 -0.69278932 23 133 117
-0.046710253 -0.25780633 -0.69315219 25 134 116
-0.045301504 -0.25857961 -0.69293952 23 133 116
-0.045826357 -0.25714323 -0.69319153 26 133 117
-0.046185646 -0.25714388 -0.69321603 26 133 117
-0.046795063 -0.25799233 -0.69312996 25 134 116
-0.047284193 -0.25711089 -0.69332564 26 134 117
-0.046628121 -0.25709206 -0.69326663 25 134 116
-0.0457142 -0.25633037 -0.69331479 26 133 117
-0.041262727 -0.25813791 -0.69278055 24 135 115
-0.042705011 -0.2588504 -0.69275302 24 133 116
-0.043465815 -0.25924689 -0.69273561 23 133 116
-0.04190176 -0.2595951 -0.69261289 24 135 115
-0.042627875 -0.25851411 -0.6927951 24 133 116
-0.043469481 -0.25950241 -0.69270098 23 133 116
-0.044118725 -0.25657502 -0.69316506 25 133 117
-0.041345447 -0.25607616 -0.6930669 25 133 116
-0.042437769 -0.25596181 -0.69315231 25 133 116
-0.041828353 -0.2564038 -0.69304776 24 135 115
-0.043326527 -0.2571201 -0.69303352 25 133 117
-0.037500173 -0.25864232 -0.69255078 18 134 116
-0.040559471 -0.25947788 -0.69257081 25 134 116
-0.038091768 -0.25749588 -0.69276857 20 135 117
-0.038324095 -0.25742644 -0.69279188 21 133 117
-0.037517164 -0.25950989 -0.69240981 17 136 115
-0.039586011 -0.25763479 -0.6928032 23 135 116
-0.03955118 -0.2563681 -0.69297481 23 135 116
-0.040905774 -0.25920188 -0.69262123 25 134 116
-0.039867956 -0.25724408 -0.69286305 24 133 117
-0.039664317 -0.25779611 -0.69278306 23 135 116
-0.034740768 -0.25954968 -0.69221455 18 134 118
-0.033373896 -0.2586126 -0.69227827 18 132 120
-0.033457298 -0.25759554 -0.69245964 18 130 120
-0.035086222 -0.25897911 -0.69233775 18 132 118
-0.035676911 -0.25875336 -0.69241905 17 132 118
-0.033901948 -0.2593284 -0.69219255 19 132 120
-0.034874279 -0.25586712 -0.69284451 18 132 118
-0.037077766 -0.2583693 -0.69257349 18 134 117
-0.03559307 -0.25680268 -0.69273657 17 134 118
-0.035983458 -0.25739771 -0.69266373 17 134 118
-0.035059027 -0.25647697 -0.69275635 18 132 118
-0.036533192 -0.25621033 -0.69289237 19 134 118
-0.032236472 -0.25887445 -0.69219172 20 132 122
-0.030380869 -0.25726125 -0.69241458 20 132 123
-0.029620489 -0.25847906 -0.69219041 18 132 123
-0.031211916 -0.259305 -0.69209296 19 132 122
-0.030370582 -0.25914353 -0.69209826 18 132 122
-0.031197771 -0.25599077 -0.69265717 19 128 122
-0.032863017 -0.25688452 -0.6925537 18 130 120
-0.032528192 -0.25605732 -0.69268626 17 130 120
-0.032191649 -0.2572962 -0.69246227 18 132 121
-0.031959388 -0.25771534 -0.69238287 19 132 122
-0.028659601 -0.25949794 -0.6919893 17 132 122
-0.028205227 -0.25902584 -0.69204843 19 132 123
-0.028593725 -0.25961813 -0.69196945 17 132 122
-0.026983015 -0.25947294 -0.69194806 18 134 122
-0.028348565 -0.2564168 -0.69248682 21 132 124
-0.029076688 -0.25859457 -0.69215304 18 132 123
-0.028115708 -0.25769684 -0.6922617 20 132 123
-0.028666163 -0.25857258 -0.69213873 19 132 123
-0.02796757 -0.25590757 -0.69255561 21 133 123
-0.023888048 -0.25925565 -0.69187957 20 133 124
-0.024206795 -0.25857356 -0.69201106 21 137 122
-0.025277562 -0.25793979 -0.6921339 21 135 122
-0.053242311 -0.26271784 -0.69290102 38 133 109
-0.052961867 -0.26263905 -0.69288212 39 132 108
-0.054110777 -0.26197332 -0.6931116 34 133 112
-0.053497642 -0.26184654 -0.69306332 34 133 111
-0.052885327 -0.26129413 -0.6930806 33 134 110
-0.049238779 -0.26151896 -0.69274217 27 137 112
-0.049796388 -0.26125529 -0.69283819 29 135 111
-0.049319848 -0.26176116 -0.69270849 27 135 112
-0.049681209 -0.26230365 -0.69264972 30 135 111
-0.050656971 -0.26317295 -0.69259179 34 135 109
-0.050965149 -0.2613453 -0.69292152 32 134 110
-0.051625185 -0.26148847 -0.69294965 33 134 110
-0.05244479 -0.26103109 -0.69308239 32 134 111
-0.050189398 -0.26112568 -0.69289625 30 136 111
-0.047647715 -0.26352069 -0.69227928 27 134 112
-0.045283522 -0.26310858 -0.69217861 24 133 113
-0.04687969 -0.26315644 -0.69228673 26 134 113
-0.046854962 -0.26174459 -0.69253105 25 134 114
-0.047375582 -0.26275584 -0.69239277 26 136 113
-0.045807436 -0.26143602 -0.69250846 24 133 115
-0.046800513 -0.26019877 -0.69278997 24 135 115
-0.047973827 -0.26248735 -0.6924817 27 134 114
-0.048285089 -0.26261187 -0.69248182 27 135 112
-0.047599491 -0.26041952 -0.69280714 25 134 115
-0.046511613 -0.25994694 -0.69281292 24 133 116
-0.047218893 -0.26203752 -0.69250643 26 134 114
-0.04159648 -0.26177666 -0.69221526 27 135 115
-0.04172086 -0.26332098 -0.69194287 28 136 116
-0.041658271 -0.26081604 -0.69239229 26 134 116
-0.041999079 -0.26138151 -0.6923086 26 134 116
-0.041680146 -0.26228654 -0.69212765 27 135 115
-0.043550972 -0.26239184 -0.69221061 25 133 114
-0.044679392 -0.26180908 -0.69236714 24 131 115
-0.043686386 -0.26032987 -0.69257724 24 131 116
-0.044912688 -0.2632927 -0.69211966 24 133 113
-0.044681527 -0.26277247 -0.69219923 24 133 115
-0.044275146 -0.26301622 -0.69213718 24 133 113
-0.039863631 -0.26314688 -0.69186074 27 137 117
-0.038406663 -0.26146221 -0.69209671 20 137 115
-0.03953201 -0.26272419 -0.69192249 26 137 117
-0.039696239 -0.26241246 -0.6919995 26 137 117
-0.039403062 -0.26130205 -0.69218683 24 136 116
-0.040735077 -0.26175192 -0.69217366 27 137 115
-0.039659966 -0.26063427 -0.69232064 23 135 116
-0.040225282 -0.26111525 -0.69226265 25 136 116
-0.039772056 -0.26139456 -0.69218898 24 136 115
-0.034430996 -0.26149786 -0.6918081 20 135 118
-0.034792989 -0.26138011 -0.69185477 21 133 118
-0.036148585 -0.261127 -0.69199896 20 133 117
-0.034765247 -0.2606447 -0.69199878 20 135 118
-0.035903323 -0.25993735 -0.6922254 18 134 117
-0.036128033 -0.26011947 -0.69220418 18 134 117
-0.032511313 -0.26099199 -0.69180781 19 134 120
-0.030340184 -0.26028305 -0.69188964 18 132 122
-0.031806417 -0.25999105 -0.69198686 19 132 122
-0.032994919 -0.26036367 -0.69194466 19 134 120
-0.027069733 -0.26021156 -0.69181639 18 134 122
-0.028138971 -0.26003927 -0.69187754 17 132 122
-0.024307903 -0.25977883 -0.69180906 18 134 123
-0.061023768 -0.26465014 -0.6933707 36 132 113
-0.060760543 -0.26452279 -0.69336998 35 132 113
-0.06015576 -0.26743189 -0.69278598 33 135 111
-0.057751469 -0.26573735 -0.6928497 36 133 112
-0.056769248 -0.26684719 -0.69252324 37 133 111
-0.058007997 -0.26475325 -0.6930663 36 133 113
-0.05836039 -0.26421598 -0.69319671 36 132 113
-0.059923816 -0.26440859 -0.69331175 35 132 113
-0.058062106 -0.2644428 -0.69312739 36 133 113
-0.054786053 -0.2661435 -0.69244063 40 132 109
-0.053645063 -0.2646766 -0.69260204 41 133 107
-0.05349113 -0.26386324 -0.69274431 42 133 107
-0.055785228 -0.26617947 -0.69254494 38 132 110
-0.053978037 -0.26460084 -0.69265383 41 133 108
-0.054610424 -0.26484293 -0.69267648 40 133 108
-0.049926519 -0.26603875 -0.69194794 36 134 112
-0.049242042 -0.2655322 -0.69198239 33 135 111
-0.050003752 -0.26425463 -0.69233191 33 133 111
-0.051775735 -0.26517388 -0.69231308 39 133 110
-0.051140673 -0.2643936 -0.69240892 36 135 109
-0.050703339 -0.26479709 -0.69228899 36 134 111
-0.051235773 -0.26487103 -0.69232333 36 135 110
-0.045886315 -0.26460561 -0.69191808 28 134 113
-0.048758451 -0.26503459 -0.69203949 32 136 111
-0.047724731 -0.265095 -0.69195098 31 135 112
-0.047770653 -0.26537034 -0.69189489 33 134 112
-0.046984103 -0.26495352 -0.69192755 30 135 112
-0.041572567 -0.26372984 -0.69185799 28 138 115
-0.060974933 -0.26779127 -0.69280052 35 135 111
-0.061020184 -0.26770717 -0.69281989 34 135 111
-0.039922528 -0.28681782 -0.68781936 67 135 104
-0.040819038 -0.28675354 -0.68779737 77 133 104
-0.037562776 -0.2885142 -0.68751776 60 131 109
-0.037969667 -0.28790882 -0.68766499 46 139 106
-0.039136086 -0.28866678 -0.68745625 62 138 107
-0.038484775 -0.28836662 -0.68754619 54 139 107
-0.037525732 -0.28719458 -0.68783647 40 139 105
-0.03518369 -0.28713506 -0.68782407 32 139 106
-0.035997454 -0.28731707 -0.68779564 38 137 107
-0.029580694 -0.28786245 -0.68774444 28 138 111
-0.030052546 -0.28825346 -0.68764991 29 139 109
-0.0309678 -0.28748569 -0.68777966 28 139 109
-0.029826974 -0.28826016 -0.68765545 29 139 110
-0.032341678 -0.28786221 -0.68766063 30 140 107
-0.030287327 -0.29023114 -0.6872372 33 143 106
-0.030577108 -0.28991175 -0.68729389 33 143 106
-0.033132371 -0.28750125 -0.68771106 30 140 106
-0.030676145 -0.29051527 -0.68716788 33 146 103
-0.026902134 -0.29078838 -0.68720549 33 137 109
-0.028093535 -0.28983679 -0.68737435 32 138 110
-0.02858525 -0.28980321 -0.68737042 32 139 109
-0.028671397 -0.2909255 -0.68713832 34 142 107
-0.028663887 -0.2906366 -0.6871978 33 142 107
-0.026732789 -0.28863522 -0.68763751 33 133 113
-0.027366852 -0.28886968 -0.68758613 30 136 112
-0.025480229 -0.28910896 -0.68755847 34 133 114
-0.028833011 -0.28724042 -0.68788564 27 137 113
-0.025907177 -0.28988367 -0.68740511 33 133 112
-0.023357151 -0.28947291 -0.68752778 38 134 115
-0.022769501 -0.29059136 -0.68732345 38 133 114
-0.023649896 -0.28987277 -0.68744516 37 134 114
-0.023456261 -0.28978294 -0.68746614 37 134 115
-0.022847634 -0.29065472 -0.68730974 37 135 113
-0.022662625 -0.28870144 -0.68765569 35 135 115
-0.022011533 -0.28898969 -0.68760371 35 134 115
-0.024382116 -0.2877672 -0.68782145 35 134 116
-0.023217484 -0.28857428 -0.68768042 36 134 116
-0.024670279 -0.28774109 -0.68782771 35 134 116
-0.021035703 -0.29047447 -0.68734354 39 135 115
-0.019599451 -0.28806025 -0.68770409 36 138 116
-0.020984758 -0.28872725 -0.68763036 36 134 115
-0.020938167 -0.28838468 -0.68768561 34 135 115
-0.020226318 -0.28768069 -0.68778306 34 135 116
-0.019764239 -0.29046541 -0.68734682 40 136 115
-0.019121604 -0.29091901 -0.68728817 40 136 115
-0.019395761 -0.29046652 -0.68734813 40 136 116
-0.021221278 -0.29087025 -0.68728667 39 135 115
-0.019240687 -0.29061097 -0.68732929 40 136 115
-0.025460003 -0.29166195 -0.68709463 38 133 111
-0.025970943 -0.29245278 -0.68695927 43 133 111
-0.026056768 -0.29219079 -0.68699443 43 132 112
-0.023330156 -0.2921668 -0.6870622 42 135 113
-0.025365228 -0.29312184 -0.68688357 45 135 111
-0.023728343 -0.2932528 -0.68689531 47 135 113
-0.024308408 -0.29141429 -0.68715411 38 134 113
-0.023507802 -0.29296547 -0.68694168 46 135 113
0 0 0 1 0 0 0 1 0 0 0 1 0 0 0 0 0 701 1 0 0
