ply
format ascii 1.0
comment PCL generated
element vertex 626
property float x
property float y
property float z
property uchar red
property uchar green
property uchar blue
element camera 1
property float view_px
property float view_py
property float view_pz
property float x_axisx
property float x_axisy
property float x_axisz
property float y_axisx
property float y_axisy
property float y_axisz
property float z_axisx
property float z_axisy
property float z_axisz
property float focal
property float scalex
property float scaley
property float centerx
property float centery
property int viewportx
property int viewporty
property float k1
property float k2
end_header
0.0032021194 0.47563574 -0.87919939 43 139 117
0.003233619 0.47130319 -0.87750894 40 141 113
0.003207213 0.47236043 -0.87789124 41 140 114
0.0024719688 0.47155073 -0.87888479 37 143 110
0.0026996487 0.47094598 -0.87830412 38 142 110
0.0025349702 0.47106576 -0.87862277 37 143 110
0.0027582282 0.47187313 -0.87850022 38 141 112
0.0031971852 0.47425839 -0.87854099 43 139 116
0.0018443607 0.46774995 -0.87848192 41 140 110
0.0019161261 0.46795034 -0.87836409 40 140 110
0.0021230939 0.46957803 -0.87871754 36 142 109
0.0021075394 0.4688012 -0.87840086 38 142 109
0.0026490665 0.46726763 -0.8769241 43 139 111
0.003141291 0.46904165 -0.87687784 41 140 110
0.0031146784 0.46879259 -0.87683368 41 140 110
0.0033996054 0.47003609 -0.87679523 42 140 112
0.0034923309 0.46875948 -0.8761788 44 138 112
0.0025830409 0.46936968 -0.87794626 38 143 108
0.0038002802 0.4705914 -0.87631243 43 138 114
0.00095075078 0.46369925 -0.87929499 57 137 116
0.001396841 0.46296471 -0.87762654 55 137 117
0.0019409886 0.46567297 -0.87726283 46 138 113
0.0012710304 0.46321094 -0.87811977 56 137 117
0.0029455177 0.46613193 -0.8759675 46 138 112
0.002230275 0.46553883 -0.87675565 46 138 113
0.002078701 0.46591833 -0.87715787 45 138 113
0.0021114608 0.46586353 -0.8770836 45 138 113
0.0012652125 0.46027672 -0.87667155 53 137 116
0.00111061 0.46139219 -0.87769711 55 138 116
0.0006648273 0.46106815 -0.87920988 55 138 116
0.0010798546 0.46094161 -0.8776145 54 138 116
0.00062407937 0.46033797 -0.87908173 54 139 115
0.001736066 0.49817589 -0.8967036 46 146 115
0.0017699576 0.49823132 -0.89660513 46 146 115
0.0014852764 0.49574813 -0.89573395 47 148 110
0.0013729364 0.49469069 -0.89539593 47 148 108
0.0014524725 0.49720412 -0.897403 47 148 113
0.0013767517 0.49716848 -0.89785337 47 148 112
0.0014572178 0.49752474 -0.89769369 47 147 114
0.0013821238 0.49584821 -0.89649642 47 148 110
0.0013171685 0.49559021 -0.89679646 49 146 110
0.0012139954 0.49475279 -0.89694959 51 144 109
0.0011229006 0.49571496 -0.89879054 54 143 111
0.0012711298 0.49464428 -0.89629114 50 147 108
0.0012194271 0.49621564 -0.89836383 51 145 111
0.0012938674 0.49445164 -0.89587927 48 147 108
0.0009840132 0.49091208 -0.89594692 53 145 107
0.00097954564 0.49041167 -0.89556777 52 146 106
0.00091180403 0.49061614 -0.89624524 54 145 108
0.0011259019 0.49291897 -0.89623594 52 145 107
0.0012112949 0.49276572 -0.8952955 50 147 107
0.0011412987 0.49231544 -0.89561969 51 146 106
0.0010679694 0.4915905 -0.8957628 52 145 106
0.0013037112 0.493691 -0.89512414 48 148 107
0.000547237 0.48847103 -0.89783794 61 140 115
0.00053577556 0.4866581 -0.89718312 61 138 116
0.0006922473 0.486954 -0.89560318 57 143 114
0.00050073315 0.48843032 -0.89832783 62 139 115
0.00061513128 0.4883408 -0.89704114 58 143 114
0.00056285301 0.48795444 -0.89744532 60 140 115
0.00069520233 0.48832211 -0.89639521 57 143 113
0.00075731386 0.48993421 -0.89690828 57 144 111
0.0010153129 0.49008387 -0.89506125 52 147 106
0.0007457803 0.4866533 -0.89500111 55 144 114
0.00075236557 0.48910066 -0.89643896 57 143 112
0.00029938362 0.48479551 -0.89799583 61 136 116
0.00017955223 0.48246467 -0.89685225 54 141 113
0.00022144364 0.48333904 -0.89732111 57 139 114
0.000286939 0.4828119 -0.89585686 57 138 116
0.00023628333 0.4830392 -0.89678007 56 139 114
0.00034048784 0.48301086 -0.89540994 58 137 117
0.00039562146 0.48322943 -0.89505625 57 137 117
0.00054205034 0.48625144 -0.89688587 60 138 116
0.00055012282 0.48535094 -0.89577657 58 139 116
0.00054497161 0.48618731 -0.89678127 60 138 116
2.0313775e-05 0.48182428 -0.8983072 52 145 110
-4.2564759e-05 0.48077479 -0.89833415 51 142 112
-5.6751269e-05 0.47931421 -0.89714783 51 138 114
-3.8645936e-05 0.48015779 -0.89766759 51 141 113
4.6227651e-06 0.48080009 -0.89757115 52 141 112
-9.3750437e-05 0.47905934 -0.89751709 50 138 113
3.9901941e-05 0.47988641 -0.89613611 53 138 113
8.787711e-05 0.4793584 -0.89499402 54 135 116
0.00029293413 0.48241341 -0.89531809 57 137 117
0.00016001237 0.48086044 -0.89552677 54 138 115
6.1106584e-05 0.48217008 -0.89809799 53 144 111
-0.00053348963 0.47648686 -0.89737588 46 139 115
-0.00070468185 0.47575304 -0.89789301 47 138 116
-0.00060173339 0.47608417 -0.89714485 46 139 115
-0.00080097624 0.4746685 -0.89551824 45 140 115
-0.00085031049 0.4752205 -0.8986969 47 138 116
-0.00066908082 0.47574276 -0.89713919 46 139 115
-0.00036148139 0.47664568 -0.89496022 49 136 115
-0.0002775552 0.47709325 -0.89511389 50 136 115
-0.00037729583 0.47670972 -0.89544672 48 137 115
-0.00050357002 0.47646466 -0.8967033 46 139 115
-5.0103685e-05 0.47826511 -0.89538765 52 136 115
-0.00097255805 0.47294015 -0.89818865 47 137 115
-0.00095449522 0.47116998 -0.89730078 46 138 113
-0.00097640202 0.47105858 -0.89763796 45 139 113
-0.00098173029 0.47314131 -0.89841098 47 138 116
-0.00088882749 0.47203335 -0.89646345 50 136 115
-0.00085060718 0.47303635 -0.89594555 48 138 115
-0.00089888606 0.47272557 -0.89684731 50 137 115
-0.0008680459 0.4742521 -0.89655048 47 138 116
-0.00091372256 0.47422779 -0.89746034 47 138 116
-0.00096112111 0.47442466 -0.89845121 47 138 116
-0.0016697486 0.46703836 -0.89816427 46 130 119
-0.001700548 0.46685624 -0.89819592 46 130 119
-0.0013657137 0.46883792 -0.89797938 45 136 115
-0.0014889225 0.46808532 -0.89634567 50 136 116
-0.0012940243 0.46927068 -0.89855397 43 136 115
-0.0011090687 0.4701345 -0.89760214 45 139 113
-0.0013337049 0.46887943 -0.89661628 48 137 114
-0.00094738149 0.47017598 -0.89500362 52 136 114
-0.0010677421 0.47055331 -0.89850491 42 140 113
-0.0012666109 0.46914214 -0.89648032 48 137 114
-0.0010538002 0.47059193 -0.89841539 43 139 113
-0.0020243181 0.4637492 -0.89784819 46 136 116
-0.0021832976 0.46421793 -0.89509618 58 134 117
-0.0020358155 0.46493775 -0.89540541 55 135 116
-0.0021665709 0.46440122 -0.89493376 58 134 116
-0.0020720081 0.4628948 -0.8981809 45 137 115
-0.001712579 0.46668318 -0.8952722 53 134 117
-0.0017452794 0.46629998 -0.8966468 50 132 118
-0.0017137447 0.46672946 -0.89732617 48 131 118
-0.001857486 0.46490014 -0.89726675 47 135 116
-0.0018113379 0.46575648 -0.89600337 51 135 116
-0.0019550363 0.46167183 -0.89693779 48 135 118
-0.0023108097 0.46246824 -0.89515167 58 136 116
-0.0023179874 0.46287912 -0.8958621 55 136 115
-0.0022037793 0.46274701 -0.89667934 51 137 115
-0.0015409631 0.45984301 -0.89670026 50 133 118
-0.0019351339 0.46259096 -0.89880067 42 136 115
-0.0018109614 0.46044204 -0.89575046 52 134 119
-0.001859418 0.46151683 -0.89738035 47 135 117
-0.0019495917 0.46221033 -0.89798194 44 136 116
-0.0016387597 0.46076435 -0.89766592 45 135 116
0.00069518189 0.4808853 -0.91058385 48 141 108
0.00031032567 0.47746864 -0.91116166 25 144 104
0.0039918725 0.49460894 -0.88661146 45 145 109
0.003536704 0.49218354 -0.88636547 46 146 108
0.0040163118 0.49199533 -0.88505477 48 144 110
0.0031234603 0.49084651 -0.88668156 45 146 106
0.0039242366 0.49251539 -0.88556886 47 145 110
0.0039312127 0.4919689 -0.88525486 47 145 110
0.0032381306 0.49091482 -0.88642967 45 147 106
0.0039665587 0.49359855 -0.88607639 45 146 109
0.0041153519 0.49380156 -0.88583559 45 145 109
0.0044095223 0.49393818 -0.88520968 44 143 110
0.0039070081 0.49382901 -0.88634914 45 146 109
0.0021194583 0.4869881 -0.88657814 50 144 112
0.0029924875 0.48719475 -0.88516104 55 139 113
0.0027770111 0.48882392 -0.88642389 48 144 108
0.0023435235 0.4876788 -0.88656706 48 144 110
0.0024064528 0.48792261 -0.88658834 48 144 110
0.0032335473 0.48692071 -0.88458771 58 136 115
0.0030228617 0.49003047 -0.8865326 45 146 106
0.0041846191 0.49019888 -0.88366312 51 143 111
0.0041356087 0.48998636 -0.88371325 51 143 111
0.0030239529 0.49012455 -0.88656229 45 146 106
0.0036163214 0.48795119 -0.88431937 57 137 113
0.0042445147 0.48951384 -0.88327569 54 140 113
0.0017529948 0.48575699 -0.88697648 50 144 114
0.0014228694 0.48244306 -0.88669473 41 145 114
0.0018028371 0.48524496 -0.88655919 50 143 114
0.0017604898 0.48455805 -0.88636422 47 144 115
0.0019347041 0.48588815 -0.88632762 51 143 115
0.0023068893 0.48359713 -0.884368 42 149 117
0.0020467096 0.48492813 -0.8855502 47 145 116
0.0024725969 0.48467156 -0.8846758 49 144 117
0.0021053341 0.48585722 -0.88596767 52 143 115
0.0025645574 0.48590314 -0.8851912 55 140 116
0.0023443263 0.48619324 -0.88573492 55 140 116
0.0019148843 0.4822033 -0.88439286 36 152 117
0.0018711183 0.48095644 -0.88413101 34 147 114
0.0018153762 0.48143861 -0.88455862 36 147 115
0.0015400151 0.48129743 -0.88574344 38 144 113
0.0012024571 0.47864062 -0.88624823 43 138 114
0.0011687437 0.4804762 -0.88708621 45 140 115
0.0012905878 0.47965184 -0.88623625 42 141 113
0.0016047291 0.48001921 -0.88497967 36 142 111
0.0012341797 0.47979295 -0.88653952 43 139 114
0.001036733 0.47883716 -0.88705748 46 139 115
0.0023742227 0.48149994 -0.88326347 37 148 116
0.0023697016 0.48236769 -0.88358432 38 151 118
0.0011238976 0.47678298 -0.885526 44 138 116
0.0010267755 0.47762698 -0.8864767 45 138 115
0.00093221042 0.47556689 -0.8858211 42 141 114
0.00062613375 0.47485384 -0.88696653 41 142 111
0.0012041321 0.47619706 -0.88480169 43 138 117
0.00099700445 0.47800985 -0.88683623 46 139 115
0.0014882782 0.47648448 -0.88371193 37 140 114
0.0011448294 0.47697672 -0.8855322 44 138 116
0.0011593305 0.47738892 -0.88571554 44 137 116
0.0014800099 0.47593132 -0.88341624 38 139 115
0.0013938026 0.4756107 -0.88360614 39 138 115
0.0010167741 0.47154105 -0.8840726 44 138 110
0.00092910352 0.47074458 -0.88425088 45 137 110
0.00073726574 0.47117731 -0.88529193 46 138 111
0.0010707118 0.47088334 -0.88361949 45 138 110
0.00096789515 0.47127464 -0.88422519 44 139 110
0.00077323656 0.47438827 -0.88603634 40 142 111
0.00091907574 0.47460589 -0.88536066 40 141 113
0.0010338993 0.47360766 -0.88452506 41 140 113
0.0011464111 0.47212195 -0.88357443 43 137 112
0.0012278056 0.47239581 -0.88323683 43 137 113
-5.3902724e-05 0.46768799 -0.88686121 54 140 112
2.8452079e-05 0.46854275 -0.88707232 52 140 112
0.00021554333 0.46972331 -0.88695168 49 140 111
-2.9689505e-05 0.46712002 -0.88627726 56 139 113
0.0002969983 0.46907711 -0.88598436 51 138 113
0.00047486543 0.46977073 -0.88563132 49 139 112
-0.00053880119 0.4642902 -0.88580376 54 140 115
-0.00077278836 0.46338955 -0.88586313 54 140 115
-0.00042842882 0.46523145 -0.88632977 56 139 113
-0.0004392734 0.46391514 -0.884965 55 139 115
-0.00015398194 0.46531257 -0.88509786 57 139 114
-1.5439116e-05 0.46529377 -0.88429868 57 137 115
0.00011272859 0.46546745 -0.88376826 57 136 115
-0.00019829234 0.46559283 -0.88565338 56 140 113
-0.00026816057 0.46301645 -0.88322866 57 136 116
0.00025824073 0.46671671 -0.88431656 57 137 114
-0.00037659699 0.46217683 -0.88332534 54 139 115
-0.00056625641 0.46216872 -0.88415378 53 139 115
-0.00043217663 0.46282995 -0.88381237 55 138 116
0.0015154092 0.49848169 -0.89923221 47 145 114
0.0014252258 0.49823537 -0.89883703 48 147 115
0.0012829149 0.49730149 -0.89886868 50 146 113
0.0012025951 0.49663544 -0.89918453 52 143 113
0.00049479742 0.4904581 -0.89983082 62 141 114
0.00051529531 0.49124745 -0.90029448 62 142 113
0.00048992026 0.49056229 -0.90007043 62 141 114
0.00044611195 0.49091372 -0.90152246 63 139 114
0.00060040824 0.49094075 -0.89885956 61 141 113
8.652026e-05 0.48658726 -0.90173477 64 134 117
0.00020260178 0.48823932 -0.90226012 63 136 117
0.00035011928 0.48649514 -0.89919388 64 134 117
0.00026093662 0.48776004 -0.90125203 64 134 117
0.00034318364 0.48848125 -0.90118772 63 136 117
0.00038587931 0.48964089 -0.90157485 63 136 116
0.00043526158 0.4899781 -0.90072572 63 138 116
0.00045931095 0.48916852 -0.89940876 63 138 116
0.00042227388 0.48867014 -0.89981788 63 137 116
0.00042948747 0.49000785 -0.90088916 63 138 116
-9.1308437e-05 0.48556221 -0.90241504 63 135 116
-0.0001342957 0.48487896 -0.90216422 61 137 115
-0.00019048783 0.48415747 -0.90198344 60 138 114
-0.00014663152 0.48299623 -0.90064752 56 142 111
-0.00033119149 0.48323345 -0.90228677 59 139 113
-0.00028385993 0.48269632 -0.90145838 57 140 112
-1.0238666e-05 0.48555255 -0.90174031 61 137 115
4.4725042e-05 0.48540241 -0.90110475 61 137 115
7.7218137e-05 0.48581138 -0.90114141 63 135 116
9.1129245e-05 0.4837333 -0.89929026 56 141 112
0.00020556984 0.48512495 -0.89937901 60 137 115
-0.00022535403 0.4786042 -0.89906216 48 137 115
-0.00025673781 0.47863293 -0.89937341 48 137 115
-0.00038028046 0.48065647 -0.90121984 54 139 113
-0.00056287902 0.4787094 -0.90234351 50 137 116
-0.00045527203 0.48016465 -0.90178144 53 137 114
-0.00037214457 0.4815602 -0.90151894 56 139 113
-0.00027568184 0.48216641 -0.90104371 56 141 111
-0.00023808812 0.48162928 -0.90050721 54 141 112
-0.00021180237 0.47905505 -0.89913356 48 138 114
-3.4545228e-05 0.48173338 -0.89897078 51 144 110
-0.00078448374 0.47681427 -0.90200549 48 137 116
-0.00077819295 0.47693712 -0.9024902 48 137 116
-0.00089229562 0.47555247 -0.89998782 48 137 116
-0.00081430783 0.47648388 -0.90158647 48 137 116
-0.0009977502 0.47464767 -0.90046972 47 137 116
-0.00084285066 0.47636089 -0.90262562 46 137 115
-0.00059204892 0.47760388 -0.90082282 48 137 116
-0.00071470113 0.47690424 -0.9006694 48 137 116
-0.00061251177 0.47738609 -0.90060467 48 137 116
-0.00052118988 0.47792366 -0.90075064 48 137 116
-0.00080640201 0.47594982 -0.89973259 48 137 116
-0.00074882217 0.47663754 -0.90048939 48 137 116
-0.0010153402 0.47241771 -0.9009732 42 137 113
-0.0010322402 0.47419867 -0.90239096 45 135 114
-0.0010027543 0.4723388 -0.90108162 42 137 113
-0.00096684485 0.47240222 -0.90166032 40 136 113
-0.00094215601 0.47222394 -0.90185106 39 136 112
-0.0010445013 0.47114629 -0.89882892 42 140 113
-0.001008287 0.4733493 -0.89924598 45 140 114
-0.0010425805 0.47293228 -0.90104729 43 138 113
-0.0010308598 0.4744789 -0.90227914 45 136 114
-0.0010255973 0.47317386 -0.90020138 45 138 114
-0.0012092825 0.469522 -0.89944965 41 136 114
-0.0013237367 0.46908844 -0.89885211 43 136 116
-0.0019383286 0.46364146 -0.89893144 41 136 115
-0.0015535187 0.46444711 -0.90109837 38 135 116
-0.0015908212 0.46295249 -0.90161002 34 139 113
-0.0015491765 0.46340647 -0.90165925 35 137 114
-0.001631933 0.46393192 -0.90083212 38 136 115
-0.0015698716 0.46143612 -0.89937353 40 136 115
-0.0017848654 0.4623346 -0.8993997 40 137 114
-0.0015980501 0.46191493 -0.89997369 39 136 115
-0.0014109464 0.46147329 -0.90051335 38 136 115
-0.001429203 0.46271902 -0.90244836 33 140 113
-0.00075666694 0.45900711 -0.9027254 37 136 113
-0.0011235435 0.46105784 -0.90257579 35 137 113
-0.0011253963 0.46031275 -0.9008764 38 136 115
-0.00089222344 0.45955783 -0.90220469 37 136 113
-0.00081011537 0.45891106 -0.90219456 38 136 113
-0.0008328759 0.45889077 -0.90195882 39 133 114
-0.00095816533 0.45824039 -0.90224743 40 133 114
0.0038399287 0.46821061 -0.87538964 46 137 113
0.0036192329 0.46580169 -0.87470961 47 137 113
0.0037408667 0.46654332 -0.87488014 46 138 112
0.0026184153 0.49564222 -0.89075273 49 145 112
0.0026510784 0.4950901 -0.89021301 46 147 110
0.0034211874 0.49480465 -0.88821894 47 145 110
0.003136168 0.49489549 -0.88894445 47 146 110
0.0038463967 0.4948675 -0.8871215 45 145 110
0.0018127543 0.49192107 -0.8908931 47 145 109
0.0018701584 0.49074095 -0.89009768 47 144 108
0.0025118748 0.49151179 -0.88845009 43 148 106
0.0019700075 0.49172249 -0.88998193 44 146 108
0.0024523893 0.49173135 -0.88869709 42 149 107
0.0027935165 0.49167889 -0.8878811 43 148 106
0.0029540018 0.49324927 -0.88828486 43 149 108
0.002832558 0.49387902 -0.8888694 43 150 108
0.0035276103 0.49387884 -0.88728857 45 148 108
0.0023300957 0.49380356 -0.88997519 42 152 109
0.0032292097 0.49405861 -0.88805521 44 149 108
0.0019454451 0.48834527 -0.88791764 46 145 109
0.0018182483 0.48872152 -0.88891757 49 143 110
0.0017097921 0.48978066 -0.89041305 53 139 110
0.0013716825 0.48747954 -0.89020407 52 141 116
0.0016195851 0.48943281 -0.89059293 53 139 112
0.0016001974 0.48888257 -0.8902241 54 139 113
0.001599818 0.48678541 -0.88844019 51 143 115
0.0014776796 0.48646286 -0.88879341 51 143 116
0.0024351475 0.4898214 -0.88780326 44 146 105
0.0019856626 0.48912495 -0.88843155 46 146 107
0.00093437836 0.48486456 -0.89091891 50 141 116
0.00092549919 0.48328921 -0.89023161 47 142 113
0.0011157651 0.48429877 -0.88942873 47 142 116
0.0010121852 0.48274863 -0.8893913 46 141 113
0.0009300512 0.48465341 -0.89084792 48 141 116
0.0012120823 0.48369756 -0.88849479 45 142 116
0.0017281069 0.48601916 -0.8872062 51 145 114
0.0015574447 0.48460087 -0.88723427 47 145 113
0.0015805763 0.48620525 -0.88807613 51 143 115
0.0011605269 0.48585677 -0.89002681 50 142 118
0.0012629483 0.48404184 -0.88841343 46 143 116
0.00083829887 0.48034513 -0.88927573 47 140 113
0.00095650845 0.47891456 -0.88763404 46 139 114
0.00092252676 0.47947451 -0.88817948 46 139 114
0.00057075574 0.47952259 -0.89098537 48 141 112
0.00071055361 0.48081768 -0.89051956 47 141 112
0.00099046435 0.48182333 -0.88904196 46 141 113
0.00089946948 0.48178956 -0.88963574 46 141 112
0.0010403394 0.48014873 -0.88775301 46 140 114
0.00085068063 0.48202035 -0.89009577 46 141 112
0.0010882519 0.48152098 -0.88821119 45 141 114
0.0004889447 0.47675717 -0.88947797 46 141 112
0.00045588077 0.47480214 -0.88784814 45 141 112
0.00025601225 0.47485298 -0.88887089 50 138 113
0.00035309885 0.47661641 -0.89001244 50 139 113
-6.7213623e-06 0.47515324 -0.89042908 58 134 115
0.00037954358 0.47492141 -0.88833028 46 140 112
0.00080172991 0.47709268 -0.88743097 45 139 114
0.00055264187 0.47632551 -0.88873786 44 142 112
0.00085745403 0.47794133 -0.88772386 46 140 114
0.00065743085 0.47631624 -0.88790113 43 142 112
0.00070569536 0.47787941 -0.88887054 47 140 113
0.00071828387 0.47691658 -0.88793874 45 141 113
-0.00015553244 0.47327179 -0.89017135 58 134 114
-0.00029545752 0.47184095 -0.89019459 52 138 112
-0.00012516796 0.47118622 -0.8892113 49 139 111
-0.00030978251 0.47218379 -0.89039207 54 136 113
-0.00022328852 0.47420996 -0.89083272 62 131 116
0.00019478389 0.4744924 -0.88891053 51 137 113
0.00036004576 0.47173575 -0.88725549 46 140 111
3.1852294e-05 0.47395349 -0.88954043 55 135 114
0.00011102008 0.47441286 -0.88929504 53 136 114
0.00019391315 0.47170767 -0.88805819 51 136 113
0.00021893322 0.4728924 -0.88830042 50 138 112
-0.00067121943 0.46837905 -0.89024562 52 139 113
-0.00067836221 0.46687749 -0.88953096 54 138 115
-0.00081557489 0.46734163 -0.89048105 54 138 115
-0.00076616282 0.46829683 -0.890701 51 139 113
-0.00060460455 0.46869171 -0.89005375 52 140 112
-0.00022189876 0.4682174 -0.88794965 54 141 111
-0.00034932536 0.47041196 -0.88979638 48 141 110
-0.00031625322 0.46796307 -0.88819861 54 141 111
-0.00031403621 0.46821216 -0.88833743 54 141 111
-3.9393839e-05 0.46959493 -0.88799536 50 140 111
-4.0883635e-05 0.46924353 -0.88779253 51 141 111
-0.0011507733 0.46553755 -0.89095998 53 137 116
-0.0010501305 0.46604705 -0.89069057 53 137 116
-0.0011461402 0.4654291 -0.89074069 53 137 116
-0.00065064285 0.46664605 -0.88915247 55 138 114
-0.0016464686 0.46190083 -0.89083272 51 138 116
-0.0020110619 0.45830128 -0.88977486 53 136 117
-0.002043582 0.45833424 -0.89028555 56 135 118
-0.0023604229 0.45611116 -0.89021009 51 136 116
-0.0020530943 0.45840034 -0.89056706 58 135 118
-0.0021519016 0.4572587 -0.88955134 53 135 117
-0.0022085961 0.4572846 -0.89048094 54 136 117
0.00041957913 0.49143645 -0.90290093 62 139 114
4.4451128e-05 0.48694831 -0.90329969 61 135 117
8.9330992e-05 0.48726255 -0.90354633 60 135 117
0.00032228837 0.48921391 -0.90414214 58 134 117
-0.0003441333 0.48308328 -0.90367031 53 138 114
-0.00032195993 0.48261464 -0.90393054 50 139 113
-0.00037474991 0.48315313 -0.90330774 55 138 113
-0.00017034211 0.48520407 -0.90276897 63 135 116
-0.00052635884 0.47866991 -0.90352577 48 138 116
-0.0003213528 0.47945505 -0.90516585 45 138 115
-0.0003794455 0.47949678 -0.90450639 44 137 115
-0.00046855945 0.48087266 -0.90322173 51 138 114
-0.00057242491 0.47950491 -0.90276676 51 138 115
-0.0006582269 0.47604132 -0.90469176 45 138 112
-0.00048942212 0.47643158 -0.9056173 44 138 111
-0.00041677678 0.47732985 -0.90587491 47 139 112
-0.0003221193 0.47735342 -0.90643156 45 140 110
-0.00037692103 0.47754818 -0.9060691 48 139 112
-0.00070389366 0.47626811 -0.90436423 48 138 113
-0.00098783022 0.47485462 -0.90295529 46 136 114
-0.00069666235 0.47771913 -0.90273422 48 137 116
-0.00058161025 0.47703949 -0.90477955 49 139 113
-0.00057517167 0.47747934 -0.90433139 48 139 113
-0.00069506402 0.47643399 -0.90426451 48 138 113
-0.00092168059 0.47311354 -0.90283382 40 135 112
-0.0008081788 0.47449517 -0.90403521 39 136 110
0.00059677579 0.48269647 -0.90987444 54 137 113
0.00066299463 0.48291323 -0.91027945 57 137 113
0.00050299766 0.47871619 -0.91021329 30 147 101
0.00039701548 0.48024759 -0.90939331 51 141 109
0.00061108707 0.48023558 -0.91042423 43 143 106
0.00060271798 0.47992173 -0.91044772 40 144 104
0.00022329876 0.47998661 -0.90861166 53 139 111
0.00049529015 0.48190698 -0.90945727 57 137 114
0.00032887299 0.48164037 -0.9086439 51 138 114
0.00029290226 0.48103869 -0.90867138 54 138 112
0.00048139825 0.481693 -0.90946102 58 137 114
0.00033219095 0.47753108 -0.91033745 27 145 101
-0.00016206258 0.47706464 -0.90728533 38 142 107
0.00031163782 0.478082 -0.90940237 31 146 102
0.00025843535 0.47846177 -0.90908742 36 145 104
-0.00014134502 0.47726002 -0.90735441 39 142 107
0.00013304144 0.47794709 -0.90856534 36 144 105
0.004956637 0.48971698 -0.8818379 51 139 113
0.0047530415 0.48943287 -0.88219082 52 140 113
0.0045851828 0.48944035 -0.88254231 53 140 113
0.0042353962 0.4883132 -0.88294339 58 137 115
0.0047385064 0.48870599 -0.88202119 54 138 115
0.0029398378 0.483107 -0.88299567 45 146 118
0.0037160798 0.48246223 -0.88123757 48 143 118
0.002272137 0.47868821 -0.88242936 33 141 112
0.002501396 0.47875524 -0.88206416 35 142 113
0.0026121361 0.48008052 -0.88234884 38 144 115
0.0022730683 0.48018596 -0.88295752 34 146 113
0.0027678367 0.48082912 -0.88235831 40 146 117
0.0030166882 0.47915944 -0.8813343 40 141 116
0.0034115049 0.48109406 -0.88133752 45 145 119
0.003669017 0.48094043 -0.88082594 46 143 119
0.0035987897 0.48075309 -0.88089222 46 143 119
0.003317859 0.48185587 -0.88174909 45 144 119
0.0015621227 0.4756695 -0.88291746 37 139 115
0.0018683599 0.47754166 -0.882707 33 140 112
0.0019250161 0.47708711 -0.88220847 34 140 112
0.0016552471 0.47644252 -0.88297033 36 139 114
0.0022207524 0.47593457 -0.88099748 37 140 114
0.0019860023 0.47759286 -0.88232803 33 140 112
0.0020882476 0.47597367 -0.88123381 36 140 114
0.0024407206 0.47733405 -0.88142759 36 140 113
0.0034240633 0.47808045 -0.88017946 43 137 118
0.0021995567 0.47814772 -0.88228875 34 140 112
0.0027543753 0.47798297 -0.88125831 38 140 114
0.0033232204 0.47766179 -0.88011694 43 137 118
0.0031208303 0.47621399 -0.8796531 42 139 116
0.0014683113 0.47400945 -0.88257241 40 138 116
0.0015758811 0.4740442 -0.88212866 40 138 116
0.0017687047 0.47378579 -0.88126361 40 139 115
0.0016154449 0.47318926 -0.88177717 42 138 114
0.0018130961 0.47387415 -0.88109249 40 139 116
0.0018119073 0.4737244 -0.88105464 40 139 114
0.0013295636 0.47093365 -0.88244033 43 137 110
0.0017681546 0.47308913 -0.88107008 40 138 114
0.0019384067 0.47434109 -0.88065797 39 139 116
0.0020212319 0.47216088 -0.87982094 36 142 111
0.0020044583 0.47423843 -0.88047385 39 139 116
0.0022238782 0.47331116 -0.87983918 38 142 113
0.0013652252 0.46758115 -0.88005924 46 138 111
0.0012468239 0.46997079 -0.88224477 45 138 110
0.0015508862 0.46809 -0.87956679 43 139 111
0.0015279895 0.46852612 -0.87997144 42 139 110
0.0016371605 0.46959075 -0.88020974 39 141 109
0.0012885685 0.46824899 -0.88085753 46 138 112
0.0010774259 0.46983904 -0.88287246 47 138 111
0.0006565316 0.46686614 -0.88248742 54 136 114
0.0001801381 0.46393141 -0.88227391 57 137 116
0.00031771447 0.46587586 -0.88311583 57 136 115
0.00019113012 0.46443173 -0.88257587 57 136 116
0.00030636098 0.46302161 -0.88121349 58 136 116
0.00040516045 0.46354574 -0.88122463 58 136 116
0.00040106679 0.4649407 -0.88218802 58 136 115
0.00076576928 0.46460122 -0.88062131 58 136 116
0.00062559161 0.46593913 -0.88203341 57 136 115
0.00090607931 0.46502048 -0.88029987 55 136 115
0.0007321075 0.46582785 -0.8815226 56 135 115
-0.00028286691 0.46275252 -0.88313997 56 137 116
-0.00023961003 0.46234146 -0.88284826 55 138 116
0.00055107346 0.46212217 -0.87999231 58 137 117
0.00011518056 0.46245334 -0.88163567 57 136 116
0.00037911214 0.46177736 -0.88046956 56 137 116
0.0002685971 0.46121448 -0.8806535 54 138 115
6.7393732e-05 0.46202835 -0.88164991 55 138 116
-0.00012996703 0.4621653 -0.88238931 55 138 116
0.0015667286 0.49518993 -0.89464349 46 148 110
0.0017373341 0.49644336 -0.89481044 46 147 112
0.0019388283 0.49626315 -0.89328498 43 149 112
0.0018343272 0.4964104 -0.8941319 45 148 112
0.0018326197 0.49536157 -0.89305526 44 149 111
0.0018269222 0.49422899 -0.89191824 43 152 109
0.0020161944 0.49437392 -0.89106387 43 152 110
0.0021780638 0.49626336 -0.89256638 46 146 113
0.0024828522 0.49633896 -0.89179265 49 144 113
0.001089868 0.49033082 -0.8946963 51 146 106
0.0012286812 0.49168161 -0.89450908 50 147 106
0.0013647754 0.49164599 -0.89363921 51 145 108
0.0013440589 0.49288836 -0.89439589 48 147 107
0.0014900209 0.49107838 -0.89256877 52 142 109
0.0016026949 0.49294579 -0.89274949 47 146 108
0.0016364999 0.49343804 -0.89275843 46 149 108
0.0016143876 0.49207443 -0.89225852 50 145 109
0.0017035903 0.49228445 -0.89176553 48 145 109
0.0015086139 0.49404174 -0.89389431 46 150 107
0.0018615366 0.49346992 -0.89127868 43 150 108
0.00087224069 0.4870657 -0.89382142 54 143 114
0.0010218121 0.48945346 -0.89440268 51 145 108
0.00093682815 0.48634624 -0.89218444 52 142 117
0.00078694505 0.48676896 -0.89463842 55 144 114
0.00092737813 0.48655826 -0.89253908 52 143 116
0.00095583819 0.48673278 -0.89234787 52 143 116
0.001541786 0.49000424 -0.89158034 53 140 110
0.0013341174 0.48889443 -0.89172959 53 140 113
0.0010616198 0.48721695 -0.89169598 51 141 116
0.0011471546 0.4871206 -0.89106071 51 141 117
0.0016312784 0.49007657 -0.89109516 54 139 111
0.00056366972 0.48364216 -0.89388245 54 140 115
0.00069024664 0.48474717 -0.89377451 53 142 114
0.00062312302 0.4834905 -0.89318955 52 140 114
0.00052887248 0.48254257 -0.89315015 53 139 114
0.00065020961 0.48460874 -0.89401078 53 142 114
0.00095379254 0.48539984 -0.89106745 50 142 117
0.00079320301 0.48434612 -0.89221931 50 142 113
0.0007980222 0.48498771 -0.8927573 51 142 114
0.00087232853 0.48560977 -0.89235049 52 142 116
0.00075222109 0.48627362 -0.8945747 54 144 114
0.00044968037 0.47897628 -0.89174914 51 139 114
0.00037258479 0.47995681 -0.89299262 53 138 115
0.00024723355 0.47881132 -0.89331508 52 137 114
0.00022484607 0.47909859 -0.89367771 53 137 115
0.00025145744 0.48115659 -0.89473492 56 137 117
0.00063391664 0.4807353 -0.89109635 48 141 112
0.00068688451 0.48182106 -0.89123321 47 141 112
0.0004434007 0.48022431 -0.89255738 53 138 115
0.00058105955 0.4818688 -0.89223558 51 139 114
0.00051127723 0.480506 -0.89209419 51 140 114
0.00049884839 0.48026502 -0.89207 51 140 114
-0.00047966512 0.47601518 -0.89484644 48 137 116
-0.00039196611 0.47487959 -0.89256203 57 133 117
-0.00066051597 0.47481453 -0.89436001 47 138 115
-0.00025718173 0.47496602 -0.89173853 61 131 116
-0.00029804619 0.47655404 -0.89435643 52 135 116
-0.00045805943 0.47513828 -0.89340752 53 136 115
2.6018315e-05 0.47635803 -0.89161861 57 134 116
7.343202e-05 0.47707111 -0.89233029 56 134 115
8.9001624e-05 0.47824392 -0.89401513 53 135 115
4.8560651e-05 0.47776443 -0.89360714 55 134 116
7.325082e-05 0.47838107 -0.89435703 53 135 115
-0.00081615674 0.4713982 -0.89491266 50 137 113
-0.00080510444 0.47164315 -0.89476734 49 138 113
-0.00069213938 0.47223383 -0.89293832 46 141 112
-0.00065971253 0.47102433 -0.8921653 48 140 111
-0.00079185056 0.47313628 -0.89480883 46 139 114
-0.00064667361 0.47412845 -0.89364249 48 138 114
-0.00067101046 0.47355589 -0.89343482 47 140 113
-0.00034161168 0.47437263 -0.89165342 59 132 116
-0.00057004055 0.47115228 -0.89113063 49 140 111
-0.00038475139 0.47412124 -0.89179105 57 134 116
-0.0013788331 0.46700969 -0.89344966 54 135 116
-0.00087974098 0.47029337 -0.89472783 52 136 114
-0.001472657 0.46684384 -0.89375073 54 135 116
-0.0013515749 0.46689099 -0.89316207 54 135 116
-0.0011700877 0.46915215 -0.89490652 53 135 115
-0.0015629258 0.46711579 -0.89455789 54 134 116
-0.00084524509 0.47009331 -0.89428586 52 136 114
-0.00082072319 0.47012001 -0.89390957 51 137 113
-0.0007780203 0.47032833 -0.8935197 51 138 112
-0.00072497199 0.46992612 -0.89195114 50 139 112
-0.00072711962 0.47028223 -0.8925721 50 139 112
-0.0021629368 0.46415889 -0.89469063 58 136 116
-0.001958427 0.46386072 -0.89339072 55 137 116
-0.0018068249 0.46417558 -0.89308697 53 137 116
-0.0016305656 0.46394807 -0.89222986 50 139 115
-0.0014165093 0.46401781 -0.89120758 50 139 115
-0.0015693442 0.4651663 -0.89292616 52 137 115
-0.0015194269 0.46661592 -0.89380127 54 135 117
-0.0015700313 0.46539363 -0.89310873 52 136 116
-0.0014002448 0.46560574 -0.89237094 53 137 116
-0.0022174052 0.46198285 -0.89482147 58 134 117
-0.0020603517 0.4615005 -0.89451832 56 135 118
-0.0017718882 0.4598425 -0.8948403 53 134 120
-0.0018671991 0.46112287 -0.89396054 54 135 118
-0.0016039931 0.45976955 -0.89419436 51 133 120
-0.0017957732 0.46167928 -0.89309609 53 136 117
-0.0017880169 0.4598538 -0.89210081 54 136 119
-0.0017527166 0.46077192 -0.89140749 54 136 118
-0.0017264578 0.46043843 -0.89203954 54 136 119
-0.0017503313 0.45976576 -0.89256686 54 135 119
-0.0016456617 0.4610351 -0.89215189 52 137 117
-0.0019747636 0.45709214 -0.89330441 48 136 116
-0.0020299868 0.45754057 -0.89235157 53 136 117
-0.0023465927 0.45637766 -0.89122599 52 137 116
-0.0020619056 0.45762971 -0.89201254 53 136 117
-0.0018747186 0.45762172 -0.89368176 49 136 117
-0.0018800859 0.45757586 -0.89367902 49 136 117
-0.0018996275 0.45804885 -0.89296079 53 134 118
-0.0018621022 0.45670322 -0.89482391 44 135 116
-0.0028773586 0.45198017 -0.89323026 44 135 117
0 0 0 1 0 0 0 1 0 0 0 1 0 0 0 0 0 626 1 0 0
