ply
format ascii 1.0
comment PCL generated
element vertex 879
property float x
property float y
property float z
property uchar red
property uchar green
property uchar blue
element camera 1
property float view_px
property float view_py
property float view_pz
property float x_axisx
property float x_axisy
property float x_axisz
property float y_axisx
property float y_axisy
property float y_axisz
property float z_axisx
property float z_axisy
property float z_axisz
property float focal
property float scalex
property float scaley
property float centerx
property float centery
property int viewportx
property int viewporty
property float k1
property float k2
end_header
-0.014462767 -0.4926196 -0.69967443 121 139 113
-0.014109889 -0.49250078 -0.69972306 121 139 113
-0.015051478 -0.49301669 -0.69966918 122 139 114
-0.013199571 -0.49255493 -0.69997185 124 138 114
-0.013242754 -0.49292478 -0.7001031 123 138 114
-0.012889089 -0.49194047 -0.69981003 126 138 115
-0.01207029 -0.49235705 -0.70016271 130 138 117
-0.011211722 -0.49061269 -0.69969755 134 140 118
-0.012476402 -0.49345171 -0.70048696 126 138 116
-0.011223271 -0.4926919 -0.70049345 130 139 117
-0.010505653 -0.49215716 -0.70045882 133 139 118
-0.010138653 -0.49349523 -0.70106155 129 138 116
-0.0084171137 -0.49390453 -0.70161468 128 140 117
-0.0083868373 -0.49320844 -0.70132267 136 138 118
-0.006804226 -0.49315086 -0.70167017 134 142 120
-0.0067057856 -0.49391571 -0.70202202 125 144 118
-0.0089839697 -0.49316031 -0.70117044 136 138 118
-0.0093728416 -0.49364072 -0.70128131 131 137 117
-0.021567931 -0.49742159 -0.69965893 124 138 116
-0.02045409 -0.49787006 -0.70013589 120 138 115
-0.018050624 -0.49734437 -0.7006005 120 137 116
-0.01882326 -0.49678993 -0.70015574 120 138 115
-0.019007817 -0.49754459 -0.70041174 120 138 115
-0.018730063 -0.49609274 -0.69989735 121 139 115
-0.02136709 -0.49743271 -0.69971281 123 139 116
-0.020396588 -0.49672142 -0.69969273 123 139 116
-0.017140426 -0.49458903 -0.69972521 120 140 114
-0.015947491 -0.49545938 -0.70039874 120 138 115
-0.016092399 -0.49441272 -0.69993246 121 139 114
-0.015723655 -0.49446315 -0.70005143 120 139 114
-0.015349707 -0.494481 -0.70015842 121 139 114
-0.016899779 -0.4943901 -0.69970787 121 139 115
-0.015651662 -0.49710691 -0.70117301 124 137 116
-0.016035235 -0.49650788 -0.70080376 120 137 115
-0.016356368 -0.49790481 -0.70131314 124 136 116
-0.014508045 -0.49689615 -0.70141298 127 137 115
-0.015890621 -0.49667591 -0.70091808 121 137 115
-0.014419532 -0.4957087 -0.7009266 124 137 115
-0.010621815 -0.49573094 -0.70185 129 137 116
-0.011942893 -0.49655941 -0.70191228 131 137 116
-0.011404986 -0.49647757 -0.70198655 130 137 116
-0.012185764 -0.49670398 -0.70192075 132 137 116
-0.011231247 -0.49708307 -0.70225692 131 137 116
-0.010501136 -0.49626786 -0.70208323 129 137 115
-0.012471098 -0.49518576 -0.70120394 127 137 115
-0.012447142 -0.49595809 -0.70154268 129 138 115
-0.011783211 -0.4960213 -0.70172834 130 137 116
-0.012222686 -0.49455518 -0.70099139 125 138 115
-0.010356483 -0.49432591 -0.70133781 126 138 115
-0.012898395 -0.49446627 -0.70079178 124 137 115
-0.0062679444 -0.49568 -0.70275515 123 142 119
-0.0066253673 -0.49611479 -0.70283604 124 141 118
-0.0073023797 -0.49636143 -0.70279831 125 141 117
-0.0062452909 -0.49654049 -0.70304382 123 140 118
-0.0077485433 -0.49737793 -0.70305604 126 139 117
-0.008688096 -0.49472216 -0.7018792 126 140 116
-0.0084553277 -0.4946132 -0.70189142 126 140 116
-0.0067789322 -0.49442372 -0.70221186 123 144 118
-0.0087304898 -0.49604127 -0.70238352 126 139 116
-0.0092051188 -0.49566287 -0.70212436 127 138 116
-0.0069586034 -0.49495733 -0.70237768 124 143 118
-0.0054117721 -0.49630761 -0.70311093 125 141 119
-0.0042079091 -0.49603751 -0.70322645 130 140 119
-0.0032576222 -0.49622893 -0.70345145 134 138 119
-0.0044178246 -0.49499881 -0.70284706 128 142 119
-0.0045684138 -0.49541426 -0.70295888 128 141 119
-0.0033753319 -0.49462882 -0.70287877 137 139 120
-0.0040329937 -0.49426851 -0.70264381 134 141 120
-0.001428017 -0.49460149 -0.70315617 138 135 120
-0.027138578 -0.50144988 -0.69999039 115 137 119
-0.026501581 -0.50131375 -0.70006484 115 137 119
-0.026438998 -0.50186682 -0.7002998 116 137 119
-0.02687287 -0.50117153 -0.69993228 115 137 119
-0.024271455 -0.4997651 -0.69994247 116 138 118
-0.024153555 -0.49957898 -0.69989663 116 138 118
-0.024894167 -0.50071931 -0.70017308 116 138 118
-0.022855442 -0.49935001 -0.70011145 119 138 116
-0.022925366 -0.49844545 -0.69974047 118 138 117
-0.021838354 -0.50134647 -0.70137894 120 139 118
-0.023671484 -0.50121582 -0.70073801 119 138 117
-0.023906602 -0.5019474 -0.70101279 118 138 118
-0.022833856 -0.49975258 -0.70030451 119 138 116
-0.022484874 -0.50137573 -0.70118886 120 139 118
-0.021672076 -0.49974337 -0.70066679 121 139 116
-0.017589781 -0.49855185 -0.70124316 120 137 116
-0.017786132 -0.49826202 -0.70106453 119 136 117
-0.017809847 -0.50036228 -0.70199525 127 137 118
-0.01920357 -0.50051636 -0.70171314 123 137 118
-0.018861577 -0.50077045 -0.70191258 126 138 119
-0.018645344 -0.49962366 -0.70145553 121 137 117
-0.021476991 -0.50103706 -0.70134515 121 139 118
-0.021122184 -0.49820527 -0.70009476 121 139 114
-0.021184459 -0.50129735 -0.70155191 121 139 118
-0.019347357 -0.49904883 -0.70099872 120 137 116
-0.019626316 -0.49846321 -0.70064062 120 138 116
-0.02084505 -0.50018162 -0.70111573 121 139 117
-0.014672007 -0.50085795 -0.70296532 135 139 118
-0.014347695 -0.50167763 -0.70332992 136 140 118
-0.014541493 -0.49925652 -0.7024107 134 138 117
-0.015892716 -0.50124252 -0.70285296 135 138 119
-0.016775582 -0.50121391 -0.70266026 134 137 120
-0.017426373 -0.50138581 -0.70255393 132 137 120
-0.016111061 -0.50047296 -0.70252728 134 137 119
-0.014849477 -0.49845713 -0.70199329 131 137 117
-0.015473091 -0.49897006 -0.70204163 131 136 118
-0.017306853 -0.49911889 -0.70157754 124 137 117
-0.017416282 -0.50095248 -0.70236361 131 137 120
-0.013447617 -0.50030041 -0.70301181 136 139 117
-0.011310578 -0.49925444 -0.70303708 134 137 116
-0.011581988 -0.50014019 -0.70330727 135 139 117
-0.01302157 -0.4997867 -0.70290601 136 138 117
-0.012018719 -0.50053817 -0.70336902 136 138 117
-0.011173301 -0.49876469 -0.70289207 133 137 116
-0.010111844 -0.498649 -0.70306164 132 136 116
-0.011701114 -0.498647 -0.70274729 134 137 116
-0.0074426597 -0.49831188 -0.70342177 126 138 117
-0.009414658 -0.49900338 -0.70331401 132 137 116
-0.034501005 -0.50473893 -0.69990408 110 137 119
-0.03390513 -0.5050506 -0.70016414 108 137 119
-0.033452693 -0.50541526 -0.70042121 106 138 119
-0.033888746 -0.50461262 -0.69996333 109 137 119
-0.037019633 -0.50566262 -0.69984812 113 137 120
-0.032700207 -0.50425768 -0.70004553 109 137 119
-0.032165334 -0.5030905 -0.6996246 112 137 120
-0.030341424 -0.50240678 -0.69972456 113 137 119
-0.029967157 -0.50221187 -0.69972032 114 137 120
-0.030101882 -0.50330478 -0.70017946 111 138 120
-0.029856475 -0.50272697 -0.69997895 113 137 119
-0.032581698 -0.50537074 -0.70058662 106 138 119
-0.031787749 -0.50447553 -0.70035595 108 138 119
-0.031653874 -0.50450706 -0.70039535 108 138 119
-0.029553996 -0.50546002 -0.70121014 108 141 121
-0.0279711 -0.50577432 -0.70172226 112 141 121
-0.026305052 -0.50403082 -0.70130831 115 139 120
-0.025609987 -0.50500739 -0.70194751 118 140 119
-0.027971968 -0.50472248 -0.70122093 111 140 120
-0.026232429 -0.50473893 -0.70166391 116 140 120
-0.027405361 -0.50585866 -0.70190394 114 141 121
-0.028423021 -0.50207973 -0.69998664 115 137 120
-0.027373876 -0.50229228 -0.7002905 115 138 119
-0.028775023 -0.50510001 -0.70121115 109 140 121
-0.028759843 -0.50251108 -0.70010334 114 138 119
-0.028927062 -0.50436908 -0.7008667 110 140 120
-0.027495269 -0.50324482 -0.70067459 113 139 119
-0.022381743 -0.50368637 -0.70228851 117 141 118
-0.021529423 -0.50528574 -0.70321971 109 143 118
-0.022870332 -0.50483096 -0.70265299 115 142 119
-0.022447255 -0.50426716 -0.70252359 115 141 119
-0.02264652 -0.50420797 -0.702443 116 141 119
-0.022583472 -0.50327921 -0.70205569 120 140 119
-0.024370635 -0.50365424 -0.70167953 119 140 118
-0.025101537 -0.50371242 -0.70147657 118 139 119
-0.023223618 -0.50215912 -0.70132917 119 139 118
-0.024551375 -0.50338626 -0.70149487 118 139 119
-0.025254846 -0.50495106 -0.70201844 119 140 119
-0.025118914 -0.5048728 -0.70202398 119 140 119
-0.01932293 -0.50447422 -0.70342845 123 140 120
-0.020575278 -0.50515878 -0.70340717 114 141 119
-0.020882314 -0.50370944 -0.70269674 116 141 118
-0.019490492 -0.50359994 -0.70299935 122 140 119
-0.021324905 -0.50536627 -0.70330727 109 143 118
-0.020016314 -0.50430334 -0.70317352 117 141 119
-0.020566113 -0.50358099 -0.70272034 118 140 119
-0.019037776 -0.50323623 -0.70295483 125 139 120
-0.015686035 -0.50244331 -0.70337021 136 139 120
-0.016772337 -0.50317758 -0.70347202 136 137 120
-0.04155679 -0.50779301 -0.69973689 114 138 122
-0.041017078 -0.50964427 -0.70068032 122 139 122
-0.044286128 -0.50966382 -0.69999355 126 138 122
-0.042816352 -0.5091067 -0.70005691 121 139 121
-0.043057416 -0.50836235 -0.69966733 119 138 121
-0.040367205 -0.50787634 -0.70004344 114 138 122
-0.040954817 -0.50912678 -0.70046347 119 139 122
-0.038791452 -0.50670129 -0.69989306 112 137 121
-0.038467959 -0.50693816 -0.70007902 115 137 121
-0.037825212 -0.50902492 -0.70108634 120 138 122
-0.038835865 -0.50775504 -0.70035189 118 138 121
-0.040433951 -0.50952512 -0.7007553 121 139 122
-0.037427932 -0.50755799 -0.70056081 117 137 121
-0.037975244 -0.50892317 -0.70101327 119 137 121
-0.037773669 -0.50888073 -0.70103729 119 137 121
-0.033978052 -0.50914806 -0.70191377 117 138 120
-0.033691689 -0.50686681 -0.70100439 108 138 120
-0.036194891 -0.50922656 -0.70149761 118 138 121
-0.033244211 -0.5089274 -0.70196897 116 138 120
-0.033972692 -0.50833434 -0.70156974 114 138 120
-0.03400097 -0.50910968 -0.70189285 116 138 120
-0.033494063 -0.50586134 -0.70062089 105 138 119
-0.035009738 -0.50644839 -0.70057178 110 137 120
-0.036454085 -0.50855362 -0.7011652 117 137 121
-0.036758069 -0.50698167 -0.70045555 115 137 121
-0.03592658 -0.50665653 -0.70048124 112 137 120
-0.035918161 -0.50698626 -0.7006194 113 137 121
-0.03009098 -0.50803149 -0.70225817 117 140 122
-0.030899124 -0.5092259 -0.7026251 120 139 121
-0.030866312 -0.5074724 -0.70181376 113 140 121
-0.030337214 -0.50780016 -0.70209193 115 140 121
-0.031973582 -0.5091539 -0.70233756 118 139 121
-0.030655228 -0.50752372 -0.70188767 113 140 121
-0.031266503 -0.50742483 -0.70171434 111 140 120
-0.032108109 -0.50797337 -0.70178437 113 139 120
-0.032684077 -0.50746131 -0.70145589 111 138 120
-0.031745777 -0.50684285 -0.70137489 109 140 120
-0.031820364 -0.50717986 -0.7015034 110 139 120
-0.03171711 -0.50720465 -0.70153385 110 139 120
-0.026482804 -0.50786537 -0.70310241 122 140 121
-0.026530039 -0.50853139 -0.70342219 123 140 121
-0.025940139 -0.50817728 -0.70341218 121 141 120
-0.028862104 -0.50773728 -0.70241719 118 140 122
-0.027249601 -0.50719982 -0.70256937 120 140 121
-0.029102447 -0.50729698 -0.70215136 115 140 122
-0.028220054 -0.50805503 -0.70272619 122 139 122
-0.027671415 -0.50797069 -0.702824 123 140 121
-0.028815694 -0.5091697 -0.70309788 125 139 122
-0.025346663 -0.50804782 -0.70351511 120 141 120
-0.025297567 -0.50724292 -0.70312589 120 141 120
-0.023619609 -0.50656688 -0.70324838 114 142 120
-0.048707094 -0.51114917 -0.69999444 141 141 122
-0.046522029 -0.51008844 -0.69981104 132 139 122
-0.041259672 -0.51181912 -0.7017386 132 138 123
-0.041040961 -0.51121402 -0.70147407 129 139 122
-0.041198339 -0.51109099 -0.70137733 129 139 122
-0.041074678 -0.51072824 -0.70121717 127 139 122
-0.043147985 -0.51054049 -0.70067954 130 139 123
-0.041961536 -0.51026201 -0.7007888 127 139 122
-0.043480974 -0.51062292 -0.70065111 131 138 123
-0.037346061 -0.51174551 -0.7024914 121 140 122
-0.039070599 -0.51202089 -0.70229244 130 138 123
-0.038369097 -0.51113802 -0.70198518 127 138 122
-0.039515071 -0.51359439 -0.7029978 132 139 123
-0.037175186 -0.51335931 -0.70333761 119 142 121
-0.039004102 -0.51348698 -0.70304376 129 140 123
-0.04099996 -0.51206386 -0.70191956 132 139 123
-0.040061511 -0.51056522 -0.70134276 125 139 122
-0.040331867 -0.51146978 -0.70175201 129 138 123
-0.039250895 -0.51021475 -0.70132983 124 138 122
-0.039276175 -0.51182014 -0.70214993 131 138 123
-0.038929626 -0.51111066 -0.70185667 128 138 123
-0.036742091 -0.51352179 -0.70350569 120 142 121
-0.034064475 -0.51098996 -0.7027728 120 139 120
-0.033828579 -0.51054955 -0.70259994 119 139 120
-0.034432098 -0.51135725 -0.7028833 121 140 120
-0.034463674 -0.51001191 -0.70220119 119 139 121
-0.037047904 -0.5110935 -0.70222193 120 139 122
-0.033907924 -0.5097698 -0.70219195 119 138 121
-0.036384329 -0.51006603 -0.70183903 121 138 122
-0.035240758 -0.5109297 -0.70250583 119 139 121
-0.035425723 -0.51112765 -0.70256805 119 140 121
-0.0306421 -0.51023602 -0.70317721 127 137 122
-0.033152346 -0.51067924 -0.70280033 124 138 120
-0.031941172 -0.51092291 -0.70321023 128 137 122
-0.029804662 -0.50991488 -0.70321238 126 138 122
-0.024838867 -0.52518237 -0.71181101 129 138 125
-0.02372124 -0.52516896 -0.71212089 130 139 125
-0.023610001 -0.52432996 -0.7117117 130 139 124
-0.022834145 -0.52424276 -0.71188587 131 140 124
-0.023914006 -0.52481908 -0.71188241 130 139 124
-0.022362143 -0.52293557 -0.71134555 133 141 123
-0.024120035 -0.52390993 -0.71138352 131 138 124
-0.021413026 -0.52296948 -0.71161473 133 142 123
-0.020307798 -0.52371746 -0.71224022 134 143 124
-0.033767171 -0.5281592 -0.71154737 123 137 126
-0.035678677 -0.52889109 -0.71145803 116 139 124
-0.033809457 -0.52802062 -0.71147108 124 137 126
-0.031746015 -0.52823609 -0.71189564 119 137 125
-0.02997433 -0.52791816 -0.71202999 112 141 123
-0.031490203 -0.52906543 -0.71239436 112 139 126
-0.030947398 -0.52886271 -0.71237791 111 139 125
-0.03102516 -0.52731323 -0.71154165 120 139 124
-0.031695515 -0.52796954 -0.71177328 120 138 125
-0.030609597 -0.52729946 -0.71158653 119 139 124
-0.028783683 -0.52647698 -0.71148783 119 140 122
-0.027242357 -0.52673584 -0.71202344 119 140 124
-0.026884738 -0.52645725 -0.71196288 121 139 124
-0.026642868 -0.52655369 -0.71207964 120 140 124
-0.027303511 -0.52784818 -0.71260267 114 140 125
-0.026843369 -0.52868515 -0.71313763 116 140 125
-0.026102034 -0.52716672 -0.7125206 123 139 125
-0.027610149 -0.52777207 -0.71249467 112 141 124
-0.026538862 -0.52796841 -0.71283621 119 140 124
-0.023297746 -0.52815992 -0.7137273 135 138 126
-0.022674112 -0.52684337 -0.71326762 131 140 125
-0.023619367 -0.52649164 -0.71283418 129 140 125
-0.024176458 -0.5258373 -0.71233869 129 139 125
-0.023515016 -0.52704644 -0.71315002 128 141 124
-0.023548068 -0.52576232 -0.71247822 129 140 124
-0.02366831 -0.52656645 -0.71285897 128 140 124
-0.023786252 -0.52580118 -0.71243072 129 139 125
-0.033886809 -0.52940881 -0.71212268 117 137 126
-0.034493346 -0.53058535 -0.71258533 112 138 125
-0.033356208 -0.52944249 -0.71226221 118 136 127
-0.035428256 -0.530182 -0.71216351 112 139 124
-0.033769492 -0.53124571 -0.71304464 108 138 125
-0.033427939 -0.53082758 -0.71291178 110 138 125
-0.02831256 -0.53254688 -0.71480256 109 142 123
-0.025904587 -0.53102702 -0.71457261 129 139 124
-0.02657444 -0.53161019 -0.71472156 125 139 124
-0.02690074 -0.5321151 -0.71491104 124 139 124
-0.026909547 -0.53054345 -0.71408045 116 141 124
-0.027917404 -0.53173691 -0.71446919 111 141 124
-0.026927732 -0.53065836 -0.71413559 116 141 124
-0.027062932 -0.52970046 -0.7136119 115 141 124
-0.027206998 -0.53007513 -0.71377254 114 141 124
-0.013752498 -0.48878139 -0.69836622 126 138 114
-0.014279997 -0.48931241 -0.69841433 127 137 115
-0.014050339 -0.48794737 -0.69795567 130 138 116
-0.014196604 -0.48993349 -0.69867897 125 137 114
-0.01139925 -0.48924941 -0.69913161 134 141 117
-0.01175875 -0.48914865 -0.69900614 131 141 116
-0.01103914 -0.48880163 -0.69905001 135 142 118
-0.011199638 -0.48887223 -0.69903761 134 142 117
-0.013618883 -0.48879749 -0.69840974 126 138 114
-0.012969611 -0.48886493 -0.69859904 127 140 114
-0.011255024 -0.48761436 -0.69854724 135 143 117
-0.013262718 -0.48917115 -0.69864357 126 139 114
-0.030502774 -0.49366945 -0.6960336 100 139 116
-0.029730532 -0.49266124 -0.69579166 100 140 117
-0.027516672 -0.49263203 -0.69626945 106 138 118
-0.026901878 -0.49302128 -0.69657171 107 139 118
-0.028700095 -0.49394634 -0.69658065 105 139 117
-0.027714089 -0.49263817 -0.6962291 106 138 118
-0.026491646 -0.49353427 -0.6968829 108 139 119
-0.02675122 -0.49273247 -0.6964795 107 139 118
-0.029248063 -0.49342391 -0.69623733 103 139 117
-0.026176516 -0.49096096 -0.69583821 107 138 118
-0.026525956 -0.49103004 -0.69579291 106 138 117
-0.024972012 -0.49335638 -0.69717169 112 138 119
-0.024330325 -0.49157038 -0.69659203 113 138 117
-0.022311809 -0.49068341 -0.69681615 122 139 115
-0.025073703 -0.49364144 -0.69726443 112 138 119
-0.02231008 -0.49405548 -0.69812351 128 139 120
-0.021735627 -0.49051121 -0.69691384 125 140 115
-0.022398429 -0.49331039 -0.69781691 127 139 119
-0.022550028 -0.49235538 -0.69741428 124 139 118
-0.022325965 -0.49399722 -0.69809729 128 139 120
-0.022561848 -0.49366453 -0.6979112 126 139 119
-0.018678272 -0.49410617 -0.69910628 124 141 116
-0.016921708 -0.49353343 -0.69935888 120 140 114
-0.014211182 -0.49199224 -0.69949776 121 139 113
-0.014026793 -0.49034914 -0.69889349 122 138 112
-0.017147874 -0.49253964 -0.69887829 126 139 116
-0.015846556 -0.4915393 -0.69884837 125 138 114
-0.01559564 -0.49203417 -0.69912928 122 139 114
-0.017123226 -0.49221781 -0.69875139 127 139 116
-0.012470165 -0.49071461 -0.69943416 128 139 115
-0.01228107 -0.49044147 -0.69937217 129 139 116
-0.039152935 -0.49793836 -0.69585943 95 136 120
-0.033329502 -0.49495098 -0.69585943 96 136 117
-0.033218414 -0.49647352 -0.69647878 102 136 118
-0.035425473 -0.49761 -0.69650781 102 136 119
-0.033957511 -0.49690554 -0.69650871 102 136 118
-0.035601158 -0.49716777 -0.6963008 100 137 118
-0.034170315 -0.49617249 -0.69618034 99 137 117
-0.035126369 -0.4960309 -0.69593143 97 137 117
-0.035923444 -0.49614206 -0.69578832 98 137 118
-0.033008374 -0.49646723 -0.6965282 102 136 118
-0.032449283 -0.49550807 -0.69629043 100 137 118
-0.030816473 -0.4952338 -0.69658732 104 138 118
-0.031256899 -0.49511638 -0.69643217 103 138 117
-0.03193263 -0.49632227 -0.69673795 104 137 118
-0.032462548 -0.49726132 -0.69697517 106 137 118
-0.030395305 -0.49579182 -0.69690883 106 138 118
-0.029449571 -0.49685842 -0.69755518 106 138 118
-0.029660309 -0.49631611 -0.69729263 106 138 118
-0.03051446 -0.49768329 -0.69761586 107 138 118
-0.029698066 -0.49554619 -0.69698375 105 139 117
-0.031416543 -0.49754387 -0.69734102 107 137 119
-0.027360689 -0.4975087 -0.69830018 108 138 118
-0.025686933 -0.49752086 -0.69870925 110 138 120
-0.02652798 -0.49728262 -0.69840783 109 138 119
-0.026864387 -0.4966771 -0.69807661 109 138 119
-0.027702674 -0.49780041 -0.69833809 108 138 118
-0.027279496 -0.49680597 -0.69802958 109 138 119
-0.02839944 -0.49597529 -0.69744414 107 138 118
-0.028982818 -0.49667445 -0.69758928 106 139 118
-0.027966745 -0.49549183 -0.6973502 107 139 118
-0.027492963 -0.49452874 -0.69707847 107 139 118
-0.026560713 -0.49482521 -0.6973967 109 138 119
-0.02816058 -0.49430349 -0.69684559 106 139 118
-0.022357037 -0.49766129 -0.69956702 120 138 117
-0.023338234 -0.49741632 -0.69923592 118 138 118
-0.022545855 -0.49570587 -0.69873792 125 139 119
-0.024639094 -0.49779889 -0.69907826 113 137 119
-0.022173645 -0.49709922 -0.69938725 123 138 117
-0.022659933 -0.49416518 -0.69807863 126 139 120
-0.024209172 -0.49472666 -0.69792265 117 138 120
-0.024300808 -0.49607897 -0.69845814 117 138 120
-0.024144426 -0.49679273 -0.69879204 117 138 120
-0.023856051 -0.49637511 -0.69869179 120 138 120
-0.024640189 -0.49647781 -0.69853789 115 137 120
-0.021374557 -0.49647689 -0.699332 126 139 117
-0.020005628 -0.49530992 -0.69923639 125 139 117
-0.020744838 -0.49587822 -0.69926316 126 139 117
-0.017325042 -0.49439609 -0.69959688 120 140 114
-0.045620006 -0.50139695 -0.69599944 114 137 119
-0.046500888 -0.50121742 -0.69575715 113 136 118
-0.04116413 -0.49952364 -0.69608468 95 138 122
-0.041569792 -0.50093663 -0.69660228 100 138 122
-0.043152533 -0.50131464 -0.69645578 105 139 120
-0.04206102 -0.50041664 -0.69628793 100 138 121
-0.043594867 -0.50119168 -0.69631839 107 138 120
-0.041352637 -0.4987638 -0.69572443 94 137 121
-0.043656304 -0.50033402 -0.69592357 107 137 120
-0.040522415 -0.49848104 -0.69578576 93 137 121
-0.040164839 -0.50094813 -0.696904 100 139 122
-0.039321508 -0.49914253 -0.69633168 97 138 121
-0.040181722 -0.4993588 -0.69623214 96 138 121
-0.039764591 -0.49828318 -0.69587237 94 136 120
-0.040374283 -0.50181949 -0.69722581 102 140 122
-0.037291799 -0.50009537 -0.69718832 106 138 120
-0.038946256 -0.50081915 -0.69712293 103 139 121
-0.039608415 -0.50184631 -0.69740939 105 139 122
-0.037166897 -0.4992516 -0.6968587 104 138 119
-0.037385829 -0.49918413 -0.69678086 103 137 120
-0.033933945 -0.50151718 -0.69849116 112 137 119
-0.035540868 -0.50047487 -0.69768894 110 139 119
-0.033730898 -0.49956727 -0.69766575 109 137 119
-0.03429893 -0.50005984 -0.69776553 110 137 119
-0.033427376 -0.49985325 -0.69785696 109 137 119
-0.036728807 -0.50163966 -0.69795746 112 139 119
-0.036100946 -0.49868482 -0.69682211 104 137 119
-0.03681127 -0.5012356 -0.69776917 111 139 119
-0.036217228 -0.50100064 -0.69778192 111 139 119
-0.036775332 -0.49821842 -0.69649684 101 137 119
-0.034765579 -0.49913514 -0.69726568 107 137 119
-0.035261434 -0.49936199 -0.69726807 107 137 119
-0.032118905 -0.50114644 -0.69874281 111 137 119
-0.030512029 -0.5004074 -0.69880003 111 137 119
-0.030079583 -0.5002194 -0.69882011 110 138 118
-0.030452425 -0.50010508 -0.69868183 110 137 119
-0.031287245 -0.50007677 -0.69847178 110 137 119
-0.032425772 -0.49996862 -0.69814557 109 137 119
-0.031028343 -0.49877232 -0.6979546 108 138 118
-0.032994192 -0.50137597 -0.69863319 112 137 119
-0.032608833 -0.49995488 -0.69809473 109 137 119
-0.031918243 -0.49940735 -0.6980198 109 137 119
-0.032815792 -0.49925151 -0.6977309 108 137 119
-0.028899778 -0.49893582 -0.69853193 109 138 118
-0.028461633 -0.49902165 -0.69866657 109 138 118
-0.027597817 -0.49908271 -0.69888479 110 138 118
-0.028781764 -0.49875113 -0.69847727 108 139 118
-0.029273061 -0.49830157 -0.69817168 107 139 118
-0.02852306 -0.50085342 -0.69945437 113 137 119
-0.026557311 -0.49897581 -0.69907719 111 138 119
-0.026124155 -0.49929383 -0.69930536 112 138 119
-0.024459414 -0.49833575 -0.69933134 114 137 119
-0.024503244 -0.4986479 -0.69944221 114 138 118
-0.049918786 -0.50381416 -0.69632941 122 137 118
-0.0502056 -0.50339651 -0.69610512 121 135 118
-0.049762189 -0.50376004 -0.69632864 121 136 118
-0.04907557 -0.50226128 -0.69577402 114 135 116
-0.049085386 -0.50374889 -0.69642252 120 137 118
-0.050522365 -0.5057438 -0.69708437 130 138 121
-0.050887674 -0.50331187 -0.69595629 128 136 119
-0.050950788 -0.50406134 -0.69628608 125 136 118
-0.052023605 -0.50475377 -0.69642591 133 137 120
-0.04880482 -0.50321782 -0.6962325 117 136 117
-0.046930183 -0.50222445 -0.6961385 114 138 117
-0.047075305 -0.50213796 -0.69607455 114 137 117
-0.048622999 -0.50261265 -0.69600201 115 136 117
-0.046255901 -0.50213385 -0.69622082 114 137 119
-0.045752339 -0.50239283 -0.6964249 115 138 119
-0.046608955 -0.50313509 -0.69659406 117 138 120
-0.045549247 -0.50450915 -0.69735819 117 138 120
-0.045102146 -0.5022369 -0.69647294 114 139 119
-0.046331029 -0.50410688 -0.69705796 119 138 121
-0.045276795 -0.50581163 -0.69795382 118 137 121
-0.046915408 -0.50449204 -0.69712329 121 138 121
-0.045952804 -0.50538486 -0.69766086 119 137 121
-0.041889545 -0.50397474 -0.69787049 104 138 121
-0.041379102 -0.5045355 -0.69825017 103 137 122
-0.041926377 -0.50578171 -0.69869965 105 137 121
-0.04195378 -0.50455827 -0.69812596 105 138 122
-0.041161932 -0.5029254 -0.69755465 102 139 122
-0.043535415 -0.50478858 -0.69786185 111 138 121
-0.044390149 -0.50346798 -0.69712579 113 138 121
-0.04380431 -0.50445157 -0.69765455 112 137 121
-0.042905834 -0.50300699 -0.69721794 108 139 122
-0.044519678 -0.50280219 -0.69681948 113 138 120
-0.042093929 -0.50254786 -0.69718093 105 139 122
-0.044002533 -0.50351983 -0.69722259 112 138 120
-0.038411655 -0.50582927 -0.69959062 109 137 121
-0.038789492 -0.50441647 -0.69880301 108 138 121
-0.039928459 -0.50521368 -0.69890684 105 137 121
-0.040092994 -0.50497645 -0.69874859 105 137 121
-0.040394638 -0.505409 -0.6988849 104 137 121
-0.037830297 -0.50368625 -0.69868672 111 138 120
-0.040580563 -0.50443387 -0.69838619 103 137 122
-0.039210726 -0.50392497 -0.69845843 107 138 121
-0.038419351 -0.5022679 -0.69786823 109 139 121
-0.038740203 -0.50241125 -0.69786245 108 139 121
-0.039605051 -0.50403708 -0.69842172 105 138 121
-0.039069992 -0.5030179 -0.69806957 107 139 121
-0.036124058 -0.50327921 -0.69887024 112 139 119
-0.03553319 -0.50430608 -0.69949579 111 138 119
-0.034329187 -0.50392467 -0.69955426 111 137 119
-0.036587402 -0.50481081 -0.69952857 111 138 119
-0.03402698 -0.50328404 -0.69930106 111 137 119
-0.03532216 -0.50253558 -0.6986708 112 138 119
-0.033368323 -0.50240523 -0.69901979 112 137 119
-0.030178359 -0.50197434 -0.69955945 114 137 120
-0.031961244 -0.50266016 -0.69946778 112 137 119
-0.05054573 -0.50788486 -0.69814724 141 139 121
-0.049623445 -0.50860882 -0.69862485 135 140 121
-0.049472708 -0.50817406 -0.69843167 133 140 121
-0.050274879 -0.50884289 -0.69865304 140 139 121
-0.04960528 -0.50907797 -0.69885731 135 140 121
-0.050264049 -0.50633615 -0.69741261 132 138 121
-0.050500326 -0.50615877 -0.69728887 132 138 121
-0.049517576 -0.50633901 -0.697523 131 138 121
-0.047796097 -0.50904894 -0.6991151 129 140 121
-0.045371883 -0.50657392 -0.69830585 119 137 121
-0.047854505 -0.50924146 -0.69919837 129 141 121
-0.046738982 -0.50781649 -0.69868869 124 139 120
-0.046044715 -0.50915653 -0.69944048 128 139 121
-0.048073221 -0.50880992 -0.69895494 128 141 121
-0.048002504 -0.50678551 -0.69797391 126 139 121
-0.048268057 -0.50908393 -0.69905686 129 141 121
-0.048523895 -0.50881737 -0.69888353 129 141 121
-0.04701785 -0.50769079 -0.69858199 125 139 121
-0.048442923 -0.50786972 -0.69843227 128 140 121
-0.043549519 -0.50837308 -0.69955903 121 138 122
-0.04344165 -0.50640625 -0.69863993 115 137 121
-0.044173427 -0.50709689 -0.69880128 118 137 121
-0.044886816 -0.50718582 -0.69867808 121 137 121
-0.043326776 -0.50813502 -0.69949651 119 138 121
-0.04208713 -0.50680155 -0.69914502 111 137 121
-0.043279629 -0.5061512 -0.69855678 113 137 122
-0.040084086 -0.50633043 -0.6994074 107 138 121
0.00072558864 -0.50489336 -0.70775121 124 136 118
0.0012561515 -0.50524783 -0.70797467 130 135 120
0.00088434468 -0.50492555 -0.70779228 125 136 118
-0.0007660042 -0.5056082 -0.70772111 119 140 115
0.00020485744 -0.50440609 -0.70748192 117 137 116
0.0021790187 -0.50506556 -0.70806944 130 134 121
0.0019663353 -0.50406349 -0.70769322 125 133 120
0.0026696967 -0.50539422 -0.70824373 122 135 122
-0.0033197026 -0.50676435 -0.70767766 128 141 115
-0.0020891163 -0.50611597 -0.70767426 117 142 113
-0.025512224 -0.51718229 -0.70779061 128 139 123
-0.023832712 -0.51703721 -0.70816392 135 139 124
-0.024429105 -0.51734126 -0.70815045 132 139 124
-0.024701267 -0.51638544 -0.70761639 133 139 123
-0.030626133 -0.52132767 -0.70862156 136 139 124
-0.029600568 -0.52083606 -0.70854229 133 140 124
-0.031538047 -0.51996756 -0.70790476 135 139 125
-0.030748481 -0.51918191 -0.70765609 132 140 125
-0.029032178 -0.51854908 -0.70764834 128 141 125
-0.027024018 -0.51842386 -0.70802075 129 139 124
-0.026152015 -0.51821095 -0.7081148 129 139 124
-0.028796174 -0.51988888 -0.70827729 131 140 124
-0.027701471 -0.51980793 -0.70847619 131 139 124
-0.027724996 -0.5201503 -0.70863616 132 140 124
-0.02803125 -0.52085847 -0.7089057 134 139 124
-0.027047263 -0.51990426 -0.70870423 133 139 124
-0.027551752 -0.52138484 -0.7093063 136 138 124
-0.027353074 -0.52092016 -0.70912874 135 139 124
-0.027626881 -0.52094471 -0.70906359 135 139 124
-0.025028251 -0.51931745 -0.70897788 135 138 124
-0.042588279 -0.52402717 -0.7076956 132 138 123
-0.042120133 -0.5242933 -0.70794177 132 138 123
-0.041494764 -0.52537441 -0.70866519 130 138 122
-0.037327569 -0.52436399 -0.70895606 124 137 121
-0.038588252 -0.52522737 -0.70918173 125 138 122
-0.038414948 -0.52499551 -0.70908743 125 138 122
-0.037809033 -0.52309543 -0.70814848 127 136 122
-0.037133098 -0.52308345 -0.70827967 125 137 122
-0.037636936 -0.52353829 -0.70843124 126 136 122
-0.03558303 -0.52365774 -0.70898235 130 138 123
-0.036421563 -0.5216049 -0.70762765 131 136 123
-0.036757212 -0.52223271 -0.70789587 128 136 122
-0.036772411 -0.52429503 -0.70904523 125 138 122
-0.036413323 -0.52249044 -0.70812476 129 136 123
-0.036035206 -0.5219214 -0.70789993 131 136 123
-0.034875315 -0.52413309 -0.70936728 132 137 124
-0.035013873 -0.52404648 -0.70929748 131 138 124
-0.035279036 -0.52458346 -0.70951688 130 137 123
-0.031091351 -0.52538639 -0.71054888 130 138 124
-0.031311221 -0.52515346 -0.71041191 131 138 124
-0.030212428 -0.52316397 -0.70957237 133 139 124
-0.030939013 -0.52229375 -0.7090553 136 139 124
-0.030201886 -0.52221984 -0.70911402 135 139 124
-0.031449463 -0.52340412 -0.7095468 135 138 124
-0.031392667 -0.52324629 -0.70947486 135 138 124
-0.026984379 -0.52491194 -0.71113193 128 138 124
-0.026934166 -0.52429861 -0.71086335 130 138 124
-0.027387178 -0.52447903 -0.71082824 129 138 124
-0.027787192 -0.52496904 -0.71094978 127 138 123
-0.027638171 -0.52406675 -0.71057242 131 138 124
-0.027648054 -0.5232904 -0.7102018 133 138 124
-0.027620252 -0.52361149 -0.71036482 132 138 124
-0.027932897 -0.52205545 -0.70952439 135 138 124
-0.027877478 -0.52273279 -0.70986736 133 138 124
-0.027228374 -0.52235061 -0.70986646 135 138 124
-0.027618995 -0.52336287 -0.71024501 133 138 124
-0.027999902 -0.52396911 -0.71043015 130 138 123
-0.025189787 -0.52383119 -0.7110979 133 137 125
-0.025152341 -0.52335203 -0.71088558 135 137 125
-0.021817835 -0.52258074 -0.71130937 133 141 123
-0.024704479 -0.52304399 -0.71084821 135 137 125
-0.025059465 -0.52395868 -0.71118718 132 138 125
-0.022135878 -0.52173245 -0.71078569 136 141 123
-0.0414185 -0.52626967 -0.7091074 124 138 122
-0.041230123 -0.52564251 -0.7088502 129 137 122
-0.04192625 -0.52630067 -0.70900875 124 137 122
-0.040074434 -0.5261296 -0.70932257 123 138 122
-0.039767373 -0.52690083 -0.70975322 117 140 122
-0.039335757 -0.52709532 -0.70993412 115 139 122
-0.035823014 -0.52845788 -0.71121329 118 139 123
-0.035164163 -0.52820247 -0.71124357 121 138 124
-0.034749653 -0.5272882 -0.7108891 125 138 124
-0.033376683 -0.52695715 -0.71105182 129 136 125
-0.035625849 -0.52664596 -0.7104184 124 138 123
-0.035987198 -0.52776843 -0.71085209 120 139 123
-0.035104394 -0.52575171 -0.71011728 128 137 123
-0.035732303 -0.5272631 -0.71067441 122 138 123
-0.034880836 -0.52679396 -0.71062613 126 138 124
-0.034061205 -0.52577484 -0.71032578 132 137 124
-0.03212275 -0.5258407 -0.71067834 131 137 124
-0.032167733 -0.52576292 -0.71063399 131 137 124
-0.031483248 -0.52628595 -0.71098089 126 138 124
-0.031706892 -0.52553046 -0.7105611 131 137 124
-0.031710092 -0.52568716 -0.71064872 130 138 124
-0.029169666 -0.52549464 -0.710841 125 139 122
-0.035486314 -0.48894528 -0.69276762 97 141 116
-0.034924038 -0.48908558 -0.69296491 94 141 115
-0.035539482 -0.48869345 -0.69265759 99 141 116
-0.035765849 -0.49003994 -0.69311553 89 141 114
-0.030433556 -0.48993787 -0.69441414 93 141 115
-0.032450352 -0.48959279 -0.6937601 88 141 114
-0.029821916 -0.48894587 -0.69414526 102 141 117
-0.030650754 -0.48934215 -0.69410574 97 140 116
-0.032491349 -0.49012008 -0.69397444 83 141 113
-0.03251059 -0.48941445 -0.69367445 89 140 114
-0.031931464 -0.48829538 -0.69336647 100 140 116
-0.031649631 -0.48814958 -0.69336945 102 140 116
-0.032469232 -0.48832652 -0.69326639 97 140 116
-0.028382286 -0.48994929 -0.69492126 99 141 116
-0.02621026 -0.48875508 -0.69495046 113 139 117
-0.025578661 -0.49002868 -0.69557518 107 138 117
-0.028846635 -0.48897678 -0.69441122 105 141 116
-0.029019739 -0.48839447 -0.69411671 108 141 117
-0.024558946 -0.48950782 -0.69565135 114 138 117
-0.024831718 -0.48953664 -0.69558334 113 138 117
-0.025351174 -0.48975578 -0.6955241 109 138 117
-0.037213005 -0.4926399 -0.6938802 97 138 115
-0.039247058 -0.49287954 -0.69353819 98 141 117
-0.039168172 -0.49267974 -0.6934678 98 141 117
-0.037680697 -0.49234775 -0.69364917 97 140 115
-0.038580541 -0.49206498 -0.69332719 96 141 116
-0.039912462 -0.49331647 -0.69358373 99 141 118
-0.034835171 -0.49314886 -0.69470924 93 137 116
-0.035309564 -0.49378601 -0.69486809 96 136 116
-0.034428488 -0.49377069 -0.69508779 94 137 116
-0.033330787 -0.4931421 -0.69509292 89 138 116
-0.033608295 -0.49200967 -0.69452244 87 139 115
-0.034218315 -0.49348959 -0.69501793 93 137 116
-0.036389887 -0.49243245 -0.69399559 95 138 115
-0.036761779 -0.49031425 -0.69297087 90 141 114
-0.036114722 -0.49224082 -0.69398171 94 138 115
-0.034572769 -0.49124268 -0.69393712 87 139 114
-0.035643298 -0.49041045 -0.69329858 88 141 114
-0.036256477 -0.49276632 -0.6941762 95 137 115
-0.031591527 -0.49318603 -0.69555295 95 138 117
-0.031374406 -0.49252829 -0.69531584 94 138 116
-0.030013606 -0.49131709 -0.69512475 95 140 116
-0.032151166 -0.49271074 -0.69520003 92 138 116
-0.032378234 -0.49190605 -0.69478828 89 139 115
-0.031926628 -0.49224836 -0.69505274 91 139 116
-0.031559534 -0.49031991 -0.69429505 87 141 114
-0.032470793 -0.49067611 -0.69422299 84 141 114
-0.031928517 -0.49108765 -0.69454068 88 140 115
-0.027143875 -0.49051058 -0.6954276 102 139 117
-0.028358541 -0.49081862 -0.69529474 99 140 116
-0.028011102 -0.49105713 -0.69547808 101 139 117
-0.042555336 -0.4974044 -0.69483709 102 137 120
-0.042729564 -0.49630058 -0.6942904 106 138 120
-0.041185793 -0.49555573 -0.69431144 99 140 120
-0.042421211 -0.49767593 -0.69499308 101 137 120
-0.041502718 -0.49694845 -0.6948753 97 138 120
-0.042101648 -0.496907 -0.69471568 101 138 120
-0.037235022 -0.49492198 -0.69489717 101 136 117
-0.037957024 -0.49653247 -0.69548327 98 136 119
-0.039877355 -0.49756595 -0.69552791 93 136 120
-0.037339818 -0.49627677 -0.69550461 100 136 117
-0.039464097 -0.49539351 -0.69461817 98 138 118
-0.039007097 -0.49429205 -0.69421393 101 139 117
-0.039725702 -0.49627963 -0.69496679 96 137 119
-0.040855091 -0.49586236 -0.69452721 97 139 120
-0.040639702 -0.49636713 -0.69480592 96 138 120
-0.041001327 -0.4973177 -0.695162 93 138 120
-0.035658181 -0.49580327 -0.69569957 98 136 118
-0.033609591 -0.49463645 -0.69566858 95 137 117
-0.03550579 -0.49439558 -0.69508183 99 135 117
-0.036097407 -0.49513224 -0.69527698 99 136 117
-0.046317473 -0.50086236 -0.69562602 114 136 118
-0.045169085 -0.49875668 -0.69485956 115 135 119
-0.045005463 -0.49958697 -0.69527316 114 136 119
-0.045771465 -0.49894476 -0.69483781 114 135 118
-0.046678897 -0.49915656 -0.69477457 119 135 119
-0.045560274 -0.49809477 -0.69448531 119 135 120
-0.048810974 -0.50011444 -0.69483745 126 136 119
-0.046248984 -0.49887586 -0.69472182 118 135 119
-0.044882782 -0.49879605 -0.69493139 115 135 120
-0.043999687 -0.49891874 -0.69519025 109 136 119
-0.044456042 -0.49923119 -0.69523031 112 136 119
-0.044774961 -0.49846795 -0.69480437 114 135 119
-0.041373555 -0.49805152 -0.69541097 93 136 120
-0.050928362 -0.50263923 -0.69564396 130 135 120
-0.0023443874 -0.49801087 -0.70429921 127 138 119
-0.0025874616 -0.49675572 -0.70377207 133 137 119
-0.0033341846 -0.49729452 -0.70382887 130 138 119
-0.0034340201 -0.49746013 -0.7038722 129 138 119
-0.0014294668 -0.49672925 -0.70396054 126 138 119
-0.0015650515 -0.49725077 -0.70414072 126 138 119
-0.0008645287 -0.49548328 -0.70356309 123 137 118
-0.011591845 -0.5015645 -0.70381504 139 139 117
-0.011198448 -0.50077516 -0.70360845 137 138 117
-0.010663278 -0.50187969 -0.70409769 142 138 118
-0.008436108 -0.49967557 -0.70372301 132 138 117
-0.0086834058 -0.50025028 -0.70388168 135 137 117
-0.0072791576 -0.49862364 -0.70355922 127 138 117
-0.0077493903 -0.49987122 -0.70391661 133 138 118
-0.0076729008 -0.50013626 -0.70403385 134 138 118
-0.0076325415 -0.50144309 -0.70454943 139 138 118
-0.0067382455 -0.50153142 -0.70477563 138 138 118
-0.0081344629 -0.50168711 -0.70453626 140 138 118
-0.0074256142 -0.50050032 -0.70422816 135 138 118
-0.004629591 -0.50092071 -0.70497966 135 138 118
-0.0030833427 -0.50107729 -0.70541024 133 137 119
-0.0035682523 -0.50028616 -0.70496047 132 137 118
-0.0040455256 -0.50119901 -0.7052353 134 137 118
-0.0049101063 -0.50105119 -0.70496899 136 138 118
-0.0031119208 -0.49934456 -0.70466846 131 138 119
-0.0056170654 -0.50092441 -0.70477724 135 138 118
-0.0030581921 -0.49874356 -0.70444107 129 138 118
-0.0054945038 -0.5015552 -0.7050463 137 138 118
-0.0044254689 -0.49867716 -0.70414293 127 139 118
-0.0048603462 -0.5005089 -0.70476681 134 138 118
-0.0032661855 -0.49932984 -0.70462704 131 138 118
-0.00073257391 -0.50096995 -0.70587569 115 137 117
-0.00077215885 -0.50146323 -0.70609474 120 136 118
-0.00081626652 -0.50169796 -0.70619315 123 135 119
-0.001903263 -0.49929598 -0.70493042 128 137 119
-0.0017836199 -0.49871844 -0.70470852 126 138 119
-0.0016250252 -0.5014295 -0.70588928 127 136 119
-0.017981408 -0.50471824 -0.7038945 135 137 121
-0.018153695 -0.50409621 -0.70356554 132 137 121
-0.019266116 -0.50577587 -0.70403409 125 139 120
-0.017942546 -0.50400013 -0.70357794 134 137 121
-0.016181722 -0.50329566 -0.70364952 137 138 120
-0.017507682 -0.50422263 -0.70379102 138 136 122
-0.015457038 -0.50276726 -0.70356226 137 139 120
-0.015543113 -0.50479472 -0.70446336 138 139 120
-0.01375735 -0.50372386 -0.70435095 136 141 119
-0.015874533 -0.50512248 -0.70454252 138 138 120
-0.015525701 -0.50489855 -0.70451385 138 139 120
-0.01527585 -0.50410384 -0.70420694 139 139 120
-0.017152036 -0.50561631 -0.70449996 140 137 121
-0.012692981 -0.505539 -0.70533568 138 140 120
-0.013322728 -0.50431037 -0.70469803 136 141 119
-0.013176253 -0.50365871 -0.7044307 137 141 119
-0.011349414 -0.50204432 -0.70403838 141 138 118
-0.012046886 -0.50302905 -0.70435452 139 140 118
-0.013049189 -0.50485432 -0.70499408 136 141 119
-0.010373507 -0.50230259 -0.70433491 142 138 118
-0.0065667867 -0.50229877 -0.70511478 140 138 118
-0.0026447063 -0.50578982 -0.70738834 119 141 113
-0.002618419 -0.50485468 -0.7070294 124 139 115
-0.0019784609 -0.50335771 -0.70659608 126 138 117
-0.0031553525 -0.50378102 -0.70647371 132 137 118
-0.0028139704 -0.50460666 -0.70688343 126 139 116
-0.0025990144 -0.50271028 -0.70618796 133 136 120
-0.0031790901 -0.50233549 -0.70590615 135 136 119
-0.003801987 -0.50332534 -0.70613986 136 135 120
-0.0037010186 -0.50262684 -0.70589519 136 136 119
-0.0039265589 -0.50340092 -0.70613956 137 136 119
-0.0018795549 -0.50453633 -0.70708328 120 140 115
-0.0007770377 -0.50403726 -0.70712507 120 138 116
-0.000374361 -0.50312543 -0.70685238 124 135 118
-0.0015071742 -0.50349116 -0.70675147 124 138 116
-0.001651925 -0.50474298 -0.70721412 119 140 115
0.00024666847 -0.50243425 -0.70672601 123 133 119
0.00011532486 -0.50209779 -0.70657754 122 133 118
-0.026324905 -0.50902873 -0.70372361 123 140 121
-0.025678916 -0.50954837 -0.70415401 123 140 121
-0.024250999 -0.50933629 -0.70443428 122 140 121
-0.021879714 -0.5082047 -0.70451689 120 140 121
-0.023184245 -0.50918043 -0.70464325 124 140 121
-0.022116892 -0.50898153 -0.70483142 125 139 121
-0.022730041 -0.50937605 -0.70485967 126 139 122
-0.022757504 -0.5095759 -0.70494956 127 139 122
-0.023754237 -0.50771046 -0.70377606 115 141 120
-0.022484075 -0.50653511 -0.70354342 110 143 119
-0.025178732 -0.50800455 -0.70353889 120 141 120
-0.019188005 -0.50691867 -0.70460808 133 138 121
-0.018751629 -0.50651109 -0.70452595 135 137 122
-0.021374611 -0.50843972 -0.70476609 124 139 121
-0.018710501 -0.50618488 -0.70437819 133 138 121
-0.021239981 -0.50916618 -0.70515519 129 138 122
-0.019354613 -0.50587845 -0.70405787 125 139 121
-0.019702518 -0.50849652 -0.70520616 135 138 122
-0.020490121 -0.50884181 -0.70519251 133 138 122
-0.018365934 -0.50806946 -0.70529646 138 138 122
-0.018861804 -0.50748318 -0.70494789 138 137 122
-0.018784318 -0.50953984 -0.70583373 137 139 122
-0.018186858 -0.50962299 -0.70599008 138 139 123
-0.014003798 -0.50774562 -0.70605224 141 139 122
-0.014707062 -0.50841683 -0.70619023 141 139 122
-0.016658638 -0.50924551 -0.70614237 139 140 123
-0.016586706 -0.5094251 -0.70623171 140 139 123
-0.017492749 -0.50732648 -0.7051596 140 137 122
-0.014710397 -0.50596255 -0.70516092 136 141 120
-0.015839657 -0.50705487 -0.70538831 137 140 121
-0.016687654 -0.50822753 -0.70570821 138 140 122
-0.017268999 -0.50898075 -0.70590603 139 139 122
-0.015892167 -0.50767076 -0.70563799 137 141 121
-0.013628114 -0.50687534 -0.70576233 138 140 121
-0.034826394 -0.5130986 -0.70367396 129 139 122
-0.030592196 -0.51129997 -0.70371997 133 138 123
-0.03199809 -0.51176989 -0.70361918 133 137 122
-0.028909607 -0.51124036 -0.70409352 134 137 123
-0.028804133 -0.51053494 -0.70377761 131 137 123
-0.027886828 -0.51091987 -0.70421726 132 137 122
-0.027690852 -0.51136339 -0.7044881 134 137 123
-0.026841717 -0.51011878 -0.70411271 126 138 122
-0.027566245 -0.51158154 -0.70462912 135 137 123
-0.026049374 -0.51180756 -0.7051186 128 139 122
-0.025552912 -0.51365745 -0.70609528 126 140 124
-0.02544193 -0.51169538 -0.705217 124 140 123
-0.026525028 -0.51183295 -0.70501268 131 138 122
-0.022913959 -0.51162702 -0.70585549 132 139 123
-0.021759404 -0.51017964 -0.70549822 131 138 122
-0.025080569 -0.5124687 -0.70566946 125 140 123
-0.024917768 -0.51006877 -0.70460516 124 139 122
-0.023247277 -0.51039147 -0.70520002 128 139 122
-0.024979098 -0.51171207 -0.7053473 124 140 123
-0.023759857 -0.51081634 -0.70525932 127 139 122
-0.02386073 -0.51015973 -0.70492929 126 139 122
-0.018793778 -0.5102998 -0.70616925 140 139 123
-0.021405824 -0.51010197 -0.70555001 133 138 122
-0.017297693 -0.51048613 -0.70657694 142 139 123
-0.03778128 -0.51465648 -0.70384061 124 142 122
-0.037227865 -0.51434892 -0.70381272 121 142 122
-0.036062036 -0.51403898 -0.70389509 126 141 122
-0.03549153 -0.51406324 -0.70401996 129 140 122
-0.035622071 -0.51486862 -0.70438761 131 140 122
-0.036473833 -0.51412255 -0.70385444 124 141 122
-0.036554106 -0.51534623 -0.70443636 127 141 122
-0.029322961 -0.51683652 -0.70678478 129 141 125
-0.029441299 -0.51673186 -0.70670432 131 141 125
-0.029718984 -0.51713943 -0.7068488 130 141 125
-0.027738832 -0.51642799 -0.70695478 126 142 125
-0.027836699 -0.51678056 -0.70710248 126 142 125
-0.026475001 -0.51635277 -0.70719165 127 140 124
-0.02554653 -0.51595235 -0.70720041 128 139 124
-0.027428513 -0.51525128 -0.70644391 128 141 124
-0.026102981 -0.513897 -0.70608073 128 140 124
-0.027674586 -0.51557219 -0.70654678 127 141 124
-0.029138558 -0.51723772 -0.70703459 126 143 125
-0.028657582 -0.51656801 -0.70681179 128 142 125
-0.024510179 -0.51532674 -0.70716202 134 138 124
-0.02435153 -0.51416796 -0.70664805 134 139 124
-0.024541648 -0.51397318 -0.70650572 132 139 124
-0.037883576 -0.51967871 -0.70633048 132 139 122
-0.037026472 -0.52012539 -0.70672315 130 138 122
-0.030810241 -0.51817966 -0.70710993 134 139 126
-0.030080643 -0.5183025 -0.7073319 131 140 125
-0.029455943 -0.51779801 -0.70722932 127 142 125
-0.028667631 -0.51765037 -0.70733482 126 142 125
-0.045506202 -0.52365977 -0.70696801 132 139 124
-0.047839958 -0.52167225 -0.70551115 133 139 125
-0.046574958 -0.52311355 -0.70650411 132 138 124
-0.028487207 -0.53435874 -0.71574426 117 140 124
-0.027108259 -0.53393203 -0.71583515 131 138 125
-0.027093355 -0.53386754 -0.71580219 130 138 124
-0.028338857 -0.53491563 -0.71609551 122 139 125
-0.028808642 -0.53610337 -0.71665561 122 139 125
-0.029693892 -0.53841078 -0.7176941 115 140 125
0 0 0 1 0 0 0 1 0 0 0 1 0 0 0 0 0 879 1 0 0
