ply
format ascii 1.0
comment PCL generated
element vertex 856
property float x
property float y
property float z
property uchar red
property uchar green
property uchar blue
element camera 1
property float view_px
property float view_py
property float view_pz
property float x_axisx
property float x_axisy
property float x_axisz
property float y_axisx
property float y_axisy
property float y_axisz
property float z_axisx
property float z_axisy
property float z_axisz
property float focal
property float scalex
property float scaley
property float centerx
property float centery
property int viewportx
property int viewporty
property float k1
property float k2
end_header
-0.12643325 -0.52069908 -0.71518725 157 131 118
-0.12483351 -0.52124465 -0.71453965 134 135 116
-0.124267 -0.52250683 -0.71468478 133 136 117
-0.12349337 -0.52391165 -0.71478242 126 139 117
-0.12533408 -0.52237976 -0.71518803 153 131 121
-0.12363186 -0.52350593 -0.71471059 126 139 117
-0.12253539 -0.52487016 -0.71469873 127 140 118
-0.12271919 -0.52414477 -0.71451557 122 140 117
-0.1215101 -0.52720529 -0.71516353 126 138 117
-0.12156978 -0.52664745 -0.71498388 124 139 117
-0.12243807 -0.52599609 -0.71508956 129 139 118
-0.11637385 -0.53308147 -0.71522552 119 136 118
-0.12781924 -0.55180484 -0.72408009 148 140 124
-0.12722339 -0.55111361 -0.72369397 148 140 123
-0.12722933 -0.55118543 -0.72371763 148 140 123
-0.12826164 -0.55219096 -0.7242983 149 139 124
-0.12851997 -0.55224437 -0.72437841 151 139 124
-0.12785116 -0.55255258 -0.72428989 145 140 124
-0.12715912 -0.55254024 -0.72410995 141 140 123
-0.12398519 -0.55260754 -0.72331595 138 138 125
-0.12654357 -0.55167609 -0.72368199 144 140 124
-0.12615098 -0.55046481 -0.72321248 150 139 123
-0.12658244 -0.55097127 -0.72347683 147 140 123
-0.12655368 -0.5525105 -0.72393918 140 140 124
-0.12621203 -0.55049521 -0.72323728 150 139 123
-0.12295803 -0.55273032 -0.72309816 139 138 125
-0.13439254 -0.55545437 -0.72677559 154 139 121
-0.13124193 -0.55628842 -0.72611934 151 135 125
-0.13296886 -0.5562433 -0.72657526 150 138 123
-0.13088639 -0.55600137 -0.72594357 151 136 125
-0.12911494 -0.55522573 -0.72530341 143 137 124
-0.12739204 -0.55485046 -0.72480911 135 140 123
-0.12760466 -0.55652046 -0.72533143 132 140 121
-0.12773716 -0.55554748 -0.72508484 135 139 123
-0.12746297 -0.55365998 -0.72448683 138 140 123
-0.12826242 -0.55509508 -0.72507447 139 139 123
-0.13034175 -0.55608588 -0.72582501 147 136 125
-0.13033241 -0.55583405 -0.72575867 148 136 125
-0.13065033 -0.55474842 -0.72556418 154 136 124
-0.12845112 -0.55405706 -0.72482735 143 139 124
-0.12528521 -0.55623305 -0.72468966 136 138 122
-0.12380254 -0.55549747 -0.72411025 143 137 123
-0.12362642 -0.5563038 -0.72430217 145 137 123
-0.12391672 -0.55526561 -0.72407067 141 137 123
-0.1250575 -0.55531901 -0.72436696 135 139 122
-0.12480232 -0.55480647 -0.72415459 135 138 123
-0.12430482 -0.55385047 -0.72375435 136 138 124
-0.12640248 -0.55286694 -0.72400707 138 140 124
-0.12650825 -0.55436105 -0.7244584 134 140 123
-0.12513551 -0.55300337 -0.72372437 138 139 124
-0.12545149 -0.55299658 -0.72380263 138 139 124
-0.12297177 -0.55275923 -0.7231099 140 137 125
-0.12034506 -0.55468673 -0.72314686 141 138 124
-0.12176773 -0.5539335 -0.72321773 141 137 124
-0.12251099 -0.55331349 -0.72318292 140 137 125
-0.12182035 -0.55617452 -0.72388357 146 137 123
-0.12199075 -0.55493647 -0.72355539 143 137 124
-0.12302396 -0.55512685 -0.72381175 145 136 124
-0.12168241 -0.55566955 -0.7237094 145 137 123
-0.12135677 -0.55517155 -0.72350079 143 137 123
-0.11843583 -0.55662221 -0.72332764 142 139 122
-0.13091698 -0.55915606 -0.72675616 137 138 121
-0.13286987 -0.55698806 -0.72672975 146 139 122
-0.1329446 -0.55730611 -0.72683114 144 140 121
-0.1314906 -0.55919635 -0.72692138 137 140 121
-0.13079152 -0.55971843 -0.72687089 135 140 121
-0.1292544 -0.55978256 -0.72659034 138 139 121
-0.12921384 -0.5598821 -0.72660786 138 139 121
-0.12934902 -0.55971736 -0.72659183 138 139 121
-0.12881285 -0.55954283 -0.72644466 140 139 122
-0.12755276 -0.55957675 -0.72619951 139 139 121
-0.12865317 -0.55711257 -0.72573745 138 138 123
-0.13021542 -0.55699444 -0.72605497 146 136 124
-0.1293159 -0.55664533 -0.725752 140 138 123
-0.12902831 -0.55775177 -0.72600591 142 138 123
-0.12716752 -0.55666804 -0.72527504 129 140 121
-0.12371663 -0.55758739 -0.72471309 148 136 123
-0.1261521 -0.55999672 -0.72600454 142 139 121
-0.12319893 -0.559973 -0.7254594 156 136 125
-0.12429407 -0.56011188 -0.72570735 151 137 123
-0.12428505 -0.5603745 -0.72579825 152 137 124
-0.12639585 -0.55828696 -0.72555602 136 139 121
-0.12693894 -0.55951679 -0.72604382 136 140 120
-0.12389031 -0.55715698 -0.72461414 146 136 123
-0.12563008 -0.55783665 -0.72523791 138 139 121
-0.12603618 -0.55833256 -0.72548062 138 139 121
-0.12664062 -0.55749959 -0.72538942 132 140 121
-0.12078766 -0.55990857 -0.72501403 149 137 124
-0.12175175 -0.55973822 -0.72511059 154 137 124
-0.12051164 -0.5585016 -0.72443408 149 137 124
-0.11935144 -0.55840635 -0.724204 143 138 123
-0.11993725 -0.55969268 -0.72478998 145 138 123
-0.12211114 -0.55874616 -0.72481775 153 136 124
-0.12257586 -0.5591554 -0.72505224 154 137 124
-0.12272719 -0.55707663 -0.72434932 150 136 123
-0.12266471 -0.55957448 -0.7252171 156 136 124
-0.12251665 -0.55698335 -0.72427553 149 136 123
-0.11592423 -0.55751383 -0.72307318 137 141 122
-0.11740769 -0.55806762 -0.72361964 141 138 123
-0.11827011 -0.55726808 -0.7235269 142 138 122
-0.11845748 -0.55691975 -0.72344291 142 138 122
-0.11827274 -0.55727017 -0.72352827 142 138 122
-0.11743113 -0.55835164 -0.72372878 142 138 123
-0.11594624 -0.5602994 -0.72410369 141 139 123
-0.11837722 -0.55949736 -0.72439551 141 138 123
-0.11760504 -0.5582248 -0.72372335 142 138 123
-0.11848177 -0.5596602 -0.72448289 141 138 123
-0.11161368 -0.56024164 -0.7235049 143 138 123
-0.11222391 -0.55958283 -0.72333789 142 138 123
-0.11179613 -0.56045604 -0.72360229 143 138 123
-0.11473668 -0.55952281 -0.72359425 139 139 123
-0.11379705 -0.55911416 -0.72334146 140 139 123
-0.11462047 -0.55890685 -0.72335649 138 140 123
-0.11469219 -0.55900759 -0.72340119 138 140 123
-0.1078954 -0.56045169 -0.72319472 146 139 123
-0.11060195 -0.55956274 -0.72315329 143 138 123
-0.111323 -0.55934465 -0.72315091 143 137 123
-0.12733071 -0.56104821 -0.72657669 140 140 121
-0.1274524 -0.56156737 -0.72676605 142 140 121
-0.12809831 -0.56127065 -0.7267949 139 140 120
-0.12477227 -0.56343138 -0.72687906 155 136 124
-0.12681165 -0.56165683 -0.7266739 144 139 121
-0.12549494 -0.56060946 -0.72609913 146 138 122
-0.12338343 -0.56070149 -0.72574508 157 136 125
-0.12557584 -0.5613125 -0.72634119 146 138 122
-0.1231273 -0.56080425 -0.72573173 158 136 125
-0.12575127 -0.56105787 -0.7262907 145 138 122
-0.12417012 -0.56070167 -0.72588813 153 137 124
-0.12068003 -0.56235099 -0.72581947 149 137 124
-0.12203258 -0.56403226 -0.72658646 154 136 124
-0.12115784 -0.56201267 -0.72579211 151 137 124
-0.12254255 -0.56114149 -0.72574186 157 136 125
-0.12270254 -0.56193894 -0.72602648 158 135 125
-0.12151969 -0.56219369 -0.72591114 153 137 124
-0.1218933 -0.56089061 -0.7255522 154 137 125
-0.11681437 -0.56082708 -0.72449881 139 139 123
-0.11872021 -0.56143576 -0.72515798 137 139 123
-0.11600289 -0.561171 -0.72440821 138 139 123
-0.11239397 -0.56283247 -0.72465754 138 139 123
-0.11336089 -0.56066388 -0.72386044 142 139 123
-0.11295606 -0.56080216 -0.72387254 141 139 123
-0.11013526 -0.5634234 -0.72465575 144 138 124
-0.10895558 -0.56226569 -0.72405136 145 138 124
-0.10868765 -0.56416333 -0.72473937 145 140 125
-0.10893098 -0.56229717 -0.72405994 145 138 124
-0.10940943 -0.56384546 -0.7247172 145 138 125
-0.1078987 -0.56374055 -0.72446936 146 140 125
-0.10756225 -0.56056982 -0.72320777 146 139 123
-0.1082395 -0.5610944 -0.7234959 146 139 123
-0.1090958 -0.56086671 -0.72348803 145 138 123
-0.10983486 -0.56067675 -0.72348404 145 139 123
-0.11073101 -0.56101233 -0.72371548 144 138 123
-0.1081596 -0.56066704 -0.72330928 146 139 123
-0.10446548 -0.56168342 -0.72345352 149 137 125
-0.1053371 -0.56212282 -0.72366744 149 137 125
-0.10561531 -0.56113136 -0.72330695 148 137 124
-0.10369924 -0.56302446 -0.72391981 150 137 125
-0.10378451 -0.56105715 -0.72317916 149 136 125
-0.10508782 -0.56363875 -0.72423053 149 138 125
-0.10665479 -0.5635348 -0.72428107 147 140 125
-0.1067591 -0.56129277 -0.72343069 147 139 123
-0.10360391 -0.56444883 -0.72445446 151 137 125
-0.10581262 -0.5631128 -0.72407132 148 139 124
-0.10475004 -0.5632658 -0.72406858 150 137 125
-0.10193618 -0.56307608 -0.72380346 142 137 123
-0.10238799 -0.56159753 -0.7232793 143 137 124
-0.10134814 -0.56223673 -0.72343856 139 137 123
-0.10242544 -0.56256914 -0.7236504 144 137 124
-0.10116058 -0.56144726 -0.72312456 137 137 122
-0.10163964 -0.56220973 -0.72345161 140 138 123
-0.12143606 -0.56518388 -0.72691172 147 136 124
-0.11264288 -0.56601542 -0.72607303 136 138 124
-0.11226817 -0.56483811 -0.72549498 138 138 124
-0.11245973 -0.56659585 -0.72631615 138 137 125
-0.11274664 -0.56605744 -0.7261039 136 137 125
-0.11155218 -0.56620032 -0.72603315 142 136 125
-0.11122669 -0.5668025 -0.72627038 144 135 126
-0.10906655 -0.56799001 -0.72657132 142 136 124
-0.11021541 -0.56771237 -0.72657222 143 135 125
-0.11039031 -0.56684679 -0.72619796 143 136 125
-0.10928684 -0.56725842 -0.72626293 142 136 125
-0.11016102 -0.56767398 -0.72654873 143 135 125
-0.10914585 -0.56559682 -0.72546381 143 138 125
-0.10948138 -0.56504834 -0.72524583 144 138 125
-0.10954435 -0.5661006 -0.72576123 143 137 124
-0.10876846 -0.56593984 -0.72557712 143 138 125
-0.11099759 -0.5645867 -0.72523195 143 138 124
-0.10971519 -0.56549442 -0.72549278 143 138 124
-0.10427368 -0.56694806 -0.72564679 140 138 123
-0.10479139 -0.56633812 -0.72541499 145 137 124
-0.10393757 -0.56561774 -0.72501504 146 138 124
-0.10650961 -0.56779927 -0.72622484 142 137 123
-0.1041377 -0.5653916 -0.72492981 148 137 125
-0.10716216 -0.56711435 -0.72594267 143 138 124
-0.1073724 -0.56784827 -0.72630817 142 137 123
-0.1046804 -0.56506234 -0.72481155 149 137 125
-0.10602074 -0.56590718 -0.72529554 146 138 125
-0.10637243 -0.56525761 -0.725003 146 139 125
-0.10582453 -0.56475425 -0.72472906 148 139 125
-0.10318177 -0.56633157 -0.72529787 140 138 123
-0.10211939 -0.56517184 -0.72475851 143 136 124
-0.10296084 -0.56573904 -0.72502655 143 137 124
-0.10956606 -0.56867671 -0.7269389 142 136 125
-0.1254334 -0.53667986 -0.71933496 130 144 121
-0.12566382 -0.5364688 -0.71936005 132 142 121
-0.127233 -0.53743386 -0.72013408 125 139 118
-0.12966588 -0.53922397 -0.72138333 132 141 118
-0.12938923 -0.53790671 -0.72099435 133 142 119
-0.1307887 -0.53887653 -0.72170019 136 144 118
-0.12989068 -0.53751844 -0.72108412 136 144 118
-0.1294791 -0.53863502 -0.72118729 132 142 118
-0.13082141 -0.54011106 -0.72198528 134 142 118
-0.12614898 -0.53714114 -0.71969879 126 142 119
-0.12484026 -0.53771329 -0.71943593 128 144 120
-0.12372351 -0.54022825 -0.71986598 131 140 120
-0.12381651 -0.53901696 -0.71950656 130 143 121
-0.12496667 -0.53858286 -0.7197597 129 141 120
-0.12692364 -0.53794676 -0.72015738 126 139 118
-0.12301785 -0.53974992 -0.71947026 131 143 122
-0.12186964 -0.54049242 -0.71932232 136 139 122
-0.12341142 -0.54393631 -0.72059196 131 143 120
-0.12352667 -0.54455453 -0.72075337 130 143 119
-0.12368315 -0.54384351 -0.72066331 132 143 120
-0.12345048 -0.54135513 -0.72008556 133 140 120
-0.12125114 -0.54145122 -0.71939749 136 137 122
-0.12176299 -0.54127473 -0.71952373 136 137 122
-0.11978919 -0.54378134 -0.71952385 132 138 125
-0.1193395 -0.54332525 -0.71924818 134 136 124
-0.12205568 -0.54406083 -0.72022772 129 142 121
-0.12158269 -0.5426591 -0.71982008 131 139 122
-0.12271652 -0.54235071 -0.72006565 131 140 121
-0.12160114 -0.54316336 -0.71992564 131 139 122
-0.12251569 -0.54464722 -0.7204693 129 142 121
-0.11832134 -0.54424763 -0.71924734 130 137 124
-0.12518358 -0.54744405 -0.72201449 145 141 121
-0.12510543 -0.54802299 -0.72217143 144 141 122
-0.12575418 -0.54763532 -0.7222259 149 140 122
-0.1247945 -0.54775614 -0.7220062 141 141 121
-0.12518132 -0.546637 -0.72179246 143 142 121
-0.11975834 -0.54695851 -0.72042429 126 139 123
-0.1207922 -0.54741532 -0.72083592 126 140 122
-0.12196817 -0.54785281 -0.72127771 125 140 122
-0.12160724 -0.54879206 -0.72148818 123 140 121
-0.12039003 -0.5465703 -0.72046071 127 139 123
-0.11935027 -0.54746735 -0.72048396 124 139 122
-0.12271587 -0.54622108 -0.72097737 127 143 120
-0.12001103 -0.54523307 -0.7199412 129 139 124
-0.12301862 -0.54644382 -0.72112787 127 143 120
-0.12298878 -0.54534948 -0.72078353 128 144 119
-0.12227621 -0.54538196 -0.72060055 128 142 120
-0.11838059 -0.54515094 -0.71951294 128 138 125
-0.11770662 -0.54563606 -0.71951729 128 137 124
-0.11704638 -0.54611564 -0.71952319 127 138 123
-0.11581181 -0.5471887 -0.7195909 126 137 122
-0.11585223 -0.54754645 -0.71971488 127 137 122
-0.11908599 -0.54752022 -0.72043508 124 139 122
-0.11630009 -0.54808867 -0.71999007 129 137 122
-0.11854751 -0.54785353 -0.72042108 124 139 122
-0.11708465 -0.54748911 -0.71997374 129 137 123
-0.11663584 -0.54786795 -0.7199946 129 137 123
-0.11754715 -0.54692531 -0.71989632 129 137 124
-0.11248256 -0.54826391 -0.71917492 129 136 123
-0.11397479 -0.54767156 -0.71932721 127 137 122
-0.11518823 -0.54788852 -0.71967554 127 136 122
-0.1126297 -0.54829127 -0.71921748 129 136 123
-0.12437455 -0.55054152 -0.72277182 143 139 124
-0.12496326 -0.55057162 -0.72293901 148 138 124
-0.12508093 -0.54988724 -0.72275138 147 139 123
-0.12364636 -0.54991758 -0.72237718 134 139 122
-0.12605853 -0.54934794 -0.72284019 153 138 123
-0.12003542 -0.55254722 -0.72238231 136 138 124
-0.12130756 -0.55076009 -0.72209555 130 140 122
-0.12223975 -0.55089986 -0.72235143 132 139 123
-0.12257174 -0.55201852 -0.72278619 136 138 124
-0.11964834 -0.55264133 -0.72232497 136 138 124
-0.11936039 -0.55175173 -0.72195131 132 138 123
-0.12117868 -0.55060363 -0.72201335 129 140 122
-0.12083526 -0.55089468 -0.72202772 130 140 122
-0.12277906 -0.54896736 -0.72184837 125 141 120
-0.12030756 -0.55146891 -0.7220943 132 139 123
-0.12132624 -0.5496996 -0.72173381 126 140 121
-0.11564066 -0.54943609 -0.72029561 130 137 122
-0.11879988 -0.55267596 -0.72214615 135 138 124
-0.11611431 -0.55151612 -0.72115225 130 138 122
-0.11641964 -0.55004132 -0.72068155 131 137 123
-0.11625446 -0.55081117 -0.72092599 131 137 122
-0.11637335 -0.55008477 -0.72068745 131 137 123
-0.11803991 -0.55026698 -0.72112578 129 138 122
-0.11827228 -0.55096084 -0.72142172 131 138 122
-0.11888205 -0.55177975 -0.72184664 132 139 123
-0.1180869 -0.55064386 -0.72126865 130 138 122
-0.11901574 -0.55035746 -0.72137761 128 139 122
-0.1178166 -0.54900795 -0.72063351 125 138 121
-0.11141564 -0.5514071 -0.72013432 135 136 124
-0.11299155 -0.54978073 -0.71985167 132 136 123
-0.11446851 -0.54925781 -0.7199828 131 136 122
-0.11241042 -0.55084443 -0.72013938 134 136 123
-0.11305526 -0.54906446 -0.71958303 131 136 122
-0.11175729 -0.55096465 -0.72003752 134 136 124
-0.1132405 -0.5511061 -0.72042364 133 136 124
-0.11510191 -0.55025554 -0.72048062 129 138 122
-0.11499178 -0.55185235 -0.72103912 128 138 122
-0.11466511 -0.55126625 -0.72076195 130 137 122
-0.11356472 -0.55107468 -0.72047597 132 136 123
-0.11404639 -0.55226785 -0.72100407 131 138 123
-0.10915856 -0.55154246 -0.71977639 132 138 124
-0.11117213 -0.55181366 -0.72024691 136 136 125
-0.11042688 -0.55207008 -0.72021383 135 136 125
-0.12021113 -0.55330896 -0.7226705 138 138 124
-0.1217152 -0.55281693 -0.72284955 139 137 125
-0.12030333 -0.55328596 -0.72268379 138 138 124
-0.11846343 -0.55417717 -0.7225464 137 139 123
-0.11838546 -0.55561656 -0.72299886 140 139 122
-0.11755171 -0.55561036 -0.72279525 137 140 123
-0.11831973 -0.55349791 -0.72229773 136 139 123
-0.11740264 -0.55321985 -0.72201747 133 139 123
-0.11794024 -0.55384183 -0.72232169 135 139 123
-0.11673569 -0.55453396 -0.72227585 134 140 123
-0.1163289 -0.55331093 -0.7218163 131 139 122
-0.11542118 -0.55537271 -0.7222513 132 141 122
-0.1123753 -0.55513263 -0.72168952 137 137 124
-0.11263864 -0.55572855 -0.72195089 136 138 123
-0.11390599 -0.55551428 -0.72201031 135 140 123
-0.11220622 -0.55663753 -0.72225559 137 138 123
-0.11265338 -0.5527572 -0.72090662 133 137 124
-0.11419188 -0.55287629 -0.72124547 130 138 122
-0.11307147 -0.55355495 -0.72123206 134 138 124
-0.11298022 -0.55401152 -0.72135329 135 138 124
-0.1133902 -0.55338609 -0.7212432 133 138 124
-0.11375695 -0.55329102 -0.72128636 132 138 123
-0.1087052 -0.55479509 -0.72098804 131 139 122
-0.10856266 -0.55592901 -0.72147506 133 139 123
-0.10980265 -0.55547059 -0.72143435 134 139 122
-0.11029386 -0.55550927 -0.72152209 135 138 123
-0.1109546 -0.55389744 -0.72102058 136 136 124
-0.11032011 -0.55274194 -0.72045112 134 137 124
-0.11126657 -0.5554992 -0.72170246 138 137 123
-0.11109727 -0.55612612 -0.72191411 138 137 123
-0.11086338 -0.55602187 -0.7218293 137 137 123
-0.11578502 -0.55730122 -0.72296333 136 141 123
-0.11384746 -0.55788481 -0.72289854 138 140 123
-0.11513887 -0.55761236 -0.72294128 135 141 123
-0.11355691 -0.55758947 -0.72275865 137 140 123
-0.11215025 -0.55740839 -0.72253346 138 139 123
-0.11321406 -0.55717355 -0.72256672 137 140 122
-0.11276479 -0.55670059 -0.72234184 137 139 123
-0.11056899 -0.55751973 -0.72239983 140 138 123
-0.11132561 -0.55746913 -0.72246301 140 137 123
-0.11099122 -0.55841047 -0.72277379 141 137 123
-0.11132187 -0.55725259 -0.72238278 140 137 123
-0.1089926 -0.55669016 -0.72186893 134 139 123
-0.10943155 -0.55699873 -0.72204876 136 139 123
-0.1096637 -0.55763292 -0.72232985 139 138 123
-0.10943348 -0.55799878 -0.72244388 140 138 123
-0.10814919 -0.55711907 -0.72192687 135 139 123
-0.10631279 -0.55839485 -0.72227389 139 138 124
-0.10629103 -0.55849808 -0.72231346 140 139 123
-0.10696527 -0.55954111 -0.72276223 143 138 123
-0.10721238 -0.55724484 -0.72186899 134 140 123
-0.10500926 -0.55935043 -0.72257859 143 138 124
-0.10644671 -0.55790454 -0.72208726 137 139 123
-0.10698891 -0.55687416 -0.72169673 133 139 123
-0.10384716 -0.55814201 -0.72189778 141 136 124
-0.10436318 -0.55937815 -0.7225318 144 137 124
-0.10643195 -0.55708075 -0.72172397 135 139 123
-0.10403413 -0.55799675 -0.72185355 140 136 124
-0.1040341 -0.55723339 -0.72150099 138 136 124
-0.10288298 -0.55992103 -0.72261548 144 137 125
-0.10285667 -0.55789369 -0.72167653 137 136 124
-0.10299276 -0.55797648 -0.72172844 138 136 124
-0.15709433 -0.5676527 -0.73523933 161 141 121
-0.155444 -0.56937277 -0.73498201 158 140 122
-0.15537526 -0.56910801 -0.73492128 160 139 122
-0.15492569 -0.57028812 -0.73497921 153 139 122
-0.15443215 -0.57073712 -0.73490906 152 139 122
-0.15330079 -0.57153785 -0.73477328 150 138 123
-0.14808138 -0.58379358 -0.73593283 151 138 121
-0.14718257 -0.5834505 -0.73568445 152 139 121
-0.14739119 -0.58274871 -0.73558724 151 140 121
-0.14650027 -0.58253938 -0.735367 152 140 121
-0.14871579 -0.58244485 -0.73579282 150 140 121
-0.14848754 -0.58379161 -0.73601389 151 138 121
-0.15021075 -0.58165693 -0.73590153 150 138 121
-0.14940096 -0.58047092 -0.73549783 150 140 121
-0.14786378 -0.58034605 -0.73518777 151 142 121
-0.1498996 -0.58279145 -0.73608756 150 138 121
-0.14890294 -0.58061457 -0.73543686 151 141 121
-0.14909522 -0.5809871 -0.73555225 150 140 121
-0.14575942 -0.58040607 -0.73482859 152 143 121
-0.14424466 -0.58210307 -0.73496348 153 141 121
-0.14288636 -0.58356208 -0.73506987 153 140 121
-0.14628419 -0.58027995 -0.73488861 151 144 121
-0.14353654 -0.58308977 -0.7350691 152 141 121
-0.14399578 -0.58303958 -0.73512203 152 141 121
-0.1447264 -0.582461 -0.73510742 152 141 121
-0.14414997 -0.5832715 -0.73518908 152 140 121
-0.14473891 -0.58360946 -0.73533672 153 139 121
-0.14236538 -0.58267075 -0.73478878 155 138 121
-0.14189643 -0.58290958 -0.7347939 153 138 121
-0.14656486 -0.58474606 -0.73583502 149 138 121
-0.14726394 -0.58439785 -0.73589474 148 139 121
-0.14285947 -0.58445561 -0.73525685 151 140 121
-0.14566673 -0.58513701 -0.73579448 148 139 121
-0.14605941 -0.58526272 -0.7358762 147 139 121
-0.14478427 -0.58484805 -0.73560935 149 139 121
-0.14473975 -0.58479643 -0.73559177 149 139 121
-0.14145103 -0.58491093 -0.73523045 149 139 121
-0.14108288 -0.5846802 -0.7351315 147 139 120
-0.14039832 -0.59135336 -0.73678875 150 137 119
-0.13743216 -0.59057003 -0.7364043 148 136 118
-0.13753711 -0.59060347 -0.73641849 148 136 119
-0.13891289 -0.55605286 -0.7280367 154 139 122
-0.13520879 -0.55601245 -0.72711831 151 140 120
-0.13626935 -0.55581129 -0.7273376 154 140 121
-0.13742729 -0.55609632 -0.72767627 152 140 121
-0.13668709 -0.55543947 -0.72736287 157 139 122
-0.13675532 -0.5566386 -0.7276243 148 140 120
-0.13670067 -0.55634302 -0.72755069 150 140 120
-0.1390225 -0.55761695 -0.72840106 149 140 121
-0.14022966 -0.55906981 -0.72905183 152 139 122
-0.14054038 -0.5588842 -0.72909498 153 138 122
-0.13957226 -0.55923027 -0.72890896 150 139 122
-0.14113857 -0.55919904 -0.72932744 155 138 122
-0.14069001 -0.55826694 -0.72900242 154 139 122
-0.1420256 -0.55716938 -0.72914559 157 140 123
-0.14189337 -0.55751854 -0.72918242 157 140 122
-0.13947225 -0.55692297 -0.72837424 151 140 121
-0.13995655 -0.5576185 -0.7286582 152 140 121
-0.13535978 -0.5596143 -0.72799015 143 141 121
-0.13839032 -0.56029135 -0.72883242 147 140 122
-0.13549526 -0.56009465 -0.72813594 142 141 121
-0.13505971 -0.55773985 -0.72747272 146 141 120
-0.13642728 -0.55991834 -0.7283026 144 141 121
-0.13506715 -0.56014073 -0.72805095 141 141 121
-0.13802128 -0.55978477 -0.72863001 147 140 122
-0.13714977 -0.55871195 -0.72818053 147 140 121
-0.13834207 -0.55675972 -0.72803545 148 140 120
-0.1367048 -0.55789888 -0.72789204 147 140 120
-0.13649441 -0.55677915 -0.72759229 147 140 120
-0.13314879 -0.55793476 -0.72704214 141 140 120
-0.13366249 -0.55759573 -0.72709185 143 140 120
-0.13191769 -0.5602541 -0.72729623 134 141 120
-0.13465478 -0.55856454 -0.72757703 143 141 120
-0.13474497 -0.55744684 -0.72733122 146 141 120
-0.13475218 -0.55919141 -0.72775197 142 141 120
-0.13454287 -0.55878615 -0.72760212 143 141 120
-0.1342036 -0.55903214 -0.72757614 141 141 120
-0.14310376 -0.56384671 -0.7307421 151 141 121
-0.14322034 -0.56244355 -0.7305333 155 139 122
-0.14295761 -0.56275529 -0.73051065 154 139 122
-0.14363796 -0.56278652 -0.73071432 155 140 122
-0.14296453 -0.56327271 -0.73060215 152 140 121
-0.13975993 -0.56386632 -0.72994184 139 142 120
-0.14080524 -0.56311166 -0.73000056 147 141 121
-0.14072043 -0.56265038 -0.72987819 148 140 121
-0.14062661 -0.56388301 -0.73013508 143 141 120
-0.14044435 -0.56321222 -0.72994423 145 141 121
-0.14229043 -0.56280184 -0.73032779 153 139 122
-0.14123763 -0.56307858 -0.73008949 148 140 121
-0.14157373 -0.56149983 -0.72990918 154 139 122
-0.14148161 -0.56218803 -0.73000252 152 139 122
-0.14186482 -0.56362522 -0.73035383 149 141 121
-0.13537061 -0.5636031 -0.72892189 138 140 121
-0.13649684 -0.56265879 -0.7289471 136 142 120
-0.13679288 -0.56341916 -0.72918797 136 142 120
-0.13564382 -0.56208259 -0.7286281 138 141 121
-0.13497764 -0.56375277 -0.72887135 139 139 121
-0.13624355 -0.5639568 -0.72919357 137 141 120
-0.1371052 -0.56245363 -0.72903466 137 142 120
-0.1357559 -0.56123191 -0.72845709 139 142 121
-0.13793933 -0.56368887 -0.7294997 135 142 120
-0.13802521 -0.56285006 -0.72933018 137 142 120
-0.13855609 -0.56101388 -0.72903603 145 141 122
-0.13762724 -0.56145042 -0.728926 142 141 121
-0.13222988 -0.56334054 -0.72816974 140 138 120
-0.13205123 -0.56421447 -0.72838414 145 136 121
-0.13227756 -0.56353396 -0.72823435 141 138 120
-0.13214649 -0.56345302 -0.72818542 141 138 120
-0.13181783 -0.56394148 -0.72826004 144 136 120
-0.13198099 -0.5617432 -0.72766423 133 140 120
-0.13350092 -0.56063563 -0.72778428 137 141 121
-0.1336706 -0.5611524 -0.72794682 137 141 121
-0.13397466 -0.5629977 -0.72845161 138 139 121
-0.1325222 -0.56137294 -0.72771001 135 141 120
-0.1326046 -0.56159252 -0.72778159 135 141 120
-0.12812476 -0.56298643 -0.72734731 146 139 122
-0.12857103 -0.56222332 -0.72719175 142 140 121
-0.1273683 -0.5623011 -0.72698539 145 139 122
-0.12919305 -0.56438071 -0.72792715 150 137 121
-0.13057022 -0.56342453 -0.72787654 144 137 120
-0.12814018 -0.56445044 -0.72777706 153 137 123
-0.13044974 -0.56351566 -0.7278831 145 136 120
-0.12808222 -0.56393021 -0.72761905 150 139 122
-0.13016668 -0.56326121 -0.72776467 144 137 120
-0.12580842 -0.56439364 -0.72736615 157 137 124
-0.12394828 -0.56438577 -0.72703683 160 135 125
-0.12598071 -0.56381536 -0.72721356 154 138 123
-0.1424095 -0.56474376 -0.73072219 149 140 120
-0.14252149 -0.56487221 -0.73076814 149 140 120
-0.1397517 -0.56473935 -0.73014587 139 141 120
-0.14014778 -0.56627131 -0.73062742 146 140 119
-0.13869122 -0.56599224 -0.73023701 139 140 119
-0.13954696 -0.56581569 -0.73037863 142 140 119
-0.13880205 -0.56790894 -0.73075545 147 139 119
-0.14034855 -0.56478804 -0.73028892 141 141 120
-0.13785087 -0.56804371 -0.73061508 147 138 119
-0.13524018 -0.56827778 -0.7302863 147 138 121
-0.13758858 -0.56827462 -0.73064846 148 138 120
-0.13785578 -0.56833613 -0.73070943 148 138 119
-0.13668182 -0.56708533 -0.73012733 145 138 120
-0.13553075 -0.56554234 -0.72945511 141 139 121
-0.13791563 -0.56582856 -0.73002642 139 140 119
-0.13693437 -0.56556231 -0.72974473 140 140 120
-0.13772586 -0.56644773 -0.7301448 143 139 119
-0.13660304 -0.56616914 -0.72982925 143 138 120
-0.13570419 -0.56467235 -0.72924823 139 139 121
-0.13214558 -0.56593895 -0.72894078 149 136 121
-0.13408159 -0.5676778 -0.72988564 147 137 121
-0.13095993 -0.56687111 -0.72894132 156 135 123
-0.1314875 -0.56532645 -0.72861338 149 135 120
-0.131584 -0.56815052 -0.72945446 158 136 124
-0.13220669 -0.5668903 -0.72923064 151 136 121
-0.13370574 -0.56669253 -0.729496 146 137 121
-0.13407113 -0.5668112 -0.72960615 145 138 121
-0.13448301 -0.56503123 -0.72911733 141 138 121
-0.13262603 -0.56609941 -0.72909296 147 136 120
-0.13462389 -0.56548059 -0.72928905 141 138 122
-0.13445206 -0.56516552 -0.72915423 141 138 121
-0.12756842 -0.56819743 -0.72871381 159 139 124
-0.12824501 -0.56799263 -0.72877997 159 138 124
-0.12941951 -0.56835246 -0.72908914 161 137 124
-0.12766655 -0.5654456 -0.72798407 156 138 124
-0.12789987 -0.56628764 -0.72825474 157 138 123
-0.12970357 -0.56697178 -0.7287609 159 137 124
-0.12821124 -0.56455892 -0.72781992 153 138 122
-0.12792803 -0.56516594 -0.72795033 155 138 123
-0.1299063 -0.56611663 -0.72854567 155 137 122
-0.12967415 -0.56602126 -0.72848052 155 137 122
-0.12960699 -0.56514275 -0.7282148 153 136 122
-0.12422417 -0.56713593 -0.72797489 146 139 122
-0.12514625 -0.56457049 -0.72730654 157 137 124
-0.12330566 -0.56484091 -0.72707063 159 135 125
-0.12438481 -0.56682062 -0.7279011 147 138 122
-0.12375031 -0.56582183 -0.72746629 153 137 123
-0.12400355 -0.56743807 -0.72803211 144 138 122
-0.12680881 -0.56802636 -0.72853881 158 139 123
-0.12538904 -0.5682233 -0.72841674 152 138 123
-0.126522 -0.56638432 -0.72805727 155 139 123
-0.12614192 -0.56801844 -0.72845417 155 138 123
-0.12447609 -0.56701571 -0.72797585 146 138 122
-0.12224075 -0.56565028 -0.72717649 150 136 124
-0.13693336 -0.56861526 -0.73064071 147 138 120
-0.13686244 -0.56922776 -0.73078889 146 139 119
-0.13481542 -0.57061601 -0.73083311 143 140 121
-0.13469684 -0.57072568 -0.73083913 142 140 121
-0.13217774 -0.57113975 -0.73040807 141 139 121
-0.1330042 -0.57201576 -0.73081142 140 140 121
-0.13337927 -0.57019675 -0.73041981 143 139 121
-0.13148604 -0.57090139 -0.73018825 145 138 122
-0.13097812 -0.56984085 -0.72978252 153 137 123
-0.13170861 -0.57086253 -0.7302283 144 138 122
-0.13188888 -0.57106066 -0.73032355 142 138 121
-0.13146426 -0.56884909 -0.72962177 156 137 123
-0.13231 -0.56913614 -0.72989273 152 137 122
-0.12963104 -0.57174516 -0.73012412 141 138 122
-0.12905507 -0.57117057 -0.72986341 144 139 122
-0.12965089 -0.57130247 -0.72996169 145 139 122
-0.12897129 -0.57114369 -0.72984642 144 139 122
-0.12948178 -0.57140183 -0.72998452 144 139 122
-0.12702863 -0.56857955 -0.72873497 158 139 124
-0.12947433 -0.56909949 -0.72930336 157 137 124
-0.13085677 -0.56919599 -0.72957855 157 137 124
-0.13028003 -0.56975168 -0.72962677 154 137 123
-0.128848 -0.56848896 -0.72902358 160 138 124
-0.12922393 -0.57045174 -0.72962832 149 139 122
-0.1254386 -0.56878299 -0.72861683 149 139 123
-0.12614325 -0.5689196 -0.72875464 152 139 123
-0.12399871 -0.56886852 -0.72847056 142 138 122
-0.10811063 -0.57090211 -0.7278533 138 136 123
-0.11032336 -0.56869906 -0.72703582 143 134 125
-0.10822892 -0.57011849 -0.72748351 139 137 123
-0.10922457 -0.57024884 -0.72766507 140 136 124
-0.10743865 -0.56922847 -0.72695428 140 137 123
-0.11087513 -0.56918329 -0.72731751 140 135 126
-0.12696403 -0.52142721 -0.71569139 174 126 123
-0.12677738 -0.5210824 -0.71548522 167 129 121
-0.12700577 -0.5223037 -0.71595818 169 129 123
-0.12775764 -0.52327216 -0.71658134 162 133 122
-0.12737396 -0.5216769 -0.71596295 175 128 123
-0.1247426 -0.52469182 -0.71564126 143 137 120
-0.12641369 -0.52252561 -0.71576071 166 129 123
-0.12606761 -0.5232681 -0.7158187 159 132 122
-0.12610568 -0.52250892 -0.71562171 165 129 123
-0.12656437 -0.52219939 -0.71573472 168 129 122
-0.12434267 -0.52428281 -0.71534908 144 136 120
-0.12471171 -0.5254032 -0.7158283 138 139 120
-0.12363356 -0.52746242 -0.71603966 141 137 120
-0.12458544 -0.52617592 -0.71602714 140 139 120
-0.12314653 -0.52711356 -0.71570992 139 138 120
-0.12351818 -0.52854538 -0.7163505 144 137 121
-0.12360872 -0.52592516 -0.71551573 137 138 120
-0.12338027 -0.52613592 -0.71548605 137 138 120
-0.1221501 -0.52820879 -0.71571761 134 137 119
-0.12264135 -0.52683544 -0.71543145 135 138 119
-0.12191778 -0.52827942 -0.71565986 132 137 118
-0.12213821 -0.52766067 -0.71553051 132 137 118
-0.12384357 -0.53200483 -0.71750528 142 139 120
-0.11966085 -0.53130025 -0.71580768 126 137 117
-0.11966066 -0.53159195 -0.71589375 128 137 118
-0.11937309 -0.53225654 -0.71598965 129 136 118
-0.12027515 -0.53039795 -0.71575534 127 137 117
-0.12094412 -0.5317257 -0.71638346 137 137 120
-0.12290009 -0.53124785 -0.71694005 139 138 120
-0.12077598 -0.53239709 -0.71652877 135 138 119
-0.12140961 -0.53231889 -0.7167325 135 138 120
-0.12227251 -0.53043669 -0.71646589 141 137 120
-0.11998235 -0.53279352 -0.71636492 133 137 119
-0.11795689 -0.53277224 -0.71566451 124 136 118
-0.11832874 -0.53242856 -0.71568763 124 137 118
-0.11742543 -0.53286743 -0.7155146 122 136 118
-0.11850315 -0.53265041 -0.71581149 126 136 118
-0.12502939 -0.53603107 -0.71903151 136 144 121
-0.12396701 -0.53622955 -0.71872121 135 147 122
-0.12399136 -0.53448474 -0.71826571 138 143 121
-0.12373505 -0.53411531 -0.71807712 137 143 120
-0.12143973 -0.5365454 -0.71795791 128 146 121
-0.11919399 -0.53672481 -0.71732324 129 142 118
-0.11949 -0.53572685 -0.71709734 129 141 119
-0.12194127 -0.53690302 -0.71822596 128 148 122
-0.12007519 -0.53667873 -0.71757996 128 144 119
-0.11945844 -0.5352425 -0.71693373 130 140 119
-0.12175128 -0.53542352 -0.71771747 129 145 121
-0.12297235 -0.53475583 -0.7179786 131 145 121
-0.12272181 -0.53642929 -0.71833408 129 148 122
-0.11989061 -0.53330696 -0.71648514 132 138 119
-0.12289198 -0.53492767 -0.71799546 131 145 121
-0.12213606 -0.53567749 -0.7179234 129 146 121
-0.11791021 -0.53337401 -0.71582168 125 137 118
-0.11838043 -0.53357959 -0.71603471 126 137 118
-0.11849363 -0.53543186 -0.71664906 124 141 118
-0.11882035 -0.53572768 -0.7168678 127 140 118
-0.11854744 -0.53409046 -0.71624345 126 138 118
-0.12370337 -0.53761786 -0.71901768 128 148 122
-0.12167247 -0.53964663 -0.71898407 135 140 123
-0.12275001 -0.53885174 -0.71909022 132 145 122
-0.12143542 -0.53953928 -0.71886581 136 141 122
-0.12130414 -0.53958434 -0.71883422 136 140 123
-0.11992595 -0.53914738 -0.71825141 137 139 122
-0.11927161 -0.5396663 -0.7181977 139 136 122
-0.12190454 -0.5372889 -0.71833134 129 147 122
-0.11939149 -0.53713238 -0.71751279 129 143 119
-0.12183282 -0.53770888 -0.71842891 130 146 122
-0.11730394 -0.54046416 -0.71777743 127 137 120
-0.11798412 -0.54023546 -0.71790558 132 136 121
-0.11706223 -0.54031217 -0.71764851 124 138 120
-0.11871015 -0.53945082 -0.71793169 134 137 121
-0.11884006 -0.53888321 -0.71781957 133 138 120
-0.11947637 -0.54179007 -0.71887523 140 134 124
-0.11958267 -0.54253989 -0.71912068 137 135 124
-0.11861885 -0.54228151 -0.7187736 138 134 124
-0.1179492 -0.54385507 -0.71905696 130 137 123
-0.11786956 -0.54263026 -0.71870035 134 135 123
-0.1176606 -0.54368508 -0.71894413 129 137 123
-0.1164826 -0.54171771 -0.71797329 124 138 120
-0.11696216 -0.54235619 -0.71835047 128 137 121
-0.11721477 -0.5416193 -0.71816397 130 136 121
-0.10983226 -0.54448164 -0.71723539 124 139 122
-0.1093101 -0.54371232 -0.71683735 124 139 121
-0.10838264 -0.54280132 -0.71629995 124 139 121
-0.10912467 -0.54405254 -0.71692437 124 139 121
-0.10856801 -0.54320365 -0.71648932 124 139 121
-0.11035249 -0.54370052 -0.71706009 122 139 122
-0.10719583 -0.54450172 -0.71668518 127 139 121
-0.1070388 -0.54335934 -0.71623051 125 139 121
-0.10613224 -0.54389477 -0.7162599 125 138 120
-0.11583557 -0.54542351 -0.7190327 121 138 122
-0.11429945 -0.54601192 -0.71887195 122 138 122
-0.11227554 -0.54602641 -0.7183547 124 138 122
-0.11218383 -0.54493153 -0.71794564 122 139 122
-0.11208519 -0.54534936 -0.71806687 123 138 122
-0.11072445 -0.54854637 -0.71887761 132 137 123
-0.1082018 -0.54704177 -0.7178492 130 138 122
-0.10841265 -0.54703271 -0.71788245 130 138 122
-0.10852563 -0.54672629 -0.71778226 130 138 122
-0.10855246 -0.54494303 -0.71713305 127 139 121
-0.1094457 -0.5456416 -0.71756977 127 138 122
-0.10800477 -0.54497141 -0.71702594 128 138 121
-0.10909426 -0.54655337 -0.7178154 130 138 122
-0.1106546 -0.54699528 -0.7183044 129 138 123
-0.1093571 -0.54660738 -0.71789056 130 137 122
-0.1057547 -0.54698229 -0.71737748 127 138 122
-0.10634865 -0.54721314 -0.71757913 129 139 122
-0.10593506 -0.54732448 -0.71754515 128 138 122
-0.10552362 -0.54672819 -0.71723479 127 138 122
-0.14664131 -0.5638175 -0.73175937 155 141 120
-0.14411651 -0.56337368 -0.73095137 155 140 122
-0.14587355 -0.5630244 -0.73140037 157 141 121
-0.1448143 -0.56428689 -0.73131472 151 141 120
-0.14504533 -0.56398368 -0.73132849 153 141 121
-0.15158612 -0.56752169 -0.73368126 161 139 122
-0.1506914 -0.56491101 -0.73302537 159 138 119
-0.15113018 -0.56594145 -0.73330528 160 138 120
-0.15106553 -0.56532311 -0.73318619 160 139 119
-0.15200357 -0.56723636 -0.73373634 163 139 121
-0.14768144 -0.56638622 -0.73247737 152 140 121
-0.14739059 -0.56611311 -0.73235404 152 140 120
-0.1472294 -0.56817847 -0.73267108 153 138 121
-0.14822605 -0.5682748 -0.73294771 153 139 122
-0.14690639 -0.56778991 -0.73251921 152 138 121
-0.14784995 -0.56556189 -0.73237979 152 141 120
-0.1496523 -0.5660525 -0.73294425 155 140 120
-0.14886692 -0.56492764 -0.73254615 155 140 119
-0.14725356 -0.56506813 -0.73213768 152 141 120
-0.14774707 -0.56533355 -0.73231417 152 141 120
-0.14710984 -0.56483817 -0.73206079 152 141 119
-0.1442467 -0.56451756 -0.73119223 150 141 120
-0.14422238 -0.56670058 -0.73164588 152 139 121
-0.14470434 -0.56597358 -0.73163217 152 139 120
-0.14361832 -0.56588179 -0.73129523 151 140 120
-0.14467794 -0.5651105 -0.73144096 151 140 120
-0.14511731 -0.5662365 -0.73179257 152 139 121
-0.14636387 -0.56564975 -0.73200655 151 140 119
-0.14487089 -0.56645131 -0.73176748 152 139 121
-0.14601815 -0.56734383 -0.73221344 152 138 121
-0.14420481 -0.56801641 -0.73187077 152 137 121
-0.1454314 -0.56772208 -0.73213047 153 137 121
-0.14201702 -0.56648904 -0.73102331 150 139 121
-0.13986106 -0.56831616 -0.73103881 150 138 120
-0.14238536 -0.56587183 -0.73095578 150 139 121
-0.14164826 -0.56683159 -0.73103231 150 139 121
-0.15388294 -0.56983876 -0.7346316 163 138 123
-0.15321022 -0.5704748 -0.73458427 159 137 123
-0.15317975 -0.57010812 -0.7345193 162 137 123
-0.15108299 -0.56847024 -0.73371774 158 139 122
-0.15119304 -0.57043529 -0.73410696 157 138 123
-0.15040287 -0.56970173 -0.73377734 154 139 122
-0.15103778 -0.57005 -0.73399776 157 138 123
-0.15063754 -0.56852371 -0.73361802 156 139 123
-0.14914218 -0.57191658 -0.7339133 154 137 123
-0.14762889 -0.57138604 -0.73348248 157 136 123
-0.14749637 -0.57218081 -0.73365253 158 135 123
-0.1466655 -0.57161218 -0.73334748 159 135 123
-0.14853531 -0.57193351 -0.73379725 156 136 123
-0.14697099 -0.5716542 -0.73341841 158 135 123
-0.14803554 -0.56886017 -0.73300499 153 138 122
-0.15006767 -0.56936628 -0.73362833 154 139 122
-0.14876701 -0.5690757 -0.73323554 153 138 122
-0.14816281 -0.56931502 -0.73312205 153 138 122
-0.14954482 -0.57102108 -0.73379689 153 137 123
-0.14951169 -0.56930602 -0.73347223 153 138 122
-0.14361753 -0.57098198 -0.73245114 156 137 122
-0.14583932 -0.57224458 -0.7333129 160 135 123
-0.1444968 -0.57188326 -0.73289692 157 137 123
-0.14427388 -0.57047194 -0.73247546 157 136 123
-0.14460897 -0.57147294 -0.73281687 157 137 122
-0.14505172 -0.57172316 -0.73298824 159 136 123
-0.14549801 -0.56908691 -0.73243785 154 137 122
-0.14337103 -0.56853497 -0.73176241 154 136 121
-0.14430316 -0.56869054 -0.73203713 154 136 121
-0.14519085 -0.56880939 -0.73229146 153 137 121
-0.14565384 -0.57112318 -0.73298031 159 135 123
-0.14368227 -0.56906283 -0.73197168 155 136 122
-0.14079539 -0.56860542 -0.73127377 151 137 121
-0.13941991 -0.57079983 -0.73160744 151 138 121
-0.14137977 -0.56930095 -0.73155606 152 137 122
-0.13908638 -0.5702582 -0.73140872 150 138 121
-0.14027753 -0.5695104 -0.73141992 151 137 121
-0.13899501 -0.57159477 -0.73174101 151 138 122
-0.14033626 -0.57202286 -0.73208505 152 139 123
-0.14195505 -0.57134801 -0.7321896 153 139 122
-0.1404735 -0.57193559 -0.73208606 152 139 122
-0.14237079 -0.57158709 -0.732324 153 140 122
-0.14052486 -0.57144141 -0.73196608 152 139 122
-0.14251781 -0.5703674 -0.7320314 153 138 122
-0.13552548 -0.57136315 -0.73113692 144 141 121
-0.13767505 -0.5719499 -0.73162311 149 139 122
-0.13658223 -0.5712899 -0.73128211 146 140 122
-0.13838424 -0.57081115 -0.73143649 149 139 121
-0.13845631 -0.57119834 -0.73154849 149 139 121
-0.13723236 -0.57083046 -0.73126316 147 139 121
-0.13814586 -0.57163543 -0.73161429 149 139 122
-0.13718121 -0.5707016 -0.73122168 147 139 121
-0.13446157 -0.57112414 -0.73089206 142 141 121
-0.14674623 -0.57421821 -0.73392278 156 139 123
-0.14733686 -0.57403868 -0.73400319 155 139 123
-0.14749652 -0.57313728 -0.73385113 157 137 123
-0.1468294 -0.57365561 -0.73382461 158 137 123
-0.14777528 -0.57275397 -0.73382825 157 137 123
-0.14710838 -0.57241309 -0.73362666 159 135 123
-0.14370775 -0.57379568 -0.73311722 153 141 123
-0.14360651 -0.57377386 -0.73308802 153 141 123
-0.14384413 -0.57470942 -0.73333168 152 140 122
-0.14258602 -0.57426089 -0.73293424 152 139 122
-0.1428059 -0.57417375 -0.73297095 152 139 122
-0.14576133 -0.57525337 -0.73390865 153 142 122
-0.1459962 -0.5744698 -0.73380524 156 139 123
-0.14560455 -0.57322633 -0.73345798 158 137 123
-0.14536856 -0.57294297 -0.73334372 158 137 123
-0.1447022 -0.57409817 -0.73341942 154 141 123
-0.13929069 -0.57415003 -0.73236877 150 139 122
-0.13881274 -0.57565159 -0.73262751 148 141 121
-0.13972016 -0.57353938 -0.73229897 150 139 122
-0.14057066 -0.57506979 -0.73276484 149 139 122
-0.14055465 -0.57531482 -0.7328164 149 139 122
-0.13895515 -0.5756675 -0.73265254 148 141 121
-0.14137051 -0.5739193 -0.73265529 151 139 122
-0.14094821 -0.57376289 -0.7325511 151 139 122
-0.13909584 -0.57237113 -0.73195428 151 139 122
-0.14101329 -0.57406336 -0.73262197 151 138 122
-0.14240132 -0.5739615 -0.73284233 152 139 122
-0.1425232 -0.57249755 -0.73257333 153 141 122
-0.13521874 -0.57282877 -0.73144788 141 143 121
-0.13609608 -0.57444817 -0.73195028 141 142 120
-0.13520217 -0.57455724 -0.73184729 139 142 120
-0.13632309 -0.57540768 -0.73220593 141 142 120
-0.13558024 -0.5757553 -0.73218006 139 142 120
-0.13841364 -0.57456362 -0.73232621 148 140 121
-0.13833809 -0.5740605 -0.73220354 148 140 122
-0.13735111 -0.5732072 -0.73186189 147 140 122
-0.13577162 -0.57263499 -0.7314899 143 142 121
-0.13343136 -0.57235289 -0.73099273 140 141 121
-0.13468482 -0.57316977 -0.73145002 139 143 121
-0.14702718 -0.57625651 -0.73437703 148 144 121
-0.1443318 -0.58004087 -0.73449874 157 140 120
-0.14506108 -0.57816052 -0.73433208 156 140 121
-0.14526263 -0.57909566 -0.73451293 155 141 121
-0.1458157 -0.57868874 -0.73454547 154 142 121
-0.14295152 -0.57827806 -0.73388195 156 137 121
-0.14258051 -0.57886547 -0.73392469 158 136 120
-0.14347635 -0.57807982 -0.73396552 156 138 121
-0.14593257 -0.57629687 -0.73416221 153 142 122
-0.14391261 -0.57773834 -0.73399484 155 139 121
-0.1436632 -0.57730138 -0.73383421 154 139 122
-0.14017664 -0.57803458 -0.73337483 152 139 120
-0.13867766 -0.57808918 -0.73317242 149 140 120
-0.13959208 -0.57747257 -0.73315877 150 140 120
-0.1412746 -0.57954597 -0.73388773 157 137 119
-0.13910125 -0.57981426 -0.73363864 152 138 119
-0.14243168 -0.57822937 -0.73375714 156 137 121
-0.14031564 -0.57757926 -0.73328954 152 139 120
-0.14104293 -0.57623833 -0.73309422 149 139 121
-0.14225453 -0.57635337 -0.73330343 151 138 122
-0.14169356 -0.57660586 -0.73327613 150 138 121
-0.13766553 -0.57980859 -0.73341924 146 139 119
-0.13827431 -0.57772517 -0.73302895 147 140 120
-0.13773723 -0.57818902 -0.73306078 147 140 120
-0.14275768 -0.58131093 -0.73452246 158 137 121
-0.1440732 -0.58061188 -0.7345857 156 139 120
-0.14259174 -0.58176863 -0.73460174 158 138 120
-0.14162132 -0.582228 -0.73460352 153 138 120
-0.1419839 -0.58176732 -0.73453426 156 137 121
-0.14192477 -0.58154851 -0.73447609 155 137 120
-0.14157712 -0.58121938 -0.7343601 155 137 120
-0.13928537 -0.58141071 -0.73408639 148 138 120
-0.14069326 -0.58041877 -0.73402119 155 137 119
-0.14081775 -0.5816083 -0.73435974 151 137 120
0 0 0 1 0 0 0 1 0 0 0 1 0 0 0 0 0 856 1 0 0
