ply
format ascii 1.0
comment PCL generated
element vertex 690
property float x
property float y
property float z
property uchar red
property uchar green
property uchar blue
element camera 1
property float view_px
property float view_py
property float view_pz
property float x_axisx
property float x_axisy
property float x_axisz
property float y_axisx
property float y_axisy
property float y_axisz
property float z_axisx
property float z_axisy
property float z_axisz
property float focal
property float scalex
property float scaley
property float centerx
property float centery
property int viewportx
property int viewporty
property float k1
property float k2
end_header
0.014860578 -0.1811341 -0.70299375 45 135 110
0.014549537 -0.18031958 -0.70302153 45 136 110
0.01535718 -0.1838793 -0.70283675 44 136 112
0.014275812 -0.18197064 -0.70280379 48 135 110
0.01477924 -0.18268597 -0.70283413 46 135 111
0.014544298 -0.18183967 -0.70286489 47 135 111
0.015663376 -0.1883273 -0.70267719 47 138 112
0.015550085 -0.18856521 -0.70264584 47 138 111
0.01573785 -0.18645585 -0.70276052 43 137 111
0.015740072 -0.18698129 -0.7027455 45 136 112
0.015780572 -0.18714921 -0.70274854 45 136 112
0.015061952 -0.1920203 -0.7024613 44 136 112
0.015026517 -0.1901454 -0.70249581 48 137 112
0.015479381 -0.19053954 -0.7025699 44 138 111
0.015538318 -0.18983613 -0.70259559 46 138 111
0.012827475 -0.19510765 -0.70198298 49 136 113
0.012399866 -0.19499695 -0.70194006 51 135 113
0.012239578 -0.19564202 -0.70188451 51 135 113
0.013163437 -0.19673112 -0.7019282 47 136 113
0.01239273 -0.1953848 -0.70191699 51 135 113
0.014375796 -0.19653423 -0.70211005 43 136 113
0.014564978 -0.19633399 -0.7021516 42 136 113
0.014873319 -0.19505191 -0.70227444 43 136 114
0.014221995 -0.19472408 -0.7021898 46 136 113
0.013804646 -0.19572383 -0.70206589 46 136 113
0.01212129 -0.20064077 -0.7015577 47 134 113
0.011808897 -0.20077473 -0.70152044 47 135 113
0.012623793 -0.19859672 -0.70176148 46 136 113
0.011999476 -0.20071577 -0.70154142 47 135 113
0.011055953 -0.19731075 -0.70165241 52 136 114
0.010748453 -0.19915375 -0.70152634 51 135 113
0.01156746 -0.1974365 -0.70170516 51 135 113
0.013981896 -0.19838943 -0.7019099 43 136 114
0.012028623 -0.2048451 -0.70123535 47 132 114
0.013551186 -0.20195155 -0.70157081 43 135 115
0.01249147 -0.20399545 -0.70133454 46 133 114
0.012767378 -0.20226273 -0.70150858 45 135 114
0.013288614 -0.20474948 -0.70129758 46 133 116
0.01232437 -0.20228058 -0.70147777 46 134 114
0.011110201 -0.20141438 -0.70141709 50 133 113
0.010697181 -0.20326862 -0.70128864 49 134 113
0.012715681 -0.20171371 -0.70153981 45 135 114
0.014709692 -0.20506084 -0.70138425 46 132 116
0.014765522 -0.20422256 -0.70146751 43 132 116
0.01657635 -0.20467547 -0.70159924 43 133 115
0.01651242 -0.20467497 -0.70159316 43 133 115
0.015424618 -0.20475227 -0.70148152 44 132 116
0.013970873 -0.2026642 -0.70153761 43 133 115
-0.0044482164 -0.2089127 -0.70026916 45 136 113
-0.0042751278 -0.20887628 -0.70026511 45 136 113
-0.0038914373 -0.20796375 -0.70034158 47 135 113
-0.0021850974 -0.20832781 -0.70022774 44 135 114
-0.0052060848 -0.20799606 -0.70041424 48 137 112
-0.0013787928 -0.20886689 -0.70016557 43 135 114
-0.00049106032 -0.20838419 -0.70022136 45 135 113
0.0056782304 -0.2086098 -0.7005325 48 134 112
0.0089571206 -0.20787352 -0.7007516 46 133 114
0.0092913155 -0.20608267 -0.70097983 49 133 113
0.0078257564 -0.20714548 -0.70079958 48 134 112
0.0071558021 -0.20868865 -0.70058948 46 134 112
0.0065227374 -0.20872806 -0.70056236 47 134 112
0.010395148 -0.20864724 -0.70072436 43 132 114
0.012170753 -0.20784438 -0.70093322 45 133 116
0.012965465 -0.20695351 -0.70107079 46 133 116
0.013663664 -0.20553812 -0.70124418 46 133 116
0.010349073 -0.20856231 -0.7007277 43 132 114
0.013541752 -0.2070737 -0.70110703 46 133 116
0.010918992 -0.20673376 -0.70096666 46 133 114
0.010634077 -0.20658529 -0.7009725 46 133 114
0.011337063 -0.20641056 -0.70102334 46 132 115
0.011554323 -0.20629667 -0.70104629 46 132 115
0.012456447 -0.20558064 -0.70117086 46 133 115
0.017415302 -0.20829397 -0.7014178 47 132 115
0.01672169 -0.20840333 -0.70133406 46 133 115
0.016254364 -0.20875257 -0.7012586 47 132 116
0.016817506 -0.20755556 -0.70140326 46 133 116
0.016168896 -0.20689397 -0.70137775 45 134 116
0.01713557 -0.2060896 -0.70153952 44 134 115
0.016892038 -0.20556022 -0.70155221 44 133 116
0.016332248 -0.20518492 -0.70152956 44 134 115
0.016466856 -0.20562364 -0.70150608 44 134 115
0.016142808 -0.20508178 -0.70151991 45 132 116
0.014762435 -0.2074829 -0.70118821 46 133 117
0.018873522 -0.20891358 -0.70160496 46 132 116
0.019983901 -0.20854212 -0.70180136 43 132 117
0.018894428 -0.20825367 -0.70163053 45 132 116
0.019921152 -0.2089605 -0.70177692 43 132 117
0.019494494 -0.20639437 -0.70181632 42 133 116
0.01888625 -0.20652279 -0.70172828 43 133 116
-0.0072937543 -0.21088919 -0.70013648 49 136 112
-0.006263494 -0.20963301 -0.70025498 47 136 112
-0.0063869688 -0.21195552 -0.69991273 46 136 110
-0.0075083431 -0.21086921 -0.7001543 49 136 111
-0.0060321111 -0.20907204 -0.70032442 47 137 112
-0.0040415609 -0.21109359 -0.69992596 43 135 112
-0.0024606162 -0.21260215 -0.69977045 40 134 113
-0.003178074 -0.21251754 -0.6997782 42 135 113
-0.002970723 -0.21175773 -0.69985807 42 135 113
-0.0042673275 -0.21277629 -0.69974941 43 136 111
-0.0048449379 -0.21075122 -0.70001274 45 135 111
-0.0032338351 -0.20959379 -0.70011532 43 136 113
-0.0042973934 -0.21032746 -0.7000522 44 136 112
-0.0041053444 -0.21005298 -0.70008498 44 136 112
-0.0049216859 -0.21185006 -0.6998502 45 135 110
0.00076570804 -0.21172073 -0.69987881 38 132 114
0.0018580215 -0.21065068 -0.69999701 40 133 113
-0.00040558376 -0.21256509 -0.6997838 37 134 113
0.0014457778 -0.21148978 -0.69990683 37 134 113
-0.00085333292 -0.21096343 -0.69994903 42 134 114
-0.00036262232 -0.20994367 -0.70005852 43 134 114
0.0010178431 -0.20943339 -0.70011973 46 134 113
-0.00094068411 -0.21018139 -0.70003039 42 134 114
-0.0017259734 -0.21239717 -0.69979393 40 134 114
0.0055424543 -0.21052203 -0.70030254 43 135 114
0.005460286 -0.20999128 -0.7003597 44 135 113
0.0035274001 -0.21142393 -0.70005047 36 134 112
0.0053047691 -0.21036065 -0.70030463 42 135 113
0.0019866563 -0.21127215 -0.69993538 36 134 112
0.004076194 -0.20945904 -0.70030493 45 134 112
0.0049591861 -0.20913391 -0.7004149 46 134 112
0.0024642707 -0.20978811 -0.70013177 44 133 113
0.0038495306 -0.20958005 -0.70027274 44 135 112
0.0076252231 -0.21114881 -0.70031297 40 134 116
0.0095435372 -0.21149808 -0.70031083 40 135 116
0.0074433004 -0.21232936 -0.70015383 39 135 116
0.0095154205 -0.21097362 -0.70037901 41 134 116
0.0081116091 -0.21179031 -0.70023984 40 135 116
0.0077376803 -0.21069878 -0.70037073 42 133 116
0.008799606 -0.20928283 -0.70057636 43 134 114
0.0087889954 -0.20955037 -0.70054418 43 133 115
0.0074524209 -0.21083947 -0.70034391 42 133 116
0.0076216771 -0.21013294 -0.70043379 42 134 114
0.013191681 -0.21192478 -0.70059741 42 133 118
0.012781521 -0.21280773 -0.70046067 39 134 118
0.012610305 -0.21036802 -0.70070046 43 135 117
0.013650698 -0.20910671 -0.70094377 46 134 117
0.013511674 -0.21070242 -0.70076042 43 133 118
0.012156644 -0.20945667 -0.70077556 45 133 117
0.0099994764 -0.20928013 -0.70062578 42 133 114
0.010366989 -0.21174259 -0.70033193 41 134 116
0.010445382 -0.2094792 -0.70063537 43 133 115
0.009902535 -0.20985313 -0.70054281 42 134 115
0.017385416 -0.21225074 -0.70113635 45 131 118
0.015273357 -0.21287152 -0.70078307 42 133 118
0.016747987 -0.21023414 -0.7011804 46 133 116
0.017094471 -0.21026133 -0.70122951 46 133 116
0.017320262 -0.20925874 -0.70133132 47 132 115
0.016038697 -0.210693 -0.70104462 44 133 117
0.015139066 -0.20982979 -0.70103079 45 134 116
0.014015524 -0.2104419 -0.70084262 43 133 118
0.015841648 -0.21036918 -0.70105094 44 134 116
0.014786917 -0.20926294 -0.70105201 46 133 117
0.01799725 -0.21277836 -0.70119554 44 131 118
0.019549496 -0.20907271 -0.7017085 45 131 117
0.018197943 -0.21226229 -0.70126665 45 130 118
0.017943457 -0.2111326 -0.70130169 46 132 117
0.02046017 -0.20907839 -0.70185894 43 131 118
0.018681975 -0.20987485 -0.70150995 46 132 117
0.020528495 -0.20953232 -0.70183927 43 130 118
-0.0075573632 -0.21398406 -0.69966322 50 134 111
-0.0063609481 -0.21347415 -0.69968891 47 135 110
-0.0075731361 -0.2135572 -0.69972813 48 136 110
-0.008001497 -0.21344301 -0.69977927 50 135 111
-0.0071922224 -0.21335325 -0.69974023 48 135 110
-0.0034374841 -0.21366891 -0.69965214 42 134 113
-0.0042316774 -0.21371189 -0.69965667 43 135 112
-0.0046208934 -0.21293852 -0.69973236 44 135 111
-0.0052883108 -0.21336822 -0.69969022 45 135 110
-0.0012292145 -0.21322083 -0.69969904 38 133 114
0.012805805 -0.21387787 -0.70034593 36 134 118
0.0099984035 -0.21362819 -0.70007706 36 136 117
0.010217158 -0.21393211 -0.70006692 36 135 117
0.01239711 -0.21415474 -0.70027304 36 134 118
0.010747384 -0.21377027 -0.70014066 36 135 117
0.012345515 -0.21382053 -0.70030415 37 134 118
-0.0077502634 -0.21599607 -0.69946527 50 133 112
-0.0072410335 -0.21454638 -0.6996032 50 133 111
-0.0059716101 -0.21473065 -0.69956017 47 133 111
-0.0067230775 -0.21603081 -0.69944793 47 134 112
-0.0055640577 -0.21494968 -0.69952452 46 134 111
-0.0054188017 -0.21499182 -0.69951445 46 134 111
-0.0050832601 -0.21649699 -0.69935375 45 134 112
-0.0023158463 -0.21509591 -0.69943857 41 134 114
-0.0042154873 -0.21423553 -0.69958341 43 135 112
-0.002841657 -0.21537927 -0.69940609 42 134 113
-0.0021779703 -0.2156527 -0.69935924 40 134 113
-0.0016977999 -0.21472161 -0.69949257 40 134 114
-0.00021609577 -0.21575658 -0.69938761 36 135 114
-0.0010098789 -0.21460313 -0.6995272 38 135 114
-0.00098893291 -0.21655582 -0.69925594 38 135 114
-0.010560608 -0.21859354 -0.69889498 48 134 113
-0.011316318 -0.21836644 -0.69892836 50 134 113
-0.010318162 -0.21921133 -0.69877392 47 134 114
-0.010482288 -0.21989509 -0.69863272 45 134 114
-0.01041983 -0.21948162 -0.69871742 46 134 114
-0.012715805 -0.21921411 -0.69874078 48 134 113
-0.006448905 -0.21910746 -0.69883138 42 134 113
-0.0079178344 -0.21957952 -0.69872975 43 135 114
-0.0063508605 -0.21917 -0.69881672 42 134 113
-0.0073918896 -0.21986657 -0.6986621 42 135 114
-0.0085259378 -0.22064373 -0.69848949 42 135 114
-0.0069021638 -0.21771537 -0.69914758 45 134 112
-0.0081403013 -0.21865448 -0.6989308 45 135 113
-0.0075391089 -0.21720727 -0.69923681 48 133 113
-0.0097211702 -0.21968779 -0.69868755 45 134 114
-0.0092290565 -0.21794018 -0.69905198 48 134 113
-0.0035942215 -0.21846941 -0.69888419 39 135 113
-0.002585019 -0.22058912 -0.69855106 36 133 115
-0.0020345645 -0.21987583 -0.69868141 36 133 115
-0.0054197479 -0.22038892 -0.69852644 39 133 114
-0.0031069689 -0.21907705 -0.69879282 38 133 114
-0.0053669913 -0.21741758 -0.69919443 44 135 112
-0.0056005847 -0.21702097 -0.69929439 45 134 112
-0.0048807967 -0.21909088 -0.69879293 40 134 113
-0.0025565079 -0.21702574 -0.69916934 40 135 113
-0.0047564195 -0.21720257 -0.69921863 43 134 112
-0.00031660381 -0.21977685 -0.69876289 34 133 115
-0.0017206905 -0.21821319 -0.69896668 37 135 114
-0.0010360196 -0.21794003 -0.6990304 37 134 115
0.00055626384 -0.21689701 -0.69924647 36 134 115
-0.00017400889 -0.21772544 -0.69908893 36 134 115
-0.00073860155 -0.21906306 -0.69885075 35 133 115
-0.01526873 -0.22273809 -0.69796824 48 136 115
-0.014183797 -0.22098251 -0.6983512 47 134 114
-0.015040401 -0.22191146 -0.69814849 47 135 114
-0.015891369 -0.22209135 -0.69809902 48 135 116
-0.015945071 -0.22159493 -0.69819981 48 135 116
-0.010811813 -0.22376411 -0.69783443 45 135 115
-0.012168544 -0.2232468 -0.69787931 47 136 116
-0.011060783 -0.22404741 -0.69776821 45 135 115
-0.010340002 -0.22310548 -0.69798392 44 136 114
-0.01023897 -0.22353263 -0.69790405 44 136 114
-0.010177522 -0.22446337 -0.69772339 44 135 114
-0.012146392 -0.22088359 -0.69840127 45 134 114
-0.012076596 -0.22281398 -0.69797343 47 135 116
-0.012056775 -0.22176942 -0.69820589 45 135 114
-0.011006255 -0.22077194 -0.69844502 44 135 114
-0.01249167 -0.22243455 -0.69805086 47 135 115
-0.007499754 -0.22290175 -0.6980617 40 135 114
-0.0059351674 -0.22225967 -0.69821948 38 135 113
-0.0062351488 -0.22160423 -0.69831061 39 134 113
-0.0070824721 -0.22451341 -0.69782579 38 135 113
-0.0059419884 -0.22152305 -0.6983341 38 136 113
-0.005984758 -0.22082764 -0.69844097 39 135 113
-0.0082197711 -0.22184224 -0.69825041 42 135 114
-0.0078246631 -0.22180048 -0.69825697 41 135 114
-0.0081568006 -0.22260645 -0.69809967 42 134 114
-0.0096218716 -0.22207753 -0.69820982 43 135 114
-0.0074042073 -0.22172105 -0.69827092 40 135 113
-0.0025885899 -0.22262551 -0.69823128 35 134 114
-0.0029629932 -0.22263128 -0.69822294 36 133 115
-0.0043017711 -0.22324134 -0.69810098 36 134 114
-0.0044409139 -0.22361267 -0.69804007 36 134 114
-0.0035436843 -0.22288676 -0.6981715 36 134 114
-0.0041846507 -0.22271746 -0.69818521 36 134 114
-0.0047015315 -0.22238478 -0.69822645 36 134 114
-0.0055756345 -0.22107281 -0.69841319 38 136 113
-0.00476998 -0.22290041 -0.69814473 36 133 114
-0.0030846228 -0.22123799 -0.69843841 36 133 115
-0.001429935 -0.22315133 -0.69819009 34 135 114
-0.0018240458 -0.22414821 -0.69801229 35 136 113
-0.00069980056 -0.22107561 -0.69855529 34 134 114
-0.0015220348 -0.22121069 -0.69848907 36 133 115
-0.0016018281 -0.22132638 -0.69846654 36 133 115
-0.014495363 -0.22747216 -0.69699603 46 137 116
-0.014335522 -0.22756791 -0.69698232 46 137 116
-0.0137123 -0.22834866 -0.69685304 45 137 116
-0.010656305 -0.22782333 -0.69702816 49 136 112
-0.010297721 -0.22755617 -0.6970908 49 136 111
-0.010774218 -0.2284611 -0.69689375 51 137 112
-0.012632662 -0.22836785 -0.69687498 46 137 114
-0.0099825952 -0.2253295 -0.6975584 44 136 114
-0.012580493 -0.22666359 -0.69721258 45 136 115
-0.013345344 -0.22585142 -0.69733113 47 137 116
-0.011846778 -0.22534841 -0.69748741 46 136 116
-0.012735097 -0.22681642 -0.69717777 45 137 115
-0.01142588 -0.22525877 -0.69752175 46 135 116
-0.011872641 -0.22659956 -0.69725418 44 136 115
-0.0073629157 -0.22842152 -0.69705898 45 135 111
-0.0070493789 -0.22746657 -0.69725502 43 136 111
-0.0065583312 -0.22807509 -0.69716984 42 136 111
-0.0069934824 -0.2259482 -0.69754112 42 134 112
-0.0070748655 -0.22654222 -0.69742572 42 135 111
-0.0081446944 -0.2258973 -0.697505 43 135 112
-0.0093577001 -0.22712524 -0.69720602 49 136 111
-0.0095409192 -0.22465855 -0.69771004 43 135 114
-0.0089550242 -0.2250534 -0.6976499 43 135 114
-0.0093104355 -0.22729698 -0.69717216 49 136 111
-0.0092383604 -0.22633629 -0.69737375 46 135 112
-0.0033293639 -0.22661984 -0.69756138 37 137 112
-0.0019898929 -0.22510996 -0.69786102 35 137 113
-0.0041809194 -0.22800715 -0.69731152 38 137 112
-0.0045062825 -0.22782275 -0.69731528 38 137 112
-0.0028858003 -0.22828233 -0.69736058 36 139 111
-0.0041191778 -0.22616448 -0.69760048 38 136 113
-0.0044268188 -0.22699293 -0.69744003 38 136 112
-0.0046249861 -0.22483487 -0.69783825 36 135 113
-0.0052787657 -0.22522829 -0.69775206 36 135 113
-0.0048858658 -0.22609366 -0.69759858 37 136 112
4.2534666e-06 -0.22803928 -0.69750673 36 139 111
-0.0013962693 -0.22536434 -0.69783753 35 137 113
0.0021249685 -0.22741176 -0.69765621 36 138 109
0.0020444978 -0.22820938 -0.69754785 38 138 109
0.0020678199 -0.227781 -0.6976043 38 137 110
-0.015087411 -0.2291695 -0.69666803 47 137 116
-0.014953442 -0.22858299 -0.6967786 46 137 116
-0.010797845 -0.23185028 -0.69635117 56 137 115
-0.010956856 -0.23083478 -0.6965065 54 137 114
-0.010802045 -0.23062579 -0.69654351 54 136 114
-0.010769202 -0.23034313 -0.69658875 54 136 113
-0.010605526 -0.22983591 -0.69667292 53 137 112
-0.010525808 -0.23205046 -0.69632697 56 138 116
-0.013451698 -0.22904952 -0.69674021 46 137 116
-0.0073273545 -0.23010074 -0.69679493 47 137 113
-0.0059730387 -0.22971304 -0.69693911 44 136 111
-0.0063066343 -0.22992939 -0.69688523 45 136 111
-0.0090049747 -0.23209576 -0.69638646 55 139 116
-0.0064145578 -0.23114417 -0.69669402 51 135 112
-0.0064092437 -0.23141335 -0.69665349 51 136 112
-0.007957438 -0.22875725 -0.69696921 47 137 111
-0.009189643 -0.23064187 -0.69660199 53 138 114
-0.0082230251 -0.22884949 -0.69693941 48 137 110
-0.0076807104 -0.22941916 -0.69688112 47 137 112
-0.0070700888 -0.2287146 -0.69702703 44 136 111
-0.0053009503 -0.23228417 -0.69658005 52 135 111
-0.0044392222 -0.23195712 -0.69667059 49 136 110
-0.0026171505 -0.23160234 -0.69680017 43 137 110
-0.0021065606 -0.23108152 -0.69691396 42 137 110
-0.0024962295 -0.23044352 -0.69701749 40 138 110
-0.0036859321 -0.23041593 -0.69698054 44 137 111
-0.0036291343 -0.22903548 -0.69719923 39 137 111
-0.0030253287 -0.22877263 -0.69727981 38 138 111
-0.005834314 -0.22911035 -0.69703943 42 136 111
-0.0048807091 -0.22914521 -0.69709837 41 137 111
-0.0039974917 -0.2290782 -0.69716799 39 137 110
-0.0012694097 -0.23228024 -0.69674379 43 137 109
0.0019173506 -0.23007481 -0.69728523 40 137 109
0.00069833058 -0.23060285 -0.6971212 42 137 109
0.0010820675 -0.23023759 -0.69720006 42 137 109
0.0015274141 -0.23188472 -0.69700843 43 137 109
-0.0017835443 -0.22926004 -0.69725901 36 139 110
-0.00011822081 -0.2298791 -0.69719213 40 137 110
-3.9685168e-05 -0.23043492 -0.69709212 42 137 109
-0.0003788867 -0.23032892 -0.69710201 40 138 109
-0.0016176392 -0.23056646 -0.69702351 40 137 110
0.004045649 -0.23198292 -0.69715285 43 137 109
0.0037836314 -0.23108891 -0.69727784 43 137 110
0.0034572217 -0.23152055 -0.69719213 43 137 109
0.0049487785 -0.2309981 -0.69735736 43 137 110
0.0032359802 -0.23239085 -0.69704384 44 136 109
0.002079804 -0.23084728 -0.69719189 42 137 109
0.0022083295 -0.22899973 -0.69745415 39 138 109
0.0022873385 -0.23161718 -0.69710225 43 137 109
0.003506443 -0.22874165 -0.69758743 38 139 110
0.0035513791 -0.2295849 -0.69747555 39 138 110
0.006939997 -0.2323312 -0.69729125 45 136 110
0.0084404256 -0.23055854 -0.69768107 40 136 111
0.0077476115 -0.23058304 -0.69761854 40 137 110
0.0090181287 -0.23080428 -0.69769382 40 137 110
0.0086581446 -0.23158951 -0.69754708 42 136 110
0.005865206 -0.23003811 -0.69755876 40 138 111
0.0069104983 -0.23103018 -0.69748408 42 137 110
0.0069019077 -0.23127761 -0.6974448 43 137 110
0.0064989729 -0.22920989 -0.6977368 38 139 111
0.0058793756 -0.22958241 -0.69763106 40 138 111
0.012358326 -0.23225924 -0.69781983 38 137 110
0.012009803 -0.23239619 -0.69776243 38 136 110
0.011549067 -0.23085105 -0.6979385 37 135 111
0.011321825 -0.23048043 -0.69796902 37 135 111
0.010789289 -0.23029885 -0.69793981 37 136 111
-0.0083398055 -0.23467395 -0.69593179 59 136 114
-0.0084093902 -0.23396493 -0.69605815 59 136 115
-0.006351673 -0.23585191 -0.69579053 61 133 113
-0.0083730621 -0.23451881 -0.69595873 59 136 114
-0.0073872572 -0.23568112 -0.69578356 60 134 114
-0.0076120119 -0.23410979 -0.69607329 58 136 114
-0.007327605 -0.23441559 -0.69602758 59 135 114
-0.0095234588 -0.23248602 -0.69629097 58 139 117
-0.0063106236 -0.23382591 -0.69621438 57 135 112
-0.0070344247 -0.23314162 -0.69631118 56 135 113
-0.0048986073 -0.23582247 -0.69587427 60 133 112
-0.0042207558 -0.23494877 -0.69607443 56 133 112
-0.0023831127 -0.23327559 -0.69649237 49 136 110
-0.0022744816 -0.23570365 -0.69606417 62 135 111
-0.0027735392 -0.23349932 -0.69642717 49 136 110
-0.0021808816 -0.23403767 -0.69636875 53 136 110
-0.0056957747 -0.23352575 -0.69631106 55 134 111
-0.0043477984 -0.23461762 -0.69613141 55 134 112
-0.0024433534 -0.23262842 -0.69661266 46 137 109
-0.0056203599 -0.23271957 -0.69648147 54 134 111
-0.0038037628 -0.23251805 -0.69658762 48 136 110
0.0010553049 -0.23630324 -0.69629776 65 135 110
0.0011781533 -0.23382124 -0.69667757 52 135 110
0.00040881324 -0.23424211 -0.69653326 54 135 110
0.00077367993 -0.23442107 -0.69654578 55 135 110
0.0019083193 -0.23590524 -0.69644767 63 135 110
5.6802994e-05 -0.23325075 -0.69667572 48 136 109
-0.00060044928 -0.2336996 -0.69654584 51 136 110
-0.0018671864 -0.23590861 -0.69605458 63 135 111
-0.00049646816 -0.23356423 -0.69657791 51 135 110
-0.0014236153 -0.23276791 -0.6966508 46 137 109
0.0049698614 -0.23369786 -0.69694442 51 136 110
0.0055090366 -0.2350228 -0.69676316 51 137 109
0.0047616418 -0.23621835 -0.69654083 55 136 109
0.0055247471 -0.2340122 -0.69692177 49 136 109
0.0053370739 -0.23568404 -0.6966517 52 137 108
0.0042455015 -0.23351234 -0.69693446 51 136 110
0.0041483836 -0.23309278 -0.69699097 48 137 109
0.0027067517 -0.2347495 -0.69666541 56 136 110
0.0054447143 -0.23259406 -0.69713736 46 137 109
0.0030713081 -0.23316723 -0.69691962 48 137 109
0.0029210309 -0.23256527 -0.69700015 45 136 109
0.0078704851 -0.23510772 -0.69693524 48 136 109
0.0086541791 -0.23470864 -0.69706315 47 137 110
0.0075003351 -0.23610939 -0.69674557 50 137 109
0.0078690825 -0.23512612 -0.6969322 48 136 109
0.0089659384 -0.23556902 -0.69695193 48 136 112
0.008907374 -0.23267469 -0.69740558 44 136 110
0.0070619821 -0.233924 -0.69705367 47 137 109
0.0076850569 -0.23347084 -0.69717735 46 137 109
0.0065050377 -0.23558126 -0.69674748 50 137 108
0.007921448 -0.23306732 -0.6972605 45 136 109
0.0072146407 -0.23368976 -0.6971032 47 136 109
0.012018759 -0.23444188 -0.69744021 42 137 111
0.01346473 -0.2352435 -0.69747823 41 138 108
0.013243353 -0.23459515 -0.69755352 39 138 108
0.0119396 -0.23581916 -0.69721872 44 137 110
0.012291066 -0.23500676 -0.69738346 42 137 110
0.011072525 -0.23303367 -0.69756091 41 136 110
0.0097808763 -0.23358507 -0.69733465 45 136 111
0.01014667 -0.23504299 -0.69714212 46 136 112
0.010019657 -0.23477261 -0.69717145 46 137 111
0.011353907 -0.23319189 -0.69756597 41 136 110
0.014289048 -0.23595162 -0.69747049 40 138 108
0.014134887 -0.23499309 -0.69759673 39 137 108
-0.0040779389 -0.23682231 -0.69574851 64 133 112
-0.0058200909 -0.23643631 -0.6957041 62 132 113
-5.9847138e-05 -0.23721094 -0.69601846 67 135 112
0.0012465728 -0.23943953 -0.6957404 81 132 115
0.0017936332 -0.23675445 -0.69629449 67 135 111
0.00025986921 -0.2381655 -0.69587457 72 133 113
0.0013321614 -0.23929858 -0.69577539 80 132 115
-0.0003733217 -0.23651759 -0.69610816 66 135 111
-0.00146912 -0.23737413 -0.69584006 67 135 112
0.0041898051 -0.23968153 -0.69589782 65 135 109
0.0044236109 -0.23991951 -0.69586724 65 135 109
0.0023508286 -0.23775749 -0.6961481 69 134 111
0.004116266 -0.23896781 -0.69602591 62 135 109
0.002418245 -0.23771308 -0.69616026 69 134 111
0.0023994965 -0.23671843 -0.69634289 64 136 110
0.0039776312 -0.23815529 -0.6961664 60 136 108
0.0047185901 -0.23908895 -0.69603819 58 136 107
0.0035621971 -0.2370894 -0.69633323 60 137 108
0.0025628412 -0.23680657 -0.6963352 63 136 109
0.0094459094 -0.24010795 -0.69620615 46 137 109
0.0080813756 -0.23950306 -0.69620144 51 135 109
0.0079179853 -0.23938636 -0.69620866 51 137 108
0.007307698 -0.23920794 -0.69619042 53 136 108
0.0078655891 -0.2385892 -0.69634461 52 136 110
0.0087222336 -0.23786628 -0.69654143 51 136 111
0.0078712162 -0.23700905 -0.69662207 51 136 110
0.0061124987 -0.23778185 -0.69634223 53 136 108
0.0064363377 -0.2377945 -0.69636667 53 136 108
0.0072950316 -0.23663248 -0.69664061 51 137 110
0.005994604 -0.23765892 -0.69635403 53 136 108
0.012689445 -0.23850293 -0.6968019 44 138 108
0.012281324 -0.23903421 -0.69665861 45 137 108
0.012346588 -0.23805098 -0.69686943 44 138 108
0.013173074 -0.23752075 -0.69704527 43 138 108
0.012513535 -0.23998383 -0.69647831 45 137 108
0.012363026 -0.23703645 -0.69706297 44 138 109
0.011769474 -0.2376308 -0.69689202 44 138 109
0.010560932 -0.23932809 -0.69645828 45 137 109
0.012959136 -0.23676039 -0.69717824 43 137 108
0.010237598 -0.23739989 -0.69676125 47 137 111
0.010163072 -0.2374104 -0.69675106 47 137 111
0.014734581 -0.23983634 -0.69673789 43 137 109
0.013834652 -0.23888442 -0.69682115 43 138 108
0.014312198 -0.2369611 -0.69728762 42 139 108
0.014414335 -0.23741032 -0.69720739 42 138 109
0.014243297 -0.23890951 -0.6968708 43 137 109
0.01566479 -0.23813535 -0.69722378 38 137 109
0.0053908806 -0.24063666 -0.69577867 60 134 108
0.0089375647 -0.24122186 -0.69593 48 136 110
0.0068710125 -0.24123222 -0.69576037 53 136 108
0.0095863007 -0.24124978 -0.6959765 46 137 109
0.0077047199 -0.24037462 -0.6960122 51 136 108
0.011184395 -0.24318172 -0.69571352 43 136 111
0.01146343 -0.24303657 -0.69577193 43 136 112
0.012979225 -0.24363528 -0.69579124 42 135 114
0.010894129 -0.24190563 -0.6959601 44 136 111
0.012338073 -0.24265707 -0.69593644 43 136 112
0.012165332 -0.24039802 -0.69636637 45 137 108
0.01359887 -0.2408549 -0.69638932 45 136 109
0.012331098 -0.24119678 -0.6962226 44 136 110
0.012079564 -0.24056879 -0.69632614 45 137 109
0.015853234 -0.24351163 -0.69615436 41 136 113
0.017454667 -0.24382427 -0.69630128 42 138 110
0.015401847 -0.24360755 -0.69607735 41 136 113
0.013848951 -0.24355395 -0.69588768 42 134 114
0.014136472 -0.241846 -0.69625944 43 135 112
0.017307451 -0.24604839 -0.69586349 46 136 113
0.017171213 -0.24679284 -0.69570631 48 137 114
0.01635905 -0.24553426 -0.69583678 45 135 113
0.01637667 -0.24422601 -0.6960842 42 137 112
0.019814897 -0.24742751 -0.6959374 41 137 111
0.018253863 -0.24623932 -0.69595259 45 137 112
0.018843187 -0.24633823 -0.69601238 43 136 112
0.019360388 -0.24666254 -0.69602031 41 137 111
-0.0095234774 -0.23603192 -0.69564158 60 134 116
-0.0058904109 -0.23714648 -0.69555932 62 133 114
-0.0078578573 -0.23693949 -0.69552779 60 134 115
-0.0074063689 -0.23636109 -0.69565904 61 132 114
-0.0062204297 -0.23879504 -0.69521999 63 133 116
-0.0080655487 -0.23645768 -0.69561565 60 134 114
-0.0064945295 -0.23850165 -0.69526815 63 134 116
-0.0081376294 -0.23833671 -0.69524467 60 135 117
-0.0067961644 -0.23931238 -0.69509649 63 134 117
-0.0048437561 -0.23960538 -0.69515902 66 135 115
-0.003845057 -0.2388124 -0.69540119 67 135 113
-0.0042504938 -0.23944591 -0.69524109 67 135 115
-0.0034728926 -0.23960926 -0.69527477 68 135 114
-0.0036029897 -0.23995391 -0.69519532 69 135 115
-0.0052392469 -0.23665497 -0.69570303 62 133 113
-0.0029882854 -0.23759149 -0.695683 66 133 113
-0.0045405249 -0.23743953 -0.69560885 65 132 114
-0.0007851104 -0.23887144 -0.6956377 73 134 114
-0.00049332972 -0.23976395 -0.69550759 77 133 115
-0.00027707167 -0.23932244 -0.69560748 77 133 114
-0.0025355085 -0.24311335 -0.6947127 65 135 114
-0.0036335476 -0.24285188 -0.69469917 57 136 116
-0.0020301153 -0.24210684 -0.69492811 69 135 114
-0.0055550789 -0.24068798 -0.69490248 62 135 117
-0.0026329514 -0.240762 -0.69513923 67 136 114
-0.005707447 -0.24053471 -0.69491363 63 135 118
0.00068065431 -0.24159466 -0.69528657 80 131 116
-0.00011201296 -0.24317943 -0.69490993 72 133 114
0.0018098706 -0.24360359 -0.69500744 68 134 114
0.00073660305 -0.24280165 -0.69506097 73 133 115
-0.0002731916 -0.2429589 -0.69493711 74 133 114
-0.00019332615 -0.24078438 -0.69535136 78 133 115
-0.0012972628 -0.24340941 -0.69475538 72 133 114
7.3572854e-05 -0.24198645 -0.69515455 78 132 115
-0.001524945 -0.24055751 -0.69526219 73 135 114
-0.0010022437 -0.24058801 -0.69530803 75 134 114
0.00037759729 -0.24167137 -0.695243 79 132 115
0.0048100338 -0.24253148 -0.69534731 68 132 115
0.0042162295 -0.24142011 -0.69554615 71 132 114
0.0054648025 -0.24263151 -0.69536364 63 133 114
0.0022808025 -0.24047159 -0.69563401 84 131 116
0.0034188812 -0.24333261 -0.69512963 68 133 115
0.0024233514 -0.24293132 -0.6951676 71 134 115
0.0038480321 -0.24413447 -0.69499296 63 134 115
0.0048406199 -0.24378802 -0.69509792 65 132 116
0.0023785171 -0.24105567 -0.69552451 82 131 117
0.0068399943 -0.24383643 -0.69521064 57 133 114
0.0062212856 -0.24174316 -0.69560045 55 135 110
0.006760295 -0.24195303 -0.69559872 54 135 109
0.0078302464 -0.2433251 -0.69539523 51 135 111
0.007016792 -0.24192126 -0.6956256 53 135 109
0.0086140959 -0.24297671 -0.69552982 47 137 108
0.012095301 -0.24369088 -0.69569343 43 136 112
0.010874589 -0.24338812 -0.69564039 43 137 110
-0.0023139464 -0.24683511 -0.6940096 63 130 118
-0.0024429443 -0.24622697 -0.69413084 62 131 117
-0.0012472009 -0.24771701 -0.69388789 66 130 118
0.00089909416 -0.24636325 -0.69433218 68 132 115
0.0019441969 -0.24620511 -0.69443023 71 133 114
0.0018201894 -0.24728818 -0.69416738 74 131 114
0.00019350823 -0.24691665 -0.69416052 68 131 116
0.00060820673 -0.24680687 -0.69421059 69 131 116
0.0010760713 -0.24485466 -0.69469285 65 134 115
-0.0018207207 -0.24542531 -0.69430882 68 131 116
-0.0016924419 -0.24480009 -0.69444656 68 132 115
0.0011107544 -0.24464703 -0.69473785 65 134 114
0.00064700725 -0.24417499 -0.69478977 66 135 113
0.0057481141 -0.24646206 -0.69455516 65 134 114
0.0052848398 -0.2461396 -0.69459993 66 133 115
0.0057047866 -0.24527121 -0.69481373 64 133 116
0.0040223771 -0.24791352 -0.69414073 71 133 113
0.0031946835 -0.24709873 -0.69427317 72 131 114
0.0044957972 -0.24676533 -0.69441885 68 133 114
0.002610811 -0.24593723 -0.69451964 69 133 114
0.0037018857 -0.24427743 -0.69495386 63 134 115
0.0025750934 -0.24674821 -0.69432682 71 132 114
0.003029251 -0.24692611 -0.6943025 72 131 115
0.00326325 -0.24667142 -0.6943717 71 131 115
0.0032567654 -0.24645671 -0.69442213 70 131 114
0.0092214756 -0.24496615 -0.69515103 46 138 110
0.0087304376 -0.2459676 -0.69489038 50 138 110
0.0072024181 -0.24733904 -0.69447094 59 137 111
0.0092025772 -0.24677365 -0.69474375 48 140 109
0.0072438349 -0.24695256 -0.69456071 59 136 111
0.0087059401 -0.24664137 -0.69473732 51 139 109
0.0071226768 -0.24602164 -0.69475681 58 135 112
0.0081693921 -0.24508905 -0.69504315 53 136 111
0.0093675666 -0.24433447 -0.69530237 45 137 109
0.0070093721 -0.24455298 -0.69506979 58 133 114
0.0064612688 -0.24448134 -0.69504261 60 133 115
0.01308207 -0.24567845 -0.69539893 39 134 113
0.013154831 -0.24566022 -0.69540942 39 133 114
0.012519082 -0.24438706 -0.69559222 42 135 113
0.01321474 -0.2452306 -0.69549733 40 134 114
0.010701869 -0.24736477 -0.69477272 43 139 109
0.0098180454 -0.2449853 -0.69519311 43 138 109
0.017021077 -0.24779743 -0.69549739 48 136 115
0.016242737 -0.24772166 -0.69540787 46 135 116
0.014067224 -0.24581952 -0.6954816 39 134 114
0.01644752 -0.24674208 -0.69562191 47 136 115
-0.0020459399 -0.24860828 -0.69368869 59 131 119
0.0018867877 -0.24960214 -0.69374347 64 134 115
-0.00077474921 -0.24844575 -0.69378161 64 131 117
-0.00011271564 -0.24850021 -0.69381243 66 131 116
-0.0016949631 -0.24817771 -0.6937657 65 129 118
0.00063843001 -0.24837527 -0.69387364 69 132 115
0.0051907217 -0.25016907 -0.6937871 61 136 116
0.0046828627 -0.24995402 -0.69381744 59 137 116
0.0027764323 -0.24805513 -0.69404066 74 132 113
0.0038570086 -0.24894755 -0.69395745 65 134 114
0.0024918877 -0.24925518 -0.6938318 66 134 115
0.0042921687 -0.24901773 -0.6939705 63 135 114
0.0086929807 -0.25103348 -0.69381422 45 139 113
0.008855165 -0.25140154 -0.69374716 43 138 114
0.0092043905 -0.25023583 -0.69401032 44 140 112
0.0082449075 -0.25083539 -0.69382912 48 139 114
0.0081242584 -0.24999163 -0.69399756 51 140 113
0.005993722 -0.24859232 -0.69411796 65 136 113
0.006295518 -0.24921262 -0.69401962 62 137 114
0.0068841539 -0.24839363 -0.69422156 61 137 112
0.006226277 -0.24894761 -0.69406599 63 136 114
0.0083069121 -0.24845472 -0.69431347 53 140 110
0.010699215 -0.24848628 -0.69452775 42 140 110
0.015959805 -0.25007668 -0.69488329 47 137 115
0.016759178 -0.24906005 -0.69520301 49 136 115
0.016439751 -0.25034758 -0.69487059 48 137 114
0.017366584 -0.24826621 -0.69545096 50 137 115
0.016858645 -0.24984381 -0.6950314 49 137 114
0.016320005 -0.24977066 -0.69499201 48 137 115
0.016922249 -0.24860059 -0.69532377 49 136 115
0.015377761 -0.2482491 -0.69518888 41 135 114
0.014041349 -0.25036266 -0.69458067 40 135 115
0.020482596 -0.25027817 -0.69541937 43 137 113
0.020632526 -0.24980885 -0.69554204 42 136 112
0.019103423 -0.24911161 -0.6954928 46 137 114
0.02131599 -0.25171381 -0.69521427 42 137 112
0.018496867 -0.25032243 -0.69512898 48 137 113
0.017598266 -0.24884591 -0.69534141 50 138 114
0.019230612 -0.25185484 -0.69487971 47 138 111
0.019404843 -0.25156584 -0.69497204 46 138 112
0.018573906 -0.25146857 -0.69487405 48 138 111
0.013354673 -0.25523609 -0.69362658 38 141 116
0.017262721 -0.2531853 -0.69433326 56 137 112
0.016531773 -0.2539539 -0.69412506 54 138 113
0.016364921 -0.25357217 -0.69419754 50 139 112
0.015921576 -0.25440097 -0.69399327 50 139 114
0.015218062 -0.25521946 -0.69377595 48 139 115
0.015172611 -0.2543585 -0.69395864 43 140 114
0.016348032 -0.25246593 -0.69440156 47 138 112
0.01628785 -0.25313368 -0.69428235 47 139 112
0.013748911 -0.25217271 -0.69417894 42 137 116
0.014177908 -0.25462669 -0.69380921 41 140 115
0.014220446 -0.25480038 -0.6937843 40 141 115
0.015284307 -0.25414529 -0.69400638 43 141 113
0.020026438 -0.25560999 -0.69417769 53 135 112
0.019389287 -0.25492194 -0.69423777 59 134 114
0.018932402 -0.25489128 -0.69417971 63 134 115
0.020462882 -0.25557089 -0.69424814 48 137 110
0.020194788 -0.25325528 -0.69471639 53 135 114
0.020685468 -0.25245312 -0.69496042 46 136 113
0.021175453 -0.25207675 -0.69511259 43 137 112
0.019246548 -0.2528857 -0.6946584 53 136 113
0.018867861 -0.25273237 -0.69463646 53 137 112
0.018308917 -0.25225246 -0.69465858 52 137 111
0.012727598 -0.25619861 -0.69340682 35 142 116
0.016405083 -0.25707322 -0.69345433 63 134 117
0.01632485 -0.2587924 -0.69315428 48 136 116
0.015440268 -0.25881159 -0.69306403 47 136 116
0.016442601 -0.25856975 -0.69320369 51 135 116
0.016039042 -0.25923094 -0.69305164 44 136 116
0.014852487 -0.25850987 -0.69306052 49 135 117
0.016662097 -0.25590181 -0.69371355 66 134 116
0.014660293 -0.25726041 -0.69331157 47 137 116
0.016092172 -0.25664139 -0.69352502 61 135 116
0.015776683 -0.25592086 -0.69365788 58 137 116
0.016158365 -0.25595188 -0.69367361 61 135 116
0.018925661 -0.25593135 -0.69395483 62 134 114
0.018600009 -0.25723517 -0.69368708 54 135 114
0.017995674 -0.25605863 -0.69380134 69 133 115
0.019360051 -0.25635004 -0.69394529 54 136 112
0.019952709 -0.25624046 -0.69404799 49 136 111
0 0 0 1 0 0 0 1 0 0 0 1 0 0 0 0 0 690 1 0 0
