ply
format ascii 1.0
comment PCL generated
element vertex 969
property float x
property float y
property float z
property uchar red
property uchar green
property uchar blue
element camera 1
property float view_px
property float view_py
property float view_pz
property float x_axisx
property float x_axisy
property float x_axisz
property float y_axisx
property float y_axisy
property float y_axisz
property float z_axisx
property float z_axisy
property float z_axisz
property float focal
property float scalex
property float scaley
property float centerx
property float centery
property int viewportx
property int viewporty
property float k1
property float k2
end_header
0.30123079 -0.25775766 -0.87142473 55 132 126
0.30098999 -0.25804949 -0.87083 54 133 126
0.3003636 -0.2582764 -0.86935198 50 135 127
0.30082053 -0.25692648 -0.87058365 53 134 126
0.30096194 -0.25589317 -0.8710506 53 133 127
0.30044204 -0.25604624 -0.86984408 48 134 126
0.30086181 -0.2560927 -0.87079394 53 133 126
0.30051589 -0.26353207 -0.86920261 51 135 128
0.30147097 -0.26202375 -0.87137204 59 132 128
0.30069411 -0.26318616 -0.86961663 53 134 127
0.30100113 -0.26317972 -0.87024599 55 133 127
0.30143684 -0.26193145 -0.8713153 59 132 127
0.30062366 -0.26218358 -0.86961478 51 135 126
0.30109319 -0.25978681 -0.87084544 55 133 126
0.30127436 -0.26520464 -0.8707056 55 133 128
0.3010183 -0.26647344 -0.87016118 51 133 127
0.3013795 -0.26703635 -0.87093687 52 134 127
0.30160847 -0.26442912 -0.87141889 60 132 129
0.30095097 -0.26431459 -0.87004679 55 133 128
0.30090666 -0.26423806 -0.86995929 54 133 128
0.30040228 -0.26493904 -0.8688978 48 134 127
0.30101383 -0.26930439 -0.87008899 50 135 126
0.30137253 -0.26955315 -0.87092537 54 133 127
0.30147988 -0.26824751 -0.87114298 52 134 127
0.30093387 -0.2694937 -0.86990839 50 136 126
0.30128059 -0.26932645 -0.87070715 53 134 127
0.30134988 -0.27074608 -0.87090129 57 133 128
0.30046207 -0.27528545 -0.86860812 56 136 125
0.30051485 -0.27452236 -0.86879963 56 136 125
0.30099532 -0.27494708 -0.86982071 59 135 126
0.30130321 -0.27317697 -0.87067509 61 133 127
0.30173719 -0.27517933 -0.8714388 63 134 126
0.30166063 -0.27498978 -0.871288 63 134 126
0.30057925 -0.27286184 -0.86905777 54 136 126
0.30017516 -0.27269948 -0.86813116 50 136 125
0.30129531 -0.27149671 -0.87079167 58 133 128
0.3009941 -0.27246144 -0.8700406 58 134 127
0.30020982 -0.2731387 -0.86818701 51 136 125
0.30091432 -0.27757064 -0.86997563 64 133 127
0.30043805 -0.27841783 -0.86901218 64 133 127
0.30080852 -0.27745074 -0.86966097 64 133 127
0.30099845 -0.27799627 -0.87033373 65 133 127
0.30064547 -0.27773291 -0.86932856 64 133 127
0.30132452 -0.27703121 -0.87086761 65 134 127
0.30031174 -0.27612084 -0.86835784 57 136 124
0.29994833 -0.27642247 -0.86759239 56 136 125
0.30082414 -0.27599221 -0.86947489 61 135 126
0.30056024 -0.27751976 -0.86908495 63 134 126
0.30027515 -0.27703378 -0.86839271 60 134 126
0.30054113 -0.27609524 -0.86886203 58 136 125
0.30109334 -0.28012279 -0.8711462 67 132 128
0.30030581 -0.28281391 -0.86959106 68 132 129
0.29997516 -0.2825458 -0.86876261 68 133 128
0.30112177 -0.27972797 -0.87116492 67 132 128
0.30116972 -0.28079087 -0.87141365 67 132 128
0.30097172 -0.28117409 -0.87098581 67 132 128
0.29990405 -0.28124374 -0.86833584 66 133 128
0.29967281 -0.28266168 -0.86804473 68 134 128
0.30034778 -0.28026685 -0.869277 66 133 128
0.30068746 -0.27973872 -0.87004566 66 133 127
0.30092433 -0.27994144 -0.87070704 67 132 128
0.29958078 -0.28170002 -0.86759412 66 133 128
0.300596 -0.28605321 -0.87115794 64 133 128
0.30056453 -0.28685248 -0.87138909 63 133 128
0.30038688 -0.28706667 -0.8709175 63 133 128
0.30095491 -0.28368977 -0.8713128 68 131 129
0.30040357 -0.2865606 -0.87076098 64 133 129
0.29961035 -0.28451574 -0.86806995 68 133 129
0.29978454 -0.28449148 -0.86848688 68 133 129
0.30004373 -0.28328162 -0.86901605 68 133 129
0.30040115 -0.2844421 -0.8699652 67 132 129
0.30074254 -0.2833097 -0.87069792 68 132 129
0.29972959 -0.28480405 -0.86837894 67 133 129
0.30053666 -0.28723851 -0.87144256 62 135 128
0.29999551 -0.28973669 -0.87041324 61 135 128
0.29959747 -0.28959605 -0.86909252 63 137 127
0.29997581 -0.28925189 -0.87021172 62 135 128
0.29995519 -0.29071066 -0.87056106 60 135 128
0.29967335 -0.29072365 -0.86965787 60 137 127
0.29973054 -0.2879301 -0.86907858 64 135 129
0.29937959 -0.2874245 -0.86784124 65 134 129
0.2994183 -0.28763211 -0.86801714 65 134 129
0.29942146 -0.28736115 -0.86795688 65 134 129
0.2999478 -0.28779545 -0.86972862 64 134 128
0.29938841 -0.28954858 -0.86841923 64 137 128
0.29865256 -0.29428893 -0.86793596 71 133 128
0.29896316 -0.29424715 -0.86846924 71 133 128
0.29955956 -0.29417527 -0.87000954 65 135 128
0.29898953 -0.29368871 -0.8683672 69 134 128
0.29968986 -0.29463062 -0.87049049 65 134 128
0.29999396 -0.29266357 -0.87101716 61 134 128
0.2999593 -0.29298764 -0.87095356 61 135 127
0.2994177 -0.2922737 -0.86910516 63 137 127
0.29950649 -0.29191953 -0.86933833 62 137 127
0.29978481 -0.29117519 -0.87012345 60 135 128
0.29955676 -0.29161552 -0.86945504 61 136 128
0.29841262 -0.29629713 -0.86829799 69 132 129
0.29880235 -0.29786798 -0.8692522 68 133 128
0.29806516 -0.29799384 -0.8683939 64 132 128
0.29803446 -0.2965112 -0.86789793 67 132 129
0.29792815 -0.29756266 -0.86809146 64 132 128
0.29834676 -0.2972115 -0.86850005 67 132 128
0.29953033 -0.29687864 -0.87073839 64 134 128
0.29920712 -0.29845381 -0.87030542 65 134 128
0.29961792 -0.29744732 -0.87099326 64 134 128
0.29920772 -0.29652312 -0.86983818 66 133 128
0.29911447 -0.29505843 -0.8691169 71 133 128
0.29971591 -0.29502317 -0.87068099 65 134 128
0.29910979 -0.29509768 -0.86911738 71 133 128
0.29827809 -0.30061302 -0.86934841 60 133 128
0.29860935 -0.29906431 -0.86938131 64 134 128
0.2976431 -0.2997486 -0.86835402 58 133 127
0.29844317 -0.30098549 -0.86964279 61 133 128
0.29764223 -0.30133855 -0.86855972 56 134 127
0.29731494 -0.30005738 -0.86790609 56 133 126
0.29895204 -0.30234802 -0.87070107 60 134 128
0.29941452 -0.29975915 -0.87100077 63 133 128
0.29898992 -0.30025965 -0.87026775 63 133 128
0.29887295 -0.29916298 -0.86976588 65 134 128
0.2983169 -0.30273476 -0.86975974 58 134 127
0.29829216 -0.30393335 -0.87014741 58 134 127
0.29838371 -0.30568254 -0.87090957 59 132 127
0.2989966 -0.30405152 -0.87136179 60 133 128
0.29760215 -0.30923957 -0.87068266 57 131 127
0.29793951 -0.30818945 -0.87091118 58 131 127
0.29768696 -0.30805618 -0.87023669 57 131 127
0.29758999 -0.3092069 -0.87063587 57 131 127
0.29827744 -0.30684683 -0.87105149 59 132 127
0.3042171 -0.25459057 -0.87914914 52 134 127
0.30330849 -0.25515324 -0.8765465 51 135 126
0.30314121 -0.25582036 -0.87598532 53 134 125
0.30298308 -0.25514311 -0.87545103 51 134 125
0.30410331 -0.25689375 -0.87827837 54 135 128
0.30409443 -0.25733042 -0.87815189 53 136 127
0.3044447 -0.25892785 -0.87898391 53 136 127
0.30425689 -0.25917953 -0.87829322 53 135 127
0.30430639 -0.25668299 -0.87901157 54 135 128
0.30382645 -0.25856635 -0.87697285 53 135 128
0.3034952 -0.25692454 -0.87657732 53 135 126
0.3033888 -0.25800604 -0.8758921 52 134 127
0.30396309 -0.25645816 -0.87804359 54 135 127
0.3034879 -0.25883442 -0.87586814 52 135 127
0.30327153 -0.25810459 -0.87553126 52 135 126
0.3036353 -0.25834927 -0.87645209 52 135 127
0.30399457 -0.26322854 -0.87734109 53 136 128
0.30432278 -0.26135486 -0.87841564 53 136 127
0.3041887 -0.26236978 -0.87797755 53 136 128
0.30446863 -0.26231176 -0.87889928 52 136 127
0.30446294 -0.26035613 -0.87887388 53 137 126
0.30368522 -0.261338 -0.87627798 52 135 128
0.30434772 -0.25985715 -0.8784737 52 137 126
0.30375838 -0.26166764 -0.87653553 52 136 128
0.30390981 -0.26077709 -0.8770206 52 136 128
0.30343112 -0.2627463 -0.87546146 52 136 129
0.3037135 -0.26074657 -0.87635577 52 136 128
0.30396473 -0.2662029 -0.87704104 49 135 127
0.30426705 -0.26744661 -0.87846124 51 134 128
0.3036862 -0.2671814 -0.8760128 47 134 127
0.30419451 -0.26699492 -0.87810022 51 134 128
0.30399355 -0.267142 -0.87728477 50 135 128
0.30385685 -0.26554531 -0.87669635 49 136 127
0.30390471 -0.26462436 -0.87694871 51 136 127
0.30342805 -0.26383254 -0.87546033 51 137 128
0.30351412 -0.26647726 -0.87547183 48 136 127
0.30388671 -0.26409453 -0.87694389 52 135 128
0.30407026 -0.26503018 -0.87745219 50 135 127
0.30391347 -0.27148074 -0.87709826 55 135 127
0.30432099 -0.27080762 -0.87882358 56 134 127
0.30434346 -0.26863605 -0.87882459 53 134 128
0.30425057 -0.27030805 -0.87849832 54 136 127
0.30391496 -0.2707715 -0.87707335 54 135 128
0.30433944 -0.26989105 -0.87886262 54 134 128
0.30397984 -0.26941773 -0.87729895 54 134 128
0.30352518 -0.26942065 -0.8754096 50 135 127
0.30352938 -0.26886079 -0.87542295 50 135 128
0.30372038 -0.26833135 -0.87621278 50 135 128
0.30386612 -0.26924932 -0.87682498 53 134 128
0.30393204 -0.2745879 -0.87625605 63 132 127
0.30445287 -0.2752603 -0.87852877 65 132 128
0.30417109 -0.27370715 -0.87758356 62 133 127
0.3042177 -0.27434844 -0.877648 63 133 127
0.304268 -0.27334321 -0.87812346 61 133 127
0.30391255 -0.27208924 -0.87691367 57 134 127
0.30407137 -0.27329159 -0.87723839 60 133 127
0.30377272 -0.27156848 -0.87646711 55 135 127
0.3038151 -0.27369696 -0.8760137 61 133 127
0.30409503 -0.27205232 -0.87771046 57 135 127
0.30389246 -0.27767998 -0.87722355 70 133 128
0.3035183 -0.27908245 -0.87616646 74 132 129
0.3041324 -0.27685001 -0.87790251 68 133 128
0.30397728 -0.278947 -0.87748665 73 132 128
0.30374151 -0.2787275 -0.87680417 73 132 129
0.30439872 -0.27743304 -0.8786782 69 133 128
0.30422765 -0.2755979 -0.87757879 66 132 127
0.30342686 -0.27814743 -0.87548405 72 132 128
0.30411488 -0.27586293 -0.87722313 66 132 128
0.30355272 -0.27826151 -0.8761459 72 132 128
0.303886 -0.27624798 -0.87640238 67 132 128
0.30336592 -0.28274962 -0.87651861 78 132 129
0.30431253 -0.28058076 -0.87879336 74 132 129
0.30411127 -0.2816337 -0.87849885 75 132 129
0.30333731 -0.28231654 -0.87629062 79 131 130
0.30345762 -0.28204197 -0.87658012 78 132 129
0.30403078 -0.28196946 -0.87835366 75 132 130
0.30306873 -0.28180513 -0.87540728 78 132 129
0.30361691 -0.28153664 -0.87692928 78 131 130
0.30330622 -0.28009659 -0.87572849 76 132 129
0.3042089 -0.27945331 -0.87819213 73 132 128
0.30354542 -0.28079724 -0.87656641 77 132 129
0.30395728 -0.28538305 -0.879026 70 133 130
0.30375746 -0.28468066 -0.87809604 76 132 130
0.30309188 -0.28689298 -0.87631977 80 131 130
0.30362728 -0.2860193 -0.87801152 74 133 130
0.30331621 -0.28659031 -0.877047 78 131 131
0.30345368 -0.28687701 -0.87762976 74 133 130
0.30376622 -0.28406471 -0.87801582 77 132 131
0.30289719 -0.28597715 -0.87550801 83 131 130
0.30332005 -0.28558919 -0.87678963 80 131 130
0.30384025 -0.28352103 -0.8781864 76 132 130
0.30310616 -0.2834411 -0.87587613 80 132 130
0.30358738 -0.28394604 -0.87744176 78 131 131
0.30261642 -0.2899763 -0.87630576 82 130 130
0.3023771 -0.29006368 -0.87590128 80 130 129
0.30202389 -0.29077381 -0.87556982 76 131 129
0.30277604 -0.28790811 -0.87566668 84 130 130
0.30341482 -0.29055718 -0.87858212 77 133 129
0.30303362 -0.28936359 -0.87701535 81 131 130
0.30296186 -0.28986868 -0.87706274 81 131 130
0.30349064 -0.2908293 -0.87891006 76 132 129
0.30361834 -0.2879813 -0.87853056 71 134 130
0.30365658 -0.28803095 -0.87868297 71 134 130
0.30342069 -0.2884917 -0.87795013 76 132 130
0.30332145 -0.28899571 -0.87772548 78 131 130
0.30333304 -0.28865409 -0.87767541 77 132 130
0.30254453 -0.29389808 -0.87720799 81 128 130
0.30250499 -0.29212987 -0.87679052 80 129 130
0.30236459 -0.29314688 -0.8767277 80 128 130
0.30199292 -0.29351982 -0.8761487 75 131 128
0.30175421 -0.29298991 -0.87561327 73 131 128
0.30265048 -0.29477373 -0.87757963 83 128 130
0.30314034 -0.29491225 -0.87863952 82 128 131
0.30328125 -0.29304555 -0.87877834 79 130 130
0.30313015 -0.29178059 -0.87819415 79 131 130
0.30285519 -0.29364952 -0.87783152 82 129 131
0.30312762 -0.29186758 -0.87820441 79 131 130
0.30253127 -0.2949338 -0.87740606 81 128 130
0.3025167 -0.29636079 -0.87802792 76 130 129
0.302443 -0.29574728 -0.87761927 77 130 129
0.30253583 -0.29826763 -0.87894523 70 131 128
0.30193636 -0.29710549 -0.87725848 68 133 128
0.30181044 -0.29867437 -0.87725586 68 132 128
0.30163953 -0.2987839 -0.87683296 67 132 128
0.30131131 -0.29836419 -0.87589002 67 132 128
0.30141565 -0.29535043 -0.87553644 68 133 127
0.30136362 -0.29784888 -0.87591946 67 132 128
0.30292821 -0.29660577 -0.8789444 77 129 130
0.30284649 -0.29720059 -0.87903714 75 130 129
0.30159152 -0.30261925 -0.87832701 60 133 128
0.30190173 -0.3009904 -0.87830114 64 132 128
0.30188689 -0.30117002 -0.87837863 63 132 127
0.30178055 -0.3007516 -0.87765539 65 132 128
0.30182609 -0.30124161 -0.87819809 63 132 127
0.3019788 -0.30055821 -0.8782742 65 132 127
0.30218774 -0.29915214 -0.87833124 68 132 128
0.3018527 -0.29971886 -0.87756211 66 132 128
0.30106053 -0.30121246 -0.87577164 63 132 128
0.30151618 -0.29966256 -0.87667429 66 132 128
0.30172846 -0.29911348 -0.87712663 67 132 128
0.30210081 -0.29959142 -0.87818551 67 132 128
0.30137211 -0.30439743 -0.87861699 60 131 127
0.30048028 -0.30628464 -0.87645823 58 131 127
0.3009274 -0.30539769 -0.87757438 59 132 127
0.30089208 -0.3066234 -0.8781448 59 131 127
0.30028346 -0.30652398 -0.8758809 59 131 127
0.30141085 -0.3045468 -0.87884271 60 131 127
0.30070725 -0.30473903 -0.8763451 59 131 127
0.30172905 -0.30275598 -0.87895751 60 132 127
0.30091605 -0.30353919 -0.87634844 60 132 127
0.30076692 -0.30411115 -0.87615585 60 131 128
0.30084857 -0.30497783 -0.87704879 59 131 127
0.30131897 -0.30283138 -0.87742817 60 132 127
0.30005807 -0.31000802 -0.87709635 58 130 129
0.30085278 -0.30767462 -0.87861252 58 131 127
0.30029783 -0.30951381 -0.87783015 58 130 128
0.3001036 -0.30978733 -0.87706846 58 130 128
0.30054221 -0.30873135 -0.87821096 58 130 128
0.29992381 -0.30887896 -0.87566137 59 130 129
0.29997441 -0.30835399 -0.875606 59 131 128
0.3001416 -0.30911645 -0.87655932 59 130 129
0.30048138 -0.30800062 -0.87728393 59 131 128
0.29985431 -0.30921116 -0.87556052 58 130 129
0.30007672 -0.30784544 -0.87574571 59 131 128
0.3001236 -0.31170121 -0.87882161 55 131 128
0.30002213 -0.31265986 -0.87863952 54 131 129
0.29991913 -0.31279618 -0.87829065 55 131 128
0.29945198 -0.31417516 -0.87685728 56 130 130
0.29992509 -0.31230366 -0.87821573 55 131 128
0.29999056 -0.31283823 -0.87855947 54 131 129
0.29983836 -0.3111625 -0.87708795 57 130 128
0.29926726 -0.31333539 -0.87573266 58 129 129
0.29981485 -0.3107726 -0.87660325 58 130 129
0.29996303 -0.31067738 -0.87737429 57 130 128
0.29974347 -0.31158412 -0.876917 57 130 128
0.29969874 -0.31191999 -0.87695915 57 130 129
0.29857802 -0.31684789 -0.87628138 57 131 129
0.29793164 -0.31820086 -0.87581998 57 131 130
0.298195 -0.31709695 -0.87554532 58 130 130
0.29915261 -0.31511512 -0.87633616 56 131 129
0.29910573 -0.31484032 -0.87595087 56 131 129
0.29911864 -0.31499249 -0.87611657 56 131 129
0.29776052 -0.31842279 -0.87557322 57 130 130
0.29739773 -0.32214937 -0.87541312 56 130 130
0.29766068 -0.32023153 -0.87596959 56 130 130
0.2976844 -0.31919655 -0.8756485 57 130 130
0.2977156 -0.31946909 -0.87592989 56 130 130
0.29756767 -0.32120621 -0.87590015 56 130 130
0.29462361 -0.28217915 -0.85887027 44 136 125
0.29467756 -0.28698254 -0.85960853 47 136 126
0.29453346 -0.28494564 -0.85913903 45 136 125
0.2941708 -0.28550333 -0.85892087 43 136 125
0.29470164 -0.2844786 -0.85920596 46 136 125
0.29382867 -0.28518447 -0.85857648 42 136 125
0.29371372 -0.28374782 -0.85831171 42 135 125
0.29492986 -0.2835021 -0.85925102 48 135 126
0.29748514 -0.27851468 -0.86349845 53 134 125
0.29656041 -0.27856877 -0.86184776 47 136 124
0.29759619 -0.27815849 -0.86362708 52 134 125
0.29681081 -0.28091481 -0.86262292 54 134 126
0.29559684 -0.28287527 -0.86054122 48 136 126
0.29653373 -0.28296128 -0.86253488 55 134 127
0.29722622 -0.28115612 -0.86355609 57 134 127
0.29607159 -0.28287286 -0.86154038 52 135 126
0.29708388 -0.28136134 -0.86330593 56 133 127
0.29628131 -0.28060889 -0.86156982 50 135 125
0.29574242 -0.28115278 -0.86063415 47 135 125
0.29585773 -0.28028092 -0.86078918 46 136 124
0.29525447 -0.281405 -0.8597725 45 136 124
0.29625276 -0.28116748 -0.86155194 51 134 126
0.29562712 -0.28610966 -0.86105943 50 136 126
0.29625067 -0.28619233 -0.86228776 54 135 127
0.29532239 -0.28465912 -0.86024415 48 135 126
0.29541656 -0.28500506 -0.86048049 49 136 126
0.29539883 -0.28569338 -0.86055088 49 136 126
0.29601482 -0.28334081 -0.86151236 52 135 126
0.29638082 -0.28349635 -0.86229616 54 135 126
0.29604554 -0.28394973 -0.86162859 52 135 126
0.29662219 -0.28446937 -0.86288679 56 134 127
0.29660985 -0.28469306 -0.86287969 56 134 127
0.29614741 -0.28533655 -0.86196047 53 135 127
0.29602721 -0.28981727 -0.86280924 47 136 126
0.29620108 -0.28894657 -0.86282563 50 136 126
0.29649657 -0.28906524 -0.86363053 53 135 127
0.29635295 -0.28984103 -0.86364448 50 135 126
0.2953431 -0.28830588 -0.86089081 46 138 125
0.29518649 -0.28877228 -0.86067617 45 136 126
0.29498485 -0.28877279 -0.8602832 45 136 126
0.29521245 -0.28873798 -0.8607201 45 137 126
0.29540798 -0.28949168 -0.86124802 45 136 126
0.30495843 -0.25549355 -0.88336748 53 132 127
0.3049174 -0.25580451 -0.88393933 50 132 127
0.30480009 -0.25784025 -0.88394177 50 132 127
0.30476052 -0.26113379 -0.88362801 51 132 128
0.30471969 -0.25984541 -0.8835746 52 131 128
0.30460683 -0.26601839 -0.88453662 51 134 129
0.3048225 -0.26490328 -0.8836906 52 134 128
0.30486876 -0.26441187 -0.88349831 52 134 128
0.30489716 -0.26385209 -0.88336927 52 133 129
0.30379483 -0.27005038 -0.88453984 54 135 127
0.30472437 -0.27103961 -0.88348413 62 135 128
0.30467916 -0.26994538 -0.88353139 61 134 129
0.30457643 -0.26972288 -0.88364142 60 134 128
0.30384615 -0.26803392 -0.88442343 54 135 128
0.30463737 -0.26793411 -0.88357562 58 134 129
0.30402735 -0.27518484 -0.88488728 54 130 126
0.3041521 -0.27384484 -0.88441288 52 133 126
0.30388713 -0.27522716 -0.88510323 52 130 126
0.30355325 -0.27421892 -0.88537693 47 133 126
0.3039296 -0.27538285 -0.88507438 52 130 126
0.30418953 -0.27335325 -0.88431621 53 134 126
0.30439416 -0.27270672 -0.88401896 56 134 127
0.3041341 -0.27289525 -0.88435382 52 134 126
0.30438074 -0.27549076 -0.88449496 57 130 127
0.30475628 -0.27832505 -0.88632727 53 132 127
0.30351254 -0.27573386 -0.88597971 47 131 126
0.30465579 -0.27545497 -0.88405925 59 131 127
0.30392742 -0.27752945 -0.8868795 47 132 126
0.30457327 -0.27773061 -0.8860966 53 131 126
0.30478081 -0.27823803 -0.88621777 53 132 126
0.30493492 -0.27889165 -0.88350844 63 132 127
0.30486906 -0.27895468 -0.88528067 58 132 127
0.30490568 -0.27929097 -0.88351458 63 133 126
0.30491745 -0.27890986 -0.88397527 63 133 127
0.30504417 -0.27701762 -0.8842901 61 131 126
0.30470982 -0.28315288 -0.88464147 63 133 128
0.30476356 -0.28003088 -0.8867867 53 133 126
0.30474195 -0.28302339 -0.88359797 65 132 128
0.30472913 -0.28267816 -0.88454568 63 133 128
0.30475754 -0.28031358 -0.8866362 53 133 127
0.30476841 -0.28155735 -0.88462728 60 132 127
0.3048 -0.28084108 -0.88461488 60 132 127
0.30487928 -0.27975124 -0.88369256 63 132 127
0.3048653 -0.27999321 -0.88379365 63 132 127
0.30482018 -0.28143835 -0.88327837 66 132 128
0.30430374 -0.28480193 -0.88687491 56 133 127
0.30425447 -0.28560987 -0.88617033 56 133 127
0.30448601 -0.2852636 -0.88546258 58 134 127
0.30428806 -0.28671178 -0.88472587 58 134 127
0.30419019 -0.28548524 -0.88662392 55 134 127
0.30457422 -0.28400487 -0.88650525 58 134 127
0.30469623 -0.28329319 -0.88488251 62 133 128
0.30467623 -0.28351176 -0.88513881 62 133 128
0.30460531 -0.28484493 -0.88476014 60 133 128
0.30458465 -0.28562391 -0.88375086 62 133 129
0.30462891 -0.28491706 -0.88369936 63 133 129
0.30388659 -0.28819931 -0.88607097 57 132 127
0.30363783 -0.28861201 -0.88678002 52 133 127
0.30393249 -0.28887662 -0.88567698 58 133 127
0.30361247 -0.28975007 -0.88646936 52 133 127
0.30359626 -0.29049742 -0.88626385 52 132 128
0.30368957 -0.2903907 -0.8859812 54 132 128
0.30440468 -0.2880905 -0.88361555 61 133 127
0.30431914 -0.28768778 -0.88406211 60 133 127
0.30415419 -0.28797203 -0.88482815 58 133 127
0.30392385 -0.28780055 -0.88594884 56 133 126
0.30392882 -0.28712955 -0.8859852 55 133 126
0.30410069 -0.28823102 -0.88506168 58 134 127
0.30390719 -0.29397064 -0.88430953 62 133 129
0.30387852 -0.29487088 -0.88486034 60 133 128
0.30388305 -0.29436508 -0.88462669 61 133 128
0.30357662 -0.29360428 -0.88632429 53 133 127
0.30353209 -0.2933895 -0.88652891 52 132 128
0.30386618 -0.29466701 -0.88485879 60 133 127
0.30364829 -0.2911005 -0.88588196 54 132 128
0.30419442 -0.29297236 -0.8835144 65 134 128
0.30412731 -0.29145381 -0.88414598 63 133 128
0.30353394 -0.29173189 -0.88610733 53 132 128
0.30361271 -0.29158413 -0.8858763 54 132 128
0.3035413 -0.29659075 -0.88548315 56 132 127
0.30353966 -0.2973178 -0.88480467 58 132 128
0.30353999 -0.29667392 -0.88541657 56 132 127
0.30343679 -0.29736871 -0.88576061 57 134 127
0.30336669 -0.29732352 -0.88648814 56 134 127
0.30363053 -0.29728633 -0.88421059 61 133 128
0.30366656 -0.29709926 -0.88415623 61 133 128
0.30373076 -0.29673654 -0.88408804 62 133 128
0.30365941 -0.29804206 -0.88328856 64 133 128
0.30383575 -0.29561833 -0.8844856 61 133 128
0.30251816 -0.30235237 -0.88342994 58 133 127
0.30204439 -0.30178186 -0.88562858 54 134 126
0.30229384 -0.30074316 -0.88642532 54 134 126
0.30237958 -0.30018491 -0.88698435 52 135 126
0.30212757 -0.30162522 -0.88562542 54 134 126
0.30256596 -0.30088332 -0.88549006 55 134 126
0.30352998 -0.29883152 -0.88343245 63 133 129
0.30285987 -0.30077288 -0.88414282 58 133 127
0.30276868 -0.29970121 -0.88644171 54 134 126
0.30275434 -0.30158019 -0.88344443 58 134 127
0.30299395 -0.29941162 -0.88558024 56 134 127
0.30105975 -0.30317444 -0.88684338 52 134 127
0.30118126 -0.30427399 -0.88648838 52 134 127
0.30133584 -0.30552059 -0.88591403 52 136 126
0.30125013 -0.30589095 -0.8870858 48 138 126
0.301245 -0.30574286 -0.88701904 49 138 126
0.30180922 -0.30581871 -0.88330877 58 132 128
0.30167633 -0.30439359 -0.88441086 56 132 128
0.30139309 -0.30492139 -0.88490266 55 133 128
0.30151963 -0.30393264 -0.88507521 54 133 127
0.3011243 -0.30308777 -0.88658547 52 134 128
0.30069217 -0.30927065 -0.8866151 54 136 125
0.3006478 -0.31013089 -0.88512838 57 132 128
0.300908 -0.30826357 -0.8869704 53 136 125
0.30120438 -0.30737889 -0.88637936 50 137 126
0.30055368 -0.30962309 -0.88702321 56 134 125
0.30065963 -0.30973068 -0.88589483 56 133 126
0.30128872 -0.30733138 -0.88563514 52 136 126
0.30128354 -0.30731258 -0.88573319 52 136 126
0.30109456 -0.30904859 -0.88348609 56 131 129
0.30103391 -0.30921975 -0.88369286 55 132 128
0.30155429 -0.3070485 -0.88360727 57 132 128
0.30004388 -0.31253925 -0.88531739 55 132 126
0.30012327 -0.31287324 -0.88479614 55 131 127
0.30016947 -0.31293419 -0.88435513 54 132 127
0.30010667 -0.31325513 -0.88435966 54 132 127
0.30036917 -0.31186157 -0.88442659 55 132 127
0.30015337 -0.31261647 -0.88501251 55 132 127
0.30052263 -0.31144467 -0.88381308 56 131 128
0.3025099 -0.25398332 -0.87429643 50 132 126
0.3021217 -0.2540684 -0.87363899 50 132 126
0.30248466 -0.25377855 -0.87423211 48 133 125
0.30210942 -0.25302652 -0.87351125 47 133 126
0.30130866 -0.25500757 -0.87189716 52 132 126
0.30171323 -0.25416756 -0.87283546 50 132 126
0.30188206 -0.25439161 -0.87317717 50 132 126
0.30139604 -0.25489599 -0.87209374 52 132 126
0.30167946 -0.25559241 -0.87263989 53 134 126
0.30289468 -0.25456551 -0.87511337 50 134 125
0.30277735 -0.25355998 -0.87473536 48 133 125
0.30243361 -0.25874999 -0.87333643 57 133 126
0.30204278 -0.25748536 -0.87289131 56 133 126
0.30256426 -0.25628474 -0.8743782 55 133 126
0.30265668 -0.25615764 -0.87461525 55 133 126
0.30235535 -0.2565015 -0.87386417 55 133 126
0.30200839 -0.2576659 -0.87276185 56 133 126
0.30231833 -0.25954089 -0.87302101 57 133 126
0.30142814 -0.25818267 -0.87172025 55 133 126
0.30253649 -0.25962883 -0.87336165 58 133 127
0.30173028 -0.25904286 -0.87212598 57 133 126
0.30280802 -0.25883636 -0.87414354 56 134 126
0.30317655 -0.25818443 -0.87525642 52 135 126
0.30312428 -0.25901344 -0.87486339 53 135 127
0.30277923 -0.2584703 -0.87418574 56 134 126
0.30261263 -0.26110846 -0.87341303 58 134 127
0.30252445 -0.26222414 -0.87322384 60 133 129
0.30225986 -0.2615875 -0.8728286 58 134 127
0.30147916 -0.26081789 -0.87155229 58 133 127
0.30184084 -0.26139602 -0.87214375 58 133 127
0.30200875 -0.26343358 -0.87219256 61 133 128
0.30339253 -0.2620585 -0.87532312 52 135 128
0.30284747 -0.26331922 -0.87380898 59 135 129
0.30311707 -0.26158834 -0.87452972 56 135 129
0.30281988 -0.26244444 -0.87375998 59 134 129
0.30294394 -0.26247147 -0.87406343 58 134 129
0.30283007 -0.26012909 -0.8738851 58 134 127
0.30250013 -0.26501459 -0.87301332 59 134 129
0.30179271 -0.26368544 -0.87176424 62 133 129
0.30243763 -0.26593956 -0.8728621 56 134 128
0.30196893 -0.26612863 -0.87204623 56 133 128
0.30225405 -0.26589915 -0.87252754 56 134 127
0.30206823 -0.26738852 -0.8722173 53 134 127
0.30283725 -0.26745605 -0.87362057 52 134 127
0.30336267 -0.26460579 -0.87521344 51 136 128
0.303204 -0.26495016 -0.87477416 52 135 128
0.30290717 -0.26626831 -0.87388563 54 135 128
0.30274978 -0.26564461 -0.87346351 57 135 128
0.30323511 -0.26447701 -0.87488604 52 136 128
0.30247688 -0.26981187 -0.87291706 59 134 129
0.30230075 -0.26886025 -0.87261575 56 134 128
0.30188182 -0.2712872 -0.87195379 61 132 129
0.30206549 -0.27003568 -0.87223464 59 133 128
0.30165139 -0.27065206 -0.87156433 60 132 129
0.30336681 -0.27120364 -0.8749997 56 135 129
0.30303702 -0.27104121 -0.87414271 59 134 129
0.30348322 -0.26902714 -0.87529188 50 135 127
0.30304074 -0.26939881 -0.87414515 55 134 128
0.30301833 -0.26872706 -0.87408453 54 134 128
0.3029038 -0.27018127 -0.87379324 59 134 129
0.30252379 -0.27413842 -0.87266803 66 133 127
0.30242798 -0.27346507 -0.87259787 65 134 128
0.30201668 -0.27249074 -0.8720482 63 132 128
0.30252746 -0.27495977 -0.87258601 67 133 127
0.30174103 -0.27306199 -0.87159306 63 133 128
0.30347946 -0.27503991 -0.87470621 65 133 127
0.30309024 -0.27372456 -0.87398809 63 134 128
0.30345684 -0.27214092 -0.8751362 57 135 128
0.30329275 -0.27475861 -0.87430322 65 133 127
0.30278251 -0.27405685 -0.87315011 66 133 128
0.30285075 -0.27291459 -0.87347549 64 133 129
0.30340233 -0.27174115 -0.8750599 57 135 128
0.30268079 -0.27746579 -0.87352103 72 132 128
0.30224168 -0.27699989 -0.87273294 69 133 127
0.3015134 -0.27750534 -0.87150609 65 134 127
0.30203697 -0.27911654 -0.87288576 70 133 128
0.30188289 -0.2780821 -0.87234616 68 133 127
0.30190146 -0.2786485 -0.87251651 69 133 128
0.30304953 -0.27842176 -0.87468433 72 132 128
0.30342746 -0.27734619 -0.87519139 70 132 128
0.30282122 -0.27858964 -0.87421012 74 132 128
0.30309251 -0.27539858 -0.87371773 67 133 127
0.3028574 -0.27783737 -0.87402713 73 132 128
0.30288881 -0.27762586 -0.87402683 72 132 128
0.30267963 -0.28214726 -0.87462276 80 131 130
0.30187237 -0.27984798 -0.87270713 71 132 128
0.30237857 -0.28208837 -0.8740406 78 131 130
0.30212468 -0.28095496 -0.87337017 75 132 129
0.30138841 -0.28281075 -0.87209076 70 131 129
0.30188784 -0.28224877 -0.87305778 75 132 129
0.30217639 -0.28199103 -0.87362367 76 132 129
0.30146199 -0.28078213 -0.87202412 69 133 128
0.30140141 -0.28189713 -0.87201929 70 132 128
0.30287099 -0.28283045 -0.87513846 80 132 130
0.30298612 -0.27966133 -0.87487209 76 132 129
0.30297089 -0.27964991 -0.8748365 76 132 129
0.30180633 -0.28409201 -0.87307292 75 131 130
0.30265713 -0.28683582 -0.87507117 84 130 131
0.30269593 -0.28608656 -0.87508327 83 131 130
0.30242854 -0.28481317 -0.87441808 81 130 131
0.30213127 -0.28347197 -0.87368542 77 131 130
0.30210438 -0.28438029 -0.87371218 77 131 130
0.30148306 -0.28496531 -0.8725962 72 131 129
0.30103484 -0.28388101 -0.8715719 68 131 129
0.30107495 -0.28331465 -0.87151271 68 132 129
0.30152828 -0.28533867 -0.87275952 72 131 129
0.3018783 -0.28677171 -0.87369269 76 132 129
0.30161446 -0.28591579 -0.87304032 73 132 129
0.30236033 -0.28712428 -0.87461108 81 131 130
0.30127382 -0.28915879 -0.87358046 69 132 129
0.30114955 -0.2878052 -0.87279284 69 133 128
0.30166712 -0.2880843 -0.8738026 73 132 128
0.30201289 -0.28749448 -0.87414831 78 131 130
0.30175796 -0.28873843 -0.87423629 75 132 129
0.30145928 -0.28823572 -0.87350881 72 132 129
0.30053228 -0.28951192 -0.8719191 61 134 128
0.3013382 -0.28944528 -0.87380999 70 132 128
0.30086556 -0.28915316 -0.87263167 65 133 128
0.30079275 -0.28810376 -0.87223995 65 133 128
0.30064952 -0.2908538 -0.87247711 62 133 128
0.3013292 -0.29489192 -0.87519425 68 133 127
0.30117559 -0.29315662 -0.87414718 69 133 128
0.30111209 -0.29464841 -0.87448514 68 133 128
0.30146182 -0.29362807 -0.87513453 70 132 128
0.30065069 -0.29484522 -0.87322724 65 133 127
0.30131155 -0.29461446 -0.87504679 68 133 127
0.30024299 -0.29443878 -0.87192297 64 134 128
0.30141136 -0.2917513 -0.87439179 71 131 129
0.30039516 -0.29201496 -0.87201864 61 135 127
0.30084863 -0.2918455 -0.87307197 65 134 128
0.30062765 -0.29346776 -0.87272638 66 133 128
0.30137104 -0.29108563 -0.87422395 70 132 128
0.30063617 -0.29674539 -0.87357217 66 133 127
0.30093831 -0.29734984 -0.87461209 67 132 128
0.30028209 -0.29844823 -0.87292343 65 134 128
0.30084983 -0.2968148 -0.87422293 67 132 128
0.30097499 -0.2968502 -0.87460285 67 132 128
0.30109084 -0.29690081 -0.87495863 67 132 128
0.29997185 -0.29593778 -0.8715027 63 134 127
0.30045414 -0.29610816 -0.87292284 65 133 127
0.30053651 -0.29521194 -0.87298292 65 133 127
0.30086017 -0.29551706 -0.87397367 66 133 127
0.30010229 -0.29680562 -0.87204909 64 134 128
0.30112672 -0.29545009 -0.87472677 68 133 128
0.30065292 -0.30109614 -0.87470073 63 133 128
0.30005687 -0.30225417 -0.87338495 61 133 128
0.30065924 -0.30023727 -0.87456155 64 134 128
0.30089 -0.30087909 -0.87526798 63 132 128
0.2995857 -0.30225009 -0.87217873 60 134 128
0.30047724 -0.30180281 -0.87437892 61 133 128
0.29941058 -0.30203584 -0.87161332 60 134 128
0.29984891 -0.29952124 -0.87198371 63 133 128
0.2997511 -0.29950806 -0.87168854 63 133 128
0.29934418 -0.30251822 -0.87159467 60 134 128
0.30022174 -0.29975134 -0.87317586 64 134 128
0.30065718 -0.2993612 -0.8743242 65 134 128
0.29910588 -0.30543175 -0.87215811 60 132 127
0.29968145 -0.30656764 -0.87416738 59 131 127
0.29936305 -0.3041487 -0.87230116 60 133 128
0.29952148 -0.30448037 -0.87286222 59 132 128
0.29914293 -0.30584759 -0.87243187 61 131 128
0.30023703 -0.30284515 -0.87398195 60 132 128
0.29970607 -0.3045851 -0.87339485 59 132 128
0.29992062 -0.30454525 -0.8739261 59 132 127
0.30026886 -0.30568469 -0.87532228 59 131 127
0.30031738 -0.30451861 -0.87492943 60 131 128
0.29946709 -0.30292296 -0.87204641 60 133 128
0.29872015 -0.30820566 -0.87238914 61 130 128
0.29869136 -0.3096894 -0.87292588 61 130 129
0.29832917 -0.30769926 -0.87154543 59 131 127
0.29840812 -0.30889475 -0.87214124 60 131 128
0.29958341 -0.30923378 -0.87487227 60 130 129
0.29904079 -0.31043085 -0.87395251 61 130 129
0.29951346 -0.31028232 -0.87501663 60 129 129
0.29913768 -0.3091504 -0.87375396 61 130 129
0.29949164 -0.30772462 -0.87412614 60 131 128
0.29961306 -0.30726677 -0.87426621 59 131 127
0.29942518 -0.30714646 -0.87371862 60 131 128
0.29895791 -0.30664662 -0.87227672 61 131 128
0.29874527 -0.31174836 -0.87380171 60 130 129
0.29854506 -0.31091982 -0.87315214 60 129 128
0.29866016 -0.31250146 -0.87394238 59 130 129
0.29742092 -0.31259358 -0.87163663 56 130 128
0.29835215 -0.31382889 -0.87383807 58 129 129
0.29724488 -0.31400418 -0.87168938 54 131 129
0.29840523 -0.31439018 -0.87410355 57 131 129
0.2975795 -0.31422004 -0.8724153 55 131 128
0.298154 -0.31317216 -0.87325728 57 130 128
0.29884356 -0.31438547 -0.87497157 58 129 129
0.2988407 -0.31161663 -0.87392116 61 129 129
0.29902825 -0.31318724 -0.87495297 59 130 129
0.29931253 -0.3120954 -0.87520748 59 130 129
0.29855633 -0.31490308 -0.8747468 58 129 129
0.29757649 -0.31644538 -0.87383628 56 130 130
0.29787064 -0.31618655 -0.87424898 57 131 129
0.297124 -0.31460559 -0.87168163 54 131 129
0.29738533 -0.3157101 -0.87295455 55 131 129
0.2974664 -0.31635043 -0.87355161 56 130 130
0.29749587 -0.31737846 -0.87423062 56 130 130
0.29739591 -0.31670511 -0.87358582 55 131 129
0.29731438 -0.31733969 -0.87357152 54 131 129
0.29763395 -0.31831181 -0.87512261 57 130 130
0.29749709 -0.32050616 -0.87529254 57 130 130
0.29761592 -0.31882262 -0.8752321 57 130 130
0.30319035 -0.27901217 -0.88969827 72 132 126
0.30331767 -0.2768454 -0.88716263 44 131 126
0.30322343 -0.27724439 -0.8877582 50 131 125
0.30277559 -0.2783266 -0.88972342 70 131 125
0.30391201 -0.27837664 -0.88771027 53 132 125
0.30299357 -0.27725485 -0.88818735 54 130 126
0.30395973 -0.28236324 -0.88831043 62 135 126
0.30452415 -0.28305247 -0.88731903 58 134 127
0.30333254 -0.28090891 -0.88957328 72 133 126
0.30351692 -0.28268835 -0.88888538 61 133 126
0.30291304 -0.28280449 -0.88974607 59 133 126
0.30449882 -0.28076032 -0.887528 57 133 126
0.30437952 -0.28110373 -0.88772291 58 134 126
0.30437958 -0.28130341 -0.88770998 59 133 126
0.30458954 -0.28194365 -0.88728708 56 134 127
0.30414778 -0.2805889 -0.88817739 62 133 126
0.30460119 -0.28035331 -0.88736808 55 133 126
0.30284905 -0.2851882 -0.88908374 59 132 126
0.30283821 -0.28510121 -0.88912946 59 132 126
0.30284622 -0.28392786 -0.88950032 57 133 126
0.30375725 -0.28660238 -0.88719821 53 134 126
0.30346459 -0.28527251 -0.88810313 55 133 126
0.30373761 -0.28437012 -0.88802373 56 133 126
0.30386418 -0.28438243 -0.88783324 56 133 127
0.30390051 -0.28356153 -0.88807279 56 134 127
0.30285874 -0.28893694 -0.8880744 57 132 127
0.30320475 -0.28716868 -0.88787979 59 132 127
0.302876 -0.28765845 -0.88832378 62 131 127
0.30296889 -0.29311907 -0.88762367 47 133 126
0.30274379 -0.29314932 -0.88788903 46 135 125
0.30331302 -0.29139245 -0.88711685 48 132 128
0.3027834 -0.2986351 -0.88756967 55 135 126
0.30284786 -0.29556417 -0.88784164 49 135 125
0.29978958 -0.27403677 -0.86712766 49 138 124
0.29967508 -0.27504852 -0.86677808 52 137 124
0.2985993 -0.27815941 -0.86476344 59 134 126
0.29870105 -0.27833736 -0.86489558 61 134 126
0.2985639 -0.27846104 -0.8647632 60 134 126
0.29802698 -0.27831554 -0.86414504 55 134 126
0.29835391 -0.2790204 -0.8645978 61 133 127
0.29926682 -0.27857307 -0.86617351 62 135 126
0.29969728 -0.27824995 -0.86722219 62 134 126
0.29957822 -0.27842978 -0.86694533 62 134 126
0.29946521 -0.27908453 -0.86675322 64 133 127
0.29909188 -0.27636582 -0.86542279 54 137 124
0.2991536 -0.27590582 -0.86551487 52 138 124
0.29886967 -0.27723682 -0.86498314 57 135 126
0.29934663 -0.27679151 -0.86612296 57 136 125
0.29815838 -0.28051448 -0.86466384 62 133 127
0.29849344 -0.27944788 -0.86481911 63 133 127
0.29826438 -0.28042197 -0.86476326 63 133 128
0.2983391 -0.28189844 -0.86514294 65 133 129
0.29775023 -0.28209856 -0.86441481 62 133 128
0.29731414 -0.28108227 -0.86370331 58 133 127
0.29731196 -0.2813611 -0.86374182 58 133 127
0.29953864 -0.28091654 -0.86731279 66 133 128
0.2991671 -0.28202364 -0.86658883 69 133 128
0.29945815 -0.2815499 -0.86724222 67 133 128
0.29890668 -0.27944681 -0.8653931 65 134 128
0.29903817 -0.2803992 -0.86592364 66 133 128
0.29928887 -0.28050011 -0.86658263 66 133 128
0.29923037 -0.27942055 -0.86621171 65 132 128
0.29845861 -0.28532383 -0.86560857 67 133 130
0.29808757 -0.28376797 -0.86504394 66 134 129
0.29767281 -0.28417096 -0.86453277 62 135 128
0.29731941 -0.28413582 -0.86407483 60 134 128
0.29698882 -0.28647184 -0.86376816 58 134 128
0.29709777 -0.28606471 -0.86388808 59 134 127
0.29785571 -0.28707412 -0.86492258 63 134 128
0.2992461 -0.28524491 -0.86719418 67 134 129
0.29902562 -0.28704929 -0.86673617 67 134 130
0.29900163 -0.28571668 -0.86655766 68 134 130
0.29883096 -0.2849938 -0.86607307 69 134 130
0.29874304 -0.2886917 -0.86649764 66 136 128
0.29785919 -0.28772503 -0.86509377 62 135 128
0.29826081 -0.28847957 -0.86581618 63 135 128
0.29829103 -0.28863791 -0.86589766 63 135 128
0.2983706 -0.28947619 -0.86622518 64 136 128
0.29771718 -0.29068685 -0.86567706 58 136 127
0.2978352 -0.29052404 -0.86579174 59 136 127
0.29641303 -0.29006451 -0.86379391 50 135 126
0.29677373 -0.28929597 -0.8640756 54 136 126
0.29759032 -0.29070503 -0.86551392 57 136 126
0.29703936 -0.29036945 -0.86469984 54 136 126
0.29919961 -0.28856868 -0.86757308 65 136 129
0.29885578 -0.28907612 -0.86678904 66 136 128
0.29892808 -0.28772184 -0.86663049 66 135 129
0.29882795 -0.29237124 -0.86757076 68 136 128
0.29774156 -0.29151163 -0.86591762 59 136 127
0.29703206 -0.29182705 -0.86508703 56 135 127
0.29843149 -0.29221708 -0.86700928 65 136 128
0.29752567 -0.29354069 -0.86628938 63 133 128
0.29843956 -0.2937752 -0.86753798 70 133 129
0.29676145 -0.29305276 -0.86499071 55 134 127
0.29767874 -0.29486009 -0.86675823 66 132 128
0.29600829 -0.29462421 -0.86398351 48 135 125
0.29698038 -0.29407221 -0.86549807 58 133 127
0.2989006 -0.29153398 -0.86750633 66 137 127
0.29737607 -0.29730582 -0.86711717 61 133 128
0.29690513 -0.29822174 -0.86656189 58 133 127
0.29662499 -0.29790646 -0.86573756 58 134 127
0.29732609 -0.29795879 -0.86737752 60 132 127
0.29739448 -0.29608572 -0.86645871 65 133 128
0.29769093 -0.29639792 -0.86731869 65 132 128
0.29659629 -0.29559797 -0.86507577 56 133 127
0.29652548 -0.29633132 -0.86505103 57 134 126
0.29715091 -0.2958982 -0.86602306 62 133 127
0.30461606 -0.25314364 -0.88290995 50 133 126
0.30495727 -0.25533953 -0.88317865 54 132 127
0.30478072 -0.25452501 -0.88279772 53 133 127
0.30455187 -0.25290254 -0.88273007 50 133 127
0.30448222 -0.2531777 -0.88213104 51 133 127
0.30435345 -0.2541751 -0.88038301 51 135 127
0.30435008 -0.25546196 -0.87964833 54 135 128
0.30446401 -0.2522999 -0.88254839 49 133 126
0.30433449 -0.25571257 -0.87935072 54 135 128
0.30470869 -0.25887313 -0.88051885 53 135 127
0.30474067 -0.25902566 -0.8813554 54 133 127
0.3048951 -0.2577377 -0.8828389 54 132 127
0.30481797 -0.25843254 -0.88216335 54 133 127
0.30466956 -0.25945532 -0.88046598 53 135 127
0.30489218 -0.25784099 -0.88291025 54 132 127
0.30466294 -0.25868973 -0.88009167 53 135 127
0.30454233 -0.25638247 -0.88026053 54 134 128
0.30453712 -0.25650248 -0.88018692 54 134 128
0.30453739 -0.25733477 -0.87988269 54 135 127
0.30453372 -0.25839278 -0.87947345 53 136 127
0.30495611 -0.25648156 -0.8825528 54 132 128
0.3048805 -0.26305547 -0.88281274 53 133 128
0.30476156 -0.26244983 -0.88175792 53 133 128
0.30486372 -0.26262495 -0.88281476 53 133 128
0.30477276 -0.26011941 -0.88290191 54 132 128
0.30488306 -0.26309019 -0.88282615 53 133 128
0.30479738 -0.26288086 -0.88196677 53 133 128
0.30464783 -0.2624622 -0.88047671 53 134 127
0.30470333 -0.26102328 -0.88156444 53 133 127
0.30461594 -0.26129207 -0.87981075 53 135 126
0.30462426 -0.26104036 -0.87997299 53 135 126
0.30462003 -0.2617043 -0.87990159 53 135 126
0.30490848 -0.26432759 -0.88291031 53 133 128
0.30497032 -0.26703727 -0.88313991 58 132 130
0.30466306 -0.26741898 -0.88080311 55 133 129
0.3047139 -0.26700145 -0.88122052 55 133 129
0.30456769 -0.26721087 -0.88010603 53 134 128
0.30456507 -0.26671213 -0.88011372 52 134 128
0.30473909 -0.26434299 -0.88121027 52 134 128
0.30474672 -0.26407233 -0.88119948 52 134 128
0.30475885 -0.26470643 -0.8815574 52 134 128
0.30463022 -0.26459974 -0.88009226 52 134 128
0.3048355 -0.2704058 -0.88215888 61 133 128
0.30495587 -0.26975566 -0.88299668 61 134 129
0.30496496 -0.26858523 -0.88306206 60 133 130
0.30472329 -0.27134371 -0.88137746 60 134 128
0.30489761 -0.26994666 -0.88259137 61 133 128
0.30498177 -0.27101085 -0.88317454 63 134 128
0.30478722 -0.26879093 -0.88181341 58 134 129
0.30477974 -0.26803431 -0.8816992 58 132 130
0.3047522 -0.26900515 -0.88156736 58 133 129
0.30444273 -0.26975727 -0.87930477 54 134 128
0.30452198 -0.26835665 -0.87979162 54 133 129
0.30459413 -0.27003947 -0.88046145 57 134 128
0.3048982 -0.27246907 -0.88224161 64 134 128
0.30504057 -0.27525505 -0.88217235 64 132 127
0.30496243 -0.27359405 -0.88225943 65 132 128
0.30504808 -0.27308762 -0.88302851 64 134 128
0.30490479 -0.27493477 -0.88137066 65 132 127
0.30446711 -0.27193767 -0.87943524 58 134 127
0.3048102 -0.27183157 -0.88185757 63 134 128
0.30461347 -0.27220249 -0.88035828 60 135 127
0.30482906 -0.27203825 -0.88191497 63 134 128
0.30465752 -0.27418286 -0.87995994 64 134 128
0.3050862 -0.27651194 -0.88279867 65 131 127
0.30474594 -0.27853236 -0.88037807 71 131 128
0.30471918 -0.27905646 -0.88052011 70 132 128
0.30498719 -0.27748746 -0.88244718 66 131 127
0.30462959 -0.27929452 -0.87961519 72 132 129
0.3048929 -0.27833501 -0.88203806 68 132 128
0.30498642 -0.27674758 -0.88180184 68 131 128
0.30481896 -0.27669331 -0.88066441 68 132 128
0.30497995 -0.27678648 -0.88175923 68 131 128
0.30474231 -0.27658942 -0.8801409 68 132 128
0.30462757 -0.27577573 -0.87933463 66 132 128
0.30432007 -0.2830202 -0.88006455 72 132 129
0.30477461 -0.28034878 -0.8825115 67 132 128
0.30432042 -0.28292722 -0.88003772 72 132 129
0.30482778 -0.27982843 -0.88273233 66 133 127
0.30476406 -0.28085196 -0.88259357 67 132 128
0.30427456 -0.28265339 -0.87945414 73 132 130
0.30429789 -0.28264025 -0.87972945 73 131 130
0.3045426 -0.2801868 -0.87966359 72 132 129
0.30463368 -0.2805081 -0.88121378 69 133 128
0.30480063 -0.27984118 -0.88245285 67 132 128
0.30460972 -0.28513923 -0.88308352 63 132 128
0.30421993 -0.28652999 -0.88114387 64 134 129
0.30448419 -0.28657544 -0.88283974 62 133 129
0.30418095 -0.28705081 -0.88109702 63 134 129
0.30411312 -0.28707695 -0.88067633 64 134 129
0.30445439 -0.28640059 -0.8825832 62 133 128
0.30435562 -0.28388679 -0.88077438 69 133 129
0.30406615 -0.28626603 -0.88005501 66 134 130
0.30426276 -0.2843987 -0.88039821 69 133 129
0.30432451 -0.28380659 -0.88050306 69 133 129
0.30408213 -0.28606889 -0.8800568 66 134 130
0.30457771 -0.28367573 -0.88225889 67 132 129
0.30438298 -0.28987738 -0.88285422 65 134 127
0.30432075 -0.28968695 -0.88254535 66 133 128
0.30440238 -0.28797802 -0.88277864 63 133 129
0.30433854 -0.29058605 -0.88270766 68 133 128
0.30426735 -0.29019159 -0.88233894 68 133 128
0.30444878 -0.28949636 -0.88312966 64 134 127
0.30432603 -0.28747016 -0.88221109 62 135 128
0.30448592 -0.28714815 -0.88307464 61 133 128
0.30417258 -0.28765061 -0.88132167 65 134 129
0.30408794 -0.28836638 -0.88112152 66 133 129
0.30389282 -0.28801161 -0.87971497 67 134 130
0.30410516 -0.28766012 -0.880898 65 134 129
0.30395594 -0.29483068 -0.88215256 71 131 129
0.30366635 -0.2944338 -0.88034534 77 130 130
0.30375528 -0.29389974 -0.880615 76 130 130
0.30364236 -0.29473397 -0.88034046 77 130 130
0.30394977 -0.29337287 -0.88148361 73 131 129
0.30358869 -0.29486847 -0.88009614 78 129 130
0.30348289 -0.29400659 -0.87930703 80 129 131
0.30407733 -0.29158142 -0.88162863 72 132 129
0.3039667 -0.29177374 -0.88114637 73 132 129
0.30389947 -0.29277816 -0.88102525 74 131 129
0.30371341 -0.29179943 -0.87996227 76 131 130
0.30305848 -0.29735434 -0.87983733 73 131 129
0.30296418 -0.29762995 -0.87968755 72 131 129
0.30336127 -0.29552323 -0.87948585 79 129 131
0.3032572 -0.2985262 -0.88169485 67 132 129
0.30323216 -0.29877496 -0.88180935 66 132 128
0.3034991 -0.29620796 -0.88068956 75 130 130
0.30355734 -0.29639745 -0.88117689 73 131 129
0.3035396 -0.2976124 -0.88209337 69 131 129
0.30355069 -0.29743791 -0.88200986 69 132 129
0.30371898 -0.29754609 -0.8830505 65 133 128
0.30368114 -0.29687285 -0.8822735 69 132 129
0.30268729 -0.29979625 -0.88074875 66 132 128
0.30250579 -0.30239129 -0.88304627 58 133 126
0.30215654 -0.30255812 -0.88119227 59 133 127
0.30249888 -0.29968062 -0.87982386 66 132 128
0.30236715 -0.30149534 -0.88121635 62 133 127
0.30201757 -0.30232945 -0.88003838 60 133 127
0.30222103 -0.30094343 -0.8796218 64 132 128
0.30233508 -0.3012498 -0.880714 63 132 128
0.30278054 -0.30115074 -0.88264877 61 134 126
0.30295575 -0.29990554 -0.88194555 64 134 128
0.30284908 -0.30003211 -0.88164747 64 134 128
0.302881 -0.30107018 -0.88297409 61 133 127
0.30142584 -0.30601245 -0.88008845 58 131 127
0.30137622 -0.30645779 -0.88038033 58 131 128
0.30196425 -0.30489951 -0.88271004 58 132 127
0.30214241 -0.30369034 -0.88226873 58 133 127
0.3017129 -0.30614007 -0.88260853 58 130 129
0.3015942 -0.30448481 -0.879601 59 132 127
0.30223376 -0.30316728 -0.88232148 58 133 126
0.30175149 -0.3045409 -0.88064581 59 132 127
0.30199596 -0.30349112 -0.88114578 59 132 127
0.30186275 -0.30423829 -0.88104635 59 132 127
0.30136979 -0.30577466 -0.87946445 58 131 127
0.30083844 -0.30978593 -0.88225418 56 131 128
0.30107021 -0.30909368 -0.88284564 57 131 129
0.30068645 -0.31025493 -0.88189745 56 131 128
0.30080298 -0.30992419 -0.88222969 56 131 128
0.30078319 -0.31029883 -0.88282079 56 131 128
0.30139071 -0.30762193 -0.88261652 57 132 128
0.30110818 -0.30748987 -0.88006353 58 130 128
0.30078703 -0.30881047 -0.87990278 57 131 127
0.3016254 -0.3068184 -0.88300788 57 132 128
0.30102092 -0.30801389 -0.8803249 57 131 128
0.30119693 -0.30694199 -0.87977058 58 131 127
0.30034351 -0.31282443 -0.8825255 54 131 129
0.30056506 -0.31169027 -0.88246685 55 131 129
0.30067617 -0.3105703 -0.88241339 56 131 128
0.30025753 -0.31168419 -0.87932009 54 132 128
0.30063921 -0.31092453 -0.88225895 56 131 129
0.30063832 -0.31077534 -0.88218212 56 131 129
0.30034065 -0.31132302 -0.87986952 55 131 128
0 0 0 1 0 0 0 1 0 0 0 1 0 0 0 0 0 969 1 0 0
