ply
format ascii 1.0
comment PCL generated
element vertex 737
property float x
property float y
property float z
property uchar red
property uchar green
property uchar blue
element camera 1
property float view_px
property float view_py
property float view_pz
property float x_axisx
property float x_axisy
property float x_axisz
property float y_axisx
property float y_axisy
property float y_axisz
property float z_axisx
property float z_axisy
property float z_axisz
property float focal
property float scalex
property float scaley
property float centerx
property float centery
property int viewportx
property int viewporty
property float k1
property float k2
end_header
-0.25643039 -0.39200762 -0.80895787 132 133 116
-0.25571996 -0.39203367 -0.80878359 131 133 117
-0.2600356 -0.39561197 -0.80892456 142 137 114
-0.25746965 -0.39347899 -0.80881381 135 135 116
-0.25881028 -0.39525774 -0.80868989 139 136 115
-0.25961468 -0.39568424 -0.80877513 141 137 114
-0.25678143 -0.39552659 -0.80811489 134 136 115
-0.25622714 -0.39491996 -0.80813432 132 136 115
-0.25698826 -0.39554778 -0.8081612 134 136 115
-0.25646353 -0.39434332 -0.80834395 133 135 116
-0.25663063 -0.39487433 -0.80824733 133 136 115
-0.25566334 -0.39338282 -0.80840814 130 134 116
-0.25546193 -0.39372638 -0.80828255 130 134 116
-0.25584215 -0.39505556 -0.8080036 131 136 115
-0.25583214 -0.39519092 -0.80796653 131 136 115
-0.2562784 -0.39738187 -0.8075648 135 136 115
-0.25650626 -0.39816535 -0.80746472 137 136 116
-0.25705227 -0.39795205 -0.80766696 138 137 115
-0.25750148 -0.39874008 -0.80762959 141 137 115
-0.25759527 -0.3990345 -0.8075943 142 137 116
-0.25691986 -0.39761871 -0.80769932 137 137 115
-0.25943756 -0.39859188 -0.80816334 146 138 114
-0.25859243 -0.39761531 -0.80812174 142 137 114
-0.25841081 -0.39733312 -0.80812544 141 137 114
-0.25843725 -0.39657137 -0.80826485 139 137 114
-0.25853124 -0.39675957 -0.80825555 140 137 114
-0.25455236 -0.39955142 -0.80671102 130 137 117
-0.25540325 -0.39856035 -0.80710822 132 137 116
-0.25524098 -0.39924166 -0.80693328 133 137 117
-0.2556957 -0.39679784 -0.8075366 131 137 115
-0.25588521 -0.40372431 -0.8061465 138 138 116
-0.25594151 -0.40265 -0.80638045 138 137 117
-0.25674421 -0.40281904 -0.80660367 145 135 118
-0.25634184 -0.40334094 -0.8063699 142 136 117
-0.25766882 -0.40078297 -0.80726272 147 136 117
-0.25816441 -0.40103671 -0.80736262 149 136 117
-0.25422564 -0.40346375 -0.80576408 133 136 115
-0.25285825 -0.40348333 -0.80537999 132 134 115
-0.2553654 -0.40321314 -0.80611974 136 137 116
-0.25521812 -0.4020541 -0.80631661 136 136 116
-0.25408983 -0.40079498 -0.80629295 132 135 116
-0.2558018 -0.40354872 -0.80615938 138 138 116
-0.25564393 -0.40091017 -0.80665088 138 136 118
-0.25419092 -0.40131024 -0.80621415 132 135 116
-0.25650439 -0.40455616 -0.80619001 143 137 116
-0.2556017 -0.40570968 -0.80568784 139 139 114
-0.25386798 -0.40438804 -0.80545348 136 135 116
-0.25539169 -0.40459636 -0.80583745 138 138 115
-0.25468382 -0.40597659 -0.8053835 139 138 115
-0.25570029 -0.40466124 -0.805911 138 138 115
-0.27509823 -0.35730976 -0.82067895 146 138 116
-0.27462515 -0.3572824 -0.82065636 146 138 116
-0.27258432 -0.35733876 -0.82051295 147 136 116
-0.26942456 -0.35726598 -0.82052219 147 134 117
-0.26868051 -0.35709083 -0.8205924 147 133 117
-0.27680883 -0.35875282 -0.82068795 149 137 117
-0.27723083 -0.36021987 -0.82051164 152 136 118
-0.27581328 -0.36078897 -0.82016289 152 136 118
-0.27751696 -0.36075842 -0.82046878 153 136 118
-0.27674517 -0.36015728 -0.82043678 151 137 117
-0.27621302 -0.36112994 -0.82017434 153 136 118
-0.27585593 -0.35958704 -0.82037872 150 137 118
-0.27417207 -0.36131409 -0.81989008 152 136 118
-0.27216274 -0.358702 -0.82022828 150 135 117
-0.27336752 -0.36022583 -0.82003385 151 135 118
-0.27259022 -0.36130089 -0.81975305 152 135 118
-0.27174279 -0.35788089 -0.82035321 149 135 117
-0.27158669 -0.36000288 -0.8199206 151 135 117
-0.27443862 -0.35860962 -0.82040495 148 137 117
-0.27411121 -0.35976109 -0.82018435 151 135 118
-0.27357796 -0.35926253 -0.8202365 150 135 117
-0.27252921 -0.35781929 -0.82041925 148 135 117
-0.27480364 -0.35847187 -0.82045227 148 137 117
-0.27040961 -0.36085382 -0.81971884 149 136 118
-0.26973715 -0.3610563 -0.81961763 148 136 118
-0.26788905 -0.36079696 -0.81957519 145 138 118
-0.26785764 -0.36058998 -0.81963307 144 137 118
-0.26817864 -0.3610239 -0.81952804 145 137 119
-0.26789552 -0.35754523 -0.82049769 147 133 117
-0.271373 -0.35982063 -0.81995064 150 135 117
-0.27067232 -0.36029595 -0.81987661 150 135 117
-0.27044684 -0.35797721 -0.82034063 148 134 117
-0.27055818 -0.36020252 -0.81989819 150 135 117
-0.27038953 -0.35742712 -0.82045084 148 135 116
-0.26421037 -0.35809022 -0.82051325 148 133 118
-0.26433098 -0.35878497 -0.82026422 145 134 117
-0.2642256 -0.35966662 -0.81996471 142 134 117
-0.26567113 -0.35773686 -0.82054293 147 134 117
-0.26550066 -0.35892138 -0.82014245 143 134 117
-0.26617286 -0.36073098 -0.8195821 142 136 118
-0.26631284 -0.36104593 -0.81949031 142 137 118
-0.26587987 -0.36082181 -0.81955743 141 136 118
-0.26604131 -0.35898173 -0.82008845 143 133 117
-0.26735732 -0.36029771 -0.81970102 144 137 118
-0.26156971 -0.35968125 -0.82020169 133 134 117
-0.26335976 -0.36067733 -0.81967968 137 134 117
-0.26338997 -0.36092943 -0.8195892 137 134 117
-0.26264507 -0.36098638 -0.81964266 133 134 116
-0.2620106 -0.359404 -0.82025468 136 134 117
-0.26193878 -0.36020181 -0.81998456 132 134 116
-0.26048857 -0.35924259 -0.82050502 130 134 116
-0.25984827 -0.35914555 -0.82062399 127 133 116
-0.26044279 -0.35915986 -0.82054228 130 134 116
-0.27936533 -0.36207333 -0.8206296 157 137 118
-0.27608338 -0.36260229 -0.81994379 156 136 118
-0.27697802 -0.36523288 -0.81970817 160 137 118
-0.27708232 -0.36449647 -0.81986046 159 137 118
-0.27590951 -0.36194205 -0.82001531 155 136 119
-0.27682227 -0.36311963 -0.82003438 158 136 119
-0.27901313 -0.36169997 -0.82059467 156 136 118
-0.27835336 -0.36368868 -0.82026857 160 137 118
-0.27763858 -0.36221573 -0.82029784 157 136 118
-0.27909169 -0.36257768 -0.82051599 158 137 118
-0.27865398 -0.36321148 -0.82037193 159 136 118
-0.27348897 -0.36476669 -0.81913507 155 136 118
-0.27179414 -0.36272454 -0.81936133 152 135 117
-0.27432027 -0.36431676 -0.81937486 155 137 118
-0.27271754 -0.36331987 -0.81936306 153 136 118
-0.2729193 -0.36313799 -0.81943887 154 136 118
-0.27167881 -0.36488402 -0.81882125 152 135 117
-0.27179557 -0.36134663 -0.81967431 152 135 118
-0.27387545 -0.36346337 -0.81949323 155 137 118
-0.27535182 -0.36196882 -0.81988108 154 136 119
-0.27312168 -0.36168215 -0.81973356 152 136 118
-0.27275997 -0.36234847 -0.81958687 153 136 118
-0.2675845 -0.3636609 -0.81869149 135 137 118
-0.26886061 -0.3649497 -0.81846023 138 135 117
-0.26892227 -0.36477676 -0.81852078 138 136 117
-0.27035275 -0.36479959 -0.81869507 146 136 118
-0.2677075 -0.3625046 -0.81905961 140 137 118
-0.27046749 -0.36260003 -0.819278 149 136 118
-0.27145728 -0.36299887 -0.8192445 151 135 117
-0.27098626 -0.3642095 -0.81892198 150 136 118
-0.26957205 -0.36212993 -0.81933481 148 137 118
-0.2712951 -0.3650372 -0.81874156 151 135 117
-0.26706332 -0.36515135 -0.81823081 127 136 117
-0.26634425 -0.36419547 -0.81853062 131 135 117
-0.26435009 -0.36225548 -0.81913185 134 135 116
-0.26482752 -0.36371562 -0.81866539 126 136 115
-0.26630881 -0.36471844 -0.81836075 127 135 117
-0.26680577 -0.3616294 -0.81931424 141 137 118
-0.26626191 -0.36197874 -0.81921065 139 136 118
-0.26700708 -0.36180517 -0.81925958 141 138 118
-0.26653564 -0.36347842 -0.81875187 134 136 117
-0.2668919 -0.36154607 -0.81933922 142 138 118
-0.26142237 -0.36134869 -0.81963748 126 135 115
-0.26258418 -0.36232969 -0.81920552 125 136 115
-0.26293579 -0.36222589 -0.81920457 127 135 115
-0.26346365 -0.36243892 -0.81908369 128 136 115
-0.26273528 -0.36167702 -0.8194021 130 135 116
-0.27595955 -0.3678408 -0.8191238 160 137 119
-0.2766332 -0.3668991 -0.81945533 161 137 119
-0.27631083 -0.36687803 -0.81936294 160 137 119
-0.27631682 -0.36560798 -0.81951427 159 137 118
-0.27621859 -0.36578485 -0.81947476 159 137 118
-0.27446714 -0.36877808 -0.81864929 157 136 119
-0.27274054 -0.36750075 -0.81853336 153 136 118
-0.27216244 -0.36743078 -0.81842577 152 136 118
-0.27258745 -0.366559 -0.81868231 153 136 118
-0.27398783 -0.36787006 -0.8187235 156 137 118
-0.274333 -0.36707678 -0.81889623 156 137 118
-0.27322251 -0.36563924 -0.81892312 154 137 117
-0.27379262 -0.36611202 -0.8189466 155 137 118
-0.2744661 -0.3673197 -0.81888306 157 136 119
-0.27517983 -0.36594883 -0.81918824 157 137 118
-0.26760978 -0.36579037 -0.81807292 130 135 117
-0.26850042 -0.36788374 -0.81770271 135 135 116
-0.26800245 -0.36800987 -0.81757355 132 134 115
-0.26972407 -0.36867389 -0.81773502 140 136 116
-0.26782152 -0.36794445 -0.81755543 131 134 115
-0.26901546 -0.36626625 -0.81819475 137 136 117
-0.26829088 -0.36583191 -0.8181864 133 136 117
-0.27057856 -0.36761123 -0.81813437 145 136 118
-0.27113634 -0.36644426 -0.81842929 149 136 118
-0.27084929 -0.36760554 -0.81816971 146 137 118
-0.26757044 -0.36808363 -0.81747204 130 134 114
-0.26692495 -0.36588931 -0.81803226 126 136 115
-0.26606816 -0.3657676 -0.81805217 122 136 115
-0.26752996 -0.36877146 -0.81729317 130 134 113
-0.27600801 -0.37187394 -0.81860226 160 136 119
-0.27608216 -0.37291378 -0.81847978 161 136 119
-0.27732477 -0.37152076 -0.81912488 162 137 118
-0.27639264 -0.37261301 -0.81863421 161 136 119
-0.27710351 -0.37263325 -0.8188861 162 137 119
-0.27631021 -0.3691707 -0.81904244 161 136 120
-0.27401221 -0.37194303 -0.81806618 156 136 119
-0.27333516 -0.37258592 -0.81775361 156 135 119
-0.27418423 -0.37242106 -0.81801546 157 136 119
-0.27318683 -0.37299669 -0.81763023 156 136 119
-0.27375731 -0.37241277 -0.81790227 156 136 119
-0.2739507 -0.36998984 -0.81834972 155 137 119
-0.27321193 -0.36968225 -0.81823915 153 137 118
-0.27366421 -0.37054023 -0.81821084 155 136 119
-0.27410781 -0.36945152 -0.81845987 155 137 118
-0.27412012 -0.37045062 -0.81831914 156 137 119
-0.26787913 -0.3709816 -0.81682616 134 134 114
-0.26996329 -0.3727051 -0.81690723 146 135 117
-0.26855081 -0.37037936 -0.81712842 136 134 115
-0.27096158 -0.37270784 -0.81712502 150 135 118
-0.27121851 -0.37173605 -0.81737667 150 136 118
-0.26926732 -0.36939767 -0.81747329 139 135 116
-0.27069122 -0.37116405 -0.81739062 147 135 117
-0.27091435 -0.37110597 -0.81744564 148 135 118
-0.2708123 -0.36918801 -0.8178153 146 136 117
-0.26741248 -0.37040421 -0.81687868 131 134 114
-0.2671805 -0.36922017 -0.81714529 128 134 113
-0.27151722 -0.3746874 -0.8168245 154 136 118
-0.27398196 -0.37575772 -0.81741387 159 137 119
-0.27312133 -0.37487623 -0.81731594 157 136 118
-0.27343896 -0.37579331 -0.81722611 158 136 119
-0.27310747 -0.37349582 -0.81753135 156 136 119
-0.27391365 -0.3733291 -0.81777328 158 135 119
-0.27436522 -0.37318763 -0.81791598 158 136 119
-0.27387914 -0.37429446 -0.81761914 158 136 119
-0.2735588 -0.37327817 -0.81768543 157 135 119
-0.27049831 -0.37332773 -0.81688666 149 135 118
-0.27383062 -0.37771714 -0.81699681 160 136 119
-0.27348608 -0.37820396 -0.81681085 159 136 118
-0.26938105 -0.37273997 -0.81676626 143 135 117
-0.26767635 -0.37251601 -0.81641334 135 135 115
-0.26599512 -0.37183374 -0.81630498 128 135 113
-0.2669878 -0.37244681 -0.81631434 133 135 115
-0.26726419 -0.37141028 -0.8166033 132 134 114
-0.26730528 -0.37082621 -0.8167578 131 134 114
-0.26585433 -0.37118417 -0.81648135 126 136 113
-0.26546195 -0.37042427 -0.81667215 123 136 114
-0.27159885 -0.37677044 -0.81640214 155 135 119
-0.27157831 -0.37670338 -0.81640971 155 135 119
-0.2684865 -0.37306952 -0.81647515 140 135 116
-0.27099073 -0.37554762 -0.81651366 152 135 119
-0.26993531 -0.37421501 -0.81655729 146 135 117
-0.27072197 -0.37577701 -0.81640178 151 135 118
-0.27012002 -0.37562683 -0.81629425 148 135 117
-0.26814884 -0.37577179 -0.81577367 146 135 117
-0.26846674 -0.37618455 -0.81575662 148 135 118
-0.26906869 -0.37631136 -0.81587595 149 135 118
-0.26828673 -0.37608868 -0.81573433 147 134 118
-0.26816395 -0.37675044 -0.81555068 149 134 118
-0.26481989 -0.37452772 -0.81547588 131 136 114
-0.26572227 -0.37656635 -0.81509304 143 132 117
-0.2666696 -0.37683466 -0.81520915 147 133 118
-0.26367623 -0.37513384 -0.81507832 132 133 115
-0.26390082 -0.37384269 -0.81548083 126 136 113
-0.26673922 -0.3763867 -0.81534714 144 134 117
-0.26660901 -0.37365615 -0.81597179 134 135 115
-0.26703167 -0.37480801 -0.8157708 140 135 116
-0.26738277 -0.37404346 -0.81600267 138 135 116
-0.26689652 -0.37501693 -0.81570131 140 135 116
-0.26563621 -0.37428021 -0.8156755 132 136 114
-0.26213303 -0.3758924 -0.81473982 128 131 116
-0.26239365 -0.37618783 -0.81467146 130 131 115
-0.26326177 -0.37605384 -0.81479782 134 131 115
-0.26302117 -0.37469012 -0.81516063 126 133 114
-0.27327228 -0.37838832 -0.8167116 159 136 118
-0.27319428 -0.37986636 -0.81643701 162 135 119
-0.27346125 -0.37966001 -0.81657684 162 135 119
-0.27172327 -0.37983072 -0.81588322 159 135 120
-0.26911363 -0.37948757 -0.81519723 152 135 118
-0.26832777 -0.37874523 -0.81513715 150 135 118
-0.26817298 -0.38044709 -0.81464934 147 137 116
-0.27023789 -0.38061351 -0.81526679 155 135 119
-0.26760036 -0.37975621 -0.81464416 146 137 116
-0.2706297 -0.37864771 -0.81579965 156 134 119
-0.27041587 -0.37744007 -0.81597006 154 135 119
-0.27133036 -0.37933218 -0.81584626 157 135 119
-0.2713972 -0.37881699 -0.81595796 157 135 119
-0.27006909 -0.37841922 -0.81570339 155 134 119
-0.26471713 -0.37930256 -0.81411147 141 134 116
-0.26443434 -0.3789908 -0.81413639 141 134 117
-0.26391348 -0.37766272 -0.81441551 142 131 117
-0.26592782 -0.38012469 -0.81416309 142 136 116
-0.26440364 -0.3796744 -0.81391728 141 134 117
-0.2637783 -0.37959296 -0.81378442 140 134 117
-0.2663523 -0.37938344 -0.81448674 144 135 116
-0.26720354 -0.37869167 -0.81483591 146 135 117
-0.26653874 -0.37703565 -0.81512886 147 133 118
-0.26631787 -0.37736177 -0.81500047 146 133 117
-0.26396465 -0.37719697 -0.81456995 141 131 116
-0.26617354 -0.37896895 -0.81455749 144 135 116
-0.26054609 -0.37990102 -0.81309354 129 135 115
-0.26020977 -0.37974367 -0.81308067 127 134 115
-0.26235673 -0.3804175 -0.81326878 135 135 117
-0.26248005 -0.38084018 -0.8131336 137 135 117
-0.26091295 -0.37893644 -0.81353903 126 136 115
-0.26251584 -0.38075718 -0.81317222 137 135 117
-0.26363596 -0.37708196 -0.81452936 141 130 117
-0.26357469 -0.37827387 -0.81415272 140 132 117
-0.26288968 -0.37697339 -0.81446457 136 131 116
-0.26351571 -0.37860602 -0.81404215 139 132 117
-0.26319736 -0.37901792 -0.81387281 137 134 117
-0.27229643 -0.38134801 -0.81585848 161 135 119
-0.27189368 -0.38117188 -0.81572431 160 135 119
-0.27188155 -0.38211787 -0.81556416 160 134 119
-0.27156061 -0.3831374 -0.81524765 160 134 120
-0.27223772 -0.38228738 -0.81569362 161 134 119
-0.26779574 -0.38212472 -0.81417519 148 136 117
-0.26805413 -0.38310704 -0.81406856 151 134 118
-0.26910836 -0.38374928 -0.81430864 155 133 119
-0.27016482 -0.38449433 -0.81452888 158 132 120
-0.26980338 -0.38330773 -0.8146404 155 134 118
-0.26913249 -0.38218454 -0.81462413 151 136 117
-0.27133533 -0.38386855 -0.81504142 160 133 120
-0.27016327 -0.38188323 -0.81500506 155 135 119
-0.27027202 -0.38208741 -0.81500506 155 135 119
-0.2712253 -0.38442841 -0.81491077 160 133 120
-0.26434803 -0.38300994 -0.81305486 141 136 116
-0.26460022 -0.38297066 -0.81313872 142 136 117
-0.26516116 -0.38283938 -0.81332916 145 134 118
-0.2654669 -0.38347003 -0.81326938 146 134 118
-0.26641631 -0.38266599 -0.81369686 148 134 118
-0.26580349 -0.38150188 -0.8137756 144 135 117
-0.26730096 -0.38191441 -0.81407118 147 136 117
-0.26706091 -0.38124043 -0.8141458 145 137 116
-0.26703635 -0.38236111 -0.81391472 148 135 117
-0.26435879 -0.38133109 -0.81344479 142 135 118
-0.26214248 -0.38118047 -0.81298161 136 136 117
-0.27172402 -0.3865495 -0.81482095 162 134 120
-0.27109557 -0.38866034 -0.81428939 160 137 118
-0.26891217 -0.38713813 -0.81365812 156 135 118
-0.26829106 -0.38790506 -0.81323171 153 136 117
-0.26903236 -0.38684922 -0.81376952 156 134 119
-0.2680653 -0.38798159 -0.8131184 152 136 117
-0.26780543 -0.38717383 -0.8131721 152 135 117
-0.27034718 -0.38528234 -0.81447458 159 132 120
-0.26996028 -0.38670316 -0.81416422 159 133 119
-0.27048367 -0.38669503 -0.81434834 159 134 119
-0.2688987 -0.38516518 -0.81398207 158 131 120
-0.27118635 -0.38692248 -0.81456625 161 135 119
-0.27131605 -0.38807565 -0.81446964 161 136 119
-0.26667473 -0.3850314 -0.81325644 150 132 119
-0.26756641 -0.38579643 -0.81335121 154 132 119
-0.26742196 -0.38733059 -0.81299067 150 136 116
-0.2713649 -0.38976151 -0.81424224 162 136 118
-0.27079549 -0.38915125 -0.81408215 160 136 118
-0.26980665 -0.3890138 -0.813676 157 137 118
-0.26973784 -0.39104825 -0.81332767 162 136 118
-0.26965696 -0.38905808 -0.8136043 157 137 118
-0.26995298 -0.38954094 -0.81365675 159 136 118
-0.25393063 -0.40664944 -0.80504829 140 137 114
-0.25233772 -0.40577003 -0.80475807 136 135 116
-0.25232729 -0.40480092 -0.80494583 136 133 116
-0.2526978 -0.40634748 -0.80474931 137 136 115
-0.25207326 -0.40804803 -0.80423254 137 137 115
-0.25025201 -0.40750563 -0.80390221 130 137 114
-0.25116691 -0.40686491 -0.80424887 133 136 115
-0.2516762 -0.40729776 -0.80428129 135 136 116
-0.2530534 -0.4082984 -0.80446768 139 138 115
-0.25202495 -0.40830702 -0.80416632 137 137 115
-0.25243279 -0.40933594 -0.80405664 143 135 116
-0.24915089 -0.41164541 -0.8026765 133 137 116
-0.2500734 -0.41059244 -0.8031413 135 136 114
-0.24860072 -0.41184029 -0.80250138 131 136 116
-0.25020897 -0.41070843 -0.80314577 136 136 114
-0.24985111 -0.40979502 -0.80327827 132 138 113
-0.25077912 -0.40860316 -0.80378854 132 138 114
-0.25046623 -0.40883678 -0.80365711 132 137 114
-0.24971856 -0.40943092 -0.80333424 130 138 113
-0.24990025 -0.40969518 -0.80331415 132 137 113
-0.24828616 -0.41216275 -0.8023566 130 137 116
-0.25003144 -0.41248009 -0.80272162 139 136 116
-0.28485647 -0.33658242 -0.82405519 155 136 119
-0.28332722 -0.33760509 -0.82398671 151 135 119
-0.28525874 -0.33787814 -0.8240487 154 136 119
-0.28421366 -0.33754563 -0.82401806 153 135 119
-0.28205642 -0.33784506 -0.82403058 153 135 119
-0.2839911 -0.33934149 -0.82395661 150 136 118
-0.28392968 -0.3415907 -0.82377684 144 139 115
-0.28439373 -0.34118634 -0.82386088 147 138 116
-0.28666282 -0.34167624 -0.82408231 153 137 116
-0.28334749 -0.3388651 -0.82391971 149 137 118
-0.28457686 -0.33799294 -0.82402545 153 136 119
-0.28466147 -0.33825058 -0.82402909 153 136 119
-0.2839677 -0.33864811 -0.82400656 151 136 119
-0.28532365 -0.33983493 -0.82405674 153 136 118
-0.2852222 -0.33810294 -0.82404792 153 136 119
-0.28144994 -0.34145913 -0.82364309 147 137 117
-0.28055951 -0.34109724 -0.82365817 150 135 118
-0.27938774 -0.34099135 -0.82361406 153 133 119
-0.28103074 -0.33970329 -0.82392418 151 136 117
-0.28253019 -0.34051409 -0.82380533 146 138 116
-0.28122497 -0.33823273 -0.82403636 154 135 119
-0.28291151 -0.33917049 -0.82389224 148 137 117
-0.28162441 -0.33976519 -0.82390153 149 137 117
-0.28303832 -0.34131745 -0.82372189 142 140 114
-0.27596623 -0.33911642 -0.82409889 153 137 116
-0.27766454 -0.34053823 -0.82376975 152 134 118
-0.27587333 -0.34061372 -0.82387418 153 134 116
-0.27654254 -0.34062859 -0.82382852 153 134 117
-0.27630004 -0.3405799 -0.8238517 153 134 117
-0.27550507 -0.33993959 -0.82400191 154 135 116
-0.27842686 -0.34055892 -0.82372409 153 134 118
-0.27885789 -0.34067193 -0.82368469 153 134 119
-0.27655545 -0.33832014 -0.82419717 154 137 117
-0.27196363 -0.34035799 -0.82456458 148 131 117
-0.27385482 -0.3389588 -0.82443768 151 135 116
-0.27313727 -0.34011543 -0.82436234 147 134 115
-0.27404863 -0.33945602 -0.82430953 150 136 116
-0.27453959 -0.340202 -0.824112 151 134 116
-0.27317536 -0.34114996 -0.82419533 147 133 115
-0.27477014 -0.34111217 -0.82393301 152 133 116
-0.27433038 -0.33911833 -0.82431418 150 136 115
-0.27136791 -0.34115833 -0.824534 145 131 116
-0.28499448 -0.3441098 -0.82377613 150 136 117
-0.28448537 -0.34365743 -0.8237322 147 137 116
-0.28348368 -0.3442125 -0.82353252 144 137 115
-0.28421295 -0.3441388 -0.82365203 147 137 116
-0.28502142 -0.34396476 -0.82379168 150 136 117
-0.28592879 -0.34291902 -0.82394814 152 137 117
-0.28473055 -0.34268942 -0.82381976 148 138 116
-0.28537688 -0.34388673 -0.82384974 151 137 117
-0.28565431 -0.34261402 -0.823928 150 138 116
-0.28098035 -0.34401122 -0.82336235 147 135 117
-0.28081039 -0.34413186 -0.82333088 147 134 117
-0.27930656 -0.34344307 -0.82326823 147 134 118
-0.27973574 -0.343851 -0.82326007 147 134 118
-0.27988753 -0.34497294 -0.82313681 143 136 117
-0.28295776 -0.3435784 -0.82352537 143 137 115
-0.28174359 -0.34303656 -0.82350314 146 136 116
-0.28301209 -0.34195668 -0.82365531 142 140 114
-0.28283393 -0.34265929 -0.82359082 143 139 115
-0.28272939 -0.34242359 -0.82360369 143 139 115
-0.28235975 -0.34381407 -0.82347506 144 136 116
-0.27911848 -0.345615 -0.82300591 142 136 117
-0.27779752 -0.34437674 -0.82323891 146 135 116
-0.27723548 -0.34496358 -0.82313305 145 134 116
-0.27575222 -0.34227541 -0.82363355 153 133 117
-0.2768057 -0.34341902 -0.82341903 149 134 117
-0.27635822 -0.34342602 -0.82341945 149 134 116
-0.27885482 -0.34379199 -0.82325298 147 134 118
-0.2766239 -0.34246114 -0.82356137 152 133 117
-0.27744889 -0.34180197 -0.82358909 153 133 118
-0.27927545 -0.345061 -0.82306945 143 135 117
-0.27653521 -0.34228438 -0.82358891 152 133 117
-0.27644673 -0.34245172 -0.82357401 152 133 117
-0.27204058 -0.34383696 -0.82380909 142 133 115
-0.27179667 -0.34431285 -0.82371312 142 133 115
-0.27392143 -0.3449274 -0.82334632 144 133 115
-0.27218279 -0.34459099 -0.8236044 142 133 115
-0.27150732 -0.34226796 -0.82425863 143 132 115
-0.27482796 -0.3432855 -0.82354373 149 132 116
-0.27405503 -0.3418971 -0.82392925 150 132 116
-0.27486208 -0.34298739 -0.82359284 150 132 116
-0.27501944 -0.34266406 -0.82362586 151 132 116
-0.27462009 -0.34218082 -0.82378197 151 132 116
-0.2751987 -0.34523886 -0.82312179 147 133 116
-0.26925409 -0.34350118 -0.82432628 139 133 115
-0.27134997 -0.34560186 -0.82343912 140 134 114
-0.27037746 -0.34502006 -0.82373524 140 134 114
-0.26997745 -0.34332436 -0.82422507 142 131 115
-0.27002078 -0.34508538 -0.8237735 140 134 114
-0.27028182 -0.34361422 -0.8241052 141 132 115
-0.27146617 -0.34351039 -0.82394975 142 133 115
-0.28384945 -0.34807673 -0.82328105 151 134 118
-0.28362212 -0.34687388 -0.82335067 148 135 117
-0.28453547 -0.34619084 -0.82356852 150 135 117
-0.28404191 -0.34575742 -0.82350153 147 135 116
-0.28439927 -0.34664518 -0.82353681 150 134 118
-0.2793386 -0.34870401 -0.82260543 143 134 116
-0.2822147 -0.34899342 -0.82292801 151 134 118
-0.28063008 -0.34732211 -0.82294613 145 136 117
-0.28042439 -0.34900311 -0.82270265 146 134 117
-0.27973375 -0.34667164 -0.82291818 143 135 117
-0.28069764 -0.34576827 -0.82311964 142 136 117
-0.28154328 -0.34779343 -0.82299519 148 135 117
-0.28257701 -0.34603149 -0.823277 144 135 116
-0.28137648 -0.34754381 -0.82300436 147 135 117
-0.28034309 -0.34612694 -0.82304817 142 136 117
-0.27613553 -0.34812632 -0.82260776 144 134 116
-0.27639422 -0.34945706 -0.82238358 143 135 116
-0.27885818 -0.34942201 -0.82249701 144 133 116
-0.27554446 -0.34670743 -0.822833 145 134 116
-0.27597126 -0.34857377 -0.82252145 143 134 116
-0.27794012 -0.34754333 -0.82275575 144 134 116
-0.27900544 -0.34683964 -0.82284284 142 135 116
-0.27868447 -0.34635761 -0.82290655 142 135 117
-0.27845043 -0.34782967 -0.82271677 144 133 116
-0.27854243 -0.34712532 -0.82280767 143 134 117
-0.27257308 -0.34889135 -0.82263774 142 135 116
-0.27368444 -0.34941351 -0.82245797 143 135 116
-0.27293548 -0.34772187 -0.82286894 142 135 115
-0.27245659 -0.34691104 -0.82307315 141 135 115
-0.27311578 -0.34898701 -0.82258445 142 135 116
-0.27156767 -0.34836531 -0.82281202 142 134 115
-0.27429977 -0.34755373 -0.82278526 142 135 116
-0.27487016 -0.34646711 -0.82292068 145 133 116
-0.27447572 -0.34651396 -0.82295167 144 134 115
-0.27443323 -0.34735736 -0.82280672 143 134 116
-0.27356589 -0.34756798 -0.82285577 142 135 115
-0.2692087 -0.34782323 -0.82324129 142 134 115
-0.26785937 -0.34915766 -0.82292938 147 134 117
-0.26780662 -0.34627515 -0.82380372 140 133 115
-0.26872873 -0.3484236 -0.82309234 144 134 116
-0.26927447 -0.34742758 -0.82335633 141 134 115
-0.27093285 -0.34655574 -0.82329303 141 135 115
-0.2690306 -0.34638184 -0.82362235 140 134 115
-0.27063975 -0.34657839 -0.82333302 141 135 115
-0.27016485 -0.34808615 -0.82307971 141 135 115
-0.27129677 -0.34673488 -0.82319844 141 135 114
-0.26912931 -0.34599483 -0.82369095 140 133 115
-0.2642287 -0.34885618 -0.82356834 145 134 118
-0.26606375 -0.34723678 -0.82376397 143 133 117
-0.26653716 -0.34933168 -0.82305753 148 133 118
-0.267111 -0.34785411 -0.82341474 144 134 117
-0.26709828 -0.34903035 -0.82306135 147 134 118
-0.2655465 -0.34779674 -0.82367522 144 133 117
-0.26646838 -0.34822991 -0.82340109 145 134 117
-0.28042722 -0.35331017 -0.8220579 148 138 117
-0.27938586 -0.35137025 -0.82220197 145 135 117
-0.28244662 -0.35119769 -0.82268941 151 136 117
-0.28174976 -0.35052824 -0.82268137 150 135 117
-0.28301135 -0.35005119 -0.82289571 153 135 118
-0.28030169 -0.34969699 -0.8225984 147 133 117
-0.28077155 -0.35016799 -0.8226015 147 134 116
-0.27747223 -0.35252309 -0.82191068 145 137 117
-0.27663451 -0.35243636 -0.8218869 145 136 116
-0.27678725 -0.3515051 -0.82205319 145 136 117
-0.27844456 -0.35323754 -0.82183337 146 138 116
-0.27581769 -0.35153979 -0.82200259 145 135 117
-0.27856079 -0.35040155 -0.82231748 144 134 117
-0.27720097 -0.35037464 -0.82226282 143 135 116
-0.27862731 -0.35160649 -0.82211751 145 136 116
-0.27911639 -0.35258701 -0.82197362 145 137 117
-0.27820146 -0.35016406 -0.82234186 143 134 116
-0.27229077 -0.35219884 -0.82189101 145 134 117
-0.27276155 -0.35294735 -0.82170886 146 133 117
-0.27337658 -0.35207638 -0.8219589 145 134 116
-0.27295846 -0.35241678 -0.82185537 145 134 116
-0.27168912 -0.35271105 -0.82173616 145 134 117
-0.27480429 -0.35159335 -0.82200903 145 134 116
-0.27538967 -0.35139054 -0.82200849 145 135 116
-0.27463606 -0.35110289 -0.82210296 145 135 116
-0.27506274 -0.3517383 -0.82196873 146 135 116
-0.27429992 -0.34963772 -0.82237375 143 135 116
-0.27409092 -0.3517718 -0.82202142 145 134 116
-0.26835158 -0.3527247 -0.82188237 145 133 118
-0.26948041 -0.35249335 -0.82189918 146 133 118
-0.27030855 -0.35263744 -0.82182127 146 133 118
-0.27046022 -0.35251799 -0.82184893 146 133 118
-0.26990154 -0.35313523 -0.8216961 145 133 118
-0.27080852 -0.35343611 -0.82156968 145 133 118
-0.27066734 -0.3511101 -0.82220709 145 134 117
-0.27039617 -0.35228378 -0.82191569 146 133 118
-0.26894581 -0.3509284 -0.82237142 147 134 118
-0.27028129 -0.35163772 -0.82209396 146 133 117
-0.27122742 -0.35259771 -0.82177663 145 134 117
-0.26561996 -0.35340968 -0.82185078 144 134 117
-0.26635218 -0.35246164 -0.8221665 144 134 118
-0.26432899 -0.35318238 -0.82201737 143 135 117
-0.26368657 -0.35341758 -0.8219676 143 136 117
-0.26630297 -0.35263431 -0.8221038 144 134 118
-0.26476482 -0.35099003 -0.82282531 146 133 118
-0.26425374 -0.34976861 -0.82328266 147 134 119
-0.2664836 -0.35106784 -0.82256275 146 134 118
-0.26558906 -0.35022333 -0.82294452 147 133 118
-0.26630363 -0.3498539 -0.82293963 148 133 118
-0.26664081 -0.34985933 -0.82288569 148 134 119
-0.26751184 -0.35098198 -0.82242769 147 134 118
-0.26330158 -0.35058218 -0.82312542 143 134 118
-0.2636064 -0.35010222 -0.82324475 146 134 119
-0.25807098 -0.35254896 -0.82333273 124 132 117
-0.25648513 -0.35350415 -0.82325143 121 130 118
-0.25908864 -0.35247156 -0.82315814 129 131 117
-0.25745445 -0.35342681 -0.82308668 126 131 118
-0.2798568 -0.3547419 -0.82175988 149 137 118
-0.28145432 -0.35728523 -0.8217203 159 135 119
-0.2799519 -0.35636237 -0.82153219 152 136 118
-0.28117108 -0.35710764 -0.82168543 158 135 119
-0.2772238 -0.35605681 -0.82127196 150 134 118
-0.27641129 -0.35628486 -0.82109976 148 136 117
-0.27660564 -0.35510966 -0.82142025 149 135 117
-0.27564514 -0.35658374 -0.82091653 147 137 117
-0.2759757 -0.35502854 -0.82135105 148 135 117
-0.27839884 -0.35587922 -0.82142127 150 135 118
-0.27907434 -0.35428393 -0.821697 147 137 117
-0.27910861 -0.35373047 -0.82178348 146 138 117
-0.27806395 -0.35373613 -0.82173443 147 137 117
-0.27635112 -0.35440847 -0.8215524 148 134 117
-0.27883169 -0.35594642 -0.8214308 150 135 118
-0.27151459 -0.35422254 -0.82131976 146 133 118
-0.2725983 -0.35608968 -0.82086247 146 135 117
-0.27218109 -0.35496566 -0.82115275 146 134 117
-0.27373454 -0.35600427 -0.82095903 146 136 116
-0.27320567 -0.3535307 -0.82156974 146 134 117
-0.27440003 -0.35430127 -0.82141638 147 135 117
-0.27469775 -0.35449675 -0.82137734 147 135 117
-0.27532649 -0.35638928 -0.82092518 146 137 116
-0.27355182 -0.35523209 -0.82115608 146 135 117
-0.26769462 -0.35679203 -0.8207128 146 134 117
-0.27009535 -0.35603908 -0.82085693 146 134 117
-0.2702837 -0.35599315 -0.82086432 146 134 117
-0.26854104 -0.3563984 -0.82080168 146 133 117
-0.27002057 -0.3564944 -0.82072425 146 134 117
-0.26934248 -0.3539353 -0.82149309 145 133 118
-0.26925638 -0.35418069 -0.8214277 145 133 118
-0.26987463 -0.35474408 -0.82124162 145 134 117
-0.27058098 -0.3556594 -0.82095242 146 133 117
-0.2660524 -0.35597548 -0.82105798 147 133 118
-0.2663126 -0.35689592 -0.82076794 148 133 118
-0.26713172 -0.35455719 -0.82140893 145 133 118
-0.26715279 -0.35416284 -0.82152462 144 133 118
-0.26393232 -0.35686922 -0.82092935 149 133 118
-0.26430815 -0.35631442 -0.82106912 148 133 118
-0.26375517 -0.35645741 -0.82106137 148 134 118
-0.26617506 -0.35378498 -0.82169688 143 134 117
-0.26648414 -0.354157 -0.82156843 144 134 117
-0.26315412 -0.35712203 -0.82094806 148 132 118
-0.26244447 -0.3563914 -0.82128125 146 132 118
-0.26306087 -0.35365734 -0.82199073 143 134 117
-0.26259345 -0.35381666 -0.82202131 142 134 117
-0.26322508 -0.35421383 -0.82179993 144 134 117
-0.26362541 -0.3557238 -0.82128984 147 134 117
-0.26247332 -0.35353634 -0.82212359 141 134 117
-0.26326838 -0.35631004 -0.82117671 148 133 118
-0.25827706 -0.3570067 -0.82162565 126 133 117
-0.25789016 -0.35539046 -0.82233298 127 132 117
-0.2574898 -0.35482472 -0.82260382 125 131 118
-0.25927681 -0.35681492 -0.82157379 133 131 117
-0.28061187 -0.36012259 -0.82122964 159 135 119
-0.2797111 -0.36061296 -0.82090294 156 135 118
-0.2803441 -0.36039078 -0.82111555 158 135 119
-0.27935165 -0.35817242 -0.82113773 153 135 118
-0.27697688 -0.3584705 -0.82075083 149 137 117
-0.27815321 -0.35880437 -0.82087141 151 136 118
-0.27713054 -0.35845184 -0.82077521 149 137 117
-0.27903408 -0.35900491 -0.82096857 153 135 118
-0.26068056 -0.35813099 -0.82089609 135 133 117
-0.26176512 -0.35767958 -0.82092714 142 132 117
-0.25940886 -0.35905123 -0.82070619 125 134 116
-0.25943536 -0.35852215 -0.8209064 127 133 116
-0.25913134 -0.35826033 -0.82103992 126 134 116
-0.25968805 -0.35814482 -0.82101446 131 133 117
-0.2807402 -0.36191022 -0.82105017 161 135 118
-0.2637963 -0.38426438 -0.81258172 136 139 115
-0.26302889 -0.38236561 -0.81287563 136 137 116
-0.2607913 -0.3816255 -0.81260371 132 135 116
-0.26275951 -0.38324109 -0.81260824 134 138 115
-0.26195222 -0.38230395 -0.81267339 133 136 116
-0.26045737 -0.38316038 -0.81213158 131 135 115
-0.26112503 -0.38428283 -0.81198448 132 136 115
-0.26154825 -0.38406059 -0.81213647 132 137 115
-0.26204535 -0.38352579 -0.81238693 133 137 115
-0.26099354 -0.38454285 -0.81188715 132 136 115
-0.25958416 -0.38192889 -0.81228358 129 134 115
-0.25961339 -0.38122609 -0.81247109 129 134 115
-0.26542467 -0.38610956 -0.81265843 142 138 116
-0.26542354 -0.38552219 -0.81279027 144 136 116
-0.26738086 -0.38816935 -0.81280553 149 137 116
-0.26655853 -0.38860169 -0.81248587 148 138 115
-0.26387841 -0.38733679 -0.81197292 143 136 116
-0.26576838 -0.3875376 -0.81247091 145 138 115
-0.26416519 -0.38819733 -0.81188488 145 136 116
-0.26510936 -0.38751784 -0.81228739 144 137 116
-0.26597458 -0.38839477 -0.81236058 147 137 116
-0.25991639 -0.3871102 -0.81105232 135 135 115
-0.2620905 -0.38730526 -0.81156319 140 135 116
-0.25986284 -0.38594335 -0.81130898 132 136 115
-0.25977281 -0.38550699 -0.81138706 131 136 115
-0.26071954 -0.38631105 -0.81144285 135 135 115
-0.26173267 -0.38773972 -0.81137103 140 135 116
-0.26266888 -0.38758704 -0.811643 142 135 116
-0.26336539 -0.38812339 -0.81169128 144 135 117
-0.2632944 -0.38685572 -0.81192553 141 136 116
-0.26090828 -0.38556367 -0.81165242 133 136 115
-0.26238641 -0.38593647 -0.81190592 137 137 115
-0.26122847 -0.38585371 -0.81166601 135 135 115
-0.25654402 -0.38835844 -0.81003386 131 134 116
-0.25823206 -0.38866243 -0.81031346 135 135 116
-0.25873509 -0.3876982 -0.81073087 134 135 116
-0.25779411 -0.38669047 -0.81083959 130 135 116
-0.25916013 -0.38692886 -0.81097245 133 136 115
-0.25866416 -0.38706183 -0.81087333 133 135 116
-0.25868621 -0.38717687 -0.81084979 133 135 116
-0.2591019 -0.38559178 -0.81127423 130 136 115
-0.25578028 -0.38796785 -0.80999309 129 134 117
-0.26845706 -0.39035073 -0.81288272 156 136 117
-0.26791191 -0.39117852 -0.81249398 159 135 118
-0.26823241 -0.39197746 -0.81250739 162 133 119
-0.26771507 -0.3892957 -0.81272024 151 138 115
-0.26507106 -0.39173007 -0.81142718 154 135 118
-0.26376143 -0.39196944 -0.81091481 150 137 117
-0.26544562 -0.39048597 -0.81184733 154 134 118
-0.26527655 -0.39079192 -0.81171715 154 134 118
-0.2650969 -0.39039147 -0.81174773 153 134 118
-0.26392788 -0.39109135 -0.81117719 150 136 117
-0.267542 -0.39095375 -0.81236738 158 135 117
-0.26629379 -0.38945025 -0.81226563 151 136 116
-0.26687568 -0.39136052 -0.81210929 159 134 119
-0.26641703 -0.39099595 -0.81204027 157 134 118
-0.26562646 -0.38930035 -0.81210107 150 135 117
-0.26104274 -0.3911531 -0.81036603 141 137 115
-0.26188949 -0.3916125 -0.81048697 144 137 116
-0.26188785 -0.39225742 -0.81031764 143 137 116
-0.261747 -0.39198124 -0.81034976 143 137 115
-0.2601974 -0.39041618 -0.81031811 138 136 115
-0.2597931 -0.39213544 -0.80975264 136 137 114
-0.26315805 -0.39043254 -0.81110984 147 136 116
-0.26236212 -0.38988551 -0.81103361 144 136 116
-0.26258633 -0.3898378 -0.81110203 145 136 117
-0.26174563 -0.39003077 -0.8108421 143 136 116
-0.26342925 -0.39100039 -0.81104708 148 137 117
-0.25599787 -0.3911863 -0.80908668 131 134 116
-0.25679356 -0.39142394 -0.80921876 132 134 116
-0.25664687 -0.38959619 -0.80971164 131 134 116
-0.25719792 -0.3912808 -0.80936158 133 135 116
-0.2585192 -0.39162427 -0.80959302 134 136 115
-0.25742686 -0.39133218 -0.80940402 133 135 116
-0.25944459 -0.39030325 -0.81015319 136 136 115
-0.25734982 -0.38967311 -0.80985177 133 135 116
-0.25935423 -0.39095426 -0.80996263 135 136 114
-0.25665399 -0.38920221 -0.80982023 131 134 116
-0.25973454 -0.39042306 -0.81018645 136 136 114
-0.26598951 -0.39343199 -0.81142658 160 135 119
-0.26557845 -0.39322177 -0.81131363 158 135 118
-0.25989097 -0.39445478 -0.80917424 139 137 114
-0.26154613 -0.39588469 -0.80939823 148 138 115
-0.26026237 -0.39416984 -0.80939084 140 137 114
-0.26108018 -0.39401376 -0.80971962 142 138 115
-0.26092428 -0.39473057 -0.80947864 143 138 114
-0.26324785 -0.39270359 -0.81059706 149 138 117
-0.26203081 -0.39315158 -0.81016421 145 138 115
-0.26225469 -0.39445472 -0.80997777 148 138 115
-0.25849622 -0.39337748 -0.80909675 135 136 115
-0.25875217 -0.39275762 -0.80932695 134 136 114
-0.2725668 -0.3336677 -0.82574075 149 136 116
-0.27299136 -0.33217463 -0.82589543 147 136 116
-0.27218577 -0.33366823 -0.82584161 147 136 116
-0.27221316 -0.33573407 -0.82543516 153 133 118
-0.27289599 -0.33415672 -0.82556313 153 135 117
-0.27191615 -0.33403632 -0.82584631 146 136 116
-0.27224055 -0.33934173 -0.82471561 151 131 118
-0.27211177 -0.33904275 -0.82481033 151 130 118
-0.27111316 -0.34089014 -0.82464355 145 131 116
-0.27043629 -0.33940768 -0.82511151 144 133 117
-0.27093127 -0.33884344 -0.82512331 148 131 118
-0.27073517 -0.33910945 -0.82510954 147 131 118
-0.27014557 -0.33927476 -0.82520479 144 133 117
-0.2708917 -0.33820853 -0.82528651 148 130 119
0 0 0 1 0 0 0 1 0 0 0 1 0 0 0 0 0 737 1 0 0
