ply
format ascii 1.0
comment PCL generated
element vertex 725
property float x
property float y
property float z
property uchar red
property uchar green
property uchar blue
element camera 1
property float view_px
property float view_py
property float view_pz
property float x_axisx
property float x_axisy
property float x_axisz
property float y_axisx
property float y_axisy
property float y_axisz
property float z_axisx
property float z_axisy
property float z_axisz
property float focal
property float scalex
property float scaley
property float centerx
property float centery
property int viewportx
property int viewporty
property float k1
property float k2
end_header
0.0028697131 -0.51345497 -0.71148252 143 131 121
-0.0064152782 -0.51580149 -0.71133572 189 135 127
-0.0092914226 -0.51741582 -0.71138722 181 138 125
-0.0071657733 -0.51664376 -0.71155399 188 136 126
-0.0041698646 -0.51673764 -0.71214497 188 137 127
-0.0026300224 -0.51684332 -0.71235323 185 138 128
-0.0021094088 -0.5172801 -0.71260202 185 139 128
-0.004337064 -0.51730901 -0.71238166 190 137 127
-0.0025804292 -0.51505166 -0.7115612 182 137 126
-0.0034355512 -0.51487267 -0.711362 184 136 126
-0.0056707561 -0.5162006 -0.711698 191 135 127
-0.0050756847 -0.51601422 -0.71168983 189 136 127
-0.0018935441 -0.51611441 -0.71210635 182 138 127
-0.0015980351 -0.51489639 -0.7115972 180 137 126
-0.00093641446 -0.51417249 -0.71134853 177 135 125
0.00080941839 -0.51384652 -0.71139753 175 131 124
0.0016189575 -0.51757616 -0.71311784 172 129 123
0.0018304519 -0.51635307 -0.71260661 172 128 123
-0.00025696424 -0.51687562 -0.71261948 179 134 126
0.0014565996 -0.51468158 -0.71183985 173 129 124
-0.0001715566 -0.51732355 -0.71282345 179 133 126
0.0014570447 -0.51730084 -0.71298116 173 129 124
0.0037074555 -0.51722914 -0.7132622 122 131 120
0.0024505437 -0.51613742 -0.71259087 155 130 121
0.0028736978 -0.51491559 -0.71211427 142 133 120
0.0035670046 -0.51383394 -0.71173441 119 136 118
0.0031258264 -0.51577884 -0.71252364 133 133 119
-0.018230535 -0.52138144 -0.71146244 139 145 124
-0.014511724 -0.51969641 -0.71141493 164 141 127
-0.014618194 -0.52017462 -0.71162939 163 142 126
-0.016325729 -0.52079874 -0.71157795 150 145 125
-0.014170959 -0.52018851 -0.71173072 166 142 127
-0.016617708 -0.52044702 -0.71136111 148 145 125
-0.011034139 -0.51839536 -0.71148938 176 139 126
-0.011695123 -0.5186584 -0.71148401 175 140 126
-0.013653606 -0.52043808 -0.71196353 170 141 128
-0.012747492 -0.52036923 -0.71211553 173 141 127
-0.01056384 -0.52138782 -0.71283722 178 139 127
-0.012046802 -0.52002537 -0.71207625 174 140 127
-0.012489271 -0.52033734 -0.71214998 173 141 127
-0.012095857 -0.52031869 -0.71219277 174 140 127
-0.010375965 -0.52098846 -0.71269411 178 139 127
-0.011386464 -0.52014452 -0.71221101 176 140 127
-0.0066955509 -0.51884449 -0.71265227 190 137 127
-0.0089201462 -0.52144754 -0.71316856 183 138 127
-0.0092056366 -0.52122664 -0.71301079 182 138 127
-0.0092201214 -0.52098 -0.71290767 182 138 127
-0.0091540404 -0.52121753 -0.71301949 182 138 127
-0.0088494578 -0.51810175 -0.71179813 183 138 125
-0.0079423822 -0.51878202 -0.71231431 187 137 127
-0.0095600756 -0.51894867 -0.71197128 181 139 126
-0.0096094767 -0.51799822 -0.71156085 181 139 125
-0.0092836162 -0.51807255 -0.71167511 181 138 125
-0.0073089665 -0.51879376 -0.7124809 189 137 127
-0.0036455307 -0.52124459 -0.71406925 180 139 126
-0.0022156141 -0.51858407 -0.71313536 183 139 128
-0.0046119243 -0.52045774 -0.71363688 189 136 126
-0.0032186108 -0.51952517 -0.71340984 184 138 127
-0.0032459553 -0.52025735 -0.71370798 182 139 126
-0.0038515427 -0.51962626 -0.71338028 188 137 127
-0.0056390641 -0.52081382 -0.71367145 191 136 126
-0.0056122369 -0.52064949 -0.71360791 191 136 126
-0.0055006389 -0.5193013 -0.71307528 192 136 126
-0.003841653 -0.51861238 -0.71297085 188 137 127
-0.0051340805 -0.51819658 -0.71266764 191 137 127
-0.0050866394 -0.5181613 -0.71265835 191 137 127
0.0013405395 -0.51915187 -0.71375865 169 131 123
0.00093374727 -0.51929903 -0.71377158 170 132 123
0.0011906819 -0.52133566 -0.71468645 167 131 124
-0.00090517174 -0.52147275 -0.71448404 169 138 125
0.0011665553 -0.51910239 -0.71371543 169 131 123
0.00049955631 -0.52128476 -0.71457803 168 134 124
-0.00061877503 -0.51880431 -0.71339285 175 136 126
0.00033759093 -0.51771098 -0.71304142 176 132 125
-0.0017734916 -0.51865679 -0.71321326 180 139 128
-0.0013846653 -0.51856303 -0.71321476 179 138 127
-0.0014292349 -0.51916319 -0.71345705 177 139 127
-0.0006642401 -0.51923788 -0.71356654 174 137 125
0.0033594337 -0.52146322 -0.71502835 130 131 122
0.0027047521 -0.52115208 -0.7148096 147 131 122
0.002207126 -0.52134943 -0.71482438 160 129 124
0.0030488935 -0.51959562 -0.71419531 139 130 122
0.0042999238 -0.51773894 -0.7135821 107 132 119
0.0019788072 -0.52111757 -0.7146911 166 130 123
0.002111448 -0.51913357 -0.71385151 165 129 123
0.0030235196 -0.51910049 -0.7139768 140 130 121
0.0019946196 -0.52055383 -0.71444923 166 129 124
-0.020008864 -0.52261275 -0.71172076 135 143 123
-0.018522164 -0.52221978 -0.71183652 138 145 124
-0.01875939 -0.52245253 -0.71190816 137 145 124
-0.017714681 -0.52302551 -0.71235043 143 145 125
-0.017668759 -0.52173179 -0.7117545 140 146 124
-0.018953444 -0.52404195 -0.71263325 139 144 124
-0.018236902 -0.52349138 -0.71248704 141 144 124
-0.018945102 -0.52296299 -0.71213162 137 145 124
-0.020040341 -0.52475518 -0.71279818 136 142 125
-0.014205996 -0.52427751 -0.7135278 168 140 127
-0.015490929 -0.52332985 -0.71295244 160 142 127
-0.015411439 -0.52362937 -0.71308553 161 142 127
-0.014106758 -0.52475977 -0.71373767 169 140 127
-0.014635842 -0.52336377 -0.71309406 165 141 127
-0.01593646 -0.52485007 -0.71350068 158 141 126
-0.01730103 -0.52240634 -0.71214134 144 145 124
-0.015369209 -0.5216493 -0.71219659 157 144 126
-0.014349159 -0.52164137 -0.7124083 165 142 127
-0.015553934 -0.52324468 -0.71290112 160 142 127
-0.014968581 -0.52204317 -0.71246475 161 143 127
-0.016022068 -0.52336866 -0.71286005 156 142 126
-0.010140541 -0.52409226 -0.71407181 172 142 127
-0.010781987 -0.5243597 -0.71408325 172 141 127
-0.013121428 -0.52520818 -0.71406889 172 139 127
-0.012855019 -0.52464265 -0.71386296 173 139 127
-0.013012499 -0.52511704 -0.71404666 172 140 127
-0.013325405 -0.52374095 -0.71343523 172 140 127
-0.010225342 -0.52168441 -0.71300197 179 139 127
-0.010049695 -0.52156663 -0.71297693 180 138 127
-0.013172011 -0.52355659 -0.7133804 172 140 127
-0.011059579 -0.52179116 -0.71293795 177 139 128
-0.0060059922 -0.52178174 -0.71400684 190 136 126
-0.0079515427 -0.52477586 -0.71480435 179 139 128
-0.006167369 -0.52396339 -0.71481806 190 134 128
-0.0084598996 -0.52418888 -0.71448493 175 141 127
-0.0074337106 -0.52346033 -0.71439219 182 138 127
-0.0080826376 -0.52234113 -0.71376389 182 138 127
-0.0088493209 -0.52216327 -0.71350086 181 139 127
-0.0094412398 -0.52307063 -0.71376014 176 140 127
-0.0071152654 -0.52233475 -0.71399355 185 138 126
-0.008553884 -0.52244908 -0.71369839 181 139 127
-0.0076060523 -0.52299374 -0.71416724 182 138 127
-0.0050683534 -0.52274144 -0.71451283 187 136 126
-0.0053758901 -0.52267021 -0.71444285 189 135 126
-0.0031692588 -0.52386063 -0.7152065 175 139 126
-0.0058046421 -0.52302539 -0.71452057 191 134 127
-0.0032375485 -0.52372754 -0.71514577 175 139 126
-0.0030714395 -0.52265239 -0.71474099 174 140 125
-0.0032469532 -0.52160072 -0.71426332 177 140 126
-0.0051876456 -0.52173179 -0.71410233 187 137 125
-0.00076610525 -0.52290052 -0.71511877 167 138 125
-8.4272353e-05 -0.52274317 -0.71513307 167 137 125
-0.00012588972 -0.52232313 -0.71494514 168 136 125
0.0014648971 -0.52151608 -0.71479851 167 131 124
-0.00024953461 -0.52159643 -0.71461809 168 137 125
0.0030155568 -0.52198839 -0.71520251 139 131 123
-0.022487294 -0.5278939 -0.71378648 141 138 126
-0.02292918 -0.52928424 -0.71432012 148 135 127
-0.021535991 -0.52707899 -0.71362752 144 137 127
-0.022717932 -0.52746791 -0.71354169 136 139 125
-0.019710993 -0.52923113 -0.71492177 168 134 129
-0.018184379 -0.5270167 -0.71413779 158 139 127
-0.020187907 -0.52919233 -0.71482086 166 134 128
-0.017707707 -0.52876788 -0.7150476 172 137 127
-0.018239334 -0.52688569 -0.71406645 157 139 127
-0.018883556 -0.52852422 -0.71472985 166 136 127
-0.01984001 -0.52796137 -0.71429902 158 136 127
-0.019430818 -0.52623791 -0.71357328 147 140 126
-0.019971037 -0.5263359 -0.71353459 145 139 126
-0.020907305 -0.52690262 -0.71364778 145 138 126
-0.019798789 -0.52744776 -0.71406639 155 137 127
-0.020970916 -0.52636945 -0.71339571 141 139 126
-0.020998603 -0.52822047 -0.71423262 156 135 128
-0.015654832 -0.52748978 -0.71481282 166 138 126
-0.017038213 -0.52684838 -0.71426016 159 140 126
-0.01448228 -0.52792168 -0.7152285 170 137 127
-0.016667703 -0.52683973 -0.71432287 160 139 126
-0.017216694 -0.52845621 -0.71498781 171 137 127
-0.016722547 -0.52721941 -0.71449244 163 139 126
-0.015302444 -0.52650499 -0.71440089 161 140 126
-0.015070168 -0.52558088 -0.71394897 163 140 126
-0.016280774 -0.52565867 -0.71380889 156 141 126
-0.015513767 -0.52642816 -0.71432883 159 140 126
-0.01082991 -0.52650213 -0.71513098 167 142 127
-0.012159424 -0.52697963 -0.71515423 168 140 127
-0.012355153 -0.52578342 -0.71449065 170 140 127
-0.0099747255 -0.52594477 -0.71497703 167 143 127
-0.0078097102 -0.52552778 -0.71513385 180 137 129
-0.023747768 -0.53107673 -0.71502972 148 137 126
-0.023572136 -0.53110492 -0.71507758 149 136 127
-0.024328487 -0.53034288 -0.7145322 139 138 126
-0.024747811 -0.53155029 -0.71509308 143 137 125
-0.023691475 -0.53140676 -0.71521509 150 136 127
-0.021563904 -0.53054845 -0.71516776 162 135 129
-0.02238702 -0.52992052 -0.71471471 154 136 128
-0.019575607 -0.52939546 -0.7150203 169 135 128
-0.019877078 -0.52989149 -0.71518147 168 135 128
-0.0097791422 -0.50970811 -0.70771939 141 142 119
-0.0086192284 -0.50921488 -0.70769763 144 141 120
-0.0084834313 -0.50943893 -0.70783013 146 141 120
-0.005874577 -0.50844479 -0.70783979 155 139 122
-0.0088520469 -0.50882596 -0.70748019 144 140 120
-0.0091358051 -0.50924373 -0.70762002 143 141 119
-0.0050439243 -0.508533 -0.70809013 149 141 120
-0.0055960254 -0.50745958 -0.70743734 147 138 120
-0.0032771383 -0.50950974 -0.7089901 163 136 123
-0.0032045185 -0.50840479 -0.70848423 148 139 119
-0.0052244943 -0.50918239 -0.70835477 155 140 121
-0.0034496798 -0.50884461 -0.70863229 153 139 121
-0.0022189976 -0.50972432 -0.70935273 168 135 123
0.0010844495 -0.50870466 -0.70932329 143 137 120
0.0012964201 -0.50965995 -0.70970857 140 138 118
0.0017485019 -0.50780672 -0.70904374 139 136 120
0.00074497168 -0.50953662 -0.70960867 145 137 119
0.0013985666 -0.50688213 -0.70865685 143 135 122
0.0013100612 -0.5091415 -0.70951182 140 137 119
-0.0015018499 -0.5072965 -0.70835209 138 138 118
-2.0718086e-05 -0.50723863 -0.70860261 146 135 122
-0.0013657734 -0.50817025 -0.70879179 151 136 121
-0.00098979392 -0.50780195 -0.70868772 148 136 121
-0.001736038 -0.50878567 -0.70901406 157 136 121
-0.0012113053 -0.50845087 -0.7089538 155 135 122
-0.017581355 -0.51261628 -0.70754802 149 138 123
-0.015014711 -0.51234567 -0.70791829 153 137 123
-0.014422376 -0.51195073 -0.70784384 153 137 123
-0.013849562 -0.51342386 -0.70862228 157 138 123
-0.014340267 -0.51305389 -0.70836437 156 137 123
-0.015130882 -0.51312774 -0.70825589 155 137 123
-0.017480072 -0.51319355 -0.70785093 152 137 123
-0.017494924 -0.51294857 -0.70772809 151 137 123
-0.012907749 -0.51178938 -0.70805633 152 138 123
-0.01364574 -0.51354676 -0.7087158 157 138 123
-0.012924714 -0.51137906 -0.70786482 151 138 122
-0.011575612 -0.51088095 -0.70790285 147 139 121
-0.013021727 -0.512824 -0.70850772 154 138 122
-0.0097803194 -0.51281089 -0.70913208 160 140 124
-0.011115763 -0.51265734 -0.70880264 156 139 123
-0.0099895541 -0.51241499 -0.708911 157 140 123
-0.011972327 -0.5126788 -0.70864588 155 139 122
-0.012234958 -0.51272237 -0.70861477 155 139 122
-0.010227841 -0.5118112 -0.70858973 152 140 122
-0.0078897681 -0.51285928 -0.7095471 170 138 125
-0.0073989118 -0.5125224 -0.7094909 171 138 125
-0.0081083346 -0.51307881 -0.70960647 171 138 126
-0.0075877281 -0.51345891 -0.70991123 176 137 127
-0.0073400205 -0.51265323 -0.7095688 172 138 125
-0.0065910276 -0.51174194 -0.70928681 170 139 125
-0.0081402687 -0.51086944 -0.70855308 156 140 122
-0.0097310394 -0.50985342 -0.70779431 141 142 119
-0.0067296457 -0.50997156 -0.70840663 158 141 123
-0.0097294087 -0.51050276 -0.70809036 146 141 121
-0.0094549796 -0.51034427 -0.70806926 146 141 120
-0.0073466003 -0.51029378 -0.70843858 157 140 123
-0.0042522317 -0.51320231 -0.7104646 183 135 127
-0.0023974888 -0.51191682 -0.71023434 175 136 125
-0.0028835232 -0.51189709 -0.71015126 177 135 126
-0.004271186 -0.51247376 -0.71016866 181 135 126
-0.0026284559 -0.51276881 -0.71054137 178 136 126
-0.0022328331 -0.51040483 -0.70965171 171 134 124
-0.0034816852 -0.51040381 -0.70937628 170 135 124
-0.0048217434 -0.5115115 -0.70959318 175 136 125
-0.0032622251 -0.51097691 -0.70971358 174 134 125
-0.0056152856 -0.51024789 -0.7087732 165 139 124
-0.0055875853 -0.51017863 -0.70874584 165 139 123
-0.0034202714 -0.51118749 -0.70977861 175 134 126
0.0011180658 -0.51355755 -0.71130782 173 130 124
0.001819193 -0.51254708 -0.71096474 161 132 122
0.0015517344 -0.51201284 -0.71070999 156 134 121
0.00076261722 -0.51142997 -0.71037573 152 137 120
0.0015381561 -0.51201749 -0.71071047 156 134 121
0.0018730595 -0.51185858 -0.71068168 154 133 120
0.0004587931 -0.51007879 -0.7097947 148 137 120
0.00024994079 -0.51121569 -0.71023202 153 138 120
0.0014065152 -0.50981838 -0.70978069 139 138 118
-0.0012344227 -0.51234543 -0.71054423 169 137 124
9.1314636e-05 -0.51019037 -0.70980442 152 137 120
0.00084607193 -0.5106957 -0.71007991 146 138 119
0.0021685911 -0.51019335 -0.71002054 132 138 117
-0.022710528 -0.5174216 -0.70866364 137 140 125
-0.021822104 -0.51705039 -0.70872426 141 140 125
-0.022561096 -0.51708388 -0.70853734 139 140 125
-0.022623157 -0.51497686 -0.70748103 147 138 124
-0.021440718 -0.51427901 -0.70745313 155 138 124
-0.020378247 -0.51446939 -0.70779908 154 137 124
-0.018195521 -0.51372814 -0.70794702 154 138 122
-0.019263582 -0.51437551 -0.70801574 152 138 123
-0.019889621 -0.51402789 -0.7076956 155 137 123
-0.017958043 -0.51451468 -0.7083804 151 138 124
-0.018120287 -0.51495296 -0.70855182 151 139 124
-0.017987387 -0.51680255 -0.70944619 149 140 126
-0.018167133 -0.51486784 -0.70850217 150 138 123
-0.018939998 -0.51645869 -0.70908606 147 140 125
-0.019841991 -0.51695043 -0.70912802 144 140 125
-0.013993071 -0.51597255 -0.70976472 165 138 125
-0.014301753 -0.51517093 -0.70934671 159 139 124
-0.015373652 -0.5156219 -0.70937234 155 139 125
-0.015078301 -0.51646119 -0.70980543 161 139 126
-0.014442638 -0.51568389 -0.70955724 161 138 125
-0.015093441 -0.51702964 -0.71006244 163 139 127
-0.014544208 -0.51386809 -0.70870292 156 138 123
-0.01673496 -0.51454794 -0.7086271 153 138 123
-0.016812686 -0.51623493 -0.70940351 151 140 126
-0.016019689 -0.51383299 -0.70842087 155 138 123
-0.015455502 -0.51381171 -0.70851249 155 138 123
-0.015822725 -0.51575327 -0.70935601 153 139 125
-0.010446665 -0.51713526 -0.71100128 177 138 125
-0.010302774 -0.51435214 -0.70973462 167 139 125
-0.011100235 -0.51596862 -0.71032524 171 139 126
-0.012401315 -0.51743799 -0.71074504 175 138 127
-0.013158767 -0.5173828 -0.71056539 174 138 127
-0.013194288 -0.51731968 -0.71052873 173 139 127
-0.012047748 -0.51403666 -0.70925015 162 138 124
-0.010794584 -0.51422721 -0.70958072 165 139 125
-0.012662132 -0.51378423 -0.70901549 160 138 123
-0.011787034 -0.51472831 -0.70961672 165 139 125
-0.013642678 -0.51664591 -0.710132 170 138 126
-0.011388963 -0.51440632 -0.70954704 165 139 125
-0.0081067039 -0.51563686 -0.71084648 180 137 126
-0.0068413857 -0.51585418 -0.71125621 187 136 127
-0.0097448165 -0.51465583 -0.70999026 168 139 125
-0.0097135417 -0.5175004 -0.71132237 180 138 125
-0.009718623 -0.51723355 -0.7111969 179 138 125
-0.0087889601 -0.51456201 -0.71017963 173 138 125
-0.0059124385 -0.51472729 -0.71092761 188 135 128
-0.0089469608 -0.51398849 -0.70987141 170 138 125
-0.0049343472 -0.51502085 -0.71122193 187 135 127
-0.0055436948 -0.51517767 -0.71121335 189 135 128
-0.0037322948 -0.5139991 -0.71088129 183 136 127
-0.0017193432 -0.51399994 -0.71118307 179 137 125
-0.022462975 -0.51923174 -0.70959586 139 140 125
-0.021879975 -0.51845461 -0.7093786 139 141 125
-0.022562243 -0.51996154 -0.70989323 138 139 124
-0.022281529 -0.51996952 -0.7099551 138 140 124
-0.021798993 -0.51843792 -0.70938814 138 141 124
-0.022129744 -0.51886076 -0.70950359 139 140 125
-0.022774646 -0.51826966 -0.70907152 138 140 125
-0.022142448 -0.51793844 -0.70907897 138 141 125
-0.024663083 -0.51967686 -0.70925927 137 138 125
-0.022102602 -0.5181334 -0.70918804 139 141 125
-0.023754023 -0.51956809 -0.70945495 139 139 125
-0.020529483 -0.52146947 -0.71098882 137 142 124
-0.018343754 -0.52031153 -0.7109524 142 144 124
-0.01845273 -0.51961154 -0.71061385 143 143 125
-0.018219471 -0.51980162 -0.71075106 144 143 125
-0.017610984 -0.51994282 -0.71094966 144 145 125
-0.018307898 -0.51874542 -0.71025705 146 141 126
-0.02117387 -0.51944089 -0.70995551 138 141 124
-0.020612244 -0.52006274 -0.71034378 139 141 124
-0.020274116 -0.51923704 -0.71005464 141 141 125
-0.020676367 -0.51953751 -0.71010154 139 141 124
-0.019245528 -0.51785302 -0.70966655 145 141 126
-0.021330882 -0.52032518 -0.71030802 137 141 124
-0.014626715 -0.5194279 -0.71127069 164 141 127
-0.017197432 -0.51850104 -0.71037978 150 142 127
-0.014952302 -0.51914799 -0.71108484 163 141 127
-0.014218988 -0.51904202 -0.7111727 168 140 127
-0.014265059 -0.51901001 -0.71114981 168 140 127
-0.014332184 -0.51886106 -0.71106917 168 140 127
-0.01588643 -0.51813352 -0.71045148 159 140 127
-0.015076932 -0.51761097 -0.71033186 165 139 128
-0.013533906 -0.51847351 -0.71101844 172 140 127
-0.013015681 -0.51758087 -0.71068656 175 138 127
-0.01295261 -0.5188542 -0.71132284 172 140 127
-0.025723115 -0.52261823 -0.71040446 136 136 124
-0.02511801 -0.52154058 -0.71005672 140 136 125
-0.020347703 -0.5215919 -0.71109742 136 143 123
-0.0026477622 -0.53286022 -0.71934539 170 139 126
2.2777822e-06 -0.53251839 -0.71947825 171 134 126
-0.0012218311 -0.53319186 -0.71964383 173 136 126
0.0015681768 -0.53296316 -0.71981972 171 129 127
0.00044077449 -0.53171271 -0.71916848 170 132 126
0.0043512275 -0.53303558 -0.72021043 114 137 116
0.0050306991 -0.53267187 -0.72014767 99 139 113
0.0044599678 -0.53263289 -0.72005445 113 137 116
0.0053106989 -0.53094685 -0.71945447 96 140 114
0.0056543769 -0.53134614 -0.71966982 86 141 111
0.0035251568 -0.53096831 -0.71922362 136 134 121
0.003700675 -0.53161818 -0.71952254 133 134 121
0.0027362939 -0.53145826 -0.71932518 153 131 124
0.0072335079 -0.53129822 -0.71981961 68 139 111
0.0059363302 -0.53165287 -0.71983528 80 142 110
0.0064112693 -0.53235972 -0.72018403 73 142 109
0.0068004997 -0.53176266 -0.71997148 71 141 110
0.007223024 -0.53316277 -0.72058386 68 140 110
-0.014824659 -0.53704613 -0.7195605 170 136 124
-0.015645456 -0.53663373 -0.7192151 169 138 124
-0.010875013 -0.53546816 -0.7195698 169 137 125
-0.010884209 -0.53702778 -0.7201916 168 137 124
-0.012091531 -0.53688252 -0.71994692 169 136 124
-0.010491692 -0.53562015 -0.71968979 169 137 125
-0.010435563 -0.53644019 -0.7200262 168 137 124
-0.012048763 -0.53522027 -0.71923709 168 137 124
-0.013227623 -0.53649116 -0.71959156 169 136 124
-0.0092455568 -0.5343293 -0.71932977 168 138 125
-0.0085586868 -0.53378993 -0.71917182 166 138 125
-0.0083229458 -0.53470868 -0.71955872 165 138 125
-0.0082796533 -0.53529525 -0.71979672 164 138 124
-0.0095615471 -0.53470784 -0.71945459 169 138 126
-0.0065645589 -0.53594404 -0.72031844 164 139 124
-0.006748775 -0.53509367 -0.71990228 163 139 124
-0.0075605535 -0.53593946 -0.72017461 165 138 124
-0.0063822023 -0.53449583 -0.71968031 161 140 124
-0.009101605 -0.53673673 -0.72032088 167 138 124
-0.0076910062 -0.53706336 -0.72067136 168 137 124
-0.0029645343 -0.53668779 -0.7210269 175 137 125
-0.0034975663 -0.53607225 -0.72070682 172 138 125
-0.002508187 -0.53665423 -0.721053 176 137 125
-0.0043410752 -0.53587109 -0.72054207 170 138 125
-0.0039101243 -0.53621227 -0.72073162 172 138 125
-0.0021636526 -0.53430575 -0.72004563 174 137 126
-0.0054897624 -0.53464276 -0.71986139 163 139 124
-0.0028181237 -0.53397524 -0.71983916 172 138 126
-0.0048704119 -0.53603053 -0.72056347 169 138 125
-0.0052094571 -0.53633821 -0.72066855 168 138 125
-0.0053942227 -0.53372401 -0.71945029 161 140 124
-0.0037397514 -0.53405195 -0.71977645 168 139 125
-0.0014159926 -0.5369432 -0.72129983 176 135 125
0.00093094865 -0.53516304 -0.72076768 170 132 126
0.0015554798 -0.53481913 -0.7206893 169 131 126
0.00085529359 -0.53601146 -0.72117001 169 133 126
-0.00055867271 -0.5370456 -0.72147197 172 135 125
0.00032685802 -0.53510147 -0.72065151 173 132 126
-0.00018912705 -0.53514028 -0.72060603 174 132 126
0.00039152568 -0.53356171 -0.71996492 172 132 126
0.00017933268 -0.53461057 -0.72040784 173 132 126
0.00018126681 -0.53349358 -0.7199142 172 133 127
-0.001773804 -0.53412622 -0.72000271 174 137 126
0.0043470766 -0.53576505 -0.72150981 109 139 116
0.0044313455 -0.53593129 -0.72159767 107 139 115
0.004667771 -0.53480983 -0.72109896 103 139 114
0.0054086628 -0.53466594 -0.72111797 85 142 110
0.0043506073 -0.53364921 -0.7204985 113 138 115
0.0036451169 -0.53404814 -0.72059798 129 135 119
0.0038148342 -0.53327703 -0.7202453 127 135 118
0.0047476012 -0.53408313 -0.72076321 102 140 113
0.0028754245 -0.53335834 -0.72015864 149 131 123
0.0034199036 -0.53460366 -0.72083825 133 136 120
0.0061470238 -0.53456116 -0.72114593 73 143 109
0.0068907002 -0.53360015 -0.72075832 70 141 110
-0.018115647 -0.53904456 -0.71992207 157 139 125
-0.019390596 -0.53800303 -0.7191506 161 140 125
-0.019434597 -0.53823441 -0.71926361 160 140 125
-0.019270983 -0.53796345 -0.71915811 162 140 125
-0.017226009 -0.53873134 -0.71992946 160 139 125
-0.015589814 -0.53721029 -0.71950471 169 137 124
-0.016989306 -0.5375129 -0.71940118 168 139 125
-0.015015468 -0.53728849 -0.71964175 168 137 124
-0.014825439 -0.53883606 -0.72042084 158 138 124
-0.014296646 -0.53813165 -0.72017729 162 137 124
-0.0097755603 -0.53779197 -0.7207039 162 138 124
-0.011116858 -0.53712779 -0.72019762 168 137 124
-0.010557234 -0.53757083 -0.72050846 165 137 124
-0.013132492 -0.53872043 -0.72069228 159 137 124
-0.013582793 -0.53865266 -0.72058833 159 137 124
-0.013289769 -0.53843641 -0.72052413 160 136 124
-0.012930535 -0.53820688 -0.72046351 162 136 124
-0.0058820536 -0.53815168 -0.72139198 160 138 125
-0.0089842109 -0.53804904 -0.72093195 160 138 124
-0.0068974951 -0.53789556 -0.72115976 161 138 125
-0.0087028909 -0.537422 -0.72068936 165 138 124
-0.0078508435 -0.53724211 -0.72072953 167 138 124
-0.0023370995 -0.53892201 -0.72207844 154 136 124
-0.0020076912 -0.53885925 -0.72208911 154 136 124
-0.0023810912 -0.53741646 -0.72139573 174 136 125
-0.0054634903 -0.53742808 -0.72112364 166 138 125
-0.0048195813 -0.53932476 -0.72198498 154 137 126
-0.0039020819 -0.53715229 -0.72114718 172 137 125
-0.0047957003 -0.53763044 -0.72126943 167 137 125
-0.003898904 -0.53807145 -0.72153682 166 137 126
-0.0015764608 -0.53831905 -0.72191882 159 136 124
0.00021712214 -0.53716993 -0.72164482 168 135 125
-0.00076812017 -0.53729111 -0.72156674 170 135 125
0.0016019632 -0.53727067 -0.72189415 161 134 125
0.00074127445 -0.53716946 -0.72171932 166 135 125
-0.010471458 -0.50388765 -0.70497066 145 138 119
-0.011320204 -0.50553447 -0.70551765 145 138 121
-0.0098588504 -0.50287759 -0.70464748 145 137 119
-0.010897172 -0.50404805 -0.70497805 143 138 120
-0.010082101 -0.5037899 -0.70498359 146 137 119
-0.006596067 -0.50507843 -0.70618325 144 136 120
-0.0066305511 -0.50301051 -0.70538175 141 137 119
-0.0072412947 -0.50522274 -0.70611101 146 136 121
-0.0060919761 -0.50529844 -0.70636749 142 136 119
-0.0072040586 -0.50579578 -0.70633858 146 135 121
-0.0082218293 -0.5043326 -0.70557493 148 136 121
-0.0091123739 -0.50380754 -0.70517343 147 137 120
-0.0093922112 -0.50369197 -0.70506692 147 136 120
-0.0075214887 -0.50262469 -0.70504045 142 137 119
-0.0093494365 -0.50467509 -0.7054705 150 136 121
-0.0058438564 -0.50519568 -0.70637769 142 136 120
-0.0050348788 -0.50372338 -0.70600241 139 136 119
-0.014364039 -0.50903165 -0.70651555 145 137 123
-0.015668383 -0.50962472 -0.70649993 143 138 123
-0.010938849 -0.5087797 -0.70704758 146 138 121
-0.011836497 -0.5087465 -0.70684344 149 137 122
-0.010581729 -0.50701463 -0.70625395 152 136 122
-0.010550844 -0.50843 -0.70695668 147 138 121
-0.0098670153 -0.50858438 -0.70717573 145 139 120
-0.012082041 -0.50629604 -0.70572799 144 139 121
-0.012438545 -0.50809509 -0.7064299 149 136 123
-0.011751801 -0.50655675 -0.70588088 147 137 122
-0.013542295 -0.50811207 -0.70628917 143 138 122
-0.0077503552 -0.50686163 -0.70672393 151 137 122
-0.0081930477 -0.50693053 -0.70667559 151 137 121
-0.0096815797 -0.50772691 -0.70679069 147 139 120
-0.0095931012 -0.50855625 -0.70721513 145 139 120
-0.0096763363 -0.50852567 -0.70718467 145 140 120
-0.0068020662 -0.5067789 -0.70686978 149 137 121
-0.0066529643 -0.50644207 -0.70674276 147 136 121
-0.0061969566 -0.50667006 -0.70693886 146 137 120
-0.0050707385 -0.50615424 -0.70695883 138 138 118
-0.0057071038 -0.50747234 -0.70741564 148 138 120
-0.023490831 -0.51316619 -0.70640367 139 138 124
-0.022559514 -0.5131973 -0.70665824 147 138 124
-0.021921312 -0.51190037 -0.70623565 143 137 123
-0.022303749 -0.51223236 -0.70628726 142 138 123
-0.020439694 -0.51343471 -0.70727766 157 136 124
-0.01961804 -0.51264232 -0.70708704 153 137 124
-0.018320076 -0.51116866 -0.70667779 145 138 123
-0.019345278 -0.51272202 -0.70718867 153 137 124
-0.019867627 -0.51206082 -0.70674926 151 138 123
-0.020639604 -0.51233178 -0.70671523 152 137 124
-0.021280104 -0.51126647 -0.70610285 142 138 123
-0.020501575 -0.51201594 -0.70660019 150 137 124
-0.020651674 -0.51233947 -0.70671624 152 137 124
-0.01601414 -0.5116874 -0.70741212 150 137 124
-0.01643886 -0.51115477 -0.70707065 147 138 123
-0.016352622 -0.51043278 -0.70674014 144 138 123
-0.013977633 -0.51047534 -0.70723659 150 136 124
-0.01405295 -0.51048905 -0.70722789 150 136 124
-0.012935423 -0.50989622 -0.70717412 147 137 123
-0.027199168 -0.51377624 -0.70574802 136 138 124
-0.023067957 -0.5142591 -0.70702332 144 138 124
-0.023587253 -0.51373053 -0.70663589 141 139 124
-0.0060619563 -0.52534229 -0.71536428 191 132 130
-0.0046986667 -0.52525431 -0.71554875 184 135 128
-0.0047164257 -0.52516627 -0.71550822 184 135 128
-0.0020087855 -0.52468854 -0.71573609 163 143 124
-0.0049586962 -0.52468729 -0.71527725 187 134 129
0.0018651069 -0.52413267 -0.71594864 168 132 125
-0.00026336801 -0.52439213 -0.71581733 163 138 124
0.00089904317 -0.52450162 -0.71599454 166 135 124
0.0014424522 -0.52491498 -0.7162295 168 133 125
-0.00081753533 -0.52359009 -0.71540993 165 139 124
-0.0019036392 -0.5235604 -0.71526748 166 142 125
-0.00067244156 -0.52334642 -0.71532291 166 138 125
0.003510457 -0.52222437 -0.71536887 126 132 122
0.0042508873 -0.52190721 -0.71533626 106 133 121
0.0021555708 -0.52507585 -0.71638221 164 132 125
0.0043154932 -0.52219164 -0.71546471 104 134 120
0.0041462448 -0.52244377 -0.71554762 110 133 121
0.0046175597 -0.52499574 -0.71672803 105 136 119
0.0045693652 -0.52420199 -0.71637321 103 135 120
0.0049419738 -0.52482146 -0.71670216 96 137 118
0.0048370259 -0.52410924 -0.71637422 96 136 119
-0.016180534 -0.52915394 -0.71554267 173 136 127
-0.014201198 -0.52829599 -0.71548945 169 137 126
-0.016910473 -0.52894193 -0.71527618 174 136 127
-0.010122583 -0.52742815 -0.71578062 165 142 126
-0.012142323 -0.52889645 -0.71622068 164 139 125
-0.0098537086 -0.52648389 -0.71529269 166 143 127
-0.010031763 -0.52803016 -0.71614379 163 142 126
-0.011855927 -0.5281691 -0.71586061 165 139 126
-0.010887165 -0.52718586 -0.71548986 166 141 127
-0.012327969 -0.5280329 -0.71569568 166 139 126
-0.012431283 -0.52801001 -0.71566486 166 139 126
-0.0090316162 -0.52676988 -0.71561193 170 140 127
-0.0084656971 -0.52649581 -0.71556091 174 139 128
-0.0092880754 -0.52723581 -0.71583092 168 141 127
-0.0088780569 -0.52723336 -0.71590644 170 140 127
-0.0068006017 -0.52572453 -0.7154327 186 134 129
-0.0067327023 -0.52857846 -0.71683586 171 139 127
-0.0071679992 -0.52694863 -0.71604085 181 135 128
-0.0060062069 -0.52775949 -0.71651357 178 137 128
-0.0076789008 -0.52742165 -0.71621954 177 136 128
-0.0081724264 -0.52894199 -0.71688765 166 140 126
-0.0060648755 -0.52701485 -0.71616185 182 135 129
-0.0032988966 -0.52713728 -0.7166338 165 142 125
-0.0031434461 -0.52827615 -0.71715415 169 140 126
-0.0035819737 -0.52792066 -0.71693999 167 141 125
-0.0019547564 -0.52825832 -0.71730399 170 139 126
-0.0042418912 -0.52893955 -0.71729958 170 139 126
-0.0028466294 -0.52722293 -0.71673137 166 141 125
-0.0043986677 -0.52726001 -0.71652615 169 140 125
-0.0045449194 -0.52722365 -0.7164858 171 139 126
-0.0038219129 -0.52579248 -0.71593446 173 139 126
-0.0054845791 -0.52817971 -0.71678126 172 139 127
-0.0054140864 -0.52804178 -0.71672815 172 139 127
-0.0053133792 -0.52606452 -0.71582299 184 135 129
0.00091772759 -0.52834553 -0.71770638 170 132 126
-0.00023559644 -0.52918696 -0.71793896 171 133 126
-0.00020600506 -0.5285483 -0.71764946 171 134 126
0.0015502459 -0.52814674 -0.71769953 169 131 125
0.0013186666 -0.52612174 -0.71673805 170 132 126
-0.00037085125 -0.52888346 -0.71778136 171 134 127
-0.0003887224 -0.52736408 -0.71708846 171 135 126
-0.0003283046 -0.52704746 -0.71695632 170 135 126
-0.00031431636 -0.52706569 -0.71696591 170 135 126
0.00014034566 -0.52668637 -0.71685082 170 135 126
-0.0011097237 -0.52754807 -0.71708775 170 137 126
-0.0015911914 -0.52599126 -0.71635026 163 142 124
0.0048115626 -0.52843666 -0.71830273 107 137 117
0.0054313145 -0.52897298 -0.71862924 96 139 115
0.0034125778 -0.52856761 -0.71816337 136 133 121
0.0039375182 -0.52779293 -0.71789241 123 134 121
0.0055787545 -0.52915978 -0.71873331 93 140 114
0.0029868644 -0.52879888 -0.71820617 146 132 123
0.0055350261 -0.5254696 -0.71707976 83 139 117
0.002699181 -0.52564776 -0.71672094 152 133 124
0.0033281553 -0.52766049 -0.71774364 136 133 122
0.0019697899 -0.52582139 -0.71668738 169 132 125
0.0025523738 -0.52643555 -0.71706021 156 132 124
0.003431971 -0.52659827 -0.71727163 135 133 122
-0.025477791 -0.53259206 -0.71549815 143 137 125
-0.022800501 -0.53306639 -0.71611959 159 139 127
-0.02222646 -0.53244424 -0.71592146 161 139 127
-0.022998124 -0.53235859 -0.71578157 157 138 127
-0.023023972 -0.53164709 -0.7154634 156 136 127
-0.021151479 -0.53264928 -0.71616906 166 140 128
-0.019388795 -0.53041887 -0.71549928 171 137 128
-0.02133905 -0.53062397 -0.7152434 163 135 129
-0.018545832 -0.53024179 -0.715572 173 137 127
-0.018404476 -0.53073871 -0.7158311 174 137 127
-0.018813834 -0.5317238 -0.71620631 173 138 126
-0.018014276 -0.53253508 -0.71674526 175 137 125
-0.018316511 -0.53058869 -0.71577919 174 137 127
-0.020054368 -0.53265065 -0.71638638 170 139 127
-0.018324478 -0.5309853 -0.71596193 174 137 127
-0.014615666 -0.53212631 -0.71726143 165 138 124
-0.015578793 -0.53188157 -0.71694744 169 137 124
-0.013694479 -0.53090858 -0.71688849 162 138 124
-0.015450738 -0.532166 -0.71710598 168 137 124
-0.014195724 -0.53218138 -0.71737432 162 139 124
-0.016780293 -0.53278857 -0.71711791 173 137 124
-0.017044837 -0.53049177 -0.71599507 175 136 126
-0.014539683 -0.53001803 -0.71629953 167 137 125
-0.016852349 -0.53066498 -0.71611595 174 136 126
-0.01480276 -0.52961493 -0.716057 168 137 125
-0.017275266 -0.53267884 -0.71696371 176 136 125
-0.016921949 -0.53029472 -0.71592927 174 136 126
-0.012424227 -0.53223163 -0.71776247 160 140 124
-0.011678729 -0.53166598 -0.71765339 160 140 124
-0.011019818 -0.5330652 -0.71848959 166 138 125
-0.010505239 -0.53134286 -0.71776026 163 140 125
-0.010572213 -0.53055847 -0.71736002 161 140 125
-0.010628254 -0.53233379 -0.71821904 165 138 125
-0.012697926 -0.52970999 -0.71653122 163 138 125
-0.013543869 -0.53248674 -0.71765041 159 139 124
-0.012033708 -0.52955884 -0.71659333 163 139 124
-0.01332179 -0.53240073 -0.71765476 160 139 124
-0.013489428 -0.53100002 -0.71697187 162 138 124
-0.012883644 -0.53164214 -0.71739012 160 140 124
-0.0072119641 -0.53083038 -0.7178846 169 139 126
-0.0063731107 -0.53129798 -0.71818346 165 139 125
-0.0062037185 -0.53177226 -0.71843046 163 140 125
-0.0064618168 -0.53311741 -0.71907049 160 140 124
-0.0067380671 -0.53193665 -0.71846741 164 140 125
-0.009499508 -0.53306651 -0.71879578 169 137 126
-0.0090091899 -0.53234655 -0.71848226 170 138 126
-0.0088939117 -0.53148419 -0.71806824 167 139 126
-0.0096156234 -0.53082031 -0.71768326 165 139 126
-0.00858205 -0.53168964 -0.71819454 169 138 126
-0.0095657427 -0.53292799 -0.71872234 170 138 126
-0.0092996312 -0.52961469 -0.71711707 163 141 125
-0.0044290433 -0.53094059 -0.71821266 169 139 126
-0.0024626872 -0.53189558 -0.71890581 173 138 126
-0.0025396151 -0.53219718 -0.71904534 172 138 126
-0.0047073383 -0.53127921 -0.71834749 167 139 125
-0.004459518 -0.53109974 -0.71828747 169 139 126
-0.0046024229 -0.53037924 -0.71791697 170 139 126
-0.0026986841 -0.53034747 -0.71815139 172 138 127
-0.0024342111 -0.52953881 -0.71780902 173 137 127
-0.0039245915 -0.52983296 -0.7177487 171 138 127
-0.0031462207 -0.5313099 -0.7185412 172 138 126
-0.00072731869 -0.53066117 -0.71854079 172 134 127
-0.0011844144 -0.53073537 -0.71852165 173 135 127
0.00015829795 -0.53130627 -0.71894598 171 133 126
-0.0011953132 -0.53167045 -0.71895683 172 136 126
-0.00140776 -0.53040648 -0.71834195 173 135 127
0.0011948925 -0.53037483 -0.71864945 170 131 126
0.0012070755 -0.53037751 -0.71865231 170 131 126
0.0011624708 -0.53023404 -0.71858394 170 131 126
0.0032695574 -0.52966791 -0.71862495 140 133 121
0.0027183718 -0.53035825 -0.71884918 152 132 123
0.0040426138 -0.53059465 -0.71913469 125 135 119
0.0049190093 -0.52980518 -0.71891308 106 138 116
-0.026148848 -0.53498441 -0.71659327 144 139 125
-0.02564138 -0.53528643 -0.71683127 149 140 125
-0.025976917 -0.5352937 -0.71677703 146 139 126
-0.027322685 -0.53604239 -0.71691757 136 139 126
-0.027163409 -0.53550738 -0.71667862 137 139 126
-0.022516444 -0.53437465 -0.71679807 163 142 127
-0.02183559 -0.53474623 -0.7170521 165 142 127
-0.023651212 -0.53576142 -0.71733338 159 143 126
-0.022385642 -0.53706682 -0.71809953 163 143 126
-0.022644015 -0.53709286 -0.7180829 163 143 126
-0.022490237 -0.53615689 -0.71765286 163 142 126
-0.024946861 -0.53522998 -0.71690518 153 140 125
-0.025336208 -0.53520316 -0.71684021 151 140 125
-0.023167755 -0.53326857 -0.71616387 158 139 127
-0.024724653 -0.53477907 -0.71671003 153 140 125
-0.024203319 -0.53337789 -0.71608126 153 138 126
-0.025097648 -0.53558397 -0.7170614 153 141 125
-0.017935209 -0.53513449 -0.71803528 173 138 125
-0.017759427 -0.53421223 -0.7176109 174 137 124
-0.017986927 -0.53655833 -0.71874052 171 139 125
-0.018039849 -0.53383416 -0.71735656 174 138 125
-0.020163197 -0.53591383 -0.71792006 169 141 126
-0.019251926 -0.53498989 -0.71766245 172 139 126
-0.0213519 -0.53369904 -0.71661782 166 141 128
-0.019900348 -0.53434515 -0.71722025 170 140 126
-0.019126326 -0.53383487 -0.71713287 172 138 126
-0.019894715 -0.53325725 -0.71670139 170 139 126
-0.020659789 -0.53544766 -0.71759361 168 141 126
-0.020713935 -0.53410989 -0.71694326 168 140 127
-0.016820032 -0.53670394 -0.71904951 169 139 124
-0.013733889 -0.53399372 -0.71831065 160 139 123
-0.014123162 -0.53507924 -0.71874607 163 139 123
-0.014830382 -0.53545302 -0.71880156 165 138 124
-0.016045405 -0.53329021 -0.71750689 169 138 124
-0.017167868 -0.53641605 -0.71884739 170 139 124
-0.015822345 -0.53526545 -0.71854806 165 139 124
-0.01755826 -0.53703707 -0.7190789 171 139 124
-0.01543764 -0.53409958 -0.718041 165 139 124
-0.016685903 -0.53325015 -0.71735346 172 137 124
-0.013346087 -0.53410143 -0.71843994 161 139 124
-0.013588357 -0.53337586 -0.71805441 159 139 123
-0.011269622 -0.53393698 -0.71880704 166 138 125
-0.0098508103 -0.53375316 -0.71903813 169 137 126
-0.012655063 -0.5333581 -0.71824813 161 139 124
-0.0093389079 -0.53338295 -0.71894699 169 138 126
-0.02442888 -0.53763235 -0.71815163 152 143 125
-0.022264529 -0.5379318 -0.71855038 157 142 126
-0.024610285 -0.53714144 -0.71788621 157 143 125
-0.022010287 -0.53771067 -0.71846688 159 143 126
-0.019735517 -0.53721935 -0.71867448 167 141 125
-0.021450296 -0.53761774 -0.71848655 162 142 126
-0.018778464 -0.53758669 -0.71907824 166 140 125
0 0 0 1 0 0 0 1 0 0 0 1 0 0 0 0 0 725 1 0 0
