ply
format ascii 1.0
comment PCL generated
element vertex 848
property float x
property float y
property float z
property uchar red
property uchar green
property uchar blue
element camera 1
property float view_px
property float view_py
property float view_pz
property float x_axisx
property float x_axisy
property float x_axisz
property float y_axisx
property float y_axisy
property float y_axisz
property float z_axisx
property float z_axisy
property float z_axisz
property float focal
property float scalex
property float scaley
property float centerx
property float centery
property int viewportx
property int viewporty
property float k1
property float k2
end_header
0.10421731 0.16764289 -0.78932548 20 133 118
0.1042051 0.16781873 -0.78938121 20 133 118
0.10455099 0.1659968 -0.7889421 21 133 117
0.11396743 0.19262846 -0.80653828 34 134 125
0.11510425 0.19089587 -0.80691075 31 133 126
0.11482088 0.19032076 -0.80640358 31 133 126
0.11484539 0.19018227 -0.80637008 31 133 126
0.11399097 0.19200069 -0.80630249 34 134 125
0.11432855 0.18964911 -0.80566633 29 134 126
0.11321551 0.19115977 -0.80522418 33 133 126
0.11581942 0.19145148 -0.80792761 31 133 126
0.11679348 0.18970887 -0.8081997 27 134 126
0.11718017 0.19008087 -0.80876982 27 134 126
0.11651313 0.18987137 -0.80797416 27 134 126
0.11636307 0.19184628 -0.8086735 31 135 125
0.11533494 0.19140132 -0.80736053 32 133 126
0.11544404 0.19178967 -0.80764782 32 133 125
0.11513216 0.18705556 -0.8053664 26 133 126
0.11468243 0.1882453 -0.80542815 27 134 126
0.11553676 0.18917942 -0.80664921 27 134 126
0.11604737 0.18943542 -0.80729318 27 134 126
0.1167931 0.18880779 -0.80782479 26 134 126
0.11536406 0.18889733 -0.8063516 27 134 126
0.11548353 0.18772243 -0.80599821 26 134 126
0.11693465 0.18743619 -0.80739784 23 133 125
0.11696459 0.18825275 -0.8077752 25 134 126
0.11588881 0.18644097 -0.80589396 23 133 125
0.11667725 0.18613467 -0.80657947 21 133 125
0.11692335 0.18653898 -0.80700552 21 133 125
0.11611627 0.18581168 -0.80586642 21 133 125
0.13530275 0.14081156 -0.80676854 27 133 122
0.13813274 0.13769707 -0.80886006 37 134 123
0.13793929 0.13495402 -0.80747545 38 133 122
0.13735959 0.13534462 -0.80684674 37 134 122
0.13817224 0.137336 -0.80876589 38 134 123
0.13731971 0.13491483 -0.80661678 37 134 122
0.13738564 0.13472904 -0.80662304 37 134 122
0.13796152 0.13466778 -0.80736881 38 133 122
0.12299829 0.19524825 -0.81822997 36 135 128
0.12241253 0.19548833 -0.81756639 36 135 128
0.12212771 0.19508067 -0.81704426 35 135 127
0.12211236 0.1949978 -0.81699401 35 134 128
0.12423743 0.19419019 -0.82007837 35 134 128
0.12385337 0.19358067 -0.8191089 33 134 127
0.12368023 0.19436909 -0.81915689 34 135 127
0.12464617 0.1934128 -0.8204596 34 134 128
0.12422131 0.19310004 -0.81950939 33 134 128
0.12372696 0.19041358 -0.81687915 26 134 127
0.12405346 0.19163893 -0.81826049 30 133 127
0.12408273 0.1927505 -0.81903917 32 134 127
0.12429269 0.19264343 -0.81934237 32 134 127
0.1243886 0.1929998 -0.81974578 33 134 128
0.12504591 0.18952847 -0.81859446 26 134 127
0.12524655 0.18984395 -0.81915027 26 134 127
0.12488572 0.18953349 -0.81832117 26 134 127
0.12441235 0.19092385 -0.81842637 28 134 127
0.12454506 0.18972224 -0.81785816 26 134 127
0.12471125 0.19258189 -0.82004273 33 134 127
0.12676582 0.18830073 -0.82047158 26 134 127
0.12645675 0.18627775 -0.81845665 23 135 126
0.12657385 0.18744777 -0.81949991 25 133 127
0.12607865 0.1870534 -0.81859118 23 135 126
0.12501617 0.18839239 -0.81777799 25 133 127
0.1254545 0.18830052 -0.81847292 25 133 127
0.12516442 0.18907611 -0.81849492 25 134 127
0.12596476 0.18892244 -0.81977332 25 134 127
0.12513517 0.18890618 -0.81832987 25 133 127
0.12550969 0.18900172 -0.81904101 25 134 127
0.12724674 0.18696329 -0.82021129 27 134 127
0.12764625 0.18619321 -0.82033032 27 132 127
0.12735033 0.186177 -0.81976199 27 133 127
0.12570323 0.18529092 -0.81683344 21 133 127
0.12594005 0.18524809 -0.81709957 21 135 125
0.12672192 0.18303962 -0.81684911 21 133 127
0.12702626 0.18448183 -0.81805664 23 135 126
0.12705533 0.1853393 -0.81857949 25 133 127
0.12707339 0.1854589 -0.81867868 25 133 127
0.12740263 0.18356514 -0.81826103 26 133 127
0.12823801 0.1828631 -0.8192544 27 133 127
0.1284048 0.18442869 -0.82048011 29 134 127
0.12909193 0.18268904 -0.82055235 28 135 128
0.1279819 0.18336236 -0.8191368 27 133 127
0.12785564 0.18181697 -0.81799001 26 133 127
0.12818283 0.18375501 -0.81970578 27 132 127
0.13017219 0.18022205 -0.82068533 27 134 127
0.12947503 0.18087995 -0.82012951 27 135 128
0.13037588 0.17820837 -0.81974924 20 133 124
0.12913215 0.17853606 -0.81830102 21 133 127
0.1296739 0.17809997 -0.81875956 20 133 124
0.13026038 0.178046 -0.81950152 20 133 124
0.12754339 0.1812003 -0.81715578 23 133 127
0.12829192 0.17879194 -0.81721687 21 132 127
0.12775394 0.18056212 -0.81719202 23 133 127
0.12801524 0.17989936 -0.81729978 23 133 127
0.12801687 0.1803671 -0.81752956 23 133 127
0.12987255 0.17581806 -0.81806368 18 132 125
0.1292287 0.17584817 -0.81721395 18 132 125
0.13100794 0.1767386 -0.82011062 20 133 124
0.1361347 0.15461208 -0.81731302 27 132 124
0.13729301 0.15433943 -0.82006955 27 134 124
0.13630535 0.1573047 -0.81986511 27 132 124
0.1365969 0.15561676 -0.8192873 27 134 124
0.13645811 0.15765683 -0.82053345 27 134 124
0.13618115 0.1553406 -0.81800419 27 132 124
0.13624689 0.15747845 -0.81983805 27 132 124
0.13616192 0.15712246 -0.81932533 27 132 124
0.13610992 0.15553038 -0.81796414 27 132 124
0.13598101 0.15787663 -0.81938618 27 133 124
0.13822629 0.15249008 -0.82066101 27 135 124
0.13796557 0.15130611 -0.81913888 27 134 123
0.13756004 0.15102278 -0.81808215 27 134 123
0.13805389 0.15086536 -0.81896466 27 134 123
0.13763127 0.15285224 -0.81970012 27 134 124
0.13751267 0.15200531 -0.81877619 27 134 123
0.13715234 0.15356258 -0.81912088 27 134 123
0.13638681 0.15317945 -0.81686825 27 133 123
0.13630944 0.15423693 -0.81746835 27 134 123
0.13707778 0.15391687 -0.81919718 27 134 123
0.13726477 0.15374134 -0.8195442 27 134 123
0.13738833 0.15268672 -0.8190648 27 134 123
0.13869177 0.15099859 -0.82044065 27 135 124
0.13821094 0.14858574 -0.81715423 27 134 124
0.13827839 0.14982034 -0.8184886 27 134 124
0.13839006 0.14923155 -0.81814617 27 134 124
0.1383553 0.15012573 -0.81894171 27 134 124
0.1386994 0.14932199 -0.81889993 27 135 124
0.13887061 0.14935115 -0.81948894 28 135 124
0.13910143 0.14729767 -0.81832564 29 136 123
0.13983025 0.14687264 -0.82061416 36 133 124
0.13920882 0.14902236 -0.8203972 30 136 123
0.13902009 0.14700565 -0.81774086 28 136 123
0.14030096 0.14363347 -0.8195796 38 135 124
0.13997619 0.14570987 -0.82012081 37 133 124
0.14004973 0.14268568 -0.81782639 40 134 124
0.14009562 0.14546433 -0.82036239 37 134 124
0.14010648 0.14560159 -0.82051998 37 134 124
0.13986811 0.1462038 -0.82013834 36 134 124
0.13976179 0.14394346 -0.81781632 38 134 124
0.13954222 0.14488471 -0.81780547 35 134 124
0.13974151 0.14470421 -0.81839013 36 134 124
0.14071305 0.14246212 -0.82014245 40 134 124
0.14034857 0.14247902 -0.81878185 40 134 124
0.14068006 0.14255509 -0.82009292 40 134 124
0.14007601 0.14193228 -0.81731415 40 134 124
0.13220339 0.19096106 -0.83706599 34 139 127
0.1321687 0.19080743 -0.8366285 33 140 127
0.13367282 0.18588907 -0.83678341 32 137 127
0.13323122 0.1872676 -0.83686125 34 137 127
0.13461564 0.18197481 -0.83700365 27 135 123
0.13430275 0.18320371 -0.83742541 32 136 124
0.13430813 0.18305685 -0.83672392 27 137 124
0.13444567 0.18242408 -0.83666134 27 135 124
0.13504656 0.18227519 -0.8398726 33 136 124
0.13477999 0.18304071 -0.83973879 34 135 125
0.13490672 0.18161143 -0.83788246 27 135 123
0.13508792 0.17912655 -0.83655185 32 133 126
0.13503267 0.18004332 -0.83710366 30 133 125
0.13510488 0.17977992 -0.83727127 32 133 125
0.13521771 0.18126617 -0.83933765 32 136 124
0.13614106 0.17420921 -0.83908874 38 138 124
0.13611482 0.17421259 -0.83851177 36 137 125
0.13600451 0.17451967 -0.83740735 35 135 125
0.13603562 0.17423511 -0.83682513 33 136 125
0.13548744 0.17675264 -0.83640605 34 133 126
0.13583098 0.17536113 -0.83738673 36 135 125
0.13667564 0.17142947 -0.83743095 38 137 125
0.1364581 0.17225176 -0.83663577 33 138 125
0.13621086 0.17359205 -0.83776271 33 138 124
0.13647686 0.17231692 -0.83738565 36 137 125
0.13627905 0.17348139 -0.83874822 36 138 124
0.13706358 0.16938281 -0.83638966 38 136 127
0.10893794 0.18961221 -0.80092859 32 133 126
0.10723189 0.18661714 -0.79845023 27 131 126
0.10627344 0.18722546 -0.79802406 30 132 125
0.10624335 0.18806484 -0.79832232 33 132 125
0.10681316 0.1858111 -0.79785311 26 133 125
0.10717153 0.18559657 -0.79801899 25 131 126
0.10880728 0.18846899 -0.80032599 30 132 125
0.1087874 0.18859304 -0.80036527 30 132 125
0.11075345 0.18631457 -0.80092162 26 133 125
0.11034936 0.18718632 -0.80098641 27 132 125
0.10795268 0.18882288 -0.79980785 31 132 125
0.1099302 0.18650338 -0.80037707 26 133 125
0.10832786 0.18720262 -0.79946744 27 132 125
0.11027435 0.18585533 -0.80038327 25 133 124
0.10905297 0.18771116 -0.80019248 29 132 125
0.10946987 0.18687892 -0.8001821 27 132 125
0.11040203 0.18592153 -0.80050206 25 133 124
0.10730276 0.18513615 -0.79793501 24 131 125
0.10831718 0.1845528 -0.79848593 24 131 126
0.10808437 0.18492924 -0.79844791 24 131 126
0.1086872 0.18534681 -0.79903334 24 131 125
0.11129051 0.18504407 -0.80083895 24 133 124
0.10957453 0.1849713 -0.79955536 24 131 125
0.11002135 0.18515682 -0.79994673 24 133 124
0.11891541 0.19621484 -0.81330425 34 133 126
0.11858293 0.19649784 -0.81305194 34 134 125
0.11995457 0.19636634 -0.81468081 36 135 126
0.12022949 0.196173 -0.81495029 36 135 126
0.11955042 0.19597332 -0.81398308 34 134 126
0.12009087 0.19497012 -0.81426233 33 134 126
0.11948967 0.19367801 -0.81292701 30 133 127
0.12170363 0.19562009 -0.8167063 36 134 128
0.12097399 0.19443907 -0.81524086 33 134 127
0.12090571 0.19514281 -0.81543207 35 134 128
0.11981884 0.19384994 -0.81343716 31 133 126
0.1204793 0.19470148 -0.81467599 33 134 127
0.1210415 0.19350222 -0.81495464 30 135 127
0.11964311 0.19342659 -0.81302822 30 133 127
0.12207635 0.19224553 -0.81578428 28 135 127
0.1218588 0.1911532 -0.8149482 27 134 127
0.12218336 0.18992803 -0.81464064 24 135 127
0.12207292 0.19097501 -0.81508845 27 134 127
0.12164465 0.19073775 -0.81448466 26 136 127
0.12059751 0.1918138 -0.81361055 27 134 127
0.12135085 0.1932288 -0.81525862 30 133 127
0.12193679 0.19303159 -0.81596571 30 135 127
0.12048959 0.19236423 -0.81370801 27 135 127
0.12175481 0.19295472 -0.81568491 30 133 127
0.12002931 0.19246671 -0.81312937 27 135 127
0.12017521 0.1931366 -0.81362391 28 135 127
0.12318402 0.19135439 -0.81657428 27 132 127
0.12295318 0.18940884 -0.81521142 21 135 127
0.1228175 0.18928452 -0.81499451 21 135 127
0.12102431 0.1890751 -0.81289387 23 135 127
0.12421527 0.18793303 -0.81621468 23 135 126
0.12430687 0.1869922 -0.81582516 21 133 125
0.12398027 0.1879465 -0.81589013 23 133 126
0.12417308 0.18894422 -0.81671286 25 133 127
0.12323038 0.18800645 -0.81483555 21 132 127
0.12597035 0.18448699 -0.81671178 21 132 127
0.12414192 0.18481764 -0.81441104 18 134 125
0.13556862 0.15233892 -0.81454462 27 133 123
0.13632773 0.15159042 -0.81572282 27 133 123
0.13656078 0.15228257 -0.81666291 27 133 123
0.13616665 0.15150322 -0.81532091 27 133 123
0.13562149 0.15042895 -0.81346703 27 133 123
0.13564645 0.15056764 -0.81360865 27 133 123
0.13582216 0.15253799 -0.81523526 27 133 123
0.1383781 0.14765601 -0.81661355 27 135 124
0.13819492 0.14649905 -0.81536233 27 137 123
0.13676633 0.14686263 -0.81332242 26 133 123
0.13795285 0.14656244 -0.81501812 27 135 123
0.13745753 0.14829633 -0.81558686 27 134 123
0.13713941 0.1500212 -0.81643736 27 133 123
0.13657564 0.14978278 -0.81505382 27 133 123
0.13655727 0.15002938 -0.81519371 27 133 123
0.13662916 0.14885019 -0.81449044 27 133 123
0.13562554 0.14993523 -0.81312007 27 133 123
0.13632344 0.14905909 -0.81398445 27 133 123
0.1366106 0.14830497 -0.81405377 26 133 123
0.1386871 0.14695974 -0.81659019 28 135 124
0.13706598 0.14604497 -0.81319684 26 134 123
0.13803701 0.14586239 -0.81464922 27 135 123
0.13806918 0.14569743 -0.81458384 27 135 123
0.13725194 0.14542288 -0.81305575 27 134 123
0.13974184 0.14264454 -0.81666273 38 135 124
0.13947216 0.14361686 -0.81652218 36 135 124
0.13876317 0.14275537 -0.81374329 35 134 124
0.1388803 0.14252116 -0.81393147 35 134 123
0.13874935 0.14182991 -0.8129825 35 134 123
0.13903461 0.14136285 -0.81349814 36 134 123
0.13972156 0.14228058 -0.81632221 38 135 123
0.13069029 0.18949388 -0.8293013 33 137 128
0.13056 0.19101949 -0.83053851 34 137 127
0.13017206 0.19023289 -0.82881194 33 135 127
0.1300271 0.19106129 -0.82925707 34 135 127
0.13088828 0.1911587 -0.83154833 34 137 128
0.13123284 0.19008237 -0.83180523 34 137 129
0.13101508 0.19024383 -0.83109689 33 138 129
0.13102452 0.18885753 -0.82965505 33 137 128
0.13110511 0.18846773 -0.82954276 33 137 129
0.13138032 0.18712206 -0.82911628 33 137 129
0.13154037 0.18790472 -0.83063555 33 138 130
0.13139474 0.18761159 -0.82972628 33 137 129
0.13159575 0.18871287 -0.83175474 33 139 130
0.13183546 0.1862784 -0.8298595 32 137 129
0.1327088 0.18573262 -0.83218729 29 135 127
0.13237685 0.18686812 -0.83233196 30 137 127
0.13215372 0.18578535 -0.83038151 30 137 127
0.13191348 0.18768887 -0.83168608 33 137 129
0.13302512 0.18220361 -0.83039093 27 135 126
0.13290983 0.1834504 -0.83095837 28 135 127
0.13331646 0.183173 -0.83239686 27 135 126
0.13324697 0.18248899 -0.83154041 27 135 126
0.1328523 0.18265264 -0.83005601 27 135 126
0.13316855 0.1817351 -0.83058888 27 135 126
0.13220292 0.1850805 -0.82987887 30 136 127
0.13279682 0.1844791 -0.83135331 28 135 127
0.13265468 0.1825517 -0.82920867 28 135 127
0.13214666 0.18389121 -0.82866114 30 136 127
0.13219838 0.18470395 -0.82953787 30 136 127
0.13379392 0.17920358 -0.83074582 23 133 125
0.13403714 0.17896603 -0.8312 23 135 125
0.13401541 0.17927366 -0.83140737 23 135 125
0.13406093 0.17970507 -0.83190435 24 135 125
0.13364616 0.17898659 -0.83015704 21 133 125
0.1338347 0.17804521 -0.82985365 20 133 124
0.13300306 0.18024562 -0.82871866 26 134 126
0.13302281 0.18009157 -0.82867706 25 134 126
0.13337605 0.18162061 -0.83134633 26 136 126
0.13340724 0.17828281 -0.82881463 20 133 124
0.13296565 0.18068883 -0.82891822 26 136 126
0.13425091 0.17713392 -0.83027941 20 133 124
0.13414347 0.17718562 -0.83002537 20 133 124
0.13464727 0.17659053 -0.83096182 21 133 125
0.1343666 0.17739749 -0.83078396 21 133 125
0.13397364 0.17688143 -0.82934457 20 133 124
0.13506939 0.17487124 -0.83133745 23 135 125
0.13498962 0.17644931 -0.83209759 23 135 125
0.13503657 0.1752556 -0.83146435 23 135 125
0.13500324 0.17586032 -0.83174366 23 135 125
0.13482501 0.17725706 -0.83196771 23 133 125
0.13546085 0.1737082 -0.83219242 26 134 127
0.13542974 0.17335388 -0.83171165 26 134 127
0.13550143 0.1714478 -0.83019608 26 134 126
0.13605803 0.17002156 -0.83219099 31 136 126
0.13589776 0.17106034 -0.83222693 30 135 126
0.13557658 0.17043567 -0.82966876 27 134 126
0.13566169 0.17220888 -0.83190936 27 135 126
0.13571064 0.17203836 -0.83204097 27 135 126
0.13643807 0.16814886 -0.83126688 31 135 126
0.13639882 0.16816738 -0.83103156 30 135 126
0.13645107 0.1673934 -0.82990581 27 135 125
0.13628703 0.16903853 -0.8319332 31 136 126
0.13670525 0.16698152 -0.83086896 31 135 126
0.13711739 0.16606556 -0.831954 33 135 126
0.13635208 0.16705626 -0.82869262 27 134 126
0.13625513 0.16763906 -0.82915878 27 135 126
0.13605876 0.16930129 -0.830975 29 135 125
0.13610899 0.1686777 -0.8301512 27 135 125
0.13578257 0.16921768 -0.82914591 27 134 126
0.13632116 0.1677095 -0.82968736 27 135 125
0.13805704 0.16219842 -0.83203948 35 135 127
0.13752317 0.16232099 -0.82913053 32 134 127
0.13737564 0.16454202 -0.83138204 33 135 126
0.13784344 0.1633206 -0.83237475 35 135 127
0.13800129 0.16240928 -0.83201236 35 135 127
0.137477 0.16282742 -0.82957149 32 136 126
0.13697439 0.16468076 -0.82890278 28 135 126
0.13677309 0.16588624 -0.82929146 27 135 125
0.13731916 0.16331571 -0.82926869 31 136 126
0.13742788 0.16242497 -0.82870519 31 136 126
0.13724695 0.16333497 -0.82879865 31 135 127
0.13824949 0.16170415 -0.8320781 35 137 126
0.13859995 0.16046759 -0.83143294 36 136 127
0.13782929 0.16136749 -0.82858849 32 136 127
0.13798396 0.16208431 -0.83142596 35 135 127
0.13754791 0.1619861 -0.82864362 32 134 127
0.13788372 0.16129085 -0.82869452 32 136 126
0.13878809 0.15925553 -0.82884943 33 139 125
0.13910493 0.15851398 -0.83073485 36 137 125
0.13891119 0.15942346 -0.83188671 37 137 127
0.13899344 0.15899234 -0.83141994 38 136 126
0.13874023 0.16006091 -0.83177316 37 136 127
0.1397958 0.15435326 -0.83121634 38 135 127
0.13964738 0.15555683 -0.83190525 38 135 126
0.13942361 0.15673532 -0.83133906 38 135 127
0.13975358 0.15440026 -0.83066732 37 135 126
0.13940543 0.15688585 -0.83143115 38 135 127
0.13951917 0.15561369 -0.83002138 37 135 127
0.13928336 0.15726666 -0.82861024 35 138 125
0.13937168 0.15676755 -0.82989907 36 136 126
0.1392033 0.15804465 -0.8291589 35 138 125
0.13925435 0.15818357 -0.83215767 38 136 126
0.13937482 0.15684393 -0.8304413 37 136 126
0.13919924 0.15802358 -0.82886785 35 138 125
0.14018528 0.15166315 -0.82979041 38 136 127
0.14038992 0.15055485 -0.82966709 38 136 127
0.14027226 0.15168497 -0.83096212 38 136 126
0.14039946 0.1506559 -0.83004069 38 136 126
0.14010605 0.15266712 -0.83126575 38 136 126
0.14028363 0.15126169 -0.83005685 38 136 127
0.14008228 0.15195668 -0.82899153 37 136 127
0.13976656 0.15423231 -0.83042967 37 135 127
0.13981783 0.15413606 -0.83096826 37 136 126
0.13986291 0.15375434 -0.83060241 37 136 126
0.13985145 0.15317114 -0.82877314 36 136 126
0.14006992 0.15218669 -0.82944584 37 136 126
0.14066024 0.15027113 -0.83240795 38 138 124
0.14073627 0.14955279 -0.83181578 38 138 124
0.14089647 0.14863874 -0.83152723 38 137 124
0.14055786 0.15037248 -0.83137983 39 135 125
0.1406391 0.1486688 -0.82892758 39 135 126
0.14075893 0.14868288 -0.83049619 39 135 125
0.14055994 0.1499853 -0.83061224 39 135 126
0.14067407 0.14906248 -0.830185 39 135 125
0.1415786 0.14477369 -0.82974464 37 136 124
0.14172824 0.14362161 -0.8285954 39 134 125
0.14146413 0.14502838 -0.82940221 38 136 125
0.10345722 0.17825292 -0.79297751 24 131 123
0.10267567 0.17815199 -0.79246843 26 131 123
0.10353521 0.17880712 -0.7932024 25 131 123
0.10271304 0.17408024 -0.79082257 20 133 121
0.1028621 0.17721264 -0.79221421 24 131 122
0.10235237 0.17639643 -0.79155046 26 131 123
0.10330425 0.17699373 -0.79240078 23 131 122
0.10250943 0.17554428 -0.79129159 24 131 122
0.10388418 0.17669952 -0.79263645 23 130 123
0.10386553 0.17634685 -0.79247701 20 132 122
0.10277691 0.17258067 -0.79028529 21 132 121
0.10311826 0.17117688 -0.78994972 20 132 119
0.10314941 0.17235604 -0.79042113 19 134 119
0.10404555 0.16853257 -0.7895366 19 132 118
0.10619317 0.16613002 -0.79002452 19 132 118
0.10471319 0.16821055 -0.78983974 19 132 118
0.10493218 0.16809677 -0.78993648 18 132 118
0.10679334 0.16450761 -0.78975397 21 132 118
0.10699443 0.16531533 -0.79020411 19 132 118
0.10665117 0.16544774 -0.7900424 19 132 118
0.10884786 0.16488235 -0.79130268 19 132 118
0.10811203 0.16524297 -0.7909289 18 134 118
0.10774054 0.1639373 -0.79014295 21 132 118
0.11034856 0.16461642 -0.79223591 21 132 121
0.11120292 0.19054613 -0.80304176 32 136 124
0.10919394 0.18988261 -0.80123401 32 133 126
0.11207008 0.19048813 -0.80384493 32 133 125
0.11222633 0.18974945 -0.80369174 31 133 126
0.11220425 0.18960454 -0.80361074 30 135 126
0.11250544 0.18989608 -0.80402166 31 133 126
0.11174747 0.19047086 -0.80352622 32 134 125
0.11168324 0.19122602 -0.80377483 33 135 125
0.11043699 0.18883461 -0.80175978 30 133 126
0.11028008 0.18815659 -0.80135149 29 132 126
0.10981943 0.18883319 -0.8012886 30 132 126
0.11184198 0.18711983 -0.80220491 27 133 126
0.11225972 0.1888798 -0.80335784 28 134 125
0.11178023 0.18718033 -0.80217105 27 133 126
0.11203192 0.18867806 -0.80305189 28 134 125
0.11299125 0.18636581 -0.80300277 25 133 125
0.11468858 0.18656757 -0.80473858 25 133 125
0.11415162 0.18844682 -0.80500787 27 135 124
0.11365781 0.18732293 -0.8040542 26 133 125
0.11384046 0.18635423 -0.80382383 25 133 125
0.11347049 0.1885078 -0.80437106 27 134 125
0.11238644 0.18601097 -0.80226505 25 133 125
0.11505422 0.18567175 -0.80471283 23 135 123
0.11298195 0.18551625 -0.80262959 24 133 124
0.1119488 0.18506911 -0.80142128 24 133 124
0.11216285 0.18497229 -0.80158544 24 131 124
0.11201493 0.18487073 -0.80140829 24 131 124
0.12682761 0.19399123 -0.82438147 33 136 127
0.126792 0.19384114 -0.8242144 33 136 127
0.12597062 0.19364594 -0.82277203 33 136 127
0.12697154 0.19374681 -0.82449138 33 136 127
0.12693723 0.19159958 -0.82298982 28 135 127
0.12573433 0.19186465 -0.82122678 31 135 127
0.12532191 0.19315305 -0.82141578 34 134 128
0.12673214 0.19059575 -0.82199419 27 135 127
0.12514 0.19284262 -0.82091689 33 134 127
0.12624398 0.19177899 -0.82199138 30 133 127
0.12603331 0.19096468 -0.82113409 28 135 127
0.12829949 0.18993509 -0.82459533 33 134 126
0.12782449 0.19007125 -0.823744 31 133 126
0.12797117 0.19039457 -0.82425481 32 134 126
0.12720896 0.18981054 -0.82234412 27 134 127
0.1270767 0.19251104 -0.8239069 31 135 127
0.12693165 0.18854915 -0.82090253 26 134 127
0.12806828 0.18929715 -0.82369483 32 133 126
0.12723504 0.18812259 -0.82114553 27 134 126
0.12782945 0.18771809 -0.82194227 29 134 126
0.12787369 0.1880324 -0.82228816 30 133 127
0.12766141 0.18823564 -0.82205248 29 134 127
0.12899187 0.18596973 -0.82250553 32 134 127
0.12872966 0.18787456 -0.82369345 33 134 127
0.12857457 0.18891831 -0.82432544 33 134 126
0.12908283 0.18651415 -0.82312161 33 134 127
0.12960349 0.18607526 -0.82361519 33 135 127
0.12883368 0.18734117 -0.82341188 33 134 127
0.13063288 0.18483864 -0.82437068 34 137 129
0.13014713 0.18185377 -0.82167172 28 134 129
0.130537 0.18365701 -0.82343888 32 136 129
0.13052447 0.18208505 -0.82236779 28 135 128
0.12885329 0.18529841 -0.82176059 31 135 127
0.12926508 0.18549158 -0.82256615 32 136 127
0.12981816 0.18484746 -0.82309121 33 136 129
0.12928529 0.18342528 -0.82132638 30 135 129
0.12933061 0.183093 -0.82119715 28 135 128
0.13033864 0.1854592 -0.82433593 35 137 130
0.13097033 0.18254079 -0.82348245 29 136 127
0.13124044 0.18188347 -0.82383358 27 135 127
0.13055469 0.18077108 -0.82157463 27 135 127
0.1307936 0.18053706 -0.82177222 26 136 127
0.13100795 0.18047211 -0.82226324 26 136 127
0.13095173 0.18135755 -0.82264674 27 135 127
0.13101844 0.17931277 -0.82157451 24 135 126
0.1315019 0.18055463 -0.82377517 26 136 127
0.13150065 0.1785299 -0.82258868 23 135 125
0.13136898 0.1797576 -0.82285309 24 136 125
0.13122036 0.17820711 -0.8214373 21 135 124
0.13153669 0.17775999 -0.822263 21 135 124
0.13163507 0.17985362 -0.82382333 26 134 127
0.13239296 0.175743 -0.82387614 20 133 124
0.13230494 0.17667477 -0.8241936 21 133 125
0.13151698 0.17727363 -0.82193553 21 133 125
0.13144635 0.17720835 -0.82165825 21 133 125
0.13223948 0.17275958 -0.82159972 18 130 125
0.13215025 0.17320506 -0.82162404 18 130 125
0.13727374 0.15851095 -0.82381862 28 134 125
0.13685769 0.15866227 -0.8226068 27 134 124
0.13737935 0.15861155 -0.82422274 28 135 125
0.1369725 0.16008966 -0.8239615 27 135 124
0.13741599 0.15860838 -0.82433653 28 135 125
0.13621223 0.16004269 -0.82167315 26 134 124
0.13629776 0.16019167 -0.82201415 26 134 124
0.13621491 0.15957868 -0.82133722 27 133 124
0.13861585 0.15491918 -0.82391715 27 134 125
0.1383712 0.15588526 -0.8242715 27 134 125
0.1377708 0.15568744 -0.8225894 27 135 124
0.13761795 0.15501647 -0.82156312 27 135 124
0.13761127 0.15651128 -0.82300645 28 135 125
0.13764906 0.15444434 -0.82108009 27 135 124
0.13765363 0.15782526 -0.82439226 28 135 125
0.13718677 0.15561318 -0.82081944 27 134 124
0.13733567 0.15702495 -0.82265902 28 134 125
0.1374559 0.15578409 -0.82183695 27 135 124
0.13747758 0.15761764 -0.82368261 28 135 125
0.13723932 0.15689529 -0.82222837 28 134 125
0.13753805 0.1572827 -0.82354939 28 135 125
0.13844948 0.15393086 -0.82253939 27 135 124
0.13853681 0.15264852 -0.82155949 27 135 124
0.13832207 0.1535019 -0.82183129 27 135 124
0.13891175 0.1534334 -0.82344353 27 134 125
0.13885598 0.15198886 -0.82191283 27 135 124
0.13889357 0.152729 -0.82272851 27 134 125
0.13900332 0.15120137 -0.82176572 28 134 125
0.1391062 0.15327626 -0.82411838 29 134 125
0.13912763 0.15367462 -0.82457799 29 134 126
0.1393899 0.15094537 -0.82337958 31 135 125
0.13917361 0.15342167 -0.82457036 29 134 125
0.13989463 0.14958023 -0.8244164 35 134 125
0.14028092 0.14682898 -0.82316065 36 135 124
0.14047635 0.14662884 -0.8241002 36 134 124
0.13987893 0.14848289 -0.8228696 34 135 124
0.14013968 0.14718363 -0.82275915 36 135 124
0.13987353 0.14748406 -0.82155859 36 134 124
0.13985178 0.14743921 -0.82139879 36 133 124
0.13986133 0.14754517 -0.82157665 36 133 125
0.13928509 0.14953886 -0.82131803 31 135 124
0.13970739 0.14989047 -0.82377112 34 134 125
0.13944793 0.15020129 -0.82292187 32 136 124
0.14115717 0.14267373 -0.82210827 40 134 124
0.14088501 0.14497761 -0.82390451 38 135 125
0.14082099 0.14323293 -0.82145995 40 134 124
0.14107396 0.14424723 -0.82374716 39 134 125
0.14074792 0.14544299 -0.82393771 38 134 125
0.14049946 0.14620787 -0.82366741 36 135 124
0.14043397 0.14484304 -0.8213675 38 134 124
0.14073333 0.1431794 -0.82090002 40 134 124
0.1406844 0.14431122 -0.82217127 38 135 124
0.14062308 0.14409591 -0.8214944 38 135 124
0.14027174 0.14568149 -0.82153302 37 134 124
0.13129595 0.19069806 -0.83270198 35 137 129
0.13123071 0.19076419 -0.83251238 35 137 129
0.13163073 0.1923683 -0.83579367 34 139 127
0.13185482 0.18997213 -0.83429855 33 139 128
0.13192193 0.18988881 -0.83450717 33 139 129
0.13153686 0.19116165 -0.83413243 34 139 128
0.13187942 0.19179139 -0.83628935 34 139 127
0.13312478 0.18661472 -0.83519763 30 137 128
0.13351284 0.18599102 -0.83597708 28 138 127
0.13304557 0.18615624 -0.83419234 29 136 127
0.13348597 0.18584137 -0.83564454 28 138 127
0.13326269 0.18664162 -0.83583367 29 137 127
0.13288692 0.1872887 -0.83514118 30 138 127
0.13247594 0.18797155 -0.83434063 31 139 127
0.13212118 0.18917103 -0.83452243 32 139 128
0.1318094 0.18886499 -0.83270854 33 138 129
0.13263828 0.18618529 -0.83246195 30 136 127
0.13255747 0.18650222 -0.8325668 30 137 127
0.13441834 0.18245044 -0.8362934 24 136 124
0.13427311 0.18272284 -0.83595192 25 136 125
0.13391736 0.18231191 -0.83415705 25 136 125
0.1339362 0.18347599 -0.83526748 27 137 126
0.13437907 0.18232389 -0.83602309 24 136 124
0.13369355 0.1819851 -0.83296716 26 136 126
0.13320701 0.18443806 -0.83303517 27 137 126
0.13345823 0.18467367 -0.83433044 28 136 127
0.13334306 0.1831799 -0.83251679 27 135 126
0.13335189 0.18364075 -0.83296072 27 135 127
0.13362159 0.18292631 -0.83349967 27 135 126
0.13361326 0.18524641 -0.8355059 28 138 127
0.13468778 0.18073934 -0.83562803 24 135 124
0.13466169 0.17985305 -0.83427233 24 135 124
0.13404076 0.18099613 -0.83323443 24 136 124
0.13435175 0.17974505 -0.83288908 24 135 124
0.13468474 0.17930573 -0.8336671 23 135 123
0.13457422 0.18043892 -0.83466768 24 135 124
0.13506033 0.1777802 -0.83442348 30 132 126
0.13479123 0.17944846 -0.8345719 25 134 124
0.13483049 0.17860539 -0.83372265 26 133 125
0.13503471 0.17818749 -0.83488309 30 132 126
0.13486591 0.17831337 -0.83361524 27 133 126
0.13506657 0.17864656 -0.8358013 31 133 126
0.13579838 0.17452078 -0.83535331 29 135 125
0.13561176 0.1757566 -0.83581501 32 133 126
0.13558583 0.17512859 -0.83480459 30 135 126
0.13548182 0.17630218 -0.83571339 33 133 127
0.13568343 0.17467254 -0.83481884 29 135 125
0.13570051 0.1749709 -0.83532947 30 135 125
0.1353254 0.17540844 -0.83328772 27 134 126
0.13512932 0.17752728 -0.83463931 30 132 126
0.1350617 0.17724749 -0.83359313 27 132 126
0.13510798 0.1769906 -0.83363819 27 134 126
0.13509971 0.17635755 -0.83261406 25 134 125
0.13611607 0.17109944 -0.83364177 32 134 125
0.13625069 0.1728742 -0.83607143 31 136 125
0.13649572 0.17116462 -0.83545494 34 135 125
0.1364308 0.17092542 -0.83491224 34 135 126
0.13635457 0.17165312 -0.83530384 33 136 125
0.13609496 0.17115724 -0.83358234 31 136 126
0.13609159 0.17091142 -0.83330798 31 136 126
0.13595177 0.17200723 -0.83353621 29 135 125
0.13586055 0.17297672 -0.8339467 28 136 125
0.13576512 0.17368412 -0.83406079 27 135 125
0.13601926 0.17173207 -0.83368689 30 135 125
0.13714996 0.16721906 -0.83381623 36 136 126
0.13760716 0.16610681 -0.83577061 33 137 124
0.13704462 0.16865478 -0.83511132 37 136 126
0.13754134 0.16619229 -0.83537883 33 137 124
0.13728487 0.16609345 -0.83321297 33 138 125
0.13710198 0.1674252 -0.83377993 36 136 126
0.13675891 0.16985299 -0.83530992 37 136 127
0.1369679 0.16977508 -0.83617163 38 136 127
0.13709024 0.16694987 -0.83311737 35 137 126
0.13687816 0.16985202 -0.83585733 38 136 127
0.13806506 0.16377568 -0.8349849 38 135 127
0.13811491 0.16285288 -0.83361071 37 136 127
0.13787261 0.16379374 -0.8334893 35 135 126
0.13760188 0.16538298 -0.83438766 33 137 125
0.13774948 0.16491297 -0.83465379 33 137 125
0.13769202 0.16520545 -0.83475906 33 137 125
0.13782521 0.16373923 -0.83301216 35 135 126
0.13729084 0.16591094 -0.83294499 33 138 125
0.13901712 0.15932445 -0.83282018 39 135 126
0.13922417 0.15837455 -0.83250827 39 135 126
0.13926718 0.15825669 -0.83261424 39 136 125
0.13881275 0.1603318 -0.83333933 40 135 127
0.13880154 0.16027296 -0.83308637 40 135 128
0.13991509 0.1544503 -0.83310968 39 135 125
0.14006722 0.15468885 -0.83549595 40 136 125
0.13950181 0.1574138 -0.83340842 42 135 126
0.13963597 0.15619722 -0.8329075 40 135 126
0.13982429 0.15497123 -0.83284718 39 136 125
0.13967395 0.15593365 -0.83287364 40 135 126
0.14056017 0.15133366 -0.8338753 40 136 125
0.14038879 0.15255474 -0.83470333 39 136 125
0.14058086 0.1511998 -0.83381194 40 137 125
0.14031549 0.15347448 -0.83613133 40 136 124
0.14010423 0.1535815 -0.83355045 38 137 125
0.1403158 0.15208575 -0.83252013 39 135 125
0.14025456 0.15343125 -0.83516181 38 137 125
0.14032212 0.15284823 -0.83456212 38 137 125
0.14053629 0.1509646 -0.83257031 39 135 125
0.10268138 0.18371704 -0.79428607 34 132 125
0.10277545 0.18375248 -0.79435784 34 132 125
0.10551194 0.18528821 -0.79674304 29 129 125
0.10663755 0.18286709 -0.79660416 23 131 125
0.10581589 0.18259051 -0.79594839 25 131 124
0.10630199 0.18251234 -0.79624301 24 131 124
0.10458264 0.1817831 -0.79485524 27 130 124
0.10496655 0.18201315 -0.79518819 26 131 124
0.10591421 0.18240266 -0.7959488 25 131 124
0.10427062 0.17844857 -0.79353458 24 130 124
0.10458823 0.18043704 -0.79436189 26 131 124
0.10525467 0.17870881 -0.79420936 23 130 125
0.10571098 0.17983168 -0.79486758 24 130 124
0.10531005 0.1812544 -0.7951411 25 131 124
0.10560088 0.1806962 -0.79512209 24 130 124
0.11795674 0.19522303 -0.8117848 34 133 126
0.11634963 0.1938391 -0.80950302 34 134 125
0.11705202 0.19423522 -0.81041908 33 133 126
0.11599134 0.19375023 -0.80907631 34 134 125
0.11887284 0.19459543 -0.81255442 32 133 126
0.11772693 0.19396944 -0.81106013 32 133 125
0.11617623 0.19336788 -0.80913985 33 134 125
0.11635213 0.19346753 -0.8093707 33 134 125
0.11939597 0.19371912 -0.8128193 30 133 127
0.11729065 0.19252236 -0.80996525 31 133 126
0.1184131 0.19229779 -0.81107473 29 134 126
0.11792545 0.1913767 -0.81014049 28 134 126
0.11696756 0.19275787 -0.80972171 32 133 125
0.11632486 0.19316016 -0.80920798 33 134 125
0.11760839 0.19177097 -0.80997396 29 134 125
0.11623046 0.19301167 -0.80904055 33 134 125
0.11726873 0.1911944 -0.80935335 28 134 125
0.11772754 0.19109513 -0.80980259 27 134 125
0.11955306 0.18998969 -0.81139034 25 133 127
0.1201314 0.19053257 -0.81241232 25 134 127
0.11970172 0.19072731 -0.8119173 26 134 127
0.12002949 0.19125858 -0.81259525 26 134 127
0.11938918 0.19210786 -0.81210524 27 134 126
0.11812635 0.18883397 -0.80923271 25 133 126
0.11927976 0.18892902 -0.81055266 23 133 126
0.12000071 0.18853058 -0.81135207 21 133 125
0.1209387 0.18857943 -0.81252939 21 135 127
0.12013722 0.18729171 -0.81093681 19 134 125
0.1356969 0.14772455 -0.81165314 25 133 123
0.13657254 0.14659955 -0.8127293 26 133 123
0.13585965 0.14841792 -0.81251627 26 133 123
0.1357049 0.14749122 -0.81149912 25 133 123
0.13738841 0.14441979 -0.81255025 28 135 123
0.13627371 0.14341223 -0.80991662 27 134 123
0.13586245 0.1452816 -0.8102988 25 133 123
0.13604581 0.14421391 -0.80998439 27 133 123
0.13590582 0.14397722 -0.80952221 26 134 123
0.13597912 0.14297181 -0.80901033 27 134 123
0.13602008 0.14532742 -0.81067193 25 133 123
0.13866587 0.14165868 -0.81256884 35 134 123
0.138466 0.1413171 -0.81193101 35 134 124
0.13852362 0.14064555 -0.8114475 35 134 123
0.1381014 0.14101219 -0.81114161 35 134 124
0.1388647 0.13975805 -0.81159806 37 134 123
0.13916913 0.14001489 -0.81286478 38 133 123
0.13880433 0.14027266 -0.81183565 37 133 124
0.13883266 0.14130817 -0.81282794 36 134 123
0.13864563 0.13731019 -0.80940396 38 134 122
0.13901834 0.13756303 -0.81073219 39 133 122
0.13867597 0.1364543 -0.80910301 38 135 122
0.13878547 0.13794552 -0.81008977 38 134 122
0.13905753 0.13670437 -0.81048703 40 134 122
0.1388662 0.13667111 -0.80984044 39 134 122
0.13889723 0.13657881 -0.80990088 39 134 122
0.12716165 0.19372733 -0.82495248 33 136 127
0.12758422 0.19607496 -0.82776052 34 135 126
0.12777174 0.1949456 -0.82728767 35 134 127
0.12754016 0.19363375 -0.82573056 34 135 127
0.12789893 0.19406649 -0.82687753 35 134 127
0.12744778 0.19609579 -0.82747096 34 135 127
0.12743004 0.19494055 -0.82651728 34 135 127
0.12907109 0.19125465 -0.82726526 35 135 126
0.12910546 0.19187945 -0.8278262 36 134 127
0.12969488 0.18949682 -0.8271814 33 136 127
0.12954624 0.1915272 -0.82846427 35 135 127
0.12860344 0.18980849 -0.82516223 34 134 126
0.12993744 0.18952627 -0.82770747 33 136 127
0.1285399 0.1920208 -0.82673043 36 135 126
0.12843604 0.19145837 -0.82606667 35 134 126
0.1282533 0.19235098 -0.82634056 35 135 126
0.12738179 0.19314927 -0.82499731 33 136 127
0.12838741 0.18971244 -0.82462019 33 134 126
0.12752418 0.19324943 -0.82539344 34 135 127
0.13051455 0.18904185 -0.82842135 32 137 127
0.1305799 0.1867615 -0.82609344 34 137 128
0.12978606 0.18851948 -0.82634538 33 135 127
0.13039716 0.1871039 -0.8261103 34 136 128
0.13039629 0.18688338 -0.82587445 34 137 128
0.12911333 0.18892846 -0.82538432 34 134 127
0.13035542 0.18872769 -0.82774711 33 137 127
0.1300948 0.18722877 -0.82561582 34 136 128
0.13128404 0.18572444 -0.82718158 33 137 130
0.13092923 0.18761231 -0.82789046 33 137 128
0.13123378 0.18662378 -0.82798201 33 137 129
0.1306892 0.18551348 -0.82498622 35 137 129
0.13120501 0.18540737 -0.82655823 33 138 129
0.1312066 0.18321985 -0.82464105 30 136 127
0.13087459 0.18468381 -0.82465398 33 138 129
0.13144276 0.18314445 -0.82548618 29 136 127
0.13122199 0.18378271 -0.82519835 30 137 127
0.13149665 0.18432616 -0.82673967 30 137 127
0.13172989 0.183755 -0.82709426 29 136 127
0.13165851 0.18310507 -0.82626355 28 136 127
0.13158052 0.18222168 -0.82520074 27 137 127
0.13161948 0.18219681 -0.82531399 27 137 127
0.13261223 0.18186891 -0.82847404 28 135 127
0.13173798 0.18311435 -0.82654834 28 136 127
0.13239598 0.17838193 -0.82556468 25 134 125
0.13287805 0.17971893 -0.82794505 25 134 126
0.13277113 0.17993635 -0.82773727 26 134 126
0.13289177 0.18052316 -0.82849002 26 134 126
0.13284916 0.17803997 -0.82680655 23 133 125
0.13223931 0.18152112 -0.8269015 27 135 126
0.13219461 0.17890814 -0.82520097 26 134 126
0.13215922 0.18024789 -0.82586998 26 136 126
0.13175614 0.18144509 -0.82517558 27 135 126
0.13240488 0.18003818 -0.82660073 27 135 126
0.13279277 0.17738609 -0.82619613 21 133 125
0.1327313 0.17626332 -0.82522833 20 133 124
0.13333791 0.17771785 -0.828174 20 133 124
0.13258258 0.17672499 -0.82506764 21 133 125
0.13285476 0.17642526 -0.82573581 20 133 124
0.13594465 0.16810933 -0.8282752 26 134 126
0.13609362 0.16694194 -0.82753289 26 134 126
0.1361091 0.16687638 -0.82751775 26 134 126
0.13705 0.16280025 -0.82707739 27 135 126
0.13709158 0.16293038 -0.82744682 28 135 126
0.13704939 0.16259587 -0.82684171 27 135 126
0.13654016 0.16595761 -0.82810557 26 134 126
0.13781822 0.16128045 -0.82842124 32 136 127
0.13821496 0.15964089 -0.82752448 32 136 126
0.13767691 0.16084221 -0.82762194 31 135 126
0.13771194 0.15896088 -0.82568663 30 135 125
0.1376157 0.15864187 -0.82513297 30 135 126
0.13742054 0.16028872 -0.82613748 29 135 125
0.13711916 0.16132788 -0.82574689 27 135 125
0.13737974 0.16180834 -0.82769513 30 135 127
0.13740192 0.16016802 -0.82589746 29 135 125
0.13735753 0.16020103 -0.82569975 29 135 125
0.13896792 0.15840495 -0.82812697 34 137 125
0.13783979 0.15818334 -0.82514113 30 135 125
0.13805087 0.15769029 -0.82518095 29 135 125
0.13886064 0.15715793 -0.82666808 31 136 125
0.13892581 0.15734921 -0.82703239 33 137 125
0.13910206 0.15744169 -0.82764244 33 138 125
0.13940087 0.15589228 -0.82823974 33 138 125
0.13946421 0.15536551 -0.82824463 35 135 126
0.13930789 0.15703568 -0.828511 34 139 125
0.13930944 0.15496852 -0.82696587 33 134 126
0.13952526 0.15431447 -0.82784063 34 134 126
0.13917354 0.1547704 -0.82595634 31 133 126
0.13996498 0.15086094 -0.82660943 36 135 126
0.14013802 0.15048617 -0.82732379 37 135 127
0.13976544 0.15213399 -0.8267976 35 135 126
0.14020748 0.1509818 -0.82838839 37 136 127
0.14026265 0.15043335 -0.82809979 37 136 127
0.13975918 0.15225764 -0.82690436 35 135 126
0.13962367 0.1529801 -0.82688141 34 134 126
0.13948686 0.15315497 -0.82622355 32 134 125
0.13933529 0.15358937 -0.82578123 31 133 126
0.14078189 0.14720127 -0.82788044 38 137 125
0.14050232 0.14817117 -0.82654935 37 136 125
0.14055255 0.14781821 -0.82648385 37 136 125
0.14069393 0.14802057 -0.82833815 38 136 126
0.1407873 0.14667132 -0.82703471 38 137 125
0.1401833 0.14948891 -0.82621092 36 135 125
0.1402317 0.1492704 -0.82622123 36 135 125
0.14022687 0.14963838 -0.82672042 37 135 126
0.14036624 0.14878331 -0.82642376 37 135 126
0.14032038 0.14783254 -0.82474118 35 135 124
0.14019264 0.14945741 -0.82622838 36 135 125
0.14172778 0.14335983 -0.82726455 40 134 125
0.14133549 0.14487877 -0.82751286 40 135 125
0.14176622 0.14337149 -0.82814211 39 134 125
0.1417785 0.14300205 -0.82632589 40 135 125
0.14171638 0.14309673 -0.82554579 40 135 125
0.14112221 0.14489003 -0.82497549 38 136 125
0.14154322 0.14344423 -0.82464939 40 134 125
0.14154217 0.14379737 -0.82581544 40 135 125
0.14091164 0.14591132 -0.82613307 38 136 125
0.14087865 0.14569695 -0.82506615 38 136 125
0.14091361 0.14569049 -0.8254177 38 136 125
0.14254232 0.14012624 -0.82563204 40 135 125
0.14242791 0.14044772 -0.82565981 40 134 125
0.14228395 0.14107986 -0.82620734 40 134 125
0.14224046 0.14110392 -0.82542408 40 134 125
0.14228253 0.14101636 -0.8258208 40 134 125
0.14216967 0.14162776 -0.82687026 40 135 125
0.13605955 0.17453657 -0.84107184 41 138 124
0 0 0 1 0 0 0 1 0 0 0 1 0 0 0 0 0 848 1 0 0
