ply
format ascii 1.0
comment PCL generated
element vertex 950
property float x
property float y
property float z
property uchar red
property uchar green
property uchar blue
element camera 1
property float view_px
property float view_py
property float view_pz
property float x_axisx
property float x_axisy
property float x_axisz
property float y_axisx
property float y_axisy
property float y_axisz
property float z_axisx
property float z_axisy
property float z_axisz
property float focal
property float scalex
property float scaley
property float centerx
property float centery
property int viewportx
property int viewporty
property float k1
property float k2
end_header
0.097958207 0.36644781 -0.81964159 91 136 126
0.097810008 0.36784667 -0.81956673 82 135 124
0.098218061 0.36710033 -0.81997657 94 135 126
0.098548837 0.36535725 -0.82023418 109 137 129
0.098654695 0.36645871 -0.82042545 106 136 128
0.098490745 0.36562508 -0.82018644 107 136 129
0.097215712 0.36669043 -0.81882262 75 135 124
0.098340459 0.36909848 -0.82026649 88 134 125
0.098724186 0.36365825 -0.82035047 118 138 128
0.096953928 0.36209524 -0.81828672 80 136 124
0.098249599 0.3628014 -0.81977701 110 137 127
0.097932123 0.36379942 -0.81946582 98 136 127
0.098115042 0.36296651 -0.81963325 106 137 127
0.099030487 0.36184883 -0.82061172 132 139 127
0.097313523 0.36268786 -0.81871861 87 136 125
0.098430425 0.36497867 -0.820081 107 137 129
0.097159639 0.36516252 -0.81866062 81 137 125
0.097955771 0.36517668 -0.81955653 97 136 127
0.096739389 0.36118096 -0.81799072 78 137 122
0.097459637 0.3592605 -0.81858224 89 137 123
0.096679591 0.35975254 -0.8177591 71 137 121
0.096765414 0.36024755 -0.8179121 76 137 122
0.096647196 0.35896519 -0.81763309 68 136 121
0.096782953 0.35895938 -0.81778538 71 137 121
0.096940152 0.35859826 -0.81792152 74 135 122
0.098010704 0.35862336 -0.81925958 89 137 123
0.098436892 0.35836878 -0.81979126 92 137 124
0.098934412 0.35826319 -0.82041436 97 138 124
0.097889952 0.35904801 -0.81911349 93 137 124
0.098220557 0.35815385 -0.81951702 86 137 123
0.098567881 0.35838774 -0.81995595 93 138 124
0.098283656 0.35911924 -0.81960857 99 137 124
0.097637363 0.35528776 -0.81874847 74 136 123
0.098038957 0.35454383 -0.81914258 78 136 125
0.098663561 0.35522082 -0.81992036 85 136 126
0.099026754 0.35530692 -0.82034498 88 136 126
0.098966815 0.35368603 -0.82013041 88 136 129
0.097694471 0.35408646 -0.81870604 75 136 125
0.098700367 0.35692564 -0.82010746 84 137 123
0.098122172 0.3571288 -0.81938267 76 137 122
0.097725697 0.35719278 -0.81888539 70 136 121
0.098329544 0.35674682 -0.81964111 79 137 122
0.098501042 0.35685486 -0.81985688 82 137 123
0.099310182 0.35098794 -0.82011759 77 135 127
0.098466471 0.3528246 -0.81945449 82 136 128
0.097579189 0.3529155 -0.81844741 72 136 125
0.098078221 0.35242945 -0.81895953 77 135 127
0.099640705 0.35017505 -0.82037193 73 135 127
0.1078067 0.39582542 -0.83996934 119 137 128
0.10800636 0.39554188 -0.84022516 119 138 128
0.10861588 0.3898271 -0.84007436 118 139 129
0.10857144 0.38875666 -0.83994055 117 140 129
0.10899209 0.38567442 -0.84008306 126 136 129
0.10897473 0.38597375 -0.8401193 125 137 129
0.10858544 0.38817146 -0.83987272 118 139 129
0.10915653 0.38491839 -0.84022766 128 136 129
0.10802209 0.3820318 -0.83781266 109 137 129
0.10858854 0.38280535 -0.83909249 119 137 129
0.10850571 0.38240123 -0.83895326 117 137 129
0.10837173 0.38123319 -0.83881277 116 137 130
0.10915507 0.38445759 -0.84022784 128 136 129
0.10840142 0.38305804 -0.83859068 116 136 129
0.10839389 0.38326836 -0.8385911 116 136 129
0.10881253 0.38425612 -0.83948177 123 137 129
0.10755984 0.37993452 -0.83678967 109 137 129
0.10798858 0.38052687 -0.83789819 112 137 129
0.10774618 0.37951615 -0.83722192 116 138 129
0.10784627 0.37849548 -0.83740234 126 137 128
0.10819271 0.37926474 -0.83831722 126 137 129
0.10855678 0.3769576 -0.84006244 136 139 129
0.10865659 0.37913194 -0.83981198 131 138 130
0.10846359 0.37795013 -0.83947772 133 139 129
0.10833769 0.37923864 -0.83870178 128 138 129
0.10819917 0.37882212 -0.83834499 129 137 129
0.10709524 0.37330654 -0.83684886 91 140 127
0.10735 0.37603366 -0.8363983 122 137 128
0.10742606 0.37576959 -0.83684242 122 138 128
0.1077541 0.37400797 -0.83925843 121 139 128
0.10749622 0.3764801 -0.83676797 130 138 128
0.10755224 0.3768031 -0.83675545 132 137 128
0.10769672 0.37509608 -0.8383581 125 138 128
0.10788978 0.37494648 -0.83911026 126 138 128
0.10794454 0.37484765 -0.83936036 126 138 128
0.10788846 0.37491247 -0.83912796 126 138 128
0.10801969 0.37446293 -0.83986598 124 139 128
0.10707893 0.37252259 -0.83699465 88 141 126
0.10712185 0.37042001 -0.83763194 93 140 126
0.10774396 0.37072614 -0.83997911 103 142 126
0.10762331 0.37105128 -0.83946085 106 140 127
0.10717552 0.36693901 -0.83777958 117 138 128
0.10729198 0.36710995 -0.8381198 114 139 127
0.10667391 0.36880502 -0.83676338 107 137 127
0.10677824 0.36613011 -0.83673054 111 138 128
0.10656508 0.36812899 -0.83641434 107 137 127
0.10765962 0.36722916 -0.83944124 111 142 126
0.10773367 0.36667389 -0.83963823 122 141 127
0.10753018 0.36618832 -0.8387422 120 140 128
0.10758733 0.36786416 -0.83926225 104 142 126
0.10753187 0.36683679 -0.83886176 114 141 127
0.10701378 0.36505741 -0.83714861 116 138 128
0.10724936 0.36332598 -0.8372221 118 140 127
0.10725464 0.3617464 -0.83680499 114 141 125
0.10773857 0.36283261 -0.83889472 138 140 127
0.10778815 0.36194938 -0.83906633 141 141 127
0.10782318 0.36288851 -0.83934551 143 140 128
0.10782493 0.36367595 -0.83943427 143 140 128
0.1076083 0.36281392 -0.83822453 130 140 126
0.10743949 0.36421037 -0.8379333 126 140 127
0.10753387 0.36437902 -0.83835518 131 139 128
0.10719941 0.36029679 -0.83648056 109 140 126
0.10726152 0.35840276 -0.83637482 112 140 127
0.10783757 0.35929328 -0.83919829 132 141 128
0.10755322 0.35825002 -0.8375169 124 141 128
0.10780614 0.35804158 -0.83905822 117 141 127
0.10797093 0.35786662 -0.84006405 112 141 126
0.10792688 0.36119309 -0.83972234 151 141 128
0.10745801 0.3590762 -0.83708084 119 141 127
0.10745997 0.35994422 -0.83716273 120 141 127
0.10744154 0.35917389 -0.83700222 118 141 127
0.1076903 0.35974059 -0.83835787 134 141 128
0.10734396 0.35621998 -0.83648473 109 140 128
0.1073814 0.35413539 -0.83663929 98 140 129
0.10793016 0.35558197 -0.83940428 102 140 127
0.10747303 0.35383132 -0.83705622 96 140 128
0.10811299 0.35515615 -0.83999485 102 139 128
0.10774566 0.35435402 -0.83829522 99 140 128
0.10809357 0.35564283 -0.84006876 102 140 127
0.10749022 0.35486376 -0.83716977 102 140 128
0.10776052 0.35721004 -0.83880687 108 141 126
0.10770421 0.35643944 -0.83846599 105 141 127
0.10761932 0.35544103 -0.83795196 102 140 127
0.1077816 0.35738388 -0.83893448 108 141 126
0.10790386 0.35312414 -0.83852232 101 139 129
0.10792619 0.35148668 -0.8380816 111 139 129
0.10807371 0.35261098 -0.83903152 105 138 129
0.10755693 0.35229862 -0.8368659 104 140 129
0.10755794 0.35209584 -0.83680499 105 140 129
0.10781384 0.35013029 -0.83734226 114 140 127
0.10777573 0.35003379 -0.83712316 115 140 127
0.10780389 0.34973171 -0.83727056 113 141 127
0.10796846 0.35033309 -0.83822429 107 140 127
0.10779476 0.35032761 -0.83724219 115 140 128
0.10821304 0.3489612 -0.83969176 94 141 125
0.10827464 0.34791967 -0.83976048 111 141 125
0.10774799 0.34639245 -0.83752167 107 143 126
0.10805401 0.34824958 -0.83897609 96 141 125
0.10817068 0.34826192 -0.83942044 101 141 126
0.10771873 0.34754157 -0.83731097 104 142 126
0.10759755 0.34754598 -0.83662486 108 142 126
0.10807129 0.34934631 -0.83884412 100 141 125
0.10759005 0.34693384 -0.83673835 105 142 127
0.1078071 0.34924632 -0.83737624 110 141 127
0.10767692 0.34480605 -0.83731025 117 142 127
0.10787184 0.3391768 -0.8393656 115 141 125
0.1079566 0.3395465 -0.8395797 122 141 126
0.1078191 0.33892667 -0.83923805 111 141 125
0.10750875 0.33948779 -0.83788359 118 141 125
0.11060809 0.40258709 -0.8480168 124 140 130
0.11007927 0.40105844 -0.84597665 131 139 131
0.11106037 0.40052029 -0.84711194 132 141 131
0.11048172 0.40230447 -0.84756446 125 140 130
0.10983732 0.40112811 -0.84564841 131 139 131
0.11102229 0.40107352 -0.84747511 129 141 131
0.1086022 0.40294906 -0.84484452 118 139 130
0.10924167 0.40309104 -0.84611297 120 138 130
0.10914102 0.40294904 -0.84582615 120 138 130
0.10857157 0.40216076 -0.84421438 122 138 130
0.10913759 0.40178081 -0.8449688 127 138 131
0.1112785 0.39883718 -0.84753275 140 141 131
0.11014612 0.3995153 -0.84567046 138 139 131
0.11096954 0.39997244 -0.84691715 134 141 131
0.11131231 0.39653587 -0.84784639 151 140 131
0.11017383 0.39935118 -0.84573269 139 140 131
0.11026056 0.39659724 -0.84522873 136 139 130
0.10999169 0.39706385 -0.84473366 134 138 129
0.11002578 0.39711154 -0.84483832 134 139 130
0.10948376 0.39891171 -0.84417772 133 139 131
0.11050428 0.39761096 -0.84624147 143 139 131
0.11135381 0.39704642 -0.84794188 148 140 131
0.11132956 0.39946851 -0.84754807 136 142 131
0.11047166 0.39500862 -0.84541118 140 136 132
0.11080828 0.39599901 -0.84646553 144 138 131
0.11061874 0.39554727 -0.8458938 141 137 131
0.11125389 0.3929463 -0.84695739 152 134 136
0.11118323 0.39364073 -0.84692293 151 135 134
0.11047938 0.39292809 -0.84451813 142 137 132
0.11016172 0.39494547 -0.84443551 135 137 130
0.11051539 0.39375895 -0.84501719 142 136 132
0.11031116 0.39525393 -0.84505564 137 136 131
0.11144447 0.39336354 -0.84794283 153 135 135
0.11142259 0.39407831 -0.84793645 152 136 134
0.11059876 0.39189711 -0.8443405 144 137 131
0.11098035 0.39019179 -0.84456486 151 139 130
0.11120263 0.39174441 -0.84618104 153 135 134
0.11084206 0.3915132 -0.84489393 148 137 132
0.11077484 0.39049402 -0.8442294 149 138 131
0.1113816 0.38882321 -0.84514272 156 139 130
0.11177081 0.38916346 -0.84722352 151 141 130
0.11167776 0.38998553 -0.84730697 152 139 131
0.11152001 0.38872179 -0.84573966 155 140 130
0.11137071 0.39147031 -0.84668982 155 135 135
0.11105701 0.38845539 -0.84420538 156 138 131
0.11172727 0.38478899 -0.84628284 165 141 132
0.11201119 0.38728485 -0.84793913 153 142 130
0.11192255 0.38698551 -0.84746325 155 142 130
0.11156872 0.38595995 -0.84557807 163 141 131
0.11203376 0.38573956 -0.84792113 158 142 131
0.11159032 0.38785696 -0.84593213 156 141 130
0.11166379 0.38844085 -0.84636378 154 141 129
0.1117652 0.38739607 -0.84670556 156 142 130
0.11147892 0.386235 -0.84517658 163 141 131
0.11077383 0.38214332 -0.84444016 156 139 131
0.11087338 0.38218948 -0.8446672 157 140 131
0.11116782 0.3816171 -0.84576875 152 139 131
0.1112377 0.3814798 -0.84603107 151 139 132
0.11183714 0.38335347 -0.84769434 156 141 132
0.11159185 0.38117373 -0.84774131 147 139 132
0.1116198 0.38240129 -0.84717917 153 140 131
0.11159316 0.38393617 -0.84610653 162 140 132
0.11168391 0.38399905 -0.84652907 161 141 132
0.11161134 0.38291129 -0.84682477 156 140 132
0.11160898 0.38314345 -0.84667099 157 140 132
0.11088376 0.37897781 -0.84789491 154 138 132
0.11018637 0.37976903 -0.84708571 147 139 132
0.109154 0.37849444 -0.84770429 149 138 132
0.10953429 0.37904349 -0.84704351 147 138 132
0.11077476 0.37981647 -0.84610552 146 139 131
0.10926531 0.37856194 -0.84681869 146 138 131
0.10984226 0.3788043 -0.84622264 145 139 131
0.10914413 0.37852016 -0.84695637 146 138 131
0.10817754 0.37767574 -0.84735698 146 138 132
0.11038785 0.37940612 -0.84616721 146 139 131
0.1101035 0.37890902 -0.84450841 146 139 130
0.10987793 0.37771127 -0.84454876 143 139 130
0.11057625 0.3799262 -0.84519452 147 139 130
0.11091502 0.3807998 -0.84561151 149 139 131
0.10837299 0.37696654 -0.84619409 144 138 130
0.11134237 0.37988308 -0.84743351 152 138 132
0.1066753 0.37540692 -0.84788162 133 136 130
0.10711586 0.37560245 -0.8474918 139 137 130
0.10786207 0.37435612 -0.84589142 146 138 129
0.10816745 0.37319139 -0.84486842 147 138 128
0.10772274 0.37467372 -0.84625375 145 138 130
0.10825044 0.37455678 -0.84538901 148 138 129
0.10890118 0.37469509 -0.84433222 146 139 128
0.10850956 0.3752045 -0.84521693 146 139 130
0.10889665 0.37559563 -0.84471798 145 138 129
0.10887827 0.37431249 -0.84421086 147 138 128
0.10815897 0.37494472 -0.84570855 147 138 129
0.10653532 0.3691799 -0.84581178 86 143 124
0.10707733 0.37053004 -0.8455705 105 141 124
0.10708957 0.37202382 -0.84599733 129 139 127
0.10699859 0.37232503 -0.84619379 134 138 127
0.10642408 0.36915624 -0.84593618 86 143 124
0.10626088 0.36984387 -0.84633207 98 142 125
0.10759071 0.3700974 -0.8447119 95 143 123
0.10858296 0.3730031 -0.84416527 149 138 128
0.10765565 0.37180808 -0.84514976 123 140 126
0.10757101 0.37234354 -0.84545273 132 139 127
0.10660741 0.36880147 -0.84549862 82 143 123
0.10653968 0.36903659 -0.84572852 84 143 123
0.10639885 0.36823884 -0.84517527 80 143 124
0.10514306 0.36707178 -0.84562057 81 140 125
0.10618077 0.36791384 -0.84510303 80 142 124
0.10518699 0.36702853 -0.84550214 81 140 125
0.10659005 0.36654696 -0.84508854 111 141 125
0.10728946 0.36690521 -0.84492308 116 143 124
0.10594817 0.3660529 -0.84525096 109 140 126
0.10614918 0.36610749 -0.8452065 111 140 126
0.10698 0.36544457 -0.8450796 136 140 125
0.10793447 0.3655909 -0.84439039 143 140 126
0.10776924 0.36832824 -0.84425843 93 143 123
0.1068029 0.36338201 -0.84520006 133 141 125
0.10756662 0.36501545 -0.84480637 147 140 126
0.10606859 0.35810259 -0.84565693 109 138 129
0.1066229 0.35775259 -0.84517556 116 138 130
0.10691548 0.3578414 -0.84481984 120 137 130
0.10715804 0.35991478 -0.84464997 130 140 127
0.10580233 0.35960209 -0.84561175 107 138 129
0.10693309 0.36010435 -0.84481394 127 140 127
0.1071304 0.35862705 -0.84464663 126 138 129
0.10591076 0.35716566 -0.84602082 109 139 129
0.1061087 0.35530946 -0.84530687 100 139 128
0.10599793 0.35548791 -0.84537256 103 139 129
0.10645416 0.35611281 -0.84506625 111 139 129
0.10749131 0.35644254 -0.84439158 116 137 130
0.1077593 0.35557315 -0.8442198 108 137 128
0.10753787 0.35037121 -0.84452945 84 138 123
0.10797089 0.35210168 -0.84418827 87 138 125
0.10784625 0.34946641 -0.84437358 92 139 124
0.10820601 0.34888342 -0.84420311 106 139 125
0.1058831 0.37735173 -0.83224124 114 137 129
0.10592976 0.3776572 -0.83237553 113 136 129
0.1055662 0.37568042 -0.83154875 110 137 128
0.10450614 0.37408555 -0.8291806 94 137 128
0.10478044 0.37259692 -0.83008277 93 138 127
0.10445855 0.37206277 -0.82934904 94 138 128
0.1051465 0.37274963 -0.83100569 93 139 127
0.10423809 0.37216476 -0.8287555 93 138 128
0.10348949 0.36529309 -0.82852727 146 145 129
0.10423861 0.36775652 -0.82955396 106 139 128
0.10401434 0.36642504 -0.8293919 124 142 128
0.10492984 0.3660104 -0.83149564 105 140 127
0.10455059 0.36541075 -0.83081436 120 142 128
0.10425934 0.36705825 -0.8297714 112 140 128
0.10379709 0.36789319 -0.82855493 116 140 128
0.10509217 0.3658317 -0.83190429 102 140 127
0.10506443 0.36622617 -0.831779 102 139 127
0.10386028 0.36483032 -0.82929152 137 143 129
0.10394915 0.36376563 -0.82932264 134 141 129
0.10431724 0.36305711 -0.83001727 124 138 130
0.10438789 0.36297876 -0.83015943 122 138 130
0.104154 0.36475489 -0.8299216 130 142 129
0.10478403 0.36444271 -0.8312487 114 139 129
0.10531199 0.36175716 -0.83225447 134 137 128
0.10409252 0.36208349 -0.82938659 129 138 131
0.10470589 0.36335996 -0.8309437 119 138 129
0.10478012 0.36154845 -0.83097565 134 137 129
0.10504071 0.36448625 -0.83182788 109 139 128
0.10524328 0.36316279 -0.83220327 121 138 128
0.10477305 0.35860854 -0.83098322 107 142 127
0.10362612 0.35756704 -0.82889867 95 140 129
0.103597 0.35765058 -0.82882732 96 140 129
0.10425161 0.35847738 -0.82997829 105 140 128
0.10405202 0.35866809 -0.82955337 107 140 129
0.10485248 0.35809237 -0.83122587 102 142 127
0.10536121 0.35764995 -0.83232367 97 143 126
0.10476777 0.35936952 -0.83092171 115 140 128
0.10517578 0.35950282 -0.8318904 117 140 127
0.10431767 0.36015475 -0.82985646 123 139 130
0.10535101 0.35854471 -0.83230275 107 142 126
0.10525134 0.3579295 -0.83206397 100 142 126
0.10479998 0.35732397 -0.83120912 95 142 126
0.10453101 0.35624239 -0.83035767 94 141 127
0.10460082 0.35662514 -0.83061194 94 141 127
0.10412885 0.35591674 -0.82947302 94 139 128
0.10375686 0.35672638 -0.82899749 93 140 128
0.10493644 0.35717273 -0.83143532 95 142 126
0.10527189 0.35560969 -0.83172899 98 141 127
0.1056124 0.3536993 -0.83204603 104 139 129
0.10499658 0.3554734 -0.83109605 97 141 127
0.10558982 0.3540239 -0.83206934 103 139 129
0.1054101 0.35394356 -0.83165807 102 139 128
0.10543091 0.35418266 -0.83175719 102 139 128
0.10547826 0.35285473 -0.83179903 103 139 129
0.10496066 0.35123599 -0.8307426 104 139 128
0.10456153 0.35068324 -0.83000612 99 139 128
0.10550021 0.35029691 -0.83154857 124 138 129
0.1051685 0.35047433 -0.83100808 115 139 129
0.1056191 0.35184741 -0.83192372 115 139 129
0.10444364 0.3535046 -0.82944918 98 138 128
0.10459931 0.35161647 -0.8300721 96 140 127
0.10431449 0.35131982 -0.82949322 94 140 127
0.10407883 0.35232452 -0.82882726 94 138 128
0.10405725 0.3522301 -0.82879424 94 138 128
0.10486502 0.35256898 -0.83051115 99 139 128
0.10542965 0.34732816 -0.83116305 122 140 130
0.10592394 0.34775355 -0.83225012 124 141 130
0.10547956 0.34662205 -0.83133054 115 142 129
0.10550771 0.3465423 -0.83140051 114 142 129
0.10525334 0.3490406 -0.83094227 125 139 129
0.10500189 0.34839004 -0.83038944 121 139 129
0.10403227 0.34741294 -0.82855904 102 140 128
0.10406289 0.34954625 -0.82903063 96 140 127
0.10489096 0.34812814 -0.83015043 120 139 130
0.10565299 0.34427434 -0.8320995 99 143 129
0.10519716 0.3424567 -0.83137727 95 139 129
0.10556767 0.34287831 -0.83234346 95 140 128
0.10585522 0.34534714 -0.83232427 103 144 129
0.10436074 0.34338722 -0.82891494 101 139 129
0.10426499 0.34376469 -0.82869011 103 138 130
0.1043456 0.34560376 -0.82883435 111 140 130
0.10483789 0.34346381 -0.82999438 99 140 129
0.10474616 0.34356996 -0.82978433 99 140 129
0.10502637 0.34457931 -0.83039814 103 142 129
0.11203542 0.40096146 -0.85586226 127 142 128
0.10121024 0.37491503 -0.82394367 102 137 128
0.10151338 0.37331235 -0.82428241 105 138 127
0.10130528 0.37418261 -0.82404006 102 138 127
0.10097899 0.37384924 -0.82358772 96 138 127
0.10130957 0.37536198 -0.82409614 105 137 128
0.099407218 0.37018782 -0.82143611 87 135 125
0.099276401 0.3694306 -0.82127476 92 134 126
0.09910509 0.36977094 -0.82110476 90 134 126
0.10102766 0.36934012 -0.8235153 109 136 125
0.10157435 0.37054357 -0.82428032 111 138 125
0.10022866 0.36998481 -0.82246864 99 136 126
0.10119036 0.37118408 -0.82378709 106 138 126
0.10129567 0.3714703 -0.8239361 107 137 126
0.099941567 0.37043789 -0.82209575 91 136 126
0.10014951 0.37095276 -0.82238781 92 136 126
0.10116439 0.37211064 -0.82377928 103 138 127
0.10028813 0.37071851 -0.82256806 97 136 126
0.098989092 0.36830071 -0.82091969 99 135 127
0.099051148 0.36824897 -0.82098281 99 135 127
0.098868623 0.36820626 -0.82078135 101 135 127
0.10172413 0.36860049 -0.82444412 115 137 125
0.10071289 0.36713666 -0.82299256 117 137 128
0.10108072 0.3662428 -0.82359558 108 137 126
0.10011404 0.36537975 -0.82217973 113 137 129
0.10113171 0.36722666 -0.82362092 113 137 126
0.10151424 0.36858287 -0.82413083 117 137 125
0.099684082 0.36704805 -0.82161373 107 136 128
0.10148436 0.36859569 -0.82409161 116 137 125
0.10117504 0.36867929 -0.82368314 113 136 126
0.10078031 0.3675063 -0.82309866 115 137 127
0.099203475 0.36422369 -0.82092083 123 138 129
0.099268265 0.36278725 -0.82092959 131 139 129
0.1009894 0.3635588 -0.82348371 110 139 125
0.10103635 0.36222172 -0.82369304 107 140 127
0.10006522 0.36160988 -0.82203531 129 140 128
0.099858351 0.36157382 -0.82167327 133 140 127
0.10093243 0.36230236 -0.82350183 109 140 126
0.099964462 0.36491954 -0.82194781 115 138 129
0.09992861 0.36197779 -0.82176709 132 140 127
0.10131548 0.36512974 -0.82399911 101 138 125
0.10059163 0.3643257 -0.82287025 112 139 126
0.10034534 0.36480081 -0.82251841 112 138 127
0.099549294 0.35974318 -0.82115704 118 139 126
0.099245697 0.35801601 -0.82078975 97 137 124
0.099951029 0.35743216 -0.82174879 82 137 124
0.10133056 0.35987052 -0.82420903 84 139 125
0.1015159 0.36096302 -0.82459652 91 140 127
0.10129707 0.35986325 -0.82415318 84 139 125
0.10151903 0.36002493 -0.82453185 83 139 126
0.099688321 0.36052904 -0.82138121 126 140 127
0.10048941 0.36075824 -0.82280064 111 140 127
0.10003806 0.36013132 -0.82199162 114 139 127
0.10099445 0.36066413 -0.82369113 98 139 127
0.10046332 0.36129904 -0.82276469 119 140 127
0.099592 0.35360041 -0.8208254 95 136 130
0.10096456 0.35398197 -0.82306451 94 136 129
0.10049346 0.35499704 -0.82242399 82 135 128
0.10126988 0.35586983 -0.82376933 74 136 126
0.101417 0.35390431 -0.82378173 96 137 129
0.10124413 0.35542664 -0.8236776 79 136 127
0.10163544 0.3537052 -0.82410961 99 137 129
0.099690653 0.35424888 -0.82103598 93 136 129
0.10018971 0.35495555 -0.82192314 84 136 128
0.10048408 0.35582864 -0.822487 78 135 127
0.10035647 0.3549968 -0.82220227 82 136 128
0.099912241 0.35700846 -0.82164723 84 137 125
0.10180394 0.3534568 -0.8243503 101 138 129
0.10085422 0.35339049 -0.82281697 98 137 130
0.10080174 0.35295808 -0.82267094 95 137 129
0.10077461 0.35195702 -0.82246882 87 136 128
0.10147229 0.35287648 -0.82372874 96 138 128
0.10043396 0.35082862 -0.82174593 78 136 127
0.10047586 0.35090154 -0.82182443 79 136 127
0.10106785 0.3505502 -0.82283425 77 136 126
0.10146995 0.35204235 -0.8236441 90 137 128
0.10073059 0.35005531 -0.8222034 73 135 126
0.10134276 0.35074523 -0.82333499 79 137 126
0.10041569 0.35037759 -0.82166475 75 136 126
0.1008715 0.34669757 -0.82208771 78 136 126
0.10068995 0.34648168 -0.8217265 76 136 127
0.10174042 0.34630758 -0.82374269 111 136 128
0.10116505 0.3461408 -0.8226248 96 136 127
0.10136894 0.34594214 -0.82300758 105 136 128
0.10207977 0.3444857 -0.82440323 119 137 129
0.10187306 0.34269825 -0.82406545 99 137 128
0.10131899 0.34339222 -0.82313913 101 135 128
0.10189328 0.34548998 -0.82404035 124 136 129
0.10153194 0.34566694 -0.82331526 114 136 128
0.10032781 0.34367609 -0.8213141 80 135 127
0.10168842 0.34537843 -0.82366341 119 136 128
0.10098357 0.34114364 -0.82274479 78 135 127
0.1008945 0.34102279 -0.82262564 77 135 127
0.10703875 0.37819225 -0.83529633 118 137 129
0.1073838 0.37826034 -0.83621734 121 137 128
0.10633644 0.37727728 -0.83335936 119 137 128
0.10737498 0.37706575 -0.83609825 131 137 128
0.10617086 0.378227 -0.83304435 110 137 128
0.10742474 0.37719658 -0.83624393 130 137 128
0.10689497 0.37685466 -0.83485943 126 137 128
0.10613754 0.37690386 -0.83282548 119 137 128
0.10699621 0.37503892 -0.8357895 107 138 127
0.10722847 0.37568927 -0.83617502 117 137 128
0.1064067 0.37379208 -0.83447874 94 139 127
0.1058348 0.37316978 -0.83278495 93 139 127
0.10596564 0.37314263 -0.83321154 92 138 127
0.10637692 0.37370464 -0.83440322 92 140 126
0.10612096 0.37082052 -0.8341493 91 137 127
0.10650261 0.37207136 -0.83513731 88 138 127
0.10574522 0.37275991 -0.83257812 93 139 127
0.10577149 0.37162167 -0.83287132 94 138 127
0.10670292 0.3729797 -0.8356142 85 140 126
0.10587514 0.36645809 -0.83428866 104 138 127
0.10647982 0.36628976 -0.83599049 105 137 128
0.10561708 0.36540008 -0.83343893 103 139 127
0.10540822 0.36555663 -0.83286184 103 139 127
0.1062159 0.36573097 -0.83517867 105 138 127
0.10538473 0.36619988 -0.83266973 102 139 127
0.10562592 0.36655715 -0.83353263 104 139 127
0.10639255 0.36337957 -0.83526266 114 138 128
0.1063574 0.36236882 -0.83490998 117 139 127
0.10585286 0.36250138 -0.83378565 126 138 127
0.10674755 0.36237299 -0.83580804 109 140 126
0.1063979 0.36359656 -0.83533329 113 138 128
0.10567464 0.36159265 -0.83313149 132 137 128
0.10542489 0.36288098 -0.83264953 124 138 128
0.10621604 0.36392912 -0.83500028 116 138 128
0.10542046 0.36329192 -0.83267611 120 138 128
0.1056307 0.36212099 -0.83316255 131 137 128
0.10550641 0.36194339 -0.83279204 132 137 128
0.1062585 0.3647477 -0.83519918 109 138 128
0.10563454 0.35747683 -0.83290488 97 143 126
0.10701252 0.35889471 -0.83589554 109 141 127
0.10589529 0.35760272 -0.83345556 100 142 126
0.10720624 0.35801384 -0.8362003 112 140 128
0.10681071 0.35784853 -0.83536774 109 141 127
0.1063683 0.3591513 -0.8345958 102 142 125
0.10670716 0.3613016 -0.83543402 113 140 126
0.10672526 0.36124319 -0.83547539 112 140 126
0.10568418 0.35921171 -0.83307481 109 141 126
0.10615105 0.35929531 -0.83414841 101 142 125
0.10597149 0.35898465 -0.83373451 101 142 125
0.1058984 0.36126262 -0.83357447 128 138 127
0.1066201 0.3545545 -0.83460045 105 140 129
0.10688792 0.35589385 -0.83527339 110 139 129
0.10725737 0.35495341 -0.83631623 102 140 128
0.10664608 0.35509598 -0.83464879 108 139 129
0.1071675 0.35567835 -0.83604217 106 140 128
0.10637089 0.3538754 -0.83395088 103 139 129
0.10560796 0.35610425 -0.83256626 99 141 127
0.10658214 0.35695696 -0.8347531 108 140 128
0.10620513 0.35609749 -0.83379507 106 141 127
0.1063413 0.3564789 -0.83415604 106 141 127
0.10645702 0.35731527 -0.83457088 106 142 127
0.10615599 0.3564491 -0.83376801 104 141 127
0.10733818 0.3522746 -0.8361001 105 140 128
0.10713411 0.35192877 -0.83552468 111 140 129
0.10727021 0.35147607 -0.8356455 114 140 128
0.10728149 0.35103953 -0.83550954 119 140 128
0.10693015 0.35081178 -0.83468688 123 139 129
0.10626492 0.35162261 -0.8333351 121 139 130
0.10629353 0.35145912 -0.83338332 122 139 130
0.1064847 0.35331517 -0.83423865 102 139 129
0.10638593 0.35204524 -0.83374047 116 139 130
0.10665286 0.35272706 -0.83458936 106 139 129
0.10595717 0.35244554 -0.83264744 115 139 129
0.10745393 0.35068113 -0.83585292 119 140 128
0.1071383 0.34800184 -0.83504337 122 141 129
0.10733207 0.3464075 -0.83580661 109 142 128
0.10715376 0.34782207 -0.83511597 121 141 128
0.10636611 0.34712163 -0.83339179 117 142 129
0.10612569 0.34613988 -0.83287418 108 144 129
0.10691304 0.34705251 -0.83476532 116 141 128
0.10758739 0.3487795 -0.83626789 116 142 127
0.10733512 0.34562838 -0.8359499 104 143 127
0.10737441 0.34431434 -0.83628732 123 142 126
0.10605907 0.34548157 -0.83278382 107 145 128
0.10727398 0.34478503 -0.83595556 116 143 127
0.10653149 0.34493306 -0.83406389 114 143 128
0.1061806 0.34351844 -0.83355731 116 142 128
0.10604278 0.344116 -0.83309275 110 143 128
0.1061026 0.34505787 -0.83297646 111 144 128
0.10615461 0.34134576 -0.83392787 117 139 127
0.10597707 0.34149075 -0.83354193 110 139 128
0.10571241 0.34126371 -0.83293986 101 139 128
0.10577382 0.34117508 -0.83307105 103 139 128
0.1108845 0.40302214 -0.84896332 120 140 129
0.11085955 0.40257189 -0.84849697 123 140 129
0.11143935 0.40095705 -0.84858328 126 142 130
0.11145625 0.40047538 -0.84823525 127 142 130
0.11180513 0.39735401 -0.85142881 133 141 130
0.11188478 0.39800063 -0.85171765 126 143 128
0.11169693 0.39775777 -0.85016775 133 142 129
0.11151742 0.39679363 -0.84918267 145 141 130
0.11164313 0.39676255 -0.85035098 142 141 131
0.11182419 0.39703321 -0.85182005 134 142 130
0.11164818 0.40017346 -0.84933281 121 143 129
0.11156392 0.39819247 -0.84903371 135 142 129
0.11160763 0.39907825 -0.84920359 128 142 129
0.11156326 0.39937159 -0.8489064 129 142 130
0.11146598 0.4003588 -0.8482185 127 142 130
0.11178821 0.39578494 -0.85168147 141 140 132
0.11163615 0.39287508 -0.84952581 150 135 136
0.11171262 0.39531523 -0.85086322 143 139 133
0.11172704 0.3951728 -0.85095912 143 139 133
0.11176689 0.39339793 -0.85086578 146 137 135
0.1117796 0.39292085 -0.85085911 147 136 136
0.11159354 0.39619762 -0.85001093 145 140 131
0.1115908 0.39447972 -0.84952825 148 136 134
0.11144534 0.39548996 -0.84846985 151 138 132
0.11141332 0.3952513 -0.84811401 151 138 133
0.11144465 0.39632306 -0.8486855 150 139 131
0.11166746 0.39550608 -0.85050124 144 139 132
0.11214016 0.38992968 -0.85097396 151 141 131
0.11196172 0.39103529 -0.85055137 147 140 133
0.11210276 0.39071095 -0.85157984 150 140 133
0.11202909 0.39009854 -0.85005468 149 141 131
0.11222809 0.38907963 -0.85079652 153 142 130
0.11198411 0.39118659 -0.8509708 148 139 133
0.11166031 0.39205986 -0.84902966 150 135 135
0.11183015 0.39186352 -0.85035115 148 137 135
0.1119126 0.39212269 -0.85143161 146 138 135
0.11193868 0.39106342 -0.85036027 147 140 133
0.11173334 0.39083275 -0.84818298 151 137 133
0.11216661 0.38589811 -0.84919792 159 142 131
0.11208743 0.3851158 -0.84951013 157 142 131
0.11208007 0.3850714 -0.84972727 157 142 131
0.11217199 0.38612112 -0.85030842 157 142 131
0.11223396 0.38691133 -0.8512491 156 143 130
0.11208473 0.38518196 -0.85013896 156 142 131
0.11216423 0.38688192 -0.84932166 157 143 130
0.11209473 0.38571382 -0.84841156 158 142 131
0.11232346 0.3884328 -0.85121268 156 143 130
0.11205238 0.38670164 -0.84814996 155 142 130
0.1121669 0.38633654 -0.84925497 158 142 130
0.10975357 0.38190708 -0.8516295 132 141 130
0.10954433 0.38260669 -0.85169262 129 141 130
0.11162654 0.38123634 -0.85179359 149 142 133
0.11194383 0.38408995 -0.85192299 152 143 132
0.11175255 0.38218793 -0.8495816 148 140 132
0.11173177 0.38214096 -0.85131609 149 142 132
0.11177297 0.38255724 -0.85190201 150 142 132
0.11178613 0.38250038 -0.84972519 148 140 132
0.11188727 0.38335124 -0.84959853 152 141 131
0.11185689 0.38297087 -0.84861475 152 141 132
0.11202855 0.38438341 -0.84816527 159 141 131
0.11203582 0.38451731 -0.84875107 158 142 131
0.11190572 0.38344714 -0.84909397 154 141 132
0.11192637 0.3836455 -0.84927207 154 141 132
0.10692071 0.37731811 -0.84905249 133 138 130
0.10801237 0.37977895 -0.84969062 131 138 130
0.10800387 0.37936801 -0.84947503 134 138 130
0.10758208 0.37940615 -0.84922934 131 138 130
0.108352 0.3792707 -0.84964412 137 139 131
0.1094165 0.37991983 -0.85064548 140 140 132
0.10989335 0.37950945 -0.85072482 145 140 132
0.10942452 0.37903565 -0.85018837 146 139 132
0.10917536 0.37850192 -0.84951442 147 139 132
0.11038449 0.3793819 -0.85067189 148 140 132
0.11075928 0.3788054 -0.84832054 153 139 132
0.10833329 0.37782654 -0.84850878 147 138 132
0.10933882 0.37843242 -0.84906948 148 139 132
0.10954238 0.37821239 -0.84808934 151 138 132
0.11155002 0.38072911 -0.85013413 147 140 133
0.11156365 0.38072744 -0.8487612 147 139 132
0.11153403 0.38050288 -0.84866244 147 139 132
0.10677452 0.37662458 -0.84887916 134 137 131
0.10239182 0.37716645 -0.82569855 108 136 129
0.10293697 0.37673676 -0.82644564 108 137 128
0.10264415 0.37512514 -0.8258568 114 139 128
0.10281941 0.376665 -0.82626951 109 136 129
0.10347035 0.37533087 -0.82706362 108 138 128
0.10246629 0.37537637 -0.82562792 114 138 129
0.10215183 0.37339425 -0.82512724 111 139 127
0.10243261 0.37330809 -0.82548946 112 139 128
0.1028298 0.37394172 -0.82603306 114 139 128
0.10296717 0.3741748 -0.8262217 114 139 128
0.10317047 0.37025398 -0.82674956 116 139 127
0.10323859 0.37126684 -0.82672596 116 139 127
0.10315356 0.37226173 -0.82650489 114 139 127
0.10315748 0.37039855 -0.8267166 116 139 127
0.10326265 0.3694796 -0.82692212 118 138 127
0.10223711 0.37167466 -0.82532912 112 138 127
0.10204098 0.37173277 -0.82501137 112 138 127
0.10221639 0.37031174 -0.82524586 115 138 126
0.10357848 0.37170097 -0.82718521 114 139 127
0.1037068 0.37144917 -0.82751286 109 139 127
0.10367367 0.37302765 -0.82726049 109 139 128
0.10218184 0.36895025 -0.82520968 119 138 125
0.10307761 0.36720955 -0.82724297 132 142 127
0.10335283 0.36718231 -0.82770073 132 142 127
0.10300422 0.36687678 -0.82723266 134 142 127
0.10267422 0.36559841 -0.82670921 126 142 126
0.10271413 0.3658773 -0.82677627 128 142 126
0.10197458 0.36854672 -0.82492721 118 138 125
0.1026185 0.36662233 -0.8265062 128 141 126
0.10213637 0.36736512 -0.82537788 117 139 125
0.1021226 0.36572105 -0.8254745 111 139 125
0.10367546 0.36880884 -0.82790309 115 139 128
0.1022727 0.36174315 -0.82598108 111 140 128
0.10278116 0.36345094 -0.82708418 127 142 128
0.10313725 0.36304969 -0.82764262 132 142 129
0.10232902 0.36192226 -0.8261019 113 141 128
0.10321129 0.36447084 -0.82796031 139 144 129
0.10213241 0.36194953 -0.82576752 109 140 128
0.10190839 0.36508623 -0.82505387 102 139 124
0.10242067 0.36499199 -0.82620293 117 141 126
0.10246191 0.36452678 -0.82634979 119 142 126
0.10178073 0.36237577 -0.82509243 102 140 127
0.10245018 0.3636232 -0.82643116 120 142 127
0.10309913 0.36510724 -0.8276962 136 144 127
0.10341018 0.3601833 -0.8280713 120 138 130
0.10340444 0.36063087 -0.82798707 124 138 130
0.10239725 0.36022419 -0.82632303 101 140 128
0.10306358 0.36000255 -0.82750547 112 139 129
0.10272492 0.35912451 -0.82705677 96 140 128
0.10340229 0.3575826 -0.82846367 94 140 129
0.1028059 0.35832757 -0.82722801 89 140 128
0.10234774 0.35807699 -0.82617146 77 139 126
0.10250124 0.35893887 -0.82660431 90 140 127
0.10163162 0.36091816 -0.82484794 93 140 127
0.10241011 0.35765976 -0.82626951 75 137 126
0.10270855 0.35875082 -0.82705182 92 140 128
0.10284846 0.3553122 -0.82682866 97 139 129
0.10328897 0.35697359 -0.82814032 93 140 129
0.10273182 0.35410628 -0.82627165 97 138 129
0.10295873 0.35403362 -0.826693 96 139 129
0.10305092 0.35484678 -0.82709497 95 139 129
0.10251927 0.35685641 -0.82640082 80 138 126
0.10195132 0.35554814 -0.82491374 81 137 127
0.10278119 0.35676256 -0.82697529 87 138 128
0.10236456 0.35569185 -0.82586676 88 138 128
0.10253131 0.35581979 -0.82626247 91 138 128
0.10381529 0.35361391 -0.82818747 95 138 128
0.10326257 0.35332799 -0.8271603 94 138 128
0.10291837 0.35271323 -0.82655025 94 138 128
0.10326104 0.35214159 -0.82727176 91 139 128
0.10336833 0.35226068 -0.82746899 91 139 127
0.10265508 0.34989876 -0.82596672 78 138 126
0.10282534 0.35043716 -0.82642287 84 138 127
0.10211489 0.35296074 -0.82493329 98 138 128
0.10249164 0.35057017 -0.82563186 83 138 126
0.10250065 0.35205349 -0.82578224 94 138 128
0.1038115 0.35050812 -0.82851398 89 140 127
0.10378771 0.35310903 -0.82815111 93 138 128
0.1033317 0.34637854 -0.82679713 120 138 129
0.10275877 0.34859604 -0.82594895 89 138 126
0.10342249 0.34730372 -0.82723647 110 138 129
0.10300106 0.34729549 -0.82622093 107 137 128
0.10327911 0.34902909 -0.82730383 88 139 126
0.10280156 0.34670609 -0.82578278 116 138 128
0.10224602 0.34860656 -0.8248316 88 136 126
0.10261205 0.34619254 -0.8253994 125 137 129
0.1026366 0.34718096 -0.82549578 109 137 128
0.10395785 0.34779662 -0.82850713 99 140 128
0.10385963 0.3483274 -0.82843131 97 140 128
0.10360313 0.3490822 -0.82807302 91 140 127
0.10286374 0.3437537 -0.82583117 115 137 129
0.10262133 0.34466735 -0.82538253 123 137 129
0.10316567 0.34292403 -0.82639283 106 137 129
0.10225122 0.34569162 -0.82469416 133 137 129
0.10247406 0.34303671 -0.82511503 106 137 129
0.10273068 0.34228623 -0.82559174 99 137 129
0.10243045 0.34260505 -0.82503635 101 137 128
0.10256474 0.34419107 -0.82527739 118 137 129
0.10389343 0.34274074 -0.82787347 99 137 130
0.1039032 0.34362176 -0.82787722 103 138 130
0.103961 0.34407708 -0.82799792 105 139 130
0.1036386 0.34483272 -0.8273263 119 138 130
0.10382123 0.34425184 -0.82770133 109 138 130
0.1072492 0.40078437 -0.84115946 124 139 128
0.10901753 0.40066451 -0.84396672 132 139 131
0.1077653 0.40053344 -0.84193832 129 139 130
0.10831608 0.40161049 -0.84346431 124 139 130
0.10727869 0.39958742 -0.84045208 125 139 128
0.10755154 0.39967158 -0.84115106 127 139 129
0.1082428 0.39933607 -0.84205502 129 138 130
0.10848444 0.39864835 -0.84219754 128 138 130
0.10811958 0.3981173 -0.84137404 125 138 129
0.1078005 0.39758074 -0.84062696 123 137 129
0.10861559 0.39680883 -0.84187609 124 138 129
0.10916037 0.39737362 -0.84308952 128 138 129
0.10863904 0.39682803 -0.84192681 124 138 129
0.10956758 0.39713696 -0.84379995 130 138 129
0.10898846 0.39910474 -0.84327656 131 138 130
0.10938594 0.39693019 -0.84338987 128 138 129
0.10995527 0.39432129 -0.84368896 133 137 130
0.1097784 0.39295048 -0.84285986 133 137 130
0.10932972 0.39397824 -0.84219688 125 139 129
0.1096838 0.39328232 -0.84275693 131 138 130
0.10905095 0.39359882 -0.84145957 122 139 130
0.11018435 0.39286631 -0.84373009 138 137 131
0.10893793 0.39620101 -0.84228146 124 138 129
0.10892596 0.39613649 -0.84223217 124 138 129
0.10932931 0.39571407 -0.8428328 126 138 129
0.10871357 0.39462063 -0.84120393 121 138 129
0.10897127 0.39630157 -0.84238666 125 138 129
0.10869061 0.39630905 -0.84185135 124 137 128
0.11052624 0.3909761 -0.84391785 145 138 130
0.11046588 0.38937971 -0.8433997 146 138 130
0.11045667 0.39137036 -0.84390241 143 137 131
0.11032487 0.38897061 -0.84305376 144 139 130
0.11014669 0.38897604 -0.84275258 141 139 130
0.10930487 0.38932496 -0.84141409 128 139 130
0.10876985 0.39064321 -0.84043986 120 139 130
0.10944754 0.39059472 -0.84193558 129 139 130
0.10938331 0.39076081 -0.84179991 128 139 130
0.10919839 0.3911455 -0.84140563 126 138 130
0.1088549 0.38930926 -0.84057796 121 140 129
0.1093552 0.3906543 -0.84173375 128 138 130
0.11032677 0.38528767 -0.84243757 150 138 130
0.11035944 0.38502905 -0.84246546 151 138 130
0.11100632 0.38616675 -0.84381372 161 139 131
0.11104704 0.38774896 -0.84409064 158 138 131
0.11081975 0.3864207 -0.84349889 157 138 131
0.11026125 0.38686585 -0.84251642 144 138 130
0.10969074 0.38844222 -0.84185249 135 139 130
0.10993154 0.38748041 -0.84206569 139 138 129
0.10935014 0.38649681 -0.84087843 130 138 129
0.11046228 0.38750815 -0.84297252 147 138 130
0.10941505 0.3861903 -0.84092623 132 137 130
0.11033524 0.38761672 -0.84277892 145 138 130
0.11009696 0.38118786 -0.84323126 147 139 131
0.11095825 0.38411751 -0.84368813 164 139 131
0.11049488 0.38156796 -0.84407026 154 140 130
0.11011276 0.38206053 -0.84271139 147 139 130
0.10916217 0.38090941 -0.840864 130 138 129
0.11030498 0.38416591 -0.84240472 152 138 131
0.11051306 0.38350886 -0.84287292 156 139 131
0.11084212 0.38432935 -0.84338391 161 140 131
0.11021835 0.3834247 -0.84233493 150 138 131
0.10945144 0.38336101 -0.84091598 135 137 130
0.1103537 0.38361958 -0.84256274 153 138 131
0.10971185 0.37855849 -0.84341729 144 139 130
0.10959657 0.37713295 -0.84411782 142 139 129
0.10999134 0.3792558 -0.84398359 147 139 130
0.10892017 0.37709454 -0.84139365 138 139 129
0.10917129 0.37781698 -0.84182376 141 140 129
0.1094184 0.38066083 -0.84163773 135 139 130
0.10915721 0.37855229 -0.84138501 139 139 129
0.10889378 0.37813798 -0.84075743 137 139 130
0.10895569 0.37991193 -0.84054005 131 138 130
0.10883055 0.37774363 -0.840671 138 139 129
0.10880303 0.37908828 -0.84030342 131 138 129
0.10844865 0.37429023 -0.84172857 127 139 129
0.10926047 0.37614623 -0.84358138 139 138 129
0.1090677 0.37521309 -0.84376734 142 139 129
0.10896327 0.37450004 -0.84413201 146 139 128
0.10810816 0.37317508 -0.84137946 127 139 128
0.10860553 0.37386668 -0.843081 139 139 128
0.10855117 0.37599134 -0.84075981 133 139 129
0.10887918 0.37548795 -0.84249043 132 139 129
0.10892713 0.37664604 -0.84177864 137 139 129
0.10912642 0.37643668 -0.84275454 137 139 129
0.10816694 0.37445375 -0.84039885 125 139 128
0.10813132 0.37087932 -0.84366369 112 141 125
0.10786782 0.36959031 -0.84094644 97 144 125
0.10839052 0.37205052 -0.84379089 133 140 127
0.10777239 0.36927393 -0.84392142 81 144 122
0.10788754 0.36969456 -0.84135473 98 144 125
0.10792004 0.36986437 -0.84197456 98 144 124
0.10848071 0.37291896 -0.84348923 143 139 128
0.10798923 0.37252167 -0.8409825 120 140 127
0.10798464 0.37212926 -0.84100145 117 141 127
0.10793151 0.37053123 -0.84089983 106 143 126
0.10816093 0.37097973 -0.84204137 119 142 126
0.10789157 0.36716303 -0.84297043 115 141 125
0.10794724 0.36606118 -0.84182608 135 140 126
0.10798705 0.36646003 -0.84328616 128 140 125
0.10791399 0.36721712 -0.84346521 114 141 124
0.10797244 0.36606342 -0.84226978 135 140 126
0.10776281 0.36902344 -0.84217477 86 144 123
0.10777371 0.36877748 -0.84217477 90 144 124
0.10780869 0.36807764 -0.84170067 102 143 125
0.10781761 0.36790702 -0.84154028 105 143 125
0.10782979 0.36782259 -0.84053981 110 143 126
0.10776591 0.36867088 -0.843656 86 144 122
0.10802601 0.36149803 -0.84043419 156 141 128
0.1080421 0.36297622 -0.84240484 151 140 127
0.10793815 0.36282286 -0.84344923 146 141 126
0.10780916 0.3613638 -0.84288508 144 142 126
0.10814485 0.36496177 -0.8440612 149 139 126
0.10802775 0.36343044 -0.84324592 149 140 126
0.10804031 0.36410546 -0.84148353 151 140 128
0.10810891 0.36504173 -0.8429935 150 139 127
0.10810699 0.36514735 -0.84299558 150 139 127
0.10808086 0.36518958 -0.84255385 150 139 127
0.10810873 0.36466855 -0.84286547 150 139 127
0.10792574 0.35770312 -0.8415693 115 141 126
0.10775787 0.35956094 -0.84402937 134 141 127
0.10782956 0.35855931 -0.84310693 127 140 128
0.1078181 0.35940322 -0.84283328 126 141 126
0.10777917 0.35907084 -0.84387392 133 140 128
0.10800114 0.35961196 -0.84034914 134 141 127
0.10793693 0.3584159 -0.84103596 115 141 126
0.10790011 0.36083201 -0.84168196 143 142 127
0.10795286 0.35986596 -0.84095925 134 141 127
0.10798357 0.36006284 -0.84060031 139 141 128
0.10787291 0.35621455 -0.84391201 118 138 129
0.10787468 0.35582751 -0.84402084 113 138 129
0.10794606 0.35441008 -0.84372842 98 137 128
0.10814279 0.35440588 -0.84163547 105 137 130
0.10814649 0.35359091 -0.84186482 95 138 128
0.10809179 0.35387108 -0.84235471 97 138 128
0.10813392 0.35541254 -0.84065276 105 139 128
0.10791256 0.35666582 -0.84329683 124 138 130
0.10807025 0.35570323 -0.8415305 112 138 129
0.10799847 0.3572697 -0.84043717 106 141 126
0.10786546 0.35717764 -0.84344721 127 138 130
0.10814697 0.35478914 -0.84142107 110 138 130
0.1082074 0.35036084 -0.84250164 90 140 125
0.10821702 0.35024053 -0.84246469 91 140 124
0.10809486 0.35185137 -0.84274131 88 139 125
0.10800474 0.35278121 -0.8435505 86 138 125
0.10808238 0.35161904 -0.84369814 89 139 125
0.10826468 0.35089299 -0.84082425 92 140 126
0.10822695 0.35065791 -0.84124327 89 140 125
0.1082866 0.35290134 -0.84044307 98 138 129
0.10826373 0.3512651 -0.8408069 92 140 126
0.10828524 0.35347795 -0.84041512 100 137 130
0.10830522 0.34842947 -0.84265131 110 140 125
0.1082397 0.34948844 -0.84335744 95 139 124
0.10828245 0.3488349 -0.84284484 104 139 125
0.10829838 0.34918195 -0.84183794 98 140 124
0.10830615 0.34847409 -0.84255856 109 140 125
0.10814908 0.33860931 -0.84168774 116 141 126
0.1083291 0.33996356 -0.84240192 122 142 125
0.10805226 0.33751458 -0.84170085 119 140 127
0.10800616 0.33738762 -0.84080213 108 140 126
0.10798667 0.33671203 -0.84111965 114 139 127
0.10805009 0.33777449 -0.84136039 113 140 126
0.11157775 0.39677221 -0.85450172 129 141 130
0.11164829 0.39751393 -0.85516137 128 142 130
0.11153919 0.39714861 -0.85552466 126 142 130
0.11194711 0.39828667 -0.85376304 136 142 129
0.11176802 0.39764139 -0.85427874 132 142 130
0.11204301 0.3994303 -0.85489058 133 142 129
0.1112382 0.39382496 -0.85385239 131 139 134
0.10989933 0.39447427 -0.85414529 120 137 132
0.11087107 0.39491951 -0.85463864 125 140 132
0.10982833 0.39399356 -0.85379505 120 138 132
0.1114983 0.39459866 -0.8541891 131 140 132
0.11184585 0.3947283 -0.85196781 142 139 133
0.1118199 0.39377052 -0.85245764 141 138 134
0.11180367 0.39490929 -0.85231102 140 140 133
0.11164512 0.39600414 -0.85349321 133 140 131
0.11165357 0.39585415 -0.85345399 134 140 132
0.11180957 0.39431724 -0.85241079 141 139 133
0.11103425 0.39154875 -0.85304826 135 140 133
0.11093335 0.39102262 -0.85312808 136 140 132
0.1108297 0.39124057 -0.85307693 133 140 132
0.10954654 0.3889626 -0.85331732 123 139 129
0.10955738 0.38976935 -0.85317701 120 139 130
0.11022621 0.39154986 -0.85297269 123 138 133
0.11150236 0.39079285 -0.85294926 143 140 132
0.11143865 0.38997278 -0.85319132 146 142 131
0.11212879 0.38913745 -0.85227627 154 143 131
0.11156479 0.39178848 -0.85267621 140 140 134
0.11191586 0.39058506 -0.85234505 147 141 132
0.11035058 0.3854976 -0.85267603 131 142 130
0.11069501 0.3862792 -0.85297638 136 142 130
0.11081745 0.3874509 -0.85325354 141 142 130
0.11089875 0.38553897 -0.85283631 138 143 130
0.11013898 0.38849941 -0.85340351 133 141 129
0.11187655 0.38529494 -0.8522287 151 142 131
0.11176809 0.38556886 -0.8524099 151 143 131
0.11195939 0.3871603 -0.85239655 154 143 131
0.11178486 0.38720742 -0.85267198 153 143 130
0.11170863 0.38798004 -0.85290271 153 143 130
0.1111176 0.3827647 -0.85242349 142 143 131
0.11132168 0.38392004 -0.85262007 143 143 131
0.11085199 0.38423073 -0.85250056 139 143 131
0.10999784 0.38253063 -0.85195607 133 141 131
0.1113356 0.38406569 -0.85262877 143 143 131
0.11161523 0.384247 -0.85233539 147 143 131
0 0 0 1 0 0 0 1 0 0 0 1 0 0 0 0 0 950 1 0 0
