ply
format ascii 1.0
comment PCL generated
element vertex 1036
property float x
property float y
property float z
property uchar red
property uchar green
property uchar blue
element camera 1
property float view_px
property float view_py
property float view_pz
property float x_axisx
property float x_axisy
property float x_axisz
property float y_axisx
property float y_axisy
property float y_axisz
property float z_axisx
property float z_axisy
property float z_axisz
property float focal
property float scalex
property float scaley
property float centerx
property float centery
property int viewportx
property int viewporty
property float k1
property float k2
end_header
0.25848207 -0.12295926 -0.86874014 16 132 116
0.25828844 -0.12294433 -0.86890626 16 132 116
0.25904179 -0.12626389 -0.86793786 16 132 117
0.25806028 -0.13074736 -0.86793679 15 132 117
0.25790367 -0.12879913 -0.86839563 16 132 116
0.25765732 -0.12901235 -0.86853921 16 132 116
0.25815341 -0.12979952 -0.86803091 15 132 116
0.25700259 -0.13164482 -0.86857432 15 132 115
0.25798264 -0.13134898 -0.86788517 15 132 117
0.25765419 -0.13134009 -0.86813647 15 132 116
0.28786725 -0.13805135 -0.86835539 21 140 123
0.28759411 -0.13758475 -0.868159 21 140 122
0.28713757 -0.14119399 -0.86758476 25 134 121
0.28816932 -0.14148515 -0.86845744 28 135 120
0.28969702 -0.14223012 -0.86973417 35 136 117
0.28861952 -0.14116399 -0.86886156 28 136 118
0.28792584 -0.13983808 -0.86833405 24 136 120
0.28748462 -0.1406001 -0.86791378 24 135 120
0.28765574 -0.14020258 -0.86808211 24 135 120
0.29085955 -0.14190482 -0.87072301 36 139 115
0.28852883 -0.13903181 -0.868837 21 138 121
0.28804624 -0.1392407 -0.86844873 21 137 121
0.29153526 -0.14205366 -0.87148106 43 139 115
0.291134 -0.1416427 -0.87099648 38 139 116
0.29086879 -0.14283289 -0.87069941 40 135 116
0.28944325 -0.14362222 -0.86939615 37 135 119
0.28824544 -0.14316879 -0.86841094 33 134 120
0.28998202 -0.14330868 -0.86989021 38 136 118
0.28775731 -0.14505722 -0.86788416 36 133 122
0.28789374 -0.14464648 -0.86801928 36 133 121
0.25093529 -0.15028608 -0.86979377 14 132 117
0.25110304 -0.1492736 -0.86989141 15 132 116
0.25199407 -0.15032941 -0.86862969 15 132 117
0.28895092 -0.14801414 -0.86869293 35 135 122
0.2893661 -0.14853455 -0.86900342 33 137 122
0.28970411 -0.15005808 -0.86921203 27 138 122
0.28994048 -0.14957379 -0.86942089 30 138 122
0.28907028 -0.15010314 -0.86870277 26 138 122
0.28831199 -0.14806677 -0.86817783 33 135 121
0.29022485 -0.15016061 -0.86962485 28 139 122
0.25130105 -0.15089631 -0.86917752 14 132 117
0.25099584 -0.15047175 -0.86966842 14 132 117
0.25056991 -0.15132229 -0.86982822 14 132 117
0.25093195 -0.15344322 -0.86891949 14 132 116
0.25176114 -0.15277199 -0.86827153 14 132 117
0.25177878 -0.15389206 -0.86799204 14 132 116
0.25156322 -0.15292861 -0.86842704 14 132 116
0.25267449 -0.15266584 -0.86758107 15 132 117
0.25275129 -0.15173502 -0.8677395 15 132 117
0.2522788 -0.15118349 -0.86821783 15 132 117
0.2898432 -0.15067118 -0.86928219 26 138 122
0.29086962 -0.15302414 -0.8698709 21 140 122
0.29067332 -0.15142906 -0.8698718 26 140 122
0.2903893 -0.1520865 -0.8695792 24 139 122
0.29092532 -0.15279669 -0.86993802 23 139 122
0.28998902 -0.15241686 -0.86922604 21 138 122
0.28783122 -0.15142114 -0.86760074 19 137 122
0.2888729 -0.15227495 -0.8683486 19 137 122
0.28812948 -0.15203099 -0.86778027 18 139 122
0.28936136 -0.1531951 -0.86865002 18 139 122
0.2894274 -0.15295382 -0.86872542 19 137 122
0.29193538 -0.15325795 -0.87092948 33 138 125
0.29193473 -0.15316249 -0.87094086 33 138 124
0.29188287 -0.15164959 -0.87107933 35 138 124
0.29179251 -0.15055469 -0.87109828 36 139 123
0.29145876 -0.15222029 -0.87056124 29 139 122
0.24799119 -0.15538166 -0.8711741 14 132 115
0.2480219 -0.1567091 -0.87062865 14 132 114
0.24780847 -0.15541328 -0.87137681 14 132 114
0.25041449 -0.15593293 -0.86860973 14 132 115
0.25087366 -0.15584305 -0.86825109 14 132 115
0.25155395 -0.15504991 -0.86787796 14 132 116
0.25161234 -0.15472901 -0.86790651 14 132 116
0.29063156 -0.15499072 -0.86948174 18 137 122
0.28906104 -0.15494551 -0.8682372 17 136 124
0.29094332 -0.15497592 -0.86973137 19 137 122
0.29025018 -0.15520206 -0.8691557 18 137 123
0.28968614 -0.15571786 -0.86865163 17 136 124
0.29021621 -0.15781575 -0.86885238 17 136 124
0.28909653 -0.15803951 -0.86794788 15 134 123
0.289197 -0.15584472 -0.8682496 16 138 123
0.28869006 -0.15642726 -0.86779124 16 134 124
0.29169998 -0.15802136 -0.87011528 20 138 124
0.29275712 -0.15711337 -0.8712399 26 142 124
0.29156587 -0.15798186 -0.86999369 20 138 124
0.29249296 -0.15473467 -0.87131441 36 137 126
0.29221663 -0.15810865 -0.87059242 20 140 124
0.29130068 -0.15674767 -0.86988896 23 136 125
0.29183605 -0.15532099 -0.87058711 29 136 125
0.2910347 -0.15672249 -0.86962086 18 137 122
0.24786219 -0.15943351 -0.86983174 15 132 113
0.24958026 -0.15958472 -0.86834496 15 132 114
0.24964808 -0.159952 -0.86817944 15 132 114
0.290681 -0.1604351 -0.86894715 15 134 123
0.29074457 -0.15885605 -0.86916131 17 136 124
0.29092357 -0.15945077 -0.86924046 16 136 123
0.28991839 -0.15979668 -0.86841285 15 132 123
0.29006571 -0.16163239 -0.86832201 14 132 123
0.28918421 -0.16169983 -0.86759835 14 132 123
0.28976989 -0.16158198 -0.86808783 14 132 123
0.29266584 -0.16147593 -0.87061208 15 136 123
0.29348201 -0.16133864 -0.87136918 15 138 123
0.29306328 -0.15861222 -0.87133378 20 143 123
0.29250044 -0.16093799 -0.87053013 16 138 123
0.29324988 -0.15880491 -0.87147856 20 143 123
0.29239476 -0.15845437 -0.87072212 20 141 124
0.29134777 -0.16120572 -0.86944491 16 134 124
0.29219756 -0.15868784 -0.87051111 19 142 123
0.29273283 -0.15887031 -0.87099886 20 143 124
0.28950518 -0.16220264 -0.86780202 14 132 123
0.2909269 -0.16392365 -0.86880255 14 132 125
0.2898131 -0.16338411 -0.86794645 14 132 123
0.2904413 -0.16557071 -0.86826158 14 132 125
0.28990421 -0.16422385 -0.86794573 14 130 125
0.29036906 -0.16511151 -0.86824381 14 132 125
0.29243353 -0.16466524 -0.87011528 12 134 123
0.29308748 -0.16361885 -0.87079829 12 136 123
0.29382098 -0.1643784 -0.87145233 12 134 123
0.29292011 -0.16401406 -0.87061614 14 134 123
0.29309869 -0.16433376 -0.87076753 12 134 123
0.29301006 -0.16217169 -0.87083858 12 136 122
0.29130518 -0.1652762 -0.86901617 14 132 125
0.29172987 -0.16350298 -0.86955941 14 134 123
0.29230532 -0.16352172 -0.87007928 12 134 123
0.29196477 -0.16439024 -0.86969304 12 134 123
0.29025972 -0.16602996 -0.86807323 12 132 125
0.29019216 -0.16736247 -0.86787111 12 130 125
0.29089016 -0.16946946 -0.86820394 12 130 125
0.29026735 -0.16834575 -0.86782551 12 130 125
0.29088247 -0.16961287 -0.86818218 12 130 125
0.2929852 -0.16786532 -0.87033278 12 132 124
0.29286897 -0.16752087 -0.87028223 12 132 124
0.29327312 -0.16762049 -0.87062776 12 132 124
0.29158384 -0.16936646 -0.86884904 11 132 124
0.29226092 -0.16879109 -0.86954272 11 132 124
0.29336664 -0.16816357 -0.8706274 11 132 124
0.29152408 -0.16975723 -0.86873525 11 132 124
0.29256901 -0.16710225 -0.87004572 12 132 124
0.29231855 -0.1671335 -0.86980397 12 132 124
0.29115042 -0.16810487 -0.86858487 12 130 125
0.29342157 -0.16644026 -0.87093037 12 132 124
0.29258782 -0.16717024 -0.87005615 12 132 124
0.29074937 -0.17109884 -0.8679018 12 128 126
0.29482242 -0.1722682 -0.8713299 11 132 124
0.29332834 -0.17034738 -0.87026238 11 132 124
0.29441884 -0.17254284 -0.87093186 11 132 124
0.29343504 -0.171883 -0.87014461 11 132 124
0.29153505 -0.17015645 -0.86868703 11 132 124
0.29412302 -0.17046396 -0.870956 11 132 124
0.29380485 -0.17131589 -0.87055361 11 132 124
0.29147828 -0.17184126 -0.86843014 11 130 125
0.2924386 -0.17273733 -0.86916244 11 130 125
0.29234335 -0.17344801 -0.86899406 11 130 125
0.29255319 -0.17298591 -0.86923283 11 130 125
0.2922425 -0.1714936 -0.86913997 11 130 124
0.29134449 -0.1703251 -0.86849487 11 130 124
0.29250804 -0.17275417 -0.86922109 11 130 125
0.29200223 -0.17661743 -0.86825371 11 130 125
0.2917845 -0.17760356 -0.86792755 11 130 124
0.29207292 -0.17752981 -0.86818904 11 130 124
0.29191524 -0.17636751 -0.86821252 11 130 125
0.29236352 -0.17529549 -0.86875576 11 130 125
0.29130682 -0.17496684 -0.86787891 10 130 125
0.29289922 -0.17580567 -0.86915094 11 130 125
0.29316077 -0.17530569 -0.86945134 11 130 124
0.29327053 -0.17429902 -0.86969161 11 130 125
0.2946907 -0.17556889 -0.8707512 11 132 123
0.2941587 -0.17420694 -0.87048131 11 130 124
0.29290861 -0.1750637 -0.8692655 11 130 125
0.29203439 -0.17404915 -0.86864668 10 130 125
0.29269168 -0.17391741 -0.86924022 11 130 125
0.29503807 -0.17517658 -0.87118787 12 132 124
0.2927717 -0.17880194 -0.86860096 11 132 123
0.29311824 -0.17857084 -0.86893934 11 132 123
0.29276511 -0.17884423 -0.86858851 11 132 123
0.29272556 -0.1793056 -0.8684833 12 132 123
0.29221261 -0.18076372 -0.86784762 12 132 122
0.29253745 -0.18032187 -0.86818397 12 132 122
0.29234836 -0.18058513 -0.86798739 12 132 122
0.29845253 -0.15806454 -0.87743711 42 147 129
0.29769316 -0.15754981 -0.87660521 42 145 128
0.29793966 -0.16032209 -0.87655467 35 143 129
0.29793656 -0.159885 -0.87659568 37 143 129
0.29820961 -0.16009516 -0.87691247 36 144 129
0.29791191 -0.158981 -0.87665796 38 144 129
0.29831776 -0.15903425 -0.87715542 40 146 129
0.29774627 -0.16136853 -0.87626904 33 142 129
0.29704612 -0.15992557 -0.87554616 36 141 128
0.299456 -0.16015553 -0.87904137 41 142 129
0.29923812 -0.1616973 -0.878371 36 141 129
0.29927716 -0.16134478 -0.87850225 37 142 128
0.29921243 -0.15897061 -0.87868583 41 147 129
0.29902247 -0.15845282 -0.87829834 42 147 129
0.29834503 -0.16386747 -0.87655038 30 141 130
0.27082887 -0.1666237 -0.85965341 21 133 117
0.270915 -0.16635619 -0.85969692 21 133 117
0.27341008 -0.16941291 -0.85953635 17 134 118
0.27314621 -0.16928117 -0.859519 17 134 118
0.27461183 -0.16907416 -0.85975367 16 132 118
0.27466127 -0.17235878 -0.85933185 16 136 116
0.27459398 -0.17230244 -0.85932666 16 136 116
0.27480221 -0.17015618 -0.85962087 16 132 118
0.27508697 -0.1701337 -0.85966402 15 134 118
0.2755872 -0.1714827 -0.85961932 16 132 117
0.27583894 -0.17230165 -0.85960317 16 132 117
0.27568549 -0.17177692 -0.85961592 16 132 117
0.27685219 -0.17689669 -0.85933948 16 136 117
0.27839702 -0.17681521 -0.85975718 15 132 120
0.27612811 -0.17477958 -0.85940886 16 136 116
0.27497327 -0.18000928 -0.8584162 17 136 118
0.27710682 -0.17775738 -0.85929316 16 136 117
0.27913544 -0.1806545 -0.8594746 12 132 121
0.27842104 -0.18104109 -0.85922939 12 134 120
0.27968323 -0.18119705 -0.85962087 12 130 122
0.2785399 -0.18533637 -0.85872734 12 130 123
0.2788507 -0.18248777 -0.85916829 12 130 122
0.27895874 -0.18513446 -0.85886812 12 130 123
0.27721119 -0.18398069 -0.85852963 12 132 121
0.27851513 -0.18439698 -0.8588376 12 130 122
0.27593556 -0.18498413 -0.85805202 12 132 121
0.27769485 -0.18187538 -0.85889375 14 130 121
0.275433 -0.18457776 -0.85794282 12 132 121
0.27971768 -0.1849758 -0.85916758 12 130 123
0.28010029 -0.18194646 -0.85971314 12 130 124
0.28024694 -0.18351331 -0.85958385 12 130 123
0.27975059 -0.18220943 -0.8595261 12 130 123
0.27525392 -0.1869747 -0.85764498 12 132 121
0.27452236 -0.18739115 -0.8575173 12 132 121
0.27483806 -0.18569353 -0.85773695 12 132 121
0.27826729 -0.18806048 -0.85830539 12 132 123
0.27811888 -0.18884726 -0.85816222 12 132 123
0.27881736 -0.1875419 -0.85851955 12 130 124
0.27651939 -0.18916161 -0.85769725 12 130 122
0.27882868 -0.18754376 -0.8585223 12 130 124
0.2785072 -0.188434 -0.85831952 12 130 124
0.27540112 -0.18918292 -0.85739541 12 132 121
0.27702591 -0.18718626 -0.85808516 12 130 122
0.27715442 -0.18766756 -0.85806245 12 130 122
0.27796027 -0.18678214 -0.85839182 12 130 123
0.27647632 -0.18603273 -0.85807288 12 132 121
0.2811242 -0.18867937 -0.8592875 12 130 124
0.2809684 -0.18688437 -0.85946959 12 130 124
0.28059974 -0.18850406 -0.85908622 12 130 124
0.28193396 -0.18942071 -0.85953301 12 130 124
0.28162917 -0.18866216 -0.85950714 12 130 124
0.27987304 -0.18616965 -0.85908335 12 130 124
0.28058535 -0.18664348 -0.85933685 12 130 124
0.28005815 -0.18743601 -0.85899824 12 130 124
0.27528271 -0.19036861 -0.85727012 12 132 121
0.27358678 -0.19157064 -0.85695839 12 132 121
0.27407897 -0.19277799 -0.85691899 12 132 121
0.27430731 -0.19159403 -0.85704625 12 132 121
0.27354702 -0.189542 -0.85715592 12 132 121
0.27868235 -0.19166559 -0.85807282 11 130 124
0.27849784 -0.19124077 -0.85804945 11 130 123
0.27669451 -0.19282134 -0.85743648 11 132 121
0.27859634 -0.19258498 -0.85798699 11 130 124
0.27852091 -0.19291465 -0.85794365 11 128 124
0.27817899 -0.18994176 -0.85805726 12 130 124
0.27810088 -0.19006425 -0.85802639 12 132 123
0.27551836 -0.19257583 -0.85713309 12 130 121
0.27583382 -0.18987593 -0.85744196 12 130 122
0.27770028 -0.19089 -0.85785145 12 130 123
0.28133652 -0.1913598 -0.85904819 12 132 124
0.28223962 -0.19196866 -0.8593654 12 132 124
0.2813046 -0.19079585 -0.85910046 12 132 124
0.28188238 -0.18961176 -0.85948771 12 130 124
0.28194916 -0.19085595 -0.85937077 12 130 124
0.28004685 -0.19133113 -0.85855311 11 130 124
0.27964655 -0.1907693 -0.85843861 11 130 124
0.28128058 -0.1930393 -0.85890758 12 130 125
0.28196412 -0.19302598 -0.85916835 12 130 125
0.28069073 -0.19258283 -0.85871392 11 130 124
0.27996123 -0.19071442 -0.85856193 12 130 125
0.27072528 -0.19662079 -0.8562448 12 132 120
0.26825282 -0.19674462 -0.85606939 12 132 119
0.26928267 -0.19677946 -0.85613585 12 132 119
0.26815161 -0.19557947 -0.85617858 12 132 118
0.27360779 -0.19557489 -0.85664713 12 132 120
0.27400535 -0.19522256 -0.85672444 12 132 120
0.27426863 -0.19488969 -0.85678196 12 130 121
0.27344638 -0.1947412 -0.85668516 12 132 121
0.27416095 -0.1933946 -0.85687798 12 132 121
0.27868769 -0.1949511 -0.85783935 11 130 122
0.27737471 -0.19562472 -0.8574416 12 130 121
0.27900761 -0.19600242 -0.85783362 11 130 122
0.27769092 -0.19576858 -0.85751152 12 130 121
0.27802613 -0.19528486 -0.85763943 11 130 121
0.27614945 -0.19450441 -0.85717505 12 130 121
0.27848113 -0.19395739 -0.85786498 11 130 123
0.27676809 -0.19351719 -0.85741121 11 130 121
0.2768288 -0.19516326 -0.85732454 12 130 121
0.2773667 -0.19491743 -0.8574912 12 130 121
0.27580205 -0.19348264 -0.85714179 11 130 121
0.28264067 -0.19590323 -0.85923499 12 132 124
0.28044313 -0.19629051 -0.85832411 11 132 121
0.28173301 -0.19573718 -0.85887861 12 130 123
0.28209814 -0.19614735 -0.85900104 12 132 123
0.28271315 -0.19618087 -0.85924733 12 132 124
0.28062201 -0.19725651 -0.85833752 11 132 121
0.2801235 -0.19529411 -0.85828274 11 130 123
0.2810916 -0.19359146 -0.85879469 11 130 124
0.28103927 -0.1950608 -0.85865062 11 132 122
0.2799058 -0.19627643 -0.85811698 11 130 121
0.28034079 -0.19536261 -0.85835958 11 130 122
0.28067699 -0.1954608 -0.85847908 11 132 122
0.26751444 -0.19898298 -0.85589129 12 132 117
0.26751855 -0.19835061 -0.85592669 12 132 117
0.26984763 -0.19791682 -0.85609949 12 132 119
0.26956066 -0.19760881 -0.85609764 12 132 119
0.2688995 -0.19789915 -0.8560369 12 132 119
0.27947417 -0.19763198 -0.85784549 11 130 120
0.28202432 -0.19778623 -0.85886329 12 132 121
0.27999732 -0.19781952 -0.85804236 11 132 120
0.26387924 -0.13860558 -0.86361843 18 132 119
0.26344773 -0.14092503 -0.86361748 16 134 117
0.26377836 -0.13917619 -0.86360943 17 132 119
0.26274112 -0.14497477 -0.86361182 16 132 117
0.26268661 -0.14595853 -0.86357009 16 132 117
0.26364452 -0.14538307 -0.86328542 16 132 117
0.26422763 -0.14483711 -0.86316293 17 132 118
0.26373306 -0.14435948 -0.86331832 16 132 117
0.26416764 -0.14408784 -0.86322093 17 132 118
0.26409972 -0.14410891 -0.86323732 16 134 117
0.26255673 -0.14677107 -0.86354917 16 132 117
0.26283684 -0.14679444 -0.86345363 16 132 117
0.26140592 -0.15009962 -0.86352676 14 132 118
0.2624864 -0.15023977 -0.86312431 14 132 118
0.26361558 -0.14744626 -0.86310327 16 130 118
0.26208571 -0.14996016 -0.86330444 14 132 118
0.26448339 -0.1485105 -0.86272919 15 132 117
0.26369068 -0.14668958 -0.86318129 16 132 118
0.2641921 -0.14818515 -0.86284858 15 132 117
0.26939443 -0.14912035 -0.86177695 16 132 117
0.27440023 -0.14930145 -0.86181921 15 132 118
0.27404854 -0.15020882 -0.86173356 14 132 117
0.2792964 -0.14971557 -0.86279857 15 132 121
0.27898043 -0.15017451 -0.86270106 14 132 121
0.27689222 -0.15009496 -0.86221212 14 132 119
0.27927244 -0.15028614 -0.86276448 14 132 121
0.28055954 -0.14851166 -0.86342812 17 132 122
0.28024241 -0.14846037 -0.86328602 17 132 122
0.28051472 -0.14842169 -0.8634119 17 132 122
0.27983421 -0.14880222 -0.86308485 16 132 121
0.26172677 -0.15163933 -0.86317873 14 132 118
0.26121104 -0.15047418 -0.86354333 14 132 118
0.26143056 -0.15045525 -0.86346841 14 132 118
0.26049936 -0.1526725 -0.8634522 14 132 117
0.26197958 -0.15186274 -0.86305219 14 132 117
0.26088446 -0.15379871 -0.8631326 14 132 117
0.26230815 -0.15283254 -0.86277831 14 132 117
0.26282862 -0.15241636 -0.86265886 14 132 117
0.26549408 -0.15141043 -0.86210692 15 132 117
0.2644664 -0.15062423 -0.86246586 14 132 117
0.26969039 -0.15400395 -0.86134118 16 132 117
0.26979321 -0.15147963 -0.86151826 16 132 117
0.26883221 -0.1504537 -0.86169523 16 132 117
0.27099249 -0.15040386 -0.86153036 16 132 117
0.27000457 -0.15049799 -0.86159867 16 132 117
0.27526715 -0.15212345 -0.86171657 14 132 117
0.27898544 -0.15194346 -0.86259502 14 132 121
0.27858225 -0.15344517 -0.86240602 14 132 120
0.27923024 -0.15145205 -0.86268419 14 132 121
0.27755567 -0.15390676 -0.86212951 14 132 118
0.27711886 -0.15323518 -0.86206472 14 132 118
0.27734104 -0.15381862 -0.8620829 14 132 118
0.27709645 -0.15140273 -0.86217797 14 132 119
0.27648053 -0.15044923 -0.86209625 12 132 118
0.27708957 -0.15244049 -0.86210698 14 132 119
0.27608946 -0.15296945 -0.86183554 14 132 117
0.27584726 -0.15100862 -0.86190939 12 132 117
0.2814475 -0.15201339 -0.86364961 14 132 122
0.28097185 -0.15222822 -0.86341852 14 132 122
0.28136116 -0.15096971 -0.86367178 15 132 123
0.28101522 -0.15230086 -0.86343408 14 132 122
0.28066394 -0.15090863 -0.86335653 14 132 121
0.28010574 -0.15071227 -0.86311406 14 132 121
0.28066814 -0.15151903 -0.86332124 14 132 121
0.25830108 -0.15620859 -0.86364508 15 132 117
0.25885519 -0.15633169 -0.86339903 16 132 117
0.25889871 -0.15660837 -0.86332792 16 132 117
0.2633335 -0.15573443 -0.86194134 17 132 116
0.26006424 -0.15488815 -0.86322963 15 132 118
0.26076114 -0.15513957 -0.86293042 16 132 117
0.26692519 -0.15763102 -0.86109698 17 132 115
0.2688067 -0.15802965 -0.86092776 17 132 115
0.27090651 -0.15800521 -0.86087704 17 132 115
0.26836827 -0.15758042 -0.86098522 17 132 115
0.26839939 -0.1559456 -0.86117882 16 132 117
0.26959524 -0.15476744 -0.86126977 16 132 117
0.27180448 -0.15740812 -0.8609516 17 132 115
0.27750653 -0.15612344 -0.86194509 14 132 117
0.27858272 -0.15748577 -0.86215311 14 132 119
0.27786019 -0.15613207 -0.86203873 14 132 118
0.27901772 -0.15475762 -0.86242616 14 130 120
0.27832875 -0.15781297 -0.86206669 14 132 118
0.27771482 -0.15694223 -0.86195332 14 132 117
0.27602872 -0.15544946 -0.86164188 15 132 117
0.27850506 -0.15508051 -0.86227125 14 130 119
0.27753094 -0.15537469 -0.86201143 14 132 118
0.27668265 -0.15575701 -0.86177486 15 132 117
0.28179786 -0.15459265 -0.863648 12 132 122
0.28100359 -0.15798114 -0.86301696 11 132 121
0.28100809 -0.15758756 -0.86305451 11 132 120
0.28090316 -0.15755008 -0.86301517 11 132 120
0.28141806 -0.1559595 -0.86336923 12 130 122
0.28055757 -0.1554672 -0.86303836 12 132 121
0.27963117 -0.15618417 -0.86257172 12 132 120
0.27976224 -0.15471497 -0.86271656 12 132 120
0.27448389 -0.16082242 -0.86090207 18 132 117
0.27512416 -0.16140722 -0.86094058 17 132 118
0.27497709 -0.15950564 -0.86108828 17 132 118
0.27910963 -0.15958716 -0.86212796 14 132 119
0.27745005 -0.16197361 -0.86147374 15 132 118
0.27916723 -0.16053878 -0.86205769 14 132 118
0.27774501 -0.16135943 -0.86160713 15 132 118
0.27653432 -0.16188149 -0.86123943 16 132 118
0.27879891 -0.16199328 -0.8618294 15 132 118
0.27752268 -0.15983742 -0.8616848 14 132 118
0.27813432 -0.15840369 -0.86197466 14 132 118
0.27847633 -0.15847161 -0.86205965 14 132 118
0.28146398 -0.15867375 -0.86314082 11 132 121
0.28285381 -0.15988363 -0.86359507 11 130 122
0.28123188 -0.15843633 -0.86306828 11 132 121
0.28250989 -0.16128625 -0.86332572 12 130 121
0.28260675 -0.16104546 -0.86338735 12 130 121
0.2826888 -0.16187958 -0.86334449 14 130 122
0.27988711 -0.16139559 -0.86225396 14 132 119
0.28209892 -0.16106026 -0.86317939 12 130 121
0.28151461 -0.16061299 -0.86298305 12 132 121
0.28007162 -0.15964009 -0.86248642 12 132 119
0.27097318 -0.16502838 -0.85991526 21 132 117
0.27504137 -0.16539468 -0.86032659 17 130 120
0.27501425 -0.16551232 -0.86030364 17 130 120
0.27396086 -0.16465525 -0.86031181 18 132 118
0.27530491 -0.16552626 -0.86033827 17 130 120
0.2735686 -0.16555801 -0.86011213 18 132 118
0.27259055 -0.16374286 -0.86027265 19 132 117
0.27304026 -0.16235739 -0.86054671 19 132 117
0.27185902 -0.16451083 -0.8600527 20 132 117
0.27188227 -0.16394082 -0.86014265 20 132 117
0.27287784 -0.16428854 -0.86023021 19 132 118
0.27412632 -0.16317777 -0.8605752 17 134 118
0.27904955 -0.1659383 -0.86131263 14 132 119
0.27897885 -0.16448253 -0.86150879 14 132 119
0.27802271 -0.16364369 -0.86136335 15 132 119
0.27785122 -0.16365303 -0.86131346 15 132 119
0.27662268 -0.16541006 -0.86070573 16 130 121
0.27825093 -0.16465478 -0.86127764 15 130 120
0.27658427 -0.16478822 -0.86078781 16 130 120
0.27662578 -0.164656 -0.86082077 16 130 120
0.27543858 -0.16383067 -0.86064309 16 132 119
0.27570358 -0.16524853 -0.86047816 16 130 120
0.2771917 -0.16248338 -0.86133105 16 132 119
0.28311864 -0.1628674 -0.86337507 14 130 122
0.28260931 -0.16296223 -0.86316115 14 130 122
0.28129596 -0.16555683 -0.862225 14 130 121
0.28123334 -0.1656428 -0.86218655 14 130 121
0.28085506 -0.16463393 -0.86220413 14 130 121
0.27995867 -0.16276427 -0.86212158 14 132 119
0.27949789 -0.16352986 -0.86182141 14 132 119
0.28167501 -0.16333635 -0.86273134 14 130 121
0.2813383 -0.16255614 -0.86271089 14 130 121
0.28098622 -0.16323908 -0.86246699 14 130 121
0.27994362 -0.16324152 -0.86204457 14 132 119
0.28332987 -0.1641428 -0.86328715 14 130 121
0.28370821 -0.16406323 -0.86356956 14 130 122
0.27518016 -0.16610035 -0.86022973 17 130 120
0.27297339 -0.1661846 -0.85993767 18 132 118
0.27521703 -0.16627273 -0.86021096 17 130 120
0.27422553 -0.16690612 -0.85999882 17 132 119
0.27431533 -0.16770506 -0.85990167 17 132 119
0.27675632 -0.1692989 -0.86023355 15 132 120
0.27733815 -0.16852373 -0.8605144 15 130 121
0.27591676 -0.16822645 -0.86012614 16 132 120
0.27610663 -0.16850162 -0.86014605 16 130 121
0.27714208 -0.1684676 -0.86046284 15 130 121
0.27717394 -0.16699293 -0.86065739 15 130 120
0.27900612 -0.16884929 -0.8609581 14 130 121
0.27778766 -0.16681249 -0.86085182 15 130 121
0.27691418 -0.16738714 -0.86053801 16 130 121
0.27798551 -0.16702516 -0.86088288 15 130 121
0.27878717 -0.16857614 -0.86092818 15 130 121
0.28319633 -0.16641296 -0.86286521 14 130 121
0.28257042 -0.1687962 -0.8624385 14 130 122
0.28079987 -0.16852459 -0.86166942 14 130 121
0.28244916 -0.16766149 -0.86245555 14 130 121
0.28144905 -0.16925153 -0.86191225 14 130 121
0.28150973 -0.16822426 -0.86200333 14 130 121
0.2803106 -0.1667856 -0.8616761 14 132 120
0.28023627 -0.1670491 -0.86161637 14 130 121
0.28177306 -0.16698623 -0.86222249 14 130 121
0.2800076 -0.16781594 -0.86143774 14 130 121
0.27992001 -0.16722183 -0.86147296 14 132 120
0.28094909 -0.16749804 -0.86184174 14 130 121
0.28420451 -0.16650006 -0.86357266 14 130 122
0.28404409 -0.16712959 -0.86341786 14 130 122
0.283856 -0.16720235 -0.86328387 14 130 122
0.28345171 -0.16609907 -0.86306489 14 130 121
0.27895138 -0.17082937 -0.86071169 14 130 121
0.27678308 -0.16995193 -0.86015439 15 132 120
0.27919689 -0.17286599 -0.86056298 15 130 121
0.27925766 -0.17190886 -0.86068594 15 130 121
0.27630925 -0.17036444 -0.85996652 14 134 118
0.27757812 -0.17216034 -0.86015213 15 130 120
0.27802837 -0.17254382 -0.86024612 15 130 120
0.27758735 -0.17302519 -0.86005688 15 132 119
0.27749327 -0.17245762 -0.86009246 14 132 118
0.28316012 -0.17281857 -0.86224103 12 130 122
0.28109559 -0.17349423 -0.86128581 14 130 121
0.2809051 -0.17259511 -0.86132717 14 130 121
0.28190914 -0.17260608 -0.86174601 14 128 122
0.28001633 -0.17338362 -0.86084896 14 130 121
0.2827206 -0.17133169 -0.86225724 14 128 122
0.27935815 -0.17348103 -0.86055309 14 130 121
0.28054017 -0.17214257 -0.86122411 14 130 121
0.28006169 -0.17114899 -0.86112034 14 130 121
0.28007203 -0.17106761 -0.86113381 14 130 121
0.27942732 -0.16996881 -0.86096776 14 130 121
0.28219661 -0.17020664 -0.86217117 14 128 122
0.28518417 -0.17298754 -0.86355406 12 130 124
0.28478533 -0.17263913 -0.8633281 12 130 123
0.28527722 -0.17357194 -0.86354643 12 130 124
0.28488564 -0.17376299 -0.86326063 12 130 124
0.28386974 -0.17111187 -0.86291271 12 130 122
0.28340873 -0.17016344 -0.86274725 12 130 122
0.27825287 -0.1744673 -0.86006808 14 132 118
0.27925169 -0.1747154 -0.86033398 14 130 121
0.27871874 -0.17664689 -0.85986608 14 132 120
0.2779119 -0.1742568 -0.85999721 14 132 117
0.28222185 -0.17529392 -0.86149663 14 130 123
0.28174907 -0.17604013 -0.86118984 14 130 123
0.28280404 -0.17498845 -0.86179769 12 130 122
0.282076 -0.17702647 -0.86121386 12 130 122
0.28287974 -0.17690906 -0.8615914 12 130 123
0.28127033 -0.17730515 -0.86081535 14 130 122
0.28043425 -0.17440665 -0.86087263 14 130 121
0.28069624 -0.17415115 -0.86102265 14 130 121
0.28060004 -0.17525344 -0.86080831 14 130 121
0.28125966 -0.17545991 -0.86105174 14 130 122
0.28079152 -0.17500879 -0.8609271 14 130 121
0.27977681 -0.17459144 -0.86056823 14 130 121
0.28523302 -0.17470385 -0.86335653 12 128 124
0.28407744 -0.17696755 -0.86228222 12 130 124
0.28516546 -0.17472817 -0.86331248 12 128 124
0.28532037 -0.17523499 -0.86331546 12 128 124
0.28548437 -0.17502885 -0.8634479 12 128 124
0.28462663 -0.17471509 -0.86296785 12 128 124
0.28460646 -0.17469457 -0.86295688 12 128 124
0.28450143 -0.17474206 -0.86288041 12 128 124
0.28334808 -0.17433074 -0.86215746 12 130 123
0.28011993 -0.18086563 -0.85984755 12 130 123
0.28263965 -0.18163113 -0.86079746 11 130 125
0.27992558 -0.17992628 -0.85987341 12 130 122
0.2804676 -0.1813599 -0.85993487 12 130 124
0.27993387 -0.17868999 -0.86002028 14 130 122
0.28222191 -0.18048367 -0.86076468 11 130 124
0.28281358 -0.17844962 -0.86134726 12 130 124
0.28207919 -0.18040387 -0.86071265 12 128 124
0.28131196 -0.17887567 -0.86060339 12 130 122
0.28097403 -0.1779865 -0.86058879 14 130 122
0.28084141 -0.17799716 -0.86052722 14 130 122
0.28591371 -0.17785072 -0.86321187 11 130 123
0.2842916 -0.17799351 -0.86223507 11 130 123
0.28624642 -0.17801692 -0.86338234 11 130 123
0.28683504 -0.18062969 -0.86332864 11 130 123
0.28593954 -0.17803393 -0.863199 11 130 123
0.28506052 -0.17848936 -0.86261183 11 130 123
0.28350008 -0.18120089 -0.86127168 10 130 124
0.28322101 -0.17863122 -0.86150551 11 130 123
0.28409621 -0.17989874 -0.86182582 11 130 124
0.28447127 -0.18065536 -0.86192995 11 130 124
0.28360376 -0.18071516 -0.86140829 10 130 124
0.2834745 -0.18058535 -0.86135215 10 130 124
0.28216171 -0.18243235 -0.86050379 12 128 124
0.28310001 -0.1848813 -0.86059242 12 130 122
0.2808148 -0.18196268 -0.86000693 12 130 124
0.28282675 -0.18469347 -0.86050284 12 130 122
0.28288203 -0.18379556 -0.86063451 12 130 123
0.28226981 -0.1844312 -0.86030638 12 130 122
0.2814222 -0.18364835 -0.86005574 11 132 122
0.28631797 -0.18372673 -0.86260802 11 132 122
0.28651237 -0.18430713 -0.86264849 12 130 122
0.28508809 -0.18518752 -0.86170322 12 130 122
0.28452462 -0.18497881 -0.86139971 12 130 122
0.28494206 -0.18442607 -0.86171401 11 132 121
0.28446126 -0.18498395 -0.86136192 12 130 122
0.28588292 -0.18281221 -0.86246872 11 130 123
0.28380638 -0.1824518 -0.86128604 11 128 124
0.28585827 -0.18267806 -0.86247045 11 130 123
0.28618985 -0.18255848 -0.86268079 11 130 123
0.2833426 -0.18229711 -0.86103088 10 130 124
0.28350052 -0.18304379 -0.8610335 11 130 124
0.28777954 -0.18387222 -0.86359936 14 130 123
0.28751197 -0.1829361 -0.86350352 12 130 124
0.28315017 -0.18579575 -0.86050171 12 130 122
0.28203711 -0.18599099 -0.86003357 12 130 123
0.28244463 -0.18753648 -0.86000216 12 130 123
0.28221852 -0.18829833 -0.85980964 12 132 123
0.28629273 -0.18751337 -0.86211699 14 130 123
0.28707039 -0.18560296 -0.86281139 14 130 123
0.28647292 -0.1874997 -0.86222428 14 130 123
0.2854771 -0.18734106 -0.8616606 14 130 123
0.28629896 -0.18927932 -0.86190003 14 130 123
0.28628281 -0.18914503 -0.86190736 14 130 123
0.2849834 -0.18591796 -0.86154991 12 132 122
0.28395939 -0.18730874 -0.86077589 12 130 122
0.28595018 -0.18631151 -0.86206663 12 132 122
0.2846795 -0.18603152 -0.86135775 12 130 122
0.28582793 -0.18592995 -0.8620429 12 132 122
0.28439388 -0.18795998 -0.86094862 12 132 123
0.28779781 -0.1893608 -0.86289263 15 130 123
0.28768823 -0.18607765 -0.8632434 14 130 123
0.28787026 -0.18637149 -0.86335403 14 130 123
0.28268382 -0.18970099 -0.85981971 12 130 124
0.28456438 -0.19273327 -0.86042875 14 130 123
0.28340343 -0.19129403 -0.85996109 14 130 125
0.28336257 -0.1914137 -0.85992515 14 130 125
0.28328019 -0.19090475 -0.85993898 14 130 125
0.28458196 -0.19176491 -0.86054695 14 130 123
0.28688335 -0.18993348 -0.86214489 15 130 123
0.28670016 -0.19114998 -0.86184537 15 130 123
0.28645688 -0.19189231 -0.86158556 15 130 123
0.28654164 -0.19003145 -0.86192918 14 130 123
0.28741741 -0.19062048 -0.86240458 15 130 123
0.28744254 -0.18968107 -0.86257225 15 130 123
0.28586078 -0.1935109 -0.86105299 15 130 123
0.28540525 -0.19458498 -0.86073649 15 130 123
0.28578684 -0.19499038 -0.86091542 16 130 123
0.28472266 -0.19576292 -0.8603009 15 130 123
0.29306725 -0.15282796 -0.87209803 41 138 126
0.29306036 -0.1531627 -0.8720516 41 137 126
0.29276252 -0.15395646 -0.87167168 40 136 127
0.29240564 -0.15240158 -0.87151462 40 137 125
0.24778925 -0.15434223 -0.87182683 14 132 114
0.29438558 -0.15556699 -0.87294459 37 142 126
0.29373115 -0.15483256 -0.87245739 39 139 126
0.29429784 -0.1555609 -0.87286168 37 140 126
0.29453078 -0.15586042 -0.8730278 36 141 126
0.29462954 -0.15757965 -0.87279451 27 146 124
0.29449174 -0.15767661 -0.8726579 25 146 124
0.2935355 -0.15728098 -0.87190151 26 144 124
0.29336721 -0.15582463 -0.87193656 33 140 125
0.2956332 -0.15711017 -0.87410516 34 145 126
0.29641947 -0.15716738 -0.87509871 40 142 128
0.29567161 -0.15669595 -0.87424493 37 143 126
0.29572794 -0.15780728 -0.8740738 32 145 125
0.29544392 -0.15649788 -0.87399542 36 143 126
0.2954317 -0.1559985 -0.87407392 38 142 126
0.29420757 -0.16007742 -0.872154 18 142 123
0.29444522 -0.15904206 -0.87246495 20 146 123
0.29454771 -0.16020899 -0.87242597 18 142 123
0.29377502 -0.16046584 -0.87173533 17 139 123
0.29419184 -0.16194293 -0.87191963 14 138 122
0.29677013 -0.15886903 -0.87527096 36 142 128
0.29648092 -0.15906686 -0.87486422 33 142 126
0.29557121 -0.15974247 -0.87362158 25 143 124
0.29535401 -0.1592721 -0.87339407 24 144 124
0.29669449 -0.15838803 -0.87520415 37 142 127
0.29538441 -0.15974778 -0.87338197 23 143 123
0.29476261 -0.16500461 -0.87223482 12 134 122
0.29430592 -0.162815 -0.87195927 12 138 121
0.29381251 -0.16251531 -0.87154573 12 136 122
0.29477248 -0.16578862 -0.87220025 11 136 122
0.29627097 -0.16498062 -0.8740285 21 137 127
0.29642567 -0.16462629 -0.87426698 24 138 127
0.29568592 -0.16598767 -0.87318641 17 136 125
0.29539949 -0.16476281 -0.87303686 16 138 123
0.29616231 -0.16343817 -0.87414861 24 138 126
0.2953735 -0.16372417 -0.87305999 17 136 124
0.29486766 -0.16897486 -0.87182409 11 132 124
0.29464772 -0.16783307 -0.87180698 12 132 124
0.29660746 -0.16855362 -0.87398177 19 137 126
0.29604504 -0.1691068 -0.87322795 16 136 126
0.29698116 -0.16920723 -0.87446457 20 137 129
0.29522532 -0.16918878 -0.87218177 12 132 125
0.29610744 -0.16628109 -0.87361825 18 137 125
0.29634738 -0.16673008 -0.87382197 20 137 127
0.29637894 -0.167128 -0.87379771 20 137 127
0.29503319 -0.17010361 -0.87185103 11 132 124
0.29510647 -0.17108521 -0.87181813 11 132 124
0.29509205 -0.1729452 -0.87157112 12 132 124
0.29647124 -0.17158759 -0.87356907 18 134 127
0.29654676 -0.17157379 -0.87367129 18 136 127
0.29731825 -0.17174007 -0.87467444 20 138 127
0.2963787 -0.17265612 -0.87331641 17 136 126
0.29746032 -0.17138863 -0.87490582 21 138 128
0.29739064 -0.17213205 -0.87472254 20 138 127
0.29569197 -0.17653023 -0.87190187 17 136 124
0.29615939 -0.17473784 -0.87276089 17 136 125
0.26164693 -0.12096816 -0.86676401 16 132 117
0.26106608 -0.12196574 -0.86699677 16 132 117
0.26320726 -0.12219149 -0.86578399 17 132 119
0.26214802 -0.12131994 -0.8664431 17 132 118
0.25999448 -0.12351697 -0.86747843 15 132 117
0.26093853 -0.12460452 -0.86687428 16 132 117
0.26159668 -0.12438064 -0.86652255 16 132 117
0.25984538 -0.12438021 -0.86750108 15 132 117
0.26335132 -0.12664863 -0.86532372 15 132 120
0.26320779 -0.12588951 -0.86547363 15 132 119
0.26247603 -0.12689064 -0.86580646 15 132 119
0.26262996 -0.12695111 -0.86571246 15 132 119
0.26196167 -0.12521432 -0.86625123 16 132 118
0.26388589 -0.12541449 -0.86516201 16 132 120
0.26391679 -0.12553598 -0.86513877 16 132 120
0.26377866 -0.126203 -0.86513537 15 132 120
0.26418144 -0.12522711 -0.86505938 17 132 120
0.26393971 -0.12610079 -0.86507952 16 132 120
0.2595658 -0.12976719 -0.86701411 15 132 117
0.25939095 -0.12985006 -0.86712432 15 132 117
0.26303339 -0.12943204 -0.86520028 15 132 119
0.26344702 -0.12801597 -0.86512578 15 132 120
0.26293942 -0.12886724 -0.86529821 15 132 119
0.26345623 -0.1281369 -0.86511016 15 132 120
0.26103032 -0.13006148 -0.86613047 15 132 118
0.2609672 -0.13004228 -0.86616331 15 132 118
0.25999349 -0.12871596 -0.86692357 15 132 117
0.26063681 -0.12766501 -0.86673629 15 132 117
0.26061937 -0.12884767 -0.86654007 15 132 118
0.26153696 -0.12865624 -0.86604488 15 132 119
0.26042035 -0.12956378 -0.86652988 15 132 118
0.26222372 -0.12835497 -0.86570179 15 132 119
0.26441872 -0.13084082 -0.86444515 17 132 118
0.26520312 -0.12986623 -0.86420697 19 132 118
0.26506341 -0.13047516 -0.86420959 19 132 118
0.26460651 -0.12792154 -0.86463457 17 132 120
0.26579311 -0.12714359 -0.86421597 19 132 118
0.25852326 -0.13123822 -0.86750031 14 132 116
0.25890598 -0.13188758 -0.86711287 14 132 116
0.25943378 -0.13264243 -0.86664975 14 132 117
0.25869122 -0.13284223 -0.86710137 14 132 116
0.25902346 -0.13398896 -0.86672914 14 132 117
0.26211607 -0.13453159 -0.86499536 15 132 118
0.26150092 -0.13451539 -0.86530721 14 132 117
0.26322663 -0.13452548 -0.86443758 15 134 118
0.26036224 -0.13424717 -0.86591965 14 132 117
0.26259696 -0.13457663 -0.86474675 15 132 118
0.26202956 -0.1344268 -0.86505431 15 132 118
0.26002234 -0.13252272 -0.8663255 14 132 117
0.26101494 -0.1311802 -0.86602092 14 132 117
0.26100007 -0.13193013 -0.86592501 14 132 117
0.26275223 -0.13090698 -0.86520189 14 132 117
0.26195151 -0.13202378 -0.86544293 14 132 117
0.26040885 -0.13330364 -0.86602736 14 132 117
0.26371428 -0.13125746 -0.86468273 15 132 118
0.26444328 -0.13441418 -0.8639859 18 132 118
0.26506221 -0.13188042 -0.8640663 19 132 118
0.26399705 -0.13112272 -0.8645913 15 132 118
0.25944865 -0.13505965 -0.86629134 14 132 117
0.25942713 -0.13686626 -0.86605638 14 132 117
0.2593402 -0.13562329 -0.86627406 14 132 117
0.26253384 -0.1368233 -0.86447614 15 132 118
0.26290905 -0.13642965 -0.86434031 15 134 118
0.26065677 -0.13790889 -0.86527193 14 132 117
0.26193672 -0.13710293 -0.86473793 14 132 117
0.26308611 -0.13831006 -0.86400384 15 134 118
0.26284966 -0.13855813 -0.86408937 15 134 118
0.26025736 -0.13737264 -0.8655448 14 132 117
0.26045084 -0.13538268 -0.86571538 14 132 117
0.26098797 -0.13643165 -0.86530393 14 132 117
0.26147786 -0.13634388 -0.86506927 14 132 117
0.26110825 -0.13538922 -0.8653838 14 132 117
0.26178622 -0.13622387 -0.86493033 14 132 117
0.263816 -0.13531446 -0.8640601 17 132 119
0.26420194 -0.13514313 -0.86396062 18 132 118
0.28644887 -0.13684744 -0.86737043 23 138 121
0.28578666 -0.1363405 -0.86695611 24 139 119
0.28465998 -0.13730903 -0.86613619 23 135 120
0.28542444 -0.13634281 -0.86671191 25 137 120
0.2841852 -0.13565145 -0.8659054 23 136 119
0.2844463 -0.13491273 -0.86612421 24 138 119
0.2592628 -0.1387807 -0.86588764 14 132 116
0.25980544 -0.13940938 -0.86548346 14 132 117
0.26008964 -0.13961989 -0.86533552 14 132 116
0.25981006 -0.14008716 -0.86537349 14 132 116
0.26042983 -0.13964744 -0.86519426 14 132 117
0.26200572 -0.1389558 -0.86447465 14 132 117
0.26324356 -0.13870177 -0.86387503 16 132 119
0.26263544 -0.14176902 -0.86394238 15 132 116
0.26223734 -0.13971776 -0.86429995 14 134 117
0.26176029 -0.14015251 -0.86450499 14 134 117
0.26282611 -0.13975535 -0.86400253 15 134 117
0.28624034 -0.1419483 -0.86694598 26 133 120
0.28596464 -0.14199235 -0.86676866 25 133 120
0.26093563 -0.14443097 -0.86437601 16 132 116
0.26137167 -0.14519396 -0.86413693 16 132 116
0.26142913 -0.14596707 -0.86402398 16 132 117
0.26095176 -0.14377376 -0.86442292 16 132 116
0.2831603 -0.14410287 -0.86484486 16 132 119
0.28284788 -0.14424491 -0.86469948 17 132 119
0.28615358 -0.14596596 -0.8666544 32 132 120
0.28554693 -0.1454744 -0.86628073 27 133 120
0.28552249 -0.14589511 -0.86623961 28 132 120
0.28576034 -0.1464369 -0.86636549 30 132 120
0.28586224 -0.14452283 -0.86654633 26 134 120
0.28481796 -0.14641954 -0.8657409 27 133 120
0.28648677 -0.14260682 -0.8670885 26 133 120
0.28579569 -0.14293975 -0.86661863 23 133 119
0.28563735 -0.1428985 -0.86652076 21 135 119
0.28714541 -0.1464636 -0.86729038 38 133 121
0.25778481 -0.14850371 -0.86521131 15 132 116
0.2593624 -0.14892532 -0.86442941 14 132 117
0.25848168 -0.15004173 -0.86471123 14 132 117
0.25966281 -0.14798033 -0.86439782 15 132 117
0.25924897 -0.14899689 -0.86447394 14 132 117
0.25756839 -0.14816873 -0.86536694 16 132 116
0.25612435 -0.14979875 -0.86584598 15 132 116
0.25792682 -0.1477762 -0.8652463 16 132 116
0.25978464 -0.14965749 -0.86415124 14 132 118
0.26141053 -0.14679769 -0.86392969 16 132 117
0.28218791 -0.14836416 -0.86413789 17 134 122
0.28300166 -0.15035479 -0.86439127 15 134 122
0.28149652 -0.14850637 -0.86384046 17 134 122
0.28644913 -0.1481532 -0.86674327 29 135 121
0.28661257 -0.14725375 -0.8668921 33 132 121
0.28573206 -0.14968808 -0.86619616 21 135 122
0.28581965 -0.14924788 -0.86627412 25 134 122
0.28618142 -0.14976248 -0.86649334 23 135 122
0.28622487 -0.14912368 -0.86655056 25 136 121
0.28322154 -0.15028527 -0.86449146 16 134 123
0.28538722 -0.14750904 -0.86606491 28 132 121
0.28513038 -0.14732563 -0.86590338 27 133 120
0.28461054 -0.14726174 -0.86556137 25 133 121
0.28650191 -0.14650083 -0.86685419 34 133 120
0.28733295 -0.14818603 -0.86737478 31 135 121
0.25479174 -0.15044984 -0.86660713 15 132 116
0.25508159 -0.15117817 -0.86625415 15 132 116
0.25288391 -0.15210037 -0.86755824 15 132 116
0.2525622 -0.15329914 -0.86752272 15 132 116
0.25407088 -0.15336587 -0.86649251 15 132 116
0.25580823 -0.15144362 -0.86571449 15 132 116
0.25420958 -0.15219301 -0.86663419 15 132 116
0.25421003 -0.15240815 -0.86659086 15 132 116
0.25267342 -0.15379068 -0.86734241 15 132 116
0.25517473 -0.1531179 -0.86580348 15 132 116
0.25965828 -0.15236586 -0.86380833 14 132 118
0.25664997 -0.15379439 -0.86485493 15 132 117
0.2590405 -0.15404584 -0.86380553 14 132 117
0.25889453 -0.15167888 -0.86423951 14 132 118
0.25964564 -0.15053906 -0.86410153 14 130 119
0.25803515 -0.15193033 -0.86457115 14 132 117
0.2578294 -0.15161596 -0.8647297 14 132 117
0.2563456 -0.15261713 -0.86521953 15 132 117
0.2592763 -0.15040076 -0.86429977 14 130 119
0.25755173 -0.15097965 -0.86498606 14 132 117
0.25999343 -0.15181404 -0.8637678 14 132 118
0.28315952 -0.1521726 -0.86437005 15 132 124
0.28248441 -0.15128493 -0.8641302 15 132 123
0.28270108 -0.15172629 -0.86419964 15 132 123
0.2814483 -0.15145881 -0.86368227 15 132 123
0.28172958 -0.15176356 -0.86378747 15 130 123
0.2866115 -0.15257628 -0.8665669 17 136 124
0.28706306 -0.15083171 -0.86701506 19 137 122
0.28696916 -0.15121853 -0.86691958 19 135 122
0.28530306 -0.15398762 -0.86561906 15 134 126
0.28392649 -0.15386727 -0.86477637 14 132 125
0.28483102 -0.15331501 -0.86539084 15 134 124
0.2841596 -0.1529664 -0.86498976 15 132 124
0.28350529 -0.15041038 -0.86467522 16 134 123
0.28496161 -0.15127221 -0.86560756 17 134 122
0.2840085 -0.15290585 -0.86489159 15 132 124
0.28606433 -0.15107743 -0.86635435 18 136 122
0.28614539 -0.15059669 -0.86643171 18 137 122
0.2839103 -0.15133704 -0.86490142 15 134 123
0.28743985 -0.1527639 -0.86714011 17 136 124
0.28793001 -0.15400389 -0.86742711 16 136 124
0.28727713 -0.15059322 -0.8672114 19 137 122
0.25150836 -0.15727985 -0.86738938 15 132 116
0.25168678 -0.1560453 -0.86753768 15 132 116
0.25328541 -0.15458402 -0.86676967 15 132 117
0.2528981 -0.15649301 -0.8665818 15 132 116
0.25509426 -0.15453607 -0.86556774 15 132 116
0.25336227 -0.15503253 -0.86661506 15 132 116
0.25325069 -0.15565927 -0.86654186 15 132 116
0.2533544 -0.15504213 -0.8666181 15 132 116
0.25337738 -0.15817253 -0.86586475 15 132 116
0.25515407 -0.15669368 -0.86502016 15 132 117
0.25509912 -0.15655081 -0.86509055 15 132 117
0.25420192 -0.15744895 -0.86548156 15 132 116
0.25372615 -0.15656954 -0.86600709 15 132 116
0.25565615 -0.15639539 -0.86475348 15 132 117
0.25837237 -0.15471408 -0.86395389 15 132 117
0.28199935 -0.1544565 -0.86374605 12 132 123
0.28293967 -0.15518235 -0.86407948 11 132 124
0.28264135 -0.15800676 -0.8636809 11 130 122
0.2856946 -0.15607594 -0.86564958 14 130 125
0.28679469 -0.15574118 -0.86637175 14 132 125
0.28413606 -0.15816183 -0.86446881 11 130 123
0.28531605 -0.15734226 -0.8652885 12 130 124
0.28610507 -0.15719432 -0.86579746 12 130 124
0.28578401 -0.15622294 -0.86569124 12 132 124
0.28324693 -0.15696041 -0.86403638 11 130 124
0.28412217 -0.15628789 -0.86464947 11 132 124
0.28557625 -0.15450209 -0.8657375 15 132 126
0.28427574 -0.15696013 -0.86467493 11 132 123
0.28331512 -0.15587549 -0.86419153 11 132 124
0.28604048 -0.15446641 -0.86602926 15 134 126
0.28724512 -0.15805706 -0.86645383 14 130 123
0.28817782 -0.15462881 -0.86756998 16 134 124
0.28721058 -0.15593255 -0.86663514 15 132 124
0.28719631 -0.15533879 -0.86668134 15 132 124
0.25063038 -0.16001008 -0.86735505 15 132 115
0.25078079 -0.15959293 -0.86735463 15 132 115
0.25531399 -0.16135724 -0.86396921 15 132 117
0.25365767 -0.16084667 -0.86503083 15 132 116
0.25488719 -0.16037402 -0.86438972 15 132 116
0.25489479 -0.15944813 -0.86454499 15 132 117
0.25454518 -0.16116236 -0.86445469 15 132 116
0.25534707 -0.16069062 -0.86406475 15 132 117
0.25342998 -0.15922236 -0.86556184 15 132 116
0.25421318 -0.15841086 -0.86524385 15 132 117
0.28392175 -0.16210145 -0.86397767 14 130 123
0.28387308 -0.16195698 -0.86396015 14 130 123
0.28642789 -0.16205861 -0.8654663 14 130 123
0.28445771 -0.15955763 -0.86450917 12 130 123
0.28592962 -0.16122198 -0.86524063 14 130 123
0.28466958 -0.16091111 -0.86451644 12 130 122
0.28525642 -0.15952536 -0.8650105 12 130 123
0.28619003 -0.15856437 -0.86570936 12 128 124
0.28631395 -0.15879877 -0.86575925 12 130 123
0.28447783 -0.15875201 -0.86461401 11 130 123
0.28469485 -0.15833563 -0.86479926 11 130 123
0.28662872 -0.16007131 -0.86580604 14 130 123
0.28900406 -0.16195872 -0.86742145 14 132 123
0.28863436 -0.15928946 -0.86743808 15 130 123
0.2885927 -0.16120328 -0.86717725 14 132 123
0.28728303 -0.15984939 -0.86627465 14 130 123
0.28757292 -0.15915748 -0.86659193 14 130 123
0.2866528 -0.16456141 -0.8653565 14 130 123
0.28542051 -0.16279154 -0.86479878 14 130 123
0.28509465 -0.16333115 -0.86455297 14 130 123
0.28699914 -0.16259941 -0.86575305 14 130 123
0.28644276 -0.16367704 -0.86531824 14 130 123
0.28398338 -0.16250695 -0.86397481 14 130 123
0.28452519 -0.16488504 -0.86398524 14 130 122
0.28464589 -0.16347797 -0.86426973 14 130 123
0.2846038 -0.16386507 -0.86418575 14 130 123
0.28626701 -0.16595675 -0.86495084 14 130 123
0.28451762 -0.16543895 -0.86389899 14 130 122
0.28776428 -0.16525945 -0.86609375 14 130 123
0.2890518 -0.16380742 -0.86728674 14 130 123
0.28849536 -0.16517821 -0.86670399 14 130 123
0.28816876 -0.16566055 -0.86639106 14 130 123
0.28871039 -0.16428627 -0.8669619 14 130 123
0.28864849 -0.16298142 -0.86703008 14 132 123
0.28800529 -0.1638027 -0.86642808 14 130 123
0.28742799 -0.16369982 -0.86596972 14 130 123
0.28744906 -0.16317159 -0.86603832 14 130 123
0.2863113 -0.16684304 -0.86487144 14 130 123
0.28697485 -0.16654848 -0.86533457 14 130 123
0.28679922 -0.16700791 -0.86516619 14 130 123
0.2845211 -0.16612898 -0.86380297 14 130 122
0.28707436 -0.16840696 -0.86517555 14 130 122
0.28593808 -0.16977443 -0.86434227 14 130 122
0.28495881 -0.16974656 -0.86377144 14 130 122
0.2849611 -0.16870925 -0.8638528 14 130 122
0.28897572 -0.16855368 -0.8667323 12 132 123
0.28894359 -0.16853732 -0.86670721 12 132 123
0.28950801 -0.16805792 -0.86723351 12 130 124
0.2878013 -0.16896066 -0.86570323 12 132 122
0.28772587 -0.16933338 -0.86559838 12 132 121
0.28734171 -0.16701278 -0.86555725 14 130 123
0.28822127 -0.16655105 -0.86633801 14 130 123
0.28835288 -0.16756164 -0.8663252 14 130 123
0.28807181 -0.16836475 -0.86599696 14 130 123
0.28706345 -0.17217764 -0.86478841 12 130 123
0.2866233 -0.17245257 -0.86450636 12 130 123
0.28664377 -0.17025007 -0.86471456 12 132 121
0.28591329 -0.17137432 -0.864187 12 130 123
0.28511921 -0.17068034 -0.86377895 12 130 122
0.28554624 -0.1733302 -0.86374998 12 128 124
0.28644598 -0.17281938 -0.86436731 12 128 124
0.28967413 -0.17333509 -0.86677974 11 130 125
0.28902411 -0.17272069 -0.86633188 11 130 124
0.28998971 -0.1709065 -0.86731905 11 130 124
0.28990003 -0.17099771 -0.8672365 12 130 125
0.2889294 -0.17156425 -0.86639261 12 130 125
0.28943235 -0.17106935 -0.86685365 12 130 125
0.28890938 -0.17291959 -0.8662166 11 130 124
0.28776115 -0.17273527 -0.86531156 12 128 124
0.28993309 -0.17017765 -0.86735851 12 130 124
0.28816599 -0.17196706 -0.86571908 12 130 124
0.28798506 -0.17230104 -0.86553776 12 130 124
0.28721958 -0.17258145 -0.86487168 12 130 123
0.28695205 -0.17592664 -0.86416888 11 128 124
0.28661412 -0.17401667 -0.86432368 11 130 124
0.28687841 -0.17501588 -0.86429721 11 128 124
0.28656629 -0.17658189 -0.86380768 11 128 124
0.2873407 -0.17399324 -0.8648296 11 128 124
0.29069194 -0.17565221 -0.86727208 10 130 124
0.28990614 -0.17582348 -0.86661822 10 130 124
0.28852859 -0.1740271 -0.86577559 10 130 124
0.28984091 -0.17394422 -0.86683822 10 130 125
0.29024392 -0.17541318 -0.86694807 10 130 124
0.2879318 -0.17470649 -0.86519688 11 128 124
0.28828162 -0.17607249 -0.86523193 11 128 124
0.28841242 -0.17689696 -0.86518502 11 128 124
0.28775129 -0.17484193 -0.86501807 11 128 124
0.28953519 -0.17644075 -0.86622316 11 128 124
0.28887019 -0.1770521 -0.86554307 11 128 124
0.28801641 -0.17597778 -0.8650254 11 128 124
0.29127491 -0.17737423 -0.86751348 10 130 124
0.2878989 -0.1802789 -0.86419547 12 128 124
0.2888335 -0.18128125 -0.86483407 12 130 124
0.28811401 -0.18054241 -0.86433762 12 128 124
0.28805441 -0.18112551 -0.86420196 12 128 124
0.28833014 -0.17997742 -0.86460298 11 130 123
0.28901118 -0.18038416 -0.86511576 11 130 123
0.28895047 -0.18033339 -0.86507231 11 130 123
0.29093167 -0.17872053 -0.8670035 11 128 124
0.28860775 -0.17916705 -0.86496514 11 130 123
0.28924918 -0.17964347 -0.86543351 11 130 123
0.28788498 -0.1780028 -0.86453599 11 128 124
0.29034227 -0.17945763 -0.8663885 11 130 123
0.28856859 -0.17882721 -0.86498541 11 128 124
0.28887954 -0.177882 -0.86539727 11 128 124
0.29118341 -0.18081836 -0.86689931 11 132 122
0.29130203 -0.18128285 -0.8669402 12 130 123
0.29106504 -0.18049839 -0.86683959 11 132 122
0.29082149 -0.18410021 -0.86598343 14 130 122
0.2895557 -0.18167366 -0.86538213 12 130 123
0.28871951 -0.18267347 -0.86448854 14 130 123
0.29095402 -0.18497506 -0.86592799 15 130 123
0.28985792 -0.18246479 -0.86548537 12 130 123
0.28921458 -0.1816905 -0.86509216 12 130 124
0.28785124 -0.1835172 -0.8637014 12 130 123
0.28885818 -0.18338802 -0.86448592 14 130 123
0.29013991 -0.18551491 -0.86520594 15 130 123
0.28870407 -0.18515933 -0.86415285 14 130 123
0.29146039 -0.18205741 -0.86695528 12 132 122
0.29119539 -0.18373938 -0.8663848 14 130 122
0.299898 -0.1607482 -0.87985909 44 140 129
0.29985726 -0.16047862 -0.87981504 43 141 129
0.29975286 -0.15922299 -0.87978429 45 144 129
0.29978791 -0.16081923 -0.87962365 42 140 129
0.29982695 -0.16211691 -0.87951779 41 137 129
0 0 0 1 0 0 0 1 0 0 0 1 0 0 0 0 0 1036 1 0 0
