ply
format ascii 1.0
comment PCL generated
element vertex 697
property float x
property float y
property float z
property uchar red
property uchar green
property uchar blue
element camera 1
property float view_px
property float view_py
property float view_pz
property float x_axisx
property float x_axisy
property float x_axisz
property float y_axisx
property float y_axisy
property float y_axisz
property float z_axisx
property float z_axisy
property float z_axisz
property float focal
property float scalex
property float scaley
property float centerx
property float centery
property int viewportx
property int viewporty
property float k1
property float k2
end_header
0.10021152 0.17425483 -0.78939885 26 133 121
0.097270913 0.17001285 -0.78625512 28 134 120
0.097667009 0.17057121 -0.78666109 28 132 120
0.097447194 0.17063455 -0.78657585 29 132 120
0.09883298 0.17076226 -0.78731179 27 131 120
0.098910861 0.17091703 -0.78741097 27 131 120
0.098847531 0.17326298 -0.788284 28 132 121
0.098572776 0.17153049 -0.7874763 28 131 120
0.10085909 0.17143114 -0.78870386 24 131 119
0.10037381 0.17159517 -0.78847718 25 131 120
0.10154282 0.17086694 -0.78889585 23 131 120
0.10053913 0.17019913 -0.78804177 24 131 119
0.10076468 0.17139886 -0.78863519 25 131 120
0.10040363 0.17095506 -0.78825009 24 131 119
0.099930778 0.17149293 -0.78817469 25 131 120
0.099825643 0.17137292 -0.7880671 25 133 119
0.097111955 0.16887793 -0.785788 29 134 120
0.097873285 0.16972728 -0.78645372 28 131 120
0.096891768 0.16898625 -0.78571552 29 134 120
0.099581644 0.16656485 -0.78622949 28 129 119
0.097775199 0.16797972 -0.78581268 29 132 120
0.097515397 0.16896887 -0.78601903 29 132 120
0.097251728 0.16848035 -0.78572136 30 132 120
0.099028833 0.16638052 -0.7858808 29 131 119
0.10021101 0.16978456 -0.78769022 24 131 119
0.10156778 0.16912773 -0.78826112 24 131 119
0.10121836 0.16966172 -0.78824639 24 131 119
0.10155121 0.1680589 -0.78786337 25 131 118
0.10086843 0.16957217 -0.78800529 24 131 119
0.1022303 0.16671146 -0.78779358 25 133 117
0.099989794 0.16691794 -0.78658074 27 131 119
0.099610649 0.168015 -0.78673553 26 131 119
0.099650949 0.16846429 -0.78691089 26 131 119
0.10243437 0.16634034 -0.78778464 26 133 118
0.099763967 0.16822875 -0.78689581 26 131 119
0.10160007 0.16494606 -0.78677827 29 132 118
0.10201002 0.16515353 -0.78709424 28 134 117
0.10328636 0.164968 -0.78775239 27 134 117
0.10311686 0.1641611 -0.78733951 30 133 118
0.10296182 0.16538063 -0.78772807 27 134 117
0.10707834 0.16285692 -0.7892707 26 133 118
0.105811 0.16460338 -0.78917587 24 133 118
0.10563081 0.16506274 -0.78924787 24 131 118
0.10625941 0.16272371 -0.788706 27 134 117
0.10653452 0.1622657 -0.78869724 28 132 118
0.10581236 0.16304006 -0.7885527 27 134 117
0.10362328 0.16481975 -0.78789234 27 134 117
0.10486916 0.16310011 -0.78799158 30 133 118
0.10491747 0.16295646 -0.7879653 30 133 118
0.10435251 0.16300595 -0.78763449 31 133 118
0.10701562 0.1605137 -0.78823453 30 133 119
0.10740515 0.16128466 -0.78881401 28 132 118
0.10645469 0.16198553 -0.78853226 28 134 117
0.10799468 0.16000129 -0.78865325 30 133 119
0.10909373 0.15892251 -0.78893465 30 135 119
0.10886276 0.15911867 -0.78886211 30 135 119
0.10853614 0.15972616 -0.78890413 30 133 119
0.10746703 0.15979715 -0.7882027 30 135 119
0.11838025 0.13590974 -0.78612345 33 133 124
0.11910157 0.13693352 -0.78719366 33 133 124
0.11827649 0.13524508 -0.7857129 33 132 124
0.11829003 0.13543105 -0.78581572 33 133 124
0.12146117 0.13488111 -0.78831273 30 132 122
0.12071096 0.137982 -0.78913778 33 134 124
0.11974198 0.13521753 -0.78695482 31 132 123
0.12175285 0.13495572 -0.78860629 30 132 122
0.12105415 0.13543442 -0.78821856 31 132 123
0.12072706 0.13658075 -0.78847957 33 132 124
0.12135252 0.13500932 -0.78827822 30 132 122
0.11944395 0.13723686 -0.78764367 33 133 124
0.12001202 0.13773815 -0.7883954 33 133 124
0.11889427 0.13451859 -0.7858997 30 132 124
0.11950257 0.13338561 -0.78597373 29 132 123
0.11968762 0.13352898 -0.78619468 29 132 123
0.11922287 0.13343695 -0.78574711 29 132 123
0.12211014 0.13444251 -0.78870124 30 132 122
0.12188406 0.1332041 -0.78799784 31 132 123
0.12135481 0.13361371 -0.7876935 31 132 123
0.12016619 0.13099514 -0.78561068 30 132 123
0.12061543 0.13276966 -0.7867083 30 132 123
0.12013516 0.13191351 -0.78594655 30 132 124
0.12276503 0.13333888 -0.78881353 32 132 123
0.12245934 0.13094519 -0.78755271 33 133 123
0.12191343 0.13120611 -0.78719503 31 133 123
0.12263642 0.1330706 -0.78859156 32 132 123
0.12272198 0.13191013 -0.78818011 33 132 123
0.12386554 0.13100591 -0.78891462 34 133 123
0.12330171 0.13113548 -0.78839403 33 134 123
0.12403568 0.1312059 -0.78917152 34 133 123
0.12301644 0.13050093 -0.78785974 33 133 123
0.12299642 0.13056143 -0.78786516 33 133 123
0.12132959 0.13023509 -0.78631908 31 132 123
0.12242549 0.13043791 -0.78733122 33 133 123
0.12124079 0.13067947 -0.78640842 31 132 123
0.12241539 0.12816845 -0.78647894 33 134 122
0.12202308 0.12802906 -0.78608537 32 133 123
0.12197424 0.12790582 -0.78599381 32 133 123
0.1224974 0.12738746 -0.78625226 33 133 124
0.12399282 0.12949814 -0.78847533 33 135 123
0.12442968 0.1290157 -0.7887038 33 133 124
0.12420505 0.1284678 -0.7882728 33 134 123
0.12425893 0.12849416 -0.78833479 33 133 124
0.12371388 0.12816314 -0.78768235 33 134 123
0.12419683 0.12827656 -0.78818965 33 133 124
0.12340649 0.12927461 -0.78779638 34 133 123
0.12321779 0.1306313 -0.78810841 33 134 123
0.12369594 0.12945707 -0.78815925 34 133 123
0.12301213 0.12626909 -0.78628486 33 133 123
0.12330151 0.12631376 -0.78657591 33 133 123
0.12340131 0.12682012 -0.78685755 33 133 123
0.12394992 0.12635282 -0.78721136 33 133 123
0.12423051 0.12529685 -0.78709215 32 133 123
0.12642056 0.12587559 -0.78939754 31 132 123
0.12603565 0.12675741 -0.78935724 31 133 123
0.12363824 0.1244058 -0.78619629 32 136 122
0.12559026 0.12465922 -0.78815371 31 135 121
0.12564448 0.12648898 -0.78888422 31 133 123
0.12380476 0.12331244 -0.78595519 32 134 122
0.12553839 0.12440111 -0.78800893 31 135 121
0.12451988 0.12355764 -0.78672785 32 134 122
0.12635808 0.12374511 -0.78854966 30 135 121
0.1259677 0.12357844 -0.78811598 30 135 121
0.12612864 0.12418976 -0.78849524 30 135 121
0.12703297 0.12413273 -0.78934419 30 133 121
0.12651232 0.12238344 -0.78821599 31 135 120
0.12430293 0.1228876 -0.78627896 32 134 122
0.12588868 0.12132397 -0.78726554 33 134 121
0.1255753 0.12163284 -0.78707051 33 134 121
0.12581521 0.12261362 -0.78762865 31 133 121
0.12426807 0.1227744 -0.78620768 32 134 122
0.12396642 0.12211975 -0.78568935 33 133 123
0.12740721 0.1222714 -0.78907603 31 133 120
0.12774295 0.12199479 -0.78933305 31 135 120
0.12744863 0.1229931 -0.78936195 30 135 119
0.12729192 0.12258418 -0.78905988 30 135 119
0.13464755 0.14649144 -0.8085826 23 131 123
0.13341664 0.14639476 -0.80695754 23 131 123
0.13452993 0.14427845 -0.80729383 23 131 123
0.1339408 0.14496556 -0.80689353 23 131 123
0.1340362 0.14608905 -0.80759281 23 131 123
0.13460968 0.14387596 -0.80718905 23 131 123
0.13424298 0.14646749 -0.80805165 23 131 123
0.13350241 0.14388834 -0.80580163 24 131 123
0.13413146 0.14308017 -0.80618799 24 131 123
0.13439572 0.14270513 -0.80633396 24 131 123
0.13518843 0.14423765 -0.80831718 25 131 123
0.13494064 0.1441921 -0.80786926 24 131 124
0.13500205 0.14602439 -0.80893755 24 130 124
0.13478026 0.14368251 -0.80731928 24 130 124
0.1337599 0.14255108 -0.8054952 24 131 123
0.13356677 0.14237879 -0.80517721 24 131 123
0.13466817 0.14096507 -0.80580795 25 133 123
0.13489716 0.13987513 -0.80561244 26 134 123
0.13502406 0.14200428 -0.80688035 25 133 123
0.13575742 0.14066383 -0.80736417 29 134 123
0.13644056 0.14055289 -0.80819237 30 135 123
0.13649955 0.14026606 -0.80809212 30 135 122
0.13610366 0.13978019 -0.8072713 30 135 123
0.13685735 0.13881923 -0.80766553 33 133 124
0.13718493 0.14016876 -0.80893165 33 133 124
0.13612659 0.14195807 -0.80865055 29 134 123
0.13675585 0.13489516 -0.80584192 36 133 122
0.13612466 0.13776734 -0.80622405 32 133 123
0.13627008 0.13551983 -0.80545026 35 132 122
0.13717842 0.13806885 -0.80773699 34 134 122
0.13626795 0.13573743 -0.80554086 35 132 123
0.13673463 0.13685359 -0.8066327 35 133 123
0.13587497 0.13706815 -0.80559611 31 135 122
0.13649583 0.13560353 -0.80578262 35 133 122
0.1366308 0.13439099 -0.80539006 36 132 122
0.13951659 0.14688063 -0.8194595 32 134 124
0.13942085 0.14644809 -0.81868923 32 136 124
0.097974077 0.1667494 -0.78544813 30 131 119
0.11759365 0.13490614 -0.78501445 33 133 124
0.11741608 0.13526523 -0.78503907 33 133 124
0.11775354 0.13496874 -0.7851674 33 133 124
0.11508635 0.1321495 -0.78183293 32 133 124
0.11466864 0.13369781 -0.78224069 34 135 124
0.11646143 0.13464272 -0.78401357 34 134 124
0.11826922 0.13470179 -0.78544819 31 133 124
0.11570332 0.13256361 -0.78248709 31 133 124
0.11630829 0.13265398 -0.78299904 30 133 124
0.11712119 0.13472091 -0.78456259 33 134 124
0.11614369 0.13196807 -0.78258789 30 133 124
0.11888067 0.13302393 -0.78529233 29 134 124
0.11781459 0.13368247 -0.7846629 30 132 123
0.11636324 0.13187598 -0.78272957 30 132 124
0.11816828 0.13169785 -0.78416324 29 132 124
0.11767102 0.13134781 -0.78360295 29 132 124
0.11706834 0.13133723 -0.78308576 29 132 125
0.11758845 0.13170852 -0.78367376 29 134 124
0.11963154 0.13150585 -0.78534383 29 132 123
0.11916301 0.13149317 -0.78493035 28 132 123
0.11714175 0.13079543 -0.78293532 28 132 124
0.11822478 0.12980491 -0.78345561 28 131 124
0.11604664 0.13043034 -0.78185505 29 132 125
0.1184861 0.12987816 -0.78370774 28 131 123
0.1161872 0.13052733 -0.78201407 29 132 125
0.12000892 0.12942754 -0.78484488 29 132 123
0.1210827 0.12757425 -0.78506881 30 135 123
0.12132948 0.12716824 -0.78512824 31 133 123
0.12024387 0.12777407 -0.78439599 29 132 124
0.11991767 0.12945421 -0.78477365 29 132 123
0.11926906 0.12952043 -0.78423184 28 131 123
0.11943917 0.12953511 -0.7843861 28 131 123
0.11886265 0.12353759 -0.78168529 27 132 125
0.12270422 0.12450926 -0.78536254 33 133 123
0.12212182 0.12453765 -0.78485024 32 133 123
0.12044082 0.12643427 -0.78405118 29 134 123
0.12139168 0.12652911 -0.78493971 31 133 123
0.12005664 0.12688597 -0.78387541 28 132 123
0.12237465 0.12465071 -0.78511935 32 134 123
0.11935969 0.12560052 -0.78280133 27 132 124
0.12017411 0.12487964 -0.78325987 29 132 124
0.12021135 0.12462866 -0.78320539 29 132 124
0.11980475 0.12338784 -0.78242284 29 132 125
0.11930762 0.12584579 -0.78284091 27 132 124
0.11977892 0.12150238 -0.78171998 29 132 125
0.11997057 0.12197953 -0.78204769 30 133 124
0.12130813 0.12014781 -0.78252184 32 133 124
0.11960601 0.1225699 -0.78194922 29 132 125
0.12222105 0.12057804 -0.78345573 33 134 123
0.12290695 0.12293137 -0.78495675 32 136 122
0.12195671 0.1208216 -0.78331959 33 133 124
0.12052311 0.12303895 -0.7829262 30 133 124
0.12286925 0.12291383 -0.78491729 32 136 122
0.12320062 0.1213822 -0.78463364 33 134 122
0.12231584 0.11897415 -0.78295743 33 134 123
0.12169614 0.11780319 -0.78206956 33 134 124
0.12144662 0.11797399 -0.78191507 32 133 124
0.11904958 0.16066912 -0.79770237 23 131 121
0.11880989 0.16125827 -0.79775161 23 131 121
0.11970494 0.16082442 -0.79846346 23 131 121
0.11975293 0.16028365 -0.79827321 23 131 121
0.11966965 0.1596024 -0.79785246 23 131 121
0.11961383 0.15924019 -0.79763383 23 131 121
0.13079259 0.14080618 -0.80094475 26 133 121
0.12986937 0.14019112 -0.79961997 28 131 122
0.12992549 0.14037722 -0.79976112 27 133 121
0.1288792 0.13884437 -0.79791129 30 132 122
0.12841934 0.13870381 -0.79731339 30 132 122
0.1306328 0.13968118 -0.80031282 28 132 122
0.1288195 0.13921663 -0.79799116 30 131 122
0.12888993 0.13972053 -0.79827702 29 131 122
0.1287151 0.14038116 -0.79833251 28 131 122
0.12977034 0.14227946 -0.80034119 24 131 120
0.12925982 0.14094862 -0.79920518 27 131 121
0.129421 0.1420016 -0.79981583 25 131 121
0.12834053 0.139613 -0.79758197 29 132 122
0.12850361 0.14103088 -0.79834014 26 133 121
0.1309192 0.14048502 -0.80096328 26 133 121
0.13080423 0.13688388 -0.79923314 31 135 123
0.13045274 0.13545066 -0.79811859 32 136 123
0.13030683 0.13663188 -0.7985245 32 133 123
0.13041192 0.13609569 -0.79838598 32 134 123
0.12928733 0.1384469 -0.79821205 31 132 123
0.13078691 0.13851444 -0.80001009 30 133 122
0.13007948 0.13496286 -0.79746187 34 134 124
0.12996066 0.13536951 -0.79751641 33 134 124
0.13135909 0.13478267 -0.79889023 33 136 123
0.13220318 0.13620716 -0.80061632 32 133 123
0.13142638 0.13694802 -0.80000585 32 133 124
0.13148554 0.13490152 -0.79910374 32 136 123
0.13301818 0.13496612 -0.8010357 32 133 123
0.13103083 0.13668483 -0.79940367 32 133 123
0.13137791 0.13834931 -0.8006283 30 133 122
0.13041006 0.13389739 -0.79733551 33 135 123
0.13097799 0.13282239 -0.79748648 33 133 123
0.13167158 0.13459788 -0.79919004 33 134 123
0.13161582 0.13136597 -0.79756486 33 133 123
0.13137637 0.13163337 -0.7974 33 133 123
0.13219856 0.13250452 -0.79883504 33 134 122
0.13239892 0.13365319 -0.79963946 33 134 122
0.13369681 0.13338366 -0.80109924 33 133 122
0.13341081 0.13377252 -0.80093896 33 133 122
0.13383825 0.13251667 -0.80084908 33 133 122
0.13391176 0.13124298 -0.80031717 33 133 121
0.13257568 0.13264495 -0.79936582 33 134 122
0.13372369 0.13342622 -0.80115294 33 133 122
0.13343522 0.13308716 -0.80063415 33 133 122
0.13390526 0.13194343 -0.80065125 33 133 121
0.13455072 0.12758972 -0.79968929 33 134 121
0.13414662 0.12877649 -0.79960215 33 133 121
0.1345799 0.12800163 -0.79987925 33 134 121
0.13384479 0.12709096 -0.79858768 33 134 121
0.13341784 0.12824938 -0.79846638 33 133 121
0.13230436 0.13060585 -0.79805881 33 134 122
0.13259076 0.12892598 -0.79772806 33 134 121
0.1331166 0.12880749 -0.79832387 33 133 121
0.13279089 0.13067727 -0.79868352 33 134 122
0.13340816 0.12852862 -0.79856777 33 133 121
0.13225749 0.12922388 -0.79744089 33 134 121
0.13556106 0.12744087 -0.80099869 36 133 122
0.13495618 0.12782118 -0.80031377 34 134 121
0.13507375 0.12745108 -0.80033761 35 134 121
0.13344069 0.12663616 -0.79785341 33 134 121
0.13325873 0.12687244 -0.79773492 33 134 121
0.13365628 0.12574959 -0.79769099 33 133 121
0.13341896 0.12674071 -0.79787737 33 134 121
0.13555226 0.12604167 -0.80035174 35 134 122
0.1346132 0.15483847 -0.81391358 23 133 123
0.13499482 0.15462556 -0.81457782 23 133 123
0.13490988 0.15358143 -0.81376106 23 133 123
0.13820285 0.14495665 -0.81427282 30 135 123
0.13904773 0.14491215 -0.81613529 32 136 124
0.13935076 0.14416043 -0.81653351 34 135 123
0.13898982 0.14458144 -0.81572485 32 136 124
0.13867311 0.14336552 -0.81390452 33 136 123
0.10242331 0.18101157 -0.79325777 30 131 123
0.10270523 0.1801874 -0.79315817 28 131 123
0.10240439 0.17844935 -0.79240626 27 131 122
0.10090499 0.17816959 -0.79135954 29 132 122
0.1016537 0.17944941 -0.79229891 30 132 122
0.10085058 0.17422251 -0.78976631 25 133 121
0.10001885 0.17714144 -0.79039901 30 132 122
0.10059135 0.17555629 -0.79012543 27 133 121
0.099785715 0.17697808 -0.79019582 30 132 122
0.10044572 0.17600039 -0.79021096 28 132 122
0.10183445 0.17639831 -0.79122496 26 133 122
0.10184584 0.17724121 -0.7915861 27 131 122
0.10092989 0.17760175 -0.79116046 28 132 122
0.10158394 0.1724163 -0.78951156 24 131 120
0.10861784 0.16374186 -0.79067993 24 131 119
0.10902307 0.16390958 -0.79102826 23 133 119
0.11108531 0.16415049 -0.79251796 23 131 121
0.10887921 0.16265482 -0.79039812 25 133 119
0.10969619 0.16284393 -0.79102218 25 131 120
0.10934474 0.16345081 -0.79105729 24 133 119
0.11280772 0.16297387 -0.79330236 24 131 121
0.11181414 0.16240202 -0.79228276 25 133 120
0.11187103 0.16395618 -0.79301226 23 131 121
0.11010511 0.1618375 -0.79085684 26 133 119
0.10973462 0.1610641 -0.79029274 27 133 120
0.11106116 0.16082914 -0.79107386 27 131 120
0.11040251 0.16098143 -0.79070073 27 133 120
0.11058369 0.15927385 -0.79011679 28 131 120
0.11127809 0.15883568 -0.7903958 28 132 120
0.10997599 0.15936968 -0.78974205 28 132 119
0.11021496 0.15933129 -0.78989249 28 132 119
0.11371718 0.16060282 -0.79303259 25 133 120
0.11384907 0.1599786 -0.79288971 26 131 120
0.113343 0.16143999 -0.79307193 25 133 120
0.11437749 0.15916935 -0.79298043 26 131 120
0.11264504 0.16004816 -0.79197216 27 131 120
0.11152321 0.16101392 -0.79148132 27 131 120
0.1128011 0.16000827 -0.79207939 27 131 120
0.11421193 0.15860555 -0.79261911 27 133 120
0.11231478 0.16010679 -0.79173464 27 131 120
0.11209524 0.16115278 -0.79199183 27 131 120
0.11297617 0.1589126 -0.79176646 27 133 120
0.11274125 0.1594384 -0.79179704 27 133 120
0.11129279 0.15646286 -0.78945667 30 133 119
0.1114578 0.15624376 -0.7894935 31 133 120
0.11231959 0.15641902 -0.79021019 29 132 120
0.11294843 0.15573379 -0.79041308 30 132 120
0.11190192 0.1573796 -0.79027498 29 132 120
0.11141273 0.15806502 -0.79017729 29 132 120
0.11468098 0.15741506 -0.79248244 28 131 120
0.11427639 0.15772684 -0.79229736 27 133 120
0.11299775 0.15745069 -0.79116422 28 132 120
0.11335628 0.15693121 -0.79122263 29 131 120
0.11395787 0.1578224 -0.79208648 28 131 120
0.1146962 0.15585686 -0.79181755 29 132 120
0.11389086 0.15749498 -0.79189116 28 131 120
0.11594349 0.15592571 -0.79287302 28 131 120
0.11636964 0.15454459 -0.79262781 28 132 120
0.11621719 0.15441552 -0.79244345 28 132 120
0.11573916 0.15611771 -0.79278529 28 131 120
0.11590101 0.15408325 -0.79203314 30 131 120
0.11575732 0.1537969 -0.79178786 30 131 120
0.11593354 0.15368937 -0.79188901 29 131 120
0.11750053 0.15264775 -0.79275161 27 131 120
0.11691201 0.15062065 -0.79137355 29 131 120
0.11607745 0.15278648 -0.79161638 30 131 120
0.1182483 0.15099846 -0.79266149 26 131 119
0.11653205 0.1510323 -0.79123372 30 131 120
0.11781415 0.15096383 -0.79228151 27 131 120
0.11858462 0.14983681 -0.79243839 27 131 120
0.11816295 0.15013312 -0.79221278 27 131 120
0.11783551 0.15024568 -0.79198653 27 133 119
0.12085917 0.14696825 -0.79327995 28 131 120
0.11949604 0.14812112 -0.79249483 28 132 119
0.11934886 0.14898652 -0.79273218 27 131 119
0.12008481 0.14864458 -0.79327804 26 133 119
0.12118368 0.14577673 -0.79306459 29 132 120
0.12135993 0.14563869 -0.79316872 29 134 120
0.12231146 0.1425188 -0.79268706 33 134 123
0.12079717 0.14001115 -0.79014903 33 134 123
0.12090701 0.13962691 -0.79007965 33 133 124
0.12143276 0.14023785 -0.79084319 33 133 124
0.12231371 0.14136988 -0.792171 32 134 124
0.12304049 0.13961397 -0.79194093 32 133 124
0.12275071 0.13946025 -0.79161543 32 133 124
0.12266636 0.13963306 -0.79162729 32 133 124
0.12287819 0.14159192 -0.79276985 32 133 124
0.122658 0.14095794 -0.79226917 32 133 124
0.12355311 0.13873382 -0.79202992 31 133 123
0.12334214 0.13870458 -0.7918011 31 133 123
0.1233473 0.14138272 -0.79311842 31 133 123
0.12408811 0.14018597 -0.79328537 30 133 123
0.12299924 0.13678247 -0.79055464 32 132 124
0.12279364 0.13561782 -0.78982913 32 132 124
0.12171894 0.13698278 -0.78954375 33 132 124
0.12207223 0.13703977 -0.78987557 33 132 124
0.12292556 0.13558 -0.78992522 32 132 124
0.12534052 0.13759096 -0.79334581 31 132 123
0.12393744 0.13521032 -0.79078794 32 132 123
0.12531897 0.13497286 -0.79213917 33 134 123
0.12528649 0.13588431 -0.79251701 33 133 123
0.12423758 0.1360542 -0.79148644 31 132 123
0.12485674 0.13838267 -0.79319304 30 132 123
0.12438084 0.13572073 -0.79148692 32 132 123
0.12458834 0.13851628 -0.792979 30 132 123
0.12434141 0.1383411 -0.79264551 30 132 123
0.12418079 0.13825485 -0.79244161 30 132 123
0.12316421 0.13668221 -0.79066789 31 132 123
0.12515241 0.13463478 -0.791816 34 133 122
0.1262673 0.13463037 -0.79298735 34 134 122
0.12557647 0.13411084 -0.79202783 34 134 122
0.12494886 0.13279276 -0.790802 34 133 123
0.12597343 0.1327485 -0.79185677 35 134 123
0.12431328 0.13314527 -0.79028726 33 133 123
0.12398979 0.13319926 -0.78997147 33 133 123
0.12488041 0.13172293 -0.79027086 34 134 123
0.12556034 0.13355713 -0.79177105 34 134 122
0.12503457 0.13248672 -0.79076046 34 134 123
0.12695022 0.13267992 -0.79281622 35 135 124
0.12583359 0.13111147 -0.79096562 34 135 124
0.12517065 0.13149421 -0.79047024 35 134 124
0.12650606 0.1327178 -0.79238397 35 135 123
0.12697263 0.13295273 -0.79296702 35 135 123
0.12723137 0.13151136 -0.79260492 34 135 124
0.12671193 0.12982157 -0.79129726 33 134 124
0.1263247 0.12976587 -0.79088151 32 134 124
0.12558192 0.12949927 -0.790016 32 134 123
0.12678736 0.12921576 -0.7911157 32 134 124
0.12521221 0.13051982 -0.7900762 33 134 124
0.12630454 0.13045947 -0.79115641 34 134 124
0.12541932 0.1285418 -0.78946525 32 134 124
0.12687856 0.12701783 -0.79027361 30 133 122
0.12762246 0.12873052 -0.79185253 31 135 123
0.12791252 0.12745057 -0.79164559 30 133 122
0.12774694 0.12894472 -0.79208809 32 133 124
0.12919042 0.12750696 -0.79315352 30 133 121
0.12727354 0.12737723 -0.79087245 30 133 122
0.12715432 0.12736438 -0.79072851 30 133 122
0.12699266 0.13031074 -0.79179549 33 136 124
0.12715164 0.12943561 -0.79160708 32 134 124
0.12682848 0.1249826 -0.78945571 30 133 122
0.12720045 0.12581609 -0.79017842 30 133 122
0.12734735 0.1255701 -0.79025614 30 133 122
0.12852961 0.12612812 -0.7918396 30 133 121
0.12884809 0.12519144 -0.79176283 31 133 121
0.12812141 0.12529416 -0.79101896 30 133 121
0.12953801 0.12533449 -0.79257971 31 133 121
0.12958848 0.12417305 -0.79210049 33 133 121
0.12864941 0.12581126 -0.79183167 30 133 121
0.12854324 0.12514631 -0.79141021 31 133 121
0.12897757 0.12373576 -0.79127824 33 133 121
0.12710199 0.12439139 -0.78951347 30 133 121
0.12975994 0.12395573 -0.79220033 33 132 121
0.12825805 0.12323099 -0.79031563 30 135 119
0.12874705 0.12322502 -0.79082459 31 133 120
0.13034898 0.12260222 -0.79225612 34 133 122
0.12848 0.12204071 -0.79009801 32 134 120
0.13020399 0.12247656 -0.79205918 34 133 122
0.12949444 0.12146258 -0.79095179 33 134 121
0.12781546 0.1225798 -0.78960043 30 135 119
0.12835826 0.12111867 -0.7896716 33 134 121
0.1318323 0.14289108 -0.80316657 23 131 121
0.13263419 0.14266612 -0.80410963 24 131 123
0.13241428 0.14320692 -0.80409211 23 131 122
0.13077265 0.14151594 -0.80120432 25 133 121
0.13106629 0.14232363 -0.8018983 23 131 121
0.13142434 0.14204121 -0.80225706 24 131 121
0.13229126 0.14057764 -0.80265522 26 133 122
0.13290577 0.1405438 -0.80340916 26 133 122
0.1330426 0.14065047 -0.80363572 26 131 123
0.13417108 0.14001189 -0.80472416 26 133 123
0.13210462 0.14181122 -0.80305451 26 131 123
0.13316774 0.14009915 -0.80350965 26 133 122
0.13283713 0.13975902 -0.80296952 27 133 122
0.13175291 0.1401822 -0.80183887 27 134 121
0.13155648 0.14044677 -0.80170965 26 133 121
0.13208729 0.13962843 -0.80201709 27 132 122
0.13287804 0.13900729 -0.8027159 29 132 123
0.13395686 0.13894926 -0.80396825 27 134 123
0.13406359 0.13740931 -0.80341798 30 132 123
0.13299212 0.13863026 -0.80266905 29 134 123
0.13473709 0.13790767 -0.80441833 29 132 123
0.13300166 0.13724022 -0.80209869 31 132 123
0.13325274 0.13701081 -0.80229795 31 133 122
0.13318248 0.13819745 -0.80271173 30 132 123
0.13201894 0.13804507 -0.80126524 31 132 123
0.13373187 0.13532616 -0.80210668 33 133 122
0.13276589 0.13720037 -0.80179715 31 133 122
0.13305528 0.13658056 -0.80186164 31 133 122
0.13543089 0.1351691 -0.80419153 33 132 122
0.13559383 0.13519047 -0.8044163 33 132 122
0.13597524 0.13520181 -0.80492556 35 132 122
0.13481639 0.13857798 -0.80481386 27 134 123
0.13375054 0.13476233 -0.80185723 33 133 122
0.13406116 0.13391252 -0.80182147 33 133 122
0.13475169 0.13391893 -0.80269444 33 133 121
0.13631253 0.13288826 -0.80416036 36 132 122
0.1364086 0.13315427 -0.80442142 36 132 122
0.13566715 0.13151555 -0.80263031 35 133 122
0.13561094 0.13089195 -0.80222464 35 134 121
0.13492674 0.13125496 -0.80158526 33 134 121
0.13624212 0.13390066 -0.80462152 36 132 122
0.13620214 0.13291708 -0.80404115 36 132 122
0.13534933 0.13388264 -0.8034656 33 134 121
0.13583957 0.13385735 -0.80410123 35 132 122
0.13501535 0.13394362 -0.80305457 33 132 122
0.13536832 0.1347539 -0.80392849 33 132 122
0.13533804 0.13048854 -0.80178559 34 133 121
0.13605998 0.13074408 -0.80272758 36 133 122
0.13636398 0.12881556 -0.80257773 36 134 122
0.13519336 0.12981465 -0.80136943 34 134 121
0.13582185 0.12974714 -0.80218828 35 133 122
0.10922824 0.13380532 -0.77868259 32 134 124
0.1111197 0.13233076 -0.77921689 32 133 125
0.10861243 0.13463835 -0.7786476 33 133 124
0.11447459 0.13173702 -0.78119922 32 133 125
0.114534 0.13196433 -0.78135449 32 133 124
0.11400628 0.13250147 -0.78121769 33 133 125
0.11382934 0.13133705 -0.78060371 30 132 125
0.1113736 0.1326113 -0.77948046 33 134 125
0.11408319 0.13159241 -0.78087234 31 133 125
0.1134067 0.13168268 -0.78046012 31 133 125
0.11280402 0.13143858 -0.77996516 30 132 125
0.11050949 0.13066998 -0.77823913 26 133 125
0.1103283 0.13046038 -0.77806973 26 133 125
0.11189458 0.13028339 -0.77893031 26 133 125
0.11406201 0.13062775 -0.78048706 29 132 125
0.11308203 0.12962076 -0.77947986 26 133 125
0.11851144 0.12331507 -0.78133845 27 132 125
0.11815351 0.12079023 -0.78021795 27 133 126
0.11874822 0.12069203 -0.78061652 27 132 125
0.11810548 0.1192037 -0.77962589 27 133 126
0.11997674 0.12006961 -0.78138214 29 132 125
0.12013212 0.12020492 -0.78155947 29 132 125
0.12006617 0.12023102 -0.78151351 29 132 125
0.1200992 0.11628731 -0.78032202 30 133 123
0.11922166 0.1153312 -0.77932352 29 132 123
0.11998366 0.11527959 -0.77992827 30 133 123
0.11947533 0.11770616 -0.78022265 29 132 125
0.12020551 0.11899713 -0.78120559 29 132 124
0.11922643 0.11722103 -0.77987456 29 132 125
0.12076432 0.11491336 -0.78044575 31 133 123
0.10333086 0.18173245 -0.79402024 29 131 124
0.10405131 0.18258052 -0.79477805 29 131 124
0.1034964 0.18144137 -0.79402542 28 131 124
0.10286697 0.18092848 -0.79349154 29 131 124
0.10357263 0.18157265 -0.79411322 28 131 124
0.1128039 0.16362162 -0.79359621 23 131 121
0.11383592 0.16266486 -0.7939896 23 131 121
0.11379272 0.16268679 -0.79396474 23 131 121
0.11460442 0.16281398 -0.79467595 23 131 121
0.11471267 0.16009928 -0.79361749 26 131 120
0.11468475 0.15970333 -0.7934323 26 131 120
0.11514498 0.16184407 -0.79468411 24 131 120
0.11526613 0.16114822 -0.79450011 25 131 120
0.11697628 0.16150507 -0.79622102 23 131 121
0.11603593 0.16198944 -0.79555416 23 131 121
0.11653672 0.16138381 -0.79576653 23 131 121
0.11690957 0.1610859 -0.79598755 23 131 121
0.11644759 0.15878226 -0.79457635 26 131 120
0.11554728 0.15877427 -0.7937811 26 131 120
0.11837776 0.16057788 -0.79706365 23 131 121
0.11739881 0.16067722 -0.79624641 23 131 121
0.11728849 0.1613258 -0.7964347 23 131 121
0.11863303 0.15919901 -0.79668462 24 131 120
0.11895896 0.15876426 -0.7967838 24 131 120
0.11757019 0.15594566 -0.79425091 25 131 120
0.11769335 0.15787503 -0.79527396 25 131 120
0.11734319 0.15693741 -0.79452157 25 131 120
0.1170596 0.15725982 -0.79442513 25 133 119
0.11830625 0.15800038 -0.79587215 24 131 119
0.1190056 0.15595274 -0.79551601 24 131 119
0.11879565 0.15623619 -0.79546583 24 131 119
0.11732462 0.15579 -0.79397488 26 131 120
0.11585557 0.15740442 -0.79344511 27 131 120
0.11758349 0.15439551 -0.79358256 27 131 120
0.1180087 0.15429775 -0.79389757 26 131 120
0.11986726 0.15567091 -0.79622012 23 131 121
0.11982802 0.15716161 -0.79690468 23 131 121
0.1193523 0.15733597 -0.79651201 24 131 120
0.11803677 0.15379383 -0.79370111 26 133 119
0.11845925 0.15401356 -0.79415256 26 131 120
0.11826441 0.15299486 -0.7935437 26 131 120
0.11965322 0.15307398 -0.79481244 23 133 120
0.11945569 0.15281318 -0.79450709 24 131 119
0.11955454 0.15258323 -0.79450244 24 131 119
0.12142374 0.14827764 -0.79433638 24 133 119
0.12163001 0.14728937 -0.79410923 25 133 119
0.12034059 0.14911377 -0.79370594 25 131 119
0.12120108 0.14812984 -0.79407179 25 131 119
0.12200674 0.14540207 -0.7936573 28 132 120
0.12284505 0.14430611 -0.79394752 28 134 122
0.12283356 0.14345087 -0.79357594 30 135 122
0.12481809 0.14403382 -0.79569936 25 133 120
0.12379958 0.14443175 -0.79489821 26 134 121
0.12418039 0.14320175 -0.79474097 27 135 121
0.1233275 0.14340217 -0.79401404 29 134 122
0.12517443 0.14293528 -0.79557443 26 134 121
0.12491178 0.14294513 -0.79532862 26 134 121
0.1241417 0.14382721 -0.79496843 26 134 121
0.12617804 0.13891804 -0.79483652 30 133 122
0.12573619 0.13897115 -0.79439926 30 133 122
0.12525029 0.13951001 -0.79416162 30 133 123
0.12532169 0.1388749 -0.79391515 30 132 123
0.12494942 0.13901255 -0.79359376 30 132 123
0.12610468 0.14167245 -0.79594004 26 134 121
0.12403035 0.14171179 -0.79398215 31 136 123
0.12548806 0.14144288 -0.79525989 28 134 122
0.1250225 0.14210497 -0.79508632 27 134 122
0.12487544 0.141223 -0.79458743 30 135 123
0.12449194 0.14118345 -0.79420632 31 135 123
0.12487645 0.14107822 -0.79452938 30 135 122
0.12633547 0.14031924 -0.79560888 28 134 122
0.12798586 0.13877033 -0.79681659 31 132 123
0.12771171 0.13966358 -0.7968474 28 132 122
0.12760049 0.14025295 -0.79695207 27 132 121
0.12663427 0.13688008 -0.79437411 33 133 123
0.12683205 0.1375069 -0.79486769 32 133 123
0.12678495 0.13654366 -0.794379 33 134 123
0.12561986 0.1375614 -0.79361922 31 133 123
0.12960559 0.13532804 -0.79708821 33 134 124
0.12900926 0.13640459 -0.79690772 33 133 124
0.12865314 0.13802321 -0.79726315 32 132 123
0.12829585 0.13553858 -0.79566914 34 134 123
0.12864952 0.13755167 -0.7970351 33 132 123
0.12799849 0.136986 -0.79601151 33 134 122
0.12801394 0.13828011 -0.79663193 32 132 123
0.12734431 0.13656476 -0.795039 33 133 123
0.12818381 0.1382688 -0.7968325 32 132 123
0.12695666 0.13461298 -0.7936843 35 135 123
0.1278892 0.13465619 -0.79478419 35 135 123
0.13038009 0.13337533 -0.79705328 33 135 123
0.12895255 0.13404234 -0.79573607 35 134 124
0.12844718 0.13353945 -0.79491884 35 134 123
0.13017029 0.13314407 -0.79670328 33 134 123
0.12914023 0.13270839 -0.79532909 33 135 123
0.12913151 0.1326718 -0.79530263 33 135 123
0.128682 0.13273174 -0.79481852 33 135 123
0.12877025 0.13137437 -0.79430693 33 134 124
0.12759764 0.13316235 -0.79377937 35 134 123
0.12840216 0.13320394 -0.79471308 34 134 122
0.13029458 0.13160735 -0.79611331 33 133 124
0.130806 0.1326208 -0.79718339 33 133 124
0.13130054 0.13137157 -0.79717731 32 134 123
0.13018583 0.13066915 -0.79554385 32 134 123
0.1304379 0.13051213 -0.79575926 32 134 123
0.13053544 0.13035718 -0.79580456 32 134 122
0.13007215 0.12848705 -0.79453713 32 134 122
0.13072746 0.13079606 -0.79619414 32 134 123
0.13053334 0.12952127 -0.79546475 32 134 122
0.12940595 0.12760928 -0.79344326 30 135 121
0.13052532 0.12742318 -0.79460877 31 133 121
0.12953714 0.128631 -0.79400313 32 134 122
0.13139479 0.12714761 -0.79552877 31 133 121
0.13175005 0.12771465 -0.79619896 32 133 121
0.13169464 0.12937964 -0.79681134 33 134 122
0.13195379 0.12714195 -0.79621631 33 133 121
0.1314671 0.1298911 -0.79673958 32 134 122
0.13086513 0.12772374 -0.79510695 31 133 121
0.12995845 0.12632219 -0.79349416 30 135 120
0.13060312 0.12597422 -0.79404587 31 133 121
0.13104957 0.12602113 -0.79458672 33 132 121
0.13158861 0.12659875 -0.79552245 33 132 121
0.13234887 0.12660579 -0.79646397 33 133 121
0.13200733 0.125717 -0.79562622 33 133 121
0.13128313 0.12444173 -0.794137 33 133 121
0.13289405 0.12669373 -0.79717976 33 133 121
0.13256611 0.12557662 -0.79625863 33 133 121
0.13446534 0.15249802 -0.8123368 23 133 123
0.13399841 0.1509528 -0.81067145 23 133 123
0.1347575 0.14881325 -0.81037939 24 131 124
0.13483396 0.14865714 -0.81043518 24 131 124
0.1350223 0.14875387 -0.81093359 25 131 124
0.13492447 0.1468163 -0.80930722 24 130 124
0.13526756 0.14753261 -0.81057918 25 130 124
0.13532342 0.14687864 -0.81022012 24 131 124
0.13773997 0.14331216 -0.81232458 31 136 123
0.13724928 0.1435553 -0.81167406 30 133 123
0.13750851 0.14285342 -0.81159276 31 136 123
0.13731103 0.1428764 -0.81127548 31 133 123
0.1359193 0.14640535 -0.81117249 25 131 123
0.13677245 0.1414061 -0.8092066 30 135 122
0.13830274 0.14201866 -0.81228638 34 135 123
0.13703404 0.1416558 -0.80984885 32 133 124
0.13654777 0.14183445 -0.8091684 30 133 123
0.13770092 0.14236239 -0.81154215 32 134 124
0.13659576 0.14189109 -0.80929482 30 133 123
0.13966513 0.1509378 -0.82471049 33 135 125
0.13966563 0.15110022 -0.82490718 33 135 125
0 0 0 1 0 0 0 1 0 0 0 1 0 0 0 0 0 697 1 0 0
