ply
format ascii 1.0
comment PCL generated
element vertex 813
property float x
property float y
property float z
property uchar red
property uchar green
property uchar blue
element camera 1
property float view_px
property float view_py
property float view_pz
property float x_axisx
property float x_axisy
property float x_axisz
property float y_axisx
property float y_axisy
property float y_axisz
property float z_axisx
property float z_axisy
property float z_axisz
property float focal
property float scalex
property float scaley
property float centerx
property float centery
property int viewportx
property int viewporty
property float k1
property float k2
end_header
0.025390845 0.10021556 -0.75812578 46 137 109
0.025410814 0.099707969 -0.75797081 45 137 109
0.017447144 0.095985726 -0.75811237 53 132 111
0.019872518 0.095928401 -0.75770527 51 133 112
0.020818545 0.096396714 -0.75767475 52 134 112
0.018314166 0.096420288 -0.75809038 53 132 111
0.021154741 0.098594531 -0.75819641 58 131 112
0.020641644 0.097922929 -0.75810409 56 132 111
0.023585744 0.099540152 -0.75813901 52 134 110
0.022509033 0.096924186 -0.75758219 50 135 111
0.02243129 0.098897569 -0.75810915 55 133 112
0.023203379 0.098507755 -0.75791484 51 135 111
0.021898219 0.098269761 -0.75800794 55 133 112
0.022258319 0.098925188 -0.75813699 55 133 111
0.022535767 0.096553966 -0.75748158 50 134 112
0.023107165 0.095933124 -0.75724906 50 134 112
0.023504626 0.096642263 -0.75738806 48 135 111
0.02361252 0.09710858 -0.75749809 47 136 111
0.02497654 0.0983698 -0.75766617 46 137 110
0.021647055 0.095800318 -0.75739002 50 134 112
0.025575593 0.09689416 -0.75720853 45 136 110
0.026108356 0.096431129 -0.75703287 44 136 111
0.025823994 0.097400002 -0.75731695 44 136 110
0.025614344 0.097309202 -0.75731409 45 136 110
0.012526456 0.092651129 -0.75814509 58 134 111
0.013410635 0.09270981 -0.75793457 56 134 109
0.014363326 0.094215207 -0.75818253 57 133 110
0.01650155 0.095140338 -0.75804663 54 132 111
0.01461002 0.09287551 -0.75773585 54 134 110
0.016050892 0.09477742 -0.75802529 54 133 110
0.014647778 0.092666969 -0.75766832 54 133 111
0.015753821 0.093280114 -0.7576474 50 134 110
0.014237918 0.091989093 -0.7575503 53 134 110
0.016900171 0.094551541 -0.7578032 51 132 111
0.016399838 0.094184749 -0.7577877 51 133 110
0.021136772 0.094304696 -0.75708085 46 135 112
0.020469975 0.093535341 -0.75697541 43 135 112
0.020588487 0.094294325 -0.75714898 46 134 112
0.019426195 0.095034026 -0.75752532 49 133 112
0.021283224 0.095633551 -0.75739658 50 134 112
0.018378735 0.094979413 -0.7576772 49 133 111
0.018549209 0.094793543 -0.75759804 47 133 111
0.019149428 0.0952911 -0.75764132 50 132 112
0.01824077 0.09336862 -0.75724924 42 134 111
0.025226705 0.094638132 -0.75666875 45 136 111
0.022313075 0.094116598 -0.75688934 45 135 112
0.022976106 0.095176525 -0.7570731 47 135 112
0.023535928 0.09398976 -0.75671029 44 136 112
0.022253145 0.09519764 -0.75716555 48 135 112
0.022019137 0.093323976 -0.75672746 43 136 112
0.025393616 0.094978616 -0.7567333 46 135 112
0.025975857 0.095569707 -0.7568391 45 136 110
0.025539299 0.094394565 -0.75657839 45 135 112
0.025489056 0.095168255 -0.75677365 46 135 111
0.025548644 0.094130546 -0.75651234 45 135 112
0.0085803848 0.088495381 -0.7581982 58 133 110
0.012393624 0.091747873 -0.75791359 57 133 111
0.011729992 0.091035224 -0.75792408 57 133 111
0.010859006 0.089802325 -0.75786912 57 134 109
0.01070583 0.089943707 -0.75794101 58 134 110
0.011217292 0.090245053 -0.75787717 57 134 110
0.011740146 0.088211134 -0.75726789 57 135 108
0.010585233 0.08864034 -0.75767505 56 134 108
0.013425598 0.088404745 -0.7568658 55 135 108
0.011194064 0.088803738 -0.75755173 56 134 109
0.012755962 0.089537643 -0.75730896 55 135 109
0.013669014 0.089472845 -0.75705135 55 135 109
0.015506994 0.091045767 -0.75710005 45 135 109
0.014233529 0.088752665 -0.75678426 53 134 109
0.013805624 0.08812426 -0.75671142 55 135 108
0.014330194 0.089621477 -0.75697094 52 135 109
0.01580455 0.091261096 -0.75709873 44 136 110
0.013717756 0.089027695 -0.75693834 55 135 109
0.0067681116 0.085680187 -0.75813007 82 131 112
0.0083578322 0.087532692 -0.75805128 61 133 110
0.0075032543 0.085810699 -0.75794363 80 132 112
0.0068948995 0.08460889 -0.75786126 91 132 113
0.0080455905 0.083996952 -0.75735652 91 131 112
0.0072020874 0.084902138 -0.75783241 88 131 113
0.0067328648 0.084144808 -0.75780475 95 131 113
0.013532842 0.084156349 -0.75590152 85 127 111
0.012399056 0.08464615 -0.75629324 81 128 111
0.011208617 0.087359183 -0.75721067 61 134 109
0.011667397 0.087775953 -0.75718552 58 134 109
0.017142735 0.085357584 -0.75552064 61 131 106
0.016586188 0.08544074 -0.75563413 63 131 107
0.017368251 0.085828818 -0.7555812 57 132 106
0.015729621 0.086195104 -0.75594187 61 131 107
0.015292525 0.086438842 -0.75607324 61 131 108
0.014432547 0.086813346 -0.75630897 62 133 108
0.015599353 0.087798879 -0.75631452 50 136 107
0.019210851 0.084938258 -0.75519532 55 133 106
0.017620819 0.086107798 -0.75560004 54 133 106
0.018653831 0.085697308 -0.75541985 54 132 106
0.017703023 0.085565522 -0.7554782 58 131 106
0.017815256 0.085124545 -0.75537503 61 131 106
0.017813107 0.086432084 -0.755651 51 133 106
0.0056104288 0.083867267 -0.75810903 97 131 114
0.0053239195 0.082576714 -0.75798303 103 131 113
0.0077739805 0.08048486 -0.75676829 106 130 113
0.0088663073 0.080717422 -0.75645202 103 129 113
0.009145855 0.082675084 -0.75675344 93 130 112
0.0078360979 0.081553794 -0.75696301 101 130 112
0.0088087209 0.082678117 -0.75686622 94 130 111
0.0062706494 0.082936376 -0.75772011 101 130 114
0.0083436854 0.082727052 -0.7570278 94 131 112
0.0065778373 0.08275345 -0.75758952 100 131 113
0.0069761951 0.082071103 -0.75733817 101 131 113
0.0091318451 0.083618671 -0.75694364 89 131 111
0.012925728 0.082327321 -0.75566792 93 126 112
0.011780963 0.082014635 -0.75590634 96 126 112
0.012390792 0.082203627 -0.75578415 95 126 112
0.011375226 0.080548003 -0.75569546 101 128 112
0.011206133 0.080172852 -0.75565904 104 128 113
0.013220983 0.082882687 -0.75570983 91 126 111
0.0098108482 0.083875097 -0.75677776 87 131 111
0.010417135 0.082138285 -0.75627548 95 128 112
0.010505901 0.081821404 -0.75618923 96 128 112
0.010906687 0.082812838 -0.75628823 91 128 111
0.012157305 0.082750119 -0.75596118 91 127 111
0.015567708 0.080764875 -0.75478983 94 126 111
0.016724398 0.080965593 -0.75462544 91 126 110
0.016800666 0.081519052 -0.75473732 87 126 109
0.015121423 0.081283934 -0.75498873 92 127 110
0.016894335 0.081358582 -0.75468385 87 127 109
0.013742359 0.081659496 -0.75531042 96 127 111
0.014089006 0.081899673 -0.75530303 93 127 111
0.015310742 0.083139889 -0.75536275 83 127 109
0.015780635 0.083171815 -0.75528872 80 128 109
0.020384615 0.082785465 -0.75457275 59 135 104
0.020171748 0.082288727 -0.75448531 66 132 106
0.021149889 0.082094111 -0.75433928 67 133 106
0.01761944 0.081400096 -0.75456452 86 125 110
0.019864909 0.083938219 -0.75489151 54 135 104
0.019835096 0.083075665 -0.75469893 61 133 105
0.018171087 0.081216983 -0.75446165 84 127 109
0.019001132 0.083394788 -0.75486404 63 132 105
0.01845823 0.081901647 -0.75458521 78 128 108
0.010126461 0.079856627 -0.75588524 106 127 113
0.01541069 0.079033203 -0.75445306 99 128 110
0.015886294 0.078824915 -0.75432503 98 128 109
0.014394653 0.079703435 -0.75477177 101 128 111
0.01571203 0.078838065 -0.75435925 98 128 109
-0.0063415645 0.11245486 -0.77097672 36 135 111
-0.0072862278 0.1114207 -0.77114415 40 133 111
-0.005655739 0.11300382 -0.77080053 35 134 111
-0.0041772323 0.11267091 -0.76994556 35 134 111
-0.0099719726 0.10995803 -0.77217406 36 135 112
-0.010295938 0.1083074 -0.77182055 40 133 113
-0.010446072 0.10996977 -0.77246833 36 135 112
-0.0099281576 0.1092598 -0.77191377 38 135 112
-0.01126736 0.10766207 -0.77219969 40 133 114
-0.0064595919 0.10920446 -0.76994783 50 133 109
-0.0085110189 0.10782846 -0.77063894 48 132 111
-0.0079768486 0.10852175 -0.77056873 47 133 111
-0.0073670605 0.10838425 -0.7701875 51 133 110
-0.007544803 0.10978193 -0.77073997 43 133 112
-0.005986046 0.11129821 -0.77037042 42 133 110
-0.0087738251 0.10896257 -0.77115721 43 133 112
-0.0092580803 0.10942114 -0.77158284 41 133 113
-0.0090787373 0.1084199 -0.77114719 43 133 112
-0.0065852264 0.11102506 -0.77061605 42 133 111
-0.0080706449 0.10924441 -0.77085596 43 133 112
-0.014077261 0.10412967 -0.77291369 40 136 110
-0.014901603 0.10456753 -0.77364391 40 134 111
-0.014212333 0.10510277 -0.77329993 38 136 111
-0.010643302 0.1054398 -0.77112508 46 134 112
-0.011113213 0.10435455 -0.77107745 48 134 111
-0.01131181 0.10534788 -0.77152091 45 135 111
-0.010045359 0.10486694 -0.77056199 50 134 111
-0.012228126 0.10430358 -0.77177018 44 135 111
-0.010146872 0.1051219 -0.77070791 49 133 112
-0.010570504 0.10632116 -0.77136016 44 134 112
-0.013266658 0.10520449 -0.77268803 38 137 111
-0.01267216 0.10643329 -0.77268738 38 135 113
-0.013390474 0.1046766 -0.77260774 40 135 111
-0.011723259 0.10609926 -0.77200747 42 134 112
-0.0086472379 0.10580219 -0.77006549 53 133 110
-0.0081904177 0.10708962 -0.77022415 52 134 110
-0.0093069617 0.10586891 -0.77045095 51 133 112
-0.0085004354 0.10737688 -0.77048695 51 132 112
-0.016796861 0.10020709 -0.77378154 61 131 111
-0.016290717 0.10059743 -0.77352268 58 133 110
-0.014434833 0.10296883 -0.77283865 44 136 110
-0.015305817 0.10191161 -0.77317536 51 134 110
-0.016006518 0.10022005 -0.77320027 60 132 110
-0.01372054 0.10022414 -0.77149832 54 133 108
-0.013719751 0.10197592 -0.77201647 47 135 109
-0.015232002 0.10009799 -0.77258706 58 132 109
-0.013957789 0.1020253 -0.77220845 47 135 109
-0.015848592 0.099965721 -0.77300727 60 133 109
-0.011617295 0.099653766 -0.77000058 62 132 112
-0.011317659 0.10034584 -0.7700122 61 133 112
-0.012366956 0.099663943 -0.77047503 60 133 110
-0.012778719 0.099799752 -0.77077329 58 133 109
-0.01356803 0.10282923 -0.77216744 44 136 110
-0.011804733 0.10332147 -0.7711919 48 135 110
-0.013038756 0.10148206 -0.77143198 52 134 109
-0.013319236 0.10081266 -0.77141207 54 133 108
-0.012262622 0.10224978 -0.77116573 51 135 110
-0.012611187 0.10073549 -0.77093899 56 132 109
-0.013639469 0.10191485 -0.77194214 47 135 109
-0.017653788 0.095840707 -0.77313012 121 128 109
-0.016716855 0.09907259 -0.77338684 73 130 110
-0.017050743 0.09658584 -0.77289206 108 129 108
-0.017238272 0.096064754 -0.77287614 116 129 109
-0.01559249 0.098002814 -0.77222979 85 130 109
-0.014718553 0.098662846 -0.77177644 74 131 108
-0.01580058 0.097506732 -0.77223659 93 130 108
-0.014751191 0.09789855 -0.77158004 83 130 108
-0.015245851 0.096896119 -0.7716549 97 128 108
-0.015966114 0.096832626 -0.77216429 102 129 108
-0.014625302 0.097331934 -0.77132535 89 128 108
-0.014222112 0.098348528 -0.77132154 75 130 108
-0.0124694 0.098019928 -0.77007216 77 129 109
-0.011845388 0.098961778 -0.76994723 68 131 110
-0.012894466 0.099588335 -0.77078509 59 132 110
-0.016778093 0.095527939 -0.77240229 119 127 109
0.02103202 0.081509426 -0.7542215 74 131 106
0.018739393 0.080476172 -0.75423461 89 125 110
0.020544585 0.081182413 -0.75420028 79 129 107
0.021584081 0.080191463 -0.75386679 91 125 109
0.023629129 0.081163578 -0.75387973 61 133 106
0.023563823 0.080633804 -0.75378329 65 134 105
0.025884831 0.0803487 -0.75353569 43 143 98
0.017316677 0.079945557 -0.75428981 95 125 111
0.017029665 0.079022802 -0.7541551 95 127 110
0.016073138 0.078247681 -0.75417489 97 129 108
0.017475249 0.077135928 -0.75368488 96 129 109
0.019898847 0.076347075 -0.75322104 99 130 112
0.02089899 0.078943804 -0.75367361 95 126 110
0.021144575 0.076590821 -0.75312167 101 128 113
0.020262703 0.077732079 -0.7534833 96 128 110
0.019913713 0.078061141 -0.75359923 95 128 110
0.018120166 0.078737877 -0.75393647 95 126 110
0.020929849 0.079701588 -0.7538349 93 126 109
0.018131686 0.07773485 -0.75372952 95 128 110
0.018191066 0.078015067 -0.75378066 95 128 110
0.017848073 0.078911155 -0.75400096 94 126 110
0.018032268 0.077162847 -0.75362277 96 129 110
0.025372721 0.078062713 -0.75303638 63 139 103
0.024253696 0.077321753 -0.75297463 77 135 106
0.024729023 0.078612499 -0.75323653 61 140 102
0.022656584 0.076575845 -0.75296181 93 132 111
0.024462845 0.077416644 -0.75297564 75 136 106
0.0229642 0.079995617 -0.75370896 74 132 105
0.022239137 0.078988694 -0.75354737 86 129 108
0.021496912 0.079304427 -0.75368047 94 126 110
0.021719832 0.079655893 -0.75373942 90 127 109
0.023240823 0.079934545 -0.75367194 70 134 104
0.027286073 0.078527212 -0.75296956 64 134 107
0.026510945 0.079527289 -0.75328338 52 140 102
0.026010333 0.077718377 -0.75289351 69 136 105
0.026582956 0.078895703 -0.75312418 58 137 104
0.021438411 0.07517723 -0.75273269 110 128 112
0.018716605 0.076128095 -0.75331855 98 131 110
0.020984437 0.076153345 -0.75304461 102 129 113
0.022252006 0.075648539 -0.75276858 102 129 112
0.022129491 0.074655555 -0.75251955 109 129 110
0.0216818 0.075516343 -0.75279337 106 129 112
-0.0037954575 0.11227863 -0.7696299 35 135 110
-0.0062015532 0.10948062 -0.76989377 50 133 109
-0.0061915899 0.1082812 -0.76950973 54 133 108
-0.0044478979 0.11097763 -0.76951718 40 135 109
-0.0039272918 0.11086944 -0.76923341 40 133 109
-0.0051154983 0.11005539 -0.76953733 46 133 109
-0.003777988 0.1095787 -0.76875371 43 135 108
-0.0050272685 0.10856766 -0.76902592 51 134 108
-0.0051268786 0.10968623 -0.76942623 47 133 109
-0.0057690595 0.10837205 -0.7693153 54 133 108
-0.0026485994 0.10806768 -0.76775461 55 131 108
-0.0028532704 0.10988733 -0.76841599 42 135 108
-0.0021828932 0.10827461 -0.76760072 54 131 108
-0.004341844 0.10821342 -0.76859319 53 133 107
-0.0035614879 0.10905694 -0.76848972 47 134 107
-0.0038517686 0.10935112 -0.76871717 45 134 107
0.0010421488 0.11026415 -0.76685363 36 135 109
0.00043152977 0.10891695 -0.76670581 45 134 108
0.00037317502 0.1096424 -0.76694107 42 134 109
0.0012231084 0.10813624 -0.76615971 45 134 107
-0.0014026238 0.1079504 -0.76716101 56 129 109
-0.001280896 0.10878258 -0.76736802 50 131 108
8.8912901e-05 0.11013993 -0.76721334 38 135 109
-0.00063036371 0.11053613 -0.76763916 36 135 109
0.00010996102 0.10980517 -0.76710045 40 134 108
0.00018916256 0.10969614 -0.76703322 42 134 109
0.0025385362 0.10978097 -0.76613265 36 136 108
-0.0068282536 0.10719666 -0.76951331 56 133 108
-0.0065895626 0.10727052 -0.76940697 56 133 108
-0.007295792 0.10467487 -0.7689777 61 131 110
-0.0064435429 0.10638189 -0.76904958 58 133 108
-0.0068884324 0.10477366 -0.76878804 61 132 110
-0.0062552053 0.10513895 -0.7685594 63 132 110
-0.0082052182 0.10413351 -0.76930088 58 132 111
-0.0065222033 0.10489973 -0.76862919 63 131 110
-0.0026699144 0.10474088 -0.76679283 70 128 111
-0.0024717881 0.10500684 -0.76678079 69 129 111
-0.0020352066 0.10566538 -0.76677448 68 128 111
-0.0026521529 0.10641782 -0.76725221 63 128 110
-0.0026814267 0.10561806 -0.76704222 66 129 110
-0.0040033031 0.10462254 -0.76733953 67 129 111
-0.0031686013 0.10733277 -0.76776963 60 131 108
-0.0047100284 0.10592956 -0.76805359 62 131 109
-0.0034530226 0.10722958 -0.76787066 60 131 108
-0.0043131649 0.10609022 -0.76791781 62 131 109
-0.0037751521 0.10641219 -0.7677663 62 130 109
-0.0043573231 0.1063102 -0.76800716 62 131 109
-0.00058670319 0.10513783 -0.76604569 66 129 110
-0.00024379202 0.10624395 -0.76621443 60 129 109
-0.0012103783 0.10638731 -0.76664269 62 129 109
-0.0014030866 0.10552875 -0.76648223 66 129 110
-0.00137045 0.10439461 -0.76615477 72 127 111
-0.011298085 0.099624157 -0.76979488 63 132 112
-0.011141834 0.1003362 -0.76989949 61 133 112
-0.01087502 0.099671528 -0.76954955 64 133 112
-0.0059826616 0.10351454 -0.76790452 68 130 112
-0.0083252992 0.10224838 -0.76881623 63 132 112
-0.0087590609 0.103119 -0.76929569 60 132 112
-0.0092166532 0.10048395 -0.7688027 66 133 113
-0.009618246 0.102717 -0.7696476 58 132 112
-0.0078342725 0.10237002 -0.76858479 65 131 113
-0.0095422249 0.10072726 -0.7690472 64 134 113
-0.0070085106 0.10064692 -0.76769024 70 133 112
-0.0063797049 0.10289738 -0.76794797 68 130 112
-0.0076965755 0.1014763 -0.76826334 68 132 112
-0.0084536904 0.099726833 -0.76820242 70 133 113
-0.0060773636 0.10030163 -0.76711643 72 132 112
-0.0078227818 0.10077221 -0.76814604 69 132 113
-0.0033461386 0.10176259 -0.76626784 74 130 112
-0.0025481405 0.10275222 -0.76618981 75 128 112
-0.0040606121 0.10032093 -0.76615888 72 132 112
-0.0051002945 0.10323656 -0.76743555 70 130 112
-0.0049484209 0.10092197 -0.76676828 74 130 112
-0.0044075674 0.10115264 -0.76659304 74 130 112
-0.0040566432 0.10226092 -0.7667284 73 129 112
-0.0049674259 0.10273585 -0.76724774 71 130 112
-0.0041302959 0.10254704 -0.7668348 73 129 112
-0.01078541 0.098857559 -0.76926976 72 131 111
-0.010976186 0.098980919 -0.76942044 71 131 112
-0.011984343 0.098210216 -0.76982397 76 129 110
-0.010723437 0.096488222 -0.76860476 76 130 107
-0.010286037 0.097104266 -0.76850575 72 131 109
-0.011510155 0.096858695 -0.7691716 82 128 108
-0.011442496 0.096589528 -0.76906049 82 128 107
-0.01111194 0.096644856 -0.76887774 79 129 107
-0.010265197 0.098371021 -0.76882643 72 131 111
-0.0065332772 0.098417699 -0.76685214 72 132 111
-0.006494178 0.096777886 -0.76637411 70 133 110
-0.0071340143 0.095823362 -0.76645076 69 133 109
-0.007265158 0.098013692 -0.76713151 71 132 110
-0.0076078475 0.097621016 -0.7672056 71 132 109
-0.0093496274 0.098887816 -0.76844794 68 133 112
-0.0082636895 0.098907642 -0.76788861 70 132 112
-0.0068150908 0.099034749 -0.767169 72 132 111
-0.0091639254 0.099022523 -0.76838678 69 133 112
-0.0089272559 0.097972512 -0.76798773 69 132 110
-0.0076288083 0.09841267 -0.76742846 71 132 110
-0.005232377 0.098555483 -0.76621628 72 133 111
-0.0056197704 0.098024286 -0.76625967 71 132 111
-0.010372985 0.094016701 -0.76780814 90 128 107
-0.010322852 0.092973247 -0.76752353 97 127 106
-0.010565357 0.09320078 -0.76773405 99 127 107
-0.0092854584 0.092453338 -0.76677006 87 130 102
-0.009571977 0.092614546 -0.76697052 88 129 102
-0.0094933026 0.094518021 -0.76738662 74 131 105
-0.0082139038 0.091935977 -0.76604307 82 131 102
-0.0070949914 0.094295651 -0.76604044 74 131 107
-0.0091081159 0.094410643 -0.76714778 73 131 105
-0.0086725131 0.093759276 -0.76674974 74 131 104
-0.0084712692 0.093763597 -0.76664305 75 132 105
-0.0084016584 0.091750167 -0.76610214 85 130 103
-0.008830322 0.091342375 -0.76624668 94 128 105
-0.026590958 0.10115051 -0.78289962 92 130 120
-0.026738169 0.10142619 -0.78310901 85 130 118
0.013950919 0.10765284 -0.76200134 46 134 111
0.012671521 0.10566173 -0.76177007 51 134 109
0.01140036 0.10386179 -0.76160592 54 134 108
0.012492316 0.1053687 -0.76173657 51 134 110
0.011623468 0.10535904 -0.76194692 54 134 110
0.0131268 0.10625155 -0.76181436 48 136 109
0.0099581471 0.10357081 -0.76188242 59 134 109
0.017101608 0.10366159 -0.76032209 44 134 108
0.014101604 0.1046337 -0.7611686 46 133 109
0.020970862 0.10628983 -0.76030773 45 135 111
0.018858179 0.10378998 -0.760041 44 135 109
0.021474211 0.10582972 -0.76010698 45 135 111
0.019746827 0.10451677 -0.76007187 45 135 110
0.01885508 0.10411955 -0.76012403 44 135 109
0.020709103 0.10461848 -0.75993377 45 135 110
0.025203006 0.10559004 -0.75959718 47 131 111
0.024786877 0.1036732 -0.75920278 51 132 111
0.024804955 0.10609393 -0.75975615 45 132 110
0.023270069 0.1044132 -0.75953752 47 134 111
0.022466412 0.10407358 -0.75954705 46 135 110
0.021850899 0.10533559 -0.75993401 45 135 110
0.022490134 0.10482192 -0.75972241 45 135 110
0.022360072 0.10528994 -0.75985652 45 135 110
0.022035375 0.10475586 -0.75976491 45 135 110
0.0070615341 0.10105036 -0.76204932 74 130 109
0.0082521867 0.10124191 -0.76173812 72 132 109
0.0077417307 0.099706598 -0.76146251 79 130 110
0.0094351964 0.10051295 -0.761172 74 133 110
0.0079981135 0.10123911 -0.76181489 72 132 109
0.0075464188 0.10117695 -0.76193541 73 131 109
0.013630017 0.10338955 -0.76093203 48 134 107
0.0099242646 0.09961953 -0.76077986 77 133 111
0.010999947 0.099858195 -0.76057583 73 132 110
0.012280758 0.10025703 -0.76036626 67 132 109
0.013291269 0.10184583 -0.76057035 57 132 108
0.012601504 0.10097887 -0.76049411 63 132 109
0.0097861942 0.1003613 -0.76102346 74 133 110
0.010714235 0.10335089 -0.76163626 58 133 109
0.012535313 0.10338537 -0.76119977 52 134 108
0.010994589 0.10190623 -0.76116157 63 133 109
0.012422413 0.10267518 -0.76102787 56 133 109
0.016110923 0.10175974 -0.75997704 54 132 109
0.01706622 0.10240357 -0.75998449 48 133 109
0.015640644 0.10154439 -0.76000011 56 131 109
0.016053498 0.10056241 -0.75967234 57 132 109
0.017132761 0.10004114 -0.7593528 54 132 110
0.016115755 0.10089545 -0.75974929 56 131 109
0.01587588 0.103154 -0.76041967 47 133 108
0.014557525 0.10192534 -0.76032257 55 132 109
0.016186375 0.10278334 -0.76025116 50 132 109
0.014720592 0.10174625 -0.76023859 56 132 109
0.014691574 0.10128558 -0.76011074 58 132 108
0.01514087 0.10232856 -0.76032484 53 133 109
0.020988083 0.10062975 -0.75879729 56 132 111
0.020035075 0.10121816 -0.75914931 52 134 110
0.019857654 0.10004553 -0.75884861 56 132 111
0.019694768 0.10042702 -0.75898904 54 133 110
0.020825369 0.10088091 -0.75890046 54 133 110
0.017612353 0.10052635 -0.759399 52 132 110
0.018726492 0.1016219 -0.75949734 49 134 110
0.020210197 0.10334596 -0.75969791 46 136 110
0.018049408 0.10255689 -0.75985801 46 133 109
0.017690176 0.10053656 -0.75938845 52 132 110
0.020475335 0.10308736 -0.7595849 47 136 110
0.025335686 0.1019242 -0.75863785 50 134 110
0.024461251 0.10066254 -0.75836706 51 134 110
0.023420103 0.10070562 -0.75850242 55 132 111
0.022698836 0.10067596 -0.7585808 58 131 112
0.023917533 0.10185333 -0.75878406 55 131 112
0.022713955 0.10282961 -0.75919616 51 134 111
0.021578781 0.10049406 -0.75865245 57 132 112
0.022318752 0.10211914 -0.75903618 53 133 111
0.021610809 0.10022133 -0.75857109 58 132 111
0.022835413 0.10317086 -0.75928038 50 134 111
0.026176857 0.10093214 -0.75824738 43 136 110
0.025978351 0.10100689 -0.75829041 43 136 109
0.0053563807 0.098169781 -0.76175535 79 130 110
0.0036711199 0.096599966 -0.76183426 78 129 113
0.0036801 0.096611165 -0.76183462 78 129 113
0.0051825545 0.097948931 -0.76174659 79 129 111
0.0036522481 0.096927509 -0.76193398 79 128 113
0.0042430251 0.097134814 -0.7618081 79 129 112
0.0090906126 0.098882638 -0.76081562 77 133 111
0.0080515286 0.096752569 -0.76053268 75 132 112
0.0095103271 0.097682871 -0.76035863 76 133 112
0.008069423 0.097798817 -0.76081747 76 133 111
0.0081404429 0.097254232 -0.76064551 75 133 111
0.0091736261 0.096993938 -0.76026732 76 132 112
0.0071017286 0.098513454 -0.76131666 77 132 110
0.0059795384 0.097189181 -0.76128 76 132 110
0.0073285159 0.098484404 -0.76123911 78 132 110
0.0068265959 0.097561553 -0.76112795 77 132 110
0.0079822494 0.097922429 -0.7608785 76 133 111
0.013275223 0.098576941 -0.75964582 67 131 109
0.012425369 0.096065342 -0.75918138 66 133 111
0.013644175 0.099396862 -0.75977504 66 130 109
0.012967138 0.096306331 -0.75911355 64 134 110
0.010819378 0.095910065 -0.75953209 71 132 113
0.011433008 0.097652629 -0.75985122 71 131 112
0.012208229 0.099205822 -0.76008499 70 131 110
0.011445465 0.098974772 -0.76021463 73 131 111
0.0098198485 0.099092916 -0.76066023 77 133 111
0.012721885 0.099591754 -0.76006156 69 130 110
0.017177576 0.096519418 -0.75832093 53 132 110
0.016857775 0.096974261 -0.75852036 54 133 110
0.015628826 0.096334286 -0.7585758 57 133 110
0.015445132 0.095854722 -0.75846916 57 134 110
0.015315739 0.09721417 -0.75890189 57 134 109
0.015901428 0.098285265 -0.75909358 56 133 109
0.014199346 0.098329358 -0.75939339 63 132 109
0.014294846 0.097507492 -0.75915736 61 133 110
0.015094775 0.097156003 -0.758928 58 133 110
0.013964704 0.09686204 -0.75904059 61 133 110
0.021099748 0.098652668 -0.75822073 58 131 112
0.020545553 0.099445038 -0.75854218 59 130 112
0.0198869 0.099181347 -0.75859052 58 131 111
0.019455014 0.099250726 -0.75869465 57 131 111
0.018190239 0.09921892 -0.75892931 54 132 110
0.01828354 0.099511191 -0.75899857 55 131 111
-3.6412115e-05 0.091849782 -0.76201236 55 133 113
0.00036950037 0.092513777 -0.76200181 59 132 113
0.00080682832 0.093023352 -0.7619369 62 132 114
0.0042511201 0.094729386 -0.76114237 69 132 112
0.0034483541 0.094837382 -0.76142222 71 130 114
0.003809578 0.094396845 -0.76119435 68 131 112
0.002932773 0.092802562 -0.76105499 58 132 113
0.0032846844 0.093470961 -0.76111835 62 132 112
0.0024164109 0.093855456 -0.7614907 66 130 114
0.0032847321 0.092128351 -0.76075482 56 132 114
0.0053669875 0.094070405 -0.76060444 67 132 112
0.0057203574 0.094533004 -0.76061541 69 133 111
0.0054211407 0.093270965 -0.76036727 63 132 112
0.0040111355 0.093554489 -0.76090783 62 133 112
0.0050735027 0.094609782 -0.76084876 68 133 111
0.0063429689 0.092202395 -0.75978577 61 132 113
0.0085331686 0.093897961 -0.75959545 68 132 113
0.0079944814 0.091930255 -0.75919449 60 133 113
0.0066192481 0.092039742 -0.75965303 61 132 113
0.0089272643 0.092446305 -0.75905395 63 134 112
0.0059389579 0.094785921 -0.76061565 70 132 112
0.0066042282 0.095249295 -0.76054579 72 133 111
0.006912807 0.095368028 -0.76048696 72 132 112
0.0064809723 0.094538741 -0.7603873 69 133 112
0.0069042109 0.09523277 -0.76045245 72 132 112
0.012952889 0.093389757 -0.75825727 58 134 110
0.012515145 0.093390509 -0.75837451 59 133 111
0.012460058 0.094160549 -0.75862521 60 135 110
0.012262905 0.093564212 -0.75849479 59 134 110
0.010909893 0.093166612 -0.75872219 62 133 112
0.012414661 0.095405459 -0.75900114 64 134 110
0.01260187 0.095096745 -0.75886625 62 134 110
0.013157817 0.095315665 -0.75879377 61 134 110
0.010833459 0.093133844 -0.75873137 62 134 112
0.014025806 0.094602697 -0.75836891 58 133 110
0.013744987 0.095489748 -0.75869942 60 135 109
0.00079646514 0.091087863 -0.76144493 53 134 113
6.4935564e-05 0.090729937 -0.76168519 53 134 112
-0.00043031771 0.089883178 -0.76169646 53 134 112
-0.0001917982 0.089466922 -0.76148939 53 135 111
0.00057327916 0.088765651 -0.76099813 51 135 112
0.0017422603 0.089747354 -0.76072013 51 133 113
0.00052628538 0.089205474 -0.76111966 52 134 112
0.00011977088 0.089016907 -0.76125151 52 134 112
0.004766868 0.089402094 -0.75960922 56 132 112
0.0056663104 0.088089637 -0.75898308 56 132 111
0.0023708555 0.088252276 -0.76014727 50 133 112
0.0042405212 0.088612035 -0.75959671 54 133 111
0.0051837848 0.08834625 -0.75921017 55 133 111
0.0054977522 0.088621579 -0.75916994 56 132 112
0.0042335205 0.090360306 -0.76002181 56 132 113
0.0038392777 0.091157973 -0.76033485 56 132 113
0.0021453735 0.088361949 -0.76024729 50 133 112
0.0028723958 0.090415455 -0.76048124 52 134 112
0.0024197677 0.091794983 -0.76094735 53 132 114
0.0022302079 0.090614654 -0.7607379 52 132 113
0.009042833 0.089217231 -0.75822848 59 132 110
0.0062665786 0.087974772 -0.75876665 57 132 111
0.0086790444 0.089858048 -0.75848198 59 133 111
0.0093579125 0.091235444 -0.75859797 60 133 112
0.0092096319 0.090788916 -0.7585389 60 133 112
0.0067054634 0.089156941 -0.75891411 58 132 111
0.0086376239 0.091023989 -0.75876832 60 133 112
0.0072546834 0.090464704 -0.75906163 59 133 112
0.0066116801 0.091760874 -0.7595765 60 132 113
0.0065739178 0.089163929 -0.75895667 58 132 111
0.0085393563 0.091221951 -0.75884694 60 133 112
0.010158992 0.091441825 -0.75842291 60 133 112
-0.0027088658 0.086892024 -0.76202583 73 132 110
-0.0022210449 0.086843319 -0.76177388 67 134 109
-0.0025764124 0.084245086 -0.76134455 98 127 108
0.00088096049 0.084799066 -0.76000226 62 134 107
0.00079210394 0.084379055 -0.75995213 64 134 107
0.00083836052 0.08638186 -0.76034307 62 133 110
0.0018701786 0.086225994 -0.75989491 51 135 110
0.00058783055 0.086318098 -0.76043111 64 132 110
0.00076244725 0.086574934 -0.76041323 62 133 110
0.00048687542 0.087076686 -0.76064503 59 132 110
-0.00028274208 0.086010851 -0.76072943 70 131 109
-0.00045987184 0.086269461 -0.76086587 67 132 109
0.00037795887 0.086424276 -0.76054054 65 131 110
0.00050620385 0.087350719 -0.76070035 56 133 111
-0.0015050019 0.085862584 -0.76122195 73 131 108
0.0028811158 0.084635593 -0.75921744 57 135 108
0.004034658 0.085308686 -0.7589578 63 134 109
0.0044836197 0.086369708 -0.75902617 57 133 109
0.0024822596 0.086741433 -0.75978625 51 135 110
0.0026375395 0.084951282 -0.75936717 53 136 107
0.0021615184 0.086863898 -0.75992078 50 136 110
0.0037164504 0.087199643 -0.75945878 53 134 110
0.0021670593 0.086229108 -0.75978905 51 135 109
0.0060682981 0.087509282 -0.7587254 61 131 111
-0.0021803202 0.083904304 -0.76107424 96 127 107
0.00063819881 0.082488433 -0.75965625 88 131 109
0.0015953328 0.082003795 -0.75921851 87 131 107
0.0014832335 0.083053738 -0.75942975 72 134 107
0.0018245897 0.0823889 -0.75919437 79 133 107
0.001627781 0.08352346 -0.75945109 63 135 107
-0.001300517 0.083901785 -0.76070023 87 129 107
-0.0016087673 0.083933502 -0.76083052 89 128 107
0.0013774817 0.083411939 -0.75952727 67 135 107
-0.0013224492 0.083895907 -0.76070797 87 129 106
0.0020657773 0.082415342 -0.75910866 77 133 107
0.0021753886 0.082063965 -0.75901163 82 133 107
0.0041694925 0.083378367 -0.75852752 86 133 111
0.0048153549 0.083112277 -0.75825727 96 131 112
0.0028094212 0.083415806 -0.75900817 69 134 108
-0.018086903 0.1056716 -0.77632052 36 132 114
-0.017818229 0.10520926 -0.77597213 40 131 114
-0.018302646 0.10513002 -0.77633458 37 131 114
-0.017299833 0.10498031 -0.77551091 41 131 114
-0.017274015 0.1048407 -0.77545136 41 132 113
-0.015227881 0.1046671 -0.77390856 41 133 112
-0.015164931 0.10562523 -0.77414358 37 135 113
-0.016838275 0.10618791 -0.77552539 36 132 114
-0.021170158 0.10175871 -0.7777074 52 130 110
-0.01966048 0.10325099 -0.77687925 39 131 113
-0.020172684 0.10200033 -0.7769739 54 130 110
-0.019403754 0.10210776 -0.77638972 56 130 110
-0.020049734 0.10176842 -0.77681834 57 130 109
-0.021080468 0.099789888 -0.77714145 75 128 105
-0.020297084 0.10030924 -0.7766372 70 129 106
-0.018353771 0.10138157 -0.77532458 60 131 110
-0.019971909 0.10016198 -0.77632427 70 129 107
-0.019106237 0.10081719 -0.77579027 65 129 109
-0.018500773 0.10212113 -0.77565831 56 129 111
-0.01858121 0.10213368 -0.77572888 56 130 110
-0.017387932 0.099763528 -0.77408165 66 131 111
-0.017082103 0.10149519 -0.7743541 55 132 111
-0.016980294 0.10169421 -0.77433592 54 132 111
-0.016137185 0.10256859 -0.77396679 49 133 111
-0.016636472 0.1025776 -0.77433431 50 132 111
-0.021690506 0.097537123 -0.77712083 107 128 118
-0.021784861 0.09792918 -0.77731794 100 128 115
-0.01872744 0.096943215 -0.77440345 113 127 115
-0.019218612 0.096524805 -0.77471012 120 127 117
-0.019322315 0.09677273 -0.77487177 116 127 118
-0.020082153 0.099032216 -0.77611315 82 128 110
-0.020900153 0.097512029 -0.77641243 108 128 119
-0.019631263 0.097904801 -0.77545404 99 129 119
-0.0201138 0.098474622 -0.77599931 91 128 114
-0.020210912 0.097696923 -0.77588469 104 128 119
-0.021294767 0.098634839 -0.77702343 91 127 111
-0.020525599 0.099043421 -0.77648538 83 128 109
-0.017470744 0.099241592 -0.77399087 73 130 111
0.010816883 0.11360036 -0.76451707 46 132 113
0.0018509171 0.10744899 -0.76570535 45 135 105
0.0022490304 0.10801979 -0.7657221 43 135 106
0.0041849539 0.10749822 -0.76488864 43 137 107
0.005519378 0.10778745 -0.76449585 42 136 108
0.0035105636 0.10811121 -0.76529282 43 135 107
0.0047778194 0.10861604 -0.76498216 42 134 109
0.0079639042 0.10922153 -0.76409727 48 133 111
0.0091660889 0.10835207 -0.76347297 47 133 111
0.0068710679 0.10796276 -0.76410139 45 135 109
0.0073850537 0.10862216 -0.76411802 47 134 111
0.0072442587 0.10875592 -0.76419991 47 134 111
0.0089931441 0.11086658 -0.76421851 53 130 115
0.0078916727 0.10991316 -0.76430869 48 132 112
0.012370528 0.10922386 -0.76285654 45 135 110
0.012905179 0.10820756 -0.76242065 46 134 111
0.013226366 0.10966942 -0.76275885 44 135 110
0.012435453 0.10864211 -0.76267099 45 135 110
0.012252511 0.10980885 -0.76305723 44 134 111
0.013429325 0.11121685 -0.76315123 44 134 111
0.010308557 0.10895033 -0.76330942 47 133 111
0.013058142 0.11090556 -0.76315856 44 134 111
0.012620955 0.11078809 -0.76323575 45 133 111
0.0012629726 0.107035 -0.765827 50 134 106
0.0003539811 0.10591446 -0.76588213 58 132 108
0.0010491183 0.10454875 -0.7652151 68 131 109
0.00084585731 0.10558203 -0.76558888 60 131 109
0.0011023445 0.10639117 -0.76571226 54 133 108
0.0017901707 0.10461764 -0.76493257 67 131 108
0.00070324808 0.1046415 -0.76538205 66 131 109
-0.0013840478 0.1035962 -0.76593798 76 126 112
0.0057734111 0.10666645 -0.76408774 47 135 108
0.0043829586 0.10471275 -0.76402283 62 133 108
0.0041873935 0.10558683 -0.76434869 58 133 109
0.0051356573 0.10644826 -0.76425564 51 135 109
0.0055652712 0.1060301 -0.76397777 52 134 108
0.0037392981 0.10514699 -0.76438308 61 133 108
0.0028741965 0.10554877 -0.76480323 59 134 107
0.0021724175 0.10522051 -0.76495856 62 133 107
0.0032496778 0.10563816 -0.76469582 58 133 108
0.004018194 0.10742106 -0.76492661 43 137 107
0.0023491725 0.10613508 -0.76515371 54 134 107
0.0095058251 0.10397841 -0.76213342 58 134 109
0.007854579 0.10374081 -0.76258039 62 133 108
0.0090734186 0.10519025 -0.76261026 54 134 109
0.0091907578 0.10503852 -0.76253092 54 134 109
0.0094169993 0.10549294 -0.76258886 53 134 109
0.009229335 0.10407706 -0.76224738 58 134 109
0.006646005 0.10618537 -0.76366419 51 135 109
0.0063191224 0.10511827 -0.76345778 57 133 108
0.0075100451 0.107143 -0.76366657 45 135 109
0.0066414559 0.10648876 -0.76375407 48 135 108
0.007594673 0.10530139 -0.76310241 57 133 109
0.0059026587 0.10660993 -0.76402622 47 135 108
0.010818175 0.10588109 -0.76231098 52 134 110
0.0099927261 0.10620555 -0.76262128 50 135 110
0.011371767 0.10586341 -0.76215929 52 134 110
0.011592605 0.10651816 -0.76228571 50 135 110
0.010451226 0.10672174 -0.76264566 47 135 110
-0.0031134279 0.10029239 -0.76567197 71 132 112
-0.0037382194 0.099962689 -0.76588076 72 133 112
-0.0040783179 0.099749058 -0.7659831 72 133 112
-0.0035538317 0.099756069 -0.7657187 71 134 112
0.00075423997 0.1026592 -0.76476121 74 131 109
-0.0015410682 0.10164022 -0.76535946 73 131 112
-0.0011849275 0.10040754 -0.76480699 71 133 111
-0.00046114507 0.10172502 -0.76494753 73 131 111
-0.00026430888 0.10327649 -0.76538014 75 129 110
-0.0018363374 0.10013092 -0.76498091 71 133 113
0.0017252821 0.10299773 -0.76448029 77 130 110
0.0014647392 0.10292894 -0.76456183 75 131 109
0.0004199578 0.1007153 -0.76426703 79 130 112
-0.0010863681 0.10029374 -0.76473099 72 132 112
0.00058510387 0.099924579 -0.76394749 84 129 114
0.0012950203 0.10020961 -0.76375657 87 128 113
0.002972295 0.09974616 -0.76300406 90 127 114
0.00324063 0.10026411 -0.76306498 87 128 113
0.004716191 0.099615917 -0.76238883 85 128 111
0.0043514548 0.10096571 -0.76289994 81 128 111
0.0044411286 0.10087699 -0.76284456 81 128 111
0.0035973154 0.10028785 -0.7629537 86 128 113
0.0022062673 0.10012416 -0.76337546 91 127 114
0.0028939748 0.10223189 -0.76380223 80 129 111
0.0031042723 0.10320176 -0.76403719 74 130 109
0.0035154265 0.10173323 -0.76341659 81 128 112
0.0028375455 0.10061558 -0.763304 87 128 113
0.0027078558 0.10060766 -0.76334852 87 128 113
0.0066232607 0.10298087 -0.7627455 67 132 108
0.0059458278 0.10298809 -0.76295847 68 132 108
0.0081483815 0.10291491 -0.76225179 65 132 109
0.0066230348 0.10326064 -0.76282638 66 132 108
0.0066079497 0.10264011 -0.76265186 68 132 108
-0.0039814194 0.09956 -0.76587349 71 134 112
-0.0025646049 0.099179432 -0.76504362 70 133 112
-0.0032294048 0.099586293 -0.76549858 71 134 112
-0.0042320141 0.09755107 -0.76542407 69 133 110
-0.0047775218 0.097508304 -0.76568902 70 133 111
-0.00210501 0.097750291 -0.76438671 67 135 112
-0.0039427332 0.096481465 -0.76496142 68 134 111
-0.00202953 0.097970322 -0.76441264 67 135 112
-0.0021544436 0.098427556 -0.76461184 68 134 112
-0.0032390545 0.096107818 -0.7644881 66 135 111
-0.0028724491 0.097779676 -0.76479149 68 134 111
0.00047365727 0.09791296 -0.76338887 82 130 114
0.0013037839 0.096750453 -0.76269871 81 128 115
-0.00024653506 0.096330695 -0.76320171 74 132 114
-0.00096870912 0.096060149 -0.76341319 69 134 113
0.00019095931 0.097590521 -0.76340604 80 131 113
0.0014847928 0.097231328 -0.76277107 83 128 115
-0.0015225584 0.09671855 -0.76383305 68 135 112
-0.0013580548 0.097818404 -0.76409167 71 134 113
-6.8744062e-05 0.099484272 -0.76406956 82 130 113
-0.00037594908 0.097925305 -0.76373243 77 132 113
-0.0018834235 0.096891612 -0.7640276 66 135 113
0.0027024602 0.096510127 -0.76211333 80 127 114
0.0041567357 0.099339895 -0.76249045 86 127 112
0.0025929785 0.097677305 -0.7625038 85 127 114
0.002812502 0.097352728 -0.76233262 83 127 114
0.0025707541 0.097278945 -0.76239026 83 127 114
-0.0062838253 0.095326312 -0.76585954 70 132 109
-0.0070579653 0.092155226 -0.76544571 77 131 106
-0.0076838941 0.092614174 -0.76592624 80 130 105
-0.0059907259 0.092059225 -0.76481187 72 132 109
-0.0067638312 0.094119281 -0.76580864 75 132 107
-0.0033113463 0.094190679 -0.76400518 67 135 112
-0.0047257226 0.092505746 -0.76429337 69 133 110
-0.0026290002 0.094280481 -0.76370639 64 136 111
-0.0024334998 0.092299663 -0.76317745 61 135 111
-0.0022563036 0.091962665 -0.76302022 61 134 112
-0.0022042436 0.094107196 -0.76346976 63 136 112
-0.0037376364 0.094021142 -0.7641719 68 134 111
-0.0056918473 0.093698271 -0.76509327 70 133 110
-0.0049290815 0.093594968 -0.76467174 69 133 110
-0.0040795151 0.094759829 -0.76454782 68 134 111
-0.0056616943 0.092106126 -0.76464772 71 132 110
-0.0033260679 0.09481246 -0.76417321 66 135 111
-0.00010094141 0.092140727 -0.76211697 57 134 113
-0.00059723819 0.09252207 -0.76243091 61 133 113
-0.00057859771 0.092273436 -0.76235986 59 133 113
-0.0013689828 0.095021673 -0.76331705 66 134 113
-0.0015993743 0.094378173 -0.76326853 64 135 112
-0.00059545704 0.094992593 -0.76299614 69 133 113
0.00057236338 0.094538406 -0.76242101 72 129 115
0.0014233417 0.095208906 -0.76222318 77 127 116
-0.0017273939 0.094289102 -0.7633009 63 136 112
-0.0073328223 0.091406658 -0.76541167 85 129 108
-0.0069426615 0.091629863 -0.76524311 79 131 107
-0.006548075 0.091752246 -0.76504779 75 132 107
-0.0058899145 0.090234026 -0.76434946 80 129 110
-0.002005395 0.089727387 -0.76236331 56 135 111
-0.0037076697 0.08835762 -0.76287538 70 131 110
-0.005017492 0.088355705 -0.76352739 85 127 110
-0.003801753 0.089646421 -0.7632373 74 130 111
-0.0040536691 0.088682614 -0.76312715 75 130 110
-0.0049678553 0.088155769 -0.76345384 84 127 110
-0.0038032033 0.090179585 -0.76336104 74 130 111
-0.0049127266 0.091268621 -0.76411146 72 131 111
-0.0024965627 0.091768727 -0.76308984 61 134 111
-0.0044630799 0.090468436 -0.76373082 74 131 110
-0.0027787648 0.090993591 -0.76305628 66 132 111
-0.0053240578 0.088748202 -0.76376599 86 126 111
-0.0015219902 0.091580205 -0.76260018 58 134 112
-0.001647673 0.090696357 -0.76243985 57 135 112
-0.0028504338 0.087460279 -0.76223195 66 133 110
-0.002935 0.087860279 -0.76236916 62 133 110
-0.0048385337 0.087237239 -0.76316923 91 126 111
-0.0035835165 0.087663509 -0.76264542 71 131 110
-0.023076437 0.1054388 -0.78041446 36 130 111
-0.021694997 0.10033562 -0.77780581 70 128 107
-0.023434399 0.10079024 -0.77965194 89 129 120
-0.023618624 0.099695772 -0.77955991 104 127 118
-0.023452708 0.10012687 -0.77950317 97 128 118
-0.021334751 0.10239282 -0.7779963 42 131 110
-0.022615978 0.099471875 -0.77850717 92 126 112
-0.02352157 0.099142529 -0.77933294 108 128 120
0 0 0 1 0 0 0 1 0 0 0 1 0 0 0 0 0 813 1 0 0
