ply
format ascii 1.0
comment PCL generated
element vertex 747
property float x
property float y
property float z
property uchar red
property uchar green
property uchar blue
element camera 1
property float view_px
property float view_py
property float view_pz
property float x_axisx
property float x_axisy
property float x_axisz
property float y_axisx
property float y_axisy
property float y_axisz
property float z_axisx
property float z_axisy
property float z_axisz
property float focal
property float scalex
property float scaley
property float centerx
property float centery
property int viewportx
property int viewporty
property float k1
property float k2
end_header
0.020793248 -0.41139793 -0.68016088 32 137 116
0.021537149 -0.41151169 -0.68010426 29 137 116
0.019960135 -0.41383505 -0.68047076 32 136 117
0.019260483 -0.41585568 -0.68074697 32 136 117
0.020675018 -0.4142178 -0.68046105 29 136 117
0.02099769 -0.41285747 -0.68028593 29 139 116
0.021096835 -0.41586649 -0.68061376 28 136 118
0.020044152 -0.41252229 -0.68029189 36 137 117
0.020668691 -0.41246065 -0.68025386 33 137 116
0.020458166 -0.41247928 -0.68026644 34 136 117
0.023956064 -0.4153769 -0.68015146 28 136 118
0.021582779 -0.41520455 -0.68049651 27 137 118
0.022476157 -0.41371959 -0.68019408 28 138 117
0.022122063 -0.41493356 -0.68038356 28 136 118
0.022837868 -0.413445 -0.68011039 28 138 117
0.016467815 -0.41726419 -0.68109047 37 135 117
0.021137375 -0.41769984 -0.68079472 31 136 117
0.020243257 -0.41886169 -0.68099296 35 135 117
0.021082072 -0.41711104 -0.68074495 30 136 118
0.021135386 -0.41837984 -0.68085879 33 135 118
0.020245833 -0.41903961 -0.68100941 36 135 117
0.018259233 -0.41736287 -0.68100017 36 135 117
0.019117141 -0.41773468 -0.68098211 34 135 117
0.018438803 -0.41643563 -0.68087548 34 135 117
0.020868964 -0.41633162 -0.68068504 28 136 118
0.018308604 -0.41783267 -0.6810531 36 135 117
0.020727314 -0.41628912 -0.68069029 28 136 117
0.024452588 -0.41622889 -0.68017071 28 136 118
0.02278148 -0.41671085 -0.68048495 28 136 118
0.025214871 -0.41865817 -0.68034261 32 136 117
0.024941085 -0.418881 -0.68041164 32 134 118
0.023822866 -0.41774148 -0.6804477 30 136 118
0.024516927 -0.41808608 -0.68038183 31 135 118
0.02264129 -0.41720733 -0.68056524 28 136 118
0.022318766 -0.41920477 -0.68079436 34 134 117
0.024155797 -0.41878718 -0.6805191 32 134 118
0.022315685 -0.41889009 -0.68076515 33 135 117
0.022022376 -0.41930851 -0.68084222 35 135 117
0.026936986 -0.41989774 -0.68034989 31 136 118
0.028270675 -0.41917387 -0.68015224 28 138 118
0.025719674 -0.41811478 -0.68022454 30 136 117
0.028260317 -0.41899768 -0.68013191 28 138 118
0.025726764 -0.4187963 -0.68030578 31 136 118
0.025383072 -0.42155719 -0.68072569 32 136 117
0.02459571 -0.42134017 -0.680767 36 135 118
0.025217328 -0.42300555 -0.68097001 32 138 117
0.024978088 -0.42225853 -0.68087512 33 137 117
0.022684565 -0.42027101 -0.68085843 37 135 117
0.024296597 -0.42048132 -0.68067765 36 135 118
0.027831553 -0.42272997 -0.68067831 27 137 117
0.027043492 -0.4222537 -0.68071032 28 139 117
0.027231347 -0.42300156 -0.68077797 27 138 117
0.028461503 -0.42273754 -0.68060839 25 136 117
0.02820993 -0.42268029 -0.68062985 25 137 116
0.028183287 -0.42092782 -0.68042052 27 139 117
0.027483441 -0.42114165 -0.68050563 29 139 117
0.027835038 -0.42000666 -0.68030077 28 138 118
0.025480378 -0.42007923 -0.68048519 33 134 118
0.026823526 -0.42086053 -0.68050981 29 139 116
0.025491877 -0.42105362 -0.68063807 32 136 117
0.030862886 -0.42022616 -0.68011624 23 139 118
0.032115929 -0.42252493 -0.68027544 21 137 117
0.032240644 -0.42105144 -0.68011659 20 138 118
0.030440416 -0.42097077 -0.68021798 24 139 117
0.032968 -0.42321026 -0.68029386 19 137 116
0.031490449 -0.42250901 -0.6803183 21 137 117
0.030125013 -0.42293245 -0.6804738 21 137 116
0.029496975 -0.42356038 -0.68059677 20 137 115
0.029368952 -0.42029035 -0.68021822 26 138 118
0.030876786 -0.42352983 -0.6804868 19 137 116
0.034213692 -0.42314166 -0.68021309 17 137 118
0.033497725 -0.42271686 -0.6802116 18 137 117
0.034266815 -0.4229075 -0.68018591 18 136 118
0.024420958 -0.42679873 -0.6817193 32 138 114
0.0240908 -0.42526677 -0.68145537 33 139 115
0.024819348 -0.42510015 -0.68136752 32 138 115
0.024890691 -0.42666644 -0.68165797 30 137 115
0.028295066 -0.42727637 -0.68137681 24 136 117
0.02753582 -0.4256354 -0.6811828 24 138 115
0.028476041 -0.42569399 -0.68107539 23 136 116
0.027855579 -0.4257544 -0.68116379 24 136 116
0.027559437 -0.42766288 -0.68153703 26 136 117
0.028307302 -0.42409396 -0.68080544 23 136 116
0.02692996 -0.42426318 -0.68099231 26 137 116
0.027129307 -0.42446005 -0.68100703 26 137 116
0.026265653 -0.42564669 -0.6813283 27 137 115
0.027291903 -0.42403969 -0.68090934 26 137 116
0.026530532 -0.42550927 -0.68127257 27 137 115
0.032776244 -0.42696586 -0.6808821 21 135 118
0.03025534 -0.42703864 -0.68113112 21 135 117
0.032862205 -0.42761281 -0.68097687 21 135 118
0.033180442 -0.42479864 -0.68049943 19 137 116
0.030753009 -0.42638186 -0.68097985 20 137 116
0.032631781 -0.42722309 -0.68093657 21 135 118
0.030422693 -0.42413136 -0.68061066 19 137 116
0.030441586 -0.42450547 -0.68067515 20 137 116
0.029342065 -0.42549658 -0.68093443 20 137 116
0.030740967 -0.42531121 -0.68079394 20 137 116
0.029996945 -0.42413199 -0.68064362 19 137 116
0.029673133 -0.42417735 -0.68067652 20 137 116
0.034702212 -0.42634335 -0.68065828 19 135 119
0.034812503 -0.42656374 -0.680691 19 135 120
0.034101766 -0.42417428 -0.68034649 18 136 118
0.034157019 -0.4246031 -0.68041146 18 136 118
0.033528164 -0.4260608 -0.68067932 20 135 118
0.0346222 -0.4250316 -0.68045294 18 137 118
0.034620095 -0.42588428 -0.68058866 19 135 119
0.034732148 -0.42385116 -0.68025899 18 136 118
0.039724674 -0.42540199 -0.68020517 15 132 122
0.039792914 -0.424703 -0.68010116 15 132 122
0.040912542 -0.42520317 -0.68011314 14 132 121
0.040575374 -0.42694768 -0.68038166 14 132 121
0.039074142 -0.42744941 -0.68057984 16 134 123
0.03858535 -0.42562798 -0.68030751 16 134 123
0.038715333 -0.42670125 -0.68048072 16 134 123
0.040388111 -0.42742395 -0.68046886 14 132 121
0.041955985 -0.42533714 -0.68010944 16 132 123
0.04262244 -0.42601588 -0.6801945 17 132 122
0.025256071 -0.42851043 -0.68195361 29 137 115
0.024849977 -0.42995724 -0.68221527 34 136 117
0.025062056 -0.42885971 -0.68202579 32 136 117
0.029001016 -0.43105143 -0.68196541 21 138 117
0.027705712 -0.43125874 -0.68212956 27 137 117
0.028564217 -0.43046111 -0.68190044 24 138 117
0.026809465 -0.43078423 -0.68213052 30 136 117
0.028566208 -0.43118027 -0.68203133 24 138 117
0.025983999 -0.42911476 -0.68196023 30 136 117
0.026172804 -0.42969972 -0.68202704 31 136 117
0.02652235 -0.42900887 -0.68187648 28 136 117
0.025525795 -0.42968601 -0.6821059 31 137 116
0.026817817 -0.42891529 -0.68182498 28 135 117
0.02585895 -0.42806375 -0.68181336 27 137 115
0.030773284 -0.43079227 -0.68175942 20 138 117
0.032535799 -0.42986006 -0.68143559 21 137 118
0.032644331 -0.43119398 -0.6816895 21 137 118
0.031533707 -0.43130448 -0.68179971 20 138 117
0.032956339 -0.43076789 -0.68158084 21 137 118
0.029419059 -0.43088892 -0.68189549 20 138 116
0.029460037 -0.4281466 -0.68139184 23 135 118
0.030286897 -0.4300116 -0.6816538 21 137 118
0.029810017 -0.43082735 -0.68184739 20 138 117
0.029378571 -0.42820546 -0.68141025 23 135 118
0.030410349 -0.43001729 -0.68164319 21 137 118
0.03631866 -0.42856854 -0.6809848 19 135 122
0.034961212 -0.42996073 -0.68131757 20 135 121
0.033600561 -0.42815647 -0.6810292 21 133 119
0.035544015 -0.42831519 -0.68097287 19 135 121
0.033260379 -0.42951727 -0.68131238 21 135 118
0.034044135 -0.4304536 -0.68146139 20 137 119
0.033860251 -0.42823362 -0.68103272 21 133 119
0.039879978 -0.43112999 -0.6809454 20 138 118
0.03972568 -0.43151715 -0.68100202 23 136 118
0.040879551 -0.42806602 -0.68051994 15 132 122
0.04046461 -0.42907909 -0.68066931 17 132 122
0.040725231 -0.43016535 -0.68075711 18 136 118
0.040854435 -0.42780143 -0.68049264 15 130 122
0.040190712 -0.42796111 -0.68056673 15 132 122
0.040173322 -0.42791644 -0.6805625 15 132 122
0.044059049 -0.43126443 -0.68082291 18 136 120
0.043089159 -0.4300907 -0.68068111 20 137 119
0.042022176 -0.43153253 -0.68086517 20 137 118
0.043768737 -0.43112126 -0.68080634 18 136 119
0.043196127 -0.43138012 -0.68084109 18 137 118
0.043923628 -0.42963484 -0.68062079 20 135 120
0.042587157 -0.42897087 -0.68056476 18 136 119
0.041542474 -0.42827171 -0.68051547 16 132 121
0.042286318 -0.42960754 -0.68063891 20 135 119
0.041163865 -0.43131036 -0.68084472 20 138 116
0.041550674 -0.42914456 -0.68060732 17 136 120
0.047570344 -0.43108958 -0.68082029 17 134 122
0.047143858 -0.43106025 -0.68081349 17 134 122
0.046215698 -0.43143824 -0.6808517 17 134 122
0.025249992 -0.43356037 -0.68280035 33 137 118
0.025342718 -0.43325743 -0.68273109 33 138 117
0.024627402 -0.43279856 -0.68274778 34 136 118
0.024916422 -0.43213689 -0.68258423 35 136 118
0.026130799 -0.43550444 -0.68307352 28 139 117
0.028310943 -0.43351388 -0.68249393 24 139 116
0.028001348 -0.433025 -0.68242729 24 138 117
0.028112411 -0.43459237 -0.68271989 25 139 116
0.026345726 -0.43459669 -0.68287903 27 138 117
0.02605517 -0.43250129 -0.6825195 32 137 117
0.026999924 -0.4317697 -0.68229192 29 136 117
0.025608907 -0.43382952 -0.68280888 31 138 117
0.028465111 -0.43214655 -0.68221879 23 138 117
0.026429957 -0.43240145 -0.68246442 31 136 118
0.026823929 -0.43304762 -0.6825456 27 138 117
0.032394003 -0.4354814 -0.682486 25 134 120
0.032592818 -0.43313468 -0.68205452 23 136 118
0.033112481 -0.43433657 -0.68221521 23 135 119
0.031780142 -0.433319 -0.68216574 23 138 117
0.030445524 -0.43513808 -0.68261474 25 136 117
0.033085342 -0.43475199 -0.68229079 25 133 120
0.031618424 -0.43287098 -0.68209666 21 138 116
0.03024039 -0.43293855 -0.68221933 21 138 116
0.029924929 -0.43477547 -0.68259913 24 139 115
0.030723818 -0.43371004 -0.68232983 23 138 116
0.030227594 -0.43411154 -0.68244684 24 138 116
0.0300273 -0.43402004 -0.68244511 24 138 116
0.035931103 -0.43363881 -0.68174058 27 135 120
0.033556011 -0.43409777 -0.68212384 23 136 119
0.034719415 -0.4336969 -0.6819194 24 136 120
0.033576634 -0.43383959 -0.6820761 23 136 119
0.034688249 -0.43290082 -0.68178314 23 136 120
0.034078788 -0.43355229 -0.68196779 24 136 119
0.040069479 -0.43485302 -0.68147522 33 134 115
0.040106196 -0.43300804 -0.68117696 26 137 117
0.039843746 -0.43437827 -0.68141788 31 136 115
0.040283162 -0.43534124 -0.68153566 35 135 113
0.040118262 -0.43371442 -0.68128896 28 136 115
0.040034339 -0.43384856 -0.68131739 29 136 116
0.039761867 -0.43289018 -0.68118662 25 137 117
0.044144526 -0.43342143 -0.68112242 20 135 117
0.043792035 -0.4337033 -0.6811713 23 135 117
0.041176189 -0.43550476 -0.6814968 36 134 112
0.041941926 -0.43486109 -0.68138659 33 133 114
0.044444639 -0.43405148 -0.6811924 19 135 117
0.042377546 -0.43191862 -0.68092144 21 135 118
0.043235134 -0.43205562 -0.68093973 20 135 119
0.042759486 -0.43287817 -0.68107337 25 134 117
0.041226525 -0.43287629 -0.68107969 27 135 115
0.045349754 -0.43522033 -0.68132979 16 138 115
0.045254439 -0.43393511 -0.68116277 17 134 118
0.024015641 -0.43673769 -0.68361306 33 139 119
0.024364144 -0.43779188 -0.68380231 36 137 119
0.02449834 -0.43823755 -0.68388414 36 139 118
0.024954727 -0.43749559 -0.68365133 34 139 118
0.025043866 -0.43706882 -0.68354201 33 138 118
0.02548052 -0.43872362 -0.68385351 36 138 117
0.025891686 -0.43879801 -0.68380678 38 138 117
0.02570717 -0.43593314 -0.68318683 31 138 116
0.027027706 -0.43749288 -0.68333697 36 138 113
0.026272513 -0.43881023 -0.68375105 38 138 115
0.027022824 -0.43813062 -0.68348205 38 137 114
0.026768377 -0.43685603 -0.68323708 33 139 113
0.026924277 -0.43556565 -0.68301368 27 139 116
0.028089946 -0.43694273 -0.68313271 33 138 113
0.028060745 -0.43714267 -0.68316776 34 137 113
0.027432181 -0.43720928 -0.68323493 36 137 113
0.032459836 -0.43802217 -0.6829403 31 135 115
0.032902345 -0.43745375 -0.68280166 28 135 117
0.032746706 -0.43694612 -0.68271619 27 135 117
0.032461785 -0.4367519 -0.6826992 29 134 117
0.031954955 -0.43865946 -0.68309635 33 135 113
0.033005413 -0.43742079 -0.68278825 27 135 117
0.031742882 -0.43675232 -0.6827563 30 135 116
0.029454865 -0.43605441 -0.68286508 27 138 114
0.030265262 -0.43729854 -0.68298835 33 137 113
0.029944109 -0.43577516 -0.68277222 27 137 115
0.029846666 -0.43737626 -0.68304157 34 136 112
0.036459439 -0.43693411 -0.68219346 32 137 118
0.036608458 -0.43749797 -0.68227947 33 137 119
0.034622841 -0.43812701 -0.68269491 31 137 115
0.035539728 -0.43821126 -0.68257493 31 138 117
0.036844093 -0.43887404 -0.68250829 32 137 119
0.036187485 -0.43651581 -0.68215364 33 137 118
0.034660067 -0.43797916 -0.68266106 31 137 115
0.033339445 -0.4392865 -0.68310785 30 137 114
0.034003537 -0.43845087 -0.68284935 31 136 115
0.034454972 -0.43736517 -0.68257546 29 136 116
0.033517867 -0.43786621 -0.68281162 28 135 116
0.040280096 -0.43653291 -0.68177205 36 135 113
0.037690379 -0.43928972 -0.68252426 32 138 118
0.039603647 -0.43578368 -0.68167013 36 134 115
0.038580406 -0.43683833 -0.68195701 33 135 116
0.039516009 -0.43669212 -0.68185157 34 136 115
0.038401324 -0.43682691 -0.68196958 33 137 116
0.038534481 -0.43764141 -0.68211478 33 138 116
0.044671502 -0.43694818 -0.6816901 21 137 116
0.044578034 -0.43606088 -0.68150198 19 137 115
0.042930007 -0.43758401 -0.68194342 28 138 115
0.041045684 -0.43689987 -0.68184286 37 136 113
0.041021947 -0.43759492 -0.68201637 37 137 114
0.043784287 -0.43629283 -0.68159324 23 138 114
0.043647286 -0.43638137 -0.68162018 24 136 115
0.042515744 -0.43715605 -0.68185341 29 139 114
0.046837721 -0.43853006 -0.68204004 21 135 119
0.047057662 -0.4377951 -0.68189549 20 133 120
0.047888309 -0.43923819 -0.68217897 19 137 119
0.047332827 -0.43812591 -0.68196046 20 133 120
0.04504833 -0.43589866 -0.68144673 17 137 114
0.045459773 -0.4379189 -0.68189806 23 136 117
0.045809612 -0.43800178 -0.68192387 23 136 118
0.045479417 -0.4357309 -0.68141955 17 136 115
0.028864181 -0.44056642 -0.68376589 40 137 111
0.028160326 -0.44099596 -0.68397719 38 139 113
0.027098835 -0.43958408 -0.68380105 40 137 113
0.029396497 -0.43976575 -0.68349558 43 137 109
0.029966395 -0.44171983 -0.68389887 36 138 112
0.030869281 -0.44054103 -0.68353391 38 137 112
0.031057021 -0.43979284 -0.68337548 38 136 111
0.032638997 -0.44093794 -0.68348783 29 139 114
0.030772546 -0.4402208 -0.68347847 38 136 112
0.033325296 -0.44178459 -0.68359494 27 138 115
0.034497965 -0.44035131 -0.68314224 28 139 115
0.03874059 -0.44047552 -0.68280727 30 140 116
0.038298614 -0.44044363 -0.68281037 30 138 117
0.037807878 -0.4399896 -0.68270338 30 138 118
0.042924095 -0.44152546 -0.68278116 29 137 118
0.0467715 -0.44184154 -0.6827867 27 139 116
0.047788795 -0.44245934 -0.68287909 28 138 116
0.047462359 -0.44143498 -0.68267858 25 139 117
0.048481703 -0.44267541 -0.68289965 28 136 116
0.047225967 -0.44164205 -0.6827296 27 138 117
0.046700191 -0.44244647 -0.68291432 29 139 115
0.04626153 -0.43993667 -0.68233842 26 136 118
0.045525096 -0.44007513 -0.68237209 27 137 118
0.045668211 -0.44114763 -0.68263096 28 138 116
0.049704798 -0.44266757 -0.68280983 27 137 115
0.052581448 -0.44088414 -0.68219471 18 137 118
0.051049944 -0.44210935 -0.68258125 23 136 117
0.051265679 -0.44114909 -0.68235815 23 136 118
0.052714054 -0.43991083 -0.6819756 18 136 119
0.050138291 -0.44010752 -0.68224066 20 135 119
0.049080461 -0.44299418 -0.68293124 29 136 116
0.049095426 -0.44187525 -0.68269849 26 136 117
0.050683208 -0.43991342 -0.68215239 18 137 118
0.049210578 -0.44060385 -0.68242526 21 137 118
0.055619329 -0.44247368 -0.68256128 18 136 118
0.056147616 -0.4405711 -0.68216914 17 136 119
0.056490052 -0.43963486 -0.68197727 16 136 118
0.055749808 -0.44292581 -0.68265754 18 136 118
0.055274114 -0.44119379 -0.68228906 17 136 118
0.054438654 -0.44212815 -0.68247473 18 137 118
0.053658802 -0.44226605 -0.68249345 18 137 118
0.053101789 -0.44198111 -0.68242323 18 137 118
0.053298797 -0.44192231 -0.68241394 18 137 118
0.055925939 -0.43972102 -0.68198645 16 136 118
0.053282961 -0.44023961 -0.68205345 17 137 119
0.058940873 -0.44285864 -0.68268579 16 136 118
0.05863709 -0.44248241 -0.68261719 17 136 119
0.058314163 -0.44238523 -0.68259788 17 136 119
0.060983025 -0.44308063 -0.6827479 15 136 118
0.050788309 -0.44557875 -0.68348712 28 138 115
0.050494671 -0.4453885 -0.68345594 28 139 115
0.04956976 -0.44435674 -0.68324393 29 139 114
0.051519122 -0.44512951 -0.68330634 25 139 115
0.052530337 -0.44702414 -0.6837548 26 138 115
0.052429944 -0.44652697 -0.68362373 24 139 115
0.050174199 -0.44426876 -0.68317449 27 138 115
0.052514259 -0.44389838 -0.68288088 20 138 117
0.050007399 -0.44428113 -0.68319148 28 136 115
0.054251365 -0.44601232 -0.68345654 23 136 116
0.055327129 -0.4466002 -0.6835289 19 137 116
0.056002755 -0.44535342 -0.68322402 19 137 117
0.054912552 -0.44675332 -0.68358332 20 137 116
0.054831456 -0.44629207 -0.68348753 21 137 116
0.054832421 -0.44618574 -0.68346441 21 137 116
0.055593092 -0.44436222 -0.68302727 19 137 117
0.054351207 -0.44457713 -0.68307257 20 138 117
0.053687677 -0.44355741 -0.68277901 19 139 118
0.053614009 -0.44559303 -0.68334812 23 136 116
0.053317733 -0.4459483 -0.68344408 23 139 116
0.055447675 -0.44375661 -0.68285596 19 137 118
0.059395127 -0.4460547 -0.68329656 16 136 116
0.058967151 -0.44547072 -0.68320984 16 136 117
0.059389807 -0.44469464 -0.68305933 16 136 117
0.058472 -0.44584411 -0.68329263 17 136 116
0.056676567 -0.44600937 -0.68333387 18 134 116
0.05764088 -0.44620016 -0.68338162 17 136 116
0.057089433 -0.4433997 -0.68277085 18 136 118
0.058745351 -0.44350645 -0.682805 17 136 118
0.058655206 -0.44389707 -0.68288904 17 136 118
0.052282955 -0.447689 -0.68393832 28 138 115
0.055710822 -0.44845739 -0.68395197 23 135 116
0.05625733 -0.44767064 -0.68372703 19 135 116
0.054759517 -0.44732332 -0.68371671 21 137 116
0.05757571 -0.44844824 -0.68387622 19 137 115
0.057089802 -0.44821799 -0.68383205 19 137 115
0.059765868 -0.44740078 -0.68353063 18 137 115
0.060375083 -0.4474431 -0.6835202 18 137 115
0.061617129 -0.44844556 -0.6837604 19 135 116
0.061831862 -0.44876304 -0.68384081 19 135 116
0.061013274 -0.44833392 -0.68374217 19 137 115
0.061499231 -0.44771105 -0.68357259 18 136 116
0.062860899 -0.44782114 -0.68361259 16 138 117
0.016656158 -0.3910687 -0.67910129 33 134 114
0.017413517 -0.39058715 -0.67903239 33 133 113
0.01680444 -0.39211342 -0.67910439 34 136 112
0.017244101 -0.39226499 -0.67907071 34 136 111
0.01950025 -0.39213037 -0.67890668 32 137 114
0.019357834 -0.39249054 -0.67891258 32 136 113
0.018499076 -0.39188951 -0.67898697 34 136 112
0.018564058 -0.39036343 -0.67896819 33 134 114
0.017960586 -0.39194906 -0.6790204 34 135 112
0.017960751 -0.39217347 -0.67902368 34 136 111
0.023760846 -0.39121965 -0.67859477 32 137 114
0.024152556 -0.39112526 -0.67856467 33 138 114
0.024332467 -0.39189464 -0.6785292 36 137 114
0.024196012 -0.39196551 -0.67853874 36 136 114
0.029013118 -0.39182976 -0.67824334 44 135 109
0.028838724 -0.39205423 -0.67825872 45 134 109
0.028405361 -0.39034343 -0.67821616 33 137 112
0.028494192 -0.39182058 -0.67826498 43 134 110
0.025540376 -0.39050496 -0.67846256 35 137 113
0.025520952 -0.39087415 -0.67845476 36 137 113
0.026033148 -0.39054605 -0.67841005 34 137 113
0.026252035 -0.39091766 -0.67837727 35 137 113
0.030867202 -0.39125115 -0.67810279 42 135 110
0.032469053 -0.39075103 -0.6779924 35 135 112
0.030673489 -0.39175528 -0.67814106 43 135 109
0.031754896 -0.39047918 -0.67801386 38 133 113
0.031739205 -0.39234224 -0.67811912 40 135 110
0.029351238 -0.39135316 -0.6782105 42 135 109
0.029769542 -0.39025816 -0.67814147 36 135 111
0.030244036 -0.39157572 -0.67815423 44 134 110
0.030448524 -0.39063585 -0.67810607 38 136 111
0.030576572 -0.38953036 -0.67805749 32 136 113
0.033540014 -0.39055583 -0.67795026 32 136 114
0.033586301 -0.3908304 -0.67796659 33 136 113
0.010931086 -0.39603284 -0.67935371 31 135 114
0.010667851 -0.39641222 -0.67935228 30 133 114
0.01212807 -0.39608774 -0.67935354 31 133 115
0.016755383 -0.39485618 -0.67916679 33 135 113
0.013766384 -0.39643228 -0.6793462 32 133 115
0.015341752 -0.39582574 -0.67926008 33 134 115
0.017432235 -0.39317477 -0.67907631 34 136 111
0.017495489 -0.39604047 -0.67918164 34 135 115
0.014063491 -0.39515653 -0.6793251 33 134 115
0.018001918 -0.39477506 -0.67909813 34 134 115
0.017609801 -0.39552167 -0.67915636 34 135 115
0.018367749 -0.3942824 -0.67905152 33 135 114
0.018014221 -0.39405367 -0.67907006 34 135 113
0.026327897 -0.3926985 -0.67838591 45 134 112
0.025811575 -0.39358723 -0.67842644 47 135 111
0.029065546 -0.39264259 -0.67826915 49 134 108
0.026493173 -0.39381534 -0.67840242 50 134 110
0.032549679 -0.3949852 -0.67807168 50 134 109
0.032870285 -0.39399108 -0.67806363 42 136 109
0.032784246 -0.39533213 -0.67806053 46 134 108
0.032484669 -0.39470473 -0.67807573 50 134 109
0.032162584 -0.39295271 -0.67810458 43 135 110
0.035453364 -0.39602789 -0.67790985 37 137 109
0.035945222 -0.39545515 -0.6779061 34 137 110
0.034058314 -0.39509898 -0.6780268 37 136 108
0.037680782 -0.39351767 -0.67789966 29 135 114
0.037771199 -0.39433512 -0.67785352 32 136 114
0.012919025 -0.3989166 -0.67947972 31 135 114
0.012983795 -0.39959764 -0.67951208 31 135 115
0.010894006 -0.39742684 -0.67940968 31 135 112
0.010079972 -0.3968448 -0.6793741 31 133 114
0.01007325 -0.39712998 -0.6793915 31 133 113
0.012418712 -0.39699882 -0.67938352 31 135 114
0.016232012 -0.39841759 -0.67934871 31 135 115
0.015882894 -0.39853957 -0.67936653 31 135 115
0.016845046 -0.40023249 -0.67943531 26 134 114
0.016669748 -0.39720899 -0.67926675 33 134 116
0.014073433 -0.39797106 -0.67940819 31 133 115
0.014718358 -0.39758408 -0.67936343 31 135 115
0.015428673 -0.39731964 -0.67932206 33 133 116
0.015710691 -0.39718416 -0.67930406 33 133 116
0.018345105 -0.39971259 -0.67934024 30 133 114
0.018148649 -0.39824331 -0.67926568 33 134 115
0.018228734 -0.3978211 -0.67923671 33 135 115
0.036693525 -0.39678404 -0.67779797 40 138 110
0.037398942 -0.39677542 -0.67776573 39 137 110
0.038258001 -0.39781743 -0.67774063 50 135 108
0.038803715 -0.39797163 -0.67771739 52 133 109
0.013056135 -0.40129182 -0.67962128 32 136 115
0.017545499 -0.40056461 -0.67943531 26 134 114
0.017428363 -0.40105724 -0.67947352 27 134 114
0.016367231 -0.40237138 -0.67958903 33 134 114
0.017203039 -0.4008854 -0.679465 27 134 114
0.016852433 -0.40290689 -0.67961937 33 134 114
0.015881551 -0.40177757 -0.67955828 31 135 115
0.013681753 -0.40107471 -0.67958319 32 134 116
0.013975814 -0.40085971 -0.67956108 31 135 115
0.015565746 -0.40159273 -0.67955673 31 135 115
0.020588897 -0.40315107 -0.67939955 33 136 116
0.020236958 -0.40322468 -0.67943317 33 135 115
0.01841208 -0.40082338 -0.67940843 27 137 114
0.018395239 -0.40174329 -0.67947668 30 136 114
0.020362785 -0.40584627 -0.67964292 33 136 115
0.020801218 -0.4067007 -0.67970252 33 137 115
0.020133628 -0.40620384 -0.67970371 33 138 114
0.021446202 -0.40461081 -0.67940724 30 133 116
0.020726781 -0.40539742 -0.67955983 32 134 116
0.02180995 -0.40736786 -0.67969352 33 138 115
0.021933628 -0.40653583 -0.6795885 33 138 115
0.021709722 -0.40488675 -0.67941761 31 135 116
0.021223333 -0.41039941 -0.68003297 32 137 117
0.020652197 -0.4098157 -0.68002862 33 138 115
0.022635181 -0.41081631 -0.67988771 28 138 116
0.02342863 -0.41176286 -0.67986053 27 138 117
0.022348538 -0.40967664 -0.67982537 30 138 116
0.023074292 -0.4103626 -0.6797843 28 139 116
0.02210339 -0.40822139 -0.67975128 34 137 116
0.02255073 -0.40918303 -0.67975533 31 139 115
0.022315599 -0.40841916 -0.67973959 33 139 115
0.021569578 -0.40821594 -0.67980677 33 139 115
0.026743487 -0.41124108 -0.67937225 33 139 114
0.027281206 -0.41141918 -0.67932791 34 139 114
0.026255768 -0.41081148 -0.67940575 33 140 114
0.025849687 -0.41083393 -0.67947215 32 139 115
0.031635094 -0.41045988 -0.67888588 45 135 111
0.033110313 -0.4096145 -0.67872542 48 136 109
0.032924041 -0.41116017 -0.67885613 34 137 112
0.032280784 -0.41162211 -0.67893332 32 138 113
0.031527467 -0.40861249 -0.67872375 58 136 109
0.031257592 -0.40857863 -0.6787321 59 136 109
0.031541266 -0.40968663 -0.67882872 52 134 110
0.031323299 -0.41007131 -0.67887598 50 134 111
0.035281938 -0.41112721 -0.67874378 26 140 113
0.033884455 -0.41153795 -0.67884034 26 140 112
0.033930659 -0.41007397 -0.67872763 39 137 110
0.033768736 -0.41092268 -0.67879885 33 139 111
0.034282252 -0.40947357 -0.6786685 43 137 109
0.03379973 -0.41137823 -0.67883271 28 139 112
0.042895827 -0.41128251 -0.67859083 17 136 122
0.042888679 -0.41074523 -0.67852914 18 137 121
0.043751191 -0.41148189 -0.67861843 16 134 121
0.041473888 -0.41151297 -0.67860949 18 137 121
0.046097603 -0.41164967 -0.67863446 15 134 121
0.046635568 -0.41041151 -0.67853057 16 134 121
0.045553777 -0.4105331 -0.67852688 16 134 121
0.023631025 -0.41311941 -0.6799652 27 138 117
0.024694147 -0.4124313 -0.6797446 25 137 116
0.024125921 -0.41390583 -0.67997438 27 137 117
0.024761915 -0.41227013 -0.67971867 24 139 115
0.025232295 -0.41364524 -0.67979044 25 137 116
0.028372327 -0.41380516 -0.6794486 34 135 116
0.028702522 -0.41551587 -0.67960608 32 136 117
0.027538769 -0.41444311 -0.67960554 32 136 116
0.029170385 -0.41288468 -0.67926377 36 135 115
0.028334217 -0.41391048 -0.67946434 34 135 116
0.028499993 -0.41527036 -0.67959946 32 136 117
0.025679534 -0.41265628 -0.67963427 25 139 115
0.026252721 -0.41480577 -0.67978239 29 137 116
0.025882347 -0.41452113 -0.67979664 28 136 116
0.026065782 -0.41228569 -0.67955303 27 137 115
0.026978694 -0.41277879 -0.67949712 29 137 115
0.032158248 -0.41417974 -0.67924333 25 137 116
0.032481484 -0.41298968 -0.67906135 25 139 114
0.030880693 -0.41554931 -0.67948228 27 137 117
0.03026402 -0.41514924 -0.67944461 29 137 116
0.031566191 -0.4143275 -0.67928392 27 138 115
0.029367421 -0.41436991 -0.67941231 33 135 116
0.029663354 -0.41377339 -0.67932642 33 135 116
0.029969152 -0.41432354 -0.6793682 32 136 117
0.032230183 -0.41246516 -0.67901379 27 139 114
0.029560788 -0.41570815 -0.67954946 31 137 117
0.030657168 -0.41255429 -0.67912573 32 137 115
0.036779638 -0.41413069 -0.67898768 18 137 121
0.035355844 -0.41305858 -0.67893922 19 139 118
0.034747135 -0.41420466 -0.67913508 19 137 118
0.03372518 -0.41383949 -0.67913401 21 138 116
0.034195073 -0.4139635 -0.67912817 20 138 117
0.035753682 -0.41330227 -0.67895424 18 139 118
0.039350603 -0.41389993 -0.67891055 17 137 122
0.040932659 -0.41304591 -0.67877179 17 137 122
0.038537838 -0.41483781 -0.67903191 18 137 122
0.040506866 -0.41595194 -0.67907763 18 132 125
0.040144544 -0.41361442 -0.67885524 18 137 122
0.037657492 -0.41347444 -0.67887765 18 137 122
0.037927266 -0.41468379 -0.67902482 18 137 122
0.038151283 -0.41457927 -0.67900962 18 137 122
0.04059026 -0.41243058 -0.6787191 18 137 122
0.038558848 -0.41446102 -0.6789909 18 137 122
0.041629475 -0.41551512 -0.67902184 18 132 125
0.044907816 -0.41286734 -0.67878383 14 132 121
0.044849873 -0.41352895 -0.67885876 15 132 122
0.044662908 -0.41327202 -0.67882538 15 132 122
0.043834951 -0.4143759 -0.67893553 16 132 123
0.042352673 -0.41213369 -0.67868501 16 136 121
0.042013772 -0.41217098 -0.6786868 17 136 122
0.043765783 -0.4125967 -0.67873943 15 132 122
0.04403308 -0.41266182 -0.67874748 15 132 122
0.041377086 -0.41312149 -0.67877859 17 136 122
0.048399597 -0.41458195 -0.67885542 17 136 122
0.045037922 -0.41492993 -0.67901838 17 132 122
0.046504512 -0.41322273 -0.6787861 16 134 121
0.047337912 -0.41249415 -0.67868191 16 134 121
0.048899159 -0.41398573 -0.67878115 17 136 122
0.026850346 -0.4173111 -0.68004149 27 138 117
0.028151479 -0.41661674 -0.67980796 29 137 117
0.029173128 -0.41694698 -0.67975211 29 137 117
0.027940335 -0.41696396 -0.67988122 28 138 117
0.028673816 -0.41706479 -0.6798209 29 137 117
0.029552104 -0.41925988 -0.68006772 26 140 117
0.029381132 -0.41790453 -0.67987669 28 138 118
0.030004956 -0.4169077 -0.67968971 28 136 118
0.032214485 -0.41967204 -0.67996377 20 137 118
0.02977844 -0.4166086 -0.67965925 29 136 117
0.032188036 -0.41696417 -0.67961991 23 136 118
0.0303267 -0.41650894 -0.67962623 28 136 118
0.032860216 -0.41663617 -0.67955893 21 135 118
0.031960249 -0.41684219 -0.67961276 23 138 118
0.032616023 -0.41649008 -0.67954952 21 137 118
0.030900776 -0.4170211 -0.67966849 27 137 118
0.036845248 -0.41899526 -0.6795671 16 134 123
0.034369927 -0.41894001 -0.67973936 18 137 119
0.033323962 -0.4191367 -0.67983693 18 137 118
0.034342453 -0.41687396 -0.67949563 19 137 119
0.034667857 -0.41670281 -0.67945224 19 137 120
0.037360974 -0.41988903 -0.67964107 16 132 123
0.040727824 -0.41898611 -0.67938173 16 134 123
0.039745748 -0.41775292 -0.67930603 17 132 124
0.040513474 -0.4191868 -0.67941278 16 134 124
0.039997302 -0.41848055 -0.67936707 17 132 125
0.037754599 -0.41826665 -0.6794408 16 134 123
0.03748142 -0.41738221 -0.67934608 17 134 124
0.038005926 -0.41851121 -0.67946118 16 134 123
0.038907122 -0.41636625 -0.67917889 18 134 124
0.043157022 -0.41858366 -0.67934328 17 134 124
0.043302059 -0.41826385 -0.67931968 17 134 124
0.042635992 -0.41806006 -0.67930651 17 132 124
0.042507283 -0.41726509 -0.67922348 17 132 124
0.042862378 -0.41644302 -0.67914754 18 132 124
0.041387673 -0.41801143 -0.67927629 17 134 124
0.041164313 -0.41879418 -0.67935097 16 134 123
0.032373793 -0.42058372 -0.68006051 19 139 117
0.0339076 -0.42155328 -0.68006778 18 137 118
0.033558201 -0.4202545 -0.6799525 17 139 118
0.03727429 -0.4223415 -0.67993408 16 134 123
0.03803109 -0.42368451 -0.68005222 16 134 123
0.037738226 -0.42264608 -0.67994523 16 134 123
0.038522929 -0.42316049 -0.67996395 15 134 123
0.038387652 -0.42239261 -0.67988038 15 134 123
0.038403671 -0.42326671 -0.6799829 16 134 123
0.040156323 -0.42206243 -0.67974985 15 132 123
0.038964435 -0.42056772 -0.67963827 15 134 123
0.037970401 -0.42014727 -0.67963976 15 134 123
0.039358385 -0.42066479 -0.67962974 15 134 123
0.039561007 -0.4220551 -0.6797787 15 132 123
0.04099112 -0.42225355 -0.67973006 15 132 123
0.041205041 -0.42369691 -0.67989147 15 132 122
0.04219649 -0.42243361 -0.67973399 16 132 123
0.041472778 -0.42213684 -0.67970949 15 134 122
0.041153092 -0.42201194 -0.67969942 15 134 123
0.038431831 -0.42390615 -0.68005902 16 134 123
0.039442319 -0.42425603 -0.68005538 15 134 122
0.042093944 -0.42464367 -0.6800068 16 132 121
0.042190861 -0.42395031 -0.67990863 16 132 123
0.019159127 -0.44289407 -0.68585676 25 140 118
0.019084122 -0.44304696 -0.68590742 24 140 118
0.020129247 -0.44304261 -0.68575245 24 139 119
0.021446731 -0.4426854 -0.68546593 23 138 120
0.017808359 -0.44292811 -0.68605649 26 140 118
0.017631631 -0.44299567 -0.68609565 26 140 118
0.024149714 -0.44115573 -0.68466073 30 140 117
0.023148566 -0.442671 -0.68520445 25 139 118
0.024011359 -0.44090351 -0.68461651 32 138 118
0.025228808 -0.4397952 -0.68414515 36 139 117
0.023017865 -0.44293314 -0.68529207 24 138 118
0.022828253 -0.44258898 -0.68523186 25 139 118
0.022314809 -0.44222674 -0.68521595 25 139 118
0.027861495 -0.44086307 -0.68399119 38 139 113
0.028859034 -0.44227162 -0.68417764 36 139 113
0.026319221 -0.44009882 -0.68404472 37 138 116
0.026520496 -0.44103736 -0.68424827 35 138 116
0.025415692 -0.4411602 -0.68446922 31 139 116
0.026983188 -0.44125929 -0.68422639 35 139 116
0.017473431 -0.4435232 -0.68626899 26 140 118
0.017043153 -0.44362339 -0.68631494 26 140 118
0.018095426 -0.4439548 -0.6863156 25 140 117
0.019718191 -0.44384491 -0.68604314 24 139 118
0.019711204 -0.44430435 -0.68618435 24 139 118
0.019141965 -0.44454327 -0.68634111 25 139 118
0.020762596 -0.44396275 -0.68592536 23 138 119
0.018840291 -0.4442153 -0.68628538 25 139 118
0.024115929 -0.44573513 -0.68593276 25 139 116
0.025388258 -0.44487396 -0.68546784 25 139 116
0.024931403 -0.44385615 -0.6852622 24 139 115
0.023252115 -0.4455502 -0.6860323 25 139 116
0.023584543 -0.44475928 -0.68574232 24 139 116
0.022394925 -0.44525257 -0.68607301 24 138 117
0.022846514 -0.4457604 -0.68615901 25 139 117
0.024097115 -0.44393471 -0.6854136 24 139 117
0.028062556 -0.44511658 -0.6850751 31 139 115
0.026032696 -0.44499177 -0.68539059 26 140 115
0.026745299 -0.445117 -0.68530363 28 139 115
0.027402492 -0.44351715 -0.68474191 29 140 115
0.027828401 -0.44481033 -0.68503207 31 139 115
0.030690167 -0.4433637 -0.68421173 30 141 115
0.030725233 -0.44373944 -0.68431318 32 139 115
0.037731942 -0.44563985 -0.6841864 28 136 116
0.05197145 -0.4488484 -0.68424153 32 138 115
0.052536834 -0.44804725 -0.68400949 27 138 115
0.056623328 -0.45038351 -0.68438345 26 136 116
0.055387739 -0.44958088 -0.68424189 26 136 116
0.055120453 -0.45008254 -0.68437856 27 135 116
0.055412877 -0.45025602 -0.68440801 27 135 116
0.053771332 -0.4485361 -0.68406552 27 137 115
0.052890323 -0.45020899 -0.68451649 31 138 115
0.054526199 -0.44943517 -0.68424815 27 137 115
0.054864917 -0.44922727 -0.68418097 26 136 116
0.059758633 -0.45024905 -0.68427169 24 138 113
0.059036531 -0.45055497 -0.6843667 26 136 114
0.059688289 -0.45104614 -0.6844812 27 137 114
0.057487868 -0.45034871 -0.68435067 26 136 116
0.057485662 -0.44945106 -0.68412834 23 135 116
0.057520904 -0.44967189 -0.68418211 23 136 115
0.059163421 -0.44943008 -0.68407679 21 137 114
0.062719785 -0.45101801 -0.68437058 23 136 116
0.064019524 -0.45113268 -0.68433779 20 137 116
0.061385017 -0.44980341 -0.68412328 21 137 114
0.061672933 -0.45006353 -0.6841858 23 136 115
0.061428528 -0.45022321 -0.684232 23 136 114
0.05606208 -0.45504022 -0.68561375 28 135 115
0.055220015 -0.45427492 -0.68546414 28 138 113
0.056262784 -0.45361993 -0.68523413 27 137 115
0.055829696 -0.4538987 -0.6853314 28 136 115
0.053297203 -0.45470732 -0.68568742 32 138 112
0.056460343 -0.45412558 -0.6853537 27 135 115
0.053140968 -0.45335695 -0.68533146 33 138 113
0.059996009 -0.45199463 -0.68471026 27 137 114
0.05883871 -0.45358104 -0.68512917 27 135 115
0.057443283 -0.45480755 -0.68548268 27 135 115
0.060364526 -0.45396596 -0.68512344 27 138 115
0.05933677 -0.45359936 -0.68510354 27 138 114
0.057936285 -0.45295671 -0.68501318 27 135 115
0.058321003 -0.45299724 -0.68501562 27 135 115
0.056706592 -0.45120969 -0.68458641 27 135 115
0.058099348 -0.45130771 -0.68458253 27 135 115
0.057031695 -0.45317626 -0.68508911 27 135 115
0.062205665 -0.4543629 -0.68515742 25 137 117
0.06235205 -0.45401725 -0.68506867 25 137 117
0.061101448 -0.45291159 -0.68485594 27 137 115
0.061747313 -0.45189115 -0.6846028 24 138 115
0.062696844 -0.45152012 -0.68447983 23 138 116
0.06118869 -0.45434907 -0.68516934 27 138 117
0.060715072 -0.45466146 -0.68525881 28 138 118
0.06177884 -0.45272574 -0.6847856 25 137 116
0.065533489 -0.45465884 -0.68524152 19 139 118
0.066561438 -0.45384604 -0.68507844 18 139 118
0.065371394 -0.45414871 -0.68511462 19 139 118
0.065447658 -0.45328555 -0.68490088 19 139 118
0.064624049 -0.4540107 -0.68504798 19 139 117
0.065389894 -0.45313412 -0.68486035 19 139 118
0.056079879 -0.45583704 -0.68584222 28 136 115
0.055090554 -0.45589548 -0.68591869 30 137 114
0.054830872 -0.45653939 -0.686122 32 136 115
0.059213024 -0.45714268 -0.68601239 30 138 117
0.059710536 -0.45613319 -0.68570274 29 139 117
0.059668105 -0.4568311 -0.68589675 30 138 117
0.059965521 -0.45628506 -0.68572736 30 138 117
0.05670251 -0.45547593 -0.68569827 27 135 115
0.058948863 -0.45621899 -0.68577367 29 137 117
0.058762152 -0.45549712 -0.6855818 28 136 117
0.056773659 -0.45508683 -0.6855846 27 135 115
0.057555351 -0.45736134 -0.68617761 30 137 117
0.062641628 -0.45579147 -0.68552715 25 137 117
0.062725373 -0.45613864 -0.68562126 27 137 119
0.061909758 -0.45564455 -0.68549609 27 138 118
0.061002061 -0.45593983 -0.68558836 29 139 117
0.061898448 -0.45587888 -0.68556041 27 138 117
0.065637566 -0.4555465 -0.68547255 19 139 118
0 0 0 1 0 0 0 1 0 0 0 1 0 0 0 0 0 747 1 0 0
