ply
format ascii 1.0
comment PCL generated
element vertex 610
property float x
property float y
property float z
property uchar red
property uchar green
property uchar blue
element camera 1
property float view_px
property float view_py
property float view_pz
property float x_axisx
property float x_axisy
property float x_axisz
property float y_axisx
property float y_axisy
property float y_axisz
property float z_axisx
property float z_axisy
property float z_axisz
property float focal
property float scalex
property float scaley
property float centerx
property float centery
property int viewportx
property int viewporty
property float k1
property float k2
end_header
-0.11215996 -0.29878545 -0.69098306 99 139 114
-0.11193138 -0.2974256 -0.69155502 84 138 112
-0.11344435 -0.29861814 -0.69154328 94 138 114
-0.10897962 -0.29593182 -0.69134545 82 135 111
-0.110167 -0.29726392 -0.69105881 90 136 113
-0.10810833 -0.29544899 -0.69131678 82 133 111
-0.10955235 -0.29821256 -0.69044924 107 136 114
-0.11003336 -0.2975364 -0.69088691 94 137 113
-0.11009644 -0.29810846 -0.69064432 102 137 114
-0.1097115 -0.29844496 -0.69038689 109 136 115
-0.11007428 -0.29862291 -0.69040459 108 137 115
-0.10849456 -0.29669186 -0.69085252 95 134 112
-0.1058527 -0.29739091 -0.68990248 110 133 112
-0.10509396 -0.29769513 -0.68958932 120 133 114
-0.10652696 -0.29848421 -0.68954778 128 134 114
-0.1044822 -0.29614827 -0.69016874 93 133 111
-0.10660301 -0.29821649 -0.68968928 123 133 114
-0.10399975 -0.29861632 -0.68891382 142 132 117
-0.10694236 -0.29688331 -0.69037032 104 133 112
-0.10696302 -0.29534343 -0.69107413 85 132 111
-0.10539978 -0.29613283 -0.69037706 92 133 111
-0.10510089 -0.29562464 -0.69054317 85 133 110
-0.10547218 -0.29584223 -0.69052476 88 133 110
-0.099829853 -0.29647976 -0.68899953 100 130 112
-0.10055225 -0.29654685 -0.68911475 102 130 113
-0.10115957 -0.29815146 -0.6885311 134 130 116
-0.1002081 -0.29730028 -0.68871462 117 130 115
-0.10160223 -0.29790133 -0.68872982 129 130 116
-0.10252316 -0.29835311 -0.68871576 139 131 117
-0.10295123 -0.29556578 -0.6900931 84 132 110
-0.10196016 -0.29706985 -0.68917203 113 131 114
-0.10276835 -0.29608759 -0.6898098 95 131 111
-0.10145567 -0.29547957 -0.68979663 81 131 110
-0.10152928 -0.29618841 -0.68948418 95 131 112
-0.097817883 -0.2976217 -0.68815094 116 129 113
-0.09619873 -0.29685703 -0.68821776 96 130 110
-0.096497983 -0.29729882 -0.68807793 107 130 111
-0.09766531 -0.29607564 -0.68879455 83 129 109
-0.099265248 -0.29780519 -0.68831277 125 130 115
-0.098543376 -0.2962864 -0.68885469 91 130 111
-0.098671645 -0.29624796 -0.68889391 91 130 111
-0.092788994 -0.29617581 -0.68808836 103 127 115
-0.093727313 -0.29661044 -0.68801314 105 128 113
-0.093598634 -0.29615664 -0.68819225 101 126 114
-0.088787436 -0.29531926 -0.68798703 91 129 110
-0.089951284 -0.29548731 -0.6880514 95 128 112
-0.091359392 -0.29578918 -0.68808585 100 127 115
-0.11535205 -0.30167347 -0.69086707 106 136 115
-0.11732623 -0.30226371 -0.69145846 101 138 115
-0.11644036 -0.30082443 -0.69171786 96 137 114
-0.11752215 -0.30189067 -0.69171 98 138 115
-0.11585283 -0.30143189 -0.69119191 102 136 115
-0.11368252 -0.29892284 -0.69148511 96 137 115
-0.11238745 -0.29937217 -0.69079816 101 138 115
-0.11291537 -0.30040425 -0.69053102 105 138 115
-0.11309158 -0.30042148 -0.69058806 105 137 115
-0.11385655 -0.30065331 -0.69076562 105 136 116
-0.11460391 -0.3007161 -0.6910122 103 137 115
-0.11266266 -0.30146939 -0.68999845 109 137 115
-0.1115243 -0.29988196 -0.69027698 105 138 116
-0.11151085 -0.30047283 -0.69002479 106 138 115
-0.11428887 -0.30260342 -0.69007564 112 136 116
-0.11173117 -0.29951727 -0.69050008 104 138 116
-0.11399571 -0.30250382 -0.69001776 112 136 116
-0.10981109 -0.30137834 -0.68916726 120 136 115
-0.10915473 -0.30200455 -0.68869591 128 134 118
-0.10881475 -0.30120698 -0.68894875 128 134 117
-0.11035655 -0.30232549 -0.68890887 119 136 117
-0.10853027 -0.3003563 -0.68924153 127 134 116
-0.10813399 -0.30195987 -0.6884141 137 132 121
-0.11079854 -0.2990661 -0.69040841 106 138 115
-0.11084948 -0.29884908 -0.69051319 105 138 115
-0.10831155 -0.2991395 -0.68970209 125 135 114
-0.11079216 -0.29918346 -0.69035751 107 138 115
-0.11099868 -0.30057162 -0.68983179 109 138 115
-0.1106009 -0.29913256 -0.69032687 108 138 115
-0.10471477 -0.30038667 -0.68829036 148 131 120
-0.1041235 -0.3003892 -0.68816066 147 133 119
-0.10475411 -0.30069563 -0.68816483 147 132 120
-0.10714202 -0.30166283 -0.68827128 144 130 122
-0.10729061 -0.29930586 -0.68934947 133 134 115
-0.1066424 -0.30056188 -0.68864596 141 131 120
-0.10690874 -0.30164847 -0.68822479 145 130 122
-0.1065486 -0.30083784 -0.68850243 143 131 120
-0.10587998 -0.30111781 -0.68822682 147 130 122
-0.10244695 -0.29953641 -0.68818432 147 132 117
-0.10140361 -0.29933372 -0.6880632 147 132 118
-0.10177396 -0.29891604 -0.68831867 147 131 118
-0.11951495 -0.30417499 -0.69178367 118 137 116
-0.11926365 -0.30583912 -0.69110835 148 135 117
-0.11918172 -0.3056868 -0.6911096 146 136 116
-0.1187145 -0.30314511 -0.69171447 105 138 115
-0.11777689 -0.3036139 -0.69115835 117 137 116
-0.11798099 -0.30459723 -0.69093299 133 136 116
-0.11742397 -0.30332816 -0.6910972 113 137 115
-0.11889186 -0.30397704 -0.69152349 119 137 115
-0.11884236 -0.30626693 -0.69077241 157 135 117
-0.11532561 -0.30653468 -0.68903935 150 134 116
-0.11584686 -0.30478573 -0.68990171 135 135 116
-0.11733055 -0.30525419 -0.6904282 144 135 116
-0.11685744 -0.30623585 -0.68985987 151 135 117
-0.11659302 -0.30435395 -0.69040269 132 135 117
-0.11540719 -0.30459985 -0.68976235 132 135 116
-0.11140211 -0.30315328 -0.68888783 115 137 116
-0.11242911 -0.30413553 -0.68888962 124 136 116
-0.11161896 -0.30346814 -0.68884903 117 137 116
-0.11246923 -0.30510077 -0.68855131 129 136 116
-0.11220868 -0.30399525 -0.68886352 123 137 116
-0.11215269 -0.30321243 -0.68912584 116 137 115
-0.11500937 -0.3049576 -0.68947858 135 135 116
-0.11454782 -0.30528325 -0.68920648 138 135 116
-0.1130725 -0.3039459 -0.68917871 124 136 116
-0.11222718 -0.30345458 -0.6890654 119 136 116
-0.11258437 -0.30394399 -0.68901348 124 136 116
-0.11005947 -0.30472916 -0.68790972 133 134 119
-0.10999129 -0.30441269 -0.68800545 132 134 119
-0.11005317 -0.30299968 -0.688541 125 135 118
-0.10889734 -0.30339622 -0.68805432 137 132 121
-0.11089604 -0.30405477 -0.68840379 122 136 117
-0.12028989 -0.30776587 -0.69114566 133 143 114
-0.11957637 -0.30937225 -0.69029456 136 146 118
-0.12010615 -0.3079035 -0.69100195 134 144 114
-0.11966833 -0.31051701 -0.69003755 128 152 120
-0.12017705 -0.31029683 -0.69039381 118 153 118
-0.1198118 -0.30997214 -0.69026899 128 150 119
-0.11997069 -0.30878949 -0.69068259 132 146 116
-0.1162518 -0.30951598 -0.68866175 151 132 121
-0.11667714 -0.30978516 -0.68878651 149 134 121
-0.11555591 -0.30902424 -0.68847144 154 129 121
-0.11792945 -0.30988058 -0.68933994 143 142 121
-0.11587267 -0.30798218 -0.68889606 150 135 118
-0.11756126 -0.30956271 -0.68925464 145 140 121
-0.11634193 -0.30735803 -0.68928134 150 137 117
-0.1167664 -0.30787855 -0.68933821 147 139 118
-0.11818272 -0.30878443 -0.68975317 147 142 119
-0.11754848 -0.30681655 -0.6899913 157 135 117
-0.11911181 -0.30984935 -0.68989772 142 146 121
-0.11869263 -0.30808002 -0.69018227 152 139 118
-0.11496919 -0.30985618 -0.68800604 156 124 123
-0.11275461 -0.30710909 -0.6879639 139 135 116
-0.11243787 -0.30668458 -0.68796629 136 136 116
-0.11467246 -0.30733535 -0.68857622 149 132 118
-0.11394575 -0.30795342 -0.68815595 147 131 119
-0.12124009 -0.311021 -0.6908381 95 157 114
-0.12144829 -0.31284595 -0.69058317 91 147 116
-0.12161756 -0.31216013 -0.69082206 87 152 114
-0.12039502 -0.31087711 -0.69037908 112 153 118
-0.12104101 -0.31136459 -0.69065225 99 154 116
-0.11978524 -0.31173456 -0.68984365 118 149 118
-0.12013855 -0.31244785 -0.68989682 105 150 116
-0.11994317 -0.31202966 -0.68987256 113 150 118
-0.11626749 -0.31133193 -0.68822271 142 130 120
-0.11861579 -0.31077442 -0.6894297 138 146 121
-0.11880116 -0.3116191 -0.68933135 125 149 118
-0.092435494 -0.30636296 -0.68394655 123 137 119
-0.08895047 -0.30659461 -0.6835283 127 140 121
-0.088494971 -0.30560437 -0.68388206 130 138 121
-0.088086627 -0.30643752 -0.68352294 129 141 122
-0.087136053 -0.30558556 -0.68382901 130 136 122
-0.085295446 -0.30628714 -0.68351632 129 132 122
-0.084337302 -0.30554408 -0.68377364 117 135 116
-0.084799223 -0.3054513 -0.68382061 118 136 117
-0.083050653 -0.3065286 -0.6833415 122 130 120
-0.083975427 -0.30555239 -0.68376094 115 135 116
-0.079477042 -0.30497614 -0.68378854 96 130 118
-0.078743421 -0.30502754 -0.68374717 96 131 117
-0.10042311 -0.30978879 -0.68398106 134 135 119
-0.099303968 -0.30999041 -0.68372452 132 135 118
-0.099158578 -0.31046617 -0.68353909 133 135 117
-0.098757222 -0.30935559 -0.68386441 131 135 118
-0.095982194 -0.3084974 -0.68376648 126 135 119
-0.096776627 -0.31018761 -0.68327737 135 132 118
-0.097127855 -0.30951801 -0.68356836 132 134 118
-0.09374328 -0.30816427 -0.68351519 127 135 118
-0.095092751 -0.30982614 -0.68314737 134 132 118
-0.093022682 -0.30756468 -0.68360859 124 135 118
-0.094207875 -0.30821404 -0.68357557 126 135 118
-0.092167459 -0.30985692 -0.68275207 117 138 119
-0.094874337 -0.31001768 -0.68305343 133 132 118
-0.095247746 -0.31051296 -0.68294352 135 132 118
-0.093729921 -0.31053385 -0.68273908 125 135 118
-0.095077068 -0.31053305 -0.68291485 134 131 118
-0.094742969 -0.31002647 -0.68303347 132 132 118
-0.089305431 -0.30938801 -0.68261057 117 139 121
-0.088218912 -0.3094306 -0.68247074 117 138 122
-0.088925749 -0.30903232 -0.68269384 119 140 121
-0.088740215 -0.3078711 -0.68308669 124 141 121
-0.088372938 -0.30936852 -0.68251055 117 139 122
-0.09050072 -0.31021294 -0.68245351 114 139 120
-0.091233343 -0.30880669 -0.68299592 117 139 119
-0.090345122 -0.30798253 -0.68319029 121 140 120
-0.090272553 -0.3072421 -0.68342161 123 139 120
-0.090819255 -0.30812907 -0.68318045 119 140 119
-0.091307759 -0.31004336 -0.68260598 115 140 119
-0.091768377 -0.30816811 -0.68324202 117 138 119
-0.085908487 -0.3085784 -0.68269742 121 133 122
-0.085945986 -0.3089793 -0.68253899 119 133 121
-0.085163981 -0.30939543 -0.68232179 119 133 119
-0.085039504 -0.30769765 -0.6829949 125 131 122
-0.084520534 -0.30830035 -0.68271977 123 131 120
-0.087003104 -0.30981228 -0.68227273 115 136 122
-0.087310687 -0.30932003 -0.68246114 117 137 122
-0.086749449 -0.30715621 -0.68322176 126 137 122
-0.086352766 -0.30897322 -0.68256593 119 133 122
-0.0877252 -0.30801019 -0.68293643 123 140 122
-0.086533479 -0.30780458 -0.68298626 124 136 122
-0.083153598 -0.30803993 -0.68274361 119 131 118
-0.083959877 -0.30935478 -0.68226093 120 132 117
-0.08289323 -0.30773976 -0.68284959 118 131 118
-0.083283089 -0.30736867 -0.68302011 123 130 120
-0.10384822 -0.31278992 -0.68362784 158 127 121
-0.10424849 -0.31212154 -0.68392402 152 128 121
-0.10440176 -0.31257102 -0.68382227 155 128 120
-0.10159282 -0.31085405 -0.68382162 140 132 120
-0.10142814 -0.31136861 -0.68363398 144 131 120
-0.10315998 -0.31274009 -0.68350661 158 127 122
-0.10292935 -0.31152549 -0.68383831 149 129 122
-0.099665597 -0.31121123 -0.6833728 135 136 118
-0.099974833 -0.31114644 -0.68345255 137 134 118
-0.10009313 -0.31277016 -0.6829446 144 135 119
-0.10123143 -0.31336671 -0.68296558 154 131 120
-0.09992104 -0.31339291 -0.6827085 146 136 119
-0.099666886 -0.31434879 -0.68234801 149 138 120
-0.097885564 -0.31378496 -0.68221521 147 134 120
-0.095826901 -0.31433553 -0.68160975 152 127 121
-0.0990365 -0.31405163 -0.6823405 147 137 119
-0.096670717 -0.31433281 -0.68177515 151 130 121
-0.096955217 -0.31298351 -0.68233144 145 132 119
-0.096240424 -0.31086722 -0.6829682 139 131 118
-0.098675169 -0.31209537 -0.68293285 140 135 118
-0.09735205 -0.31086451 -0.68313611 137 133 118
-0.09839271 -0.31144214 -0.6831038 138 134 118
-0.099490069 -0.31164467 -0.68320256 137 135 118
-0.09868747 -0.31323043 -0.6825639 145 136 119
-0.092137761 -0.31301227 -0.68155622 108 140 116
-0.092502803 -0.31211951 -0.68196833 116 138 118
-0.092866912 -0.31233257 -0.68194067 121 137 118
-0.093511134 -0.31326288 -0.6816718 126 134 118
-0.092770547 -0.31301698 -0.6816535 117 137 117
-0.093678378 -0.31268087 -0.68192935 131 133 120
-0.092604637 -0.31058729 -0.68257332 118 138 118
-0.095627569 -0.31230843 -0.68232828 144 129 119
-0.094176374 -0.31276694 -0.68196899 136 132 120
-0.095451444 -0.31200671 -0.68241733 142 129 119
-0.095401354 -0.31285021 -0.68209767 145 129 120
-0.093003191 -0.31103659 -0.68245846 123 136 119
-0.090826303 -0.31427124 -0.68091583 109 140 115
-0.088495709 -0.31177142 -0.68163705 116 138 120
-0.090758942 -0.31387645 -0.68105471 106 141 115
-0.088988885 -0.31358668 -0.68101352 127 139 118
-0.088088483 -0.3120105 -0.68151569 124 138 121
-0.091342032 -0.31367272 -0.68118805 100 141 115
-0.088724114 -0.31060475 -0.68210763 112 139 121
-0.090884492 -0.31069633 -0.68231899 112 139 119
-0.088220999 -0.31087193 -0.68194371 110 138 121
-0.090209067 -0.31165612 -0.68185991 108 140 118
-0.088753194 -0.31118968 -0.68187839 109 138 120
-0.086874515 -0.31179869 -0.68151146 125 137 119
-0.086025678 -0.31089997 -0.68178594 117 136 118
-0.08620435 -0.31078929 -0.68183792 115 137 118
-0.086157158 -0.31081566 -0.68182528 116 136 118
-0.086761467 -0.31202719 -0.68142051 128 137 119
-0.083486147 -0.31091607 -0.6816358 117 133 116
-0.081751771 -0.31142631 -0.6813966 116 131 119
-0.082439758 -0.31180727 -0.681283 121 131 119
-0.081915319 -0.31125674 -0.68146253 115 131 118
-0.083123282 -0.31061116 -0.68173283 114 133 115
-0.10120764 -0.31617609 -0.68218309 158 138 121
-0.10055348 -0.31545502 -0.68223625 154 138 120
-0.099644251 -0.31556818 -0.68202126 151 138 119
-0.099637531 -0.31463623 -0.68226141 149 138 120
-0.10151293 -0.31566721 -0.68236721 159 135 121
-0.10096198 -0.31518155 -0.68238145 156 136 121
-0.098475292 -0.31466082 -0.68202823 150 135 120
-0.097682208 -0.31602779 -0.68151957 153 133 119
-0.097729571 -0.31573153 -0.68160558 153 133 119
-0.098250896 -0.31572172 -0.68170965 152 134 119
-0.091911994 -0.31553912 -0.6805737 122 139 115
-0.091865733 -0.31525004 -0.68066519 115 140 115
-0.092858009 -0.31512406 -0.68089658 119 137 116
-0.094740547 -0.31494978 -0.68124342 143 130 119
-0.093546614 -0.31554088 -0.68088049 132 135 117
-0.091702707 -0.31571466 -0.68048 127 139 116
-0.12507007 -0.3010062 -0.69627756 91 133 113
-0.1241167 -0.30041355 -0.69587672 85 135 113
-0.12525775 -0.30029082 -0.69663793 82 135 113
-0.12415639 -0.29921085 -0.69632113 72 139 112
-0.1265824 -0.30027258 -0.69745994 77 136 112
-0.12474536 -0.29996249 -0.69643223 80 136 113
-0.12575653 -0.30114573 -0.69665885 91 132 113
-0.12368439 -0.29902408 -0.6960929 72 139 113
-0.12751755 -0.30620947 -0.69629806 96 134 119
-0.12810348 -0.30554515 -0.69690448 94 134 118
-0.12900512 -0.304914 -0.69772834 90 133 117
-0.12705997 -0.30601484 -0.69602382 99 133 119
-0.12970111 -0.30573383 -0.69799906 85 136 118
-0.12690847 -0.30603793 -0.69591045 100 133 119
-0.12819664 -0.30727303 -0.6965403 88 135 119
-0.11627422 -0.29754189 -0.69312739 78 136 112
-0.11558332 -0.29873285 -0.6922937 90 136 114
-0.11547325 -0.29765773 -0.69272172 82 135 113
-0.11771958 -0.29837263 -0.6933983 78 139 112
-0.11811005 -0.29879579 -0.69338334 80 140 113
-0.1189219 -0.29858562 -0.69383478 76 139 113
-0.11374278 -0.29803777 -0.69192755 86 137 112
-0.11479971 -0.29772446 -0.69243848 83 136 112
-0.11518641 -0.29864618 -0.69216144 90 136 113
-0.12414454 -0.30106309 -0.69565469 89 134 114
-0.12410716 -0.30137116 -0.69551516 90 134 114
-0.1205481 -0.29947624 -0.69428241 79 139 113
-0.12259667 -0.30133983 -0.69460523 87 137 115
-0.12231971 -0.30058196 -0.69475037 83 138 114
-0.12260375 -0.29954582 -0.69527799 76 138 113
-0.12293572 -0.29995939 -0.69528872 78 138 114
-0.12195738 -0.30041283 -0.69463342 83 138 114
-0.12023833 -0.302385 -0.69283944 94 138 115
-0.1204678 -0.30202964 -0.69313455 92 138 115
-0.12082548 -0.30196935 -0.69336945 92 138 115
-0.12024906 -0.30253154 -0.69277889 95 138 115
-0.1199281 -0.29963553 -0.69391322 80 140 113
-0.11994672 -0.30122215 -0.69320059 88 139 114
-0.11959188 -0.30267763 -0.69233119 95 139 115
-0.11631635 -0.3000901 -0.69199872 93 137 114
-0.11682132 -0.30053744 -0.69201857 93 138 114
-0.1178392 -0.30047956 -0.69249618 90 139 114
-0.11732322 -0.30052775 -0.69224602 92 138 114
-0.11782644 -0.30028948 -0.69257718 89 139 114
-0.11688052 -0.29952094 -0.69250929 88 138 114
-0.11659247 -0.29886389 -0.69268149 86 138 114
-0.11768308 -0.29928595 -0.69297141 84 138 113
-0.12638463 -0.3060123 -0.69557464 98 134 119
-0.12647533 -0.30594936 -0.69565225 99 133 119
-0.12314773 -0.30566561 -0.69339478 113 136 119
-0.1245885 -0.30609062 -0.69427747 108 136 119
-0.12418405 -0.30495885 -0.69437015 102 136 118
-0.1239476 -0.30428532 -0.69442838 100 136 117
-0.12574306 -0.30603248 -0.69511896 101 135 119
-0.12443491 -0.30495304 -0.69455069 102 136 118
-0.12532586 -0.3061488 -0.69478279 104 135 119
-0.12080926 -0.30456331 -0.69239968 110 137 117
-0.12110515 -0.30501008 -0.6924243 114 137 118
-0.12050797 -0.30519652 -0.69203246 124 136 117
-0.12020164 -0.30444029 -0.69209933 114 138 116
-0.12227202 -0.30388328 -0.69347304 103 137 117
-0.12246865 -0.3043938 -0.69341546 106 137 118
-0.12068033 -0.3037591 -0.69259191 102 138 117
-0.12240495 -0.3027761 -0.69392252 95 137 116
-0.11964032 -0.30276936 -0.69232172 96 138 116
-0.12124106 -0.30328745 -0.69307566 99 138 116
-0.1204751 -0.30354586 -0.69254458 101 138 116
-0.12416603 -0.30770352 -0.6935069 104 137 119
-0.12453836 -0.30768442 -0.69377679 102 137 119
-0.12467081 -0.30753177 -0.69391173 103 137 119
-0.1250511 -0.30801415 -0.69405329 97 137 118
-0.12544785 -0.30787948 -0.69437146 96 137 118
-0.1246524 -0.30773577 -0.69384414 101 138 119
-0.12463781 -0.30952597 -0.69336528 75 149 114
-0.12570466 -0.30969441 -0.69407207 74 143 116
-0.12474509 -0.30885044 -0.69361609 87 142 116
-0.098098263 -0.29860905 -0.68777806 139 130 117
-0.095750235 -0.29835427 -0.68751585 130 130 113
-0.095334664 -0.29854339 -0.68738401 134 131 114
-0.095644936 -0.29774877 -0.68775499 116 130 112
-0.093931735 -0.29784179 -0.68750846 120 132 112
-0.093699627 -0.297077 -0.68780977 111 130 113
-0.094748266 -0.29769036 -0.68767047 115 132 112
-0.093199529 -0.29697326 -0.68779504 111 130 113
-0.091565676 -0.29653439 -0.68778825 111 128 116
-0.091336221 -0.29881895 -0.68677694 139 137 113
-0.091138139 -0.29737967 -0.68737096 122 130 116
-0.091399699 -0.29720315 -0.68747979 119 131 115
-0.088147312 -0.29819649 -0.68664765 138 128 122
-0.088766381 -0.29668534 -0.68738455 114 128 116
-0.089415081 -0.29766381 -0.68703383 129 128 120
-0.089329861 -0.29583529 -0.68782496 100 128 112
-0.088545263 -0.29579481 -0.68774813 99 129 111
-0.086156957 -0.29616809 -0.68734509 102 134 109
-0.085762583 -0.29588968 -0.68743062 97 135 108
-0.087420642 -0.29823631 -0.68655574 138 129 122
-0.086164691 -0.2956326 -0.68758053 93 134 107
-0.087765887 -0.29595241 -0.68758869 101 129 112
-0.086610466 -0.29546562 -0.68769503 91 133 107
-0.085438401 -0.29675147 -0.68704021 108 135 111
-0.085789859 -0.2972087 -0.68687725 115 133 113
-0.085147865 -0.29737404 -0.68678248 112 133 112
-0.085473403 -0.29870039 -0.68627745 128 128 118
-0.085481353 -0.29857996 -0.68632501 127 129 118
-0.08170186 -0.29716349 -0.6866433 96 130 112
-0.080538712 -0.29782662 -0.68640959 79 136 107
-0.080852851 -0.29731223 -0.68657947 85 133 109
-0.082216039 -0.29754117 -0.68653309 102 130 112
-0.083350435 -0.29837272 -0.68629056 113 128 114
-0.083514825 -0.29753879 -0.68661982 105 131 111
-0.082787283 -0.29632092 -0.68702954 95 133 109
-0.083807655 -0.29592016 -0.68728203 88 138 104
-0.082820624 -0.29666594 -0.68689728 98 132 110
-0.082385764 -0.29701421 -0.68672001 103 129 113
-0.10692442 -0.30250061 -0.68785244 147 130 124
-0.10503602 -0.30203769 -0.68763566 146 133 120
-0.10393997 -0.30142322 -0.68766481 147 134 118
-0.10099902 -0.30229869 -0.68676668 156 135 121
-0.10099447 -0.30266321 -0.68660259 156 136 121
-0.10238808 -0.30220217 -0.68703645 151 136 118
-0.1015672 -0.29988962 -0.68785906 147 132 118
-0.099868044 -0.30125356 -0.68699181 155 134 121
-0.10241201 -0.30113617 -0.68751192 151 134 119
-0.10079373 -0.29980195 -0.68775082 148 132 118
-0.099828802 -0.29977334 -0.68758309 150 131 120
-0.098691285 -0.30033416 -0.6871711 151 132 120
-0.096893229 -0.29970944 -0.68714076 146 131 117
-0.099112816 -0.29953536 -0.68756044 149 131 119
-0.096581846 -0.2992366 -0.68728304 144 131 116
-0.098799445 -0.29902092 -0.68771923 146 130 118
-0.099366114 -0.29956791 -0.68758714 149 131 119
-0.096645407 -0.30252165 -0.68603325 121 149 112
-0.099037804 -0.30244482 -0.68637913 156 137 122
-0.095728964 -0.30090895 -0.68652385 122 143 111
-0.095705234 -0.30169317 -0.68622315 115 149 110
-0.096313171 -0.30223277 -0.68609887 119 149 111
-0.0966525 -0.30037525 -0.68684864 140 135 115
-0.092083968 -0.29995146 -0.68641382 141 137 114
-0.093137212 -0.30208015 -0.68570173 140 140 115
-0.092480309 -0.30068195 -0.68617481 140 139 114
-0.092547119 -0.30159873 -0.6858086 145 138 116
-0.093656123 -0.30141398 -0.68605506 128 145 112
-0.092826046 -0.29966322 -0.68664032 131 141 111
-0.093963854 -0.3008458 -0.68633115 121 147 110
-0.095347621 -0.30030811 -0.68670481 127 140 112
-0.095078744 -0.30107525 -0.68638074 120 146 110
-0.094234854 -0.29925439 -0.68696815 136 136 113
-0.089673765 -0.30193418 -0.68537188 150 130 122
-0.089815937 -0.30176035 -0.6854412 152 130 122
-0.08865723 -0.30145922 -0.68547326 144 130 122
-0.08827322 -0.3015888 -0.68540412 140 130 122
-0.088936552 -0.30063814 -0.68577623 149 129 123
-0.088613227 -0.29998124 -0.68598431 149 128 124
-0.090356484 -0.30027393 -0.6860562 152 131 120
-0.090305716 -0.30097732 -0.68576086 156 130 122
-0.090853319 -0.3004846 -0.68603206 152 133 119
-0.090965688 -0.30002171 -0.68623626 148 134 117
-0.091406964 -0.29950908 -0.68650228 143 136 115
-0.091001108 -0.29892188 -0.68669242 140 136 115
-0.084556662 -0.30215195 -0.68503678 91 146 104
-0.085730091 -0.30191684 -0.68516922 110 138 112
-0.085035667 -0.30192709 -0.68513525 100 142 108
-0.087452538 -0.30264026 -0.68499511 128 133 119
-0.084878281 -0.29988569 -0.68583238 120 130 115
-0.087190382 -0.29886812 -0.68629336 142 128 123
-0.087883592 -0.30039856 -0.68579358 142 129 124
-0.08723639 -0.30189165 -0.68524438 131 131 120
-0.087092176 -0.30107 -0.68552333 133 130 121
-0.085434698 -0.30011356 -0.68577862 124 129 118
-0.082781285 -0.29957691 -0.68587637 95 136 109
-0.082778357 -0.30013067 -0.68568534 89 140 106
-0.083841272 -0.29948527 -0.68592858 109 133 112
-0.10916976 -0.30429369 -0.68780553 138 133 120
-0.10885465 -0.30424592 -0.68772793 140 132 121
-0.10935876 -0.30622298 -0.68711519 141 135 119
-0.10849243 -0.30430254 -0.68758893 143 132 122
-0.10800897 -0.30444607 -0.68737686 146 131 122
-0.10871355 -0.30518335 -0.68731487 143 133 121
-0.1098406 -0.30621335 -0.68727422 138 135 118
-0.10441693 -0.30563512 -0.68609482 152 132 121
-0.10388121 -0.30349013 -0.68677688 147 137 117
-0.10390304 -0.30592057 -0.6858868 152 131 122
-0.10560978 -0.30527353 -0.68646699 151 135 119
-0.1047236 -0.30555245 -0.68618673 151 133 120
-0.10655113 -0.30585018 -0.68644345 152 135 120
-0.10585003 -0.30342838 -0.68723381 147 134 120
-0.10613528 -0.30409908 -0.68703485 148 134 120
-0.10668886 -0.30491248 -0.68684018 150 134 120
-0.10697396 -0.30384395 -0.68732315 148 132 123
-0.10566144 -0.30359781 -0.68712497 148 135 120
-0.10636244 -0.30387878 -0.68717223 148 133 121
-0.10024283 -0.30455312 -0.6857779 149 136 122
-0.10238191 -0.30634761 -0.68546647 147 132 122
-0.10016028 -0.30575919 -0.68531948 136 137 120
-0.099672206 -0.30584508 -0.6852079 131 139 119
-0.10043592 -0.30640209 -0.68512762 131 137 119
-0.10012456 -0.30457631 -0.68574995 148 136 122
-0.10139806 -0.30313927 -0.68648756 156 136 121
-0.10332903 -0.30350497 -0.68666774 148 136 118
-0.10259324 -0.30415708 -0.68630779 152 135 120
-0.10298803 -0.30423713 -0.68634266 151 135 120
-0.1003537 -0.30303228 -0.68635666 159 135 123
-0.10130432 -0.30416277 -0.68609554 157 134 123
-0.096692242 -0.30401164 -0.68548822 111 151 111
-0.096123844 -0.30528119 -0.68494803 113 145 116
-0.09610112 -0.30423856 -0.68532771 110 149 112
-0.097272731 -0.30530885 -0.68508786 115 145 115
-0.096749842 -0.30645856 -0.68459767 117 140 119
-0.099203818 -0.3065109 -0.68489879 121 141 117
-0.098070957 -0.30344591 -0.68587881 133 144 116
-0.09710145 -0.30388254 -0.68558949 114 150 112
-0.099150725 -0.30572259 -0.68518209 126 141 117
-0.099246986 -0.30412716 -0.68578327 143 139 120
-0.098159075 -0.3040536 -0.68566632 128 145 116
-0.096601687 -0.30315655 -0.68579108 115 152 111
-0.092049465 -0.30381468 -0.68485624 153 133 121
-0.092325225 -0.30445975 -0.68465638 145 134 121
-0.0944997 -0.306247 -0.68434119 121 138 120
-0.093587063 -0.30538288 -0.6845172 133 136 121
-0.093528181 -0.3049455 -0.68467438 138 136 120
-0.092827462 -0.30536935 -0.684394 134 136 120
-0.092495985 -0.30323365 -0.68515116 156 133 121
-0.094767906 -0.30389786 -0.68525696 123 145 115
-0.094480999 -0.30400667 -0.68517286 128 143 116
-0.093923651 -0.3032918 -0.68534946 134 142 116
-0.094133638 -0.3037653 -0.68520796 133 141 117
-0.095080815 -0.3056486 -0.68466252 123 139 120
-0.088712566 -0.30388296 -0.68458551 131 133 121
-0.088303603 -0.30513743 -0.68405259 130 137 121
-0.087989271 -0.30364144 -0.6846267 131 134 121
-0.090894215 -0.30559623 -0.68406749 130 136 120
-0.090283051 -0.30307969 -0.68499959 149 131 121
-0.090523519 -0.30365768 -0.68479317 145 132 121
-0.089887604 -0.30292532 -0.68503392 147 131 121
-0.090573147 -0.30312872 -0.68499899 150 132 121
-0.090885594 -0.30314669 -0.68501168 153 132 121
-0.084708355 -0.30474311 -0.6840837 108 140 112
-0.086330719 -0.30482188 -0.68409574 117 140 116
-0.085491851 -0.30431822 -0.68426132 106 143 111
-0.084377959 -0.30288988 -0.68476588 83 151 101
-0.087564275 -0.30485773 -0.68411851 126 138 120
-0.08628276 -0.30404252 -0.6843884 109 143 112
-0.081630364 -0.30412641 -0.68421227 96 134 116
-0.082346365 -0.30457273 -0.68406701 100 136 115
-0.083424494 -0.30419287 -0.68425286 98 141 110
-0.082421288 -0.30405927 -0.68427265 98 136 115
-0.082248211 -0.30393994 -0.68431181 97 135 116
-0.08330477 -0.30374271 -0.68441641 92 143 108
-0.11334749 -0.30843633 -0.68781626 144 130 120
-0.11152311 -0.30872914 -0.68703306 128 137 118
-0.11175907 -0.31015983 -0.68669361 128 136 120
-0.11187118 -0.30935189 -0.68697989 130 135 120
-0.11213636 -0.30924761 -0.68711346 133 134 119
-0.11260631 -0.30852118 -0.68751311 138 132 119
-0.10797417 -0.30933264 -0.68563557 125 146 115
-0.10912552 -0.31053048 -0.68564504 116 147 115
-0.10921265 -0.30906489 -0.68615735 133 139 119
-0.10838194 -0.31028107 -0.68546665 116 149 113
-0.10930272 -0.30874255 -0.68629485 137 137 119
-0.10887602 -0.30874196 -0.6861456 135 139 119
-0.1092068 -0.30711892 -0.68675852 142 135 119
-0.11010643 -0.3075701 -0.68691278 136 136 118
-0.11126208 -0.30808395 -0.68713069 127 137 117
-0.10900924 -0.30688307 -0.68676579 144 135 119
-0.1100206 -0.30687618 -0.68709385 137 135 118
-0.10996731 -0.30813348 -0.6866985 136 136 119
-0.10645823 -0.31015259 -0.68497699 119 148 113
-0.10440212 -0.30904362 -0.68492526 138 135 120
-0.10354484 -0.31031761 -0.68432534 142 131 122
-0.10361956 -0.30678114 -0.68551856 152 130 123
-0.10618162 -0.31021228 -0.6849004 120 147 114
-0.10387469 -0.3079809 -0.68517119 146 131 122
-0.1041514 -0.30671063 -0.6856485 152 130 123
-0.10655268 -0.30719668 -0.68597007 147 136 120
-0.10637458 -0.30783552 -0.68572438 140 139 118
-0.10482685 -0.30792734 -0.68538392 138 138 119
-0.10702563 -0.30848327 -0.68564194 133 143 116
-0.09983018 -0.30946854 -0.68398809 132 136 118
-0.099648133 -0.30828339 -0.68435675 128 138 118
-0.10110762 -0.30949867 -0.68419558 134 134 119
-0.10141436 -0.30956399 -0.68422538 135 134 120
-0.10078302 -0.30817419 -0.68458539 129 137 119
-0.10066294 -0.30805588 -0.68460512 128 137 118
-0.10344636 -0.31006977 -0.6843906 142 131 122
-0.10162087 -0.30692443 -0.68513918 138 134 120
-0.10318486 -0.30744204 -0.68522298 149 130 123
-0.10312325 -0.30818725 -0.68496466 146 131 122
-0.10007932 -0.30674145 -0.68494755 126 139 118
-0.10282386 -0.30862623 -0.68476939 141 132 121
-0.09694171 -0.30780673 -0.68415534 122 138 119
-0.09769915 -0.30832464 -0.68407989 125 137 119
-0.099584624 -0.30830839 -0.68433851 128 138 118
-0.099554472 -0.30867553 -0.68421078 129 137 118
-0.099259898 -0.30771416 -0.68449646 125 139 118
-0.099372506 -0.3086516 -0.68419504 128 137 118
-0.09540607 -0.30703986 -0.68419975 118 138 120
-0.11575986 -0.31227612 -0.68773115 146 128 120
-0.11648646 -0.31442678 -0.68753827 128 136 114
-0.11607733 -0.31394735 -0.68745548 137 132 117
-0.11455306 -0.31216648 -0.68722981 151 127 121
-0.11467467 -0.3109183 -0.68760318 153 125 123
-0.11258797 -0.31172374 -0.68658864 134 134 120
-0.11398805 -0.31180385 -0.68710703 146 128 121
-0.1148846 -0.31088948 -0.68769169 155 124 123
-0.11271883 -0.31177336 -0.68662602 134 134 120
-0.11220873 -0.31149718 -0.68649888 131 136 120
-0.11222697 -0.31244728 -0.68621892 136 136 118
-0.11224016 -0.31220594 -0.68629766 135 136 119
-0.11325577 -0.31348267 -0.68634415 144 132 118
-0.11204614 -0.31289428 -0.68600637 138 137 116
-0.11154106 -0.31175351 -0.68613648 131 138 118
-0.10817232 -0.3126252 -0.68470705 133 143 112
-0.10892403 -0.31259665 -0.68496096 130 144 112
-0.10833199 -0.31199542 -0.68493545 125 147 111
-0.10971503 -0.31197351 -0.68541402 126 145 113
-0.11035868 -0.31306097 -0.68531013 133 143 113
-0.1089182 -0.31174675 -0.68520361 121 148 111
-0.11093084 -0.31064364 -0.68624264 123 140 119
-0.11107709 -0.3126536 -0.68568516 134 140 115
-0.11024327 -0.31183857 -0.68563992 126 143 114
-0.10561606 -0.3111608 -0.68450105 132 139 116
-0.10438898 -0.31106928 -0.68427545 141 133 120
-0.10632402 -0.31138057 -0.68458444 129 142 114
-0.10469337 -0.31096685 -0.68436641 137 135 119
-0.1025088 -0.3106274 -0.68405211 140 131 121
-0.11611915 -0.3155762 -0.68714482 136 133 116
-0.11582356 -0.31551388 -0.68699592 144 132 118
0 0 0 1 0 0 0 1 0 0 0 1 0 0 0 0 0 610 1 0 0
