ply
format ascii 1.0
comment PCL generated
element vertex 651
property float x
property float y
property float z
property uchar red
property uchar green
property uchar blue
element camera 1
property float view_px
property float view_py
property float view_pz
property float x_axisx
property float x_axisy
property float x_axisz
property float y_axisx
property float y_axisy
property float y_axisz
property float z_axisx
property float z_axisy
property float z_axisz
property float focal
property float scalex
property float scaley
property float centerx
property float centery
property int viewportx
property int viewporty
property float k1
property float k2
end_header
-0.18961564 -0.61118132 -0.75611895 50 138 118
-0.19012159 -0.61060977 -0.75629097 47 138 119
-0.18840194 -0.60903245 -0.75480843 52 139 118
-0.18894672 -0.60915864 -0.7551809 46 139 118
-0.18895587 -0.60956573 -0.75529134 48 139 118
-0.18780361 -0.61013603 -0.75471896 63 137 119
-0.18716204 -0.61072487 -0.75447011 73 135 120
-0.18768372 -0.6098702 -0.75457591 63 137 119
-0.18782704 -0.60867172 -0.75438112 54 138 117
-0.19198453 -0.61235917 -0.7577399 53 139 112
-0.19157869 -0.61234373 -0.75749755 55 138 114
-0.19083187 -0.61228532 -0.75704604 58 138 116
-0.18671821 -0.61181092 -0.75453556 75 136 120
-0.18773666 -0.61145002 -0.75503117 68 136 119
-0.18735921 -0.61264169 -0.75525284 60 139 120
-0.18670879 -0.61405373 -0.75537997 54 142 119
-0.18725216 -0.61270779 -0.75521141 61 138 119
-0.18812585 -0.61197293 -0.75547618 58 138 119
-0.18909389 -0.61270452 -0.75624597 51 139 118
-0.18715636 -0.61504591 -0.75588477 53 143 117
-0.1891381 -0.61186916 -0.75604022 51 138 119
-0.18856162 -0.61424506 -0.75639236 51 141 117
-0.18740076 -0.61445463 -0.75584936 53 142 118
-0.18929724 -0.61181778 -0.75610846 50 139 118
-0.18506578 -0.61430484 -0.75449771 63 140 119
-0.18942377 -0.61638606 -0.75752503 52 146 112
-0.18852343 -0.61801815 -0.7576738 55 149 108
-0.18774062 -0.61836791 -0.75741816 54 147 108
-0.18801294 -0.61769605 -0.7573089 53 146 110
-0.18633296 -0.61902583 -0.75696874 51 145 108
-0.18769109 -0.61846727 -0.75742978 54 148 108
-0.18613559 -0.61636275 -0.75584841 52 143 115
-0.18631479 -0.61572737 -0.75569344 53 144 116
-0.18765803 -0.61633229 -0.75662386 50 142 113
-0.18593745 -0.61650598 -0.75580174 52 142 115
-0.18784507 -0.61620516 -0.75667107 50 142 114
-0.1891486 -0.61536753 -0.75701863 50 142 115
-0.18631348 -0.61528373 -0.75551975 54 143 118
-0.18407692 -0.61558914 -0.75447047 57 142 117
-0.18450637 -0.61523765 -0.7545476 55 144 117
-0.18254958 -0.61796999 -0.7546972 63 137 119
-0.18312521 -0.61755133 -0.7548238 61 139 119
-0.18516237 -0.61851215 -0.75619501 51 142 111
-0.18510973 -0.61847699 -0.75615567 51 142 111
-0.18446371 -0.61874276 -0.75594538 54 140 113
-0.18533422 -0.61620331 -0.75537843 54 143 116
-0.18393661 -0.6171869 -0.75508273 59 140 118
-0.18551244 -0.61717862 -0.75584525 52 143 114
-0.18163601 -0.6188308 -0.75458658 65 136 119
-0.18820995 -0.61950696 -0.75810272 61 153 105
-0.18743141 -0.6195845 -0.75776064 59 150 106
-0.18603724 -0.62117815 -0.75785244 72 147 108
-0.18667889 -0.62059057 -0.75788081 68 149 107
-0.188595 -0.61931229 -0.75819623 61 153 105
-0.18541421 -0.62158394 -0.75774449 74 146 108
-0.18421583 -0.62285453 -0.75778633 80 146 109
-0.18218982 -0.62293208 -0.75687325 68 145 110
-0.18487042 -0.62152523 -0.75745493 70 146 108
-0.18505768 -0.62111104 -0.75734383 66 145 108
-0.18277447 -0.62213743 -0.75676578 63 144 109
-0.18197487 -0.62056267 -0.75559807 64 139 115
-0.1822353 -0.62098372 -0.755934 63 141 113
-0.18217652 -0.62180841 -0.75631541 63 143 111
-0.1819399 -0.62176806 -0.75618041 64 142 112
-0.18289413 -0.61929703 -0.7554155 60 138 116
-0.1844012 -0.62016499 -0.75657934 53 143 109
-0.1821588 -0.62079287 -0.75580186 63 140 114
-0.17916593 -0.6215533 -0.7552492 101 138 118
-0.17810237 -0.6210748 -0.75467294 105 136 117
-0.17947027 -0.6202684 -0.75466359 89 137 118
-0.17927083 -0.62093437 -0.75495446 95 137 118
-0.18139191 -0.6213333 -0.75575083 69 140 114
-0.17890105 -0.62297839 -0.75588721 106 140 116
-0.17981088 -0.62259525 -0.75594568 93 140 115
-0.18054584 -0.62125337 -0.75547957 82 139 116
-0.18091084 -0.62042034 -0.75516528 76 137 118
-0.18119356 -0.62280023 -0.75642592 73 142 112
-0.1741333 -0.62290668 -0.75443316 125 133 122
-0.17762251 -0.62154132 -0.7547732 110 136 117
-0.1771079 -0.62137669 -0.75452977 109 136 118
-0.17636344 -0.62200087 -0.75463283 116 135 119
-0.17664629 -0.62264651 -0.75505966 121 136 119
-0.18173417 -0.62472111 -0.75760651 79 145 106
-0.18322547 -0.6234082 -0.75760663 79 146 108
-0.18270309 -0.62379032 -0.7575652 79 146 108
-0.18353753 -0.62320781 -0.75764632 79 146 109
-0.18155977 -0.62330467 -0.75678557 68 145 110
-0.18089202 -0.62431055 -0.75713342 72 144 109
-0.17892706 -0.62589574 -0.75741565 78 143 112
-0.17897858 -0.62583077 -0.75739563 78 143 112
-0.18011224 -0.62477261 -0.75715554 74 143 111
-0.17783843 -0.62308884 -0.75565237 121 139 118
-0.17830995 -0.62546903 -0.75702202 89 142 114
-0.17973098 -0.62430686 -0.75680506 81 142 112
-0.1779014 -0.62476605 -0.75654387 103 140 115
-0.17970899 -0.62358403 -0.75642228 89 142 113
-0.17902413 -0.6241188 -0.75651366 94 141 114
-0.17543666 -0.6267733 -0.75696599 74 140 113
-0.17400926 -0.62341994 -0.75467622 121 134 121
-0.1742858 -0.62396419 -0.75505894 114 134 120
-0.17510264 -0.62550122 -0.7561487 93 137 116
-0.17587203 -0.62552583 -0.7563532 97 138 117
-0.17531779 -0.62472594 -0.75575411 107 136 118
-0.1769194 -0.62548435 -0.75662512 99 139 116
-0.17643096 -0.62471718 -0.75607693 107 138 117
-0.17411764 -0.62310559 -0.75453448 125 134 121
-0.17613749 -0.6242364 -0.75573719 112 137 117
-0.17659482 -0.62377727 -0.75563675 116 138 118
-0.17759877 -0.62477994 -0.75646424 105 140 116
-0.17059779 -0.62505674 -0.75460631 82 138 117
-0.17032705 -0.62506682 -0.75451368 79 139 117
-0.17174624 -0.62505203 -0.75502533 93 137 118
-0.17301424 -0.62593293 -0.75587159 79 137 115
-0.17300098 -0.62389392 -0.75469047 113 134 120
-0.17270532 -0.62471819 -0.75508976 100 135 118
-0.17214607 -0.62575644 -0.7555443 83 137 116
-0.16631554 -0.62639737 -0.75459135 66 136 116
-0.16720325 -0.62607956 -0.75454372 69 136 116
-0.16579279 -0.62632871 -0.75443381 66 136 116
-0.17809348 -0.62742907 -0.75797653 94 140 113
-0.1763 -0.62803197 -0.75788063 80 140 110
-0.17491402 -0.62728566 -0.75712621 69 139 111
-0.17583422 -0.62745214 -0.75744665 74 140 111
-0.17637299 -0.627599 -0.75766182 78 140 111
-0.17401613 -0.62762535 -0.75709373 65 139 109
-0.17314567 -0.62898225 -0.75768328 65 139 106
-0.17364794 -0.62864476 -0.75758404 66 139 106
-0.1847863 -0.5993703 -0.75061804 61 138 114
-0.18761158 -0.60339195 -0.75273412 46 141 118
-0.18743506 -0.60211855 -0.75246984 46 140 118
-0.18476918 -0.60265267 -0.75102115 61 141 115
-0.1845738 -0.60131639 -0.75077021 61 140 114
-0.18434989 -0.60323173 -0.75090349 63 140 115
-0.18504056 -0.60276264 -0.75115651 60 141 115
-0.18377185 -0.60211235 -0.75050783 66 139 114
-0.18492135 -0.60054743 -0.75083262 61 139 115
-0.1847939 -0.60075861 -0.75080115 61 140 115
-0.18707447 -0.606103 -0.75313866 55 137 117
-0.18668406 -0.60614794 -0.7529003 59 137 117
-0.18718646 -0.60536569 -0.75299525 54 138 117
-0.18676402 -0.60443795 -0.75247985 54 140 117
-0.18740429 -0.6037122 -0.75267535 47 141 118
-0.18722068 -0.60389453 -0.75261217 48 141 117
-0.18502419 -0.60381079 -0.75132036 62 141 115
-0.18323806 -0.60475069 -0.75077057 74 138 114
-0.1846586 -0.60433298 -0.75129259 64 141 115
-0.18385004 -0.60506928 -0.75112379 70 139 114
-0.18524072 -0.60621208 -0.75207549 67 138 114
-0.18461685 -0.60664821 -0.75190777 71 137 114
-0.18549085 -0.60569102 -0.7520476 65 138 115
-0.18465954 -0.60495621 -0.7514627 66 140 114
-0.18518557 -0.6051268 -0.75175196 65 139 115
-0.18436669 -0.60631669 -0.75170141 71 137 114
-0.18158139 -0.60742033 -0.75072384 85 135 112
-0.18678673 -0.60801601 -0.75352848 60 137 115
-0.18697248 -0.60929269 -0.75398678 65 136 117
-0.18696088 -0.60810316 -0.753667 59 137 116
-0.18660024 -0.61058438 -0.75407821 77 135 120
-0.18752104 -0.60908562 -0.7542969 59 137 117
-0.18575948 -0.61033332 -0.75345188 80 134 118
-0.18558162 -0.60899365 -0.75298297 76 135 116
-0.18175469 -0.60964584 -0.75125843 93 137 116
-0.181868 -0.60923404 -0.75123394 92 136 115
-0.18175927 -0.60803163 -0.75093389 88 136 113
-0.18464988 -0.61110657 -0.75305897 88 134 118
-0.18226428 -0.6089806 -0.75138855 89 135 115
-0.18324174 -0.60936719 -0.75197482 86 135 116
-0.18423297 -0.61021984 -0.75266266 86 134 117
-0.18501338 -0.60783875 -0.75241202 73 135 115
-0.18481432 -0.6087023 -0.75254601 78 135 116
-0.18401046 -0.60877699 -0.75219512 82 134 116
-0.18417609 -0.60778522 -0.75201219 77 135 114
-0.18490523 -0.6103127 -0.7530089 84 134 117
-0.18267833 -0.60827053 -0.75144881 85 135 114
-0.18079858 -0.61071897 -0.75110805 93 138 117
-0.17932461 -0.61115456 -0.75065619 87 139 118
-0.17929859 -0.61129826 -0.75067574 87 139 118
-0.1811941 -0.61020219 -0.75114828 93 138 116
-0.18013018 -0.61087626 -0.75089502 90 139 117
-0.18100142 -0.60767829 -0.75054532 84 136 113
-0.18558115 -0.61290294 -0.754246 76 137 120
-0.18503 -0.61275601 -0.75385547 75 137 119
-0.18355496 -0.61506134 -0.75397575 59 143 116
-0.18405657 -0.6128518 -0.75338185 77 136 117
-0.18283513 -0.61490011 -0.7535373 63 141 115
-0.18196444 -0.61515415 -0.75318098 63 142 113
-0.18360604 -0.6121406 -0.7528739 85 137 117
-0.18221159 -0.61294448 -0.75245857 83 140 116
-0.18250048 -0.61158705 -0.7520864 94 137 118
-0.18331784 -0.61263508 -0.75291443 82 138 117
-0.18391995 -0.61235821 -0.75312084 82 136 118
-0.18308423 -0.61338329 -0.7530809 76 139 116
-0.18383656 -0.61282581 -0.75325739 78 137 116
-0.17834562 -0.61155438 -0.75042439 82 138 117
-0.18086979 -0.61165696 -0.75138783 94 140 117
-0.17924668 -0.61246425 -0.75111228 81 139 116
-0.18005161 -0.61209643 -0.75126159 87 139 117
-0.17886052 -0.61211503 -0.75083572 80 139 117
-0.18083806 -0.61187923 -0.75146288 92 139 117
-0.18136047 -0.61174339 -0.75159925 96 139 118
-0.1805476 -0.61474812 -0.75246394 67 141 114
-0.18013474 -0.613581 -0.75186682 77 140 116
-0.18013547 -0.61287165 -0.75159413 84 139 117
-0.18116367 -0.61498415 -0.75277573 65 142 113
-0.18051469 -0.61498964 -0.75254512 64 142 113
-0.17765923 -0.61450762 -0.75133115 62 139 115
-0.1758779 -0.61520094 -0.75094235 60 139 116
-0.176506 -0.61320609 -0.75039703 70 139 116
-0.17596759 -0.6137805 -0.75042176 68 138 116
-0.18304689 -0.61533219 -0.75381893 59 143 115
-0.18244894 -0.61641675 -0.75396687 62 140 117
-0.18287286 -0.61546677 -0.75378519 60 142 115
-0.18156004 -0.61674887 -0.75366086 66 139 116
-0.17987803 -0.61847365 -0.75383615 78 135 117
-0.17936344 -0.61845541 -0.75364131 81 136 116
-0.18073508 -0.61749417 -0.75371403 72 138 116
-0.18102542 -0.61676544 -0.75349706 69 139 115
-0.17885877 -0.61913896 -0.75376046 85 135 117
-0.1785327 -0.61657131 -0.75251406 71 138 115
-0.17914867 -0.6159963 -0.75248313 66 140 114
-0.18026686 -0.6160289 -0.75289834 69 140 114
-0.17940077 -0.61665654 -0.75286263 73 140 115
-0.17891802 -0.61622137 -0.75249898 68 140 114
-0.17814802 -0.61623448 -0.75222862 67 140 115
-0.17552468 -0.61690485 -0.7516821 76 137 115
-0.1751108 -0.61754376 -0.75185549 82 136 115
-0.17416559 -0.61689728 -0.75117975 78 136 116
-0.17755225 -0.61528438 -0.75160092 58 140 115
-0.17532313 -0.61600071 -0.75114799 68 138 116
-0.17496759 -0.61693513 -0.75149316 77 136 116
-0.17547795 -0.61836553 -0.75234628 88 136 115
-0.17600779 -0.61748421 -0.75211698 80 136 115
-0.17757106 -0.61726838 -0.75248474 76 138 116
-0.17658231 -0.61710107 -0.75211912 76 138 115
-0.17708078 -0.61644101 -0.75197744 69 138 115
-0.17588361 -0.61762136 -0.75214034 82 136 115
-0.1705489 -0.61846513 -0.75105816 75 139 114
-0.17127854 -0.61834073 -0.75118113 79 139 114
-0.17372636 -0.61871523 -0.75195742 94 134 116
-0.17347322 -0.61669075 -0.75086755 75 136 117
-0.17156513 -0.61776346 -0.75096601 77 139 114
-0.17368002 -0.61713654 -0.75114298 79 136 116
-0.17376432 -0.61798483 -0.75159454 87 135 116
-0.17367023 -0.61613995 -0.75063342 71 137 117
-0.16914237 -0.61820978 -0.75060433 69 141 113
-0.16933344 -0.61794138 -0.75051987 68 141 113
-0.17917737 -0.6196776 -0.75423032 87 135 118
-0.17810421 -0.61939615 -0.75365543 91 135 117
-0.17657138 -0.62044454 -0.75377005 103 135 118
-0.17703435 -0.62009168 -0.75371343 100 135 117
-0.17403781 -0.62261075 -0.75423646 123 133 122
-0.17680638 -0.61929554 -0.75316674 94 135 116
-0.17428996 -0.62109852 -0.75344962 111 133 119
-0.17426448 -0.62006086 -0.75285101 103 134 117
-0.17415185 -0.62120539 -0.75346971 112 133 119
-0.17423351 -0.62127513 -0.75353354 112 133 119
-0.17374906 -0.62230057 -0.7539674 120 133 121
-0.17242391 -0.62255883 -0.75364411 109 135 120
-0.17321771 -0.6210131 -0.75304562 106 134 118
-0.17106621 -0.62302071 -0.75343114 99 138 119
-0.1735025 -0.62285918 -0.75419146 123 133 121
-0.17301579 -0.62146384 -0.75323051 107 134 118
-0.17241052 -0.62091285 -0.75270659 96 136 116
-0.17108925 -0.61961198 -0.75173414 82 138 114
-0.17008886 -0.62231165 -0.75274444 85 141 117
-0.17114468 -0.62169963 -0.75272238 90 138 117
-0.17301236 -0.61977333 -0.75228953 94 136 116
-0.17260177 -0.61951184 -0.75206494 91 136 115
-0.17043827 -0.62117153 -0.75229961 84 139 116
-0.16793106 -0.61936826 -0.75088757 73 140 113
-0.16787599 -0.62058336 -0.75148797 76 137 115
-0.16909377 -0.61993915 -0.75143832 76 138 115
-0.16787797 -0.61994368 -0.75116581 75 139 114
-0.16667844 -0.6205107 -0.75118053 76 138 115
-0.16657357 -0.62000954 -0.75090414 74 139 114
-0.16844335 -0.62093282 -0.75178069 78 137 116
-0.16967107 -0.62131238 -0.75218916 81 139 116
-0.16643177 -0.62303323 -0.75238192 83 134 118
-0.16780417 -0.62241805 -0.75235343 82 137 117
-0.16973108 -0.62288582 -0.75293481 86 140 117
-0.16884288 -0.62117112 -0.75196713 79 138 116
-0.16298537 -0.62182003 -0.75102335 67 140 114
-0.16390823 -0.62208837 -0.751351 73 138 116
-0.16450924 -0.62283117 -0.75191051 74 136 117
-0.16422571 -0.62200463 -0.75136924 74 137 116
-0.16547117 -0.62269855 -0.7520079 80 135 118
-0.16476083 -0.61998862 -0.75047654 69 140 113
-0.16402814 -0.62140119 -0.75101906 71 139 114
-0.1631999 -0.62055022 -0.75039786 66 141 113
-0.16600434 -0.6212104 -0.75138104 77 137 115
-0.15910496 -0.62141591 -0.75041318 63 142 114
-0.16041641 -0.62218094 -0.75097013 61 140 115
-0.16025817 -0.6219402 -0.75081247 61 141 114
-0.15814805 -0.62177956 -0.75054896 61 142 114
-0.15181467 -0.62219107 -0.75061226 58 142 113
-0.15392548 -0.62197512 -0.75042319 65 139 113
-0.17219681 -0.6235984 -0.75420046 108 135 120
-0.17099893 -0.62361676 -0.7537936 95 138 119
-0.17290294 -0.62319666 -0.75418574 117 134 121
-0.16926146 -0.62372375 -0.75336778 83 139 118
-0.16794871 -0.62511468 -0.7540372 74 138 116
-0.1683535 -0.62485451 -0.75394064 76 138 117
-0.16815606 -0.62374008 -0.7531721 82 138 117
-0.16700792 -0.62432975 -0.7533462 77 136 117
-0.16668405 -0.62453461 -0.75342083 76 136 117
-0.16916068 -0.62311727 -0.752949 85 140 118
-0.16906203 -0.62337768 -0.7531029 84 139 118
-0.16579232 -0.6235916 -0.75261813 80 134 118
-0.16581087 -0.62352479 -0.75257826 80 134 118
-0.16492456 -0.6254589 -0.75365108 66 137 116
-0.16583674 -0.62330616 -0.75243956 81 134 118
-0.16416541 -0.62424177 -0.75270575 69 138 115
-0.1639908 -0.62380207 -0.75240785 69 138 115
-0.16360652 -0.62517565 -0.75317299 64 138 115
-0.16374987 -0.62368673 -0.75229508 68 137 115
-0.17547609 -0.59101093 -0.74520791 69 144 115
-0.17031136 -0.59107399 -0.74340099 103 145 115
-0.17113882 -0.59135288 -0.74370986 94 146 115
-0.17193295 -0.59094477 -0.7438826 89 146 115
-0.17232054 -0.5903973 -0.7439031 89 145 115
-0.16900648 -0.59163815 -0.74302262 108 146 116
-0.17002453 -0.59430945 -0.74366492 94 144 117
-0.1713911 -0.59341228 -0.74413067 83 147 114
-0.17069219 -0.59336638 -0.74384981 90 146 115
-0.17255928 -0.59467822 -0.74470061 67 147 114
-0.17368037 -0.59183651 -0.74458969 66 149 114
-0.17101829 -0.59194529 -0.74377871 92 147 115
-0.17292823 -0.59398586 -0.74471909 66 147 114
-0.17349519 -0.59198558 -0.7445572 68 149 114
-0.17333928 -0.59366149 -0.74479228 63 148 114
-0.16961718 -0.59552789 -0.74362391 93 143 117
-0.16906166 -0.59419477 -0.74332309 101 144 116
-0.16950706 -0.59301329 -0.74337417 102 145 116
-0.16898812 -0.59537274 -0.74339765 98 143 117
-0.16835986 -0.59212452 -0.74284065 109 145 115
-0.16851819 -0.59207618 -0.74289656 108 145 115
-0.17176782 -0.59941399 -0.74513835 72 143 114
-0.17033193 -0.59925961 -0.74457538 89 142 116
-0.17198049 -0.59909302 -0.74515587 69 143 114
-0.17022336 -0.59920472 -0.74452454 90 142 115
-0.17227462 -0.59704667 -0.74489832 66 144 115
-0.17279823 -0.59734374 -0.74515533 60 145 114
-0.17212197 -0.5965268 -0.74475116 68 145 115
-0.17287295 -0.59702283 -0.74513143 60 145 114
-0.16980858 -0.59798485 -0.74414158 94 142 116
-0.16919194 -0.59746385 -0.74383861 98 141 117
-0.16988945 -0.59940124 -0.74443954 94 141 116
-0.17336912 -0.60191065 -0.74629772 69 142 114
-0.17309237 -0.60196108 -0.74620491 73 143 114
-0.17218721 -0.60188401 -0.74584162 87 141 115
-0.17253999 -0.60092914 -0.74575514 77 142 114
-0.1703202 -0.60174423 -0.74511063 109 141 116
-0.17180805 -0.59982383 -0.74523818 74 143 114
-0.17218259 -0.60448706 -0.74648386 89 142 115
-0.17238934 -0.60358071 -0.74631447 93 141 116
-0.17245185 -0.6041097 -0.74648321 88 142 116
-0.1688188 -0.60700601 -0.74601549 106 142 115
-0.16684893 -0.60700053 -0.74550045 103 146 116
-0.16629046 -0.60690814 -0.7453267 103 147 116
-0.16735137 -0.60713267 -0.74567175 101 145 116
-0.16658998 -0.60738587 -0.74555057 97 148 115
-0.16404897 -0.60704559 -0.74479538 107 144 116
-0.1687263 -0.60832024 -0.74645478 94 144 115
-0.16821633 -0.60825515 -0.74629873 93 145 115
-0.167622 -0.60775757 -0.74595672 95 147 115
-0.16770086 -0.60842067 -0.74622661 91 147 114
-0.16678895 -0.60784304 -0.74577177 93 148 115
-0.16873837 -0.60762602 -0.74619824 99 143 115
-0.16566779 -0.60966802 -0.74615407 81 149 114
-0.16331983 -0.61023664 -0.7456938 86 144 114
-0.16357118 -0.61072457 -0.74594718 81 145 114
-0.16257977 -0.61101288 -0.74577248 83 143 114
-0.16449548 -0.60945868 -0.74573839 87 147 114
-0.16333504 -0.60918134 -0.74533325 93 143 115
-0.16394517 -0.60910589 -0.74546224 91 145 115
-0.16378662 -0.60959268 -0.74558842 88 145 114
-0.16432817 -0.60826808 -0.74527305 96 145 115
-0.16375804 -0.60897881 -0.74537134 93 145 115
-0.16117398 -0.61091638 -0.74546659 89 141 114
-0.16210535 -0.6100502 -0.74531859 92 141 115
-0.16256554 -0.61144495 -0.74593312 80 143 114
-0.16198573 -0.61240822 -0.74617952 76 144 113
-0.16200233 -0.61213171 -0.74606955 78 144 113
-0.13553776 -0.61351418 -0.74630785 91 138 116
-0.13548048 -0.61350036 -0.7463069 91 138 116
-0.13615859 -0.61393845 -0.74647057 89 138 116
-0.13376524 -0.61341065 -0.74644572 85 141 116
-0.13473885 -0.61316997 -0.74614501 90 138 116
-0.18948278 -0.61844069 -0.7582987 56 153 105
-0.19130756 -0.61720097 -0.7587347 87 148 109
-0.19026864 -0.61900324 -0.7587747 80 150 107
-0.18848823 -0.61987001 -0.75842535 65 153 106
-0.18674444 -0.62163067 -0.75841653 77 150 107
-0.18678263 -0.62290919 -0.75875038 101 144 111
-0.18686377 -0.62174505 -0.75852233 79 150 107
-0.1890074 -0.62074578 -0.758789 86 147 109
-0.18857905 -0.62059945 -0.75866252 78 149 108
-0.18790245 -0.62104034 -0.75860488 78 150 107
-0.18545778 -0.62252963 -0.75822282 84 148 108
-0.1856084 -0.62342221 -0.75866538 95 146 109
-0.18628474 -0.62368613 -0.75883734 98 145 109
-0.1782434 -0.62951022 -0.75922269 119 134 110
-0.17815328 -0.63014066 -0.75957668 125 132 109
-0.17785428 -0.62882596 -0.7586816 114 134 113
-0.1766468 -0.62860322 -0.75823784 97 138 111
-0.1772503 -0.62864077 -0.75841033 106 136 113
-0.17715068 -0.62999314 -0.75920725 117 132 110
-0.18377952 -0.59816927 -0.74993336 66 136 115
-0.1832203 -0.59840858 -0.74971086 71 135 115
-0.1832255 -0.59729725 -0.74952126 65 137 114
-0.18193458 -0.59728473 -0.74892592 68 137 114
-0.1838993 -0.59718299 -0.74981183 63 137 115
-0.18248922 -0.59678382 -0.74909717 63 138 114
-0.17984037 -0.5993337 -0.74827683 74 134 116
-0.1795357 -0.59878039 -0.74806011 70 135 115
-0.17777117 -0.59931928 -0.74727821 61 136 114
-0.17963256 -0.59800619 -0.74800879 68 135 115
-0.18044841 -0.59870553 -0.74849027 75 134 115
-0.18085848 -0.59646237 -0.74830848 60 139 113
-0.18060078 -0.59846777 -0.74852949 75 134 115
-0.18116637 -0.5980255 -0.74870521 72 135 114
-0.18148719 -0.59874547 -0.74896699 79 133 116
-0.18301399 -0.60157275 -0.75008541 72 137 115
-0.18260632 -0.60011977 -0.7497046 77 135 115
-0.18287827 -0.60132819 -0.74998933 73 136 115
-0.18310662 -0.60286087 -0.75029486 70 138 115
-0.18230939 -0.6019634 -0.74980909 77 136 115
-0.18199082 -0.6023559 -0.74972665 77 136 115
-0.17927149 -0.60324657 -0.74866408 61 138 113
-0.17941484 -0.60229659 -0.74854273 65 138 114
-0.17925277 -0.60325003 -0.74865663 61 138 113
-0.180512 -0.60342163 -0.74923444 69 138 114
-0.17849897 -0.60129964 -0.74795413 62 138 114
-0.18073237 -0.60300493 -0.74924934 71 138 114
-0.18025118 -0.60096985 -0.74870527 74 135 114
-0.17927496 -0.5998379 -0.74807215 71 134 115
-0.18079817 -0.60193294 -0.74910736 75 136 114
-0.18082957 -0.59988672 -0.74882805 80 132 116
-0.18053253 -0.60064846 -0.74879462 76 134 115
-0.18015203 -0.60187578 -0.74878782 71 137 114
-0.17677565 -0.59980911 -0.7470082 59 138 114
-0.1759882 -0.60117817 -0.74705464 64 140 114
-0.17442128 -0.60236317 -0.74678397 64 144 114
-0.1771663 -0.600007 -0.74719149 62 138 114
-0.17528103 -0.60332096 -0.74725848 61 143 114
-0.17629534 -0.60128587 -0.7471779 63 140 114
-0.17674072 -0.60078877 -0.74721897 63 138 114
-0.17694792 -0.6012581 -0.74737334 61 138 114
-0.17380534 -0.6023429 -0.74656117 62 144 114
-0.18177129 -0.60424381 -0.74998766 78 137 113
-0.18134482 -0.60631698 -0.75034487 83 136 113
-0.18052456 -0.60516989 -0.74968088 75 139 113
-0.18062338 -0.60465008 -0.74958724 74 138 113
-0.17976417 -0.60678828 -0.74977022 76 139 112
-0.17904563 -0.60632044 -0.74932563 71 140 112
-0.1802693 -0.60501266 -0.74952531 73 138 113
-0.17927332 -0.60561162 -0.7492432 69 140 112
-0.18057641 -0.60372835 -0.74933386 70 137 114
-0.17965208 -0.60537499 -0.74934763 71 139 113
-0.18037917 -0.60367054 -0.74923396 68 138 113
-0.18083419 -0.60430169 -0.74958938 74 138 113
-0.17646959 -0.606341 -0.74836957 68 142 112
-0.17501426 -0.60637206 -0.7479142 72 145 113
-0.17491065 -0.60612357 -0.74782145 72 145 113
-0.174583 -0.60446429 -0.74731755 68 144 114
-0.17679048 -0.60719746 -0.74867791 69 144 112
-0.17654118 -0.60673511 -0.74848723 69 143 112
-0.17583238 -0.60410279 -0.74761319 61 143 113
-0.17550802 -0.60455513 -0.74762696 65 142 114
-0.17593251 -0.60512573 -0.7479009 65 143 113
-0.17696117 -0.60655421 -0.74857622 68 142 113
-0.17069988 -0.60692078 -0.74658036 96 143 114
-0.17173192 -0.60687494 -0.74692857 89 144 114
-0.17336725 -0.60643542 -0.74739194 79 146 114
-0.17257005 -0.60496652 -0.74676061 79 144 114
-0.17349856 -0.60533911 -0.74717349 75 145 114
-0.17276281 -0.60581756 -0.74703264 81 145 114
-0.1716169 -0.60542333 -0.74652481 91 142 115
-0.1730458 -0.60394245 -0.74666572 79 142 115
-0.18010722 -0.60792375 -0.75022155 80 138 113
-0.17865868 -0.60879207 -0.74980068 76 139 114
-0.17951053 -0.607943 -0.74996024 78 139 113
-0.17861371 -0.60751945 -0.74944997 72 141 112
-0.17971236 -0.60900027 -0.75032502 82 138 114
-0.17786999 -0.61000937 -0.74979514 76 140 115
-0.17828982 -0.61053133 -0.75009269 80 139 116
-0.17443623 -0.61012864 -0.74867058 73 145 115
-0.17439243 -0.61120838 -0.74892277 70 144 115
-0.17430285 -0.60799462 -0.74809611 78 147 113
-0.17594662 -0.61026585 -0.74922734 77 142 115
-0.17453232 -0.60850418 -0.74830168 77 146 114
-0.17766477 -0.61099303 -0.74999464 79 139 116
-0.17621511 -0.60918432 -0.749035 77 144 114
-0.17683473 -0.60792649 -0.74888521 72 143 113
-0.17593086 -0.60947168 -0.7490238 79 143 115
-0.17757142 -0.6076048 -0.74903077 69 142 112
-0.17750528 -0.60948044 -0.74952686 75 141 114
-0.17089543 -0.60743952 -0.74677485 96 143 114
-0.17217831 -0.6089583 -0.74773866 74 147 114
-0.17199881 -0.60886109 -0.74764282 76 146 113
-0.17168154 -0.60766178 -0.74712276 89 144 114
-0.17036727 -0.60803741 -0.74679238 94 142 115
-0.17038952 -0.60770226 -0.7466858 97 143 115
-0.17366654 -0.60919762 -0.74818838 74 146 114
-0.17299233 -0.6112085 -0.74851412 68 144 114
-0.17258047 -0.60917801 -0.74790633 73 146 113
-0.17229636 -0.6099208 -0.74801767 71 146 114
-0.17110044 -0.61115521 -0.74801797 67 144 114
-0.17271638 -0.60924274 -0.74795705 73 146 113
-0.16694297 -0.6106354 -0.74682683 73 149 114
-0.16703017 -0.61055869 -0.7468195 73 149 114
-0.16893508 -0.60990024 -0.74704129 79 145 114
-0.16617037 -0.61022693 -0.74650449 76 150 114
-0.16888389 -0.60857034 -0.74657542 91 144 115
-0.1692677 -0.61031795 -0.74726188 76 145 114
-0.1682706 -0.60920465 -0.74664807 86 145 114
-0.1658826 -0.61114001 -0.74675655 70 149 113
-0.17695372 -0.61247641 -0.750274 73 139 116
-0.17434581 -0.61508131 -0.7503314 63 138 117
-0.17453159 -0.61452097 -0.75018668 67 137 117
-0.17664444 -0.61173213 -0.74988198 76 140 116
-0.1756134 -0.61155772 -0.74946034 73 141 115
-0.17553382 -0.61323375 -0.75005543 71 139 116
-0.17480037 -0.61187613 -0.74929726 70 142 115
-0.17680724 -0.6118173 -0.74997002 77 140 116
-0.17222275 -0.61470246 -0.74960989 63 140 115
-0.17139095 -0.61365104 -0.74900514 64 141 115
-0.1711435 -0.61363149 -0.74893659 63 142 114
-0.17049907 -0.61434227 -0.74904764 61 143 114
-0.17079297 -0.61410558 -0.74903023 62 142 114
-0.17045885 -0.61212593 -0.74819565 65 143 115
-0.17000911 -0.61139739 -0.74780798 66 144 114
-0.17254882 -0.61175221 -0.74858809 67 143 115
-0.17355263 -0.61345094 -0.74947536 66 140 115
-0.17224936 -0.61225402 -0.74869806 66 142 115
-0.17353322 -0.61189806 -0.7488935 67 143 115
-0.17281617 -0.61204112 -0.74876368 67 142 115
-0.16663991 -0.61349219 -0.74786347 58 146 113
-0.16692849 -0.61497319 -0.74852097 50 145 112
-0.16642302 -0.61332828 -0.74775255 58 146 113
-0.16850209 -0.61389816 -0.7484116 62 145 113
-0.16712381 -0.61446452 -0.74835593 54 145 113
-0.16896971 -0.61522001 -0.7490418 56 143 113
-0.1681072 -0.61134923 -0.74735039 67 147 114
-0.1688509 -0.61222285 -0.74785346 65 146 114
-0.16937871 -0.61139911 -0.74766195 66 145 114
-0.168405 -0.61198211 -0.74765939 65 146 113
-0.16789261 -0.61147594 -0.74734908 67 147 114
-0.16847487 -0.61299974 -0.74806207 63 146 114
-0.16467631 -0.61169428 -0.7466318 70 148 113
-0.16261029 -0.61400408 -0.74701977 65 148 112
-0.16332591 -0.61284524 -0.74672312 68 148 112
-0.1637966 -0.61338758 -0.74710375 65 148 113
-0.16532794 -0.61380458 -0.74768019 56 147 112
-0.16575836 -0.61327481 -0.74757934 58 147 113
-0.16576244 -0.61241245 -0.74723226 63 148 113
-0.16395457 -0.61459863 -0.74764013 57 148 112
-0.16442452 -0.6145997 -0.74776399 55 147 112
-0.16485523 -0.61443728 -0.7478115 54 147 112
-0.1614458 -0.61408597 -0.74683106 74 145 113
-0.13678607 -0.61455446 -0.74672997 86 138 116
-0.13747516 -0.61469537 -0.74671894 88 138 116
-0.13445373 -0.61427289 -0.74690861 79 139 116
-0.13422906 -0.61385339 -0.74667031 82 140 116
-0.17257889 -0.61599553 -0.75030333 66 138 116
-0.17171693 -0.61639243 -0.75030297 65 140 115
-0.17206204 -0.61607981 -0.75022197 65 139 115
-0.17024314 -0.61638582 -0.74993575 63 142 113
-0.16955806 -0.61731809 -0.75026035 66 142 113
-0.16940263 -0.61743039 -0.75028086 66 142 113
-0.16959091 -0.61707234 -0.75013798 65 142 113
-0.16930684 -0.61585546 -0.74941921 61 143 112
-0.16848761 -0.61638647 -0.74950784 61 143 112
-0.16706277 -0.61802775 -0.75001115 67 142 112
-0.16855232 -0.61608124 -0.7493729 59 144 112
-0.16624264 -0.61548132 -0.74860489 48 144 112
-0.1665249 -0.61639678 -0.74910784 54 143 112
-0.1666591 -0.61677402 -0.74931884 58 143 112
-0.16235362 -0.61572844 -0.74771649 62 148 112
-0.16364354 -0.61782146 -0.74907196 66 145 111
-0.16289441 -0.6164788 -0.74822301 63 147 112
-0.16443476 -0.61852187 -0.74962002 68 143 112
-0.16348259 -0.61843914 -0.74932981 68 144 111
-0.16295248 -0.61743456 -0.74870253 65 145 112
-0.16552521 -0.61830753 -0.74980223 68 142 112
-0.16492026 -0.6176033 -0.74930125 65 143 112
-0.16467541 -0.61765891 -0.749264 66 144 112
-0.16314037 -0.61608315 -0.74809539 62 147 112
-0.16553196 -0.61744189 -0.74938351 61 143 112
-0.16551927 -0.61641884 -0.74888319 55 145 112
-0.15893945 -0.61840051 -0.7486828 76 143 115
-0.15849008 -0.61803174 -0.74845803 80 142 117
-0.16171582 -0.61893952 -0.74917573 69 143 111
-0.16019428 -0.61859936 -0.74888253 74 143 114
-0.15888304 -0.61901742 -0.74899608 69 145 115
-0.16161019 -0.61569333 -0.7475819 68 146 113
-0.16172586 -0.61810851 -0.74876755 71 143 112
-0.16179067 -0.61566657 -0.74758822 66 147 113
-0.16098295 -0.61624193 -0.74778146 77 142 114
-0.16195305 -0.61771792 -0.74860203 66 146 111
-0.15563077 -0.61814559 -0.74838406 81 140 116
-0.15491661 -0.61870778 -0.74859446 81 139 116
-0.15558207 -0.61834753 -0.74847317 81 139 116
-0.15631352 -0.61857069 -0.74862295 77 142 116
-0.15637366 -0.61776775 -0.74825978 81 141 116
-0.15695001 -0.61756253 -0.74818486 82 141 117
-0.15157667 -0.61832565 -0.74829787 80 140 115
-0.15239401 -0.61824977 -0.74825418 83 139 116
-0.14694367 -0.6178562 -0.74821395 81 138 118
-0.14828505 -0.61807269 -0.74826086 83 139 117
-0.14964834 -0.61814749 -0.74822903 84 140 116
-0.14637215 -0.61767346 -0.74813205 82 138 117
-0.1450844 -0.61721617 -0.74783456 83 138 117
-0.14075695 -0.61571735 -0.74702454 90 137 117
-0.14181577 -0.6165182 -0.74743563 83 137 117
-0.1425359 -0.61683762 -0.74758101 81 137 117
-0.13834921 -0.61562425 -0.74716496 83 137 117
-0.13802585 -0.61526841 -0.74699038 86 137 117
-0.13722453 -0.6152606 -0.74711132 82 138 116
-0.16409972 -0.6200971 -0.75037694 67 142 112
-0.16252491 -0.62026668 -0.75006068 65 143 112
-0.16245259 -0.61994302 -0.74985731 66 143 112
-0.16392271 -0.61989909 -0.75021833 68 142 112
-0.16040866 -0.6205979 -0.75003004 65 142 114
-0.16040552 -0.62121153 -0.75037956 63 142 114
-0.16161376 -0.61953294 -0.74950129 66 143 111
-0.16068426 -0.61987191 -0.74963164 66 143 113
-0.15946026 -0.62057543 -0.74995255 65 143 114
-0.16059133 -0.61966342 -0.74950117 66 143 113
-0.15581547 -0.62143517 -0.75019813 65 140 115
-0.15819137 -0.6198079 -0.7494005 66 144 116
-0.15795641 -0.62099469 -0.75008583 64 142 115
-0.15764369 -0.62140238 -0.75030524 63 142 115
-0.15481524 -0.62103462 -0.7498951 69 140 114
-0.15556012 -0.61935455 -0.74895954 76 140 116
-0.15447104 -0.62022215 -0.74939674 74 139 115
-0.15559386 -0.61971766 -0.74917442 73 141 115
-0.15333079 -0.61984593 -0.74919534 76 138 115
-0.15176997 -0.62110066 -0.74997956 65 140 114
-0.15234412 -0.62132293 -0.75009161 65 140 114
-0.15334177 -0.62167919 -0.75026888 66 139 114
-0.15229189 -0.62060988 -0.74967557 69 140 114
-0.15179366 -0.61943465 -0.74894065 73 140 114
-0.15190031 -0.6200996 -0.74936032 71 140 114
-0.15250383 -0.61985135 -0.74920279 73 140 114
-0.15325084 -0.61937565 -0.74890149 78 138 115
-0.14995593 -0.62053448 -0.74964803 63 142 113
-0.15035981 -0.62015069 -0.74939531 66 142 113
-0.15009767 -0.62104583 -0.74996728 62 141 114
-0.14897159 -0.62090492 -0.74990743 58 142 114
-0.14819133 -0.61983043 -0.74928486 60 141 114
0 0 0 1 0 0 0 1 0 0 0 1 0 0 0 0 0 651 1 0 0
