ply
format ascii 1.0
comment PCL generated
element vertex 742
property float x
property float y
property float z
property uchar red
property uchar green
property uchar blue
element camera 1
property float view_px
property float view_py
property float view_pz
property float x_axisx
property float x_axisy
property float x_axisz
property float y_axisx
property float y_axisy
property float y_axisz
property float z_axisx
property float z_axisy
property float z_axisz
property float focal
property float scalex
property float scaley
property float centerx
property float centery
property int viewportx
property int viewporty
property float k1
property float k2
end_header
-0.12362854 -0.28310832 -0.70328975 43 135 117
-0.1222124 -0.28197765 -0.70315719 39 133 117
-0.12249978 -0.28234819 -0.7031005 40 134 117
-0.12001715 -0.28171811 -0.70228666 36 133 117
-0.12172888 -0.28249052 -0.70267302 39 134 116
-0.12067225 -0.28317806 -0.7018649 40 132 117
-0.12408784 -0.28406566 -0.70307469 44 135 116
-0.12478682 -0.28484151 -0.70308775 45 135 115
-0.12339248 -0.28351596 -0.70295376 43 136 117
-0.12386762 -0.28626025 -0.70184189 45 134 115
-0.12389365 -0.28703436 -0.70146573 45 133 115
-0.12424932 -0.28487906 -0.7027604 45 135 115
-0.12336589 -0.28678688 -0.70128596 45 133 115
-0.1236851 -0.28553462 -0.7021032 45 133 115
-0.12396354 -0.28688818 -0.70157999 45 133 115
-0.12512779 -0.28596333 -0.70271975 47 134 115
-0.1196718 -0.28595614 -0.69994146 38 132 115
-0.12198746 -0.2869494 -0.7005161 42 133 115
-0.11925665 -0.28358272 -0.70101982 38 131 117
-0.12289537 -0.28709128 -0.70087576 43 133 115
-0.12068491 -0.28665382 -0.70004988 40 133 114
-0.12140649 -0.28499448 -0.70127517 41 133 116
-0.12165401 -0.28327429 -0.70225501 40 133 116
-0.12279432 -0.28663552 -0.70106548 43 133 115
-0.12011163 -0.28378391 -0.70130879 39 131 117
-0.12062666 -0.28344986 -0.7017076 39 133 116
-0.12287475 -0.28590029 -0.70147294 43 134 116
-0.11843773 -0.28355652 -0.70065922 36 132 116
-0.11832552 -0.28354719 -0.7006132 36 132 116
-0.11895207 -0.28366312 -0.700836 36 132 116
-0.12322263 -0.2892065 -0.70008665 45 133 115
-0.12441228 -0.29028523 -0.70025462 46 133 114
-0.12395191 -0.28826687 -0.7009086 45 134 114
-0.12361838 -0.28912032 -0.7003479 45 133 114
-0.12561277 -0.28929031 -0.70136017 47 134 114
-0.12576255 -0.28930154 -0.70144123 47 134 114
-0.12509641 -0.288257 -0.70156443 46 133 114
-0.12166412 -0.28753731 -0.70007992 42 133 115
-0.12075132 -0.28736937 -0.69971788 40 133 114
-0.12293934 -0.28963178 -0.69973975 44 133 114
-0.13203909 -0.29459763 -0.70327705 46 133 115
-0.13187315 -0.29453629 -0.7031728 46 133 116
-0.13155478 -0.29429546 -0.70302129 46 133 116
-0.13064767 -0.29314724 -0.70280057 48 132 116
-0.13059112 -0.29399812 -0.70243025 46 133 116
-0.13001011 -0.29437843 -0.70191616 46 133 116
-0.12964636 -0.29388225 -0.70187879 46 133 116
-0.12916319 -0.29474354 -0.70125079 46 133 115
-0.12457618 -0.2919437 -0.69966036 46 133 114
-0.12894119 -0.29503509 -0.70100385 47 133 115
-0.1357851 -0.3098453 -0.70231998 52 141 116
-0.13588519 -0.30948505 -0.7024945 54 139 116
-0.13461506 -0.3087827 -0.70136476 56 140 115
-0.13627531 -0.31167859 -0.70254636 46 140 116
-0.13727553 -0.31236386 -0.70348883 47 138 118
-0.13688739 -0.31195214 -0.7031405 47 139 117
-0.13653663 -0.31098384 -0.70289707 48 141 116
-0.13481197 -0.31429479 -0.70065856 45 134 119
-0.13518654 -0.31285194 -0.70125556 46 138 117
-0.13532574 -0.31362426 -0.70129383 45 136 118
-0.13521393 -0.31123224 -0.70151162 46 141 115
-0.13524939 -0.31185636 -0.70146143 46 140 116
-0.13506791 -0.3128382 -0.70113254 46 138 117
-0.13473521 -0.31400841 -0.70062375 46 134 119
-0.1347599 -0.31363922 -0.70069689 46 135 118
-0.13414094 -0.31155834 -0.70046812 48 141 115
-0.13440783 -0.31055257 -0.70084095 48 142 115
-0.13300477 -0.31074765 -0.69965863 53 140 116
-0.13530289 -0.3148852 -0.70111382 45 134 119
-0.13562581 -0.31456709 -0.70148313 45 134 119
-0.13641691 -0.3146112 -0.70231229 44 135 119
-0.13444926 -0.31664208 -0.70010513 46 133 119
-0.13441643 -0.31446195 -0.70028508 46 133 119
-0.13466664 -0.31466112 -0.70048213 46 133 119
-0.14392342 -0.29256305 -0.71424234 51 134 118
-0.14317605 -0.29289281 -0.71337032 51 134 118
-0.14283282 -0.29486835 -0.71234244 47 134 118
-0.1450621 -0.29467201 -0.71470314 48 134 118
-0.143217 -0.2947191 -0.71278876 47 135 118
-0.14356478 -0.29398268 -0.71339804 48 134 118
-0.14383873 -0.29365546 -0.71379167 50 134 119
-0.14222503 -0.2940757 -0.71202397 49 135 118
-0.14202 -0.29232565 -0.71243536 51 135 117
-0.1415447 -0.29363656 -0.71154988 50 134 118
-0.14187534 -0.29297855 -0.71207851 51 135 118
-0.14439234 -0.29858246 -0.71310431 47 133 116
-0.14401659 -0.29766312 -0.7129215 46 135 116
-0.14381315 -0.29703647 -0.7128489 46 135 116
-0.14328994 -0.29738602 -0.71226048 47 133 116
-0.14525658 -0.29829758 -0.71401626 46 136 117
-0.14440377 -0.29834276 -0.71316469 46 135 116
-0.14361133 -0.29757082 -0.71254003 47 133 116
-0.14572945 -0.29647148 -0.71492332 46 135 118
-0.14578848 -0.29764459 -0.71469551 46 135 117
-0.14569753 -0.29671583 -0.71483034 46 135 118
-0.14532949 -0.29646754 -0.71451277 46 135 118
-0.1435422 -0.29507259 -0.71301699 47 134 119
-0.14414293 -0.29590914 -0.71342927 46 135 118
-0.14428087 -0.29527041 -0.71372831 47 134 119
-0.14219698 -0.29561865 -0.71156514 47 135 117
-0.14701502 -0.30229223 -0.7152254 50 139 116
-0.14673883 -0.30205682 -0.71493191 48 138 117
-0.1464518 -0.3011333 -0.71473336 47 136 118
-0.14561285 -0.30013436 -0.71397758 49 136 117
-0.14526199 -0.30228725 -0.71326911 52 137 118
-0.14514212 -0.30218044 -0.71315569 52 137 118
-0.14541899 -0.30055946 -0.7137028 50 136 118
-0.14530765 -0.30144039 -0.71344781 52 136 118
-0.14411992 -0.30102801 -0.71229142 53 136 117
-0.14450216 -0.3002325 -0.71284741 51 135 117
-0.14367458 -0.29940161 -0.71221632 48 134 116
-0.14434627 -0.29918316 -0.71292877 47 135 116
-0.14382446 -0.29925236 -0.71239787 48 134 116
-0.14464989 -0.29907271 -0.7132535 47 134 116
-0.14437135 -0.29938501 -0.71290833 48 135 116
-0.14344171 -0.29955566 -0.71195173 50 134 116
-0.14741522 -0.30651131 -0.7152164 47 138 118
-0.1468848 -0.3062281 -0.71463591 46 140 118
-0.1466355 -0.30603257 -0.71436936 46 140 118
-0.14451747 -0.30622953 -0.7119081 50 137 116
-0.14490478 -0.30565464 -0.712412 49 137 117
-0.14574574 -0.30495134 -0.71345186 47 137 117
-0.14561553 -0.30498654 -0.71329814 48 137 118
-0.145079 -0.30541727 -0.71263653 49 137 117
-0.1446202 -0.30273661 -0.71250576 54 137 118
-0.14574279 -0.30332616 -0.71363652 50 136 118
-0.14411095 -0.30442962 -0.71171141 53 137 117
-0.14519747 -0.30458787 -0.712865 49 137 117
-0.14474863 -0.3036567 -0.71251273 53 137 117
-0.1444533 -0.30296829 -0.71229184 54 137 118
-0.14708398 -0.30807838 -0.71471393 46 140 116
-0.14718978 -0.3085115 -0.71480238 46 141 116
-0.14650188 -0.30712435 -0.71411496 46 140 118
-0.14719629 -0.30902129 -0.71477026 47 141 116
-0.1450126 -0.30996719 -0.7121917 47 138 116
-0.14567554 -0.30951253 -0.71297854 47 139 116
-0.14577486 -0.31028947 -0.71302456 48 139 116
-0.14629401 -0.30908129 -0.71371317 48 140 116
-0.14510371 -0.30725846 -0.71249926 47 138 116
-0.14556849 -0.30719969 -0.71303946 46 139 117
-0.14469893 -0.3085894 -0.71193779 48 136 117
-0.14467445 -0.30884042 -0.71189165 47 137 116
-0.14454754 -0.30925593 -0.71171576 47 137 116
-0.14716414 -0.31104022 -0.71458459 48 140 115
-0.14724301 -0.31059289 -0.71469378 48 141 114
-0.14650983 -0.31218278 -0.71376669 46 137 115
-0.14653894 -0.3110292 -0.71384853 48 141 115
-0.14591274 -0.3117795 -0.71304268 47 139 115
-0.1462962 -0.31219375 -0.71350217 46 139 115
-0.14535446 -0.31267405 -0.71232539 45 137 116
-0.14494044 -0.31301117 -0.71182603 45 136 116
-0.14442202 -0.31126383 -0.71140754 46 135 116
-0.15517843 -0.2919586 -0.7266652 48 139 117
-0.15553106 -0.29265964 -0.72688764 46 140 118
-0.15501624 -0.29280564 -0.72620285 46 140 118
-0.15585089 -0.29437655 -0.72675312 39 140 119
-0.15501103 -0.29340693 -0.72602087 44 140 117
-0.15501228 -0.29354814 -0.72598118 44 140 117
-0.15385304 -0.29263589 -0.72491324 49 138 117
-0.15367813 -0.29412696 -0.7242927 45 139 117
-0.15375595 -0.29468182 -0.72421288 45 138 118
-0.15424214 -0.29457492 -0.72475839 45 139 118
-0.15378314 -0.29205039 -0.72500354 50 138 117
-0.15371393 -0.2917363 -0.72500831 50 138 117
-0.15593973 -0.29712585 -0.72634101 73 132 122
-0.15445065 -0.2951591 -0.72486204 47 138 118
-0.15630431 -0.29714698 -0.72677839 72 132 122
-0.15624955 -0.29568237 -0.72695154 48 138 120
-0.15546106 -0.29754493 -0.72565979 70 133 121
-0.15507972 -0.29681399 -0.7253232 62 134 120
-0.15544008 -0.29811114 -0.72551316 69 131 121
-0.15467818 -0.29881036 -0.72438455 52 134 119
-0.15539037 -0.29711679 -0.72565919 69 133 121
-0.1541606 -0.29750007 -0.7240147 43 138 117
-0.15385598 -0.29821819 -0.72351503 43 137 118
-0.1537874 -0.29602426 -0.72392559 44 138 118
-0.15338446 -0.29660237 -0.72336805 43 137 118
-0.15391879 -0.296195 -0.72402579 44 138 118
-0.15673085 -0.300051 -0.72683781 79 130 123
-0.15593718 -0.30098504 -0.72567397 45 136 118
-0.15572548 -0.30003652 -0.72554559 56 134 119
-0.15614897 -0.30051318 -0.72601837 58 134 119
-0.15646036 -0.30004308 -0.72649074 73 131 122
-0.15485463 -0.29923916 -0.72454548 48 136 118
-0.15436199 -0.30247086 -0.72367448 58 141 115
-0.15513812 -0.30188936 -0.72464406 52 139 116
-0.15455735 -0.30188778 -0.7239536 55 140 116
-0.15486725 -0.30262685 -0.72426271 56 141 116
-0.15575808 -0.30235261 -0.725344 51 139 117
-0.15466365 -0.30214638 -0.72405928 55 140 116
-0.153971 -0.30162707 -0.72328681 56 140 116
-0.15384524 -0.30246708 -0.72307384 60 142 115
-0.15389715 -0.30133325 -0.72322667 54 140 116
-0.15618502 -0.3041352 -0.72562742 48 139 117
-0.15602328 -0.30330855 -0.72554934 50 140 116
-0.15596865 -0.30373338 -0.72542566 50 140 116
-0.15666261 -0.30398899 -0.72621554 45 139 117
-0.15676105 -0.30358332 -0.72638863 45 138 117
-0.15749604 -0.30609241 -0.7269159 38 138 118
-0.15512544 -0.30449182 -0.72435665 50 139 116
-0.1549447 -0.30355963 -0.72423494 55 140 116
-0.1555517 -0.30425897 -0.72485906 51 140 117
-0.15508774 -0.30443907 -0.72431874 50 139 116
-0.15459514 -0.30538297 -0.72367835 45 136 116
-0.15418783 -0.30353987 -0.72337806 56 140 115
-0.15678352 -0.30665147 -0.72603995 36 137 118
-0.15756002 -0.30754811 -0.72688073 34 139 116
-0.15696195 -0.30706486 -0.72622466 36 136 117
-0.15524252 -0.3103666 -0.72423553 36 136 116
-0.15608527 -0.31772164 -0.7246806 45 136 116
-0.15700945 -0.3175905 -0.72577477 44 137 116
-0.15515876 -0.31802857 -0.72356623 45 137 116
-0.1547579 -0.31750557 -0.72312373 45 136 116
-0.15483047 -0.31767109 -0.72320014 45 136 116
-0.15543272 -0.31739071 -0.72394788 46 135 117
-0.15731823 -0.32223329 -0.72593206 50 139 112
-0.15728463 -0.32045227 -0.72597104 46 139 114
-0.15799466 -0.32073441 -0.72675395 48 139 113
-0.15655199 -0.32078934 -0.7251364 45 140 114
-0.15806986 -0.32116735 -0.72681963 49 139 113
-0.15798295 -0.31869197 -0.72682792 44 141 115
-0.15558447 -0.32159054 -0.72401905 45 138 115
-0.15596439 -0.31993982 -0.72447628 45 138 116
-0.15697061 -0.31863338 -0.72565305 45 139 116
-0.15580021 -0.31907696 -0.72428399 45 138 116
-0.15685047 -0.3191472 -0.72551256 45 139 116
-0.15504053 -0.32125399 -0.72339594 45 138 116
-0.15756735 -0.31885108 -0.72635114 44 140 115
-0.15627894 -0.32024607 -0.72484434 45 138 116
-0.15838228 -0.32523865 -0.72692013 52 137 113
-0.1579169 -0.32361853 -0.72648251 52 138 113
-0.15774845 -0.32489783 -0.72618896 52 137 113
-0.1555353 -0.32587466 -0.72349155 51 141 113
-0.15618189 -0.32518622 -0.72430915 51 140 112
-0.15646258 -0.32513914 -0.72464561 52 139 113
-0.15559328 -0.32583448 -0.72356325 51 141 113
-0.15657488 -0.32587826 -0.72472477 52 139 113
-0.15623499 -0.32230952 -0.72471273 48 138 114
-0.15516408 -0.32558876 -0.72310334 50 140 113
-0.15570658 -0.32533461 -0.72374243 51 141 113
-0.15532884 -0.32551551 -0.72329694 50 141 112
-0.15543495 -0.32509637 -0.72346824 50 140 113
-0.15493107 -0.3236554 -0.72308463 47 139 114
-0.15500729 -0.32463053 -0.72304785 48 140 113
-0.15835625 -0.32684037 -0.72676653 47 138 113
-0.15833208 -0.32732907 -0.72669911 44 138 113
-0.15813689 -0.32729641 -0.72648245 44 138 114
-0.15595526 -0.3261843 -0.72396857 51 140 113
-0.15618984 -0.32707489 -0.7242834 49 139 113
-0.1574229 -0.32689333 -0.725739 50 137 114
-0.15520021 -0.32753706 -0.7231282 47 139 113
-0.15747601 -0.32672694 -0.72579515 50 137 113
-0.15522119 -0.32722867 -0.72314042 48 140 113
-0.15710723 -0.32687688 -0.72536373 50 138 113
-0.1564693 -0.3342402 -0.72460341 45 136 112
-0.1196917 -0.2869736 -0.69939899 38 133 114
-0.11900409 -0.28644764 -0.69935787 37 134 114
-0.11822093 -0.28558552 -0.69946808 36 133 115
-0.11807428 -0.28621566 -0.69906676 36 134 114
-0.11365262 -0.28676751 -0.69722366 39 134 114
-0.1231022 -0.2906225 -0.69937444 45 134 113
-0.12086827 -0.28813988 -0.69942158 41 133 114
-0.11993552 -0.28765565 -0.69919139 40 132 114
-0.12091684 -0.288728 -0.69917709 42 133 114
-0.12234292 -0.28956848 -0.69948125 43 134 114
-0.12074005 -0.28898782 -0.69897938 42 133 114
-0.11963163 -0.28806964 -0.69886577 40 133 113
-0.12096874 -0.28901953 -0.69907165 42 133 114
-0.12153229 -0.28958109 -0.69908816 43 133 114
-0.11607088 -0.28911349 -0.69693029 40 135 111
-0.1157452 -0.28923288 -0.6967234 40 135 111
-0.11669821 -0.28920978 -0.69716436 39 133 111
-0.11725958 -0.28848916 -0.6977365 38 134 113
-0.11900271 -0.28914133 -0.69811833 40 132 111
-0.11764435 -0.28790674 -0.6981374 38 133 113
-0.11789122 -0.28712782 -0.69857121 37 134 114
-0.11866786 -0.28926691 -0.69793564 39 134 110
-0.11800897 -0.28930536 -0.69766706 39 133 110
-0.11476529 -0.28798953 -0.69697219 39 135 113
-0.11400513 -0.28761846 -0.69692248 42 134 114
-0.12405699 -0.29137143 -0.69960004 46 133 114
-0.13270344 -0.31162167 -0.69925392 53 138 117
-0.13274311 -0.31291419 -0.69907737 51 135 118
-0.13272767 -0.3114993 -0.69929528 53 138 116
-0.13322091 -0.31310135 -0.69946736 49 136 117
-0.1309444 -0.31311837 -0.69744861 52 136 117
-0.13183203 -0.31337228 -0.69819325 51 136 117
-0.13272837 -0.31441909 -0.69881213 47 135 118
-0.13204685 -0.31401792 -0.69827515 48 136 117
-0.13222677 -0.31342003 -0.69853544 50 136 117
-0.13013199 -0.31254345 -0.69688576 54 136 116
-0.13072804 -0.31273592 -0.69733208 53 137 116
-0.12937245 -0.31382138 -0.69606042 50 138 115
-0.12990442 -0.31222889 -0.69675952 54 136 116
-0.12898195 -0.31216821 -0.69604778 55 138 116
-0.12970845 -0.31241834 -0.69657236 54 137 116
-0.13153496 -0.31521502 -0.69767243 47 136 117
-0.13318779 -0.31675345 -0.69898671 46 134 119
-0.13225377 -0.3158507 -0.69824731 47 135 117
-0.13342112 -0.31633887 -0.69923472 46 134 119
-0.13324352 -0.31542125 -0.69916779 47 134 119
-0.13223399 -0.31720716 -0.69805366 46 134 119
-0.1331393 -0.31829181 -0.69875032 46 133 119
-0.13115352 -0.3148329 -0.69737095 48 136 117
-0.13120288 -0.31534919 -0.69734597 47 136 117
-0.13210389 -0.31807664 -0.69781232 46 134 119
-0.13226755 -0.31661946 -0.69816595 47 135 118
-0.13056584 -0.3169544 -0.69657403 49 135 118
-0.13041295 -0.31653669 -0.69651198 49 136 117
-0.12980224 -0.31562409 -0.69614512 50 136 117
-0.13040663 -0.31532326 -0.69667011 49 136 117
-0.12974864 -0.315869 -0.69606978 50 136 117
-0.1323438 -0.3186039 -0.69799751 46 133 119
-0.13309382 -0.31977016 -0.69869787 45 134 119
-0.13391595 -0.31960213 -0.69946629 45 134 119
-0.13179153 -0.31918162 -0.6974811 46 134 119
-0.13123547 -0.31899434 -0.6969533 46 134 119
-0.13028365 -0.31931543 -0.69612145 48 134 118
-0.12996814 -0.31963393 -0.69586176 50 134 118
-0.14156446 -0.29448941 -0.71127319 48 134 118
-0.14095172 -0.29383323 -0.71093142 50 133 118
-0.13912216 -0.29429382 -0.70907426 47 133 117
-0.1399543 -0.29377186 -0.71002704 48 134 117
-0.14110905 -0.29443753 -0.71086776 48 133 118
-0.1399592 -0.29461366 -0.70974004 47 133 118
-0.14164305 -0.29474708 -0.71125603 48 133 118
-0.13821195 -0.29292297 -0.70875561 49 133 117
-0.13717777 -0.29400128 -0.70752066 47 133 116
-0.14071566 -0.29733342 -0.70981687 50 133 116
-0.14066073 -0.29872802 -0.70939243 55 134 116
-0.14143562 -0.29786077 -0.71038771 48 133 115
-0.14084056 -0.29714981 -0.70998889 48 132 116
-0.13944989 -0.29564741 -0.70901144 47 133 117
-0.14056955 -0.29519951 -0.71014231 47 133 118
-0.13994764 -0.29599363 -0.70940197 47 133 117
-0.14176902 -0.29534775 -0.71122468 48 133 118
-0.14089574 -0.29653901 -0.71016937 47 133 116
-0.14085393 -0.29700509 -0.71003467 47 133 116
-0.1385483 -0.29527909 -0.70824307 48 133 118
-0.14169304 -0.30005932 -0.7100746 54 133 116
-0.14148737 -0.30044863 -0.70977253 55 135 116
-0.14216556 -0.30059204 -0.71039742 54 134 117
-0.14192092 -0.30011356 -0.71028304 53 134 115
-0.14192756 -0.29894504 -0.71058726 51 134 115
-0.1410681 -0.29943991 -0.70961392 55 134 116
-0.14358827 -0.30419832 -0.71117121 55 137 118
-0.14331262 -0.30639201 -0.71056414 53 137 116
-0.14317638 -0.30551401 -0.71053034 54 137 117
-0.14314406 -0.30589011 -0.71044695 54 137 117
-0.14395268 -0.30919263 -0.71105301 49 136 117
-0.14370097 -0.30815223 -0.7108506 51 135 117
-0.14329334 -0.30734122 -0.7104646 53 136 117
-0.14360297 -0.3099418 -0.71060222 48 135 116
-0.14265728 -0.30755523 -0.70974588 54 135 117
-0.14274621 -0.30848962 -0.70976186 52 134 117
-0.14215867 -0.30970618 -0.70900863 51 135 116
-0.14231013 -0.3101458 -0.7091319 51 133 117
-0.14217146 -0.30815575 -0.70916331 53 135 116
-0.14246885 -0.30998567 -0.70931745 51 133 117
-0.1409236 -0.31014988 -0.7076385 51 136 117
-0.14075667 -0.30890074 -0.70760822 54 136 117
-0.14304219 -0.31068784 -0.70989728 50 133 117
-0.14391814 -0.3113533 -0.71082759 47 134 117
-0.14298682 -0.31199121 -0.70971859 47 134 117
-0.14288965 -0.31214398 -0.7095983 47 134 117
-0.14335781 -0.31225127 -0.71010852 47 133 117
-0.14209278 -0.3123329 -0.70871413 47 133 117
-0.14230299 -0.31334323 -0.70885772 44 136 117
-0.14115769 -0.31311223 -0.70764214 45 135 118
-0.14141341 -0.31167701 -0.70803607 48 135 118
-0.15268324 -0.2947844 -0.72304177 44 136 119
-0.15116407 -0.29224846 -0.72198254 48 135 117
-0.15154859 -0.29275593 -0.72228658 47 135 117
-0.15220484 -0.29450637 -0.72256321 45 136 119
-0.15168208 -0.29489693 -0.72184455 46 136 118
-0.1489504 -0.29251292 -0.7194255 52 136 117
-0.15246542 -0.29678497 -0.72228402 44 137 117
-0.15233494 -0.29675519 -0.72213942 45 136 118
-0.15195327 -0.29522023 -0.72207886 45 137 118
-0.15137817 -0.29532707 -0.72138196 46 137 117
-0.15353227 -0.29873303 -0.72303963 43 137 118
-0.15197909 -0.29763779 -0.72154468 44 137 117
-0.15177603 -0.29844636 -0.7211628 43 137 118
-0.15091479 -0.29722667 -0.72045594 46 136 117
-0.15139949 -0.29744664 -0.72094536 45 136 117
-0.15078875 -0.29662031 -0.72043651 46 137 117
-0.15069191 -0.29695988 -0.72026342 46 136 117
-0.15179548 -0.29760513 -0.72134936 44 137 117
-0.14993794 -0.29555362 -0.7197023 47 137 116
-0.150052 -0.29742339 -0.719464 45 136 117
-0.15250455 -0.29933041 -0.72179258 43 137 118
-0.15059245 -0.29901451 -0.71975183 43 137 118
-0.15126526 -0.30192763 -0.71993566 46 137 118
-0.15129019 -0.29994813 -0.72034043 44 137 118
-0.1521246 -0.30011246 -0.72122598 44 136 118
-0.15157948 -0.29896829 -0.72084516 43 138 117
-0.15330032 -0.30181715 -0.72246033 55 140 116
-0.15292564 -0.30010739 -0.72214967 46 137 117
-0.15159455 -0.30167139 -0.72036421 47 137 118
-0.15230133 -0.30243966 -0.72116953 54 139 117
-0.15305088 -0.30014154 -0.72230148 46 138 117
-0.1534103 -0.29932284 -0.72281897 44 137 117
-0.1526804 -0.30053777 -0.72180802 46 138 117
-0.1501655 -0.29887363 -0.71930599 43 138 117
-0.15302742 -0.30468023 -0.72189504 50 139 117
-0.1517373 -0.30564466 -0.72026217 43 139 117
-0.15129882 -0.30313912 -0.71987873 49 138 117
-0.15217771 -0.3028658 -0.72098225 54 139 117
-0.1515235 -0.30317643 -0.72015417 50 138 117
-0.1536366 -0.30275831 -0.72279274 60 142 115
-0.15228581 -0.30355585 -0.72107333 52 140 117
-0.15140603 -0.30294475 -0.72002327 50 138 117
-0.15142518 -0.30559319 -0.7198835 43 138 118
-0.15437803 -0.31676906 -0.72271574 45 136 116
-0.15356673 -0.31635204 -0.72175872 45 135 117
-0.1533117 -0.31641293 -0.72144383 45 135 116
-0.15294792 -0.31810564 -0.720873 46 136 116
-0.15275171 -0.3182874 -0.72062051 46 136 116
-0.15144232 -0.3165665 -0.71917588 45 135 116
-0.15154362 -0.31817111 -0.71916133 45 137 116
-0.15473682 -0.32032403 -0.72303998 46 138 116
-0.15438661 -0.32223892 -0.72265047 45 138 116
-0.1541601 -0.31973085 -0.72233695 45 137 116
-0.15384287 -0.31938714 -0.72192007 45 136 116
-0.1542695 -0.31854284 -0.72246194 46 136 116
-0.15306588 -0.3185797 -0.72098827 46 136 116
-0.15396251 -0.31879234 -0.7220704 46 137 116
-0.15331231 -0.31887841 -0.72127593 46 137 116
-0.15335684 -0.31891885 -0.72132844 45 136 116
-0.15466809 -0.32278809 -0.72289956 46 138 116
-0.15475121 -0.3254233 -0.72266358 50 140 114
-0.15470186 -0.32434192 -0.72274339 48 139 114
-0.15415718 -0.32393336 -0.72218287 46 139 114
-0.15352273 -0.3253122 -0.72128403 47 137 114
-0.15378819 -0.32363868 -0.72179681 45 137 115
-0.15477663 -0.32689744 -0.72262651 48 140 113
-0.15474626 -0.32881489 -0.72265303 44 137 114
-0.15308334 -0.32819122 -0.72060949 46 139 113
-0.15363564 -0.32853797 -0.72126204 47 138 113
-0.15420049 -0.32864794 -0.72193122 47 137 113
-0.15285017 -0.32894897 -0.72032738 45 137 114
-0.15391877 -0.3268266 -0.72161055 50 139 114
-0.15297401 -0.32685104 -0.72052598 46 137 114
-0.15335564 -0.32664362 -0.72097003 48 137 114
-0.15306748 -0.32706463 -0.72062612 46 138 114
-0.15443277 -0.33082804 -0.72220397 45 136 113
-0.15458718 -0.33351707 -0.72238714 46 135 115
-0.15381691 -0.33152786 -0.72149086 48 135 113
-0.15427084 -0.33170089 -0.72199786 49 135 114
-0.15416178 -0.33195236 -0.72187465 49 135 114
-0.15193377 -0.33154169 -0.71928984 46 135 114
-0.15334475 -0.33024371 -0.7209121 45 136 113
-0.15245248 -0.33087352 -0.71987867 46 135 114
-0.16364694 -0.30522498 -0.73484206 44 138 112
-0.16416578 -0.30796635 -0.73518056 45 135 112
-0.16558316 -0.32893068 -0.73546153 57 137 114
-0.1650492 -0.32779616 -0.73482198 52 140 111
-0.12793776 -0.31358561 -0.6949569 52 140 114
-0.12806 -0.31313145 -0.69514102 54 139 115
-0.12733419 -0.31378382 -0.69443107 52 141 113
-0.12563755 -0.31442133 -0.69306099 51 144 112
-0.1279033 -0.31507254 -0.69468427 51 138 114
-0.12929711 -0.31770039 -0.69546419 52 135 117
-0.12904534 -0.31659967 -0.69540638 51 136 117
-0.12925066 -0.31633627 -0.69560754 50 136 117
-0.12745942 -0.31699547 -0.69407356 55 138 115
-0.12706847 -0.31491244 -0.69403023 51 141 113
-0.12728246 -0.31636271 -0.69401342 54 138 114
-0.127729 -0.31599718 -0.69442141 51 139 114
-0.12826727 -0.31798589 -0.69459593 55 135 117
-0.12682125 -0.3146899 -0.69386727 51 141 112
-0.12662846 -0.31614706 -0.69353235 54 139 114
-0.1257937 -0.31505471 -0.69307625 53 142 113
-0.12810609 -0.31918392 -0.69438314 55 135 116
-0.12938754 -0.32096633 -0.69534332 50 134 116
-0.12873994 -0.31867862 -0.69491529 54 135 117
-0.12856022 -0.32229465 -0.69461453 52 134 116
-0.15867126 -0.29314417 -0.73066437 33 143 108
-0.15870056 -0.29401454 -0.73046666 27 148 105
-0.15787114 -0.29465768 -0.72923958 25 149 106
-0.15790725 -0.29412183 -0.72943044 28 146 108
-0.15752853 -0.29260224 -0.72935325 43 138 117
-0.1580136 -0.29385227 -0.72963983 29 146 108
-0.15710013 -0.29484764 -0.72819716 29 146 112
-0.15628923 -0.29104778 -0.72830456 51 138 117
-0.15628707 -0.29376134 -0.72747594 41 140 118
-0.15670481 -0.29187676 -0.72855902 47 137 117
-0.155443 -0.29174966 -0.72705895 49 139 117
-0.15689956 -0.2918731 -0.72879761 47 138 118
-0.15737276 -0.29222283 -0.72926819 46 136 117
-0.15891281 -0.29603374 -0.73026675 24 148 105
-0.15864752 -0.29509509 -0.73012048 21 151 103
-0.15874504 -0.29503849 -0.73025471 21 151 102
-0.15826504 -0.29517984 -0.72962207 24 149 104
-0.15822302 -0.29538885 -0.7295289 28 148 105
-0.15879001 -0.29791567 -0.7297433 55 135 116
-0.15934987 -0.29843089 -0.73034126 44 136 116
-0.15763079 -0.29759693 -0.7283687 72 133 118
-0.15693241 -0.29845369 -0.72734171 89 129 123
-0.157755 -0.29760328 -0.72852039 70 134 117
-0.15750371 -0.29606798 -0.72849679 45 142 111
-0.15679383 -0.29812276 -0.72722709 85 129 123
-0.15675078 -0.29831702 -0.72713798 88 128 124
-0.15727098 -0.2967166 -0.72808486 58 138 115
-0.15926561 -0.30051878 -0.72990376 69 133 120
-0.15902099 -0.29895103 -0.72983491 64 131 120
-0.16008368 -0.30166027 -0.73075223 50 139 117
-0.15937708 -0.29956186 -0.73018706 58 132 118
-0.15926422 -0.30146602 -0.72975481 65 135 119
-0.15880154 -0.30183637 -0.72911352 59 136 117
-0.15931323 -0.3011241 -0.72987038 68 134 119
-0.1586075 -0.30264682 -0.72874141 51 138 117
-0.15885182 -0.30007812 -0.72945374 78 131 121
-0.15730596 -0.30267608 -0.72716266 46 137 117
-0.1577411 -0.30085546 -0.72796565 68 132 120
-0.15711458 -0.30174512 -0.72706908 57 134 120
-0.15727977 -0.30113313 -0.72736144 65 132 120
-0.15723984 -0.30045289 -0.72741109 74 131 122
-0.15714918 -0.30047819 -0.72729582 74 131 122
-0.160183 -0.30535433 -0.73049819 46 140 115
-0.16020912 -0.30442545 -0.73060721 47 141 115
-0.15891385 -0.30357528 -0.7290448 48 140 115
-0.16021727 -0.3055349 -0.73052657 45 140 114
-0.15978724 -0.30519962 -0.73001218 46 140 115
-0.15855946 -0.30439141 -0.72847986 45 138 116
-0.15940388 -0.30647451 -0.72934037 40 138 116
-0.15901707 -0.30631596 -0.7288425 40 138 116
-0.15840536 -0.30491266 -0.72820544 43 137 118
-0.15836887 -0.30353519 -0.72833598 47 138 116
-0.15805882 -0.3044025 -0.72782254 44 138 117
-0.15783612 -0.30375081 -0.72764248 45 138 117
-0.1573853 -0.30339026 -0.72715718 43 137 118
-0.15959236 -0.3079195 -0.72944713 40 138 116
-0.15925588 -0.30775848 -0.72901177 39 137 117
-0.16025171 -0.30865678 -0.73025936 40 139 114
-0.16035813 -0.30802262 -0.73046362 41 139 115
-0.15911166 -0.30686203 -0.7289055 40 137 117
-0.16060704 -0.30957469 -0.73064649 40 139 114
-0.15964335 -0.30879691 -0.72943127 38 139 116
-0.15885745 -0.30832702 -0.72845936 36 139 115
-0.16083966 -0.31126353 -0.7308265 38 140 113
-0.16074365 -0.31123844 -0.73070645 38 139 114
-0.15898445 -0.31679392 -0.72821534 42 136 114
-0.15956566 -0.31702754 -0.7288968 42 136 113
-0.15862277 -0.317321 -0.72771782 43 138 115
-0.15806454 -0.31745058 -0.72702783 44 138 116
-0.15881237 -0.32071519 -0.72773194 48 138 112
-0.15943094 -0.32026941 -0.728504 47 138 111
-0.15905102 -0.3195971 -0.72807133 45 139 112
-0.15883981 -0.32095173 -0.72775495 48 139 112
-0.15905921 -0.3197782 -0.7280733 45 139 111
-0.15843539 -0.32068235 -0.72727484 48 139 112
-0.16028367 -0.32064176 -0.72961617 47 138 111
-0.16010642 -0.3209087 -0.72939265 48 137 110
-0.16074087 -0.32156935 -0.7302705 49 138 111
-0.15957411 -0.32142535 -0.72870767 49 139 110
-0.16004613 -0.32021001 -0.72927862 46 138 110
-0.16041191 -0.32030749 -0.72977114 46 138 110
-0.15945627 -0.32084656 -0.72852266 48 137 110
-0.16109882 -0.32414615 -0.73059011 51 138 112
-0.16124411 -0.32500148 -0.73069149 50 138 112
-0.16059956 -0.32336548 -0.73002005 51 138 112
-0.16066185 -0.32516831 -0.72991604 50 138 112
-0.16068968 -0.32319388 -0.73015505 51 138 112
-0.15949996 -0.32539278 -0.72837973 51 138 112
-0.16090319 -0.32497287 -0.73025042 50 138 112
-0.1604971 -0.32317618 -0.72990501 52 137 113
-0.15912551 -0.32463604 -0.72795731 52 137 113
-0.1591792 -0.32314259 -0.72815025 52 137 113
-0.15920667 -0.32233873 -0.72825223 52 138 112
-0.15869693 -0.32463858 -0.72738564 52 137 113
-0.15932466 -0.32251862 -0.72839499 52 138 112
-0.15933797 -0.32342315 -0.7283392 52 137 113
-0.15989055 -0.3298957 -0.72858465 42 139 112
-0.16124865 -0.3270404 -0.73053944 51 138 113
-0.16141495 -0.32664591 -0.73077965 51 138 112
-0.15899378 -0.32719573 -0.7275517 45 139 113
-0.15996955 -0.32742253 -0.72880286 43 139 113
-0.15930408 -0.32670054 -0.72799879 47 138 113
-0.15976788 -0.32692677 -0.72858316 46 138 113
-0.16097458 -0.32634524 -0.73020524 50 138 113
-0.15852681 -0.32680008 -0.72697777 47 138 113
-0.1587114 -0.32741281 -0.7271651 43 139 113
-0.12910098 -0.28294444 -0.70639819 45 135 112
-0.12782814 -0.28210893 -0.70607841 42 135 114
-0.12924679 -0.28295499 -0.7064743 45 135 112
-0.12312258 -0.28186497 -0.70367193 39 133 117
-0.12407597 -0.28255352 -0.70383996 42 133 116
-0.12420455 -0.2817449 -0.70434636 38 134 115
-0.12482429 -0.28236812 -0.70435441 40 133 116
-0.12617809 -0.28102285 -0.705724 37 135 115
-0.12606394 -0.28100911 -0.7056756 37 135 115
-0.12575957 -0.28176779 -0.70517784 37 135 114
-0.12784418 -0.28435135 -0.70507318 45 135 113
-0.12760933 -0.28404257 -0.70507926 43 135 113
-0.12781836 -0.28331763 -0.7055164 43 134 114
-0.12787877 -0.2836116 -0.70542353 43 135 113
-0.12834211 -0.2840521 -0.70549154 45 134 113
-0.12609492 -0.28329653 -0.70456415 42 134 115
-0.12647027 -0.28507608 -0.70391178 46 134 115
-0.12633449 -0.28353411 -0.7045821 42 134 115
-0.1259703 -0.28334832 -0.7044701 42 134 115
-0.1367348 -0.29346618 -0.70732504 48 132 116
-0.13295107 -0.29492715 -0.70383531 47 133 116
-0.14037618 -0.30931413 -0.7071436 54 136 117
-0.13870004 -0.30949655 -0.70523071 55 139 118
-0.14013724 -0.31050768 -0.70672846 51 138 117
-0.1382139 -0.30938321 -0.70476186 54 139 117
-0.13812746 -0.31018597 -0.70458043 52 141 117
-0.13825923 -0.30928275 -0.70481855 54 139 117
-0.13710871 -0.31024832 -0.70357734 51 140 117
-0.13700521 -0.30949146 -0.70359451 54 140 117
-0.14080089 -0.31262848 -0.70729196 46 136 117
-0.14029622 -0.31267965 -0.70671898 46 137 118
-0.14051695 -0.31115508 -0.70709914 49 136 117
-0.14041771 -0.31122321 -0.70698148 49 136 117
-0.13873607 -0.31124684 -0.70506775 50 140 118
-0.13974489 -0.31308442 -0.7060405 46 137 118
-0.14028729 -0.31406018 -0.70656502 43 136 119
-0.13938014 -0.31235683 -0.70569611 47 138 119
-0.14002088 -0.31385282 -0.70627618 44 136 119
-0.13867128 -0.3133069 -0.70475501 45 136 119
-0.13854769 -0.31305191 -0.70466274 46 137 118
-0.13748039 -0.31185248 -0.70375025 48 139 118
-0.13797072 -0.31183425 -0.7042349 48 139 118
-0.13793722 -0.31290892 -0.70407844 47 137 118
-0.14054383 -0.31484681 -0.70679158 42 134 119
-0.13850817 -0.31473964 -0.70443827 42 134 119
-0.13857359 -0.31455883 -0.70451808 43 134 119
-0.14724384 -0.2904925 -0.71814013 54 137 119
-0.14777024 -0.29097721 -0.71857208 54 137 119
-0.14633706 -0.29011446 -0.71727431 55 137 119
-0.14760011 -0.29126027 -0.71829963 54 137 119
-0.1468057 -0.29107341 -0.71747303 55 138 119
-0.14775017 -0.29485086 -0.71745437 49 135 118
-0.14722577 -0.29447779 -0.71698868 49 135 118
-0.14632812 -0.29180843 -0.71675891 54 136 120
-0.14595094 -0.29491559 -0.71552813 48 134 118
-0.1452332 -0.29284143 -0.71541262 51 134 119
-0.14578524 -0.29325101 -0.71582729 51 135 119
-0.1454457 -0.29228881 -0.7157737 52 135 119
-0.14737922 -0.29556739 -0.71687621 47 135 118
-0.14693327 -0.29696321 -0.71605384 47 135 118
-0.14823748 -0.29527146 -0.71787745 48 136 118
-0.14687721 -0.29660627 -0.71608001 47 135 118
-0.14701742 -0.2967945 -0.71618599 47 135 117
-0.1469478 -0.29859015 -0.71568531 45 136 117
-0.14885244 -0.29621539 -0.71834022 47 136 117
-0.1495987 -0.29787329 -0.71886253 44 136 117
-0.14720409 -0.29873079 -0.71595049 45 136 118
-0.14960131 -0.2985301 -0.71873403 43 138 117
-0.14818242 -0.29687858 -0.71744078 47 135 117
-0.14898512 -0.29778427 -0.71817809 45 136 117
-0.14638044 -0.29678532 -0.71550506 46 135 118
-0.15050824 -0.30227798 -0.71903253 47 138 118
-0.14923322 -0.30204883 -0.7176913 48 138 118
-0.15027481 -0.30239269 -0.71875751 47 138 118
-0.15029226 -0.30180109 -0.7188828 46 138 118
-0.14946382 -0.30061236 -0.71821034 45 138 117
-0.14929752 -0.30008227 -0.71813357 45 138 117
-0.15024492 -0.30021536 -0.71912736 44 137 118
-0.14935936 -0.30142456 -0.71794134 46 139 117
-0.14724717 -0.29895625 -0.71596217 45 136 118
-0.14827837 -0.30092239 -0.71686405 46 139 116
-0.14723799 -0.30000567 -0.71580315 47 137 118
-0.14795573 -0.30115601 -0.71646178 47 139 117
-0.14964887 -0.2991983 -0.71867645 43 138 117
-0.1493316 -0.29931048 -0.71829748 44 138 117
-0.14789914 -0.30156243 -0.71633953 48 139 117
-0.1507429 -0.30520961 -0.71907234 42 138 118
-0.15002513 -0.30339181 -0.71836525 47 138 118
-0.14962497 -0.30643368 -0.71770924 40 138 118
-0.14831384 -0.30643198 -0.71623105 45 138 118
-0.14986286 -0.30507591 -0.7180689 43 138 118
-0.14894678 -0.30591321 -0.71697968 43 139 118
-0.15026943 -0.30432904 -0.71857762 44 138 118
-0.14749321 -0.30419296 -0.71553648 48 139 117
-0.14902493 -0.30338413 -0.71727693 48 139 118
-0.14847155 -0.30387184 -0.71662843 48 139 118
-0.14963421 -0.30299324 -0.71797621 48 138 118
-0.14889136 -0.30377075 -0.71709329 48 139 118
-0.1478872 -0.30477065 -0.71590489 48 139 118
-0.14797348 -0.31023002 -0.71556675 47 141 115
-0.14866728 -0.31051162 -0.71635801 46 138 116
-0.14842807 -0.30672958 -0.71633917 43 139 118
-0.14767072 -0.30836749 -0.71536279 47 139 117
-0.14816605 -0.30935162 -0.71584767 46 140 116
-0.14827171 -0.30912042 -0.71598411 46 140 116
-0.14767113 -0.30729187 -0.71544367 46 140 118
-0.14820819 -0.30896759 -0.71592396 46 140 116
-0.14801097 -0.31098649 -0.71557802 47 138 116
-0.15102944 -0.3176991 -0.71862018 46 136 116
-0.14996533 -0.31642929 -0.71752781 45 135 116
-0.14934239 -0.31724921 -0.71680015 45 135 116
-0.14988494 -0.31816402 -0.71734297 47 136 116
-0.15106435 -0.31910211 -0.71859425 46 137 116
-0.15036014 -0.31954113 -0.71775603 46 138 116
-0.1490211 -0.31919318 -0.7163074 46 136 116
-0.14942646 -0.31885597 -0.71678311 46 137 116
-0.14871117 -0.31883407 -0.71600229 46 136 116
-0.15138493 -0.33567157 -0.71885532 47 136 115
-0.1601526 -0.29465768 -0.73212171 24 147 106
-0.16047569 -0.29437104 -0.73262125 24 147 107
-0.15930134 -0.2922866 -0.7317434 34 142 111
-0.15921079 -0.2925157 -0.73155594 33 143 110
-0.15907504 -0.2931675 -0.73118645 31 144 108
-0.16047718 -0.3026627 -0.73109728 51 140 116
-0.16287273 -0.30640072 -0.73368287 45 139 110
-0.16246703 -0.30494922 -0.73335493 44 140 112
-0.16233453 -0.30557889 -0.73311621 43 140 112
-0.16102181 -0.30585384 -0.73151088 43 140 114
-0.1619269 -0.3057543 -0.73260003 42 141 111
-0.16208963 -0.30291256 -0.73313266 43 141 116
-0.16141148 -0.30640489 -0.73190892 43 140 112
-0.16144511 -0.30399892 -0.73222148 45 141 116
-0.1610283 -0.3046385 -0.73163444 46 140 116
-0.16097382 -0.30507672 -0.73152816 44 141 115
-0.16114162 -0.30333453 -0.73188812 47 140 116
-0.16351187 -0.30805817 -0.73434943 40 136 111
-0.16362654 -0.30703059 -0.7345593 45 137 109
-0.16291711 -0.3073867 -0.73365951 41 139 110
-0.1629273 -0.30678612 -0.73371196 44 138 110
-0.16130996 -0.31080189 -0.73139936 39 139 113
-0.16085824 -0.3109169 -0.73086727 40 138 114
-0.16154812 -0.32092693 -0.7312566 46 138 111
-0.16183691 -0.32057241 -0.73160595 45 138 110
-0.16140153 -0.32105321 -0.73108447 47 138 111
-0.16223069 -0.32227805 -0.73223954 48 139 112
-0.16219252 -0.3256714 -0.73181099 51 138 113
-0.16245009 -0.32288703 -0.73239988 48 139 111
-0.1621578 -0.32361516 -0.73200983 50 138 112
-0.16213946 -0.32534945 -0.73179209 51 138 113
-0.16274408 -0.32511082 -0.73245388 48 140 111
-0.16186604 -0.32486433 -0.73151124 50 138 112
-0.16152026 -0.32477167 -0.73107719 50 138 112
-0.16163182 -0.32352164 -0.731354 50 138 112
-0.16230825 -0.3263599 -0.73188347 52 137 113
-0.16384161 -0.32656571 -0.73350173 48 141 110
-0.1642509 -0.32733718 -0.73396546 52 140 111
-0.16369203 -0.3323113 -0.73341906 54 137 112
-0.16352522 -0.33274716 -0.7332238 54 136 114
-0.16315034 -0.33271602 -0.73279727 55 135 115
0 0 0 1 0 0 0 1 0 0 0 1 0 0 0 0 0 742 1 0 0
