ply
format ascii 1.0
comment PCL generated
element vertex 760
property float x
property float y
property float z
property uchar red
property uchar green
property uchar blue
element camera 1
property float view_px
property float view_py
property float view_pz
property float x_axisx
property float x_axisy
property float x_axisz
property float y_axisx
property float y_axisy
property float y_axisz
property float z_axisx
property float z_axisy
property float z_axisz
property float focal
property float scalex
property float scaley
property float centerx
property float centery
property int viewportx
property int viewporty
property float k1
property float k2
end_header
0.031991437 -0.21678157 -0.70346177 23 139 114
0.013197456 -0.21913271 -0.69976187 21 133 116
0.013303155 -0.21907133 -0.69978011 21 133 116
0.017126059 -0.2199385 -0.70026201 21 133 117
0.013682043 -0.21936718 -0.69978219 21 133 116
0.019117724 -0.22061509 -0.70052534 20 135 116
0.019347738 -0.22068226 -0.70055878 20 135 116
0.032140147 -0.21913585 -0.70332766 20 137 115
0.032091171 -0.21741244 -0.70343816 23 138 115
0.032275859 -0.21875809 -0.70338231 20 137 115
0.031069295 -0.22012119 -0.7029773 21 135 116
0.017232822 -0.22459061 -0.69971943 20 135 115
0.013910661 -0.22102398 -0.69961369 19 135 115
0.016739447 -0.22332062 -0.69979483 20 135 116
0.016967803 -0.2237875 -0.69977641 20 135 116
0.015150315 -0.2215365 -0.69975173 19 134 116
0.017484445 -0.22087443 -0.70019907 20 133 116
0.016843008 -0.22089641 -0.70009494 20 133 116
0.015991943 -0.22288786 -0.699727 19 135 116
0.018861298 -0.22360478 -0.70012027 20 135 116
0.021327492 -0.2221497 -0.70071095 20 135 117
0.020534026 -0.22170715 -0.70065308 21 135 116
0.021314882 -0.22418067 -0.70041412 19 135 118
0.018646305 -0.22420198 -0.70000046 20 135 116
0.017689321 -0.22177511 -0.70012879 20 133 116
0.018915825 -0.22156763 -0.70037639 20 135 116
0.020906165 -0.22118188 -0.70078379 21 135 116
0.018212367 -0.22213407 -0.70018208 20 135 116
0.020481339 -0.22169997 -0.70064586 21 135 116
0.022055045 -0.224198 -0.70055115 20 135 118
0.025023486 -0.22323543 -0.70130479 21 137 117
0.024176303 -0.22237511 -0.70123124 21 137 116
0.022012649 -0.22409774 -0.70055461 20 135 118
0.023257157 -0.2210785 -0.70123267 21 137 116
0.022717359 -0.22268319 -0.70089555 21 135 118
0.022679389 -0.22129238 -0.70109016 21 137 116
0.021878377 -0.22212814 -0.70081425 21 135 117
0.021607444 -0.22258095 -0.70069623 21 135 118
0.028819563 -0.22422196 -0.70200408 21 135 120
0.027963934 -0.22310607 -0.70193398 21 137 118
0.028746378 -0.22442816 -0.70196635 21 135 120
0.027576519 -0.22356805 -0.70180047 21 137 118
0.031791348 -0.22287028 -0.7028532 20 135 118
0.032989882 -0.22255859 -0.7031678 19 137 116
0.030719919 -0.22423851 -0.70244157 21 133 119
0.030174565 -0.22389036 -0.70235705 21 133 120
0.031751208 -0.22311087 -0.70281512 20 135 117
0.032532763 -0.2212591 -0.70321578 19 134 116
0.031330742 -0.22221863 -0.70281935 20 135 118
0.031098507 -0.22226606 -0.7027573 20 135 118
0.03230422 -0.22079416 -0.70320851 20 135 116
0.033662893 -0.22407593 -0.70313841 21 138 116
0.033730514 -0.22396345 -0.70316684 21 138 116
0.034868162 -0.2238051 -0.70344234 24 138 115
0.033406194 -0.22109604 -0.70343322 19 134 116
0.017206088 -0.22479716 -0.69968021 20 135 115
0.020968234 -0.22835316 -0.69964743 18 134 118
0.019226627 -0.22675897 -0.69965822 19 135 116
0.021037044 -0.22786193 -0.69974303 18 134 118
0.020164099 -0.22467624 -0.70016319 19 135 118
0.021082213 -0.22586328 -0.70009786 19 134 118
0.020126697 -0.22714411 -0.69972795 18 134 117
0.02141208 -0.22567664 -0.70018113 19 134 118
0.021146649 -0.22637589 -0.70001853 19 134 118
0.024491642 -0.22672227 -0.70064038 19 137 117
0.022389326 -0.22817753 -0.69994467 18 134 118
0.024928547 -0.2281812 -0.70046127 19 134 116
0.023238793 -0.2280665 -0.70013809 18 134 117
0.025241196 -0.22510886 -0.70108962 20 137 118
0.023713045 -0.22650015 -0.70052254 19 135 118
0.02207521 -0.22647722 -0.70017904 19 134 118
0.023564912 -0.22461088 -0.70082188 19 137 118
0.022606581 -0.22639339 -0.70030701 19 134 118
0.024740295 -0.22522369 -0.70096612 20 137 119
0.023020159 -0.22649401 -0.70037782 19 135 118
0.029152671 -0.22605425 -0.70174807 21 133 118
0.027436955 -0.22830828 -0.70094854 21 133 116
0.027390264 -0.22827111 -0.70094657 21 133 116
0.027417509 -0.22743347 -0.70112056 20 135 117
0.028494999 -0.22850619 -0.70112216 21 135 115
0.028724186 -0.22661695 -0.70154846 21 135 118
0.027277865 -0.22534198 -0.70149076 20 135 119
0.026152443 -0.2265781 -0.70101702 20 135 118
0.025415465 -0.22792441 -0.70060807 19 135 116
0.027944574 -0.22590807 -0.7015329 21 133 119
0.025393991 -0.22600245 -0.70095652 19 137 117
0.032522183 -0.22715975 -0.70240515 23 138 115
0.032109097 -0.22626133 -0.70241743 21 137 115
0.031118143 -0.2271686 -0.70200092 21 137 115
0.032855913 -0.2265389 -0.70259136 23 138 115
0.030018969 -0.22586808 -0.70198178 21 135 118
0.031463563 -0.22509573 -0.70247149 20 137 116
0.030417882 -0.22581284 -0.7020852 21 135 117
0.032109298 -0.22520341 -0.70259929 21 135 116
0.029508088 -0.22655103 -0.70172614 21 135 117
0.030674485 -0.22580492 -0.70214623 21 135 117
0.036209557 -0.22555649 -0.70350206 25 139 114
0.035210177 -0.22628345 -0.70316255 21 138 115
0.035385244 -0.22601992 -0.70324343 24 138 115
0.036431823 -0.22693537 -0.70333612 24 139 115
0.03623037 -0.22717114 -0.70325357 24 138 115
0.035323173 -0.2282863 -0.70289135 23 139 114
0.034788962 -0.22765574 -0.70286852 23 138 115
0.035053533 -0.22838475 -0.70281911 23 139 114
0.033411607 -0.22515473 -0.70293725 21 138 116
0.033757456 -0.22733141 -0.70269448 23 139 114
0.037133064 -0.22844829 -0.70325857 24 138 115
0.024422394 -0.23234388 -0.6996364 20 135 113
0.02289862 -0.23016214 -0.69969887 19 134 116
0.024854124 -0.22903423 -0.70029265 19 134 116
0.022707818 -0.22933081 -0.69980276 18 134 116
0.023081919 -0.2289928 -0.69993895 18 134 116
0.023157574 -0.22904001 -0.69994599 18 134 116
0.02159046 -0.22857489 -0.69970924 18 134 118
0.027742876 -0.2301138 -0.70068479 21 135 114
0.028737413 -0.22967546 -0.70096081 23 136 114
0.026968967 -0.23128238 -0.70031965 21 135 113
0.028331079 -0.22942021 -0.70092678 21 137 114
0.026473846 -0.22904937 -0.70061779 19 135 115
0.026095031 -0.23145081 -0.70011538 20 135 113
0.028122338 -0.22934648 -0.70089769 21 135 115
0.028689981 -0.22858381 -0.70114756 21 135 115
0.032393593 -0.23140615 -0.7016086 25 137 113
0.032174602 -0.22861896 -0.70208913 24 138 114
0.037016138 -0.22924058 -0.70312124 24 138 115
0.033731975 -0.22859417 -0.70250088 24 138 114
0.035216182 -0.22910507 -0.70271742 23 139 114
0.035489582 -0.22986509 -0.7026245 23 138 115
0.038441435 -0.22920398 -0.70350266 27 137 115
0.038198844 -0.22968388 -0.7033788 27 138 115
0.03770927 -0.22854854 -0.70341116 24 138 115
0.044618506 -0.17913118 -0.71195179 20 135 118
0.044413175 -0.18065463 -0.71165568 19 135 118
0.043817058 -0.18052816 -0.71145791 20 135 119
0.044740085 -0.18141396 -0.71165878 17 136 118
0.048128698 -0.17973705 -0.71323663 21 133 116
0.046208225 -0.18036672 -0.71238983 18 136 116
0.048383337 -0.17927095 -0.71340841 21 133 116
0.045624133 -0.17913565 -0.71233797 20 135 118
0.045244854 -0.1809745 -0.71191663 17 136 118
0.04515532 -0.18085553 -0.71189845 18 136 118
0.045001917 -0.18035972 -0.71191007 19 135 118
0.050793186 -0.18081266 -0.71416646 20 133 116
0.049244985 -0.18159354 -0.71339542 20 133 116
0.044809557 -0.18214203 -0.71158117 17 136 118
0.045691635 -0.18532631 -0.71148455 19 134 118
0.04797031 -0.18504183 -0.712367 20 133 120
0.046873633 -0.18481776 -0.7119894 19 135 119
0.046634227 -0.18433429 -0.71196526 19 134 119
0.04634523 -0.18404543 -0.7118966 19 134 119
0.048075359 -0.18214208 -0.71284324 20 133 117
0.046459116 -0.18285015 -0.71210515 19 134 118
0.048749078 -0.18227316 -0.71308595 20 133 117
0.04563196 -0.18214442 -0.71189016 17 136 118
0.045288183 -0.18198025 -0.71178108 17 136 118
0.047148533 -0.18298763 -0.71235305 19 134 118
0.052105375 -0.18249011 -0.71445644 20 133 118
0.051324774 -0.18378145 -0.71392655 21 133 119
0.050142437 -0.18267205 -0.71360749 20 133 118
0.050854225 -0.18196233 -0.71401429 20 133 117
0.049686894 -0.18347555 -0.71329397 21 133 119
0.049503822 -0.18269119 -0.71333665 21 133 118
0.047578137 -0.18760017 -0.71182889 19 135 118
0.047729261 -0.18738881 -0.71191847 19 135 118
0.046114277 -0.18597707 -0.7115441 19 135 118
0.0480102 -0.18708226 -0.71207124 20 133 120
0.046656579 -0.18614562 -0.71171832 19 135 118
0.04797519 -0.18862216 -0.71181697 19 135 118
0.047419883 -0.18837298 -0.71165997 20 133 119
0.04641293 -0.18716323 -0.71147686 19 135 118
0.05028322 -0.18839227 -0.7127676 21 133 120
0.052400343 -0.18899076 -0.71358359 21 133 119
0.049934011 -0.18738905 -0.71277755 21 133 120
0.048897956 -0.18757473 -0.71232474 20 133 120
0.04896557 -0.18879053 -0.71215934 19 135 119
0.048119821 -0.19056517 -0.71162105 20 135 119
0.048345573 -0.19189501 -0.71153814 21 133 119
0.051911205 -0.19174027 -0.71295196 21 133 120
0.050461382 -0.19318029 -0.71216202 21 133 120
0.052396223 -0.19173449 -0.71313214 21 133 120
0.049816255 -0.18985954 -0.71236944 20 133 119
0.051538568 -0.19007806 -0.713076 21 133 119
0.049633708 -0.19064765 -0.71219677 20 135 118
0.0531203 -0.19234926 -0.71332783 21 133 120
0.052761413 -0.19062431 -0.71346581 21 133 119
0.053259801 -0.19232391 -0.71339715 21 133 120
0.053105406 -0.19148193 -0.71347409 21 133 120
0.050459418 -0.19720897 -0.71158874 16 132 121
0.051517908 -0.19685617 -0.71203512 17 134 122
0.051096931 -0.1959037 -0.71201342 19 132 122
0.050721895 -0.19584297 -0.71188247 19 132 122
0.051478896 -0.19538215 -0.71222723 19 134 122
0.05054798 -0.19484816 -0.71195698 20 133 121
0.051653381 -0.19505055 -0.71233743 19 134 122
0.0502096 -0.19378984 -0.71197802 21 133 120
0.052680213 -0.19681415 -0.71247351 17 134 124
0.053483378 -0.19653884 -0.71287942 18 134 122
0.053874403 -0.19691885 -0.71300745 18 134 122
0.053133618 -0.19585514 -0.71281129 18 134 122
0.053133342 -0.19406898 -0.71305758 20 133 121
0.052656062 -0.19990855 -0.71203452 15 132 124
0.052510258 -0.20007522 -0.7119568 15 132 124
0.051474065 -0.19894232 -0.71172684 16 130 123
0.052146919 -0.19938102 -0.71191746 15 132 123
0.050165135 -0.19808432 -0.71135587 16 132 121
0.050870772 -0.19915931 -0.71146989 15 132 123
0.053191938 -0.20082913 -0.71214527 15 132 124
0.05458919 -0.20049714 -0.71281606 17 134 122
0.055304222 -0.19968399 -0.71326226 18 134 122
0.05485845 -0.20002438 -0.71301073 18 134 122
0.055880722 -0.19986278 -0.71348846 19 134 121
0.05501816 -0.19986501 -0.71310681 18 134 122
0.054925971 -0.19854751 -0.7132678 18 134 122
0.054262076 -0.19898868 -0.71289903 17 134 124
0.052925285 -0.19877838 -0.71230936 16 134 124
0.05317964 -0.19947715 -0.71232998 16 132 124
0.052888479 -0.20095906 -0.7119891 14 132 125
0.053836085 -0.19900031 -0.71270019 17 132 124
0.05801731 -0.20115949 -0.71419954 21 135 119
0.052468624 -0.20204248 -0.71166205 14 132 123
0.052551288 -0.20252092 -0.71162415 14 132 123
0.052816704 -0.20373611 -0.71155357 15 132 123
0.053884659 -0.20364743 -0.71203172 16 134 121
0.054232374 -0.20480675 -0.71201575 17 134 122
0.054345232 -0.20456879 -0.71209931 17 134 122
0.053446002 -0.20494936 -0.71165246 15 134 121
0.056290887 -0.20504005 -0.71287888 20 137 119
0.055290334 -0.20198353 -0.71289563 18 134 121
0.055237081 -0.20332462 -0.71266985 18 134 121
0.056147862 -0.20160957 -0.71333104 19 135 120
0.056378428 -0.20430541 -0.71302646 20 135 120
0.055961229 -0.20206745 -0.71317953 19 134 120
0.053128261 -0.20146556 -0.71201801 15 132 124
0.058119103 -0.2024705 -0.71406102 20 137 119
0.058408692 -0.20175134 -0.71428293 21 137 119
0.057741605 -0.20174113 -0.71400207 20 137 119
0.059944518 -0.20437184 -0.71457064 21 138 120
0.06015062 -0.20456067 -0.71463174 21 138 120
0.057114597 -0.20316572 -0.71352071 20 137 119
0.058478337 -0.20345616 -0.71407121 21 135 120
0.05685854 -0.2047102 -0.71317625 20 137 119
0.056848042 -0.20182842 -0.71360624 20 135 119
0.057467725 -0.20216741 -0.71382511 20 137 119
0.058300566 -0.20445189 -0.71384358 21 135 120
0.060645644 -0.20377266 -0.71495247 21 138 119
0.055547304 -0.20775372 -0.71219462 21 135 122
0.055880316 -0.20752555 -0.71236998 21 137 121
0.056620494 -0.20838809 -0.71257812 24 135 121
0.053924505 -0.20548403 -0.71178854 17 134 120
0.053402342 -0.20546126 -0.711564 16 132 121
0.054849822 -0.20890751 -0.71173269 21 135 122
0.055563226 -0.20827398 -0.7121315 21 135 122
0.05444441 -0.2088587 -0.71156144 21 135 122
0.054258458 -0.20762528 -0.71164709 20 133 122
0.05940548 -0.20661137 -0.71402234 21 138 120
0.059696265 -0.20875768 -0.71383381 20 133 120
0.060425688 -0.20566843 -0.71459097 21 138 120
0.059499558 -0.20824997 -0.71382427 20 137 120
0.059580348 -0.20576119 -0.71421623 21 138 120
0.058247183 -0.20508161 -0.71372539 21 137 120
0.056886192 -0.20590551 -0.71302307 21 135 120
0.058856457 -0.20590377 -0.71388185 21 138 120
0.061944641 -0.20762718 -0.71498412 19 135 120
0.061902434 -0.20678307 -0.71508723 20 133 120
0.062437247 -0.20821582 -0.71511996 19 134 120
0.061621737 -0.20526405 -0.71518093 20 137 120
0.061044976 -0.20629524 -0.71477365 20 137 120
0.055471491 -0.21077956 -0.71180612 20 135 119
0.056130752 -0.21134245 -0.71203607 20 135 119
0.054750767 -0.2096626 -0.71160746 20 135 121
0.056572378 -0.210896 -0.71227676 20 137 119
0.055277206 -0.21261382 -0.71155751 18 134 118
0.054937385 -0.21144213 -0.71151996 19 134 120
0.054609809 -0.21125336 -0.7114011 19 134 120
0.059975274 -0.20988595 -0.71380508 19 134 119
0.058807779 -0.21220537 -0.71300036 19 135 117
0.059799548 -0.21168663 -0.71344727 19 137 117
0.05912463 -0.21140966 -0.71324587 19 135 118
0.057243649 -0.21229546 -0.71241426 19 135 118
0.059647411 -0.21014434 -0.71364313 19 134 118
0.057739597 -0.21160939 -0.71269673 19 135 118
0.058383673 -0.21090066 -0.71304381 19 134 118
0.056792125 -0.20909706 -0.71256012 24 135 121
0.057503778 -0.21097726 -0.71266347 20 135 119
0.059105694 -0.20944545 -0.71350247 20 133 120
0.057957444 -0.209249 -0.71303725 21 137 121
0.06284669 -0.20924528 -0.71515095 19 132 120
0.063072942 -0.21012938 -0.7151193 20 133 118
0.062440988 -0.21240793 -0.71447527 20 137 115
0.062838882 -0.21256074 -0.71463585 21 137 115
0.062405933 -0.21061119 -0.71473622 19 135 118
0.062471401 -0.20961682 -0.71492106 19 132 119
0.061495487 -0.21007596 -0.7144084 19 135 118
0.060669661 -0.21133032 -0.71383345 19 137 117
0.056122202 -0.21443298 -0.7116524 21 133 118
0.055776931 -0.21431911 -0.71152663 20 135 118
0.059838112 -0.21503593 -0.71295518 23 136 116
0.057420731 -0.21449092 -0.71214306 21 135 116
0.056754678 -0.21506859 -0.71181345 23 135 117
0.059613023 -0.21307936 -0.71315467 19 137 116
0.059136488 -0.21414743 -0.71282119 21 137 116
0.058676269 -0.2132812 -0.71278226 19 137 116
0.064270884 -0.21307053 -0.71521527 25 136 114
0.063004561 -0.21376827 -0.71450168 23 136 115
0.062891126 -0.21300533 -0.71458822 23 136 115
0.060572762 -0.21302623 -0.71351564 20 137 116
0.061946761 -0.21454097 -0.71388125 23 136 116
0.060780302 -0.21337301 -0.71355408 20 137 116
0.078062102 -0.20380962 -0.72366351 21 133 118
0.077494249 -0.20373666 -0.72339308 21 133 118
0.077525511 -0.20284051 -0.72355312 21 133 118
0.079795018 -0.20354234 -0.72461629 21 133 117
0.078495771 -0.20308313 -0.72401094 21 133 118
0.078634135 -0.20330346 -0.72404099 21 133 118
0.081030659 -0.20501019 -0.72505283 21 133 118
0.080795482 -0.20410733 -0.7250911 21 133 118
0.080734335 -0.20499586 -0.72487557 21 133 118
0.080292091 -0.20410407 -0.72478569 21 133 118
0.079067551 -0.20585945 -0.72381675 21 133 118
0.079493627 -0.20574141 -0.72404981 21 133 118
0.077875264 -0.2067173 -0.7230494 21 133 119
0.07808163 -0.20713724 -0.72307259 21 133 119
0.082444772 -0.20645037 -0.72565138 21 133 118
0.080662414 -0.20693544 -0.72448009 21 133 118
0.081170961 -0.2065125 -0.72486562 21 133 118
0.081949092 -0.20682946 -0.72528154 21 133 118
0.079444014 -0.21050011 -0.72307777 21 133 118
0.079656661 -0.20990127 -0.72332513 21 133 119
0.012986239 -0.2204636 -0.69958007 21 133 116
0.012994112 -0.22153389 -0.69944209 20 135 114
0.014273089 -0.22204474 -0.69954062 20 135 114
0.014347756 -0.22195782 -0.69956547 20 135 115
0.017302897 -0.226924 -0.69933343 20 137 114
0.016340455 -0.22573413 -0.69936794 21 137 113
0.016950477 -0.22623061 -0.69939047 21 135 115
0.016926074 -0.2264434 -0.69934964 21 135 115
0.016625218 -0.2275307 -0.69910991 21 137 113
0.016937772 -0.22827663 -0.69904608 21 137 114
0.015927298 -0.22701481 -0.69907862 23 136 113
0.019014971 -0.22801705 -0.6994105 19 135 116
0.018064776 -0.22736552 -0.69937909 20 135 115
0.017981147 -0.22748905 -0.69934535 20 135 115
0.01748047 -0.23015596 -0.69880569 23 138 112
0.017306272 -0.22964272 -0.69887555 23 136 113
0.021082763 -0.2300338 -0.69940203 19 135 116
0.019796737 -0.22985867 -0.69923562 20 135 115
0.021088999 -0.23172119 -0.69914269 20 135 113
0.020592734 -0.22987948 -0.69935215 19 135 116
0.017855451 -0.22900981 -0.6990695 21 137 115
0.019192334 -0.23159313 -0.69884288 23 135 112
0.019822912 -0.23100455 -0.6990571 21 135 114
0.023698885 -0.23194356 -0.69956726 20 133 114
0.023105284 -0.23179081 -0.69948375 20 133 114
0.021747964 -0.23042524 -0.69944948 19 134 116
0.022472031 -0.23041755 -0.69958127 19 134 116
0.024462605 -0.23361774 -0.69941431 26 136 114
0.023980364 -0.23349756 -0.69934911 26 136 114
0.022300387 -0.233932 -0.69898158 26 136 114
0.04459719 -0.18380223 -0.71127981 19 134 118
0.044846203 -0.18526377 -0.71117598 19 134 118
0.044369709 -0.18467295 -0.71108162 20 135 118
0.043195225 -0.18528534 -0.71058834 20 135 118
0.044100359 -0.18552379 -0.71087861 20 133 118
0.042896576 -0.18454404 -0.71057445 21 135 118
0.043570269 -0.18516082 -0.71073622 20 135 118
0.043188214 -0.18536164 -0.71057642 20 135 118
0.044592611 -0.18716039 -0.71085662 20 135 118
0.043736026 -0.18678753 -0.71063799 21 135 118
0.042873003 -0.18625624 -0.71038103 21 135 118
0.044215228 -0.18570898 -0.71090239 20 133 118
0.042785216 -0.18629079 -0.71034706 21 135 118
0.045200117 -0.18648699 -0.71115148 20 135 119
0.047337849 -0.19120513 -0.7112667 21 135 118
0.046399042 -0.1913944 -0.71089667 21 135 118
0.048595127 -0.1954585 -0.71114278 19 132 120
0.047280811 -0.19513474 -0.71070611 19 132 118
0.045643803 -0.19391726 -0.71027917 21 133 117
0.045979019 -0.19374903 -0.71042651 21 133 117
0.048335399 -0.19514289 -0.71109247 19 132 119
0.047132872 -0.19404571 -0.71080792 21 133 118
0.047249366 -0.19724064 -0.71044117 18 134 120
0.045418024 -0.19583562 -0.70998305 21 133 118
0.045850068 -0.19722989 -0.70997202 20 135 119
0.045431841 -0.19392741 -0.71020162 21 133 116
0.047141146 -0.19670054 -0.71046531 18 134 119
0.046834476 -0.1961638 -0.71042246 18 136 118
0.04930691 -0.19620407 -0.71130192 17 134 120
0.043939009 -0.20083995 -0.70873672 20 135 117
0.044141829 -0.20037004 -0.70888364 20 135 118
0.047871627 -0.20059673 -0.71016645 15 134 119
0.047613323 -0.20013322 -0.71013814 15 134 119
0.04802366 -0.19989909 -0.71031731 15 134 120
0.048733566 -0.20068929 -0.71046197 15 132 121
0.047649793 -0.19862981 -0.71035904 16 134 120
0.046917994 -0.19890966 -0.71006435 17 134 119
0.046812151 -0.19893892 -0.71002412 17 134 119
0.045178384 -0.19856513 -0.70953465 20 135 119
0.046328124 -0.19764486 -0.71006817 19 135 119
0.046173029 -0.19912861 -0.70977896 18 134 118
0.045138713 -0.19978391 -0.70932662 19 137 117
0.049762193 -0.20037159 -0.71088719 15 132 122
0.049866755 -0.19935948 -0.71106702 15 132 121
0.049448833 -0.19877501 -0.71099341 15 132 121
0.049394783 -0.19990309 -0.71081614 15 132 121
0.049514938 -0.19727391 -0.71122593 16 132 121
0.042829398 -0.20144288 -0.70825249 21 135 118
0.043982852 -0.20373343 -0.70833921 21 137 116
0.044415135 -0.20186923 -0.70875442 19 137 116
0.047205728 -0.20356221 -0.70949984 17 136 118
0.048239078 -0.20409065 -0.70976877 16 134 119
0.046277981 -0.20506313 -0.70894736 19 135 117
0.048446093 -0.20438515 -0.70979297 16 134 120
0.046705414 -0.2041432 -0.70923787 17 137 118
0.047573317 -0.20174536 -0.70989972 15 136 118
0.046671513 -0.20237158 -0.70948917 17 134 118
0.045653403 -0.20354004 -0.70896077 18 137 115
0.046264391 -0.20140369 -0.70947957 17 134 118
0.045503441 -0.20320567 -0.7089541 18 137 115
0.050517727 -0.20174155 -0.71097511 15 132 122
0.052068345 -0.20368251 -0.71127498 15 132 122
0.052437715 -0.20452753 -0.71129221 15 132 121
0.052449871 -0.20473824 -0.71126676 15 132 121
0.050544724 -0.20333464 -0.71075213 15 132 121
0.048872832 -0.20460266 -0.70990616 15 134 120
0.048927642 -0.20371628 -0.71006691 15 134 120
0.049045473 -0.20336975 -0.71016705 15 134 120
0.050488599 -0.20461413 -0.71052897 15 134 121
0.047081951 -0.20747252 -0.70895743 18 134 119
0.047399517 -0.20695087 -0.70912379 18 134 119
0.046844151 -0.20859049 -0.70874405 18 136 118
0.04707437 -0.20690113 -0.70902479 18 134 119
0.048523299 -0.20606592 -0.70959491 16 136 120
0.048374131 -0.20817497 -0.70928919 16 136 119
0.045236688 -0.20592794 -0.70850146 20 137 116
0.047525741 -0.20632239 -0.70924026 18 134 119
0.047647268 -0.20624681 -0.70928955 17 136 120
0.045190725 -0.20565312 -0.70851445 20 137 116
0.052294731 -0.20879878 -0.71065527 19 134 121
0.051778138 -0.20773311 -0.71060717 17 134 120
0.051822361 -0.20693055 -0.71073258 16 132 121
0.052521724 -0.2085734 -0.71077055 19 134 121
0.052296706 -0.20828815 -0.71072525 18 134 120
0.052199207 -0.20780613 -0.71075428 17 134 120
0.049317785 -0.20810188 -0.70963407 15 134 119
0.049993176 -0.2057151 -0.7101866 15 134 120
0.050401948 -0.20570652 -0.71034569 15 134 120
0.051425003 -0.20534809 -0.71078497 15 134 121
0.050667059 -0.20663019 -0.71033543 15 134 120
0.0530014 -0.20811559 -0.71102905 19 134 121
0.053199455 -0.20800918 -0.71113044 19 134 121
0.046329342 -0.21232656 -0.70816183 19 134 118
0.047178593 -0.21094371 -0.70858878 17 136 118
0.047243994 -0.21094833 -0.70860922 17 136 118
0.047535215 -0.21094672 -0.70870292 17 136 118
0.048386935 -0.2120419 -0.70885414 17 137 118
0.046237856 -0.20987806 -0.70840222 19 134 118
0.04551246 -0.21213101 -0.70792103 20 133 118
0.04786953 -0.20939037 -0.70898283 16 136 118
0.045781501 -0.20927267 -0.70832109 19 135 118
0.051363565 -0.21257864 -0.70996249 17 132 120
0.050173037 -0.21214534 -0.7095077 18 136 118
0.050905731 -0.21135689 -0.709867 19 134 120
0.049653668 -0.21244517 -0.70927256 18 136 118
0.051215809 -0.21183904 -0.70995766 17 134 120
0.049470615 -0.21099731 -0.70935202 17 136 118
0.048946567 -0.21162218 -0.70908684 17 136 118
0.049812879 -0.21043368 -0.70954257 17 136 119
0.049201731 -0.21126139 -0.70922226 17 136 118
0.049850754 -0.20957202 -0.7096529 16 136 119
0.054153014 -0.21116775 -0.71122211 18 134 120
0.05379039 -0.21289092 -0.71092731 17 132 120
0.053291831 -0.21167728 -0.71082997 17 132 122
0.052862316 -0.21140875 -0.71066785 17 132 121
0.05309286 -0.2107172 -0.71082103 18 134 121
0.047704741 -0.21655323 -0.70812356 20 133 115
0.046410605 -0.21669114 -0.70767206 20 133 116
0.046364132 -0.21507698 -0.70785815 20 133 116
0.047238324 -0.21534182 -0.70811826 20 133 115
0.04636962 -0.21467534 -0.70791006 20 133 116
0.048586838 -0.2141016 -0.70868999 19 135 116
0.047027659 -0.21367347 -0.70823669 20 133 117
0.046462387 -0.21347247 -0.70807737 20 133 117
0.047840174 -0.21450929 -0.70840526 19 135 116
0.046546753 -0.21337828 -0.7081148 20 133 117
0.050857242 -0.21537897 -0.7094456 18 134 116
0.050816879 -0.21609716 -0.709337 19 134 116
0.052672312 -0.21380816 -0.71035731 17 132 120
0.052575346 -0.21365117 -0.71033978 16 132 120
0.050430696 -0.21577412 -0.70922798 19 134 116
0.052135214 -0.21387178 -0.71013939 16 132 119
0.049162008 -0.21539108 -0.70876181 18 136 115
0.049211748 -0.2134665 -0.70899457 18 136 117
0.049403273 -0.21501729 -0.70890188 18 136 115
0.050097674 -0.21324727 -0.70938146 17 136 118
0.051579602 -0.21356145 -0.70995343 16 132 119
0.05006313 -0.21383937 -0.70930201 17 134 118
0.05483539 -0.21521236 -0.71103102 20 135 117
0.05497079 -0.21379508 -0.71127808 18 134 118
0.053814974 -0.21538597 -0.71060961 20 133 117
0.053791985 -0.21427014 -0.71074963 18 134 118
0.053976495 -0.21390638 -0.71087128 17 136 118
0.053071782 -0.21513441 -0.71034658 18 134 117
0.053395454 -0.21322703 -0.71072412 17 132 120
0.046065889 -0.21705782 -0.70750183 20 133 116
0.048226401 -0.21823923 -0.70803958 20 135 115
0.047884773 -0.21897316 -0.70780861 21 133 116
0.048114687 -0.2187012 -0.70792884 20 135 115
0.047686055 -0.21772958 -0.70793897 20 133 115
0.047287636 -0.21963359 -0.70751512 20 135 117
0.046974923 -0.21845914 -0.70758575 20 135 116
0.052580174 -0.21705398 -0.70989329 21 135 116
0.049170498 -0.22048223 -0.70801866 21 135 116
0.051736113 -0.21815252 -0.70938754 21 135 116
0.049337786 -0.21693155 -0.70864773 20 133 114
0.051018432 -0.21778102 -0.70916927 21 135 116
0.050350383 -0.21851988 -0.70879138 21 133 116
0.049390238 -0.21705034 -0.7086494 20 133 114
0.050669301 -0.21835852 -0.7089414 21 133 116
0.054133534 -0.21766403 -0.71040928 23 135 116
0.055352189 -0.21715811 -0.71096063 24 135 116
0.05340584 -0.21699111 -0.71022743 21 135 116
0.053947661 -0.2191249 -0.71009845 24 135 116
0.055462927 -0.21975207 -0.71060812 23 135 116
0.048391964 -0.22240329 -0.70749229 19 137 116
0.048776351 -0.22138262 -0.70774668 20 137 116
0.049461205 -0.22120306 -0.70801216 21 137 116
0.051991887 -0.2268707 -0.70806444 17 137 119
0.050868582 -0.22655208 -0.70772672 17 136 119
0.051309425 -0.22731283 -0.70776045 16 138 119
0.055929285 -0.22623314 -0.70959044 18 136 118
0.055677615 -0.2274811 -0.70925546 17 137 119
0.054587364 -0.22707348 -0.70896333 16 136 119
0.054735906 -0.22721732 -0.70898551 16 136 119
0.056081299 -0.22573978 -0.70974088 18 136 118
0.053114336 -0.22741254 -0.70837146 17 136 120
0.052927867 -0.22823095 -0.70816171 15 136 121
0.053454611 -0.22742598 -0.70849502 16 138 120
0.054390211 -0.22657973 -0.70898658 17 137 119
0.052358195 -0.22909124 -0.70781797 15 136 121
0.051548105 -0.22957966 -0.70747513 16 138 120
0.051718362 -0.23005086 -0.70744181 16 136 120
0.056448083 -0.22974811 -0.70902973 17 136 118
0.055985529 -0.23024181 -0.70875782 17 136 119
0.055807151 -0.2299014 -0.70877492 17 136 119
0.055762142 -0.23003899 -0.7087279 17 136 119
0.053480949 -0.22869651 -0.70825529 15 136 120
0.057123937 -0.22957647 -0.70932317 18 136 118
0.056900039 -0.2309332 -0.70892406 18 136 118
0.055555928 -0.2344595 -0.70776904 17 136 118
0.056563672 -0.23305908 -0.70833606 18 136 118
0.056309696 -0.23256238 -0.7083559 17 136 118
0.069032647 -0.20109205 -0.71943653 20 132 121
0.069126762 -0.20070219 -0.71953684 20 133 121
0.069720864 -0.20151605 -0.71969235 20 133 121
0.072019778 -0.20785378 -0.71971828 20 133 118
0.072158352 -0.20796618 -0.71976626 20 133 118
0.070962265 -0.206893 -0.71936995 20 132 119
0.07158833 -0.20879816 -0.71937311 20 132 119
0.073187716 -0.20813644 -0.72031283 20 133 118
0.076122053 -0.2085011 -0.72174382 19 130 121
0.075044468 -0.20897596 -0.721084 19 130 120
0.072665036 -0.20880975 -0.71989501 20 132 119
0.073025003 -0.20835641 -0.72018045 20 133 118
0.073137283 -0.20799163 -0.72031194 20 133 118
0.072422266 -0.20801368 -0.71989936 20 133 118
0.077901237 -0.20697279 -0.72301012 21 133 119
0.077163644 -0.20708138 -0.72259158 21 132 120
0.076953337 -0.20875384 -0.72213042 20 130 121
0.072246112 -0.21035089 -0.71940947 21 132 118
0.075438052 -0.21241826 -0.72056723 20 132 117
0.074888796 -0.20921274 -0.72095346 19 130 119
0.075847223 -0.21101417 -0.72106493 19 132 118
0.075299345 -0.21168701 -0.72064 19 132 117
0.075663425 -0.20954898 -0.72128117 19 130 120
0.075441614 -0.20960832 -0.72115433 19 130 119
0.074959278 -0.20947078 -0.72093505 19 130 119
0.074925177 -0.20934492 -0.72094417 19 130 119
0.077054344 -0.20966275 -0.72198331 20 130 121
0.077489734 -0.20921203 -0.72231895 20 130 121
0.07758633 -0.21156135 -0.72185588 21 130 119
0.034654196 -0.21662036 -0.70411265 25 140 115
0.033915456 -0.21608128 -0.70396382 24 139 115
0.044503428 -0.21435723 -0.70731354 21 133 117
0.044539858 -0.21663943 -0.70704818 20 133 117
0.044995815 -0.21510158 -0.70739561 20 133 118
0.032648236 -0.21687505 -0.7035923 23 138 115
0.033602502 -0.2206822 -0.70352131 19 134 116
0.033747662 -0.22013517 -0.70358831 19 135 116
0.033276852 -0.21869241 -0.70359564 20 137 115
0.035048354 -0.21979608 -0.70387107 21 137 116
0.034410037 -0.2180423 -0.70386702 21 138 115
0.034480639 -0.21771099 -0.70392799 24 138 115
0.035392918 -0.21853937 -0.7040571 24 138 115
0.035006516 -0.21685223 -0.7041831 25 140 115
0.039032903 -0.21978888 -0.70490557 24 136 116
0.038912263 -0.22000355 -0.70483869 24 136 116
0.038254283 -0.22039866 -0.7045911 24 136 116
0.037162028 -0.22065209 -0.7042408 24 136 116
0.040960394 -0.22064202 -0.70532739 21 135 116
0.037126545 -0.21986152 -0.70433706 24 138 115
0.044912785 -0.22024554 -0.70666111 18 136 116
0.043116029 -0.21940431 -0.70619893 19 135 116
0.044552114 -0.21771899 -0.70690393 19 134 117
0.043164145 -0.2187646 -0.70630562 20 133 117
0.044431217 -0.21820313 -0.70679587 19 134 117
0.044478461 -0.21984242 -0.70657784 19 135 117
0.042558983 -0.21824726 -0.70619124 21 135 117
0.043762565 -0.21720287 -0.70672828 20 135 117
0.045312092 -0.21890172 -0.70698786 19 135 117
0.046318348 -0.21836108 -0.70739043 20 135 117
0.047023036 -0.22067632 -0.70727837 19 135 117
0.045654643 -0.22048914 -0.70686579 18 137 116
0.0453595 -0.21713187 -0.7072565 20 133 117
0.035365947 -0.22073475 -0.70386797 20 137 115
0.035280604 -0.22162983 -0.70376736 21 137 115
0.036714837 -0.22297625 -0.7039271 25 139 114
0.0353982 -0.22164787 -0.70378911 21 137 115
0.035591051 -0.22249496 -0.70374835 23 139 114
0.036141593 -0.22444253 -0.70365471 26 138 114
0.036096644 -0.22398916 -0.70369762 25 140 114
0.038125083 -0.22438961 -0.70417577 27 139 114
0.038658522 -0.22341539 -0.70441252 25 139 114
0.038134694 -0.22433364 -0.70418304 27 139 114
0.041002464 -0.22131129 -0.70528227 21 135 116
0.039283626 -0.22245501 -0.70467573 24 136 115
0.037624106 -0.2218902 -0.70425421 24 138 115
0.037232473 -0.22269189 -0.70406741 25 139 114
0.038031254 -0.22185105 -0.70437413 24 138 115
0.037977163 -0.22283328 -0.70426691 25 139 114
0.044599932 -0.22144803 -0.70641077 19 135 117
0.043707181 -0.2233537 -0.70591116 21 133 117
0.043606739 -0.22445193 -0.70573235 23 133 117
0.044188596 -0.22397716 -0.70595145 21 135 116
0.041983318 -0.22099294 -0.70562452 21 133 116
0.04310685 -0.22234885 -0.70588225 21 135 117
0.043662466 -0.2217395 -0.70610988 20 135 117
0.043634202 -0.22149339 -0.70612001 19 137 116
0.046523087 -0.22122295 -0.70704585 18 137 116
0.04791142 -0.22366408 -0.70717365 18 137 116
0.047246095 -0.22106983 -0.70729834 19 135 117
0.048052929 -0.22337675 -0.70725667 18 137 116
0.048129715 -0.22438471 -0.70714587 18 137 115
0.046527233 -0.22249341 -0.70687991 18 137 116
0.045103386 -0.221853 -0.70649922 18 136 116
0.046891011 -0.22410378 -0.70677638 19 137 116
0.045887683 -0.22278018 -0.70662922 19 135 116
0.045570601 -0.22260341 -0.70654917 19 135 116
0.036820032 -0.22541431 -0.7036618 26 140 114
0.037871316 -0.22765762 -0.70359552 24 138 115
0.037910827 -0.22741844 -0.70364368 24 139 114
0.039584279 -0.22758713 -0.70409667 25 139 113
0.039747171 -0.22778171 -0.70411295 25 137 114
0.037378278 -0.22549707 -0.70379114 26 140 114
0.040496361 -0.22670418 -0.70451456 26 136 115
0.039498191 -0.2267583 -0.7042051 27 137 114
0.039278641 -0.2257686 -0.70430779 27 137 115
0.040595539 -0.22687185 -0.70451581 26 136 115
0.044433028 -0.22540298 -0.705796 21 135 116
0.042664986 -0.22672082 -0.70510244 23 136 115
0.042416368 -0.22653756 -0.70506817 23 136 115
0.045239542 -0.22498018 -0.70610225 21 133 116
0.045013424 -0.22480756 -0.70605534 21 135 116
0.04751819 -0.22571112 -0.70673651 19 137 116
0.047918759 -0.22494431 -0.70699149 19 137 116
0.046855964 -0.22643566 -0.706402 20 135 115
0.038464881 -0.22882271 -0.70357406 25 139 114
0.044098675 -0.22959277 -0.70500529 29 136 115
0.043460965 -0.22903691 -0.7049312 27 135 115
0.043546684 -0.22918008 -0.70492721 27 137 115
0.044075053 -0.22894508 -0.70511687 27 135 115
0.046845511 -0.23081726 -0.7057116 27 137 117
0.045004275 -0.23041545 -0.70514143 26 136 116
0.048642166 -0.23477717 -0.70545506 27 137 115
0.046500437 -0.23336203 -0.70511323 27 137 116
0.045639645 -0.23254974 -0.70498347 27 137 116
0.046679407 -0.23292331 -0.70525002 27 137 115
0.051992942 -0.23606773 -0.70624655 18 136 117
0.048877101 -0.23561586 -0.70533663 27 137 115
0.055271294 -0.23788731 -0.70687193 19 137 117
0.054569118 -0.23675741 -0.70693123 18 136 117
0.054386906 -0.23748551 -0.70667988 18 137 117
0.05384019 -0.23646955 -0.70676166 18 136 118
0.054020375 -0.23859017 -0.70630294 19 137 117
0.053782497 -0.18142174 -0.71531481 21 133 117
0.053849563 -0.18178305 -0.71529442 21 133 117
0.053826522 -0.18193978 -0.71525902 21 133 117
0.063147411 -0.20087217 -0.71663642 21 135 120
0.063166909 -0.20116326 -0.7166031 21 133 121
0.067873828 -0.20052265 -0.71897119 21 132 122
0.068008751 -0.20063202 -0.7190187 21 132 122
0.0671762 -0.20108359 -0.71855825 20 132 122
0.06606511 -0.1998526 -0.71821535 21 133 120
0.065186322 -0.20016016 -0.71775365 21 133 121
0.064641126 -0.2010815 -0.71735853 20 133 121
0.067465812 -0.20030335 -0.71881139 21 133 121
0.062836781 -0.20467301 -0.71581101 20 133 121
0.062964484 -0.20415941 -0.71594 20 133 121
0.061640136 -0.20386069 -0.71538562 21 135 120
0.064378075 -0.20409724 -0.71663821 19 132 122
0.063273013 -0.20143169 -0.71660429 21 133 121
0.062704436 -0.20272124 -0.71605951 21 133 121
0.063432269 -0.20348206 -0.71627897 20 133 121
0.062618911 -0.2031263 -0.71593577 20 133 120
0.062946498 -0.20279911 -0.71616721 20 133 120
0.068271115 -0.20309389 -0.71872574 20 130 122
0.065223441 -0.20456921 -0.71695364 20 130 122
0.067782 -0.20201929 -0.71867031 20 130 122
0.066053398 -0.20350648 -0.71755171 20 130 122
0.068322748 -0.20177017 -0.71898258 20 130 122
0.066176116 -0.20343201 -0.71762568 20 130 122
0.064749181 -0.20140833 -0.71734941 20 132 122
0.064893141 -0.20150682 -0.71739799 20 132 122
0.064760104 -0.20186391 -0.71726429 20 132 122
0.065091796 -0.20185412 -0.7174232 20 132 122
0.065038569 -0.20341419 -0.71708888 19 132 122
0.066379808 -0.20142514 -0.71811789 20 132 122
0.068439029 -0.20472592 -0.71852279 19 130 121
0.068871722 -0.20275055 -0.71907467 20 130 122
0.064108171 -0.20548812 -0.71626705 19 130 122
0.064200059 -0.20570812 -0.71627635 19 130 122
0.063116848 -0.20553029 -0.71581477 20 133 121
0.064099669 -0.2061895 -0.71616101 19 130 121
0.063154213 -0.20882398 -0.71535361 19 132 120
0.062085651 -0.20595726 -0.71528882 21 135 121
0.066854008 -0.20808098 -0.7172454 19 132 119
0.067154065 -0.20872602 -0.7173053 20 132 119
0.066301018 -0.20867415 -0.71688437 19 132 119
0.06655594 -0.20760295 -0.71716291 19 130 120
0.066309132 -0.20787798 -0.71700031 19 130 120
0.066779003 -0.20870306 -0.71712029 20 132 119
0.064750679 -0.20648423 -0.71642506 19 130 122
0.067618825 -0.20544006 -0.71800244 19 130 121
0.066942431 -0.20549446 -0.7176584 19 130 121
0.065365106 -0.20669508 -0.71669972 19 130 121
0.065621369 -0.20770602 -0.71667975 19 130 121
0.065731034 -0.20673347 -0.71687597 19 130 121
0.070713654 -0.20883627 -0.71897137 20 133 118
0.069562517 -0.20791341 -0.71858257 20 133 118
0.069030382 -0.20762214 -0.71838272 21 132 119
0.069017977 -0.20887534 -0.71819109 20 135 118
0.069768943 -0.20514658 -0.71908599 21 130 121
0.068934821 -0.20738813 -0.718373 21 132 119
0.063560851 -0.21017167 -0.71533597 20 133 118
0.064162336 -0.21056928 -0.71554649 21 132 118
0.063659169 -0.21092492 -0.71526754 21 135 117
0.068244778 -0.20980372 -0.71767706 23 135 117
0.066672854 -0.21059993 -0.7167868 23 135 116
0.065146908 -0.21047433 -0.71603936 21 133 118
0.065197058 -0.21038456 -0.71607792 21 133 118
0.064914607 -0.21103211 -0.71583968 21 135 116
0.066827185 -0.21015164 -0.71693099 21 135 117
0.064663298 -0.21252817 -0.71549064 25 136 114
0.071496829 -0.2099763 -0.71913588 21 133 118
0.069666743 -0.20900147 -0.71846825 20 135 118
0.069302715 -0.20925803 -0.71825778 20 135 118
0.069114543 -0.20950654 -0.71812904 21 133 118
0.069541469 -0.20952746 -0.71832043 21 133 118
0.068534024 -0.20955321 -0.71785527 21 135 117
0.069331676 -0.21032089 -0.71808732 23 133 118
0.064858213 -0.21294864 -0.71551555 26 137 114
0 0 0 1 0 0 0 1 0 0 0 1 0 0 0 0 0 760 1 0 0
