ply
format ascii 1.0
comment PCL generated
element vertex 667
property float x
property float y
property float z
property uchar red
property uchar green
property uchar blue
element camera 1
property float view_px
property float view_py
property float view_pz
property float x_axisx
property float x_axisy
property float x_axisz
property float y_axisx
property float y_axisy
property float y_axisz
property float z_axisx
property float z_axisy
property float z_axisz
property float focal
property float scalex
property float scaley
property float centerx
property float centery
property int viewportx
property int viewporty
property float k1
property float k2
end_header
0.067059427 -0.58785838 -0.75460553 63 134 114
0.071812034 -0.5870555 -0.75492603 76 132 115
0.071043141 -0.5876826 -0.75535864 75 133 115
0.071727335 -0.58767903 -0.7555362 76 134 114
0.069322266 -0.58739907 -0.75463283 70 134 115
0.069565475 -0.58725375 -0.75455785 71 133 115
0.074591488 -0.58713174 -0.75547016 79 133 113
0.07566116 -0.58784509 -0.75633579 80 134 113
0.073474325 -0.58784288 -0.75601953 78 133 114
0.074030496 -0.58764488 -0.75590175 79 133 114
0.072622985 -0.58719158 -0.75523895 77 133 114
0.072698228 -0.58675051 -0.75480288 77 133 114
0.073496267 -0.58709723 -0.75527656 77 133 113
0.073988736 -0.58649766 -0.75474346 77 133 113
0.0785634 -0.58697706 -0.75562841 71 134 112
0.078757286 -0.58770126 -0.75655776 73 134 112
0.076261602 -0.58710659 -0.75567156 79 133 112
0.076880589 -0.58723092 -0.7557922 77 135 112
0.076479897 -0.58762538 -0.75618821 79 133 113
0.083757192 -0.58735824 -0.75697017 70 133 113
0.082786575 -0.58776325 -0.75741982 71 133 112
0.082986869 -0.58742833 -0.75689906 70 133 113
0.083664149 -0.58773249 -0.75758415 71 133 113
0.084294625 -0.58748889 -0.75728214 70 133 113
0.066634223 -0.58871287 -0.75492924 61 135 114
0.066279441 -0.5897491 -0.75533426 61 133 114
0.066489637 -0.58832604 -0.75472987 61 135 114
0.068151936 -0.59068471 -0.7568354 62 135 114
0.067805603 -0.59146017 -0.75724947 61 135 114
0.067044452 -0.59008574 -0.75587547 63 134 114
0.070079587 -0.59057969 -0.75741273 68 134 114
0.071662635 -0.58957571 -0.75720602 75 134 114
0.070858635 -0.59078157 -0.75797009 72 135 114
0.071654879 -0.58950651 -0.75713688 75 134 114
0.071692109 -0.58856392 -0.75626159 75 134 114
0.068989635 -0.58867925 -0.75561088 68 134 115
0.070497885 -0.5893259 -0.75649029 71 134 114
0.069143608 -0.58998501 -0.75662053 66 135 114
0.06914629 -0.58997613 -0.75661457 66 135 114
0.070997275 -0.58798808 -0.75562996 74 134 114
0.068753123 -0.59029967 -0.75675052 64 135 114
0.071111545 -0.58870429 -0.75619161 73 134 114
0.075256437 -0.58958071 -0.75801641 81 133 113
0.073053181 -0.58849216 -0.7566008 78 133 114
0.072465487 -0.59011668 -0.75803679 79 133 114
0.074589573 -0.58913356 -0.75747645 80 133 113
0.075090706 -0.58906919 -0.75749844 80 134 113
0.075826295 -0.58832729 -0.75684929 80 134 113
0.072999068 -0.58790541 -0.75601393 78 133 114
0.074461386 -0.58825254 -0.75657719 79 134 113
0.079117216 -0.58877051 -0.75782943 74 133 112
0.078023121 -0.58886248 -0.75774479 77 134 112
0.076955929 -0.58873278 -0.75743908 79 133 112
0.079525366 -0.58865064 -0.75775373 72 134 112
0.077594012 -0.58802891 -0.75679755 77 135 112
0.080240883 -0.58817017 -0.75732279 71 134 111
0.081380546 -0.58861685 -0.75810277 71 133 112
0.083394453 -0.58805096 -0.75795478 71 133 112
0.065524265 -0.59510601 -0.75740117 62 136 113
0.066056602 -0.59564584 -0.75808465 64 136 114
0.06819912 -0.59284079 -0.75812322 61 137 113
0.066960558 -0.59345591 -0.75758404 61 137 113
0.066376582 -0.59360063 -0.75729889 61 136 113
0.064523682 -0.59522527 -0.75685483 61 136 113
0.065879881 -0.59370708 -0.7570951 61 136 113
0.064871468 -0.59602779 -0.75729054 62 136 113
0.064834416 -0.59654683 -0.75732738 61 136 113
0.08854647 -0.59948802 -0.77000952 78 134 112
0.088678293 -0.59933919 -0.76994413 78 134 112
0.090597615 -0.59904224 -0.77052766 72 134 112
0.088474542 -0.59960645 -0.7700758 78 134 112
0.094569452 -0.5992201 -0.7708807 76 133 113
0.095165655 -0.59954077 -0.77127045 76 134 112
0.095343344 -0.59945077 -0.77114558 77 133 113
0.094617568 -0.5985837 -0.77016652 77 133 112
0.094410077 -0.59884292 -0.77041632 76 134 112
0.092673242 -0.59930152 -0.77110165 71 134 112
0.096381992 -0.59959072 -0.77142763 78 132 113
0.099526852 -0.598665 -0.77073485 80 134 110
0.097757831 -0.59928155 -0.77125233 79 133 112
0.098116547 -0.59867454 -0.77050453 80 134 110
0.09799397 -0.59828883 -0.76998305 81 134 110
0.097097866 -0.59896183 -0.7707153 79 133 111
0.10200342 -0.59945285 -0.77101177 78 134 110
0.10043848 -0.59825379 -0.7699635 81 134 109
0.1002593 -0.59886348 -0.77082789 80 134 110
0.1007124 -0.59935457 -0.77135336 78 134 110
0.10026849 -0.59922504 -0.77130747 79 133 110
0.10393587 -0.59950119 -0.77056754 76 134 110
0.10470774 -0.59926105 -0.77041036 72 134 111
0.082528017 -0.6026879 -0.77093005 68 134 114
0.08270818 -0.60295177 -0.77125472 68 133 114
0.081959382 -0.603315 -0.77114064 67 134 114
0.081407756 -0.60311115 -0.77065772 68 134 114
0.081891529 -0.60313582 -0.77095091 68 133 114
0.081744492 -0.60347784 -0.77115744 66 134 114
0.081179596 -0.60243624 -0.77004182 71 133 114
0.086988434 -0.60217386 -0.77199131 72 133 113
0.086961366 -0.60320365 -0.77294379 69 133 114
0.086203396 -0.60323727 -0.77277535 68 133 114
0.08722841 -0.6016081 -0.77152735 73 133 113
0.086191677 -0.60155696 -0.77120638 72 133 113
0.085938767 -0.60261822 -0.7721287 69 134 113
0.08673653 -0.60118073 -0.77099943 74 133 113
0.085292488 -0.60216469 -0.77154189 69 134 113
0.085943907 -0.6004982 -0.77024907 76 134 112
0.085407592 -0.60183954 -0.7712875 70 134 113
0.086215116 -0.60054427 -0.77033681 76 134 112
0.085199103 -0.60092586 -0.770477 73 134 112
0.084741533 -0.60148895 -0.77087116 71 134 113
0.089224607 -0.60329551 -0.77355224 68 133 114
0.088883519 -0.60213077 -0.77240741 72 132 114
0.088492043 -0.60121965 -0.77148604 74 133 113
0.090523012 -0.6004566 -0.77167153 70 134 113
0.090063944 -0.60238981 -0.77309453 67 133 114
0.090695567 -0.60029447 -0.77160996 70 134 113
0.090509534 -0.60079908 -0.77195287 69 134 113
0.091643907 -0.59966207 -0.77148849 68 135 112
0.089512326 -0.60151565 -0.77212381 71 133 113
0.088816583 -0.59967446 -0.77028018 77 134 111
0.09112113 -0.60141689 -0.77266711 66 133 113
0.092798598 -0.60058117 -0.77236003 67 134 113
0.092411593 -0.60061675 -0.77233166 66 134 113
0.092530042 -0.60104567 -0.77266121 66 134 113
0.093261197 -0.60119379 -0.77287197 66 134 113
0.095403276 -0.60154665 -0.77334046 67 134 113
0.095243409 -0.60127217 -0.77306539 68 133 113
0.095057264 -0.60103428 -0.77282923 69 134 113
0.095196359 -0.59967053 -0.77142096 76 133 113
0.094562121 -0.60095215 -0.77276701 68 134 114
0.09668459 -0.60178643 -0.77343321 68 134 114
0.097437903 -0.60132354 -0.77284974 72 133 113
0.098966278 -0.60223311 -0.77356637 70 134 114
0.097611308 -0.60179794 -0.77331269 70 133 114
0.096205704 -0.59982055 -0.77155131 77 133 113
0.097764894 -0.60095304 -0.7725144 74 133 114
0.097846836 -0.60052043 -0.77226329 75 134 113
0.098041609 -0.60113198 -0.77267188 73 134 113
0.09799657 -0.59985477 -0.77188092 77 133 112
0.099728994 -0.60243088 -0.77372694 70 134 114
0.10145509 -0.60149843 -0.77298987 68 134 113
0.10145268 -0.60206294 -0.77333629 66 135 113
0.10278623 -0.60180408 -0.77284956 66 135 113
0.1029327 -0.60183018 -0.77282125 66 135 113
0.10057499 -0.59986049 -0.77189225 77 134 111
0.10164794 -0.60074079 -0.77230066 72 135 111
0.10098334 -0.60082781 -0.77261263 72 134 112
0.10111392 -0.60044634 -0.77222574 74 134 112
0.10185825 -0.60090196 -0.77237052 72 134 112
0.10455674 -0.60179299 -0.77263105 65 135 113
0.1042801 -0.60147941 -0.77233791 67 135 112
0.10539111 -0.60136455 -0.77228713 66 136 111
0.103665 -0.59994024 -0.77093387 77 135 110
0.10557809 -0.59985566 -0.77103525 66 135 112
0.10559128 -0.60024589 -0.7713629 66 135 112
0.10569029 -0.59969682 -0.77091318 65 135 112
0.080041111 -0.60673362 -0.7721104 60 135 115
0.078798346 -0.60546082 -0.7705282 61 135 115
0.083396107 -0.60428846 -0.77258337 63 134 115
0.081411496 -0.60362917 -0.77106833 66 133 114
0.081123345 -0.60429019 -0.77129132 65 134 114
0.081936762 -0.60500532 -0.77216578 63 134 115
0.081329681 -0.60537177 -0.77203768 61 135 115
0.080413133 -0.60478163 -0.77117807 65 134 115
0.081248276 -0.60609937 -0.77241588 60 135 115
0.080730364 -0.60611534 -0.77213371 60 135 115
0.085799046 -0.60437667 -0.77350307 65 134 114
0.08398433 -0.60411382 -0.77284408 63 134 115
0.08410269 -0.60384434 -0.77269816 63 134 115
0.086077981 -0.60360783 -0.77306545 68 133 115
0.063887149 -0.58365017 -0.75088692 67 130 117
0.066070884 -0.58385938 -0.75121599 71 130 116
0.066096239 -0.58354914 -0.75096387 71 130 116
0.064971708 -0.58344078 -0.75082457 68 131 116
0.06704668 -0.58291519 -0.75040066 71 131 114
0.070566326 -0.58351678 -0.75118369 76 132 114
0.070636488 -0.58372015 -0.75138128 77 132 114
0.069286227 -0.5836454 -0.75112498 75 131 114
0.068835281 -0.58321977 -0.75073278 74 130 114
0.069363177 -0.58336145 -0.75089741 74 131 114
0.075737871 -0.58365601 -0.75174385 76 132 114
0.073530704 -0.58352876 -0.75150031 77 132 114
0.074599952 -0.58369547 -0.75171578 77 132 114
0.074072145 -0.58369154 -0.75168216 77 132 114
0.074142493 -0.58276343 -0.75082636 73 132 113
0.072474308 -0.58347315 -0.75139064 77 132 113
0.072906889 -0.58305871 -0.75103152 75 132 113
0.076993607 -0.58386409 -0.75199831 75 132 113
0.077339448 -0.5838834 -0.75203097 74 132 113
0.076351307 -0.58269626 -0.75088638 71 131 113
0.064293779 -0.58431745 -0.75150764 67 130 117
0.064191513 -0.58474624 -0.75178128 65 131 116
0.063411817 -0.58422184 -0.75124335 65 131 116
0.063087754 -0.58416748 -0.75114441 65 131 117
0.068168297 -0.58543468 -0.75260901 71 131 114
0.067553744 -0.58590859 -0.75292569 68 133 114
0.067072079 -0.58717513 -0.75399894 63 134 114
0.067616984 -0.58601636 -0.75303739 68 133 114
0.067830481 -0.5869025 -0.75389612 66 134 114
0.067095995 -0.5850327 -0.75207126 69 132 114
0.06505321 -0.58484352 -0.75194186 66 131 116
0.066125378 -0.58451885 -0.75170344 70 130 116
0.066878594 -0.58454245 -0.75171781 71 130 115
0.067736998 -0.58435023 -0.75157577 73 130 115
0.071399458 -0.58611524 -0.75392532 76 132 114
0.068688855 -0.58574313 -0.75300145 72 131 115
0.069965199 -0.58633912 -0.75382441 73 132 114
0.068918638 -0.58557326 -0.7528941 73 131 115
0.070248008 -0.58675629 -0.7542696 73 132 114
0.068823174 -0.58579803 -0.75308084 72 131 115
0.071221046 -0.5852735 -0.75305802 78 132 114
0.070808157 -0.58452725 -0.75221831 78 131 114
0.071553327 -0.58550012 -0.75334167 78 132 114
0.072067477 -0.58485293 -0.75273448 79 131 114
0.070531778 -0.58429879 -0.75194043 78 131 114
0.075780518 -0.58576655 -0.75427461 78 132 112
0.073549032 -0.58461446 -0.75271451 79 132 113
0.074036762 -0.58553362 -0.75375515 78 132 113
0.072394364 -0.58495134 -0.75288546 79 132 114
0.076158009 -0.58569139 -0.75424826 78 131 112
0.074084483 -0.58460796 -0.75274956 79 132 113
0.075203896 -0.584548 -0.75273681 78 132 113
0.075172581 -0.58497387 -0.75327772 78 132 112
0.076447487 -0.58488721 -0.75322217 77 132 113
0.076388076 -0.58513838 -0.75354272 77 132 113
0.076522127 -0.58471525 -0.75300246 76 133 112
0.076740265 -0.58403844 -0.75216073 76 132 114
0.089382477 -0.59537315 -0.76637203 79 133 110
0.091331489 -0.59508765 -0.76647663 75 133 112
0.090248711 -0.59570009 -0.76711923 77 133 111
0.089579634 -0.5952031 -0.76619744 79 133 111
0.094764024 -0.59556872 -0.76650614 81 134 111
0.093656391 -0.59543449 -0.76661032 79 133 111
0.092167653 -0.59539211 -0.76697081 76 133 112
0.092931472 -0.59548473 -0.76689523 77 133 111
0.096953012 -0.59538871 -0.76641172 82 132 111
0.099003345 -0.59517604 -0.76670253 79 132 111
0.096423447 -0.59541333 -0.76627398 82 133 111
0.10187483 -0.59550661 -0.76671702 75 134 110
0.099806719 -0.59539908 -0.76708925 78 132 110
0.10015222 -0.59542853 -0.76704061 78 131 111
0.10002601 -0.59517413 -0.76676077 77 133 110
0.10587385 -0.59562236 -0.7665199 66 136 113
0.079129681 -0.59743071 -0.76644754 79 133 113
0.07916946 -0.59888715 -0.76747012 78 133 114
0.07944563 -0.59731871 -0.76658493 80 134 112
0.0789629 -0.59698814 -0.76603192 79 134 112
0.080046758 -0.59695697 -0.76674479 82 134 112
0.079661831 -0.59730268 -0.76672041 80 135 112
0.078476444 -0.59844959 -0.76670158 76 134 113
0.083781958 -0.59847093 -0.76815182 80 134 111
0.081806213 -0.59804165 -0.76747084 81 135 112
0.081840239 -0.59823066 -0.76764184 81 135 112
0.081397735 -0.59840655 -0.76772785 81 134 112
0.083853677 -0.59740037 -0.76722395 82 134 111
0.0836711 -0.59783894 -0.76758045 81 135 111
0.082498766 -0.59681851 -0.76661193 83 134 111
0.080881558 -0.59759831 -0.76718473 81 135 112
0.081466772 -0.59616381 -0.76618969 83 134 111
0.082049355 -0.59769112 -0.76721948 82 134 112
0.081029467 -0.59762019 -0.76719606 82 134 112
0.080093518 -0.59740973 -0.76707506 82 135 112
0.084834166 -0.59656006 -0.76662385 82 134 110
0.084541291 -0.59833181 -0.76813745 80 134 111
0.084198207 -0.59639537 -0.76639217 83 134 110
0.084391341 -0.59863174 -0.76837993 80 134 111
0.085573465 -0.59772539 -0.76780516 80 134 111
0.085649028 -0.59670019 -0.76688027 81 134 110
0.086432673 -0.59688872 -0.76722807 81 134 110
0.086566098 -0.59841049 -0.76856858 80 134 111
0.087597445 -0.59735453 -0.76783007 81 134 111
0.087784268 -0.5973841 -0.76788527 81 134 111
0.085141487 -0.5994395 -0.76922119 79 134 112
0.086007014 -0.59832531 -0.76840627 80 134 111
0.08631292 -0.59845114 -0.76856291 80 134 111
0.087607093 -0.59691674 -0.76745707 81 134 110
0.090768717 -0.59704864 -0.76852971 76 133 112
0.091237359 -0.59750295 -0.76936668 73 133 112
0.090075359 -0.59777075 -0.76896334 76 134 112
0.09171962 -0.59593493 -0.76778686 75 133 112
0.091692999 -0.59707659 -0.76913953 73 133 113
0.088635519 -0.59820366 -0.76881194 79 134 111
0.090030663 -0.59586662 -0.76720279 79 133 112
0.090341546 -0.59695393 -0.76822007 77 133 112
0.08991041 -0.59682727 -0.76799107 78 133 112
0.089024983 -0.59721845 -0.76807797 79 134 111
0.090073608 -0.59581935 -0.7671743 79 133 112
0.088744819 -0.59690696 -0.76773304 80 133 111
0.092244849 -0.59647667 -0.76836854 75 133 112
0.092835635 -0.59708267 -0.76894188 76 133 113
0.092123024 -0.59700733 -0.76903659 74 133 113
0.092974372 -0.59715843 -0.76899666 76 133 113
0.095317021 -0.59585994 -0.76676118 83 133 112
0.09531536 -0.59617543 -0.76714933 82 134 111
0.094763175 -0.59698433 -0.76829809 80 133 111
0.093055114 -0.59656757 -0.76826578 77 133 112
0.094010696 -0.59629297 -0.76766008 80 133 111
0.092584178 -0.59619546 -0.76794094 77 133 112
0.097719379 -0.59721786 -0.76862293 82 134 110
0.095721215 -0.59812498 -0.76943821 82 132 112
0.096615084 -0.59793013 -0.76933271 82 133 111
0.095992036 -0.59809792 -0.76944554 82 132 112
0.096921012 -0.59766549 -0.76905334 82 133 111
0.096252516 -0.59638602 -0.76738137 83 133 111
0.097223058 -0.59583378 -0.767003 82 133 110
0.098955497 -0.5958668 -0.76750225 80 132 110
0.099268213 -0.59653014 -0.76826972 80 133 109
0.096439712 -0.59598106 -0.76694429 83 133 111
0.09761107 -0.59634119 -0.76762998 82 133 110
0.10015889 -0.59668934 -0.76840383 79 133 109
0.10004472 -0.59753305 -0.76929837 81 133 110
0.099689268 -0.59780264 -0.76965463 81 134 109
0.10162316 -0.59770668 -0.7691288 79 134 109
0.10026433 -0.59734523 -0.76905638 80 134 109
0.10290939 -0.59766823 -0.76878864 76 136 109
0.10126896 -0.59587443 -0.7672919 76 134 109
0.10215308 -0.59647804 -0.76771599 76 134 110
0.10240708 -0.59718877 -0.76840389 77 134 109
0.10213683 -0.59743571 -0.76872879 78 134 109
0.10068882 -0.59571213 -0.7672599 77 133 110
0.10524628 -0.59750849 -0.7686612 65 136 112
0.10407176 -0.59616208 -0.76711643 69 136 111
0.10430814 -0.59737515 -0.7684198 70 136 110
0.10370303 -0.59756517 -0.76855487 74 136 110
0.10426903 -0.59829021 -0.76937962 73 135 111
0.075386845 -0.60201269 -0.76689583 63 135 114
0.076155104 -0.59990549 -0.76609278 66 134 114
0.076057278 -0.601026 -0.76674753 65 134 114
0.074796967 -0.60228819 -0.76664197 62 135 114
0.076097965 -0.60221064 -0.76754546 63 135 114
0.076175064 -0.60194737 -0.76743156 63 135 114
0.077231348 -0.60136002 -0.76756757 67 134 114
0.078838885 -0.60336936 -0.76959604 67 134 114
0.077348687 -0.60344052 -0.76894659 63 135 114
0.076560028 -0.60168523 -0.7674616 65 134 114
0.076302432 -0.60168868 -0.76734376 64 134 114
0.079015628 -0.60031176 -0.76819116 75 134 114
0.079489693 -0.60112828 -0.76889765 74 134 114
0.077646084 -0.59966284 -0.76695722 72 133 114
0.078293294 -0.60065782 -0.7678653 72 134 114
0.079028405 -0.60177881 -0.76889229 71 133 114
0.080009371 -0.59972847 -0.7685889 79 133 114
0.079928488 -0.60148281 -0.76929998 75 133 114
0.080150716 -0.59973413 -0.7686488 79 133 114
0.081113227 -0.60079795 -0.76932693 76 134 114
0.081777148 -0.60070878 -0.76945353 76 133 114
0.080530822 -0.59986311 -0.76879591 79 133 114
0.082243197 -0.60101461 -0.76969504 75 133 114
0.082224958 -0.59983099 -0.76908892 78 133 113
0.083748303 -0.59992355 -0.76939833 77 135 112
0.085950375 -0.59969682 -0.76958865 79 133 112
0.085466467 -0.60021096 -0.76992029 76 134 112
0.078083545 -0.60460728 -0.76963055 63 134 114
0.077923052 -0.60381287 -0.76934218 63 135 114
0.077412032 -0.60481209 -0.76937252 62 135 114
0.072232656 -0.59158027 -0.75961053 76 132 115
0.071025029 -0.5914396 -0.75881279 71 133 114
0.075746581 -0.59117866 -0.76031709 81 134 112
0.075408526 -0.59084898 -0.75970852 81 133 113
0.074332029 -0.5908677 -0.75932151 79 133 113
0.074147359 -0.59157598 -0.76027822 79 133 113
0.073436365 -0.5915789 -0.76000887 77 133 114
0.072371528 -0.59126019 -0.75928575 77 133 114
0.072774962 -0.59101981 -0.75909668 77 133 114
0.074011095 -0.59022856 -0.75845504 80 133 113
0.079292022 -0.59088147 -0.76034945 74 133 112
0.079209141 -0.59115487 -0.76065868 75 134 112
0.077099718 -0.59160721 -0.7611655 80 133 112
0.078583524 -0.59098142 -0.76046073 76 134 112
0.076933347 -0.59142733 -0.76096141 80 134 112
0.077064745 -0.59134811 -0.76087201 80 133 112
0.076733723 -0.59022301 -0.75922436 80 134 112
0.078091308 -0.58999693 -0.7592116 77 134 112
0.077069215 -0.59077495 -0.76010323 79 134 112
0.076228 -0.59104049 -0.76029319 81 134 112
0.07869339 -0.58924997 -0.75826752 75 133 112
0.082532063 -0.59049582 -0.76038265 74 133 112
0.082773246 -0.58997011 -0.759884 73 133 112
0.080446564 -0.59173709 -0.76137316 73 134 111
0.082622513 -0.58970261 -0.75959665 72 134 112
0.082553431 -0.59095675 -0.76084846 74 133 112
0.081703529 -0.59170258 -0.76149333 75 134 111
0.083259225 -0.58903193 -0.75900108 72 133 112
0.081958294 -0.58986425 -0.75965482 72 133 112
0.082643412 -0.58887643 -0.75870216 72 133 113
0.08231388 -0.58858472 -0.75829214 72 133 113
0.081986196 -0.58936703 -0.75909859 72 133 112
0.08090838 -0.58928841 -0.75874871 72 133 112
0.083110653 -0.58867407 -0.75858617 72 133 113
0.087556824 -0.59133005 -0.7614094 80 131 112
0.087379627 -0.58969361 -0.75969177 72 132 112
0.084686831 -0.59127241 -0.76132482 76 133 111
0.086847648 -0.59126025 -0.76133025 79 132 112
0.086661831 -0.58991539 -0.75991827 72 133 111
0.085302085 -0.59073937 -0.76077098 74 133 112
0.086297363 -0.58941448 -0.75940275 71 133 112
0.084395476 -0.58892417 -0.75896919 72 133 112
0.085164741 -0.58949125 -0.75951523 72 133 112
0.084216654 -0.59116763 -0.76122928 76 133 111
0.085290395 -0.58861268 -0.75862831 71 133 113
0.084789835 -0.58948278 -0.75951827 73 133 112
0.091106832 -0.59074324 -0.76045895 75 132 112
0.090980574 -0.59105676 -0.76079458 75 132 112
0.091086619 -0.59176892 -0.76151246 77 131 112
0.091603734 -0.59104228 -0.7607094 75 132 112
0.090017572 -0.59090126 -0.76074392 77 132 112
0.091652103 -0.59105283 -0.76071471 75 132 112
0.088274129 -0.59025449 -0.76024842 75 132 112
0.090797909 -0.58912963 -0.75883299 69 133 113
0.08808668 -0.59078741 -0.76082486 78 131 112
0.088361405 -0.59114325 -0.76117235 79 132 112
0.089339919 -0.59003174 -0.75991529 74 132 112
0.088407144 -0.59070981 -0.76071358 77 132 111
0.09224613 -0.58981735 -0.75950909 70 132 113
0.091840275 -0.5893656 -0.75897664 69 132 113
0.092756711 -0.59074283 -0.7605449 72 132 112
0.092619874 -0.59092855 -0.76071185 73 131 112
0.092043027 -0.59049904 -0.7601729 72 132 112
0.093986653 -0.59125102 -0.76127625 73 131 111
0.095071271 -0.59099984 -0.76109952 71 131 112
0.095403865 -0.59151071 -0.76177526 73 131 111
0.09558069 -0.59064573 -0.76052189 68 132 112
0.095180765 -0.59102643 -0.76112103 71 131 112
0.098050833 -0.59110349 -0.76117814 70 132 112
0.099005103 -0.590882 -0.76086718 69 133 112
0.098539017 -0.59098589 -0.76101369 70 133 112
0.099112019 -0.59171677 -0.76190245 73 133 112
0.098143183 -0.59112006 -0.76119542 70 133 112
0.097518772 -0.59044755 -0.76038331 68 131 112
0.097195856 -0.59058708 -0.76056391 68 132 112
0.096680127 -0.59061331 -0.76055157 68 132 112
0.095706768 -0.59161115 -0.76187402 73 130 112
0.099984504 -0.59154695 -0.76164567 72 133 112
0.10075532 -0.59140205 -0.76144534 68 134 112
0.10066921 -0.59136552 -0.761397 69 134 112
0.067023963 -0.59517294 -0.75848043 64 135 113
0.067973152 -0.59365666 -0.75836688 63 135 114
0.068322755 -0.59471112 -0.75906605 64 135 113
0.0688131 -0.59321493 -0.75867921 64 135 113
0.071990043 -0.59551698 -0.76187634 71 132 115
0.071900874 -0.59535432 -0.76174057 71 132 115
0.068866186 -0.59542823 -0.75975299 66 135 113
0.069828495 -0.59559667 -0.76047337 68 134 114
0.070241116 -0.59471422 -0.76033396 68 134 114
0.07160268 -0.59527045 -0.7615025 70 134 114
0.070080884 -0.59355628 -0.75968349 66 135 114
0.07219477 -0.59374589 -0.76096731 73 133 115
0.071327262 -0.59350842 -0.76037163 70 134 114
0.071945354 -0.59506071 -0.76159793 71 132 115
0.072033852 -0.59243858 -0.76012444 74 133 115
0.071982145 -0.59511811 -0.76165062 71 132 115
0.07224264 -0.59486043 -0.76163971 73 133 115
0.073256604 -0.59241891 -0.76065093 77 133 114
0.072655335 -0.59282362 -0.76063395 75 133 114
0.074400812 -0.5931133 -0.76153326 79 132 114
0.075273991 -0.59303772 -0.76185513 80 133 113
0.075452179 -0.59324759 -0.76205152 80 133 113
0.075420313 -0.59301847 -0.76190525 80 133 113
0.074947536 -0.59204131 -0.76108021 80 133 113
0.075489052 -0.59258634 -0.76167536 81 133 113
0.076586321 -0.5923571 -0.76178432 81 134 112
0.079594664 -0.59197241 -0.76152539 75 134 111
0.079099678 -0.59232932 -0.76180637 78 134 111
0.081347734 -0.59246814 -0.76208329 78 133 111
0.082610816 -0.59188664 -0.76177931 77 134 111
0.086481631 -0.5919891 -0.76206237 81 131 112
0.088492677 -0.59200275 -0.76203489 82 131 112
0.091468215 -0.59188813 -0.76159543 77 131 112
0.093027346 -0.59212309 -0.76202029 77 132 111
0.067047253 -0.59688091 -0.75900996 65 135 114
0.067132041 -0.59737092 -0.75917506 65 135 114
0.067507707 -0.59668344 -0.75924724 65 135 114
0.068100557 -0.59572154 -0.75938952 65 135 113
0.066955075 -0.59744591 -0.75905693 65 134 114
0.066892102 -0.59822208 -0.75912935 64 134 114
0.066020481 -0.59752047 -0.75836653 63 135 114
0.066550478 -0.59708792 -0.75869787 64 136 114
0.066880994 -0.59866756 -0.75918972 63 135 114
0.071094662 -0.59777629 -0.76197088 67 134 114
0.069807284 -0.59873605 -0.76128823 66 134 114
0.068799146 -0.59954154 -0.76077324 65 134 114
0.069901004 -0.59891856 -0.76142973 66 134 114
0.069089428 -0.59707916 -0.7603482 67 134 114
0.070874035 -0.59665477 -0.76143956 69 133 114
0.068887338 -0.59899086 -0.76065451 66 134 114
0.07042937 -0.5964874 -0.76110458 69 133 114
0.069923721 -0.59752053 -0.761006 68 134 114
0.069261171 -0.59803045 -0.76068211 67 134 114
0.068314955 -0.60094124 -0.76060182 63 134 114
0.070242621 -0.60040045 -0.76209074 62 135 114
0.068606764 -0.60096568 -0.76083702 63 134 114
0.070052594 -0.59965336 -0.76180881 64 134 114
0.099268854 -0.60298759 -0.77416271 68 133 114
0.099326864 -0.60261661 -0.77388787 69 133 114
0.097389318 -0.60261935 -0.7740944 66 133 114
0.087409176 -0.60535282 -0.77460653 64 133 115
0.086400211 -0.60555547 -0.77446479 64 132 116
0.087883018 -0.60520351 -0.77463603 65 132 115
0.085819185 -0.60498875 -0.77391517 64 133 115
0.085839838 -0.61114949 -0.77752042 63 133 116
0.085422464 -0.61165351 -0.7775774 63 133 116
0.085679747 -0.61147511 -0.7776171 63 133 116
0.063066475 -0.57992172 -0.74773002 67 132 114
0.066752099 -0.57981253 -0.74772519 68 131 113
0.065131046 -0.57983392 -0.747765 68 131 114
0.067115843 -0.57986152 -0.74776208 69 130 114
0.068626396 -0.57895833 -0.74696028 67 130 113
0.063791007 -0.58250433 -0.74991572 67 130 116
0.064314224 -0.58072537 -0.74850154 69 131 115
0.063424468 -0.58023125 -0.74801093 68 131 115
0.065848149 -0.58242756 -0.74995977 70 130 115
0.065244839 -0.58257532 -0.75006205 68 131 115
0.065041564 -0.58250099 -0.74999434 68 131 115
0.065163344 -0.58105934 -0.7488122 70 130 115
0.065120481 -0.58227175 -0.74980825 68 131 115
0.0675027 -0.58057809 -0.74838471 70 130 114
0.066264458 -0.58039618 -0.74823999 70 130 113
0.066807419 -0.58149022 -0.74920267 71 130 114
0.066309601 -0.58072513 -0.74853098 70 131 113
0.066252828 -0.58060575 -0.74842596 70 131 113
0.069341399 -0.58151823 -0.74930733 72 131 113
0.069415793 -0.58102393 -0.74887675 71 131 113
0.069955394 -0.58172578 -0.74955416 72 131 113
0.068907149 -0.58108687 -0.74888045 71 131 113
0.070459127 -0.5821209 -0.74995595 72 131 113
0.06961707 -0.58033782 -0.74815226 70 130 113
0.070647791 -0.58046937 -0.74823946 70 130 113
0.07210733 -0.58226365 -0.75023866 73 132 113
0.072009765 -0.58062953 -0.74833882 69 132 113
0.073851421 -0.58218902 -0.75025082 71 131 114
0.073738448 -0.5818584 -0.74985731 70 132 113
0.074315786 -0.58187026 -0.74991101 70 131 113
0.07470414 -0.59501594 -0.7631917 77 133 114
0.074990913 -0.59389913 -0.76231778 79 133 113
0.074600421 -0.59521317 -0.76330906 77 133 114
0.075188562 -0.5945617 -0.7630921 79 133 113
0.072798699 -0.595393 -0.76222867 74 133 114
0.074723296 -0.59479427 -0.76299196 77 133 114
0.074644364 -0.5939464 -0.76212293 77 133 113
0.079579815 -0.59561014 -0.76563966 83 133 112
0.079706632 -0.59328377 -0.76273781 78 134 111
0.08002051 -0.59348577 -0.76307398 79 134 111
0.077974997 -0.5953632 -0.76491189 81 134 112
0.079633377 -0.59530455 -0.76526803 82 134 111
0.078462176 -0.59467691 -0.76417255 80 133 112
0.079515241 -0.59546298 -0.7654373 83 133 112
0.076694556 -0.5938651 -0.76312184 81 132 113
0.078254305 -0.59287125 -0.76221198 79 134 112
0.078015707 -0.59376889 -0.76306778 79 133 112
0.076528288 -0.5945192 -0.76374567 81 132 113
0.076329894 -0.59339505 -0.76265949 81 133 113
0.083348304 -0.59533387 -0.76538032 83 134 110
0.082596265 -0.59336871 -0.7634601 81 133 112
0.083654121 -0.59544742 -0.76548016 84 134 110
0.08241456 -0.59512484 -0.76521236 83 134 111
0.082734674 -0.59501272 -0.76508743 83 134 111
0.083535381 -0.59456611 -0.76460969 82 134 110
0.082657449 -0.5949403 -0.7650187 83 134 111
0.081830949 -0.59296781 -0.76279837 79 134 111
0.08259242 -0.59304094 -0.76304829 80 134 111
0.082613774 -0.59267694 -0.76259351 80 133 111
0.080266953 -0.59412378 -0.76393282 80 134 111
0.082929701 -0.59254783 -0.76249599 80 133 111
0.08088766 -0.59476787 -0.76487386 82 134 111
0.084361255 -0.59566998 -0.76575428 84 134 110
0.084325396 -0.59267408 -0.76277345 80 133 111
0.084584609 -0.59559816 -0.76572561 84 134 110
0.084482178 -0.59334737 -0.76347101 81 134 111
0.084448777 -0.5935303 -0.76364654 81 134 111
0.086026974 -0.5954141 -0.76580644 82 134 110
0.084756628 -0.59416151 -0.76432991 81 134 111
0.084908791 -0.59340328 -0.76360452 80 134 111
0.087083355 -0.59295082 -0.76320761 81 132 111
0.086069092 -0.5926044 -0.76277906 80 132 111
0.086963244 -0.59340757 -0.76375443 81 133 111
0.085970335 -0.59350479 -0.76385862 80 133 111
0.086265862 -0.59314883 -0.76343501 81 133 111
0.08651679 -0.59349585 -0.76385474 81 133 111
0.08465606 -0.59210491 -0.76216173 79 133 111
0.090578794 -0.59381312 -0.7641961 78 132 111
0.09093383 -0.59347701 -0.76371443 78 132 111
0.090872206 -0.59387475 -0.76437426 77 133 111
0.090363614 -0.59365278 -0.76386982 79 132 111
0.09083844 -0.59386683 -0.76435238 77 133 111
0.091575459 -0.59441966 -0.76547599 75 133 111
0.09024471 -0.59445471 -0.76520169 77 133 111
0.089988738 -0.59281808 -0.76281542 80 132 111
0.089617088 -0.59226841 -0.76219875 81 131 112
0.090687774 -0.59233528 -0.762155 80 131 112
0.090261459 -0.5933342 -0.76340342 79 132 111
0.08800064 -0.5943085 -0.76483476 81 134 110
0.089690425 -0.59285414 -0.76289326 80 132 111
0.089206755 -0.5938412 -0.76413417 80 133 111
0.095258892 -0.59303105 -0.76337498 77 132 111
0.092681564 -0.59228915 -0.76213831 78 131 112
0.092760943 -0.59299719 -0.76290917 79 132 111
0.094616093 -0.59291691 -0.76314235 78 132 111
0.094288938 -0.59370941 -0.76393372 79 133 111
0.095341504 -0.59435833 -0.76480871 80 133 111
0.095432051 -0.59465736 -0.76514417 81 134 110
0.092251554 -0.59333116 -0.76354027 78 132 112
0.092981815 -0.59433103 -0.76500821 78 132 111
0.092734762 -0.59343821 -0.76356995 79 132 112
0.091803797 -0.59352249 -0.76400608 77 132 112
0.091983013 -0.59454918 -0.76569295 75 132 112
0.091881141 -0.59301269 -0.76311606 78 132 112
0.092958786 -0.59489381 -0.76597106 77 133 111
0.095884703 -0.59429514 -0.7647959 79 133 111
0.09573482 -0.59532422 -0.76590258 82 134 111
0.097564213 -0.59363019 -0.76401216 79 133 112
0.09760201 -0.59336209 -0.76372391 77 133 111
0.097359598 -0.59322375 -0.76358652 77 133 111
0.096324071 -0.59310997 -0.76350975 77 132 111
0.097484738 -0.59326285 -0.76362282 77 133 111
0.098845147 -0.59403783 -0.7650522 77 133 111
0.098206595 -0.59366608 -0.7642445 77 133 111
0.099500611 -0.59335065 -0.76424235 76 132 112
0.098331496 -0.59375435 -0.76442635 77 133 111
0.098896675 -0.59395146 -0.76493895 77 132 112
0.096786678 -0.59482205 -0.76548868 81 133 111
0.10088776 -0.59383929 -0.7649473 71 133 112
0.10026509 -0.59425163 -0.76558656 74 132 112
0.10129151 -0.59372723 -0.7647177 69 134 112
0.09987504 -0.59442896 -0.7658906 75 132 112
0.1008388 -0.5928176 -0.76344228 70 134 112
0.10019779 -0.59285146 -0.76350623 73 133 112
0.10153635 -0.59285182 -0.7634815 67 134 112
0.099893153 -0.59332567 -0.76423919 74 132 112
0.099850379 -0.59321731 -0.76407379 74 133 111
0.10612629 -0.59508765 -0.76587689 64 135 113
0.10466169 -0.59446198 -0.76509249 65 137 111
0.10380305 -0.59470916 -0.76536345 68 137 111
0.07196179 -0.59915525 -0.76313406 64 135 113
0.071733825 -0.59812963 -0.76259583 66 134 114
0.070962302 -0.59957987 -0.76250798 64 134 114
0.076030903 -0.59860218 -0.76556659 71 133 114
0.073413797 -0.59934193 -0.76416159 66 135 113
0.074181192 -0.59818101 -0.7643196 70 134 113
0.073476106 -0.59901863 -0.76411283 67 135 113
0.075632393 -0.59863281 -0.76533055 71 133 114
0.073580787 -0.59873444 -0.76410049 68 134 114
0.072867237 -0.59630871 -0.76278728 72 133 114
0.072266817 -0.59817129 -0.76302487 67 134 113
0.072883904 -0.5958848 -0.76264977 73 132 114
0.073621631 -0.59767485 -0.76379263 70 134 113
0.073313326 -0.59791213 -0.76366162 69 134 113
0.073518068 -0.59665555 -0.76336205 73 132 114
0.073083401 -0.59604597 -0.76284522 73 132 114
0.077347726 -0.59841931 -0.76590878 73 133 114
0.076589949 -0.59588504 -0.76503038 80 133 113
0.078542233 -0.59623027 -0.76562959 81 134 112
0.076803222 -0.59828252 -0.7657308 73 133 114
0.077091865 -0.59852391 -0.76587057 72 134 113
0.078310341 -0.59713197 -0.76581204 78 134 113
0.080337226 -0.59572184 -0.76589376 84 133 111
0.070484243 -0.59966236 -0.76217282 63 135 114
0.07118874 -0.60010111 -0.76293004 63 135 114
0.071871519 -0.60010558 -0.76346207 63 134 113
0.070629664 -0.60090685 -0.76269525 62 135 114
0.075146116 -0.60050029 -0.76572269 66 135 113
0.074138179 -0.60022599 -0.7649734 65 134 113
0.075452015 -0.59962744 -0.76549155 68 133 114
0.07540869 -0.59988534 -0.7655887 67 135 113
0.074641116 -0.60021746 -0.76527756 66 135 113
0.073080905 -0.60092789 -0.76466209 63 134 114
0.087053932 -0.61112708 -0.77795339 63 133 116
0.086510368 -0.61184603 -0.77805036 63 133 116
0 0 0 1 0 0 0 1 0 0 0 1 0 0 0 0 0 667 1 0 0
