ply
format ascii 1.0
comment PCL generated
element vertex 758
property float x
property float y
property float z
property uchar red
property uchar green
property uchar blue
element camera 1
property float view_px
property float view_py
property float view_pz
property float x_axisx
property float x_axisy
property float x_axisz
property float y_axisx
property float y_axisy
property float y_axisz
property float z_axisx
property float z_axisy
property float z_axisz
property float focal
property float scalex
property float scaley
property float centerx
property float centery
property int viewportx
property int viewporty
property float k1
property float k2
end_header
-0.15926076 0.4834255 -0.84547621 40 136 116
-0.15432261 0.48433644 -0.84792405 39 136 119
-0.15629296 0.48542121 -0.84737122 41 136 118
-0.15593402 0.48611084 -0.84776002 42 136 119
-0.15666336 0.48417521 -0.84679639 40 136 118
-0.15726395 0.48443612 -0.84660244 40 135 118
-0.15810688 0.4844968 -0.84623116 40 135 118
-0.15395711 0.48390102 -0.84799147 39 135 119
-0.1598822 0.4822349 -0.84487349 39 137 114
-0.15994766 0.48242149 -0.84491479 39 137 114
-0.15209922 0.47997418 -0.84774959 40 134 119
-0.15236533 0.47907731 -0.84728926 40 134 118
-0.15209654 0.48056027 -0.84795177 40 134 119
-0.15211615 0.47960356 -0.84761298 40 135 118
-0.15304779 0.48148715 -0.8477208 39 134 119
-0.15250519 0.47947767 -0.84734571 40 134 118
-0.15051256 0.47665137 -0.84738946 42 134 119
-0.15172324 0.4784086 -0.84742242 42 133 119
-0.15293528 0.47809821 -0.84659469 40 133 118
-0.15259318 0.47817084 -0.84682208 40 133 118
-0.15122627 0.4756394 -0.84655571 42 133 119
-0.15165627 0.47714841 -0.84693629 42 133 119
-0.15269333 0.4778513 -0.84663135 40 133 118
-0.15365763 0.47780091 -0.84605688 39 133 118
-0.15277605 0.47516614 -0.84551889 39 133 118
-0.15202577 0.47510621 -0.84590608 40 133 119
-0.15168993 0.47478011 -0.84596366 40 133 119
-0.15031122 0.47509456 -0.84686673 42 134 119
-0.15034874 0.47696602 -0.84762317 42 134 119
-0.14906742 0.47524461 -0.84779704 45 134 120
-0.15187627 0.47139364 -0.84450471 37 134 120
-0.15070671 0.47085246 -0.84488386 38 135 120
-0.15132508 0.47375745 -0.84574312 40 134 120
-0.15106031 0.47277534 -0.84547985 39 134 120
-0.15079123 0.47272903 -0.84560788 39 134 120
-0.15077345 0.47315875 -0.84579617 40 134 120
-0.15261857 0.47352657 -0.84493953 38 134 118
-0.15114917 0.47353435 -0.8457467 40 134 120
-0.15150321 0.47364849 -0.84560043 39 134 119
-0.14656636 0.47088996 -0.84759688 52 135 119
-0.15006192 0.47446176 -0.84677106 42 134 119
-0.14766754 0.47192636 -0.84729671 48 136 119
-0.14815898 0.47275409 -0.84732753 47 135 119
-0.14920692 0.47120366 -0.84597641 43 135 120
-0.14833315 0.47196281 -0.84687001 47 135 120
-0.14810103 0.47109935 -0.84666479 46 136 119
-0.1501305 0.47076246 -0.84518206 38 136 120
-0.14954139 0.47291058 -0.8464644 43 135 120
-0.14818768 0.47122303 -0.84665889 46 135 119
-0.14845353 0.47104058 -0.84640718 45 135 120
-0.14627178 0.47075629 -0.84772795 53 136 119
-0.15077752 0.47041014 -0.84468263 38 135 120
-0.14878045 0.46750566 -0.84457052 43 136 120
-0.15026771 0.46979484 -0.84469652 38 136 120
-0.15025096 0.47050592 -0.84498012 38 135 121
-0.1496309 0.4684003 -0.84448159 40 135 120
-0.14720869 0.46833715 -0.84581554 51 135 120
-0.14696153 0.46821165 -0.84591138 52 135 120
-0.14655615 0.46906677 -0.84664047 53 134 120
-0.1466873 0.46857882 -0.84629071 53 134 120
-0.14747657 0.46930906 -0.84616208 49 136 120
-0.14720829 0.46922055 -0.84629184 51 135 120
-0.14669159 0.4673034 -0.84560055 54 134 120
-0.1443575 0.46867037 -0.84783494 52 137 119
-0.14596857 0.46940118 -0.84719831 53 136 120
-0.14483663 0.46898887 -0.84770066 52 137 119
-0.14578824 0.46767646 -0.84638423 53 135 120
-0.1455158 0.46869558 -0.84710789 53 136 120
-0.1446377 0.46768951 -0.84712768 52 137 119
-0.14559102 0.46900326 -0.84722555 53 136 120
-0.14515942 0.46783251 -0.84687084 53 136 120
-0.14791666 0.46612647 -0.84441924 46 137 120
-0.14841555 0.46643618 -0.8443135 44 136 120
-0.14797463 0.46583906 -0.84425312 46 136 120
-0.14347944 0.4631252 -0.84554255 54 136 120
-0.14408977 0.46333504 -0.84527153 54 136 120
-0.14529426 0.46531978 -0.8454845 54 135 120
-0.14638896 0.4649176 -0.84462857 53 135 120
-0.14434943 0.46438199 -0.84561199 54 136 120
-0.1427879 0.46483111 -0.84683061 53 136 119
-0.14359213 0.46564272 -0.84672874 53 136 119
-0.14309463 0.46392751 -0.84617466 54 136 119
-0.14306921 0.4662877 -0.84739149 52 137 119
-0.14283822 0.46356642 -0.84615505 54 136 119
-0.14272518 0.46444288 -0.84667325 54 136 120
-0.14224033 0.46554613 -0.84755194 51 138 118
-0.14054532 0.46327949 -0.84749544 48 135 119
-0.14104281 0.46302128 -0.84704083 50 136 119
-0.14029926 0.46373019 -0.84788513 47 135 120
-0.14165208 0.46308896 -0.84667993 52 135 120
-0.1443965 0.46217191 -0.84448135 54 135 121
-0.14264603 0.46162149 -0.84522969 54 136 120
-0.14476933 0.46235558 -0.84435898 54 135 121
-0.14295399 0.46273345 -0.84566361 54 136 119
-0.14300479 0.46057102 -0.84442818 52 135 121
-0.14160304 0.46060285 -0.84533584 50 135 121
-0.14070232 0.4627361 -0.84710902 49 135 120
-0.14082034 0.46182808 -0.8465265 48 134 120
-0.14123046 0.46247733 -0.84662205 51 135 120
-0.14254989 0.46021628 -0.84450597 52 135 121
-0.13942087 0.46163031 -0.8473376 45 134 120
-0.14054562 0.46101105 -0.84625685 47 135 120
-0.13973117 0.46141416 -0.84701467 46 134 120
-0.14122033 0.46009502 -0.84530824 48 136 120
-0.14070287 0.46030921 -0.84576595 47 136 120
-0.14092207 0.45977139 -0.84532684 47 136 120
-0.14017451 0.45991382 -0.84590131 46 135 119
-0.13916299 0.45914051 -0.84615362 45 135 118
-0.13881926 0.46123269 -0.8475191 44 135 119
-0.13949873 0.45935911 -0.84604919 45 135 118
-0.13738777 0.45979711 -0.84796959 45 136 119
-0.13856478 0.45999023 -0.84703642 45 135 119
-0.1403365 0.45700806 -0.84430742 47 136 120
-0.13877742 0.45620599 -0.84494591 45 136 119
-0.14161941 0.45850235 -0.8441962 48 136 120
-0.13905603 0.45743528 -0.84537083 45 135 119
-0.13878046 0.45853347 -0.84609926 45 135 118
-0.14110044 0.45819661 -0.8443895 48 136 120
-0.13948303 0.45564547 -0.84419584 46 137 119
-0.13651301 0.45851749 -0.84803516 45 136 119
-0.136612 0.45716727 -0.84717935 45 135 118
-0.13721879 0.45772725 -0.84696245 45 135 118
-0.13710496 0.45743102 -0.8468945 45 135 118
-0.13506581 0.45552847 -0.84761161 44 136 119
-0.13689718 0.45656276 -0.84663069 45 135 119
-0.13859072 0.45573804 -0.84484953 46 136 119
-0.13865753 0.45627064 -0.84505975 45 136 119
-0.13628213 0.45524314 -0.84647387 45 136 119
-0.13748537 0.45742103 -0.84658039 45 135 118
-0.13838969 0.45818499 -0.84622705 45 135 118
-0.13607132 0.45549479 -0.84676957 45 136 119
-0.13553652 0.45181733 -0.84498727 40 137 119
-0.13718268 0.4531858 -0.8445093 42 137 119
-0.13800748 0.45406464 -0.84438485 44 136 119
-0.13586506 0.45449871 -0.84637201 44 136 119
-0.13632087 0.45457733 -0.84605134 44 137 119
-0.13537978 0.45299786 -0.84583831 41 137 120
-0.13676172 0.45428684 -0.84551483 44 137 119
-0.13581264 0.4544538 -0.84638673 44 136 119
-0.1353489 0.45418358 -0.84659553 43 136 120
-0.13683602 0.453291 -0.84483969 43 137 120
-0.13741288 0.45452529 -0.84513462 44 137 119
-0.13421732 0.45422727 -0.8476131 43 136 120
-0.13308617 0.45225126 -0.84748477 41 137 120
-0.13381732 0.45122254 -0.84615022 40 137 120
-0.13402374 0.45264426 -0.8468259 41 137 120
-0.13461637 0.45231766 -0.84605592 40 137 120
-0.1336133 0.45226666 -0.84698802 41 137 120
-0.13451764 0.45415416 -0.84728211 43 136 120
-0.13217451 0.44979259 -0.84674537 37 137 121
-0.13245715 0.45045584 -0.84694272 38 137 120
-0.13051088 0.44850266 -0.84745181 36 134 122
-0.14635061 0.49137178 -0.85616899 32 134 117
-0.14313239 0.49043784 -0.85867059 35 133 118
-0.14262101 0.4902654 -0.85904431 35 133 118
-0.14310098 0.49116367 -0.85907233 35 132 119
-0.14211111 0.49060535 -0.8597303 35 133 119
-0.14369935 0.48902541 -0.85746706 36 134 118
-0.14384551 0.48849338 -0.85707694 37 134 118
-0.14383063 0.4888832 -0.85727942 36 134 118
-0.14407858 0.48934087 -0.85727715 36 134 118
-0.14267585 0.48644394 -0.85714078 39 133 118
-0.14343111 0.48844534 -0.85742837 37 135 117
-0.14260264 0.48661697 -0.85729086 39 133 118
-0.14367503 0.48678219 -0.85639781 40 134 118
-0.14432606 0.48809928 -0.85645062 38 134 118
-0.14421345 0.48723945 -0.85613203 39 134 118
-0.14208768 0.48890182 -0.85891652 36 134 118
-0.14176008 0.48656386 -0.85810369 38 134 118
-0.1412147 0.48735744 -0.85903442 36 134 118
-0.14116324 0.48673359 -0.85878164 36 134 118
-0.14250484 0.4873718 -0.85775316 38 135 117
-0.14263658 0.48411459 -0.85599327 42 134 117
-0.14280576 0.48582238 -0.85670859 40 134 118
-0.14126287 0.48587745 -0.85825533 37 135 117
-0.14229593 0.48622784 -0.85740334 39 133 118
-0.14224114 0.4857322 -0.85720581 40 133 118
-0.13940001 0.48473948 -0.85951418 37 135 117
-0.14112476 0.48408034 -0.85746831 40 135 117
-0.14110203 0.48432654 -0.85761833 40 133 118
-0.14080752 0.48408815 -0.85778582 40 134 118
-0.14132702 0.48403281 -0.85724378 42 133 118
-0.14213037 0.48312303 -0.85597771 43 134 118
-0.14094809 0.48345497 -0.8573184 42 134 118
-0.13878912 0.48365334 -0.85955334 39 134 117
-0.13924731 0.48259696 -0.8585422 42 134 118
-0.13895492 0.48326483 -0.85918421 40 134 118
-0.13816798 0.48256457 -0.85969633 40 134 118
-0.13992763 0.48099551 -0.85712862 43 134 118
-0.13936163 0.48164859 -0.85798353 43 134 118
-0.13906343 0.48234236 -0.85859376 43 134 118
-0.14021936 0.48052096 -0.8566249 43 134 118
-0.13911256 0.48148349 -0.85815293 43 134 118
-0.14149278 0.48218921 -0.85613531 43 134 118
-0.13967423 0.47870272 -0.85639071 45 135 118
-0.13960929 0.47879735 -0.85648763 45 134 118
-0.14029659 0.47976118 -0.8562448 45 134 118
-0.13728105 0.48014805 -0.85946673 40 133 117
-0.13815042 0.48107153 -0.85900658 40 135 117
-0.13685042 0.47953007 -0.85961723 40 133 117
-0.13808073 0.48174641 -0.85940486 40 135 117
-0.13800384 0.4785741 -0.8579542 42 134 117
-0.1383764 0.48119161 -0.85880792 42 135 117
-0.1386161 0.48168391 -0.85874486 42 134 117
-0.13908063 0.47710699 -0.85610902 45 134 119
-0.13910215 0.47771165 -0.85641062 45 134 119
-0.13702574 0.47769985 -0.85851169 41 134 117
-0.13732783 0.47823945 -0.85848361 42 133 117
-0.13756467 0.47738951 -0.85778534 42 134 117
-0.13681026 0.47836083 -0.85908735 40 133 117
-0.13607134 0.47774321 -0.85952091 40 133 116
-0.13507229 0.4761388 -0.85968655 40 133 116
-0.13723159 0.47712767 -0.85799038 42 134 118
-0.13689558 0.47740608 -0.85848773 41 134 117
-0.1352281 0.47626483 -0.85959369 40 133 116
-0.13760687 0.47521299 -0.85656613 44 135 119
-0.13619143 0.47543225 -0.85814774 42 134 117
-0.13629274 0.47536474 -0.85800624 42 134 117
-0.13523771 0.47474414 -0.85874885 40 133 116
-0.13678338 0.47470385 -0.85713589 43 134 118
-0.13492396 0.47155324 -0.85730344 45 135 116
-0.13529731 0.47393754 -0.85824025 42 134 116
-0.13598481 0.47387299 -0.8574971 43 134 117
-0.13600883 0.47290751 -0.85693747 44 136 117
-0.13683018 0.47386339 -0.85662186 44 135 118
-0.13588658 0.47356105 -0.85742527 43 134 117
-0.13485442 0.47254643 -0.8579253 43 136 116
-0.13662755 0.47276038 -0.85621828 46 134 118
-0.13698731 0.47327769 -0.85613507 46 134 119
-0.13340454 0.47166517 -0.8591603 43 136 116
-0.13399194 0.47304726 -0.85922921 40 135 116
-0.13387319 0.47281921 -0.85924393 42 135 116
-0.13274129 0.47075796 -0.85944712 45 135 116
-0.13417479 0.47150177 -0.85814786 43 135 116
-0.13452767 0.47390205 -0.85906017 40 134 116
-0.13529113 0.46984652 -0.85596055 47 136 116
-0.13427179 0.47060227 -0.85752827 45 136 116
-0.1338015 0.47046575 -0.85801238 46 135 117
-0.13335049 0.47027054 -0.85843992 46 135 116
-0.13290377 0.47021729 -0.85894203 46 135 117
-0.1326627 0.46817437 -0.85802251 47 136 116
-0.13291222 0.46867168 -0.85802078 47 136 116
-0.13251393 0.46952003 -0.8589918 46 135 116
-0.13255532 0.46970433 -0.85905153 46 135 117
-0.13416626 0.46883303 -0.85663342 49 136 117
-0.13144331 0.46739373 -0.85899031 47 136 117
-0.13293694 0.46768889 -0.85739118 50 136 117
-0.13284273 0.46732894 -0.85727549 50 136 117
-0.13394468 0.46756926 -0.85611004 51 136 117
-0.13100888 0.46715704 -0.85935229 46 136 116
-0.13083833 0.46691933 -0.85940391 46 136 116
-0.13301083 0.46661752 -0.85661548 52 136 117
-0.13127472 0.46633589 -0.8584978 48 136 116
-0.13190933 0.46575767 -0.85736454 51 136 117
-0.13090274 0.46626052 -0.85889131 48 136 116
-0.1331524 0.46668175 -0.856489 52 136 117
-0.13304825 0.46633127 -0.85638392 52 136 117
-0.13248977 0.46637547 -0.85707748 51 136 117
-0.13185085 0.46406254 -0.85633534 54 136 116
-0.13165525 0.46323013 -0.85605443 54 136 116
-0.13057323 0.46306688 -0.85721499 53 136 116
-0.12886378 0.46291646 -0.8592459 48 134 118
-0.12990549 0.46404681 -0.8587029 49 135 117
-0.12962393 0.46464607 -0.85945481 47 134 118
-0.13009001 0.46580425 -0.85964823 46 136 117
-0.13082564 0.46358725 -0.85724366 53 136 116
-0.13090616 0.46262026 -0.85650915 54 136 117
-0.1305209 0.46273246 -0.85705769 54 135 117
-0.13041919 0.46191785 -0.85664552 53 136 117
-0.12844142 0.46067128 -0.85830086 46 134 119
-0.12861824 0.46248385 -0.85926759 47 134 118
-0.12844707 0.46163061 -0.85892248 46 133 119
-0.12803897 0.46099475 -0.85901606 45 134 119
-0.12972672 0.46132389 -0.85712135 52 134 118
-0.12783375 0.46005037 -0.85864055 45 134 119
-0.12864332 0.46056059 -0.85797018 47 134 119
-0.12942399 0.46032909 -0.85682249 51 135 119
-0.12983616 0.46043003 -0.8563711 52 135 118
-0.12918554 0.46043351 -0.85719639 50 134 120
-0.12804998 0.45957217 -0.85803592 46 134 119
-0.12755442 0.4570249 -0.85675693 45 133 121
-0.12723593 0.45712674 -0.85723883 44 133 121
-0.12788272 0.45656988 -0.85599154 46 134 120
-0.12735593 0.45684165 -0.85686785 45 133 121
-0.12772398 0.45687154 -0.85642433 46 134 120
-0.13902032 0.48537165 -0.86031276 36 134 118
-0.13933608 0.48528427 -0.85987949 36 135 117
-0.13841039 0.48479313 -0.86070228 36 135 117
-0.13823192 0.48337212 -0.86007947 38 135 117
-0.13790429 0.48357999 -0.86063951 38 135 117
-0.13805732 0.48466972 -0.8610779 36 135 117
-0.13592745 0.47930652 -0.86060685 36 134 116
-0.13547014 0.47886044 -0.86082983 36 133 117
-0.13673688 0.48180115 -0.86104703 35 135 116
-0.13626994 0.48140332 -0.86140114 34 134 116
-0.13735159 0.48122051 -0.85994011 39 134 117
-0.13684148 0.48191229 -0.86098051 36 135 116
-0.13753256 0.48165226 -0.85996383 39 134 117
-0.13617663 0.48078474 -0.86115915 35 134 116
-0.13685437 0.48195988 -0.86099195 36 135 116
-0.13475528 0.47890794 -0.86165369 35 133 116
-0.13519934 0.47810495 -0.86067426 37 133 116
-0.13548468 0.47795925 -0.86027575 38 132 116
-0.13515332 0.47812063 -0.86073405 37 133 116
-0.13391103 0.47728008 -0.86192471 35 133 116
-0.13437444 0.47709799 -0.86114329 36 133 117
-0.13380778 0.47675973 -0.86174446 35 133 116
-0.13410203 0.47588691 -0.86079592 36 134 116
-0.13298278 0.47464061 -0.86161184 34 135 115
-0.13090409 0.47117764 -0.86200112 39 134 116
-0.1310721 0.47156286 -0.86206305 39 133 117
-0.13107035 0.47177637 -0.86221606 38 135 116
-0.13139993 0.47136074 -0.86151797 40 134 116
-0.13234591 0.47097617 -0.86008555 43 136 116
-0.13304247 0.47396016 -0.86107892 37 134 116
-0.13328913 0.47422832 -0.86090678 37 134 116
-0.13225068 0.47372749 -0.86204684 34 136 115
-0.13362847 0.47433293 -0.86049515 37 135 115
-0.13269 0.47346085 -0.86124814 37 135 116
-0.13230254 0.47410232 -0.86222124 34 135 115
-0.1329798 0.47239289 -0.86013138 41 135 116
-0.13081044 0.47094581 -0.86197138 40 133 117
-0.13011198 0.47078583 -0.86297715 37 134 117
-0.13107152 0.46814495 -0.85989076 45 136 116
-0.13134284 0.46872225 -0.85991114 45 135 116
-0.13169417 0.46922392 -0.85978705 45 135 116
-0.13079761 0.46832156 -0.86035824 44 135 117
-0.13083692 0.47019297 -0.86144036 42 134 117
-0.13031021 0.47061706 -0.86254603 38 133 117
-0.1303193 0.46837997 -0.86113042 42 134 117
-0.13025969 0.468638 -0.86138994 42 134 117
-0.12961873 0.46765113 -0.86158389 41 134 116
-0.12967774 0.46997821 -0.8631205 37 133 117
-0.12957707 0.46956068 -0.86296612 37 134 117
-0.12939741 0.46996102 -0.86348617 36 133 117
-0.13020837 0.46770656 -0.86082816 43 134 117
-0.12977901 0.46808806 -0.86167139 40 134 117
-0.12804523 0.46465063 -0.86155903 42 133 117
-0.12772767 0.46355802 -0.86118805 42 133 118
-0.12820508 0.4645358 -0.86126125 42 133 117
-0.12832196 0.46425429 -0.86090046 43 133 118
-0.12902367 0.46474242 -0.86030793 45 134 117
-0.13012151 0.46672758 -0.86026335 45 135 117
-0.12834981 0.46430433 -0.86089909 43 133 118
-0.12862854 0.46341816 -0.85988349 46 134 118
-0.12932238 0.46656227 -0.8612203 42 134 117
-0.12733491 0.46245685 -0.86092365 41 133 119
-0.12749441 0.46256953 -0.86079007 42 133 119
-0.12685102 0.46109957 -0.8606801 40 133 119
-0.12610734 0.45951864 -0.86085749 40 133 120
-0.12505111 0.45736298 -0.86103123 40 131 120
-0.12595002 0.45898202 -0.86074495 40 133 121
-0.15555561 0.48924536 -0.84896159 39 136 118
-0.15547308 0.48848543 -0.84873521 40 137 118
-0.15518147 0.48878515 -0.84899133 39 137 118
-0.15044104 0.48843601 -0.85160744 38 136 117
-0.15067345 0.48786208 -0.85129815 38 136 117
-0.15099041 0.48917833 -0.85151428 38 135 118
-0.15384614 0.48635578 -0.84886616 40 138 118
-0.1533531 0.48837438 -0.84988582 38 137 118
-0.15242523 0.48771876 -0.85022873 38 137 118
-0.15097831 0.48673031 -0.85077548 39 136 117
-0.15016516 0.48847777 -0.85180247 38 135 118
-0.14947973 0.48642316 -0.8516407 38 136 118
-0.15461695 0.48587242 -0.84828478 41 136 120
-0.15213607 0.48327997 -0.84889513 40 136 118
-0.15351585 0.48353544 -0.84813368 40 135 119
-0.15378197 0.48399529 -0.84812737 40 135 120
-0.15339582 0.48535156 -0.84880608 41 137 119
-0.15402007 0.48467338 -0.84821016 40 136 119
-0.15412147 0.48583919 -0.84852523 41 136 120
-0.15318401 0.48606014 -0.84917593 41 136 119
-0.15079741 0.4859308 -0.85061073 40 135 118
-0.15163355 0.48443794 -0.8495875 41 136 118
-0.15344022 0.48551804 -0.84883368 41 137 119
-0.15153494 0.48530009 -0.84994036 40 136 118
-0.15122566 0.48596784 -0.85035801 40 136 118
-0.14955403 0.4835234 -0.85062182 40 136 118
-0.14960173 0.48245177 -0.85023421 42 137 118
-0.14863291 0.48411164 -0.85145742 41 135 117
-0.14738594 0.48247766 -0.85178494 44 136 117
-0.14896972 0.4841502 -0.85123575 41 135 118
-0.14801042 0.48255485 -0.85137582 43 136 118
-0.14946684 0.48518535 -0.85123378 39 135 118
-0.15028504 0.48357862 -0.85013789 40 136 118
-0.15015686 0.48499072 -0.85070235 40 135 118
-0.15188852 0.48095906 -0.84821808 41 134 120
-0.15087231 0.47946119 -0.84829491 42 134 119
-0.15042335 0.48039436 -0.84891278 42 134 119
-0.15069044 0.47917891 -0.8483035 42 134 119
-0.15081893 0.48176622 -0.84917164 41 136 118
-0.14775574 0.48171145 -0.85123152 45 136 117
-0.14952876 0.48165128 -0.84997398 43 137 118
-0.14746228 0.47951487 -0.85057741 47 137 117
-0.14794105 0.48100463 -0.85082632 46 136 117
-0.14800784 0.48151955 -0.85098106 45 136 117
-0.14722396 0.48202974 -0.851726 46 134 117
-0.14987428 0.48116988 -0.84956348 43 137 118
-0.15025875 0.47986698 -0.84882838 43 135 119
-0.14975011 0.48119378 -0.84965557 43 137 118
-0.14700752 0.47899705 -0.85069263 49 136 117
-0.14892492 0.47920629 -0.849482 46 135 119
-0.15021603 0.47962615 -0.84876889 43 135 119
-0.14922951 0.48066139 -0.84981018 44 136 118
-0.14603949 0.47917914 -0.85143179 50 136 117
-0.14566998 0.47873804 -0.85151416 50 136 117
-0.14907303 0.47613084 -0.84815758 45 134 120
-0.14925022 0.47688144 -0.84833777 45 134 120
-0.14738628 0.47467965 -0.84869701 49 136 120
-0.14952798 0.47750071 -0.84840566 45 134 120
-0.14714825 0.477337 -0.84993833 50 136 118
-0.14660001 0.47691295 -0.85013241 51 136 119
-0.1466198 0.47495401 -0.8493154 51 135 119
-0.14798485 0.47660276 -0.84907544 48 136 119
-0.1471889 0.47609392 -0.849401 50 136 119
-0.14891963 0.47832438 -0.84915417 46 135 119
-0.14470519 0.47762468 -0.85168326 51 136 119
-0.14491738 0.47841907 -0.85190082 51 135 118
-0.14481083 0.47476855 -0.85040182 52 135 119
-0.14618993 0.47581419 -0.84994775 51 136 119
-0.14319712 0.47462192 -0.85137486 52 137 119
-0.14616281 0.47790554 -0.85082316 51 136 118
-0.14478986 0.47511977 -0.85055935 52 135 119
-0.14403184 0.47600871 -0.85140938 52 135 119
-0.14458743 0.47539198 -0.85080057 52 135 119
-0.14718732 0.47299284 -0.84810585 50 136 119
-0.14701016 0.4728609 -0.84816617 50 136 119
-0.14404751 0.47098881 -0.84919137 52 134 120
-0.14624603 0.47146013 -0.84805703 52 136 119
-0.1452288 0.47175151 -0.8488003 52 134 119
-0.14490215 0.4725509 -0.84934258 52 134 120
-0.14521646 0.47247228 -0.84911764 52 135 120
-0.14476991 0.47222739 -0.84928399 52 134 120
-0.14431973 0.47294071 -0.84988028 51 135 119
-0.14618973 0.47454891 -0.84942567 51 136 119
-0.14303124 0.47269225 -0.85059053 51 135 119
-0.14380451 0.47226584 -0.84989846 51 135 119
-0.14283627 0.47128093 -0.85006356 51 135 119
-0.14326848 0.47182605 -0.85003859 51 135 119
-0.14316364 0.47274292 -0.85052919 51 135 119
-0.14218335 0.47417039 -0.85188025 51 137 119
-0.1416655 0.47156101 -0.85106134 51 135 120
-0.14227834 0.47346276 -0.85147768 50 137 119
-0.14192593 0.47236589 -0.85123676 50 135 120
-0.14204326 0.47270012 -0.85130256 50 136 119
-0.14403911 0.46876892 -0.84808534 52 136 119
-0.14352004 0.47017789 -0.84912115 52 134 119
-0.14308941 0.46825573 -0.84839988 51 136 119
-0.14333212 0.46917927 -0.84872466 51 136 119
-0.14304511 0.46906295 -0.84883958 51 136 119
-0.14139628 0.47015342 -0.85058695 51 135 120
-0.14207917 0.46983939 -0.84990281 51 135 120
-0.14178944 0.47018296 -0.85030067 51 134 120
-0.14233841 0.46771434 -0.84861743 51 138 118
-0.14209871 0.46981403 -0.84987485 51 135 120
-0.14120132 0.46799418 -0.84963274 50 135 120
-0.14055707 0.46954793 -0.85092092 50 135 120
-0.14200474 0.46731129 -0.84866738 51 136 119
-0.14150639 0.46845195 -0.8496325 50 136 120
-0.14027962 0.4679485 -0.85031462 48 136 119
-0.14044993 0.46759862 -0.84999603 48 136 119
-0.14011213 0.46752355 -0.85020924 48 136 119
-0.13894361 0.46691611 -0.85075754 47 134 118
-0.14019251 0.46691263 -0.84981626 48 135 118
-0.1384695 0.46805754 -0.85178208 47 133 119
-0.14180824 0.46658039 -0.84840834 48 138 118
-0.13910905 0.46454132 -0.84921807 45 135 119
-0.13889262 0.46589562 -0.85019153 46 134 118
-0.13939957 0.46616772 -0.84997314 46 134 119
-0.14065889 0.46532765 -0.84852308 47 137 119
-0.13904396 0.46665666 -0.85053325 46 134 118
-0.14103702 0.46643621 -0.84890211 48 137 118
-0.14029174 0.46405929 -0.848059 46 135 119
-0.13791661 0.46538976 -0.85079378 46 133 119
-0.13835004 0.46365845 -0.84932983 44 135 119
-0.13790318 0.4648076 -0.85045087 46 134 119
-0.13663611 0.46314561 -0.85062486 47 137 119
-0.13616253 0.46351171 -0.85129279 49 136 119
-0.13810852 0.46310681 -0.84921956 43 136 119
-0.13756545 0.46345454 -0.84994149 46 134 119
-0.13847186 0.46674564 -0.85106283 47 133 118
-0.1384189 0.46654588 -0.8509953 46 134 118
-0.13816769 0.46654779 -0.8512432 47 134 118
-0.13728501 0.46254131 -0.84965396 46 135 119
-0.13796465 0.46269146 -0.84910488 45 135 119
-0.13510875 0.46278512 -0.85184026 51 137 119
-0.13680069 0.46168989 -0.84961224 47 136 120
-0.13760965 0.46130511 -0.84862918 45 136 119
-0.13734995 0.4615213 -0.84899843 46 136 119
-0.136923 0.46117508 -0.84919924 46 136 119
-0.13714431 0.46022597 -0.8484416 45 136 119
-0.13530649 0.46168581 -0.8510142 50 136 119
-0.13577175 0.46150658 -0.85047311 49 136 120
-0.13487099 0.46158352 -0.85136443 51 137 119
-0.1350939 0.46071851 -0.8506543 50 136 119
-0.13552512 0.46019831 -0.84994775 48 137 119
-0.13365099 0.45967737 -0.85146803 53 136 120
-0.13371299 0.45970246 -0.85142094 52 136 120
-0.13449715 0.46016163 -0.85090756 50 136 119
-0.13435191 0.4601911 -0.85106891 50 136 120
-0.13516457 0.4582603 -0.8491478 47 136 120
-0.13521266 0.45655248 -0.84807283 45 136 119
-0.13479105 0.45825347 -0.84949499 47 137 120
-0.13386117 0.45879483 -0.85074395 51 135 120
-0.13462839 0.45780089 -0.84938234 47 136 120
-0.13397254 0.45731717 -0.84974229 48 136 119
-0.13426201 0.45740551 -0.84950799 47 137 119
-0.13263255 0.45761716 -0.85123968 52 135 120
-0.13254435 0.45826951 -0.85172552 53 135 120
-0.1326776 0.45593411 -0.85016489 47 136 120
-0.13213591 0.45592907 -0.85069185 48 135 120
-0.13283053 0.45760468 -0.85103834 52 135 120
-0.13340051 0.45627949 -0.84966898 47 136 120
-0.13283761 0.45569244 -0.84986126 47 136 120
-0.13291456 0.45556241 -0.84970695 47 136 120
-0.13313796 0.45534676 -0.84935695 46 136 120
-0.13170259 0.45423493 -0.85005343 45 135 120
-0.13386585 0.45479664 -0.84830135 44 136 119
-0.13295387 0.45469147 -0.84912354 45 135 120
-0.13327056 0.45504254 -0.84903777 45 136 119
-0.13172695 0.45336866 -0.84947962 43 136 120
-0.13205671 0.45332557 -0.84913087 43 136 120
-0.13194796 0.45221505 -0.84853929 41 136 120
-0.13029094 0.45417863 -0.85148156 45 135 121
-0.16384788 0.48251364 -0.84379506 40 138 114
-0.16388743 0.48252711 -0.84378904 40 138 114
-0.16469081 0.48419219 -0.84398437 40 137 114
-0.16359118 0.48283944 -0.84392834 41 137 114
-0.16386533 0.48250648 -0.8437894 40 138 114
-0.16438097 0.4820151 -0.84353387 39 137 115
-0.16335106 0.48082829 -0.843427 41 136 116
-0.16490608 0.48156804 -0.84328383 38 138 116
-0.16322502 0.48105663 -0.84352201 41 137 115
-0.16091049 0.478791 -0.84344757 40 137 116
-0.16099368 0.48098731 -0.84406114 41 139 113
-0.16070607 0.47950512 -0.84370989 40 138 114
-0.16101573 0.47815925 -0.84322178 40 137 116
-0.14933978 0.46694946 -0.84407812 40 137 120
-0.14731672 0.46440458 -0.84391516 49 136 121
-0.148939 0.46627098 -0.84397811 42 137 120
-0.14795394 0.46494135 -0.84385079 46 136 120
-0.14770974 0.46348485 -0.8433286 46 136 120
-0.14929281 0.46520305 -0.84334052 39 137 120
-0.14820191 0.46405229 -0.84334636 44 136 120
-0.14849417 0.46424156 -0.84329444 43 137 120
-0.14842321 0.46439248 -0.84339041 43 137 120
-0.14716139 0.45899168 -0.84128702 37 138 121
-0.14685002 0.46043044 -0.84221053 43 138 121
-0.14727491 0.46071857 -0.84216553 42 138 121
-0.14661843 0.45918214 -0.84167838 40 137 121
-0.14455342 0.46152022 -0.84402156 53 136 121
-0.14535685 0.46211046 -0.84386992 53 136 121
-0.14459713 0.46135682 -0.84390533 53 136 121
-0.14599559 0.46177509 -0.84333152 50 135 121
-0.14498104 0.4611043 -0.84354961 50 136 121
-0.14442693 0.460132 -0.84335959 49 136 121
-0.14549026 0.45991132 -0.84265983 46 137 121
-0.14325514 0.45915651 -0.84350908 49 136 121
-0.14541312 0.46037176 -0.84293729 47 137 121
-0.14578833 0.46135199 -0.84323013 49 136 121
-0.1471294 0.45797625 -0.84071255 35 137 121
-0.14678906 0.45715708 -0.8404144 35 136 121
-0.14476536 0.45634362 -0.84117234 36 138 121
-0.14515787 0.45619974 -0.84084392 35 137 121
-0.14533618 0.45753899 -0.84151232 38 138 121
-0.1452862 0.45700628 -0.84123343 38 137 121
-0.14634022 0.45838174 -0.84137708 39 137 121
-0.14300753 0.45595649 -0.8420108 39 137 121
-0.14514606 0.45776531 -0.84175414 40 137 121
-0.14411524 0.45698729 -0.8419258 40 137 121
-0.1426972 0.4572984 -0.84286785 44 136 121
-0.1435864 0.456541 -0.84198976 39 138 120
-0.14281259 0.45620319 -0.84224445 40 137 121
-0.14334626 0.45744112 -0.84258235 43 137 121
-0.14183488 0.45571727 -0.84263098 40 137 120
-0.14151038 0.45523867 -0.84260815 40 137 120
-0.1419047 0.45583427 -0.84264308 41 137 121
-0.14184357 0.45691216 -0.843234 44 136 121
-0.14125121 0.45666566 -0.84351194 45 136 120
-0.1407188 0.45562953 -0.84334654 43 137 120
-0.1421158 0.45858109 -0.84389907 47 137 120
-0.14309268 0.4545249 -0.84117317 35 137 121
-0.14315726 0.45476127 -0.8412618 36 137 121
-0.14250007 0.45423236 -0.84138983 36 137 121
-0.14029966 0.45427907 -0.84291428 40 137 120
-0.14071646 0.45371494 -0.8423211 38 138 120
-0.14020117 0.45325744 -0.84241217 38 138 120
-0.1390409 0.45288545 -0.84297347 39 137 120
-0.13846307 0.45298582 -0.84342539 40 137 120
-0.13799186 0.45298797 -0.84377009 40 137 120
-0.13813578 0.45340195 -0.84389842 42 137 119
-0.15081221 0.49174616 -0.85269392 34 134 117
-0.15150696 0.49210918 -0.85239148 33 134 117
-0.1504686 0.49077955 -0.85243094 36 134 118
-0.15188132 0.49193212 -0.85203886 34 134 117
-0.14786527 0.49169683 -0.85511953 31 135 118
-0.14894222 0.49095806 -0.85381806 34 134 117
-0.14961468 0.49182776 -0.85369903 33 134 118
-0.14851962 0.49077335 -0.85408247 34 134 118
-0.1501715 0.49291644 -0.85379374 30 133 117
-0.14954552 0.49036315 -0.85299051 37 134 118
-0.14890005 0.49196777 -0.85438341 31 135 118
-0.14893384 0.49089858 -0.85379404 34 134 117
-0.1506975 0.49010417 -0.85196114 37 135 117
-0.14732625 0.48681653 -0.85324687 39 134 119
-0.14878082 0.48773372 -0.85252535 38 135 118
-0.14824122 0.48675689 -0.85259444 38 135 118
-0.14978667 0.48910838 -0.85225892 38 135 118
-0.15023221 0.4896597 -0.85212481 38 134 118
-0.14877947 0.49009153 -0.85350972 36 134 118
-0.14839882 0.48901522 -0.85332203 38 134 119
-0.14747345 0.48768097 -0.85347712 39 133 120
-0.14666025 0.48758775 -0.85412788 38 135 119
-0.14673698 0.4890146 -0.85474241 36 135 118
-0.14872463 0.48928055 -0.85317004 37 135 117
-0.14795548 0.48975596 -0.85405415 36 134 118
-0.1456275 0.48804343 -0.85525554 38 134 118
-0.146192 0.48804796 -0.85475743 38 134 119
-0.14581503 0.4885976 -0.85535377 37 134 118
-0.14623587 0.48784724 -0.85462278 38 134 119
-0.14509383 0.48798382 -0.85570008 38 135 117
-0.14815928 0.48559836 -0.85227424 40 135 118
-0.14722894 0.48433542 -0.8524977 42 134 118
-0.14733571 0.48435995 -0.85243195 42 134 118
-0.14794372 0.48547468 -0.8523823 40 135 118
-0.14672317 0.48275232 -0.85232115 45 134 117
-0.14351816 0.48539177 -0.85584146 42 134 118
-0.14476995 0.48536053 -0.85471195 42 133 119
-0.14531492 0.48564777 -0.85437298 40 135 118
-0.14463864 0.48595175 -0.85512471 41 134 118
-0.14350493 0.48361981 -0.85496014 43 134 118
-0.14554517 0.48559129 -0.85414064 40 134 119
-0.14423625 0.48309726 -0.85421526 44 134 118
-0.14325196 0.48288375 -0.85485089 43 134 118
-0.14569883 0.48538724 -0.85392827 42 133 120
-0.14628248 0.4856483 -0.85359615 40 134 119
-0.14591107 0.48426685 -0.85340238 42 134 118
-0.14566433 0.48256549 -0.85301244 45 134 117
-0.14379491 0.48258793 -0.85436243 45 134 117
-0.14228508 0.48298293 -0.8557536 43 134 118
-0.14419603 0.47857037 -0.85248184 51 135 118
-0.14481564 0.4793424 -0.85235155 49 135 118
-0.14395468 0.47952044 -0.8530376 49 135 119
-0.14398232 0.47961941 -0.85305578 49 135 119
-0.1442623 0.48057696 -0.85323173 47 135 118
-0.14440894 0.48171228 -0.85358161 46 134 118
-0.14291044 0.48210755 -0.8548162 45 134 117
-0.14257863 0.48090741 -0.85457325 46 135 118
-0.14288281 0.4799144 -0.8539567 49 134 119
-0.14331979 0.48068669 -0.85395259 47 134 119
-0.14516264 0.48140138 -0.8529157 47 134 118
-0.14225011 0.47973475 -0.85441864 48 134 119
-0.14170384 0.48014411 -0.85509598 47 133 119
-0.14122339 0.47909376 -0.85511625 48 135 119
-0.14204885 0.47883865 -0.85424095 49 135 119
-0.14091924 0.47933358 -0.85549819 47 134 119
-0.14237574 0.47982067 -0.85433507 48 134 119
-0.14244559 0.48032895 -0.85447079 47 134 119
-0.14286087 0.4767344 -0.85256684 51 136 119
-0.14373842 0.47825149 -0.85266089 51 135 119
-0.14328347 0.47712296 -0.85244966 51 135 119
-0.14129269 0.47769731 -0.85442686 49 136 120
-0.14237453 0.47841972 -0.85375929 51 134 120
-0.14164381 0.47675884 -0.85365313 50 136 119
-0.14196242 0.47793457 -0.8539139 51 134 120
-0.1425077 0.47674361 -0.85283881 51 135 120
-0.14074214 0.47699443 -0.85458124 48 136 119
-0.13998556 0.47616276 -0.85482037 47 135 119
-0.14051577 0.47716436 -0.8548674 48 136 119
-0.13995489 0.47569099 -0.85460556 47 135 119
-0.14207925 0.47522894 -0.85250032 50 136 120
-0.13967529 0.47694924 -0.85549635 47 134 119
-0.14092964 0.47538033 -0.85358971 48 136 119
-0.13926344 0.47523442 -0.85496694 47 134 119
-0.14056511 0.47463098 -0.8535133 49 136 119
-0.14020678 0.47494629 -0.85399449 48 136 119
-0.13845959 0.47470567 -0.85541028 46 134 119
-0.14049098 0.47432074 -0.85340756 49 136 119
-0.13867509 0.47456867 -0.85511422 47 134 119
-0.14080441 0.47441238 -0.85318667 49 136 119
-0.13913244 0.47429278 -0.85456747 48 134 119
-0.14203264 0.47449479 -0.85216933 51 137 119
-0.14006843 0.47422782 -0.85372221 48 136 119
-0.13922377 0.47256431 -0.85354143 49 136 120
-0.13985969 0.47127163 -0.8523261 51 134 121
-0.14029244 0.47159028 -0.85213506 50 136 120
-0.13935493 0.4712542 -0.85272098 51 135 121
-0.13709827 0.47243318 -0.85555333 46 134 118
-0.13725483 0.47268948 -0.85553485 46 134 118
-0.13614562 0.47098443 -0.8557269 46 136 117
-0.13699149 0.47245941 -0.85567653 46 134 118
-0.13743582 0.47212446 -0.85503978 47 134 119
-0.13754515 0.47353977 -0.85570675 46 134 119
-0.13849983 0.47203436 -0.85390574 49 135 120
-0.13858055 0.4742102 -0.85501468 47 133 120
-0.13968094 0.47027543 -0.85196531 49 135 120
-0.13976915 0.47040445 -0.85196346 49 135 120
-0.13821891 0.46943939 -0.85278821 48 134 119
-0.13832898 0.47031701 -0.85314298 49 136 120
-0.13822134 0.47042039 -0.8533076 49 136 120
-0.1358355 0.47010463 -0.85555518 47 136 117
-0.13719709 0.46924505 -0.85371327 47 134 119
-0.13626021 0.46978202 -0.85495043 47 136 117
-0.13694894 0.46887562 -0.85375673 49 134 119
-0.1365197 0.46773499 -0.85355347 48 134 118
-0.13663241 0.46814737 -0.85366952 49 135 118
-0.13720864 0.46798059 -0.85299945 48 134 118
-0.13786721 0.46817625 -0.85244811 48 133 119
-0.13516988 0.46729687 -0.85463536 53 135 117
-0.13485885 0.46864295 -0.85572165 51 135 118
-0.13520251 0.46744436 -0.85468864 52 134 118
-0.1346696 0.4672547 -0.8551144 53 136 117
-0.13508162 0.46597356 -0.85390288 53 136 118
-0.13675138 0.46569827 -0.85207951 49 134 119
-0.13608342 0.46677944 -0.85343391 52 134 118
-0.136346 0.46661988 -0.85307235 51 134 119
-0.13664868 0.4664273 -0.85264999 50 134 119
-0.13489296 0.46312353 -0.85225451 52 137 119
-0.13629535 0.46493134 -0.85203689 50 136 118
-0.13421302 0.46446303 -0.85385591 52 137 118
-0.13360524 0.46452224 -0.85460025 53 136 117
-0.13304597 0.46368456 -0.85472775 53 136 117
-0.13453251 0.46373695 -0.85303038 52 136 119
-0.13260251 0.46387768 -0.85536456 54 136 117
-0.13283683 0.46421334 -0.85530156 54 136 117
-0.13310453 0.46338171 -0.85447037 53 136 117
-0.13401477 0.46600947 -0.85505754 53 136 117
-0.13419741 0.4659273 -0.85480517 53 136 117
-0.13339801 0.46270987 -0.85371333 53 137 117
-0.13244957 0.46247751 -0.85465372 54 136 117
-0.1335084 0.46233571 -0.85333735 53 137 118
-0.13325228 0.46120259 -0.852871 54 136 119
-0.13254139 0.46172863 -0.85403991 54 136 118
-0.13285775 0.46171951 -0.8536703 54 136 119
-0.13239543 0.46081153 -0.85359389 54 136 118
-0.13191512 0.46146548 -0.85458344 54 135 118
-0.13154987 0.46170405 -0.85516286 54 135 118
-0.13223353 0.4603098 -0.85344416 54 136 118
-0.13204992 0.45953146 -0.85311347 55 135 119
-0.13102086 0.46041331 -0.85486037 55 135 119
-0.13115627 0.46095324 -0.85510248 55 135 118
-0.12996309 0.45900723 -0.85520047 53 134 120
-0.13049053 0.46029365 -0.85543329 54 135 118
-0.13138641 0.45728734 -0.85228902 53 134 120
-0.13109225 0.45768088 -0.85287327 54 134 120
-0.13110578 0.45649245 -0.8520546 51 135 121
-0.12978715 0.45878682 -0.85528141 52 134 121
-0.13061395 0.45869777 -0.85413527 55 134 120
-0.13039346 0.45847195 -0.85427207 54 134 120
-0.13019261 0.45636365 -0.85309672 48 136 120
-0.12939389 0.45827222 -0.85541469 50 134 121
-0.12938946 0.45873886 -0.85575372 51 133 121
-0.12944554 0.45534781 -0.85326207 46 135 120
-0.12903017 0.45728174 -0.85513467 48 133 121
-0.12785834 0.45615414 -0.85570836 45 133 121
-0.12955703 0.45608339 -0.85365695 47 135 120
-0.12962133 0.45769677 -0.8547352 50 134 121
-0.13008019 0.45528179 -0.8524673 47 135 121
0 0 0 1 0 0 0 1 0 0 0 1 0 0 0 0 0 758 1 0 0
