ply
format ascii 1.0
comment PCL generated
element vertex 765
property float x
property float y
property float z
property uchar red
property uchar green
property uchar blue
element camera 1
property float view_px
property float view_py
property float view_pz
property float x_axisx
property float x_axisy
property float x_axisz
property float y_axisx
property float y_axisy
property float y_axisz
property float z_axisx
property float z_axisy
property float z_axisz
property float focal
property float scalex
property float scaley
property float centerx
property float centery
property int viewportx
property int viewporty
property float k1
property float k2
end_header
0.0015603257 -0.57207119 -0.73870349 33 132 113
0.0057273386 -0.57209605 -0.73894209 33 134 112
0.002184361 -0.57200426 -0.73872197 33 132 113
0.0070715141 -0.57198727 -0.73891592 36 133 113
0.0063056219 -0.5722369 -0.73900741 33 134 112
0.0084290095 -0.57135069 -0.73868376 39 131 113
0.013074116 -0.57216644 -0.73909128 33 133 114
0.011473656 -0.5717721 -0.73893118 36 133 113
0.0098554585 -0.57196528 -0.7389487 37 133 113
0.016220437 -0.57204968 -0.73896664 38 135 115
0.015012641 -0.57204819 -0.73901451 35 135 115
0.015601302 -0.57162011 -0.73885489 37 135 115
0.014206598 -0.57149273 -0.73885757 35 134 114
0.02117628 -0.5712741 -0.73895109 38 137 112
0.020386165 -0.57213598 -0.7391715 36 137 112
0.021165689 -0.57163686 -0.73907089 36 138 111
0.020102574 -0.57071686 -0.7386834 41 136 113
0.024539381 -0.57069701 -0.73899043 34 137 112
0.024440512 -0.57116657 -0.73911625 31 137 112
0.025289766 -0.57046938 -0.73895621 33 137 112
0.024600906 -0.5721314 -0.7393887 23 138 112
0.024298286 -0.5700193 -0.7387827 39 137 111
0.023446143 -0.57025939 -0.73879498 39 137 111
0.021585153 -0.5716846 -0.73912156 36 137 111
0.026693219 -0.57210755 -0.73955435 26 136 115
0.026210606 -0.57212114 -0.73950183 24 136 115
0.02868923 -0.57134068 -0.73951846 39 134 116
0.026661132 -0.57115579 -0.73921168 33 134 114
0.027446039 -0.57126576 -0.73934412 35 135 115
0.025412938 -0.57099807 -0.73910701 28 136 112
0.028469762 -0.56912339 -0.73873341 56 131 115
0.025481535 -0.57069457 -0.73902649 31 137 112
0.030594802 -0.5705024 -0.73935002 50 132 115
0.030210175 -0.57078046 -0.73943186 47 133 116
0.029472599 -0.56939143 -0.7389046 57 131 116
0.030118573 -0.56892473 -0.73876721 62 129 115
0.03167231 -0.56938255 -0.73899931 61 131 114
0.030364586 -0.57169086 -0.73976934 40 135 116
0.032273665 -0.57070446 -0.73951542 53 131 115
0.032359365 -0.57124978 -0.73972237 50 132 115
0.031961713 -0.57044244 -0.73940015 54 131 114
0.036350116 -0.57206464 -0.74045253 42 134 116
0.035751946 -0.57197136 -0.74032933 43 134 116
0.035527159 -0.5718084 -0.74021947 45 132 116
0.034973331 -0.57210398 -0.74029505 43 133 116
0.035384431 -0.57041323 -0.73950839 57 130 113
0.034978945 -0.57131785 -0.73990542 50 131 114
0.0336009 -0.57138366 -0.73982215 50 131 114
0.034264691 -0.57081962 -0.73961478 54 130 114
0.034219362 -0.56971002 -0.73920369 63 129 113
0.033295836 -0.57067591 -0.73955935 55 131 114
0.039195057 -0.571163 -0.74032134 52 132 116
0.03922902 -0.5715133 -0.7405163 51 133 116
0.038830563 -0.57074463 -0.74004638 51 132 115
0.037740719 -0.57089621 -0.74002206 51 131 116
-0.0018337436 -0.57348359 -0.73886836 31 133 112
-0.0011486254 -0.57333785 -0.73888004 32 133 113
0.0010650287 -0.57236755 -0.73876518 33 132 113
-7.0025009e-05 -0.57350194 -0.73901665 30 133 113
0.0057926378 -0.57519579 -0.73964942 30 133 113
0.0027508067 -0.57238156 -0.73887801 32 133 113
0.0026196488 -0.57237315 -0.73886883 32 133 113
0.0040714461 -0.57306802 -0.73912954 32 132 114
0.0027521483 -0.57289952 -0.73901474 32 132 114
0.008436054 -0.57491112 -0.73962688 34 133 112
0.0085596982 -0.5734818 -0.73931533 35 133 113
0.0094882483 -0.57426667 -0.73950249 36 133 112
0.0067651775 -0.57546294 -0.73972106 32 132 114
0.0091487393 -0.57304317 -0.73922855 36 133 113
0.0068457597 -0.57263249 -0.73910654 33 134 112
0.0081178583 -0.57316083 -0.73923928 34 133 113
0.0066284249 -0.57402807 -0.73940682 32 133 113
0.0073062927 -0.57393211 -0.7393955 33 133 113
0.0074205389 -0.57353634 -0.73931116 33 134 113
0.010238348 -0.57579833 -0.73985028 36 134 112
0.010560911 -0.57564604 -0.73982084 36 134 112
0.013643528 -0.5741511 -0.73953146 36 133 114
0.013622807 -0.57451916 -0.73960876 36 133 114
0.011367824 -0.57517284 -0.73972785 36 133 112
0.012578139 -0.57294953 -0.73926628 33 133 114
0.010768919 -0.57427865 -0.73952681 36 133 112
0.0099543985 -0.57526779 -0.73972988 36 134 111
0.011762532 -0.57345712 -0.73936361 34 134 113
0.012518009 -0.57276887 -0.73922557 33 133 114
0.013071403 -0.57234669 -0.73914242 33 133 114
0.01581442 -0.57508647 -0.73962456 42 133 114
0.016575798 -0.57394612 -0.73936075 40 134 114
0.014900843 -0.57580924 -0.73981649 41 133 113
0.017188838 -0.57308799 -0.73915994 40 135 114
0.014338453 -0.57555991 -0.73980063 40 132 113
0.014486772 -0.57420933 -0.73951137 38 134 114
0.01437817 -0.57462025 -0.73960227 38 132 114
0.015676256 -0.57342207 -0.73929822 38 134 114
0.014918513 -0.57344836 -0.73933405 37 134 114
0.014520583 -0.57362002 -0.73938602 36 134 114
0.021069812 -0.57421196 -0.73971295 38 136 112
0.020064598 -0.57418305 -0.73957902 40 135 112
0.021301089 -0.57433081 -0.73977017 38 137 111
0.020649139 -0.57520884 -0.73989457 42 135 112
0.020567114 -0.57399809 -0.73959899 38 136 112
0.019694008 -0.57561481 -0.73986936 43 134 112
0.017832641 -0.57588017 -0.73969799 45 133 113
0.0178548 -0.57495207 -0.73952079 43 134 114
0.018084997 -0.5750829 -0.73956531 43 134 113
0.017818814 -0.57502282 -0.73953134 43 134 114
0.017893117 -0.5754838 -0.73962659 44 134 114
0.022996748 -0.57615209 -0.74040264 43 133 111
0.024499241 -0.57499933 -0.74021715 36 134 112
0.024037611 -0.57562792 -0.74036133 40 132 112
0.024910852 -0.57295793 -0.73961812 24 136 113
0.024423072 -0.57591552 -0.74049908 41 133 111
0.022309903 -0.57485104 -0.73994738 37 135 112
0.023005316 -0.5728358 -0.73949921 29 137 112
0.024435509 -0.57256317 -0.73948956 24 136 113
0.021890683 -0.57458925 -0.73986971 38 137 111
0.023457939 -0.57409543 -0.73981321 31 136 112
0.026835663 -0.57510847 -0.74051523 40 133 113
0.027073314 -0.57584262 -0.74073714 42 132 113
0.026160704 -0.57550037 -0.74057108 41 133 112
0.028524265 -0.57517427 -0.74066532 40 133 114
0.028140487 -0.57613552 -0.74090159 42 133 113
0.027646942 -0.57578343 -0.74076551 42 132 113
0.026710048 -0.57371294 -0.74007243 33 136 113
0.025401074 -0.57322466 -0.73976177 26 134 114
0.025678376 -0.57258385 -0.73959112 21 137 113
0.027000338 -0.57379973 -0.74013448 33 135 113
0.025739055 -0.57508147 -0.74039185 38 134 112
0.030967301 -0.57615817 -0.74126112 39 133 114
0.032199755 -0.5733602 -0.74040163 43 133 114
0.033026628 -0.57603198 -0.74153936 34 134 115
0.029940706 -0.57559514 -0.74088651 42 132 114
0.030905819 -0.57540751 -0.74096841 41 132 114
0.032471724 -0.57546693 -0.74123859 37 134 114
0.030266387 -0.57455456 -0.74061054 41 133 114
0.029447269 -0.57507259 -0.74070626 40 133 114
0.031835817 -0.57302243 -0.74027771 42 134 115
0.030871252 -0.57275701 -0.74014789 39 134 116
0.030351352 -0.57467765 -0.74064958 42 133 114
0.029910322 -0.57453722 -0.74058497 40 133 115
0.034421965 -0.57584107 -0.74159896 31 135 115
0.036125623 -0.57562333 -0.74164724 27 134 116
0.035806742 -0.57530159 -0.74152321 30 133 116
0.036603536 -0.57525176 -0.74156231 28 134 117
0.035741653 -0.57427716 -0.74119377 35 134 116
0.0345263 -0.57404983 -0.74099034 37 135 116
0.034583386 -0.57315898 -0.74066198 40 133 116
0.036586463 -0.57226777 -0.74058354 40 133 117
0.034303796 -0.57252914 -0.74038869 42 133 116
0.035860911 -0.57242465 -0.74054939 40 133 117
0.037397496 -0.57590902 -0.74184537 25 133 117
0.038690094 -0.57581627 -0.74208903 27 134 117
0.040578194 -0.57457906 -0.74199909 40 133 118
0.038909078 -0.57501578 -0.74181265 35 133 118
0.037884451 -0.57495147 -0.74160266 32 133 117
0.037867408 -0.5726288 -0.74086368 41 134 117
0.038388826 -0.57483494 -0.74163127 34 133 117
0.038161907 -0.57285863 -0.7409749 42 133 118
0.042035725 -0.57419896 -0.74208248 45 134 117
0.042778477 -0.57499403 -0.74250776 42 134 118
0.041094966 -0.57535458 -0.74241924 36 135 118
0.0052837254 -0.5795722 -0.74035299 32 133 112
0.0047611948 -0.57937938 -0.74032599 32 133 113
0.0055959765 -0.58006352 -0.74042332 33 133 113
0.0070651248 -0.57975304 -0.74038815 34 134 112
0.0085434327 -0.57771558 -0.74012434 36 134 112
0.0090290401 -0.57955551 -0.74037236 36 134 112
0.0094027584 -0.57854503 -0.74023956 36 134 112
0.0069516851 -0.57916236 -0.7403087 34 133 112
0.0085627567 -0.57889891 -0.7402823 36 134 112
0.0060368176 -0.5794161 -0.74033242 33 133 113
0.0065986514 -0.57839388 -0.7401942 33 133 113
0.005955305 -0.57750076 -0.74005508 32 132 114
0.0076826056 -0.57765186 -0.74010473 34 133 112
0.0093661649 -0.57638496 -0.73994923 36 134 111
0.0070320605 -0.57827979 -0.74018478 34 133 113
0.01279572 -0.57918978 -0.74029481 40 132 113
0.013206043 -0.57751238 -0.74010843 40 132 113
0.013657764 -0.57635951 -0.73997718 40 132 113
0.01217193 -0.57980961 -0.74037242 39 132 113
0.011628643 -0.58006084 -0.74040931 38 133 112
0.012671997 -0.57982212 -0.74036443 39 132 113
0.011640082 -0.57806051 -0.74019223 38 133 112
0.01023501 -0.57799375 -0.74017185 37 134 111
0.012330864 -0.57689214 -0.74004203 39 132 113
0.010018608 -0.5797258 -0.74040103 37 135 111
0.010890995 -0.57641321 -0.73996639 38 133 112
0.015420071 -0.57947469 -0.74025393 41 133 112
0.017173095 -0.57751781 -0.73993689 44 134 113
0.016385049 -0.57828844 -0.74006349 43 133 113
0.016134959 -0.5781821 -0.74005234 43 133 113
0.015385159 -0.57984442 -0.74030858 41 133 113
0.015167018 -0.57710636 -0.73997074 42 133 113
0.014853592 -0.57689345 -0.73996609 42 132 113
0.014946657 -0.57740337 -0.74001503 42 132 113
0.016463704 -0.57624137 -0.73980427 44 133 114
0.014064837 -0.57663411 -0.73998368 40 132 113
0.014169822 -0.57740074 -0.74005926 41 132 113
0.020686215 -0.57798195 -0.74041039 43 135 112
0.021159304 -0.57713246 -0.74033868 43 134 112
0.021437591 -0.57812923 -0.74054438 43 135 112
0.018271077 -0.57996792 -0.7403869 43 134 113
0.020910965 -0.5775227 -0.74036711 43 134 112
0.019223176 -0.57987905 -0.74051112 43 134 113
0.018606419 -0.57667983 -0.73993731 45 134 113
0.017592432 -0.57870048 -0.74010444 44 133 114
0.019795537 -0.57735449 -0.74018627 43 135 112
0.018640703 -0.57727307 -0.74002832 44 134 113
0.019661887 -0.57756984 -0.74020088 43 135 112
0.017729858 -0.57806414 -0.7400288 44 134 113
0.022971896 -0.57974708 -0.74100411 44 133 113
0.02521918 -0.57855183 -0.74108183 44 133 112
0.023947122 -0.57866299 -0.74094129 43 133 112
0.024496948 -0.57950222 -0.7411536 44 134 113
0.024302199 -0.57776618 -0.74083269 43 133 112
0.021506321 -0.57768315 -0.74048001 44 133 112
0.022176577 -0.57758307 -0.74054408 44 133 112
0.022670805 -0.57732874 -0.74056137 43 133 112
0.021884639 -0.57884771 -0.74071842 43 133 112
0.022164008 -0.57709098 -0.74046099 43 134 111
0.022991678 -0.57687873 -0.74052542 43 133 112
0.026773471 -0.57904166 -0.74129468 43 134 113
0.029289976 -0.579368 -0.74154478 42 133 113
0.027859755 -0.57858539 -0.74130118 43 134 113
0.027442921 -0.57803541 -0.74117547 43 134 113
0.026440555 -0.5796594 -0.74137402 43 134 112
0.025630085 -0.57831645 -0.74108183 44 133 112
0.025598433 -0.57765841 -0.74096704 43 133 112
0.025908111 -0.57686061 -0.74085498 43 132 112
0.025635783 -0.57858956 -0.74112892 44 134 112
0.025713187 -0.57864332 -0.74114418 43 134 112
0.030990321 -0.57869613 -0.7417081 39 133 114
0.031788144 -0.5779174 -0.74170256 37 134 114
0.032949511 -0.57785749 -0.74190819 36 133 115
0.029806288 -0.57958227 -0.74166268 40 133 113
0.03231629 -0.5790388 -0.74202484 38 133 115
0.032012269 -0.57750887 -0.7416631 36 134 114
0.029640868 -0.57865161 -0.74147797 41 133 113
0.030562891 -0.57861161 -0.74161702 40 133 114
0.032249693 -0.5765757 -0.74153775 36 134 114
0.02941687 -0.57756186 -0.74125725 42 132 114
0.031937014 -0.57730138 -0.74161166 36 134 114
0.029580532 -0.57747751 -0.74126881 42 132 114
0.03470834 -0.57955587 -0.74247509 36 130 116
0.035141088 -0.57866359 -0.74229056 33 132 116
0.036132809 -0.57829678 -0.74233454 29 132 116
0.03453818 -0.57892984 -0.74227583 33 132 115
0.03456825 -0.57862198 -0.74220204 33 132 116
0.033389274 -0.5792973 -0.74225533 37 131 116
0.036663298 -0.57634866 -0.74189347 25 133 117
0.035949774 -0.57709718 -0.74199349 27 134 115
0.033927977 -0.57897997 -0.74222922 36 132 116
0.038148168 -0.57696038 -0.74233508 27 133 117
0.037849762 -0.57720542 -0.74233764 27 133 117
0.037242219 -0.57663685 -0.74204701 25 133 117
0.0056192358 -0.58172333 -0.74040109 32 133 112
0.0057624872 -0.5816704 -0.74039799 32 133 112
0.0050779162 -0.58234304 -0.74040508 30 133 112
0.0053835073 -0.581119 -0.74041921 32 133 112
0.0097402995 -0.58282274 -0.74045652 36 133 113
0.009407552 -0.58187318 -0.74044329 36 134 112
0.0073642414 -0.58360916 -0.7403928 32 133 112
0.0092319334 -0.58219695 -0.74043965 34 134 112
0.0094325813 -0.58345807 -0.74045044 34 133 112
0.0064672739 -0.58084255 -0.74041396 33 133 112
0.006928015 -0.58212811 -0.74039239 32 134 111
0.0066655492 -0.5822317 -0.74038911 32 133 111
0.0077491333 -0.58072472 -0.74042308 34 134 112
0.0075228065 -0.5819208 -0.74039948 33 134 111
0.012816112 -0.58205819 -0.74041665 38 131 113
0.012953126 -0.58090091 -0.74039161 38 132 112
0.012620068 -0.58211356 -0.74041814 37 133 112
0.010572995 -0.58375514 -0.74045604 35 133 112
0.012088928 -0.58275062 -0.7404325 37 131 113
0.012958567 -0.58349824 -0.74044746 36 132 112
0.010424895 -0.58119494 -0.74043822 37 134 112
0.010839389 -0.58040822 -0.74042732 38 133 112
0.009873936 -0.58065295 -0.74044633 36 135 112
0.01168437 -0.58025247 -0.74041086 38 133 112
0.010140743 -0.58101106 -0.74044281 37 134 112
0.015321548 -0.58258951 -0.74040806 38 132 112
0.016242467 -0.5834806 -0.74048334 37 133 113
0.016629023 -0.58212143 -0.74040842 39 132 113
0.017477533 -0.58167183 -0.74039966 40 133 113
0.014624156 -0.58330667 -0.74043661 37 133 112
0.015293797 -0.58364153 -0.74047208 37 133 112
0.015008748 -0.58073056 -0.74036342 40 132 113
0.017288353 -0.58017695 -0.74031121 42 134 113
0.013708331 -0.58372658 -0.7404508 37 131 112
0.014308793 -0.58065832 -0.74037427 40 132 112
0.014253642 -0.58153772 -0.74039412 40 131 113
0.015318386 -0.58088607 -0.74036127 40 132 113
0.021261487 -0.5826152 -0.74103004 40 132 113
0.01915032 -0.58265626 -0.74069536 39 133 113
0.020897653 -0.58250153 -0.74096322 40 132 113
0.019440237 -0.58294171 -0.74076325 39 132 113
0.020925211 -0.58319765 -0.7410202 39 132 113
0.018994836 -0.58379501 -0.74075645 38 133 113
0.018017875 -0.58012116 -0.74037081 43 133 113
0.02012879 -0.58053917 -0.74070454 43 133 113
0.017920274 -0.58067352 -0.74039054 42 134 113
0.017993361 -0.58056569 -0.74039459 42 134 113
0.019117363 -0.5817309 -0.74063021 40 133 113
0.024865594 -0.58165812 -0.74145389 42 134 114
0.022219207 -0.58393705 -0.74128139 38 132 114
0.024618408 -0.5832094 -0.74158508 40 132 114
0.022658568 -0.58332729 -0.74128455 39 133 113
0.024213983 -0.5831719 -0.74151629 40 132 114
0.023788413 -0.58294237 -0.74142295 40 133 114
0.022522068 -0.58027273 -0.74101889 43 134 113
0.024624631 -0.58066827 -0.74131244 43 134 113
0.023048902 -0.58045334 -0.74109864 43 134 113
0.024057819 -0.58040375 -0.74122137 43 134 112
0.023617337 -0.58026534 -0.74115574 43 134 112
0.027596485 -0.58189952 -0.74173403 40 133 114
0.027805414 -0.58366901 -0.74192828 39 132 115
0.028445914 -0.58311647 -0.74191624 39 132 114
0.028535943 -0.58147496 -0.7417556 40 133 113
0.027875364 -0.58338088 -0.74190378 39 132 115
0.026901465 -0.5816592 -0.74165487 41 133 114
0.027132841 -0.580459 -0.74154067 43 133 114
0.027044041 -0.58133394 -0.74163008 42 133 114
0.026355954 -0.58100969 -0.74154121 42 135 113
0.02738102 -0.58054739 -0.74156952 43 133 114
0.031601932 -0.58345526 -0.7424444 38 131 115
0.030167723 -0.58378047 -0.74220663 38 133 115
0.030150507 -0.58335549 -0.74215847 38 131 115
0.031515338 -0.58272886 -0.74234879 38 131 116
0.031842295 -0.58071631 -0.74220788 40 131 115
0.032260839 -0.5806157 -0.74227607 40 131 116
0.029346067 -0.58049321 -0.74171746 41 133 113
0.031591386 -0.58124465 -0.74221456 39 131 115
0.031157525 -0.58047026 -0.74205452 40 132 115
0.030187506 -0.58125871 -0.7419529 40 132 114
0.0078370776 -0.58772475 -0.73974931 31 131 112
0.0083139036 -0.58708566 -0.73988283 32 131 112
0.007799733 -0.58640409 -0.73994333 31 131 113
0.0078836102 -0.58766925 -0.73976129 31 131 112
0.008912323 -0.58435363 -0.74036366 33 132 112
0.006730746 -0.58572996 -0.74002528 29 131 113
0.0066573056 -0.58546329 -0.74007684 29 132 113
0.007061759 -0.58567601 -0.74004549 29 132 113
0.0095495973 -0.58399832 -0.740453 33 133 112
0.012344193 -0.58721423 -0.74010473 38 131 111
0.013458031 -0.5846625 -0.74038732 37 131 112
0.01245694 -0.58712834 -0.74011922 38 131 111
0.012344649 -0.5868777 -0.74013227 37 133 111
0.013460355 -0.58772671 -0.74013644 40 132 110
0.01026164 -0.58524269 -0.74027354 35 133 111
0.010092482 -0.58456075 -0.74037558 35 132 112
0.0120985 -0.58465993 -0.74035817 36 132 112
0.009941807 -0.58623594 -0.74012572 35 132 111
0.010378948 -0.58651656 -0.74008334 35 133 111
0.01632582 -0.58735454 -0.74025846 41 134 110
0.017318964 -0.58745289 -0.740282 42 134 111
0.017038919 -0.58651161 -0.74034226 40 133 111
0.017542643 -0.58540142 -0.74043918 39 133 112
0.015056609 -0.58653575 -0.74027914 39 132 111
0.015097843 -0.58558369 -0.74035776 38 132 111
0.015671134 -0.58585811 -0.74034804 38 132 111
0.016409039 -0.58433163 -0.74048948 37 133 113
0.015329223 -0.58614498 -0.74031687 38 132 111
0.015598111 -0.58454424 -0.74045402 37 133 112
0.014294068 -0.58613265 -0.74029487 38 131 111
0.020303689 -0.58559448 -0.74084365 40 133 113
0.019722002 -0.5872196 -0.74058652 42 134 111
0.018701285 -0.58752376 -0.74043185 42 135 110
0.018268909 -0.58725488 -0.74041271 42 134 111
0.019667812 -0.586133 -0.74070662 40 134 111
0.02047009 -0.58562434 -0.74085957 40 133 113
0.018172206 -0.58724159 -0.74040061 42 134 111
0.019687062 -0.58490258 -0.74081421 39 132 113
0.019892124 -0.58555615 -0.74079919 40 133 113
0.018279638 -0.58512777 -0.74057251 39 132 113
0.017960865 -0.58466667 -0.74055529 38 134 113
0.025176302 -0.58693647 -0.74139827 43 135 111
0.02416224 -0.58694887 -0.74124104 43 134 111
0.023131371 -0.58658975 -0.74112684 42 134 111
0.024873599 -0.58721548 -0.74131751 44 134 112
0.025304591 -0.58674979 -0.74144089 43 134 111
0.023747906 -0.58490789 -0.74142355 40 133 114
0.022160271 -0.58483672 -0.74117786 39 133 113
0.022137702 -0.5857203 -0.7410714 41 133 113
0.024504794 -0.58457595 -0.74158329 39 133 114
0.022585273 -0.58582193 -0.74113113 41 133 113
0.028426951 -0.58782101 -0.7415992 42 134 110
0.02769985 -0.5877201 -0.7415427 43 134 111
0.027033303 -0.58768147 -0.74148548 43 135 110
0.026539121 -0.58730119 -0.7414782 43 134 111
0.028891521 -0.5865612 -0.74176794 41 133 112
0.026638618 -0.58524758 -0.74172467 40 133 113
0.026589125 -0.5853914 -0.74170357 40 133 113
0.027505443 -0.58472759 -0.74184823 39 133 113
0.026582092 -0.58534843 -0.7417084 40 133 113
0.027865577 -0.58434498 -0.74192005 39 132 114
0.029980063 -0.58730847 -0.74189532 41 133 111
0.031450588 -0.5870977 -0.74236131 40 134 112
0.030410068 -0.58746582 -0.74202847 40 134 111
0.030501848 -0.58664167 -0.74206913 40 133 112
0.029447455 -0.5877164 -0.74172181 42 133 111
0.031058766 -0.58455205 -0.74234205 38 133 114
0.030426877 -0.58600301 -0.7420764 39 132 113
0.029879948 -0.5840078 -0.74217176 38 133 115
0.02980423 -0.58435941 -0.74212217 38 133 114
0.0077545531 -0.58804083 -0.73960817 30 131 113
0.007224055 -0.58808857 -0.73953068 28 131 113
0.013120337 -0.59024251 -0.73880857 36 132 113
0.012930336 -0.58999926 -0.73892057 36 133 112
0.011573811 -0.58798558 -0.73994035 37 133 111
0.0098347124 -0.58809853 -0.73975611 35 132 111
0.016971167 -0.58974433 -0.73941076 43 133 111
0.016751368 -0.58872986 -0.73981094 42 134 111
0.017377632 -0.5897038 -0.73947453 44 134 111
0.017298199 -0.59155422 -0.73868924 46 133 110
0.014410154 -0.59065121 -0.73873556 40 132 113
0.015461122 -0.5903517 -0.73898214 41 132 112
0.01487462 -0.58819765 -0.74000841 40 133 110
0.014389803 -0.58842516 -0.73987031 40 132 111
0.015715575 -0.58830941 -0.73997402 41 133 111
0.014520275 -0.58973879 -0.73916405 39 132 113
0.018074324 -0.59113711 -0.73907548 47 133 111
0.017615356 -0.59036809 -0.73923248 45 133 110
0.017995425 -0.59097874 -0.73911339 46 133 110
0.020386357 -0.58977687 -0.74025512 48 135 110
0.018512497 -0.58862573 -0.74023819 45 135 110
0.020071123 -0.58816224 -0.74050146 44 135 110
0.018386476 -0.58840609 -0.74026203 44 135 110
0.025237149 -0.5889672 -0.74107474 48 134 110
0.0247024 -0.58923304 -0.7409538 48 134 110
0.021891067 -0.58971918 -0.74045587 48 135 110
0.024050321 -0.58906192 -0.74090272 48 133 110
0.025042534 -0.58800524 -0.74124044 45 134 110
0.024897054 -0.58814621 -0.74119335 45 134 110
0.028556444 -0.58924586 -0.7413817 46 134 109
0.028862318 -0.58867091 -0.74150336 45 133 110
0.028733328 -0.58875269 -0.74147063 45 133 110
0.025912695 -0.58875859 -0.74118435 47 134 110
0.028181316 -0.58859926 -0.74142486 45 133 110
0.026023393 -0.58919853 -0.74110448 48 134 110
0.026721014 -0.58803242 -0.74140698 44 134 110
0.031034814 -0.58875191 -0.74208516 44 134 111
0.031600963 -0.58953911 -0.74214089 47 134 111
0.032332655 -0.58862525 -0.74251342 42 135 110
0.032120842 -0.58960855 -0.74229378 46 135 110
0.030602448 -0.58973807 -0.74181736 48 134 110
0.019414905 -0.59250236 -0.73885202 48 133 111
0.014198878 -0.56783783 -0.73761821 43 135 112
0.013679841 -0.5681119 -0.73773372 42 135 113
0.028268393 -0.56817567 -0.73840123 61 131 114
0.028327161 -0.56631237 -0.73750746 63 133 112
0.028754508 -0.56788236 -0.73828119 63 131 114
0.031212833 -0.56658977 -0.73769051 64 130 112
0.037992906 -0.56527281 -0.73722863 58 131 110
0.040351517 -0.56681716 -0.73816276 59 131 111
-0.015016224 -0.57185161 -0.73704314 37 135 111
-0.010128097 -0.57015145 -0.73680931 38 133 112
-0.01111103 -0.57137066 -0.7372306 35 134 112
-0.011763479 -0.57194614 -0.73741448 33 135 112
-0.011348793 -0.57045585 -0.73683703 38 133 112
-0.012590026 -0.57188731 -0.73732477 35 134 112
-0.013149234 -0.57139111 -0.73705226 37 134 112
-0.013097516 -0.57109571 -0.73691809 38 133 112
-0.0058707218 -0.57039887 -0.73745668 36 133 113
-0.0085329022 -0.57107526 -0.73733628 35 133 113
-0.0060596382 -0.57062286 -0.73753315 36 132 113
-0.0065374523 -0.5691843 -0.73675847 40 133 113
-0.0067273583 -0.57011896 -0.73717779 38 133 113
-0.0085857082 -0.57150263 -0.73753369 33 134 112
-0.0093530975 -0.57107794 -0.73725653 35 133 113
-0.008027574 -0.56995785 -0.7369234 38 134 113
-0.0020971396 -0.57077336 -0.73791784 38 134 112
-0.0024795912 -0.57058471 -0.73783469 39 133 112
-0.0027075661 -0.57018709 -0.73767787 39 133 111
-0.0037492788 -0.57171154 -0.73821837 34 133 112
-0.0036060363 -0.57083035 -0.73789138 36 134 112
-0.0057174894 -0.57027173 -0.73741686 37 133 113
-0.0050569316 -0.5701465 -0.73744774 38 134 113
-0.0053773224 -0.5699411 -0.73730427 39 131 113
0.0017633847 -0.56976974 -0.73784786 41 132 112
0.00015293527 -0.57168996 -0.73844194 35 132 113
0.00024871505 -0.57182604 -0.73850167 35 132 113
0.0013342712 -0.5709157 -0.73824704 37 133 113
0.0015658736 -0.57179832 -0.73860168 35 130 113
-0.0019175392 -0.57039136 -0.73778152 39 133 111
-0.0003935881 -0.57035512 -0.73789042 39 133 112
0.0032385006 -0.57168305 -0.73865777 36 132 113
0.0047682612 -0.57117671 -0.73854566 36 134 112
0.0051544774 -0.57142431 -0.73865992 36 133 113
0.0027033035 -0.57062888 -0.73822933 38 133 113
0.0052951705 -0.57087862 -0.73846048 37 134 112
0.0079661291 -0.57072616 -0.73844945 40 133 113
0.0061529111 -0.5710637 -0.73856425 37 134 112
0.011981982 -0.56995958 -0.73824507 42 133 114
0.012693991 -0.57095379 -0.73865741 37 134 114
0.01345222 -0.57076019 -0.73861343 36 135 114
0.012490906 -0.5695827 -0.73815131 42 133 114
0.012427348 -0.56884056 -0.73790264 43 134 113
0.015789773 -0.57011586 -0.73835057 41 135 114
0.017316718 -0.57112676 -0.73863393 41 135 114
0.014927671 -0.57018161 -0.73839962 39 134 114
0.01553808 -0.56925297 -0.73808414 43 135 114
0.01494294 -0.5689739 -0.73800844 42 135 113
0.018826563 -0.57093829 -0.73865998 42 136 114
0.02047406 -0.57058442 -0.73866928 42 136 113
0.018835295 -0.56993777 -0.73835003 44 136 114
0.022977456 -0.56984818 -0.73861945 42 136 112
0.028349377 -0.56858194 -0.73856974 58 132 114
0.029391736 -0.56873244 -0.73866659 62 130 115
-0.018110167 -0.57499456 -0.73838919 32 132 112
-0.021225985 -0.57460606 -0.73784876 35 135 110
-0.020122683 -0.5739609 -0.7375741 36 135 110
-0.018175062 -0.57418752 -0.73793352 34 133 112
-0.018236009 -0.5748319 -0.73828089 33 133 112
-0.017571503 -0.5745033 -0.73818839 32 133 111
-0.015598753 -0.57253796 -0.737324 36 135 111
-0.01387765 -0.57283539 -0.7376796 33 136 112
-0.016434669 -0.57285887 -0.73740369 35 135 111
-0.016619764 -0.57234132 -0.73710209 37 135 111
-0.012956897 -0.57270986 -0.73768669 33 134 112
-0.012346866 -0.5727393 -0.7377491 33 134 113
-0.0027704795 -0.57290256 -0.73866528 32 133 112
-9.7961209e-05 -0.572276 -0.73864371 33 133 112
0.012201365 -0.59093159 -0.73820931 31 133 114
0.012055922 -0.59046316 -0.73854285 32 132 114
0.013975112 -0.59179062 -0.73783612 36 132 115
0.015350807 -0.59146971 -0.73837519 40 132 113
0.017633796 -0.59173942 -0.73866022 47 133 111
0.013435258 -0.59197462 -0.73730576 33 132 116
0.016159596 -0.59268683 -0.73683673 36 133 113
0.016726969 -0.59229308 -0.73758966 40 132 112
0.014811883 -0.59232122 -0.73701417 34 132 114
0.016393259 -0.59182745 -0.73829401 43 132 112
0.016472619 -0.5918318 -0.73830277 43 132 112
0.013981185 -0.59228134 -0.73691118 32 132 115
0.017597659 -0.59190959 -0.73848188 46 133 110
0.018865194 -0.59308696 -0.73795146 43 134 111
0.019635579 -0.59369451 -0.73777777 42 134 111
0.020297281 -0.59353554 -0.73842531 45 134 110
0.018676721 -0.5930714 -0.73783821 43 133 111
0.017755073 -0.59255463 -0.73780012 42 132 111
0.018018603 -0.59310007 -0.7373457 39 133 111
0.019303458 -0.59325367 -0.73806202 44 134 111
0.019541325 -0.5933823 -0.7380774 44 134 111
0.043012895 -0.57614446 -0.74317825 35 136 118
0.043831442 -0.57551599 -0.74298471 41 134 118
0.044455215 -0.57594287 -0.743379 40 135 118
0.04641309 -0.5759874 -0.74366277 43 136 118
0.046080805 -0.57614172 -0.74372441 43 136 118
0.036487658 -0.57908082 -0.74260753 32 131 116
0.037644513 -0.57909888 -0.74282444 32 129 117
0.03789736 -0.57809645 -0.74259555 29 132 116
0.039809205 -0.57730424 -0.74280071 30 133 118
0.03863376 -0.57992882 -0.74344903 33 131 117
0.04003204 -0.57771558 -0.74303538 31 133 118
0.03810972 -0.57912993 -0.74294454 33 131 117
0.040109705 -0.57902288 -0.74359179 32 131 118
0.04091683 -0.57826269 -0.74356252 30 133 118
0.038611218 -0.57941794 -0.74323434 32 132 117
0.044564564 -0.57895333 -0.74473506 33 133 120
0.043155428 -0.57843417 -0.74415666 35 134 119
0.043713968 -0.57876712 -0.74444103 33 133 119
0.044402424 -0.57845348 -0.74447793 33 134 119
0.041786306 -0.57955891 -0.74430043 32 132 118
0.042688508 -0.57901853 -0.74429268 33 132 118
0.042350888 -0.57708144 -0.74341565 33 134 118
0.042936873 -0.57774889 -0.74381649 36 134 118
0.043126013 -0.57742023 -0.74372554 36 135 118
0.04254042 -0.57830089 -0.7439518 35 133 119
0.042428523 -0.57655638 -0.74322027 33 135 118
0.042534981 -0.57762986 -0.74367875 34 134 118
0.047314059 -0.57956415 -0.74541724 36 134 119
0.048514534 -0.57856035 -0.74511796 41 134 118
0.047894906 -0.57900387 -0.74523717 38 134 118
0.047768783 -0.57820392 -0.74484128 40 134 118
0.048221298 -0.57917821 -0.74536699 38 135 118
0.045403786 -0.5799197 -0.74530727 30 132 121
0.04662583 -0.57806981 -0.74462354 38 134 119
0.045869313 -0.57707566 -0.74411231 40 134 119
0.046549413 -0.57844973 -0.74478 36 134 119
0.046093591 -0.5776493 -0.74438471 38 135 119
0.04556499 -0.57864505 -0.74475974 33 134 119
0.046151057 -0.57623273 -0.74377722 43 135 119
0.032496676 -0.58368421 -0.742634 37 133 115
0.033347558 -0.58337975 -0.7427479 36 133 115
0.036576722 -0.58017451 -0.7429142 35 129 116
0.034045964 -0.5813849 -0.74265927 37 131 116
0.034025468 -0.58158463 -0.74267542 37 131 116
0.034880701 -0.58170623 -0.74281245 36 132 115
0.035454098 -0.58249712 -0.74304253 35 132 116
0.036216773 -0.58273613 -0.74326915 35 130 116
0.036314044 -0.58394855 -0.7435199 35 132 116
0.036332913 -0.58087844 -0.74294823 34 131 116
0.033532828 -0.58382058 -0.74283296 36 133 115
0.036764611 -0.58160824 -0.74318808 34 131 116
0.038806044 -0.58258885 -0.7440421 33 132 116
0.039481547 -0.58174318 -0.74411547 32 132 117
0.040287822 -0.58096629 -0.74424833 32 132 117
0.040040717 -0.58193177 -0.74434876 33 132 117
0.040724553 -0.58206487 -0.74461508 33 132 117
0.039789688 -0.58339214 -0.74454391 33 132 116
0.039341804 -0.5807873 -0.74388701 32 132 117
0.037272006 -0.58364111 -0.7437079 33 132 116
0.038199171 -0.58278072 -0.74386662 33 131 117
0.038278546 -0.58256316 -0.74385321 33 131 117
0.038910169 -0.58154833 -0.74388087 32 132 117
0.037195753 -0.58022153 -0.74303985 34 129 117
0.044601958 -0.58064264 -0.74536681 29 131 120
0.044356745 -0.58389062 -0.74624926 33 131 118
0.042412948 -0.58290672 -0.74526483 32 132 117
0.043864753 -0.5833084 -0.74590063 33 131 119
0.04364324 -0.58169985 -0.74534172 31 132 119
0.044637263 -0.58293134 -0.74606258 32 131 119
0.041701131 -0.58173341 -0.74482512 32 132 117
0.042204432 -0.58127546 -0.74486256 31 132 118
0.041056748 -0.58044064 -0.7444126 32 131 118
0.04123389 -0.58158237 -0.74467862 32 132 117
0.043135636 -0.58032978 -0.74491268 30 131 119
0.048122749 -0.58147854 -0.74624205 37 133 117
0.047597241 -0.58236355 -0.74645382 36 133 117
0.046881855 -0.58221734 -0.74624854 36 133 118
0.045837935 -0.58263886 -0.74620968 34 131 119
0.045219533 -0.5829488 -0.74621224 33 131 119
0.046777133 -0.58057988 -0.74573159 33 133 119
0.046356279 -0.58089399 -0.74576414 33 133 119
0.045131013 -0.58136898 -0.74572778 30 132 120
0.04538551 -0.58169442 -0.74586195 32 131 120
0.049250182 -0.58048064 -0.74610484 39 133 118
0.048912164 -0.5801307 -0.74591476 38 135 117
0.032638744 -0.58591938 -0.74273312 37 135 113
0.032286473 -0.58756453 -0.74261463 39 134 111
0.036236282 -0.58684963 -0.74346149 36 134 113
0.036826771 -0.58707619 -0.74356109 38 131 115
0.036233786 -0.58530343 -0.74351293 36 133 115
0.033767886 -0.58749026 -0.74299192 38 136 112
0.037086818 -0.58405417 -0.74370962 35 132 116
0.033722233 -0.58466196 -0.74292451 36 133 114
0.033521332 -0.58514565 -0.74288791 37 134 114
0.03427526 -0.58631384 -0.74309486 37 135 113
0.034913164 -0.58492982 -0.74321461 36 133 115
0.03487755 -0.58504462 -0.74320883 36 134 114
0.040090222 -0.58541614 -0.74470711 35 133 115
0.038995519 -0.58752537 -0.74423271 36 133 114
0.04076834 -0.58453393 -0.7449789 35 132 116
0.037837792 -0.58720016 -0.74386376 37 131 114
0.040685192 -0.58641773 -0.74485326 35 133 115
0.040508024 -0.58703101 -0.74476242 36 132 115
0.037839971 -0.58704168 -0.74387056 37 131 114
0.037440371 -0.58741498 -0.74371749 37 133 113
0.039601561 -0.58441645 -0.74457806 35 132 116
0.037786726 -0.58712649 -0.74384898 37 131 114
0.037909046 -0.58639759 -0.74391645 36 133 114
0.043930601 -0.58704799 -0.74623847 36 130 117
0.042760875 -0.58702278 -0.7456671 36 130 116
0.042087823 -0.58759725 -0.74538529 36 132 115
0.043149043 -0.58611041 -0.74578333 35 130 117
0.042389035 -0.58788061 -0.74555445 36 132 115
0.041951388 -0.58667845 -0.74528235 35 132 116
0.041398086 -0.58565241 -0.74513906 35 132 116
0.042446919 -0.58588547 -0.74549967 35 130 117
0.041816 -0.58490407 -0.74532646 35 130 117
0.044418164 -0.58402753 -0.74629676 34 131 119
0.042974647 -0.58549106 -0.74570775 35 130 117
0.033161294 -0.58896106 -0.74271685 42 136 110
0.035235707 -0.59106034 -0.7429291 47 135 109
0.03351853 -0.5885216 -0.7428655 40 136 111
0.034434196 -0.58941102 -0.74296427 42 135 110
0.036213621 -0.59135729 -0.74312633 47 135 109
0.034874089 -0.58941084 -0.74306148 42 135 110
0.035180766 -0.58835191 -0.74319923 40 133 112
0.034533903 -0.58892244 -0.74303758 41 135 111
0.035383783 -0.58859628 -0.74321711 40 134 112
0.035781492 -0.58915222 -0.74324626 41 134 111
0.034556232 -0.58840841 -0.74308145 40 134 112
0.039003424 -0.59018749 -0.74403334 43 133 112
0.038542751 -0.59070134 -0.74383903 44 134 111
0.040319592 -0.59062833 -0.74440759 42 133 112
0.038364224 -0.59121829 -0.74373364 45 134 110
0.039631501 -0.5896281 -0.74428487 40 133 113
0.040905304 -0.59033978 -0.74462008 42 132 113
0.037647881 -0.58993846 -0.74360573 43 133 111
0.039047014 -0.58836752 -0.74419391 38 131 114
0.039651133 -0.5887289 -0.74436712 39 131 114
0.04010905 -0.58867472 -0.74452394 38 133 114
0.038239084 -0.58927608 -0.74385417 40 133 112
0.044914849 -0.59073395 -0.74631709 38 132 114
0.042192604 -0.58833057 -0.74538922 36 132 115
0.044571418 -0.58994597 -0.74628812 38 131 115
0.044040371 -0.59054315 -0.74593389 38 132 114
0.041615352 -0.58846468 -0.74508679 36 132 115
0.043151751 -0.58981389 -0.74561828 38 131 115
0.042197753 -0.59145451 -0.74504715 42 133 112
0.043745507 -0.59101778 -0.74574035 39 131 114
0.042863801 -0.59094864 -0.74537551 40 132 113
0.04216392 -0.59127671 -0.74504977 42 132 113
0.041959602 -0.59123254 -0.74496788 42 132 113
0.045330822 -0.59125298 -0.74643618 39 131 114
0.040778361 -0.59259427 -0.74440145 47 132 111
0.043557696 -0.59347242 -0.7454893 46 134 112
0.043701589 -0.59425038 -0.74547124 47 134 111
0.043538783 -0.59321064 -0.74550653 45 133 112
0.04380938 -0.59239572 -0.74566305 42 133 113
0.042661779 -0.59218413 -0.7451905 43 133 112
0.041534357 -0.59304178 -0.74467218 47 132 111
0.042842265 -0.59332705 -0.74520856 46 133 112
0.042916637 -0.59218735 -0.74529767 43 133 112
0.045384586 -0.5933646 -0.74623412 44 133 112
0.045560695 -0.59239364 -0.74640781 41 133 112
0.045147154 -0.59346414 -0.74611306 44 133 112
0.047611199 -0.58389837 -0.74702674 35 132 117
0.04801362 -0.58377743 -0.74706858 36 132 117
0.047439449 -0.58377022 -0.7469421 35 132 117
0.046811968 -0.58395028 -0.74687368 35 132 118
0.049581055 -0.58170134 -0.74661386 39 133 117
0.049150586 -0.58347678 -0.74719292 36 133 117
0.050968409 -0.58108205 -0.74664336 42 135 117
0.051922567 -0.5839147 -0.74782616 42 133 116
0.050643139 -0.58314687 -0.74733204 40 133 116
0.051289745 -0.58288634 -0.7473495 41 134 116
0.05421216 -0.58392417 -0.74844617 43 133 116
0.047030509 -0.58546174 -0.74703521 36 132 117
0.045445491 -0.58511388 -0.74666941 35 130 118
0.047621727 -0.58495861 -0.74712807 36 132 117
0.047843754 -0.58444268 -0.74714035 36 132 117
0.047001023 -0.58445066 -0.74695915 35 132 117
0.046478357 -0.58712202 -0.7471745 37 130 116
0.048065234 -0.58606553 -0.74754089 37 131 116
0.04851434 -0.58616847 -0.74774563 38 131 116
0.047287893 -0.58670229 -0.7473914 37 131 116
0.048654489 -0.58687782 -0.74797994 38 132 116
0.051059835 -0.5858525 -0.74821109 42 132 116
0.051996227 -0.58541542 -0.74835867 43 132 116
0.049767021 -0.58740634 -0.74843127 41 132 115
0.051992919 -0.58531803 -0.74831396 43 132 116
0.051011045 -0.58603138 -0.74827302 42 132 116
0.050412312 -0.58531278 -0.74792665 40 132 116
0.049631946 -0.58626252 -0.74803197 40 131 116
0.048929557 -0.58541578 -0.74769866 38 131 116
0.051189672 -0.58541507 -0.74808556 42 132 116
0.049082626 -0.5849002 -0.74759513 38 131 117
0.054577701 -0.58502626 -0.74906462 43 133 116
0.054017104 -0.58412468 -0.74847704 43 133 116
0.05335639 -0.58444279 -0.74840045 43 133 115
0.054705072 -0.58435422 -0.74880695 43 133 116
0.054527588 -0.58456981 -0.74884444 43 133 116
0.04751274 -0.59132355 -0.74758953 41 133 114
0.047400367 -0.59123164 -0.74754471 41 132 114
0.047914982 -0.59140652 -0.74779159 42 132 114
0.045864686 -0.59014696 -0.746903 38 131 115
0.046662122 -0.59050858 -0.7472688 40 132 114
0.045461502 -0.58964056 -0.74676716 38 130 116
0.046295863 -0.58821136 -0.74728805 38 130 116
0.048181519 -0.59061456 -0.74798506 41 133 114
0.046997011 -0.58896369 -0.74755043 40 130 116
0.047290202 -0.59012282 -0.74764109 40 132 114
0.046231698 -0.58803332 -0.74726647 38 129 117
0.048152767 -0.5893833 -0.7480014 41 131 115
0.04910998 -0.58916897 -0.74837834 42 132 115
0.048942562 -0.59054863 -0.74828601 42 133 114
0.049903937 -0.58851588 -0.74868357 42 132 115
0.050989721 -0.58806872 -0.74909085 43 132 115
0.047132839 -0.59355974 -0.74707413 44 135 112
0.048434649 -0.59196788 -0.74798226 43 133 113
0.047474932 -0.59220386 -0.74743587 42 133 113
0.046623874 -0.59265614 -0.74691939 42 133 112
0.046119254 -0.5935306 -0.74656522 44 134 112
0.046167139 -0.59271371 -0.74667323 42 133 112
0 0 0 1 0 0 0 1 0 0 0 1 0 0 0 0 0 765 1 0 0
