ply
format ascii 1.0
comment PCL generated
element vertex 863
property float x
property float y
property float z
property uchar red
property uchar green
property uchar blue
element camera 1
property float view_px
property float view_py
property float view_pz
property float x_axisx
property float x_axisy
property float x_axisz
property float y_axisx
property float y_axisy
property float y_axisz
property float z_axisx
property float z_axisy
property float z_axisz
property float focal
property float scalex
property float scaley
property float centerx
property float centery
property int viewportx
property int viewporty
property float k1
property float k2
end_header
-0.0863083 0.13480164 -0.7705847 27 132 120
-0.086084478 0.13563511 -0.77108777 26 133 119
-0.08547122 0.13553779 -0.77136266 28 131 120
-0.084454544 0.13724479 -0.77270728 26 133 119
-0.084416211 0.13589989 -0.77208859 28 132 119
-0.084186941 0.13811864 -0.77326447 25 133 120
-0.083178528 0.13554063 -0.77263671 29 134 120
-0.083838329 0.1358941 -0.77240252 29 132 120
-0.083043493 0.13569179 -0.77279061 29 134 120
-0.081411563 0.13557574 -0.77372932 28 134 120
-0.083182208 0.13523883 -0.7724914 30 132 119
-0.084530778 0.13388741 -0.77106863 33 132 119
-0.085173488 0.13275908 -0.77018726 33 132 119
-0.084003411 0.13415745 -0.77147406 33 133 118
-0.085532442 0.13383439 -0.77052134 32 131 120
-0.085455425 0.1333998 -0.77035087 32 132 119
-0.085854158 0.13327111 -0.77008086 31 132 119
-0.082977355 0.13374382 -0.77189678 33 132 120
-0.083238177 0.13407949 -0.77190053 33 133 119
-0.083527677 0.13458918 -0.77197123 32 133 120
-0.083899595 0.1325873 -0.77077484 36 133 119
-0.082730383 0.13273174 -0.77155685 34 133 119
-0.083763257 0.13426416 -0.77167028 33 133 119
-0.080785431 0.13366862 -0.77317297 33 133 119
-0.080816559 0.13419384 -0.77342206 31 133 120
-0.080297478 0.13324922 -0.77322316 33 134 118
-0.082100689 0.13237847 -0.77175128 35 133 119
-0.080946073 0.13282493 -0.77263409 33 134 118
-0.079405248 0.13302006 -0.77364564 33 134 119
-0.078294851 0.13177994 -0.77367836 37 134 119
-0.076583527 0.12988254 -0.77371401 37 133 120
-0.077626944 0.12884191 -0.77248377 36 134 119
-0.078242667 0.12906194 -0.77221859 36 134 118
-0.077219181 0.12758605 -0.77205664 35 134 118
-0.07540971 0.12856577 -0.77374363 33 134 119
-0.075665727 0.12887643 -0.77374655 35 133 120
-0.075646721 0.12766719 -0.7730909 33 133 119
-0.07627593 0.12555306 -0.77157056 35 133 119
-0.076357603 0.12537155 -0.77142888 35 133 118
-0.076844737 0.12557307 -0.7712419 36 133 118
-0.072993711 0.12510411 -0.77341133 33 133 119
-0.072512992 0.12510665 -0.77373224 33 133 119
-0.074882045 0.12670319 -0.77306056 33 133 118
-0.073229238 0.12434861 -0.77283239 33 132 119
-0.075611204 0.12640347 -0.77241212 33 133 118
-0.073148616 0.12448923 -0.7729643 33 132 119
-0.074455209 0.12358335 -0.7716738 33 133 118
-0.075455591 0.12399675 -0.77127331 35 133 119
-0.075147703 0.12508741 -0.77202082 33 133 118
-0.075826705 0.12348063 -0.77078164 36 133 118
-0.074358605 0.12376422 -0.77182567 33 133 118
-0.074057847 0.12480243 -0.77254188 33 132 119
-0.072808616 0.12333763 -0.77255577 33 132 119
-0.071811952 0.12409246 -0.77366537 33 132 119
-0.07429225 0.12055975 -0.77029634 33 133 116
-0.073570378 0.11941448 -0.77018821 33 133 117
-0.073597454 0.12018516 -0.77053398 32 133 117
-0.07286182 0.12081689 -0.77128774 32 133 117
-0.073036201 0.12070996 -0.77112889 32 133 117
-0.07409174 0.12250545 -0.77135754 33 133 118
-0.073253393 0.1205221 -0.77090442 32 133 117
-0.074813955 0.12269402 -0.77100736 35 133 118
-0.072580419 0.11973799 -0.7709344 30 133 116
-0.07552138 0.12291282 -0.7706809 36 133 118
-0.068895563 0.12038089 -0.7737512 27 135 116
-0.070879728 0.12252671 -0.77348053 31 133 118
-0.071011543 0.1224687 -0.77334946 31 133 118
-0.069959961 0.12064954 -0.77311617 29 134 117
-0.069908708 0.12043085 -0.77304399 29 134 117
-0.070431918 0.12014524 -0.77255422 29 134 116
-0.071580626 0.11979707 -0.77161485 29 134 116
-0.069417857 0.11988837 -0.7731086 28 134 117
-0.071594603 0.11927848 -0.77135283 29 134 116
-0.071845181 0.12230173 -0.77265787 31 133 118
-0.072532013 0.11889757 -0.77056605 30 133 116
-0.070244066 0.11600278 -0.77075249 32 133 117
-0.069464907 0.11552481 -0.77105558 31 133 117
-0.070104867 0.11614526 -0.77091271 31 133 117
-0.071891099 0.11744953 -0.77031165 32 132 117
-0.071445614 0.11750881 -0.77063799 30 133 116
-0.068517283 0.11871133 -0.7731514 27 135 115
-0.068817154 0.11622924 -0.77181524 30 133 117
-0.068519667 0.11625379 -0.77202576 30 133 117
-0.069347978 0.11663217 -0.77164382 29 134 116
-0.069041602 0.11821535 -0.77257323 29 134 116
-0.069360398 0.11757893 -0.7720685 29 134 116
-0.069069937 0.11620903 -0.77163661 30 133 117
-0.067225151 0.11543073 -0.77259475 36 133 117
-0.066497311 0.11552162 -0.77317381 40 132 116
-0.066397235 0.11597037 -0.77345628 40 132 116
-0.066091709 0.11535711 -0.77339649 43 132 116
-0.067371748 0.11629559 -0.77288872 35 133 116
-0.068321995 0.11773267 -0.77283949 29 134 116
-0.068646461 0.11360882 -0.77072763 31 133 117
-0.069442131 0.11333918 -0.77006626 31 135 116
-0.069113016 0.11473578 -0.77092898 31 133 117
-0.068366371 0.11180887 -0.77009165 31 133 116
-0.067053981 0.11479673 -0.77242905 38 133 117
-0.066448703 0.11439798 -0.77269262 41 133 116
-0.067724317 0.11501939 -0.77203673 34 133 117
-0.066418931 0.11409319 -0.77257484 42 132 116
-0.067285158 0.11375573 -0.77178127 37 133 116
-0.068003938 0.11314825 -0.77097255 33 133 116
-0.064825654 0.11365797 -0.77351743 48 132 116
-0.066694215 0.11345994 -0.77207965 40 132 116
-0.065634459 0.11368876 -0.77295011 45 132 116
-0.065145232 0.11452922 -0.77369916 47 132 116
-0.064779885 0.11206252 -0.77276552 48 132 118
-0.065275796 0.11231028 -0.77253753 46 132 117
-0.064578757 0.11253376 -0.77314013 50 131 118
-0.066467337 0.11137994 -0.77123702 41 132 117
-0.064073235 0.11233392 -0.77343649 48 132 117
-0.06371168 0.11149444 -0.77331382 48 132 118
-0.067671038 0.11107022 -0.77023494 33 134 115
-0.065520681 0.10961996 -0.771043 40 133 117
-0.065478094 0.10898317 -0.77076101 38 133 117
-0.065802291 0.1099885 -0.7710247 40 133 117
-0.065349877 0.10927832 -0.77099621 40 133 117
-0.065077178 0.11002924 -0.77155679 43 132 118
-0.064630821 0.11064351 -0.77217305 46 133 118
-0.065399677 0.10764144 -0.77020288 37 134 117
-0.066882879 0.10983174 -0.77018839 35 134 116
-0.062618792 0.10923862 -0.77310234 42 134 116
-0.064053468 0.10802446 -0.77133936 40 133 117
-0.061501451 0.10757675 -0.77320921 38 135 116
-0.062992811 0.11103104 -0.7736668 46 133 117
-0.063702188 0.10791966 -0.77157575 40 133 117
-0.062554955 0.11009352 -0.7735697 44 134 117
-0.062422682 0.10946412 -0.77337223 42 134 117
-0.063495271 0.11043035 -0.77296627 45 133 117
-0.06418974 0.1106396 -0.77250898 47 132 118
-0.063951664 0.10914095 -0.77196652 43 132 118
-0.064559713 0.10701633 -0.77046585 38 133 117
-0.06231226 0.10728087 -0.77240652 38 134 117
-0.063402936 0.10688403 -0.77133328 37 134 117
-0.064094514 0.10642785 -0.77055937 36 133 117
-0.063578099 0.10476542 -0.77023238 34 132 118
-0.06143228 0.10619105 -0.77263689 36 133 117
-0.063168697 0.10479242 -0.77058095 34 132 117
-0.063267939 0.10591923 -0.77100617 36 133 117
-0.064114302 0.10525566 -0.7700122 36 132 118
-0.061853357 0.10367323 -0.77118039 33 133 117
-0.061925445 0.10463797 -0.77154195 33 133 117
-0.061525818 0.10444275 -0.77179164 33 134 116
-0.060585093 0.1064776 -0.77347046 37 135 116
-0.062081166 0.10462993 -0.77140784 33 133 116
-0.05915048 0.10383689 -0.77360642 27 135 115
-0.060448945 0.10608747 -0.77342021 36 135 115
-0.060154732 0.10447769 -0.77298135 32 134 116
-0.060839318 0.10239816 -0.77149409 30 133 116
-0.062076002 0.10267498 -0.77057296 30 132 117
-0.06095612 0.10141335 -0.77098405 28 134 117
-0.062356871 0.10232415 -0.7701906 30 131 118
-0.060872991 0.1016955 -0.77117181 29 134 116
-0.060440537 0.099646814 -0.770684 25 133 117
-0.059807166 0.10210764 -0.77228469 27 134 116
-0.060269449 0.10077256 -0.77130914 27 133 117
-0.060296588 0.10138849 -0.77154249 27 134 116
-0.065475717 0.13614391 -0.7862637 23 130 118
-0.065249309 0.13612619 -0.78648537 23 131 118
-0.064820483 0.13592632 -0.78678596 23 131 118
-0.065770522 0.13549699 -0.78554964 25 130 118
-0.063553393 0.13588384 -0.78811473 24 130 119
-0.064203292 0.13549456 -0.78713208 24 130 118
-0.06243699 0.13564038 -0.78914034 24 131 121
-0.062703103 0.13503842 -0.7884165 25 130 121
-0.063042119 0.13631077 -0.78897548 23 131 121
-0.063512459 0.13487187 -0.78742385 25 131 119
-0.063362621 0.13425697 -0.78715968 26 131 119
-0.064092778 0.13387673 -0.78611284 26 133 118
-0.063400842 0.13396205 -0.78691554 26 131 119
-0.061650064 0.13398913 -0.78881049 26 131 122
-0.061950769 0.13363649 -0.78824192 26 133 121
-0.062090691 0.13214947 -0.78699732 27 133 120
-0.062066905 0.13192073 -0.78685266 27 133 120
-0.062243439 0.13171746 -0.78651142 27 133 120
-0.062161457 0.13326795 -0.78775346 26 133 121
-0.062793121 0.1330719 -0.78692776 26 133 119
-0.061678451 0.13230737 -0.78755844 26 133 121
-0.060844418 0.13090359 -0.78739035 25 133 120
-0.060693394 0.13271253 -0.78891653 26 131 123
-0.060627397 0.13222902 -0.78862166 25 133 122
-0.060160644 0.13104069 -0.78831106 25 133 121
-0.060004033 0.131338 -0.78873855 25 133 121
-0.061054461 0.13081588 -0.78710264 25 133 120
-0.060671866 0.12864695 -0.7859658 25 133 118
-0.061459344 0.13053349 -0.78647101 26 133 120
-0.060403246 0.12857258 -0.78623199 25 133 118
-0.060443781 0.12906973 -0.7865333 25 133 119
-0.058009617 0.12771684 -0.78837448 26 133 119
-0.059059426 0.12861362 -0.78784883 26 133 119
-0.057014991 0.12725 -0.78916872 26 133 119
-0.059337381 0.12792262 -0.78699136 26 133 119
-0.058579959 0.12824699 -0.78812212 26 133 119
-0.060487155 0.12788424 -0.78562599 26 133 119
-0.059703603 0.12826392 -0.78682995 26 133 119
-0.059798449 0.1284713 -0.78688025 26 133 119
-0.059929892 0.12773071 -0.78615516 26 133 118
-0.060319111 0.12759987 -0.78561229 26 133 118
-0.058114979 0.12526044 -0.78653151 28 134 118
-0.059041928 0.12671293 -0.78644812 26 133 118
-0.058009416 0.12465388 -0.7862435 29 132 119
-0.058747243 0.12626366 -0.78648305 27 133 119
-0.057045683 0.12524854 -0.78774959 28 134 118
-0.057583213 0.12522988 -0.78712064 28 134 118
-0.059031226 0.12677044 -0.7864992 26 133 118
-0.057764459 0.12432225 -0.78630263 30 132 119
-0.059543602 0.12625825 -0.78557479 27 133 118
-0.056526303 0.12522946 -0.78835303 29 132 119
-0.056382831 0.12354726 -0.78740305 31 133 119
-0.05655333 0.12536743 -0.78841108 28 132 119
-0.055022359 0.12332942 -0.7890265 29 132 120
-0.05616843 0.12366189 -0.78775954 30 133 119
-0.057007387 0.12221694 -0.78578651 33 134 118
-0.056258492 0.12302203 -0.78721058 31 133 118
-0.056541681 0.12260661 -0.78657115 33 133 118
-0.055393942 0.1211355 -0.78712654 30 132 119
-0.053699154 0.12038142 -0.78887969 25 133 120
-0.054357693 0.12120524 -0.78853518 27 134 120
-0.054647148 0.12141865 -0.78828949 27 132 119
-0.05496021 0.12084676 -0.78751445 29 132 120
-0.054999061 0.12162965 -0.78795993 29 132 120
-0.055164665 0.12166583 -0.78776485 29 132 120
-0.055843804 0.12016816 -0.78588176 33 132 120
-0.053734362 0.11962152 -0.78834194 25 134 119
-0.056043677 0.12068051 -0.78596753 33 133 119
-0.055080507 0.11882528 -0.7859602 33 132 121
-0.05352908 0.11899573 -0.78817844 26 133 120
-0.05292799 0.11720189 -0.78763556 24 131 121
-0.054638315 0.1183783 -0.78621876 30 132 121
-0.053123884 0.11858347 -0.78841341 24 133 120
-0.052914705 0.11604176 -0.78677863 24 131 122
-0.053579345 0.1163078 -0.78609157 26 133 121
-0.053145122 0.11499915 -0.78576106 24 131 121
-0.089709759 0.1328849 -0.76801705 27 130 121
-0.088669688 0.13374501 -0.76889169 27 130 121
-0.088109441 0.13097531 -0.76770365 32 129 122
-0.088131577 0.13222611 -0.76833636 29 129 121
-0.08791744 0.13448907 -0.76958686 26 131 120
-0.089269936 0.13303658 -0.76827806 27 130 121
-0.090710007 0.13217421 -0.76722544 28 129 123
-0.088792823 0.13453332 -0.76921493 25 130 121
-0.090357155 0.13246931 -0.76752651 28 129 123
-0.09179534 0.13172635 -0.76651502 28 129 123
-0.090233862 0.13333005 -0.76798654 26 130 122
-0.089787148 0.13362718 -0.76833177 26 130 122
-0.086717427 0.13378903 -0.76988119 29 131 120
-0.087527134 0.13156331 -0.76829672 32 129 121
-0.085641399 0.13153166 -0.76931816 35 130 119
-0.085438646 0.1320022 -0.7696712 34 131 119
-0.087018542 0.13091528 -0.76824397 33 131 121
-0.087500073 0.13088359 -0.76796269 33 129 122
-0.085623607 0.13121702 -0.76916647 35 132 119
-0.087085813 0.13288553 -0.76921803 29 131 120
-0.089867555 0.13023232 -0.76663423 32 131 123
-0.08879818 0.13042194 -0.76716393 32 131 122
-0.09012939 0.13011971 -0.76647538 32 131 123
-0.088273898 0.12836459 -0.76647609 35 130 123
-0.088547602 0.12759918 -0.76602459 36 130 123
-0.088803284 0.1306186 -0.76724845 32 131 122
-0.087606624 0.12702392 -0.76617759 36 132 122
-0.086584561 0.12807791 -0.76711851 39 131 122
-0.087449908 0.12987511 -0.76750702 35 129 122
-0.086876713 0.12867565 -0.76724571 38 131 122
-0.087040104 0.13045627 -0.7679919 35 130 121
-0.086549312 0.12953213 -0.76777697 38 131 121
-0.087109581 0.12648985 -0.76613832 38 131 122
-0.072397515 0.11594725 -0.7692613 34 132 117
-0.073440254 0.11778362 -0.76949728 34 133 117
-0.073592901 0.11797025 -0.76949316 34 133 117
-0.07218197 0.11632318 -0.76958287 33 133 116
-0.070974626 0.11431135 -0.76946312 33 133 116
-0.069660589 0.11263988 -0.76958853 33 133 116
-0.069769561 0.11275271 -0.76956594 33 133 116
-0.070696525 0.11309417 -0.76913285 33 134 116
-0.071946509 0.11450146 -0.76891327 34 133 117
-0.071190916 0.11323819 -0.768888 33 134 116
-0.070515133 0.10745564 -0.76689053 33 137 115
-0.069962107 0.1084759 -0.76767528 33 136 115
-0.068914719 0.10771216 -0.76798534 30 136 114
-0.069566667 0.10778053 -0.76761496 32 136 114
-0.068878695 0.10923885 -0.76866376 31 136 115
-0.070271716 0.1113116 -0.76870722 33 135 116
-0.068929031 0.1106879 -0.76925457 32 134 116
-0.068772346 0.11016154 -0.76912391 31 135 115
-0.070547193 0.10964381 -0.76782483 34 135 116
-0.068700649 0.11068609 -0.76939237 31 135 115
-0.069778562 0.10929745 -0.7681427 32 136 115
-0.067756414 0.1078996 -0.76879382 31 135 115
-0.068055436 0.1076254 -0.76848316 30 136 114
-0.067252763 0.10880665 -0.76950854 33 134 116
-0.066497579 0.10802265 -0.76965833 35 134 116
-0.068832859 0.10708698 -0.76775336 30 136 114
-0.068496071 0.10705557 -0.76794565 30 136 114
-0.068719991 0.1060728 -0.76735169 30 135 114
-0.069618896 0.10501399 -0.76630789 33 133 114
-0.068615988 0.10541752 -0.76711118 30 135 114
-0.06873174 0.10487692 -0.76678908 30 135 113
-0.069253363 0.10401612 -0.7660836 32 134 114
-0.064472444 0.10409419 -0.76917642 33 132 118
-0.066988565 0.10626069 -0.7685492 30 135 116
-0.065869898 0.10567477 -0.76900083 33 133 117
-0.066976681 0.10625314 -0.76855332 30 135 116
-0.065618634 0.10589574 -0.76926446 33 133 117
-0.067658052 0.10357834 -0.76686984 30 133 114
-0.067107879 0.1059652 -0.7683354 30 135 116
-0.067482412 0.1063585 -0.76827502 30 135 115
-0.067035817 0.10403713 -0.76748675 30 133 115
-0.066368848 0.10491279 -0.76832634 30 133 116
-0.065567881 0.10446789 -0.7686395 30 133 116
-0.065743215 0.10371506 -0.76817608 30 133 116
-0.064372517 0.10537126 -0.76984978 36 132 118
-0.063603774 0.10352001 -0.76964265 32 131 118
-0.064782389 0.099710472 -0.76735193 31 131 117
-0.065367818 0.10014945 -0.7671302 31 131 116
-0.066083439 0.09991654 -0.76659304 32 132 115
-0.068105049 0.10258982 -0.76622772 31 133 114
-0.068297736 0.1032921 -0.76634765 30 133 113
-0.06747207 0.1033785 -0.76691258 30 132 115
-0.066821322 0.10241765 -0.76699209 30 132 115
-0.065487936 0.10119727 -0.76742202 29 132 116
-0.066570811 0.1017653 -0.76692188 30 132 115
-0.065016285 0.10200103 -0.76801491 30 132 116
-0.065309353 0.10127755 -0.76756656 29 132 116
-0.063257463 0.10106488 -0.76900655 29 132 116
-0.062989138 0.10045245 -0.76898348 29 132 116
-0.063888021 0.10064577 -0.76835805 31 131 118
-0.062970005 0.099751338 -0.76873326 29 132 116
-0.06426727 0.10286984 -0.76884788 31 132 118
-0.063669041 0.10243433 -0.76919955 31 132 118
-0.06532333 0.099288464 -0.76684982 31 131 116
-0.065879345 0.099112108 -0.76642793 32 132 116
-0.063501053 0.098323688 -0.76776022 26 133 116
-0.068378426 0.1355108 -0.78288621 25 133 117
-0.070198879 0.13664256 -0.78200608 23 130 118
-0.06950184 0.13541003 -0.78185791 26 133 117
-0.066335745 0.13516821 -0.78474236 26 131 118
-0.067216471 0.1348699 -0.78363252 26 133 117
-0.067800455 0.13495517 -0.7830928 26 133 117
-0.0670866 0.13484168 -0.78374606 26 133 117
-0.067302227 0.13547428 -0.78396356 25 133 117
-0.067341752 0.13466577 -0.78337377 27 131 118
-0.067582898 0.13386373 -0.78266037 27 133 118
-0.065695465 0.1337018 -0.7843948 27 131 118
-0.067521624 0.13372812 -0.78263229 28 131 119
-0.066573225 0.13177241 -0.78229648 30 132 118
-0.067422442 0.1324086 -0.78187275 29 132 118
-0.065749988 0.13331588 -0.784087 27 132 118
-0.066046067 0.13324393 -0.78375161 27 132 118
-0.067064449 0.13196583 -0.78193992 30 132 118
-0.065206893 0.13324694 -0.78457379 27 131 118
-0.065042406 0.13241677 -0.7841658 28 132 117
-0.064643115 0.13132307 -0.78372359 29 132 117
-0.065803215 0.13143975 -0.78279638 30 131 118
-0.064369641 0.13285628 -0.78508443 27 131 118
-0.064301513 0.13311152 -0.78534007 27 131 118
-0.063878141 0.13191406 -0.78491724 27 132 118
-0.065517873 0.13075362 -0.78255719 31 132 118
-0.064662777 0.1293522 -0.78239429 32 133 117
-0.064739905 0.13084239 -0.78329307 31 132 118
-0.065694049 0.1305671 -0.78228271 31 132 118
-0.064134307 0.12857495 -0.78240645 33 134 118
-0.064229399 0.13037354 -0.78347296 30 132 118
-0.063674919 0.13057525 -0.78418326 29 132 119
-0.062624536 0.12996581 -0.78486651 28 132 120
-0.061942909 0.12956399 -0.78528184 27 133 120
-0.060950518 0.12840563 -0.78550035 26 133 119
-0.062395047 0.12941453 -0.7847262 28 132 119
-0.062596887 0.13042188 -0.78520149 28 131 120
-0.062140923 0.12988672 -0.7852999 27 133 120
-0.063314036 0.12783082 -0.78273559 31 135 118
-0.063150674 0.12718159 -0.78246766 32 136 118
-0.062261213 0.12731358 -0.78344709 30 135 119
-0.061223526 0.12736225 -0.784513 27 134 118
-0.060801938 0.12514514 -0.78344983 33 133 118
-0.063298665 0.12636665 -0.78177357 35 135 119
-0.06114167 0.12492648 -0.78296804 33 134 118
-0.061549872 0.12502296 -0.78262585 33 134 118
-0.061286084 0.12524755 -0.78303611 33 134 118
-0.060654826 0.12506616 -0.78354394 32 133 117
-0.061188698 0.12421377 -0.78245139 36 134 118
-0.061124288 0.12332542 -0.78197974 37 135 117
-0.060721476 0.12308965 -0.78219485 37 135 117
-0.060365878 0.12345212 -0.78279305 35 134 117
-0.059456442 0.12392017 -0.7841388 33 133 117
-0.059826825 0.12604837 -0.78511477 27 132 118
-0.058014929 0.1234229 -0.78545743 31 135 117
-0.05870875 0.12350007 -0.78471613 33 133 117
-0.059509255 0.12488372 -0.78471178 30 133 118
-0.060496844 0.12332935 -0.78256285 36 134 117
-0.060351178 0.12621364 -0.78462851 28 132 118
-0.06007231 0.12641771 -0.78507763 27 134 118
-0.060789693 0.1229246 -0.78204477 37 135 117
-0.060398288 0.12272783 -0.78230917 37 135 117
-0.059651352 0.12265097 -0.78311831 36 134 117
-0.057213854 0.12144649 -0.78505462 33 134 118
-0.059545785 0.12169237 -0.78264385 38 132 118
-0.058130633 0.12188145 -0.78432894 35 133 118
-0.059979297 0.12167082 -0.78215843 40 132 117
-0.059034232 0.11955388 -0.78196734 42 133 118
-0.058518972 0.12073851 -0.78321302 38 132 118
-0.059367042 0.1199027 -0.78180569 42 133 117
-0.059233606 0.12010545 -0.78206825 42 132 118
-0.057475578 0.11988376 -0.78380895 38 133 118
-0.057338513 0.11978647 -0.78388613 38 133 118
-0.057292901 0.1203538 -0.78430325 37 134 118
-0.056458857 0.11952104 -0.78466004 37 134 120
-0.056395944 0.12000437 -0.78505528 36 133 120
-0.057152804 0.11754538 -0.78257996 39 132 120
-0.058076553 0.11794044 -0.78189784 41 132 119
-0.056717128 0.11824998 -0.78350222 39 132 120
-0.058428187 0.11863509 -0.78200513 42 132 118
-0.057393294 0.11814258 -0.78273559 40 131 120
-0.05628863 0.11709774 -0.78325063 37 130 121
-0.056476645 0.11845371 -0.78392619 38 131 121
-0.055614613 0.11707126 -0.78407544 33 131 121
-0.054612897 0.11701426 -0.7852875 30 131 122
-0.056048069 0.11598593 -0.78279567 36 129 122
-0.055639427 0.11658322 -0.78371233 33 131 121
-0.053853787 0.1154625 -0.78517956 27 131 121
-0.055397492 0.1186792 -0.78544068 34 132 121
-0.05600227 0.11712379 -0.78362709 36 130 121
-0.0546728 0.11423089 -0.78338754 27 131 121
-0.054351132 0.11327241 -0.78320277 25 131 122
-0.054133732 0.11364421 -0.78370172 24 133 121
-0.054462593 0.11458369 -0.78386593 27 131 121
-0.054273549 0.11260962 -0.78289407 23 133 121
-0.054174431 0.11500597 -0.78448415 27 131 121
-0.055559505 0.11441673 -0.78239399 32 131 122
-0.060681384 0.14317109 -0.79733533 23 133 121
-0.060485344 0.14337635 -0.79781824 23 133 121
-0.058041945 0.14272459 -0.80107814 23 131 122
-0.060316112 0.14320894 -0.79792559 23 133 121
-0.057485789 0.1419318 -0.80111033 23 131 122
-0.057898287 0.14221464 -0.80081987 23 131 122
-0.058677677 0.14186215 -0.79925293 24 131 122
-0.05826214 0.14205478 -0.80009431 24 131 122
-0.059775356 0.14250201 -0.79813862 24 133 121
-0.058304347 0.14115128 -0.79915595 24 131 123
-0.056416549 0.14037664 -0.80112004 23 130 123
-0.056612842 0.14054348 -0.80096203 23 130 123
-0.080295928 0.1371987 -0.77513033 26 134 120
-0.08031702 0.13541833 -0.77431083 27 134 119
-0.080424555 0.13754612 -0.77521253 26 133 120
-0.080515258 0.13771366 -0.77523535 26 133 120
-0.080140583 0.13667843 -0.77498543 27 133 120
-0.08148545 0.13637429 -0.77405983 26 134 119
-0.080879167 0.13541028 -0.77397394 27 134 119
-0.076286353 0.13564306 -0.77685153 27 132 118
-0.077566296 0.13618764 -0.77629983 28 131 120
-0.078542769 0.13746968 -0.77631313 25 134 119
-0.077676371 0.13655826 -0.77641469 27 133 119
-0.077510022 0.1375715 -0.77703035 24 133 118
-0.079245992 0.13791582 -0.77608335 26 133 120
-0.079774119 0.13669053 -0.77520895 27 133 120
-0.079384662 0.13773079 -0.77591306 26 133 120
-0.079086989 0.13655479 -0.77555746 27 133 120
-0.076803222 0.13517852 -0.77629632 30 131 119
-0.080071628 0.13565563 -0.77456218 27 134 119
-0.079098351 0.13608456 -0.77533746 27 132 119
-0.075898051 0.13625368 -0.77742016 26 131 118
-0.076004237 0.1351136 -0.77677625 29 131 119
-0.078690276 0.1327322 -0.77393985 33 134 119
-0.078008719 0.13261351 -0.77430093 33 134 119
-0.078645401 0.13459481 -0.7749235 29 132 120
-0.07815586 0.13418867 -0.77501053 30 133 119
-0.077976458 0.13290861 -0.77447116 33 133 120
-0.076765783 0.13410437 -0.77579755 32 131 120
-0.076311335 0.13185495 -0.7749328 35 133 120
-0.076603323 0.13443097 -0.77605939 31 132 119
-0.076859236 0.13190995 -0.77463359 35 133 120
-0.07288599 0.13224182 -0.7774477 36 133 119
-0.072358422 0.13100202 -0.77716368 39 134 120
-0.07477428 0.13394359 -0.77702564 32 132 119
-0.074030824 0.13353334 -0.77732694 33 132 118
-0.075570568 0.13288133 -0.77594072 34 133 119
-0.07525862 0.13182171 -0.77561653 36 133 120
-0.075920165 0.13329262 -0.77591217 33 133 119
-0.07445506 0.13130701 -0.77589971 37 134 120
-0.076090761 0.1312547 -0.77476776 36 134 120
-0.07347431 0.13115099 -0.77648377 39 133 120
-0.074630298 0.13289618 -0.77658373 35 132 119
-0.074710689 0.12795109 -0.77386552 33 133 119
-0.075730078 0.1291911 -0.77387887 35 133 120
-0.074192718 0.12833075 -0.77442646 35 134 119
-0.075592406 0.13021703 -0.77454239 36 134 120
-0.073295586 0.12925678 -0.77555144 37 134 120
-0.074478701 0.12999174 -0.77516723 37 134 120
-0.073335513 0.12868179 -0.77519941 36 134 120
-0.073330007 0.12839775 -0.77504253 36 134 120
-0.072788537 0.12956585 -0.77606887 38 134 120
-0.072688133 0.12864615 -0.77561682 36 135 119
-0.072812982 0.12887527 -0.77566195 37 134 120
-0.070335217 0.12729502 -0.77666432 34 134 119
-0.068968743 0.12715718 -0.77766728 36 134 120
-0.070588537 0.12726426 -0.7764467 34 134 119
-0.070696197 0.12957579 -0.77766293 37 134 119
-0.070961304 0.1284578 -0.77682388 36 134 119
-0.071148172 0.12870447 -0.776815 36 135 119
-0.069853626 0.12795873 -0.77741879 36 134 120
-0.071810797 0.12983581 -0.77692914 37 135 119
-0.07249482 0.12560548 -0.77402657 33 133 119
-0.073719189 0.1268838 -0.77393025 33 134 118
-0.070948586 0.12620199 -0.7755605 33 134 119
-0.070099108 0.12619796 -0.77622998 33 134 119
-0.070273988 0.12637444 -0.77619183 33 134 119
-0.069744922 0.12637486 -0.77661031 33 134 119
-0.070223391 0.12534171 -0.77563483 33 133 120
-0.069527574 0.12585738 -0.77648222 33 134 119
-0.071039423 0.12406735 -0.77424687 33 132 119
-0.070563354 0.12342215 -0.7742393 33 132 119
-0.071045741 0.12429035 -0.77437317 33 133 119
-0.068390116 0.12619728 -0.77757066 34 134 119
-0.069859602 0.12364306 -0.77491635 33 133 119
-0.068521708 0.12430622 -0.77634734 33 134 118
-0.068451241 0.12616865 -0.77750629 34 134 119
-0.067061558 0.12411445 -0.77744395 34 134 119
-0.0677699 0.12412629 -0.7768591 33 134 118
-0.066987425 0.12370924 -0.77726567 33 134 118
-0.067549929 0.12458081 -0.7773124 34 134 119
-0.06920711 0.12205277 -0.77448618 30 133 118
-0.068746991 0.12122437 -0.77435744 29 134 117
-0.068674311 0.12046359 -0.7739678 27 135 116
-0.068737589 0.12035783 -0.7738567 27 135 116
-0.068301693 0.11992793 -0.77394623 27 135 115
-0.068287708 0.12301966 -0.77577055 32 134 118
-0.067475863 0.1218376 -0.77575588 31 135 117
-0.066930167 0.1213894 -0.77594841 32 134 117
-0.065150023 0.12086795 -0.777125 38 133 116
-0.066345021 0.12167918 -0.77660638 33 134 117
-0.065663449 0.12105661 -0.77680814 36 134 117
-0.064668797 0.12116657 -0.7777015 41 132 117
-0.065593086 0.12051161 -0.7765466 37 134 116
-0.066198304 0.12025487 -0.77589166 35 134 116
-0.06526044 0.11950978 -0.77623606 41 132 116
-0.064724818 0.11922864 -0.77651703 45 131 117
-0.064947963 0.11919481 -0.77631134 43 132 117
-0.064367019 0.12075356 -0.77771384 42 133 116
-0.065544277 0.11662646 -0.77441227 44 133 115
-0.064973123 0.11821898 -0.77575618 45 131 117
-0.065000154 0.11709901 -0.77512312 46 133 115
-0.065007746 0.11891758 -0.77610821 43 132 117
-0.065681614 0.11735707 -0.77469629 43 132 116
-0.065385178 0.11756958 -0.77505898 43 132 116
-0.065536119 0.11850964 -0.77544582 41 133 116
-0.065186508 0.11568441 -0.77422392 47 133 115
-0.065328293 0.11612456 -0.77432597 46 133 115
-0.062839583 0.11808232 -0.77745181 46 132 116
-0.062854275 0.11824583 -0.77753961 46 132 116
-0.063687004 0.11595126 -0.7755692 50 132 116
-0.064073995 0.11550608 -0.77501518 51 131 116
-0.062543362 0.11717747 -0.77715766 46 132 117
-0.063681483 0.11694697 -0.77611649 48 132 116
-0.064375266 0.11748566 -0.77585208 48 132 116
-0.062830813 0.11745133 -0.77707571 46 132 117
-0.064107731 0.11802648 -0.77636212 47 132 117
-0.063344382 0.11629032 -0.77602965 48 132 116
-0.062210705 0.1122103 -0.77485454 46 133 116
-0.062745564 0.11134664 -0.77401567 46 133 117
-0.063311763 0.11237437 -0.77406514 47 132 116
-0.061827175 0.11236794 -0.77523589 46 133 116
-0.062098037 0.11256011 -0.77511531 46 133 116
-0.064437263 0.1144672 -0.77419579 51 131 116
-0.06090137 0.11393861 -0.77676791 45 134 116
-0.061211456 0.11268616 -0.77588904 45 133 116
-0.061175633 0.11352091 -0.77633739 45 134 116
-0.060763378 0.11196023 -0.77588463 44 134 116
-0.060746461 0.11315279 -0.7764976 45 133 116
-0.061365481 0.11481352 -0.77683425 46 133 116
-0.061987821 0.1132687 -0.77555728 46 133 115
-0.062679045 0.11493475 -0.77583855 49 132 116
-0.06028378 0.11182729 -0.77622324 43 133 116
-0.059216943 0.11133065 -0.77691007 38 132 118
-0.060069516 0.11389261 -0.77745032 43 133 117
-0.060369823 0.11302076 -0.77674806 43 134 116
-0.060947169 0.10914472 -0.77440357 41 134 116
-0.06058884 0.1087025 -0.77447927 40 133 116
-0.061583985 0.1112223 -0.7748735 45 134 116
-0.061692007 0.1097307 -0.77409023 42 134 116
-0.060977828 0.1096585 -0.77461982 42 134 116
-0.060913276 0.10797093 -0.77388066 39 134 116
-0.057443183 0.10949118 -0.77764022 27 134 118
-0.05804434 0.10895484 -0.77686816 29 132 118
-0.058569111 0.10994124 -0.77685219 33 133 118
-0.058761835 0.11049632 -0.77693325 36 133 118
-0.060102724 0.11090796 -0.77594167 41 134 116
-0.060525879 0.1112256 -0.77571195 43 134 116
-0.059516586 0.1101678 -0.77612031 37 134 116
-0.058748346 0.10785456 -0.77572531 30 133 117
-0.059659857 0.10883008 -0.77536601 36 133 117
-0.059937749 0.10777868 -0.77462524 36 135 116
-0.059244294 0.10764181 -0.77518183 33 133 117
-0.058218028 0.1088841 -0.77668178 29 134 117
-0.060331292 0.10919452 -0.7749356 40 133 116
-0.059241366 0.1047923 -0.77394307 29 135 116
-0.059287459 0.10548216 -0.77420485 30 135 116
-0.058818419 0.1042255 -0.7740773 27 135 115
-0.0600066 0.10624074 -0.77388638 34 135 116
-0.059033256 0.10727761 -0.77520615 30 135 116
-0.059826985 0.1067595 -0.77427441 33 135 115
-0.060906149 0.13780215 -0.79264241 24 133 122
-0.061049256 0.13556994 -0.7906791 25 131 123
-0.061854698 0.13769005 -0.79143578 23 133 121
-0.062068231 0.13585514 -0.78971744 24 131 122
-0.062663838 0.13650706 -0.78953266 23 131 121
-0.05951751 0.13512923 -0.79221046 25 133 123
-0.059860662 0.13525729 -0.79187673 25 133 123
-0.060519274 0.13632335 -0.79190242 25 133 123
-0.059767604 0.13607839 -0.79266244 25 133 123
-0.058665507 0.13503948 -0.79322451 25 133 123
-0.061056454 0.13460343 -0.78990185 25 131 123
-0.060305174 0.13367411 -0.79010063 25 133 123
-0.060259115 0.13428815 -0.79061484 25 133 123
-0.059672948 0.13308689 -0.79045808 26 131 123
-0.05781772 0.13293621 -0.79268664 26 131 123
-0.057819035 0.13234338 -0.7922346 25 131 123
-0.059016794 0.13297698 -0.79120326 26 131 123
-0.059872512 0.13312621 -0.79023588 26 131 123
-0.057363223 0.13170178 -0.79233545 25 131 122
-0.058466583 0.13243228 -0.79148626 26 131 123
-0.058198363 0.13209759 -0.79157811 26 131 123
-0.058159783 0.1321891 -0.79169321 26 131 123
-0.057590831 0.13176936 -0.79209965 25 131 122
-0.057318989 0.13135552 -0.79213375 26 130 123
-0.056765843 0.13090473 -0.79248482 26 130 123
-0.058182165 0.12942603 -0.78949958 27 131 120
-0.056938458 0.12878405 -0.79051542 26 131 120
-0.058622427 0.13044815 -0.78979897 27 131 121
-0.058149092 0.12994172 -0.78996831 27 131 121
-0.056850515 0.12907225 -0.79086387 26 131 121
-0.057815369 0.12916246 -0.78973764 27 131 120
-0.056291584 0.12951314 -0.79193085 26 131 121
-0.056516316 0.12991744 -0.79198259 26 130 122
-0.05653872 0.1275924 -0.7900275 27 133 120
-0.054756079 0.12760653 -0.79259855 25 131 121
-0.054752503 0.12744616 -0.79247481 25 131 120
-0.056259226 0.12745203 -0.79031026 26 133 119
-0.055354659 0.12873186 -0.79264146 25 131 121
-0.055064414 0.12764041 -0.79218191 25 133 120
-0.055021547 0.12761535 -0.79222345 25 133 120
-0.056015108 0.12904993 -0.79194623 26 131 121
-0.05397081 0.12431144 -0.79121476 26 133 120
-0.053731378 0.12561904 -0.7925365 24 133 120
-0.054090489 0.12507427 -0.79162294 26 133 120
-0.055253435 0.12643163 -0.7909674 26 133 119
-0.054818179 0.1245442 -0.79018319 27 134 120
-0.054802075 0.12469906 -0.79032212 27 133 120
-0.056050975 0.12642118 -0.78981137 27 133 120
-0.05526606 0.12551078 -0.79026091 27 133 120
-0.055718206 0.1263807 -0.7902602 26 134 119
-0.054548174 0.12534663 -0.79117173 26 133 120
-0.05393308 0.12198218 -0.78959554 26 134 119
-0.053993281 0.12265711 -0.78996629 26 134 119
-0.054210801 0.12284761 -0.78979039 27 133 120
-0.056741174 0.14207707 -0.80248123 23 131 123
-0.057240419 0.1419733 -0.80155039 23 131 123
-0.056481801 0.14170066 -0.80257142 23 130 123
-0.056294952 0.14034869 -0.80132145 23 130 123
-0.08931458 0.12706096 -0.7654568 33 132 122
-0.090324759 0.12834421 -0.7656036 32 131 124
-0.088407189 0.1270875 -0.76585478 36 130 123
-0.090773478 0.12957428 -0.7659654 32 131 124
-0.09088774 0.12745352 -0.76496387 29 132 122
-0.088620566 0.1258475 -0.76524955 33 132 123
-0.088175885 0.12497669 -0.76500207 33 132 123
-0.088555463 0.1252515 -0.76499695 32 132 124
-0.089773007 0.12559731 -0.76469219 29 132 122
-0.089653693 0.12520607 -0.76459265 30 132 123
-0.087213598 0.1255849 -0.76566148 36 132 123
-0.085370138 0.12341135 -0.7654177 39 133 122
-0.087002307 0.1259097 -0.76589853 37 133 122
-0.086570464 0.12448843 -0.76542026 36 133 123
-0.087565146 0.12488754 -0.76519442 33 133 123
-0.087608159 0.12626624 -0.76581347 36 132 123
-0.084297694 0.11980607 -0.76427299 36 135 121
-0.084299542 0.12227963 -0.76536787 40 134 122
-0.086829729 0.12155176 -0.76406533 30 135 123
-0.085687138 0.12230608 -0.76483017 36 134 123
-0.087507986 0.12243938 -0.76413131 30 135 124
-0.085550003 0.12187867 -0.76472032 35 135 122
-0.083068132 0.12095641 -0.76537842 40 134 121
-0.083116308 0.12045294 -0.76512796 39 134 121
-0.068474256 0.100554 -0.76529187 33 133 114
-0.069800623 0.10310411 -0.76538938 33 134 115
-0.068809807 0.10159077 -0.76545405 33 133 114
-0.069002777 0.1028742 -0.76578736 32 134 114
-0.069563471 0.099744491 -0.76431859 33 134 114
-0.06816332 0.10169811 -0.76588166 32 134 114
-0.068030253 0.099925756 -0.76535153 33 133 114
-0.068815641 0.098935492 -0.76448786 33 134 115
-0.069455929 0.098784328 -0.76402456 31 135 115
-0.071161315 0.09948229 -0.76320451 31 137 116
-0.067040548 0.099465266 -0.76582134 32 133 114
-0.075723149 0.13667268 -0.77775228 24 131 118
-0.074269228 0.13505262 -0.77796412 28 131 118
-0.073618278 0.13545859 -0.77866369 27 131 117
-0.073208489 0.13598654 -0.77925527 26 131 117
-0.072403699 0.13490506 -0.77926779 28 132 116
-0.070433915 0.13591848 -0.78141141 25 131 117
-0.071521953 0.135342 -0.78021687 27 131 117
-0.070590317 0.13498606 -0.78075385 27 132 117
-0.071717471 0.13636193 -0.78064466 24 131 116
-0.073501751 0.13476592 -0.77837986 29 132 117
-0.072815664 0.13418199 -0.7785641 30 132 117
-0.073087052 0.13469288 -0.77864671 29 132 117
-0.071816064 0.13431159 -0.77940118 30 132 117
-0.071364321 0.13397434 -0.77957296 30 133 117
-0.072040565 0.1330235 -0.77850723 33 134 118
-0.069792695 0.13435689 -0.78103477 28 132 117
-0.070265517 0.13377284 -0.78033268 30 133 118
-0.070993274 0.1329935 -0.77931952 33 133 118
-0.069340929 0.13418303 -0.7812857 28 132 117
-0.070234239 0.13205253 -0.779392 33 134 118
-0.06999816 0.13234541 -0.7797361 33 133 118
-0.069949135 0.13231108 -0.77975631 33 133 118
-0.070185475 0.13140018 -0.77906716 34 134 119
-0.069497466 0.13155043 -0.77968234 33 133 118
-0.068705566 0.13291796 -0.78105932 28 134 117
-0.068621725 0.13211086 -0.78067213 30 132 119
-0.068276711 0.13298237 -0.78143346 28 132 118
-0.068048045 0.13130066 -0.78068775 30 133 118
-0.069737114 0.12934917 -0.77828032 36 134 119
-0.069577061 0.12942824 -0.77844733 35 134 119
-0.069240361 0.13060075 -0.77935171 33 134 118
-0.06884563 0.12803623 -0.77824676 34 134 119
-0.071292035 0.1308573 -0.77790904 37 135 119
-0.068363808 0.12829213 -0.77875942 33 134 118
-0.068538301 0.12716359 -0.77800435 36 134 120
-0.064986721 0.12829462 -0.78142905 34 134 118
-0.065804377 0.12933716 -0.78139251 33 134 118
-0.065380529 0.1280455 -0.78093195 35 135 119
-0.065318786 0.12793902 -0.78091693 35 135 118
-0.067593478 0.12877381 -0.77961642 33 134 118
-0.067513272 0.12757364 -0.77901834 34 134 119
-0.065812044 0.1277512 -0.78042388 35 135 119
-0.06696064 0.1282625 -0.77982187 33 135 118
-0.066133209 0.12774858 -0.78017551 35 135 119
-0.06636171 0.1279242 -0.78009635 35 135 119
-0.067369148 0.12699993 -0.77881378 34 135 119
-0.068148427 0.12941402 -0.77954161 33 133 118
-0.064688541 0.12307335 -0.77881235 36 135 117
-0.066701598 0.12496369 -0.77824962 36 135 118
-0.068028577 0.12616195 -0.77784973 36 134 120
-0.066411287 0.12545821 -0.77874529 36 135 118
-0.0661752 0.1256994 -0.7790525 36 135 118
-0.065461896 0.12666164 -0.78010243 36 135 119
-0.065033324 0.12497957 -0.7795552 36 135 118
-0.065314144 0.12662278 -0.78019583 36 135 119
-0.065909036 0.12500064 -0.77889287 36 135 118
-0.065968171 0.12667944 -0.77972251 36 135 119
-0.066564389 0.12527704 -0.77853316 36 135 118
-0.06304951 0.12386996 -0.78063428 37 135 117
-0.062056907 0.12314903 -0.78109109 38 134 117
-0.063666731 0.12639649 -0.78147209 35 135 119
-0.06410037 0.12417451 -0.77990311 36 135 118
-0.062900677 0.12418132 -0.78092921 37 135 117
-0.062972434 0.12478589 -0.78119439 36 135 118
-0.064417981 0.12381189 -0.77942657 36 135 117
-0.065138832 0.12235567 -0.77801067 37 135 117
-0.064033352 0.12196128 -0.77870971 39 133 117
-0.063905947 0.12274149 -0.77927953 38 134 117
-0.063574009 0.12215909 -0.77921808 39 133 117
-0.061904784 0.12277145 -0.7810027 39 133 118
-0.061604686 0.12160673 -0.78058982 41 132 117
-0.062023643 0.12166828 -0.78026366 41 132 117
-0.061462797 0.12247173 -0.78121006 39 133 117
-0.062233351 0.12096184 -0.77967465 42 133 116
-0.062916182 0.11965893 -0.77833188 45 132 116
-0.062697813 0.12005755 -0.77875084 43 133 116
-0.062083591 0.12044647 -0.77950555 43 132 117
-0.060943596 0.11965299 -0.78005326 45 133 116
-0.060691904 0.12141981 -0.78127265 41 133 116
-0.061549004 0.11916914 -0.77924961 46 133 116
-0.061194375 0.11943253 -0.77970904 45 133 116
-0.059361126 0.11944152 -0.78154796 43 133 117
-0.059842248 0.12029272 -0.78151518 42 133 117
-0.061182171 0.11640075 -0.77786613 45 133 116
-0.060892642 0.11754838 -0.77882689 45 133 116
-0.061340481 0.11899385 -0.7793256 46 133 116
-0.061882731 0.11900571 -0.77885818 46 133 116
-0.062375419 0.11883841 -0.77832371 46 132 116
-0.061229009 0.11745903 -0.77847731 45 133 116
-0.059797179 0.11859474 -0.78057545 44 133 117
-0.05998541 0.11808951 -0.78006297 44 133 117
-0.059671439 0.11912218 -0.78103489 44 133 117
-0.059048317 0.11591492 -0.77961922 42 132 118
-0.059015609 0.11578246 -0.77956575 42 132 118
-0.058440093 0.11611748 -0.78034973 41 132 119
-0.059520226 0.11664972 -0.77962959 43 133 117
-0.060317554 0.11575174 -0.77826273 44 133 117
-0.059237812 0.11638781 -0.77973849 43 132 118
-0.05937748 0.11552444 -0.77904212 42 132 117
-0.057921007 0.11609975 -0.78084981 40 130 120
-0.056988414 0.11526062 -0.7812202 38 129 121
-0.058641046 0.11482494 -0.77933455 40 132 119
-0.057132419 0.11511903 -0.78099185 38 129 121
-0.058565363 0.11344437 -0.77859253 37 133 118
-0.057904664 0.11358553 -0.77932566 36 132 119
-0.057019882 0.11176311 -0.77911776 30 132 120
-0.05750965 0.11355679 -0.779697 36 130 120
-0.057770301 0.11489458 -0.78023195 39 130 120
-0.056892123 0.11195607 -0.77935755 30 132 121
-0.058510035 0.11281051 -0.77829874 37 131 119
-0.058300149 0.11276174 -0.77846545 36 133 119
-0.059341766 0.1136039 -0.77795321 40 133 118
-0.055688277 0.11299407 -0.78137159 29 129 122
-0.055958956 0.11249681 -0.7807498 28 131 121
-0.056583658 0.11221199 -0.77982593 30 131 121
-0.055586111 0.11162183 -0.78068221 26 133 121
-0.057121482 0.11114455 -0.77870709 30 132 120
-0.057552163 0.11130627 -0.77838796 32 133 120
-0.05701717 0.10916312 -0.77787739 25 133 119
-0.056266356 0.11056186 -0.77932811 26 133 120
-0.056617342 0.11038759 -0.77882242 26 133 119
-0.056213479 0.10969782 -0.77898848 24 131 119
-0.061337482 0.14001474 -0.79389942 23 133 122
-0.06103928 0.14107896 -0.79515642 23 133 121
-0.060717762 0.14223434 -0.79651827 23 133 121
-0.060876887 0.14078017 -0.79511368 24 133 122
-0.060077194 0.13944609 -0.79506654 24 133 122
-0.060376007 0.14074436 -0.79573983 24 133 121
-0.059897315 0.14051481 -0.7961998 24 133 121
-0.060485221 0.13884701 -0.79401356 24 133 121
-0.060198076 0.14178574 -0.79684776 24 133 121
-0.060147151 0.13937362 -0.79491115 24 133 122
-0.060440622 0.14224052 -0.79689199 24 133 121
-0.06058161 0.13827726 -0.79341382 24 133 121
-0.059848737 0.13841799 -0.79452252 24 133 122
-0.058838852 0.13846399 -0.79592967 23 133 122
-0.059110519 0.1384061 -0.79551184 23 133 122
-0.058624968 0.1371025 -0.79497838 24 133 122
-0.059982035 0.13756093 -0.79359698 24 133 122
-0.05755898 0.13584568 -0.79532307 23 133 122
-0.058902577 0.13611501 -0.79380298 25 133 123
-0.058933485 0.1365747 -0.79414243 24 133 122
-0.058537211 0.13656433 -0.79464781 24 133 122
-0.057830386 0.13600841 -0.7951054 24 131 123
-0.057154991 0.13543364 -0.79545677 24 133 122
-0.057120245 0.13482851 -0.79495841 24 133 122
-0.056427598 0.13548905 -0.79637909 23 131 122
-0.056989349 0.13449553 -0.79486376 25 131 123
-0.057393704 0.13468438 -0.79450923 25 133 123
-0.056781113 0.13264711 -0.79376185 25 131 123
-0.05641206 0.13240723 -0.79402071 25 130 123
-0.055368431 0.13460007 -0.7968325 23 130 123
-0.056114189 0.13387336 -0.7954396 24 131 123
-0.055786662 0.13302431 -0.79520482 24 130 123
-0.055938162 0.13226266 -0.79448259 25 130 123
-0.054488834 0.13183168 -0.79618299 23 130 122
-0.054287288 0.13096759 -0.79589516 24 130 122
-0.0554673 0.13305345 -0.7956171 24 130 123
-0.054090805 0.1312429 -0.79635257 23 130 121
-0.053189922 0.1283198 -0.79534775 23 131 122
-0.053417098 0.1285861 -0.79525286 23 131 121
-0.053301536 0.12898073 -0.79572105 23 131 121
-0.054753214 0.13019742 -0.79465157 24 130 122
-0.053821303 0.12883832 -0.79489428 24 131 121
-0.05367811 0.12839362 -0.79474682 24 131 121
-0.05471988 0.12916847 -0.79389232 25 130 122
-0.053609271 0.12902156 -0.79533529 24 130 122
-0.05567367 0.13022269 -0.79338008 25 130 122
-0.054593183 0.13057669 -0.79517317 24 130 122
-0.053597968 0.12662947 -0.79347938 24 131 121
0 0 0 1 0 0 0 1 0 0 0 1 0 0 0 0 0 863 1 0 0
