ply
format ascii 1.0
comment PCL generated
element vertex 982
property float x
property float y
property float z
property uchar red
property uchar green
property uchar blue
element camera 1
property float view_px
property float view_py
property float view_pz
property float x_axisx
property float x_axisy
property float x_axisz
property float y_axisx
property float y_axisy
property float y_axisz
property float z_axisx
property float z_axisy
property float z_axisz
property float focal
property float scalex
property float scaley
property float centerx
property float centery
property int viewportx
property int viewporty
property float k1
property float k2
end_header
-0.061080463 -0.38170004 -0.67598081 176 134 120
-0.060791917 -0.38356492 -0.67608857 195 136 119
-0.062812515 -0.38175192 -0.67611551 180 134 122
-0.060995337 -0.38150293 -0.67596066 174 134 120
-0.060558364 -0.38189653 -0.67595571 177 134 120
-0.05834163 -0.38461515 -0.67608076 188 134 121
-0.059879061 -0.38453639 -0.6761139 199 136 119
-0.057517421 -0.38453904 -0.67605013 181 132 121
-0.056860987 -0.38470393 -0.67605025 176 131 123
-0.058533564 -0.38418153 -0.67603874 187 135 120
-0.058958981 -0.38472199 -0.67610914 193 134 121
-0.059569478 -0.38278687 -0.67595357 184 136 118
-0.060247205 -0.38249242 -0.67597729 183 135 119
-0.059955422 -0.38279569 -0.67597955 185 135 119
-0.056502949 -0.38416427 -0.67598748 172 132 122
-0.05730835 -0.38624185 -0.67614126 190 133 125
-0.058282644 -0.38605815 -0.67615873 196 134 123
-0.05900738 -0.38479567 -0.67611665 194 134 121
-0.056471325 -0.38536832 -0.67607427 178 131 124
-0.054490842 -0.38750461 -0.67610621 189 134 125
-0.055512577 -0.3870621 -0.67612201 188 133 126
-0.054643579 -0.38862252 -0.67616653 197 134 127
-0.054683514 -0.38654917 -0.67607051 183 133 124
-0.053389519 -0.38552353 -0.67602587 175 137 124
-0.053053357 -0.38522762 -0.67601347 172 138 123
-0.053456157 -0.38497266 -0.6760124 171 137 123
-0.05441457 -0.38668168 -0.67607027 183 134 124
-0.048944768 -0.3869465 -0.67595965 178 131 123
-0.050919563 -0.38714439 -0.67598075 186 131 123
-0.051603407 -0.38859403 -0.67608953 190 135 125
-0.049815226 -0.3865287 -0.67593181 180 130 122
-0.049766976 -0.3865723 -0.67593485 180 130 122
-0.050420761 -0.3867209 -0.67594796 183 130 122
-0.050795279 -0.38617754 -0.67593563 181 131 122
-0.051748924 -0.38716814 -0.67600983 186 133 123
-0.052625716 -0.38519159 -0.67600262 172 138 123
-0.051088147 -0.38553697 -0.67593372 176 133 122
-0.05254446 -0.38626045 -0.67602646 179 137 123
-0.047448799 -0.38797036 -0.67603594 173 135 126
-0.047898076 -0.38809255 -0.67604184 175 135 126
-0.048200443 -0.38719979 -0.67597091 174 134 124
-0.048626348 -0.38647142 -0.6759221 176 130 123
-0.048396904 -0.38657546 -0.67592722 174 131 123
-0.041613068 -0.38826585 -0.67604816 193 136 125
-0.037776478 -0.38818279 -0.67604047 210 133 128
-0.037826199 -0.3880091 -0.67603403 207 134 127
-0.038591962 -0.38717553 -0.67600578 194 137 124
-0.038037218 -0.38776857 -0.67602587 204 134 126
-0.040723976 -0.38742438 -0.67597622 189 138 124
-0.038956139 -0.38646886 -0.67597294 184 139 122
-0.035617311 -0.38826168 -0.67606306 207 131 128
-0.034874171 -0.38647214 -0.6759963 194 135 124
-0.035341818 -0.38730496 -0.67602533 201 133 126
-0.035435431 -0.38771322 -0.67604178 203 132 127
-0.034507345 -0.38609511 -0.67598581 189 136 123
-0.035600405 -0.38653684 -0.67599058 194 135 124
-0.032483783 -0.38830248 -0.67616886 193 130 128
-0.033086687 -0.38850668 -0.67612386 195 129 128
-0.053960796 -0.38879004 -0.67615199 196 135 126
-0.051641885 -0.38989618 -0.67616296 191 135 125
-0.049495254 -0.38930279 -0.67611426 182 135 126
-0.04936536 -0.3895013 -0.67612201 181 135 126
-0.052232247 -0.3888739 -0.67610568 192 135 124
-0.048333094 -0.38933238 -0.67611665 180 134 127
-0.048266206 -0.3895151 -0.67612463 180 134 127
-0.04659009 -0.38956532 -0.6761381 182 134 127
-0.045852896 -0.38887241 -0.67613095 173 134 128
-0.045120969 -0.3895542 -0.67615652 178 134 128
-0.044494409 -0.38945225 -0.67615551 177 134 127
-0.044573866 -0.38953006 -0.67615753 178 134 127
-0.041385382 -0.39017707 -0.67615479 196 138 123
-0.042152457 -0.38887748 -0.67610365 193 136 126
-0.041777715 -0.38984841 -0.67614508 193 138 124
-0.039383221 -0.39140561 -0.67616779 196 138 126
-0.040102523 -0.38992301 -0.67611325 201 136 127
-0.040945485 -0.38961792 -0.67611957 201 138 124
-0.038140539 -0.38980561 -0.67609322 208 133 129
-0.039095629 -0.38880405 -0.67606944 210 134 127
-0.038089927 -0.39120132 -0.67613262 199 135 130
-0.037906975 -0.38986415 -0.67609382 208 133 129
-0.03867624 -0.38978803 -0.67609537 206 135 129
-0.039059665 -0.38899675 -0.67607468 209 134 127
-0.033253308 -0.38920811 -0.67616224 196 129 128
-0.036176555 -0.39126742 -0.67614555 197 133 131
-0.036873296 -0.38940352 -0.67608076 212 132 130
-0.035964467 -0.39079887 -0.67613578 199 132 131
-0.034264922 -0.38947138 -0.67612684 197 129 130
-0.036517374 -0.38912693 -0.67607898 212 131 130
-0.042027775 -0.39611328 -0.67607939 194 137 124
-0.043103702 -0.3955349 -0.67616218 196 137 125
-0.041561529 -0.39477199 -0.67614865 193 139 123
-0.038101841 -0.3933863 -0.67614001 194 135 130
-0.039549433 -0.39400357 -0.67613775 192 137 126
-0.04027598 -0.39381093 -0.67616981 192 139 124
-0.040688559 -0.3956545 -0.67605907 192 137 124
-0.039309721 -0.39542121 -0.67604518 189 136 126
-0.038163498 -0.39617965 -0.67598647 177 138 123
-0.039515171 -0.39611438 -0.67601049 185 137 124
-0.039172009 -0.39589113 -0.67601746 184 137 124
-0.037511732 -0.39497519 -0.67604232 181 138 126
-0.038369965 -0.3950021 -0.67605382 186 137 127
-0.035072379 -0.39580503 -0.67616892 184 138 126
-0.036939379 -0.39496386 -0.67605156 180 138 126
-0.036299542 -0.3955262 -0.67607689 180 138 126
-0.043895535 -0.3972857 -0.67613119 193 136 125
-0.043086231 -0.39723164 -0.67609769 191 136 124
-0.044851512 -0.39781752 -0.67616999 190 137 125
-0.042709727 -0.39766714 -0.67608142 187 137 124
-0.04266578 -0.39758316 -0.67607975 187 137 123
-0.041159209 -0.39715007 -0.67603505 190 136 124
-0.04265777 -0.40012756 -0.67614108 180 137 123
-0.043011118 -0.39967528 -0.67613006 179 138 122
-0.043239888 -0.3997694 -0.67613494 178 138 122
-0.043633088 -0.40025663 -0.6761536 177 139 122
-0.038433053 -0.39890626 -0.67604911 183 137 123
-0.038995843 -0.39897093 -0.67605984 181 137 123
-0.038690038 -0.39812931 -0.67602921 176 137 123
-0.039305095 -0.40032992 -0.67610639 192 135 124
-0.038533811 -0.39864877 -0.67604274 181 137 123
-0.038880337 -0.39720351 -0.67600322 178 138 123
-0.038487617 -0.39768741 -0.6760124 174 138 123
-0.038104769 -0.39703718 -0.67598629 174 139 122
-0.0388612 -0.39796403 -0.67602664 176 137 123
-0.03850152 -0.39780995 -0.67601639 174 138 123
-0.036204822 -0.39944902 -0.6761182 194 137 123
-0.035761114 -0.39843178 -0.67612976 191 138 124
-0.03500903 -0.3965295 -0.67613888 181 139 125
-0.035369869 -0.39763257 -0.67614126 188 138 125
-0.035719417 -0.39809757 -0.67612499 190 138 124
-0.041161448 -0.40102994 -0.67616004 187 135 124
-0.043175891 -0.40068039 -0.67616457 179 138 122
-0.039558947 -0.40336925 -0.6761601 197 135 124
-0.038995713 -0.40291625 -0.67611027 194 135 124
-0.040615045 -0.40123683 -0.67614287 188 134 124
-0.038043059 -0.40255079 -0.67607588 196 135 123
-0.037816793 -0.40172896 -0.67607719 198 136 123
-0.038945161 -0.40214962 -0.67609233 192 135 124
-0.039116222 -0.40070966 -0.67610347 193 135 124
-0.038315386 -0.40159729 -0.67608577 196 135 123
-0.036506575 -0.40331 -0.67610532 193 137 121
-0.036165595 -0.40201563 -0.67613178 192 137 122
-0.036823805 -0.40203008 -0.67608374 198 136 123
-0.036811464 -0.40146753 -0.67608792 198 137 122
-0.043769401 -0.40768018 -0.67616802 195 136 121
-0.037125185 -0.40655515 -0.67615485 190 137 124
-0.038341004 -0.40449357 -0.67613214 199 135 124
-0.036582701 -0.40546137 -0.67615658 186 138 121
-0.043928873 -0.40824831 -0.67614943 194 136 120
-0.086757906 -0.38387096 -0.68031222 179 138 122
-0.086977564 -0.38261232 -0.68022764 182 134 123
-0.087461419 -0.38247111 -0.68031204 179 135 123
-0.072320655 -0.38008237 -0.67727458 192 135 126
-0.072561413 -0.37931195 -0.67723 178 135 124
-0.072939657 -0.37889823 -0.67724651 167 136 123
-0.068834066 -0.37856233 -0.67658859 169 135 125
-0.070258692 -0.38024789 -0.67695922 192 132 127
-0.068968371 -0.37895688 -0.67664111 174 134 125
-0.068512835 -0.38010859 -0.67664856 188 130 127
-0.069028467 -0.38051301 -0.67676741 194 130 127
-0.071060821 -0.37851691 -0.67692947 170 136 124
-0.071929723 -0.38048726 -0.6772632 199 134 127
-0.065408804 -0.38035411 -0.67626196 173 133 125
-0.068324707 -0.3794218 -0.67656654 179 132 126
-0.066598311 -0.38070288 -0.67644054 185 130 126
-0.064901978 -0.38071084 -0.67622358 174 133 124
-0.084856279 -0.38310385 -0.67985219 178 135 121
-0.084801026 -0.3834033 -0.67987072 179 135 121
-0.081042819 -0.38470763 -0.67916596 170 139 120
-0.08265771 -0.38359708 -0.67944372 174 136 121
-0.08085449 -0.38459855 -0.67911541 167 139 120
-0.082362913 -0.38313383 -0.67934215 168 137 121
-0.076276287 -0.38348874 -0.67816633 173 137 124
-0.077515811 -0.38355091 -0.67840117 168 138 123
-0.077470347 -0.38325202 -0.67837423 167 138 123
-0.078279167 -0.38424948 -0.67858672 168 139 122
-0.075098075 -0.38402361 -0.67800969 186 136 126
-0.074709639 -0.38360685 -0.67792046 189 136 126
-0.073496252 -0.38378492 -0.6777513 194 134 126
-0.072934702 -0.38286677 -0.67759901 199 134 127
-0.07310386 -0.3840681 -0.67771327 197 134 127
-0.074207306 -0.38342693 -0.67783171 191 135 126
-0.075941227 -0.38313669 -0.67808765 174 137 124
-0.073928349 -0.38213906 -0.67769909 192 135 127
-0.074955046 -0.38186511 -0.67784876 179 136 125
-0.075133286 -0.38337824 -0.67797148 185 137 126
-0.075453617 -0.3832916 -0.67801809 181 137 125
-0.069943465 -0.38470504 -0.67722225 205 130 126
-0.068713777 -0.3843658 -0.67698061 206 129 125
-0.069139697 -0.38212922 -0.67690349 199 129 127
-0.068541646 -0.38413292 -0.67693412 206 129 125
-0.071237892 -0.38447872 -0.67743677 202 131 127
-0.06918586 -0.38236564 -0.6769278 200 129 127
-0.071528107 -0.38336164 -0.67740822 200 132 127
-0.068792567 -0.38101819 -0.67676437 198 128 128
-0.071808808 -0.3811256 -0.67729104 203 133 128
-0.071239248 -0.38304847 -0.67733538 200 131 128
-0.071438484 -0.38232791 -0.67731631 201 132 128
-0.065962754 -0.38243145 -0.67647719 188 131 125
-0.064662099 -0.38372484 -0.67636025 213 129 127
-0.066439725 -0.38409358 -0.67663437 209 129 126
-0.065863959 -0.38318205 -0.67650324 199 130 126
-0.066694506 -0.38446125 -0.67669052 212 129 126
-0.067946211 -0.38115185 -0.67664504 195 129 127
-0.067045189 -0.38237488 -0.67661303 194 130 126
-0.068045631 -0.38368666 -0.67683101 203 129 125
-0.068170376 -0.38357967 -0.67683971 204 128 126
-0.067574672 -0.38306376 -0.67672807 199 129 125
-0.063876338 -0.38427791 -0.67632622 218 129 127
-0.063509271 -0.38394758 -0.67628706 212 131 126
-0.063327998 -0.3837733 -0.67626715 208 131 125
-0.063233383 -0.38328224 -0.67623538 200 132 124
-0.063515663 -0.38440689 -0.67631197 218 130 126
-0.081774831 -0.38485509 -0.67933869 177 137 120
-0.081688613 -0.38613191 -0.67937851 177 137 124
-0.081798613 -0.38533926 -0.67936641 177 138 122
-0.082297042 -0.38514021 -0.67946899 181 137 121
-0.08084289 -0.38520995 -0.67914617 169 139 121
-0.076524295 -0.38589865 -0.67838156 182 136 125
-0.077062525 -0.38650995 -0.67854357 183 136 124
-0.078365043 -0.3859033 -0.67875469 176 137 123
-0.079087436 -0.38543019 -0.67883945 171 138 122
-0.078130044 -0.38543567 -0.67866158 175 137 123
-0.078285247 -0.38656482 -0.67880964 180 135 124
-0.0747196 -0.38741925 -0.67818636 194 133 125
-0.073452249 -0.387371 -0.67798823 203 135 125
-0.073604345 -0.38619694 -0.67793649 196 133 125
-0.073259227 -0.38741177 -0.67796117 205 135 125
-0.073791526 -0.38772398 -0.67806304 202 135 124
-0.072681785 -0.38712829 -0.67785412 208 136 125
-0.07447955 -0.38492942 -0.67798269 189 135 126
-0.075869657 -0.38774011 -0.67838156 188 135 124
-0.073675252 -0.38535276 -0.67789042 194 134 126
-0.074919306 -0.38480625 -0.67804044 187 136 126
-0.075866401 -0.38486505 -0.67818677 182 137 126
-0.069433227 -0.38718784 -0.67720968 215 134 124
-0.070033967 -0.38669959 -0.6773507 213 133 124
-0.069245532 -0.38751718 -0.67716634 216 135 124
-0.069530755 -0.38802251 -0.67723608 218 135 123
-0.06875138 -0.38802311 -0.67705077 219 135 123
-0.06957417 -0.38555112 -0.67721111 209 131 125
-0.071432553 -0.38743573 -0.67766178 214 135 125
-0.070354335 -0.38567948 -0.67735791 209 132 125
-0.072185419 -0.3866381 -0.67774451 209 135 125
-0.07168638 -0.38510045 -0.67755741 203 132 127
-0.066894352 -0.38782662 -0.67676759 222 134 125
-0.065604553 -0.38727367 -0.67660522 223 133 127
-0.064666077 -0.38813475 -0.6765337 219 134 128
-0.067820042 -0.38817689 -0.67688245 222 135 124
-0.065120459 -0.38597986 -0.67650425 226 130 128
-0.064999104 -0.38850811 -0.67658412 219 135 127
-0.066512376 -0.38562441 -0.67668402 221 129 126
-0.068091266 -0.38524827 -0.67690849 211 130 125
-0.067694172 -0.38567102 -0.6768533 215 130 125
-0.068114661 -0.38686222 -0.67691809 216 133 124
-0.067268729 -0.38625902 -0.67679471 219 131 125
-0.067363463 -0.38594836 -0.67680711 217 131 125
-0.062794879 -0.38494709 -0.67629921 220 131 125
-0.061589461 -0.38665888 -0.6763258 227 129 130
-0.060856041 -0.3854706 -0.67621547 213 134 122
-0.062225375 -0.38648149 -0.67635298 230 128 130
-0.060927842 -0.38627371 -0.67626524 220 132 126
-0.062001646 -0.38778025 -0.67640239 233 129 132
-0.061606303 -0.3876633 -0.67638278 236 127 133
-0.063789412 -0.3863422 -0.67641848 227 129 130
-0.063578844 -0.38803768 -0.67647284 224 133 129
-0.062890328 -0.38643622 -0.67638719 232 128 131
-0.06231799 -0.38790199 -0.67641908 231 129 132
-0.05753753 -0.38855118 -0.67626822 208 132 130
-0.05737149 -0.38797933 -0.67623407 203 131 130
-0.058460794 -0.38747257 -0.67624378 209 131 129
-0.060209207 -0.38636509 -0.67623723 216 133 125
-0.060093313 -0.38619247 -0.6762237 213 134 124
-0.059782874 -0.38765538 -0.67629671 223 130 130
-0.059709582 -0.38751268 -0.67628628 221 130 130
-0.055950396 -0.3879841 -0.67618322 195 133 128
-0.032161057 -0.38812929 -0.67618924 191 130 128
-0.076731764 -0.38959536 -0.67863697 190 135 125
-0.076338664 -0.3921361 -0.67863744 206 142 128
-0.07732325 -0.38899276 -0.67875367 187 134 124
-0.074486047 -0.39195129 -0.67826533 221 139 127
-0.073771328 -0.39179713 -0.67811233 226 137 127
-0.073937051 -0.39113402 -0.67817253 220 139 126
-0.073262423 -0.39236623 -0.67797941 234 134 127
-0.073465794 -0.39112678 -0.67806828 224 137 126
-0.075704537 -0.39210552 -0.67852968 211 143 128
-0.076097108 -0.38891375 -0.67848635 190 135 124
-0.072939962 -0.38887057 -0.67799914 214 138 124
-0.076129861 -0.39209056 -0.67859465 207 142 128
-0.073573202 -0.38966063 -0.67812228 214 139 125
-0.069703318 -0.39223453 -0.67736733 244 129 127
-0.071030878 -0.39189142 -0.67753434 242 131 127
-0.068574399 -0.39156023 -0.67716652 240 130 126
-0.070125774 -0.39230374 -0.6774314 244 129 127
-0.069703527 -0.39135629 -0.67731386 238 131 126
-0.070033476 -0.39240277 -0.67742431 245 129 127
-0.071939178 -0.38944772 -0.67778391 224 137 124
-0.072110385 -0.39131114 -0.67775875 236 133 126
-0.071001247 -0.39055189 -0.67752182 232 134 125
-0.069629535 -0.38897863 -0.67725128 223 136 124
-0.071174599 -0.38931975 -0.67760658 224 136 124
-0.069408022 -0.38966224 -0.67717445 227 134 124
-0.064581744 -0.389135 -0.67657053 218 135 127
-0.066873983 -0.39246607 -0.67701995 233 131 127
-0.06503468 -0.3913092 -0.67674315 217 134 126
-0.065632008 -0.39206755 -0.67685419 221 134 126
-0.065280713 -0.39054942 -0.67672962 221 134 126
-0.064680517 -0.38877571 -0.67656136 219 135 127
-0.068082251 -0.39115116 -0.67708057 238 131 126
-0.0667364 -0.39000952 -0.67686284 229 133 126
-0.067034498 -0.38907892 -0.67683899 223 135 125
-0.066311151 -0.3900815 -0.6768204 229 133 127
-0.067435466 -0.39130163 -0.67701852 238 131 127
-0.061012946 -0.38943112 -0.67643571 234 129 133
-0.063643679 -0.3918201 -0.67667222 213 135 127
-0.061476637 -0.38975936 -0.67647332 230 130 132
-0.060973667 -0.38935608 -0.6764304 234 128 134
-0.061709214 -0.39184585 -0.67657679 226 132 128
-0.063573509 -0.39038938 -0.67659098 217 134 128
-0.063282639 -0.38966289 -0.67653954 221 133 129
-0.06311772 -0.38999763 -0.6765517 221 133 129
-0.063211903 -0.39029923 -0.67657202 220 133 129
-0.063750111 -0.39037862 -0.67659724 217 134 128
-0.05985485 -0.39202765 -0.67650175 227 131 128
-0.05945304 -0.39228961 -0.67649508 221 134 126
-0.06006293 -0.392304 -0.67652071 228 131 128
-0.056675058 -0.3896316 -0.67628056 197 137 126
-0.056688048 -0.38967928 -0.67628288 197 137 126
-0.059893213 -0.39027569 -0.67642683 230 129 131
-0.059399877 -0.39103031 -0.67644292 224 131 129
-0.058909252 -0.39009705 -0.67638475 220 131 130
-0.058645491 -0.38893718 -0.67632449 219 131 132
-0.059725046 -0.38992292 -0.67640549 229 129 132
-0.060247134 -0.3916789 -0.67650092 231 130 129
-0.055646595 -0.38876626 -0.67621261 199 134 128
-0.053011946 -0.38968015 -0.67617762 196 134 126
-0.055379484 -0.38960055 -0.67625844 199 134 128
-0.052960731 -0.38999054 -0.67619622 196 134 126
-0.05459816 -0.39117345 -0.67632091 198 135 126
-0.056594219 -0.39194182 -0.67636567 188 146 118
-0.055080093 -0.39244521 -0.67637265 192 141 120
-0.056533482 -0.39161795 -0.67635304 190 144 120
-0.055701975 -0.39097577 -0.67632228 195 139 124
-0.050026886 -0.39171439 -0.67624611 183 135 125
-0.050252609 -0.39181712 -0.67625678 185 135 125
-0.051155981 -0.3925252 -0.67631197 189 135 125
-0.052097224 -0.39064926 -0.67622066 193 135 125
-0.051787455 -0.39178044 -0.67629015 193 134 126
-0.052529003 -0.39217997 -0.6763292 197 134 126
-0.051947784 -0.39210737 -0.67631453 194 134 126
-0.048234399 -0.39231157 -0.67623889 178 137 123
-0.045935165 -0.39087594 -0.67619449 182 135 127
-0.046180137 -0.39132607 -0.67620581 185 135 127
-0.045848168 -0.39133781 -0.67620432 188 135 127
-0.045689832 -0.39036179 -0.67617714 182 134 127
-0.047533114 -0.39065704 -0.67617679 180 135 126
-0.048053585 -0.39196897 -0.67622793 177 136 124
-0.041599434 -0.39158365 -0.67621297 197 140 123
-0.042273965 -0.39144877 -0.67619866 200 139 124
-0.044205036 -0.39251876 -0.67623186 206 136 127
-0.042565838 -0.39090994 -0.67618251 197 138 125
-0.044655878 -0.39115965 -0.67619455 195 135 128
-0.043303393 -0.39093217 -0.67618531 195 136 126
-0.044633482 -0.39087576 -0.67618811 192 135 128
-0.040596139 -0.39243308 -0.67625165 193 141 122
-0.040808108 -0.39176542 -0.67622322 194 141 122
-0.035154924 -0.39097354 -0.67617339 195 132 130
-0.033965524 -0.39101347 -0.67625922 194 133 127
-0.033576198 -0.39090812 -0.6762777 194 132 127
-0.033669896 -0.39182079 -0.67634517 193 134 126
-0.033006899 -0.38966027 -0.6762206 195 130 128
-0.031578638 -0.38995448 -0.67637557 192 132 127
-0.032035425 -0.38940942 -0.67628956 193 131 128
-0.032104071 -0.39063248 -0.67638224 193 133 126
-0.032123886 -0.39075214 -0.67639011 193 133 126
-0.032490212 -0.392241 -0.6764586 189 135 124
-0.031786181 -0.39234766 -0.67649192 182 137 123
-0.076903954 -0.3941775 -0.67883146 190 145 125
-0.076252259 -0.39390561 -0.67866671 194 146 125
-0.073919959 -0.39594981 -0.67821604 203 141 126
-0.072605588 -0.39469603 -0.67789686 230 134 129
-0.072271213 -0.39550978 -0.67785567 232 133 132
-0.073184311 -0.39509451 -0.67803198 219 137 127
-0.074832924 -0.39527819 -0.67838329 190 145 121
-0.073298573 -0.39426327 -0.67802656 221 137 126
-0.075067356 -0.39302415 -0.67838228 215 140 127
-0.07533028 -0.39354843 -0.67845249 206 143 126
-0.07541319 -0.39446938 -0.67849183 194 145 123
-0.074707791 -0.39487636 -0.67834473 196 144 121
-0.074465998 -0.39267963 -0.67824107 224 138 128
-0.075374097 -0.39315844 -0.67845333 210 142 126
-0.068487003 -0.39410621 -0.67725289 246 128 127
-0.070439897 -0.39491618 -0.67757195 237 131 131
-0.069144145 -0.39596725 -0.67739683 243 129 128
-0.069206469 -0.39533722 -0.67739195 243 130 128
-0.069014147 -0.39407361 -0.67733324 244 129 128
-0.069224656 -0.39487991 -0.6773842 243 130 128
-0.072223112 -0.396274 -0.67787552 229 134 133
-0.069445707 -0.39282906 -0.67736071 246 129 128
-0.069842689 -0.39326906 -0.67743236 244 129 128
-0.070668362 -0.39381856 -0.67756867 241 130 129
-0.072101459 -0.39460176 -0.67779922 236 132 130
-0.067196622 -0.39573094 -0.67714393 238 130 126
-0.065090686 -0.39501786 -0.6769101 224 135 124
-0.064878099 -0.39426205 -0.67685783 218 135 124
-0.065802485 -0.39524904 -0.67698872 228 133 124
-0.064695172 -0.39399043 -0.67682874 216 135 124
-0.0664583 -0.39347512 -0.67699873 228 132 126
-0.064752705 -0.39284167 -0.67678678 210 136 125
-0.067313962 -0.39533028 -0.67714047 236 131 126
-0.067725934 -0.39380875 -0.67715311 241 129 127
-0.067780331 -0.39350823 -0.67715245 242 129 127
-0.061517965 -0.39357251 -0.67664117 232 132 127
-0.061949875 -0.39574045 -0.67674929 238 131 126
-0.060815301 -0.39288706 -0.67657721 233 131 128
-0.063157082 -0.39607862 -0.676826 234 133 124
-0.063651882 -0.39599568 -0.67684871 231 134 123
-0.060557969 -0.39569634 -0.67667454 245 129 128
-0.064306229 -0.39610383 -0.67688674 228 135 123
-0.061968088 -0.39282748 -0.6766324 225 132 127
-0.062682308 -0.39333481 -0.67668939 223 133 126
-0.063604809 -0.39526218 -0.67681634 228 134 124
-0.063692555 -0.39286789 -0.6767202 214 135 125
-0.058231886 -0.39629814 -0.67653632 237 130 127
-0.058664281 -0.39493197 -0.67655599 223 136 124
-0.057291392 -0.39569941 -0.67646337 225 133 126
-0.05737552 -0.3937479 -0.67645293 203 142 120
-0.057413951 -0.39524579 -0.67646831 221 135 124
-0.059449006 -0.39580229 -0.67661995 236 132 126
-0.05953712 -0.39433309 -0.67657858 228 134 125
-0.060398437 -0.39598107 -0.67667907 245 130 128
-0.059662454 -0.39408904 -0.67657411 229 133 126
-0.059592556 -0.39423573 -0.67657703 228 134 125
-0.059240874 -0.3929635 -0.67651236 219 136 124
-0.053256046 -0.39318004 -0.67636442 203 133 126
-0.053206969 -0.39588782 -0.67625636 200 135 125
-0.053814925 -0.39498425 -0.67632514 207 133 126
-0.056118451 -0.39642268 -0.67639649 227 130 128
-0.054040655 -0.39460933 -0.6763522 209 133 126
-0.054769281 -0.39384532 -0.67638582 207 135 125
-0.055763252 -0.39361677 -0.67639184 201 140 122
-0.055879552 -0.3936764 -0.67639327 202 139 121
-0.054958694 -0.39326787 -0.67638248 199 139 122
-0.053592134 -0.39282638 -0.67636794 199 136 125
-0.054828189 -0.39259756 -0.67637581 192 141 121
-0.051087189 -0.3954114 -0.67624676 189 137 124
-0.049641892 -0.39478102 -0.67629391 185 137 124
-0.04884794 -0.39629576 -0.67639261 189 136 125
-0.048956137 -0.39436471 -0.67631161 182 137 124
-0.049668465 -0.39444584 -0.67627949 183 137 124
-0.051607836 -0.39542913 -0.67622161 190 137 124
-0.051497467 -0.39519742 -0.67622197 189 137 124
-0.049990252 -0.39315864 -0.67625844 181 137 123
-0.051466051 -0.39421564 -0.67625922 190 137 124
-0.052272841 -0.39338595 -0.67631441 195 135 125
-0.050377231 -0.39291573 -0.67627889 184 136 124
-0.050352506 -0.39300081 -0.67627484 184 136 124
-0.045167614 -0.39540687 -0.67620349 202 135 128
-0.045415476 -0.39482617 -0.6762256 203 136 127
-0.045050517 -0.39327484 -0.67622513 207 135 128
-0.047403812 -0.39517856 -0.67633593 197 135 126
-0.046585273 -0.39627373 -0.67627406 197 135 127
-0.045112733 -0.39327443 -0.67622876 206 136 127
-0.04799417 -0.39271611 -0.67624897 183 136 124
-0.047074798 -0.39407399 -0.67629713 196 136 126
-0.046627946 -0.39312136 -0.67625743 196 136 126
-0.046401575 -0.39359349 -0.67627472 200 136 126
-0.045388762 -0.39287716 -0.67624122 205 136 127
-0.04767156 -0.39444679 -0.67631495 192 136 126
-0.043880548 -0.39560288 -0.67618972 198 137 126
-0.042425059 -0.39401668 -0.67623377 195 140 123
-0.043577682 -0.39389879 -0.67622423 200 138 125
-0.043964889 -0.39504147 -0.67620474 200 137 126
-0.043807678 -0.39395675 -0.67622089 201 137 126
-0.044433542 -0.39494279 -0.67620087 202 136 127
-0.042002145 -0.39294037 -0.67625433 195 141 122
-0.040895458 -0.39260098 -0.67626536 192 142 121
-0.038588341 -0.3929823 -0.67618001 193 137 128
-0.033787847 -0.39511845 -0.67630345 190 137 127
-0.034253638 -0.39444128 -0.67629641 191 137 127
-0.033274826 -0.39637813 -0.676292 189 138 127
-0.034174051 -0.39343059 -0.67633969 192 136 126
-0.033426549 -0.39353868 -0.67638755 192 136 125
-0.034876827 -0.39598081 -0.67617637 184 138 126
-0.03334469 -0.39635563 -0.67628771 189 138 127
-0.031244028 -0.39555603 -0.67643416 171 139 123
-0.032139551 -0.39563647 -0.67637473 180 139 124
-0.031109076 -0.39307442 -0.67650944 174 138 122
-0.031162046 -0.39432916 -0.67646027 173 139 123
-0.032721255 -0.39435938 -0.67639291 187 137 124
-0.030847138 -0.39277962 -0.67653161 172 139 121
-0.032564029 -0.39494699 -0.67637759 185 137 125
-0.074273355 -0.39653629 -0.67831272 195 143 126
-0.074363962 -0.39667648 -0.67834204 194 143 125
-0.07577531 -0.39754418 -0.6787014 173 147 121
-0.07508526 -0.39737841 -0.67854482 184 144 123
-0.068724521 -0.39768609 -0.67742282 237 131 127
-0.069869943 -0.39888382 -0.67769015 222 136 126
-0.068712197 -0.39961755 -0.67753738 227 134 128
-0.069029555 -0.39993173 -0.6776104 223 135 128
-0.070947878 -0.39932242 -0.67790008 210 140 125
-0.071651265 -0.39716062 -0.67784643 225 135 131
-0.070610516 -0.39854872 -0.67779285 218 137 126
-0.071093 -0.39779499 -0.67780924 222 136 128
-0.072247177 -0.39670673 -0.67790318 226 134 133
-0.070167743 -0.39722472 -0.67762309 232 133 128
-0.071017861 -0.39655507 -0.67770243 234 132 131
-0.066747136 -0.39984462 -0.67728996 228 134 127
-0.064993076 -0.39992222 -0.67704755 231 133 127
-0.066361301 -0.3984918 -0.67721176 228 134 126
-0.067443296 -0.40011653 -0.67739165 227 134 129
-0.066674784 -0.40012947 -0.67728508 229 134 128
-0.068261132 -0.39664114 -0.677288 246 129 127
-0.066212796 -0.39800754 -0.6771723 229 135 125
-0.06725657 -0.39670998 -0.67719495 241 131 125
-0.066597834 -0.39824837 -0.6772241 230 134 126
-0.067968957 -0.39747167 -0.67730987 240 131 127
-0.061942857 -0.39999324 -0.67683011 233 133 127
-0.061475847 -0.39897195 -0.67679018 238 132 127
-0.06353502 -0.39952788 -0.67691678 236 132 128
-0.060657945 -0.40001413 -0.67675573 233 134 126
-0.061078142 -0.40011004 -0.67678136 232 134 126
-0.062503465 -0.39765972 -0.67682904 240 131 127
-0.062296569 -0.39812213 -0.6768266 241 131 127
-0.064014241 -0.39901084 -0.67693287 234 133 126
-0.062754065 -0.3970243 -0.67683065 238 132 126
-0.063473269 -0.39735928 -0.67687452 235 133 125
-0.056979544 -0.39728352 -0.67645615 229 130 128
-0.058237448 -0.39964104 -0.67657346 222 134 127
-0.059025563 -0.40009782 -0.67663699 224 134 127
-0.058104184 -0.39797896 -0.67654735 232 131 127
-0.058227502 -0.39884141 -0.67656493 226 132 127
-0.057335284 -0.39997077 -0.67650896 214 135 128
-0.057827197 -0.39705381 -0.67651576 235 129 128
-0.060165845 -0.39764753 -0.67669207 241 131 127
-0.057823867 -0.3968088 -0.67651248 235 129 128
-0.059281264 -0.39799383 -0.67663258 236 131 127
-0.060384665 -0.40010288 -0.67673868 232 134 126
-0.060217816 -0.39753264 -0.67669439 242 130 128
-0.05310192 -0.39905205 -0.67626524 196 137 124
-0.053177428 -0.39899379 -0.67626804 196 138 124
-0.054764558 -0.39881352 -0.67634368 201 137 127
-0.055237912 -0.39901116 -0.67637014 202 137 127
-0.052754149 -0.39802629 -0.6762321 195 138 124
-0.056285087 -0.39901999 -0.67642802 212 135 128
-0.05566011 -0.39760175 -0.67637962 216 133 128
-0.053301997 -0.39649838 -0.67623854 201 136 125
-0.055704623 -0.3967213 -0.67637354 222 131 127
-0.056300003 -0.40003195 -0.67643863 206 136 129
-0.051440433 -0.39980164 -0.67629635 192 138 123
-0.05059186 -0.3991563 -0.67632067 191 138 124
-0.051786773 -0.40035418 -0.67627996 193 138 123
-0.049748149 -0.39743501 -0.67636901 191 136 124
-0.049931232 -0.39969257 -0.67631656 189 138 123
-0.052569792 -0.39860204 -0.67624825 195 138 124
-0.050764684 -0.3973169 -0.67631781 193 136 124
-0.051425103 -0.39774135 -0.67629164 194 137 124
-0.051016591 -0.39824954 -0.67631984 193 137 124
-0.0495864 -0.39700273 -0.67637146 191 136 125
-0.047075499 -0.39912078 -0.67625087 189 138 124
-0.048244424 -0.39993361 -0.67629308 187 139 123
-0.045792907 -0.39939317 -0.67620295 183 139 123
-0.046008669 -0.3999255 -0.67621017 179 140 122
-0.045975558 -0.39852569 -0.67621106 190 138 125
-0.048335653 -0.39844033 -0.67632896 189 137 125
-0.047770184 -0.39893082 -0.67628527 190 138 125
-0.046907552 -0.39723757 -0.67627311 195 136 126
-0.048826452 -0.39749336 -0.67637843 189 137 124
-0.048015952 -0.39725792 -0.67633677 192 136 125
-0.047746263 -0.39827803 -0.67629844 191 137 125
-0.033876304 -0.39813817 -0.67625517 177 139 123
-0.033520103 -0.39984334 -0.67630833 172 139 120
-0.034102675 -0.3989636 -0.67625242 177 139 122
-0.035118967 -0.39885139 -0.67618108 185 138 123
-0.034612693 -0.40020996 -0.67624056 180 139 120
-0.031937823 -0.39770171 -0.67638993 170 139 121
-0.032769483 -0.39911154 -0.67635274 171 139 120
-0.031679165 -0.3978343 -0.67640835 166 139 120
-0.033112299 -0.39694053 -0.6763044 185 139 126
-0.03311995 -0.39697313 -0.67630428 185 139 126
-0.069202103 -0.40135947 -0.67770296 216 135 128
-0.070476927 -0.40112841 -0.67791355 208 139 127
-0.070489429 -0.40195724 -0.67794836 207 137 127
-0.070155166 -0.40183407 -0.67788661 210 136 127
-0.065407336 -0.40175426 -0.67715985 212 136 126
-0.06524381 -0.40240112 -0.67719191 205 136 126
-0.064744011 -0.40157107 -0.67708993 217 134 126
-0.065928333 -0.40232298 -0.67724502 202 137 126
-0.0664948 -0.40040913 -0.67726511 229 134 128
-0.067763828 -0.40183973 -0.67746723 205 137 127
-0.065493032 -0.40106133 -0.67713761 221 135 127
-0.068010025 -0.40053353 -0.67747802 225 134 129
-0.061302558 -0.40210837 -0.67686445 217 136 124
-0.061184667 -0.40304318 -0.67686325 211 139 123
-0.06120633 -0.40194219 -0.67685109 218 137 124
-0.060587075 -0.40258339 -0.67678779 216 139 124
-0.062768489 -0.40319905 -0.67704904 203 136 124
-0.061099652 -0.40081435 -0.67681628 227 135 125
-0.063854277 -0.40039191 -0.67694622 232 133 127
-0.063136928 -0.4026852 -0.67706782 206 135 124
-0.064198099 -0.40273181 -0.67713279 206 135 125
-0.064362705 -0.40318379 -0.67717451 200 136 124
-0.057662629 -0.40171376 -0.67656231 204 139 127
-0.057782315 -0.40258932 -0.67660075 200 140 126
-0.056897961 -0.40349194 -0.67658854 191 140 126
-0.060339648 -0.40413347 -0.67678928 204 142 122
-0.057176843 -0.40310267 -0.67658854 195 140 126
-0.060161728 -0.40306202 -0.67676061 211 140 124
-0.060466647 -0.40042973 -0.67674851 231 134 126
-0.058775838 -0.40125 -0.67663252 215 137 126
-0.05965155 -0.40071306 -0.67669111 224 136 126
-0.059801191 -0.40161878 -0.67671442 218 137 125
-0.060083617 -0.40080556 -0.67672473 225 135 126
-0.055462494 -0.40404519 -0.67654598 186 141 124
-0.055030048 -0.40347236 -0.67650223 187 140 124
-0.053085487 -0.40118879 -0.67631888 193 138 123
-0.052740384 -0.40321663 -0.67639846 187 138 122
-0.053974334 -0.40380725 -0.67647523 186 139 123
-0.055190742 -0.402661 -0.67647302 190 140 124
-0.056329615 -0.40368041 -0.67656684 188 141 125
-0.05568298 -0.40201172 -0.67647344 195 139 126
-0.053844899 -0.40095007 -0.6763435 195 138 124
-0.055108372 -0.40201646 -0.67644519 193 139 125
-0.051885035 -0.40389568 -0.67640173 184 139 122
-0.050167549 -0.40356934 -0.67628956 181 140 121
-0.05254747 -0.40426245 -0.67643577 184 139 122
-0.051182926 -0.40419388 -0.67633933 182 139 122
-0.049340747 -0.40243796 -0.67627287 183 139 122
-0.052647766 -0.40370747 -0.67642182 186 139 122
-0.050594334 -0.40209115 -0.67637157 185 139 122
-0.051818285 -0.40303341 -0.67640054 185 139 122
-0.051705524 -0.40222195 -0.67636448 187 139 122
-0.050481863 -0.40175408 -0.67635733 186 139 123
-0.047380045 -0.40418205 -0.67622417 183 139 123
-0.046542149 -0.40401685 -0.67626262 186 138 124
-0.046646778 -0.40264174 -0.67631131 188 137 124
-0.046773538 -0.40254751 -0.67631006 188 137 124
-0.048601516 -0.40291396 -0.6762259 181 140 122
-0.048070092 -0.40411547 -0.67620021 181 139 122
-0.047081463 -0.40181142 -0.6763019 187 138 123
-0.04605573 -0.40229329 -0.67628175 185 138 124
-0.04729161 -0.40058723 -0.67626435 181 140 122
-0.045850679 -0.40312168 -0.67630482 188 137 124
-0.045002822 -0.40381899 -0.67629921 189 136 125
-0.041937862 -0.40350839 -0.67625833 195 136 126
-0.04417228 -0.40402231 -0.67629719 191 135 125
-0.042645827 -0.40368751 -0.6762712 194 135 125
-0.042469606 -0.4028706 -0.67623961 191 135 125
-0.044668838 -0.40406719 -0.67630327 190 135 126
-0.044796918 -0.4025318 -0.67624748 182 138 123
-0.044169232 -0.40373236 -0.67628652 190 135 126
-0.04482739 -0.4009254 -0.67618823 175 140 121
-0.044235904 -0.40265501 -0.67624718 185 137 124
-0.039671462 -0.40367824 -0.6761781 198 135 124
-0.033585265 -0.40122545 -0.67633784 164 142 117
-0.033495691 -0.40096936 -0.67633659 166 141 117
-0.033449251 -0.40173745 -0.6763618 157 144 115
-0.034730058 -0.40312657 -0.6762861 161 144 114
-0.033859495 -0.40328476 -0.67637753 145 148 110
-0.035379089 -0.4010154 -0.67620575 182 140 119
-0.035783943 -0.40295637 -0.67617548 181 140 118
-0.031948976 -0.40363598 -0.67652988 128 148 111
-0.031590685 -0.40417367 -0.67655796 127 147 112
-0.031638198 -0.40318707 -0.67654693 129 147 112
-0.031886835 -0.40392199 -0.67653626 128 148 111
-0.032908022 -0.40346125 -0.67645371 134 149 109
-0.032010339 -0.40240213 -0.67650145 136 146 113
-0.03300051 -0.40386188 -0.67645711 131 150 108
-0.0319972 -0.40142441 -0.67647457 147 143 117
-0.072540678 -0.40740442 -0.67855394 187 134 124
-0.072577588 -0.4080584 -0.67859495 188 133 124
-0.072390981 -0.40679875 -0.6784972 189 135 124
-0.07128863 -0.40766817 -0.67833179 187 134 123
-0.07188417 -0.40799057 -0.67846578 189 133 124
-0.070817359 -0.40799579 -0.67825145 185 136 122
-0.072063208 -0.40669778 -0.67843258 190 135 125
-0.065325767 -0.4069075 -0.67739898 191 140 122
-0.067636564 -0.40808341 -0.67768151 181 142 118
-0.065901712 -0.40735132 -0.67747176 189 141 121
-0.064521953 -0.40814027 -0.6773259 199 142 125
-0.065312669 -0.40732303 -0.67740387 192 141 122
-0.061484005 -0.4068827 -0.67698181 214 136 125
-0.062626012 -0.40641525 -0.67708027 202 142 124
-0.062184751 -0.40708688 -0.67705792 210 137 125
-0.062694609 -0.40710533 -0.67710918 206 139 124
-0.060683452 -0.40454605 -0.67682749 205 142 122
-0.063882016 -0.40670723 -0.67722982 198 141 124
-0.063699946 -0.40728599 -0.6772176 200 141 124
-0.062899351 -0.40572363 -0.67710072 199 141 123
-0.063306458 -0.40699738 -0.67716753 201 142 124
-0.062909514 -0.40530461 -0.67709547 197 140 123
-0.06298437 -0.40665323 -0.67712486 201 142 124
-0.058750074 -0.40727478 -0.67681044 208 134 125
-0.057128061 -0.40714458 -0.67672545 186 143 120
-0.057426348 -0.40671936 -0.67672586 191 140 122
-0.056824733 -0.40708837 -0.67670846 182 144 120
-0.060342249 -0.40814582 -0.67691892 227 128 128
-0.058966979 -0.40750888 -0.67682904 210 133 125
-0.060503762 -0.40594894 -0.67685664 215 136 125
-0.05824551 -0.40475029 -0.67670208 196 140 124
-0.059641376 -0.40667754 -0.6768356 215 132 126
-0.059127104 -0.40479913 -0.67674899 201 140 124
-0.060298976 -0.40512735 -0.6768198 209 139 124
-0.05321449 -0.40593955 -0.67650318 180 142 121
-0.054521047 -0.40684274 -0.67659301 179 144 119
-0.054564878 -0.40643659 -0.67658865 180 143 120
-0.053524703 -0.40595996 -0.67652124 180 142 120
-0.053291917 -0.4057118 -0.67650372 181 141 121
-0.054906297 -0.40622282 -0.6766004 181 142 120
-0.055052236 -0.40578791 -0.67659152 182 142 121
-0.05468905 -0.40468478 -0.67653966 184 141 122
-0.054628156 -0.40509272 -0.67655098 183 141 121
-0.054361366 -0.40527266 -0.67654639 183 141 121
-0.052302022 -0.40431595 -0.67641693 184 139 122
-0.049679793 -0.40592802 -0.67625266 184 137 123
-0.048894197 -0.40801555 -0.67622972 189 133 124
-0.049509443 -0.40471947 -0.67622042 180 140 122
-0.050814312 -0.40457952 -0.67631298 182 139 122
-0.049793132 -0.4050858 -0.67624706 182 138 122
-0.049809624 -0.408077 -0.67629772 186 135 124
-0.051815167 -0.40614364 -0.67641193 183 139 122
-0.050227292 -0.40688327 -0.67630816 188 134 123
-0.05120118 -0.4061431 -0.67636698 185 137 123
-0.049364123 -0.40773311 -0.67625928 189 133 124
-0.048799355 -0.40749928 -0.67621762 187 134 124
-0.048113015 -0.40470937 -0.67619848 181 138 123
-0.048355915 -0.40735638 -0.67623228 189 133 124
-0.047025155 -0.40531972 -0.6762501 187 136 124
-0.046767026 -0.40603167 -0.67627156 190 135 125
-0.04818118 -0.40670738 -0.6762284 187 135 124
-0.046536729 -0.40797889 -0.6761933 190 134 122
-0.045636691 -0.40676737 -0.67622602 190 134 123
-0.045077994 -0.40607673 -0.67624378 190 135 123
-0.046183765 -0.40703201 -0.6762256 190 134 123
-0.047915794 -0.4078564 -0.67622483 190 133 123
-0.04591966 -0.40633041 -0.67624944 190 134 124
-0.041772604 -0.40572995 -0.67622977 200 136 124
-0.041348197 -0.40584263 -0.67622322 201 137 123
-0.043509144 -0.40693364 -0.67619455 195 135 122
-0.041728392 -0.40527475 -0.67624652 199 136 124
-0.044834279 -0.40536585 -0.67626923 191 135 124
-0.043789867 -0.40533951 -0.67626095 193 135 124
-0.04485964 -0.40580907 -0.67625123 191 135 123
-0.044058897 -0.40627658 -0.67622483 193 135 123
-0.043874927 -0.40558583 -0.67625159 193 136 123
-0.039453633 -0.40769908 -0.67619067 196 138 123
-0.039729655 -0.4072144 -0.676202 197 138 123
-0.040992025 -0.40447745 -0.67627287 201 136 126
-0.04095928 -0.40610486 -0.67621297 203 137 123
-0.039891951 -0.40561637 -0.67625761 196 137 125
-0.038324732 -0.40572849 -0.67618775 194 137 124
-0.038484253 -0.40571809 -0.67619663 194 137 124
-0.039292034 -0.40582868 -0.67624867 194 137 125
-0.038617242 -0.40574592 -0.67620564 194 137 124
-0.036331702 -0.40526277 -0.67617255 182 139 120
-0.034980223 -0.40450576 -0.67627704 160 144 114
-0.035172243 -0.40536794 -0.67629772 160 144 115
-0.035475418 -0.40530667 -0.67626333 166 143 116
-0.035989158 -0.4069837 -0.67628896 168 142 119
-0.034478717 -0.4065879 -0.6763925 150 146 115
-0.035790116 -0.40736923 -0.67631114 166 142 119
-0.033961128 -0.40553334 -0.67641503 141 148 111
-0.035346601 -0.40743077 -0.67634284 162 143 119
-0.031493388 -0.40511265 -0.67657578 130 145 115
-0.032964323 -0.40443626 -0.67646956 128 151 107
-0.031660616 -0.40573871 -0.67657274 132 145 117
-0.031437296 -0.40534598 -0.67658252 131 144 116
-0.072903246 -0.40991539 -0.67872757 186 133 125
-0.073270239 -0.4102796 -0.67880058 181 133 125
-0.072804101 -0.41183135 -0.67879856 193 132 126
-0.073088996 -0.40990409 -0.6787557 182 133 125
-0.071149975 -0.4112986 -0.67847234 197 134 124
-0.069685593 -0.41133171 -0.67820567 191 139 122
-0.068920612 -0.41107747 -0.67804939 187 141 121
-0.069705978 -0.40990138 -0.67811972 188 138 121
-0.070944071 -0.4119305 -0.67847419 197 134 125
-0.071367025 -0.40894026 -0.67840439 190 134 123
-0.071572401 -0.41038662 -0.67851084 195 133 125
-0.071972251 -0.40930691 -0.67854267 194 132 125
-0.070039622 -0.40918157 -0.67814821 186 138 121
-0.071378514 -0.41057909 -0.67848051 195 133 124
-0.065369613 -0.41059443 -0.67747307 199 140 124
-0.067526713 -0.41152 -0.67786223 190 142 122
-0.06598489 -0.40991431 -0.67758936 195 142 123
-0.067675829 -0.41184741 -0.67788762 190 142 122
-0.064700879 -0.40987313 -0.67735487 201 140 125
-0.066825047 -0.41024452 -0.67771852 191 142 122
-0.065294586 -0.40863514 -0.67744237 197 142 123
-0.067303196 -0.40877712 -0.67768121 185 142 120
-0.065589786 -0.40831399 -0.67745608 194 142 122
-0.066073313 -0.40927935 -0.67757195 193 142 122
-0.067759633 -0.40859127 -0.67772174 182 142 118
-0.062331755 -0.41048723 -0.677082 216 132 127
-0.061558537 -0.40969896 -0.67701006 221 130 128
-0.062913969 -0.41167217 -0.67711693 208 136 127
-0.060796559 -0.41188312 -0.67684281 208 137 129
-0.061556377 -0.40922529 -0.67702514 224 129 128
-0.062211957 -0.40993398 -0.67708492 219 131 127
-0.062917441 -0.40858072 -0.67716432 212 135 126
-0.063793592 -0.40921 -0.67724782 206 137 126
-0.060798109 -0.40840587 -0.67695487 228 128 128
-0.064373128 -0.41033927 -0.67729902 203 138 126
-0.063989155 -0.41029972 -0.67726111 206 137 126
-0.06388323 -0.41047612 -0.67724955 207 137 126
-0.057538029 -0.4103744 -0.67675006 191 142 123
-0.058006097 -0.40993139 -0.67675978 190 143 122
-0.05723023 -0.40912452 -0.67674649 183 145 119
-0.056783784 -0.4108094 -0.67673498 192 142 123
-0.05784015 -0.41178578 -0.67675328 200 141 125
-0.058564734 -0.41030526 -0.67676967 193 142 123
-0.058268018 -0.40924525 -0.67678392 193 141 122
-0.059937056 -0.40997729 -0.67684299 211 135 127
-0.057857089 -0.40837011 -0.67679197 193 140 121
-0.05853907 -0.40893847 -0.67680734 199 139 122
-0.060395669 -0.41069832 -0.67684233 213 135 128
-0.05374356 -0.41095173 -0.67657071 196 140 125
-0.052855741 -0.40985268 -0.67652154 188 142 123
-0.05427457 -0.40985563 -0.67659926 186 142 123
-0.052976042 -0.40946159 -0.67652792 185 142 122
-0.055113174 -0.41144559 -0.67664593 197 141 125
-0.053484038 -0.40865752 -0.67655605 178 144 121
-0.053737279 -0.40851054 -0.67657071 177 145 120
-0.0549675 -0.4093678 -0.67663938 183 144 121
-0.056334615 -0.41067457 -0.67671508 191 142 123
-0.05500723 -0.41035184 -0.67663991 188 142 123
-0.055471059 -0.40853831 -0.67666966 179 145 119
-0.050562352 -0.41093874 -0.67639816 204 136 126
-0.051013391 -0.41052321 -0.67639482 200 135 126
-0.04936051 -0.41044742 -0.67633957 204 134 125
-0.050403614 -0.4099991 -0.67635351 198 135 125
-0.048955008 -0.41137499 -0.67636597 210 136 125
-0.052641727 -0.40976104 -0.67650807 188 142 123
-0.049898025 -0.4092328 -0.6763069 194 134 125
-0.051166575 -0.40944159 -0.67639989 191 137 125
-0.05114489 -0.40855569 -0.6763978 183 139 123
-0.051899534 -0.41036761 -0.67645401 196 139 125
-0.046257492 -0.40979126 -0.67625386 187 138 123
-0.044978019 -0.41018173 -0.67624772 186 140 121
-0.047217205 -0.40892276 -0.67623115 188 135 123
-0.044994626 -0.41131428 -0.67630172 184 143 122
-0.048122812 -0.41070038 -0.67632353 200 136 124
-0.047454644 -0.4101966 -0.67629284 191 137 124
-0.046402823 -0.41163659 -0.67633891 192 141 123
-0.045990158 -0.41128477 -0.67631823 185 142 123
-0.046691295 -0.41168419 -0.67634493 194 141 124
-0.042600937 -0.41138062 -0.6763041 177 142 122
-0.043945771 -0.41177216 -0.6763221 180 144 122
-0.04169257 -0.40994763 -0.67622709 189 140 121
-0.041716833 -0.40962756 -0.67620933 193 140 121
-0.044865619 -0.41189286 -0.67632759 182 145 122
-0.044872135 -0.4108209 -0.6762768 185 142 122
-0.041444246 -0.40902048 -0.6761784 196 139 121
-0.043833774 -0.41079172 -0.67627144 187 142 122
-0.044295482 -0.40896767 -0.6761868 190 137 120
-0.040208548 -0.40934166 -0.67621565 187 139 122
-0.040227536 -0.40878096 -0.67618406 195 139 122
-0.037761722 -0.40831679 -0.67622 186 139 123
-0.038158577 -0.40836447 -0.67621273 187 139 123
-0.03826436 -0.40982762 -0.6762808 176 139 123
-0.069226749 -0.41442451 -0.67818594 175 142 123
-0.068403579 -0.41426986 -0.67802209 183 140 122
-0.068732359 -0.41451305 -0.67808771 180 141 122
-0.068592094 -0.41292843 -0.67805821 184 143 121
-0.070802562 -0.41380647 -0.67848724 171 144 124
-0.069198735 -0.41237906 -0.67816949 186 142 122
-0.069477037 -0.41300175 -0.67823082 178 144 122
-0.07059136 -0.41231209 -0.678424 193 137 124
-0.0715532 -0.41350085 -0.67861998 179 140 125
-0.064581953 -0.41225588 -0.67732131 204 137 126
-0.065750249 -0.41563153 -0.67761689 182 137 123
-0.06741707 -0.41592994 -0.67787319 181 137 123
-0.066520371 -0.41594747 -0.67774183 181 137 123
-0.065331489 -0.4148829 -0.67752784 187 137 124
-0.066154331 -0.41547769 -0.67767072 183 137 123
-0.068305433 -0.41232395 -0.67800146 188 142 121
-0.065820642 -0.41247645 -0.6775474 198 138 125
-0.067276686 -0.41279685 -0.67781383 191 140 123
-0.066560417 -0.41245905 -0.67768258 194 140 123
-0.067915067 -0.41425288 -0.67793202 186 139 123
-0.062643915 -0.4144468 -0.67715496 191 137 126
-0.060670454 -0.41273877 -0.67684418 204 137 128
-0.061188955 -0.41393816 -0.67695558 196 137 126
-0.060955323 -0.41313866 -0.67689514 201 138 127
-0.061575927 -0.41366422 -0.67699242 197 137 126
-0.063394994 -0.41468862 -0.6772579 188 137 125
-0.063139185 -0.41390532 -0.67719692 194 137 126
-0.062483184 -0.41271985 -0.67707074 202 138 127
-0.061771784 -0.41218567 -0.67696142 206 138 128
-0.062576443 -0.4140754 -0.67713213 193 137 126
-0.058150508 -0.41476759 -0.67684901 192 137 125
-0.056844655 -0.41297433 -0.67675948 197 140 126
-0.057975192 -0.41508296 -0.67685181 192 137 126
-0.057175081 -0.41503084 -0.67682487 193 136 127
-0.057554185 -0.41307729 -0.67678493 196 140 124
-0.057040486 -0.41426927 -0.67680025 195 137 126
-0.060381483 -0.41267833 -0.67682344 204 138 128
-0.060486563 -0.41566789 -0.67694408 188 137 123
-0.058680177 -0.41400343 -0.67684376 194 138 124
-0.059218373 -0.41444108 -0.6768713 192 138 124
-0.057996321 -0.41303787 -0.6767925 197 140 125
-0.05396045 -0.41353181 -0.67662472 201 137 127
-0.053748231 -0.41338977 -0.67661065 201 138 127
-0.053662315 -0.41552657 -0.67670435 177 142 122
-0.054545142 -0.41573682 -0.67674571 181 140 124
-0.053819563 -0.41347444 -0.67661703 200 138 127
-0.054550942 -0.41314584 -0.67664313 202 138 127
-0.055127311 -0.41353855 -0.67668515 200 137 127
-0.053873967 -0.41257611 -0.67659086 204 138 127
-0.054784462 -0.41381738 -0.67667377 200 136 128
-0.055229925 -0.41238752 -0.67666012 202 139 126
-0.056023691 -0.41366979 -0.67673773 198 138 127
-0.051104974 -0.41549999 -0.67662203 182 141 121
-0.049530491 -0.41600537 -0.67660224 195 137 124
-0.048828587 -0.41418755 -0.67649406 208 135 125
-0.050288629 -0.41595945 -0.67662138 187 139 122
-0.051564842 -0.41528279 -0.67662442 179 143 120
-0.052114062 -0.41269073 -0.67652285 202 139 126
-0.052408699 -0.41550258 -0.67665952 172 145 120
-0.052330282 -0.41502571 -0.67663544 177 144 121
-0.052434146 -0.41467604 -0.67662287 180 143 122
-0.050971635 -0.41378868 -0.67653662 193 141 123
-0.047247149 -0.41496393 -0.67650551 190 138 124
-0.045569755 -0.41334623 -0.67640275 182 142 122
-0.045283549 -0.4132098 -0.67639095 179 143 122
-0.048723429 -0.41534233 -0.67654878 202 135 125
-0.048733074 -0.41365013 -0.67646658 209 136 125
-0.047149118 -0.41259557 -0.67639297 199 140 124
-0.04845003 -0.41256937 -0.67641002 211 137 125
-0.048334964 -0.41383499 -0.67646998 205 136 125
-0.044791915 -0.41337991 -0.67639041 173 143 122
-0.044482734 -0.41275832 -0.67636585 176 143 122
-0.044559769 -0.41279104 -0.67636693 176 143 122
-0.068458594 -0.41724193 -0.67809129 170 139 122
-0.068910018 -0.41663101 -0.67814648 175 138 122
-0.069784485 -0.41660535 -0.67831868 167 140 123
-0.067355327 -0.41777799 -0.67795026 165 139 122
-0.066455781 -0.4162733 -0.67774689 178 138 123
-0.060619339 -0.41938236 -0.67710793 179 133 127
-0.061164778 -0.41800043 -0.6771279 179 137 125
-0.061790943 -0.41742706 -0.67719263 175 140 123
-0.062837102 -0.4186894 -0.67739224 166 144 124
-0.063131899 -0.41935486 -0.67746127 163 145 124
-0.063107952 -0.41756123 -0.67736572 171 142 123
-0.06410262 -0.41735137 -0.67747581 171 141 123
-0.063525692 -0.41679269 -0.67737174 175 139 123
-0.063997425 -0.41731134 -0.67746049 171 141 123
-0.064001277 -0.41841877 -0.67752647 164 145 123
-0.058148548 -0.41794273 -0.67696244 184 134 128
-0.057495601 -0.41725165 -0.67691296 187 134 128
-0.058571868 -0.41813716 -0.67698354 184 133 129
-0.059557512 -0.4161481 -0.67693281 187 136 124
-0.058566932 -0.41633925 -0.67690897 189 135 126
-0.056818549 -0.41617087 -0.67684603 192 134 129
-0.060261775 -0.41887572 -0.67706776 181 133 127
-0.059172418 -0.41845202 -0.67701542 184 133 128
-0.052871868 -0.41807589 -0.67677581 157 147 119
-0.052938271 -0.41688144 -0.67673391 162 146 119
-0.052778751 -0.41755298 -0.67675233 159 147 119
-0.053149559 -0.41840976 -0.67679983 155 146 120
-0.0531528 -0.41848186 -0.67680264 155 146 120
-0.053194325 -0.417676 -0.67677426 159 146 120
-0.056545589 -0.41649151 -0.67685097 188 135 128
-0.055265203 -0.41641116 -0.67680138 180 138 125
-0.056600045 -0.41613594 -0.67683768 192 134 129
-0.056191035 -0.41721994 -0.67686957 178 138 125
-0.053894293 -0.41702148 -0.67677814 164 144 119
-0.048912622 -0.41647714 -0.67661148 197 135 125
-0.048896246 -0.41904807 -0.67676806 177 139 127
-0.050423458 -0.41872829 -0.67675561 171 141 124
-0.048967738 -0.41859517 -0.67674083 180 139 127
-0.049809612 -0.41810918 -0.67671508 179 139 125
-0.051069405 -0.41753817 -0.67670304 174 142 122
-0.051262956 -0.41658637 -0.67667288 176 142 121
-0.052272703 -0.41830456 -0.67676556 160 146 121
-0.052087087 -0.4172655 -0.67672151 166 145 120
-0.052245233 -0.41830924 -0.67676497 160 146 121
-0.048129857 -0.41689754 -0.6766215 186 136 125
-0.048527312 -0.41778705 -0.67668438 184 137 126
-0.047998875 -0.4161419 -0.67657262 191 135 124
-0.048484806 -0.41669932 -0.67661715 191 136 125
-0.04770162 -0.41690227 -0.67661244 181 137 124
-0.048328292 -0.41773984 -0.67667717 182 137 126
-0.052579597 -0.42005464 -0.67684805 148 148 121
0 0 0 1 0 0 0 1 0 0 0 1 0 0 0 0 0 982 1 0 0
