ply
format ascii 1.0
comment PCL generated
element vertex 773
property float x
property float y
property float z
property uchar red
property uchar green
property uchar blue
element camera 1
property float view_px
property float view_py
property float view_pz
property float x_axisx
property float x_axisy
property float x_axisz
property float y_axisx
property float y_axisy
property float y_axisz
property float z_axisx
property float z_axisy
property float z_axisz
property float focal
property float scalex
property float scaley
property float centerx
property float centery
property int viewportx
property int viewporty
property float k1
property float k2
end_header
0.13380194 -0.512766 -0.71139312 25 133 122
0.13559337 -0.51357979 -0.71220541 23 133 123
0.12963866 -0.51729494 -0.71144134 36 133 120
0.13106887 -0.51664215 -0.71165943 33 132 121
0.13319103 -0.51473367 -0.71179664 27 134 121
0.13413844 -0.51414508 -0.71193826 25 133 123
0.13381299 -0.51406264 -0.71180028 25 133 122
0.13343883 -0.51703256 -0.71252233 29 132 123
0.13324945 -0.51724762 -0.71252358 29 132 122
0.1324686 -0.51632798 -0.71203381 30 132 122
0.13300793 -0.51598096 -0.71210301 29 132 122
0.1330632 -0.51618719 -0.71217638 29 132 122
0.13347635 -0.51604491 -0.71226323 27 132 122
0.13550265 -0.51734829 -0.71320653 26 133 124
0.13830172 -0.51576608 -0.71351272 25 134 122
0.13772301 -0.51619667 -0.71347713 25 134 122
0.13626574 -0.51741278 -0.71342266 26 133 123
0.13803332 -0.51517272 -0.71328402 25 134 123
0.13803674 -0.51674515 -0.7137056 26 134 122
0.13738409 -0.51423997 -0.71286064 24 133 123
0.13574645 -0.51648372 -0.71303803 25 134 123
0.13549665 -0.51396662 -0.71228176 24 133 123
0.13604562 -0.51373833 -0.71236587 24 133 123
0.13618718 -0.5146603 -0.7126562 24 133 123
0.1364063 -0.51371104 -0.71245468 24 133 123
0.14135812 -0.51747358 -0.71499252 24 133 120
0.139725 -0.51499164 -0.71376866 23 135 121
0.14040178 -0.51480162 -0.7139535 23 135 122
0.14013076 -0.51548547 -0.71404207 23 136 121
0.13995028 -0.51452017 -0.71372098 23 135 122
0.13958922 -0.51439393 -0.71356148 23 135 122
0.12583101 -0.51981103 -0.7113744 38 132 122
0.12694 -0.51968598 -0.71155977 40 132 122
0.12598154 -0.51977229 -0.71139139 38 132 122
0.12560268 -0.52020681 -0.71147507 38 132 122
0.12585299 -0.51967216 -0.71132928 38 132 122
0.12769723 -0.51963985 -0.71175462 39 132 121
0.1270164 -0.51955146 -0.71152985 40 132 122
0.12904815 -0.51863152 -0.71176159 37 134 121
0.12946232 -0.5177744 -0.71155643 36 133 121
0.12917602 -0.51796305 -0.71154517 37 131 121
0.13028428 -0.51877499 -0.71212053 37 134 121
0.13008454 -0.51881081 -0.71209031 37 134 121
0.12760136 -0.52125823 -0.71230292 42 134 121
0.1299859 -0.51928121 -0.71220839 38 133 121
0.12867656 -0.52144468 -0.71257704 42 133 121
0.13321784 -0.52114528 -0.71354848 35 134 121
0.13448982 -0.51945436 -0.71346056 28 132 123
0.13359305 -0.52121586 -0.71366042 33 134 121
0.13166499 -0.52108616 -0.71314144 41 133 121
0.1339011 -0.51936841 -0.71329093 31 132 123
0.13345438 -0.52087671 -0.71354318 33 134 121
0.13121486 -0.51797044 -0.71210968 35 133 121
0.1337741 -0.51797861 -0.71289164 29 134 123
0.1325848 -0.51900333 -0.71283054 35 132 122
0.1319622 -0.51823127 -0.71241403 33 133 121
0.13145998 -0.51809162 -0.71221995 35 133 121
0.13614228 -0.52086669 -0.71425509 27 134 121
0.13584469 -0.52138758 -0.71431071 29 132 122
0.13690136 -0.52058125 -0.71439868 27 134 121
0.13593227 -0.52089989 -0.71420282 29 132 122
0.13596593 -0.52075505 -0.71417302 29 132 122
0.13484375 -0.51919997 -0.71348906 27 133 123
0.13607465 -0.51777834 -0.71346557 26 134 123
0.13492648 -0.52071857 -0.71387845 29 132 122
0.13484912 -0.51860464 -0.7133463 27 133 123
0.13494119 -0.51825857 -0.71328646 27 133 123
0.13543715 -0.51952583 -0.71372271 27 134 123
0.14020312 -0.51850295 -0.71487492 26 133 121
0.13937399 -0.52051502 -0.71513981 26 133 121
0.13964656 -0.51796865 -0.71453685 25 136 120
0.1410736 -0.51768929 -0.71495235 24 135 119
0.1393085 -0.52002102 -0.71498197 27 133 121
0.12073899 -0.52291983 -0.71174747 32 134 122
0.12061197 -0.52226472 -0.71145749 32 134 122
0.12145722 -0.52507389 -0.71271431 33 135 124
0.12053351 -0.52513701 -0.71264172 31 135 123
0.12246197 -0.52462566 -0.71263844 36 136 124
0.1221737 -0.52298063 -0.71193659 34 134 122
0.12261442 -0.52505577 -0.71283019 37 136 124
0.12593649 -0.5236246 -0.7128284 42 134 122
0.12466177 -0.52387869 -0.71272784 40 134 123
0.12669255 -0.52496958 -0.71340638 45 134 121
0.12414146 -0.52450973 -0.71286952 40 135 124
0.1261773 -0.52455884 -0.71318781 44 133 122
0.12484689 -0.52476239 -0.71306145 42 135 123
0.12656842 -0.52184945 -0.71230555 41 135 122
0.12487496 -0.52350825 -0.71262765 40 134 123
0.12460902 -0.52286816 -0.71231085 38 136 122
0.12486201 -0.52275425 -0.71231729 40 133 123
0.12322304 -0.52251881 -0.711878 37 134 123
0.12306455 -0.52272165 -0.71192765 37 134 123
0.13018221 -0.52314132 -0.71350515 44 133 120
0.12841722 -0.52424723 -0.71350479 46 133 121
0.12837966 -0.52488834 -0.71374077 45 133 121
0.12858631 -0.52483755 -0.71377093 45 133 121
0.1304042 -0.52378285 -0.71380347 43 133 120
0.13014005 -0.52402711 -0.71383351 43 133 120
0.12824135 -0.52261907 -0.71289325 43 134 121
0.12696771 -0.52446991 -0.71327478 45 134 121
0.13003376 -0.52211255 -0.71308339 45 133 121
0.12744513 -0.52232122 -0.71262759 43 134 121
0.12865205 -0.52366662 -0.71334004 46 133 121
0.12813057 -0.52189839 -0.71262085 43 134 121
0.1316569 -0.52472866 -0.71446931 40 131 122
0.13244104 -0.52416003 -0.71444023 37 131 122
0.13298455 -0.52472752 -0.71474248 36 132 122
0.13195948 -0.52447522 -0.71444672 39 131 122
0.1327047 -0.52480441 -0.71471053 37 131 122
0.13215625 -0.5224492 -0.71373087 38 133 121
0.1328958 -0.52238053 -0.71389163 36 133 122
0.13141452 -0.5217191 -0.71326429 42 133 121
0.13122924 -0.5225184 -0.71352285 42 133 121
0.13259944 -0.5224247 -0.71383357 37 133 121
0.13205914 -0.52263242 -0.71377635 40 131 122
0.13625437 -0.52353251 -0.7151438 29 134 122
0.13753423 -0.52176446 -0.71492505 27 132 121
0.13543026 -0.52318454 -0.71478623 30 132 122
0.13586755 -0.52274501 -0.71476668 29 134 122
0.13629025 -0.52349818 -0.71514273 29 134 122
0.12170173 -0.52686834 -0.7135278 35 135 123
0.1223312 -0.52709597 -0.71369159 35 135 123
0.12220881 -0.52758414 -0.71389425 34 135 122
0.12191345 -0.52702808 -0.71361959 35 135 123
0.12221778 -0.52578056 -0.71309841 37 136 124
0.12198921 -0.52568692 -0.71303236 36 136 123
0.120529 -0.52772868 -0.71378738 32 136 122
0.12635912 -0.5268653 -0.7141428 42 133 121
0.12587175 -0.52908152 -0.71502787 37 134 122
0.12539189 -0.5284434 -0.714688 38 134 122
0.12587649 -0.52814829 -0.71462774 40 133 122
0.1258405 -0.527915 -0.71452254 40 132 122
0.12691054 -0.52588868 -0.71379894 46 133 121
0.12457732 -0.52546495 -0.71327204 42 135 123
0.12375776 -0.52623647 -0.71349049 39 134 123
0.12316805 -0.52679205 -0.7136479 37 135 124
0.12359338 -0.5261845 -0.71344328 39 135 123
0.12356232 -0.52810389 -0.71428388 35 135 122
0.12412912 -0.52666533 -0.71373427 38 136 122
0.12759861 -0.52763277 -0.7146982 42 132 122
0.13045186 -0.52712476 -0.71511757 40 131 122
0.12696673 -0.52822495 -0.71481133 42 132 122
0.12834632 -0.52778029 -0.71492863 41 131 122
0.12842564 -0.52760434 -0.71487081 41 131 122
0.12824778 -0.52792346 -0.71496809 41 131 122
0.12956677 -0.52645779 -0.71463799 42 132 122
0.12973261 -0.52592349 -0.71446705 42 132 121
0.12846269 -0.52587527 -0.71414375 44 132 121
0.13269815 -0.52622259 -0.71523178 36 133 122
0.1330318 -0.52584428 -0.71515101 36 133 122
0.12077636 -0.53079015 -0.71517652 32 136 120
0.1233372 -0.52961451 -0.71491939 33 134 121
0.14552937 -0.53625703 -0.72315586 39 134 119
0.14247964 -0.53834897 -0.72305018 38 135 115
0.14275001 -0.54026645 -0.72411191 36 138 109
0.14263745 -0.53969771 -0.72378546 36 137 111
0.14409931 -0.53936976 -0.72414356 38 137 113
0.14410454 -0.53906626 -0.72399229 38 137 113
0.14284484 -0.54073423 -0.72438163 36 139 108
0.14303733 -0.54011613 -0.72413886 36 138 110
0.14477405 -0.53925717 -0.72430921 38 136 114
0.14528067 -0.540681 -0.72512245 37 135 116
0.14385919 -0.53988445 -0.72431028 37 138 111
0.14612527 -0.53869265 -0.72447401 39 134 118
0.14512099 -0.54082429 -0.72513813 37 135 116
0.14185934 -0.54125094 -0.7242986 43 137 109
0.1432116 -0.5411877 -0.7247048 36 138 109
0.13382417 -0.49713501 -0.70743603 24 133 122
0.13294627 -0.49880177 -0.70748538 26 133 121
0.13239703 -0.49953821 -0.7074489 28 131 121
0.13435668 -0.49990913 -0.70829743 24 131 122
0.13313125 -0.5012266 -0.70812631 27 133 121
0.13339466 -0.5017485 -0.70833665 26 133 121
0.13469383 -0.50119233 -0.70869923 23 133 122
0.13341773 -0.50061536 -0.70810091 26 133 121
0.13059001 -0.50294185 -0.70759916 33 131 121
0.12890242 -0.50500834 -0.70757365 34 132 121
0.1286189 -0.50498492 -0.70747703 34 132 121
0.1303948 -0.50386792 -0.70776737 33 131 121
0.13116257 -0.50578225 -0.70850259 31 132 121
0.13260271 -0.50567591 -0.7089932 29 131 122
0.1334957 -0.50377792 -0.70886546 26 133 121
0.13422199 -0.50454354 -0.709306 26 133 122
0.13455638 -0.50485194 -0.70949847 25 133 121
0.13266665 -0.50244337 -0.70823252 28 132 121
0.13161179 -0.50403666 -0.70823759 30 132 121
0.13330823 -0.50283331 -0.70856792 26 133 121
0.13270713 -0.50199217 -0.70813513 28 132 121
0.13352531 -0.50296867 -0.70868224 26 133 122
0.13195512 -0.50430751 -0.70843261 29 131 122
0.13529956 -0.50477362 -0.70976025 24 133 122
0.12667319 -0.50754339 -0.7076388 36 133 121
0.12424932 -0.50972551 -0.70779687 39 133 121
0.1239798 -0.50946963 -0.70765644 39 133 121
0.12634207 -0.50726295 -0.70747709 37 133 121
0.12422977 -0.50938946 -0.70768607 39 133 121
0.12708719 -0.50791854 -0.70786148 38 131 122
0.12788965 -0.50750881 -0.70798641 36 132 122
0.12948963 -0.50623381 -0.70809287 34 131 122
0.12992664 -0.50618327 -0.70821673 33 133 121
0.12833445 -0.50679159 -0.70790052 36 130 122
0.12974013 -0.5093686 -0.70899856 33 132 121
0.12848011 -0.50938123 -0.70868915 36 132 122
0.1293024 -0.5096392 -0.7089566 34 131 122
0.13039578 -0.50679213 -0.70852685 33 131 121
0.13017265 -0.50914693 -0.70905125 32 132 122
0.13080405 -0.50708759 -0.70870084 31 132 121
0.13279824 -0.50850368 -0.70976245 27 132 121
0.13439696 -0.50912434 -0.71050364 25 133 122
0.13210584 -0.50895786 -0.70962459 28 132 122
0.13462812 -0.50859952 -0.71045506 25 133 122
0.13414536 -0.50754207 -0.71001077 26 133 122
0.13301283 -0.50703108 -0.70947182 28 132 122
0.13231543 -0.50730181 -0.70928878 29 131 122
0.13121009 -0.50664383 -0.70873094 31 132 121
0.13398589 -0.50589877 -0.70954144 27 133 121
0.13315795 -0.50718695 -0.70956218 27 133 120
0.13561428 -0.50975579 -0.71108419 23 133 122
0.13511837 -0.50619614 -0.71001232 25 133 122
0.1351831 -0.50882518 -0.71069986 24 133 122
0.13537413 -0.50856531 -0.71069682 24 133 123
0.13516626 -0.50793493 -0.71046865 24 133 122
0.13540354 -0.50899231 -0.71081471 24 133 123
0.11894225 -0.51257306 -0.70762885 32 134 124
0.11901699 -0.51248485 -0.70761091 32 134 124
0.11968549 -0.51262897 -0.70778382 33 134 123
0.12210303 -0.51007998 -0.70745164 38 135 121
0.1210513 -0.51147777 -0.70768917 36 135 122
0.12290685 -0.51186633 -0.70812118 38 135 122
0.12252431 -0.51162165 -0.70798761 38 135 122
0.12273429 -0.51165354 -0.70803165 38 135 122
0.12179203 -0.51241726 -0.70809263 37 135 122
0.12231813 -0.5130375 -0.70835745 38 134 122
0.12262384 -0.51253885 -0.70826596 38 135 122
0.12656517 -0.51187372 -0.70891511 38 131 122
0.12694849 -0.51271176 -0.70923436 37 134 121
0.12554844 -0.51341802 -0.70913017 38 134 122
0.12667079 -0.51295912 -0.70924395 38 133 121
0.1255044 -0.51140827 -0.70855415 40 131 122
0.1256233 -0.51228261 -0.70882636 38 132 122
0.12479525 -0.51085508 -0.70824081 39 132 122
0.12505513 -0.50979668 -0.70799589 40 132 122
0.12549932 -0.51115227 -0.70848066 40 131 122
0.12425976 -0.51152933 -0.70831543 39 132 122
0.12541436 -0.51120198 -0.70847619 40 131 122
0.12620179 -0.51027095 -0.7083838 39 131 122
0.12843886 -0.51300216 -0.70972216 33 133 121
0.12811041 -0.51285416 -0.70957768 35 133 121
0.12819758 -0.51288342 -0.70961273 35 133 121
0.12988448 -0.51366025 -0.71035999 30 132 121
0.13057068 -0.51168972 -0.70991755 29 132 121
0.13060032 -0.51334399 -0.71046627 28 132 120
0.12947512 -0.51026779 -0.70917213 33 132 121
0.12940301 -0.51081163 -0.70930749 33 132 121
0.12701641 -0.51096481 -0.70875865 38 131 122
0.12752739 -0.51292497 -0.70943791 36 133 121
0.12753169 -0.51220173 -0.70923513 36 133 121
0.13195413 -0.51336402 -0.71093553 27 133 120
0.13331956 -0.51240933 -0.71111298 26 133 122
0.13422547 -0.51106268 -0.71101201 25 133 122
0.13417941 -0.51135492 -0.71108574 25 133 122
0.13375027 -0.51129723 -0.71091968 25 133 122
0.13291557 -0.5108251 -0.71047091 27 133 121
0.13175784 -0.51257616 -0.71061957 27 132 121
0.13318597 -0.51034391 -0.71041256 27 133 121
0.13195373 -0.51058251 -0.71004039 28 132 122
0.13228442 -0.51011628 -0.71000898 27 132 121
0.13426435 -0.51015711 -0.71074545 26 133 123
0.13482706 -0.51122564 -0.71126932 25 133 123
0.11906028 -0.51492643 -0.70845681 32 133 124
0.12260881 -0.51576066 -0.70935392 36 133 123
0.12283727 -0.51530135 -0.70922381 37 134 123
0.12230082 -0.51554614 -0.70922267 36 133 123
0.12297201 -0.51609784 -0.70953971 37 134 123
0.12302932 -0.51547551 -0.70932055 38 133 123
0.12167672 -0.51629442 -0.70939183 34 134 122
0.12208736 -0.51398355 -0.70861363 37 134 123
0.12236546 -0.51408601 -0.70869738 37 134 123
0.12036463 -0.51455873 -0.70853621 34 133 123
0.12075653 -0.51492822 -0.70873624 34 133 123
0.12035798 -0.51618844 -0.70912921 33 133 123
0.12628675 -0.51693648 -0.71045756 38 133 121
0.12439353 -0.51635277 -0.70993298 36 133 122
0.1268912 -0.51432258 -0.70970809 37 133 121
0.12629655 -0.51670778 -0.71038437 38 133 121
0.12503007 -0.51681948 -0.71019793 37 133 122
0.12470748 -0.51485121 -0.70945346 37 133 122
0.12363273 -0.51617813 -0.70970887 36 134 122
0.12568016 -0.51377761 -0.70926911 38 133 122
0.12332388 -0.51706862 -0.70996958 36 133 123
0.12329982 -0.51708555 -0.70997059 36 133 123
0.12850592 -0.51694775 -0.71101773 36 132 121
0.1300277 -0.51622909 -0.71121472 33 133 120
0.13020356 -0.51612508 -0.71123093 33 133 120
0.12917706 -0.51649946 -0.71106386 34 133 120
0.13046873 -0.51432335 -0.71074384 29 134 120
0.12788884 -0.51588774 -0.71050537 36 132 121
0.12725504 -0.51530939 -0.71013051 37 133 121
0.12825249 -0.51414263 -0.71004039 33 133 121
0.12785082 -0.51557928 -0.71039325 36 132 121
0.12826315 -0.51517379 -0.71038115 35 132 121
0.13099484 -0.51420838 -0.71086341 28 132 120
0.12288126 -0.51868534 -0.71045184 36 133 123
0.12066172 -0.52043319 -0.71077991 34 133 122
0.12292365 -0.51800084 -0.71022534 35 134 122
0.12025367 -0.52124768 -0.711007 33 133 122
0.12000842 -0.52133703 -0.71100813 33 134 122
0.12078613 -0.52089822 -0.71095192 34 133 122
0.12057247 -0.5184927 -0.71003276 33 133 123
0.12383002 -0.5190441 -0.71073908 36 134 122
0.12372593 -0.51881027 -0.71064055 36 134 122
0.12307448 -0.51966673 -0.71080852 36 134 122
0.12362304 -0.51913571 -0.71073139 36 134 122
0.12356722 -0.52077109 -0.71127403 37 134 122
0.12461864 -0.51781291 -0.71045983 37 131 123
0.12494954 -0.51823092 -0.71067119 37 133 122
0.12735614 -0.51775151 -0.71095926 38 133 121
0.15808937 -0.50024897 -0.720294 28 131 121
0.15690289 -0.50046569 -0.71956372 28 131 122
0.15821147 -0.50008833 -0.72035843 28 131 122
0.16082858 -0.49869367 -0.72187173 28 131 120
0.15491585 -0.50866508 -0.71927851 29 131 122
0.15499395 -0.50862777 -0.71931762 29 131 122
0.15499361 -0.50819343 -0.71927935 29 131 122
0.15418041 -0.51213652 -0.71939886 27 131 121
0.15494594 -0.51051033 -0.71952391 28 132 122
0.15443347 -0.51132858 -0.71939111 28 131 122
0.15474266 -0.51175344 -0.71963471 28 131 122
0.15631698 -0.51261175 -0.72062922 26 133 122
0.15611432 -0.51274341 -0.72054356 26 133 122
0.15593666 -0.51239812 -0.720393 27 133 121
0.15788281 -0.51118767 -0.72122449 27 132 122
0.15535422 -0.51333767 -0.72023869 26 131 122
0.15384306 -0.51512903 -0.71976203 25 133 121
0.15414989 -0.51381797 -0.71968096 26 133 121
0.15287502 -0.51530296 -0.71930164 25 131 122
0.15256226 -0.51602322 -0.71929175 24 131 122
0.15220781 -0.51691192 -0.71929526 23 133 121
0.15278912 -0.51615447 -0.71943218 24 131 122
0.15279977 -0.5148415 -0.71916986 25 131 122
0.15531625 -0.51480669 -0.7204895 24 131 121
0.1557695 -0.5138157 -0.72054064 24 131 121
0.1545663 -0.51652998 -0.7204209 24 131 121
0.14639501 -0.52492815 -0.71916914 30 133 120
0.1477046 -0.52357566 -0.71921706 26 134 119
0.14939855 -0.52236283 -0.71947336 23 131 120
0.1497784 -0.52382594 -0.72013938 26 131 119
0.14984539 -0.52409726 -0.72026128 27 130 121
0.14892492 -0.52319449 -0.71957648 25 131 120
0.1498975 -0.52467257 -0.72048372 28 129 120
0.14937429 -0.5253768 -0.72052109 29 132 120
0.15382688 -0.52310973 -0.72173828 24 131 119
0.15369299 -0.52260303 -0.72154033 23 131 120
0.1527649 -0.52411503 -0.72157335 26 131 119
0.15365423 -0.52356738 -0.72179383 25 131 119
0.15112187 -0.52443439 -0.7209565 27 130 121
0.15092215 -0.52415258 -0.72075975 27 130 121
0.15120256 -0.52436924 -0.72097331 27 130 121
0.15492859 -0.52346712 -0.72234237 25 131 118
0.15430519 -0.5224998 -0.72176921 23 130 120
0.14461902 -0.52705276 -0.71921927 31 133 120
0.14542153 -0.52899796 -0.72033888 33 134 119
0.14550015 -0.52915919 -0.72043687 33 134 119
0.1462905 -0.52723461 -0.72001624 32 134 119
0.14617258 -0.52649832 -0.71967316 31 135 119
0.14643814 -0.52753347 -0.72019881 33 134 118
0.14602838 -0.5274114 -0.71997273 32 134 119
0.14886907 -0.52781677 -0.7212857 34 131 119
0.14821279 -0.5290426 -0.72150922 36 133 118
0.14794858 -0.52821684 -0.72107595 33 133 118
0.1489058 -0.52744144 -0.72115159 33 132 118
0.1466032 -0.52778149 -0.72036475 33 134 118
0.14652495 -0.52724141 -0.72011924 32 134 119
0.14757571 -0.52546692 -0.71983612 30 132 119
0.14784899 -0.52689809 -0.72051311 32 133 120
0.14885014 -0.52601069 -0.72056198 30 131 119
0.14753181 -0.52616704 -0.72009623 30 133 119
0.15179484 -0.52614313 -0.72182107 31 131 118
0.13852385 -0.53283256 -0.7192964 33 133 118
0.14105193 -0.53060246 -0.71923751 32 134 120
0.14103815 -0.53072637 -0.71928459 33 133 120
0.14152464 -0.53048015 -0.71935385 33 134 120
0.1423272 -0.52998036 -0.71943104 33 133 121
0.14250202 -0.53182429 -0.72030014 33 134 119
0.14213599 -0.5302676 -0.71948606 33 133 121
0.1416284 -0.53145504 -0.71981764 33 134 119
0.14240353 -0.5305205 -0.71969491 33 134 120
0.14497013 -0.53302789 -0.72164059 36 134 118
0.14493762 -0.5324291 -0.72143626 36 134 118
0.14545897 -0.53111917 -0.72117925 36 134 119
0.14435914 -0.53219479 -0.72117484 35 134 119
0.14346518 -0.53243744 -0.72096664 33 134 118
0.14613467 -0.53167856 -0.72157723 37 134 118
0.14446363 -0.53059953 -0.72061086 33 134 119
0.14400174 -0.53135657 -0.72074109 33 133 119
0.14415446 -0.53005981 -0.72024125 33 134 120
0.14309308 -0.52951455 -0.71954316 33 133 121
0.14468105 -0.53063917 -0.72072238 34 134 119
0.14286703 -0.52990043 -0.71961367 33 133 121
0.14729474 -0.53048211 -0.7216264 36 133 118
0.14909847 -0.52960467 -0.72206426 36 133 117
0.14695147 -0.52993023 -0.72131026 35 134 118
0.14660782 -0.52951539 -0.72103828 35 134 119
0.14700811 -0.53241491 -0.72213757 38 134 117
0.14752916 -0.5314064 -0.72201955 37 135 117
0.13749023 -0.53426468 -0.7196216 36 134 117
0.14162014 -0.53613269 -0.72177988 37 134 118
0.14251415 -0.53468597 -0.7214973 35 133 119
0.14023146 -0.53586125 -0.72122002 39 133 118
0.14232114 -0.53439033 -0.72131723 35 133 119
0.14095342 -0.53630394 -0.72163069 38 133 118
0.14223024 -0.53609252 -0.72196263 36 133 119
0.1416688 -0.53396255 -0.72092879 35 134 119
0.13877805 -0.53490132 -0.72027725 37 134 117
0.14043279 -0.53434181 -0.72064054 35 134 118
0.13969453 -0.53420371 -0.72030824 35 134 118
0.13880099 -0.5360058 -0.72077036 39 134 117
0.14011659 -0.53325969 -0.72004932 33 134 118
0.14331804 -0.53695226 -0.72267079 38 133 119
0.14619152 -0.53514075 -0.72292095 39 134 119
0.14383045 -0.53624433 -0.72255278 38 133 119
0.14409558 -0.53507102 -0.7221576 36 134 118
0.14470108 -0.53430957 -0.72204989 38 134 118
0.14304268 -0.53571421 -0.72207493 36 133 119
0.14525235 -0.53325856 -0.72180992 37 135 117
0.14507629 -0.53431553 -0.72217256 38 134 118
0.1427206 -0.53596437 -0.72207081 36 133 119
0.11341225 -0.54002255 -0.71924293 35 132 121
0.14365274 -0.53720468 -0.72289681 38 134 118
0.12252754 -0.49773297 -0.7038005 31 133 123
0.12321246 -0.49712315 -0.70380294 31 132 123
0.12413891 -0.49600086 -0.70370108 31 132 123
0.12524948 -0.49551544 -0.70384687 31 132 123
0.12547041 -0.49546683 -0.70389134 31 132 123
0.12686875 -0.49782115 -0.70497888 33 133 122
0.12521236 -0.49613169 -0.70402735 32 132 124
0.12493759 -0.49753937 -0.70438468 33 132 123
0.12572299 -0.49616253 -0.70417124 32 132 124
0.12393839 -0.49802992 -0.70427144 33 132 123
0.12967096 -0.496279 -0.70554137 29 134 120
0.12863943 -0.4977358 -0.70557576 33 133 121
0.12696609 -0.49483794 -0.70409566 32 131 124
0.12755495 -0.49627328 -0.70475972 32 132 123
0.12726817 -0.49587911 -0.7045294 32 132 123
0.13324061 -0.49653357 -0.70705616 25 134 121
0.13132501 -0.49670684 -0.70628083 29 134 120
0.1194555 -0.50124729 -0.70416325 33 133 124
0.12142061 -0.49900717 -0.7039243 32 133 123
0.12088466 -0.49926335 -0.70386428 32 133 123
0.12001759 -0.50061369 -0.70409691 33 133 124
0.12206884 -0.49993417 -0.70437235 33 133 123
0.12161426 -0.50191885 -0.70484257 33 133 123
0.12067699 -0.50143999 -0.70450503 33 133 123
0.12162387 -0.50148237 -0.70471984 33 133 123
0.1209666 -0.50092059 -0.70441854 33 133 124
0.12187757 -0.49945024 -0.704193 33 133 123
0.12330642 -0.50190294 -0.70521468 33 133 122
0.12488906 -0.50188988 -0.70564032 33 133 122
0.12690362 -0.50003916 -0.70564264 33 132 122
0.12407687 -0.50173521 -0.70537442 33 133 122
0.1254514 -0.50102603 -0.70553881 33 133 122
0.12398408 -0.50081134 -0.70507914 33 134 122
0.12312946 -0.49826631 -0.70412642 33 133 123
0.125862 -0.49841636 -0.70488852 33 134 122
0.1233225 -0.50039595 -0.70478624 33 134 122
0.12522419 -0.49924263 -0.70495695 33 134 122
0.1236823 -0.49853027 -0.70434743 33 133 123
0.12900634 -0.5003773 -0.70645612 33 133 121
0.12937284 -0.50054264 -0.70661294 33 133 121
0.12980877 -0.50108778 -0.70688885 33 133 121
0.13048594 -0.49852791 -0.70644379 33 133 119
0.13004813 -0.5004319 -0.70679539 33 133 120
0.12939109 -0.50046706 -0.70659924 33 133 120
0.12804359 -0.49876013 -0.70566148 33 133 121
0.13051373 -0.49817562 -0.70635402 33 133 119
0.12769137 -0.50071204 -0.70611238 33 133 121
0.12789005 -0.50067598 -0.70617133 33 133 121
0.12772813 -0.4984203 -0.70545107 33 133 121
0.12796207 -0.49891096 -0.70567727 33 133 121
0.13278164 -0.49818236 -0.70725787 27 133 120
0.13299328 -0.49820441 -0.70735008 26 133 121
0.13235843 -0.4983193 -0.70711994 27 134 120
0.11859304 -0.50454992 -0.7050631 32 134 124
0.11971708 -0.50563669 -0.70562547 33 134 123
0.12179613 -0.50446206 -0.70569807 34 134 122
0.12234737 -0.50476915 -0.70591736 35 134 122
0.12240857 -0.50502181 -0.70601231 36 133 122
0.11936328 -0.50571483 -0.7055738 33 134 123
0.11970226 -0.50566947 -0.70563287 33 134 123
0.12169087 -0.50250834 -0.70504636 33 133 123
0.12187708 -0.5022639 -0.70500797 33 133 123
0.1213284 -0.50270844 -0.70503277 33 133 123
0.12194385 -0.5024004 -0.70506597 33 133 123
0.11960687 -0.50449753 -0.70523638 33 134 123
0.11994752 -0.50360405 -0.70502353 33 134 123
0.12348105 -0.5055334 -0.70642596 36 133 122
0.12639546 -0.50385076 -0.70657605 34 133 122
0.12576365 -0.50535977 -0.70682353 36 132 122
0.12459585 -0.50446302 -0.70637894 36 132 122
0.12599172 -0.50435364 -0.70662129 35 133 121
0.12439008 -0.50542921 -0.70657569 36 133 122
0.12553661 -0.50259334 -0.70604169 35 132 123
0.12330277 -0.50468856 -0.70611292 36 133 122
0.12672624 -0.50198001 -0.70616621 33 132 122
0.12635797 -0.50243324 -0.70621282 34 132 122
0.12435404 -0.50268221 -0.70574951 33 133 122
0.12514667 -0.50222647 -0.70581728 33 133 122
0.12884842 -0.50431532 -0.70738572 34 132 121
0.12905163 -0.50388902 -0.70734674 34 132 121
0.13038801 -0.50218076 -0.70734721 33 131 121
0.1288207 -0.50279981 -0.70700943 34 131 122
0.12861499 -0.50222796 -0.70680523 34 131 122
0.12759788 -0.50387198 -0.70689005 34 132 121
0.12721799 -0.50427932 -0.70687109 35 132 121
0.12790619 -0.5030635 -0.70678842 34 132 122
0.12086007 -0.50936013 -0.70698583 36 134 123
0.12189535 -0.50784034 -0.70675838 36 134 122
0.12262885 -0.50802183 -0.70695823 38 134 122
0.12289843 -0.5081358 -0.7070452 38 134 121
0.12293814 -0.50885481 -0.70725948 38 135 121
0.11937149 -0.50772947 -0.70618898 33 134 124
0.11996441 -0.50866687 -0.70660204 33 134 124
0.11976219 -0.5068503 -0.7060076 33 135 123
0.12016512 -0.50627142 -0.70591986 34 134 122
0.1200111 -0.50814676 -0.70645463 33 134 124
0.11933538 -0.50776428 -0.70619172 33 134 124
0.12473071 -0.50648719 -0.70693356 37 133 121
0.12510039 -0.50651169 -0.70701337 37 133 121
0.12314565 -0.50695014 -0.70675439 38 133 122
0.1240876 -0.506989 -0.70695096 37 133 121
0.1242911 -0.50734186 -0.70709223 38 133 121
0.12573859 -0.50604838 -0.70699894 36 133 121
0.11879434 -0.51079792 -0.70703256 32 134 124
0.11967617 -0.51137859 -0.70738083 33 134 124
0.11939938 -0.51132828 -0.70730913 33 134 124
0.11995786 -0.51084608 -0.70726657 34 134 123
0.15555081 -0.5011133 -0.718786 28 131 122
0.15435408 -0.50118905 -0.71807867 28 131 123
0.15447423 -0.5006355 -0.71810925 27 131 122
0.15421106 -0.50240374 -0.71811754 29 131 122
0.15068312 -0.50568414 -0.71655947 27 133 120
0.15372436 -0.50573832 -0.71833348 27 132 121
0.15324272 -0.50532895 -0.7179926 27 132 121
0.15254097 -0.50499618 -0.71753538 27 132 121
0.15379249 -0.50491577 -0.71825004 27 132 121
0.1529991 -0.50293034 -0.71750319 28 131 122
0.15262894 -0.50289649 -0.71729666 27 131 121
0.15143356 -0.50479537 -0.71686304 27 133 120
0.15494812 -0.5047965 -0.71890891 29 131 121
0.15446487 -0.50391757 -0.71849471 28 131 121
0.15473861 -0.50416988 -0.71869707 29 131 121
0.15505654 -0.50409043 -0.71887636 29 131 121
0.14971332 -0.50847638 -0.71639514 27 133 121
0.15029897 -0.50867945 -0.71670336 27 134 121
0.15011187 -0.5072971 -0.7164498 27 133 120
0.15427279 -0.50623024 -0.71870494 27 132 121
0.15376489 -0.50697577 -0.71849185 27 132 121
0.15417401 -0.50726223 -0.71874571 27 132 121
0.15150632 -0.50942278 -0.71746379 28 132 121
0.15117082 -0.50936943 -0.71727252 29 132 122
0.15356199 -0.50880897 -0.71854895 28 131 122
0.15381582 -0.50610667 -0.7184338 27 132 121
0.15203308 -0.50715959 -0.71752256 28 131 121
0.15225714 -0.5063327 -0.7175554 27 132 121
0.15238827 -0.50767559 -0.71778959 28 132 121
0.15052046 -0.50803137 -0.71674693 27 132 121
0.15113419 -0.50803071 -0.71710324 27 132 121
0.15476336 -0.50793201 -0.71913201 28 131 121
0.15434505 -0.50851309 -0.71895677 27 131 121
0.15022014 -0.51322192 -0.71746826 27 133 126
0.15009363 -0.51357526 -0.71748734 26 133 126
0.15016206 -0.51138377 -0.71709657 27 134 122
0.15301861 -0.51169884 -0.71869242 27 133 123
0.15416633 -0.5106135 -0.71912265 27 133 121
0.1536452 -0.51087952 -0.71888804 27 131 122
0.1536184 -0.5123778 -0.71913278 26 133 122
0.15309855 -0.51106 -0.71862477 27 133 122
0.15061148 -0.51286274 -0.71758753 27 133 124
0.1521758 -0.51067984 -0.71804142 27 132 122
0.15160906 -0.51163626 -0.71790844 27 133 123
0.15087359 -0.51186901 -0.71754414 27 134 123
0.15067208 -0.51279378 -0.71760809 27 133 124
0.15103486 -0.51039904 -0.71735412 27 134 121
0.15031832 -0.51733041 -0.71846241 23 131 122
0.15032525 -0.51401341 -0.71767378 26 133 125
0.15014958 -0.51402193 -0.71760452 26 133 126
0.14889945 -0.51466751 -0.71726346 24 133 124
0.15159571 -0.51598722 -0.7188167 24 131 122
0.15086724 -0.51753157 -0.71876895 23 133 121
0.15284799 -0.51381391 -0.71897566 25 133 122
0.15088148 -0.51598614 -0.71843523 24 131 123
0.15154923 -0.51588047 -0.71876955 24 131 122
0.15088034 -0.51395172 -0.71794921 26 133 125
0.15158789 -0.51467049 -0.71850163 25 133 123
0.14230242 -0.51959521 -0.71588981 26 133 120
0.14130121 -0.5200991 -0.71568531 26 133 120
0.14114666 -0.52006662 -0.71562386 26 133 121
0.14037593 -0.52033991 -0.71543533 26 133 121
0.14168826 -0.52000046 -0.71579045 26 133 120
0.14151873 -0.5197081 -0.7156536 25 134 120
0.14236005 -0.5203737 -0.7161203 26 134 120
0.14305559 -0.52118844 -0.71659976 27 135 120
0.14573263 -0.52066761 -0.71748281 25 133 121
0.14480671 -0.52064192 -0.71712381 25 133 121
0.14454158 -0.5211333 -0.71715081 26 134 121
0.14410964 -0.52116197 -0.71699393 26 134 121
0.14442052 -0.5205909 -0.71696365 25 134 121
0.14350961 -0.51989555 -0.71642816 25 133 121
0.14264958 -0.51983488 -0.71607387 25 134 120
0.14768194 -0.52058089 -0.71823174 25 133 121
0.14734368 -0.51996076 -0.71793371 24 133 121
0.13659516 -0.52392823 -0.71537364 30 132 122
0.13852534 -0.5250861 -0.71632433 29 134 121
0.13657767 -0.52371085 -0.71529591 30 132 122
0.13831776 -0.52208114 -0.71525979 27 132 121
0.13757478 -0.52279258 -0.71528047 28 132 121
0.13663702 -0.52439517 -0.71554184 30 132 122
0.13871536 -0.52217901 -0.71541089 27 132 121
0.14247537 -0.52149504 -0.71646374 27 135 120
0.13942592 -0.52335256 -0.71604514 27 135 121
0.13977559 -0.52171201 -0.71561652 27 134 120
0.13988681 -0.52295345 -0.71606892 27 135 121
0.13877492 -0.52507222 -0.71639758 29 134 121
0.14144336 -0.52461016 -0.71711123 28 134 120
0.14248779 -0.52495122 -0.71755236 28 135 119
0.14174476 -0.523368 -0.71681857 27 135 120
0.13889499 -0.52533811 -0.71652377 29 134 120
0.14216688 -0.52286953 -0.71679747 27 135 120
0.14165866 -0.52354264 -0.71684569 27 135 120
0.14430313 -0.52511334 -0.71835101 29 134 120
0.14641097 -0.52370512 -0.71874231 27 134 120
0.14594713 -0.5244689 -0.71881819 29 132 120
0.14628708 -0.52471954 -0.71905166 29 132 120
0.14452827 -0.52360559 -0.7179088 27 135 120
0.14309533 -0.52522093 -0.71787763 29 134 120
0.14599378 -0.52156001 -0.71781826 26 134 120
0.14476997 -0.52213234 -0.71753204 26 136 120
0.14288762 -0.52440685 -0.71752846 28 134 120
0.14358194 -0.52275872 -0.71727628 27 135 120
0.14435662 -0.52324909 -0.71772462 27 135 120
0.14433807 -0.52171439 -0.71723676 26 136 120
0.14651908 -0.52252883 -0.71836782 27 134 120
0.14711021 -0.5223068 -0.71852678 26 133 120
0.14807457 -0.52255994 -0.71900564 25 131 120
0.14710325 -0.52396739 -0.71911633 27 134 120
0.1307506 -0.52737576 -0.71528846 38 131 122
0.12929139 -0.52804989 -0.71525526 39 132 122
0.12962347 -0.52901137 -0.71571136 37 131 122
0.13358772 -0.52597445 -0.7153179 34 132 122
0.13160162 -0.5278815 -0.71566981 36 133 122
0.13098323 -0.52749622 -0.71538556 38 131 122
0.13436608 -0.52556109 -0.71531361 34 131 122
0.13282111 -0.52752376 -0.7157771 34 131 122
0.13303068 -0.52805877 -0.71602422 34 132 122
0.13359535 -0.52670854 -0.71561134 34 131 122
0.13357982 -0.528512 -0.71630514 34 132 122
0.13447964 -0.5274722 -0.71607685 34 132 122
0.13133805 -0.52889442 -0.71602082 34 133 122
0.1386181 -0.52911866 -0.71778607 31 135 121
0.13626075 -0.52893674 -0.7171014 33 134 121
0.13781898 -0.52812546 -0.71722126 32 133 121
0.13813004 -0.52671444 -0.71679914 30 135 121
0.13670219 -0.52736533 -0.71665621 33 133 122
0.13675205 -0.52635616 -0.71628106 31 133 121
0.13724212 -0.52671236 -0.71656179 31 133 121
0.13698317 -0.52691996 -0.71656632 31 133 121
0.13733706 -0.52641523 -0.71647471 31 133 121
0.1373785 -0.52573305 -0.7162233 31 133 121
0.13721311 -0.52551311 -0.71609002 31 133 121
0.14007138 -0.52814335 -0.71790671 31 133 120
0.14178368 -0.526766 -0.71797216 30 133 120
0.14242227 -0.52891415 -0.7190218 31 135 120
0.14174737 -0.52628356 -0.71777374 29 135 119
0.14217006 -0.52799755 -0.7185809 31 133 120
0.13935299 -0.52884448 -0.71792668 31 135 120
0.13912295 -0.52797794 -0.71753722 31 133 121
0.13987097 -0.52721995 -0.71750593 31 133 121
0.13880965 -0.527152 -0.71714193 30 135 121
0.13997187 -0.52675235 -0.71737123 30 135 120
0.13983186 -0.52557898 -0.71690732 29 134 120
0.14037469 -0.52657896 -0.71743816 30 133 120
0.14303014 -0.5274244 -0.7186923 30 135 119
0.14443292 -0.52686375 -0.71906614 30 135 119
0.14303263 -0.52737844 -0.71867561 30 135 119
0.14287956 -0.52736545 -0.71860629 30 135 119
0.14289623 -0.52785456 -0.71880168 31 135 120
0.11871975 -0.53196454 -0.71548963 33 133 121
0.12097131 -0.5323543 -0.71589547 36 133 121
0.12233472 -0.53199762 -0.71588564 34 135 120
0.12296341 -0.53058612 -0.71531701 33 135 121
0.12123954 -0.53227621 -0.71588999 36 133 121
0.12022055 -0.53108418 -0.71524888 33 133 121
0.11961113 -0.53219485 -0.71567792 35 133 121
0.12046281 -0.5321036 -0.71572679 35 134 121
0.12557365 -0.53050047 -0.71562672 38 131 122
0.12524085 -0.53025776 -0.71547228 37 133 122
0.12389894 -0.53102303 -0.71563828 36 133 121
0.12382052 -0.5316084 -0.71589255 36 134 120
0.1267692 -0.53234243 -0.7164923 36 133 120
0.12646246 -0.53182793 -0.71625543 36 134 120
0.12403592 -0.53280002 -0.7164343 36 133 120
0.12583549 -0.5331136 -0.71672279 35 134 119
0.12423792 -0.53288931 -0.71648872 36 133 120
0.12463032 -0.53278369 -0.71648079 36 133 120
0.13045083 -0.53256673 -0.71726239 32 133 119
0.12954253 -0.53077412 -0.71640682 35 133 121
0.1300388 -0.53276336 -0.71726155 33 133 119
0.13084042 -0.53063518 -0.71659374 33 132 121
0.12859209 -0.53181034 -0.71662825 35 133 121
0.1285065 -0.53152549 -0.71650028 35 133 121
0.12778951 -0.53041238 -0.71589762 37 133 121
0.12771852 -0.52930278 -0.71543109 39 132 122
0.1270054 -0.52996314 -0.71555114 39 132 122
0.12783639 -0.52974766 -0.71563679 38 131 122
0.12847003 -0.52993083 -0.71584356 37 131 122
0.13232052 -0.53304565 -0.71781933 32 133 119
0.13449101 -0.52983564 -0.71699381 33 133 122
0.13125776 -0.5330413 -0.71759975 32 133 119
0.13296922 -0.53119636 -0.71722043 33 133 121
0.13374923 -0.53307712 -0.71812475 33 134 119
0.13390599 -0.53250027 -0.71792853 33 133 120
0.1315137 -0.53212726 -0.71729565 32 133 119
0.13334322 -0.52987933 -0.71678615 33 134 121
0.13423923 -0.52949888 -0.71681291 33 133 122
0.13151285 -0.53219295 -0.71732062 32 133 119
0.13320825 -0.52935952 -0.71656072 35 132 123
0.13099992 -0.53180408 -0.71707267 33 134 119
0.13726991 -0.53284729 -0.71894783 33 134 118
0.13729101 -0.5323745 -0.71875387 33 134 119
0.13668253 -0.53174466 -0.71831912 33 134 120
0.13844368 -0.53090465 -0.71846867 32 134 120
0.13766092 -0.53037238 -0.71802509 32 134 120
0.13596275 -0.5321939 -0.71830207 33 134 120
0.13689718 -0.53031415 -0.71779996 33 133 121
0.13508622 -0.53019226 -0.71727556 33 133 122
0.13592976 -0.5305981 -0.71765798 33 133 121
0.13531084 -0.53216714 -0.71811628 33 134 120
0.13682899 -0.52972072 -0.71754712 33 134 121
0.13770573 -0.53003752 -0.71790302 32 134 120
0.13900907 -0.53156585 -0.71892613 32 134 119
0.13919476 -0.53138745 -0.71891654 32 134 119
0.1395572 -0.52988321 -0.71841651 32 134 120
0.14197227 -0.52957338 -0.71912903 32 134 120
0.14021365 -0.52998662 -0.71868831 32 134 120
0.11876549 -0.53400922 -0.71647817 36 132 122
0.11870223 -0.53566176 -0.71734655 36 133 122
0.11806212 -0.53675514 -0.71788383 35 133 121
0.11824488 -0.53629839 -0.71765405 35 133 121
0.118177 -0.53355587 -0.71618712 35 132 123
0.11847604 -0.53380251 -0.71634936 35 132 122
0.12126312 -0.53516412 -0.71733743 37 133 121
0.12194451 -0.53457284 -0.71709615 37 134 120
0.12262015 -0.53455997 -0.71712846 38 132 119
0.1195634 -0.53338665 -0.71621984 36 133 122
0.11930731 -0.53325105 -0.71611983 36 133 122
0.12252884 -0.53354186 -0.71663129 36 133 120
0.11953814 -0.53541195 -0.71728623 37 133 121
0.1192914 -0.53604096 -0.71759081 37 133 121
0.12088355 -0.53447759 -0.71694243 36 133 121
0.12491775 -0.53543431 -0.7177372 41 132 120
0.12423638 -0.53356355 -0.71678704 36 133 119
0.12538554 -0.53456497 -0.71736401 38 133 119
0.12492888 -0.53403693 -0.71707314 37 134 119
0.1282485 -0.53491479 -0.71793807 38 134 118
0.12951955 -0.53405011 -0.71774936 34 134 118
0.12732741 -0.53385186 -0.71724641 36 133 119
0.12709118 -0.53388977 -0.71722126 37 134 119
0.12984316 -0.53392911 -0.71774995 34 134 118
0.13325179 -0.53428453 -0.71856773 36 134 118
0.13432895 -0.53403878 -0.7186783 36 134 119
0.13382135 -0.53331095 -0.71823907 33 134 119
0.13522966 -0.53326178 -0.71854323 33 133 120
0.11597516 -0.53885227 -0.7187866 35 133 121
0 0 0 1 0 0 0 1 0 0 0 1 0 0 0 0 0 773 1 0 0
