ply
format ascii 1.0
comment PCL generated
element vertex 1033
property float x
property float y
property float z
property uchar red
property uchar green
property uchar blue
element camera 1
property float view_px
property float view_py
property float view_pz
property float x_axisx
property float x_axisy
property float x_axisz
property float y_axisx
property float y_axisy
property float y_axisz
property float z_axisx
property float z_axisy
property float z_axisz
property float focal
property float scalex
property float scaley
property float centerx
property float centery
property int viewportx
property int viewporty
property float k1
property float k2
end_header
-0.20235859 -0.14663155 -0.80862665 88 139 118
-0.20217563 -0.15035629 -0.80777395 154 128 123
-0.20209014 -0.14969639 -0.80727917 139 132 121
-0.20192347 -0.15000947 -0.80644184 143 134 120
-0.2019119 -0.15018567 -0.80639595 145 133 120
-0.20229471 -0.14952658 -0.80832404 141 129 122
-0.20235839 -0.15197328 -0.80828053 158 128 121
-0.20243649 -0.15123779 -0.808801 160 126 123
-0.20235068 -0.15332305 -0.80780613 157 133 119
-0.20251819 -0.15236941 -0.80871576 161 129 121
-0.20194441 -0.15091766 -0.80656791 150 132 120
-0.20189999 -0.15233129 -0.80630445 149 133 119
-0.20196907 -0.15191621 -0.80667168 150 132 120
-0.20197648 -0.15221357 -0.80670291 150 132 120
-0.20193389 -0.15111452 -0.80650872 150 132 120
-0.20273151 -0.15553491 -0.80816489 163 135 117
-0.20342922 -0.15783112 -0.80848837 174 134 119
-0.20318846 -0.15623312 -0.80884421 170 135 118
-0.20316726 -0.15652134 -0.80862659 170 134 118
-0.20261769 -0.15556997 -0.8078745 162 135 117
-0.20362276 -0.15816534 -0.80875373 176 134 120
-0.20254314 -0.1552548 -0.80780846 160 135 117
-0.20261084 -0.15493257 -0.80816865 162 135 117
-0.20367326 -0.15958428 -0.80851138 176 135 119
-0.20340912 -0.16093373 -0.8074078 175 136 119
-0.20361933 -0.16005383 -0.80824357 176 135 119
-0.20388821 -0.16082111 -0.80889887 174 135 118
-0.20371974 -0.16190404 -0.80814636 174 136 118
-0.20351477 -0.16036361 -0.80785578 175 135 119
-0.20229264 -0.15845001 -0.8054781 156 136 117
-0.2025824 -0.15961921 -0.80570471 164 136 118
-0.20281568 -0.16027333 -0.80600035 170 136 118
-0.20246947 -0.15971401 -0.80539936 162 136 117
-0.20253558 -0.15916012 -0.80577463 162 136 118
-0.20290442 -0.15983364 -0.80638433 170 135 118
-0.20461528 -0.16569452 -0.80781871 210 132 122
-0.20348665 -0.16541284 -0.80568361 192 133 119
-0.20403038 -0.16557196 -0.80668944 201 133 120
-0.20379919 -0.16522563 -0.80645007 195 133 119
-0.20358129 -0.16546939 -0.80583918 194 133 119
-0.20392951 -0.16551301 -0.80652273 199 133 120
-0.2034211 -0.16364694 -0.80639458 182 135 118
-0.20370677 -0.1628349 -0.8076877 177 135 118
-0.20309827 -0.16289623 -0.80579334 178 136 118
-0.20330831 -0.16222399 -0.8067829 174 136 118
-0.20350389 -0.16458224 -0.80616581 187 135 118
-0.20327136 -0.16414584 -0.80567902 185 134 119
-0.20538877 -0.16745548 -0.80892539 206 130 122
-0.20521359 -0.16729231 -0.80860764 211 130 122
-0.20519041 -0.16735895 -0.80855596 210 130 122
-0.20471443 -0.16726175 -0.80786377 212 131 122
-0.20458759 -0.1671996 -0.80769515 212 132 122
-0.20458351 -0.16724242 -0.80768192 212 132 122
-0.20457092 -0.16980661 -0.80721968 198 131 121
-0.20360748 -0.16662982 -0.80563545 200 133 120
-0.20315833 -0.16917837 -0.8051334 199 134 121
-0.20468934 -0.16672131 -0.80790442 214 132 122
-0.2036691 -0.1668727 -0.80580509 201 132 120
-0.20452082 -0.16632389 -0.80748576 211 132 122
-0.20564948 -0.17238678 -0.80871016 176 128 125
-0.20530805 -0.1716834 -0.80814099 187 130 123
-0.20534131 -0.17243445 -0.8081072 187 130 124
-0.20554146 -0.17321128 -0.80840284 178 129 125
-0.20479952 -0.17266567 -0.80714476 192 131 123
-0.2046054 -0.17191674 -0.80696154 186 130 122
-0.20493758 -0.17039192 -0.80764949 194 129 122
-0.20492148 -0.17357711 -0.80720109 196 131 124
-0.20408243 -0.17137179 -0.80628926 183 131 121
-0.20421262 -0.17202619 -0.80637437 175 131 121
-0.20363098 -0.17233935 -0.8055042 173 132 121
-0.20347776 -0.17271067 -0.80523127 169 133 121
-0.20362048 -0.17295831 -0.80539566 166 132 121
-0.20591961 -0.1759505 -0.80875516 161 132 120
-0.20547256 -0.17509943 -0.80799156 182 132 122
-0.2055385 -0.17418811 -0.80826038 179 130 125
-0.20606762 -0.17745902 -0.808797 152 134 116
-0.20574658 -0.17652583 -0.80823278 163 133 118
-0.20538957 -0.17505756 -0.80779839 183 132 122
-0.20389862 -0.17420726 -0.80549741 161 133 121
-0.20457907 -0.17498629 -0.80612397 164 133 120
-0.20480007 -0.17534217 -0.80627912 163 133 119
-0.20466667 -0.17434537 -0.80655289 179 133 122
-0.20620836 -0.18088888 -0.80853605 108 132 119
-0.20634499 -0.18106139 -0.80892313 110 132 119
-0.20607585 -0.17821741 -0.80861181 140 135 115
-0.20514405 -0.18134554 -0.80532229 142 133 115
-0.20517819 -0.18088828 -0.80548859 136 134 115
-0.20543674 -0.18052803 -0.80630332 125 134 115
-0.20582692 -0.1813629 -0.80733538 120 132 118
-0.20584351 -0.18208188 -0.80740309 120 133 118
-0.20624383 -0.18384762 -0.80881947 102 133 117
-0.20624249 -0.18376182 -0.80880409 102 132 118
-0.20576186 -0.18244646 -0.80721062 122 133 117
-0.20546284 -0.18226525 -0.80630386 133 133 116
-0.20584632 -0.18370636 -0.80762744 115 133 116
-0.20584498 -0.18508419 -0.80813491 106 133 114
-0.20541419 -0.18374389 -0.80673641 123 133 114
-0.20599492 -0.18537158 -0.80852669 102 133 114
-0.20616442 -0.18818353 -0.80853349 144 135 115
-0.2063172 -0.18789721 -0.80881631 138 135 116
-0.2063923 -0.1883973 -0.80886859 145 136 116
-0.20515357 -0.18778235 -0.80675203 121 133 111
-0.20564364 -0.18732677 -0.80778694 131 133 112
-0.20585217 -0.18853654 -0.80788475 141 134 114
-0.20529334 -0.18745613 -0.80709505 123 133 111
-0.20574512 -0.18918987 -0.80752355 141 135 114
-0.20441137 -0.18922295 -0.80563784 120 135 112
-0.20457609 -0.18938465 -0.80575168 122 135 113
-0.20618127 -0.19053231 -0.80868769 162 136 117
-0.2052245 -0.18950844 -0.806499 129 135 113
-0.20605643 -0.19163533 -0.80886757 169 136 119
-0.20527168 -0.18998915 -0.80676883 135 135 114
-0.20521085 -0.19088343 -0.80697054 142 134 115
-0.20554517 -0.19330521 -0.80849618 171 135 119
-0.20418604 -0.19265297 -0.80592144 144 128 115
-0.20445143 -0.19271943 -0.80635822 147 129 116
-0.2048182 -0.19197108 -0.80667049 146 131 115
-0.2040588 -0.19330899 -0.80595058 148 127 116
-0.20404886 -0.19121331 -0.8054046 131 130 114
-0.20373118 -0.19158842 -0.80514318 131 129 114
-0.20433214 -0.19023384 -0.80557907 126 133 113
-0.2052287 -0.19557434 -0.80863327 170 133 117
-0.20544384 -0.19367099 -0.80841511 171 134 119
-0.20478031 -0.19563703 -0.80779707 157 133 114
-0.20504901 -0.19401872 -0.80773425 162 132 117
-0.20473838 -0.19652723 -0.80803096 157 134 113
-0.20467357 -0.1968867 -0.80803525 156 133 113
-0.20343332 -0.19630319 -0.80552852 111 141 106
-0.20309269 -0.19689822 -0.80510575 100 143 104
-0.2042007 -0.19347085 -0.80620956 149 129 116
-0.20369901 -0.1951482 -0.80573261 126 135 110
-0.20328698 -0.19541663 -0.80513901 118 135 108
-0.20287898 -0.19848531 -0.80527568 110 141 107
-0.20678876 -0.15007631 -0.81779724 135 131 123
-0.20674476 -0.14890341 -0.82069629 148 130 117
-0.20663938 -0.14846224 -0.82059425 137 131 117
-0.20667495 -0.14951059 -0.81795275 124 132 123
-0.20670606 -0.14982469 -0.81743592 124 132 123
-0.20634899 -0.14843231 -0.81682533 80 138 124
-0.20688909 -0.15285917 -0.81956452 133 132 115
-0.20643419 -0.1536783 -0.81747645 126 137 115
-0.20674275 -0.15247242 -0.81897974 145 133 116
-0.20702589 -0.15108544 -0.8203966 168 129 117
-0.20680436 -0.15200832 -0.81930977 153 132 116
-0.20658205 -0.15276735 -0.81806326 138 135 116
-0.20675771 -0.15178616 -0.81877893 151 132 117
-0.20678328 -0.15176919 -0.81909382 155 132 117
-0.20678784 -0.15136936 -0.81848603 148 132 119
-0.20658278 -0.15202093 -0.81682402 123 136 120
-0.20671408 -0.15157987 -0.81784832 139 133 119
-0.20737548 -0.15594459 -0.82048678 111 133 115
-0.20674215 -0.15789661 -0.81761694 116 136 116
-0.20737424 -0.15801528 -0.81951147 127 136 116
-0.20706908 -0.15682663 -0.81912768 113 134 116
-0.2068705 -0.15797882 -0.81797433 119 136 116
-0.20655575 -0.15431271 -0.8179186 109 137 115
-0.20656639 -0.15504748 -0.81777996 110 137 115
-0.2066755 -0.1543501 -0.81842995 106 136 114
-0.20673516 -0.15584312 -0.81831378 107 135 115
-0.20697577 -0.15474263 -0.81963736 100 133 115
-0.20643438 -0.15663345 -0.81680661 115 138 116
-0.20841116 -0.16208598 -0.81840301 184 138 118
-0.207959 -0.16132732 -0.81802928 167 138 117
-0.20789015 -0.15894905 -0.82021785 144 137 116
-0.20798364 -0.16022126 -0.81919056 157 137 117
-0.20782582 -0.16079427 -0.81822175 160 138 116
-0.20805497 -0.15992774 -0.81966281 155 137 117
-0.20765869 -0.15903813 -0.81947243 141 137 116
-0.20738132 -0.15999855 -0.81766385 146 138 116
-0.20740771 -0.16094823 -0.81680304 156 138 116
-0.20774458 -0.16027045 -0.81851482 154 138 116
-0.20725155 -0.15841383 -0.81883562 129 137 116
-0.20754765 -0.16115649 -0.81702822 159 138 116
-0.20943557 -0.16306525 -0.82031685 201 136 121
-0.20961609 -0.16372855 -0.82026458 206 135 122
-0.2092417 -0.16396807 -0.81967044 206 135 121
-0.20935072 -0.16411033 -0.81977534 207 135 122
-0.20931512 -0.16303298 -0.82000542 201 136 121
-0.20867935 -0.16304755 -0.8191905 194 137 120
-0.20887788 -0.16581738 -0.81872892 214 133 122
-0.20857976 -0.16335766 -0.81898618 193 137 120
-0.20872931 -0.16526552 -0.81868428 207 134 121
-0.20805778 -0.16358392 -0.81787455 184 138 118
-0.20820312 -0.16330254 -0.8181659 186 137 119
-0.20845765 -0.16214316 -0.81850439 185 138 119
-0.20810822 -0.16223416 -0.81765324 179 138 117
-0.21025199 -0.1674207 -0.82052529 214 133 122
-0.20965962 -0.16732635 -0.8197524 213 133 122
-0.20981127 -0.16699892 -0.81993276 215 132 122
-0.20957096 -0.16777198 -0.8196584 212 133 122
-0.20947149 -0.16953391 -0.81905919 208 134 122
-0.20915413 -0.16810158 -0.81870788 212 134 122
-0.20988855 -0.16970928 -0.81989849 207 134 122
-0.20926388 -0.16713037 -0.81915373 213 133 122
-0.20733762 -0.1666123 -0.81699133 177 136 118
-0.20746253 -0.16674769 -0.81685871 184 136 118
-0.20674397 -0.16799459 -0.8181051 132 135 121
-0.20786946 -0.1688747 -0.81682903 196 136 120
-0.20604046 -0.16880919 -0.81922841 80 133 123
-0.20599294 -0.16858295 -0.81923717 78 133 122
-0.20721292 -0.16930668 -0.81779903 154 135 122
-0.20736016 -0.16988786 -0.81769496 161 135 123
-0.20863432 -0.16626538 -0.81883687 202 132 122
-0.20644775 -0.16750157 -0.81839716 115 134 120
-0.2072898 -0.16740038 -0.81926417 139 132 123
-0.20658198 -0.16789757 -0.81930232 106 132 123
-0.20600599 -0.16862613 -0.81993639 67 131 124
-0.2085975 -0.16710855 -0.81883639 197 133 123
-0.20791309 -0.16923288 -0.81883931 159 134 123
-0.20649718 -0.16859043 -0.81995976 88 131 125
-0.2075797 -0.16755974 -0.81943977 147 132 123
-0.20827931 -0.16885282 -0.81867039 178 134 123
-0.20851527 -0.16970873 -0.81831801 188 135 122
-0.2098527 -0.17094451 -0.81994742 208 135 122
-0.21016349 -0.17046231 -0.82052094 207 134 122
-0.2100735 -0.17057562 -0.82035047 207 134 122
-0.21016312 -0.17051847 -0.82052958 207 134 122
-0.20924534 -0.17296305 -0.81887281 211 136 122
-0.20920418 -0.17366838 -0.8188467 211 136 122
-0.20920016 -0.17192136 -0.81866056 211 136 122
-0.20535071 -0.17177838 -0.81909364 61 130 123
-0.2059563 -0.17138942 -0.8190465 78 131 124
-0.2056428 -0.17357033 -0.81789666 105 131 120
-0.20542309 -0.17212431 -0.81885523 70 130 123
-0.20530355 -0.17276484 -0.8185302 78 131 121
-0.20611523 -0.17131411 -0.81894642 85 132 124
-0.20708843 -0.17279251 -0.81763822 147 133 122
-0.20796098 -0.17016862 -0.81691217 196 136 121
-0.20598191 -0.1711721 -0.8191188 76 131 124
-0.20710388 -0.17117329 -0.81780332 147 133 123
-0.20720506 -0.17017348 -0.81779784 153 134 123
-0.20798267 -0.17319758 -0.81982285 161 134 124
-0.20717818 -0.17237692 -0.82054102 119 133 125
-0.20692109 -0.17197543 -0.82056147 105 132 125
-0.20780654 -0.17285712 -0.81973869 152 133 124
-0.20864166 -0.17236441 -0.81847203 193 135 123
-0.20810369 -0.17248718 -0.81892145 166 134 124
-0.20831402 -0.17100188 -0.81860042 176 135 123
-0.20730956 -0.17084925 -0.81940085 125 132 125
-0.20852265 -0.17278054 -0.81861079 188 135 123
-0.20415325 -0.17307295 -0.81752616 75 130 121
-0.2045421 -0.17255715 -0.81822091 65 131 121
-0.20382439 -0.17254493 -0.81688493 95 131 121
-0.20434435 -0.17161709 -0.81828439 61 131 122
-0.20383577 -0.1718415 -0.81702346 96 131 122
-0.20401196 -0.17060953 -0.81764263 86 132 123
-0.20387906 -0.17286208 -0.81696659 90 131 121
-0.20963556 -0.17570753 -0.81977415 146 132 125
-0.20930934 -0.17435041 -0.81908131 193 135 123
-0.2095886 -0.17557327 -0.81967086 150 133 124
-0.20967826 -0.17571799 -0.81987458 145 133 124
-0.20923844 -0.1748471 -0.81890887 174 134 124
-0.20903933 -0.17427613 -0.81850159 191 135 123
-0.2091898 -0.17658116 -0.81911016 78 131 126
-0.20745528 -0.17650844 -0.81956059 27 130 127
-0.20849219 -0.17494421 -0.81877482 143 133 124
-0.20793857 -0.17573971 -0.819188 86 132 125
-0.20711055 -0.17632587 -0.81970906 28 129 127
-0.20846248 -0.17711744 -0.819139 16 128 127
-0.20786719 -0.17709924 -0.81944305 5 128 128
-0.20785961 -0.17417553 -0.81992406 156 133 124
-0.20697331 -0.17466941 -0.82044739 108 132 125
-0.20632687 -0.17521736 -0.82021141 71 131 126
-0.20733397 -0.17703792 -0.81950289 1 128 128
-0.20755455 -0.17720556 -0.81907457 1 128 127
-0.20663044 -0.17683436 -0.81928438 2 128 126
-0.20816234 -0.17766957 -0.81788427 5 128 126
-0.20554286 -0.17429462 -0.81837296 87 131 121
-0.20546009 -0.17453143 -0.81870693 74 131 122
-0.20536977 -0.17549939 -0.81995839 27 128 126
-0.20688944 -0.17428766 -0.81774634 138 133 122
-0.20675009 -0.17625302 -0.81821591 45 130 123
-0.20601033 -0.17539319 -0.8193171 59 130 125
-0.20544322 -0.17604297 -0.82015979 7 128 127
-0.20733503 -0.17563345 -0.81734669 96 131 121
-0.20606385 -0.17549866 -0.81923741 55 130 125
-0.2067498 -0.17568144 -0.81821698 73 131 123
-0.20900027 -0.17872722 -0.81839389 32 132 123
-0.20927291 -0.17980213 -0.81816733 85 136 118
-0.20939305 -0.17867926 -0.81904167 55 132 122
-0.20969382 -0.17915235 -0.8192302 90 133 121
-0.21003136 -0.179113 -0.8199625 90 131 123
-0.210022 -0.17806113 -0.82042956 72 130 125
-0.21000545 -0.18106005 -0.81900388 120 136 119
-0.2105135 -0.18078481 -0.82023698 113 132 125
-0.20965028 -0.17971513 -0.81885427 102 135 119
-0.20933431 -0.18493316 -0.8183046 66 140 102
-0.20939918 -0.1854336 -0.8185969 54 140 100
-0.20919846 -0.18330675 -0.81753618 104 141 106
-0.20920251 -0.18437539 -0.81783497 75 141 103
-0.20941988 -0.18287881 -0.81790709 122 139 110
-0.21013264 -0.1825878 -0.81935591 121 136 116
-0.21016146 -0.18397041 -0.81992155 111 136 113
-0.21007393 -0.1837649 -0.81965637 113 137 113
-0.20968455 -0.18195306 -0.81814992 128 138 114
-0.21013847 -0.18498316 -0.82023996 103 136 110
-0.20960793 -0.18763235 -0.81960535 107 136 110
-0.2099189 -0.18620436 -0.82003403 93 137 107
-0.2096058 -0.18649295 -0.8193419 83 138 105
-0.20959929 -0.18596691 -0.81920689 72 138 104
-0.20924613 -0.18852976 -0.81835032 137 135 114
-0.20902503 -0.18654403 -0.81769031 67 139 103
-0.20945439 -0.18920133 -0.81907731 156 134 117
-0.20914118 -0.18717346 -0.81807339 89 137 107
-0.20965911 -0.19156075 -0.81990731 177 134 120
-0.20985596 -0.19135736 -0.82064253 172 134 119
-0.20965646 -0.19126859 -0.81988633 175 134 120
-0.20976454 -0.19295382 -0.82035774 185 133 122
-0.20976773 -0.19150876 -0.82031524 174 133 120
-0.20903577 -0.19295695 -0.81814653 177 131 120
-0.20940571 -0.19235951 -0.81914735 181 133 121
-0.20902909 -0.19208001 -0.8179487 176 132 120
-0.20911446 -0.19284199 -0.81836188 178 131 120
-0.20888621 -0.192408 -0.8176735 174 131 120
-0.20865496 -0.19302976 -0.81731486 168 130 119
-0.20872141 -0.19056967 -0.81687564 172 133 120
-0.20918752 -0.19401604 -0.82031041 184 132 121
-0.20907751 -0.19350375 -0.81871194 179 131 120
-0.20763133 -0.19442788 -0.81687224 167 128 119
-0.20728274 -0.19498724 -0.81689376 170 127 120
-0.2067467 -0.19586451 -0.81834561 173 126 122
-0.20664488 -0.19578038 -0.8179031 171 125 122
-0.2081406 -0.19403663 -0.81772798 167 129 119
-0.20613302 -0.19638647 -0.81798393 172 124 123
-0.208095 -0.19417877 -0.81793278 168 130 119
-0.2064213 -0.19608611 -0.81803018 172 125 122
-0.20767081 -0.19457509 -0.81776226 168 129 120
-0.20658164 -0.19547115 -0.81980067 148 130 123
-0.20596394 -0.19545197 -0.82005244 126 132 123
-0.20669003 -0.19597679 -0.81891328 172 126 123
-0.20581187 -0.19644605 -0.81843764 161 125 123
-0.2056125 -0.19571701 -0.81973243 126 130 123
-0.20896104 -0.19356471 -0.8185308 178 131 120
-0.20592983 -0.19737282 -0.81690449 189 123 122
-0.19745147 -0.1531212 -0.79751855 145 136 118
-0.19779254 -0.15351488 -0.79781222 160 137 116
-0.19754413 -0.15196811 -0.79800826 119 137 117
-0.19797653 -0.15389331 -0.79797792 165 137 116
-0.19722304 -0.15213007 -0.79749304 120 137 119
-0.19806412 -0.15529543 -0.79775649 159 137 115
-0.2013965 -0.16140598 -0.80084401 197 135 120
-0.20061623 -0.16160117 -0.79947132 195 133 120
-0.20083956 -0.15994205 -0.80051041 186 133 120
-0.2006565 -0.16117866 -0.79971439 193 133 120
-0.20055194 -0.15953818 -0.80035675 179 133 119
-0.20048626 -0.16019005 -0.79994637 184 132 120
-0.20026106 -0.1600924 -0.79971892 180 132 120
-0.19954686 -0.16001841 -0.79871142 171 132 119
-0.19977625 -0.1595007 -0.79926425 169 133 119
-0.19910556 -0.1614138 -0.79751492 178 130 120
-0.20059788 -0.15822373 -0.80105215 168 134 119
-0.2000871 -0.15830964 -0.80017638 162 136 117
-0.19925079 -0.16160865 -0.79769093 182 130 120
-0.2013528 -0.16228868 -0.80037606 201 135 120
-0.20161934 -0.16351289 -0.80076367 188 134 119
-0.20117234 -0.16307127 -0.79982781 197 134 120
-0.20125428 -0.16523103 -0.79969269 180 132 119
-0.20105144 -0.16536656 -0.79935205 181 132 119
-0.2008462 -0.16341384 -0.7993772 196 134 120
-0.20077881 -0.16424085 -0.79917663 190 133 120
-0.2002624 -0.16444293 -0.7985121 191 133 120
-0.20086493 -0.16223978 -0.79955047 201 134 121
-0.19943276 -0.16262756 -0.79764664 188 130 121
-0.19974686 -0.16308726 -0.7980032 190 131 120
-0.19961019 -0.16236629 -0.7979064 189 131 121
-0.19953156 -0.16307938 -0.79772437 188 130 121
-0.20183265 -0.16828631 -0.80102676 179 131 119
-0.20182034 -0.16858667 -0.80103129 181 131 119
-0.20158228 -0.16681765 -0.80035174 173 132 118
-0.20127228 -0.16796423 -0.7997942 183 130 119
-0.20129955 -0.16762042 -0.79982495 181 130 119
-0.20144284 -0.16951989 -0.80030167 188 130 120
-0.20022243 -0.16880901 -0.79817075 191 128 121
-0.20010126 -0.16876765 -0.797979 192 127 121
-0.20051068 -0.16935429 -0.79866469 192 127 121
-0.20111445 -0.16936561 -0.79960334 189 128 120
-0.19996332 -0.16784067 -0.79783553 189 129 120
-0.20051822 -0.16739859 -0.7985391 184 129 120
-0.19947951 -0.16702014 -0.79727799 188 130 120
-0.20175269 -0.1727443 -0.80098397 163 130 120
-0.20177439 -0.17055935 -0.80105752 183 130 120
-0.2012769 -0.17053561 -0.79996282 185 128 121
-0.20130824 -0.17197192 -0.79978716 166 127 120
-0.2008083 -0.17114353 -0.79887211 170 128 120
-0.20007668 -0.17021014 -0.79796743 191 126 122
-0.20089637 -0.17052661 -0.79916191 181 127 121
-0.19991811 -0.17147018 -0.79740852 168 127 121
-0.20040303 -0.17063434 -0.79836905 182 127 121
-0.20586152 -0.14877421 -0.81599557 88 137 123
-0.20568672 -0.14971545 -0.81543523 94 133 125
-0.20566541 -0.148817 -0.81569868 84 137 123
-0.20613849 -0.15062468 -0.81575686 115 131 124
-0.20575315 -0.15269111 -0.8142373 131 133 120
-0.20585079 -0.15124488 -0.81505263 115 132 123
-0.20587151 -0.1526552 -0.81442481 133 133 120
-0.20616442 -0.15342323 -0.81581229 125 136 117
-0.20659566 -0.15108426 -0.81638157 129 132 123
-0.20551522 -0.15428659 -0.81360418 136 135 116
-0.20648547 -0.15237179 -0.81658679 123 136 120
-0.20602894 -0.15272966 -0.81490737 133 134 120
-0.20459945 -0.15144895 -0.81346065 94 132 123
-0.2046573 -0.15203446 -0.81326103 102 132 122
-0.20401946 -0.15054891 -0.81333405 73 130 124
-0.20598163 -0.15600616 -0.81534839 134 137 117
-0.20632802 -0.157333 -0.81629121 122 137 117
-0.20612693 -0.15562938 -0.81593269 126 138 116
-0.20641373 -0.15806398 -0.81644309 120 137 117
-0.20637165 -0.15560435 -0.81679356 115 138 115
-0.20604925 -0.1558332 -0.81561989 131 137 117
-0.20570405 -0.15676315 -0.8142069 147 134 119
-0.20617561 -0.15440619 -0.81629443 120 139 115
-0.20579228 -0.15479848 -0.81470406 132 136 116
-0.20596951 -0.15565386 -0.81536692 133 137 117
-0.20599544 -0.1554776 -0.81548494 131 137 117
-0.20559748 -0.15722093 -0.81374037 153 133 120
-0.20671156 -0.15911543 -0.81652862 129 137 117
-0.20662291 -0.16155881 -0.8142907 172 137 118
-0.20647955 -0.15988415 -0.81530213 145 136 118
-0.20693512 -0.1607427 -0.81576157 155 138 117
-0.20647912 -0.16066973 -0.81465441 158 137 118
-0.20649569 -0.15868489 -0.81633049 124 136 117
-0.20639277 -0.15952229 -0.81534123 141 136 118
-0.20612252 -0.16031921 -0.81379193 164 135 119
-0.20631513 -0.1596148 -0.81499958 146 136 118
-0.20601735 -0.1595661 -0.81399518 157 134 119
-0.205836 -0.15994784 -0.81307155 171 134 120
-0.20699356 -0.16573924 -0.81327635 210 134 122
-0.20706606 -0.16564675 -0.81381458 206 134 121
-0.20729677 -0.16540839 -0.81557697 191 136 119
-0.20742258 -0.16536838 -0.81661707 182 137 117
-0.20739871 -0.16473544 -0.81585652 187 137 118
-0.20691699 -0.16378278 -0.81385916 194 136 119
-0.20685357 -0.16381167 -0.81368423 194 135 120
-0.20652772 -0.16240934 -0.81346291 184 137 118
-0.20680635 -0.16526583 -0.8129279 209 134 122
-0.20675074 -0.16467957 -0.81304175 203 135 121
-0.20716375 -0.1641501 -0.81433028 195 136 119
-0.20769668 -0.16904804 -0.81624472 197 136 120
-0.2072081 -0.16903256 -0.81506985 192 136 119
-0.20707129 -0.16770108 -0.81532097 186 136 118
-0.20752695 -0.16699193 -0.81673306 187 136 118
-0.20730571 -0.16734178 -0.81604505 187 136 118
-0.20738675 -0.16796599 -0.81596816 190 136 119
-0.20693989 -0.16681586 -0.81385207 201 134 120
-0.20652334 -0.16951819 -0.81296474 191 135 120
-0.20655011 -0.1693164 -0.81299382 192 135 119
-0.20713815 -0.16659997 -0.81533301 191 135 119
-0.206572 -0.1693676 -0.81323159 190 135 119
-0.20698339 -0.1663527 -0.81376594 205 134 121
-0.2012673 -0.16945109 -0.81503475 79 129 121
-0.20142579 -0.16951628 -0.81511384 82 129 121
-0.20303984 -0.16981275 -0.81635725 106 132 122
-0.20786935 -0.17158166 -0.81652403 193 135 121
-0.20782657 -0.17205498 -0.81653887 191 135 121
-0.20728381 -0.17370164 -0.81457913 171 134 120
-0.20760508 -0.17286749 -0.81580842 182 135 120
-0.20762824 -0.17281722 -0.81590182 183 135 120
-0.20706934 -0.17166993 -0.81383348 179 135 120
-0.20771839 -0.16995333 -0.81590599 200 136 121
-0.20724741 -0.17224126 -0.81409681 176 135 120
-0.20731457 -0.17218083 -0.81427693 177 135 120
-0.207173 -0.17104167 -0.81426823 186 135 120
-0.20745541 -0.17098238 -0.81496859 189 136 120
-0.20357455 -0.17205995 -0.81661737 99 131 121
-0.20246035 -0.17074001 -0.81560063 99 130 121
-0.20297609 -0.17206952 -0.81602466 94 130 120
-0.20194019 -0.17091611 -0.81507456 94 130 121
-0.20229611 -0.17243984 -0.81536859 92 130 121
-0.20197359 -0.17204717 -0.81507838 94 130 121
-0.20202105 -0.17224878 -0.81511831 94 130 121
-0.20161918 -0.17129339 -0.81476551 94 129 121
-0.20123154 -0.17146204 -0.81440437 95 129 121
-0.20744173 -0.1754749 -0.81574011 130 133 120
-0.20758875 -0.17528915 -0.81633037 130 133 120
-0.20716472 -0.17634848 -0.81462961 108 133 120
-0.20768833 -0.176752 -0.81673503 59 130 122
-0.20748086 -0.1771137 -0.81590247 55 130 121
-0.20676048 -0.17729357 -0.81292057 83 133 120
-0.2073727 -0.17461015 -0.81530988 158 134 121
-0.20683271 -0.17728344 -0.81328654 85 132 120
-0.2072621 -0.17506063 -0.81486887 146 134 120
-0.20698272 -0.17432752 -0.81324124 152 134 119
-0.20719713 -0.17469296 -0.8144362 150 134 120
-0.20889409 -0.18136641 -0.81661326 125 140 111
-0.20874391 -0.18074507 -0.81674635 110 138 113
-0.20834748 -0.18112603 -0.81573671 100 138 114
-0.20799319 -0.18096322 -0.81517339 82 137 115
-0.20772527 -0.18078116 -0.81478703 68 136 117
-0.20714007 -0.18113405 -0.81343776 48 136 119
-0.20838983 -0.1810158 -0.81589139 100 138 114
-0.20731246 -0.17930856 -0.81474018 36 132 120
-0.20696285 -0.17914431 -0.81338608 58 132 120
-0.20712081 -0.18002331 -0.81374872 47 133 120
-0.20734012 -0.17873839 -0.81502783 33 131 121
-0.20727159 -0.17816333 -0.8149305 38 131 120
-0.20864467 -0.18340069 -0.81643063 85 140 106
-0.20853531 -0.1828056 -0.81606275 92 140 109
-0.20810021 -0.18324396 -0.81535321 65 139 108
-0.20785895 -0.1833301 -0.81491756 53 139 108
-0.20856749 -0.18501213 -0.81671691 48 143 99
-0.20821683 -0.18408413 -0.81580073 53 141 104
-0.20736519 -0.18341652 -0.81374395 80 137 113
-0.20726502 -0.18446822 -0.81346399 123 137 114
-0.20732638 -0.18268235 -0.81365246 59 137 114
-0.20801072 -0.18438074 -0.81543326 47 141 104
-0.20799892 -0.18457858 -0.81539923 56 141 104
-0.20779656 -0.18396917 -0.81487423 55 140 107
-0.20827043 -0.18783092 -0.81562775 116 137 111
-0.20797651 -0.18943004 -0.81451344 166 136 119
-0.20823663 -0.18788035 -0.81552655 117 137 111
-0.20784371 -0.18939409 -0.81416166 163 136 118
-0.20755525 -0.18914804 -0.81343114 152 136 117
-0.20766401 -0.187131 -0.81415421 125 138 111
-0.20725484 -0.18658827 -0.81319308 160 138 115
-0.20806862 -0.18617576 -0.81543112 84 140 104
-0.20776264 -0.1877455 -0.81427997 119 138 111
-0.20715334 -0.18607579 -0.8130374 167 138 115
-0.20776291 -0.18803047 -0.81421828 120 138 111
-0.20743597 -0.19307564 -0.81398332 156 135 115
-0.20766504 -0.19234894 -0.8144055 160 135 115
-0.20812653 -0.1923885 -0.81575388 163 133 117
-0.20853858 -0.19109364 -0.81651735 170 134 119
-0.20851442 -0.19103141 -0.81642687 170 134 119
-0.20813952 -0.19213365 -0.81570709 164 134 117
-0.20738377 -0.18999031 -0.81303746 159 137 117
-0.20747989 -0.19199835 -0.81378645 159 136 115
-0.20757288 -0.19155058 -0.81392872 160 136 116
-0.2080467 -0.19057254 -0.81497133 167 135 118
-0.20770721 -0.18952169 -0.81379765 163 136 118
-0.20789601 -0.18999816 -0.81442404 165 136 118
-0.20188351 -0.19306859 -0.8154617 31 132 118
-0.20152691 -0.19243287 -0.81586766 35 128 119
-0.203169 -0.19325161 -0.81649232 42 134 117
-0.20161058 -0.1918816 -0.81660086 41 127 119
-0.20514528 -0.1970568 -0.81447059 187 127 120
-0.20651287 -0.19542389 -0.81468844 174 130 118
-0.20651178 -0.19555566 -0.81487215 176 130 118
-0.20666382 -0.19454618 -0.81377816 164 134 115
-0.20614298 -0.19708604 -0.8162294 192 125 121
-0.20645441 -0.1947567 -0.81361938 165 133 115
-0.20687872 -0.19543082 -0.81566995 177 129 118
-0.20710285 -0.19401944 -0.81413502 161 134 115
-0.20747176 -0.19396803 -0.8151229 163 132 116
-0.20669334 -0.1962449 -0.81639296 185 126 120
-0.20669156 -0.19601308 -0.81602931 182 127 120
-0.20645495 -0.19671626 -0.81643254 190 125 121
-0.2032291 -0.19396324 -0.81628275 62 132 118
-0.20232852 -0.19402884 -0.81539375 55 130 119
-0.20202598 -0.19433643 -0.81502855 63 128 120
-0.2022218 -0.19349763 -0.81541407 36 133 117
-0.20312387 -0.19339846 -0.81631231 42 134 117
-0.20333704 -0.19540226 -0.81464577 116 128 120
-0.20330428 -0.1956584 -0.81545568 118 125 122
-0.20280488 -0.19463666 -0.81384617 92 131 118
-0.20305049 -0.1954654 -0.81556195 107 126 121
-0.20353621 -0.19590272 -0.81555116 127 125 121
-0.20378914 -0.19560055 -0.81404436 131 130 118
-0.20366283 -0.19535922 -0.81368566 126 131 118
-0.20188724 -0.19528653 -0.81332159 46 131 120
-0.20256692 -0.19459018 -0.81378442 81 131 118
-0.20132047 -0.19391765 -0.81410336 26 131 119
-0.20431517 -0.19616006 -0.81296182 147 132 118
-0.20479818 -0.19700864 -0.81532025 175 126 121
-0.20508899 -0.19804183 -0.81613439 187 125 122
-0.20472118 -0.19733667 -0.81627786 176 123 123
-0.19560233 -0.1562774 -0.7929486 143 134 116
-0.19515112 -0.15544118 -0.79253566 127 136 115
-0.19505808 -0.15595913 -0.79222327 126 136 115
-0.19524933 -0.15622044 -0.79242897 133 135 116
-0.19603218 -0.15832922 -0.79296446 161 132 119
-0.19787827 -0.17254767 -0.79332149 183 125 122
-0.19737402 -0.17182493 -0.79257202 177 124 123
-0.19730596 -0.17048214 -0.79278195 193 117 126
-0.19667044 -0.17067471 -0.79160416 161 122 123
-0.20144755 -0.15616517 -0.80346256 156 136 116
-0.20139515 -0.1567155 -0.80313462 162 136 117
-0.20156232 -0.15693857 -0.80364442 159 135 117
-0.20132197 -0.15797077 -0.80254459 174 134 118
-0.20096573 -0.15808567 -0.80167651 175 134 118
-0.20096028 -0.15717396 -0.80191511 168 135 118
-0.2008723 -0.15649547 -0.80195802 161 135 118
-0.20130239 -0.15982765 -0.80138564 188 134 119
-0.20156434 -0.16051243 -0.80186445 189 135 119
-0.20165014 -0.15846288 -0.80343878 168 135 118
-0.2020393 -0.15851375 -0.80473465 156 136 117
-0.20128554 -0.1587017 -0.80204552 181 134 119
-0.20254852 -0.16155812 -0.80474484 173 136 119
-0.20199406 -0.1602875 -0.80350077 175 136 118
-0.20240849 -0.16026126 -0.80501825 164 136 118
-0.20237555 -0.16034453 -0.80484873 165 136 118
-0.20199366 -0.15990473 -0.80372977 171 136 118
-0.2023135 -0.16184208 -0.80372232 182 136 119
-0.20095229 -0.1588908 -0.80117732 179 134 119
-0.20232993 -0.16507316 -0.80252516 168 133 118
-0.20267111 -0.16525979 -0.80340248 177 134 118
-0.20292047 -0.16394724 -0.804735 181 135 119
-0.202516 -0.16502242 -0.80307645 173 134 118
-0.20270778 -0.16395973 -0.80412662 176 135 119
-0.20275071 -0.16338301 -0.80452329 176 135 119
-0.20187661 -0.16243391 -0.801871 192 136 119
-0.20216806 -0.16224796 -0.80298865 186 136 119
-0.20227765 -0.16397406 -0.80281419 171 134 119
-0.20238684 -0.16212554 -0.80382198 182 136 119
-0.20190614 -0.16297537 -0.80179876 188 135 119
-0.20256494 -0.1630116 -0.80417389 171 136 119
-0.20324691 -0.16729769 -0.80495781 197 133 120
-0.20278831 -0.16974209 -0.80414724 197 133 121
-0.20306793 -0.16888884 -0.80480433 198 134 120
-0.20197037 -0.16957816 -0.80154544 189 131 120
-0.20213765 -0.16971423 -0.8021037 191 131 120
-0.20261922 -0.1694613 -0.80354631 195 133 121
-0.20238625 -0.16827746 -0.80254322 189 132 120
-0.20219484 -0.16621977 -0.8017205 168 133 118
-0.20241581 -0.16644861 -0.80237764 176 132 119
-0.20217928 -0.16713627 -0.80180144 175 133 118
-0.20241053 -0.16740525 -0.8024931 183 132 119
-0.20238283 -0.16681787 -0.80233461 178 132 119
-0.20269971 -0.17254284 -0.80353045 170 132 121
-0.20318632 -0.17290075 -0.80459493 166 133 121
-0.20321582 -0.1735732 -0.80449408 159 133 121
-0.20264412 -0.17297404 -0.80328888 164 132 120
-0.20255019 -0.17357656 -0.80291271 157 131 120
-0.20235367 -0.1733565 -0.80250204 159 131 120
-0.20248568 -0.17063445 -0.8032341 188 132 120
-0.2022146 -0.17253546 -0.80235362 168 131 120
-0.20284598 -0.17035012 -0.80436653 194 133 121
-0.20184712 -0.17276673 -0.80119962 163 130 120
-0.20242403 -0.17148793 -0.80302674 179 132 120
-0.20337552 -0.17507368 -0.80423969 141 134 120
-0.2036324 -0.17432806 -0.80504924 151 133 120
-0.20485573 -0.18136622 -0.80482578 141 134 115
-0.20350266 -0.19134824 -0.80470252 124 132 114
-0.20303749 -0.19295646 -0.80406719 123 130 113
-0.20330775 -0.19310009 -0.80465388 133 127 114
-0.2031796 -0.19522521 -0.80457324 124 131 112
-0.20304765 -0.1961989 -0.80447125 113 136 109
-0.20311935 -0.19567882 -0.80453253 119 133 110
-0.20318516 -0.19388114 -0.80425018 136 126 116
-0.20280597 -0.19867815 -0.80486286 112 141 108
-0.20286764 -0.19767062 -0.80451083 101 143 105
-0.20297413 -0.19742399 -0.80489165 97 145 103
-0.20907435 -0.13833556 -0.82400805 203 121 120
-0.20914522 -0.13739313 -0.82338578 199 123 120
-0.20936169 -0.13716799 -0.8244338 190 121 122
-0.20943467 -0.1367404 -0.82448202 186 122 122
-0.20913638 -0.13717265 -0.82314366 199 124 120
-0.20898381 -0.13774718 -0.82317495 208 123 120
-0.20861891 -0.13989261 -0.82436633 193 121 122
-0.2087047 -0.13893186 -0.82370991 199 122 120
-0.20795383 -0.14098242 -0.82399833 166 125 123
-0.20758939 -0.14215969 -0.82429302 149 127 125
-0.2075389 -0.14210376 -0.8241477 148 127 125
-0.20736277 -0.14254521 -0.82412899 142 129 125
-0.20700936 -0.14527602 -0.82359087 88 131 120
-0.20728126 -0.14399651 -0.8241024 116 128 124
-0.20713189 -0.14418571 -0.82354397 118 129 123
-0.20723335 -0.14453271 -0.82418025 101 129 122
-0.20619692 -0.14292854 -0.82151389 115 144 114
-0.20677385 -0.14446075 -0.8224197 118 131 121
-0.20666011 -0.14388204 -0.82230628 119 135 119
-0.20723855 -0.1432254 -0.82373101 135 128 124
-0.20653933 -0.14363985 -0.8220982 117 137 118
-0.20615013 -0.14258917 -0.82149112 116 146 114
-0.20717135 -0.1490584 -0.82415318 33 129 123
-0.20710538 -0.14783216 -0.82371169 71 130 119
-0.20712605 -0.15029114 -0.82198673 126 128 121
-0.20720547 -0.14999482 -0.82411069 24 128 125
-0.20715341 -0.1484293 -0.82429832 32 131 121
-0.20696543 -0.1464915 -0.82404166 47 132 117
-0.20696218 -0.14693837 -0.82358927 66 132 118
-0.20695902 -0.14870559 -0.82184255 131 129 118
-0.20680009 -0.14655988 -0.82324332 61 132 118
-0.20740934 -0.15417016 -0.82245976 99 130 115
-0.20742492 -0.15197711 -0.82457 43 129 122
-0.20726778 -0.15072615 -0.82450217 6 128 127
-0.20728853 -0.15147261 -0.82398343 24 128 124
-0.20725976 -0.15210554 -0.82318854 40 129 121
-0.20757054 -0.15386087 -0.82397503 97 130 116
-0.20708241 -0.15041944 -0.8208558 174 128 118
-0.20718493 -0.15179658 -0.82226419 79 129 120
-0.20718841 -0.15299192 -0.82148653 88 129 117
-0.20714174 -0.15254554 -0.82071608 134 129 116
-0.20713057 -0.15160218 -0.82113236 136 128 118
-0.20903735 -0.1574394 -0.8240999 74 137 109
-0.20885953 -0.15754196 -0.82388544 76 137 109
-0.20625031 -0.15803421 -0.82443881 52 135 111
-0.20737463 -0.15562136 -0.82379168 108 132 114
-0.20760392 -0.1548482 -0.82421738 112 131 115
-0.20736365 -0.15536591 -0.82405484 107 132 114
-0.20747027 -0.1547876 -0.82446498 107 132 114
-0.20717771 -0.15712275 -0.82261407 110 135 115
-0.20614284 -0.1578939 -0.82332855 80 135 114
-0.20727584 -0.15757917 -0.82203287 115 136 115
-0.20770411 -0.15656251 -0.82241362 124 134 115
-0.20747343 -0.15604305 -0.82080185 113 133 115
-0.20772418 -0.15641047 -0.82229441 124 133 115
-0.20756949 -0.15459722 -0.82322139 109 131 114
-0.2076638 -0.15499817 -0.82347679 114 132 115
-0.20766282 -0.15697613 -0.8211655 124 135 116
-0.20761834 -0.15541676 -0.82264113 115 132 114
-0.20898896 -0.16193451 -0.82306862 104 134 112
-0.20944163 -0.158986 -0.8244952 39 137 108
-0.20902686 -0.16123246 -0.82449031 46 135 106
-0.2090313 -0.16473286 -0.82213569 144 132 121
-0.20900925 -0.16462 -0.82241082 133 132 119
-0.20912486 -0.16306278 -0.82187808 154 135 118
-0.20908207 -0.16258982 -0.82251942 129 134 115
-0.20947739 -0.16374648 -0.82097566 192 135 121
-0.20930786 -0.16524804 -0.82155824 170 132 123
-0.20937723 -0.16473837 -0.82134932 178 133 123
-0.2093378 -0.16834515 -0.82287252 102 130 125
-0.20947918 -0.16745351 -0.82230788 134 131 125
-0.2092586 -0.16983336 -0.82329232 72 130 125
-0.21004148 -0.16925894 -0.82139409 174 133 123
-0.21026976 -0.16775461 -0.82096869 201 132 123
-0.20949523 -0.16935867 -0.82274747 105 130 125
-0.21028994 -0.16761716 -0.82093149 203 132 123
-0.20927519 -0.17240876 -0.8217833 156 133 123
-0.20902574 -0.17312299 -0.82198662 147 133 124
-0.20912972 -0.17196703 -0.82240546 124 132 125
-0.20985493 -0.17078474 -0.82128978 178 133 123
-0.20954746 -0.17055145 -0.8221938 133 132 124
-0.20966506 -0.17361221 -0.82102913 197 135 123
-0.20972343 -0.17169636 -0.82112104 188 134 123
-0.20895678 -0.17082046 -0.82341456 65 131 126
-0.20870294 -0.17137763 -0.82283378 85 131 126
-0.20690456 -0.17173259 -0.8208881 93 132 125
-0.20776583 -0.17296563 -0.8209821 136 133 124
-0.20730543 -0.17141418 -0.82146376 83 131 126
-0.20801638 -0.17047949 -0.82270527 51 129 127
-0.20735581 -0.17244844 -0.82089573 119 132 125
-0.20635067 -0.17083974 -0.82088715 60 131 126
-0.20811778 -0.17054556 -0.8227635 53 130 126
-0.20925964 -0.17490014 -0.82251447 120 133 125
-0.2093405 -0.17493822 -0.82247484 122 133 124
-0.21010329 -0.17594159 -0.82292122 98 132 125
-0.21001765 -0.17583986 -0.822878 100 132 125
-0.20974723 -0.17665437 -0.82398534 32 131 126
-0.21031117 -0.17731036 -0.82326764 37 130 127
-0.21005949 -0.17664814 -0.82078922 110 131 125
-0.2102873 -0.17658098 -0.82320499 71 131 126
-0.21010832 -0.17682309 -0.82125807 95 131 125
-0.21040232 -0.17752199 -0.82417244 10 130 127
-0.21015164 -0.17684448 -0.82170844 86 131 126
-0.20708153 -0.17485443 -0.82116783 89 132 125
-0.20859727 -0.17476749 -0.82232946 108 132 125
-0.208068 -0.1760342 -0.82320267 24 128 127
-0.20592283 -0.17595305 -0.82135975 7 128 128
-0.20707855 -0.17603301 -0.82239002 12 128 128
-0.20752965 -0.17580083 -0.82252038 33 129 127
-0.20874822 -0.17584608 -0.82356638 45 130 126
-0.2067809 -0.17510508 -0.82118833 70 131 126
-0.2057478 -0.17605047 -0.82304317 0 128 128
-0.20689876 -0.17626226 -0.82385194 0 128 128
-0.20511764 -0.17594866 -0.82216501 0 128 128
-0.20825854 -0.17653665 -0.82406384 0 128 128
-0.20671959 -0.1762301 -0.82370132 0 128 128
-0.21041366 -0.17976274 -0.82447654 2 128 128
-0.21045493 -0.18020689 -0.82410944 10 130 127
-0.21062961 -0.18078974 -0.82279581 57 130 127
-0.21053496 -0.1794955 -0.82368904 25 128 128
-0.21043922 -0.1814698 -0.82398367 14 128 128
-0.2103869 -0.17826931 -0.82275504 37 129 127
-0.21073815 -0.18047494 -0.82150817 94 131 127
-0.21019574 -0.17811064 -0.82109827 65 129 127
-0.21075895 -0.18092522 -0.82071751 114 131 126
-0.21037617 -0.17854266 -0.82202935 55 130 127
-0.20941077 -0.19133529 -0.82260203 158 137 119
-0.20953244 -0.19096595 -0.82220435 159 136 118
-0.20921993 -0.1929805 -0.82352996 168 138 121
-0.2096362 -0.19068106 -0.82178134 160 135 118
-0.20979081 -0.19050235 -0.8211019 162 135 118
-0.20985185 -0.19062708 -0.82082498 165 134 118
-0.20951785 -0.19300634 -0.82220423 175 136 121
-0.20901391 -0.19389358 -0.82249391 176 136 121
-0.20910107 -0.19359079 -0.82320249 172 137 121
-0.1973387 -0.1533252 -0.7972343 148 136 118
-0.19713789 -0.15380847 -0.79657382 157 136 117
-0.19677027 -0.15222555 -0.79673547 117 137 119
-0.19692583 -0.1525144 -0.79686427 125 137 118
-0.19644284 -0.15250109 -0.79602045 116 136 118
-0.19540755 -0.15395623 -0.79338068 128 136 114
-0.19767979 -0.1553949 -0.79705322 162 136 116
-0.19758441 -0.15636204 -0.79633594 160 137 115
-0.19746676 -0.15787797 -0.79529786 165 135 116
-0.19635105 -0.15811555 -0.79348511 169 131 120
-0.19700336 -0.1570949 -0.79483336 170 134 118
-0.1965452 -0.15651074 -0.79444879 166 133 118
-0.19648519 -0.15583049 -0.79460055 162 134 117
-0.1963879 -0.15626447 -0.7942667 162 133 117
-0.19589041 -0.15636221 -0.79336017 152 133 117
-0.19637194 -0.15707706 -0.79393226 165 133 118
-0.19883613 -0.16142675 -0.7969588 180 130 120
-0.19866464 -0.16034718 -0.79707265 166 133 118
-0.19832458 -0.15935232 -0.79671896 158 135 116
-0.1983314 -0.16070911 -0.79616457 179 131 119
-0.1983677 -0.16059713 -0.79621857 180 131 120
-0.19804592 -0.16072518 -0.79574764 176 130 119
-0.19838142 -0.16145474 -0.79623055 179 130 120
-0.19820081 -0.16091718 -0.79597193 177 130 120
-0.19722763 -0.15974772 -0.79457015 169 133 117
-0.19653535 -0.15884614 -0.79368341 167 133 118
-0.19692728 -0.15855406 -0.79419291 169 133 118
-0.19727239 -0.16394125 -0.79362649 160 132 116
-0.19870226 -0.16226144 -0.79662102 180 129 121
-0.19738968 -0.16219462 -0.79473627 168 129 118
-0.1975037 -0.16249423 -0.7947619 167 129 118
-0.19882439 -0.16255748 -0.79666013 180 129 120
-0.19816606 -0.16345313 -0.79527795 168 130 118
-0.19823276 -0.16465691 -0.7948572 162 132 116
-0.19904195 -0.16457786 -0.79667383 179 131 119
-0.1989053 -0.16416147 -0.7964496 177 131 119
-0.19856176 -0.16503784 -0.79551649 168 132 117
-0.19858931 -0.16461816 -0.79565841 169 131 117
-0.19864704 -0.16514297 -0.79568619 169 132 118
-0.19899581 -0.1696023 -0.79620439 198 123 123
-0.19903977 -0.1680965 -0.79639143 192 126 122
-0.19921462 -0.166575 -0.79682285 186 129 120
-0.19782658 -0.16946621 -0.79404062 197 117 127
-0.19833922 -0.16991378 -0.79496223 199 119 125
-0.19899425 -0.16946815 -0.79621089 197 123 124
-0.19894281 -0.16691336 -0.79627931 186 128 120
-0.19805276 -0.16765624 -0.79438245 178 125 121
-0.1986348 -0.16757111 -0.79566854 190 124 122
-0.19910951 -0.1664895 -0.79660207 184 129 120
-0.19887467 -0.16683528 -0.79611862 184 128 120
-0.19976319 -0.17256124 -0.79682553 153 128 120
-0.19936076 -0.17069082 -0.79663324 193 127 121
-0.1991701 -0.17217402 -0.79583997 174 128 120
-0.19955651 -0.17114705 -0.79686123 180 127 121
-0.19781484 -0.1705898 -0.79378986 195 118 126
-0.19838019 -0.17199652 -0.79442573 187 126 122
-0.19893599 -0.17107829 -0.79572964 192 126 122
-0.19886598 -0.17142218 -0.79549813 190 127 121
-0.19863963 -0.17103842 -0.79519063 192 124 123
-0.19752935 -0.17003609 -0.79342258 198 115 128
-0.20332225 -0.15032704 -0.81246418 74 130 123
-0.20247982 -0.14759991 -0.80916452 106 133 120
-0.20250966 -0.14979894 -0.80957532 149 125 124
-0.2025861 -0.14793774 -0.80988431 112 131 120
-0.20279293 -0.14783336 -0.81120974 109 131 119
-0.20255345 -0.14825897 -0.80970538 119 130 121
-0.20501351 -0.15389094 -0.81270164 135 134 118
-0.20461227 -0.153467 -0.81240189 128 133 119
-0.20307761 -0.15417244 -0.8095392 159 134 117
-0.20412666 -0.15232649 -0.81250495 105 132 120
-0.20404136 -0.15326092 -0.81168354 129 133 119
-0.20356323 -0.15348125 -0.81079125 138 134 118
-0.20362544 -0.15390456 -0.81057298 147 134 117
-0.2030704 -0.15223451 -0.81083578 118 132 120
-0.2030322 -0.15092102 -0.81115586 108 129 122
-0.20253368 -0.15068267 -0.80935276 151 124 124
-0.20306292 -0.150703 -0.81134921 104 128 123
-0.20308322 -0.15157215 -0.8111186 110 131 121
-0.20533173 -0.15527265 -0.81285548 147 134 118
-0.20525694 -0.15778957 -0.81247854 167 132 120
-0.20519897 -0.15750697 -0.81233931 167 132 120
-0.2044643 -0.15782805 -0.81059778 174 133 119
-0.20471512 -0.15627645 -0.81139612 164 133 118
-0.20478244 -0.15793645 -0.8112489 175 133 120
-0.204338 -0.15745007 -0.81039762 172 133 119
-0.20423891 -0.156646 -0.81034499 167 134 118
-0.20369522 -0.15585485 -0.80980974 167 134 118
-0.20381148 -0.15685773 -0.80961269 171 134 118
-0.20432428 -0.15567112 -0.81083971 162 134 118
-0.20443629 -0.1546399 -0.81139618 155 135 117
-0.20532788 -0.15889497 -0.81214941 176 133 120
-0.20568123 -0.16002661 -0.81250036 178 134 120
-0.20508303 -0.16114491 -0.81085449 189 134 121
-0.20542504 -0.16185027 -0.81130862 189 135 120
-0.20532247 -0.16015394 -0.81166738 183 134 120
-0.20561929 -0.16052519 -0.81214178 182 135 119
-0.2043875 -0.16155182 -0.80971557 178 135 118
-0.2048085 -0.16161978 -0.81029844 186 135 120
-0.20401347 -0.1617604 -0.80904794 174 136 117
-0.20419912 -0.15862745 -0.80991018 177 133 120
-0.20408894 -0.15948807 -0.80954868 176 134 119
-0.20417546 -0.16096939 -0.80950809 174 135 118
-0.205208 -0.16572127 -0.80904406 211 131 123
-0.20597129 -0.16274744 -0.81201446 189 135 120
-0.20577155 -0.16293481 -0.81152135 191 135 120
-0.20544456 -0.16308269 -0.81079078 195 134 121
-0.20615274 -0.16524187 -0.81140339 206 133 122
-0.20660485 -0.16491538 -0.81259298 205 134 121
-0.20651963 -0.16403238 -0.81274641 199 135 121
-0.20558335 -0.16517843 -0.81009501 205 132 123
-0.20643969 -0.16405182 -0.81255138 199 135 121
-0.20616648 -0.16278848 -0.81241661 188 136 119
-0.20415992 -0.16213669 -0.80918932 177 136 118
-0.20432694 -0.16211921 -0.80943787 179 136 119
-0.2063317 -0.16950703 -0.81196058 194 133 120
-0.20669618 -0.16686434 -0.81225675 210 132 122
-0.20660764 -0.16701645 -0.81189865 210 132 122
-0.20645364 -0.16797587 -0.81168175 204 132 122
-0.20613654 -0.16960639 -0.81103349 195 131 121
-0.20600659 -0.16978045 -0.81047916 195 130 121
-0.20550162 -0.16675043 -0.80937403 208 130 123
-0.20563185 -0.16900724 -0.80908084 200 128 122
-0.20614061 -0.16807652 -0.81051922 204 130 122
-0.20595081 -0.16788854 -0.81012452 205 130 122
-0.20646042 -0.16746853 -0.8114295 208 131 122
-0.20584218 -0.16853365 -0.80969906 202 129 122
-0.20614529 -0.17333089 -0.81019783 165 130 124
-0.20667385 -0.17204653 -0.81270272 173 134 119
-0.20666282 -0.17260103 -0.81241643 170 134 120
-0.20647261 -0.17064433 -0.81258756 184 135 120
-0.20666178 -0.17322129 -0.81213766 165 134 121
-0.20653819 -0.17201224 -0.81222117 174 134 120
-0.20601609 -0.17130385 -0.81028843 182 130 122
-0.20590712 -0.17069173 -0.80988073 188 129 122
-0.20594767 -0.17202438 -0.80977541 177 129 124
-0.20605977 -0.1715367 -0.81045473 180 131 123
-0.20595144 -0.17108758 -0.81001234 185 130 123
-0.20637721 -0.17704098 -0.8101725 142 135 116
-0.20671773 -0.17500837 -0.81178015 156 135 118
-0.20672588 -0.17757714 -0.81279671 78 132 120
-0.20662624 -0.17766863 -0.81213826 89 133 119
-0.20621595 -0.17761829 -0.80926722 147 135 115
-0.20628297 -0.1769204 -0.8096264 151 134 116
-0.2062822 -0.17544433 -0.81003165 156 132 120
-0.20653138 -0.17572364 -0.81086689 155 135 117
-0.206286 -0.17474541 -0.8102389 159 132 122
-0.20647573 -0.17559803 -0.81069785 155 134 118
-0.20638035 -0.17428158 -0.81071264 160 132 122
-0.20672567 -0.17869367 -0.81240183 74 133 120
-0.20670916 -0.17892562 -0.81218952 76 133 120
-0.20679568 -0.18024221 -0.81209755 71 134 120
-0.20667201 -0.17878018 -0.81202942 78 132 120
-0.20662777 -0.1791849 -0.81156397 82 132 120
-0.20623462 -0.17785826 -0.80938935 140 134 116
-0.20632215 -0.1800359 -0.80910665 121 133 119
-0.20641516 -0.17803474 -0.81057221 116 134 117
-0.20646524 -0.17901812 -0.81051797 105 133 119
-0.20641953 -0.17907672 -0.81017607 110 133 118
-0.20683956 -0.18314165 -0.81194657 83 135 118
-0.20699182 -0.184634 -0.81262279 142 137 116
-0.20684941 -0.18357913 -0.8119812 97 135 117
-0.20693423 -0.18414608 -0.812365 122 136 117
-0.2066071 -0.18539564 -0.81079388 129 135 116
-0.20652844 -0.18326999 -0.81023598 85 134 118
-0.20684983 -0.1818435 -0.81182301 67 135 119
-0.20643765 -0.18316489 -0.80964637 93 133 119
-0.20629703 -0.18466759 -0.80919635 96 134 116
-0.20654345 -0.18345274 -0.81037939 83 134 117
-0.20719202 -0.18759108 -0.8127414 166 137 116
-0.20700485 -0.18790701 -0.81172973 166 137 116
-0.20678058 -0.18924157 -0.81014144 161 136 117
-0.20714577 -0.1890146 -0.81196231 162 137 117
-0.20695932 -0.18726207 -0.81176752 168 137 116
-0.20665818 -0.18730223 -0.81033069 152 136 116
-0.20689949 -0.18588303 -0.81203073 163 137 115
-0.20654665 -0.18583968 -0.81038898 130 136 115
-0.20661081 -0.18592198 -0.81065792 137 135 116
-0.20659636 -0.18799314 -0.8097648 152 136 116
-0.20639972 -0.18669321 -0.80935824 124 135 116
-0.20626585 -0.19243799 -0.81025982 171 136 119
-0.2070345 -0.19120078 -0.81231058 160 137 116
-0.20679772 -0.19159232 -0.81168181 163 137 117
-0.20679292 -0.19146176 -0.81163007 164 137 117
-0.20654149 -0.19291809 -0.81125504 163 137 116
-0.20734657 -0.18974467 -0.81287497 159 137 117
-0.20719022 -0.18956389 -0.8121056 160 137 118
-0.20601065 -0.19277793 -0.80955595 175 136 120
-0.2065814 -0.19130562 -0.81086808 168 136 119
-0.20618565 -0.1923528 -0.80998313 173 136 119
-0.20665354 -0.18953143 -0.8095302 161 136 117
-0.2051782 -0.1968793 -0.81014246 172 132 115
-0.20644422 -0.19425923 -0.81287968 160 136 114
-0.20509747 -0.19651107 -0.81216431 176 132 117
-0.2066455 -0.1941047 -0.81223971 156 136 113
-0.20524906 -0.19669425 -0.8104533 171 132 115
-0.20586784 -0.1946578 -0.8099615 169 135 116
-0.20562626 -0.19584 -0.80983084 168 133 115
-0.20641658 -0.19366498 -0.81115049 163 136 115
-0.20597501 -0.1949378 -0.81044352 166 134 116
-0.20587419 -0.19570115 -0.81053126 164 134 114
-0.20196529 -0.19710223 -0.81139678 53 136 112
-0.20482422 -0.19645976 -0.8126232 167 133 117
-0.20242491 -0.19705333 -0.81137085 73 135 113
-0.20411804 -0.19704877 -0.81055468 138 133 115
-0.20469366 -0.19679704 -0.81130368 161 132 116
-0.2017556 -0.19601879 -0.81285369 37 129 121
-0.20117612 -0.19684577 -0.81167287 14 136 114
-0.20348674 -0.19654177 -0.81241894 115 133 116
-0.20480323 -0.1976441 -0.80905259 168 130 115
-0.20450491 -0.19789718 -0.80918229 164 130 113
-0.20255965 -0.19760363 -0.81035471 85 134 112
-0.20357351 -0.19745551 -0.8098886 122 133 114
-0.20143646 -0.19814885 -0.81078422 54 134 109
-0.2097376 -0.13760957 -0.82634443 177 126 120
-0.21008085 -0.13802043 -0.82737821 138 128 122
-0.20968658 -0.13705549 -0.82616621 194 127 119
-0.20939554 -0.13727398 -0.82471764 190 121 122
-0.2098331 -0.13910443 -0.82779676 89 128 124
-0.20906045 -0.13932781 -0.82500166 194 121 122
-0.20918763 -0.13909534 -0.82502836 194 121 122
-0.20773065 -0.14195202 -0.82517666 139 125 126
-0.20811267 -0.14127249 -0.82473809 167 123 125
-0.20790778 -0.14177686 -0.82466185 160 125 126
-0.20856594 -0.14017002 -0.82487673 184 122 123
-0.20709102 -0.14626703 -0.8257283 26 131 120
-0.20705466 -0.14589614 -0.82555753 27 132 120
-0.2074338 -0.14287643 -0.82511342 121 127 126
-0.20727433 -0.14310163 -0.82578737 89 128 126
-0.20701344 -0.14423376 -0.82641369 30 129 123
-0.20711094 -0.14333367 -0.82647717 55 128 125
-0.20691189 -0.14382136 -0.82718945 11 128 126
-0.20725596 -0.14456409 -0.82496905 80 129 122
-0.2071173 -0.14675316 -0.82550883 25 131 120
-0.20713438 -0.14704755 -0.82585567 17 128 122
-0.20712811 -0.14682698 -0.82598782 18 130 122
-0.20715798 -0.14779897 -0.82554042 12 130 125
-0.20935544 -0.15963911 -0.82462698 38 137 107
-0.20927903 -0.15920369 -0.82489216 38 139 105
-0.20681326 -0.1777126 -0.82610267 0 128 128
-0.20623487 -0.17711429 -0.82562369 0 128 128
-0.20614032 -0.17686091 -0.82538968 0 128 128
-0.20795405 -0.17733873 -0.82549262 0 128 128
-0.20767416 -0.17666596 -0.82487714 0 128 128
-0.2055752 -0.17599037 -0.82463557 0 128 128
-0.20971222 -0.1779564 -0.82540268 0 128 128
-0.20963325 -0.17871535 -0.82633913 0 128 128
-0.21034767 -0.1782248 -0.82524902 0 128 128
-0.21047243 -0.1810994 -0.82846689 0 128 128
-0.21074083 -0.18060416 -0.82769829 0 128 128
-0.21031307 -0.17941453 -0.82664454 0 128 128
-0.21036756 -0.1806743 -0.82805485 0 128 128
-0.21063012 -0.17996252 -0.82564837 0 128 128
-0.21052738 -0.17974328 -0.82517982 0 128 128
-0.21112704 -0.18123467 -0.82793868 0 128 128
-0.21090694 -0.18155867 -0.82702702 0 128 128
-0.21062265 -0.17899987 -0.82550454 0 128 128
-0.21120627 -0.18162417 -0.82832551 0 128 128
0 0 0 1 0 0 0 1 0 0 0 1 0 0 0 0 0 1033 1 0 0
