ply
format ascii 1.0
comment PCL generated
element vertex 929
property float x
property float y
property float z
property uchar red
property uchar green
property uchar blue
element camera 1
property float view_px
property float view_py
property float view_pz
property float x_axisx
property float x_axisy
property float x_axisz
property float y_axisx
property float y_axisy
property float y_axisz
property float z_axisx
property float z_axisy
property float z_axisz
property float focal
property float scalex
property float scaley
property float centerx
property float centery
property int viewportx
property int viewporty
property float k1
property float k2
end_header
0.027207756 0.099937499 -0.75785917 39 135 110
0.026871068 0.10047113 -0.75804609 40 135 111
0.027206663 0.1007508 -0.75808817 38 136 110
0.028909992 0.096292116 -0.75680435 37 136 111
0.029050669 0.097520366 -0.75708061 34 136 111
0.028619161 0.095907785 -0.75673509 38 136 111
0.028485771 0.09597826 -0.75676084 38 136 111
0.029204967 0.096886814 -0.75692225 34 136 110
0.026815195 0.098701157 -0.75756031 41 136 111
0.027012484 0.098933242 -0.75760162 40 135 111
0.019207049 0.092912741 -0.75698346 39 135 110
0.018569706 0.091843575 -0.75679958 36 136 111
0.019018427 0.092144892 -0.75681669 37 137 111
0.022345524 0.092408359 -0.75646055 41 135 113
0.023992406 0.092495307 -0.75628525 42 135 114
0.022024402 0.092101917 -0.756423 40 135 113
0.023085324 0.091978468 -0.75626558 41 135 114
0.027179943 0.092630863 -0.75604081 40 135 114
0.028932173 0.091810055 -0.7557531 38 137 113
0.02719208 0.092949219 -0.7561143 40 135 113
0.02674911 0.092852905 -0.75611627 40 135 113
0.027137371 0.092984304 -0.75612551 40 135 113
0.027884779 0.092934638 -0.75607276 40 135 114
0.02588553 0.092439353 -0.75606966 42 135 114
0.030918667 0.092241526 -0.75571227 37 136 113
0.031741939 0.09206143 -0.75559628 38 134 113
0.032227233 0.093154773 -0.75584424 35 134 112
0.031037986 0.091910072 -0.75561494 38 135 113
0.031727791 0.093357697 -0.75593925 34 135 112
0.030060206 0.095030203 -0.7564432 36 135 111
0.029743483 0.094642445 -0.75636947 36 136 112
0.029351771 0.095432661 -0.75657415 36 136 111
0.02945273 0.093564034 -0.7561335 38 136 113
0.029775022 0.0924135 -0.75584853 37 136 113
0.017499303 0.087900758 -0.75599647 42 136 105
0.017054031 0.090354078 -0.7566641 38 136 108
0.016882814 0.09000273 -0.75661063 40 136 108
0.017498055 0.089462787 -0.75637096 38 137 106
0.017401563 0.091179766 -0.7567997 36 137 108
0.016793191 0.088224038 -0.75620049 43 136 106
0.020777883 0.090168901 -0.7561484 37 136 111
0.019807728 0.087974228 -0.7557947 33 137 107
0.020219946 0.089130051 -0.75598991 36 137 108
0.01946079 0.08892829 -0.7560181 38 137 108
0.021229552 0.090657152 -0.75620574 37 136 111
0.018029686 0.09048555 -0.75654346 37 137 108
0.019035313 0.090480745 -0.75641257 38 137 109
0.018933218 0.089849748 -0.75627452 39 135 108
0.017731169 0.090478621 -0.75658029 37 136 108
0.019769646 0.091443814 -0.75654858 37 137 111
0.018811647 0.089125559 -0.75611669 40 135 108
0.025064562 0.089111477 -0.7554388 35 134 114
0.023785733 0.087951757 -0.75535852 30 136 112
0.023560498 0.088993125 -0.75559759 33 135 112
0.024444256 0.090840265 -0.75586563 39 135 113
0.022265887 0.088185884 -0.75559092 30 136 110
0.024726423 0.089208871 -0.75549972 35 135 113
0.023031116 0.089470245 -0.75575888 33 137 110
0.025115214 0.091606237 -0.7559396 42 135 115
0.022554478 0.09087237 -0.75609797 37 136 112
0.023038585 0.090742476 -0.75601405 37 136 112
0.022623284 0.089836635 -0.75588137 34 136 111
0.027356867 0.088781253 -0.75517195 34 134 115
0.02846851 0.088451035 -0.75497425 34 135 114
0.026342239 0.088176742 -0.75512463 33 134 114
0.026620472 0.088630438 -0.75521004 33 134 114
0.027795166 0.08856307 -0.75507194 34 135 114
0.027106328 0.088868745 -0.75521982 34 134 115
0.02715441 0.090347387 -0.75555331 37 135 114
0.026017739 0.090356775 -0.75561774 38 135 115
0.02573357 0.090245731 -0.75561082 38 135 115
0.025659585 0.089406252 -0.75544423 36 134 115
0.025633268 0.090416387 -0.75565106 38 135 115
0.032911096 0.091140084 -0.75527221 37 134 113
0.030142555 0.088143364 -0.75475413 36 135 113
0.033057418 0.089202881 -0.7548188 40 133 114
0.030106943 0.088570498 -0.75485426 35 135 113
0.031766329 0.087930091 -0.75460583 39 133 114
0.029492175 0.090782076 -0.75545859 38 136 114
0.032838631 0.091764212 -0.75542712 37 134 113
0.029511686 0.091641009 -0.75567293 38 137 113
0.030227073 0.090127669 -0.75523293 37 135 113
0.029602641 0.088232413 -0.75480843 35 135 113
0.034316953 0.088179052 -0.75455582 36 134 113
0.03430175 0.088850506 -0.7547093 33 135 113
0.03360036 0.088232048 -0.75458002 38 136 113
0.033993252 0.08918082 -0.75479048 35 135 113
0.033356223 0.089404225 -0.75485331 38 135 114
0.009454757 0.08647643 -0.75748712 69 133 109
0.0097341351 0.085663885 -0.75721067 74 132 110
0.012442647 0.086470351 -0.75667965 67 133 109
0.012702149 0.08621411 -0.7565586 69 132 109
0.013363731 0.086185887 -0.7563861 69 131 110
0.01015838 0.085247032 -0.75699973 77 132 110
0.010014458 0.086235113 -0.75726706 69 133 109
0.011459024 0.086142167 -0.75686198 70 133 110
0.010234366 0.08606901 -0.75717014 70 133 109
0.015846906 0.085242577 -0.75571966 68 129 108
0.016758187 0.084212065 -0.75534534 71 128 108
0.014508052 0.085158557 -0.75593495 74 129 109
0.021193085 0.084701836 -0.75492042 43 138 103
0.020973343 0.086928777 -0.75546014 36 137 107
0.020133365 0.085648485 -0.75525725 46 134 106
0.020402588 0.086371481 -0.75539458 42 134 107
0.019149266 0.086711466 -0.75558883 45 135 107
0.023757216 0.085628018 -0.75483024 36 137 108
0.02375141 0.085393928 -0.75477827 36 136 108
0.024625201 0.084163778 -0.7544015 30 136 107
0.024552645 0.084091 -0.75439346 30 136 107
0.02307196 0.085567214 -0.75489533 38 138 107
0.022849865 0.086857907 -0.75522089 33 137 108
0.023519879 0.087544866 -0.75529838 31 136 111
0.024638319 0.087630004 -0.75518215 33 133 113
0.021630853 0.085624538 -0.7550838 38 138 105
0.022100894 0.085363239 -0.75496608 39 137 105
0.028949425 0.085739866 -0.75437951 36 134 111
0.028746348 0.086614266 -0.75455022 33 135 111
0.029064696 0.086625822 -0.75453293 35 135 112
0.029098954 0.08684475 -0.75457054 35 135 112
0.027954832 0.087741382 -0.75485283 33 134 114
0.027111867 0.086586989 -0.7546804 31 135 112
0.027634833 0.087692924 -0.75487494 33 136 113
0.026262866 0.087417461 -0.75495464 32 134 114
0.027941523 0.08694566 -0.75467539 33 134 113
0.027409522 0.086821057 -0.75470227 33 134 113
0.032797258 0.086724088 -0.75430936 41 134 112
0.032813981 0.087259121 -0.75441283 41 134 113
0.030987546 0.08689861 -0.75446481 37 135 112
0.030491617 0.087644942 -0.75463033 37 134 113
0.031034859 0.087353028 -0.7545442 38 134 113
0.032169037 0.087372981 -0.75447839 40 134 113
0.034289084 0.086923435 -0.75430256 36 135 111
0.033343848 0.087265924 -0.75438434 41 134 113
0.033264887 0.086871393 -0.75430852 41 134 112
0.005792615 0.080114372 -0.75735444 111 130 113
0.003987866 0.080484137 -0.75809532 108 129 110
0.0041015465 0.080140971 -0.7579897 110 130 111
0.016990943 0.083301514 -0.75510758 75 128 108
0.016660092 0.083679289 -0.75524771 74 128 108
0.016273709 0.083634049 -0.75530446 76 127 108
0.023973547 0.083759911 -0.75438643 36 136 107
0.022936901 0.083092511 -0.75435793 49 134 106
0.0028739795 0.078540191 -0.75811887 134 127 111
0.0028216937 0.078387439 -0.75810695 136 127 111
0.0051066536 0.079482861 -0.7574808 120 129 113
0.0029262926 0.077697471 -0.75792545 145 126 112
0.0054359343 0.07822752 -0.75711089 129 129 113
0.005708335 0.078750186 -0.75711513 122 130 113
0.0028657254 0.076548547 -0.75771505 158 125 112
0.0054627405 0.078554779 -0.75716597 126 129 113
0.005650294 0.076487601 -0.75668854 141 128 112
0.0054780925 0.077936843 -0.75703806 131 128 113
0.0086390758 0.078694992 -0.75612682 117 128 113
0.0087925587 0.076865435 -0.75572795 128 129 111
0.008818727 0.07878457 -0.75608546 116 128 113
0.0078802314 0.076956421 -0.75604206 131 128 112
0.0092577655 0.077858031 -0.75576591 120 129 111
0.00782267 0.076384574 -0.7559517 134 128 111
0.0068065282 0.0787545 -0.75674605 120 129 113
0.0073140254 0.079579756 -0.75674063 113 129 113
0.0063188598 0.079854712 -0.75712591 112 130 113
0.0066893459 0.078078732 -0.75665128 126 129 113
0.0061467327 0.078099169 -0.75683576 126 129 113
0.0074977595 0.079076245 -0.75657988 117 129 113
0.013607781 0.076729059 -0.75432515 103 134 105
0.012683769 0.078644231 -0.75496495 109 129 110
0.013337243 0.078153096 -0.75468552 105 131 108
0.012599115 0.076568432 -0.75457293 109 133 106
0.012747593 0.077449575 -0.75470811 109 131 108
0.011760718 0.076821081 -0.75485593 116 131 108
0.0099919392 0.077882588 -0.75554478 118 129 111
0.0098877111 0.076911546 -0.75538749 124 129 110
0.011765812 0.0785859 -0.75520384 113 128 111
0.010161262 0.076600417 -0.75525486 126 129 110
0.014306175 0.077816866 -0.75440997 101 132 107
0.0052517913 0.074661054 -0.75647479 166 127 115
0.0022474458 0.075580619 -0.75775009 173 124 113
0.0034998357 0.07535474 -0.75724965 168 126 114
0.0056129573 0.076152205 -0.75663573 143 128 112
0.0081622731 0.073925041 -0.75535315 166 126 114
0.0086208638 0.074836984 -0.75538731 151 127 113
0.0096278796 0.075276777 -0.75514114 143 127 112
0.0073283147 0.075477205 -0.75593537 147 128 112
0.007386711 0.075236335 -0.75586903 149 128 112
0.0061973277 0.075283982 -0.75626534 153 127 113
0.0061864848 0.075877145 -0.75638551 145 127 113
0.0088537866 0.07604406 -0.75555056 134 128 111
0.006971301 0.074458815 -0.75585127 162 127 114
0.0098613575 0.074788861 -0.75496876 150 126 112
0.010797982 0.075268328 -0.75480801 136 129 110
0.011790833 0.075151697 -0.75450885 131 130 109
0.011850539 0.076142721 -0.75469512 115 132 107
0.0120314 0.075717978 -0.75455803 121 132 107
0.012050536 0.075114757 -0.75442928 130 130 109
0.083396696 0.073092543 -0.7545923 58 132 114
0.082168877 0.073886164 -0.75443739 54 133 112
0.082423121 0.072610706 -0.75436246 63 132 115
0.08213456 0.074062794 -0.75444794 54 133 112
0.085267179 0.072770946 -0.75501019 58 132 115
0.085522704 0.072365969 -0.75501335 61 131 116
0.08476346 0.072532535 -0.75485152 60 133 115
0.084788486 0.073568717 -0.75498837 51 133 113
0.090046078 0.073704951 -0.75638855 50 131 116
0.090192951 0.07408452 -0.75647676 48 129 117
0.091784813 0.072682738 -0.75678438 54 132 120
0.091285393 0.072759196 -0.75664514 54 132 119
0.089582324 0.074140467 -0.75630754 48 130 116
0.094945267 0.073942214 -0.75798875 48 132 117
0.093245037 0.072975323 -0.75729245 54 131 120
0.093424685 0.073443182 -0.7574057 51 132 118
0.092580996 0.07406377 -0.75720477 47 130 118
0.092488579 0.074087068 -0.75717747 47 130 118
0.093504436 0.073078096 -0.75738871 54 131 120
0.083519422 0.071687534 -0.75448024 71 131 114
0.083813809 0.07202027 -0.75456631 67 132 115
0.08587499 0.068372093 -0.75467652 116 127 111
0.085855193 0.069099575 -0.75474012 107 128 111
0.086010747 0.069776461 -0.75483775 98 130 111
0.086587869 0.069136582 -0.75490594 107 129 110
0.084891751 0.069780327 -0.75459021 97 129 112
0.086070098 0.070060648 -0.75487739 95 130 112
0.085956104 0.070704423 -0.75492203 86 130 113
0.086074166 0.070373431 -0.7549122 91 130 112
0.085896924 0.072120517 -0.75507349 63 132 116
0.086561844 0.071966268 -0.75521863 66 132 116
0.087027669 0.069730386 -0.75507087 99 130 111
0.090432212 0.070315473 -0.75610596 87 130 113
0.091474921 0.070116103 -0.75639331 86 131 109
0.090008244 0.068672851 -0.75578886 109 129 106
0.091421932 0.069376133 -0.75629151 96 130 106
0.091338672 0.070729896 -0.75642401 78 131 113
0.090375669 0.071827546 -0.75626588 65 132 118
0.089011736 0.06972041 -0.75561416 98 129 112
0.089812748 0.070884541 -0.7559883 80 130 115
0.091452822 0.072138831 -0.75662202 59 132 120
0.08964359 0.070592113 -0.75590384 85 130 115
0.095613532 0.069076069 -0.75776124 101 128 109
0.095158733 0.068618432 -0.75756055 106 128 107
0.094413236 0.068503045 -0.75727385 107 128 106
0.092997462 0.068383142 -0.75673592 108 129 103
0.093188375 0.069630109 -0.75689036 92 130 107
0.094761826 0.069516093 -0.75747174 94 129 109
0.09229029 0.069928102 -0.7566275 87 131 108
0.093820453 0.070823483 -0.75722826 76 131 112
0.09345267 0.072131976 -0.75726092 59 133 119
0.093189493 0.07205797 -0.75716686 60 132 119
0.094073787 0.071767397 -0.75742018 64 133 117
0.094731353 0.071425214 -0.75759387 69 132 115
0.096290946 0.070665501 -0.75812018 80 131 113
0.09620823 0.070136428 -0.758053 87 129 112
0.095790081 0.069718771 -0.75787181 92 129 111
0.085419305 0.068286568 -0.7545653 117 127 111
0.085946746 0.068086319 -0.75465715 123 127 111
0.091277003 0.066283904 -0.75583524 165 124 113
0.09107808 0.066775337 -0.75585335 152 126 110
0.09512604 0.064571217 -0.75691551 202 125 121
0.095693834 0.065424964 -0.75725925 181 126 118
0.095574945 0.066204123 -0.75734544 163 126 115
0.094855487 0.066207774 -0.75708908 164 125 116
0.093987167 0.064627789 -0.75651807 203 124 121
0.092705138 0.068024732 -0.75657547 117 128 105
0.094315305 0.068301864 -0.75721914 111 127 105
0.091885582 0.067618772 -0.7562086 128 127 106
0.095028423 0.067753643 -0.75740492 127 125 110
0.092758395 0.066187419 -0.75632352 168 123 115
0.094166957 0.068087839 -0.75713193 117 127 107
0.096026905 0.064939849 -0.75729746 193 126 119
0.096530929 0.06461259 -0.757424 202 126 121
0.096850336 0.065567382 -0.75769442 181 126 117
0.097157829 0.065425165 -0.75778103 186 126 119
0.09697403 0.066626653 -0.75791198 156 127 112
0.096843012 0.068197399 -0.75812268 117 128 105
0.095748305 0.064972907 -0.75720382 191 126 119
0.095230237 0.064136066 -0.75679803 206 126 122
0.094083734 0.063752428 -0.75622511 210 125 122
0.096451141 0.063400693 -0.75689673 209 128 123
0.12007917 0.070442036 -0.77028805 77 132 107
0.11988191 0.06947083 -0.77003241 88 131 104
0.1199141 0.069039539 -0.77000803 94 131 104
0.11995605 0.069455929 -0.77008587 89 131 105
0.12068697 0.068500184 -0.77052295 109 129 104
0.12039367 0.06963972 -0.77043229 90 130 106
0.12163386 0.066957034 -0.77089548 149 126 113
0.1211758 0.068109542 -0.77081466 121 127 107
0.12139229 0.067789383 -0.77090359 130 126 109
0.12091271 0.067579985 -0.77049923 130 127 109
0.12106743 0.067163065 -0.77052033 140 127 110
0.02810589 0.084812976 -0.75426191 33 134 109
0.029143015 0.0849903 -0.75423014 36 134 109
0.029729936 0.084818035 -0.75415695 37 135 108
0.029834487 0.085046627 -0.75419194 37 135 109
0.032134414 0.08481802 -0.75398558 42 134 109
0.033198386 0.084706008 -0.7538895 43 135 108
0.032122795 0.084646493 -0.7539531 42 135 108
0.032906227 0.085242577 -0.75401407 42 135 109
0.033634819 0.08467792 -0.753878 42 135 108
0.034531914 0.08500234 -0.75392896 38 137 107
0.034154903 0.084437892 -0.75382447 40 136 107
0.036697652 0.084209099 -0.75374615 30 141 103
0.035127249 0.085956953 -0.75410485 34 137 108
0.034971628 0.086178884 -0.75414973 35 136 109
0.035233978 0.085827425 -0.75407845 34 136 108
0.03376979 0.086428948 -0.75421602 40 135 111
0.037824314 0.084036537 -0.75368106 28 140 105
0.021912478 0.081398949 -0.75409883 74 130 107
0.024237709 0.083141103 -0.7542184 42 133 108
0.024771083 0.081532031 -0.75385362 45 139 103
0.022845924 0.080965452 -0.75390816 72 130 108
0.024991501 0.081155017 -0.7537623 44 140 101
0.024438582 0.08155635 -0.75388658 50 136 105
0.027141888 0.081123844 -0.75359225 43 140 102
0.028229332 0.082603976 -0.75382292 40 137 105
0.028098233 0.081197858 -0.75351948 46 136 105
0.028345969 0.080471531 -0.75333321 51 135 107
0.028785162 0.083684631 -0.7540068 37 135 107
0.027252719 0.082230344 -0.75382102 39 140 103
0.026539449 0.083595045 -0.75412756 31 137 107
0.028002612 0.082718194 -0.75386882 38 139 104
0.026089398 0.083030492 -0.7540465 32 138 105
0.025898788 0.081834808 -0.75382805 38 140 103
0.03319405 0.083869144 -0.75373018 45 135 107
0.031444699 0.081293717 -0.75332838 53 132 109
0.030642366 0.080502339 -0.7532084 55 132 109
0.033073023 0.083116338 -0.75360763 48 134 108
0.03269574 0.080474257 -0.75317693 58 132 110
0.032069478 0.080488406 -0.75318742 57 132 110
0.032379881 0.083437607 -0.75368613 45 135 107
0.029946554 0.081690662 -0.75347084 49 132 109
0.030754268 0.081620909 -0.75339651 51 132 109
0.031033922 0.082197733 -0.75350565 48 133 109
0.030513046 0.082229093 -0.75355053 47 133 108
0.037034288 0.08318007 -0.75356412 36 138 105
0.037019733 0.080428317 -0.75310576 61 128 109
0.035670914 0.082334742 -0.75344378 43 137 107
0.034171607 0.080878638 -0.75322384 54 133 109
0.03624104 0.080946989 -0.75320393 55 131 108
0.033591505 0.082901813 -0.75356543 47 135 108
0.035138573 0.083912648 -0.75371146 36 139 105
0.035782266 0.083513483 -0.75363708 36 138 105
0.035002027 0.083750129 -0.75368643 38 138 106
0.034777403 0.082149498 -0.75342554 46 136 107
0.034267664 0.081740953 -0.75336498 50 134 108
0.038253769 0.080312356 -0.75303924 57 129 109
0.038603473 0.081439763 -0.753218 49 130 110
0.038276449 0.081880458 -0.75330395 46 132 109
0.037380539 0.080975622 -0.75318575 56 130 109
0.037310924 0.080423608 -0.75309622 61 127 110
0.037539668 0.081291251 -0.75323254 53 130 109
0.037530228 0.082689084 -0.75346589 40 135 106
0.015981011 0.076663114 -0.75386721 99 132 108
0.015270063 0.076893725 -0.75404733 100 132 107
0.016415102 0.076244637 -0.7537002 98 132 108
0.024993582 0.076420777 -0.75267971 81 134 107
0.027816188 0.076454096 -0.75254017 76 133 109
0.029148178 0.07871405 -0.75290906 62 133 110
0.027745552 0.077185176 -0.7526781 73 133 109
0.028422305 0.077664897 -0.75274181 69 133 109
0.028650835 0.077549502 -0.75271195 69 133 109
0.027725251 0.077275157 -0.75269556 72 133 109
0.027998315 0.079962701 -0.75324953 52 135 106
0.032270093 0.078309126 -0.75277436 66 132 111
0.030290067 0.076280817 -0.75242388 74 133 111
0.032593049 0.077127926 -0.75252372 71 131 113
0.031296894 0.077971496 -0.75273627 68 133 110
0.032238495 0.077293552 -0.75256866 70 132 112
0.031171091 0.080015808 -0.75312001 58 132 110
0.029413551 0.077793695 -0.75273162 67 132 110
0.031979486 0.079755262 -0.75306123 61 131 110
0.030434057 0.080003537 -0.7531274 57 131 110
0.029526748 0.076903917 -0.75256544 72 132 111
0.035022795 0.076342605 -0.75232106 80 130 115
0.036253154 0.07793203 -0.75262517 74 129 112
0.036959667 0.076439314 -0.7523157 86 129 115
0.035491563 0.078160256 -0.75268078 70 129 112
0.035191189 0.077083245 -0.75246787 75 130 113
0.035532895 0.07908652 -0.75286794 66 129 111
0.033267066 0.078846343 -0.75285333 65 131 112
0.033821385 0.077171944 -0.75250417 71 131 113
0.034341991 0.077609658 -0.75258541 70 130 113
0.035257656 0.079627261 -0.7529822 64 129 110
0.033393268 0.077981696 -0.75267541 68 131 113
0.040169284 0.077265546 -0.7524237 74 130 112
0.03905895 0.077363126 -0.75244641 74 131 112
0.040591732 0.078201629 -0.75257677 63 132 110
0.039604131 0.07787466 -0.75252819 67 132 111
0.039345276 0.078060508 -0.75256062 66 131 112
0.03771897 0.077684596 -0.75253946 75 129 113
0.03752685 0.079847738 -0.7529825 63 129 109
0.037931837 0.080061875 -0.75300908 60 128 109
0.038249839 0.079118125 -0.75280613 64 129 110
0.037301842 0.077902451 -0.75260031 77 128 113
0.040275648 0.079498589 -0.75279975 50 134 108
0.042983897 0.076349765 -0.75221795 77 128 114
0.044064339 0.078558281 -0.75258517 50 133 110
0.044140413 0.07682009 -0.75227219 68 130 113
0.042514428 0.07711041 -0.75236619 71 130 113
0.043204591 0.077327982 -0.75238729 66 130 112
0.042408243 0.078324497 -0.75257647 58 132 110
0.041233011 0.076560654 -0.75229871 81 129 113
0.04119337 0.077463426 -0.75244927 70 130 111
0.047372505 0.076293483 -0.75209641 60 130 114
0.046280809 0.078329444 -0.75244313 45 133 111
0.046583358 0.077969894 -0.75236118 48 132 112
0.045307476 0.077228397 -0.75230265 60 129 113
0.052422833 0.078310668 -0.75225872 24 133 113
0.050955884 0.077115007 -0.7521286 38 130 114
0.052708473 0.076488689 -0.75201148 36 129 114
0.051393356 0.077920601 -0.75222701 31 132 114
0.052194223 0.077311173 -0.75213057 32 131 114
0.052298546 0.078304395 -0.75226027 24 133 113
0.048881061 0.076538309 -0.75209618 50 131 113
0.050805025 0.078783661 -0.75236022 26 134 113
0.054442074 0.077348389 -0.75213331 28 129 116
0.05479208 0.07781028 -0.75219625 25 131 117
0.054485176 0.077221327 -0.75211668 30 129 116
0.055255696 0.076513223 -0.7520265 33 131 116
0.053991962 0.076821245 -0.75206125 33 129 116
0.055660162 0.079098411 -0.75237131 16 132 118
0.053400643 0.077680878 -0.75217229 27 131 115
0.054135691 0.077840917 -0.75219709 25 131 116
0.058863636 0.076963477 -0.75220203 28 129 117
0.058075365 0.077464111 -0.75221771 25 131 118
0.059113391 0.077668041 -0.75229824 24 130 118
0.059530474 0.076742098 -0.75221246 28 129 117
0.059505485 0.078654855 -0.75243533 17 130 120
0.057264522 0.077006653 -0.75212312 28 131 117
0.056975581 0.077187046 -0.75213569 27 131 118
0.056953032 0.078970179 -0.75237131 15 132 119
0.059091117 0.079124182 -0.7524755 15 130 121
0.05956221 0.079095826 -0.75249022 15 132 121
0.058261938 0.078626998 -0.75237709 17 132 119
0.061923321 0.076393351 -0.7523272 28 131 115
0.063020863 0.078463659 -0.75265425 18 132 118
0.062948167 0.07644996 -0.75240827 27 131 115
0.062293477 0.077583872 -0.75249636 24 131 117
0.062594809 0.076325633 -0.75236773 28 131 115
0.060809184 0.076200105 -0.75222337 31 129 115
0.060806241 0.078519486 -0.75249565 17 132 119
0.062085651 0.078512132 -0.75259048 18 132 118
0.061156705 0.079218015 -0.75260377 14 132 121
0.061385989 0.079139538 -0.7526117 14 132 120
0.066810131 0.077375308 -0.75283146 23 131 117
0.068052962 0.07808879 -0.75302589 19 130 118
0.065571927 0.076827593 -0.75266087 25 131 115
0.066112727 0.0771228 -0.7527433 24 131 116
0.066427253 0.076972038 -0.75274569 25 130 117
0.064691119 0.076604083 -0.75255877 27 131 115
0.069372892 0.077018753 -0.75301284 27 130 119
0.068930395 0.076259032 -0.75286597 30 129 117
0.070442848 0.077926733 -0.75326222 24 131 118
0.069011629 0.076252535 -0.7528764 30 129 117
0.069169983 0.076398134 -0.75291455 30 128 119
0.071673214 0.076324277 -0.75324827 33 133 115
0.068462603 0.076914839 -0.75289428 26 130 119
0.013511491 0.074705981 -0.7539556 128 129 108
0.013108347 0.073030435 -0.7537365 157 123 112
0.01201651 0.074093141 -0.75423151 147 127 111
0.014640727 0.072615311 -0.75331521 155 122 112
0.015988128 0.073274128 -0.75317961 139 125 109
0.017268689 0.072309442 -0.75271428 141 125 106
0.014099748 0.072553448 -0.75341254 159 122 112
0.017511889 0.072580069 -0.75272185 136 126 106
0.01399136 0.073574044 -0.7536335 144 125 110
0.013779381 0.075508669 -0.754049 114 132 106
0.01387118 0.0745456 -0.75384474 129 128 108
0.016406193 0.07593143 -0.75364023 102 131 108
0.015243581 0.075073533 -0.75369084 119 129 109
0.014203738 0.074973859 -0.75386578 122 130 108
0.020783983 0.072546884 -0.75215387 129 127 107
0.01986566 0.072272502 -0.75224251 133 126 106
0.019604206 0.074200451 -0.75279677 121 127 109
0.020372858 0.07291992 -0.75232428 128 127 107
0.020195356 0.074960545 -0.75288951 114 128 111
0.017878268 0.074450746 -0.75306702 116 128 108
0.017691484 0.072922818 -0.75276691 132 126 106
0.018140422 0.073219962 -0.75277448 130 126 107
0.023950094 0.073511757 -0.75204736 105 131 104
0.023241837 0.073363662 -0.75207323 111 130 106
0.023793649 0.072656184 -0.75184953 111 130 103
0.024440853 0.073046297 -0.75188893 105 131 103
0.021753721 0.072464943 -0.75198233 126 127 106
0.02173261 0.073035575 -0.75213391 123 127 108
0.023988482 0.076060347 -0.75269538 90 133 109
0.02887998 0.073035814 -0.75171882 92 132 107
0.028375126 0.075018808 -0.75218594 82 133 107
0.026589859 0.072413564 -0.75162172 100 132 102
0.027096789 0.072516665 -0.75163525 98 133 103
0.028081862 0.072942503 -0.75171345 94 133 105
0.028363258 0.074234188 -0.7520054 87 133 107
0.027159488 0.074899673 -0.75219768 85 133 106
0.027307499 0.07607758 -0.75248349 79 134 109
0.026043242 0.074839748 -0.75222433 88 133 105
0.026732877 0.076075889 -0.75250441 80 134 108
0.026951605 0.074089631 -0.75200504 90 132 104
0.030507127 0.072425149 -0.75153929 90 133 107
0.031422846 0.07284788 -0.75161159 87 132 108
0.032312792 0.074728437 -0.75200945 80 131 112
0.032314811 0.074642852 -0.75199038 80 131 112
0.032901682 0.075338833 -0.75213146 77 132 113
0.030646797 0.073649094 -0.75180918 88 132 110
0.031500097 0.075520821 -0.7522136 78 131 112
0.029953646 0.07297112 -0.75167477 91 132 108
0.031806927 0.075818963 -0.75227261 76 133 112
0.031184781 0.074402653 -0.75196582 83 132 111
0.035811812 0.072623432 -0.751468 85 134 108
0.035818618 0.072858974 -0.75152218 85 134 109
0.034783136 0.072339907 -0.75142366 84 134 108
0.035352636 0.074321464 -0.75186908 85 131 112
0.034752931 0.072628714 -0.75149089 84 133 108
0.036837384 0.072359808 -0.75138617 87 135 108
0.034274872 0.073485658 -0.75169724 82 133 109
0.034074124 0.075957373 -0.75225097 77 131 115
0.03494022 0.074516743 -0.75191867 83 132 112
0.035758805 0.07559894 -0.75214946 85 130 114
0.033860881 0.073512733 -0.75170857 81 133 109
0.039081473 0.07236138 -0.75137758 88 133 109
0.037497822 0.07256946 -0.75142705 88 134 108
0.038659684 0.072454371 -0.75139922 88 133 109
0.038558248 0.072489403 -0.75140733 88 133 109
0.040398978 0.07370536 -0.75167972 88 131 111
0.038470235 0.075299703 -0.75205076 87 130 113
0.038120046 0.07498835 -0.75198102 87 131 112
0.039656535 0.075661756 -0.75212729 86 129 114
0.040737003 0.075906746 -0.75217748 85 129 114
0.037118282 0.076035306 -0.75222844 88 130 115
0.043430403 0.072944246 -0.75154006 81 131 112
0.043421809 0.072940826 -0.75153923 81 131 112
0.044112455 0.073477715 -0.75165141 79 131 113
0.043595694 0.073300615 -0.75160587 80 131 112
0.044814683 0.073228709 -0.75162947 76 132 113
0.041524306 0.073729411 -0.75167108 86 130 111
0.041360322 0.073224202 -0.75156099 88 130 111
0.042830281 0.075896285 -0.75212765 80 128 114
0.042039387 0.074098043 -0.75174117 84 129 112
0.04371658 0.075524956 -0.75202072 77 128 114
0.042855211 0.075403862 -0.75201559 80 129 113
0.047026634 0.073600955 -0.75166678 67 133 113
0.046323083 0.073141359 -0.75159836 71 133 113
0.048581988 0.073791899 -0.75169778 62 134 113
0.047674414 0.07420633 -0.75175625 63 132 113
0.048051201 0.074411906 -0.75178695 61 133 113
0.04841074 0.07242085 -0.75149769 67 136 112
0.04659602 0.07593032 -0.7520557 64 130 114
0.045406897 0.073126562 -0.7516039 74 133 113
0.045689605 0.073152132 -0.75160164 73 133 113
0.046340264 0.074513167 -0.75181925 68 132 113
0.04551091 0.074502185 -0.75183666 72 131 114
0.050530963 0.072517194 -0.75147682 63 135 113
0.051188264 0.072783865 -0.75150222 60 135 113
0.052412327 0.072771162 -0.75147438 59 134 113
0.051158793 0.073783427 -0.75165021 54 133 113
0.052509252 0.075065479 -0.75181061 45 131 113
0.049499985 0.073893279 -0.75169998 58 133 113
0.051470604 0.075116597 -0.75183982 46 131 114
0.050039016 0.074345127 -0.7517553 54 133 113
0.049980771 0.074132092 -0.75172538 56 132 113
0.05019924 0.075696543 -0.75194907 50 131 114
0.055376612 0.07228484 -0.75147176 58 134 112
0.054874167 0.073191307 -0.75156909 54 133 113
0.056376014 0.072986856 -0.75158721 52 134 112
0.056138743 0.072750412 -0.75155121 54 133 112
0.05373631 0.072715364 -0.75147742 58 134 113
0.056634888 0.072700225 -0.75155938 54 133 112
0.053664975 0.074251719 -0.75169039 50 131 114
0.053439163 0.073723473 -0.75161141 52 134 114
0.052845981 0.073505327 -0.7515763 54 133 113
0.053102303 0.07458394 -0.75173658 48 132 114
0.053161468 0.075131118 -0.75181758 44 131 114
0.057303183 0.072750002 -0.75160348 53 134 112
0.060244329 0.073045231 -0.75182539 51 131 115
0.060319226 0.07271307 -0.75179237 53 131 115
0.059580766 0.073951446 -0.75188619 45 132 114
0.05953981 0.074457675 -0.7519412 43 131 115
0.059632685 0.074927099 -0.75200063 40 131 114
0.058147758 0.075883754 -0.7520346 34 131 116
0.057067405 0.075052492 -0.75187308 40 131 115
0.058121245 0.075835608 -0.75202721 35 130 116
0.056884885 0.074047767 -0.75173914 46 133 114
0.057183899 0.073541157 -0.75169295 48 132 113
0.062727973 0.072473161 -0.75196236 54 130 118
0.063505143 0.074801095 -0.75226444 38 130 115
0.061235625 0.072540082 -0.75184232 54 131 116
0.062316611 0.07266552 -0.75194693 53 131 117
0.063977517 0.073109396 -0.75213313 49 130 119
0.06059999 0.074228957 -0.75198352 43 131 115
0.062574662 0.07577572 -0.75230277 33 131 115
0.061767768 0.074734695 -0.75212568 40 130 115
0.063641883 0.075404726 -0.75233787 34 131 114
0.063108802 0.075079024 -0.75226212 36 132 114
0.06786751 0.073458157 -0.75257337 46 130 118
0.06790743 0.072930321 -0.75255036 49 131 117
0.066283017 0.072639331 -0.75233406 51 131 119
0.065746717 0.07330738 -0.75230318 47 130 119
0.067928188 0.072959982 -0.75255448 49 131 117
0.064644143 0.072656929 -0.75214201 52 130 120
0.064534217 0.074105203 -0.75228059 42 130 117
0.066377699 0.074888311 -0.75249875 38 129 118
0.065106854 0.073145993 -0.75222647 49 130 119
0.065358415 0.074995041 -0.75243282 36 130 117
0.066530764 0.075275823 -0.75254953 35 129 118
0.071320646 0.072505683 -0.75288188 53 134 117
0.070920557 0.073679887 -0.75295109 47 133 116
0.070283934 0.07345055 -0.75286788 47 133 116
0.071787067 0.073922396 -0.7530579 46 134 116
0.072176605 0.073425837 -0.75305021 48 134 116
0.070744507 0.073340505 -0.75290269 48 132 116
0.068909734 0.074305445 -0.75275433 42 130 117
0.069434509 0.074197292 -0.75282031 42 132 116
0.069750272 0.073700204 -0.75283712 46 133 116
0.069674492 0.075837865 -0.75294012 33 131 117
0.06969405 0.075777672 -0.75293958 35 130 117
0.069657013 0.073951721 -0.75283772 44 132 116
0.073646553 0.07256835 -0.75310379 54 133 118
0.075768434 0.075208806 -0.75360852 46 135 113
0.073157713 0.072328515 -0.75303352 55 133 118
0.075594768 0.072504684 -0.75325698 56 134 119
0.073287606 0.07315474 -0.75314724 52 134 116
0.074321792 0.074895322 -0.7534312 46 134 114
0.074720815 0.07500983 -0.75348771 46 134 114
0.073196277 0.073469408 -0.75317007 51 134 116
0.072659865 0.073003709 -0.75306535 52 134 117
0.078599505 0.073219128 -0.75374591 57 133 116
0.078286998 0.074014843 -0.7537756 51 133 115
0.077969104 0.07305637 -0.75363201 56 133 117
0.079908893 0.073817573 -0.75400823 57 132 114
0.077759072 0.073600806 -0.75365287 53 133 117
0.078340076 0.072338119 -0.75361902 62 133 118
0.077739477 0.074552149 -0.75376225 48 134 114
0.076352976 0.072920524 -0.75337994 54 134 119
0.076855041 0.073079035 -0.75346452 54 133 118
0.081153549 0.07380072 -0.75423819 56 133 113
0.080638506 0.072520703 -0.75401407 65 133 115
0.080158547 0.074356429 -0.75410265 54 133 112
0.017566929 0.071880542 -0.75258386 147 125 108
0.01675638 0.070359565 -0.75252581 179 125 115
0.015950859 0.071873054 -0.75291979 156 124 110
0.016463241 0.072066627 -0.75284189 149 125 108
0.016463706 0.071655333 -0.75278509 156 124 110
0.021157311 0.070386373 -0.75168395 167 125 113
0.021207919 0.071866967 -0.75193995 138 126 108
0.020474238 0.069567546 -0.75167197 185 124 117
0.020387199 0.070928857 -0.75193381 160 125 112
0.02017476 0.068888001 -0.75160915 199 124 119
0.02138189 0.07211981 -0.75195092 132 126 107
0.018649526 0.072032109 -0.75241733 141 126 107
0.019529033 0.070623875 -0.75204176 168 125 114
0.020805646 0.072084099 -0.75204736 134 126 107
0.024959154 0.071793742 -0.75156403 116 130 103
0.025355956 0.07148543 -0.75145102 122 129 103
0.024671916 0.070623778 -0.75135088 145 125 108
0.021510083 0.069701441 -0.75149387 179 124 115
0.023401616 0.071707331 -0.75168729 128 128 106
0.023705386 0.072177224 -0.75174493 116 129 103
0.022032095 0.072222114 -0.75190067 126 127 106
0.024150643 0.071438372 -0.75157279 128 128 105
0.027584814 0.069437578 -0.75096834 162 124 112
0.026632652 0.069520146 -0.75100559 166 122 113
0.028813018 0.068906896 -0.75083023 166 126 113
0.027303787 0.070179373 -0.75113153 149 124 112
0.027250553 0.070978262 -0.75130177 131 127 108
0.026321897 0.069308348 -0.75096714 171 122 113
0.026884245 0.071271956 -0.75137132 124 128 107
0.028081911 0.071741357 -0.75144649 111 130 107
0.032712329 0.070725247 -0.75110507 120 126 110
0.032926016 0.070269644 -0.75099128 132 123 111
0.031843126 0.069806568 -0.75093019 142 125 112
0.030655833 0.069034308 -0.75080234 159 125 113
0.031455465 0.070048958 -0.75100225 136 127 111
0.031468797 0.070594713 -0.75112611 122 130 110
0.031848177 0.071014561 -0.75120604 112 131 109
0.031937044 0.071104839 -0.75122303 110 131 109
0.032402042 0.071957678 -0.75139278 91 132 108
0.030036705 0.069406949 -0.75090855 151 128 112
0.03706982 0.069636822 -0.75082511 128 130 110
0.036621671 0.071307309 -0.75116116 106 131 109
0.03533724 0.070471063 -0.75098288 131 124 111
0.035992526 0.07220982 -0.75136894 87 134 108
0.035044886 0.071379945 -0.7511974 107 129 109
0.035126951 0.071367286 -0.75119281 107 129 109
0.035422653 0.071292438 -0.7511695 110 128 110
0.033930261 0.070515625 -0.75102133 127 124 111
0.039647378 0.068791099 -0.75070155 144 127 112
0.039602965 0.070049256 -0.750925 124 128 111
0.038196828 0.069334254 -0.75076503 133 129 110
0.040171701 0.070732668 -0.75106007 114 129 110
0.038547754 0.069452018 -0.75079417 132 128 111
0.037526567 0.069014885 -0.75069845 137 128 111
0.039247647 0.072106995 -0.75132346 91 133 108
0.038628802 0.070505708 -0.75099939 116 130 110
0.038804553 0.070752084 -0.7510491 112 130 110
0.040525664 0.071891204 -0.75127769 95 131 109
0.04276152 0.06985563 -0.75097883 124 128 113
0.044720147 0.069345303 -0.75098902 130 127 111
0.043702602 0.070210174 -0.7510801 116 128 112
0.042317923 0.071771845 -0.7513032 94 131 111
0.043073069 0.070764631 -0.75114572 108 130 112
0.042098094 0.071330644 -0.75121802 102 130 111
0.042371731 0.070141546 -0.75101388 120 128 112
0.042480346 0.070244633 -0.75103551 119 129 112
0.048709206 0.069840118 -0.75112778 111 128 109
0.04804834 0.069297537 -0.75103706 122 127 109
0.047694795 0.069800243 -0.75110155 114 128 110
0.047882438 0.070465185 -0.75120014 102 130 110
0.047327247 0.07196933 -0.75142521 76 135 112
0.047610242 0.071776234 -0.75139475 78 135 111
0.047696617 0.071987547 -0.7514289 74 135 112
0.045823324 0.071366705 -0.75132531 91 132 112
0.045010086 0.071279779 -0.75130969 95 131 112
0.052650332 0.071282461 -0.75127208 81 131 112
0.05108241 0.069230862 -0.75102228 121 125 110
0.052277163 0.071524404 -0.75130254 77 132 112
0.051189579 0.069040969 -0.75099874 124 125 110
0.048921701 0.069723576 -0.75111157 113 127 109
0.048880678 0.070812173 -0.75126761 93 131 110
0.049635828 0.071589708 -0.75136244 78 133 111
0.048975185 0.069050424 -0.75101447 125 126 108
0.048889738 0.070669256 -0.75124705 95 131 110
0.053694304 0.06878376 -0.75099427 126 123 111
0.056335848 0.070991047 -0.75134414 82 129 111
0.056004751 0.068785474 -0.7510708 124 121 111
0.053599682 0.070111677 -0.75115281 102 127 112
0.053422388 0.070935629 -0.75124913 87 130 112
0.053208917 0.070253029 -0.75115889 100 128 112
0.054296587 0.070359938 -0.75120348 96 128 111
0.054973125 0.071759313 -0.75139534 68 133 112
0.060008653 0.071307443 -0.75161487 74 129 114
0.059980929 0.071418092 -0.75162381 72 129 115
0.057126179 0.072028384 -0.75150877 60 133 112
0.057228085 0.071648002 -0.75147003 68 131 112
0.058309082 0.071185432 -0.75148416 77 128 113
0.057225052 0.071442433 -0.75144535 72 130 112
0.059729375 0.071549036 -0.75161833 70 129 114
0.058225863 0.070715502 -0.75142288 86 127 113
0.064245045 0.071328111 -0.75198668 69 129 117
0.063434564 0.070738263 -0.75185454 80 129 115
0.062758014 0.070318617 -0.75175047 88 128 114
0.064236552 0.069614887 -0.75183892 96 128 112
0.063311636 0.069459058 -0.75173247 99 128 112
0.063967794 0.07188563 -0.7520082 61 129 119
0.06315399 0.071140148 -0.75186348 74 129 116
0.060849186 0.070891179 -0.75164235 80 129 113
0.061839528 0.072002642 -0.75183922 59 131 116
0.061567318 0.070415586 -0.75165522 87 128 113
0.065397292 0.069245957 -0.75194544 100 129 110
0.066267326 0.070153095 -0.75213104 87 129 112
0.066545188 0.070386946 -0.75218517 83 130 112
0.067471445 0.070579596 -0.75231153 82 129 113
0.066653088 0.071244411 -0.75227243 69 130 115
0.064769804 0.071743898 -0.75208241 63 130 118
0.064820446 0.07082884 -0.75201023 77 129 116
0.067533828 0.071850009 -0.7524333 60 131 116
0.064883314 0.07014709 -0.7519595 87 129 113
0.072247855 0.071242675 -0.75286645 72 131 116
0.071333483 0.070977457 -0.75274605 77 130 115
0.069378227 0.069613941 -0.75242597 100 126 112
0.071689248 0.072211966 -0.75289077 55 133 117
0.071124643 0.072229177 -0.7528373 55 132 117
0.069381401 0.069664873 -0.75243098 99 126 111
0.070679709 0.071593031 -0.75273526 66 131 115
0.072623402 0.071205489 -0.752895 73 131 116
0.07473594 0.071971059 -0.75313216 62 132 119
0.075132437 0.071271382 -0.75310779 73 131 118
0.075756006 0.071973883 -0.75321674 62 133 120
0.079654373 0.070448786 -0.75366789 90 130 113
0.079237655 0.069898859 -0.75355858 97 129 112
0.079948492 0.069059111 -0.75359935 107 128 109
0.080817826 0.071938299 -0.75399214 71 132 116
0.082619295 0.071422614 -0.75428718 75 132 114
0.082875796 0.069883309 -0.75418949 95 129 113
0.081650615 0.070255041 -0.75399667 91 130 113
0.082834736 0.068407096 -0.75405574 113 127 111
0.083301917 0.068721607 -0.75416452 109 128 112
0.082728989 0.068898998 -0.75407726 107 127 112
0.080661863 0.069106609 -0.75372696 106 128 110
0.08269053 0.069069326 -0.75408435 105 128 112
0.028890776 0.068177767 -0.75068873 178 125 114
0.081015341 0.06803102 -0.75368637 122 126 110
-0.011238074 0.094312385 -0.76843077 103 126 112
0.1146341 0.069639452 -0.76657706 98 129 106
0.11366557 0.070999995 -0.76612556 73 132 108
0.11384126 0.070827819 -0.76621383 76 131 107
0.11897815 0.069697551 -0.76940119 80 132 104
0.11731517 0.069136411 -0.76825762 98 129 104
0.11899683 0.0706788 -0.76952338 66 134 106
0.11806363 0.070176102 -0.76886052 79 131 106
0.1187399 0.068816118 -0.76914763 95 130 103
0.11798793 0.068777837 -0.76865464 99 129 104
0.11811394 0.069283031 -0.76879317 91 130 104
0.11557261 0.068840258 -0.76708925 111 128 104
0.116489 0.070585273 -0.76786429 79 131 107
0.11546431 0.070728801 -0.76719171 80 129 109
0.11659704 0.07009232 -0.76789093 87 130 106
0.1174898 0.071339779 -0.76860404 62 133 108
0.11949587 0.068664268 -0.76965499 97 130 103
0.11469292 0.067790747 -0.76640457 135 125 106
0.11477095 0.068206504 -0.76652014 125 126 104
0.11851123 0.067684524 -0.76883435 119 127 106
0.11794794 0.066796258 -0.76831722 144 124 111
0.11682068 0.068160526 -0.76781583 116 128 104
0.11566572 0.06793268 -0.76702702 129 125 106
0.11801259 0.067682199 -0.76851022 121 127 106
0.11797392 0.06732659 -0.76842546 130 126 108
0.11548169 0.068279609 -0.76696563 121 127 104
0.11933239 0.067986377 -0.76943445 110 129 104
0.026953777 0.10248727 -0.75861031 40 133 111
0.02715786 0.10228545 -0.75852633 38 133 112
0.026662983 0.10167333 -0.75840497 40 135 111
-0.0033753586 0.084548593 -0.76180583 108 126 110
-0.0032154121 0.085010394 -0.76183486 101 127 110
0.0049691452 0.085794687 -0.75873494 69 133 111
0.0050449618 0.085600615 -0.75866741 72 133 111
0.0069806473 0.086388566 -0.75821483 74 131 112
0.0071700355 0.087112524 -0.75831211 65 132 111
-0.0041376418 0.083598144 -0.76197052 128 123 112
-0.0047102887 0.082826942 -0.76209652 142 123 115
-0.0029120992 0.082113139 -0.76108444 127 126 112
-0.0025278761 0.081615515 -0.76080686 131 125 112
-0.0029293504 0.082996301 -0.76125932 115 127 111
-0.00028365059 0.080137439 -0.75962418 131 126 110
-0.0016893708 0.082107939 -0.76051867 116 126 109
-0.0017430193 0.081826046 -0.76048708 120 126 109
0.0034734483 0.083694443 -0.75882375 75 134 110
0.0037914182 0.080722608 -0.75820982 107 130 110
-0.0027847548 0.078117222 -0.76025915 173 125 116
-0.0024536727 0.078110442 -0.76012355 173 124 116
0.00029504474 0.078407653 -0.75912338 148 126 112
0.0010552169 0.078631282 -0.75885189 139 126 110
0.00088596542 0.078262642 -0.75884694 146 126 111
-0.00041642739 0.079533607 -0.75957543 140 125 111
-0.00058752089 0.078925252 -0.75954026 149 126 112
0.0014755835 0.079643503 -0.75888234 122 127 108
-0.0010889044 0.077781856 -0.75954163 168 125 115
0.0006794869 0.079178624 -0.7591055 135 126 111
0.0025591427 0.079707935 -0.75847441 117 127 109
0.0022686438 0.079305559 -0.75849962 123 127 108
0.097349577 0.073034167 -0.75878459 50 133 116
0.09760648 0.0728321 -0.75885803 51 134 117
0.097922213 0.073436663 -0.75907826 47 133 116
0.097640648 0.073606171 -0.75899005 46 134 115
0.096236721 0.073498122 -0.75840443 48 134 116
0.099242121 0.072677717 -0.75949579 48 134 115
0.098335765 0.073801205 -0.75929344 44 134 114
0.10158829 0.073373787 -0.76052737 42 135 113
0.097496606 0.071928665 -0.7586872 61 133 118
0.098625675 0.071208432 -0.75905746 73 132 114
0.098746911 0.069909468 -0.75894994 97 130 110
0.099566996 0.069691449 -0.75925565 100 130 109
0.098006032 0.070830017 -0.75876099 81 131 114
0.097749315 0.070293643 -0.7586022 91 130 112
0.097003251 0.069415361 -0.75828063 100 129 108
0.096598022 0.071289867 -0.75827235 72 132 116
0.097549476 0.068575345 -0.75841117 114 128 106
0.10344226 0.070348531 -0.76099265 94 129 107
0.1021709 0.069773212 -0.76037842 103 129 107
0.10144216 0.069512695 -0.76003414 105 129 106
0.10233045 0.068607658 -0.76031643 131 124 107
0.10172536 0.068760604 -0.76007205 125 126 106
0.10317934 0.07029932 -0.7608735 94 129 107
0.10111284 0.069921292 -0.75993812 94 131 107
0.10275815 0.071511753 -0.76082766 61 135 108
0.10144066 0.071710236 -0.76029283 59 135 110
0.10146851 0.070218906 -0.76012486 88 132 107
0.099978082 0.071754485 -0.75967789 60 133 113
0.10026524 0.069248922 -0.75949764 107 130 106
0.10518742 0.069014326 -0.76155454 122 126 105
0.10480464 0.069887698 -0.76150036 103 128 107
0.10536624 0.069737062 -0.76171064 105 129 105
0.1065004 0.069184639 -0.76210654 113 130 103
0.10503135 0.070527665 -0.76166636 88 129 107
0.10364135 0.070960082 -0.76114488 79 131 107
0.10412976 0.070057869 -0.7612446 101 128 107
0.10364427 0.068736427 -0.76089621 133 122 107
0.099160708 0.068284057 -0.75894409 125 127 106
0.099415466 0.067997783 -0.75898665 133 128 107
0.098172709 0.066944674 -0.75838518 153 126 112
0.098659232 0.065746613 -0.75836235 184 125 118
0.10297351 0.066879526 -0.76030725 170 122 113
0.10231607 0.065276712 -0.75974381 201 123 120
0.10020115 0.064766206 -0.758784 211 124 123
0.10283367 0.067474097 -0.76035917 160 121 111
0.10057827 0.066551782 -0.75924045 173 124 115
0.10041366 0.06799151 -0.75940078 137 126 108
0.10080356 0.067880742 -0.75955153 142 125 109
0.10114756 0.067032829 -0.75956392 164 123 113
0.099917665 0.06680344 -0.75899535 164 126 114
0.10245643 0.067582645 -0.76021814 156 122 111
0.10610342 0.065854788 -0.76142716 190 121 117
0.10492598 0.067253023 -0.76118588 163 121 111
0.10632396 0.067149147 -0.7617352 160 124 109
0.10653839 0.067522764 -0.76188523 151 125 107
0.10361838 0.067948885 -0.76076871 150 122 108
0.10466882 0.066777408 -0.76099497 172 121 113
0.10414137 0.065906346 -0.7606135 188 123 116
0.10474484 0.066612378 -0.76099664 176 121 114
0.10366676 0.065187573 -0.76028216 202 123 120
0.10531382 0.065972216 -0.76111817 188 122 116
-0.0083965585 0.090562925 -0.76581478 103 127 110
-0.006080443 0.086875528 -0.76371008 107 124 112
-0.0063904985 0.087023109 -0.7639221 105 125 112
-0.0046816543 0.08484754 -0.76252174 120 123 111
-0.0049407696 0.085052311 -0.7626965 120 123 111
-0.0054665403 0.084660687 -0.76285374 131 122 113
-0.0040705632 0.084962472 -0.76224577 112 124 111
-0.0055023292 0.083719663 -0.76265335 143 122 114
0.10726145 0.069691494 -0.76247036 102 130 104
0.10720005 0.06906338 -0.76236963 114 130 103
0.10668951 0.069178566 -0.76218021 113 130 103
0.11121816 0.070074119 -0.76456201 88 130 105
0.10892219 0.068700857 -0.76321089 119 129 102
0.10982779 0.069713905 -0.76378447 98 131 104
0.1088453 0.068490304 -0.76315147 123 128 102
0.11010872 0.068956695 -0.76387 111 128 104
0.10848439 0.069215328 -0.76302022 111 130 102
0.10852453 0.069847994 -0.76310951 98 131 104
0.10822081 0.069539554 -0.76291966 105 131 103
0.11304004 0.070617795 -0.76571506 80 131 107
0.11211241 0.068535216 -0.764965 117 127 104
0.11294721 0.068856984 -0.76550061 112 128 104
0.11279705 0.071049489 -0.76560634 72 131 108
0.11177714 0.070570245 -0.76493955 79 131 106
0.10885289 0.066826425 -0.76292646 162 126 110
0.11024737 0.066235572 -0.76359552 173 125 113
0.10849764 0.068202257 -0.76293159 130 128 102
0.10799824 0.068151258 -0.76265627 132 129 102
0.10984995 0.066854447 -0.7634688 159 125 110
0.11366247 0.068164617 -0.76586282 126 127 103
0.11218419 0.066095799 -0.7646758 175 125 114
0.11252087 0.066890478 -0.76499146 157 125 110
0.11248573 0.066442713 -0.76490742 167 125 112
0 0 0 1 0 0 0 1 0 0 0 1 0 0 0 0 0 929 1 0 0
