ply
format ascii 1.0
comment PCL generated
element vertex 955
property float x
property float y
property float z
property uchar red
property uchar green
property uchar blue
element camera 1
property float view_px
property float view_py
property float view_pz
property float x_axisx
property float x_axisy
property float x_axisz
property float y_axisx
property float y_axisy
property float y_axisz
property float z_axisx
property float z_axisy
property float z_axisz
property float focal
property float scalex
property float scaley
property float centerx
property float centery
property int viewportx
property int viewporty
property float k1
property float k2
end_header
0.039368697 -0.56820816 -0.73881447 68 130 111
0.044644464 -0.56775033 -0.73878688 54 131 111
0.041129246 -0.56817514 -0.73893523 65 131 111
0.0478625 -0.56794912 -0.73880893 47 133 110
0.046410613 -0.56806165 -0.73891711 52 132 111
0.051588524 -0.56833714 -0.73886764 51 132 112
0.033117961 -0.56878328 -0.73885316 69 128 114
0.034920067 -0.56922203 -0.73902458 66 129 113
0.040358268 -0.5709672 -0.74036604 58 132 116
0.039366778 -0.57199001 -0.74079347 50 133 117
0.04052458 -0.57194304 -0.74091846 56 132 118
0.040390555 -0.56849718 -0.73904991 66 130 111
0.040181436 -0.56842446 -0.73899645 68 130 111
0.037981119 -0.56909144 -0.73914576 65 129 112
0.037212882 -0.56900334 -0.73903853 66 129 111
0.044352077 -0.57210886 -0.74120253 60 131 116
0.044167597 -0.56929976 -0.7396242 56 132 113
0.041990291 -0.57181591 -0.74094498 57 132 117
0.044011168 -0.57088625 -0.74050522 58 131 115
0.042027675 -0.57155728 -0.74080175 57 132 117
0.044189975 -0.56925738 -0.73960137 56 132 113
0.041598324 -0.56843781 -0.73909003 65 131 111
0.042354964 -0.56984997 -0.73987651 59 131 114
0.041104451 -0.56934953 -0.7395739 64 131 113
0.043622203 -0.56904644 -0.73947024 58 131 113
0.041999739 -0.57088345 -0.74042994 58 132 116
0.041821226 -0.57104403 -0.74051297 58 132 116
0.047979806 -0.56970793 -0.73983651 52 133 112
0.048750691 -0.57194489 -0.74137557 59 133 114
0.046514325 -0.57216465 -0.74136037 60 131 115
0.048496351 -0.57221109 -0.74153376 59 134 114
0.047292903 -0.57181722 -0.74118596 59 132 114
0.0486985 -0.57090062 -0.7406792 56 133 113
0.046216633 -0.57141972 -0.74084491 58 132 114
0.047642238 -0.5691151 -0.73946375 52 132 111
0.046713863 -0.56932771 -0.7396124 54 131 112
0.045744479 -0.57034969 -0.74021494 56 132 113
0.045056883 -0.57098186 -0.74059057 58 132 114
0.045966201 -0.57105637 -0.74060309 57 132 114
0.046559043 -0.57023025 -0.74012208 55 131 113
0.05233926 -0.57169724 -0.74108052 61 133 113
0.051892884 -0.57029456 -0.74015713 57 132 113
0.051588848 -0.5704819 -0.74029416 57 132 113
0.051206861 -0.57020241 -0.74012119 56 132 113
0.050827272 -0.57031977 -0.74021411 56 132 113
0.051753633 -0.57220608 -0.74144369 62 133 113
0.049952518 -0.57017064 -0.74015403 54 133 112
0.049124829 -0.57088727 -0.74066633 56 133 113
0.049200844 -0.56996751 -0.740053 54 133 112
0.051129203 -0.56867659 -0.73911047 51 132 112
0.048953138 -0.5705083 -0.74042273 54 133 112
0.049333673 -0.57122618 -0.7408818 57 133 114
0.049068071 -0.56914335 -0.73951238 51 133 111
0.055905081 -0.56995767 -0.73995483 51 134 112
0.056285579 -0.56963164 -0.73974437 50 134 112
0.053903647 -0.57196623 -0.74125028 61 133 113
0.056162868 -0.57051897 -0.74031377 54 133 112
0.053625111 -0.57168651 -0.74107206 61 132 113
0.055972543 -0.56925273 -0.73950255 49 134 112
0.055560071 -0.57096308 -0.74060076 56 133 112
0.055083964 -0.56878668 -0.73917425 49 133 112
0.054926861 -0.56958574 -0.73970592 52 133 112
0.05624298 -0.56855273 -0.73904675 46 133 112
0.053468626 -0.57044852 -0.74024731 57 132 113
0.053548243 -0.57085884 -0.74052435 58 132 113
0.055691969 -0.56849205 -0.73899215 46 134 112
0.058751628 -0.57012224 -0.73996502 47 134 112
0.059154581 -0.57060736 -0.74026489 49 133 113
0.059071433 -0.57023609 -0.74001729 47 133 112
0.060075358 -0.57033032 -0.7400012 46 134 112
0.056644659 -0.56855452 -0.73905224 45 134 111
0.056802344 -0.56868762 -0.73913181 45 134 111
0.058196101 -0.57033062 -0.74013424 49 134 112
0.056703411 -0.57179546 -0.74112809 57 134 112
0.057001941 -0.56959546 -0.73970658 49 134 112
0.056732565 -0.56878614 -0.73919755 46 134 112
0.060569759 -0.57193857 -0.7410661 51 134 112
0.060857017 -0.57204008 -0.74115568 51 134 112
0.040391721 -0.57291424 -0.74128461 51 132 118
0.039664216 -0.57271093 -0.74112338 49 133 118
0.039859135 -0.57276708 -0.74116653 50 132 118
0.043613128 -0.57379901 -0.74214029 51 134 117
0.042457145 -0.57364076 -0.74191523 50 134 117
0.042834371 -0.57259876 -0.74142468 57 132 117
0.043405816 -0.57337171 -0.74189925 53 134 117
0.042943574 -0.57320857 -0.74178553 54 133 117
0.045479279 -0.57381159 -0.74226475 53 133 116
0.045762762 -0.57260984 -0.74158674 59 132 116
0.046675608 -0.5731383 -0.74197465 57 132 116
0.047378834 -0.57288527 -0.74187398 58 133 115
0.048138756 -0.57352734 -0.74232697 55 133 116
0.047523282 -0.5731433 -0.74204445 57 132 116
0.049028229 -0.57360339 -0.74241894 55 133 116
0.050203647 -0.57349104 -0.74232084 57 134 115
0.048845008 -0.57311416 -0.74211985 57 133 115
0.05253068 -0.57270837 -0.74174249 62 133 113
0.051974982 -0.57240564 -0.74156642 63 133 113
0.052152526 -0.57274175 -0.74177843 62 133 114
0.053316295 -0.57363391 -0.74235708 61 133 114
0.053253777 -0.5738076 -0.742468 61 133 114
0.055011142 -0.57229072 -0.74145681 61 133 113
0.056043159 -0.57309538 -0.74205428 61 133 112
0.056540016 -0.57320094 -0.74213129 60 134 112
0.058521524 -0.57319325 -0.742145 57 133 112
0.059920073 -0.57367378 -0.7425189 56 132 113
0.056696631 -0.57376403 -0.74255246 60 134 112
0.059077166 -0.57311159 -0.74208033 56 133 112
0.058054972 -0.57251501 -0.74159741 57 133 112
0.058189154 -0.57234013 -0.74144 56 133 112
0.060621727 -0.57317972 -0.74208951 54 133 112
0.061761614 -0.57307476 -0.74205273 52 134 112
0.06331896 -0.57317162 -0.74221194 52 132 113
0.063890934 -0.5733456 -0.74239129 51 134 112
0.063033804 -0.57306498 -0.7421059 51 134 112
0.062935226 -0.5724315 -0.74162513 50 133 113
0.064530529 -0.57291263 -0.74211633 50 133 113
0.066831894 -0.57318169 -0.74224395 50 133 112
0.067695297 -0.57327658 -0.74228835 50 133 112
0.067529514 -0.57308459 -0.74215138 50 133 112
0.070512675 -0.5736323 -0.74249095 50 131 113
0.070162944 -0.57350582 -0.7424041 50 133 113
0.068805024 -0.57316339 -0.74217671 50 132 113
0.01871559 -0.59174484 -0.73905075 49 133 110
0.020074336 -0.59105361 -0.73983216 51 134 110
0.020303559 -0.5914551 -0.73974645 52 134 110
0.019845739 -0.59134638 -0.73962682 51 134 110
0.020472886 -0.59053385 -0.74013245 51 134 110
0.021429533 -0.59020865 -0.74030119 50 135 110
0.025082296 -0.59051442 -0.74073899 52 135 109
0.02460633 -0.59142786 -0.74049288 54 135 109
0.025282856 -0.58957386 -0.74095631 50 135 109
0.023286581 -0.59081066 -0.74045497 52 134 110
0.021706726 -0.59054208 -0.74028325 51 135 110
0.021897741 -0.58983457 -0.74043667 50 134 110
0.028056815 -0.5915761 -0.74102235 55 135 108
0.029196922 -0.59145522 -0.74124241 55 134 109
0.02765456 -0.59134418 -0.74097639 54 135 108
0.025732677 -0.59120184 -0.74066806 54 134 109
0.033132572 -0.59132504 -0.74234688 52 134 110
0.030365895 -0.59119928 -0.74158365 53 134 109
0.03150158 -0.59155434 -0.74185461 54 134 109
0.029470723 -0.59073079 -0.74139184 52 134 109
0.030625975 -0.59046322 -0.74174011 51 134 109
0.030352777 -0.5902034 -0.74169505 49 135 109
0.033316806 -0.59085524 -0.74247748 50 135 109
0.020161191 -0.59272569 -0.73898649 49 133 110
0.020978501 -0.5929752 -0.73913074 50 135 110
0.021042798 -0.59267682 -0.73933518 51 134 110
0.025179876 -0.59353894 -0.73948288 55 134 110
0.023263983 -0.59394985 -0.7389732 52 134 111
0.024511252 -0.59433252 -0.738931 54 133 111
0.022923397 -0.59347284 -0.73919904 51 134 110
0.024187153 -0.59262878 -0.73986483 53 134 109
0.025321579 -0.59372771 -0.73939455 55 134 110
0.023054017 -0.59254456 -0.73977041 53 135 109
0.022068767 -0.59304792 -0.73934221 51 135 110
0.021722486 -0.59364116 -0.73893899 48 135 110
0.022307476 -0.59241015 -0.73975915 53 134 110
0.026743779 -0.59544998 -0.73903471 56 133 111
0.025694318 -0.59482706 -0.73891586 56 134 111
0.026036816 -0.59261435 -0.74035102 56 135 109
0.025438279 -0.59304124 -0.73982167 56 134 109
0.028755937 -0.59530985 -0.74008965 58 134 110
0.026200915 -0.59502399 -0.73904276 56 133 111
0.028563075 -0.5920825 -0.74100786 57 135 108
0.029046565 -0.59264058 -0.74093795 57 135 108
0.029138021 -0.59248567 -0.74099821 57 135 108
0.029101074 -0.59245384 -0.74100047 57 135 108
0.028130746 -0.59337372 -0.74056578 57 134 109
0.0278624 -0.59329146 -0.74054044 57 134 109
0.032822479 -0.5946691 -0.7414003 57 134 109
0.031098761 -0.5947029 -0.74090344 57 134 109
0.029811457 -0.59520972 -0.74040055 58 134 110
0.030626109 -0.59525818 -0.74061775 58 134 110
0.031477924 -0.59357268 -0.74132001 56 134 109
0.031269748 -0.59415799 -0.74110091 57 135 109
0.029954907 -0.59333301 -0.74096876 57 135 109
0.030819919 -0.59389204 -0.74104881 57 135 109
0.030350409 -0.59264034 -0.74127269 56 135 109
0.031026285 -0.59317273 -0.74130827 56 135 109
0.031879649 -0.59272444 -0.74166906 55 135 109
0.029872064 -0.59360969 -0.74086803 57 134 109
0.036890659 -0.59451246 -0.74257433 54 134 110
0.034299031 -0.59267229 -0.74236608 54 135 109
0.034551129 -0.594266 -0.74201 55 135 108
0.033794094 -0.59486133 -0.74162716 57 135 108
0.033949528 -0.59431672 -0.74182135 56 135 109
0.033451401 -0.59363967 -0.74186182 55 135 108
0.033340592 -0.59325457 -0.74193507 55 135 109
0.033391286 -0.59402156 -0.74173987 56 135 109
0.028431235 -0.59626478 -0.73928869 56 134 110
0.027139902 -0.59617424 -0.73871893 55 134 111
0.027193025 -0.59589815 -0.73894435 56 133 111
0.030126493 -0.59677434 -0.7399289 56 134 110
0.030461837 -0.59811258 -0.73919821 53 134 112
0.031019162 -0.59766746 -0.73991072 54 134 111
0.029933661 -0.59716105 -0.73951435 55 134 111
0.033157874 -0.59834266 -0.74041271 53 134 111
0.031555217 -0.59697336 -0.74037409 56 134 110
0.032340672 -0.59848189 -0.74013942 53 134 112
0.031907003 -0.59688312 -0.74050099 56 134 110
0.03101065 -0.59618121 -0.74045998 58 134 110
0.031271841 -0.59702134 -0.74027938 56 134 110
0.036205504 -0.597646 -0.74174768 54 135 110
0.034489691 -0.59910005 -0.74074858 52 134 112
0.0363102 -0.5965848 -0.74187988 55 135 109
0.034272008 -0.59932578 -0.74061882 51 135 111
0.036251925 -0.59658647 -0.74184942 55 135 109
0.035493828 -0.59868699 -0.7413013 53 136 110
0.034154363 -0.59709138 -0.74108094 55 134 110
0.033387654 -0.5970633 -0.74086666 55 134 110
0.034296971 -0.59591216 -0.74147952 57 134 109
0.033387732 -0.59887832 -0.74031693 52 134 112
0.03326384 -0.59895051 -0.74025911 52 134 112
0.03337146 -0.59825742 -0.74050027 53 134 111
0.037644751 -0.59667999 -0.7425549 57 135 109
0.0372326 -0.59744775 -0.74228793 56 135 109
0.033951782 -0.59966087 -0.74041778 51 135 112
0.035860106 -0.6004917 -0.7411902 50 135 111
0.036974158 -0.60036796 -0.74180263 52 135 111
0.034594737 -0.6001814 -0.74061424 50 135 112
0.037768487 -0.60136563 -0.7420935 50 134 111
0.037983336 -0.59981477 -0.74257511 54 135 110
0.038052779 -0.60096228 -0.74246371 51 135 111
0.037561651 -0.60105127 -0.74196124 50 135 111
0.037510585 -0.60025638 -0.7421416 52 136 110
0.062830709 -0.59042108 -0.75442129 56 134 113
0.062628381 -0.59140056 -0.75476575 57 133 113
0.063520856 -0.59137666 -0.75523865 56 134 112
0.063815288 -0.59085131 -0.75515467 55 134 112
0.064388946 -0.58890194 -0.75456178 53 136 114
0.064517759 -0.58950788 -0.75489378 54 136 113
0.065490022 -0.5884093 -0.75459361 56 136 114
0.06499926 -0.59176725 -0.75617123 56 134 112
0.065554678 -0.5909335 -0.7558111 58 133 113
0.060451116 -0.59507722 -0.7544083 57 134 113
0.062805846 -0.59225464 -0.75513601 57 133 113
0.062398911 -0.59289241 -0.75504112 57 133 113
0.0614134 -0.5935353 -0.75463343 58 132 113
0.063365892 -0.59239274 -0.75546694 56 133 112
0.061217111 -0.59349221 -0.75451845 58 132 113
0.0628528 -0.59416562 -0.75558466 58 134 112
0.063329659 -0.59408182 -0.75585049 58 135 112
0.060291111 -0.59882629 -0.7543847 55 133 113
0.062178154 -0.59840018 -0.75559521 57 134 113
0.06106938 -0.59937739 -0.75489569 55 134 113
0.061864953 -0.59870601 -0.75540125 57 134 113
0.060910136 -0.5983699 -0.75477362 56 133 113
0.061399121 -0.59648013 -0.75509399 58 135 112
0.061281841 -0.59749699 -0.75500947 57 135 113
0.06163789 -0.59807807 -0.75521618 57 135 113
0.060970839 -0.60230356 -0.75433338 50 134 112
0.061985299 -0.60264409 -0.7551387 50 133 113
0.061838061 -0.60188472 -0.75517946 51 134 113
0.06149146 -0.60183465 -0.75488961 51 134 113
0.061547257 -0.60064977 -0.75518292 53 134 113
0.062747881 -0.60203308 -0.75593013 51 133 113
0.063603312 -0.60231066 -0.75656402 50 135 113
0.061262965 -0.59983021 -0.75504822 54 134 113
0.063690104 -0.60096776 -0.75674438 53 135 113
0.06366232 -0.60124898 -0.75669956 52 134 113
0.062293585 -0.59992003 -0.75580251 54 134 112
0.064173982 -0.60014659 -0.75717318 55 135 113
0.063934691 -0.59985369 -0.75702161 55 135 112
0.065016635 -0.6029098 -0.75773972 51 134 113
0.065308124 -0.60184485 -0.75808966 53 135 113
0.065005712 -0.60084409 -0.75778544 55 135 113
0.064140983 -0.60602874 -0.75631207 51 134 113
0.062894754 -0.60511917 -0.75541264 50 134 112
0.063182086 -0.60388064 -0.75591111 50 133 113
0.064232603 -0.60619807 -0.75635761 51 134 113
0.063766517 -0.60353607 -0.75648785 48 134 113
0.063598186 -0.60513222 -0.7560209 50 134 113
0.063341789 -0.60628581 -0.75558972 51 135 112
0.065254509 -0.60542619 -0.75762314 51 134 113
0.065302782 -0.60674423 -0.75742215 51 134 113
0.065608829 -0.60606337 -0.75791037 51 134 113
0.065033719 -0.60429621 -0.7575919 50 134 113
0.065140858 -0.60444254 -0.75768441 50 134 114
0.063111417 -0.60832459 -0.75519019 54 133 111
0.012364516 -0.56416869 -0.73592508 53 133 112
0.011096363 -0.56383187 -0.73568565 50 133 112
0.010831659 -0.56431794 -0.73588264 52 133 112
0.015636086 -0.56403887 -0.73598897 55 133 112
0.017383393 -0.56253004 -0.73538536 50 134 113
0.01563444 -0.56386149 -0.7359165 54 133 112
0.017185295 -0.56278706 -0.73548889 51 134 113
0.015301102 -0.56422871 -0.73606408 56 132 113
0.015405957 -0.56284738 -0.73549801 49 134 113
0.021260161 -0.56377798 -0.73606801 60 132 112
0.020608157 -0.5622167 -0.73525715 51 134 112
0.019386232 -0.56369591 -0.73591095 56 133 112
0.020680571 -0.5619787 -0.73514414 50 134 111
0.020366646 -0.56239098 -0.73532808 51 134 112
0.017853415 -0.56269944 -0.73545301 51 134 113
0.019009242 -0.56240648 -0.73532116 50 135 111
0.022238109 -0.56184429 -0.73520529 50 134 111
0.022008531 -0.56314206 -0.73582202 57 132 113
0.022129565 -0.56203943 -0.73529041 51 134 112
0.022740861 -0.56283224 -0.73574328 54 133 112
0.022756102 -0.56281853 -0.73573804 54 133 112
0.025023492 -0.56272542 -0.73584509 56 133 112
0.023279052 -0.5636059 -0.73613918 60 132 112
0.023702009 -0.56385034 -0.73627561 62 131 112
0.023633124 -0.56389207 -0.7362904 62 131 112
0.024300698 -0.56224155 -0.73558187 52 133 112
0.023775801 -0.56393242 -0.73631728 62 132 112
0.028668225 -0.56304801 -0.73597431 58 134 111
0.027743487 -0.56188446 -0.73543239 51 134 112
0.025739038 -0.56247616 -0.73575455 54 133 112
0.025821669 -0.56398976 -0.73644125 64 132 112
0.025790457 -0.56284285 -0.73592091 57 132 112
0.0277627 -0.56335282 -0.73615438 61 133 111
0.025596211 -0.56307864 -0.73602772 58 132 112
0.028753564 -0.56439453 -0.73662794 68 132 111
0.030766368 -0.56333548 -0.73604119 59 132 110
0.032573845 -0.56365144 -0.73621637 58 132 109
0.030087037 -0.56386852 -0.73633397 63 133 110
0.029707111 -0.56420881 -0.73652095 66 132 111
0.031042496 -0.56343579 -0.73609656 59 133 110
0.02946726 -0.56291062 -0.7358644 56 133 111
0.034503371 -0.5644182 -0.73667002 61 131 110
0.033348143 -0.5634169 -0.73609197 56 132 110
0.0089125689 -0.56746274 -0.73715937 50 132 112
0.008137716 -0.56696403 -0.7369504 49 133 111
0.0085954508 -0.56668496 -0.73682845 50 132 112
0.0093851546 -0.56740737 -0.73713303 51 132 112
0.0089268051 -0.56777644 -0.73729348 50 132 112
0.007969371 -0.56617212 -0.73661041 50 133 111
0.0083660446 -0.56495595 -0.73606479 49 133 111
0.013524294 -0.56572837 -0.73668665 51 133 112
0.012848608 -0.56573451 -0.73663688 53 133 112
0.0098111136 -0.56483281 -0.73603272 52 133 111
0.011117399 -0.56554121 -0.73642838 53 132 112
0.011647961 -0.56605875 -0.73668742 53 132 112
0.011849999 -0.56599224 -0.73667324 54 132 112
0.0098435348 -0.56532407 -0.73624516 52 133 111
0.016234517 -0.56715292 -0.73730063 50 134 113
0.01744386 -0.56481421 -0.7363221 57 134 113
0.017090663 -0.56734669 -0.73736411 51 134 113
0.017233161 -0.5670225 -0.73722893 52 134 114
0.015790444 -0.56568241 -0.73669332 53 134 113
0.016031867 -0.5648545 -0.73633534 56 133 113
0.013678374 -0.56462795 -0.73622006 55 132 112
0.017314006 -0.56459844 -0.73623335 57 134 112
0.020126775 -0.56663221 -0.73721647 55 133 113
0.01998511 -0.56755424 -0.73757988 52 134 114
0.019817727 -0.56691521 -0.73731315 54 133 114
0.018901873 -0.5671494 -0.73735613 54 133 114
0.017905533 -0.56730318 -0.73735768 52 134 114
0.018918522 -0.56588179 -0.73683959 57 133 113
0.01880309 -0.56508195 -0.73650539 58 132 113
0.019380981 -0.56600147 -0.73691726 57 133 113
0.017997589 -0.56599593 -0.73682898 55 134 113
0.018313605 -0.56483769 -0.73637503 58 132 113
0.024715696 -0.56724912 -0.73781282 53 135 112
0.024551332 -0.56780249 -0.73803979 51 135 112
0.025150076 -0.56775647 -0.73807734 51 135 112
0.024849901 -0.56645483 -0.73747724 57 134 112
0.023783054 -0.56686723 -0.73755521 55 134 112
0.025240153 -0.56673199 -0.73763651 55 134 112
0.024444884 -0.56478679 -0.73672831 64 132 112
0.023896283 -0.56449604 -0.73657811 65 131 113
0.023270715 -0.56450838 -0.73654526 65 131 113
0.023131339 -0.56445342 -0.73651469 65 131 113
0.021642374 -0.56730443 -0.73757291 53 134 114
0.022190128 -0.56686956 -0.73743081 55 134 113
0.028847441 -0.56581748 -0.73729193 65 132 112
0.029258555 -0.56542623 -0.73712146 68 131 112
0.027427033 -0.56691283 -0.73775738 58 133 112
0.028380981 -0.5648005 -0.73680657 67 132 111
0.02552166 -0.56575954 -0.73722446 60 133 112
0.025526797 -0.56584007 -0.73725981 59 134 111
0.027909599 -0.56546146 -0.73709607 63 132 111
0.026807718 -0.56652015 -0.7375595 58 134 112
0.028478546 -0.56445503 -0.73665506 68 132 111
0.031399455 -0.56772679 -0.73829335 67 129 114
0.03088068 -0.56777608 -0.73829687 66 129 114
0.031437315 -0.56744963 -0.73814994 67 129 114
0.031664222 -0.56822497 -0.73856533 69 128 114
0.031240333 -0.56824356 -0.7385568 68 128 114
0.032406535 -0.56492484 -0.73688436 64 131 110
0.029404953 -0.56484711 -0.73684466 68 132 111
0.029684803 -0.56574458 -0.73727655 67 130 112
0.030612228 -0.56525898 -0.73704374 67 130 112
0.03088603 -0.56468439 -0.73676753 67 131 111
0.030998833 -0.56526023 -0.73704457 66 130 111
0.034367435 -0.56821328 -0.73862851 71 127 113
0.035743449 -0.56737858 -0.7381959 70 128 111
0.034512959 -0.5665077 -0.7377367 68 129 111
0.034572314 -0.5680064 -0.73852086 71 127 113
0.036693089 -0.56815261 -0.73860365 71 128 112
0.034473907 -0.56816435 -0.73860323 71 127 113
0.036227051 -0.56561559 -0.73731345 63 130 110
0.036896821 -0.56583685 -0.73744041 63 129 111
0.036400978 -0.5666126 -0.73781788 66 129 110
0.037059385 -0.56792158 -0.73849046 70 128 111
0.035794362 -0.56595063 -0.73747128 65 130 110
0.037965931 -0.56585169 -0.73751712 61 131 110
0.040024366 -0.56761831 -0.73855776 63 131 111
0.039451569 -0.56692433 -0.73816663 62 131 111
0.040540855 -0.56754911 -0.73856169 62 131 111
0.039564542 -0.56534702 -0.73732257 53 132 110
0.040851191 -0.56709385 -0.73833168 58 133 110
0.04004132 -0.56613952 -0.73777711 56 132 110
0.042407505 -0.5666737 -0.73813695 52 134 110
0.044258177 -0.56716955 -0.73845655 51 132 112
0.04355872 -0.56742334 -0.73858064 54 132 111
0.041153587 -0.56706911 -0.73832625 58 132 110
0.044175856 -0.5660491 -0.73777479 44 134 111
0.04753539 -0.56750244 -0.73856139 45 134 110
0.045794509 -0.56625354 -0.73784983 42 134 111
0.049183302 -0.56718892 -0.73833585 42 135 111
0.050107654 -0.56710458 -0.73824686 43 134 111
0.051458374 -0.56720877 -0.73824513 45 134 112
0.050903089 -0.56685519 -0.73807037 43 134 112
0.04919368 -0.56722409 -0.73835528 43 134 111
0.053764686 -0.56686592 -0.73799664 43 134 113
0.05397195 -0.56693327 -0.73804075 43 134 113
0.055242095 -0.56773955 -0.73854047 45 134 112
0.02384365 -0.59471571 -0.73859876 52 134 111
0.026060784 -0.59588414 -0.73824507 54 134 111
0.02631348 -0.59589863 -0.73837626 54 134 111
0.061772525 -0.58358479 -0.75039887 61 132 116
0.055710152 -0.58766687 -0.75078225 47 133 114
0.055295281 -0.58783573 -0.75071675 47 133 114
0.057627797 -0.58648854 -0.75084227 50 134 114
0.059350546 -0.58486146 -0.75057483 55 133 116
0.056684926 -0.58743614 -0.75101727 48 133 113
0.060056396 -0.58446234 -0.75059366 57 134 116
0.060530756 -0.58461106 -0.75086468 57 134 116
0.058869332 -0.58764392 -0.7519635 48 135 113
0.060373932 -0.5850631 -0.75106418 56 134 116
0.05868692 -0.58639115 -0.75116843 53 134 114
0.059294425 -0.58766645 -0.75214338 48 134 113
0.058963232 -0.58677632 -0.75149935 51 134 114
0.063624054 -0.58704036 -0.75323832 55 135 114
0.063232839 -0.58526015 -0.75181365 62 132 116
0.060977634 -0.58779705 -0.75284934 47 135 113
0.060852334 -0.58637536 -0.75195348 53 134 115
0.060776122 -0.58485389 -0.75105906 57 134 116
0.061279405 -0.58560973 -0.75160044 56 133 115
0.061756074 -0.58621359 -0.75204837 55 134 114
0.064636804 -0.58772308 -0.75402719 54 136 114
0.064704269 -0.58712906 -0.75359458 56 135 114
0.065172233 -0.58709759 -0.75357008 57 134 114
0.056442708 -0.58933491 -0.75157118 50 132 113
0.055751983 -0.58993626 -0.75149286 50 132 113
0.055980802 -0.58880997 -0.75125438 49 132 113
0.056389011 -0.59047729 -0.75187755 51 132 113
0.053747714 -0.59103239 -0.75070459 47 134 114
0.056138027 -0.59131682 -0.75199264 52 132 113
0.05511279 -0.59014821 -0.75123769 50 132 114
0.054518528 -0.59068131 -0.75103432 49 133 114
0.055124644 -0.58982104 -0.75118053 50 131 114
0.058362417 -0.59042019 -0.75262296 51 133 113
0.05921068 -0.5914402 -0.75321734 56 132 113
0.060134098 -0.59025997 -0.75324744 54 133 113
0.057880506 -0.59150034 -0.75273228 54 133 112
0.060219523 -0.59028083 -0.75328523 54 133 113
0.059529949 -0.58937585 -0.75278169 50 134 113
0.057873152 -0.58994901 -0.75230187 50 133 113
0.058648102 -0.58914912 -0.75237811 50 133 113
0.057919875 -0.58920175 -0.75210708 49 134 113
0.056998473 -0.58938646 -0.75179791 50 132 113
0.059302561 -0.58900887 -0.75259513 48 135 113
0.0579581 -0.58864975 -0.75196469 49 133 113
0.062398069 -0.59065825 -0.75429666 56 134 113
0.061111193 -0.59148079 -0.75397766 59 133 113
0.064207204 -0.58840156 -0.75423485 53 136 114
0.06333033 -0.58836025 -0.75387543 53 136 113
0.061445743 -0.5897103 -0.7535727 54 134 113
0.061835162 -0.5884316 -0.75336605 51 135 113
0.062841587 -0.58867258 -0.7537868 53 136 113
0.060663365 -0.58837962 -0.75293779 48 135 113
0.062909849 -0.5894106 -0.75400966 55 135 113
0.05563065 -0.59464306 -0.75174952 52 134 112
0.055923436 -0.59369159 -0.75192535 52 134 112
0.054551505 -0.59325176 -0.75122917 51 133 113
0.05532473 -0.5927366 -0.75164145 51 133 113
0.055167187 -0.59407967 -0.7515251 52 134 113
0.054750416 -0.59186786 -0.75136793 50 133 113
0.054104224 -0.59431851 -0.75085497 51 135 112
0.054355968 -0.5956189 -0.75085318 52 134 111
0.056033786 -0.59510356 -0.75194293 53 134 112
0.054391332 -0.59349048 -0.75113022 51 133 113
0.059224349 -0.59567642 -0.75380337 56 133 113
0.059735876 -0.59503287 -0.75397253 56 134 112
0.058801338 -0.59473401 -0.75334489 56 134 112
0.059242293 -0.59327799 -0.75332546 57 133 112
0.06043553 -0.59299874 -0.75398386 58 133 112
0.057559706 -0.59510434 -0.75267529 55 134 112
0.058797851 -0.59272563 -0.75313359 57 132 113
0.057265826 -0.59404379 -0.75252181 54 134 112
0.059232093 -0.59202504 -0.75331551 57 132 113
0.056935087 -0.59183824 -0.75245476 53 132 113
0.058500353 -0.59383196 -0.75299257 56 133 112
0.056765508 -0.59505469 -0.75230682 54 134 112
0.060686562 -0.5924204 -0.75401437 59 132 113
0.056012258 -0.59839231 -0.7515831 53 135 112
0.055638492 -0.59720588 -0.75147533 52 135 112
0.055548325 -0.59613091 -0.75152987 53 134 112
0.05553817 -0.59792745 -0.75134015 52 135 112
0.056248721 -0.59890312 -0.75167578 53 135 112
0.053910773 -0.597206 -0.75044256 52 134 111
0.054244518 -0.59748006 -0.75061542 52 134 111
0.054703429 -0.59930551 -0.75073832 52 134 112
0.05377721 -0.59645289 -0.75042439 52 134 111
0.058276564 -0.59896016 -0.75299132 54 133 112
0.059513547 -0.59680766 -0.75390857 56 133 113
0.060138039 -0.598638 -0.75428462 55 133 113
0.058465444 -0.59776491 -0.7531572 55 134 113
0.057010405 -0.59939748 -0.75210506 54 135 112
0.058227945 -0.59922272 -0.75294995 54 133 112
0.057062529 -0.59892064 -0.75216991 54 135 112
0.058906291 -0.5961867 -0.75356692 55 134 112
0.058387317 -0.59734887 -0.75313359 55 134 112
0.057377074 -0.59874284 -0.7523787 54 135 112
0.057868496 -0.59794617 -0.75275803 54 134 112
0.055328213 -0.60098594 -0.75105602 52 134 112
0.056453712 -0.60319209 -0.75167608 50 134 112
0.055432074 -0.60058582 -0.75112307 52 134 112
0.056052249 -0.60071534 -0.75148261 52 134 112
0.056297053 -0.60351503 -0.75159532 50 133 112
0.055312257 -0.6019904 -0.75104666 51 134 112
0.054838512 -0.60155839 -0.75078666 51 134 112
0.055993766 -0.60338634 -0.75143075 50 133 112
0.060061548 -0.60077435 -0.75397247 53 134 112
0.059788898 -0.60021198 -0.75389558 54 133 113
0.059518557 -0.60126978 -0.75349998 52 134 112
0.059021112 -0.60040599 -0.75332773 53 134 112
0.060116746 -0.60274565 -0.75362062 51 134 112
0.059988778 -0.60278147 -0.75352526 51 134 112
0.058109075 -0.60185432 -0.75255322 51 135 112
0.058399294 -0.60255843 -0.75268924 51 134 112
0.058393564 -0.60295117 -0.75267988 50 134 112
0.057550207 -0.60116458 -0.75228053 52 134 112
0.057443518 -0.60298765 -0.75219649 50 134 112
0.058427583 -0.60278511 -0.75269985 51 134 112
0.060731534 -0.60260534 -0.7540859 51 134 112
0.055478144 -0.60404766 -0.75111783 50 134 111
0.05617087 -0.60515839 -0.75141066 51 134 112
0.054518379 -0.60479617 -0.75055778 50 134 112
0.054536749 -0.60476089 -0.75056922 50 134 112
0.05970186 -0.60473084 -0.75324023 51 134 112
0.059729684 -0.60490197 -0.75323749 51 133 112
0.056839358 -0.60481465 -0.75178832 51 134 112
0.05751165 -0.60503113 -0.75211459 51 134 112
0.05927901 -0.60379142 -0.75310099 50 134 112
0.05728003 -0.60452467 -0.75203294 51 134 112
0.060902916 -0.60481465 -0.75391531 50 134 112
0.054829601 -0.60878688 -0.75053549 55 133 112
0.057117257 -0.60828483 -0.75169861 55 133 112
0.060736429 -0.6075514 -0.7535404 54 133 111
0.047454484 -0.57561845 -0.74354184 47 134 118
0.047528539 -0.57418174 -0.74266022 52 134 116
0.046557307 -0.57449198 -0.74275988 50 133 116
0.052733183 -0.57442296 -0.74287504 60 133 114
0.050201654 -0.57610178 -0.74401402 52 135 117
0.051103555 -0.5749464 -0.74321318 55 134 116
0.050879933 -0.57410568 -0.74268728 57 133 115
0.050443158 -0.57491171 -0.74320453 53 134 116
0.050738104 -0.57443362 -0.7428968 55 134 115
0.05653264 -0.57491589 -0.74341524 63 134 114
0.056238927 -0.57507527 -0.74351639 63 134 114
0.054018833 -0.57560503 -0.7437709 59 134 115
0.056096613 -0.57600647 -0.74421102 64 133 116
0.053377677 -0.57494062 -0.74326599 59 134 114
0.053462103 -0.57493246 -0.7432633 59 134 114
0.052770007 -0.57583505 -0.74387747 58 134 116
0.053458851 -0.57520616 -0.74345726 59 134 115
0.057233877 -0.57596755 -0.74423152 65 133 115
0.059492879 -0.57475901 -0.74335116 59 133 113
0.059482142 -0.57458955 -0.74321461 59 132 114
0.059932563 -0.57422131 -0.74293685 57 133 113
0.058868725 -0.57448447 -0.74311996 59 133 114
0.057820391 -0.5752843 -0.7437135 62 133 115
0.058295913 -0.57488066 -0.74341339 61 133 114
0.059185144 -0.57433558 -0.74301076 58 133 114
0.063126549 -0.5748297 -0.74354911 58 132 113
0.063245267 -0.57545751 -0.74403238 60 131 113
0.063659526 -0.5761376 -0.74456137 61 132 112
0.062338434 -0.57609433 -0.74450284 62 132 113
0.060635462 -0.5738976 -0.74270535 56 132 113
0.06224259 -0.57492769 -0.74360365 58 132 114
0.061860509 -0.57450038 -0.74324352 58 132 113
0.062956803 -0.57436764 -0.7431854 56 132 113
0.065598659 -0.57568491 -0.74419695 58 132 112
0.066027664 -0.57523203 -0.74383265 57 132 113
0.066768385 -0.57597911 -0.7444036 59 132 113
0.067819044 -0.57412082 -0.74292338 54 133 112
0.066322699 -0.5747295 -0.74343693 56 132 113
0.064704284 -0.5753628 -0.7439748 58 132 112
0.064601049 -0.57447976 -0.74330163 54 133 112
0.065616861 -0.57401502 -0.74291247 53 133 113
0.066594243 -0.57466614 -0.74337953 56 132 113
0.070503846 -0.5758217 -0.74418414 56 132 113
0.072011225 -0.57495362 -0.7434715 52 132 113
0.070654176 -0.57560515 -0.74401379 55 131 113
0.071973108 -0.57530218 -0.74373913 53 131 113
0.068388514 -0.57561773 -0.74408638 58 132 113
0.071515709 -0.57387483 -0.74265569 50 131 113
0.069537237 -0.57522851 -0.74375784 55 131 113
0.069674924 -0.57478791 -0.74340928 54 132 114
0.073320054 -0.57606882 -0.7443735 52 133 112
0.072302006 -0.57543069 -0.74382877 53 131 113
0.073629923 -0.57493579 -0.74349171 50 131 113
0.051119376 -0.57878757 -0.74547929 46 135 116
0.051967893 -0.57813871 -0.74522251 51 135 117
0.051602203 -0.57916045 -0.74580371 46 135 116
0.052661318 -0.57790577 -0.74520111 53 135 116
0.051706266 -0.57980037 -0.74622846 45 134 117
0.051589921 -0.5787037 -0.74551189 47 135 116
0.049857378 -0.57734954 -0.74461275 47 135 117
0.049915295 -0.57630897 -0.74412262 51 135 118
0.050030179 -0.57710445 -0.74450052 48 135 117
0.049792469 -0.57661772 -0.74426591 49 135 117
0.049840108 -0.57619572 -0.74406767 51 135 118
0.05128162 -0.57653785 -0.74425834 53 135 116
0.053837713 -0.57703197 -0.74480486 58 134 116
0.052834246 -0.5781638 -0.74539107 53 134 117
0.055850238 -0.57870585 -0.74612987 58 133 116
0.054688979 -0.57837915 -0.74577057 57 134 117
0.052869115 -0.57723135 -0.74480444 55 135 116
0.052980278 -0.57682109 -0.74455881 57 134 117
0.053238869 -0.57618457 -0.74415725 59 134 116
0.055477269 -0.57754552 -0.74528581 61 133 116
0.0537997 -0.57684982 -0.74467385 59 133 117
0.053040788 -0.57624835 -0.74419028 58 134 116
0.056475911 -0.57664347 -0.74470115 64 133 116
0.057326302 -0.57717746 -0.74515283 65 132 116
0.057887502 -0.57830524 -0.74601167 63 133 116
0.057673074 -0.57846844 -0.74611187 63 132 116
0.057366323 -0.57833761 -0.7459926 62 132 117
0.058320638 -0.57780218 -0.74568421 65 132 116
0.058046103 -0.57675046 -0.74488288 66 132 115
0.058938891 -0.57644635 -0.74467951 66 132 115
0.058571562 -0.57665235 -0.74482673 66 132 115
0.05814277 -0.57666105 -0.74481648 66 132 115
0.058797542 -0.57650697 -0.74472147 66 132 115
0.062099442 -0.57807803 -0.74618798 65 131 114
0.061383501 -0.57823908 -0.74624014 65 132 115
0.060939983 -0.57771212 -0.74577969 66 131 115
0.061873984 -0.57843208 -0.74644285 66 131 115
0.06294921 -0.57706004 -0.74542159 64 132 113
0.064401641 -0.5778687 -0.74622118 64 132 113
0.062600322 -0.57650352 -0.74488378 63 132 113
0.062579148 -0.57625598 -0.74464715 63 132 113
0.064940728 -0.57647687 -0.7448656 61 132 112
0.064540893 -0.57700336 -0.74539125 62 132 112
0.064453386 -0.57646942 -0.74488682 61 132 112
0.066965304 -0.57785249 -0.74606061 64 131 113
0.066347174 -0.57633257 -0.74470627 60 132 112
0.068255492 -0.57673848 -0.74502724 61 131 113
0.065413401 -0.57654369 -0.74491316 61 132 112
0.067521483 -0.57732916 -0.74556708 63 131 113
0.070220917 -0.57763505 -0.74570799 62 131 113
0.071648277 -0.57837826 -0.74628115 62 132 112
0.068431899 -0.57736075 -0.7455734 63 131 113
0.070826016 -0.57814884 -0.74612749 63 131 113
0.072102405 -0.57798904 -0.74593252 61 132 112
0.071620613 -0.57702351 -0.74513364 58 132 113
0.071954794 -0.5781036 -0.74603397 61 132 112
0.071475677 -0.57702863 -0.7451427 58 132 112
0.07174217 -0.57711023 -0.74520278 58 132 112
0.073567741 -0.57806003 -0.7461496 58 132 112
0.073001012 -0.57784408 -0.74589664 58 132 112
0.075460091 -0.57793695 -0.74628204 54 133 112
0.072474338 -0.57814419 -0.74608409 61 132 112
0.075993411 -0.57790583 -0.74631184 54 133 112
0.074132949 -0.57634795 -0.74467736 52 132 113
0.075744681 -0.57705927 -0.74546915 51 133 113
0.075206868 -0.57672185 -0.74510711 51 132 113
0.076179452 -0.57802087 -0.74643409 54 133 112
0.076443911 -0.57772887 -0.74611849 52 134 112
0.078987591 -0.57680839 -0.74502248 51 134 114
0.034815136 -0.59146881 -0.74275947 50 135 109
0.036574151 -0.5935936 -0.74271584 53 135 109
0.03679318 -0.59327507 -0.74284732 52 134 110
0.03563194 -0.59224164 -0.74280524 51 135 109
0.038627885 -0.59524143 -0.74322033 55 134 110
0.039549772 -0.59559375 -0.74360073 56 134 109
0.038737431 -0.59392732 -0.74359334 52 134 110
0.039274789 -0.59424013 -0.74379003 53 134 109
0.037667502 -0.59263611 -0.74336267 50 135 109
0.037126277 -0.59404439 -0.74275005 53 135 109
0.037445247 -0.59264964 -0.74324703 50 135 109
0.040179882 -0.59305763 -0.74418885 49 133 110
0.040477484 -0.59316015 -0.74427772 49 133 110
0.040804476 -0.59367281 -0.74435508 50 134 110
0.040668581 -0.59428298 -0.74428117 52 134 110
0.040910643 -0.59398466 -0.74437279 51 133 110
0.043507341 -0.5949623 -0.74533135 50 134 110
0.042754617 -0.59478641 -0.74506277 51 133 111
0.042282935 -0.59541893 -0.74482518 54 133 111
0.040874273 -0.59839678 -0.74416625 55 134 109
0.040810294 -0.59887707 -0.74411935 55 134 109
0.03975169 -0.59604198 -0.74366581 56 134 109
0.038741581 -0.59627378 -0.74314511 57 135 109
0.040431064 -0.59681493 -0.74398822 55 135 109
0.040001396 -0.5981403 -0.74372995 55 134 109
0.03863829 -0.59939188 -0.74295121 55 135 110
0.038673103 -0.59934181 -0.74297214 55 135 110
0.038923796 -0.59730661 -0.74320525 56 134 109
0.038081013 -0.59854841 -0.74269706 55 135 110
0.041407194 -0.59953928 -0.74437773 54 133 110
0.044066649 -0.59931362 -0.74558461 54 134 110
0.04283186 -0.5993284 -0.74501979 54 134 110
0.044254825 -0.5978446 -0.7455982 52 134 110
0.044080809 -0.59822679 -0.7455374 53 134 110
0.044279099 -0.59957474 -0.74569488 54 134 110
0.043672241 -0.59601128 -0.74531555 52 134 110
0.041947875 -0.59656698 -0.74464595 54 134 110
0.041335497 -0.59646261 -0.74441725 55 134 109
0.041462477 -0.59675229 -0.74445665 55 134 109
0.042761765 -0.59619206 -0.74496537 54 134 110
0.041515797 -0.59828931 -0.74443078 54 133 110
0.045535915 -0.59874737 -0.74618351 53 134 110
0.046483599 -0.59941089 -0.74644935 53 134 111
0.04616202 -0.59955984 -0.74635327 53 135 110
0.044953905 -0.59822237 -0.74593729 52 134 110
0.045388769 -0.59685802 -0.7460714 52 134 111
0.039338648 -0.60094303 -0.74337119 53 134 111
0.03940706 -0.60065293 -0.74339461 53 135 110
0.039755888 -0.60031062 -0.74356455 54 134 110
0.039740872 -0.60097104 -0.74358582 53 134 111
0.039936531 -0.6014356 -0.74371016 52 135 111
0.039551817 -0.60316849 -0.74334836 46 134 112
0.038970675 -0.6012544 -0.74313593 52 135 111
0.03840081 -0.60127312 -0.74271947 51 135 111
0.039880365 -0.60264117 -0.74364519 50 133 112
0.042991284 -0.60339218 -0.7455284 51 135 112
0.043066479 -0.60329801 -0.74555486 51 135 112
0.043327399 -0.60272419 -0.74560094 51 135 112
0.044029355 -0.60231262 -0.74594289 52 134 111
0.044137705 -0.60046315 -0.74567884 52 134 110
0.042034835 -0.60298276 -0.7448827 50 134 111
0.043672975 -0.60135365 -0.74556214 52 134 111
0.041512497 -0.60046256 -0.7444672 53 134 110
0.041787837 -0.60017288 -0.74458051 54 134 110
0.041594498 -0.60102558 -0.74452966 53 134 111
0.042583939 -0.60046113 -0.74495786 53 134 110
0.042160705 -0.60216105 -0.74483925 51 134 112
0.042039938 -0.60230923 -0.74479049 51 134 112
0.044997465 -0.60183108 -0.74640721 53 134 112
0.046323407 -0.59993362 -0.74645716 53 134 111
0.042842533 -0.60367906 -0.74536294 50 135 112
0.04239583 -0.60381949 -0.74500978 50 134 112
0.044252023 -0.60459763 -0.74582189 48 134 112
0.044163808 -0.6042434 -0.74589276 50 135 112
0.045377228 -0.60522842 -0.74648142 51 135 112
0.045096561 -0.60622007 -0.74594527 49 133 113
0.045417681 -0.60550666 -0.74641705 50 134 112
0.066497773 -0.6032086 -0.75922602 53 134 114
0.065957554 -0.60330319 -0.75870788 52 134 114
0.066304334 -0.60262305 -0.75904942 54 134 114
0.066312581 -0.60269427 -0.75905627 54 134 114
0.067538366 -0.60471857 -0.76016712 54 133 114
0.067149654 -0.60505974 -0.75978112 53 134 115
0.06782797 -0.60580742 -0.76039898 54 133 115
0.066883802 -0.60511637 -0.75952446 52 134 115
0.066446319 -0.60422981 -0.75914276 52 134 114
0.068097524 -0.60434359 -0.76071751 55 134 114
0.066862956 -0.60642511 -0.7592966 51 134 115
0.067513816 -0.60730189 -0.75988162 52 133 115
0.067629807 -0.60671979 -0.76012993 52 133 115
0.066253811 -0.60535711 -0.75879735 51 134 114
0.068432108 -0.60594851 -0.76096708 54 133 115
0.068874516 -0.60550231 -0.76138508 55 133 115
0.066405416 -0.60771239 -0.75849205 52 133 114
0.067308702 -0.60978359 -0.75899768 53 135 112
0.067263946 -0.6097194 -0.75896382 53 135 112
0.056105934 -0.57942241 -0.7466265 57 133 116
0.05632456 -0.57931542 -0.74658483 58 133 117
0.058978308 -0.57942784 -0.74690944 63 132 116
0.05736069 -0.57983762 -0.74704391 59 132 117
0.058968395 -0.5792045 -0.74673367 63 132 116
0.057533093 -0.57962698 -0.74691117 59 134 116
0.064199723 -0.57827008 -0.74655843 65 132 113
0.062417112 -0.57946146 -0.74731243 66 132 115
0.063126028 -0.57877004 -0.7468434 65 132 114
0.060583163 -0.57994473 -0.74751073 65 133 115
0.060548395 -0.57999694 -0.74754858 65 133 115
0.066515595 -0.57829183 -0.74650186 65 131 113
0.065830164 -0.57832479 -0.7465598 65 131 113
0.064478278 -0.57843339 -0.74670756 65 132 113
0.072052911 -0.57916766 -0.74693143 64 132 112
0.072265193 -0.579211 -0.74695402 64 132 112
0.071710825 -0.57872128 -0.74657804 63 133 112
0.07008341 -0.57871383 -0.74666679 65 131 113
0.074452773 -0.57982397 -0.74778986 62 133 112
0.076168716 -0.57956558 -0.74782389 59 133 112
0.073234759 -0.57978314 -0.74756455 64 132 112
0.072518155 -0.57975519 -0.74744022 65 132 113
0.074495211 -0.57884669 -0.74692512 59 132 113
0.076239295 -0.57988107 -0.74810034 60 133 111
0.052458853 -0.5801726 -0.74657768 47 135 117
0.052382551 -0.58164728 -0.74709284 45 134 116
0.052551854 -0.58049905 -0.7467106 46 135 116
0.05230286 -0.58071631 -0.74674577 45 135 116
0.05537029 -0.58327264 -0.74847353 45 133 116
0.054220751 -0.58284283 -0.74785876 47 133 116
0.05459924 -0.58354014 -0.74836451 44 134 116
0.056536019 -0.58225781 -0.74830508 50 132 117
0.056023989 -0.58330429 -0.748707 45 133 116
0.054319065 -0.58254397 -0.74772817 48 132 116
0.053883106 -0.58068687 -0.74697345 50 134 116
0.05294029 -0.58064032 -0.74682188 47 135 116
0.054549392 -0.58201939 -0.74754614 51 133 116
0.052895885 -0.58146513 -0.74711096 46 134 116
0.052979093 -0.58033878 -0.74671942 47 135 116
0.053572603 -0.5824734 -0.74756891 47 133 116
0.060439792 -0.58039224 -0.74781185 64 133 116
0.060494509 -0.58269703 -0.74953318 61 133 116
0.060229346 -0.58170205 -0.74871475 61 133 116
0.06015319 -0.58124685 -0.74835438 62 133 116
0.060405705 -0.5828191 -0.74959576 60 133 116
0.057647482 -0.58324313 -0.74904829 48 132 117
0.057766259 -0.58304483 -0.74893874 49 132 117
0.05993535 -0.58055359 -0.74780005 62 133 116
0.057539642 -0.58277398 -0.7487281 50 131 117
0.059943948 -0.58031201 -0.74766928 63 133 116
0.056831941 -0.5834375 -0.74900633 45 133 116
0.05872491 -0.58076519 -0.7477721 59 132 117
0.057769038 -0.58072299 -0.74763578 57 133 116
0.060701381 -0.58082837 -0.74819207 64 133 116
0.061036836 -0.58347845 -0.75020421 61 132 116
0.062053442 -0.5830341 -0.75003523 63 131 117
0.06106656 -0.58340091 -0.75015157 61 132 116
0.06250976 -0.58274812 -0.74989539 64 132 116
0.060822085 -0.58352691 -0.75020635 59 134 116
0.061575077 -0.58007973 -0.74771154 66 132 115
0.061695062 -0.58075047 -0.74827474 66 132 116
0.075010628 -0.58031243 -0.74834001 63 132 112
0.078060001 -0.58059627 -0.74878854 60 133 112
0.052692689 -0.58782405 -0.74968797 46 132 115
0.053926494 -0.58742154 -0.7499584 47 132 116
0.055471443 -0.58534944 -0.74951446 45 132 116
0.056058716 -0.5852949 -0.74971175 45 133 116
0.056626443 -0.58420408 -0.74938589 43 132 117
0.055003438 -0.58670652 -0.75001085 46 133 115
0.053812616 -0.58614504 -0.74931073 45 133 115
0.056990221 -0.58421552 -0.74950743 45 132 117
0.059821006 -0.58415359 -0.75036997 56 133 116
0.056823716 -0.58552587 -0.75010681 46 133 116
0.052618101 -0.58802509 -0.74969071 46 132 115
0.052457467 -0.58888203 -0.74973333 46 133 115
0.05067011 -0.59061253 -0.74903053 45 133 114
0.051374227 -0.5901317 -0.74933773 45 133 114
0.052219242 -0.59093726 -0.74991482 46 133 114
0.050667539 -0.59131199 -0.74913466 45 133 113
0.05163984 -0.58810002 -0.74932802 45 132 115
0.052825224 -0.58838695 -0.74984568 47 132 116
0.053227197 -0.58804482 -0.74996102 47 132 116
0.053025696 -0.58816582 -0.74989557 47 132 116
0.048773717 -0.59419763 -0.74787158 47 135 111
0.046544962 -0.59535742 -0.74659133 50 135 111
0.046854716 -0.59402096 -0.74688435 46 134 112
0.049989916 -0.59468389 -0.74846131 48 136 111
0.052045565 -0.5951367 -0.74947488 51 134 112
0.05255897 -0.59510183 -0.74974954 51 134 112
0.051888183 -0.59347129 -0.74963439 48 135 112
0.052690286 -0.59435409 -0.74992722 50 134 112
0.051981829 -0.59317684 -0.74972641 48 134 113
0.050460804 -0.591887 -0.74908453 45 133 113
0.049750958 -0.5939824 -0.74842656 47 135 112
0.050167013 -0.59397554 -0.74865186 48 135 112
0.048955232 -0.59453571 -0.74792486 47 136 111
0.050398156 -0.59207845 -0.74902558 45 133 113
0.050793607 -0.59340608 -0.74906445 48 134 113
0.052831031 -0.59469813 -0.74996573 51 134 112
0.053062696 -0.59373909 -0.75026804 50 134 113
0.048582561 -0.59894276 -0.74719065 53 134 112
0.047738593 -0.59585392 -0.74713749 50 135 111
0.048334956 -0.5961926 -0.74739647 50 135 110
0.047959954 -0.59919965 -0.74694753 53 135 111
0.047399003 -0.59783345 -0.7467826 52 135 111
0.047801614 -0.59857172 -0.74690545 53 134 112
0.049418997 -0.59921068 -0.74760175 53 134 112
0.05128016 -0.59873939 -0.74870503 52 135 111
0.051851101 -0.59719145 -0.74914193 52 134 111
0.051593058 -0.59946722 -0.74883389 52 135 111
0.051985838 -0.59897983 -0.74909389 52 134 111
0.052174777 -0.59645516 -0.74937969 52 134 111
0.051390346 -0.59687066 -0.74890828 52 134 111
0.051607165 -0.59589326 -0.74913949 51 135 111
0.050890677 -0.59587836 -0.74876505 51 135 111
0.052081045 -0.59596878 -0.74937922 51 135 111
0.049355641 -0.59889275 -0.74759704 53 134 112
0.049298871 -0.59651214 -0.7478531 51 135 111
0.053689066 -0.59769434 -0.7502625 52 134 111
0.053916853 -0.59944272 -0.75025612 52 134 111
0.053601351 -0.59585768 -0.75036675 52 134 111
0.052898232 -0.59817541 -0.74969888 52 134 111
0.045255359 -0.60196316 -0.74650359 53 134 112
0.046295501 -0.6008929 -0.74662375 53 135 111
0.048244376 -0.60009277 -0.74712956 53 135 112
0.045429233 -0.6027227 -0.74668294 53 135 112
0.047360986 -0.60185134 -0.74711311 53 134 112
0.048426531 -0.60104984 -0.74730045 53 134 112
0.048232373 -0.6003561 -0.74716526 53 135 112
0.048546426 -0.60108811 -0.74733698 53 134 112
0.047159009 -0.60150087 -0.7470172 53 135 112
0.047084872 -0.602009 -0.74705857 53 135 112
0.052159995 -0.60196352 -0.74929875 50 134 111
0.052443795 -0.60227495 -0.74945444 50 133 112
0.052043568 -0.60032046 -0.74916703 52 134 111
0.05065896 -0.60170037 -0.74853724 52 134 112
0.052572522 -0.6000846 -0.74942064 51 135 111
0.050141349 -0.60278326 -0.7483272 52 133 113
0.05158836 -0.59979266 -0.74884337 52 135 111
0.050233155 -0.60059166 -0.74816018 53 134 112
0.049200471 -0.6005668 -0.74756336 53 134 112
0.050897811 -0.60026848 -0.74850351 52 134 111
0.050537251 -0.60040891 -0.74831307 52 134 111
0.049925372 -0.60231775 -0.74819088 52 134 112
0.053408459 -0.60208565 -0.75001168 50 134 112
0.05409506 -0.60071254 -0.75037587 52 134 112
0.053922564 -0.59962702 -0.75024605 52 134 111
0.053154815 -0.60131204 -0.74982721 50 135 111
0.046871834 -0.60604155 -0.74713844 51 134 112
0.048186213 -0.60731959 -0.7475614 51 133 112
0.047303572 -0.60737491 -0.74702686 50 132 112
0.047334392 -0.6059323 -0.74743319 52 134 112
0.04869454 -0.60560632 -0.74777925 52 133 112
0.047364622 -0.60431701 -0.74735683 53 134 113
0.047343891 -0.60568583 -0.74742383 52 134 112
0.047310274 -0.60435534 -0.74734437 53 134 113
0.046391744 -0.60361952 -0.74706084 53 134 112
0.049763165 -0.60725063 -0.74831247 51 133 112
0.052677482 -0.60404807 -0.74961984 48 135 112
0.052462824 -0.60482347 -0.74951214 50 133 112
0.049222931 -0.60731268 -0.74808133 51 133 112
0.05129109 -0.6044234 -0.74898237 50 133 112
0.050681371 -0.60490352 -0.7487033 50 133 112
0.049106561 -0.6059128 -0.74797016 51 133 112
0.050606124 -0.60463601 -0.7486515 50 133 112
0.050088003 -0.6037972 -0.7483483 51 134 112
0.049966149 -0.60529691 -0.74836689 50 134 112
0.053833708 -0.60559571 -0.75018126 51 134 112
0.053542089 -0.60618192 -0.75001472 51 134 112
0.053444065 -0.60469443 -0.75002617 50 134 111
0.053275887 -0.60388738 -0.74994934 48 135 112
0.04835296 -0.60781831 -0.74755734 50 132 112
0.048147585 -0.60749078 -0.74749774 51 132 113
0.051826939 -0.60909683 -0.74895227 51 133 113
0.049657423 -0.60878354 -0.74800944 49 132 113
0.049717594 -0.60848755 -0.74809039 50 133 113
0.05143404 -0.60799271 -0.74891323 51 134 112
0.049159609 -0.60778892 -0.74798352 51 133 112
0.051251598 -0.60778844 -0.74887377 51 134 112
0.053890262 -0.60958159 -0.74998724 54 133 112
0.053844009 -0.60979128 -0.74995494 54 133 112
0.053865585 -0.61041045 -0.74995762 56 132 112
0.053102296 -0.60995668 -0.74952996 54 133 112
0 0 0 1 0 0 0 1 0 0 0 1 0 0 0 0 0 955 1 0 0
