ply
format ascii 1.0
comment PCL generated
element vertex 968
property float x
property float y
property float z
property uchar red
property uchar green
property uchar blue
element camera 1
property float view_px
property float view_py
property float view_pz
property float x_axisx
property float x_axisy
property float x_axisz
property float y_axisx
property float y_axisy
property float y_axisz
property float z_axisx
property float z_axisy
property float z_axisz
property float focal
property float scalex
property float scaley
property float centerx
property float centery
property int viewportx
property int viewporty
property float k1
property float k2
end_header
0.0090703657 -0.40771908 -0.68009418 51 135 115
0.012660783 -0.40734655 -0.68011874 52 135 114
0.013149668 -0.40814906 -0.6802175 55 135 115
0.010487567 -0.40719706 -0.68011665 51 135 115
0.010392123 -0.40772706 -0.68014985 54 135 114
0.01564382 -0.40805212 -0.68016922 49 135 114
0.013820266 -0.40722266 -0.68011338 51 135 115
0.013940682 -0.40776458 -0.68017346 53 136 114
0.0079609444 -0.40920141 -0.68017662 51 134 116
0.0075943759 -0.41010961 -0.6802792 51 134 117
0.009402832 -0.41047138 -0.68036896 55 133 115
0.0090080509 -0.40954021 -0.68027985 54 134 115
0.0075218659 -0.41116428 -0.68038416 51 134 117
0.0078928499 -0.41101679 -0.68038023 52 134 116
0.0082442295 -0.41055375 -0.68034875 53 134 116
0.013334692 -0.4086248 -0.68026251 55 135 114
0.011465335 -0.41156048 -0.68049699 58 133 115
0.013289061 -0.40961429 -0.68035144 57 135 114
0.01346074 -0.40948507 -0.68034261 57 135 114
0.011975748 -0.41122887 -0.68047559 58 134 114
0.010340554 -0.41028565 -0.68036848 56 133 115
0.010339445 -0.41002661 -0.68034631 56 133 115
0.011379142 -0.40915704 -0.68028426 55 135 114
0.011219824 -0.41040769 -0.68038958 55 135 114
0.0099364258 -0.40834028 -0.68019682 55 135 114
0.012009338 -0.40916711 -0.68029267 55 135 114
0.016742203 -0.4091931 -0.68024564 48 134 114
0.017163765 -0.41165215 -0.68035215 54 133 116
0.015933938 -0.41110525 -0.68039596 55 134 115
0.016853282 -0.41033411 -0.68030006 51 135 114
0.016127355 -0.40973827 -0.68031132 52 134 114
0.015225635 -0.40877178 -0.68024695 52 134 114
0.014342363 -0.41043979 -0.68041778 58 134 114
0.013881519 -0.41018301 -0.68040478 59 134 114
0.01554048 -0.40889409 -0.68025106 51 135 114
0.015492824 -0.40896896 -0.68025887 51 135 114
0.016845465 -0.40843427 -0.68018031 46 135 113
0.018932698 -0.4093996 -0.68013668 38 136 114
0.018735403 -0.41164252 -0.68027222 46 134 116
0.018717719 -0.41166359 -0.68027419 46 134 116
0.019045755 -0.4101215 -0.68017614 39 135 115
0.019110175 -0.4109655 -0.68021822 41 135 115
0.017995697 -0.41064876 -0.68025404 47 135 115
0.008698428 -0.41364104 -0.68062544 51 135 116
0.0084147183 -0.41459942 -0.68070889 50 136 117
0.0079613654 -0.41321802 -0.68056518 50 133 117
0.0076027079 -0.41272837 -0.68051714 50 134 117
0.0086951926 -0.4123683 -0.68051374 54 133 116
0.0099370843 -0.41600844 -0.68091321 57 141 119
0.013502236 -0.41269034 -0.68064922 62 133 115
0.013519084 -0.41451019 -0.68087631 55 135 116
0.012582459 -0.41580552 -0.68099838 52 137 117
0.013000386 -0.41320136 -0.6806919 61 134 116
0.01293799 -0.41379356 -0.68076295 59 134 116
0.011098442 -0.41288686 -0.68061793 59 134 115
0.010196519 -0.41444767 -0.68075812 58 137 117
0.010252438 -0.41515461 -0.68082947 58 139 118
0.012949843 -0.41217712 -0.68057859 63 133 115
0.011329198 -0.41251117 -0.68058443 60 133 115
0.01525972 -0.41481563 -0.68083137 49 136 117
0.01583251 -0.4139767 -0.68068957 52 134 117
0.017239643 -0.41442305 -0.68068522 44 135 117
0.017505132 -0.41414163 -0.68063426 44 136 116
0.017429952 -0.41456583 -0.68069595 43 135 117
0.015977534 -0.41315964 -0.68057775 54 134 117
0.014163609 -0.41239101 -0.68058991 62 133 115
0.013749734 -0.41578224 -0.68103629 50 136 117
0.013869745 -0.41324317 -0.68071336 60 133 116
0.013921081 -0.41314036 -0.6806975 60 133 116
0.018213654 -0.41221148 -0.68033594 50 134 116
0.017793898 -0.41339302 -0.68051791 46 135 116
0.018976672 -0.41289428 -0.68039352 42 135 117
0.010636542 -0.41614798 -0.6809622 55 140 118
0.011330809 -0.41632599 -0.68101662 53 139 118
0.016517831 -0.41825908 -0.68120784 38 136 116
0.01719282 -0.41932693 -0.68130451 40 134 116
0.017402217 -0.41950428 -0.68131602 40 134 116
0.01479989 -0.41932333 -0.68141681 40 134 117
0.015261213 -0.41784614 -0.68121713 40 134 117
0.015299049 -0.41802651 -0.68123716 38 137 116
0.014401123 -0.41884825 -0.68137825 40 136 116
0.016029675 -0.41680628 -0.68105561 38 137 116
0.016655255 -0.41649666 -0.68098909 38 136 117
0.018045481 -0.41978377 -0.68129843 40 134 116
0.014447832 -0.42094114 -0.6816625 42 136 117
0.016393313 -0.42034072 -0.68147832 41 135 116
0.014521181 -0.42173383 -0.68178123 43 136 117
0.015220969 -0.42086425 -0.68161428 42 135 117
0.014862152 -0.42005283 -0.6815061 41 135 117
0.013679803 -0.42185619 -0.68183976 43 137 117
0.020660708 -0.42182058 -0.68129373 42 136 117
0.020819206 -0.42122194 -0.68120199 41 135 116
0.02129421 -0.42000127 -0.68099833 37 136 116
0.017912943 -0.42067814 -0.6814239 42 135 117
0.020128557 -0.42090088 -0.68123251 41 135 116
0.023205627 -0.42365548 -0.68126559 39 137 118
0.02260498 -0.42195502 -0.68107951 41 135 118
0.022858582 -0.42194107 -0.68104517 40 135 118
0.022500793 -0.42732096 -0.68196636 39 136 114
0.022781508 -0.42594984 -0.68169475 39 137 115
0.023171084 -0.4255282 -0.68158555 38 137 116
0.0227118 -0.42590508 -0.68169379 39 137 115
0.023454975 -0.42546806 -0.68154806 37 137 115
0.0229042 -0.42582291 -0.68166137 39 136 115
0.023966571 -0.430069 -0.68231505 39 136 118
0.02423713 -0.42943713 -0.68219209 36 137 117
0.02335903 -0.42860672 -0.68212706 38 137 116
0.023539066 -0.42913854 -0.68220395 39 135 117
0.023579054 -0.43269295 -0.68284017 38 136 119
0.036165748 -0.35295573 -0.67887211 27 133 120
0.040035509 -0.3522625 -0.67894274 28 131 120
0.039036516 -0.35310882 -0.67888558 29 132 120
0.040877674 -0.35283923 -0.67891854 28 132 118
0.037484862 -0.35333204 -0.67885792 30 131 121
0.038392268 -0.35200906 -0.67894202 27 131 121
0.037198499 -0.35285929 -0.67888445 29 131 120
0.033107299 -0.35714403 -0.6785692 27 134 117
0.034168825 -0.35692191 -0.67858577 29 132 119
0.034474857 -0.35685265 -0.67859513 30 132 119
0.033997886 -0.35703999 -0.67857569 28 134 117
0.034678292 -0.35601559 -0.67864996 29 132 119
0.034396488 -0.3567031 -0.67860299 29 134 119
0.034313556 -0.3551648 -0.6787079 27 134 119
0.033934064 -0.35638702 -0.67861789 28 132 118
0.03458976 -0.35515234 -0.67871058 27 134 119
0.038349174 -0.35667676 -0.67866069 35 134 120
0.039571144 -0.35664734 -0.67867166 33 134 118
0.040466856 -0.35631227 -0.67869967 32 133 117
0.040032055 -0.35560638 -0.67874146 33 133 119
0.039166965 -0.35699171 -0.67864668 34 134 119
0.039774515 -0.35374507 -0.67885584 30 132 119
0.037196238 -0.35574919 -0.6787076 34 134 121
0.039316837 -0.35443702 -0.67880893 31 133 119
0.037489288 -0.35621274 -0.67868203 34 135 120
0.037553594 -0.3545326 -0.67878586 33 132 121
0.04311296 -0.35694838 -0.67869455 30 132 119
0.041668549 -0.35563743 -0.67875445 32 133 117
0.041337546 -0.35621721 -0.67871356 32 133 117
0.032911051 -0.35855877 -0.67856246 27 134 118
0.032119002 -0.35911784 -0.67860156 27 134 118
0.034779675 -0.36085385 -0.67858762 31 133 118
0.036698166 -0.35899127 -0.67860085 33 134 120
0.03612493 -0.35902506 -0.67859703 33 135 120
0.036364969 -0.36005658 -0.6785984 32 132 119
0.036987424 -0.35907701 -0.67860276 33 132 120
0.036222037 -0.35812253 -0.67859608 35 136 121
0.033465642 -0.35778651 -0.67854685 28 134 117
0.035401512 -0.3587727 -0.67858875 34 135 120
0.035088588 -0.35908303 -0.67858654 34 135 120
0.035510674 -0.35756272 -0.67857879 33 134 120
0.033957068 -0.35853755 -0.67856234 30 135 119
0.040184096 -0.36021462 -0.67856985 33 133 116
0.040611345 -0.35793248 -0.67862678 33 132 117
0.040062003 -0.36087453 -0.6785534 33 133 116
0.038789924 -0.36043665 -0.67859304 31 131 117
0.040547449 -0.35799983 -0.67862624 33 132 117
0.038360365 -0.36119226 -0.67858034 31 131 117
0.038401306 -0.35958833 -0.67861301 31 132 118
0.039206337 -0.35781261 -0.67861944 33 134 118
0.037447874 -0.35823861 -0.67860633 34 134 119
0.037954271 -0.35989881 -0.67860967 31 131 118
0.037608594 -0.35843474 -0.6786074 33 134 119
0.039188772 -0.3578566 -0.67861933 33 133 118
0.042868495 -0.3604804 -0.67854309 31 133 118
0.042035151 -0.36110857 -0.678518 33 133 117
0.041403193 -0.35857034 -0.67860591 33 133 117
0.042692285 -0.35805604 -0.67864126 30 133 119
0.041369721 -0.358165 -0.67861712 33 133 117
0.041541934 -0.35902405 -0.67859501 33 133 117
0.041124314 -0.35874152 -0.6785965 33 133 116
0.020303756 -0.36380395 -0.67905539 30 135 115
0.019808661 -0.36472008 -0.67906189 31 133 116
0.032570023 -0.36352253 -0.67839724 29 137 120
0.032759722 -0.36194459 -0.67854041 31 135 120
0.032267209 -0.36444071 -0.67832404 28 138 120
0.031303894 -0.36325455 -0.6784898 28 134 120
0.03255358 -0.3625662 -0.67849094 30 136 119
0.030817654 -0.36182892 -0.67863476 27 134 120
0.030829214 -0.36324868 -0.67851073 27 135 120
0.031734239 -0.36198872 -0.67858189 28 135 120
0.037086539 -0.36138764 -0.67859823 28 131 116
0.036458105 -0.36241382 -0.67850685 29 132 117
0.036297385 -0.36475393 -0.67834681 33 133 117
0.036725901 -0.36373985 -0.67842972 32 132 117
0.036652159 -0.36512697 -0.67833573 33 133 116
0.03367544 -0.36294764 -0.67842299 30 136 119
0.033398904 -0.36301148 -0.67841494 31 137 120
0.035031065 -0.36230683 -0.67849416 30 132 119
0.034862369 -0.36325201 -0.67840135 29 135 119
0.033278838 -0.3613447 -0.67857587 32 136 119
0.039479047 -0.36324239 -0.67843658 35 133 116
0.038862456 -0.36449966 -0.67838365 34 133 116
0.03984987 -0.36385626 -0.67841399 35 133 116
0.038479567 -0.36419547 -0.6783939 34 133 117
0.039000057 -0.36418873 -0.67839664 34 133 116
0.038414568 -0.3625263 -0.67849642 33 132 116
0.03931462 -0.36206576 -0.67850757 33 132 116
0.03973164 -0.36244467 -0.67847383 33 133 116
0.039731767 -0.36191851 -0.6785084 33 133 116
0.038949851 -0.3629739 -0.67845559 33 133 116
0.038020369 -0.36262959 -0.67849797 32 132 117
0.044235572 -0.36472625 -0.67831099 31 133 118
0.043513849 -0.36517629 -0.67830646 32 133 117
0.042014372 -0.36510783 -0.67834669 33 133 116
0.042411353 -0.36495098 -0.67834473 33 133 116
0.042114127 -0.36148652 -0.67849743 33 134 116
0.041107144 -0.3616994 -0.67850393 33 134 116
0.041129131 -0.36201072 -0.67849123 34 133 117
0.041322868 -0.36316931 -0.67844242 34 133 117
0.00094229542 -0.3691397 -0.67926872 29 139 116
0.016208855 -0.36893559 -0.67898148 34 135 115
0.016292969 -0.36858848 -0.67899537 34 135 115
0.018871861 -0.3669956 -0.67901361 31 135 116
0.01844522 -0.36689642 -0.67903119 33 134 117
0.019081134 -0.36582991 -0.67905515 33 133 117
0.018368995 -0.36763346 -0.67900318 32 134 117
0.019643212 -0.36625007 -0.67902005 29 135 116
0.033046152 -0.36755633 -0.67814529 25 139 119
0.031457111 -0.36581996 -0.67827308 27 135 120
0.03209693 -0.36532533 -0.67825347 28 138 120
0.034638405 -0.36864296 -0.67812282 27 134 118
0.034930605 -0.36850247 -0.67813098 28 135 118
0.035298944 -0.36730686 -0.67821193 28 135 117
0.036694553 -0.36729527 -0.67820525 33 134 118
0.036950313 -0.36709106 -0.67821801 34 134 117
0.033366028 -0.36585104 -0.67818803 29 137 120
0.035066668 -0.36596924 -0.67824942 30 136 118
0.034285158 -0.36676067 -0.67819911 28 136 118
0.034619104 -0.36633709 -0.67822289 28 136 117
0.040556435 -0.3680113 -0.67819679 42 133 116
0.040050887 -0.36652482 -0.67827451 36 133 117
0.038480278 -0.36856765 -0.67813063 38 133 118
0.037871301 -0.36844248 -0.67812788 36 134 119
0.038748562 -0.36883628 -0.67811948 40 133 118
0.038335439 -0.36541829 -0.67833918 34 133 117
0.038908117 -0.36551869 -0.67833495 34 133 117
0.03906345 -0.36672884 -0.67825186 35 133 118
0.037441064 -0.36753157 -0.6781882 35 134 118
0.037690811 -0.3676303 -0.6781826 36 134 118
0.038505014 -0.36532301 -0.67834657 34 133 117
0.044559795 -0.36651376 -0.67823863 33 133 116
0.04396471 -0.36676085 -0.67822576 34 133 116
0.043607309 -0.36782041 -0.67819983 36 134 115
0.044154286 -0.36671939 -0.67822909 33 133 116
0.043524101 -0.36761123 -0.67820299 37 133 116
0.043406658 -0.36680445 -0.67821747 37 133 116
0.042276245 -0.36578849 -0.67830193 36 133 117
0.04310457 -0.36570767 -0.67828631 34 132 117
0.041109603 -0.36847407 -0.67817521 45 133 115
0.041878577 -0.36665398 -0.67826164 38 134 116
0.042519521 -0.36669305 -0.67824364 38 133 117
0.041232988 -0.36610931 -0.67830902 38 133 117
-0.0010755956 -0.37303346 -0.67878729 29 136 115
0.00083179947 -0.37168625 -0.67900515 28 138 117
-0.0012304792 -0.37248391 -0.67884129 28 136 115
4.7239359e-05 -0.37186292 -0.67895657 28 138 115
0.0005437755 -0.37179673 -0.67898232 28 138 116
0.0010719276 -0.36984459 -0.67921138 28 138 116
-0.0010800732 -0.37179071 -0.67891568 28 138 114
-0.0006763594 -0.37132215 -0.67898059 29 136 115
-0.00045769662 -0.37151831 -0.67897463 28 138 115
0.0029636582 -0.37239695 -0.67897111 29 140 118
0.002585412 -0.37275735 -0.67893314 29 139 119
0.004646176 -0.37230778 -0.67899841 29 141 116
0.0038082362 -0.37207127 -0.67901111 30 140 118
0.0027233665 -0.36988509 -0.67923987 28 140 117
0.0023263413 -0.37050033 -0.67917454 28 139 118
0.0082146302 -0.3730427 -0.67897695 30 138 118
0.0066983141 -0.37280527 -0.67896509 32 138 117
0.0079042623 -0.37287563 -0.67897946 32 137 118
0.0086070215 -0.37252426 -0.67900419 33 137 118
0.006307038 -0.37248749 -0.6789785 32 139 115
0.0063647088 -0.37130859 -0.67908657 32 140 115
0.013097853 -0.37224743 -0.67902225 33 135 116
0.010508574 -0.37271252 -0.67900211 32 136 119
0.01287691 -0.37114522 -0.67900503 34 134 115
0.011893567 -0.37209067 -0.67900777 32 136 116
0.010597673 -0.37190649 -0.67900914 33 137 117
0.017508166 -0.36993873 -0.67896062 32 136 115
0.016940039 -0.3708117 -0.67896843 32 136 115
0.015618797 -0.37205166 -0.67899382 33 134 116
0.017311251 -0.37215725 -0.67894566 31 135 114
0.016942119 -0.37120244 -0.67896473 32 136 115
0.014406976 -0.37194046 -0.67902017 33 134 116
0.01385269 -0.37223774 -0.67902708 33 134 116
0.015129028 -0.3705675 -0.67899787 34 135 115
0.016808588 -0.36944538 -0.67897403 33 136 115
0.018174361 -0.37291953 -0.67889524 30 133 114
0.018057145 -0.36954582 -0.67893964 31 137 115
0.017607065 -0.37063512 -0.67895085 32 136 115
0.032633863 -0.37176943 -0.67811894 31 133 117
0.031785332 -0.37302816 -0.6781593 33 133 116
0.032900047 -0.37179655 -0.67810529 33 133 117
0.033163074 -0.37117174 -0.67809331 31 133 118
0.034364518 -0.37287137 -0.67809129 43 132 117
0.036777489 -0.36954924 -0.67807662 37 134 120
0.034766532 -0.37155625 -0.67808282 38 132 118
0.036052641 -0.37179983 -0.67809099 45 132 117
0.036708638 -0.3719863 -0.67809564 50 131 117
0.034868222 -0.36952943 -0.67808616 30 135 119
0.036463164 -0.36933687 -0.678078 34 135 119
0.033971932 -0.36957076 -0.67809087 27 134 118
0.033711057 -0.37238446 -0.6780858 38 133 117
0.033595942 -0.37235394 -0.67808652 38 133 117
0.040559046 -0.36982438 -0.67812884 48 132 115
0.037619635 -0.36916479 -0.67808354 38 135 119
0.03745354 -0.37104976 -0.67809582 47 132 118
0.03966286 -0.37033629 -0.67812628 50 132 116
0.038827784 -0.36929625 -0.67810434 42 133 118
0.040197041 -0.3696042 -0.67812926 47 133 115
0.044598445 -0.3697553 -0.67817098 36 135 113
0.044837832 -0.37175491 -0.6781286 48 133 113
0.04158463 -0.3695305 -0.67813581 46 133 114
0.041869819 -0.3692371 -0.67814773 44 133 115
0.044374492 -0.36933899 -0.67817825 34 135 114
0.042759556 -0.36999014 -0.67813873 44 133 114
0.048802607 -0.3721472 -0.67811608 47 133 112
0.04658236 -0.37213027 -0.67811513 47 133 112
0.048321795 -0.37116545 -0.67813116 40 133 113
0.047049675 -0.36955088 -0.67816621 30 135 114
0.045967467 -0.37054345 -0.67815083 38 135 114
0.045585401 -0.37017596 -0.67816216 37 134 113
0.045382254 -0.37119964 -0.67813975 43 134 113
0.045659322 -0.36985612 -0.67816907 34 135 114
0.050786503 -0.37301096 -0.67823899 48 130 113
0.050947964 -0.37161049 -0.67827284 43 132 114
0.051101066 -0.37212113 -0.67827523 44 131 114
0.051077086 -0.37130517 -0.67828667 42 131 115
0.049250688 -0.37066197 -0.67816889 36 134 114
0.049807221 -0.37192434 -0.67818826 47 132 113
0.00017180468 -0.37566391 -0.67882168 31 137 115
0.0015718533 -0.37410492 -0.67889261 29 139 117
0.0011394683 -0.37492275 -0.67887759 29 139 116
0.0015899492 -0.37550581 -0.67892265 29 139 116
-6.9758622e-05 -0.37456048 -0.67879975 29 137 115
0.00076104258 -0.37380636 -0.67884254 29 139 116
-0.00058327056 -0.37420315 -0.67878616 29 139 114
0.0036037446 -0.37568852 -0.67895943 30 137 115
0.0040996587 -0.37683997 -0.67893624 30 136 114
0.0038322348 -0.37598166 -0.67895144 29 139 114
0.0050291587 -0.37483785 -0.67893982 30 137 115
0.0027269842 -0.37668025 -0.67896622 29 139 114
0.002492605 -0.37692669 -0.67896825 29 139 114
0.0036143474 -0.3738043 -0.6789332 30 138 117
0.0034357898 -0.37398025 -0.67893481 30 138 117
0.0024602644 -0.37399977 -0.67892426 29 139 117
0.0021737125 -0.37368429 -0.67891455 29 139 118
0.0032429986 -0.37436059 -0.67894047 29 139 116
0.0036326912 -0.37410784 -0.67893964 29 139 116
0.0084105376 -0.3748104 -0.67895746 30 136 118
0.0077277748 -0.37695238 -0.67891574 29 134 116
0.0091549624 -0.3762536 -0.67894012 27 137 117
0.0090545863 -0.37659374 -0.67893356 27 137 116
0.0077755838 -0.37606722 -0.67893088 30 135 116
0.0081875138 -0.37317863 -0.67897487 30 137 118
0.0061795497 -0.37655652 -0.67890805 30 135 114
0.0068253782 -0.37576818 -0.67892617 30 135 116
0.0060864757 -0.37609664 -0.67891192 30 135 114
0.0068071615 -0.37464938 -0.67893851 31 136 116
0.01015037 -0.37663978 -0.67894536 27 137 117
0.013623983 -0.3743127 -0.67905575 33 134 117
0.010284805 -0.37643611 -0.67894793 27 137 117
0.013088403 -0.37669963 -0.67906886 33 135 118
0.013550726 -0.37432498 -0.67905289 33 134 117
0.012274859 -0.37402409 -0.67900842 32 134 117
0.012557282 -0.37397802 -0.67901206 31 135 117
0.010046058 -0.37627754 -0.67894804 27 137 117
0.011075334 -0.37307554 -0.67901194 31 136 118
0.011940565 -0.37471956 -0.6789934 31 133 118
0.011406231 -0.37498879 -0.67898345 30 135 117
0.017071825 -0.37361035 -0.67895305 32 134 114
0.016432952 -0.3746967 -0.67899203 33 134 115
0.015947672 -0.37671167 -0.67905229 37 136 116
0.015839934 -0.37543604 -0.67902118 34 135 116
0.016378608 -0.37662017 -0.6790427 37 137 116
0.016758205 -0.37489474 -0.67899162 34 135 115
0.013950912 -0.37456873 -0.67905384 33 134 117
0.015006951 -0.37439418 -0.67902172 33 134 116
0.013992864 -0.37572333 -0.67906982 33 134 117
0.014886639 -0.37372175 -0.67901516 33 133 116
0.01393745 -0.37368664 -0.67904109 33 134 117
0.019354586 -0.37612918 -0.67888916 33 135 116
0.018263159 -0.37556145 -0.67895132 35 137 116
0.018847531 -0.37454188 -0.67888772 31 135 115
0.01794106 -0.37378132 -0.67892581 33 134 115
0.028923184 -0.37677085 -0.67821789 33 135 116
0.028215284 -0.37679648 -0.6782617 32 136 116
0.033158202 -0.37311977 -0.67808717 40 131 117
0.029976549 -0.37684748 -0.67815208 38 135 117
0.032508668 -0.3754853 -0.67804456 45 131 117
0.032098088 -0.3760193 -0.67805111 46 131 117
0.033184603 -0.37524027 -0.67801178 48 130 118
0.030944213 -0.3761647 -0.67811668 40 133 116
0.032251429 -0.37313935 -0.67813319 36 133 117
0.029307574 -0.37605378 -0.67821157 32 136 116
0.03006338 -0.3757312 -0.67818099 34 134 117
0.030516114 -0.37364498 -0.67820925 30 135 116
0.030107792 -0.37583643 -0.67817611 34 135 116
0.033548754 -0.37333742 -0.67807853 42 131 117
0.034930959 -0.37420112 -0.67805523 52 130 117
0.034887444 -0.3746143 -0.67804062 53 130 117
0.034003753 -0.37349695 -0.67807519 44 131 117
0.052154772 -0.37384656 -0.67832732 46 130 115
0.052650124 -0.37470379 -0.67834473 43 130 116
0.052031308 -0.37440175 -0.67831177 46 130 116
0.051080797 -0.37325886 -0.6782577 48 130 114
0.051409069 -0.37352979 -0.6782791 47 130 114
0.052972335 -0.3730849 -0.67838603 43 129 115
0.053505339 -0.37474766 -0.67839003 42 132 116
0.0057546142 -0.37718698 -0.67890918 31 135 113
0.0028761774 -0.37784201 -0.67898417 33 137 114
0.0097630154 -0.37769279 -0.67894769 28 136 115
0.0060907439 -0.37725201 -0.67891312 31 135 113
0.012698451 -0.37923959 -0.67909384 33 134 115
0.013026001 -0.37846407 -0.67909479 33 135 115
0.012410907 -0.38058281 -0.67910278 31 136 112
0.012731046 -0.37847736 -0.67908376 33 137 114
0.01093585 -0.37757802 -0.6789943 31 136 115
0.012830667 -0.37738475 -0.67906982 33 135 116
0.016878875 -0.38058656 -0.67914635 32 136 119
0.017324315 -0.37870029 -0.67908645 36 137 117
0.016927315 -0.37878951 -0.67908931 36 136 117
0.01684691 -0.37895119 -0.67909443 35 136 117
0.015121491 -0.380043 -0.67912906 31 136 117
0.014158135 -0.37911466 -0.6791209 31 136 117
0.016846582 -0.37698436 -0.67904383 39 136 116
0.014481987 -0.37918162 -0.67911643 31 137 116
0.014441781 -0.37951684 -0.67912203 31 136 117
0.014587384 -0.37703884 -0.67908281 35 136 117
0.016009649 -0.37752664 -0.679066 37 136 116
0.018547934 -0.38084435 -0.6790297 33 136 118
0.018103268 -0.38059351 -0.6790939 32 136 119
0.019630503 -0.38052219 -0.67889798 33 137 117
0.021118555 -0.37977174 -0.678725 33 137 116
0.019616596 -0.38012281 -0.67891032 32 136 117
0.018416289 -0.37825501 -0.67901248 35 136 117
0.018885473 -0.37844557 -0.678985 33 135 118
0.01891735 -0.37908092 -0.67900288 32 136 118
0.01884813 -0.37701017 -0.67894208 36 137 116
0.019811116 -0.37833205 -0.67891532 32 133 119
0.025021203 -0.37957114 -0.67832345 33 134 118
0.023437519 -0.37906364 -0.67853278 31 136 115
0.022740018 -0.38084403 -0.67850751 34 136 115
0.02169141 -0.37793168 -0.67870933 31 133 118
0.021859806 -0.37916765 -0.67866313 32 136 116
0.023788368 -0.37832275 -0.67852896 29 136 115
0.022840079 -0.37905854 -0.67858648 31 137 115
0.026695207 -0.37988353 -0.67818761 36 135 118
0.028975621 -0.37910312 -0.67811877 38 138 117
0.027431222 -0.38034141 -0.67813724 38 136 118
0.028419258 -0.37831384 -0.67817444 36 135 117
0.0286684 -0.37912509 -0.67813134 38 137 117
0.025799332 -0.37995699 -0.67823333 34 134 117
0.03278476 -0.37870377 -0.67791289 50 131 119
0.032192878 -0.37714639 -0.67800516 50 131 117
0.031413738 -0.37723216 -0.67804939 46 132 117
0.029497666 -0.37743753 -0.67815852 36 136 117
0.029986087 -0.37866685 -0.67807984 42 136 117
0.029468371 -0.3788687 -0.67810351 40 136 117
0.033953652 -0.37937137 -0.67785943 50 134 118
0.033529602 -0.37933645 -0.67786413 50 133 118
0.013047853 -0.38171777 -0.67912501 36 134 116
0.013373602 -0.38233799 -0.67911553 34 134 116
0.013419732 -0.38474196 -0.67905968 39 134 115
0.012422182 -0.3818219 -0.67910635 40 133 115
0.0153138 -0.38384834 -0.6791032 35 135 117
0.016992457 -0.38285127 -0.67914408 33 135 119
0.016324976 -0.38219872 -0.67912567 33 135 118
0.017041601 -0.38261169 -0.67914486 33 135 119
0.017418195 -0.38414365 -0.67915761 33 135 119
0.013985609 -0.38191628 -0.67913014 31 135 117
0.014300582 -0.38149267 -0.67914003 29 135 116
0.014431618 -0.38253087 -0.67911565 32 134 117
0.014027771 -0.38204241 -0.67912716 31 135 117
0.017159624 -0.3809016 -0.67915398 32 136 119
0.020344021 -0.38401252 -0.67883509 33 134 118
0.021390159 -0.38368985 -0.6787104 33 134 118
0.020746944 -0.38267478 -0.67876536 34 135 117
0.020509943 -0.38358417 -0.67880857 33 135 118
0.020264896 -0.38214445 -0.6788106 34 136 116
0.019895447 -0.38363102 -0.6788792 33 135 118
0.01760705 -0.38292792 -0.67915547 33 134 120
0.017846759 -0.38351932 -0.67912561 33 135 119
0.019506646 -0.38209322 -0.67890763 34 135 117
0.018113893 -0.38182059 -0.67908752 33 135 119
0.020071063 -0.38199267 -0.67883432 34 136 116
0.025037806 -0.3815535 -0.67825603 35 133 118
0.022006929 -0.38454774 -0.6786536 33 133 118
0.024449285 -0.38201368 -0.67833197 35 133 119
0.025246736 -0.38199186 -0.67823559 33 134 118
0.024408596 -0.38233057 -0.67834026 33 134 118
0.025027215 -0.38437006 -0.67828763 29 132 117
0.021713218 -0.38256675 -0.6786536 33 135 116
0.022310704 -0.38250044 -0.67858469 33 135 117
0.022205072 -0.38098413 -0.6785695 34 137 115
0.02447195 -0.3816306 -0.67832404 35 134 118
0.022280198 -0.3812066 -0.67856497 34 136 115
0.028026486 -0.38427946 -0.67805809 31 136 117
0.02860526 -0.3842307 -0.67801505 31 136 117
0.029208891 -0.38195568 -0.67801809 40 138 118
0.028276322 -0.38386273 -0.67804801 33 136 117
0.025459807 -0.38476318 -0.6782428 28 132 117
0.025942622 -0.38306722 -0.67820555 33 133 117
0.027810868 -0.381497 -0.6781069 39 137 118
0.027685111 -0.38097033 -0.67810678 40 136 118
0.028070375 -0.38186327 -0.67809951 39 137 118
0.025803644 -0.38353679 -0.67821676 31 133 117
0.032527149 -0.38359141 -0.67782795 35 136 119
0.032861825 -0.38224733 -0.6778205 39 136 119
0.033007119 -0.38127127 -0.67781895 43 136 119
0.032317247 -0.38350844 -0.67783666 35 136 119
0.03237462 -0.38456681 -0.67782974 32 137 118
0.0312826 -0.38131645 -0.67791229 42 137 119
0.030570457 -0.38171899 -0.67794412 41 137 119
0.03023028 -0.38162231 -0.67796558 41 138 118
0.030320972 -0.38317826 -0.6779269 35 137 118
0.035005745 -0.38436195 -0.67785227 35 137 118
0.036516856 -0.38376662 -0.67789644 41 135 118
0.035599425 -0.38433936 -0.67787206 36 137 118
0.035721455 -0.38396302 -0.67787188 38 136 118
0.035213117 -0.3835527 -0.67784995 40 135 118
0.03382951 -0.382404 -0.67781752 42 136 119
0.033911142 -0.38341135 -0.6778146 38 137 118
0.033605389 -0.38250309 -0.67781305 40 135 119
0.033398852 -0.38151526 -0.67781365 43 136 119
0.038124323 -0.38423002 -0.67790949 40 135 118
0.038600996 -0.38470045 -0.67788613 38 136 118
0.012974077 -0.38793111 -0.67906332 36 137 115
0.013418584 -0.38576505 -0.67906505 36 135 115
0.017385593 -0.3869203 -0.67906928 31 133 118
0.016461743 -0.38826394 -0.67901552 30 133 117
0.017572738 -0.38770643 -0.67903358 30 132 117
0.015367354 -0.38835999 -0.67901772 31 136 118
0.017524963 -0.38559011 -0.67912698 33 134 118
0.014817046 -0.38591775 -0.67907792 34 136 117
0.013853159 -0.38571835 -0.67905569 35 135 116
0.016874887 -0.3848072 -0.67914444 34 134 119
0.014112968 -0.38549486 -0.67906517 35 135 116
0.014877189 -0.38704884 -0.67906523 33 137 119
0.013983658 -0.38492766 -0.67906892 36 135 116
0.020317988 -0.38703808 -0.67882401 31 135 118
0.019710789 -0.38798365 -0.6788736 31 133 118
0.020359263 -0.38783526 -0.67883915 31 133 118
0.021412317 -0.3853631 -0.67873532 32 134 119
0.020337952 -0.38851985 -0.67885488 31 133 118
0.019213479 -0.38505107 -0.6789645 33 134 118
0.017790731 -0.38723844 -0.67902994 30 133 117
0.019669963 -0.384855 -0.67892128 33 134 119
0.021321153 -0.3848654 -0.67873311 32 134 118
0.01782077 -0.38576835 -0.67909122 33 133 118
0.023571461 -0.38722944 -0.67855251 30 135 118
0.023670729 -0.38723585 -0.67854595 30 135 118
0.024800474 -0.38648254 -0.67841232 29 135 116
0.023287492 -0.38754553 -0.67859513 30 135 118
0.025302805 -0.38787681 -0.67847645 28 139 115
0.02515406 -0.38551185 -0.67831802 28 134 117
0.021847853 -0.38484374 -0.67867678 32 133 119
0.021577911 -0.38687858 -0.67875308 32 134 119
0.022741966 -0.38503861 -0.67857319 31 133 118
0.021931591 -0.38736546 -0.67872095 32 134 119
0.022738267 -0.385517 -0.67858398 31 133 118
0.026791014 -0.38737622 -0.67832506 29 137 115
0.02673801 -0.38849959 -0.67837888 28 138 115
0.027329516 -0.38675228 -0.67824197 29 137 115
0.026942752 -0.38749316 -0.67831421 29 137 115
0.027935987 -0.38762662 -0.67821622 27 138 115
0.026647812 -0.38582262 -0.67822784 28 135 116
0.027989794 -0.3858684 -0.67812914 29 137 116
0.028166229 -0.38576347 -0.67810822 29 136 116
0.027417878 -0.38604662 -0.67818534 29 137 116
0.02721926 -0.3864308 -0.6782279 29 137 116
0.031017469 -0.38724899 -0.67797995 27 138 115
0.033100747 -0.38723981 -0.67782998 31 135 117
0.030713873 -0.38795638 -0.67800939 27 137 115
0.03139263 -0.38713339 -0.67795169 27 138 115
0.031082133 -0.38836214 -0.67798728 27 137 115
0.032177504 -0.38759059 -0.6779002 28 136 115
0.029361283 -0.38478485 -0.67794925 29 137 116
0.029880598 -0.38776508 -0.67805684 27 137 115
0.032299116 -0.38553309 -0.67786485 30 137 117
0.031392038 -0.38605234 -0.67792314 28 138 116
0.029924197 -0.38631886 -0.67799288 28 136 116
0.036278535 -0.38773003 -0.6779018 32 136 118
0.036899291 -0.38560775 -0.67792106 35 135 119
0.036777318 -0.38855022 -0.67790884 32 136 120
0.036222178 -0.38708183 -0.67790282 33 136 118
0.035466734 -0.38665819 -0.67788929 33 135 118
0.036545657 -0.38587588 -0.67791319 35 135 119
0.036793418 -0.38485608 -0.67791826 35 136 118
0.034424882 -0.3850784 -0.67784065 33 137 118
0.034483545 -0.38699743 -0.6778633 32 134 117
0.033856574 -0.38596052 -0.67783093 32 136 117
0.035869047 -0.38487568 -0.67788726 34 136 118
0.038846318 -0.38796455 -0.67785209 35 134 120
0.039363198 -0.38810509 -0.67782706 35 134 120
0.037876148 -0.38824883 -0.67788917 33 136 119
0.037617631 -0.38671458 -0.67790681 34 135 119
0.038566943 -0.38656819 -0.67787981 36 135 119
0.040484641 -0.38503265 -0.6778295 42 133 120
0.037507284 -0.38747525 -0.67790747 33 137 119
0.041270141 -0.3853322 -0.67781049 42 133 120
0.012166492 -0.3925392 -0.67942518 36 138 113
0.012484558 -0.39229095 -0.67938972 36 137 114
0.011743956 -0.39142573 -0.67934185 33 139 112
0.012486698 -0.39148352 -0.67931664 33 139 114
0.014996998 -0.39252481 -0.67925799 36 137 114
0.014288582 -0.39147687 -0.67926383 35 137 116
0.014326422 -0.39006001 -0.67913562 33 137 117
0.016536973 -0.3894929 -0.67907131 30 133 116
0.014870564 -0.39040023 -0.6791631 33 135 117
0.013961875 -0.39112064 -0.67923361 35 137 116
0.020161124 -0.39063254 -0.67887706 32 136 115
0.020292085 -0.39224622 -0.67884421 31 136 115
0.019964768 -0.38962758 -0.67889011 32 134 117
0.01852781 -0.3892546 -0.67895383 30 133 116
0.024973627 -0.38957542 -0.67853767 30 140 113
0.023741862 -0.39132833 -0.67859346 33 136 115
0.022747787 -0.38913488 -0.67870724 31 136 118
0.022906113 -0.39081377 -0.67867237 29 137 116
0.021792619 -0.39096436 -0.67874891 30 136 118
0.024097675 -0.38950574 -0.67860663 29 137 115
0.0218991 -0.3900004 -0.67875499 30 136 118
0.028544294 -0.38984469 -0.6781925 31 136 112
0.027256474 -0.38956648 -0.67830831 29 139 113
0.027173067 -0.3894479 -0.67832017 29 139 113
0.0367225 -0.39124724 -0.67796266 27 134 115
0.035679303 -0.39240897 -0.67800242 29 134 113
0.036555137 -0.39211059 -0.67797941 27 134 114
0.033979349 -0.39182502 -0.67802918 33 137 112
0.035684325 -0.39226738 -0.67800015 29 134 113
0.034011908 -0.38939017 -0.67789418 31 135 115
0.035212945 -0.38993481 -0.67794842 32 136 116
0.036121223 -0.38901356 -0.67791468 31 136 118
0.033222761 -0.39025617 -0.67792726 32 134 114
0.040652279 -0.39169854 -0.67779642 36 135 120
0.037694734 -0.3922199 -0.67794305 27 133 115
0.040409267 -0.39068925 -0.6777966 34 135 119
0.040612571 -0.38948724 -0.67777336 34 135 119
0.040151384 -0.39025134 -0.67780393 33 134 119
0.040443387 -0.38919851 -0.67777801 34 134 119
0.039579593 -0.38874137 -0.67780858 33 135 120
0.037489347 -0.39205489 -0.67795038 26 133 114
0.037252642 -0.39096129 -0.67794389 27 134 116
0.037111796 -0.38955522 -0.67792839 30 135 119
0.0082811275 -0.3962037 -0.67940259 34 136 112
0.012164697 -0.39567369 -0.67935508 32 134 114
0.011577459 -0.39559799 -0.67935538 32 134 114
0.012570262 -0.39481041 -0.67935842 34 134 116
0.012272716 -0.39276829 -0.67941582 36 138 113
0.011199627 -0.39341632 -0.67943066 34 136 112
0.012728042 -0.39345053 -0.67936659 36 136 116
0.014572407 -0.39564008 -0.67928404 32 134 114
0.013772367 -0.3941505 -0.67935276 34 136 115
0.014126362 -0.39267725 -0.67932951 37 137 116
0.014795939 -0.39320326 -0.67927277 36 136 114
0.01442694 -0.39280435 -0.67930448 36 137 115
0.021415489 -0.39304551 -0.67877948 32 136 117
0.018919969 -0.39607316 -0.67909646 38 135 116
0.021089131 -0.39352241 -0.67882568 33 134 117
0.021457894 -0.39292094 -0.67876971 31 136 117
0.021153044 -0.39459455 -0.67888558 40 133 116
0.020197378 -0.39609313 -0.67902702 44 134 115
0.019349983 -0.39409411 -0.67896897 32 136 115
0.019745607 -0.3939603 -0.6789335 32 136 116
0.02406333 -0.39542532 -0.67864382 53 134 112
0.023389304 -0.39627397 -0.67874342 56 132 113
0.025190046 -0.39585277 -0.67851615 57 133 111
0.025373278 -0.39552155 -0.67848694 56 133 111
0.024455162 -0.39578831 -0.67860395 55 133 112
0.022628363 -0.39615443 -0.67883325 54 133 113
0.022255026 -0.39530888 -0.67884535 47 134 114
0.022294646 -0.39332414 -0.67872471 37 135 116
0.021710111 -0.39360726 -0.67879003 37 135 116
0.023104958 -0.39477035 -0.67874283 47 134 114
0.024237072 -0.39306396 -0.67854774 42 134 114
0.027988851 -0.39521325 -0.67831963 70 130 109
0.028725846 -0.39364332 -0.67828625 57 132 108
0.027186882 -0.39644998 -0.6783635 77 130 110
0.028549835 -0.39363474 -0.67830038 55 133 108
0.029249532 -0.39540803 -0.67821681 85 127 110
0.027584458 -0.39509115 -0.67835361 64 132 109
0.026632627 -0.39468676 -0.67841482 54 134 109
0.029980483 -0.39608145 -0.67817032 88 128 110
0.029875016 -0.3933014 -0.67821676 56 133 108
0.030979585 -0.39378008 -0.67815232 58 132 109
0.030573301 -0.39357835 -0.67817646 58 132 109
0.029405696 -0.39529008 -0.67820936 83 128 109
0.036488112 -0.39504626 -0.67789042 33 135 111
0.036746282 -0.39427206 -0.67791271 30 135 112
0.036984645 -0.39387628 -0.67791688 29 134 113
0.036648549 -0.3942287 -0.67792147 30 135 111
0.035349764 -0.393226 -0.67800879 30 135 111
0.034276918 -0.3932595 -0.67803115 33 135 110
0.035796817 -0.39378655 -0.67799664 30 135 111
0.034772024 -0.39266625 -0.67802364 30 136 111
0.038789302 -0.39558655 -0.67774177 35 138 113
0.040442094 -0.39550489 -0.67766887 33 138 115
0.040471628 -0.39572731 -0.67765635 33 137 115
0.039988752 -0.39506546 -0.67771202 35 136 116
0.039438169 -0.39465031 -0.67775851 36 137 116
0.039380837 -0.39450556 -0.67776841 36 137 116
0.038056199 -0.3926836 -0.67792451 28 132 115
0.039559938 -0.39271522 -0.67785132 33 134 118
0.039427821 -0.39266306 -0.67786026 32 134 117
0.043844648 -0.39564815 -0.67773253 33 135 118
0.041630972 -0.39605877 -0.67763758 32 137 115
0.042944372 -0.39557609 -0.67770791 34 135 117
0.044536408 -0.39420345 -0.67783934 36 136 118
0.04121181 -0.39635879 -0.67760658 32 137 115
0.042537894 -0.39436477 -0.6777609 36 136 117
0.041940805 -0.39379534 -0.67776531 36 136 119
0.041259523 -0.39483783 -0.67768544 34 136 117
0.041409861 -0.39389747 -0.67773873 35 137 118
0.047049537 -0.39636904 -0.67782557 34 134 119
0.050840996 -0.39639303 -0.67810148 37 136 119
0.0087034926 -0.39730999 -0.67943031 36 134 113
0.016301861 -0.39878714 -0.67936802 30 135 116
0.015373415 -0.40020949 -0.67947918 27 135 115
0.014569509 -0.39950028 -0.67946267 30 135 116
0.02021816 -0.39977542 -0.67924231 33 139 114
0.020437922 -0.40028474 -0.67926055 33 138 115
0.019232877 -0.39976066 -0.67929494 31 137 114
0.021212932 -0.39910349 -0.67914861 40 137 114
0.02053944 -0.39667025 -0.67904204 47 133 114
0.019259088 -0.39797109 -0.67918843 38 133 114
0.020122761 -0.39663097 -0.67906278 46 133 115
0.01920642 -0.39654046 -0.6791082 42 134 116
0.022796163 -0.40031636 -0.67901534 43 137 114
0.023304634 -0.3994951 -0.67891294 46 136 113
0.02484693 -0.40031695 -0.67871511 58 132 112
0.022732317 -0.40029553 -0.67902398 42 138 113
0.023585916 -0.40000901 -0.67888927 48 136 113
0.024523465 -0.39738506 -0.67866272 54 135 111
0.022257157 -0.39736861 -0.67893749 50 134 114
0.021942494 -0.3998678 -0.67912346 37 140 114
0.02299591 -0.39879173 -0.67893201 44 138 113
0.021552993 -0.39950299 -0.67914909 38 140 114
0.022720909 -0.39740822 -0.67888355 51 134 113
0.028363978 -0.3988969 -0.67835385 80 131 109
0.028575014 -0.39997637 -0.67837554 75 134 109
0.028704425 -0.39724168 -0.67826891 92 126 110
0.027831618 -0.39905173 -0.6784007 78 131 110
0.027631842 -0.39872089 -0.67840457 80 129 111
0.026348319 -0.39905676 -0.67851686 70 130 111
0.025881659 -0.39740542 -0.67849755 65 132 110
0.027061973 -0.39824435 -0.67843276 77 129 110
0.026116528 -0.39662191 -0.67845231 67 132 110
0.027283553 -0.39741245 -0.67838687 79 128 111
0.027326945 -0.39818731 -0.67840981 80 128 111
0.031318787 -0.40031996 -0.67814833 77 134 106
0.032509297 -0.40017778 -0.67804068 79 132 105
0.030677946 -0.39944991 -0.67822206 68 137 107
0.032877471 -0.39762133 -0.67804915 54 135 106
0.031921823 -0.39848027 -0.67812324 61 135 106
0.031158591 -0.39729604 -0.67814934 68 132 108
0.031378832 -0.39820251 -0.67817247 58 136 107
0.030240368 -0.39817354 -0.67821753 75 133 108
0.031594872 -0.39682466 -0.67811513 64 132 108
0.029809371 -0.39969781 -0.67828882 71 137 108
0.031953353 -0.39695233 -0.67810512 58 133 107
0.035535384 -0.3998079 -0.67787987 75 131 104
0.035325717 -0.39881003 -0.67787313 63 134 106
0.036209807 -0.40012515 -0.67785984 79 129 103
0.036725029 -0.39927003 -0.67782891 69 130 105
0.036436427 -0.39870477 -0.67783129 62 133 106
0.033213492 -0.39987507 -0.67798084 77 132 104
0.034567531 -0.3980777 -0.67791963 56 135 106
0.033557773 -0.39845449 -0.67798132 62 134 105
0.034151483 -0.39813274 -0.67794675 58 134 106
0.040213428 -0.40037748 -0.67775661 37 144 102
0.040886957 -0.39807439 -0.6776551 31 141 110
0.03816558 -0.39980373 -0.67778403 68 132 104
0.03819707 -0.39931861 -0.67776531 68 130 106
0.040757418 -0.39967018 -0.67771739 31 144 106
0.037121765 -0.39904922 -0.67781121 66 131 105
0.038560882 -0.39649105 -0.67770749 34 139 112
0.041604728 -0.39998144 -0.67773652 26 146 106
0.042889293 -0.3989549 -0.67773211 27 142 110
0.043323088 -0.39885822 -0.67773277 27 141 113
0.042728133 -0.39807561 -0.6777069 28 140 112
0.041336641 -0.39938128 -0.67771077 26 146 106
0.041166183 -0.39833289 -0.67766643 27 143 109
0.041690599 -0.39918259 -0.67771477 27 144 107
0.042089514 -0.39873189 -0.67771083 27 144 108
0.046389185 -0.39820623 -0.67780501 30 135 119
0.047197644 -0.39778793 -0.67784148 33 136 119
0.045841381 -0.39738566 -0.67777103 31 133 120
0.049988855 -0.39837196 -0.67807817 33 136 121
0.051078722 -0.39732754 -0.67814934 35 136 119
0.04989652 -0.39707553 -0.67802995 35 136 119
0.050295275 -0.39730895 -0.67807472 34 136 119
0.055522244 -0.39794332 -0.67847395 34 135 121
0.056170397 -0.397241 -0.6785199 35 135 121
0.054207612 -0.3979944 -0.6783849 35 137 120
0.053653385 -0.39870399 -0.6783461 34 137 119
0.01353952 -0.40229172 -0.67966264 36 135 115
0.012278822 -0.40418389 -0.67982775 40 136 116
0.012620256 -0.40131864 -0.6796369 31 137 115
0.016277228 -0.40413055 -0.67971951 38 135 115
0.015465563 -0.40090895 -0.67951834 29 135 115
0.015101285 -0.40265146 -0.67963529 36 134 115
0.020846143 -0.40219241 -0.6793384 33 138 115
0.021016294 -0.40161905 -0.67930037 33 139 115
0.021117747 -0.40124348 -0.67927641 34 139 115
0.020276491 -0.40144855 -0.679353 34 139 115
0.018629845 -0.40237653 -0.6795103 33 137 114
0.020623388 -0.40084258 -0.67928982 33 139 115
0.018912656 -0.40215975 -0.67947906 33 138 114
0.025014583 -0.40379977 -0.67903441 46 137 110
0.022800464 -0.40343636 -0.67917103 39 133 115
0.022498155 -0.40414059 -0.67927074 35 134 115
0.024038536 -0.40296265 -0.67902184 45 134 112
0.025073171 -0.40098912 -0.67872751 57 132 112
0.021646617 -0.40083539 -0.67920417 35 139 115
0.023006678 -0.40212613 -0.6790573 43 134 114
0.022983348 -0.40196189 -0.67905408 43 134 114
0.023445815 -0.40182787 -0.67898089 46 133 114
0.022062646 -0.40080956 -0.67914224 38 138 115
0.023801817 -0.40156534 -0.67891818 48 132 113
0.028234474 -0.40182686 -0.67855084 67 137 108
0.027260929 -0.40290204 -0.67873675 60 137 109
0.028192883 -0.40179479 -0.67855459 67 137 108
0.028400004 -0.40395802 -0.67864245 71 132 109
0.029278265 -0.40407676 -0.67853278 79 130 109
0.02841251 -0.40134197 -0.67850149 68 137 109
0.028967198 -0.40045556 -0.6783666 73 137 108
0.02748806 -0.40130505 -0.67857301 64 137 108
0.025608866 -0.40105134 -0.67869198 59 132 110
0.025661895 -0.40396255 -0.67900097 47 138 109
0.026282147 -0.40254226 -0.67879999 55 137 109
0.032727439 -0.4012697 -0.67808062 82 131 105
0.032935858 -0.40157765 -0.67809945 80 132 106
0.032821514 -0.40098584 -0.67804891 81 132 104
0.033169474 -0.40194926 -0.67812306 80 131 107
0.032039274 -0.4030937 -0.67828912 80 131 108
0.032694239 -0.40279683 -0.67822778 80 131 108
0.032065507 -0.40109926 -0.67811579 80 132 105
0.031037271 -0.40225047 -0.67827213 80 131 107
0.030062051 -0.40179959 -0.67833829 77 133 108
0.031919152 -0.40159315 -0.67815566 81 131 105
0.031134114 -0.40148976 -0.67822272 79 133 106
0.034691725 -0.40402237 -0.67823333 77 131 109
0.035819493 -0.40349135 -0.67812634 77 130 107
0.03563739 -0.40389219 -0.6781655 76 130 107
0.036748536 -0.40212181 -0.67797351 79 129 104
0.037042685 -0.4026362 -0.67799091 77 129 104
0.03698279 -0.40341848 -0.67804891 76 129 104
0.033952195 -0.40148327 -0.6780498 81 130 106
0.034456618 -0.40056098 -0.67794359 82 130 104
0.034362298 -0.40097964 -0.67798686 81 130 104
0.034059543 -0.40296686 -0.67818719 79 130 109
0.033810619 -0.40043551 -0.67795509 82 131 103
0.040313516 -0.40391201 -0.6779182 40 147 102
0.038888123 -0.4026874 -0.67794317 52 137 103
0.038689572 -0.40373066 -0.67799598 56 137 103
0.03928848 -0.40304962 -0.67793685 48 140 103
0.037769783 -0.40408605 -0.67805874 66 132 104
0.03972717 -0.40157893 -0.67785114 41 142 103
0.039081812 -0.40135798 -0.67785114 51 138 102
0.039766043 -0.40116882 -0.67782176 42 142 103
0.037457123 -0.40104347 -0.67786801 76 130 103
0.038296271 -0.40236402 -0.67793965 60 135 103
0.037125532 -0.40250048 -0.67797697 77 129 104
0.042623736 -0.40323329 -0.67785782 28 146 107
0.043321688 -0.40299723 -0.67784941 26 142 110
0.04236228 -0.40081584 -0.67775977 26 146 108
0.043549504 -0.40160164 -0.67779571 27 142 113
0.042304963 -0.40214944 -0.67781389 28 146 107
0.041125223 -0.40111431 -0.67776781 27 149 103
0.0091879712 -0.40638936 -0.68002105 45 137 114
0.0068021119 -0.40702054 -0.67987633 40 136 115
0.011954942 -0.40657341 -0.68006873 47 137 114
0.012107476 -0.40589204 -0.68002343 45 137 114
0.01259956 -0.40466636 -0.67986447 42 136 115
0.013630646 -0.4061127 -0.67999011 48 135 115
0.01473131 -0.40563613 -0.67991054 44 135 115
0.016935114 -0.40728271 -0.68005282 43 135 114
0.016426781 -0.40668094 -0.6799944 42 135 114
0.015814764 -0.40612963 -0.67994404 42 135 114
0.015824294 -0.40466717 -0.67978108 40 134 115
0.016792063 -0.40498474 -0.67979884 39 134 115
0.015540672 -0.40441746 -0.67975843 40 133 116
0.016841311 -0.40468228 -0.67976427 38 135 114
0.015983358 -0.40555173 -0.67987663 42 134 115
0.017935069 -0.40777943 -0.68006527 42 135 114
0.019126257 -0.4075979 -0.67994505 38 137 114
0.018074855 -0.4049207 -0.67973566 36 135 114
0.018712968 -0.40648261 -0.67985576 38 136 115
0.017983271 -0.40579492 -0.67984045 38 136 114
0.018771591 -0.40528941 -0.67971772 35 136 114
0.023171609 -0.4065426 -0.67949039 38 139 113
0.023950765 -0.40704396 -0.67945385 39 137 114
0.024607204 -0.40735179 -0.67941278 40 138 114
0.023618551 -0.40783632 -0.67955929 38 138 115
0.02428812 -0.406149 -0.67933863 41 138 113
0.02510763 -0.40653226 -0.67928731 42 138 113
0.023687398 -0.40440512 -0.6792056 38 137 112
0.023050806 -0.40537766 -0.67936736 36 137 113
0.02319468 -0.40637308 -0.67946982 38 139 113
0.027425023 -0.40723455 -0.67902148 56 137 113
0.028973486 -0.40734094 -0.67877942 63 139 110
0.028079532 -0.40789509 -0.67895669 56 140 111
0.026666174 -0.40819776 -0.67920202 47 140 114
0.027834311 -0.40660101 -0.67891717 61 136 112
0.028569544 -0.40486524 -0.67868888 73 131 111
0.027352463 -0.40619305 -0.67896831 61 133 113
0.026427761 -0.4044407 -0.67893386 54 136 109
0.025437953 -0.4062404 -0.67922544 43 137 113
0.026756536 -0.40636927 -0.67906278 55 135 113
0.031842854 -0.40687913 -0.67857975 66 136 109
0.032804657 -0.40647325 -0.67851043 68 134 109
0.031737726 -0.40605095 -0.67852789 70 136 110
0.030271426 -0.40757728 -0.67869526 63 140 110
0.032417346 -0.40633836 -0.678518 69 135 109
0.032241378 -0.40632826 -0.67852491 69 135 110
0.03074667 -0.40466616 -0.67849135 77 132 110
0.030065887 -0.40693 -0.67866367 66 139 110
0.030635377 -0.40443259 -0.67848277 78 131 110
0.031905241 -0.40435654 -0.67841411 79 131 111
0.031072441 -0.40628421 -0.67857355 69 138 110
0.030746477 -0.40477368 -0.67849797 77 132 110
0.035778143 -0.40606597 -0.6783163 66 131 105
0.035707455 -0.40727723 -0.67843181 55 135 105
0.034208097 -0.40763068 -0.67852032 61 133 107
0.034228433 -0.40776414 -0.67853206 60 133 107
0.03641453 -0.4065012 -0.67833316 58 134 105
0.033890769 -0.40716302 -0.67849737 65 132 108
0.033799846 -0.40673074 -0.67847359 67 131 108
0.034429438 -0.4055759 -0.67835581 71 131 108
0.033583052 -0.40655753 -0.67847526 68 132 109
0.033519905 -0.40753305 -0.67854565 64 132 108
0.039788414 -0.40798613 -0.67828882 33 141 111
0.039671227 -0.40757468 -0.67826015 34 142 110
0.039900176 -0.4073838 -0.67823011 33 142 109
0.039785568 -0.40584651 -0.67810386 36 147 104
0.040672101 -0.40679646 -0.67813361 32 145 109
0.039625667 -0.40763342 -0.6782679 34 142 110
0.037248116 -0.40478143 -0.67813987 68 132 104
0.037528954 -0.40762439 -0.67839009 40 141 105
0.038025189 -0.40448311 -0.67807126 62 135 103
0.038156122 -0.40441817 -0.67805833 62 135 103
0.038133129 -0.40456653 -0.67807335 61 135 103
0.038206466 -0.40644404 -0.67824447 44 142 104
0.041253369 -0.40430927 -0.67789829 33 150 103
0.041397687 -0.40685526 -0.67811871 29 142 111
0.042481009 -0.40492448 -0.67795283 26 145 108
0.041462496 -0.4067125 -0.67810649 29 142 111
0.041485883 -0.40617231 -0.67805976 29 145 109
0.019815728 -0.40896264 -0.68002242 37 136 115
0.023265369 -0.40847471 -0.67964333 36 137 116
0.029215878 -0.41050118 -0.67901522 46 139 112
0.029191149 -0.41031471 -0.67899978 47 139 112
0.028686745 -0.40884468 -0.67891324 55 142 110
0.027881796 -0.4083499 -0.67901492 53 142 111
0.028608574 -0.40846768 -0.67890447 56 142 110
0.027731439 -0.40866718 -0.67905581 51 141 112
0.027388725 -0.40944505 -0.67915183 46 141 113
0.030621069 -0.41110337 -0.67900097 42 134 113
0.029863434 -0.41132155 -0.67906207 42 134 114
0.036290947 -0.40927044 -0.67857504 35 141 108
0.035994552 -0.41009218 -0.67864215 31 139 110
0.036069598 -0.40954542 -0.67860365 33 141 108
0.035758942 -0.40891892 -0.67857111 40 139 107
0.039900426 -0.40933383 -0.67837352 26 141 116
0.039180227 -0.40831384 -0.67835057 34 140 111
0.040267766 -0.40863633 -0.67830676 29 140 115
0.040583055 -0.4084594 -0.67827684 29 140 115
0.03957995 -0.40947834 -0.67840087 26 141 116
0 0 0 1 0 0 0 1 0 0 0 1 0 0 0 0 0 968 1 0 0
