ply
format ascii 1.0
comment PCL generated
element vertex 1025
property float x
property float y
property float z
property uchar red
property uchar green
property uchar blue
element camera 1
property float view_px
property float view_py
property float view_pz
property float x_axisx
property float x_axisy
property float x_axisz
property float y_axisx
property float y_axisy
property float y_axisz
property float z_axisx
property float z_axisy
property float z_axisz
property float focal
property float scalex
property float scaley
property float centerx
property float centery
property int viewportx
property int viewporty
property float k1
property float k2
end_header
-0.084894292 0.13900404 -0.77331418 21 132 120
-0.085848629 0.13883017 -0.77272332 19 132 119
-0.08732041 0.13676049 -0.77096796 23 130 121
-0.087453373 0.13792075 -0.77144063 18 132 119
-0.085915275 0.13863049 -0.77259105 19 132 119
-0.085560858 0.13730167 -0.7721476 24 131 119
-0.086183645 0.13810366 -0.77219838 20 132 119
-0.086025327 0.13693459 -0.77172685 24 131 119
-0.056859288 0.098812133 -0.77365667 12 130 121
-0.057394128 0.097438924 -0.77267796 11 130 121
-0.058111113 0.096385695 -0.77162993 11 130 121
-0.056677476 0.096009448 -0.77295101 9 130 124
-0.057969466 0.096903473 -0.77193362 12 130 121
-0.056530554 0.097964287 -0.77372319 11 130 121
-0.058632478 0.095295459 -0.77077287 14 130 121
-0.057313669 0.09499339 -0.77200645 14 130 121
-0.057263326 0.095323153 -0.77215487 11 130 122
-0.058708664 0.093170963 -0.7700392 14 130 121
-0.058801293 0.093137197 -0.7699331 14 130 121
-0.068770841 0.14407186 -0.78836387 14 130 123
-0.068517454 0.14323674 -0.78809273 14 130 122
-0.06868235 0.14392477 -0.78836262 14 130 123
-0.067517705 0.14333022 -0.78927851 15 130 123
-0.067580096 0.14278108 -0.78885257 15 130 122
-0.069089085 0.14216205 -0.78676569 14 130 121
-0.068408281 0.13993722 -0.78591037 16 132 118
-0.068425991 0.13980602 -0.78579855 16 130 118
-0.069378294 0.14163464 -0.78608495 14 130 120
-0.068038262 0.14015628 -0.78648293 16 132 118
-0.067593277 0.14146131 -0.78791451 16 130 121
-0.067804731 0.14193194 -0.78800762 15 130 121
-0.066983335 0.13939518 -0.78702545 17 130 119
-0.065016612 0.13938467 -0.78908408 18 130 121
-0.066196993 0.13962191 -0.78802115 18 130 120
-0.066392496 0.13972388 -0.78789192 17 130 120
-0.064952649 0.13969156 -0.78938067 18 130 121
-0.065679103 0.13954616 -0.78850865 18 130 120
-0.066136554 0.14003007 -0.78838968 17 130 120
-0.066791788 0.13885336 -0.78684962 18 130 119
-0.068191685 0.13931516 -0.78569782 17 130 118
-0.066106692 0.13831912 -0.78717095 18 130 118
-0.064836971 0.13840632 -0.78854793 18 132 119
-0.065294243 0.13704336 -0.7870968 20 130 118
-0.067233384 0.13866247 -0.78625101 17 132 118
-0.066901371 0.13723274 -0.78559035 20 130 118
-0.064160191 0.13750751 -0.78864044 20 130 119
-0.053009532 0.11933979 -0.78912228 21 133 119
-0.052689001 0.11914337 -0.78942668 20 135 119
-0.052825168 0.11871185 -0.78891259 21 133 119
-0.052630134 0.11763094 -0.78837782 20 135 119
-0.05176039 0.11625899 -0.7886886 18 132 121
-0.052606709 0.11686348 -0.78783631 20 133 120
-0.051480036 0.11634794 -0.78918862 17 132 121
-0.052442569 0.11775716 -0.78876263 20 133 120
-0.052191328 0.11447832 -0.78678781 19 132 122
-0.052641623 0.11435944 -0.78601933 20 133 121
-0.051191591 0.11456284 -0.78838223 16 132 121
-0.052303948 0.11347356 -0.78599453 18 132 121
-0.051634915 0.11339676 -0.7869783 17 132 122
-0.052413769 0.11388761 -0.78608114 19 132 121
-0.050001416 0.11252993 -0.78922862 12 132 123
-0.050866287 0.11408229 -0.78862131 15 132 122
-0.050763875 0.11333495 -0.78837103 14 132 122
-0.050239366 0.11333309 -0.78927654 14 132 123
-0.051431041 0.11139584 -0.78610939 15 132 122
-0.050851531 0.11218317 -0.78756106 14 132 122
-0.049074814 0.10971776 -0.78920799 14 132 123
-0.049731515 0.10788305 -0.78702515 11 132 123
-0.050018568 0.10803036 -0.78662127 10 132 124
-0.049315102 0.10940497 -0.78861332 12 132 123
-0.049695924 0.10817897 -0.78725666 11 132 123
-0.049334005 0.10913033 -0.78842252 12 132 123
-0.050887451 0.11036976 -0.78646272 12 132 123
-0.051358785 0.11085734 -0.78592664 15 132 123
-0.050579283 0.11089367 -0.78729463 12 132 123
-0.050761029 0.10945178 -0.78615683 11 132 123
-0.05047838 0.10905203 -0.78641701 10 132 123
-0.050898761 0.10981031 -0.78612363 12 132 123
-0.048807267 0.10922852 -0.78939569 14 132 121
-0.049926884 0.1067149 -0.78600687 17 130 124
-0.049607884 0.10567045 -0.78593099 27 132 122
-0.049438607 0.10630187 -0.78659374 24 131 123
-0.048502993 0.10671423 -0.78856587 21 133 121
-0.060784962 0.15288456 -0.80642831 14 130 125
-0.060478896 0.15146431 -0.80540788 14 130 123
-0.058833063 0.15082029 -0.80819756 14 130 122
-0.058872599 0.151012 -0.8083297 14 130 122
-0.060080115 0.15119973 -0.80593681 14 130 123
-0.059450168 0.15070958 -0.80674028 14 130 122
-0.059742596 0.15252636 -0.8081699 14 130 123
-0.058996111 0.15086083 -0.80789167 14 130 122
-0.057578407 0.14883149 -0.80839139 16 130 121
-0.056747161 0.14747986 -0.80850726 17 130 122
-0.057887845 0.14934324 -0.8083967 16 130 123
-0.057500653 0.14839512 -0.80799562 17 130 122
-0.057096977 0.14664747 -0.80664223 18 130 122
-0.056946788 0.1469162 -0.80727077 18 128 122
-0.058551524 0.14906175 -0.80665302 16 132 121
-0.058777355 0.14843687 -0.80538291 17 130 122
-0.059998497 0.15031758 -0.80510366 15 130 123
-0.058160327 0.14778168 -0.80589366 17 132 122
-0.059190102 0.14979051 -0.80618793 15 130 122
-0.058249392 0.14789478 -0.80584317 17 130 122
-0.056474335 0.14683811 -0.8083784 18 130 122
-0.057314537 0.14573231 -0.80515951 19 128 122
-0.056752302 0.14578433 -0.80633205 19 128 122
-0.056624986 0.14550164 -0.80628335 19 128 122
-0.056326754 0.14484115 -0.8064028 19 130 122
-0.055952132 0.14301229 -0.80522263 19 130 122
-0.056215692 0.14498448 -0.80689067 19 130 122
-0.055563468 0.14268839 -0.80578882 18 132 122
-0.055926036 0.1444844 -0.80707508 18 132 122
-0.05545745 0.14505623 -0.80883199 18 132 122
-0.055906508 0.14603484 -0.80895257 18 132 122
-0.05535765 0.14289998 -0.80651373 18 132 122
-0.055559531 0.14415485 -0.80753112 18 132 122
-0.05289007 0.13920189 -0.80662715 18 130 123
-0.052795596 0.13943367 -0.80732745 18 130 123
-0.053731021 0.14172986 -0.80863702 17 130 122
-0.053456854 0.14036638 -0.80707121 18 130 123
-0.053976551 0.14214619 -0.8086499 18 130 123
-0.055570707 0.1422254 -0.80508786 18 132 122
-0.054262657 0.1412522 -0.80657721 18 130 122
-0.054021068 0.14206707 -0.8084144 18 130 123
-0.053907674 0.14071351 -0.80655015 18 130 122
-0.054513935 0.14191261 -0.80703473 18 130 123
-0.05385616 0.14149204 -0.80789173 18 130 123
-0.054574225 0.14152981 -0.80629438 18 132 122
-0.052032478 0.13878481 -0.80857283 17 130 124
-0.052178428 0.1391256 -0.80872184 17 130 124
-0.052056223 0.13698837 -0.80532587 18 130 123
-0.051611628 0.13644928 -0.80573744 17 130 124
-0.05123635 0.13608499 -0.80624592 17 130 124
-0.052070566 0.13815595 -0.80735481 17 130 122
-0.051184673 0.13545054 -0.80527854 17 130 124
-0.051460467 0.13698114 -0.80714715 17 130 124
-0.050428189 0.13549711 -0.80729234 14 130 123
-0.050755881 0.13484097 -0.80543947 16 130 123
-0.051296379 0.13715337 -0.80785394 16 130 123
-0.050535899 0.13559662 -0.80719125 14 130 123
-0.050745983 0.13478713 -0.80537671 16 130 123
-0.049927048 0.13316537 -0.80570364 15 128 124
-0.050471786 0.13407467 -0.8053056 16 130 123
-0.04922324 0.13104826 -0.80526012 15 128 126
-0.056882441 0.15533192 -0.81899124 14 130 123
-0.05666006 0.15450606 -0.81819397 15 128 123
-0.056923218 0.15473343 -0.81783348 15 130 123
-0.056703366 0.15431197 -0.81772834 15 130 123
-0.05751219 0.15606029 -0.81836241 14 130 123
-0.057489086 0.15570424 -0.81774312 14 130 123
-0.057296678 0.15526834 -0.81768554 15 128 124
-0.05614515 0.15439296 -0.82013822 14 130 123
-0.055905376 0.15213449 -0.81770188 17 128 124
-0.056048445 0.15348133 -0.81915659 14 130 123
-0.055961836 0.15244824 -0.8179481 16 130 123
-0.055882532 0.15235752 -0.81812918 16 130 123
-0.056021735 0.15405497 -0.82012731 14 130 123
-0.055374932 0.15133467 -0.8189835 17 130 124
-0.055077396 0.15113892 -0.8203277 18 128 124
-0.055417709 0.1518883 -0.81969011 17 128 124
-0.054955628 0.15039355 -0.81973863 18 130 124
-0.055518977 0.15187064 -0.81908822 16 130 123
-0.05500843 0.15053555 -0.81968379 18 130 124
-0.05353526 0.1471075 -0.82033116 16 130 123
-0.053512443 0.14672376 -0.81915617 15 130 123
-0.053722162 0.14684325 -0.81765997 14 132 123
-0.053731859 0.14682657 -0.8175106 14 132 123
-0.054538473 0.14955521 -0.81994367 17 130 124
-0.054507844 0.14954704 -0.82019567 18 130 124
-0.054797392 0.14892605 -0.81681573 16 130 123
-0.054075845 0.14761284 -0.81747162 14 132 123
-0.054544777 0.14881431 -0.81795084 16 130 123
-0.053946216 0.1474109 -0.81767786 14 132 123
-0.053964142 0.14747071 -0.81773233 14 132 123
-0.054498993 0.14872073 -0.81796581 16 130 123
-0.052837938 0.14535414 -0.81891459 14 130 123
-0.053274564 0.14612287 -0.81879997 14 132 123
-0.052980177 0.1453442 -0.81788886 14 130 123
-0.05232605 0.14467433 -0.81933105 14 130 123
-0.05223874 0.14489602 -0.82065791 14 130 123
-0.052054469 0.14460266 -0.82062101 14 130 125
-0.052489839 0.1446303 -0.81822783 12 132 123
-0.056230016 0.15522572 -0.83667201 17 132 118
-0.056296699 0.15406394 -0.8378796 14 130 121
-0.055570502 0.15068333 -0.83726311 15 132 119
-0.055664562 0.15114722 -0.83742988 15 132 120
-0.055258133 0.14972365 -0.83696014 16 132 120
-0.092262514 0.13491622 -0.76782215 19 130 122
-0.088519461 0.13567817 -0.76986104 23 130 121
-0.089100614 0.13582017 -0.76965314 20 130 121
-0.090859666 0.13507871 -0.76851022 20 130 122
-0.090696201 0.13516216 -0.76862293 20 130 122
-0.090814568 0.13574103 -0.76882708 19 130 122
-0.094651066 0.13333683 -0.76616204 21 128 122
-0.091916904 0.1337541 -0.76741689 24 130 123
-0.092847988 0.1340749 -0.76720101 21 130 122
-0.093221322 0.1338346 -0.76694167 21 130 122
-0.093417525 0.13366856 -0.76678669 21 130 122
-0.092403747 0.13309404 -0.76691628 25 130 123
-0.091196984 0.13138083 -0.7666257 29 131 122
-0.06104577 0.092276253 -0.76751 11 130 122
-0.061493468 0.092072226 -0.76707929 11 130 122
-0.060711768 0.092500411 -0.76783693 11 130 123
-0.060294498 0.092564724 -0.76823109 10 130 123
-0.058808111 0.092184424 -0.76962739 12 130 122
-0.059783306 0.09254761 -0.76874697 11 130 123
-0.059488956 0.094794646 -0.76975149 14 130 121
-0.059310127 0.094728075 -0.76991296 14 130 121
-0.060485043 0.093265459 -0.76827097 11 130 122
-0.061138809 0.091409601 -0.7671513 11 132 121
-0.060241275 0.091793902 -0.76804382 10 128 124
-0.059745822 0.090928301 -0.76830232 14 130 121
-0.074213438 0.14162222 -0.78177011 14 132 120
-0.071203552 0.13998531 -0.78330576 15 132 117
-0.070482269 0.13993369 -0.78394169 15 132 117
-0.069080226 0.14021853 -0.78541613 15 130 118
-0.071242765 0.13927568 -0.78283024 16 132 117
-0.071983695 0.13896111 -0.78194952 17 130 118
-0.069641739 0.13935807 -0.78436369 17 130 118
-0.071354941 0.13921644 -0.78268969 17 130 118
-0.071567535 0.1388931 -0.78229344 17 130 118
-0.070943832 0.13879684 -0.78280741 17 130 118
-0.071128815 0.13824412 -0.78225815 18 130 117
-0.070689529 0.13768893 -0.78227639 19 130 117
-0.070675313 0.13792801 -0.78245479 19 130 117
-0.069543853 0.13802387 -0.783557 18 132 116
-0.070744127 0.13866875 -0.78290397 18 130 117
-0.068617031 0.1371641 -0.78381103 20 132 117
-0.069290757 0.13792783 -0.78372234 19 130 117
-0.067714997 0.13711658 -0.78467888 20 132 117
-0.068203755 0.13847815 -0.78511757 18 130 118
-0.052753773 0.11239471 -0.78462523 18 132 122
-0.054106612 0.11206452 -0.78276038 21 132 122
-0.054219067 0.11174891 -0.78242725 21 132 122
-0.053151414 0.11282239 -0.78439724 20 132 122
-0.053259466 0.11180604 -0.78363478 19 132 122
-0.053146601 0.11317082 -0.78461927 20 132 122
-0.052194349 0.11227136 -0.78541839 17 132 122
-0.052376349 0.1119787 -0.7849493 17 132 122
-0.053123508 0.11020897 -0.78283018 16 132 121
-0.053175557 0.10983728 -0.78254271 16 132 121
-0.053695649 0.11084722 -0.78251582 19 132 122
-0.05293579 0.10791256 -0.78167617 14 132 122
-0.052282654 0.11041792 -0.7841391 15 132 122
-0.052579332 0.11071347 -0.78385222 16 132 121
-0.052485898 0.10920667 -0.78309101 14 132 122
-0.052308224 0.10792279 -0.78263772 12 132 123
-0.051483836 0.10789115 -0.78403085 11 132 124
-0.051734306 0.11003765 -0.7848165 14 132 122
-0.051411118 0.10907299 -0.78482395 12 132 123
-0.051775172 0.11089329 -0.78523064 15 132 122
-0.050904751 0.10803999 -0.78510624 10 132 124
-0.050976682 0.10452837 -0.78327966 14 132 122
-0.050193667 0.10574437 -0.78505176 19 132 123
-0.050673649 0.10538984 -0.78416604 14 132 122
-0.05145891 0.10378957 -0.78219354 12 130 123
-0.050738193 0.10641197 -0.78459591 10 132 124
-0.050643615 0.10687847 -0.78496903 10 130 125
-0.05179498 0.10675618 -0.78294545 11 130 124
-0.051853452 0.10397507 -0.78164494 11 130 123
-0.051665995 0.10731306 -0.78340662 11 132 124
-0.050468728 0.10739873 -0.78549296 10 130 125
-0.0512449 0.10648605 -0.78377044 10 132 124
-0.051091321 0.10337649 -0.78253895 18 130 122
-0.051074341 0.10215027 -0.7820968 26 131 121
-0.050792322 0.1030744 -0.78286231 24 131 121
-0.064598486 0.15257166 -0.79994202 14 130 123
-0.064799286 0.15188937 -0.79908216 14 130 123
-0.0647576 0.15065485 -0.79805434 14 132 122
-0.064993426 0.15260267 -0.79945534 14 130 123
-0.065178722 0.15084745 -0.79767787 14 132 122
-0.06581381 0.15174428 -0.79750186 14 132 123
-0.065531068 0.15365724 -0.79955912 14 130 125
-0.065620698 0.15218049 -0.7981621 14 130 123
-0.06573762 0.15317656 -0.79884082 14 130 123
-0.064331934 0.15284391 -0.80055803 14 130 123
-0.062832527 0.15068221 -0.80081534 14 130 125
-0.063884437 0.15151438 -0.80002946 14 130 123
-0.064833485 0.15006945 -0.79744953 14 132 122
-0.06361074 0.15018882 -0.79925787 14 130 123
-0.064314343 0.14973278 -0.79784751 14 132 122
-0.062914871 0.14928228 -0.79948449 14 132 123
-0.063591346 0.14915407 -0.79839551 14 132 122
-0.062506206 0.14855449 -0.79944932 15 132 122
-0.062412858 0.14985861 -0.80070674 14 130 123
-0.061947312 0.14929087 -0.80089164 14 132 123
-0.062381204 0.14931364 -0.80028349 14 132 123
-0.062341888 0.14670685 -0.7980147 15 132 122
-0.062064379 0.14683741 -0.79854363 15 132 122
-0.06199934 0.14741623 -0.79916972 15 132 122
-0.062525488 0.14725436 -0.79824525 15 132 122
-0.062365152 0.14779113 -0.79897344 15 132 122
-0.063366696 0.14830433 -0.79796588 15 132 122
-0.06160748 0.14684471 -0.79922438 16 132 121
-0.061727151 0.1465081 -0.79873931 16 132 123
-0.060958035 0.14491953 -0.79847068 19 134 122
-0.06109599 0.14589837 -0.79913127 17 132 122
-0.06066937 0.14544991 -0.79936469 18 132 122
-0.060865771 0.14615248 -0.79969513 17 132 122
-0.060731493 0.14517865 -0.79903358 18 134 121
-0.060434982 0.14475058 -0.79911655 19 134 121
-0.060145579 0.1436782 -0.79861611 21 133 121
-0.059949532 0.14565113 -0.80069757 18 134 121
-0.05886073 0.14349124 -0.80047512 21 132 122
-0.059832439 0.14483325 -0.80014765 19 134 121
-0.059275329 0.14468382 -0.80089229 19 132 122
-0.056738641 0.13934548 -0.79953009 21 132 123
-0.05753782 0.13943404 -0.7985763 21 132 122
-0.057664834 0.13906696 -0.79805809 21 132 122
-0.058436621 0.14011063 -0.79794323 21 133 122
-0.058479812 0.13962001 -0.79740173 21 133 122
-0.058116574 0.14040169 -0.79872894 21 133 122
-0.057360161 0.13849902 -0.79790723 21 132 122
-0.055730365 0.13836916 -0.80024034 20 132 123
-0.056297027 0.13760309 -0.79860121 20 132 122
-0.055725161 0.13743229 -0.79930609 20 132 122
-0.055115972 0.13618416 -0.79887825 20 132 122
-0.054015074 0.13579258 -0.80006516 20 130 122
-0.055415794 0.13723744 -0.79955047 20 132 122
-0.055264365 0.13798226 -0.80055362 20 130 123
-0.053387146 0.13571066 -0.80089092 19 130 121
-0.054978427 0.13680944 -0.79973555 20 130 122
-0.055736165 0.13576625 -0.79747152 20 132 121
-0.054018874 0.13507618 -0.79924506 20 130 122
-0.053629667 0.13503562 -0.79978168 20 130 122
-0.053642899 0.13542776 -0.80021763 20 130 122
-0.053986829 0.13414077 -0.79844791 20 130 122
-0.052950226 0.13396834 -0.799833 20 130 122
-0.053139228 0.13195267 -0.79817307 20 130 122
-0.052862559 0.13148957 -0.79825598 20 130 122
-0.053644706 0.13252088 -0.79783052 20 130 122
-0.0532411 0.13207787 -0.79811138 20 130 122
-0.054152116 0.13311012 -0.79750162 21 130 122
-0.052133225 0.13100655 -0.79918534 18 130 122
-0.05221935 0.13333684 -0.80070269 19 128 122
-0.052231874 0.13172509 -0.79952472 19 130 122
-0.052429836 0.1342741 -0.80099958 19 128 122
-0.051559791 0.13091387 -0.80014074 17 130 122
-0.051933587 0.13054408 -0.79917818 18 130 122
-0.051349454 0.12925072 -0.79906845 16 132 121
-0.051821467 0.12932464 -0.79830897 18 132 122
-0.052166779 0.1292444 -0.7976346 19 130 122
-0.051474907 0.12984854 -0.7993775 16 132 121
-0.052222863 0.12927072 -0.79755986 19 130 122
-0.051011775 0.12970451 -0.80006349 15 132 122
-0.049739953 0.12807193 -0.80106771 14 130 123
-0.05018888 0.12825359 -0.80036879 14 130 122
-0.049814779 0.1274517 -0.80038345 14 130 123
-0.0496733 0.12699856 -0.8002581 14 130 123
-0.050954249 0.12779742 -0.79850876 16 132 121
-0.049126074 0.12677199 -0.80112356 12 130 123
-0.049045328 0.12405428 -0.79913056 12 130 123
-0.049352221 0.12435894 -0.79878622 14 130 123
-0.050454188 0.12582988 -0.79784149 16 130 123
-0.050196495 0.12576784 -0.79828477 15 130 123
-0.049724437 0.12373208 -0.79758173 14 130 123
-0.049772698 0.12511431 -0.7985791 14 130 123
-0.050274968 0.12501465 -0.7975412 16 130 123
-0.050584588 0.12666173 -0.79824817 16 130 123
-0.049140193 0.12279391 -0.79792738 14 128 123
-0.045145914 0.11362785 -0.80068213 17 130 122
-0.045188364 0.1136633 -0.80060238 17 130 122
-0.045371979 0.11293728 -0.79952383 21 130 122
-0.045130853 0.11225907 -0.79954988 30 131 122
-0.045367524 0.11264293 -0.79928613 25 130 122
-0.046014749 0.11394934 -0.79874051 14 130 123
-0.046016604 0.11290491 -0.79785883 19 130 120
-0.046310909 0.11347349 -0.79757738 17 130 122
-0.046372864 0.11348157 -0.79742444 17 130 122
-0.045337912 0.11078076 -0.79784697 40 130 119
-0.045401171 0.11101715 -0.79786301 38 130 119
-0.044877436 0.11027276 -0.79856253 48 130 121
-0.058058951 0.1554466 -0.81558943 14 130 123
-0.057947174 0.15565351 -0.81612778 14 130 123
-0.057973653 0.15502396 -0.81529558 14 130 123
-0.058026224 0.15460376 -0.81465048 14 132 123
-0.058638953 0.15455903 -0.81301552 14 130 123
-0.058685929 0.15471724 -0.81308287 14 130 123
-0.056690004 0.15116018 -0.81356525 15 130 122
-0.057412118 0.15366453 -0.81501991 15 130 123
-0.057083521 0.15312867 -0.81515568 16 130 123
-0.057485349 0.15258652 -0.81340623 15 130 123
-0.056898139 0.15229428 -0.81452876 15 130 122
-0.057756118 0.15340872 -0.81379759 15 130 123
-0.057641324 0.15395375 -0.81481332 15 130 123
-0.056377128 0.15111548 -0.81457001 16 130 123
-0.056203682 0.15164663 -0.81589115 17 130 124
-0.055998974 0.15137415 -0.81625342 17 130 124
-0.056420043 0.15103178 -0.81430668 16 130 123
-0.056480538 0.15106665 -0.81413883 15 130 122
-0.055214603 0.14955838 -0.81640053 18 128 124
-0.053949248 0.1470785 -0.81679636 14 132 123
-0.055287588 0.14916967 -0.81558383 18 128 124
-0.055219442 0.14886923 -0.81535596 18 128 124
-0.05447517 0.14713523 -0.81517768 15 132 123
-0.054517813 0.14707959 -0.81495649 15 132 123
-0.055596311 0.14924966 -0.81460577 17 130 122
-0.055866215 0.14996381 -0.81474447 17 130 122
-0.055046763 0.14692783 -0.81298417 16 130 123
-0.055554591 0.14869043 -0.81389159 17 130 122
-0.055871025 0.14996576 -0.81473023 17 130 122
-0.055145916 0.14806287 -0.81438208 17 130 122
-0.05280355 0.14453585 -0.81634718 12 132 123
-0.052839026 0.14336991 -0.81386214 14 132 123
-0.053454198 0.14559469 -0.81588751 14 132 123
-0.053131331 0.14348379 -0.81307489 15 130 123
-0.054308258 0.14614446 -0.81412548 15 132 123
-0.054854967 0.14645369 -0.81291991 16 130 123
-0.053659424 0.14479317 -0.81375742 15 130 123
-0.054070428 0.14521311 -0.81319368 16 130 123
-0.053882021 0.14645666 -0.81607658 14 132 123
-0.053997155 0.14518353 -0.81337696 15 132 123
-0.052394427 0.14258772 -0.81422305 14 130 123
-0.052724928 0.14369725 -0.81497914 14 130 123
-0.052412603 0.14271426 -0.81442118 14 130 123
-0.05036106 0.13889861 -0.8133713 15 128 123
-0.051056292 0.1407371 -0.81519836 14 130 123
-0.052290905 0.14202699 -0.81317115 15 130 123
-0.05095331 0.13993365 -0.81360668 15 130 123
-0.052250173 0.14192148 -0.81307042 15 130 123
-0.051008224 0.13993536 -0.81335902 15 130 123
-0.050972156 0.13982151 -0.81321412 15 130 123
-0.051652387 0.14142115 -0.81445247 14 130 123
-0.049849778 0.13831091 -0.81376874 14 130 125
-0.055746052 0.15514882 -0.83223236 12 132 121
-0.055410594 0.15432882 -0.82993746 14 130 122
-0.055462841 0.15431577 -0.83173096 14 130 121
-0.055540383 0.15461482 -0.83144861 14 130 121
-0.054879166 0.15212969 -0.83077484 16 132 120
-0.05452998 0.15050191 -0.83174878 19 132 119
-0.055054434 0.15261331 -0.83204615 15 132 119
-0.055345688 0.15374702 -0.83241647 14 132 120
-0.05498514 0.15238777 -0.83172488 16 132 120
-0.05492739 0.15222923 -0.83130163 16 132 120
-0.054842882 0.15214969 -0.82969183 16 132 121
-0.05527946 0.1536434 -0.83140153 14 132 120
-0.055310227 0.15407762 -0.82882023 15 130 123
-0.054927565 0.15256797 -0.82896775 16 132 121
-0.055220287 0.15374053 -0.8287093 15 132 123
-0.053869888 0.1483013 -0.83220834 17 134 118
-0.053478725 0.14732164 -0.82937324 16 132 121
-0.053349197 0.14667967 -0.83185983 16 132 117
-0.054020513 0.14883247 -0.83163971 18 132 119
-0.05410032 0.14911178 -0.83136135 18 132 119
-0.054054864 0.14890867 -0.83199477 18 132 118
-0.053881414 0.14854309 -0.83020556 17 132 120
-0.054149698 0.14942722 -0.83030713 18 132 120
-0.054374978 0.15037715 -0.82904202 19 130 121
-0.053812705 0.1483058 -0.83025026 17 132 120
-0.054054696 0.14904349 -0.83073086 18 132 120
-0.054186963 0.14950913 -0.83058733 18 132 120
-0.052736022 0.14559987 -0.83160496 15 134 117
-0.052797191 0.14577112 -0.83090109 15 134 118
-0.053225502 0.14644812 -0.83068103 15 134 118
-0.051362105 0.14381002 -0.82977784 14 132 121
-0.051073328 0.14326912 -0.83076108 14 130 122
-0.051413726 0.14388405 -0.82976079 14 132 121
-0.050904937 0.14319028 -0.8296771 14 130 122
-0.051025998 0.14319551 -0.83081686 14 130 122
-0.052184552 0.14483209 -0.83110291 14 132 119
-0.052701734 0.14554867 -0.83160555 15 134 117
-0.051765047 0.14414074 -0.83184189 14 132 120
-0.052503973 0.14527556 -0.83140391 15 132 118
-0.0505201 0.14254192 -0.83054328 14 130 123
-0.050269738 0.14248729 -0.82858938 14 132 123
-0.084335357 0.13997157 -0.77411699 19 132 119
-0.084082514 0.14017025 -0.77436471 19 132 119
-0.084312461 0.13977581 -0.77402741 20 133 120
-0.080640614 0.14237754 -0.7774843 14 132 119
-0.083817273 0.14047189 -0.77467388 19 132 120
-0.081937544 0.14083777 -0.77593833 18 132 119
-0.082264639 0.1403701 -0.77550787 19 132 119
-0.080653526 0.13947624 -0.7759968 21 133 119
-0.082565948 0.13924854 -0.7747612 21 133 119
-0.08044444 0.14021315 -0.77649295 19 134 119
-0.081170991 0.13894643 -0.77542502 23 133 119
-0.078443483 0.13948189 -0.77739102 18 134 118
-0.07953535 0.14035112 -0.77712756 18 132 118
-0.078062691 0.13898145 -0.77738285 19 134 118
-0.079444006 0.14108615 -0.77755928 16 132 118
-0.05503675 0.10407844 -0.77771378 12 132 119
-0.055103712 0.10400951 -0.77761197 14 132 120
-0.056616805 0.10720406 -0.77734184 19 132 118
-0.054587323 0.10226599 -0.77757299 11 132 120
-0.056324542 0.099648319 -0.77453268 12 130 120
-0.054658871 0.10028426 -0.77681744 12 130 122
-0.056102738 0.10023217 -0.7750048 12 130 120
-0.055100292 0.10018448 -0.7762351 12 130 121
-0.054148983 0.099752143 -0.7772724 12 128 124
-0.056432184 0.099955045 -0.77450198 12 130 120
-0.055790801 0.10171928 -0.77591664 12 132 119
-0.05480231 0.099505424 -0.77637792 12 130 123
-0.055961784 0.096229836 -0.77382898 10 130 123
-0.067338504 0.14834233 -0.79290819 14 130 123
-0.067030236 0.14675492 -0.79207921 14 130 123
-0.067883708 0.14557937 -0.79031783 14 130 123
-0.066805609 0.14596826 -0.79181015 14 130 122
-0.065512002 0.14496504 -0.79257733 15 130 122
-0.065570101 0.14524473 -0.79270476 15 130 122
-0.065290146 0.14513159 -0.79294187 16 132 121
-0.067440793 0.14554128 -0.79080379 14 130 123
-0.066741735 0.14379881 -0.79044437 16 130 123
-0.065458283 0.14365786 -0.79178655 16 132 121
-0.065378793 0.14440568 -0.79234904 16 130 123
-0.066145003 0.14371389 -0.79105616 16 130 123
-0.066895835 0.14267129 -0.78955799 16 130 123
-0.064682774 0.14322323 -0.79232484 17 130 124
-0.065804392 0.14290221 -0.790896 17 130 124
-0.065961517 0.14308465 -0.79085171 17 130 124
-0.063612282 0.14263044 -0.79319608 17 132 122
-0.064864017 0.13974571 -0.78951585 18 130 121
-0.066338837 0.14241828 -0.78997523 17 130 124
-0.065470196 0.14170602 -0.79036534 17 130 122
-0.065105028 0.14017369 -0.78958416 18 130 122
-0.066264153 0.14167064 -0.78948253 17 130 122
-0.06417051 0.14138544 -0.7915619 17 132 122
-0.063952431 0.14239219 -0.79260093 17 132 122
-0.062252395 0.14061658 -0.79325664 20 132 122
-0.061772339 0.13933146 -0.79282886 21 133 122
-0.063617654 0.14062926 -0.79164958 18 132 121
-0.062102597 0.13948572 -0.7925573 20 133 121
-0.062208887 0.14023356 -0.79301119 20 133 122
-0.06306453 0.13879766 -0.79088455 19 132 120
-0.062649235 0.13882767 -0.79139972 20 132 121
-0.061626516 0.13903546 -0.79277205 21 133 121
-0.062013067 0.13841258 -0.79182523 21 133 121
-0.062539876 0.13772538 -0.79065251 21 132 121
-0.063579649 0.13803178 -0.78966576 19 132 120
-0.063537821 0.13811573 -0.78978235 19 132 120
-0.063206419 0.13831903 -0.7903372 19 132 120
-0.052803673 0.12401081 -0.79261684 20 135 119
-0.05290794 0.12425294 -0.7926544 20 135 119
-0.053193171 0.12459996 -0.79252046 21 133 120
-0.052135188 0.12353938 -0.79331017 19 135 119
-0.052855719 0.12270994 -0.79159349 20 135 119
-0.052806761 0.12086964 -0.79042143 20 135 119
-0.052070197 0.12221409 -0.79248303 19 135 119
-0.052061636 0.12297951 -0.79301256 19 135 119
-0.051354952 0.12060079 -0.7923981 18 132 120
-0.051475242 0.1197423 -0.79162008 18 134 120
-0.051402889 0.12183473 -0.79319376 18 132 120
-0.051695984 0.1222167 -0.7930336 18 134 119
-0.051701024 0.12139674 -0.79245102 19 134 120
-0.051322259 0.11991011 -0.79196125 18 132 120
-0.051338878 0.120033 -0.79202318 18 132 120
-0.049205635 0.1169259 -0.79332078 14 130 123
-0.049731523 0.1178739 -0.79301107 16 130 123
-0.050440874 0.11615669 -0.79063147 16 130 123
-0.04942733 0.11552033 -0.79203051 14 130 122
-0.050052766 0.11678533 -0.79173207 15 130 122
-0.049677409 0.11632365 -0.79210383 15 130 123
-0.049912844 0.11654744 -0.79182804 15 130 122
-0.050635081 0.11635586 -0.79044288 16 132 121
-0.050908297 0.11813629 -0.79131114 17 132 122
-0.05119909 0.11844496 -0.79110616 17 134 120
-0.050748896 0.11800431 -0.79145008 17 132 122
-0.051191606 0.1186818 -0.79128563 17 134 120
-0.0503635 0.11769592 -0.79179347 16 132 121
-0.0519756 0.11862613 -0.79010081 19 134 120
-0.049083587 0.11406116 -0.79172903 14 130 123
-0.050450742 0.11510208 -0.78993422 15 132 122
-0.049010061 0.11272816 -0.79103047 12 130 124
-0.049255438 0.11442939 -0.79165125 14 130 123
-0.050223246 0.11421943 -0.78979117 14 132 122
-0.049256835 0.1117436 -0.79001904 11 130 123
-0.050140407 0.11377581 -0.78968167 14 132 123
-0.048437588 0.11197606 -0.79170066 10 132 123
-0.048175983 0.11184318 -0.79215533 10 132 123
-0.048090734 0.11223467 -0.79257989 10 132 123
-0.048755005 0.11169931 -0.79087055 11 130 123
-0.049153905 0.1112168 -0.78990436 11 130 124
-0.04823016 0.11074208 -0.79140246 11 132 123
-0.048377994 0.1111401 -0.79131085 11 130 123
-0.048446324 0.10936285 -0.79020512 14 132 122
-0.048058756 0.10905276 -0.79081768 14 132 122
-0.047981124 0.10939202 -0.79116482 12 132 121
-0.047990296 0.10831174 -0.79054558 15 134 121
-0.047828309 0.10774618 -0.79056793 21 133 121
-0.047592241 0.10745 -0.79089171 28 132 121
-0.047580015 0.10782486 -0.79112369 26 133 121
-0.0472604 0.10912647 -0.79250097 24 133 121
-0.047499735 0.11086395 -0.79296541 11 132 123
-0.047981575 0.10704967 -0.78986537 25 134 120
-0.047567982 0.10727292 -0.79084325 30 132 121
-0.060823131 0.15159693 -0.80493194 14 130 123
-0.061703037 0.15248123 -0.80439347 14 130 123
-0.062250327 0.1531987 -0.80422926 14 130 125
-0.061964069 0.15196005 -0.80344158 14 130 123
-0.063328691 0.15284415 -0.80210859 14 130 123
-0.063147217 0.15284929 -0.80240726 14 130 123
-0.061797239 0.15097269 -0.80273509 14 130 125
-0.061597198 0.1519358 -0.80401111 14 130 123
-0.061595045 0.15050641 -0.8025744 14 130 125
-0.060799032 0.14873505 -0.80215204 15 132 123
-0.060903534 0.14837456 -0.80165088 15 132 122
-0.060866337 0.1483171 -0.80165565 15 132 122
-0.060813766 0.15034141 -0.80363053 14 130 123
-0.06036761 0.14884107 -0.80300379 15 132 122
-0.06020046 0.14930654 -0.80376619 15 132 122
-0.059954897 0.14850256 -0.80341047 15 132 122
-0.059527073 0.14706188 -0.80272806 17 132 122
-0.058631577 0.14658125 -0.80375797 17 132 121
-0.058644474 0.14791596 -0.80503088 17 130 122
-0.060005803 0.14784157 -0.80268437 16 132 121
-0.059806954 0.14748938 -0.80267507 16 132 121
-0.058870837 0.14747722 -0.80422717 17 132 122
-0.057051789 0.14449787 -0.8043915 20 130 122
-0.057148021 0.14392176 -0.80367339 20 132 122
-0.057101645 0.1441049 -0.80392325 20 132 122
-0.057730798 0.14493144 -0.80368727 20 130 122
-0.057344034 0.14454375 -0.80394703 20 132 122
-0.058035165 0.14487059 -0.80312532 20 132 122
-0.058160525 0.14375447 -0.80185419 21 132 122
-0.058235899 0.14581017 -0.80368376 18 132 121
-0.058662497 0.14468759 -0.80190319 20 132 122
-0.057909727 0.14395805 -0.80246681 21 132 122
-0.059043322 0.14541343 -0.80195743 18 132 121
-0.058351725 0.14553602 -0.80322945 19 132 122
-0.056559987 0.14375919 -0.80455494 20 130 122
-0.056112949 0.14323328 -0.80504757 19 130 122
-0.055698931 0.14018556 -0.80232805 20 132 123
-0.05567392 0.14081778 -0.80316782 19 132 122
-0.055783007 0.14205511 -0.80449045 19 132 122
-0.053602234 0.13913372 -0.80484188 19 132 122
-0.053839847 0.13946311 -0.80481791 19 132 122
-0.053990316 0.13919444 -0.80422115 19 132 122
-0.053897224 0.13939799 -0.80463582 19 130 123
-0.05499246 0.13974386 -0.80309677 19 132 122
-0.05447774 0.14061135 -0.80507529 19 132 122
-0.055398345 0.13996999 -0.80264574 19 132 122
-0.053099599 0.13850001 -0.80496484 19 130 122
-0.052989975 0.13637818 -0.80240178 19 130 122
-0.054601543 0.13782485 -0.8013922 19 130 122
-0.053592913 0.13668929 -0.80172575 19 130 122
-0.05306429 0.13553375 -0.80117416 19 128 122
-0.053190615 0.13845494 -0.80473471 19 130 122
-0.053069372 0.13670646 -0.8026852 19 130 122
-0.05422296 0.13816167 -0.80250651 19 130 122
-0.052243922 0.13494782 -0.80211854 18 130 122
-0.0526383 0.13768497 -0.80484867 18 130 122
-0.051824536 0.13495834 -0.80310547 18 128 122
-0.052343789 0.13690834 -0.80449629 18 130 122
-0.051759519 0.13615172 -0.80483603 18 130 123
-0.051992752 0.13563319 -0.80361319 18 130 122
-0.050769053 0.13301526 -0.80362529 16 130 123
-0.050795596 0.13147327 -0.80211622 15 132 123
-0.049445055 0.13118653 -0.80487847 16 130 125
-0.050174475 0.13283361 -0.8047893 16 130 124
-0.050409488 0.13219042 -0.80365711 15 132 123
-0.050588761 0.1323849 -0.80343747 15 132 123
-0.051429689 0.13251996 -0.80163252 16 132 121
-0.051075011 0.1331616 -0.80306077 16 130 123
-0.050954014 0.13283382 -0.8030355 16 130 123
-0.051216215 0.1339913 -0.80350977 17 130 124
-0.051843997 0.13475224 -0.80276018 18 128 122
-0.051976088 0.13442491 -0.80214542 18 128 122
-0.049178399 0.12734367 -0.80156285 12 130 124
-0.0490475 0.12726462 -0.8017382 12 130 124
-0.050040264 0.1300891 -0.80244464 15 130 123
-0.05002762 0.13029328 -0.80268246 15 130 123
-0.04928115 0.13004377 -0.80410218 15 128 124
-0.049883652 0.13015121 -0.8028599 15 130 123
-0.049360286 0.12850632 -0.8023473 14 130 123
-0.050369978 0.12964238 -0.80124617 14 130 122
-0.050281152 0.13032687 -0.80214781 15 130 123
-0.044346802 0.11456129 -0.80251378 17 128 122
-0.044249829 0.11349902 -0.80180007 25 130 124
-0.041610118 0.1135571 -0.80384052 33 129 121
-0.042406965 0.11351441 -0.8033188 31 129 123
-0.043260403 0.11359859 -0.80281615 27 130 124
-0.056039263 0.15480474 -0.82192159 14 130 123
-0.055804249 0.15467843 -0.82334906 14 130 123
-0.056271963 0.15554553 -0.82273704 14 130 123
-0.054911561 0.15202473 -0.8235684 16 130 123
-0.054735545 0.15123557 -0.82305026 17 130 124
-0.054724347 0.15117665 -0.82299685 17 130 124
-0.054720342 0.15059914 -0.82167298 18 130 124
-0.054605413 0.15064578 -0.82265234 17 130 124
-0.055358011 0.15390414 -0.82459605 15 130 123
-0.05516047 0.15175866 -0.82100892 17 128 124
-0.055700585 0.15364662 -0.82126868 14 130 123
-0.055027697 0.15171948 -0.82197058 17 130 124
-0.05492378 0.15101036 -0.82108587 18 130 124
-0.054981802 0.15150033 -0.82180679 17 130 124
-0.055212844 0.1520482 -0.82129103 17 128 124
-0.053024422 0.14669074 -0.82382041 14 130 125
-0.053533968 0.14791656 -0.82306528 16 130 124
-0.05383702 0.14873949 -0.82296485 16 132 124
-0.053849071 0.14899781 -0.82379866 16 132 124
-0.053386629 0.1470312 -0.82131201 16 130 124
-0.054256886 0.14915138 -0.82100886 18 130 124
-0.05442439 0.14952505 -0.8208515 18 130 124
-0.053642508 0.14757408 -0.82097167 17 130 124
-0.053438291 0.14712483 -0.82118225 17 130 124
-0.054330636 0.14928617 -0.82085121 18 130 124
-0.053640183 0.14784265 -0.82178748 17 130 124
-0.053118479 0.14634435 -0.82115084 16 130 124
-0.051925767 0.14470327 -0.82180727 14 130 125
-0.05201868 0.14496091 -0.82260555 14 130 125
-0.052419845 0.1457669 -0.82426482 14 130 126
-0.051853474 0.14482462 -0.82322842 14 130 125
-0.051894456 0.14489351 -0.82330817 14 130 125
-0.056017105 0.15602273 -0.8347348 14 130 120
-0.056211591 0.15657122 -0.83562893 14 130 120
-0.056015622 0.15544434 -0.83517259 15 132 118
-0.05622058 0.15582168 -0.83627033 16 132 118
-0.056132 0.15649681 -0.8351469 14 130 121
-0.055561908 0.15250541 -0.83543926 20 133 118
-0.054725852 0.1506343 -0.83309394 20 132 119
-0.055523001 0.15188275 -0.835715 19 134 118
-0.055202376 0.15204811 -0.83418107 20 132 118
-0.055648547 0.15310252 -0.83539253 20 132 118
-0.055877496 0.15335418 -0.83622217 20 133 117
-0.055292241 0.15238987 -0.83428448 19 132 118
-0.054857992 0.15152548 -0.83275783 18 132 118
-0.055200487 0.15216719 -0.83402759 19 132 118
-0.055526491 0.1541191 -0.83303589 14 132 119
-0.055556726 0.15428776 -0.83296424 14 132 119
-0.055372402 0.15266776 -0.8343721 19 132 118
-0.054072477 0.1471687 -0.83514583 15 132 119
-0.05377163 0.14661647 -0.83458394 14 132 118
-0.054876022 0.14936319 -0.83536923 19 132 118
-0.053777158 0.14649962 -0.83481967 14 132 119
-0.054183796 0.14808834 -0.83408391 17 134 118
-0.054611098 0.14879619 -0.83501774 18 134 118
-0.053780872 0.14794225 -0.83250052 17 132 118
-0.054102767 0.14867418 -0.83290422 18 132 118
-0.055326208 0.15028505 -0.83606571 20 132 119
-0.054917533 0.14957023 -0.83525521 19 132 118
-0.054837946 0.15032531 -0.83385473 19 132 118
-0.053104408 0.14561607 -0.83487618 14 132 120
-0.053607438 0.14627151 -0.83462018 14 132 118
-0.053586882 0.14641163 -0.83409095 14 132 117
-0.052372035 0.14494064 -0.83468133 14 130 121
-0.095958583 0.13137227 -0.76487541 19 132 122
-0.097665355 0.13178833 -0.76443988 18 132 122
-0.098228186 0.13227916 -0.76444155 17 132 122
-0.098679468 0.13150732 -0.76396745 17 132 122
-0.098506548 0.13224477 -0.76432925 17 132 122
-0.094322644 0.1322477 -0.76581597 24 130 123
-0.094526283 0.13202854 -0.76565313 23 130 122
-0.09456142 0.13272984 -0.76593602 21 130 122
-0.094702706 0.13302615 -0.76601166 21 130 122
-0.095281154 0.1323951 -0.76554555 20 130 122
-0.096974678 0.13002907 -0.76394784 18 132 122
-0.096888758 0.13029851 -0.76409388 18 132 122
-0.096462078 0.12905745 -0.76371127 19 132 122
-0.09623795 0.12972917 -0.76407886 19 132 122
-0.096222758 0.12891993 -0.76373661 19 132 122
-0.095928065 0.12747729 -0.76322085 19 132 122
-0.09185259 0.12922421 -0.76535338 28 131 123
-0.095415272 0.13079803 -0.76482534 21 132 122
-0.092214599 0.12938178 -0.76529878 27 131 123
-0.094305739 0.12949012 -0.76462227 23 131 122
-0.092114449 0.12996392 -0.7655952 28 131 123
-0.093124337 0.12995109 -0.76523918 26 131 122
-0.093488306 0.13019723 -0.76522356 26 131 123
-0.093789063 0.1276606 -0.76400471 24 131 123
-0.093376696 0.12771541 -0.76416314 24 131 123
-0.095400058 0.12802054 -0.7636326 20 132 122
-0.094969705 0.12982552 -0.76454878 21 132 122
-0.093673684 0.12828173 -0.76430929 24 131 123
-0.091492757 0.12903795 -0.76541835 29 131 123
-0.092835128 0.12598978 -0.76364243 24 131 123
-0.09260945 0.12481993 -0.76326668 23 133 123
-0.092067659 0.12664203 -0.76414406 26 131 122
-0.093061402 0.12686759 -0.76390582 25 131 123
-0.092687897 0.12667961 -0.76395571 26 131 123
-0.092201516 0.12386801 -0.76303428 23 133 123
-0.09069024 0.1239422 -0.76364952 27 133 123
-0.089858003 0.12356746 -0.76376599 27 134 123
-0.091029942 0.12334064 -0.76325345 25 133 124
-0.090592071 0.12309643 -0.76329303 25 133 124
-0.090405934 0.12579156 -0.76449758 29 131 123
-0.090733461 0.12603869 -0.76445317 28 131 123
-0.090564489 0.12535611 -0.7642628 28 131 123
-0.091619149 0.12670349 -0.76433182 27 131 122
-0.088626318 0.12161233 -0.76339549 26 134 123
-0.090265602 0.12286676 -0.76331365 25 134 123
-0.088679329 0.12216692 -0.76359302 27 134 123
-0.08968126 0.12195256 -0.76316094 25 134 123
-0.076392114 0.13883694 -0.7784133 17 132 118
-0.079898395 0.14214876 -0.77780795 14 134 118
-0.076423474 0.14084515 -0.77959412 14 132 118
-0.076945342 0.14127719 -0.77946526 14 132 119
-0.077545203 0.14018132 -0.778359 15 134 117
-0.076627806 0.14151296 -0.77984369 14 132 120
-0.077533744 0.14193207 -0.77942091 14 132 120
-0.073157497 0.13997243 -0.78160083 16 130 118
-0.076164015 0.14084099 -0.77978516 14 132 118
-0.075728402 0.14086576 -0.78013861 14 132 119
-0.075488426 0.14053476 -0.78012604 15 132 119
-0.075314067 0.13996594 -0.77991933 15 132 117
-0.075463295 0.14023156 -0.77996314 15 132 118
-0.075347863 0.1396184 -0.77968395 16 132 118
-0.073646337 0.1394289 -0.78089249 16 132 117
-0.075802892 0.13806327 -0.77842593 18 134 116
-0.075217076 0.13748391 -0.77855265 20 133 116
-0.075613134 0.13844956 -0.77878225 17 134 116
-0.073631793 0.13780966 -0.77995962 19 132 116
-0.073822401 0.13740078 -0.7795797 20 132 116
-0.074514106 0.13740562 -0.77904481 20 133 116
-0.072692059 0.13744047 -0.78048074 20 132 116
-0.071693018 0.13748011 -0.78130358 20 132 117
-0.072101422 0.13806193 -0.78131169 19 130 117
-0.055488322 0.11035287 -0.78017104 21 133 120
-0.054238249 0.10947899 -0.78109336 18 132 121
-0.055351146 0.11014039 -0.78023356 21 133 120
-0.054653108 0.10949774 -0.78065008 18 134 120
-0.055024561 0.11063416 -0.78085661 21 132 121
-0.05549391 0.10904483 -0.77948713 19 132 119
-0.053877849 0.10937388 -0.78143054 17 132 121
-0.054046739 0.10877763 -0.78092462 17 132 122
-0.055590335 0.10760544 -0.77862865 17 134 119
-0.055662483 0.10784162 -0.77866179 18 132 119
-0.05283805 0.10571648 -0.78084826 11 132 122
-0.055259742 0.10694068 -0.77871066 16 132 120
-0.053027153 0.10615218 -0.78081423 12 130 122
-0.053599335 0.10633698 -0.78026837 12 132 121
-0.054222144 0.10541474 -0.7792353 12 132 120
-0.055050015 0.10725249 -0.77905899 16 132 120
-0.054470386 0.10567473 -0.77906877 14 132 121
-0.05400148 0.105154 -0.7793718 12 132 121
-0.054019097 0.10490445 -0.77925503 11 132 120
-0.054492142 0.10422748 -0.77840519 11 132 120
-0.053600699 0.10420718 -0.7794193 10 132 120
-0.054182738 0.10464838 -0.77895111 11 132 120
-0.054672267 0.1036595 -0.77794105 11 132 120
-0.05249681 0.10488462 -0.78100318 10 132 123
-0.052501015 0.10651891 -0.78163517 12 130 123
-0.054582447 0.10342258 -0.77795041 11 132 120
-0.053417236 0.10203915 -0.77886349 12 132 120
-0.054085165 0.10180733 -0.77802289 12 132 120
-0.051355325 0.10179093 -0.78155446 24 131 120
-0.051815711 0.10261749 -0.78121954 14 130 122
-0.052342113 0.10338023 -0.78066647 10 130 123
-0.052425344 0.10322287 -0.78048927 10 130 123
-0.066804603 0.15114115 -0.79576933 14 130 123
-0.06677334 0.15061697 -0.79542583 14 130 123
-0.066489927 0.15209559 -0.7968663 14 130 123
-0.065933406 0.15095828 -0.79674113 14 132 123
-0.064619087 0.14834701 -0.79623026 15 130 122
-0.065283634 0.14847907 -0.79555881 14 132 121
-0.065469407 0.14816767 -0.79508722 14 132 121
-0.065315388 0.14875738 -0.7957564 14 132 121
-0.065607049 0.15018797 -0.79657418 14 132 122
-0.067208856 0.14891636 -0.79349917 14 130 123
-0.065848984 0.14835635 -0.79476571 14 132 121
-0.066142417 0.14882915 -0.79478091 14 132 122
-0.065625131 0.14875148 -0.79537368 14 132 121
-0.064127952 0.14769323 -0.79633206 15 130 122
-0.062962644 0.14657776 -0.79699481 15 130 122
-0.063740693 0.14700244 -0.79627371 15 130 122
-0.065064341 0.14623374 -0.79395896 15 132 121
-0.064806201 0.14523169 -0.79355657 16 132 121
-0.063839473 0.14640468 -0.79562914 16 130 121
-0.064354792 0.14494729 -0.79389673 16 132 121
-0.061750904 0.14358538 -0.79625964 20 133 121
-0.061631087 0.14431679 -0.79698402 19 134 121
-0.063278459 0.14510725 -0.79545826 17 130 122
-0.063008592 0.14588544 -0.79641396 16 130 123
-0.062768869 0.14527851 -0.7962535 17 132 122
-0.062627666 0.14536594 -0.79650491 17 132 122
-0.06163694 0.14411701 -0.79682106 20 132 122
-0.063137434 0.14365071 -0.79452264 18 132 121
-0.062360134 0.14326267 -0.79523659 20 132 122
-0.062290169 0.14337441 -0.79540545 20 132 122
-0.062989533 0.14301091 -0.79425472 19 132 122
-0.061485674 0.14271942 -0.79595584 21 133 122
-0.061603975 0.14077321 -0.79419148 21 132 122
-0.062315404 0.14188695 -0.79421687 20 132 122
-0.061940789 0.14088613 -0.79386044 20 133 122
-0.062867485 0.14176017 -0.79341686 19 132 122
-0.056959141 0.13718472 -0.79724228 21 132 122
-0.058616903 0.13813151 -0.79591417 21 133 122
-0.05625239 0.13624103 -0.79725301 21 132 122
-0.05480494 0.1340647 -0.79721403 21 130 122
-0.05427146 0.13256541 -0.79697245 21 130 122
-0.053936809 0.1318298 -0.79695612 21 130 122
-0.053059645 0.12984528 -0.79673362 21 130 122
-0.052020658 0.12736957 -0.7963348 18 132 122
-0.052398358 0.12824096 -0.79643399 19 132 122
-0.05235891 0.12894361 -0.79705596 19 132 122
-0.052899349 0.12600756 -0.79396546 21 132 122
-0.051473096 0.12663676 -0.79663455 17 132 122
-0.052423861 0.12651351 -0.79504651 20 132 122
-0.051949069 0.12590125 -0.79534674 19 132 122
-0.052316338 0.12514499 -0.79421341 20 133 121
-0.05138905 0.12630704 -0.79652274 18 132 122
-0.051044185 0.12434785 -0.79571295 17 132 122
-0.051085379 0.12437265 -0.7956596 17 132 121
-0.05177075 0.1235325 -0.79387921 18 134 119
-0.050113995 0.12341824 -0.79665577 15 130 123
-0.051322371 0.12593916 -0.79636598 18 132 122
-0.051467251 0.12315384 -0.79413325 18 132 120
-0.05132122 0.125971 -0.79639065 18 132 122
-0.04960886 0.11976033 -0.79451853 15 130 123
-0.049344178 0.12116954 -0.79613441 14 130 123
-0.049542382 0.11942359 -0.79434764 15 130 123
-0.049545646 0.12075667 -0.79545534 14 130 122
-0.050278094 0.11991599 -0.79351443 17 130 122
-0.050570503 0.12131884 -0.79417229 17 132 122
-0.050848857 0.12125138 -0.79363626 17 132 121
-0.050544996 0.12054265 -0.7935732 17 132 122
-0.05023979 0.12105225 -0.79452187 16 132 121
-0.05088507 0.12208261 -0.79426241 17 132 122
-0.051163945 0.12225471 -0.79392397 17 134 120
-0.049256798 0.11882781 -0.79439473 14 130 122
-0.049368992 0.11763849 -0.79348397 15 130 123
-0.049016334 0.11667676 -0.7934832 14 130 123
-0.047092244 0.1133035 -0.79562068 10 132 124
-0.046985209 0.11255557 -0.79530686 12 132 123
-0.047198441 0.11193275 -0.79435068 11 132 123
-0.046222668 0.11145879 -0.79623854 25 131 119
-0.04679288 0.11317161 -0.79620993 14 130 122
-0.046695497 0.11159339 -0.79525256 17 132 120
-0.047437724 0.11155177 -0.79351282 10 132 124
-0.047478039 0.11282027 -0.79435271 9 132 123
-0.045328438 0.10981943 -0.79717314 46 131 119
-0.045584064 0.1096572 -0.79650885 43 131 119
-0.045724515 0.11037881 -0.79667389 38 130 119
-0.045594614 0.11031453 -0.79690903 40 130 119
-0.045756899 0.1095455 -0.79606926 42 130 119
-0.046878912 0.11121582 -0.79456353 16 132 121
-0.047072396 0.1107326 -0.79382199 16 136 121
-0.046501797 0.11086319 -0.79521358 24 131 120
-0.046409301 0.10996316 -0.7948733 31 132 120
-0.059308242 0.15430924 -0.81122732 14 130 125
-0.056765012 0.15077263 -0.81285906 15 128 122
-0.057695802 0.15041979 -0.81027901 15 130 122
-0.058275014 0.15328492 -0.81235629 14 132 123
-0.057366885 0.15120991 -0.81197774 15 130 122
-0.057878826 0.15255913 -0.81240487 14 130 122
-0.057059851 0.15088651 -0.81230003 15 128 122
-0.057995766 0.15117167 -0.81048322 14 130 122
-0.059178025 0.15298101 -0.80994672 14 130 123
-0.059065185 0.15204261 -0.80908763 14 130 123
-0.058993131 0.15271793 -0.81005198 14 130 123
-0.059531946 0.15351385 -0.80977988 14 130 125
-0.059368335 0.15371914 -0.8103931 14 130 125
-0.057332832 0.14952482 -0.80992305 16 130 123
-0.057373114 0.14974758 -0.81012803 15 130 122
-0.057037003 0.14936787 -0.81039488 15 130 122
-0.056956798 0.14926773 -0.81044579 16 130 123
-0.056549635 0.14884704 -0.81088412 17 128 122
-0.056289654 0.14781578 -0.81027347 17 132 122
-0.055785634 0.1467395 -0.81039274 18 130 122
-0.056312844 0.1490425 -0.8118661 16 130 121
-0.055086747 0.14666715 -0.81249285 17 130 122
-0.056078926 0.14883089 -0.81231421 16 130 121
-0.055335432 0.14661917 -0.81164527 17 130 122
-0.056272496 0.14911732 -0.81209481 16 130 121
-0.053348586 0.14364268 -0.81267059 15 130 123
-0.054715853 0.14564259 -0.8120538 17 130 124
-0.053688627 0.14281009 -0.81049573 16 130 123
-0.053760801 0.14266156 -0.81007695 17 130 124
-0.054091968 0.14374071 -0.81083155 17 130 124
-0.05422819 0.14365198 -0.81033236 17 130 124
-0.055083964 0.14463603 -0.80927449 18 130 123
-0.055533957 0.14579937 -0.80973363 18 130 122
-0.054946672 0.14593691 -0.81180274 17 130 122
-0.054969143 0.14622812 -0.81220138 17 130 122
-0.054981153 0.14633331 -0.81233311 17 130 122
-0.054452471 0.14378183 -0.80988437 17 130 122
-0.053255484 0.14123707 -0.80916047 17 130 124
-0.053407911 0.14171511 -0.80951607 17 130 124
-0.053616043 0.14217889 -0.80969989 17 130 124
-0.052939259 0.14067632 -0.80911088 17 130 124
-0.05236847 0.14058408 -0.81055957 16 130 123
-0.052544303 0.14164707 -0.81177318 15 132 123
-0.052665588 0.14237858 -0.81260753 15 132 123
-0.051491942 0.13874474 -0.8100149 16 130 123
-0.051586021 0.14068101 -0.81280315 15 130 123
-0.051591672 0.14069511 -0.8128103 15 130 123
-0.050702412 0.13881654 -0.81221318 15 130 123
-0.050949577 0.13941789 -0.81250334 15 130 123
-0.050967071 0.13870485 -0.81133884 16 130 123
-0.052396096 0.14126876 -0.81158501 15 132 123
-0.050591134 0.13708688 -0.80950069 14 130 123
-0.050654564 0.13847782 -0.81177235 15 130 123
-0.050963566 0.13798416 -0.81009036 15 130 123
-0.050882746 0.13853529 -0.81127036 15 130 123
-0.050696302 0.13814548 -0.81107926 15 130 123
-0.050641578 0.13728498 -0.80971479 14 130 123
-0.055636831 0.15502447 -0.82626396 14 130 123
-0.055594787 0.15503731 -0.82774138 14 130 123
-0.055362139 0.15431413 -0.82850999 14 130 123
-0.054920554 0.15264489 -0.82794863 16 132 123
-0.054365076 0.15049358 -0.8277868 18 132 122
-0.054739978 0.15202728 -0.82695425 16 130 123
-0.054658871 0.15178537 -0.8260988 16 130 124
-0.05486751 0.15244004 -0.8279264 16 132 123
-0.055138193 0.15345901 -0.82719916 15 130 123
-0.055287048 0.15397274 -0.82753122 15 130 123
-0.05496069 0.15271083 -0.82544667 15 130 123
-0.05486783 0.15249607 -0.8262971 15 132 123
-0.054546084 0.15131822 -0.82490444 16 132 124
-0.054955024 0.15263748 -0.8248961 15 130 123
-0.052965324 0.14668801 -0.82497478 14 130 125
-0.053228326 0.14725024 -0.82615745 15 130 123
-0.053327493 0.14756496 -0.82622355 15 132 123
-0.053802468 0.14859687 -0.82829833 17 132 121
-0.053381082 0.14764148 -0.82660514 15 132 123
-0.054036975 0.14958972 -0.82706404 17 132 122
-0.054198373 0.15007874 -0.8264817 17 132 122
-0.054246251 0.15025949 -0.82573783 17 130 124
-0.053444881 0.14805937 -0.82497716 15 132 124
-0.054219291 0.15023494 -0.8249203 17 130 124
-0.053975351 0.14956957 -0.82461911 16 132 124
-0.052767854 0.14619304 -0.82575125 14 132 123
-0.052899666 0.14641708 -0.82542598 14 132 123
-0.051291697 0.1441732 -0.82546031 14 128 126
-0.051651116 0.14469425 -0.82522333 14 128 126
-0.051696289 0.14475758 -0.82521719 14 128 126
-0.051621124 0.14466625 -0.82507294 14 128 126
-0.052240688 0.14553393 -0.82499939 14 130 125
-0.052685522 0.14608532 -0.82571471 14 132 123
-0.051618315 0.14438254 -0.82811642 14 132 122
-0.052631021 0.14582172 -0.82774383 14 132 121
-0.052710772 0.14602101 -0.82678664 14 132 122
-0.052140109 0.14508992 -0.82829297 14 132 121
-0.052624188 0.14607176 -0.82494283 14 130 125
-0.049107254 0.1412342 -0.82816178 14 128 126
-0.049918357 0.14216357 -0.82777643 14 130 123
-0.050041009 0.14235772 -0.82696795 14 130 125
0 0 0 1 0 0 0 1 0 0 0 1 0 0 0 0 0 1025 1 0 0
