ply
format ascii 1.0
comment PCL generated
element vertex 730
property float x
property float y
property float z
property uchar red
property uchar green
property uchar blue
element camera 1
property float view_px
property float view_py
property float view_pz
property float x_axisx
property float x_axisy
property float x_axisz
property float y_axisx
property float y_axisy
property float y_axisz
property float z_axisx
property float z_axisy
property float z_axisz
property float focal
property float scalex
property float scaley
property float centerx
property float centery
property int viewportx
property int viewporty
property float k1
property float k2
end_header
0.22357997 -0.33359993 -0.84005719 6 128 124
0.22491996 -0.33248705 -0.84009486 6 128 124
0.22534032 -0.33259565 -0.83984661 6 128 124
0.22487554 -0.33383706 -0.83927399 6 128 124
0.22559811 -0.33392355 -0.838934 6 128 124
0.23012114 -0.3335025 -0.83753502 6 128 124
0.23363154 -0.33317494 -0.83674425 6 132 121
0.23385911 -0.33210218 -0.83729136 6 132 122
0.21943851 -0.33775753 -0.84003997 5 128 126
0.21988466 -0.3377288 -0.8397643 5 128 126
0.22244166 -0.33782625 -0.83818167 5 128 126
0.22450149 -0.33498475 -0.83874041 6 128 124
0.224728 -0.33532965 -0.83841926 6 128 124
0.22590482 -0.33412132 -0.83869129 6 128 124
0.22524318 -0.33502278 -0.83840191 6 128 124
0.22480065 -0.33436614 -0.83898181 6 128 124
0.23189044 -0.33419219 -0.83659488 6 132 121
0.22977917 -0.3343426 -0.83713418 6 128 124
0.22980554 -0.33438802 -0.8370983 6 128 124
0.21905404 -0.33800486 -0.84015614 5 128 126
0.21789908 -0.33923373 -0.84023148 5 128 125
0.21820225 -0.34030867 -0.83942604 5 128 125
0.2174142 -0.34081352 -0.83966219 5 128 124
0.21720901 -0.34030223 -0.84009099 5 128 125
0.22057381 -0.33840257 -0.83891058 5 128 126
0.21943797 -0.34069845 -0.83827537 5 128 126
0.21781531 -0.34160465 -0.83888662 5 128 124
0.22045417 -0.34173962 -0.83686334 5 128 126
0.21780157 -0.34164548 -0.83887058 5 128 124
0.21951999 -0.33953747 -0.83895791 5 128 126
0.21814482 -0.34108627 -0.83897644 5 128 125
0.21914516 -0.339506 -0.83925319 5 128 125
0.22218694 -0.34052277 -0.83659685 5 128 126
0.22071026 -0.33979368 -0.8379215 5 128 126
0.22096045 -0.34026006 -0.83747905 5 128 126
0.22132602 -0.3408584 -0.83688575 5 128 126
0.22093831 -0.34143361 -0.83674103 5 128 126
0.22112951 -0.34113589 -0.83682138 5 128 126
0.22233634 -0.339203 -0.83736318 5 128 126
0.21535981 -0.34275061 -0.84007627 5 128 123
0.21525083 -0.34373599 -0.83953762 5 128 123
0.21629082 -0.34538659 -0.83742732 6 128 124
0.21516488 -0.34496897 -0.83874232 6 128 124
0.21657731 -0.34301633 -0.83884645 5 128 123
0.21448614 -0.34472618 -0.83952874 5 128 123
0.21559101 -0.343104 -0.83967721 5 128 123
0.21643935 -0.34359747 -0.83855981 5 128 123
0.2159377 -0.34419265 -0.83859247 6 128 124
0.21891588 -0.34398243 -0.83641243 6 128 125
0.21874705 -0.34408051 -0.83646715 6 128 125
0.21945941 -0.34325105 -0.83653003 5 128 125
0.21756771 -0.34196189 -0.83882856 5 128 124
0.21919781 -0.34313869 -0.83679873 5 128 125
0.21686071 -0.34251982 -0.8389523 5 128 123
0.21970074 -0.34232157 -0.83700818 5 128 125
0.21832654 -0.34184247 -0.83835608 5 128 125
0.21785645 -0.34285963 -0.83798081 5 128 124
0.21695434 -0.34370646 -0.83804339 5 128 123
0.21687479 -0.34343478 -0.83829409 5 128 123
0.21183437 -0.34808835 -0.83968902 5 128 123
0.21279791 -0.34853277 -0.83833957 6 128 123
0.21237408 -0.34886575 -0.83855152 6 128 123
0.21255922 -0.34715098 -0.83959222 6 128 124
0.21130994 -0.34926978 -0.83939558 5 128 123
0.21171011 -0.34819371 -0.83974558 5 128 123
0.21536791 -0.34797239 -0.83641046 7 128 123
0.2144936 -0.34902716 -0.83643734 7 128 123
0.21528381 -0.34772283 -0.83666027 7 128 123
0.21542688 -0.34765628 -0.8365792 7 128 123
0.21304859 -0.34833032 -0.83824289 6 128 123
0.21548724 -0.34637085 -0.83744889 6 128 123
0.21537489 -0.34647861 -0.83747286 6 128 123
0.21339746 -0.34668586 -0.83911347 6 128 124
0.21467395 -0.34656647 -0.83804405 6 128 123
0.21370374 -0.34638029 -0.83905667 6 128 124
0.21475057 -0.34773034 -0.83713496 6 128 123
0.21537493 -0.34654158 -0.83742738 6 128 123
0.20853736 -0.35297734 -0.83995563 5 128 123
0.21240322 -0.35241964 -0.83633071 7 128 123
0.2114106 -0.35297757 -0.8369875 7 128 123
0.20951216 -0.35305774 -0.83878797 6 128 124
0.21208043 -0.35205314 -0.83686173 7 128 123
0.21039422 -0.35256913 -0.83820802 6 128 123
0.21244425 -0.35032451 -0.83749068 7 128 123
0.21215159 -0.35077724 -0.83751786 7 128 123
0.2104304 -0.35016537 -0.83972025 5 128 123
0.21144305 -0.35061952 -0.83833808 6 128 123
0.21252136 -0.34971663 -0.83778614 6 128 123
0.21047829 -0.3507404 -0.83928764 5 128 123
0.21063687 -0.3507477 -0.83911353 5 128 123
0.20940408 -0.35148445 -0.83993256 5 128 123
0.21335533 -0.35034597 -0.83662027 7 128 123
0.20778328 -0.35507324 -0.83954811 5 128 123
0.20705195 -0.35581005 -0.83999372 5 128 123
0.20882182 -0.35694855 -0.83702487 7 126 125
0.20749201 -0.35656229 -0.83895224 6 128 124
0.2077305 -0.35630289 -0.83881921 6 128 124
0.20876975 -0.35539114 -0.83809811 6 128 124
0.20818074 -0.35514599 -0.83899975 6 128 124
0.20813897 -0.3573921 -0.83759928 7 126 125
0.20905216 -0.35638529 -0.8371197 7 126 125
0.21043845 -0.35369536 -0.83751082 7 126 124
0.21024972 -0.35446084 -0.83719987 7 126 124
0.21008897 -0.35491434 -0.83706319 7 126 125
0.20923053 -0.3573215 -0.83634287 7 126 125
0.20958388 -0.35624236 -0.83669639 7 126 125
0.20951515 -0.35657188 -0.83655035 7 126 125
0.2045119 -0.36083654 -0.83979613 3 130 123
0.20813005 -0.35918242 -0.83639848 6 126 126
0.20796341 -0.35865006 -0.83692282 6 128 125
0.20793039 -0.35907742 -0.83669281 6 128 125
0.20611127 -0.36082855 -0.83769625 5 128 124
0.20682922 -0.36041111 -0.83712852 5 128 124
0.20880897 -0.35747176 -0.83669829 7 126 125
0.20763287 -0.35786256 -0.83789533 6 128 124
0.20712128 -0.35909748 -0.8376351 6 128 125
0.20610006 -0.35817856 -0.83959717 5 128 123
0.20855805 -0.35772845 -0.83682662 7 126 125
0.20570187 -0.35908619 -0.83943385 5 128 123
0.20743559 -0.35775357 -0.83822411 6 128 124
0.20509818 -0.36095214 -0.83883345 5 128 123
0.20539591 -0.35991347 -0.83921576 5 128 123
0.20466243 -0.36474323 -0.8365398 3 130 121
0.20448264 -0.36248788 -0.83856487 3 130 122
0.20439871 -0.36217824 -0.83893198 3 130 122
0.20452027 -0.36151996 -0.83926296 3 130 123
0.20417307 -0.3649309 -0.83717275 3 130 120
0.20401818 -0.36210462 -0.83956945 3 130 121
0.20424692 -0.36369067 -0.83799118 3 130 121
0.205305 -0.36261809 -0.83731693 3 130 123
0.20541474 -0.36151552 -0.8380428 3 128 123
0.20564626 -0.36165488 -0.83766747 3 128 123
0.22553757 -0.31979111 -0.84785098 8 128 124
0.21982969 -0.32566223 -0.84788895 7 126 124
0.22145288 -0.32439327 -0.8475771 7 126 124
0.22131656 -0.32503161 -0.84724605 7 126 124
0.22353987 -0.32321227 -0.84702742 7 128 125
0.2244398 -0.32326636 -0.84646076 7 128 125
0.2237743 -0.32377094 -0.84654492 7 128 125
0.22165443 -0.32561445 -0.84666932 7 128 123
0.22351976 -0.32370096 -0.84673679 7 128 125
0.2226086 -0.32551789 -0.84616804 7 126 124
0.22453555 -0.32550031 -0.84504801 7 128 125
0.22375546 -0.3252956 -0.84563005 7 128 125
0.22683676 -0.32486561 -0.84427655 7 128 125
0.22652762 -0.32517049 -0.84424847 7 128 125
0.22505955 -0.32581329 -0.84458888 7 128 125
0.22571981 -0.32525423 -0.84459674 7 128 125
0.22483611 -0.32513675 -0.84511101 7 128 125
0.22465704 -0.32421437 -0.8457616 7 128 125
0.22575848 -0.32482016 -0.84483773 7 128 125
0.22610018 -0.32397467 -0.84517866 7 128 125
0.22636969 -0.32355186 -0.84529942 7 128 125
0.22579885 -0.32463509 -0.84492975 7 128 125
0.21928103 -0.32619509 -0.84795898 6 128 123
0.22051908 -0.32618713 -0.84701926 6 128 123
0.21702488 -0.32882127 -0.84791207 6 126 126
0.21736504 -0.32902372 -0.84750152 6 126 126
0.21722955 -0.32925609 -0.84744406 6 126 126
0.22030981 -0.32721469 -0.84647411 6 128 123
0.22018889 -0.32888955 -0.84541529 6 128 125
0.22015059 -0.32857612 -0.84566021 6 128 124
0.21990767 -0.32697237 -0.8469497 6 128 123
0.21908589 -0.3282212 -0.84672236 6 128 124
0.21993831 -0.32942429 -0.84524006 6 128 126
0.21880391 -0.32985544 -0.84581512 6 126 126
0.22454897 -0.32684088 -0.84416443 6 128 124
0.22138578 -0.32804975 -0.84519708 7 126 125
0.22443825 -0.32621977 -0.84466434 6 128 124
0.22141095 -0.32790121 -0.84528446 7 126 125
0.22299796 -0.32658964 -0.84525514 7 126 125
0.22141542 -0.32643792 -0.84628814 7 128 123
0.22175354 -0.32655188 -0.84601134 7 126 124
0.22269928 -0.32661405 -0.84541363 7 126 125
0.22476757 -0.32633334 -0.84440649 6 128 124
0.21612799 -0.33073232 -0.84737641 5 128 126
0.21451288 -0.33288813 -0.84738356 5 128 123
0.21623747 -0.33066428 -0.84731966 5 128 126
0.21491387 -0.33239576 -0.84735137 5 128 124
0.21636839 -0.33375144 -0.84503073 5 128 125
0.21633011 -0.33280119 -0.84573334 5 128 125
0.21473919 -0.33282635 -0.8472138 5 128 124
0.21656166 -0.33200637 -0.84607291 5 128 126
0.21678621 -0.33246624 -0.84553885 5 126 126
0.21846814 -0.33237407 -0.8443076 5 128 125
0.21840174 -0.33141252 -0.8450349 5 128 126
0.21744078 -0.33103648 -0.84603703 5 128 126
0.21726957 -0.33179456 -0.84563679 5 128 126
0.21851291 -0.3321901 -0.84440404 5 128 126
0.21700536 -0.33035386 -0.8468504 5 128 126
0.21856768 -0.33132991 -0.8449654 5 128 126
0.21827185 -0.33027145 -0.84593517 6 126 126
0.21861678 -0.33143154 -0.84485638 5 128 126
0.21405664 -0.33759928 -0.8443169 5 128 126
0.21466127 -0.33670405 -0.84441978 5 128 126
0.21395512 -0.33583447 -0.84572476 5 128 125
0.21444307 -0.33570254 -0.84536624 5 128 125
0.21568507 -0.33443904 -0.84516305 5 128 125
0.21472244 -0.33508179 -0.8455779 5 128 125
0.21372518 -0.3363601 -0.84553933 5 128 125
0.21270236 -0.33939913 -0.84432685 5 128 125
0.21269298 -0.33858544 -0.84489936 5 128 126
0.21056001 -0.34157068 -0.84533858 3 130 123
0.21255991 -0.33835435 -0.84522307 5 128 126
0.21042241 -0.34179306 -0.84534574 3 130 123
0.21095294 -0.34137058 -0.8450039 3 130 123
0.21021883 -0.34121063 -0.84601474 5 128 123
0.21284315 -0.33796275 -0.84516054 5 128 126
0.21066268 -0.33917382 -0.84696269 5 128 123
0.2093768 -0.34119624 -0.84705591 5 128 123
0.2103 -0.33961555 -0.84708434 5 128 123
0.21080467 -0.33849144 -0.84729266 5 128 123
0.21019092 -0.33950913 -0.84729838 5 128 123
0.20899542 -0.34276512 -0.8464126 5 128 123
0.2102336 -0.34252334 -0.84507155 3 130 123
0.20929135 -0.34423229 -0.84504038 5 128 123
0.20930387 -0.34408855 -0.84512442 5 128 123
0.20925944 -0.34292293 -0.84598356 5 128 123
0.20924981 -0.34211382 -0.84655404 5 128 123
0.20899619 -0.34199813 -0.8469432 5 128 123
0.20838195 -0.34598964 -0.84507608 6 128 123
0.22569309 -0.34568754 -0.83145261 5 128 126
0.22405918 -0.34866515 -0.83053416 5 128 126
0.22404167 -0.34870741 -0.83052003 5 128 126
0.2243367 -0.34714511 -0.83120281 5 128 126
0.22833569 -0.34868461 -0.8287856 6 128 126
0.22623785 -0.349271 -0.82931525 6 128 126
0.22569788 -0.34864432 -0.8298955 6 128 126
0.22600916 -0.3494136 -0.82932729 6 128 126
0.22471181 -0.3487334 -0.83021015 5 128 126
0.21645853 -0.35344583 -0.83235937 7 128 122
0.21757688 -0.35212308 -0.83227485 7 128 122
0.21831706 -0.35167614 -0.83203632 7 128 122
0.2173986 -0.35243836 -0.83223093 7 128 122
0.21970755 -0.35129973 -0.83133417 7 128 122
0.22417827 -0.35151705 -0.82889462 6 128 126
0.22346662 -0.35206354 -0.82892483 7 126 126
0.22297803 -0.35213497 -0.82913536 7 128 125
0.22253463 -0.3525677 -0.82911038 7 128 125
0.22385766 -0.34993625 -0.82995963 6 128 126
0.22268513 -0.34997672 -0.83047414 6 128 124
0.22474776 -0.35060757 -0.82915431 6 128 126
0.22499463 -0.35001218 -0.82939768 6 128 126
0.22607976 -0.35032505 -0.82877207 6 128 126
0.22013119 -0.35430905 -0.82938242 8 128 122
0.21143094 -0.36027879 -0.83240926 5 130 124
0.21216966 -0.36001608 -0.83188879 6 128 124
0.21271466 -0.3598133 -0.83151054 6 128 124
0.21570785 -0.3585647 -0.82979029 7 128 123
0.21609068 -0.35892838 -0.82925522 7 128 123
0.2158691 -0.35874939 -0.82954556 7 128 123
0.21402666 -0.35781804 -0.83166987 7 128 123
0.21414529 -0.35909936 -0.83075202 7 128 124
0.21457486 -0.35890222 -0.83051932 7 128 124
0.21402666 -0.35781264 -0.83167332 7 128 123
0.21292087 -0.36040044 -0.8309443 6 128 124
0.20793977 -0.36521801 -0.83236849 3 128 125
0.21206637 -0.36495975 -0.82863617 5 130 123
0.21173204 -0.36471176 -0.82911402 5 128 123
0.21036479 -0.36399525 -0.83086336 5 128 125
0.21027271 -0.36450708 -0.83059615 5 128 125
0.20990179 -0.36451188 -0.83093381 5 128 126
0.21184851 -0.36298493 -0.83019418 5 128 124
0.20975162 -0.36511338 -0.83065832 5 128 126
0.21167077 -0.36280736 -0.83047962 5 128 124
0.21218948 -0.36196306 -0.83058411 5 128 124
0.21013039 -0.36268049 -0.83200157 5 128 126
0.21009788 -0.36384681 -0.83121449 5 128 126
0.21192063 -0.36180583 -0.83094501 5 128 124
0.21016422 -0.36286056 -0.83184379 5 128 126
0.20934296 -0.36339957 -0.8322311 5 128 126
0.21016933 -0.36246723 -0.8321147 5 128 126
0.21368228 -0.36215428 -0.82916409 6 128 124
0.21352904 -0.36325103 -0.82853425 6 128 124
0.21349756 -0.36176717 -0.82958037 6 128 124
0.20661367 -0.36744988 -0.83237725 5 128 123
0.20721816 -0.36667916 -0.8322227 3 130 123
0.20860729 -0.36746386 -0.83021766 5 128 126
0.2077783 -0.36711821 -0.83135152 5 128 125
0.2063407 -0.3689664 -0.83169913 5 128 123
0.20882787 -0.36833528 -0.82940042 5 128 126
0.20697789 -0.36753449 -0.83195031 5 128 124
0.20641384 -0.36843431 -0.83197111 5 128 123
0.20787062 -0.36866009 -0.83023095 5 128 125
0.20901088 -0.36647254 -0.83043963 5 126 126
0.21066986 -0.3652885 -0.82969558 5 128 124
0.21101326 -0.36636624 -0.82867271 5 128 124
0.2094427 -0.36681166 -0.82982415 5 128 126
0.20930561 -0.36568964 -0.83068639 5 128 126
0.20919333 -0.36896792 -0.82863843 5 128 126
0.20918219 -0.36808991 -0.82922482 5 128 126
0.20972604 -0.36632195 -0.82988501 5 128 126
0.20757729 -0.37193248 -0.82854366 5 128 123
0.20696162 -0.37257162 -0.82882559 5 128 123
0.20738815 -0.36957285 -0.83017677 5 128 124
0.20722246 -0.37041977 -0.82984197 5 128 123
0.21294682 -0.3220551 -0.85719961 7 128 122
0.21367858 -0.32144156 -0.85671836 7 128 122
0.21382552 -0.32031965 -0.85735363 7 128 120
0.21267572 -0.32392949 -0.85616171 7 128 123
0.21178389 -0.32403246 -0.85734904 7 128 120
0.21188861 -0.32458538 -0.85679668 7 128 121
0.21166836 -0.32386893 -0.85762954 7 128 120
0.21208592 -0.32317364 -0.85756308 7 128 121
0.21161753 -0.32462588 -0.85714251 7 128 120
0.21191008 -0.32321924 -0.85777521 7 128 120
0.21162574 -0.32349056 -0.8579703 7 128 120
0.21330371 -0.32242304 -0.85647172 7 128 123
0.23364531 -0.35527092 -0.82394844 8 128 124
0.23400658 -0.35472462 -0.82415777 8 128 124
0.236696 -0.35555065 -0.8234157 8 128 124
0.2249933 -0.35973677 -0.823955 8 128 124
0.22541144 -0.35990337 -0.82370144 8 128 124
0.22574133 -0.36082232 -0.82310122 8 128 124
0.2250323 -0.36114705 -0.82315284 8 128 124
0.22695889 -0.36023548 -0.82302696 8 128 124
0.22700273 -0.36038801 -0.82293886 8 128 124
0.22995782 -0.36109591 -0.82181329 8 128 124
0.22989142 -0.36107612 -0.82183832 8 128 124
0.22915304 -0.35932037 -0.82287323 8 128 124
0.22915375 -0.35938388 -0.82284188 8 128 124
0.23015201 -0.35893089 -0.82284582 8 128 124
0.22494453 -0.361494 -0.82300848 8 128 124
0.22520526 -0.36143547 -0.8229596 8 128 124
0.22933868 -0.36170611 -0.82165319 8 128 124
0.21518619 -0.36834088 -0.82434011 7 128 125
0.21567644 -0.36776793 -0.82430232 7 128 125
0.21597415 -0.3668105 -0.82457608 7 128 124
0.21549517 -0.36756849 -0.82451653 7 128 125
0.21733391 -0.36547184 -0.8244468 7 128 123
0.21754764 -0.36563075 -0.82427275 7 128 123
0.21229826 -0.37294677 -0.82355118 7 128 124
0.21207514 -0.37165761 -0.82458895 6 128 124
0.2143469 -0.37076813 -0.82345623 7 128 124
0.21478564 -0.37096855 -0.82304513 7 128 123
0.21432653 -0.37002718 -0.82394141 7 128 125
0.21314037 -0.3722851 -0.82326925 7 128 123
0.21339777 -0.37182483 -0.82339621 7 128 124
0.21362324 -0.37001863 -0.82440895 7 128 125
0.21134628 -0.37306786 -0.82434314 6 128 124
0.21065789 -0.37400317 -0.82440752 7 128 123
0.23200051 -0.33543727 -0.83576089 7 132 121
0.23188128 -0.33515719 -0.83597934 7 132 121
0.23411004 -0.33616686 -0.83481032 8 128 122
0.23374839 -0.33495077 -0.8356694 7 132 121
0.23487909 -0.33474267 -0.83557165 6 132 121
0.23343578 -0.33460864 -0.83595437 7 132 121
0.23362322 -0.33565733 -0.83523911 7 132 121
0.22295731 -0.34117126 -0.83572423 5 128 126
0.22268882 -0.34095386 -0.83601642 5 128 126
0.2232361 -0.34092706 -0.83571863 5 128 126
0.22311111 -0.34148023 -0.83544004 5 128 126
0.22523074 -0.33843547 -0.83626014 6 128 126
0.21909393 -0.3443577 -0.83602154 6 128 125
0.21891612 -0.34479704 -0.83584481 6 128 124
0.21940745 -0.34515774 -0.83523941 6 128 124
0.21890758 -0.34550878 -0.83535671 6 128 124
0.22456986 -0.34465897 -0.83252984 5 128 126
0.22339068 -0.34429988 -0.83338869 5 128 126
0.22256987 -0.34218016 -0.83528584 5 128 126
0.22182693 -0.34299475 -0.83515018 5 128 126
0.22118352 -0.34240344 -0.8359288 5 128 126
0.22427036 -0.34198925 -0.83443993 5 128 126
0.22331551 -0.34212285 -0.83489662 5 128 126
0.22492409 -0.34423843 -0.83264679 5 128 126
0.22470336 -0.34423983 -0.83274204 5 128 126
0.21547407 -0.34839818 -0.83602345 7 128 123
0.21665171 -0.34957647 -0.83418351 7 128 122
0.21618555 -0.34713614 -0.83628386 7 128 124
0.21621867 -0.34957817 -0.83455777 7 128 122
0.22024496 -0.34653261 -0.83370852 6 128 123
0.21887064 -0.34587792 -0.83512706 6 128 124
0.217703 -0.34645262 -0.83557153 6 128 123
0.21792631 -0.34632334 -0.8355 6 128 123
0.21870768 -0.34625527 -0.83498281 6 128 123
0.21913813 -0.34600151 -0.83484805 6 128 124
0.21719195 -0.34593862 -0.83629835 7 128 124
0.21269885 -0.35203397 -0.83625591 7 128 123
0.21470165 -0.35205767 -0.83447379 7 128 122
0.21518613 -0.35237065 -0.83392441 7 128 122
0.21648973 -0.35210809 -0.83300906 7 128 122
0.21645293 -0.35031947 -0.83394992 7 128 122
0.21395499 -0.35321239 -0.83448642 7 128 122
0.21525694 -0.35156578 -0.83427745 7 128 122
0.21386696 -0.35245115 -0.83495057 7 128 122
0.21635087 -0.34976897 -0.83433032 7 128 122
0.21432489 -0.34997097 -0.83597124 7 128 123
0.21310985 -0.35304043 -0.83527011 7 128 123
0.21347545 -0.35281244 -0.83508343 7 128 122
0.21297359 -0.35149881 -0.83629876 7 128 123
0.21199803 -0.35368928 -0.83598185 7 128 123
0.20987085 -0.35643166 -0.8362934 7 126 125
0.21132822 -0.35439914 -0.83618414 7 128 123
0.21171126 -0.35652998 -0.83449882 7 126 124
0.21158138 -0.3565346 -0.83461708 7 126 124
0.21206999 -0.3546406 -0.83528548 7 128 123
0.21132092 -0.35666248 -0.83478379 7 126 124
0.21220562 -0.35713255 -0.83368105 7 128 124
0.21033742 -0.35724807 -0.83535236 7 126 125
0.21180929 -0.35653648 -0.83440369 7 126 124
0.21326964 -0.3573693 -0.83258629 7 128 123
0.21378832 -0.35557419 -0.83323652 7 128 123
0.21325304 -0.35351971 -0.83489442 7 128 122
0.21537089 -0.35363337 -0.83312213 7 128 122
0.21341096 -0.3550936 -0.83382726 7 128 123
0.20801522 -0.3601422 -0.83593893 5 128 125
0.20857625 -0.35991731 -0.83544302 5 128 126
0.20853369 -0.36112833 -0.83474296 5 128 126
0.20848569 -0.36097899 -0.83488953 5 128 126
0.21165596 -0.35974804 -0.83253759 6 128 124
0.2105238 -0.36130354 -0.83260816 5 128 126
0.20994379 -0.36069068 -0.83359009 5 130 125
0.21256261 -0.3578034 -0.83293962 7 128 124
0.21105337 -0.35938272 -0.8333711 6 128 124
0.21010192 -0.35970998 -0.83406287 6 128 125
0.21018183 -0.357732 -0.83520371 7 126 125
0.20975149 -0.35847324 -0.83514905 6 128 125
0.21109052 -0.35913709 -0.83349419 6 128 124
0.20911464 -0.35939339 -0.83517683 6 126 126
0.20973617 -0.3594352 -0.83457237 6 126 126
0.21175455 -0.35839456 -0.83333188 7 128 125
0.20859607 -0.36280718 -0.83343661 5 128 126
0.2083925 -0.36345255 -0.83318025 3 130 125
0.20664449 -0.3650353 -0.83395004 3 130 123
0.20854802 -0.36202469 -0.83407587 5 128 126
0.20725779 -0.36450118 -0.833664 3 130 124
0.20868839 -0.36196274 -0.83396518 5 128 126
0.20681256 -0.364097 -0.83446503 3 130 123
0.20639481 -0.3651154 -0.83416939 3 130 123
0.20789558 -0.3615354 -0.83518368 5 128 126
0.20640324 -0.36296773 -0.8357811 3 130 123
0.20744477 -0.3617022 -0.83556676 5 128 125
0.20727271 -0.36218765 -0.83539158 5 128 125
0.2053197 -0.36429897 -0.83599907 3 130 123
0.20590228 -0.36300683 -0.83632606 3 130 123
0.20981638 -0.36204219 -0.83275968 5 128 126
0.20951074 -0.36225724 -0.83290154 5 128 126
0.20618036 -0.36578083 -0.83395964 3 130 123
0.20777915 -0.36538309 -0.8324331 3 130 124
0.2071477 -0.36599287 -0.83273733 3 130 123
0.20576918 -0.36716241 -0.83350807 3 130 123
0.20537069 -0.36715731 -0.83395737 3 130 123
0.20566234 -0.36592647 -0.83444321 3 130 123
0.22174926 -0.31726465 -0.85173512 7 128 123
0.22216032 -0.31710827 -0.85153878 7 128 123
0.21973389 -0.32178235 -0.85053933 6 128 125
0.22069749 -0.32148334 -0.84997821 6 128 124
0.21999802 -0.32110995 -0.85073555 6 128 124
0.21922721 -0.32060543 -0.85162532 6 128 124
0.21977253 -0.32035518 -0.85135579 6 128 124
0.21956372 -0.32054988 -0.85140032 6 128 124
0.22312509 -0.3208532 -0.84871227 7 128 124
0.22476424 -0.31988162 -0.84821063 8 128 124
0.21538891 -0.32548091 -0.85188001 6 126 126
0.21640664 -0.32528096 -0.85096431 6 126 126
0.21573225 -0.32526848 -0.85166478 6 126 126
0.21660282 -0.32508087 -0.85089219 6 126 126
0.21957579 -0.32527676 -0.84834862 6 128 124
0.21949562 -0.32562876 -0.84817159 6 128 124
0.21772781 -0.32544878 -0.84973079 6 126 126
0.21783669 -0.32606256 -0.84921879 6 128 125
0.21894138 -0.32429647 -0.84954005 6 128 125
0.2186233 -0.32488951 -0.8493892 6 128 125
0.21799313 -0.32452512 -0.85013187 6 126 126
0.21912439 -0.32260898 -0.85049886 6 128 125
0.21776542 -0.32427645 -0.85046655 6 126 126
0.2182457 -0.32251534 -0.85123253 6 128 125
0.21855852 -0.3229793 -0.850694 6 128 125
0.21856822 -0.32352933 -0.85033244 6 128 125
0.21685246 -0.32390669 -0.85140824 6 126 126
0.22079617 -0.32296857 -0.84896719 6 128 124
0.21662216 -0.32743919 -0.8492558 6 126 126
0.21653526 -0.32814756 -0.84883565 6 126 126
0.21649317 -0.32660753 -0.84998423 6 126 126
0.21572074 -0.32736233 -0.85022873 6 128 125
0.21492615 -0.32823789 -0.85040885 5 128 123
0.21463439 -0.32885426 -0.85026264 5 128 123
0.2144988 -0.32969525 -0.84979516 5 128 123
0.21475849 -0.3300662 -0.84926307 5 128 124
0.21597899 -0.32759857 -0.84979504 6 126 126
0.21497758 -0.32682058 -0.85138464 6 128 125
0.2158611 -0.32670194 -0.85056376 6 126 126
0.21553013 -0.32708004 -0.85062879 6 128 125
0.21506119 -0.32677221 -0.85133398 6 128 125
0.21345827 -0.32871944 -0.85156733 5 128 123
0.21690537 -0.3270582 -0.84926569 6 126 126
0.21860775 -0.32666269 -0.84816563 6 128 124
0.21749 -0.32711777 -0.84874809 6 126 126
0.2144455 -0.33071977 -0.84907937 5 128 123
0.21508241 -0.3301225 -0.84888977 5 128 124
0.21521932 -0.33100533 -0.84806979 5 128 125
0.21431915 -0.33147556 -0.8486259 5 128 123
0.22429143 -0.35301197 -0.82796782 6 126 126
0.22798428 -0.34962606 -0.82839501 6 128 126
0.22613721 -0.35129315 -0.8281846 5 128 126
0.22811361 -0.34991714 -0.82817131 6 128 126
0.22598961 -0.35110921 -0.82835358 6 128 126
0.22518191 -0.35299593 -0.82758194 6 126 126
0.22711679 -0.3532778 -0.82656288 6 128 124
0.22585475 -0.35271034 -0.8274613 6 126 126
0.22646089 -0.35265139 -0.82723171 6 128 125
0.2297817 -0.35325968 -0.82567573 7 128 124
0.23013455 -0.35349748 -0.82548839 7 128 124
0.23276854 -0.35174063 -0.82583588 8 128 124
0.23781492 -0.35273933 -0.82472438 8 128 124
0.23904555 -0.35032135 -0.8259998 9 128 124
0.22258791 -0.35423148 -0.8280744 7 128 124
0.22343762 -0.35360155 -0.82804102 7 128 125
0.22228543 -0.35475206 -0.82789713 7 128 124
0.22229522 -0.35528007 -0.82755703 7 128 123
0.22318937 -0.35673353 -0.82632774 7 128 123
0.22431771 -0.35402057 -0.82735866 6 126 126
0.22762138 -0.35597253 -0.82495856 7 128 124
0.22542171 -0.35671124 -0.82539278 7 128 124
0.22661543 -0.3571538 -0.82476389 7 128 124
0.22738817 -0.35532901 -0.82534981 7 128 124
0.22594906 -0.35365573 -0.82685149 6 128 125
0.22692056 -0.35378066 -0.82635659 6 128 124
0.22461995 -0.35730714 -0.82540405 6 128 124
0.22947381 -0.35383776 -0.8254571 7 128 124
0.21674268 -0.35982618 -0.82817894 7 128 123
0.22471529 -0.35742411 -0.82530642 7 128 124
0.21278663 -0.36499813 -0.82795405 5 128 123
0.21543919 -0.36179823 -0.82798135 6 128 124
0.21362448 -0.36341172 -0.82834601 6 128 124
0.21370539 -0.36356232 -0.82817739 6 128 124
0.2139805 -0.36377788 -0.8278091 6 128 124
0.21434703 -0.36328521 -0.82784802 6 128 124
0.21407075 -0.36429995 -0.82739896 6 128 124
0.21672843 -0.36304867 -0.82620353 7 128 124
0.21654454 -0.36166707 -0.82718045 6 128 123
0.21643417 -0.36229587 -0.82687873 7 128 124
0.21578093 -0.36281288 -0.82704502 6 128 123
0.21613121 -0.36226213 -0.82712245 6 128 123
0.21629789 -0.36509046 -0.82527703 7 128 125
0.21447082 -0.36431304 -0.82709628 6 128 124
0.21819794 -0.3640976 -0.82467139 7 128 123
0.21752906 -0.36319456 -0.82560611 7 128 123
0.2182222 -0.36315712 -0.82519519 7 128 123
0.21808234 -0.36197791 -0.82600093 7 128 123
0.21205004 -0.36561754 -0.82821447 5 128 123
0.2113512 -0.36636907 -0.82836199 5 128 124
0.21186671 -0.36713004 -0.82746828 5 128 124
0.21055979 -0.36853188 -0.82774806 5 128 126
0.21198873 -0.36863956 -0.82651633 5 128 124
0.21199198 -0.36822665 -0.8267467 5 128 124
0.20952502 -0.36891368 -0.82838041 5 128 126
0.21015123 -0.36817059 -0.82828671 5 128 126
0.21052314 -0.36784232 -0.8281672 5 128 126
0.21649325 -0.36601686 -0.824628 7 128 124
0.21427125 -0.36841786 -0.82491374 6 128 124
0.21429484 -0.36864462 -0.82477909 6 128 124
0.21310069 -0.36741143 -0.8263157 6 128 124
0.21575037 -0.3662715 -0.82500738 7 128 125
0.21402039 -0.36586055 -0.82651353 6 128 124
0.21659206 -0.36540589 -0.82487595 7 128 125
0.21310526 -0.36880639 -0.82552505 6 128 124
0.21552907 -0.36533147 -0.82570094 7 128 125
0.21456781 -0.36635372 -0.82583201 6 128 124
0.20819502 -0.37233889 -0.82770193 5 128 124
0.2085539 -0.37177953 -0.82765502 5 128 125
0.20843315 -0.37191874 -0.82769799 3 130 124
0.2081403 -0.37144154 -0.82825464 5 128 125
0.21216534 -0.37072828 -0.82512057 6 128 124
0.21201321 -0.37047619 -0.82542551 5 128 124
0.21098891 -0.37283397 -0.82482195 5 128 123
0.21148656 -0.37101433 -0.82555664 5 128 124
0.21070087 -0.3714225 -0.82601064 5 128 125
0.21135999 -0.37015957 -0.82618201 5 128 125
0.21033819 -0.37134856 -0.82635802 5 128 125
0.20959198 -0.37234288 -0.82641643 5 128 125
0.21030487 -0.36936402 -0.82748908 5 128 126
0.21087708 -0.37066793 -0.82629502 5 128 125
0.20912899 -0.37068278 -0.82771915 5 128 126
0.20971404 -0.37075582 -0.82719916 5 128 126
0.20821944 -0.37550044 -0.82575983 7 128 122
0.2088792 -0.373283 -0.82647938 5 128 125
0.20808379 -0.37306994 -0.82740468 5 128 124
0.20945618 -0.373072 -0.82607442 5 128 125
0.20946774 -0.37378156 -0.82563347 5 128 123
0.22622566 -0.32595366 -0.84392327 7 128 126
0.22639409 -0.32566789 -0.84401292 7 128 126
0.22679183 -0.32581827 -0.84371489 7 128 126
0.22850031 -0.32479018 -0.84346879 6 128 126
0.22889499 -0.32613236 -0.8424952 7 128 126
0.22812057 -0.32717097 -0.84212255 6 128 126
0.22733343 -0.32751238 -0.84224015 6 128 126
0.22646716 -0.32772088 -0.84252006 6 128 126
0.22643666 -0.32800665 -0.84232485 6 128 126
0.22700699 -0.32667756 -0.84301203 6 128 126
0.23035794 -0.32679579 -0.84154558 7 128 126
0.22854383 -0.32765836 -0.84162092 6 128 126
0.23053646 -0.32637182 -0.84176087 7 128 126
0.2194694 -0.33178371 -0.84394169 5 128 125
0.21994182 -0.33372495 -0.84214401 5 128 126
0.21915603 -0.33360761 -0.842857 5 128 126
0.22349904 -0.33336699 -0.840244 6 128 124
0.21518096 -0.33651915 -0.84409785 5 128 126
0.21457781 -0.33737925 -0.84401989 5 128 126
0.2165174 -0.33570987 -0.84353036 5 128 126
0.21667175 -0.33628333 -0.8430146 5 128 126
0.21586743 -0.3359006 -0.84394324 5 128 126
0.2202342 -0.3357724 -0.84062493 5 128 126
0.21916413 -0.33720738 -0.84054232 5 128 126
0.21873724 -0.33675081 -0.84111547 5 128 126
0.21732618 -0.33763078 -0.84160161 5 128 126
0.21879736 -0.33692011 -0.84097284 5 128 126
0.2186956 -0.33451182 -0.84259242 5 128 126
0.21829766 -0.33597672 -0.8419205 5 128 126
0.21863675 -0.33479893 -0.84244549 5 128 126
0.21723618 -0.33463854 -0.84367156 5 126 126
0.2195856 -0.33448657 -0.84189922 5 128 126
0.2190091 -0.33541581 -0.84173161 5 128 126
0.21788964 -0.33652654 -0.84187472 5 128 126
0.21284024 -0.34114176 -0.84308416 3 128 124
0.21216746 -0.34091601 -0.84391224 3 128 123
0.21603683 -0.3413403 -0.84037465 5 128 124
0.21428019 -0.34078711 -0.84211415 3 128 124
0.2149559 -0.34019512 -0.84192586 3 130 125
0.21408331 -0.34109598 -0.84208763 3 128 124
0.21468292 -0.34162134 -0.84129351 3 128 123
0.21386687 -0.34153789 -0.84199744 3 128 123
0.21584658 -0.33865848 -0.84213465 5 128 126
0.21506153 -0.33869988 -0.84276289 5 128 126
0.21505979 -0.3385241 -0.84287483 5 128 126
0.21378544 -0.33925858 -0.84347516 5 128 126
0.21519767 -0.33894607 -0.84249467 5 128 126
0.21367839 -0.33892366 -0.84377396 5 128 126
0.2134127 -0.33907294 -0.84389609 5 128 126
0.21811795 -0.33824602 -0.84067041 5 128 126
0.21728063 -0.33880129 -0.84093219 5 128 126
0.21720095 -0.33808497 -0.84142047 5 128 126
0.21253918 -0.34196788 -0.84288573 3 128 123
0.21202162 -0.3424961 -0.84310901 3 128 123
0.21156009 -0.34224892 -0.84372395 3 128 123
0.21189286 -0.34478077 -0.84187764 5 128 123
0.21114039 -0.34490311 -0.84259015 5 128 123
0.21234654 -0.34402847 -0.84185511 5 128 123
0.21223046 -0.3455072 -0.84108937 5 128 123
0.21206275 -0.34429619 -0.84199089 5 128 123
0.21200584 -0.34467927 -0.8418206 5 128 123
0.21153963 -0.3455348 -0.84179425 5 128 123
0.213624 -0.34189734 -0.84197712 3 128 123
0.21294728 -0.34465069 -0.84086347 5 128 123
0.21342294 -0.34287035 -0.84155303 3 128 123
0.21372074 -0.34245899 -0.84156179 3 128 123
0.21492884 -0.34235141 -0.84065813 5 128 124
0.2083949 -0.34884369 -0.84312385 5 128 123
0.20890194 -0.34941474 -0.842031 5 128 125
0.20858084 -0.34881917 -0.84287959 5 128 124
0.20877634 -0.34865952 -0.84271234 5 128 124
0.21194243 -0.34682646 -0.84050721 5 128 123
0.21051595 -0.3483845 -0.84095097 5 128 124
0.2105694 -0.34838507 -0.84088719 5 128 124
0.20933133 -0.34834862 -0.84225464 5 128 125
0.20929678 -0.34774399 -0.84268951 5 128 124
0.21038483 -0.34810081 -0.84131783 5 128 124
0.2112096 -0.34645444 -0.84154242 5 128 123
0.21164863 -0.34614119 -0.84129053 5 128 123
0.21088843 -0.34711257 -0.84144372 5 128 124
0.21030837 -0.3469108 -0.84218258 5 128 123
0.20984295 -0.34758723 -0.84222251 5 128 124
0.20859586 -0.3521021 -0.8404848 5 128 123
0.20843011 -0.349958 -0.84230524 5 128 124
0.20773359 -0.35094601 -0.84255344 5 128 123
0.2085032 -0.3496531 -0.84242749 5 128 124
0.20776331 -0.35074481 -0.84266007 5 128 123
0.20759155 -0.3516126 -0.84225923 5 128 123
0.20767146 -0.35163629 -0.8421315 5 128 123
0.20742939 -0.3504408 -0.84335148 5 128 123
0.20747115 -0.35326928 -0.84119725 5 128 123
0.20924619 -0.34989062 -0.84126562 5 128 125
0.20468241 -0.35735407 -0.84220189 5 128 123
0.20545813 -0.35713643 -0.84123057 5 128 123
0.20692964 -0.35448256 -0.84107798 5 128 123
0.20626034 -0.35580704 -0.84106481 5 128 123
0.20466959 -0.35911867 -0.84086895 5 128 123
0.20472728 -0.35980478 -0.8402527 5 128 123
0.20408912 -0.36047554 -0.8407107 5 128 123
0.20480591 -0.35752898 -0.8418833 5 128 123
0.20474197 -0.35832989 -0.84136516 5 128 123
0.20515509 -0.35796076 -0.84103018 5 128 123
0.22009124 -0.31368312 -0.85529375 7 128 123
0.22069229 -0.31557345 -0.85356963 7 128 123
0.22050183 -0.31614855 -0.85337436 7 128 123
0.2183785 -0.31824365 -0.85388714 6 128 123
0.21902563 -0.3162117 -0.85459763 7 128 123
0.21834816 -0.31763551 -0.85429138 6 128 122
0.22038956 -0.31576756 -0.85370737 7 128 123
0.21866965 -0.31739703 -0.85416478 6 128 122
0.22026315 -0.31804425 -0.85239923 6 128 123
0.21855971 -0.31727752 -0.8543331 6 128 122
0.21765864 -0.3170712 -0.85524434 6 128 122
0.21765488 -0.31732711 -0.85508114 6 128 122
0.21820338 -0.31662521 -0.85505307 6 128 122
0.22128282 -0.31496984 -0.85350817 7 128 123
0.22204837 -0.31655449 -0.85195863 7 128 123
0.22135964 -0.31637093 -0.85258067 7 128 123
0.22080812 -0.31479421 -0.85396737 7 128 123
0.21543889 -0.32006282 -0.8555637 6 128 122
0.21617278 -0.31837174 -0.85584128 6 128 122
0.21513176 -0.32198724 -0.85461432 6 128 124
0.21505441 -0.32218644 -0.85456777 6 128 124
0.21611121 -0.32215691 -0.85337621 6 128 124
0.21576595 -0.32133764 -0.85432816 6 128 124
0.2150463 -0.32137996 -0.85512447 6 128 123
0.21659201 -0.32017809 -0.85416824 6 128 123
0.21617 -0.32069194 -0.8543033 6 128 123
0.21697903 -0.32121 -0.85309011 6 128 124
0.21741495 -0.32061532 -0.85313743 5 128 123
0.21810032 -0.32004151 -0.85293329 6 128 124
0.2185017 -0.31844068 -0.85365564 6 128 123
0.21769384 -0.32195401 -0.85200775 6 128 125
0.21791391 -0.3202121 -0.85297912 6 128 124
0.21840911 -0.320952 -0.85206306 6 128 124
0.21548924 -0.32513008 -0.85200411 6 126 126
0.21495372 -0.32560581 -0.852265 5 128 124
0.21394959 -0.32574177 -0.8532902 5 128 123
0.21400236 -0.32598326 -0.85306478 5 128 123
0.21548583 -0.32487604 -0.85217565 5 128 124
0.21388847 -0.32437357 -0.85432827 5 128 123
0.21436206 -0.32229677 -0.85528523 6 128 123
0.21438594 -0.32347661 -0.85440582 6 128 124
0.21359487 -0.32517701 -0.85408467 5 128 123
0.21410291 -0.32287782 -0.85516274 6 128 123
0.21385087 -0.32443193 -0.85432929 5 128 123
0.21570008 -0.32317454 -0.85311741 5 128 124
0.21414235 -0.32707205 -0.85207236 5 128 123
0.21341936 -0.32766151 -0.85241574 5 128 123
0.21405061 -0.32723898 -0.85204375 5 128 123
0 0 0 1 0 0 0 1 0 0 0 1 0 0 0 0 0 730 1 0 0
