ply
format ascii 1.0
comment PCL generated
element vertex 698
property float x
property float y
property float z
property uchar red
property uchar green
property uchar blue
element camera 1
property float view_px
property float view_py
property float view_pz
property float x_axisx
property float x_axisy
property float x_axisz
property float y_axisx
property float y_axisy
property float y_axisz
property float z_axisx
property float z_axisy
property float z_axisz
property float focal
property float scalex
property float scaley
property float centerx
property float centery
property int viewportx
property int viewporty
property float k1
property float k2
end_header
-0.20662987 0.40734518 -0.82059705 111 137 114
-0.20708163 0.40630326 -0.82052833 110 139 113
-0.20763856 0.40477309 -0.8203243 108 143 111
-0.20705435 0.40544239 -0.8200556 107 141 112
-0.20922768 0.40195611 -0.82039386 109 143 110
-0.20706218 0.40097547 -0.81782305 96 143 109
-0.20724809 0.4018679 -0.81841832 101 142 111
-0.20740074 0.40139467 -0.81834286 100 143 110
-0.20759244 0.40134293 -0.81850195 100 143 110
-0.20817046 0.4018299 -0.81932229 104 145 109
-0.20786151 0.40181696 -0.81900036 103 144 110
-0.2081389 0.40133518 -0.81902707 103 144 110
-0.20868626 0.4010303 -0.81942326 105 145 109
-0.2077705 0.40280044 -0.81943047 105 143 110
-0.20809601 0.4036001 -0.82018769 108 144 110
-0.20887116 0.40171957 -0.81995064 106 145 110
-0.21016349 0.39973572 -0.82026225 120 141 111
-0.2101649 0.40036711 -0.82050878 119 142 110
-0.20902814 0.40005371 -0.81924778 109 144 110
-0.2086468 0.39917806 -0.8184036 119 140 112
-0.20791493 0.39933556 -0.81778973 113 139 112
-0.20755528 0.40003753 -0.81782842 102 142 110
-0.20749618 0.39989418 -0.81769377 103 141 110
-0.20777804 0.40023348 -0.8181482 100 144 109
-0.20712014 0.40012634 -0.81746078 99 142 110
-0.211623 0.39381716 -0.81966764 141 141 111
-0.21242708 0.39323077 -0.82058167 153 138 113
-0.21485956 0.43412071 -0.8397857 167 130 116
-0.21438541 0.43530434 -0.83946902 167 131 115
-0.21245101 0.43173239 -0.83698148 162 130 113
-0.21306296 0.4315249 -0.83748239 168 128 114
-0.21425746 0.43079978 -0.83855009 162 128 114
-0.21619903 0.42896682 -0.84009898 149 127 114
-0.21572855 0.43114963 -0.84021932 162 127 117
-0.21502504 0.43154076 -0.83958024 165 128 116
-0.21454105 0.430978 -0.83890343 163 129 114
-0.21392958 0.43044204 -0.83811438 162 128 114
-0.21520464 0.42784235 -0.83890373 157 127 115
-0.21304925 0.42930725 -0.83712471 175 127 117
-0.21357349 0.43023002 -0.83775157 166 128 114
-0.21438442 0.42776954 -0.83813113 167 127 117
-0.21389268 0.42997259 -0.83800882 164 127 115
-0.21436986 0.4287976 -0.83827358 163 127 115
-0.21232192 0.42999968 -0.8365854 169 129 115
-0.21272036 0.43041718 -0.83698863 172 128 116
-0.21771944 0.42490515 -0.84017539 155 128 116
-0.21739878 0.42412513 -0.83961034 161 127 118
-0.21804206 0.42398292 -0.84012347 159 128 116
-0.21307483 0.42638242 -0.83637953 185 128 119
-0.21531512 0.42471498 -0.83786613 174 127 120
-0.21526618 0.42432389 -0.83764589 175 128 120
-0.21504185 0.42402342 -0.8372882 178 129 120
-0.21504328 0.42404279 -0.8372981 178 129 120
-0.21443108 0.42611778 -0.83758694 176 126 120
-0.2142342 0.42699262 -0.83772206 172 126 118
-0.21363658 0.42748871 -0.83734393 176 126 118
-0.21484827 0.42715666 -0.83835065 165 127 117
-0.21400848 0.42684603 -0.83746022 176 126 119
-0.21546936 0.42613944 -0.83856487 165 126 118
-0.21626619 0.42441121 -0.83868891 167 125 120
-0.21576215 0.42682987 -0.83908278 157 127 116
-0.21672404 0.42648202 -0.83985651 149 127 116
-0.21867232 0.42246726 -0.84019727 161 128 117
-0.21843149 0.42167386 -0.83973897 165 127 119
-0.21914196 0.42061293 -0.8400327 165 127 119
-0.21716955 0.42263097 -0.838866 161 127 119
-0.21808055 0.42180881 -0.8394506 164 126 120
-0.21703614 0.42198017 -0.83846945 157 128 119
-0.21821386 0.4210794 -0.83929062 161 127 119
-0.2175744 0.42167339 -0.83888704 159 128 118
-0.21760552 0.4202581 -0.83834767 152 129 118
-0.2165795 0.42007262 -0.83717567 147 131 116
-0.2164854 0.4210459 -0.8374452 154 130 117
-0.21579726 0.42060304 -0.83646369 158 131 116
-0.21480638 0.42333353 -0.83673495 179 131 119
-0.21541512 0.42256805 -0.83699292 170 130 119
-0.2162603 0.42382699 -0.83843189 169 127 120
-0.21593708 0.42335904 -0.83788788 170 128 119
-0.21598044 0.42142904 -0.83703315 161 130 117
-0.2169438 0.41738775 -0.83646184 140 133 113
-0.21717437 0.41880172 -0.83733207 145 132 115
-0.21777299 0.41608587 -0.83683562 147 133 113
-0.22052138 0.41602603 -0.83971429 176 133 115
-0.21802971 0.41748723 -0.83768934 152 132 115
-0.21820465 0.41656905 -0.83749247 152 133 114
-0.21713737 0.41803628 -0.8369748 143 132 114
-0.21809769 0.41610956 -0.83718848 150 134 113
-0.21938947 0.41900927 -0.83967316 164 129 118
-0.21841449 0.41986859 -0.83900613 155 129 118
-0.22044127 0.41683796 -0.8399387 174 132 115
-0.21909241 0.41984284 -0.83967853 161 128 119
-0.21930303 0.41913584 -0.83963239 163 129 118
-0.21662736 0.41881353 -0.83668667 144 132 115
-0.2213904 0.41239092 -0.83859479 188 127 121
-0.22077258 0.41435695 -0.83905005 186 130 118
-0.22113028 0.41216302 -0.83819854 194 126 122
-0.22129565 0.41371194 -0.83923244 181 129 119
-0.22161013 0.41220376 -0.83871806 185 127 121
-0.21951099 0.41229793 -0.83667564 185 127 121
-0.22049727 0.41286209 -0.837946 194 127 121
-0.2197229 0.4123297 -0.8368988 188 127 121
-0.21996649 0.41512439 -0.83865595 174 132 116
-0.2188202 0.41461855 -0.83717948 165 131 116
-0.22017395 0.41474336 -0.83867514 179 131 117
-0.22016881 0.41532263 -0.8389737 175 132 115
-0.21821144 0.41570276 -0.83710539 152 133 114
-0.21859027 0.41488266 -0.83707517 161 131 116
-0.21891698 0.41300538 -0.83643508 175 129 119
-0.21935779 0.41543642 -0.83817667 166 132 115
-0.22092697 0.41088691 -0.8371917 179 131 118
-0.22165716 0.41011024 -0.83760774 167 132 117
-0.2233897 0.40915719 -0.83916545 157 132 117
-0.2216315 0.40993777 -0.83746111 163 133 117
-0.22129788 0.40991041 -0.83702147 161 134 116
-0.22234221 0.40831557 -0.83728468 134 140 112
-0.22109562 0.41061237 -0.83723092 174 131 118
-0.22250715 0.40979344 -0.83847183 165 131 118
-0.22141998 0.41196379 -0.83840537 190 126 121
-0.22190523 0.41133973 -0.83863676 183 127 121
-0.22343335 0.41108766 -0.84010965 156 131 118
-0.22220682 0.41080651 -0.8387174 180 127 120
-0.22372968 0.4103564 -0.84009886 153 132 118
-0.22044881 0.41179866 -0.83726561 193 127 121
-0.22034648 0.41152582 -0.83697838 187 128 120
-0.22534226 0.40476921 -0.84020191 131 153 101
-0.22500116 0.40549314 -0.83978349 131 149 105
-0.22497468 0.40634826 -0.84007931 137 144 108
-0.22428893 0.40707067 -0.83914906 143 138 113
-0.2235477 0.4047786 -0.83714294 143 148 107
-0.22457838 0.40661651 -0.83937812 133 143 109
-0.22271612 0.40765375 -0.8374207 135 141 111
-0.22289115 0.40785041 -0.83773553 136 140 112
-0.22372405 0.40669441 -0.83823669 144 140 112
-0.22307089 0.40734059 -0.83771962 139 140 112
-0.22334456 0.40595552 -0.83740503 144 143 110
-0.22272471 0.4070226 -0.83713061 138 142 111
-0.22312841 0.40491918 -0.83663779 146 147 108
-0.22504221 0.40304089 -0.83868229 131 148 105
-0.22520088 0.40321431 -0.83911127 132 148 104
-0.22496313 0.40095079 -0.83734965 140 134 115
-0.22572583 0.40206647 -0.83954817 138 142 108
-0.22600354 0.40161613 -0.83986706 140 139 110
-0.22570039 0.40064162 -0.83869463 143 133 115
-0.22573963 0.40186888 -0.8394655 139 140 109
-0.2260246 0.40182957 -0.84003049 139 141 109
-0.22452991 0.40168265 -0.83690685 134 139 111
-0.22373243 0.40384051 -0.8369574 138 149 106
-0.22395393 0.40422183 -0.83748668 131 154 103
-0.22361735 0.40320709 -0.83644116 145 144 109
-0.22553979 0.39708856 -0.83733553 147 142 106
-0.22572114 0.39811516 -0.83800733 144 140 108
-0.22575036 0.39774027 -0.83794117 147 140 108
-0.22580643 0.39916626 -0.83845764 144 136 112
-0.22537124 0.39744872 -0.83712012 143 143 105
-0.22564065 0.39844066 -0.8379299 143 139 109
-0.2253911 0.3988727 -0.83752674 143 137 111
-0.22610371 0.40011355 -0.83931339 144 133 114
-0.22489369 0.40018177 -0.83683813 142 131 116
-0.22108503 0.42795685 -0.84434402 160 133 117
-0.22104597 0.42774382 -0.84423703 161 132 117
-0.22189616 0.43032482 -0.8458764 149 133 118
-0.22145185 0.429986 -0.84535861 154 132 119
-0.22311477 0.42392787 -0.84546953 143 131 116
-0.22202858 0.42467445 -0.84429175 148 134 116
-0.22197053 0.42578688 -0.8445428 149 134 116
-0.22533099 0.42139924 -0.84769195 183 124 120
-0.22514477 0.42095286 -0.84722817 186 124 120
-0.22525378 0.421269 -0.84752023 183 124 120
-0.2250952 0.42138118 -0.84731042 180 125 119
-0.22411196 0.42270145 -0.84650737 149 127 116
-0.22380872 0.42013237 -0.84521961 179 127 118
-0.22425707 0.42194793 -0.84637779 161 126 117
-0.22385503 0.4229497 -0.84623027 148 127 116
-0.22258118 0.42370185 -0.84472668 146 132 116
-0.22263551 0.42188007 -0.84433401 157 131 115
-0.22276394 0.42089006 -0.84425223 164 130 116
-0.22587383 0.41933697 -0.84785771 201 125 121
-0.22542161 0.41986886 -0.84726757 202 124 121
-0.22570838 0.41794416 -0.84725815 178 129 118
-0.22598509 0.41703704 -0.84747666 170 131 117
-0.22519916 0.41741219 -0.84625399 160 128 118
-0.22473855 0.41846135 -0.84578049 169 126 120
-0.22518726 0.41836783 -0.84651393 177 127 119
-0.22501004 0.41890362 -0.84637052 182 127 119
-0.22451159 0.41675821 -0.84493113 137 126 120
-0.2235883 0.41912943 -0.84464478 167 128 118
-0.22378686 0.41917181 -0.84486932 171 127 118
-0.2243644 0.41855177 -0.84527665 169 125 120
-0.22510268 0.41367391 -0.84436888 128 131 118
-0.22521634 0.41554534 -0.84561342 135 129 118
-0.22541392 0.41582033 -0.84610057 139 130 117
-0.22559975 0.41505373 -0.84599161 142 131 118
-0.22530265 0.41349187 -0.84462386 132 132 118
-0.22540058 0.41516164 -0.84571362 137 131 117
-0.22664894 0.41231355 -0.84696364 172 129 119
-0.22651467 0.41587764 -0.84803218 163 133 116
-0.22669262 0.41241002 -0.84710258 173 130 118
-0.22623418 0.41459462 -0.846883 155 133 117
-0.22661583 0.41249242 -0.84695596 170 130 118
-0.2264632 0.41476241 -0.84748048 163 132 117
-0.22854066 0.40885249 -0.84768695 166 125 122
-0.2275075 0.40838745 -0.84560156 153 131 118
-0.22839528 0.40901944 -0.84750998 165 126 121
-0.22776581 0.40980127 -0.84709734 166 129 119
-0.22723366 0.40978092 -0.84625286 164 130 118
-0.22794671 0.40952206 -0.84714764 164 128 119
-0.22763859 0.4102692 -0.84728652 171 128 119
-0.22604372 0.41162419 -0.84511775 148 132 118
-0.22587679 0.41130784 -0.84449494 140 133 118
-0.22654255 0.40952751 -0.84472245 149 133 116
-0.226422 0.41012734 -0.84488702 150 133 117
-0.22643924 0.40937868 -0.84437186 144 134 116
-0.22658309 0.4092347 -0.84459949 148 134 116
-0.22855523 0.40809441 -0.84743446 163 125 122
-0.2284451 0.40757826 -0.84778112 157 128 120
-0.22680987 0.40572014 -0.84792107 159 136 115
-0.22673778 0.40648264 -0.84675127 158 135 115
-0.22722454 0.40713361 -0.8466028 158 132 117
-0.22794549 0.40808693 -0.84639901 159 127 121
-0.22732951 0.40786448 -0.84568805 154 132 118
-0.22622448 0.40611029 -0.84643841 155 139 113
-0.22687304 0.40692884 -0.84631342 156 134 116
-0.22589533 0.40479088 -0.84666073 157 142 111
-0.22625664 0.40520942 -0.8450374 151 142 109
-0.22636355 0.40454793 -0.84418613 150 144 107
-0.22612724 0.40597126 -0.84604937 153 139 112
-0.22624016 0.40628868 -0.84563017 151 139 112
-0.22612336 0.4042275 -0.84500974 153 144 108
-0.22607893 0.40423498 -0.84526253 154 144 108
-0.2256642 0.40334955 -0.8461042 165 138 112
-0.22576207 0.40366429 -0.84565461 161 140 111
-0.22613774 0.40299731 -0.84569603 163 138 113
-0.22648534 0.40199953 -0.846093 167 133 117
-0.2265678 0.40310621 -0.84492123 157 139 111
-0.2259758 0.40368 -0.84530574 159 141 110
-0.227106 0.40047291 -0.84490705 162 130 117
-0.22705385 0.40081576 -0.84524804 164 130 118
-0.22681743 0.40147308 -0.84593987 167 131 118
-0.22675447 0.40111494 -0.84561652 166 131 118
-0.22567359 0.40068054 -0.84550506 166 131 116
-0.22777964 0.39996529 -0.84462154 159 130 117
-0.22829823 0.39986598 -0.84447211 158 130 117
-0.2069802 0.39462557 -0.81504869 101 145 107
-0.2079809 0.39404178 -0.81567305 109 146 106
-0.20714618 0.39481682 -0.81523162 106 143 109
-0.20757821 0.39465904 -0.81552708 111 143 108
-0.20790416 0.39474702 -0.81580698 117 142 110
-0.20588578 0.39499605 -0.81430155 98 140 110
-0.2067634 0.39313754 -0.81449205 102 142 107
-0.20878501 0.39270598 -0.81593716 106 151 102
-0.2078454 0.39292201 -0.81526953 104 147 105
-0.20803714 0.39280209 -0.81538588 105 149 103
-0.20940046 0.39242151 -0.81649297 109 152 102
-0.20822933 0.39130419 -0.8152566 117 141 109
-0.20851251 0.42539212 -0.83167541 154 131 115
-0.20817612 0.42553544 -0.83149201 153 132 115
-0.20774078 0.42555374 -0.83117318 153 132 115
-0.21013053 0.42232776 -0.83180314 177 129 117
-0.21052755 0.42172354 -0.83195418 177 129 117
-0.21087764 0.42166007 -0.83227527 169 131 116
-0.20976283 0.4208827 -0.83086383 171 132 115
-0.20951045 0.4207626 -0.83056682 168 134 114
-0.21116292 0.42030576 -0.83201617 173 132 116
-0.20930313 0.42201141 -0.83085996 175 131 115
-0.20943514 0.42038476 -0.83034182 166 135 113
-0.20889995 0.42309061 -0.83091003 178 129 117
-0.21116535 0.41963637 -0.83172101 165 133 115
-0.2123183 0.41865069 -0.83238083 152 133 116
-0.21483864 0.41391963 -0.83235902 123 141 110
-0.21527764 0.41235954 -0.83194113 120 143 108
-0.21465528 0.41343325 -0.83191258 113 142 110
-0.21702573 0.40968475 -0.83224672 149 134 113
-0.21592662 0.40858683 -0.83053678 133 130 118
-0.21608926 0.40834048 -0.83055204 135 130 118
-0.21517318 0.40861228 -0.82975858 121 132 117
-0.21538809 0.40904373 -0.83025891 126 131 117
-0.21479018 0.41166458 -0.83112329 116 140 111
-0.21534662 0.41136232 -0.83148879 122 140 111
-0.21599875 0.41016588 -0.83148021 133 135 113
-0.21512215 0.41151094 -0.83135521 120 140 111
-0.21650875 0.40889287 -0.83129835 141 131 117
-0.21630156 0.41052571 -0.83195424 135 138 111
-0.21779352 0.4069342 -0.83164513 152 129 117
-0.21948716 0.40465602 -0.83233285 163 131 116
-0.21811086 0.40703097 -0.83198917 151 131 116
-0.21902005 0.40510425 -0.83204675 161 131 116
-0.21713692 0.40591142 -0.83030516 156 135 113
-0.21743129 0.40524971 -0.83027291 158 137 112
-0.21891066 0.40468541 -0.83168077 162 133 115
-0.21736383 0.40558243 -0.83038324 157 136 113
-0.21870351 0.40433186 -0.83123767 163 135 113
-0.21714942 0.4071992 -0.83105201 150 131 116
-0.21669377 0.40467608 -0.82908106 160 140 109
-0.2150767 0.40733394 -0.82888973 123 134 115
-0.21559066 0.40796801 -0.82980186 128 131 117
-0.21500021 0.40807688 -0.82924283 117 133 116
-0.21561186 0.4062278 -0.82880813 139 136 113
-0.21567574 0.40793476 -0.82987213 130 131 117
-0.21789534 0.40252802 -0.82950407 160 140 109
-0.21840274 0.40046191 -0.829207 165 135 113
-0.21780038 0.40200555 -0.82917047 163 138 110
-0.21816945 0.40113834 -0.82922649 164 137 112
-0.21796447 0.40199116 -0.82935423 162 139 110
-0.21950614 0.40042344 -0.83046758 157 139 110
-0.21849141 0.40095714 -0.82952154 162 137 111
-0.21986808 0.40374923 -0.83233815 163 134 114
-0.21726328 0.40386376 -0.82934457 159 142 108
-0.21799605 0.40344474 -0.83001685 159 141 109
-0.22049092 0.40089551 -0.83181274 150 142 108
-0.21753584 0.40358377 -0.82954013 158 142 108
-0.21879798 0.40291008 -0.83071917 157 140 109
-0.2179586 0.40407774 -0.8302511 161 139 111
-0.22010642 0.40307823 -0.83233905 159 135 113
-0.21660537 0.40384144 -0.82858801 164 140 109
-0.22147791 0.3984513 -0.8321321 164 138 111
-0.2209487 0.39950711 -0.83182251 158 141 109
-0.22064964 0.3993535 -0.83136177 163 139 111
-0.21990289 0.39743236 -0.82980692 170 133 117
-0.21945107 0.39991373 -0.83022076 158 138 111
-0.2186238 0.39934528 -0.82906163 164 134 115
-0.2201966 0.40006855 -0.83113855 152 141 109
-0.2190402 0.39993778 -0.8297537 160 137 112
-0.21954712 0.39977866 -0.830284 157 138 111
-0.21945108 0.39905158 -0.82991505 157 136 113
-0.21177535 0.40535 -0.82448041 127 141 113
-0.21046273 0.40536612 -0.82320255 123 141 112
-0.21029113 0.40516692 -0.82293439 122 142 112
-0.20919243 0.40490961 -0.82173342 116 143 111
-0.20906259 0.40432808 -0.82131231 117 144 110
-0.20955178 0.40582353 -0.82254666 114 140 112
-0.2103654 0.40657619 -0.82372081 116 138 113
-0.20783924 0.4055596 -0.82091385 109 141 112
-0.21431279 0.4004328 -0.82458127 170 138 114
-0.21380343 0.40115416 -0.82445401 166 139 113
-0.20905492 0.4032619 -0.82084668 110 143 110
-0.20997339 0.40330407 -0.82172644 132 142 111
-0.21103628 0.40170464 -0.8220132 144 141 111
-0.21045791 0.40163779 -0.82140464 131 142 111
-0.21216747 0.40104094 -0.82281989 164 141 111
-0.21192038 0.40078831 -0.82245165 157 141 111
-0.21242893 0.40135953 -0.82322305 164 141 111
-0.21194477 0.4021427 -0.82311225 154 142 111
-0.20978631 0.4041993 -0.82195675 123 144 110
-0.21040986 0.40395382 -0.82245123 130 143 111
-0.21260007 0.40097404 -0.82321215 168 140 111
-0.21112396 0.40426424 -0.82329011 132 143 111
-0.2117119 0.40388572 -0.82368857 139 143 111
-0.21254891 0.40355131 -0.82435119 148 142 112
-0.21414098 0.39984852 -0.82421643 175 137 114
-0.21468548 0.39856729 -0.82429445 183 134 116
-0.21475333 0.39922944 -0.8245818 178 135 115
-0.21309188 0.39935428 -0.82301497 174 137 114
-0.21332541 0.39925864 -0.82321626 176 137 114
-0.21205708 0.39932641 -0.82196599 155 139 113
-0.21106793 0.39973864 -0.82114691 135 139 112
-0.21121356 0.39992771 -0.8213684 138 140 112
-0.21165419 0.3997736 -0.82174516 147 140 112
-0.2119883 0.42813957 -0.83596545 171 128 118
-0.21337728 0.42547131 -0.8362841 184 129 119
-0.2113833 0.42398813 -0.83374953 155 133 115
-0.21101886 0.42417881 -0.83346725 153 132 115
-0.21237797 0.42582509 -0.83550495 165 131 117
-0.2114585 0.42636085 -0.83484447 151 133 116
-0.21269768 0.42509744 -0.83552212 166 132 118
-0.21192603 0.42536399 -0.83489597 153 133 116
-0.21220736 0.42723688 -0.83589751 172 128 118
-0.21285655 0.42546687 -0.83582371 173 130 118
-0.21390581 0.42364424 -0.83601898 177 132 119
-0.2143916 0.42208651 -0.83581567 160 132 117
-0.21481907 0.42041349 -0.83548647 159 131 116
-0.21351123 0.42155838 -0.83479071 165 132 116
-0.21296285 0.42036709 -0.83377671 172 130 116
-0.213687 0.4219377 -0.83511466 162 132 116
-0.21303259 0.42108399 -0.83415002 169 131 116
-0.21354331 0.42155209 -0.83481723 164 132 116
-0.21269624 0.42028934 -0.83349389 173 131 116
-0.2122844 0.42106986 -0.83344233 170 132 117
-0.21214961 0.42112228 -0.83333778 170 132 117
-0.21183395 0.42349675 -0.83399731 159 133 116
-0.21096566 0.42374972 -0.83321929 156 131 115
-0.21180744 0.4225693 -0.83358932 163 132 116
-0.21251123 0.42267296 -0.83434671 164 134 116
-0.21103346 0.42299601 -0.83297849 159 132 115
-0.21478149 0.41756147 -0.83436608 152 132 114
-0.2139041 0.4169184 -0.83308887 138 134 115
-0.21447805 0.4169772 -0.83374035 142 134 114
-0.21394628 0.41794148 -0.83365476 153 132 115
-0.21485354 0.41736078 -0.834342 149 133 114
-0.2143653 0.41811684 -0.83419776 158 132 115
-0.21605772 0.41902715 -0.83610106 152 132 115
-0.21513389 0.41778034 -0.83484155 156 132 114
-0.21563342 0.41815856 -0.83542317 153 132 114
-0.2132757 0.41978431 -0.83382297 171 131 116
-0.21411619 0.41923392 -0.83440322 165 131 115
-0.21584594 0.41881165 -0.83583599 153 132 115
-0.21216512 0.41966939 -0.83271605 170 131 117
-0.21824197 0.41409448 -0.83629274 162 131 117
-0.21683788 0.41508779 -0.83525771 141 135 111
-0.21725571 0.41263539 -0.83428657 145 138 111
-0.21685687 0.41490522 -0.83517116 141 136 111
-0.21709871 0.41414183 -0.8350001 145 135 112
-0.21794707 0.4136945 -0.83572996 160 131 116
-0.21703157 0.41464952 -0.83522391 144 135 112
-0.21672463 0.41380411 -0.83436018 137 138 110
-0.21640165 0.41412359 -0.83417451 135 139 109
-0.21601236 0.41438404 -0.83391082 132 139 110
-0.21643046 0.41574994 -0.83520257 138 135 111
-0.21603046 0.41273254 -0.83291596 129 143 108
-0.21556635 0.41374603 -0.83303589 128 141 110
-0.22078244 0.4085601 -0.83529425 121 148 108
-0.21768405 0.40921879 -0.83263624 143 136 112
-0.21734068 0.41021216 -0.83287072 141 138 111
-0.21784562 0.41004655 -0.83325797 135 140 110
-0.21856306 0.40849346 -0.83305764 135 138 112
-0.21821307 0.40960911 -0.8333568 133 141 109
-0.21852913 0.40832722 -0.83293223 137 137 112
-0.22011186 0.40854588 -0.83454102 115 148 107
-0.2190174 0.41111812 -0.83525074 152 136 114
-0.21888672 0.41158238 -0.83546799 163 133 116
-0.21791206 0.41202477 -0.83467638 155 136 113
-0.21942522 0.40997499 -0.83481699 130 144 109
-0.21780895 0.41178986 -0.83436775 147 138 112
-0.21917126 0.41045901 -0.83490515 138 141 111
-0.22051197 0.40972143 -0.83585131 148 140 113
-0.21933822 0.41193554 -0.83627886 180 128 120
-0.21625219 0.41197842 -0.83272219 131 144 107
-0.22156115 0.40748301 -0.83579111 124 147 108
-0.2221754 0.40678805 -0.83632416 135 145 109
-0.2216166 0.40674624 -0.83545399 124 149 106
-0.2221722 0.40500659 -0.83547848 149 144 109
-0.22076438 0.40438443 -0.83361757 179 128 118
-0.22156331 0.40670308 -0.83537215 126 149 107
-0.22141103 0.40609041 -0.83497703 139 144 109
-0.22117095 0.40568188 -0.83455217 150 139 112
-0.22048137 0.40508199 -0.8335439 163 133 116
-0.21983567 0.40449712 -0.83260781 163 133 115
-0.21920159 0.40797687 -0.83340263 131 140 110
-0.2198614 0.40738866 -0.83378536 129 143 109
-0.21968772 0.40543365 -0.83283585 154 135 114
-0.21911877 0.40781775 -0.83326089 134 139 111
-0.21851289 0.40815708 -0.83282864 139 137 112
-0.22094791 0.40134102 -0.83263087 153 140 110
-0.22145477 0.40151736 -0.83326423 155 137 112
-0.22245251 0.40042248 -0.83394068 144 139 111
-0.22211039 0.40144801 -0.83396161 154 135 113
-0.22115541 0.4019562 -0.83310425 159 137 112
-0.22237064 0.40165079 -0.83432806 155 133 115
-0.22202364 0.40273735 -0.83436733 166 129 118
-0.22192872 0.40192124 -0.83394504 159 133 114
-0.22156757 0.40098265 -0.8331809 150 139 110
-0.22330257 0.4023385 -0.83566368 153 134 115
-0.22400138 0.4012683 -0.8359971 147 131 116
-0.22260955 0.40360761 -0.83542621 158 138 112
-0.22363833 0.40276963 -0.83624834 147 140 111
-0.22186375 0.40369633 -0.83459735 168 132 116
-0.22058646 0.40260142 -0.83270699 161 136 112
-0.2205919 0.40293539 -0.83284634 165 133 114
-0.22475077 0.39852139 -0.83614022 140 138 110
-0.22458975 0.40030167 -0.83626586 142 130 118
-0.22428377 0.39948717 -0.83568853 146 132 115
-0.22440174 0.39835978 -0.83557683 142 137 110
-0.22304162 0.39769638 -0.8336966 167 132 115
-0.22361568 0.39755693 -0.83439291 156 136 112
-0.22287923 0.40005022 -0.83428717 146 136 113
-0.22290283 0.40012118 -0.8343367 145 136 112
-0.22171703 0.40017623 -0.83304483 146 142 109
-0.22290224 0.39873731 -0.83387816 159 133 114
-0.22290154 0.39806998 -0.83365667 165 133 115
-0.22228038 0.39793107 -0.83292443 166 135 113
-0.22509614 0.3959378 -0.83608216 146 143 104
-0.2251303 0.39467314 -0.83560693 159 135 111
-0.22732314 0.4206785 -0.85051513 204 123 122
-0.22762211 0.42031348 -0.85090226 204 122 123
-0.22815405 0.42086071 -0.8518942 201 122 123
-0.22738375 0.42074722 -0.85062981 203 124 122
-0.22803748 0.42104217 -0.85175318 200 123 122
-0.2270204 0.42199841 -0.85036397 199 128 119
-0.22760268 0.42029467 -0.85086632 204 122 123
-0.22591089 0.42270517 -0.84904987 175 127 118
-0.22609556 0.42146328 -0.84886181 194 126 120
-0.22613934 0.42298275 -0.8494646 175 128 117
-0.22666116 0.42334297 -0.8503142 179 130 117
-0.22598599 0.42190978 -0.8488698 186 126 119
-0.22573008 0.42262685 -0.84877211 173 126 118
-0.22700453 0.42335796 -0.8507939 184 131 117
-0.22804315 0.41691655 -0.85086578 170 123 120
-0.22808956 0.41709495 -0.85097909 172 123 121
-0.22723655 0.41754097 -0.8496058 179 127 120
-0.22717424 0.41732073 -0.84945631 176 128 119
-0.22637428 0.41696388 -0.8480798 174 131 117
-0.22664456 0.41863084 -0.84891999 193 126 120
-0.22622541 0.41921073 -0.84838909 201 125 121
-0.22750486 0.41828012 -0.85021448 187 125 121
-0.22806485 0.41941184 -0.85138881 199 121 124
-0.22703913 0.41909075 -0.84966511 197 123 122
-0.22831722 0.41498536 -0.85169888 155 127 117
-0.22658299 0.41571572 -0.8483777 161 134 115
-0.22805522 0.41527224 -0.85117459 158 126 118
-0.22754133 0.41478983 -0.85059106 158 132 116
-0.22728294 0.41497442 -0.85003436 158 133 115
-0.22731556 0.41439342 -0.85044837 157 135 114
-0.22705656 0.41306356 -0.84921396 171 134 115
-0.22714132 0.41273463 -0.8497386 168 136 114
-0.22692738 0.41382372 -0.84916997 166 135 115
-0.22710675 0.4125897 -0.84870994 179 131 117
-0.2270246 0.41291255 -0.84821337 182 130 118
-0.22851782 0.40911281 -0.84842259 163 126 121
-0.22675693 0.41182664 -0.84901911 175 131 117
-0.22742063 0.41078666 -0.84865874 174 128 119
-0.22692132 0.40977293 -0.84988451 151 132 117
-0.22811319 0.40935248 -0.84889656 165 127 120
-0.22683524 0.40923405 -0.85034424 142 133 117
-0.22760567 0.40967911 -0.84921652 161 129 119
-0.22656886 0.40860847 -0.85004091 126 137 114
-0.22743095 0.4087193 -0.84993088 144 132 118
-0.22834434 0.40934908 -0.84850866 165 126 120
-0.22858228 0.40772966 -0.84823668 156 128 120
-0.2257705 0.40510944 -0.84858161 164 137 115
-0.2272194 0.40674627 -0.84890783 160 132 118
-0.22802909 0.40714222 -0.84834713 155 130 119
-0.22527151 0.40489715 -0.8489055 167 137 115
-0.22527935 0.40558299 -0.84919155 154 139 113
-0.22083253 0.40631086 -0.85125929 160 139 109
-0.22103591 0.40535083 -0.8504076 172 138 111
-0.22141482 0.40518376 -0.8500002 170 138 111
-0.22241066 0.40484777 -0.84952807 171 139 111
-0.22207768 0.40502593 -0.84964538 169 139 110
-0.22410062 0.40446091 -0.8490935 169 139 113
-0.22270682 0.40542355 -0.84965223 158 141 111
-0.2160193 0.4049654 -0.82850295 154 139 110
-0.21492931 0.40655664 -0.82831526 127 137 113
-0.21521862 0.40626958 -0.82843238 133 138 112
-0.21540773 0.40493211 -0.82790011 150 140 110
-0.21421407 0.40534931 -0.8269645 137 140 112
-0.2148044 0.40582499 -0.82781953 134 139 112
-0.21511658 0.40490153 -0.82759583 148 140 111
-0.21538346 0.40528631 -0.82807994 145 139 111
-0.21464483 0.40624428 -0.82790363 128 139 113
-0.21383795 0.40549621 -0.82667851 132 140 112
-0.21425621 0.40636861 -0.82759237 124 138 113
-0.2117383 0.40608546 -0.82485098 114 140 114
-0.21159306 0.40598139 -0.82463503 115 140 114
-0.21238753 0.40553528 -0.82523626 124 141 113
-0.21687938 0.4009198 -0.82769853 162 136 113
-0.21725592 0.40056324 -0.82795829 165 135 114
-0.21297398 0.40385604 -0.82493794 144 143 111
-0.21449055 0.40235615 -0.82582241 152 140 113
-0.21374992 0.40227821 -0.82493615 156 141 112
-0.21540153 0.40112478 -0.82619029 159 138 113
-0.21632768 0.40077621 -0.82705587 159 137 113
-0.21453598 0.40227351 -0.82582921 152 140 113
-0.21492107 0.40201965 -0.82612985 153 139 112
-0.2150306 0.40237507 -0.82641441 152 139 112
-0.21636204 0.40285239 -0.82791173 161 139 111
-0.21634993 0.40224281 -0.82766229 161 138 112
-0.21637051 0.40152928 -0.8274045 160 138 112
-0.2163135 0.40255094 -0.82774651 161 138 112
-0.21560504 0.40422153 -0.82769966 159 141 110
-0.21343246 0.40424266 -0.82556814 144 143 111
-0.2165177 0.4034794 -0.82832187 164 139 110
-0.21753788 0.3995699 -0.82791764 163 134 115
-0.21707796 0.40003961 -0.82757109 161 135 114
-0.21882254 0.39662543 -0.82834476 159 130 120
-0.2176744 0.39725843 -0.82734615 157 132 118
-0.21717189 0.39864653 -0.8272438 158 134 116
-0.21732041 0.3988803 -0.82746804 159 134 116
-0.21666244 0.39778498 -0.82638675 161 132 117
-0.21560831 0.39950758 -0.82566422 172 135 115
-0.21488976 0.39975205 -0.82494587 174 136 115
-0.21643321 0.39964437 -0.82666022 168 135 115
-0.21608062 0.40038401 -0.82656193 163 137 114
-0.21897234 0.39480484 -0.82782006 165 136 115
-0.2185147 0.39495835 -0.82740432 163 136 115
-0.21821244 0.3937982 -0.82681757 165 135 115
-0.21693271 0.39419967 -0.82578081 159 131 118
-0.21799023 0.39291263 -0.82641035 167 133 116
-0.2179089 0.39356792 -0.82649428 165 134 116
-0.21692172 0.39483926 -0.82592314 157 131 118
-0.21747254 0.39401838 -0.82621533 162 132 117
-0.21662416 0.43177354 -0.8412568 173 126 117
-0.21989574 0.42857268 -0.84342736 165 130 118
-0.21680276 0.43043315 -0.84110069 164 126 117
-0.2175778 0.42847666 -0.84129274 151 128 115
-0.21831116 0.42970666 -0.84228194 166 128 117
-0.21785517 0.42852405 -0.84155732 154 128 115
-0.21751313 0.430132 -0.84166771 165 127 117
-0.22033691 0.42781129 -0.84362739 161 132 117
-0.21692757 0.42777434 -0.84051728 141 128 113
-0.2188517 0.42951524 -0.84272337 167 129 118
-0.21654773 0.43058848 -0.84088504 164 127 116
-0.21627738 0.42957938 -0.84034866 153 128 115
-0.22074215 0.4276897 -0.8439616 162 132 118
-0.22141832 0.424586 -0.84366477 150 134 116
-0.22098219 0.42415386 -0.84307641 149 134 116
-0.22168766 0.42389867 -0.84372133 147 134 116
-0.21792224 0.42461783 -0.84024853 156 128 115
-0.21833359 0.42593125 -0.84118372 146 130 114
-0.21832348 0.42519203 -0.84087533 150 129 115
-0.21872996 0.42415661 -0.84086031 155 130 116
-0.21921435 0.42454135 -0.84149593 150 131 115
-0.21727674 0.4267213 -0.84045488 145 128 114
-0.21925537 0.42698267 -0.84238201 152 131 116
-0.2204621 0.42464426 -0.84272736 150 134 115
-0.21872945 0.42604068 -0.84160078 145 131 114
-0.21883677 0.42604333 -0.84169924 146 131 114
-0.21770181 0.42752892 -0.84114486 145 128 114
-0.21971478 0.42584363 -0.84243345 150 132 115
-0.22067158 0.4246237 -0.84291124 151 134 116
-0.22150458 0.42361382 -0.84346765 149 134 116
-0.2211626 0.42313376 -0.84302038 153 133 116
-0.22093573 0.42353514 -0.84286588 150 134 115
-0.22119814 0.42046523 -0.84222686 166 130 117
-0.22085941 0.42271525 -0.8425234 155 133 115
-0.22110263 0.42061549 -0.8421554 165 130 117
-0.2214009 0.42025307 -0.84241277 167 129 117
-0.22212146 0.42009798 -0.84326524 168 130 116
-0.22022651 0.4220823 -0.84159929 156 132 117
-0.22000025 0.42004961 -0.84069872 165 128 119
-0.22040644 0.42045972 -0.84127808 165 129 118
-0.21928039 0.42283285 -0.84092385 158 130 117
-0.21861061 0.42358443 -0.84052378 158 129 117
-0.21955428 0.42249864 -0.84107798 158 130 117
-0.21958189 0.42115995 -0.84063506 161 129 118
-0.22009943 0.42331293 -0.84190458 153 132 116
-0.22129324 0.41714934 -0.84106135 173 132 115
-0.2214361 0.4179405 -0.84155709 173 131 116
-0.22266576 0.41984215 -0.8438583 170 130 116
-0.22096986 0.41982606 -0.84172863 169 128 118
-0.22171871 0.41775048 -0.84183484 173 132 115
-0.22323392 0.41641012 -0.84322125 143 128 118
-0.2240068 0.41621438 -0.84412158 129 127 119
-0.22205402 0.41813806 -0.84241039 172 131 116
-0.22284307 0.41915339 -0.84380889 165 130 116
-0.22275755 0.41917774 -0.8437103 167 130 116
-0.22187336 0.41764718 -0.84198827 171 131 115
-0.22265308 0.41630569 -0.84244537 152 130 117
-0.21992138 0.41979241 -0.84051663 166 127 118
-0.22048582 0.41928005 -0.84092504 170 129 117
-0.22476001 0.41365096 -0.8435297 124 130 119
-0.22526248 0.41257203 -0.84397262 130 132 118
-0.22434361 0.41405419 -0.84311926 128 129 120
-0.22440958 0.41250619 -0.84212065 132 132 119
-0.22416568 0.4157429 -0.84405762 126 127 120
-0.22404878 0.415198 -0.84353417 130 127 119
-0.22123519 0.41573653 -0.84034508 173 133 115
-0.22248024 0.41362223 -0.84046191 161 131 117
-0.22235397 0.41585496 -0.84184176 155 130 117
-0.22293374 0.41359684 -0.84101802 155 130 118
-0.22272623 0.41518614 -0.84185141 152 130 117
-0.22141781 0.41556334 -0.84045666 170 132 115
-0.2229909 0.41292232 -0.84062523 156 131 118
-0.22278965 0.41438803 -0.84138131 154 130 118
-0.22500403 0.4119359 -0.8429426 132 133 118
-0.22522174 0.41122854 -0.84308863 135 133 118
-0.22521855 0.4118377 -0.84340173 133 133 118
-0.22655162 0.40833837 -0.84390885 144 135 115
-0.22508116 0.40838805 -0.84109956 144 133 116
-0.22600129 0.40877071 -0.84311235 142 135 116
-0.2252389 0.41089445 -0.84294838 136 133 117
-0.22643657 0.40832204 -0.84367663 144 135 115
-0.22519264 0.41063643 -0.84270006 137 133 118
-0.22423822 0.41124615 -0.84117138 141 133 118
-0.22450396 0.41148263 -0.84162956 135 133 118
-0.22424808 0.41005155 -0.8405509 145 133 118
-0.22608232 0.40571558 -0.84240431 138 146 106
-0.22604485 0.40525547 -0.84242886 139 147 105
-0.22633511 0.40542927 -0.84361959 145 144 108
-0.22574051 0.4045096 -0.84140998 135 152 102
-0.22621846 0.40485066 -0.84334821 145 146 106
-0.22575541 0.40537202 -0.84122676 133 150 104
-0.22608635 0.40775648 -0.84275949 143 137 114
-0.22520965 0.40772623 -0.8410551 142 136 114
-0.22518706 0.40584219 -0.84030533 135 147 106
-0.22636762 0.40780765 -0.84332192 143 137 114
-0.22541605 0.40538645 -0.84057677 133 150 104
-0.22672208 0.4004108 -0.84063035 147 132 115
-0.22816852 0.40113452 -0.84404194 157 132 117
-0.22768255 0.40066642 -0.84265321 153 131 116
-0.22816098 0.40076235 -0.84362704 156 131 118
-0.22674933 0.40212455 -0.84252733 149 137 112
-0.22670354 0.40231615 -0.84265059 149 138 111
-0.22643481 0.40279996 -0.84268326 148 140 109
-0.22604932 0.40390038 -0.84236819 142 148 105
-0.22642805 0.40222725 -0.84202969 147 138 111
-0.22566654 0.40385514 -0.84065098 133 152 102
-0.22591181 0.40423283 -0.84216493 139 150 103
-0.22621186 0.40249303 -0.84140533 142 142 108
-0.22607826 0.40274152 -0.84111953 141 144 107
-0.22848095 0.40016758 -0.84378093 162 128 119
-0.22689717 0.39940575 -0.84061968 158 131 116
-0.22677638 0.39949867 -0.84042877 156 131 115
-0.2267796 0.39958188 -0.84046066 156 131 115
-0.22808556 0.39935192 -0.84276807 168 129 119
-0.22831759 0.42401952 -0.85275602 184 132 117
-0.22804211 0.42363486 -0.85233343 189 132 117
-0.22886012 0.41985524 -0.8535279 202 120 124
-0.22882676 0.41714406 -0.85286325 169 121 121
-0.22850972 0.41986385 -0.85230148 204 119 125
0 0 0 1 0 0 0 1 0 0 0 1 0 0 0 0 0 698 1 0 0
