ply
format ascii 1.0
comment PCL generated
element vertex 664
property float x
property float y
property float z
property uchar red
property uchar green
property uchar blue
element camera 1
property float view_px
property float view_py
property float view_pz
property float x_axisx
property float x_axisy
property float x_axisz
property float y_axisx
property float y_axisy
property float y_axisz
property float z_axisx
property float z_axisy
property float z_axisz
property float focal
property float scalex
property float scaley
property float centerx
property float centery
property int viewportx
property int viewporty
property float k1
property float k2
end_header
0.23889452 -0.40037206 -0.80847269 24 139 117
0.23832308 -0.39882088 -0.80884051 27 137 117
0.24014279 -0.39992183 -0.8088904 28 140 117
0.23831798 -0.40325049 -0.80756259 16 138 121
0.2382825 -0.40254059 -0.8077141 17 137 120
0.23823348 -0.40319213 -0.80755109 16 138 121
0.23876978 -0.40225413 -0.8079229 18 139 119
0.23882373 -0.40288842 -0.80779409 17 137 120
0.23833647 -0.4006564 -0.80825967 23 138 118
0.23915073 -0.40077513 -0.80841517 23 139 118
0.23851667 -0.4006646 -0.8082993 23 138 118
0.24078229 -0.40122378 -0.80878848 27 138 118
0.24038839 -0.40390188 -0.80803168 19 139 120
0.24129626 -0.40419009 -0.80826652 24 139 120
0.24045578 -0.40373188 -0.80809385 19 139 119
0.24231444 -0.40324613 -0.80882591 30 138 119
0.23788668 -0.40473846 -0.80704862 15 136 121
0.23796296 -0.40469158 -0.80708683 15 136 121
0.23792185 -0.40512466 -0.80692929 15 136 121
0.23820998 -0.40491715 -0.80708373 15 136 121
0.24405099 -0.40656289 -0.80874753 30 138 118
0.24105744 -0.40439877 -0.80814362 21 138 120
0.24348684 -0.40630642 -0.80860621 29 139 119
0.24117118 -0.40456253 -0.80815172 21 138 120
0.24364978 -0.4051564 -0.808869 33 138 119
0.24137931 -0.40503898 -0.80813462 21 140 119
0.2421705 -0.4063848 -0.80814648 21 140 118
0.24240535 -0.40705875 -0.80808097 23 138 118
0.242302 -0.4070628 -0.80804068 21 138 118
0.24101974 -0.40590575 -0.80781758 18 139 118
0.24522743 -0.40818688 -0.80893695 54 131 120
0.24338157 -0.4117769 -0.80718571 18 141 118
0.24287352 -0.41161069 -0.80703795 18 137 118
0.24401453 -0.40883937 -0.80825287 26 140 117
0.24398486 -0.4106884 -0.80772227 20 141 117
0.2420955 -0.40894452 -0.80749035 19 137 116
0.24291486 -0.40832204 -0.80797851 23 138 116
0.246089 -0.41178787 -0.80839038 36 140 117
0.24476317 -0.41079938 -0.80802298 33 138 118
0.24553238 -0.41143662 -0.80821931 34 140 117
0.24453467 -0.41150448 -0.80772883 26 140 118
0.24519306 -0.40895778 -0.80871207 50 133 120
0.2449583 -0.4085623 -0.80872065 47 133 119
0.2441963 -0.41175815 -0.80750465 20 141 118
0.24546054 -0.41234306 -0.80796427 27 142 117
0.24778853 -0.41503736 -0.8085627 34 136 117
0.24782725 -0.41493973 -0.80859929 35 136 117
0.24754299 -0.4154287 -0.80837321 31 135 118
0.24661228 -0.4122363 -0.80852973 36 142 116
0.2457332 -0.41454858 -0.80764121 23 136 118
0.24525179 -0.41520378 -0.80723768 19 137 119
0.24447654 -0.41341498 -0.80725241 18 141 118
0.24847123 -0.41513568 -0.80889904 36 135 117
0.24584576 -0.41825223 -0.80686158 18 134 119
0.24679427 -0.41652757 -0.80773664 26 134 119
0.24694127 -0.41629702 -0.80786437 27 134 119
0.24587296 -0.41655692 -0.8072508 20 135 119
0.2482738 -0.41769999 -0.80833232 21 133 119
0.25085896 -0.42294145 -0.80880994 26 133 117
0.25093874 -0.42313221 -0.80882108 27 133 117
0.25065088 -0.42175829 -0.80892664 20 133 117
0.25005192 -0.42350259 -0.80816698 24 133 118
0.25027561 -0.42564079 -0.80776525 29 132 116
0.25065833 -0.42586613 -0.80795419 32 132 116
0.2497662 -0.4243311 -0.80777979 24 133 118
0.25124487 -0.42494312 -0.80857784 33 132 115
0.24873893 -0.42692143 -0.80657053 19 135 113
0.24948007 -0.42665228 -0.80706352 26 133 115
0.24965917 -0.42568693 -0.8073675 26 133 117
0.25014439 -0.42772394 -0.80723584 32 132 114
0.24875005 -0.42661935 -0.80663913 19 135 114
0.24763578 -0.42965251 -0.80526876 19 135 113
0.24862176 -0.42914814 -0.80599868 24 135 113
0.24930051 -0.42823431 -0.80662918 27 133 114
0.24947894 -0.4284547 -0.80668777 28 132 115
0.24976827 -0.43336287 -0.80570978 33 133 116
0.24904361 -0.43403727 -0.80513483 33 133 115
0.24876761 -0.43258926 -0.80525225 29 134 114
0.24862009 -0.43226194 -0.80522692 27 135 114
0.25151247 -0.43825775 -0.80589128 29 132 118
0.25190011 -0.43870157 -0.80605376 28 134 118
0.25077638 -0.43799475 -0.80547762 30 132 117
0.25249255 -0.43916756 -0.80637509 32 132 119
0.25119093 -0.4405303 -0.80528563 27 134 117
0.25146553 -0.43987373 -0.80557466 26 134 117
0.25225088 -0.44333062 -0.80550194 20 135 115
0.25359166 -0.44283041 -0.8064909 27 134 117
0.25400001 -0.443059 -0.80672413 26 136 117
0.25205603 -0.4399029 -0.80595452 26 133 119
0.25265646 -0.44005227 -0.80633712 30 133 118
0.25184572 -0.44432893 -0.805152 18 136 115
0.25214556 -0.44627604 -0.80520314 15 134 118
0.25349408 -0.44679254 -0.80610323 15 132 118
0.25310388 -0.44451866 -0.80600846 18 134 116
0.25201645 -0.44406924 -0.80528563 18 136 115
0.25352526 -0.44546831 -0.80622786 16 136 117
0.25273591 -0.44602972 -0.80563366 15 134 117
0.25296143 -0.44457912 -0.80590451 18 134 117
0.25370076 -0.44482201 -0.80639338 18 134 117
0.25446585 -0.44535643 -0.80687886 17 136 118
0.25518513 -0.44377446 -0.80744416 24 135 119
0.25486302 -0.44416699 -0.80720747 21 135 118
0.25459522 -0.44595721 -0.8069343 16 134 118
0.25358868 -0.44349974 -0.80638725 21 135 117
0.25739914 -0.44685805 -0.80888045 23 133 119
0.25670633 -0.44588763 -0.80842537 25 134 120
0.25704607 -0.44571602 -0.80868763 27 134 120
0.25589252 -0.44388676 -0.8079161 24 138 119
0.25587904 -0.44420096 -0.80788934 24 136 119
0.25604919 -0.44574422 -0.80793875 19 135 119
0.25557563 -0.44750026 -0.80749017 14 134 120
0.25217739 -0.44735128 -0.80514175 14 132 118
0.25314066 -0.44735861 -0.80581135 14 132 118
0.2536523 -0.44736814 -0.80616641 14 134 118
0.25431392 -0.44923529 -0.8064152 11 132 119
0.25528616 -0.44739026 -0.80730116 14 134 119
0.2541092 -0.44741073 -0.80647963 14 132 119
0.25336754 -0.45040292 -0.80554754 11 132 118
0.25490996 -0.45028973 -0.80670637 11 130 120
0.25282991 -0.4501662 -0.80518669 11 132 118
0.25307992 -0.45012656 -0.80537784 11 132 118
0.25453168 -0.45043901 -0.80640322 11 130 120
0.25695845 -0.45004091 -0.80823541 14 134 118
0.25754362 -0.4496983 -0.80872321 17 132 119
0.25644803 -0.45044991 -0.80779904 14 130 121
0.2569831 -0.45038366 -0.80822086 14 132 119
0.25643441 -0.44895074 -0.80794948 15 132 120
0.25598362 -0.44831237 -0.8076877 14 132 120
0.25588152 -0.45073655 -0.80733711 11 130 121
0.25574198 -0.45205763 -0.80704951 12 130 120
0.25395668 -0.45196438 -0.80574286 12 130 118
0.25582701 -0.45453641 -0.80673486 17 130 120
0.25515017 -0.45169887 -0.80666631 12 130 120
0.25376219 -0.45124006 -0.8057093 11 130 119
0.2551412 -0.45496976 -0.80612934 18 130 118
0.25346634 -0.45216557 -0.80534017 14 130 118
0.25377336 -0.45396659 -0.80523956 16 132 117
0.25424165 -0.45303544 -0.80578715 15 130 118
0.25828478 -0.45381239 -0.80881304 18 134 117
0.25811946 -0.45327178 -0.80875021 18 132 118
0.25736642 -0.45442018 -0.80798703 19 130 118
0.25734836 -0.45302701 -0.80815625 17 132 119
0.25863454 -0.45489693 -0.80895388 19 132 117
0.25679198 -0.45182747 -0.8078953 14 132 119
0.25769809 -0.45138156 -0.80866647 15 134 118
0.25673431 -0.4524698 -0.80775267 15 132 119
0.25673258 -0.45280716 -0.80769998 16 132 119
0.25483665 -0.45554844 -0.80582118 21 130 118
0.25767058 -0.45544684 -0.80811048 21 132 118
0.25900862 -0.46142179 -0.8085264 18 132 118
0.25815651 -0.46179542 -0.80774367 18 130 118
0.25691599 -0.4612934 -0.80674571 20 132 116
0.24375992 -0.43830815 -0.80083925 50 130 112
0.24312665 -0.43804139 -0.80051112 47 129 113
0.23940693 -0.44162619 -0.79745185 64 126 118
0.23983985 -0.44135913 -0.79775804 65 127 117
0.24362312 -0.44207337 -0.79992288 79 122 113
0.24383804 -0.44312355 -0.79986227 87 120 114
0.24331288 -0.44156379 -0.79981947 76 124 113
0.24266124 -0.44280678 -0.79916334 84 121 115
0.24219215 -0.44202548 -0.79900897 78 124 114
0.24404687 -0.44004115 -0.80058169 66 125 112
0.24292985 -0.44181967 -0.79952383 78 123 114
0.24111117 -0.44063252 -0.79867351 65 127 115
0.24167706 -0.44171029 -0.79874742 75 125 115
0.24112605 -0.44232023 -0.79827321 79 124 115
0.24330318 -0.44000039 -0.80012506 65 127 112
0.24529147 -0.44276288 -0.80091017 68 125 112
0.24454945 -0.44310793 -0.8003388 81 121 113
0.24471186 -0.440633 -0.80090684 65 126 111
0.24440548 -0.44048753 -0.80073047 68 125 112
0.24171387 -0.44682211 -0.79785228 59 131 111
0.24195121 -0.44695795 -0.79799247 58 130 111
0.24329494 -0.44667819 -0.79898947 54 130 110
0.24275887 -0.4471215 -0.79852736 53 132 110
0.24222773 -0.44545531 -0.79848081 65 127 112
0.24214317 -0.44574043 -0.79836404 64 128 112
0.24214956 -0.44451636 -0.79856741 75 124 114
0.24164186 -0.44338629 -0.79839724 86 122 115
0.2440432 -0.44505602 -0.79971367 71 124 112
0.24353133 -0.44516417 -0.79936844 70 125 112
0.24363777 -0.44543743 -0.79939902 67 125 111
0.24226221 -0.44460726 -0.79862738 74 124 113
0.24563904 -0.44441137 -0.80089766 57 129 110
0.24508013 -0.44564688 -0.80034268 53 130 110
0.24584322 -0.44484404 -0.80098647 54 129 111
0.24545005 -0.4452461 -0.80065626 53 130 110
0.24504589 -0.44364181 -0.80059272 71 125 112
0.24511103 -0.44409755 -0.80057389 65 126 111
0.24375091 -0.4482241 -0.79898512 45 135 107
0.24346617 -0.44858935 -0.79870522 45 135 107
0.24228327 -0.44800124 -0.79800433 51 134 109
0.24354264 -0.44928765 -0.79860562 42 137 106
0.24181606 -0.44784337 -0.79771119 54 133 110
0.2439899 -0.45038867 -0.79867786 35 141 104
0.24132039 -0.44784418 -0.79736817 56 133 110
0.24276792 -0.45042792 -0.79783821 44 137 105
0.24305449 -0.45028812 -0.79805642 42 138 105
0.24500459 -0.44985643 -0.79951459 33 139 106
0.24531996 -0.45051888 -0.79962546 27 140 105
0.24596398 -0.4490675 -0.80038857 30 136 109
0.24531116 -0.4509238 -0.79954135 27 141 106
0.24626221 -0.44953889 -0.8005231 27 138 108
0.24584882 -0.45048979 -0.80002958 25 140 106
0.24455583 -0.44975179 -0.79921734 35 139 105
0.24422172 -0.44752315 -0.79946977 45 133 107
0.24470145 -0.44817862 -0.79966563 40 134 108
0.24479319 -0.44949755 -0.79944122 35 138 106
0.24386415 -0.45206249 -0.79822129 42 139 104
0.24357791 -0.45184448 -0.79808056 43 137 104
0.24364069 -0.45258316 -0.79795176 50 136 104
0.24361628 -0.45435244 -0.79752523 65 131 105
0.24775638 -0.45213959 -0.80115253 16 139 109
0.24603114 -0.45302331 -0.79968446 28 140 105
0.24754456 -0.45279732 -0.80086797 19 139 108
0.24704218 -0.45288751 -0.80047226 23 139 107
0.2456944 -0.45120314 -0.79977673 24 142 106
0.24593405 -0.45270526 -0.79967177 27 140 105
0.24728703 -0.45159209 -0.80090302 17 137 109
0.24431026 -0.45375133 -0.79815018 54 134 104
0.24451551 -0.45484605 -0.79806024 61 131 104
0.24526823 -0.45277295 -0.79913771 33 141 103
0.24437423 -0.45427316 -0.79808038 58 133 104
0.24721773 -0.45473906 -0.80023235 30 138 106
0.2451328 -0.45314994 -0.79894292 38 139 104
0.244661 -0.45500636 -0.7981388 61 131 104
0.24808465 -0.45342016 -0.80115515 18 139 108
0.24614045 -0.45848432 -0.79872042 34 135 110
0.24461155 -0.45797199 -0.79757106 46 135 108
0.24582656 -0.45749462 -0.79864162 42 134 109
0.24543798 -0.45746043 -0.79833192 45 134 109
0.24497238 -0.4574413 -0.79795682 47 133 108
0.24446066 -0.45701203 -0.79761863 53 133 107
0.24673785 -0.45544973 -0.79971218 38 136 106
0.2451791 -0.45561633 -0.7984463 55 132 106
0.24593405 -0.45656675 -0.79889148 46 133 108
0.24627692 -0.45611778 -0.79923701 43 133 108
0.24720436 -0.45524836 -0.80011564 33 137 106
0.24767151 -0.45638704 -0.80030149 27 137 108
0.24695139 -0.45693478 -0.79964 34 135 109
0.24812475 -0.45536393 -0.80082273 24 138 107
0.24587126 -0.45966783 -0.7983346 30 136 111
0.25000218 -0.39637423 -0.81375432 47 128 113
0.25178418 -0.39578536 -0.81474936 46 127 113
0.25170961 -0.39592493 -0.8146804 47 128 113
0.25078616 -0.39744136 -0.81391585 61 127 113
0.25021118 -0.39837039 -0.81344634 72 126 112
0.25194392 -0.39955086 -0.81404328 88 124 112
0.25007918 -0.39671397 -0.81372279 52 128 113
0.25003529 -0.39730912 -0.81357926 59 127 113
0.25058439 -0.39994293 -0.81332797 83 126 113
0.24992822 -0.40018687 -0.81298238 79 127 113
0.24987763 -0.39997107 -0.81299829 78 127 113
0.25576377 -0.39849031 -0.81623524 59 129 108
0.25267801 -0.39988568 -0.81435758 89 125 112
0.25391084 -0.39899418 -0.81518561 73 128 110
0.25389203 -0.3984957 -0.81529242 68 129 111
0.25481671 -0.39958158 -0.81550437 76 127 109
0.25338396 -0.39787236 -0.81515211 62 128 111
0.25235441 -0.3983115 -0.81451547 71 126 112
0.25354248 -0.39669991 -0.81547719 47 129 112
0.25349021 -0.39852366 -0.81507462 70 128 111
0.25336617 -0.39826688 -0.81506157 66 128 111
0.25417972 -0.39787224 -0.81557447 58 130 110
0.25691012 -0.4001272 -0.81654608 71 128 108
0.25156498 -0.40213236 -0.81325656 119 123 113
0.25187951 -0.40133563 -0.81360245 111 123 113
0.25082967 -0.40134701 -0.8131175 102 125 113
0.25401458 -0.40274209 -0.8143518 100 127 108
0.25417599 -0.40349969 -0.81424409 109 126 109
0.25404149 -0.40270913 -0.81437415 100 127 109
0.25483251 -0.40371633 -0.81453043 101 129 107
0.25391605 -0.40256414 -0.8143456 99 127 108
0.25387347 -0.40388265 -0.81399006 119 125 110
0.2549569 -0.40310559 -0.81474477 94 129 107
0.2548781 -0.40234432 -0.81488496 92 127 107
0.25422546 -0.40062636 -0.81496257 89 125 109
0.25308245 -0.40128249 -0.81423253 96 125 110
0.25552553 -0.40143138 -0.81542641 86 127 107
0.25367168 -0.4019185 -0.81437874 95 127 109
0.25665268 -0.40263584 -0.81579804 83 130 106
0.25721523 -0.40130776 -0.81645739 74 130 107
0.25586399 -0.40307137 -0.81520969 90 129 105
0.25701806 -0.40133587 -0.81632775 77 129 107
0.25645679 -0.40092972 -0.81607944 80 127 107
0.25540313 -0.40527141 -0.81451297 101 128 107
0.25525078 -0.40565431 -0.81436813 103 127 108
0.25535965 -0.40636572 -0.81430268 102 127 109
0.25555074 -0.40646321 -0.81438524 99 127 109
0.25438696 -0.4051826 -0.81400019 117 125 110
0.25539693 -0.40566033 -0.81444305 101 128 108
0.25411615 -0.40675387 -0.81357133 117 124 113
0.25364697 -0.406106 -0.81344986 126 123 113
0.25352401 -0.40724137 -0.8131122 115 125 113
0.25386363 -0.40763772 -0.81321722 109 126 113
0.25709847 -0.4050546 -0.81556273 78 132 106
0.25701421 -0.40599972 -0.81534791 79 131 107
0.25698778 -0.40662163 -0.81522471 79 130 108
0.25626937 -0.40659547 -0.81477958 89 129 108
0.25688559 -0.40672269 -0.81514341 80 130 108
0.25642627 -0.40505731 -0.81514162 87 131 106
0.25656867 -0.40580386 -0.81510264 85 131 106
0.25638723 -0.41503364 -0.8133083 33 135 113
0.25842741 -0.42350519 -0.8131991 24 133 118
0.25870779 -0.42353275 -0.81336957 23 135 118
0.2580989 -0.42289895 -0.81310165 24 133 118
0.25946215 -0.4257001 -0.81340116 21 135 118
0.25903031 -0.42512241 -0.81325066 21 135 118
0.25878429 -0.42469385 -0.81318545 21 135 117
0.25950363 -0.42724338 -0.81310815 19 139 117
0.26095891 -0.42754 -0.81406629 27 137 118
0.26005772 -0.42670754 -0.81357354 23 138 118
0.25989279 -0.42933708 -0.81301755 26 136 115
0.26069093 -0.42913187 -0.81364423 24 136 116
0.26101956 -0.42876881 -0.81394172 24 136 117
0.26248351 -0.42975935 -0.81487304 29 135 116
0.26390177 -0.45739391 -0.81328458 20 132 119
0.24759375 -0.43093064 -0.80491346 21 137 113
0.24508925 -0.43087345 -0.80346316 20 133 116
0.2453168 -0.43047643 -0.80369329 19 135 116
0.2455018 -0.43143225 -0.80356622 21 135 116
0.24626955 -0.43143812 -0.80401212 23 135 116
0.24639456 -0.430832 -0.80423391 21 135 115
0.24518582 -0.43112808 -0.80345684 21 133 117
0.24393477 -0.43350664 -0.80219632 23 135 117
0.2475955 -0.43516243 -0.80400908 29 134 113
0.24578938 -0.43411994 -0.80314028 26 136 114
0.24532917 -0.43463564 -0.80275947 26 136 114
0.24735147 -0.43421251 -0.80405676 27 134 113
0.24590915 -0.43475488 -0.80308247 27 135 114
0.24801524 -0.43497384 -0.80429894 29 135 112
0.24684469 -0.43190122 -0.80424011 23 136 114
0.2475328 -0.4316783 -0.80469018 23 136 113
0.24632004 -0.43336347 -0.80361247 25 136 114
0.24535084 -0.43277541 -0.80317718 24 135 116
0.24885145 -0.43391308 -0.80504102 32 133 114
0.24410093 -0.43598157 -0.80171263 29 135 114
0.2449448 -0.43835741 -0.80159754 46 131 112
0.24486628 -0.43924147 -0.80129021 54 129 111
0.24455425 -0.4360446 -0.80199701 27 137 114
0.24480405 -0.43787909 -0.80164003 43 132 113
0.24415007 -0.43778604 -0.80122787 47 130 113
0.24481836 -0.43704483 -0.80188817 35 134 113
0.24710579 -0.43823329 -0.80306315 31 136 112
0.24720767 -0.43756315 -0.80326736 31 135 112
0.24722312 -0.43663844 -0.80347431 30 135 113
0.24768014 -0.43701571 -0.80366737 32 133 112
0.24607636 -0.43648523 -0.80282038 28 135 113
0.24607016 -0.43615741 -0.80288672 27 137 113
0.2490869 -0.43915001 -0.80412722 33 134 113
0.24989267 -0.43929496 -0.80464184 31 133 115
0.24811563 -0.43677408 -0.8039819 32 133 112
0.24638011 -0.43953362 -0.80223358 46 131 112
0.24675669 -0.44034234 -0.80235988 42 134 109
0.24514073 -0.43947494 -0.8014102 54 129 111
0.24752393 -0.44033799 -0.80287594 37 135 110
0.24763148 -0.44154745 -0.80275869 36 137 108
0.24546358 -0.44076934 -0.80140615 54 130 110
0.24514577 -0.4406696 -0.80119812 58 128 111
0.24570575 -0.44115445 -0.80150503 53 130 110
0.24702875 -0.44325784 -0.80204529 45 134 107
0.25065649 -0.44041964 -0.80495834 27 134 115
0.2486825 -0.44312838 -0.8032077 31 138 108
0.25007045 -0.44192696 -0.80431807 27 137 112
0.25105482 -0.44158992 -0.80501741 25 134 115
0.24944247 -0.44248465 -0.80381328 28 139 109
0.25066608 -0.44300547 -0.8045215 25 136 112
0.24807745 -0.44262481 -0.80288959 32 139 106
0.24835142 -0.43957609 -0.80355197 33 134 112
0.24858551 -0.4417977 -0.80336171 32 137 109
0.24819565 -0.44274592 -0.80295032 32 139 106
0.2462173 -0.44363093 -0.80140436 57 129 110
0.24763958 -0.44575778 -0.80210042 33 134 111
0.24631561 -0.44420463 -0.80138803 54 128 112
0.24638546 -0.44457218 -0.80138987 52 130 111
0.24669783 -0.4465535 -0.80135804 37 133 111
0.24948776 -0.44478559 -0.80358213 26 137 110
0.25133607 -0.44657695 -0.80464751 16 134 115
0.2495828 -0.44470572 -0.80365026 26 137 110
0.25090224 -0.44473886 -0.80450761 21 135 113
0.25158572 -0.44562811 -0.80488396 17 134 115
0.24821611 -0.44484743 -0.80265188 27 139 108
0.24859491 -0.44558403 -0.80281526 27 135 110
0.24838194 -0.44718984 -0.80241841 23 135 112
0.25088468 -0.44683811 -0.80428606 17 134 114
0.24883269 -0.44606555 -0.80291492 25 136 112
0.24924959 -0.44549945 -0.80330271 25 137 111
0.24732734 -0.44766903 -0.80162477 27 134 112
0.24761446 -0.44767025 -0.80181432 26 136 112
0.24794567 -0.44782239 -0.80200917 23 135 112
0.2477925 -0.45054024 -0.80147767 16 136 111
0.25015289 -0.45010379 -0.80324203 12 134 115
0.25097272 -0.44991437 -0.80386609 11 132 117
0.25057113 -0.44982758 -0.80358887 12 132 116
0.25110719 -0.450039 -0.80394375 11 132 117
0.2514762 -0.44799292 -0.80453533 14 132 117
0.24888283 -0.45109743 -0.80216438 11 136 112
0.24885887 -0.45016965 -0.80229396 14 134 114
0.24959105 -0.44894525 -0.80301821 15 134 114
0.24852838 -0.44741738 -0.8024891 21 135 113
0.24972929 -0.4478581 -0.80329019 17 134 114
0.24965617 -0.4483563 -0.80315852 16 134 114
0.25135118 -0.44752821 -0.80451822 14 134 117
0.25230193 -0.44987229 -0.80484045 11 132 118
0.24875541 -0.45491716 -0.80135453 23 138 108
0.24900675 -0.45400301 -0.80170661 19 135 110
0.24807279 -0.4531644 -0.80119491 17 137 108
0.24996522 -0.45392489 -0.8024078 17 136 111
0.24843007 -0.45191208 -0.80168349 14 136 111
0.25187567 -0.45245332 -0.80407137 14 130 117
0.25076038 -0.45211017 -0.80333012 12 134 114
0.25139278 -0.45160246 -0.80388725 11 132 117
0.25177768 -0.45152587 -0.80418104 11 130 117
0.25056261 -0.45207211 -0.80319422 12 134 114
0.24940987 -0.4515053 -0.80246949 12 134 113
0.2494501 -0.45125777 -0.80254686 11 134 113
0.25279358 -0.45251292 -0.80474836 14 130 117
0.25236893 -0.45456854 -0.80403411 17 132 114
0.25278768 -0.45310828 -0.80463237 15 130 116
0.25203365 -0.45184931 -0.80430508 11 132 117
0.24934521 -0.45598873 -0.80164647 25 136 110
0.24908993 -0.455897 -0.80146492 25 136 109
0.25363141 -0.45525131 -0.80489939 19 132 116
0.25257087 -0.45522141 -0.80407971 19 132 115
0.25135881 -0.45997041 -0.80259573 24 131 118
0.2513507 -0.46022806 -0.80255491 23 131 118
0.25492841 -0.46190691 -0.8050704 19 132 117
0.23981443 -0.44895411 -0.79610914 65 129 112
0.24022672 -0.45093751 -0.79597962 71 129 110
0.24139142 -0.449285 -0.79713207 57 132 109
0.24083352 -0.44968948 -0.79665816 63 130 109
0.24077439 -0.44856572 -0.79684389 63 130 111
0.24073982 -0.4474448 -0.79704601 61 131 112
0.23901276 -0.45172444 -0.7949999 73 127 113
0.23999457 -0.45287484 -0.79536587 88 125 112
0.23945102 -0.45279363 -0.79502827 85 125 113
0.24012688 -0.45134529 -0.79582447 73 128 110
0.23822097 -0.45130867 -0.79458028 65 127 114
0.24250622 -0.45376399 -0.79690075 72 130 107
0.24203613 -0.45479456 -0.7963199 87 126 109
0.24182025 -0.45385972 -0.79639673 81 128 110
0.24178016 -0.45218202 -0.79677796 66 131 108
0.24159928 -0.45418817 -0.79616177 87 126 110
0.24154182 -0.45235801 -0.79656798 71 129 109
0.24120887 -0.45230111 -0.7963478 73 129 109
0.24093336 -0.45206121 -0.79621243 73 129 110
0.243927 -0.45713535 -0.79719675 55 133 107
0.24356182 -0.45684826 -0.79699957 61 131 107
0.24306963 -0.45672378 -0.79667717 68 131 109
0.24278882 -0.45566779 -0.79667145 78 128 108
0.24259605 -0.45730931 -0.79623944 71 130 111
0.24356443 -0.45609298 -0.79713804 65 131 107
0.24195257 -0.45822102 -0.79554355 83 126 112
0.24207477 -0.45997137 -0.79532528 74 126 112
0.24307187 -0.45984513 -0.79609656 55 131 110
0.24272007 -0.45951733 -0.7958734 65 130 110
0.24444748 -0.46010429 -0.7971403 32 137 110
0.23896995 -0.39634535 -0.80966157 45 133 116
0.23842072 -0.39592648 -0.80969399 38 133 116
0.23807697 -0.39598206 -0.80961227 36 132 116
0.24020003 -0.39438975 -0.81051803 33 134 116
0.23745377 -0.39636782 -0.80937254 36 132 116
0.24363677 -0.39618081 -0.81101549 59 130 111
0.24372458 -0.3938196 -0.81171429 51 130 113
0.24344596 -0.39500976 -0.81128788 54 130 112
0.24404375 -0.39363447 -0.81186795 52 129 113
0.24343076 -0.39471 -0.81136823 53 130 112
0.24182892 -0.39640012 -0.81038082 56 132 114
0.24051648 -0.39579901 -0.81015092 50 133 116
0.24056812 -0.39332512 -0.81095964 25 136 115
0.24066304 -0.39566797 -0.81023401 49 132 116
0.24079894 -0.39474383 -0.81056875 41 134 115
0.24510643 -0.39465988 -0.81202585 50 131 112
0.24730879 -0.39618829 -0.81254601 47 131 112
0.24648862 -0.39542332 -0.81240797 48 130 113
0.24439932 -0.39470682 -0.81170601 54 130 111
0.24428186 -0.39564645 -0.81138808 57 130 111
0.24538428 -0.39570114 -0.81185031 54 130 112
0.23999834 -0.39655933 -0.80978644 52 133 116
0.23920876 -0.39840916 -0.80912793 34 136 116
0.23769969 -0.39769369 -0.80903709 31 135 115
0.24010001 -0.39795846 -0.80942148 43 136 117
0.23750916 -0.39672962 -0.80926836 37 131 116
0.24131109 -0.39996997 -0.80928838 35 137 116
0.24316418 -0.39953038 -0.81008476 50 131 116
0.24074574 -0.39778736 -0.80968076 47 133 116
0.24139784 -0.39793593 -0.80987799 50 133 116
0.24195603 -0.3991119 -0.80975878 45 134 116
0.24319498 -0.39960152 -0.81007653 50 130 116
0.24345174 -0.39786375 -0.81055856 55 130 113
0.24373052 -0.39985701 -0.81019586 51 131 116
0.24257907 -0.39878157 -0.81007463 51 131 116
0.24063897 -0.39683735 -0.80990028 54 133 117
0.24310295 -0.39708227 -0.81062496 58 130 113
0.24510518 -0.40010834 -0.8107155 52 130 116
0.24786438 -0.39921165 -0.8121925 59 130 115
0.24479692 -0.39995053 -0.81059802 51 130 116
0.24791723 -0.39945805 -0.81217223 61 131 115
0.24690767 -0.3982406 -0.81191659 50 131 114
0.24770349 -0.39832541 -0.81227934 54 130 114
0.2442878 -0.39888492 -0.8106094 54 130 114
0.24581301 -0.39669144 -0.81176674 54 130 112
0.24424723 -0.39678007 -0.81106806 60 131 110
0.24566752 -0.3971642 -0.81159675 53 130 112
0.24480605 -0.39767089 -0.81110865 55 130 112
0.24443601 -0.3973096 -0.81103003 57 130 112
0.24880224 -0.39801773 -0.81285846 58 129 113
0.24815392 -0.39928281 -0.81231838 61 130 114
0.2419544 -0.40159461 -0.80909479 32 139 117
0.2416988 -0.40055594 -0.80927336 34 136 117
0.24132276 -0.40094531 -0.80903476 30 140 117
0.24378352 -0.40149659 -0.80978596 44 133 117
0.24397431 -0.40202191 -0.80971801 43 133 117
0.24315403 -0.40334255 -0.80908078 33 139 118
0.24791719 -0.40227363 -0.81155354 75 133 114
0.2471969 -0.40424824 -0.81072742 77 136 114
0.2465975 -0.40330228 -0.81064975 63 136 115
0.24541134 -0.40351632 -0.81000471 49 136 117
0.24747722 -0.40394893 -0.81093836 78 136 114
0.24518543 -0.40391448 -0.8097977 48 137 117
0.24764729 -0.40050474 -0.81184226 64 131 116
0.24556449 -0.40215445 -0.81042081 50 133 116
0.2463125 -0.40150782 -0.81094551 55 133 116
0.24464418 -0.40207896 -0.81000298 46 134 117
0.24476066 -0.40151227 -0.81020653 48 132 116
0.24777052 -0.40058866 -0.81187892 64 131 115
0.24889728 -0.40124047 -0.81224179 86 128 115
0.2502954 -0.40134686 -0.81287169 97 126 114
0.25073674 -0.40256462 -0.81276381 119 124 114
0.24995229 -0.40320027 -0.81225151 114 127 114
0.24839339 -0.402282 -0.81177133 83 132 114
0.24815117 -0.4023523 -0.81164658 79 133 114
0.24836165 -0.40174693 -0.81188321 79 132 114
0.24884342 -0.40193045 -0.81205523 89 130 114
0.24852151 -0.4032723 -0.81159532 90 132 114
0.2451869 -0.40617147 -0.80927032 56 133 120
0.24507879 -0.40612572 -0.80923533 54 133 120
0.24429525 -0.40554625 -0.80902427 37 137 118
0.24680535 -0.40702221 -0.80976737 91 126 122
0.24439919 -0.40462688 -0.8092289 42 137 119
0.24652055 -0.40469474 -0.81026614 71 136 116
0.24698956 -0.40638337 -0.81003129 89 128 121
0.24753772 -0.40726066 -0.81006199 103 124 122
0.24610728 -0.40626058 -0.80962324 77 129 121
0.245829 -0.40562153 -0.80966157 69 132 120
0.24758475 -0.40548831 -0.81057876 90 132 117
0.25113347 -0.40648431 -0.81196296 134 122 117
0.25164446 -0.40520206 -0.81251943 144 122 115
0.24868372 -0.40809849 -0.81038833 117 122 122
0.25107011 -0.4067927 -0.81185794 131 122 117
0.25165737 -0.40656549 -0.81219691 133 123 115
0.25133157 -0.40623346 -0.81211931 136 122 116
0.25101966 -0.40488482 -0.81230646 142 122 116
0.2483321 -0.40714467 -0.8104769 113 124 121
0.24808985 -0.40513638 -0.81092757 94 133 115
0.25039285 -0.40457958 -0.81211138 129 125 115
0.2488811 -0.40491858 -0.81134164 106 130 115
0.24828695 -0.40598422 -0.81077969 103 128 118
0.25293434 -0.40790567 -0.81260502 113 126 114
0.2521967 -0.40676752 -0.81243724 130 124 115
0.24747837 -0.40825275 -0.80981892 102 123 123
0.2463198 -0.40859815 -0.80928618 71 130 120
0.24723357 -0.40821603 -0.80972964 98 124 123
0.24800704 -0.41129297 -0.80938488 61 136 118
0.24592206 -0.40917328 -0.80900025 54 133 119
0.25191534 -0.40847307 -0.81187356 117 125 116
0.25051469 -0.41149974 -0.81058294 71 130 117
0.25077173 -0.4107039 -0.81086659 82 130 116
0.25151411 -0.41133425 -0.81111586 79 127 116
0.25191414 -0.40907991 -0.81175488 110 125 116
0.25023258 -0.41153809 -0.81043416 68 132 116
0.25114468 -0.41102055 -0.81099176 81 128 116
0.25035867 -0.40942857 -0.8109141 98 128 116
0.2495838 -0.4087756 -0.81067741 108 124 120
0.24827577 -0.4086656 -0.81006777 108 124 122
0.24963132 -0.40894225 -0.81066507 105 125 119
0.25018263 -0.40874001 -0.81097466 109 125 118
0.24824339 -0.40844291 -0.81009924 111 122 123
0.25326139 -0.40940341 -0.8124947 94 127 114
0.25303134 -0.40969402 -0.8123008 92 128 114
0.2521725 -0.40977743 -0.81177026 99 125 116
0.25233576 -0.41049981 -0.81172758 89 126 116
0.25026989 -0.41600576 -0.80972022 35 134 116
0.25000364 -0.41497558 -0.80976146 38 136 115
0.24948882 -0.41571346 -0.80934894 35 134 116
0.25020099 -0.41474453 -0.80991113 40 136 115
0.24841774 -0.41267857 -0.80932361 46 140 116
0.25102928 -0.41454232 -0.81037778 45 135 115
0.25163031 -0.4121604 -0.81101602 70 127 117
0.25047714 -0.41297945 -0.81032234 55 133 116
0.24975151 -0.41345045 -0.80989218 46 137 116
0.2500785 -0.41277611 -0.8101514 54 134 116
0.25209084 -0.41565594 -0.8107599 40 133 114
0.25181878 -0.41633743 -0.81050867 36 133 115
0.25019118 -0.41746396 -0.80944842 27 134 117
0.25163549 -0.41628259 -0.81041783 36 133 115
0.24979463 -0.41602901 -0.80945837 35 133 116
0.25065437 -0.41699439 -0.8097735 30 133 116
0.25011411 -0.41788909 -0.80933285 25 133 117
0.25527337 -0.41725758 -0.81229806 23 135 116
0.2555131 -0.41705364 -0.81246424 24 135 115
0.25320929 -0.41776085 -0.8110593 25 134 115
0.25231716 -0.41789594 -0.81054026 26 134 115
0.25203922 -0.41703582 -0.81052005 32 134 114
0.2525703 -0.41697183 -0.81082648 31 133 115
0.25451332 -0.41717723 -0.81187874 24 135 115
0.25315094 -0.4160752 -0.81129128 33 134 114
0.25622469 -0.41940355 -0.81254458 19 134 119
0.25193128 -0.42152914 -0.80971861 24 133 116
0.25093925 -0.42148244 -0.80916154 20 133 117
0.25092873 -0.42179286 -0.80909556 23 133 117
0.25291994 -0.42344853 -0.80992347 29 132 115
0.25419036 -0.42313027 -0.81068087 24 135 115
0.25202027 -0.42224529 -0.80964094 27 132 116
0.25241813 -0.42191938 -0.80992615 26 133 117
0.25748286 -0.42198694 -0.81287801 26 133 119
0.25700638 -0.42325196 -0.81232095 21 133 116
0.25651205 -0.42166182 -0.81229347 24 133 118
0.25690123 -0.42072856 -0.81272954 26 133 119
0.25635043 -0.42030054 -0.81246871 20 133 120
0.2567316 -0.42048997 -0.81266344 26 131 120
0.25413138 -0.42725396 -0.80981094 33 133 111
0.25337377 -0.42555529 -0.80977601 33 133 113
0.25321528 -0.42587939 -0.8095898 33 133 112
0.25382122 -0.42535716 -0.81008208 30 133 112
0.25875479 -0.42708126 -0.81268454 21 137 116
0.25801942 -0.42605886 -0.81244177 23 136 115
0.25844127 -0.42581317 -0.81274694 21 137 116
0.25744 -0.42526835 -0.81224751 25 134 114
0.25706637 -0.42558679 -0.81195712 26 134 114
0.25695434 -0.42520759 -0.81194681 25 134 114
0.25693306 -0.42551607 -0.81188112 25 134 113
0.25925288 -0.42854509 -0.81273699 24 136 115
0.25939962 -0.42876023 -0.81279433 24 136 115
0.25965384 -0.44684523 -0.81047672 32 134 120
0.25938776 -0.44701448 -0.8102712 29 135 120
0.25759628 -0.44628403 -0.80905706 27 134 120
0.25890633 -0.4459815 -0.80999267 33 134 120
0.25874901 -0.44924191 -0.80967301 21 133 118
0.25914142 -0.44783953 -0.81004471 26 134 120
0.25913706 -0.44975981 -0.8099094 21 133 118
0.25905138 -0.44781458 -0.80998325 26 134 120
0.25807166 -0.44938019 -0.80915737 19 134 118
0.2592794 -0.45048615 -0.80995452 20 133 119
0.25789142 -0.44859758 -0.80909669 19 135 118
0.26134604 -0.4511632 -0.81156069 28 134 117
0.26059356 -0.45112169 -0.81093913 26 133 118
0.26059055 -0.45037043 -0.81095672 27 134 117
0.25962687 -0.45447439 -0.80979151 21 132 117
0.25912657 -0.45314124 -0.80956239 19 134 117
0.25950462 -0.45341262 -0.80981529 20 133 117
0.25898302 -0.45449013 -0.80928391 19 134 117
0.25849438 -0.45358238 -0.80901301 19 132 118
0.25994176 -0.45323223 -0.81017536 21 133 117
0.26089829 -0.45118564 -0.81118846 27 134 118
0.26118082 -0.45303398 -0.81122208 28 134 117
0.26033077 -0.45265955 -0.81055921 25 133 118
0.25882891 -0.45533535 -0.80905992 20 133 117
0.26347825 -0.45767429 -0.81288898 20 132 119
0.26276991 -0.4592824 -0.81215119 19 132 119
0.2614066 -0.46023408 -0.81085664 20 132 118
0.26263073 -0.45899928 -0.8120414 19 132 118
0.26037008 -0.46022084 -0.80988336 21 130 118
0.26039845 -0.4610928 -0.80981439 19 130 118
0 0 0 1 0 0 0 1 0 0 0 1 0 0 0 0 0 664 1 0 0
