ply
format ascii 1.0
comment PCL generated
element vertex 849
property float x
property float y
property float z
property uchar red
property uchar green
property uchar blue
element camera 1
property float view_px
property float view_py
property float view_pz
property float x_axisx
property float x_axisy
property float x_axisz
property float y_axisx
property float y_axisy
property float y_axisz
property float z_axisx
property float z_axisy
property float z_axisz
property float focal
property float scalex
property float scaley
property float centerx
property float centery
property int viewportx
property int viewporty
property float k1
property float k2
end_header
-0.14373961 -0.13125564 -0.74190134 172 130 115
-0.14436397 -0.13232993 -0.74193281 176 131 116
-0.14473167 -0.13146722 -0.74246353 176 130 117
-0.14625177 -0.13427827 -0.74247301 185 133 118
-0.14348663 -0.13401897 -0.74083036 181 129 118
-0.14380363 -0.13435847 -0.74091721 182 129 119
-0.14315377 -0.13250941 -0.74111491 175 130 116
-0.14385866 -0.13266525 -0.74150318 176 130 117
-0.14310119 -0.13218577 -0.74118763 174 129 116
-0.14201577 -0.13473888 -0.7397331 177 128 119
-0.1423517 -0.13187928 -0.74083447 171 128 116
-0.1419858 -0.13385466 -0.73998529 177 127 118
-0.14713874 -0.13734941 -0.74217886 186 134 122
-0.1467481 -0.13586198 -0.74232793 187 133 120
-0.14730364 -0.13681784 -0.74244136 185 134 121
-0.14287268 -0.13538426 -0.74004102 182 128 120
-0.1426118 -0.1353983 -0.73988301 180 128 119
-0.14262412 -0.13799664 -0.73924106 168 130 118
-0.14333615 -0.13788962 -0.73968947 174 130 120
-0.14302517 -0.13614234 -0.73994184 180 129 120
-0.14301591 -0.13842626 -0.7393657 169 130 119
-0.14558959 -0.13524888 -0.74176139 186 132 119
-0.14557846 -0.13724032 -0.74119568 189 132 123
-0.14440076 -0.13516493 -0.74104446 185 131 120
-0.14513355 -0.13507269 -0.74152678 185 131 119
-0.14464328 -0.13581111 -0.74101418 186 131 121
-0.14637598 -0.13774008 -0.74155223 191 133 124
-0.14621355 -0.13744602 -0.74153352 190 133 123
-0.14243929 -0.13608141 -0.73962015 176 129 119
-0.14229476 -0.13487244 -0.73984551 180 128 119
-0.14197017 -0.13551779 -0.73951417 173 128 118
-0.14772783 -0.13871703 -0.74220181 185 135 124
-0.14901906 -0.14152938 -0.74242353 147 139 119
-0.14895549 -0.14072661 -0.7425698 156 138 120
-0.14725573 -0.14102606 -0.74138141 153 139 121
-0.14734204 -0.1415301 -0.74133575 144 140 119
-0.14792578 -0.14131458 -0.74175358 149 139 119
-0.14735462 -0.14168467 -0.7413128 142 141 119
-0.14764617 -0.14230189 -0.74137622 131 142 118
-0.14677557 -0.14207348 -0.74086326 132 143 118
-0.14524747 -0.13889128 -0.74058181 180 133 123
-0.14435348 -0.13907921 -0.74001473 170 132 120
-0.14602971 -0.14022662 -0.74077737 162 137 121
-0.14477672 -0.13965368 -0.74015021 163 135 120
-0.14459325 -0.13918433 -0.74013567 170 133 120
-0.14638653 -0.14041051 -0.74095178 161 137 122
-0.16688263 -0.11891937 -0.75498778 115 145 125
-0.16635245 -0.11864679 -0.75436485 120 144 124
-0.16573247 -0.11900457 -0.75489748 125 142 122
-0.16436389 -0.1189021 -0.75443155 143 138 122
-0.16748048 -0.12009896 -0.75741184 124 147 124
-0.16675577 -0.11995978 -0.75697672 127 146 122
-0.16714434 -0.12005943 -0.75725824 126 146 123
-0.16744047 -0.11996581 -0.75714111 122 147 123
-0.16605067 -0.11916339 -0.75526154 121 143 122
-0.16657646 -0.12005532 -0.75712359 130 145 122
-0.16295552 -0.1219863 -0.75790745 192 125 125
-0.16311255 -0.12172472 -0.75754291 187 126 125
-0.16406691 -0.12154046 -0.75807703 174 132 123
-0.16276859 -0.12215995 -0.7580719 196 124 125
-0.16295682 -0.1220006 -0.75793666 192 125 125
-0.16490541 -0.11925744 -0.75511169 138 139 122
-0.16322349 -0.11979267 -0.75536323 166 132 122
-0.16423957 -0.11962771 -0.75538802 151 136 122
-0.16423771 -0.12043463 -0.75628793 159 133 124
-0.16313358 -0.12057438 -0.75621694 175 129 123
-0.16236763 -0.12091662 -0.75644141 189 126 123
-0.16295686 -0.12076996 -0.75639892 179 128 123
-0.16107237 -0.11968559 -0.75436985 177 132 120
-0.15980813 -0.12074242 -0.75464666 176 135 118
-0.15833116 -0.12205438 -0.7550332 175 138 117
-0.15870039 -0.12181656 -0.75501049 174 137 117
-0.16097811 -0.12121727 -0.7558614 183 130 121
-0.1613051 -0.1206785 -0.75550961 181 130 121
-0.16184977 -0.12147515 -0.75681382 195 125 124
-0.16152303 -0.12196999 -0.75711685 196 125 124
-0.16202854 -0.11978333 -0.75506234 181 129 121
-0.16108733 -0.12020012 -0.75480974 174 133 119
-0.16109726 -0.12082915 -0.75551921 180 131 120
-0.15956536 -0.12297863 -0.75674766 183 131 119
-0.15818016 -0.12154312 -0.75453544 179 138 118
-0.15818092 -0.12148146 -0.75448555 179 138 117
-0.15949818 -0.12440677 -0.75679046 172 136 117
-0.16092131 -0.12510638 -0.757882 180 131 120
-0.15922154 -0.12320229 -0.75656348 178 134 118
-0.16092043 -0.12550776 -0.75788689 176 132 119
-0.16053429 -0.12469006 -0.75758207 179 132 119
-0.15892927 -0.12648983 -0.75590807 167 136 117
-0.15949729 -0.12650311 -0.75647271 168 136 117
-0.16057503 -0.12691873 -0.7574755 169 135 118
-0.15877305 -0.12588489 -0.75585824 168 136 117
-0.15839083 -0.12477543 -0.75567132 168 137 116
-0.15905745 -0.1267556 -0.75598943 167 136 117
-0.15806484 -0.12476045 -0.75536364 168 137 117
-0.15808746 -0.12568626 -0.75522137 167 137 117
-0.15734746 -0.12488868 -0.75472814 169 136 118
-0.15646692 -0.12316484 -0.75432205 172 137 118
-0.15748188 -0.12458672 -0.75489688 170 137 117
-0.16242222 -0.12976094 -0.75802654 177 135 116
-0.15858489 -0.12856399 -0.75469792 171 135 118
-0.16093527 -0.13004908 -0.75636441 176 136 116
-0.15976283 -0.13037589 -0.75501984 175 135 118
-0.16083534 -0.1296659 -0.75644916 175 136 116
-0.16015606 -0.13077347 -0.75522476 176 135 117
-0.15926446 -0.1287293 -0.75531423 171 136 117
-0.15967093 -0.1308423 -0.7547006 176 135 118
-0.16154921 -0.13021588 -0.75690347 177 136 116
-0.16066939 -0.12927559 -0.75646865 174 136 116
-0.15997171 -0.12845221 -0.7561605 171 136 117
-0.15925911 -0.12715907 -0.75605893 168 136 118
-0.16127485 -0.12859735 -0.7573927 172 136 117
-0.16018 -0.12713851 -0.75698775 169 135 118
-0.15986161 -0.12769367 -0.75640821 170 136 117
-0.16172987 -0.12897468 -0.75766814 174 136 116
-0.16323678 -0.13206045 -0.75793713 179 135 118
-0.16361269 -0.13245258 -0.75820053 180 134 120
-0.16270772 -0.13248321 -0.75708306 181 135 119
-0.16286384 -0.13319041 -0.75692111 183 134 121
-0.16243681 -0.13293262 -0.75652415 184 134 120
-0.16262794 -0.13278614 -0.75683302 183 134 120
-0.16330296 -0.13474078 -0.7566855 187 133 124
-0.16200449 -0.13393521 -0.75552154 191 132 123
-0.16198564 -0.13462171 -0.75516027 194 131 124
-0.16112146 -0.1335652 -0.75486356 189 133 122
-0.16097806 -0.13103232 -0.75593185 178 136 117
-0.16014266 -0.13214935 -0.75455165 182 134 120
-0.1598939 -0.13213632 -0.7543062 182 133 120
-0.15944035 -0.13100986 -0.75438696 176 135 118
-0.16156496 -0.13234974 -0.75589448 184 134 119
-0.16211717 -0.13486037 -0.7551719 193 131 124
-0.16262682 -0.13655595 -0.75502598 176 137 122
-0.16327955 -0.13703756 -0.75551349 171 137 121
-0.16332316 -0.13503896 -0.75653672 185 133 124
-0.16489151 -0.13664319 -0.75752252 166 136 122
-0.16346541 -0.1360541 -0.75611311 180 134 123
-0.16453145 -0.1349158 -0.75809795 177 135 125
-0.16438186 -0.13529357 -0.75769085 176 134 123
-0.1617623 -0.1360001 -0.75436324 184 135 123
-0.17686509 -0.12316744 -0.77186453 109 138 120
-0.17523116 -0.12480163 -0.77185321 135 137 118
-0.17591816 -0.12462614 -0.77236933 125 137 118
-0.17703791 -0.1236206 -0.77261025 111 138 119
-0.17553121 -0.12524733 -0.7725144 129 138 118
-0.17394117 -0.12533903 -0.77105749 153 136 119
-0.17437977 -0.12523544 -0.77139407 147 136 119
-0.17532651 -0.12524115 -0.77231187 132 137 118
-0.17590545 -0.12490845 -0.77264309 126 137 118
-0.17694055 -0.12405685 -0.77321202 123 138 118
-0.17571025 -0.12576848 -0.77340961 143 136 118
-0.17578703 -0.12543233 -0.77323389 140 136 118
-0.17614596 -0.12519321 -0.77343625 138 137 118
-0.17293942 -0.12556584 -0.77005905 160 136 120
-0.17310466 -0.12671803 -0.77122098 156 136 118
-0.17265837 -0.12688093 -0.77081513 159 136 118
-0.17476554 -0.12972075 -0.77359331 144 137 115
-0.17467116 -0.12907223 -0.77342385 145 137 115
-0.17482282 -0.1278147 -0.77345544 149 137 117
-0.17397349 -0.12857506 -0.77260059 145 138 116
-0.17382832 -0.12833723 -0.77241373 145 138 116
-0.17376879 -0.13079998 -0.77253503 137 141 113
-0.17320324 -0.13020986 -0.77163553 145 139 116
-0.17366911 -0.12974592 -0.7722953 142 140 114
-0.17290853 -0.12955956 -0.77113742 151 138 118
-0.17377906 -0.1282762 -0.77233464 146 138 116
-0.17267521 -0.12770574 -0.7708602 157 137 118
-0.17279534 -0.12909159 -0.77094054 154 137 119
-0.17253 -0.12784994 -0.77067715 158 136 119
-0.17216519 -0.12826291 -0.7702148 160 137 119
-0.17479841 -0.13103622 -0.77369839 140 139 114
-0.17450617 -0.13120127 -0.77332205 138 139 114
-0.17486688 -0.13200498 -0.77353597 136 138 114
-0.17510563 -0.13409916 -0.77317053 129 136 116
-0.17407778 -0.13252831 -0.7722733 132 140 114
-0.17462239 -0.13400708 -0.77246058 128 138 116
-0.17477021 -0.13284622 -0.7732076 132 138 115
-0.17484903 -0.13396001 -0.77283376 129 137 116
-0.17363997 -0.13368596 -0.77107298 130 140 116
-0.17362814 -0.13236102 -0.77164471 134 141 114
-0.17331056 -0.13279733 -0.77096575 136 140 116
-0.17265944 -0.13223495 -0.77024531 145 139 117
-0.17348449 -0.13107307 -0.77201539 140 140 114
-0.1731838 -0.13231663 -0.77099526 139 140 115
-0.17528762 -0.13566861 -0.77261835 120 135 117
-0.17509612 -0.13527425 -0.77255571 123 135 117
-0.17542024 -0.13499355 -0.77322662 125 135 117
-0.17589992 -0.13525234 -0.77377391 125 135 116
-0.17365173 -0.13561624 -0.77006012 123 137 117
-0.1860382 -0.12621212 -0.78631943 116 144 118
-0.18564646 -0.12657741 -0.78598517 120 144 118
-0.18603516 -0.12656076 -0.78642583 120 144 118
-0.18769883 -0.12616666 -0.78849465 112 141 121
-0.18632035 -0.12623498 -0.78665143 116 144 118
-0.18773201 -0.12548994 -0.78820157 106 142 120
-0.18706372 -0.12576082 -0.78742683 110 143 119
-0.18637908 -0.12660314 -0.78691536 119 143 119
-0.18541922 -0.12587303 -0.78559184 112 144 118
-0.18733239 -0.12792577 -0.78854561 114 139 120
-0.1870636 -0.12903419 -0.78835845 108 141 117
-0.1872059 -0.12811142 -0.78840327 113 140 120
-0.18720645 -0.1283384 -0.78844064 112 140 119
-0.18628483 -0.12714891 -0.78699344 121 142 119
-0.18632451 -0.12702012 -0.7870267 122 142 119
-0.1866897 -0.12924266 -0.78787267 109 141 117
-0.18595029 -0.12907164 -0.78676498 126 139 118
-0.18688025 -0.12988923 -0.78821874 108 140 117
-0.18712056 -0.13023984 -0.78860843 104 140 117
-0.18589234 -0.12826025 -0.78659785 123 141 118
-0.18538049 -0.12922151 -0.78602064 137 137 119
-0.18523449 -0.12756352 -0.78567672 129 141 118
-0.16506207 -0.11845864 -0.75366241 129 142 124
-0.16355607 -0.11825249 -0.75287884 146 139 123
-0.1628419 -0.11860404 -0.75346684 158 135 122
-0.16452137 -0.11815032 -0.75288069 132 142 124
-0.16540509 -0.11857108 -0.7539807 127 142 123
-0.15827629 -0.11867467 -0.7516126 154 137 118
-0.1582704 -0.11801687 -0.7504676 139 140 119
-0.1600856 -0.11894887 -0.75303096 166 134 119
-0.16157615 -0.11902145 -0.75393331 172 132 120
-0.16062182 -0.11813621 -0.75169003 153 137 121
-0.15905549 -0.11794461 -0.75063765 142 139 120
-0.16152136 -0.11798543 -0.75173736 156 136 123
-0.16181296 -0.11888219 -0.7537722 170 132 121
-0.15985814 -0.11773979 -0.75052989 144 139 122
-0.15806144 -0.11895137 -0.75198233 161 137 117
-0.15624143 -0.11911675 -0.75133747 170 139 116
-0.15717046 -0.1188318 -0.75131845 161 139 117
-0.15739675 -0.11842243 -0.75072366 151 140 118
-0.16117907 -0.11916427 -0.75395536 174 132 119
-0.15899636 -0.12030247 -0.75386137 176 136 118
-0.15976673 -0.11941527 -0.75344974 171 134 118
-0.15463829 -0.11979584 -0.75091636 175 140 117
-0.15758304 -0.11955406 -0.75229198 166 136 117
-0.15534976 -0.12047711 -0.75165218 172 138 118
-0.15473461 -0.11990347 -0.75102443 175 139 117
-0.15662563 -0.11944165 -0.75174052 169 138 117
-0.15595141 -0.12127646 -0.75239617 169 136 118
-0.15730377 -0.12159438 -0.75383806 178 137 118
-0.15587027 -0.12221579 -0.75314212 175 136 119
-0.15775473 -0.12064905 -0.75337005 173 137 118
-0.15779972 -0.11997347 -0.75279075 168 137 117
-0.15690623 -0.1211612 -0.75309026 172 136 118
-0.1557299 -0.12242336 -0.75320476 175 136 119
-0.15561299 -0.12266088 -0.75330371 174 136 119
-0.15429062 -0.12273463 -0.75233948 173 136 120
-0.15351309 -0.12202598 -0.75132906 173 136 118
-0.15424152 -0.11999095 -0.75080353 176 140 117
-0.15335453 -0.12239008 -0.75140041 173 136 119
-0.15322879 -0.12225842 -0.75122774 173 136 118
-0.15564063 -0.12306217 -0.75364524 172 136 118
-0.15660466 -0.12399191 -0.75428003 171 137 118
-0.15593171 -0.12516594 -0.75348741 170 135 120
-0.1563459 -0.12451135 -0.75396222 171 136 118
-0.15463947 -0.12410602 -0.75254726 171 135 119
-0.15558824 -0.12509702 -0.75317866 170 135 120
-0.15496776 -0.12681988 -0.7521041 168 136 118
-0.15600571 -0.12617564 -0.75327718 169 135 119
-0.15564871 -0.12540807 -0.75314975 170 135 119
-0.154119 -0.12503821 -0.75181258 170 135 119
-0.15371953 -0.12524945 -0.75142425 170 135 119
-0.15410492 -0.12598568 -0.75153661 170 135 118
-0.15394229 -0.1240961 -0.75193018 171 135 119
-0.15322134 -0.12584247 -0.75085193 170 135 118
-0.15350653 -0.1254323 -0.75119811 170 135 119
-0.15326938 -0.12335655 -0.75160187 171 135 119
-0.15910205 -0.13062395 -0.75421882 175 135 118
-0.15459193 -0.1290112 -0.7507875 172 134 118
-0.15536773 -0.12967153 -0.75118345 174 134 118
-0.15722658 -0.13022541 -0.75254589 176 134 118
-0.15668435 -0.13028949 -0.75205195 175 134 118
-0.1565482 -0.13043344 -0.75187325 175 134 118
-0.15488097 -0.12762906 -0.75163829 170 135 118
-0.15498075 -0.12767783 -0.75170326 170 135 118
-0.15616366 -0.12773447 -0.75280166 170 135 118
-0.15753795 -0.12889953 -0.753506 173 134 118
-0.15543506 -0.12731296 -0.75232542 169 135 118
-0.15603708 -0.12722811 -0.75294608 169 135 118
-0.15459302 -0.12705176 -0.75165659 169 135 118
-0.15759498 -0.12830466 -0.75387251 171 135 119
-0.15774824 -0.12795161 -0.75417948 170 135 119
-0.15371993 -0.12722304 -0.75082779 169 135 118
-0.15917069 -0.13119234 -0.75400382 178 134 119
-0.15890115 -0.13131982 -0.75364178 179 134 119
-0.15880048 -0.13224719 -0.75307268 183 133 120
-0.1595218 -0.13448319 -0.7527526 189 132 121
-0.15856503 -0.13152064 -0.75317556 180 133 119
-0.15915854 -0.13366961 -0.75276375 186 132 121
-0.15846233 -0.13465573 -0.75156289 186 133 120
-0.15861012 -0.13269508 -0.75265872 183 133 119
-0.15719146 -0.13455969 -0.75054008 179 134 119
-0.15759909 -0.13329564 -0.75146866 178 134 119
-0.15690866 -0.13275263 -0.75112939 177 134 119
-0.15587841 -0.13173771 -0.75071031 176 134 118
-0.15584837 -0.13102202 -0.75101405 175 134 118
-0.1570171 -0.13452926 -0.7504046 178 135 119
-0.15692593 -0.13148862 -0.75172627 176 134 118
-0.15571401 -0.13120523 -0.75081408 175 134 118
-0.16211091 -0.1378013 -0.75391924 170 141 121
-0.15838245 -0.13674577 -0.75078005 183 131 121
-0.15872717 -0.13689463 -0.75104702 182 132 121
-0.15867302 -0.13697326 -0.75097364 181 132 121
-0.16052963 -0.13717304 -0.75258511 173 139 120
-0.15904854 -0.13848546 -0.75084013 178 133 122
-0.1612732 -0.13848318 -0.75284642 168 141 121
-0.1598784 -0.13755277 -0.75187939 175 136 121
-0.1608455 -0.13663101 -0.7531504 178 137 121
-0.15990199 -0.13493022 -0.75293922 189 133 122
-0.16138786 -0.13681304 -0.75363415 178 137 122
-0.16112076 -0.1376304 -0.75298285 170 140 120
-0.15890782 -0.13503076 -0.75185478 186 133 121
-0.1596466 -0.13580394 -0.75227451 181 135 121
-0.16200286 -0.13778114 -0.75382477 170 141 121
-0.15815507 -0.13612397 -0.75076431 184 132 121
-0.16195628 -0.13963193 -0.75312716 161 141 120
-0.16197453 -0.13913704 -0.75328666 162 142 120
-0.15965226 -0.14026447 -0.75087589 166 134 121
-0.16010028 -0.13874495 -0.75170946 172 136 121
-0.15992069 -0.14028655 -0.75111163 165 135 120
-0.158822 -0.13926594 -0.75040972 175 131 122
-0.17430775 -0.12303267 -0.76820469 136 128 127
-0.17500754 -0.12287881 -0.76846892 116 131 126
-0.17389397 -0.1225897 -0.76611549 130 121 135
-0.17376819 -0.12261088 -0.76604176 132 121 135
-0.17437127 -0.12350211 -0.76928586 140 133 122
-0.17465715 -0.12337909 -0.76936299 133 134 122
-0.1714208 -0.12401159 -0.76648188 140 132 123
-0.17212614 -0.12334838 -0.7661224 138 127 128
-0.17096089 -0.12514415 -0.76707119 144 134 120
-0.17059763 -0.12593044 -0.76737171 146 135 119
-0.17037329 -0.12549712 -0.76688755 143 135 119
-0.17209488 -0.12422562 -0.76725256 144 131 124
-0.17030478 -0.12557785 -0.76689494 143 136 119
-0.1723512 -0.12482573 -0.76829571 151 132 122
-0.17244548 -0.12496604 -0.76878983 153 134 120
-0.17308426 -0.12430132 -0.76874912 153 132 122
-0.17116426 -0.12592675 -0.76808995 150 135 118
-0.17229792 -0.12537228 -0.76913786 155 136 119
-0.17141241 -0.12650318 -0.76900977 157 136 118
-0.17269784 -0.12538041 -0.76961839 159 135 119
-0.17094505 -0.12694827 -0.76881856 156 136 118
-0.1689993 -0.12658158 -0.76631576 149 136 117
-0.1689544 -0.12663652 -0.76630604 149 136 117
-0.17105339 -0.12893136 -0.76885951 153 137 119
-0.17184503 -0.12736212 -0.76986998 163 136 119
-0.17178267 -0.12957831 -0.76969391 157 137 120
-0.17166172 -0.12937662 -0.76955986 156 137 119
-0.17000026 -0.1301434 -0.76747388 142 142 114
-0.17091651 -0.13030517 -0.76859355 149 140 117
-0.1699439 -0.12913452 -0.76747787 143 141 114
-0.17173909 -0.13040115 -0.76960236 155 138 119
-0.16992566 -0.12805642 -0.76753402 146 139 116
-0.16961391 -0.12947348 -0.76703942 143 141 114
-0.16971774 -0.13033512 -0.76710689 141 143 113
-0.16886392 -0.12821358 -0.76629525 148 139 115
-0.16871805 -0.12776574 -0.76618361 150 138 116
-0.16992331 -0.13193396 -0.76674587 136 145 112
-0.17135526 -0.13243596 -0.76828349 146 141 117
-0.17040524 -0.13201757 -0.76732564 139 144 114
-0.17035227 -0.13123435 -0.76766318 142 143 114
-0.17023709 -0.13228768 -0.76697892 136 144 113
-0.17202447 -0.13474439 -0.76822495 130 142 114
-0.17191267 -0.13325763 -0.76871383 140 141 116
-0.17274128 -0.13438752 -0.76940823 133 140 116
-0.17098887 -0.13385935 -0.76712692 136 143 114
-0.17172632 -0.13429531 -0.76799363 133 142 115
-0.17194846 -0.13352835 -0.7686469 138 141 116
-0.17147496 -0.13412237 -0.76770884 134 142 114
-0.16980806 -0.13193852 -0.76659858 136 145 112
-0.16967471 -0.13176265 -0.76652622 137 145 112
-0.17297207 -0.13565245 -0.76908427 124 139 116
-0.17172404 -0.13527279 -0.76750606 126 142 114
-0.17173164 -0.13509591 -0.76761431 128 142 115
-0.17138794 -0.13530666 -0.76700568 125 143 114
-0.18533227 -0.12602317 -0.78550094 114 144 118
-0.18526523 -0.12533219 -0.78515786 106 144 119
-0.18509425 -0.12672229 -0.78531784 124 143 118
-0.18290794 -0.12546389 -0.78214413 120 146 115
-0.18347955 -0.12644489 -0.78328842 128 146 116
-0.18292464 -0.12466247 -0.78177696 112 145 116
-0.18329705 -0.12536344 -0.78255236 117 145 116
-0.1850033 -0.12659112 -0.78514737 123 143 118
-0.18312299 -0.12588595 -0.78260022 124 146 115
-0.18181862 -0.12858987 -0.78193724 148 141 116
-0.18304677 -0.12979536 -0.78351748 149 136 119
-0.18307666 -0.12958875 -0.78349918 148 137 118
-0.18170321 -0.12930536 -0.78198797 151 137 118
-0.18205674 -0.1278325 -0.78202784 144 145 114
-0.18257695 -0.12801029 -0.78262657 143 144 115
-0.18434376 -0.12722042 -0.78458488 131 144 117
-0.18320288 -0.12780756 -0.78332704 139 144 115
-0.1831048 -0.1276439 -0.78318924 139 144 115
-0.18389502 -0.12872198 -0.78426576 141 140 117
-0.18468221 -0.12758012 -0.7850318 131 142 118
-0.18402162 -0.12910603 -0.78446746 142 139 117
-0.18447591 -0.12775391 -0.78481376 133 142 117
-0.18130913 -0.13061661 -0.78182685 154 132 122
-0.18225896 -0.13116147 -0.78296572 154 130 122
-0.18163861 -0.13116503 -0.78230137 153 131 121
-0.14659342 -0.11844159 -0.74522221 172 138 118
-0.1473549 -0.11867468 -0.74596792 175 138 118
-0.14534706 -0.11913903 -0.74556679 169 137 117
-0.14554733 -0.11878542 -0.74528086 167 138 116
-0.14596082 -0.1187793 -0.74543124 168 138 117
-0.1454794 -0.11817428 -0.74439698 171 137 119
-0.14662138 -0.12090213 -0.74646133 168 137 115
-0.14523885 -0.12180166 -0.74573046 165 135 115
-0.14507899 -0.12156051 -0.74560094 165 135 115
-0.14472398 -0.1219961 -0.7454415 164 134 114
-0.14621624 -0.12138074 -0.74627209 168 136 115
-0.14591891 -0.12153364 -0.74611062 167 135 115
-0.14449732 -0.12094253 -0.74518406 163 135 115
-0.14388108 -0.12155458 -0.74488878 162 134 115
-0.14534763 -0.11951701 -0.74557799 168 137 116
-0.14456992 -0.11974726 -0.74519271 168 136 117
-0.14700434 -0.12591001 -0.74607664 175 134 117
-0.14749587 -0.12603641 -0.74638247 174 134 117
-0.14535464 -0.124914 -0.74534774 171 133 116
-0.14509179 -0.12669352 -0.74457812 174 131 117
-0.14692625 -0.12728418 -0.74553949 178 134 118
-0.14752597 -0.12786984 -0.74571389 177 134 118
-0.14808176 -0.12717488 -0.74640214 175 135 118
-0.14677715 -0.12771606 -0.74526113 179 133 119
-0.14719114 -0.12790057 -0.74546981 178 134 118
-0.14838868 -0.12920515 -0.74576312 177 133 118
-0.14655216 -0.12781571 -0.74506718 179 133 118
-0.1488049 -0.13004775 -0.74570835 178 132 119
-0.1467445 -0.13031726 -0.74419123 181 132 119
-0.14682378 -0.1302091 -0.74428898 181 132 119
-0.14401831 -0.12931043 -0.74285084 172 128 116
-0.14405107 -0.12957916 -0.74276149 172 128 116
-0.14473733 -0.13029161 -0.74290866 175 129 117
-0.14396071 -0.12865043 -0.74308503 173 128 116
-0.14553778 -0.12955312 -0.74372202 178 130 118
-0.14458093 -0.12844941 -0.74356097 174 129 117
-0.14634831 -0.1272743 -0.74515271 179 133 119
-0.14610215 -0.12933813 -0.74416584 180 131 119
-0.14504856 -0.12856272 -0.74381125 176 130 117
-0.14647509 -0.12950233 -0.74433571 181 132 119
-0.15045591 -0.13182843 -0.74616665 178 133 119
-0.15142719 -0.13443534 -0.74598765 180 132 120
-0.15136591 -0.13346063 -0.74629176 178 132 119
-0.14824449 -0.13341404 -0.7440902 184 132 120
-0.14674026 -0.13353851 -0.74304777 184 132 119
-0.14773399 -0.13292615 -0.743918 183 132 119
-0.14692438 -0.13305661 -0.74333513 184 132 119
-0.14759001 -0.13272353 -0.7438916 183 132 119
-0.14920267 -0.13430598 -0.74442166 184 132 120
-0.14885981 -0.13309884 -0.74460971 183 132 120
-0.14876251 -0.13159458 -0.74508685 180 132 119
-0.15033939 -0.13092203 -0.74640793 176 133 119
-0.14954446 -0.13286127 -0.74516362 181 132 120
-0.14974183 -0.1339623 -0.74490064 183 132 120
-0.14911893 -0.13340858 -0.74467498 183 132 120
-0.14964649 -0.13346477 -0.74501526 182 132 120
-0.14567754 -0.1323963 -0.7427507 181 131 118
-0.14544722 -0.13232209 -0.74262857 180 131 117
-0.15150928 -0.13549137 -0.74571103 182 133 120
-0.15259866 -0.13712724 -0.74606711 182 133 120
-0.15161365 -0.1355512 -0.74577475 182 133 120
-0.15261568 -0.13617805 -0.74637049 180 133 119
-0.15268946 -0.13849661 -0.74576044 177 136 120
-0.15136369 -0.13802564 -0.74490458 173 137 120
-0.1512832 -0.13743483 -0.74500257 175 136 120
-0.15096539 -0.1383428 -0.74452502 169 139 119
-0.15130791 -0.13635935 -0.7453078 180 134 120
-0.15032724 -0.13728486 -0.74433911 172 138 120
-0.14982767 -0.1364769 -0.74421853 180 135 120
-0.149928 -0.13694715 -0.74416059 177 136 120
-0.14952786 -0.13765737 -0.74370188 177 136 121
-0.1483587 -0.13678089 -0.74315661 183 134 121
-0.14874378 -0.13537215 -0.74379468 184 133 120
-0.14898804 -0.13569701 -0.74386895 184 133 121
-0.14881077 -0.13715339 -0.74335605 183 134 122
-0.14887604 -0.13612868 -0.74367738 184 133 121
-0.14834003 -0.13528189 -0.74355084 184 133 120
-0.1527022 -0.13882115 -0.74568474 176 136 120
-0.15306221 -0.13969316 -0.74572724 174 134 120
-0.15373965 -0.13926494 -0.74633878 179 133 121
-0.15270518 -0.14073601 -0.74520159 168 134 120
-0.15319349 -0.14012371 -0.7457155 173 133 121
-0.15239461 -0.14044033 -0.74504668 168 135 120
-0.15298449 -0.14122394 -0.74528527 167 134 120
-0.15211836 -0.14071213 -0.74477929 163 136 120
-0.15177797 -0.14135471 -0.74438149 155 137 119
-0.15196857 -0.14213431 -0.74433529 151 136 118
-0.15098612 -0.13981417 -0.74417269 160 139 119
-0.1510344 -0.14097252 -0.74393415 151 139 118
-0.15178794 -0.14090154 -0.74449569 159 137 119
-0.15045728 -0.14170808 -0.74334323 140 141 117
-0.15012443 -0.14196752 -0.74306047 137 141 116
-0.15006791 -0.13878711 -0.74376792 167 140 120
-0.14929356 -0.13969289 -0.74303699 164 138 121
-0.14956997 -0.14225146 -0.74263012 135 141 116
-0.15127984 -0.14336517 -0.743572 135 139 116
-0.1520555 -0.14267483 -0.7442736 147 137 118
-0.15163158 -0.14277984 -0.74394572 142 138 117
-0.17080237 -0.12154936 -0.76172316 114 145 122
-0.1722206 -0.12113532 -0.76178581 97 143 127
-0.1699755 -0.1208656 -0.75998288 102 149 124
-0.1700449 -0.12097219 -0.76021957 104 149 124
-0.17084789 -0.12111255 -0.76094526 103 146 124
-0.17012334 -0.12152726 -0.76128739 117 146 122
-0.16618235 -0.12175082 -0.75992417 142 149 118
-0.16696805 -0.12236913 -0.76123178 140 150 118
-0.16922544 -0.12211932 -0.76190823 132 146 119
-0.16778183 -0.12243766 -0.7617169 138 149 118
-0.16761498 -0.12214623 -0.76119548 138 148 118
-0.16635326 -0.12170593 -0.7599352 142 148 118
-0.16891359 -0.12191506 -0.76145154 133 146 119
-0.16887648 -0.12162437 -0.76097691 132 144 120
-0.16766493 -0.1211162 -0.75960982 134 145 120
-0.1689387 -0.12065604 -0.75921583 109 149 123
-0.16904585 -0.12108891 -0.76005113 117 147 122
-0.16991638 -0.11998963 -0.7583366 82 154 127
-0.16854097 -0.12047163 -0.7587347 109 149 123
-0.16461971 -0.12289372 -0.76055819 164 143 119
-0.16468588 -0.12168731 -0.75878012 164 138 121
-0.16490997 -0.12205932 -0.7595101 160 141 119
-0.16515775 -0.12249701 -0.76035732 156 145 118
-0.16437422 -0.1222337 -0.75938475 169 138 121
-0.16423276 -0.12164567 -0.75838614 172 134 123
-0.16567063 -0.12294407 -0.76141226 148 152 116
-0.16187565 -0.12298611 -0.75851977 203 121 126
-0.16542371 -0.12430723 -0.76163226 148 149 116
-0.16544788 -0.12364781 -0.76141948 146 152 116
-0.16395624 -0.12532012 -0.7603997 156 144 116
-0.16387387 -0.12684001 -0.76086104 163 137 117
-0.16445267 -0.12474173 -0.76073122 152 147 116
-0.16409257 -0.1262541 -0.76088703 160 140 116
-0.16352139 -0.12321487 -0.75988191 180 134 122
-0.16445407 -0.12342352 -0.76062131 162 143 119
-0.16307782 -0.12486662 -0.75962341 172 136 120
-0.16217121 -0.12534434 -0.75894088 182 130 121
-0.16373476 -0.12508246 -0.76014799 159 143 117
-0.16495122 -0.12328794 -0.7610023 156 146 118
-0.16151606 -0.12660691 -0.75838447 172 134 118
-0.16200472 -0.12505738 -0.75877595 186 128 122
-0.16181414 -0.12344308 -0.75854594 199 123 126
-0.16601731 -0.13033889 -0.76190186 180 135 118
-0.16218734 -0.12809861 -0.75851542 172 136 117
-0.16313736 -0.13020195 -0.75869036 179 135 117
-0.16272017 -0.1296443 -0.75846159 177 135 116
-0.16259271 -0.12853989 -0.75881606 173 135 116
-0.16468586 -0.13037299 -0.76040244 181 135 118
-0.16309902 -0.12936202 -0.75902772 176 135 117
-0.16404182 -0.12956387 -0.76002568 178 135 118
-0.1639986 -0.12817492 -0.76056302 171 136 117
-0.16498639 -0.12749113 -0.76190567 164 137 117
-0.16546625 -0.13009827 -0.76141536 180 135 119
-0.16305484 -0.12771438 -0.75971317 171 136 117
-0.16287988 -0.12741952 -0.75963706 169 136 117
-0.16546348 -0.12928031 -0.76173031 175 136 119
-0.16569646 -0.12925783 -0.76197702 174 136 118
-0.1617884 -0.12738602 -0.75845248 170 135 117
-0.1664542 -0.13181683 -0.76184684 176 136 119
-0.16646701 -0.13347478 -0.76104754 172 137 121
-0.16630796 -0.13207912 -0.76151782 177 136 120
-0.16683941 -0.13344604 -0.76157308 167 137 120
-0.16558325 -0.13245332 -0.76046503 180 135 121
-0.16533753 -0.13472345 -0.75907958 175 136 124
-0.16585565 -0.13465181 -0.75967425 174 136 125
-0.16429831 -0.13206038 -0.7591753 181 134 120
-0.16510759 -0.13314125 -0.75960839 180 135 122
-0.16303614 -0.13090506 -0.75825346 180 134 116
-0.16381535 -0.13215239 -0.75857437 180 135 119
-0.16425243 -0.13097841 -0.75962514 181 134 118
-0.16386376 -0.13120683 -0.75906974 181 134 118
-0.16536248 -0.13517091 -0.75887078 173 136 124
-0.16536173 -0.1357709 -0.75855172 170 136 123
-0.16506666 -0.13487667 -0.75870746 176 135 125
-0.17780891 -0.12485238 -0.77519381 146 133 121
-0.17798069 -0.12460166 -0.77514946 141 134 120
-0.17866646 -0.1259961 -0.77756357 155 132 121
-0.17909335 -0.12368229 -0.77610457 112 140 118
-0.17960696 -0.12393634 -0.77737319 112 141 117
-0.17834803 -0.12331852 -0.77426845 114 138 120
-0.17890711 -0.12449073 -0.77654099 128 137 120
-0.17927462 -0.12328583 -0.77606845 104 142 117
-0.17624027 -0.12655579 -0.77473855 156 134 120
-0.17747235 -0.12594374 -0.77576727 160 132 121
-0.17554651 -0.12685221 -0.77411473 153 135 119
-0.1776572 -0.12632728 -0.77636105 168 130 122
-0.17725477 -0.12595135 -0.77549267 158 132 121
-0.17697263 -0.12485433 -0.7741133 139 136 119
-0.17794797 -0.1280386 -0.77754545 172 129 122
-0.1775983 -0.12795375 -0.77706593 173 129 122
-0.17653793 -0.12836991 -0.77577788 160 132 120
-0.17671691 -0.12829779 -0.7759949 162 132 120
-0.17717278 -0.13002659 -0.77693486 160 131 120
-0.17705804 -0.12847662 -0.77647257 165 131 121
-0.1770615 -0.12926768 -0.77663726 163 131 120
-0.1750209 -0.1301062 -0.7739327 144 137 115
-0.17498691 -0.13038711 -0.77392334 143 137 114
-0.17652145 -0.13023178 -0.77605277 155 133 118
-0.17665739 -0.12959602 -0.77615666 157 132 119
-0.1761886 -0.13072146 -0.77565306 151 134 117
-0.1762584 -0.12956753 -0.77559358 154 134 118
-0.17496552 -0.13040727 -0.7738961 143 138 114
-0.17779405 -0.13245705 -0.77760488 138 134 118
-0.17671354 -0.13325 -0.77572471 138 134 118
-0.17689526 -0.13375674 -0.77592474 128 135 116
-0.17666976 -0.13429293 -0.77545828 123 136 116
-0.1763722 -0.13445759 -0.77494442 124 135 116
-0.17770074 -0.13141014 -0.77767241 154 131 120
-0.17585875 -0.13338523 -0.77444196 136 134 117
-0.17572905 -0.13285504 -0.77442133 137 136 116
-0.17583697 -0.13265944 -0.77463198 139 135 116
-0.17606494 -0.1322374 -0.77507973 143 134 117
-0.17584752 -0.13301182 -0.77453965 138 134 117
-0.17679776 -0.13179584 -0.77624094 151 132 119
-0.17658991 -0.13601126 -0.77433288 118 136 115
-0.17643487 -0.13598336 -0.77410156 120 136 116
-0.1764783 -0.13630366 -0.77393872 120 137 115
-0.1906492 -0.12652119 -0.79277748 103 141 118
-0.19038406 -0.12662297 -0.79245687 106 140 120
-0.19064792 -0.12680674 -0.79292154 106 141 119
-0.19106247 -0.12588254 -0.79299319 97 141 118
-0.18969457 -0.12710854 -0.79168499 116 138 123
-0.18998864 -0.12729341 -0.7921322 112 139 121
-0.18956755 -0.12893647 -0.79166931 105 138 120
-0.18825765 -0.12972109 -0.79009277 101 139 118
-0.18896791 -0.12887435 -0.79087538 106 138 120
-0.18872495 -0.12932953 -0.79061908 103 139 119
-0.18929815 -0.12804459 -0.7912091 111 138 121
-0.18800929 -0.12831783 -0.78953248 109 138 120
-0.18798853 -0.12953383 -0.7897042 102 139 118
-0.18876328 -0.12715581 -0.79039031 117 138 123
-0.15655531 -0.11798736 -0.74960089 151 141 121
-0.15509044 -0.11787722 -0.74872947 161 143 123
-0.15573943 -0.11861891 -0.75022912 162 141 118
-0.1558063 -0.11768688 -0.74876291 155 142 124
-0.15519851 -0.1188741 -0.75038278 168 141 117
-0.15782662 -0.11803455 -0.75027937 142 140 119
-0.15108083 -0.1186663 -0.74786472 190 138 120
-0.15082453 -0.11907959 -0.74826151 191 137 119
-0.14993666 -0.11881731 -0.74743956 190 137 120
-0.14976059 -0.11896062 -0.74754423 189 137 119
-0.15085074 -0.12282956 -0.74962664 169 134 117
-0.15196131 -0.12208605 -0.75011498 172 136 117
-0.15154858 -0.12211648 -0.7497986 170 135 117
-0.15353777 -0.11969545 -0.7501204 176 140 116
-0.15090854 -0.12224302 -0.74941432 171 134 117
-0.15125167 -0.12101259 -0.7492106 178 136 118
-0.1509525 -0.12016635 -0.74875587 184 136 118
-0.15173757 -0.12133267 -0.74960166 173 136 116
-0.15277508 -0.12052074 -0.74994397 174 138 117
-0.15106332 -0.11939377 -0.74856651 189 137 119
-0.14712758 -0.12001341 -0.74660903 171 137 116
-0.14968358 -0.11932625 -0.74776697 188 136 118
-0.14741388 -0.1199213 -0.746737 173 137 117
-0.14959763 -0.11987155 -0.74778944 189 135 119
-0.14809945 -0.12061886 -0.74714786 178 136 117
-0.14945209 -0.12301085 -0.74870962 168 133 116
-0.14953783 -0.12078349 -0.74803543 184 135 118
-0.14807273 -0.12163842 -0.74729753 179 134 116
-0.14929318 -0.12219398 -0.74832994 174 134 117
-0.14812735 -0.12277365 -0.74770957 171 134 115
-0.14859718 -0.12211522 -0.7478196 175 134 116
-0.14986196 -0.12272279 -0.7489 170 134 117
-0.15261599 -0.12622327 -0.75025642 169 135 118
-0.1514578 -0.12324468 -0.75017899 171 134 117
-0.15065347 -0.12444229 -0.74915248 169 134 117
-0.15070659 -0.12397612 -0.74934721 169 134 117
-0.15191109 -0.12623741 -0.74965262 169 135 117
-0.15224971 -0.12674324 -0.74978006 170 135 117
-0.15162897 -0.12566358 -0.74959522 169 135 117
-0.14720586 -0.12494528 -0.7465378 172 134 116
-0.14965403 -0.12664028 -0.74770755 172 135 117
-0.14822194 -0.12510139 -0.74720472 172 134 116
-0.15009166 -0.12679547 -0.74796486 172 135 117
-0.14811145 -0.1267176 -0.74659491 174 135 118
-0.15026453 -0.12548196 -0.74850714 170 135 116
-0.15024453 -0.12616538 -0.74827433 171 135 117
-0.14976172 -0.12338381 -0.74882919 168 133 116
-0.14992653 -0.12368561 -0.74884725 169 134 116
-0.14808032 -0.124016 -0.74745661 170 134 115
-0.14956208 -0.12346233 -0.74866509 169 134 116
-0.14981714 -0.1233198 -0.74888825 168 133 116
-0.15430577 -0.12943643 -0.75031954 172 134 118
-0.15147483 -0.13040699 -0.74755418 174 133 118
-0.15203778 -0.12956458 -0.74837637 174 134 118
-0.15149201 -0.1292941 -0.74804038 174 134 118
-0.15320572 -0.13074511 -0.74884009 174 133 118
-0.15196384 -0.12936242 -0.74840099 174 134 118
-0.15189292 -0.12856907 -0.74867892 173 134 118
-0.15179323 -0.13045 -0.74779886 174 133 118
-0.1538185 -0.1307357 -0.74935013 174 134 118
-0.15249521 -0.1290288 -0.74898207 173 134 118
-0.15356824 -0.1296678 -0.74960977 173 134 118
-0.15246575 -0.12838182 -0.74925005 172 135 117
-0.15188143 -0.12791048 -0.74896413 172 135 117
-0.15173532 -0.12762636 -0.74896806 171 135 118
-0.15418354 -0.13031125 -0.74984062 173 133 118
-0.14893396 -0.12706313 -0.7470504 173 135 117
-0.15015161 -0.12719072 -0.74785435 172 135 117
-0.1494046 -0.1290503 -0.74653846 174 134 118
-0.14950405 -0.12795691 -0.74707264 174 134 117
-0.1556173 -0.13219096 -0.75026596 176 134 118
-0.15584019 -0.13281326 -0.75016207 177 134 119
-0.15601948 -0.13424961 -0.74969876 175 135 118
-0.15443707 -0.1346481 -0.74824119 167 136 117
-0.15518188 -0.13208178 -0.74991053 175 134 118
-0.15485942 -0.13291769 -0.74930149 172 135 118
-0.15453026 -0.13332427 -0.74886447 170 135 118
-0.15325545 -0.13342889 -0.7478348 175 133 118
-0.15412027 -0.13157628 -0.74926144 173 133 118
-0.15412748 -0.13184962 -0.74915397 173 134 118
-0.15349016 -0.1341504 -0.74771589 173 134 118
-0.15267472 -0.13268055 -0.74766034 176 133 118
-0.15122871 -0.13091086 -0.74713951 174 133 118
-0.15396592 -0.13089597 -0.7494055 174 133 118
-0.1535015 -0.13120757 -0.74890345 174 133 118
-0.15298489 -0.13276823 -0.74788308 177 133 119
-0.15159494 -0.13279437 -0.74672538 177 133 119
-0.15328689 -0.13117358 -0.74873918 174 133 118
-0.15833922 -0.13864863 -0.75011629 181 130 122
-0.15508378 -0.13525569 -0.74855763 170 135 118
-0.156222 -0.13488159 -0.74961227 174 135 118
-0.15611403 -0.13555919 -0.74929827 174 134 118
-0.15587059 -0.13623507 -0.74887455 173 134 119
-0.15651314 -0.13668114 -0.74925089 176 132 120
-0.15690333 -0.13806969 -0.74912769 181 131 122
-0.15436478 -0.13696088 -0.74746388 177 133 119
-0.15597448 -0.13672566 -0.74880427 175 133 120
-0.15473413 -0.13594928 -0.74806267 172 134 118
-0.15603481 -0.13847883 -0.74831861 184 131 122
-0.15435007 -0.13768436 -0.7472322 181 132 120
-0.15452114 -0.13506542 -0.74816364 168 135 117
-0.15427159 -0.13667783 -0.74747837 176 134 119
-0.15275556 -0.13488518 -0.74686468 176 133 119
-0.15327524 -0.13730471 -0.74654275 180 133 120
-0.1534504 -0.13704157 -0.74675483 178 134 120
-0.15853643 -0.1390402 -0.75019222 179 131 122
-0.15477262 -0.13953353 -0.74704391 180 131 121
-0.15496899 -0.14079462 -0.74688751 174 132 121
-0.15554379 -0.14218545 -0.74698853 166 132 121
-0.15649505 -0.14223905 -0.747702 162 133 121
-0.15546723 -0.1415204 -0.74709165 169 132 121
-0.15643084 -0.14026968 -0.74814463 172 133 121
-0.15718758 -0.13914317 -0.74904251 180 131 122
-0.15752442 -0.14027476 -0.74900526 172 132 121
-0.15632042 -0.13921508 -0.74833971 180 131 122
-0.15617424 -0.13881963 -0.7483303 183 131 121
-0.15623131 -0.13898428 -0.74833119 182 131 121
-0.15781748 -0.14096265 -0.74905229 167 133 121
-0.15393499 -0.13871273 -0.74662066 182 133 121
-0.17446046 -0.12218665 -0.76556826 116 125 134
-0.17544334 -0.12206448 -0.76595628 106 129 133
-0.17466506 -0.1218776 -0.76502651 106 129 133
-0.17160065 -0.1228743 -0.76501632 137 131 126
-0.17126161 -0.12265062 -0.76431996 135 134 125
-0.1715368 -0.12237257 -0.76394975 131 134 126
-0.17221974 -0.12283644 -0.76538944 136 128 128
-0.17363089 -0.12184389 -0.76425701 111 129 133
-0.17216623 -0.12151523 -0.76251996 107 140 126
-0.1738148 -0.12219597 -0.76515734 121 124 134
-0.17285405 -0.12227164 -0.76465726 126 129 131
-0.17269072 -0.12227727 -0.76455629 126 129 130
-0.16817984 -0.12270483 -0.76237285 138 148 118
-0.16826162 -0.12287439 -0.76276249 140 146 119
-0.16844527 -0.12256506 -0.76225656 136 148 118
-0.17009006 -0.123077 -0.76428622 142 137 122
-0.17090614 -0.124015 -0.76591426 138 132 123
-0.17165484 -0.12312704 -0.76548946 139 129 127
-0.16807157 -0.12319833 -0.76307464 143 145 118
-0.16703539 -0.12414256 -0.76285052 147 146 117
-0.16873297 -0.1242215 -0.76386839 149 138 120
-0.1668933 -0.12576999 -0.76336497 156 139 118
-0.1660623 -0.12421006 -0.76230842 147 150 116
-0.16687706 -0.12578256 -0.76336008 156 139 118
-0.16870581 -0.12484713 -0.76450849 148 137 119
-0.16986923 -0.12432265 -0.76546031 139 137 119
-0.16934599 -0.12500317 -0.76552004 142 138 118
-0.16909769 -0.12499762 -0.76518804 143 137 119
-0.16792634 -0.12528738 -0.76396835 153 137 119
-0.16748296 -0.12638058 -0.76449329 154 137 118
-0.16682377 -0.12679096 -0.76406282 158 137 117
-0.16801444 -0.12681332 -0.76539463 153 137 117
-0.16575123 -0.12679775 -0.76292944 162 138 118
-0.16556278 -0.12556802 -0.76226348 154 143 117
-0.16613345 -0.12858497 -0.76278609 169 137 118
-0.16718562 -0.12720935 -0.7644816 159 137 117
-0.16779187 -0.12787423 -0.76489526 158 136 117
-0.16656356 -0.12727599 -0.76376855 162 137 118
-0.16780393 -0.12696038 -0.7652607 155 137 117
-0.16627197 -0.12889174 -0.76282388 170 137 118
-0.16751187 -0.12955092 -0.76413679 163 138 117
-0.16859025 -0.12974046 -0.76574832 148 141 114
-0.16716859 -0.13047393 -0.76347286 167 138 116
-0.1672056 -0.1294701 -0.7636832 167 137 117
-0.16846009 -0.13002248 -0.76550704 150 142 114
-0.16855609 -0.13036063 -0.76560122 148 142 114
-0.16864952 -0.12990831 -0.76581275 148 141 114
-0.16584393 -0.12900865 -0.76222205 172 136 118
-0.16575669 -0.12870306 -0.76225197 170 137 118
-0.17014223 -0.13448799 -0.76564026 130 146 111
-0.16922773 -0.13420627 -0.76451898 138 144 113
-0.16903141 -0.13399684 -0.76437604 140 144 114
-0.16830666 -0.13283019 -0.76407284 148 142 115
-0.16856152 -0.13195814 -0.76493472 147 143 114
-0.16929737 -0.13309494 -0.76527148 138 145 112
-0.16846929 -0.13347837 -0.76391351 146 142 115
-0.1684916 -0.13195911 -0.76482981 147 143 114
-0.16804825 -0.13125284 -0.76453847 155 142 114
-0.16822986 -0.13291995 -0.76391041 149 142 115
-0.16801271 -0.13205242 -0.7640506 154 141 115
-0.16731118 -0.13315803 -0.76238352 162 138 118
-0.16736853 -0.13293435 -0.76259214 161 139 117
-0.16812441 -0.13290553 -0.76375782 151 141 116
-0.17041747 -0.13660455 -0.76476115 125 142 114
-0.17042342 -0.13662444 -0.76475805 125 142 114
-0.16914828 -0.13642421 -0.76305795 139 142 116
-0.16891284 -0.13530728 -0.7634238 141 142 115
-0.17078994 -0.13884838 -0.7639026 122 138 117
-0.18216808 -0.12492748 -0.78102684 112 148 114
-0.18199371 -0.12485522 -0.7807911 110 148 114
-0.18169057 -0.12407043 -0.78006864 96 150 115
-0.18066688 -0.12433641 -0.77908373 110 143 117
-0.1804444 -0.12464335 -0.77898896 117 141 118
-0.17985511 -0.12523745 -0.77863336 132 138 119
-0.18012448 -0.12651552 -0.779535 148 139 118
-0.17906436 -0.12687032 -0.7785548 164 133 120
-0.18118474 -0.12617899 -0.78052413 133 145 115
-0.1804478 -0.12623252 -0.77975059 141 140 117
-0.18001491 -0.12437908 -0.77830595 116 141 118
-0.17941013 -0.12479097 -0.77779895 128 138 118
-0.18028723 -0.1243426 -0.7786299 114 142 117
-0.17970565 -0.12473774 -0.77814174 125 139 118
-0.17986411 -0.12736955 -0.77953517 156 138 117
-0.18115921 -0.12714309 -0.78089929 144 145 114
-0.17917131 -0.12788768 -0.77887577 161 135 119
-0.17852451 -0.12700859 -0.77801871 171 130 122
-0.18050364 -0.12785622 -0.78031474 148 142 116
-0.17785205 -0.13062885 -0.77793276 161 131 120
-0.17940712 -0.1294809 -0.77942586 154 137 117
-0.18029481 -0.12896834 -0.78031093 151 139 116
-0.18107395 -0.1306868 -0.78156066 154 132 122
-0.17912409 -0.13040592 -0.77930892 158 133 120
-0.17805718 -0.13076805 -0.77818918 160 131 119
-0.18133944 -0.12884647 -0.7814576 150 140 117
-0.17970321 -0.12972336 -0.77981061 155 135 119
-0.17789578 -0.13239515 -0.77774554 139 134 118
-0.17882371 -0.1332151 -0.77865785 125 136 117
-0.17853962 -0.13349542 -0.77828962 121 137 116
-0.1792548 -0.13316603 -0.77915072 124 136 117
-0.17867246 -0.13087657 -0.77889723 159 130 121
-0.18029414 -0.13087057 -0.78072011 156 131 121
-0.17851062 -0.13276544 -0.7783848 133 135 117
-0.17845714 -0.13355684 -0.7781862 120 137 116
-0.18051955 -0.13259819 -0.78085381 133 135 118
0 0 0 1 0 0 0 1 0 0 0 1 0 0 0 0 0 849 1 0 0
