ply
format ascii 1.0
comment PCL generated
element vertex 915
property float x
property float y
property float z
property uchar red
property uchar green
property uchar blue
element camera 1
property float view_px
property float view_py
property float view_pz
property float x_axisx
property float x_axisy
property float x_axisz
property float y_axisx
property float y_axisy
property float y_axisz
property float z_axisx
property float z_axisy
property float z_axisz
property float focal
property float scalex
property float scaley
property float centerx
property float centery
property int viewportx
property int viewporty
property float k1
property float k2
end_header
0.03849091 0.15612209 -0.77323186 21 133 118
0.037826229 0.15519287 -0.77304953 20 133 117
0.039174363 0.15583628 -0.77305371 20 133 118
0.039739735 0.1557675 -0.77296078 19 134 118
0.039710101 0.1565986 -0.77320033 21 133 118
0.038982175 0.15550371 -0.77298427 20 132 118
0.038516361 0.15461539 -0.7727927 19 132 117
0.03949967 0.15432128 -0.7725817 18 130 118
0.043522269 0.15466215 -0.77218044 19 134 119
0.044573527 0.15455458 -0.77201504 20 133 120
0.041266017 0.15585522 -0.77279699 19 132 118
0.041486368 0.15502967 -0.77254248 18 132 118
0.042009763 0.15574983 -0.77269858 20 133 118
0.035959084 0.15059938 -0.7718904 19 134 114
0.035279781 0.15061752 -0.77200764 20 133 115
0.034109637 0.15109093 -0.77235121 21 133 115
0.034643896 0.1510731 -0.7722578 21 133 115
0.03627193 0.15051353 -0.7718116 19 132 115
0.036589146 0.15405564 -0.77289039 20 132 116
0.03868914 0.15115845 -0.7716791 17 134 115
0.039685182 0.15075681 -0.77142733 16 134 116
0.040586524 0.15178016 -0.77163738 16 132 117
0.039564788 0.15270202 -0.77205658 17 132 116
0.040969964 0.15259953 -0.77184796 16 132 117
0.040118277 0.15043722 -0.77127218 16 134 116
0.037223879 0.15418909 -0.77283561 19 132 116
0.03820619 0.15389484 -0.77261394 18 134 116
0.03751193 0.15328735 -0.77250963 19 132 116
0.039110284 0.15365382 -0.77241945 18 132 117
0.037390716 0.15104328 -0.77180719 18 134 115
0.041840866 0.15097469 -0.77122915 16 132 117
0.0444935 0.15235184 -0.77134812 18 132 119
0.041710198 0.15070474 -0.77116197 16 132 117
0.041755486 0.15105344 -0.77126265 16 132 117
0.043433346 0.15213975 -0.77140319 18 132 118
0.042239297 0.15374257 -0.77205014 17 132 118
0.041206043 0.15343501 -0.77208215 16 132 117
0.041830327 0.15129657 -0.7713291 16 132 117
0.04470779 0.15427378 -0.77190948 19 134 119
0.043185662 0.15415604 -0.77206248 18 132 118
0.041205682 0.1511949 -0.77137506 16 132 117
0.047962654 0.1512771 -0.77075458 19 134 120
0.046035074 0.15051652 -0.77065349 17 132 120
0.048413657 0.1525391 -0.77115786 21 133 120
0.046004076 0.15227681 -0.77123499 19 135 119
0.046836887 0.15231535 -0.77121425 20 133 120
0.045396611 0.15128805 -0.77095866 17 134 120
0.04651409 0.15420748 -0.77180088 21 133 120
0.045096993 0.15170532 -0.77109689 17 134 120
0.051196638 0.15042025 -0.77030438 21 133 119
0.049355369 0.15054466 -0.77040958 18 132 119
0.049690269 0.15135092 -0.77069384 21 132 120
0.035015229 0.14826228 -0.77125472 21 133 115
0.036989745 0.14838971 -0.77104509 19 134 114
0.035102304 0.14680791 -0.77080417 21 133 114
0.037107043 0.14986499 -0.77147621 19 132 115
0.034761515 0.14917107 -0.77160466 21 133 115
0.039906099 0.14753887 -0.7703805 18 134 115
0.039313395 0.14771241 -0.77052557 18 134 115
0.039911442 0.14860801 -0.77072835 17 134 115
0.039083548 0.14823753 -0.77073115 18 134 115
0.039623294 0.14755741 -0.77042878 18 134 115
0.040575996 0.14675984 -0.7700265 18 134 115
0.037979126 0.14839105 -0.77092135 18 134 115
0.039137594 0.14939429 -0.77107924 17 134 115
0.03957573 0.1493496 -0.77101082 17 134 115
0.03780039 0.14893638 -0.77110863 18 134 115
0.03715951 0.14864801 -0.77110177 19 132 115
0.043536454 0.14897723 -0.77039909 17 132 118
0.044689208 0.14927763 -0.7703585 16 134 119
0.044607256 0.14907742 -0.77030116 16 134 119
0.041697137 0.14755665 -0.77014393 17 132 115
0.042782638 0.15024298 -0.77089769 16 132 118
0.041998267 0.14866164 -0.77047038 16 134 116
0.042500481 0.14964363 -0.77073401 16 132 117
0.042485945 0.14954454 -0.77070338 16 132 117
0.041112721 0.14795439 -0.77033943 17 132 115
0.047700655 0.14967386 -0.77022576 17 132 120
0.047128916 0.14895885 -0.7700392 17 132 120
0.045903094 0.15029937 -0.77058995 16 134 119
0.04857529 0.15036711 -0.77038366 17 132 120
0.047257986 0.15033831 -0.77048689 17 132 120
0.047444981 0.14992461 -0.7703315 17 132 120
0.05015349 0.14937875 -0.77000219 18 132 119
0.049984675 0.14946768 -0.77003467 18 132 119
0.050731994 0.14985935 -0.77013701 20 133 119
0.072035566 0.14705488 -0.7703976 21 133 120
0.076076292 0.14714152 -0.77101219 21 133 118
0.075608402 0.14690584 -0.77086395 21 133 118
0.075765699 0.14715956 -0.77097446 21 133 118
0.072826222 0.14729142 -0.77059561 21 133 120
0.02973824 0.14283058 -0.77037376 20 132 116
0.030730978 0.14274274 -0.77013201 20 132 116
0.029320559 0.14342961 -0.77066976 20 132 116
0.035486236 0.14480561 -0.77005339 20 133 115
0.035604674 0.14460698 -0.76996368 20 133 115
0.035663094 0.14619158 -0.77053165 21 133 115
0.038152006 0.14607622 -0.77014726 20 133 115
0.037227742 0.14624976 -0.7703495 20 133 115
0.073608041 0.14591543 -0.77022243 21 132 119
0.073877439 0.14559411 -0.77015859 21 132 119
0.075975239 0.14526424 -0.77036965 21 133 118
0.074819252 0.14601208 -0.77043784 21 132 119
0.072733365 0.145758 -0.77003992 21 132 120
0.028495321 0.14095636 -0.76995486 20 132 117
0.028526125 0.14147387 -0.77013147 20 132 117
0.027938165 0.14178635 -0.77035385 20 133 117
0.029584965 0.14248617 -0.77028358 20 132 116
0.044837948 0.1474524 -0.76973057 16 132 118
0.044087891 0.14725208 -0.76975465 16 132 117
0.045409188 0.14710014 -0.76957005 15 134 117
0.045102052 0.14663188 -0.76943856 15 134 117
0.048349448 0.14759305 -0.76951116 15 132 119
0.048484851 0.14734513 -0.76942223 15 132 119
0.047223885 0.14723586 -0.76948345 15 132 119
0.050718311 0.14699253 -0.76924759 17 132 120
0.049513988 0.14667535 -0.76917034 15 134 119
0.049838744 0.14810041 -0.76961607 17 132 120
0.049122412 0.14819972 -0.76966149 16 132 120
0.051293816 0.14877221 -0.76978672 19 134 119
0.05072844 0.14846128 -0.76970613 18 132 119
0.050702356 0.14886522 -0.7698307 19 132 120
0.05098854 0.1488893 -0.76983064 19 132 119
0.053506218 0.14807047 -0.7695142 21 133 119
0.05388144 0.14782032 -0.76942796 20 135 118
0.05482135 0.14722595 -0.76922172 20 135 118
0.053325515 0.14696975 -0.76918107 19 134 119
0.056525283 0.14713813 -0.76916891 23 133 118
0.057119977 0.14738576 -0.76927251 23 133 118
0.05776513 0.14710289 -0.76920474 21 133 118
0.060582612 0.14690223 -0.76925123 20 132 120
0.061872113 0.14750344 -0.76952606 21 132 120
0.063865744 0.14697884 -0.769485 20 132 120
0.064599 0.14699155 -0.76954001 21 132 121
0.067619652 0.1468398 -0.76977944 21 132 119
0.033986572 0.14333072 -0.76971322 20 133 115
0.036523163 0.14374208 -0.76951808 20 133 115
0.036971126 0.14422061 -0.76963431 20 133 115
0.035739932 0.14426956 -0.76982021 20 133 115
0.037549749 0.14496844 -0.76982671 19 134 115
0.038650457 0.14413778 -0.76935446 18 134 115
0.037656561 0.14448099 -0.76963013 19 134 115
0.040161546 0.14432278 -0.76925361 18 134 115
0.039470714 0.14484213 -0.76949692 18 134 115
0.039812244 0.14392339 -0.76916009 18 134 115
0.039222434 0.14275979 -0.76884204 18 134 115
0.040570173 0.14591378 -0.76973075 18 132 115
0.044301722 0.14541672 -0.76912749 16 132 117
0.044673745 0.14423519 -0.76869482 15 134 117
0.043930266 0.14461915 -0.76891047 16 134 117
0.044808358 0.14599925 -0.76925761 16 132 117
0.04474175 0.14614424 -0.76931322 16 132 117
0.041300435 0.14287955 -0.76865667 18 134 115
0.042026415 0.14477904 -0.76919138 17 134 115
0.04182798 0.14569643 -0.76951522 17 134 115
0.041666839 0.14329235 -0.76874793 18 134 115
0.041925643 0.1459929 -0.76960057 17 132 115
0.048264977 0.14428619 -0.7684378 14 132 120
0.046313439 0.14343195 -0.76830018 14 132 118
0.04712224 0.14460583 -0.76862842 14 134 118
0.047965057 0.14351486 -0.76820499 14 132 120
0.048191436 0.14372006 -0.76825607 14 132 120
0.045691323 0.14562859 -0.76906711 15 134 118
0.04512668 0.14464022 -0.76878315 15 132 118
0.046608336 0.14565991 -0.76901168 15 132 118
0.0453187 0.14479218 -0.76881927 15 132 118
0.047068391 0.14530359 -0.76886171 15 132 118
0.045340389 0.14565577 -0.7691012 15 134 118
0.051582355 0.14507537 -0.76860684 16 132 121
0.051370576 0.14294258 -0.76793057 14 132 121
0.052643076 0.14611956 -0.76893181 18 132 120
0.052034035 0.14365122 -0.76815146 15 132 121
0.049367506 0.14503542 -0.76863337 14 132 120
0.049900807 0.1461605 -0.76899511 15 134 119
0.049566925 0.14626524 -0.76903623 15 132 119
0.051480137 0.1464438 -0.76905811 17 132 120
0.050509758 0.14481266 -0.76853746 15 132 120
0.05468059 0.14354017 -0.76806712 15 132 120
0.056407787 0.14611007 -0.76883578 20 135 118
0.054622956 0.14321628 -0.76796699 15 132 121
0.055423774 0.14257967 -0.76775146 14 132 121
0.054092202 0.14316337 -0.76796126 15 132 121
0.053473432 0.14459795 -0.76842904 16 132 120
0.052993525 0.14474316 -0.76848733 16 132 121
0.054749779 0.14522329 -0.76859534 18 134 119
0.053513635 0.14611991 -0.76891154 18 134 119
0.053812969 0.14534687 -0.76865834 18 132 120
0.055637296 0.14609379 -0.76884949 19 135 118
0.059966926 0.14406498 -0.76828682 18 130 121
0.058628649 0.14281629 -0.76784122 16 130 121
0.059756972 0.14291342 -0.76789367 16 130 121
0.060444556 0.14592603 -0.76892447 19 132 120
0.058203887 0.14302014 -0.76790279 15 132 121
0.058396287 0.142894 -0.76786345 15 132 121
0.058434054 0.14447036 -0.76839465 17 132 120
0.057038773 0.14391927 -0.76816261 17 132 120
0.059281878 0.14526001 -0.76867795 18 132 120
0.056731667 0.14335187 -0.76797199 16 132 121
0.059049722 0.14590929 -0.76887113 19 134 119
0.062819853 0.14330021 -0.76811963 17 130 120
0.061286785 0.14282168 -0.76790327 16 130 121
0.063284561 0.14455315 -0.76860523 18 130 120
0.063783221 0.14470112 -0.76867276 18 132 120
0.063484684 0.1443378 -0.76852822 18 130 120
0.064289309 0.1429521 -0.76802111 17 130 120
0.06124777 0.14350055 -0.76815069 17 130 121
0.061829157 0.14409469 -0.76838869 18 130 121
0.062945873 0.14626682 -0.76919448 19 132 120
0.061660863 0.14640278 -0.76915848 19 132 120
0.060893353 0.14510483 -0.76867068 19 130 121
0.066765487 0.1439362 -0.76862085 18 132 119
0.06642358 0.14363156 -0.76847273 17 132 120
0.067505285 0.1440434 -0.76873374 18 132 119
0.065110572 0.14286713 -0.76805633 17 130 120
0.068239458 0.14386646 -0.76873916 18 132 119
0.067767553 0.14454891 -0.76894975 19 132 119
0.065775767 0.14419639 -0.76862258 18 130 120
0.065449089 0.14494205 -0.76887423 18 132 119
0.067106105 0.14628179 -0.76954001 20 132 119
0.065036558 0.14479399 -0.7687788 18 132 119
0.066899493 0.14630727 -0.76953 20 132 119
0.064690977 0.14392991 -0.76841825 18 130 120
0.070341259 0.1458699 -0.76976502 20 132 119
0.069974564 0.14635745 -0.76989877 20 132 119
0.071466327 0.14496253 -0.76957363 21 132 120
0.071684681 0.14317453 -0.76893646 20 133 120
0.070981905 0.14444345 -0.76931739 20 133 120
0.070267417 0.14437369 -0.76919776 19 134 119
0.068450034 0.14469036 -0.76907319 19 132 119
0.070377596 0.14327137 -0.7687977 19 132 119
0.068692528 0.14608665 -0.76963115 20 132 119
0.069564901 0.1446085 -0.76919186 19 134 119
0.068722479 0.1443211 -0.76897073 19 132 119
0.074075706 0.1430323 -0.76929682 21 132 119
0.072358452 0.1439368 -0.76931304 20 133 120
0.073611207 0.14385626 -0.76951689 21 132 120
0.073000938 0.14271247 -0.76897722 20 133 120
0.07437472 0.14352873 -0.76953745 21 132 119
0.075013891 0.1435684 -0.76966774 21 133 118
0.074008726 0.14441058 -0.76979119 21 132 119
0.02595425 0.13886923 -0.76969659 21 132 118
0.028817503 0.14030671 -0.76967162 20 132 118
0.029148431 0.14011428 -0.76954502 20 130 118
0.027180659 0.13911501 -0.76955914 20 132 118
0.029190594 0.139474 -0.76931667 20 130 119
0.031259641 0.1421089 -0.76980108 20 132 116
0.030752726 0.14126509 -0.76961565 20 132 117
0.030481312 0.14121638 -0.76965457 20 132 117
0.029349918 0.14085829 -0.76976347 20 132 118
0.032419071 0.14088093 -0.76916826 20 133 117
0.029843621 0.1389942 -0.76902646 20 130 119
0.031883087 0.1406475 -0.76918888 20 132 118
0.032192931 0.14027521 -0.76901722 20 133 117
0.031447638 0.13975886 -0.76898557 20 132 118
0.032101009 0.1390347 -0.76864278 20 132 118
0.036373228 0.14174932 -0.76885265 20 132 116
0.03666183 0.1406348 -0.76848316 20 133 116
0.037063126 0.1420908 -0.76886731 20 132 116
0.036230415 0.1402954 -0.76843637 20 133 116
0.036662482 0.13928254 -0.76807898 20 133 116
0.033759881 0.13906397 -0.76838154 20 133 117
0.033579666 0.14222209 -0.76939911 20 133 116
0.034117449 0.14048533 -0.7687754 20 133 117
0.036062166 0.14234185 -0.76908219 20 132 116
0.034183685 0.14152379 -0.76909292 20 133 116
0.033293247 0.13985533 -0.76869476 20 133 117
0.03887035 0.13947222 -0.76788098 19 134 116
0.040299721 0.1393341 -0.7676698 18 132 116
0.040849309 0.14144701 -0.76826066 18 134 115
0.040510595 0.13993092 -0.76783013 18 132 116
0.04012277 0.14121252 -0.76827353 19 132 116
0.03823109 0.13944815 -0.76794875 20 133 116
0.037312791 0.13942066 -0.76804203 20 133 116
0.037883047 0.14167187 -0.76865405 20 132 116
0.039976221 0.14210762 -0.7685619 18 134 115
0.038421541 0.14136381 -0.7685048 19 134 116
0.039580274 0.14212804 -0.76861006 19 134 116
0.042421691 0.13896739 -0.76731008 16 132 117
0.042895641 0.13994732 -0.76755345 16 132 117
0.044353507 0.14168866 -0.7679159 15 132 117
0.043662842 0.14060226 -0.76766491 15 134 117
0.043143049 0.13962851 -0.7674287 15 134 117
0.04357833 0.13985558 -0.76744819 15 132 118
0.044387825 0.14212535 -0.76804495 15 132 117
0.042037386 0.14073993 -0.7678985 16 134 116
0.041874725 0.14186779 -0.76826805 17 132 115
0.041045442 0.1420064 -0.7684111 17 134 114
0.042315096 0.14066176 -0.7678408 16 134 117
0.045989688 0.13940839 -0.76707053 14 132 120
0.045221385 0.13936296 -0.76712424 14 132 119
0.046015911 0.1409383 -0.76754278 14 132 119
0.044991188 0.13910131 -0.76706201 14 132 119
0.044994485 0.14038138 -0.7674498 14 134 118
0.046173353 0.14138508 -0.76766652 14 132 119
0.055932954 0.13973385 -0.76675111 14 132 122
0.055883639 0.1399574 -0.76682979 14 132 122
0.054590009 0.14026164 -0.76696104 14 132 121
0.055218231 0.14039655 -0.76699555 14 132 121
0.056521077 0.13952149 -0.7666657 14 132 122
0.054962408 0.14146148 -0.7673713 14 132 121
0.053146802 0.14057744 -0.76710045 14 130 122
0.053469684 0.13956657 -0.76674163 14 130 122
0.054848827 0.14208058 -0.76758933 14 132 121
0.056191631 0.1422717 -0.76762849 14 132 121
0.059291102 0.13992426 -0.76683265 14 132 121
0.060268696 0.14148392 -0.76739895 16 130 121
0.059837319 0.13977067 -0.76678038 14 132 121
0.060511794 0.14124273 -0.76731354 16 130 121
0.059434008 0.13974968 -0.76677066 14 132 121
0.06029968 0.139543 -0.76670098 14 132 122
0.05808745 0.14229652 -0.76765335 15 132 121
0.056844074 0.14107338 -0.76720643 14 132 121
0.060496181 0.14255792 -0.76778615 16 130 121
0.058622725 0.14080118 -0.76714271 15 130 121
0.058046125 0.14235297 -0.76767224 15 132 121
0.057353169 0.14109768 -0.76722372 14 132 121
0.063116021 0.13969062 -0.76685721 14 132 121
0.062940702 0.13891704 -0.76659167 14 130 122
0.064007051 0.13926531 -0.7667613 14 130 121
0.063428648 0.13900243 -0.76664472 14 132 121
0.064260475 0.14044702 -0.7671662 15 130 121
0.063197292 0.14186163 -0.76759672 16 130 121
0.06371931 0.14217731 -0.76772219 16 130 121
0.06202073 0.14059567 -0.76711452 15 132 121
0.061183497 0.14170568 -0.76749474 16 130 121
0.061232012 0.14140965 -0.76738936 16 130 121
0.067952402 0.14036816 -0.76749754 15 134 120
0.067703441 0.13991325 -0.76732266 15 134 120
0.06775967 0.13965893 -0.76724464 15 134 120
0.067702167 0.14168903 -0.7679072 17 132 120
0.068165876 0.14168696 -0.76795322 17 132 120
0.065694518 0.14187029 -0.76776993 16 130 121
0.068294615 0.14253685 -0.76824605 17 132 120
0.066184819 0.14216976 -0.76791734 16 132 120
0.06567283 0.14229268 -0.76790792 16 132 120
0.066426702 0.142286 -0.76797968 16 132 120
0.067126863 0.14165922 -0.76784033 16 132 120
0.069784857 0.13897936 -0.76727045 16 132 120
0.069797151 0.13982214 -0.76755106 17 132 120
0.069738947 0.13891551 -0.76724321 16 132 120
0.070925973 0.14017014 -0.76781559 18 132 120
0.071440652 0.13976458 -0.76774949 18 132 120
0.071311943 0.14191929 -0.76844519 19 132 120
0.071095735 0.14165173 -0.76832807 18 132 120
0.070643894 0.14187467 -0.76834089 18 132 119
0.071161404 0.14149855 -0.76828647 18 132 120
0.070223145 0.14159256 -0.76819158 18 132 120
0.068620957 0.1425059 -0.76827741 18 132 119
0.072793052 0.13878687 -0.76763529 19 132 120
0.074417189 0.13982315 -0.76828414 20 132 119
0.074577883 0.13928032 -0.76813769 20 132 119
0.073311538 0.13890064 -0.7677716 19 132 119
0.074897796 0.14029229 -0.76852924 20 133 118
0.074043579 0.14041591 -0.76840621 20 132 119
0.073033966 0.14141512 -0.76854837 19 134 119
0.072572149 0.14167367 -0.76854777 19 134 119
0.07335037 0.14156929 -0.76865846 19 134 119
0.073735803 0.14257391 -0.76906294 20 133 119
0.075389042 0.14226647 -0.7692697 21 133 118
0.073402956 0.14201516 -0.76881588 20 133 119
0.076483563 0.14044648 -0.7688778 21 133 118
0.076228775 0.1422385 -0.76941812 21 133 118
0.076469958 0.14110318 -0.76908976 21 133 118
0.076573789 0.14016502 -0.76880169 21 133 118
0.024851395 0.13674663 -0.76917416 21 132 119
0.024908608 0.13572541 -0.7688033 21 132 120
0.027482621 0.136025 -0.76841319 19 130 120
0.027793048 0.13620424 -0.76841831 19 130 120
0.027819321 0.13601094 -0.76834345 19 130 120
0.027617529 0.1354595 -0.76818299 18 132 120
0.028271616 0.13642688 -0.76840687 19 130 120
0.027289862 0.13517842 -0.76814437 18 132 120
0.026254676 0.13665172 -0.76886463 19 132 119
0.026089199 0.13720673 -0.76908934 20 132 119
0.026896942 0.13703446 -0.76888227 19 132 119
0.028205046 0.138358 -0.76910907 20 130 119
0.02763964 0.13748443 -0.76890528 19 132 119
0.026261434 0.13803138 -0.76934725 20 133 118
0.033097643 0.13571385 -0.76745141 19 130 119
0.029885285 0.13522834 -0.76768106 18 130 120
0.030487869 0.13564217 -0.76773572 18 130 119
0.030997211 0.13643767 -0.76791692 19 130 119
0.03112402 0.13492276 -0.7674433 18 130 119
0.03289488 0.1355918 -0.76743823 19 130 119
0.031672224 0.13785394 -0.76830828 20 132 118
0.031474814 0.13709138 -0.76806754 19 132 118
0.031591535 0.13737404 -0.76814914 19 132 118
0.030036362 0.13611287 -0.76796669 18 130 119
0.030970275 0.13794608 -0.76846486 20 130 119
0.035569575 0.13713087 -0.76756835 20 132 118
0.036064386 0.13517255 -0.76691192 18 132 118
0.034630343 0.13615948 -0.76739317 19 132 118
0.036539912 0.13779031 -0.767645 20 133 117
0.036736444 0.13738905 -0.76749843 20 133 117
0.035879955 0.13684092 -0.76744109 19 134 117
0.03403775 0.1358197 -0.7673654 19 132 118
0.0347609 0.1386622 -0.76813459 20 133 117
0.033404611 0.13742554 -0.76793194 20 132 118
0.033914138 0.13811488 -0.76807618 20 132 118
0.033546291 0.13816082 -0.76813662 20 132 118
0.034427613 0.13725506 -0.76775068 19 134 117
0.039582573 0.13642459 -0.76686227 16 132 117
0.040166464 0.13594298 -0.76664072 16 132 118
0.040965907 0.13761881 -0.76706022 16 132 117
0.040095508 0.13518226 -0.76641411 16 132 118
0.040141299 0.13698332 -0.76696593 16 132 117
0.038402602 0.13550994 -0.76672566 17 132 118
0.038836639 0.137977 -0.76742589 18 134 116
0.039742038 0.13762428 -0.76721239 17 132 118
0.038124338 0.13591039 -0.76688337 17 132 118
0.037382387 0.13724214 -0.7673744 19 132 117
0.038031589 0.13590592 -0.76689285 17 132 118
0.043924235 0.1365208 -0.76635665 14 132 120
0.043851949 0.13549437 -0.76602298 14 132 120
0.044319704 0.13682084 -0.76640159 14 132 120
0.042501777 0.13625038 -0.76646191 15 132 119
0.041888718 0.1351741 -0.76618826 15 132 119
0.041566402 0.13644902 -0.76662952 15 132 118
0.041186187 0.13563369 -0.76642025 15 132 118
0.044450697 0.13831845 -0.76688105 15 132 120
0.041150842 0.13791403 -0.76713014 16 132 117
0.042417351 0.13665645 -0.76659721 15 132 119
0.041632582 0.13693036 -0.76677102 15 132 117
0.044976272 0.1379741 -0.76669759 14 132 120
0.047112249 0.13857062 -0.76667148 14 132 121
0.059722777 0.13827948 -0.76626176 14 132 123
0.05935137 0.13770266 -0.76608455 14 132 123
0.057955045 0.13830629 -0.76625717 14 132 123
0.057115387 0.13859594 -0.76634604 14 132 123
0.063867562 0.13768542 -0.76624948 14 130 123
0.063947059 0.13836411 -0.76646686 14 130 122
0.061270233 0.13765396 -0.76612061 14 132 123
0.060672376 0.13845924 -0.76633167 14 132 123
0.060639296 0.1378269 -0.76614046 14 132 123
0.067482755 0.13797806 -0.76667035 14 132 121
0.067040838 0.13741657 -0.76644546 14 130 121
0.067826688 0.13595773 -0.76604646 14 130 123
0.068173401 0.13631871 -0.76619709 14 130 122
0.066945225 0.13834988 -0.76673633 14 132 121
0.06480743 0.13854779 -0.76658356 14 130 121
0.064719886 0.13708571 -0.76611423 14 130 123
0.069164082 0.13687523 -0.76650852 14 132 121
0.070709556 0.13574666 -0.7663579 15 132 121
0.070279859 0.1353499 -0.76616883 15 132 121
0.068728179 0.1371761 -0.7665453 14 132 121
0.071244106 0.13701463 -0.76683563 17 132 122
0.069760777 0.13841462 -0.76708382 16 132 121
0.069581494 0.13846041 -0.76707458 16 132 121
0.071009226 0.13677874 -0.76672965 16 132 121
0.06869901 0.13856977 -0.76699257 15 134 120
0.072950341 0.13543916 -0.76660103 17 134 120
0.073671207 0.13613378 -0.76695812 18 132 120
0.075257123 0.13614325 -0.76718777 19 134 119
0.074771091 0.13584918 -0.76701075 19 132 120
0.07608787 0.13717192 -0.76768285 20 133 118
0.074752681 0.13577528 -0.76698107 19 132 120
0.07337673 0.13712496 -0.76721829 18 132 120
0.072726399 0.13710509 -0.76708758 18 132 120
0.072822981 0.13625845 -0.76683736 17 134 120
0.073991619 0.1367926 -0.76723039 18 132 119
0.073933378 0.13752811 -0.76745278 18 132 119
0.028715994 0.13124888 -0.76662081 15 130 122
0.028692143 0.13403317 -0.76747453 18 130 121
0.028701011 0.13136028 -0.76665705 15 130 121
0.028098742 0.13305056 -0.76726109 17 130 121
0.029243741 0.13208213 -0.76679826 15 130 121
0.025855878 0.13391374 -0.76797128 19 130 121
0.026027277 0.13323179 -0.76769871 19 130 122
0.026620921 0.13251075 -0.7673313 18 130 122
0.02737798 0.13331905 -0.76747 18 130 121
0.026275458 0.13279665 -0.76749814 18 130 121
0.026174458 0.13408266 -0.76796943 18 132 120
0.03254633 0.13198495 -0.76633292 15 130 121
0.032770671 0.13269916 -0.76653558 16 130 121
0.031656343 0.13087283 -0.76609266 15 128 122
0.032071043 0.13290256 -0.76669955 16 130 121
0.031617299 0.13315466 -0.76684541 17 130 120
0.030991603 0.13108626 -0.76625526 15 128 122
0.030831316 0.13246749 -0.76672828 15 130 121
0.029824337 0.13177562 -0.76663512 15 130 121
0.030594714 0.13250475 -0.76676738 15 130 121
0.030643506 0.13420609 -0.76728117 17 130 120
0.03015916 0.13212816 -0.76670349 15 130 121
0.031915892 0.13420674 -0.76713216 17 130 120
0.03666494 0.13417973 -0.76651996 17 132 118
0.036537983 0.1328512 -0.76609749 17 130 119
0.034879796 0.13413048 -0.76673108 18 130 119
0.033456773 0.13397489 -0.7668609 17 130 120
0.03323603 0.13352653 -0.76674229 17 130 120
0.034327798 0.13453618 -0.76693398 18 130 119
0.035821702 0.13368085 -0.76646441 17 130 119
0.040742803 0.13445099 -0.76610357 16 130 119
0.037469804 0.13310841 -0.76606357 17 130 119
0.038440056 0.13409501 -0.76626909 17 130 119
0.037526648 0.13392328 -0.76632571 17 132 118
0.071472518 0.13462783 -0.76610184 16 132 121
0.075236998 0.13359329 -0.76631367 19 132 121
0.074224614 0.13372876 -0.76620895 18 132 121
0.074330077 0.13369018 -0.76621222 18 132 121
0.073716834 0.13468243 -0.76643682 18 132 121
0.076336376 0.13287814 -0.76626027 20 133 121
0.025077414 0.12852155 -0.76628751 18 130 122
0.024664592 0.12874046 -0.76642543 19 128 122
0.025046229 0.13053241 -0.76693958 19 128 122
0.027695466 0.12955441 -0.76622975 15 130 122
0.029056786 0.12983815 -0.76609915 14 130 121
0.026024897 0.13029705 -0.76671404 18 128 122
0.025969425 0.13029467 -0.76672137 18 128 122
0.028301012 0.1305504 -0.76646322 15 130 122
0.026942784 0.13060889 -0.76668024 16 130 121
0.029467883 0.13052788 -0.7662769 14 130 121
0.031546891 0.13078181 -0.76607633 15 128 122
0.052457877 0.12387849 -0.76204079 17 130 120
0.051390015 0.12306459 -0.76190042 19 130 120
0.053528119 0.12351722 -0.76187253 16 130 121
0.055135168 0.12340885 -0.76175958 14 130 121
0.054497421 0.12370627 -0.76187813 14 130 121
0.041815117 0.1198239 -0.76183969 16 130 121
0.043061167 0.1192335 -0.76159793 17 130 120
0.041413736 0.11939677 -0.76176184 15 130 121
0.042702843 0.12096601 -0.76206106 16 130 121
0.044807781 0.12003545 -0.76166964 19 128 120
0.044050604 0.12010301 -0.76174319 18 128 120
0.044498175 0.12029826 -0.76175892 18 130 119
0.046993263 0.1193135 -0.7613219 21 130 119
0.046998668 0.11958434 -0.76138967 21 128 120
0.045515332 0.12081697 -0.76181269 19 128 120
0.046104558 0.11916071 -0.76135105 21 128 120
0.046995182 0.12127307 -0.76181436 21 128 120
0.047727369 0.12177179 -0.76188356 21 130 120
0.047983572 0.12151366 -0.76179916 23 128 121
0.048655629 0.12294259 -0.76210648 23 128 121
0.046835687 0.12212665 -0.76204085 19 130 119
0.049059432 0.12248394 -0.76195794 23 130 120
0.049276192 0.12061653 -0.7614702 23 130 120
0.050804615 0.12190013 -0.76165879 20 130 119
0.049408108 0.12059122 -0.76145232 23 130 120
0.050423797 0.12197757 -0.76171148 21 130 120
0.052059181 0.12065344 -0.76125395 18 130 119
0.050926808 0.11977676 -0.76113021 20 130 119
0.0524708 0.1202351 -0.76112157 17 130 119
0.050855681 0.12061992 -0.76133865 20 130 119
0.051201008 0.12061664 -0.76131123 19 130 119
0.051157013 0.12019694 -0.7612136 19 132 118
0.054981519 0.11935232 -0.76073742 14 130 121
0.054124672 0.11965827 -0.76087576 14 132 120
0.05465151 0.12028044 -0.76100039 14 130 121
0.054221161 0.12031005 -0.76103777 14 132 120
0.053163212 0.12049761 -0.76114261 16 130 119
0.054251984 0.12092323 -0.76118952 14 132 120
0.054354452 0.12282158 -0.7616412 15 130 121
0.054138947 0.12075581 -0.76115507 14 132 119
0.054134298 0.12226712 -0.76151901 15 130 120
0.053848963 0.12083486 -0.76118881 15 130 120
0.040282011 0.11830431 -0.76155776 14 128 122
0.04146206 0.11556531 -0.76073521 14 130 122
0.044319738 0.11649094 -0.76078051 17 130 120
0.042996518 0.11531499 -0.7605629 16 130 121
0.043155991 0.11633498 -0.76082021 16 130 121
0.04281019 0.11593416 -0.76073873 15 130 121
0.043936525 0.11665378 -0.76084989 17 130 121
0.04111382 0.11657951 -0.76103264 14 130 121
0.041971251 0.1182998 -0.7614302 15 130 121
0.043004028 0.11876837 -0.7614789 16 130 120
0.04167442 0.118624 -0.76153928 15 130 121
0.042014234 0.11805683 -0.76136184 15 130 121
0.041889377 0.11912119 -0.76165664 16 130 121
0.04532893 0.11549303 -0.76044869 19 130 122
0.046481613 0.11673222 -0.76068509 20 130 121
0.047658134 0.11729985 -0.76075929 21 132 120
0.048535872 0.11571194 -0.76033282 21 132 120
0.046828806 0.11530122 -0.760324 20 130 121
0.045512099 0.11589862 -0.76053798 19 130 121
0.045178521 0.11753038 -0.76099265 19 130 120
0.045289077 0.11664221 -0.76075065 19 130 121
0.046098471 0.11667734 -0.76069832 20 130 121
0.047223821 0.11796249 -0.76095086 21 130 120
0.051674604 0.11730231 -0.76048553 17 130 120
0.052693713 0.11728173 -0.76041061 16 130 120
0.052081142 0.11792251 -0.76060098 17 130 120
0.052109085 0.11616554 -0.76019257 16 130 121
0.052317463 0.11595721 -0.76012999 16 130 121
0.051196624 0.11869088 -0.76084864 19 130 119
0.052208707 0.11867414 -0.76076657 17 130 119
0.050656371 0.11756528 -0.76062059 19 130 119
0.050473291 0.11768861 -0.76066422 20 130 120
0.049135804 0.11705527 -0.76061559 23 130 120
0.053390328 0.11548427 -0.75996578 14 130 121
0.053463824 0.11636101 -0.76014435 14 130 121
0.052774709 0.11896718 -0.76079494 16 130 119
0.052874349 0.11874026 -0.76073557 16 130 119
0.052930474 0.11616284 -0.76013535 15 130 121
0.05439401 0.11883155 -0.76065165 14 130 121
0.0448475 0.11370295 -0.76002914 17 130 122
0.042782679 0.1114917 -0.75961077 14 130 123
0.043982945 0.11428686 -0.76023239 17 130 122
0.042943291 0.11180457 -0.7596786 14 130 123
0.044597279 0.11412696 -0.76015186 17 130 122
0.04115165 0.11288316 -0.76007199 14 130 123
0.042386498 0.11317682 -0.76006091 15 130 123
0.044508774 0.11497092 -0.76036978 18 130 122
0.041248929 0.11233619 -0.75992614 14 130 123
0.048662011 0.11198144 -0.75948101 19 128 122
0.047781792 0.11350945 -0.75984424 19 130 122
0.047163855 0.11347798 -0.75985271 18 130 121
0.048766926 0.11337194 -0.75978887 19 130 121
0.047377616 0.11331642 -0.75981128 19 130 122
0.047641683 0.11516852 -0.76024884 21 130 122
0.045124795 0.11307019 -0.75985497 16 132 121
0.046930376 0.11434557 -0.76007992 19 130 121
0.046133291 0.1134626 -0.75990045 18 130 122
0.045037087 0.11329477 -0.75991589 17 130 122
0.045535609 0.11274356 -0.75975156 16 132 121
0.051438663 0.11368022 -0.75967818 15 130 121
0.05166373 0.11155409 -0.75920492 15 130 122
0.050200243 0.11156473 -0.75929749 17 130 122
0.052047092 0.11218096 -0.75931668 15 130 122
0.051990487 0.11144679 -0.75916159 15 130 122
0.051216733 0.11328441 -0.7596063 16 130 121
0.049994931 0.11468685 -0.76000047 19 130 121
0.04968046 0.11301544 -0.75964898 18 130 122
0.049888343 0.11282109 -0.75959128 18 130 122
0.050582245 0.11464938 -0.75995171 18 130 121
0.050328683 0.11507851 -0.76006496 18 130 120
0.051068425 0.11413064 -0.7598024 16 130 121
0.053162254 0.11264958 -0.75936627 14 130 122
0.052779421 0.11353222 -0.75956529 14 130 121
0.053017169 0.11228321 -0.75929028 14 130 122
0.043842826 0.11007655 -0.75920218 14 130 123
0.044559125 0.11040614 -0.75925243 14 132 123
0.043116052 0.11112372 -0.75949794 14 130 123
0.042712621 0.11106228 -0.7595095 14 130 123
0.046660695 0.10823715 -0.75875616 14 132 123
0.048810899 0.10932674 -0.75890839 15 130 123
0.048352413 0.10829839 -0.75870758 14 130 123
0.045846011 0.10829414 -0.75879782 14 132 123
0.046710987 0.11023726 -0.75916576 15 132 122
0.045911759 0.11116198 -0.75937092 15 132 122
0.048324648 0.11100896 -0.75927973 18 130 122
0.045528483 0.10996705 -0.75914133 14 132 122
0.045903075 0.11006581 -0.7591517 15 132 123
0.0517499 0.11026122 -0.75892663 14 130 123
0.052210454 0.11030401 -0.75891477 14 130 122
0.052520916 0.11076684 -0.75899076 14 130 122
0.052718848 0.10993956 -0.7588219 14 130 123
0.050096508 0.10853234 -0.75866437 14 130 123
0.049525283 0.1105722 -0.75912815 17 128 122
0.049399279 0.10938298 -0.75888443 15 130 123
0.050162144 0.11005355 -0.75897914 15 130 123
0.050376557 0.10926124 -0.75879836 14 130 123
0.04885412 0.11000802 -0.75905025 16 130 123
0.053659208 0.10984205 -0.7587586 14 130 123
0.053186364 0.11001292 -0.75881404 14 130 123
0.044342525 0.13503397 -0.7658 14 130 121
0.060286529 0.1371422 -0.76592821 14 130 123
0.067884341 0.13555026 -0.76591891 14 130 123
0.033142507 0.13087779 -0.76588577 15 130 121
0.034177326 0.13102931 -0.76580155 16 130 121
0.036612377 0.13237502 -0.76593047 17 130 119
0.036820624 0.13191019 -0.76574981 17 130 119
0.035240527 0.13138622 -0.76578188 17 130 120
0.038156059 0.13203989 -0.7656253 17 130 119
0.037560359 0.13252369 -0.76585907 17 130 119
0.038780488 0.13088895 -0.76516742 16 132 119
0.039410908 0.13221869 -0.76552975 16 132 119
0.040953878 0.1334638 -0.76575416 16 130 119
0.040576749 0.13374731 -0.76589483 16 132 118
0.039116975 0.13273543 -0.76573783 17 130 119
0.039937571 0.13318636 -0.76578689 16 132 118
0.042126108 0.13429298 -0.7658658 15 132 119
0.043186348 0.13314736 -0.76533526 14 132 120
0.042374644 0.13427128 -0.7658236 15 130 120
0.042633422 0.13388367 -0.76565814 14 132 119
0.04401733 0.13438474 -0.76562971 14 130 121
0.043486048 0.13121426 -0.76471478 15 130 121
0.044838455 0.13153368 -0.76466197 14 130 121
0.044198789 0.13113239 -0.76461136 15 130 121
0.042319272 0.13206641 -0.76510084 15 130 120
0.044291548 0.1319104 -0.76483613 14 130 121
0.047211152 0.13301317 -0.76482689 14 130 121
0.047311511 0.13275497 -0.76475316 14 130 121
0.046025839 0.13161854 -0.76455981 14 130 121
0.04841556 0.13108623 -0.76424241 14 130 121
0.045440823 0.13315517 -0.76507926 14 130 121
0.045939676 0.13267317 -0.76487291 14 130 121
0.045715753 0.13268989 -0.76490521 14 130 121
0.050551981 0.13179675 -0.76437867 14 130 123
0.049195845 0.13295868 -0.76469368 14 130 122
0.049617436 0.13203885 -0.76446205 14 130 122
0.04954553 0.13169916 -0.76437449 14 130 122
0.072031908 0.13270096 -0.76555353 15 132 122
0.072227448 0.13286071 -0.76563281 16 132 121
0.07107801 0.13353512 -0.76569158 14 132 121
0.07044322 0.13405657 -0.76577175 14 132 121
0.070089594 0.13380533 -0.76563978 14 130 122
0.07133574 0.13171609 -0.76513517 14 132 123
0.070099652 0.13255803 -0.76523679 14 130 123
0.070208736 0.13112934 -0.7647931 14 130 123
0.072521448 0.13328683 -0.7658174 16 132 121
0.072459124 0.13107871 -0.76508915 15 132 123
0.073849469 0.13261524 -0.76580971 17 132 121
0.072562233 0.1327787 -0.76565856 16 132 121
0.072288141 0.13260995 -0.76556015 16 132 121
0.075686842 0.1317216 -0.76580107 19 132 122
0.075182162 0.13171001 -0.76572573 18 132 122
0.076931387 0.13089794 -0.76577097 20 133 122
0.025054965 0.12758079 -0.76598966 17 130 122
0.028514003 0.12700219 -0.76522994 14 130 122
0.029033128 0.12956251 -0.76600677 14 130 121
0.026368702 0.12808557 -0.76594132 16 130 123
0.027469767 0.12816229 -0.76578826 15 130 122
0.027120408 0.1283562 -0.76591051 15 130 122
0.031734187 0.13065369 -0.7660051 15 128 122
0.029621473 0.12891775 -0.76570213 14 130 122
0.029983763 0.12915254 -0.76573217 14 130 121
0.031039393 0.13010977 -0.76591194 15 128 122
0.030891318 0.12917843 -0.76561767 15 128 122
0.032109115 0.12777032 -0.76501447 14 130 122
0.030734712 0.12721591 -0.76499861 14 130 122
0.030346099 0.12762235 -0.76517361 14 130 122
0.031373009 0.12701377 -0.7648595 14 130 122
0.030141886 0.12766123 -0.76520991 14 130 122
0.031149665 0.12877177 -0.76544595 15 128 122
0.035616361 0.12756133 -0.76453221 15 130 121
0.034644175 0.12701823 -0.76447916 15 128 122
0.03400103 0.12748249 -0.76469517 14 130 121
0.037032254 0.12879182 -0.76474357 16 130 120
0.036309678 0.12924476 -0.7649653 16 130 121
0.037092756 0.12725317 -0.76426744 16 130 121
0.033898812 0.13003011 -0.7655167 15 130 121
0.033378325 0.12815249 -0.76498568 14 130 121
0.033836357 0.12825356 -0.7649585 14 130 121
0.036449235 0.13021295 -0.76524454 16 130 120
0.035961881 0.13010751 -0.76527411 16 130 120
0.034284893 0.12919945 -0.76520187 15 130 121
0.039742716 0.12742303 -0.76398486 17 130 120
0.040677123 0.12870577 -0.76426089 16 130 120
0.040745176 0.12952319 -0.7645036 16 130 120
0.040470347 0.12842511 -0.76420081 17 130 120
0.038391612 0.12769443 -0.76423949 17 130 122
0.038490836 0.12787901 -0.76428366 16 130 121
0.038649328 0.12947153 -0.76475072 16 130 120
0.039463602 0.12938701 -0.76462388 16 130 120
0.037938002 0.12840128 -0.76451266 16 130 121
0.038412273 0.12867631 -0.76453763 16 130 121
0.037372597 0.12907763 -0.7647891 17 130 120
0.037460703 0.12781104 -0.76439196 17 130 122
0.04282897 0.12745292 -0.7636683 16 130 120
0.041658543 0.12749188 -0.7637766 16 130 120
0.042975329 0.12696971 -0.76352072 16 130 120
0.043488342 0.12781049 -0.76371366 16 130 120
0.044259865 0.12769118 -0.76361603 16 130 120
0.043185938 0.12962948 -0.7642625 15 130 120
0.041365389 0.12869991 -0.76417756 16 130 120
0.043463562 0.12998486 -0.76434118 15 130 120
0.042988636 0.13060395 -0.76458395 15 130 120
0.041920006 0.13058873 -0.76469713 16 130 120
0.043547951 0.13001192 -0.76434016 15 130 120
0.047454581 0.12867676 -0.76365423 15 130 120
0.048269276 0.12795149 -0.7634061 16 130 120
0.048542764 0.12987664 -0.7639069 15 130 121
0.048205275 0.12846604 -0.76354885 15 130 120
0.045384973 0.12717305 -0.76338327 16 130 120
0.04862221 0.12849158 -0.7635287 15 130 120
0.046635982 0.12928186 -0.76387697 15 130 121
0.045028184 0.12899229 -0.76391762 15 130 120
0.045555677 0.12884903 -0.76383752 15 130 120
0.047286075 0.13079913 -0.76425308 15 128 122
0.047156107 0.1292426 -0.76382655 15 130 121
0.048078213 0.13018399 -0.76402062 15 128 122
0.051381998 0.12699564 -0.76299036 14 130 120
0.049785085 0.12731262 -0.76315868 15 130 119
0.070825279 0.12972212 -0.7644732 14 130 123
0.070330396 0.13020006 -0.76453906 14 130 123
0.075106472 0.1283989 -0.76475173 16 132 123
0.075994082 0.12772648 -0.76471925 16 134 121
0.075519159 0.12947811 -0.76511759 17 132 122
0.073076002 0.12752801 -0.76416671 14 130 123
0.075150497 0.12837619 -0.7647531 16 132 123
0.073594965 0.12723756 -0.76417583 14 132 123
0.074432068 0.12944816 -0.76492769 16 132 123
0.07449992 0.13004005 -0.76510757 17 132 122
0.074479386 0.12948157 -0.76494479 16 132 123
0.074450918 0.12914057 -0.76484287 16 132 123
0.074122056 0.13016324 -0.76508284 16 132 123
0.07761915 0.12967022 -0.76555866 21 132 122
0.077443399 0.12984642 -0.76557356 21 132 122
0.077461764 0.13075523 -0.76583582 21 133 122
0.078759909 0.12734443 -0.76513541 21 133 122
0.076377578 0.12895514 -0.76512486 18 132 122
0.076811083 0.12826993 -0.76501948 18 134 122
0.076643765 0.12827447 -0.76498902 18 134 122
0.078207187 0.12783207 -0.76516414 20 133 122
0.076215245 0.12874077 -0.76503545 17 134 122
0.024992123 0.12660196 -0.76568621 18 130 123
0.023691325 0.12534803 -0.76547796 18 132 120
0.022949871 0.12337245 -0.76494288 18 132 119
0.025131855 0.12370516 -0.76470816 15 130 122
0.023720456 0.12480249 -0.76529312 18 132 120
0.025120197 0.12482914 -0.76508087 16 130 123
0.023525512 0.12428168 -0.76515204 18 132 120
0.026988208 0.12443618 -0.76464248 14 130 123
0.027815282 0.123794 -0.76430744 14 130 123
0.028355742 0.12374552 -0.76420695 12 132 123
0.02720342 0.12414405 -0.76451534 14 130 123
0.029160053 0.12600511 -0.76480192 14 130 123
0.028096011 0.12396732 -0.76431859 14 130 123
0.026232839 0.12521146 -0.76502293 15 130 123
0.02607049 0.12515308 -0.76503086 15 130 123
0.026100419 0.12403078 -0.76465553 14 130 122
0.026991097 0.12622829 -0.76523107 15 130 123
0.026346689 0.12441107 -0.76473963 14 130 122
0.028363375 0.1262131 -0.76499569 14 130 122
0.030134035 0.12628207 -0.76477087 14 130 123
0.030440494 0.1247256 -0.76423812 14 130 123
0.03090783 0.12495307 -0.76425606 14 130 123
0.03123601 0.12684664 -0.76482224 14 130 123
0.036109503 0.12561585 -0.76389629 15 130 122
0.036945328 0.12394989 -0.76335591 14 130 123
0.036437653 0.12385399 -0.76337665 14 130 123
0.036531746 0.12627226 -0.76403904 16 130 121
0.035971928 0.12384304 -0.76341712 14 130 123
0.03483855 0.12620538 -0.76421261 14 130 122
0.034894831 0.12645563 -0.76428109 15 128 122
0.033648875 0.12685509 -0.76454508 14 130 122
0.034027535 0.12614736 -0.76428902 14 128 122
0.040674176 0.12639087 -0.76357222 16 130 120
0.040871773 0.12496398 -0.76319492 16 130 121
0.038146105 0.12322689 -0.76303154 14 130 123
0.040214475 0.12537561 -0.76336366 15 130 121
0.039271157 0.12332278 -0.76294333 14 130 122
0.039823133 0.12583363 -0.76351953 15 130 121
0.038863041 0.126142 -0.76372671 16 130 121
0.038730711 0.12640032 -0.76381516 16 130 121
0.039336946 0.12584536 -0.76358432 15 130 121
0.03923925 0.12622216 -0.76370132 16 130 121
0.043547492 0.12315983 -0.76254183 16 130 120
0.042570155 0.12403411 -0.76282382 16 130 121
0.044657201 0.12401655 -0.7626667 17 128 120
0.043780617 0.12527509 -0.76303375 16 130 120
0.042474654 0.12386832 -0.76279086 16 130 121
0.041414063 0.12329655 -0.76273096 15 130 121
0.042048544 0.12503706 -0.76311284 16 130 121
0.041664727 0.125696 -0.76330996 16 130 120
0.043335158 0.12609886 -0.76327199 16 130 120
0.04198046 0.12661009 -0.76351279 16 130 120
0.043250527 0.12605096 -0.76326704 16 130 120
0.048091948 0.12465366 -0.7625789 19 128 119
0.048715904 0.12379051 -0.76231521 21 130 120
0.048084214 0.1243323 -0.7624988 19 130 119
0.04650354 0.12460015 -0.762685 17 130 119
0.047953416 0.12403511 -0.76243395 19 130 119
0.048208699 0.12347665 -0.7622745 21 130 120
0.04515399 0.12427992 -0.76269567 17 128 120
0.046435192 0.12545931 -0.76289648 17 128 120
0.045132291 0.12558948 -0.76301229 17 128 120
0.046375912 0.12641744 -0.7631309 17 128 120
0.045178328 0.12526307 -0.76293069 17 128 120
0.052209355 0.12544969 -0.76252055 16 130 121
0.049478527 0.12350889 -0.76219648 21 128 121
0.051289961 0.1246211 -0.76236027 17 130 120
0.048838247 0.12380702 -0.76231039 23 128 121
0.050968926 0.12546685 -0.76262468 16 130 120
0.051965315 0.12650955 -0.7628386 14 130 120
0.051200587 0.12634608 -0.76283437 15 130 120
0.05126917 0.12593894 -0.76272881 16 130 121
0.054417972 0.12526979 -0.76236743 14 130 121
0.053028859 0.12549168 -0.7624771 15 130 121
0.052831598 0.12519756 -0.76239729 15 130 121
0.07487005 0.12499256 -0.76374573 14 130 123
0.075554192 0.12481927 -0.76379353 15 130 123
0.07575237 0.12511823 -0.76391435 15 130 123
0.075570263 0.12658839 -0.76433206 15 134 123
0.073593058 0.12664926 -0.76401168 14 132 123
0.075134799 0.12617142 -0.76413977 15 132 123
0.078186482 0.12461731 -0.76419866 18 132 123
0.079195037 0.12535673 -0.76461262 20 133 122
0.078229308 0.12361805 -0.76388723 17 132 122
0.078573294 0.12455365 -0.76424658 19 132 123
0.077571496 0.12357282 -0.76375675 16 132 123
0.078105457 0.1268371 -0.7648688 19 134 122
0.077195175 0.12500164 -0.76413435 16 132 123
0.07739944 0.12559114 -0.76435357 17 134 122
0.077586703 0.1249556 -0.76419443 17 134 122
0.076345339 0.1255853 -0.76415205 15 132 123
0.077243201 0.12596107 -0.7644372 17 134 122
0.023385001 0.12101644 -0.76415503 16 132 118
0.024453266 0.12185508 -0.76423526 14 132 120
0.025259452 0.12282799 -0.76440346 14 130 122
0.022965856 0.12264404 -0.76471162 17 132 119
0.025568606 0.12269434 -0.76431036 14 130 122
0.040814903 0.12184113 -0.76242173 15 130 121
0.040618893 0.12183447 -0.76243931 15 128 122
0.039282549 0.12151965 -0.76249337 14 130 123
0.039128382 0.12179071 -0.7625761 14 130 123
0.038816348 0.12193533 -0.76264322 14 130 123
0.040080078 0.12282027 -0.7627371 15 128 122
0.040279504 0.12288514 -0.76273328 15 128 122
0.042091206 0.12124578 -0.76217598 16 130 121
0.04294046 0.12165973 -0.76221609 16 130 121
0.041857 0.12286947 -0.76259458 15 130 121
0.041249659 0.12159373 -0.76232368 15 130 121
0.042854872 0.12202447 -0.76231259 16 130 121
0.045260664 0.12209398 -0.76215255 18 128 119
0.045382775 0.12210217 -0.7621454 18 128 119
0.079832122 0.1212941 -0.76351416 19 132 124
0.07793501 0.12187289 -0.76331186 16 130 123
0.077885091 0.12109824 -0.76307786 15 132 123
0.080955625 0.11948885 -0.76330048 19 132 124
0.082509682 0.11669391 -0.76288551 19 132 124
0.082557425 0.11806173 -0.76328868 21 132 124
0.081428289 0.11895712 -0.76326787 20 132 124
0.080997705 0.11900759 -0.76317656 19 132 125
0.082677409 0.11775733 -0.76323086 21 132 124
0.08279147 0.1179003 -0.76329988 21 132 124
0 0 0 1 0 0 0 1 0 0 0 1 0 0 0 0 0 915 1 0 0
