ply
format ascii 1.0
comment PCL generated
element vertex 939
property float x
property float y
property float z
property uchar red
property uchar green
property uchar blue
element camera 1
property float view_px
property float view_py
property float view_pz
property float x_axisx
property float x_axisy
property float x_axisz
property float y_axisx
property float y_axisy
property float y_axisz
property float z_axisx
property float z_axisy
property float z_axisz
property float focal
property float scalex
property float scaley
property float centerx
property float centery
property int viewportx
property int viewporty
property float k1
property float k2
end_header
-0.10623953 -0.39974204 -0.68815422 157 142 120
-0.10583327 -0.39979416 -0.68798018 152 143 120
-0.10621282 -0.40220794 -0.68835777 144 137 118
-0.10603284 -0.40132064 -0.68820256 147 140 119
-0.10567563 -0.40239131 -0.68813932 136 138 118
-0.089082845 -0.37962729 -0.68040955 167 133 122
-0.088793129 -0.37986985 -0.68036085 169 133 122
-0.088231616 -0.38164711 -0.68040365 177 132 123
-0.089661092 -0.38095954 -0.68071461 170 133 123
-0.087771095 -0.38165438 -0.68029135 179 133 123
-0.087735914 -0.38092855 -0.68021059 180 130 123
-0.088615887 -0.38550749 -0.68087274 171 143 124
-0.086008579 -0.38735545 -0.68039536 179 140 126
-0.086567059 -0.38680944 -0.68048543 175 142 125
-0.086952999 -0.38735864 -0.68062544 166 145 123
-0.086728252 -0.38740748 -0.68057489 169 144 124
-0.086009756 -0.38834143 -0.68047845 172 142 125
-0.086324826 -0.38596743 -0.68037313 180 141 125
-0.087512583 -0.38514143 -0.68057656 173 144 123
-0.085257083 -0.38633311 -0.68017226 187 138 125
-0.095793545 -0.39257237 -0.68351728 134 142 119
-0.092115648 -0.39170706 -0.68222332 150 140 123
-0.091933817 -0.39241737 -0.68221241 145 141 123
-0.094248787 -0.39171925 -0.68293625 144 141 122
-0.095078431 -0.39102131 -0.68315905 147 142 122
-0.090472668 -0.39132243 -0.68177205 145 145 121
-0.088753037 -0.39246488 -0.68147129 152 139 122
-0.089723729 -0.39189181 -0.68164694 148 142 121
-0.088773593 -0.39173409 -0.68141633 150 142 121
-0.090404376 -0.39150131 -0.68177098 145 144 121
-0.090983547 -0.39136586 -0.68189722 148 142 123
-0.08588279 -0.38874432 -0.68047929 171 142 125
-0.084294654 -0.38959122 -0.68013901 186 136 128
-0.084430479 -0.39018378 -0.68020642 178 137 126
-0.085002638 -0.39137235 -0.68041623 159 142 120
-0.084010556 -0.39042586 -0.68011791 182 136 126
-0.086404003 -0.39128631 -0.68077981 154 143 120
-0.085745104 -0.39214507 -0.68067366 157 140 120
-0.085340731 -0.39193264 -0.68054813 158 141 120
-0.084676132 -0.3925727 -0.68042272 161 139 121
-0.085663743 -0.39198443 -0.68063879 158 141 120
-0.083943777 -0.39110476 -0.6801427 176 137 125
-0.096571356 -0.39345255 -0.68388009 137 141 120
-0.09628275 -0.39317915 -0.6837489 135 142 119
-0.096104048 -0.39502236 -0.68379509 131 141 118
-0.092778713 -0.39506724 -0.68265969 139 139 121
-0.092088647 -0.39297619 -0.68229979 143 141 122
-0.092881471 -0.39437589 -0.68265069 139 140 121
-0.092839643 -0.39378729 -0.68260002 140 141 121
-0.091975883 -0.39445803 -0.68235487 142 139 122
-0.094654858 -0.39544815 -0.68330699 133 140 119
-0.094918512 -0.39506957 -0.6833719 132 140 119
-0.09466818 -0.39523104 -0.68329817 133 140 119
-0.093444481 -0.39288884 -0.68274695 139 142 121
-0.093438424 -0.39268452 -0.68273246 140 142 121
-0.095323823 -0.39520404 -0.68351543 131 140 118
-0.092811301 -0.3935025 -0.68257296 141 141 122
-0.088359334 -0.39506561 -0.68146247 135 142 120
-0.089017034 -0.39531976 -0.68164569 136 140 120
-0.089555532 -0.39636362 -0.68181348 130 140 120
-0.088178635 -0.39596781 -0.68143284 127 143 119
-0.088230297 -0.3942312 -0.6814099 142 141 121
-0.090235956 -0.39301923 -0.68184787 148 139 123
-0.089256182 -0.39307961 -0.68162715 150 139 122
-0.090220042 -0.39475483 -0.68195266 146 137 122
-0.091651097 -0.39263248 -0.68214798 145 141 123
-0.091011286 -0.39470452 -0.68213081 144 138 122
-0.08772523 -0.39631927 -0.68131822 123 145 118
-0.086755596 -0.39641783 -0.68110937 126 144 120
-0.084807396 -0.39646676 -0.6806798 132 144 122
-0.085662797 -0.39498982 -0.68077153 140 142 120
-0.086268924 -0.39584652 -0.68096322 131 144 120
-0.084925041 -0.39501303 -0.68060917 142 142 121
-0.087100774 -0.39373428 -0.6810962 147 140 121
-0.087731406 -0.39312047 -0.68125182 150 139 121
-0.085176937 -0.39307505 -0.68056762 156 139 120
-0.087589741 -0.3937583 -0.68122751 145 140 121
-0.086539015 -0.39452684 -0.6809628 141 142 120
-0.086674333 -0.39307415 -0.68096817 153 139 121
-0.083719604 -0.39432099 -0.68029612 152 140 121
-0.083409145 -0.39591885 -0.68033439 142 142 122
-0.083784826 -0.39634067 -0.68044478 136 143 123
-0.083292559 -0.39337325 -0.68014055 161 139 121
-0.095796116 -0.39733541 -0.68381774 131 137 118
-0.09414006 -0.39936966 -0.68336803 123 133 118
-0.093665645 -0.39978704 -0.68322909 119 133 118
-0.0953696 -0.39814487 -0.68371814 131 135 118
-0.09268593 -0.39964002 -0.68287152 108 135 117
-0.095462099 -0.40038383 -0.68390769 140 128 119
-0.09488865 -0.39833465 -0.68356091 127 135 118
-0.091905452 -0.3989771 -0.68257743 116 135 119
-0.093620881 -0.39701691 -0.68305355 129 137 120
-0.094538718 -0.39702159 -0.68335879 127 138 119
-0.093126491 -0.39830583 -0.68295097 118 136 118
-0.092983887 -0.39769554 -0.68287444 125 136 119
-0.093852602 -0.39738479 -0.68314821 125 137 119
-0.088429809 -0.39760384 -0.68156356 114 142 118
-0.089642085 -0.39985389 -0.68199575 100 137 117
-0.08977291 -0.39978954 -0.68202865 101 137 117
-0.089681357 -0.39951807 -0.68199146 103 138 117
-0.091505274 -0.40026608 -0.68252367 102 135 117
-0.089671679 -0.39974564 -0.68199903 101 137 117
-0.08950264 -0.39804354 -0.68187636 114 140 118
-0.091133423 -0.39840379 -0.68233448 118 136 120
-0.089087553 -0.39668292 -0.68169904 125 142 119
-0.091672048 -0.3993963 -0.6825276 111 135 118
-0.090934977 -0.39922282 -0.68232006 109 136 118
-0.091698781 -0.39670643 -0.68240613 138 136 122
-0.084631443 -0.39924356 -0.68077785 127 146 122
-0.08572606 -0.39990339 -0.68104804 115 144 120
-0.085992806 -0.39876914 -0.68104827 113 142 120
-0.084994823 -0.39942822 -0.68086582 123 145 121
-0.085429549 -0.40000048 -0.68098885 118 145 120
-0.086060904 -0.3996802 -0.68110919 111 143 120
-0.085964337 -0.39650902 -0.68093914 128 144 121
-0.085587285 -0.39729035 -0.68089032 123 143 121
-0.085326619 -0.39651519 -0.6807977 130 144 122
-0.086411901 -0.39803156 -0.68110669 115 142 120
-0.087261401 -0.39773914 -0.68128234 114 142 119
-0.085404634 -0.39739013 -0.6808542 123 143 121
-0.083134405 -0.40015388 -0.68049008 143 145 123
-0.083645321 -0.39884281 -0.6805402 137 145 123
-0.08326149 -0.39867958 -0.6804443 141 143 123
-0.083264172 -0.39873248 -0.68044758 141 143 123
-0.082924917 -0.39764774 -0.68031752 144 141 123
-0.082955256 -0.39755762 -0.68032014 143 141 123
-0.082548469 -0.39668554 -0.68019229 144 141 122
-0.094935805 -0.40282393 -0.68391061 118 132 116
-0.092664443 -0.4004806 -0.68292344 110 133 117
-0.094262771 -0.40284169 -0.68367344 110 134 115
-0.095012285 -0.40150517 -0.68383527 128 130 118
-0.094348222 -0.40148836 -0.68359858 121 132 117
-0.09216138 -0.40255332 -0.68292636 103 133 117
-0.092361182 -0.40340057 -0.68306994 103 133 117
-0.091906741 -0.40411225 -0.68297964 102 132 118
-0.093402125 -0.40365824 -0.68344605 104 134 115
-0.093685657 -0.4028486 -0.68346959 105 135 115
-0.089598946 -0.40406656 -0.68226528 98 136 119
-0.089155741 -0.40229052 -0.68203378 96 137 118
-0.089108728 -0.4030658 -0.6820603 96 137 118
-0.089177489 -0.40355819 -0.68210769 96 138 118
-0.088118292 -0.40255466 -0.6817261 93 140 118
-0.090075172 -0.40087062 -0.68218118 97 136 117
-0.091047086 -0.40215868 -0.68256241 100 134 118
-0.091740161 -0.40372276 -0.68289202 102 132 118
-0.091005698 -0.40271053 -0.6826005 100 134 118
-0.090964481 -0.40118682 -0.68245268 99 134 117
-0.090383701 -0.40039375 -0.68222284 98 136 117
-0.084052436 -0.40328687 -0.68075353 108 146 121
-0.085836425 -0.40253448 -0.68119878 113 145 121
-0.084644519 -0.40121663 -0.6808762 126 147 122
-0.084932081 -0.4022415 -0.68096375 116 146 121
-0.086420923 -0.40333495 -0.68135917 104 144 120
-0.085016958 -0.40414724 -0.6810118 99 145 120
-0.087334037 -0.40046 -0.6814242 97 141 117
-0.087068275 -0.40071273 -0.68138015 101 142 118
-0.086714014 -0.4028632 -0.68141741 106 143 120
-0.084948167 -0.40113387 -0.68094385 124 147 122
-0.087184079 -0.40245923 -0.68149775 101 142 119
-0.083769247 -0.40149924 -0.68066543 126 147 123
-0.083627753 -0.40235624 -0.68064708 119 147 122
-0.08310961 -0.40293074 -0.68054432 120 146 123
-0.083244003 -0.40375841 -0.68058449 111 145 122
-0.082281858 -0.40050957 -0.68031049 150 142 123
-0.080920897 -0.40411294 -0.68009222 132 142 129
-0.08142703 -0.40233096 -0.68016207 143 142 126
-0.081202745 -0.40321997 -0.68013364 137 142 127
-0.092696711 -0.40524623 -0.68330568 99 133 115
-0.094309144 -0.40583023 -0.683878 98 137 111
-0.09424679 -0.40640566 -0.68388206 94 138 110
-0.094152495 -0.407175 -0.68388385 90 139 108
-0.092824042 -0.40606701 -0.68338889 94 136 113
-0.092049822 -0.40568709 -0.68312836 95 135 115
-0.092166223 -0.40668279 -0.68322998 89 138 112
-0.088965222 -0.40768391 -0.68230832 89 139 115
-0.088653088 -0.4067854 -0.6821512 90 139 116
-0.08831542 -0.40611318 -0.68200153 92 140 118
-0.090497382 -0.40808836 -0.68280935 84 141 112
-0.089152664 -0.40629208 -0.68227249 89 141 115
-0.089962728 -0.40667814 -0.68254906 87 142 113
-0.090085723 -0.40551955 -0.68250978 92 139 115
-0.090902217 -0.40724775 -0.68287796 83 143 111
-0.091407716 -0.40686509 -0.68300927 87 140 112
-0.09125945 -0.40656373 -0.68294322 88 139 113
-0.089139923 -0.40494385 -0.68217826 93 140 117
-0.090582758 -0.40531605 -0.68265039 94 137 116
-0.08446303 -0.407599 -0.68107802 91 139 116
-0.086126998 -0.40729949 -0.68149453 93 138 118
-0.084709182 -0.40779182 -0.68115425 91 138 117
-0.085185409 -0.40666422 -0.68120939 94 140 118
-0.084357649 -0.40621307 -0.68096536 94 141 118
-0.085325487 -0.40803659 -0.68133032 91 137 117
-0.087130368 -0.4068909 -0.68172836 94 139 119
-0.085924953 -0.40599558 -0.68136019 95 141 119
-0.086166896 -0.40470213 -0.68133485 96 142 119
-0.08768896 -0.4061245 -0.68181944 94 139 119
-0.086678095 -0.40558434 -0.68152481 95 141 119
-0.082090504 -0.40490249 -0.68037844 111 144 123
-0.081243671 -0.40598923 -0.68025661 107 142 121
-0.080912031 -0.40540034 -0.68015379 117 142 125
-0.080086 -0.40811557 -0.68012494 93 141 116
-0.082369588 -0.40584338 -0.68048918 96 144 118
-0.080513895 -0.40808994 -0.68021721 92 140 116
-0.083673514 -0.40464404 -0.68070281 97 146 120
-0.081319354 -0.40754431 -0.68036145 93 141 117
-0.082288019 -0.40775946 -0.68058842 92 140 116
-0.083584026 -0.40663797 -0.68080556 93 141 117
-0.079963364 -0.40803796 -0.68009049 95 141 116
-0.093419999 -0.41095692 -0.68379861 120 130 117
-0.092537552 -0.40888116 -0.6834653 90 140 110
-0.093140677 -0.40962812 -0.68367201 102 136 113
-0.093300715 -0.41089338 -0.6837604 118 131 117
-0.092443265 -0.40982378 -0.6834628 102 135 114
-0.092257142 -0.40936899 -0.68339288 96 138 112
-0.092126831 -0.41105625 -0.68339062 113 129 118
-0.089568175 -0.40997407 -0.6825707 106 131 119
-0.091423266 -0.41191676 -0.68318939 121 125 120
-0.088215962 -0.41168272 -0.68218285 99 130 112
-0.088682055 -0.40999073 -0.68229419 100 132 116
-0.088479467 -0.40972742 -0.68222564 98 133 117
-0.090559624 -0.40867519 -0.68284732 88 139 113
-0.091780722 -0.40887788 -0.68322968 87 140 111
-0.08905454 -0.40927321 -0.68239582 101 133 119
-0.09158913 -0.40918425 -0.68317759 92 138 112
-0.089130484 -0.40834543 -0.68239766 90 137 116
-0.084484637 -0.41110846 -0.68125284 79 138 108
-0.084413297 -0.4093048 -0.68114495 87 137 113
-0.086226702 -0.41162601 -0.68168128 89 134 109
-0.085576393 -0.4103201 -0.68146497 90 134 112
-0.08518669 -0.4096497 -0.68134093 91 135 113
-0.085390784 -0.40981811 -0.68139666 92 135 113
-0.087257937 -0.41028282 -0.68188763 95 133 113
-0.086217247 -0.40897149 -0.68158913 92 135 115
-0.087363049 -0.41033506 -0.68191612 95 133 113
-0.085948654 -0.40956616 -0.68153095 92 135 114
-0.087080002 -0.41012907 -0.68183798 94 133 113
-0.083025686 -0.41151023 -0.6809389 75 140 107
-0.081462346 -0.41048932 -0.68053114 83 140 111
-0.080277197 -0.41095844 -0.68025994 87 140 113
-0.081015475 -0.41077378 -0.68043214 84 141 111
-0.081866853 -0.41045484 -0.68062752 82 141 110
-0.082773767 -0.41128904 -0.68087149 77 141 108
-0.082372889 -0.40957761 -0.68070412 84 140 112
-0.08283034 -0.41080391 -0.6808672 78 140 109
-0.083257012 -0.41081145 -0.68096179 77 140 108
-0.083500333 -0.40951729 -0.68094987 83 139 112
-0.083433285 -0.41033366 -0.68097645 80 140 110
-0.080006778 -0.40867791 -0.68012571 92 140 116
-0.079919487 -0.40860534 -0.68010187 93 140 116
-0.093174882 -0.41223454 -0.68374783 132 125 121
-0.087899953 -0.41224957 -0.68209988 99 130 110
-0.087895565 -0.4138332 -0.68218303 123 130 119
-0.08924409 -0.41213742 -0.68251288 107 128 114
-0.090281233 -0.41275454 -0.68284297 117 129 116
-0.091518253 -0.41277441 -0.68322957 126 127 120
-0.08416561 -0.412965 -0.68124682 87 138 109
-0.085324012 -0.41463095 -0.68158138 121 133 118
-0.085359849 -0.41366836 -0.68158084 105 136 115
-0.087601304 -0.41345894 -0.68209499 116 130 117
-0.0863216 -0.41387984 -0.68182194 114 134 117
-0.087222189 -0.41412073 -0.68204266 123 132 119
-0.087283678 -0.41392097 -0.68204623 121 131 119
-0.086641118 -0.41366956 -0.68188447 112 133 116
-0.080881529 -0.41416073 -0.68045503 97 137 115
-0.080984779 -0.4152723 -0.68048567 97 137 116
-0.082018539 -0.41598627 -0.68074429 112 133 118
-0.080868311 -0.41401866 -0.6804511 96 137 115
-0.081437469 -0.41542572 -0.68059814 104 135 117
-0.083661787 -0.41359419 -0.68112636 99 134 111
-0.083579019 -0.41479912 -0.68111938 121 130 116
-0.082486317 -0.41303656 -0.68083715 93 137 111
-0.082135916 -0.41383275 -0.68076134 108 134 115
-0.082468338 -0.41408351 -0.68084413 112 133 115
-0.081852615 -0.41304639 -0.68068463 96 136 112
-0.080008417 -0.41600665 -0.6802516 83 140 116
-0.079147533 -0.41554442 -0.68008107 81 143 115
-0.084749229 -0.41808277 -0.68148881 137 131 119
-0.084438808 -0.41699556 -0.68137515 138 129 119
-0.080541559 -0.41732776 -0.68041974 94 139 116
-0.080296032 -0.41625607 -0.68032706 88 139 117
-0.080420509 -0.41749096 -0.6803937 93 138 115
-0.080411516 -0.41764089 -0.68039572 93 139 115
-0.081216104 -0.41783011 -0.68060505 106 137 116
-0.081505768 -0.41664827 -0.68063974 107 135 118
-0.083120674 -0.4185766 -0.68110585 136 132 120
-0.080934167 -0.41627806 -0.68048567 97 137 117
-0.083355106 -0.41719726 -0.68111581 136 129 120
-0.081769168 -0.41662714 -0.68070412 111 134 118
-0.083273046 -0.41715989 -0.68109423 134 130 119
-0.079963446 -0.41684794 -0.68026602 86 140 116
-0.079531081 -0.41777849 -0.68020725 90 141 115
-0.079106823 -0.41806349 -0.68013263 91 142 115
-0.087943554 -0.42243594 -0.68220472 80 145 109
-0.086424522 -0.4234274 -0.68177718 102 135 113
-0.084168069 -0.42144027 -0.68132961 151 127 121
-0.08489725 -0.4223083 -0.68146211 136 129 119
-0.084158055 -0.42353499 -0.68121451 154 122 123
-0.085198648 -0.42290574 -0.68150401 130 129 118
-0.087752894 -0.42349502 -0.68209964 72 145 106
-0.087422587 -0.42277551 -0.68205661 83 143 109
-0.082554802 -0.42366061 -0.68088514 138 126 121
-0.081214897 -0.42346016 -0.68063068 119 131 118
-0.080514356 -0.42323145 -0.68049628 108 135 116
-0.083079018 -0.42292544 -0.68097532 144 124 121
-0.080424562 -0.42378443 -0.68048573 108 135 116
-0.082612023 -0.42241564 -0.68088418 136 126 120
-0.081875332 -0.42054409 -0.68079805 122 133 116
-0.082714371 -0.42191374 -0.68093711 137 127 119
-0.083702557 -0.42263496 -0.68114877 153 123 122
-0.079132162 -0.42339793 -0.6802249 98 139 114
-0.0796514 -0.42125323 -0.68030512 95 139 112
-0.079297252 -0.4233546 -0.68025774 99 139 114
-0.079634733 -0.42015377 -0.68029076 95 139 112
-0.07898248 -0.4201628 -0.68016225 98 141 114
-0.084143363 -0.4249908 -0.68122005 147 125 121
-0.084308885 -0.42459068 -0.68124986 152 123 123
-0.086501017 -0.42480743 -0.68178672 119 133 116
-0.086430393 -0.42473108 -0.68176842 119 133 116
-0.085499257 -0.4243044 -0.68153429 133 128 119
-0.084902234 -0.42433876 -0.68138802 147 124 122
-0.080860756 -0.42525449 -0.68060702 107 137 116
-0.08193808 -0.4263742 -0.68083572 112 138 116
-0.080244906 -0.42570502 -0.68051183 106 137 118
-0.081558086 -0.42576897 -0.68074822 110 137 116
-0.080570512 -0.42493466 -0.68054491 106 137 116
-0.081043974 -0.42459884 -0.68062031 109 136 116
-0.082944386 -0.42638573 -0.68101865 118 136 116
-0.080191649 -0.42383608 -0.68044257 104 136 115
-0.083145425 -0.42458206 -0.68101537 139 126 121
-0.083008558 -0.42542502 -0.68100882 129 131 119
-0.07903906 -0.42599943 -0.68025839 109 137 119
-0.080001175 -0.4250277 -0.68044275 105 137 117
-0.07852678 -0.42717686 -0.68018168 111 138 120
-0.079148971 -0.42415515 -0.68023998 101 139 116
-0.078765787 -0.42600578 -0.68020052 108 138 118
-0.081811711 -0.42948115 -0.68086582 114 137 121
-0.0804649 -0.42842942 -0.68062943 111 138 121
-0.082892679 -0.42783755 -0.68105072 116 138 117
-0.081440106 -0.42907524 -0.68079722 113 137 121
-0.082348436 -0.42825606 -0.68095559 115 138 118
-0.083810329 -0.42861387 -0.68121809 119 138 117
-0.079788283 -0.42846817 -0.68051553 114 138 122
-0.079182424 -0.4312886 -0.68049151 131 138 126
-0.077396922 -0.43151128 -0.68014354 143 138 127
-0.079770871 -0.43148589 -0.68061548 128 138 126
-0.077967063 -0.43042541 -0.68021923 134 138 125
-0.079285964 -0.42804185 -0.68038684 113 138 121
-0.078317553 -0.42989177 -0.68026918 130 137 125
-0.084786303 -0.43480518 -0.68151045 112 139 120
-0.084906355 -0.43467885 -0.68153316 112 139 120
-0.083567172 -0.43526471 -0.68128669 110 139 121
-0.083192237 -0.43479899 -0.68122023 112 139 121
-0.08320035 -0.43488932 -0.68122321 112 139 121
-0.083920635 -0.43345147 -0.68129671 115 137 121
-0.083706215 -0.43392724 -0.68127614 114 138 120
-0.077601932 -0.43279892 -0.68021768 133 139 125
-0.079743393 -0.43168145 -0.68061638 129 139 126
-0.079195082 -0.43212682 -0.68051827 129 138 126
-0.07720612 -0.43180013 -0.68011391 143 138 127
-0.086993188 -0.43842471 -0.68209207 113 136 120
-0.085716069 -0.43718937 -0.68177927 111 137 119
-0.081323959 -0.43623066 -0.6809724 113 136 121
-0.085909143 -0.37680945 -0.6793555 131 131 118
-0.084844165 -0.37693217 -0.67912358 125 135 117
-0.088078678 -0.37765136 -0.67993975 149 127 120
-0.087234326 -0.38030979 -0.68004805 172 130 122
-0.085604437 -0.38026237 -0.67971581 167 129 121
-0.086865544 -0.38022271 -0.67996478 170 129 122
-0.087110117 -0.3796654 -0.67995358 166 129 122
-0.087274134 -0.37881434 -0.67989451 159 128 121
-0.085781015 -0.37776285 -0.67944682 140 130 119
-0.084466785 -0.38020965 -0.67947733 161 130 121
-0.085304551 -0.37918103 -0.67952925 154 129 120
-0.086266756 -0.37838876 -0.67964125 150 127 120
-0.086060897 -0.37875742 -0.67964405 154 127 121
-0.084971458 -0.37966943 -0.6795193 158 129 121
-0.082227305 -0.37840077 -0.67880213 126 134 118
-0.083255813 -0.3790459 -0.67907763 140 133 119
-0.084962316 -0.38106462 -0.67967176 170 131 121
-0.085842855 -0.38159025 -0.67990059 176 132 122
-0.085606381 -0.38093314 -0.67978805 172 130 122
-0.083993688 -0.38173732 -0.67954129 172 131 121
-0.083428703 -0.3847481 -0.67970413 190 135 121
-0.083745711 -0.38462949 -0.67976618 191 134 121
-0.083333969 -0.38224623 -0.67945534 170 134 121
-0.083922304 -0.38239533 -0.67958987 176 132 121
-0.084409244 -0.38582316 -0.67997152 192 135 124
-0.084306598 -0.38744491 -0.68002963 194 134 128
-0.082428627 -0.38763076 -0.67964429 186 135 127
-0.08038047 -0.38839796 -0.67938703 184 133 124
-0.080394484 -0.38835016 -0.67938429 184 133 124
-0.081185929 -0.38796809 -0.67947465 184 133 125
-0.08099062 -0.38801098 -0.67944694 184 133 125
-0.080268666 -0.3868762 -0.67920804 175 136 122
-0.083742283 -0.38782573 -0.67991757 195 134 130
-0.077831134 -0.3873364 -0.67877185 184 134 124
-0.078413174 -0.388026 -0.678949 185 133 124
-0.077568606 -0.38769567 -0.67873722 185 134 124
-0.079787113 -0.38683221 -0.67911774 176 135 122
-0.082374327 -0.39160785 -0.679847 181 137 127
-0.081930049 -0.39170969 -0.67976213 183 136 128
-0.082470886 -0.3913922 -0.67985457 183 136 127
-0.083013207 -0.3908377 -0.6799342 185 135 128
-0.081685871 -0.39174888 -0.6797145 184 136 128
-0.080642425 -0.38962948 -0.67947561 187 133 126
-0.080557689 -0.3911652 -0.67948794 187 135 128
-0.080780588 -0.39096582 -0.67952132 188 135 128
-0.080134921 -0.39033452 -0.6794039 185 134 126
-0.080618232 -0.38970673 -0.67947292 187 133 126
-0.077795796 -0.39197409 -0.6789366 197 139 128
-0.079369254 -0.39227849 -0.67927521 189 137 129
-0.078510426 -0.39214233 -0.67909133 194 138 129
-0.07750833 -0.39167997 -0.67886698 197 138 128
-0.078507997 -0.38959354 -0.6790297 186 134 125
-0.079635419 -0.39127582 -0.67931139 186 135 127
-0.079881176 -0.38967738 -0.67933911 185 133 125
-0.078681692 -0.38954297 -0.67906773 186 133 125
-0.079488121 -0.39130411 -0.67927885 186 135 127
-0.080413014 -0.39284742 -0.67951781 183 136 128
-0.082310162 -0.39481187 -0.68002498 157 139 122
-0.081514552 -0.39461169 -0.67985052 163 139 124
-0.081925996 -0.39372018 -0.67987978 168 138 124
-0.082452148 -0.39340484 -0.67996782 167 138 123
-0.080975115 -0.39549237 -0.67978966 161 138 123
-0.08083152 -0.39526537 -0.67974627 163 138 123
-0.078391783 -0.39575529 -0.67922926 170 142 120
-0.076867618 -0.39615521 -0.6788677 166 150 119
-0.079010472 -0.39590001 -0.6793831 168 140 120
-0.077890359 -0.39606744 -0.67911446 166 145 119
-0.078148872 -0.39316577 -0.67906356 194 140 127
-0.07785625 -0.39422756 -0.67906308 189 141 125
-0.079009138 -0.39530519 -0.67936546 175 139 122
-0.078853317 -0.39437976 -0.67927998 182 139 125
-0.078553222 -0.39382857 -0.67918587 187 139 126
-0.079340376 -0.39558169 -0.67945039 172 138 122
-0.081290387 -0.39892963 -0.68001813 158 138 123
-0.081449643 -0.39862451 -0.68003881 155 139 122
-0.081163831 -0.39921728 -0.68000364 159 138 123
-0.080555148 -0.39894873 -0.67985588 164 136 122
-0.080229498 -0.39961457 -0.67980176 170 133 123
-0.077351607 -0.39767748 -0.67903525 166 147 120
-0.076764286 -0.39877614 -0.67899656 170 144 121
-0.076520838 -0.39897475 -0.67896152 171 143 121
-0.078446075 -0.39981851 -0.67941719 173 137 123
-0.078438543 -0.39904475 -0.67935848 170 140 122
-0.078236878 -0.39659199 -0.67921203 162 144 119
-0.078212395 -0.39796674 -0.67925429 167 143 121
-0.079654589 -0.39713401 -0.6795758 163 138 120
-0.079189703 -0.39783165 -0.67948723 165 139 120
-0.078655556 -0.39683467 -0.67932236 162 142 119
-0.079805493 -0.39744374 -0.67962343 164 137 121
-0.073625833 -0.40018159 -0.67845351 189 142 125
-0.072551623 -0.39960149 -0.67818731 199 142 126
-0.074323028 -0.39921364 -0.67852306 195 138 127
-0.074277624 -0.39866284 -0.67847139 200 136 128
-0.073776111 -0.39923146 -0.67841154 197 139 127
-0.07514675 -0.39913547 -0.67868769 189 138 126
-0.071714088 -0.40036154 -0.67809325 199 143 125
-0.080697492 -0.40275455 -0.6800034 147 138 127
-0.080621257 -0.40117991 -0.6799432 162 136 125
-0.080603756 -0.40411162 -0.68002379 135 142 129
-0.077236086 -0.40220037 -0.67925769 165 138 126
-0.076676771 -0.40132558 -0.67912066 171 138 125
-0.077989809 -0.40396205 -0.67945021 157 138 128
-0.076964244 -0.40262559 -0.67920262 167 138 126
-0.076597646 -0.40160576 -0.67910671 172 138 125
-0.077213436 -0.40084535 -0.67922282 171 137 124
-0.079120114 -0.40255052 -0.67966861 154 139 127
-0.079334967 -0.40306622 -0.67972958 149 141 128
-0.0796398 -0.40357074 -0.67980844 145 141 129
-0.0787386 -0.4023357 -0.67958355 156 139 127
-0.07395146 -0.40300989 -0.6785965 184 139 125
-0.075768486 -0.40403378 -0.67896479 175 135 125
-0.073654205 -0.40369225 -0.67856973 184 138 125
-0.072820537 -0.40187067 -0.67834741 189 142 125
-0.072861195 -0.40375733 -0.67842913 187 139 125
-0.07304766 -0.40091327 -0.67835736 190 143 125
-0.075808875 -0.40172175 -0.67893815 176 138 124
-0.075186707 -0.40047258 -0.67879283 180 140 124
-0.073881462 -0.40184918 -0.67854214 185 141 125
-0.075808547 -0.4017821 -0.67893887 176 138 124
-0.06899672 -0.4025301 -0.67768455 197 138 127
-0.068787999 -0.40288499 -0.67765093 191 139 127
-0.070315436 -0.40305176 -0.67794669 197 138 126
-0.068537742 -0.40385056 -0.67762029 174 142 126
-0.071650416 -0.40297809 -0.67818624 196 139 126
-0.071665831 -0.40329057 -0.67820114 196 138 126
-0.067377388 -0.40338403 -0.67744488 182 141 125
-0.067148238 -0.40376911 -0.67745262 179 140 125
-0.068106882 -0.40393162 -0.6775524 172 142 126
-0.08041022 -0.40453896 -0.68000281 132 142 129
-0.07761576 -0.40808231 -0.67952853 125 143 120
-0.077626273 -0.40774545 -0.67951339 128 144 121
-0.079898939 -0.4066003 -0.67999947 113 142 122
-0.077452585 -0.40719387 -0.67944288 137 144 123
-0.080030337 -0.40443465 -0.67991769 137 142 131
-0.077451795 -0.40466514 -0.67934757 158 138 127
-0.079593845 -0.40434712 -0.67981547 141 142 130
-0.076540552 -0.40464121 -0.67914283 167 136 126
-0.076782972 -0.40474394 -0.67920071 164 137 126
-0.076862015 -0.40730387 -0.67931014 143 143 123
-0.07511045 -0.40809411 -0.67900932 155 141 122
-0.074362427 -0.40686774 -0.67882186 164 140 123
-0.073105402 -0.40544817 -0.67854124 180 139 124
-0.07294222 -0.40448645 -0.6784718 185 138 125
-0.074552797 -0.40610614 -0.67882061 166 141 124
-0.075479224 -0.40718424 -0.67902648 153 143 123
-0.07498201 -0.40529832 -0.67886913 170 138 124
-0.073229894 -0.40510628 -0.67854595 179 139 125
-0.069692999 -0.40593615 -0.67793453 175 139 124
-0.069416292 -0.40732944 -0.67794025 179 140 121
-0.071880609 -0.40491888 -0.67830241 188 137 125
-0.071096979 -0.40564069 -0.67819077 183 138 125
-0.070155248 -0.40587834 -0.67802298 177 138 125
-0.071787186 -0.40522677 -0.67830092 187 138 125
-0.069342807 -0.40456921 -0.67779714 172 142 125
-0.064794935 -0.40471369 -0.67730457 187 137 123
-0.065652832 -0.40490803 -0.67738885 182 138 123
-0.067531385 -0.40724698 -0.67765296 180 141 118
-0.067989789 -0.40547797 -0.67761433 171 142 122
-0.06773819 -0.4049311 -0.67756867 171 142 123
-0.06583783 -0.40520915 -0.67741799 182 139 122
-0.079551622 -0.40970999 -0.68004799 96 141 115
-0.078193136 -0.40975863 -0.6797232 114 142 117
-0.079545587 -0.41035375 -0.68006706 95 141 115
-0.079334363 -0.41192651 -0.68006653 95 141 114
-0.077580579 -0.4088766 -0.67954791 123 143 119
-0.077091418 -0.40939432 -0.67944723 128 143 120
-0.076417282 -0.40969798 -0.67930025 136 143 122
-0.077199467 -0.41061023 -0.67951703 125 143 120
-0.076181322 -0.41149545 -0.67931074 136 142 124
-0.074635625 -0.41086295 -0.67903769 159 137 125
-0.074146137 -0.40982464 -0.67891747 165 136 124
-0.073628165 -0.40859851 -0.67878824 173 136 123
-0.076165631 -0.41179505 -0.67931849 135 141 124
-0.073991597 -0.4092457 -0.67887115 168 137 123
-0.074450716 -0.40990904 -0.67897016 161 137 124
-0.077073574 -0.4132179 -0.67955929 119 142 122
-0.078642264 -0.415016 -0.67995453 90 142 117
-0.077568911 -0.41292238 -0.67967093 114 141 120
-0.07856115 -0.41266164 -0.67989963 102 142 116
-0.076896332 -0.41430876 -0.67957652 101 145 118
-0.076259159 -0.41562453 -0.67952114 76 151 112
-0.076722413 -0.41461736 -0.67955893 94 146 116
-0.076875567 -0.4150613 -0.67960978 87 147 115
-0.073930934 -0.41479573 -0.67908406 131 145 120
-0.072572418 -0.41577929 -0.67884552 141 150 126
-0.072368465 -0.41581458 -0.67880791 144 150 127
-0.07467217 -0.41519451 -0.67922944 111 147 117
-0.074596345 -0.41551164 -0.67922044 108 148 118
-0.074529208 -0.41272873 -0.67910796 154 138 123
-0.074844643 -0.41324124 -0.67918205 140 140 121
-0.074746035 -0.41300589 -0.67915511 146 139 122
-0.074741356 -0.41346109 -0.67917693 138 140 121
-0.075855017 -0.41477627 -0.6794138 96 147 115
-0.070991307 -0.4153229 -0.67853779 157 148 125
-0.076528504 -0.41615602 -0.67959499 70 151 110
-0.078797631 -0.41808623 -0.68007392 90 143 115
-0.078482561 -0.41727266 -0.67999327 84 145 114
-0.078254081 -0.41697079 -0.67994225 81 145 113
-0.076484174 -0.41775566 -0.67962146 85 149 114
-0.077396162 -0.41956508 -0.67983896 99 146 116
-0.076748081 -0.41937044 -0.67970675 100 148 117
-0.072534278 -0.41720775 -0.67887944 140 148 124
-0.072521858 -0.41791949 -0.67890173 140 146 123
-0.074495122 -0.41939187 -0.67929476 122 146 121
-0.073663816 -0.41937181 -0.67914975 130 144 121
-0.072751492 -0.41944322 -0.67899382 138 142 120
-0.073710278 -0.41729197 -0.67908877 129 150 124
-0.076148763 -0.41767827 -0.67955369 85 150 115
-0.075058408 -0.41649994 -0.67932522 95 151 117
-0.075077318 -0.41815996 -0.67936277 111 150 121
-0.073440909 -0.41642231 -0.67902052 125 151 123
-0.069433421 -0.41873133 -0.67834282 156 140 121
-0.0699559 -0.41839483 -0.67842418 159 139 121
-0.068465829 -0.41891897 -0.67817158 155 141 121
-0.071042009 -0.41815352 -0.67862189 155 141 121
-0.070966177 -0.41687262 -0.67856288 156 144 124
-0.0718228 -0.41887489 -0.67880189 147 141 121
-0.071554698 -0.41789672 -0.67871505 149 143 122
-0.067897327 -0.41947311 -0.67811006 150 141 122
-0.066137962 -0.41799465 -0.67778474 163 140 122
-0.066294394 -0.41874748 -0.67785048 158 142 122
-0.06749288 -0.41963741 -0.67806512 149 143 122
-0.06680993 -0.41929772 -0.67795271 152 143 122
-0.068269961 -0.41955701 -0.67816871 149 142 121
-0.068079881 -0.41871554 -0.67810106 157 141 121
-0.067739904 -0.41900048 -0.67806447 154 141 121
-0.057627127 -0.41890413 -0.67698801 171 136 125
-0.058395032 -0.41975391 -0.67704779 168 136 124
-0.078166798 -0.42140445 -0.68001276 99 142 115
-0.076420709 -0.4200722 -0.67965466 106 148 119
-0.076846227 -0.42030197 -0.67974102 104 147 119
-0.076351434 -0.42044854 -0.67964327 105 149 119
-0.076693021 -0.4225578 -0.67972195 96 145 115
-0.076460034 -0.42162037 -0.67967004 99 147 117
-0.073303759 -0.42345619 -0.67905551 112 142 119
-0.074466541 -0.42328078 -0.67929065 104 143 116
-0.074641533 -0.42343056 -0.67932218 102 144 116
-0.074590072 -0.42240298 -0.67933428 109 143 116
-0.075127095 -0.42307746 -0.67942649 100 144 115
-0.07608036 -0.42279014 -0.67959839 93 146 115
-0.074743442 -0.4205175 -0.67935818 117 145 119
-0.076141015 -0.42209479 -0.67960644 96 147 116
-0.074395508 -0.42169046 -0.67930198 114 143 117
-0.073518574 -0.42094594 -0.67914706 126 142 118
-0.075391889 -0.42126048 -0.67947334 107 146 117
-0.06841898 -0.42091635 -0.67824954 144 140 122
-0.06893459 -0.42291006 -0.67839861 139 135 123
-0.070011564 -0.4237383 -0.67856479 131 136 123
-0.069853157 -0.42189267 -0.67846525 134 140 122
-0.068365201 -0.42279533 -0.67832482 142 134 124
-0.07043539 -0.42187563 -0.67854285 132 141 121
-0.07174059 -0.42136842 -0.67879677 134 140 121
-0.07174664 -0.42286608 -0.6787653 124 141 121
-0.070726767 -0.42076305 -0.67862129 139 141 121
-0.070569202 -0.41994467 -0.67860973 144 141 120
-0.064586371 -0.42346725 -0.67792892 135 146 119
-0.065037958 -0.42319036 -0.67795962 137 144 120
-0.066691153 -0.42332089 -0.67815059 139 138 122
-0.066380963 -0.4236038 -0.67813587 138 139 122
-0.065048374 -0.42306468 -0.67795217 137 145 120
-0.067764953 -0.42283607 -0.67824548 143 135 124
-0.066893935 -0.42069864 -0.67803478 147 143 122
-0.068158627 -0.42244133 -0.67828155 143 136 123
-0.066672005 -0.42103726 -0.67801946 147 143 123
-0.068321422 -0.42258298 -0.67830968 142 135 124
-0.061810769 -0.42254937 -0.67747784 156 137 122
-0.061048437 -0.42181897 -0.67732012 165 134 124
-0.063207343 -0.423159 -0.67771709 144 142 120
-0.062312212 -0.42184079 -0.67750055 157 138 123
-0.062282074 -0.42342174 -0.67760396 148 139 120
-0.064389817 -0.42075372 -0.67771918 149 149 122
-0.063605636 -0.42295921 -0.67775983 143 143 120
-0.062442683 -0.42053503 -0.6774295 163 140 125
-0.061994907 -0.42001605 -0.67733073 168 139 126
-0.063693605 -0.42203325 -0.67770875 147 144 121
-0.059616059 -0.42303315 -0.67730331 156 135 120
-0.05781034 -0.42171741 -0.67715782 152 137 120
-0.060082886 -0.42359024 -0.67735517 156 134 121
-0.059266794 -0.4221057 -0.67723006 159 135 122
-0.057796065 -0.42051813 -0.67707747 159 137 122
-0.059681669 -0.42280406 -0.67729014 158 135 121
-0.059871159 -0.42157814 -0.67721236 166 134 124
-0.058789756 -0.42066142 -0.67711729 165 136 124
-0.057895858 -0.42051619 -0.67708039 160 138 122
-0.078166775 -0.42547849 -0.68006837 103 140 117
-0.077006705 -0.42447335 -0.67980552 93 143 114
-0.078187868 -0.42546198 -0.68007237 103 140 117
-0.076428823 -0.42661047 -0.67971569 108 141 118
-0.076230705 -0.42766523 -0.67968702 117 139 120
-0.072299361 -0.4273386 -0.67888463 126 140 121
-0.072532497 -0.4258298 -0.67891616 122 140 121
-0.072660819 -0.42585689 -0.67894244 122 140 121
-0.073834069 -0.42647311 -0.67918712 121 139 121
-0.074645601 -0.4267208 -0.67935449 119 140 121
-0.07306394 -0.42451856 -0.6790098 117 140 121
-0.075911433 -0.42582452 -0.67959529 105 142 117
-0.074410357 -0.42388287 -0.67926836 101 143 116
-0.073886946 -0.425118 -0.67918229 115 141 120
-0.074297734 -0.42550394 -0.67926961 115 141 120
-0.070649348 -0.42662033 -0.67866212 130 137 121
-0.06876675 -0.42449102 -0.6784187 138 132 124
-0.070178911 -0.42613888 -0.67860049 132 136 122
-0.069907188 -0.42748502 -0.67854041 124 139 118
-0.069864646 -0.42620048 -0.67855358 131 136 121
-0.070996039 -0.42394793 -0.67868882 126 137 123
-0.071748666 -0.42615753 -0.67880291 126 138 122
-0.072110325 -0.42740455 -0.67885971 128 139 121
-0.071934141 -0.42694676 -0.67883366 128 139 121
-0.071806096 -0.42651019 -0.67881358 127 138 121
-0.066382401 -0.42622235 -0.67812097 130 143 117
-0.065607429 -0.427102 -0.67804265 141 142 118
-0.065112017 -0.42471406 -0.67800093 132 145 118
-0.064623162 -0.42771754 -0.67794466 153 142 118
-0.064858645 -0.42678976 -0.67797035 146 143 118
-0.068198249 -0.42579633 -0.67832154 130 137 120
-0.067978621 -0.42469403 -0.67831403 135 135 122
-0.067419365 -0.42669162 -0.6782223 124 142 117
-0.067648739 -0.42486915 -0.67827505 134 136 121
-0.067336097 -0.42599699 -0.67822361 127 140 118
-0.060839485 -0.42419764 -0.67742956 157 134 120
-0.061476879 -0.42654374 -0.67758405 156 137 119
-0.061824366 -0.42645019 -0.67761523 156 137 119
-0.062498432 -0.4270941 -0.67770761 155 139 119
-0.061668027 -0.4256013 -0.67756671 157 136 120
-0.061642494 -0.42762509 -0.67764246 155 138 119
-0.063454069 -0.42492342 -0.67779452 145 141 119
-0.061877597 -0.42425433 -0.6775732 151 137 119
-0.062992103 -0.42562521 -0.6777271 152 139 119
-0.063898176 -0.42674327 -0.67785221 152 141 118
-0.064442143 -0.42545086 -0.67793292 142 144 118
-0.060322877 -0.42758644 -0.67752558 154 137 119
-0.059735499 -0.42688042 -0.67747724 150 136 119
-0.059987489 -0.42684731 -0.67748427 152 136 119
-0.076660722 -0.42948815 -0.67987734 130 138 124
-0.076676965 -0.43107492 -0.6799708 143 138 127
-0.07462953 -0.4304086 -0.67951268 144 138 125
-0.074852489 -0.4305495 -0.67956734 144 138 126
-0.072994821 -0.429032 -0.67909694 135 139 122
-0.073392086 -0.43037969 -0.67924178 143 139 124
-0.073040269 -0.42967397 -0.67913461 139 139 122
-0.072951242 -0.42992315 -0.67912596 141 139 123
-0.072589263 -0.4280093 -0.6789636 129 139 121
-0.075590253 -0.42914096 -0.67963862 131 138 123
-0.073887005 -0.42775109 -0.67921209 124 139 120
-0.073075324 -0.42779663 -0.67904997 126 139 120
-0.074848622 -0.42869475 -0.67946213 129 138 123
-0.070914194 -0.431227 -0.67882794 150 139 122
-0.070717864 -0.43047792 -0.67877108 143 139 121
-0.069455013 -0.43158177 -0.67861575 157 136 124
-0.070064567 -0.43125367 -0.678698 152 137 123
-0.069414273 -0.43065205 -0.67857641 148 137 122
-0.071403414 -0.4302547 -0.67886472 141 140 121
-0.071097888 -0.42945838 -0.67878556 136 140 121
-0.071853958 -0.428581 -0.67885834 132 140 121
-0.071565911 -0.43084872 -0.67891419 145 140 122
-0.069837585 -0.42911941 -0.67858636 131 140 118
-0.066582464 -0.42992777 -0.67821413 158 137 122
-0.066768236 -0.43076578 -0.6782608 164 135 123
-0.065861076 -0.43104193 -0.6781795 172 133 124
-0.066229463 -0.42953584 -0.67816579 157 138 121
-0.064947464 -0.4313859 -0.67809975 181 131 125
-0.066421784 -0.42984495 -0.67819536 159 137 122
-0.065915518 -0.4283503 -0.67809296 148 140 119
-0.067622058 -0.42959437 -0.67830408 146 137 121
-0.065838769 -0.42806146 -0.67807513 146 141 118
-0.068356864 -0.42876536 -0.67834646 131 139 119
-0.067957878 -0.43063971 -0.67837411 153 135 123
-0.06058142 -0.42906174 -0.67762864 153 138 119
-0.060723398 -0.42840123 -0.67759359 155 137 119
-0.060716867 -0.43017706 -0.67771274 151 139 119
-0.061907396 -0.43052173 -0.67781484 163 136 121
-0.061600246 -0.43006274 -0.67776364 161 136 121
-0.061744176 -0.43116859 -0.67784762 159 137 121
-0.06430494 -0.43131685 -0.67803329 184 130 125
-0.063522816 -0.42968217 -0.6779002 170 135 122
-0.061259601 -0.42784262 -0.67761201 156 137 119
-0.062968239 -0.42944816 -0.67783684 169 134 122
-0.063553929 -0.4282372 -0.67785484 159 139 119
-0.059845056 -0.43028527 -0.67770046 145 140 120
-0.076547422 -0.43377927 -0.68003166 131 139 123
-0.073590867 -0.43510041 -0.67950511 132 137 120
-0.072453871 -0.43488559 -0.67928463 140 136 121
-0.073387302 -0.43505579 -0.67946523 133 137 120
-0.072853066 -0.43437076 -0.6793257 139 138 121
-0.074798256 -0.43399158 -0.67966348 129 140 120
-0.074924096 -0.4322775 -0.67964655 145 139 125
-0.072921634 -0.431844 -0.6791991 149 139 123
-0.075818509 -0.43290043 -0.67985761 140 139 125
-0.074775554 -0.43364939 -0.67964971 133 139 122
-0.074416183 -0.43191171 -0.67952645 149 139 125
-0.070630625 -0.43451643 -0.67896873 146 136 122
-0.068471976 -0.43348625 -0.67855984 155 138 124
-0.069697879 -0.43495426 -0.67883611 148 139 123
-0.070346355 -0.43385461 -0.67888862 149 136 122
-0.068434507 -0.43443576 -0.67860103 153 139 124
-0.072134972 -0.43401596 -0.67917675 144 137 121
-0.070659213 -0.43265772 -0.67886585 152 136 123
-0.070994109 -0.43221995 -0.67889059 152 137 123
-0.070946515 -0.4326469 -0.67890948 151 137 123
-0.070636921 -0.43206975 -0.67882633 153 137 123
-0.064576402 -0.43290988 -0.67811936 175 131 124
-0.065533623 -0.43499234 -0.67830396 157 135 122
-0.066474549 -0.4337585 -0.67836529 167 136 124
-0.06623847 -0.43343374 -0.67832667 170 135 125
-0.066072531 -0.43348935 -0.67830992 170 134 125
-0.064884901 -0.43191546 -0.67811579 183 131 125
-0.065805502 -0.43203002 -0.67821348 176 131 125
-0.067930818 -0.43424335 -0.67853618 156 138 125
-0.06799145 -0.4340342 -0.67853177 156 138 125
-0.068021722 -0.43242675 -0.67845452 160 135 125
-0.067407094 -0.43269014 -0.6784063 164 134 125
-0.0627141 -0.43470937 -0.67809129 149 136 120
-0.06289763 -0.4350256 -0.67812026 149 136 120
-0.061575413 -0.43521464 -0.67809868 146 138 120
-0.061951373 -0.4349241 -0.67808688 147 138 120
-0.063212015 -0.43306851 -0.67802894 161 135 122
-0.063432775 -0.43253487 -0.67802411 168 134 122
-0.063041039 -0.43181688 -0.67797178 170 133 123
-0.06430161 -0.43381974 -0.67812872 166 133 122
-0.062811166 -0.43340552 -0.6780147 154 137 120
-0.062347461 -0.4318043 -0.67792535 163 136 122
-0.073010072 -0.43659312 -0.67946917 132 139 119
-0.070318282 -0.43819204 -0.67907804 145 142 121
-0.070562713 -0.43931511 -0.67916667 151 140 121
-0.070978925 -0.43838075 -0.67919379 138 144 119
-0.069436349 -0.43762255 -0.67890966 152 140 123
-0.068609908 -0.4383626 -0.67880738 168 136 126
-0.072169282 -0.43780667 -0.67936695 134 141 118
-0.071181715 -0.43771556 -0.6791997 137 143 119
-0.072260715 -0.43736631 -0.6793642 135 140 118
-0.0697698 -0.43655056 -0.67891848 144 142 122
-0.072050519 -0.43626127 -0.67928439 138 138 119
-0.065401606 -0.43749577 -0.6784395 155 136 124
-0.066381685 -0.43837669 -0.67858422 162 135 126
-0.066260085 -0.4383924 -0.67857736 161 135 126
-0.064774193 -0.43866879 -0.67850113 143 140 126
-0.064854689 -0.4368453 -0.67834455 152 136 123
-0.067938782 -0.43900838 -0.67874706 177 132 127
-0.06738022 -0.43620405 -0.67856181 156 138 124
-0.068240829 -0.43742314 -0.67871225 165 136 126
-0.066995755 -0.43643564 -0.67852837 158 136 124
-0.064922243 -0.4355787 -0.67825651 153 135 121
-0.062956698 -0.43852258 -0.67841184 133 142 124
-0.062465746 -0.43917269 -0.67842823 124 143 120
-0.063994035 -0.43811744 -0.67841786 140 140 125
-0.063173071 -0.43755892 -0.67834604 141 140 124
-0.063818306 -0.43707323 -0.67832035 144 138 123
-0.063496917 -0.43773267 -0.67837024 141 140 125
-0.063769072 -0.43630451 -0.67825073 148 136 122
-0.061556544 -0.43603078 -0.67816633 143 138 122
-0.068436287 -0.43983614 -0.67886102 174 133 127
-0.069811322 -0.44131616 -0.6791923 152 137 126
-0.069938697 -0.44205976 -0.67928046 141 139 125
-0.070849113 -0.43948293 -0.67922145 148 140 120
-0.071392827 -0.43981507 -0.67933357 140 142 119
-0.071514942 -0.43981421 -0.6793533 139 142 119
-0.071004823 -0.44020954 -0.67929834 144 140 122
-0.072036937 -0.43989497 -0.67944402 132 144 118
-0.065419622 -0.44314122 -0.67893398 136 141 124
-0.065268859 -0.44258177 -0.67887521 137 141 125
-0.065800473 -0.44224688 -0.67888916 134 142 125
-0.064769007 -0.44247377 -0.67882681 138 141 126
-0.06670022 -0.44222611 -0.67895836 131 143 124
-0.068231791 -0.44073412 -0.67892671 161 136 126
-0.067846544 -0.44157714 -0.67898041 145 141 124
-0.065981202 -0.4397817 -0.67868382 148 139 127
-0.067913547 -0.44208443 -0.67903304 139 142 123
-0.064906783 -0.43948701 -0.67858303 140 141 128
-0.06311509 -0.44326699 -0.67881155 138 138 123
-0.064166978 -0.44051492 -0.67862308 134 143 126
-0.063856885 -0.43957198 -0.67852813 131 143 125
-0.064373255 -0.4405005 -0.67863256 136 142 127
-0.063839063 -0.44053513 -0.67860782 132 142 124
-0.065450661 -0.44442329 -0.67905509 136 141 124
-0.066988081 -0.44574037 -0.67930079 131 141 122
-0.065080091 -0.44397148 -0.67898327 138 140 125
-0.067020677 -0.44538283 -0.67926955 131 141 122
-0.066857152 -0.44445443 -0.67916906 132 142 122
-0.066040784 -0.44398439 -0.67906028 135 142 123
-0.064210676 -0.44381914 -0.67890906 135 141 123
-0.064192854 -0.44404271 -0.67892939 133 142 121
-0.098968811 -0.39011803 -0.68452722 148 141 121
-0.0981405 -0.39146399 -0.6843335 146 141 120
-0.097619109 -0.39123234 -0.68411213 145 141 121
-0.097772025 -0.39526439 -0.68447125 138 141 118
-0.097085811 -0.39564145 -0.68422168 134 141 118
-0.099017143 -0.39445201 -0.68491501 143 142 119
-0.098601751 -0.39510092 -0.68479341 139 143 118
-0.09933272 -0.3955569 -0.68511915 135 145 117
-0.097752109 -0.39306793 -0.68432122 145 141 120
-0.097607598 -0.39311019 -0.68426692 144 141 120
-0.097416878 -0.39415184 -0.68425769 140 141 119
-0.097160228 -0.39489627 -0.68420362 137 140 119
-0.10515693 -0.39941338 -0.68768525 152 142 121
-0.10515321 -0.39867038 -0.68763441 157 141 121
-0.10490173 -0.39979672 -0.6875962 148 142 121
-0.10372216 -0.39967552 -0.68707132 139 143 121
-0.10367719 -0.39942545 -0.68704021 142 142 121
-0.10200654 -0.39890099 -0.68635046 130 146 119
-0.10119903 -0.39872909 -0.68603659 132 145 118
-0.10192829 -0.39950186 -0.68636006 134 144 120
-0.099609613 -0.39892352 -0.68545324 143 144 118
-0.10005161 -0.40033308 -0.68571019 148 142 120
-0.099975243 -0.39902517 -0.68559688 141 144 118
-0.1033685 -0.3986043 -0.68687385 147 141 121
-0.10199286 -0.39656672 -0.68623894 152 140 119
-0.10301419 -0.39845672 -0.6867274 144 141 120
-0.10074872 -0.39702034 -0.68576878 134 145 117
-0.10243769 -0.39919433 -0.68653345 131 145 119
-0.10232949 -0.39846954 -0.68645799 137 144 119
-0.096914232 -0.39673257 -0.68422872 130 141 117
-0.096588306 -0.3993319 -0.68427646 138 132 118
-0.098013058 -0.39681056 -0.68467581 130 143 116
-0.09707655 -0.39663386 -0.68428719 129 142 116
-0.096954301 -0.4002862 -0.68448502 144 132 119
-0.099540614 -0.39984992 -0.68548578 147 142 119
-0.098202221 -0.40019685 -0.68497574 147 136 120
-0.098898068 -0.39763463 -0.68508667 133 143 116
-0.099306099 -0.39701179 -0.68520862 130 145 116
-0.097865641 -0.39930558 -0.68478411 141 137 118
-0.10488813 -0.40260255 -0.68781137 126 138 117
-0.10401956 -0.40164101 -0.68734449 126 141 119
-0.10487086 -0.40308174 -0.68784589 122 137 116
-0.10371715 -0.4012073 -0.68717504 126 142 120
-0.10363156 -0.40231934 -0.68724996 115 140 116
-0.10074948 -0.40315512 -0.68613166 106 148 110
-0.10023106 -0.4031359 -0.68589962 104 152 109
-0.099994972 -0.40192059 -0.68576151 125 147 114
-0.10001711 -0.40376109 -0.68582082 92 156 106
-0.10099653 -0.40306404 -0.68623954 108 146 111
-0.10053668 -0.40134501 -0.68598801 137 140 118
-0.10278811 -0.40128243 -0.6868279 126 142 118
-0.10245171 -0.40267223 -0.68683881 116 138 115
-0.10186857 -0.40103725 -0.68645895 133 142 119
-0.10140158 -0.40136647 -0.68631631 133 140 118
-0.10264873 -0.40268353 -0.68691373 115 138 115
-0.097388692 -0.40230405 -0.68472737 114 143 111
-0.097592086 -0.40276223 -0.68483323 108 145 110
-0.096880265 -0.40312544 -0.68461323 109 141 111
-0.098557211 -0.40429527 -0.68528664 88 155 106
-0.096409179 -0.4025273 -0.68440336 118 137 114
-0.097134963 -0.40219089 -0.68463033 116 141 113
-0.098923028 -0.40168145 -0.68530977 126 146 114
-0.096663184 -0.40071201 -0.68438464 139 132 118
-0.098530002 -0.40128508 -0.68514276 132 143 116
-0.099480666 -0.40361011 -0.68558347 94 157 106
-0.098356858 -0.40239161 -0.6851036 112 148 111
-0.096541479 -0.40074882 -0.6843372 138 132 118
-0.095511921 -0.40159255 -0.68401915 132 130 117
-0.099783219 -0.40645841 -0.68585891 103 147 108
-0.099940851 -0.40585506 -0.68589127 98 151 106
-0.10096853 -0.40573615 -0.68633181 102 152 105
-0.10204355 -0.40754244 -0.68690878 127 139 109
-0.10021397 -0.40559793 -0.68599474 97 153 106
-0.10069719 -0.40591654 -0.68622446 103 150 105
-0.10224593 -0.40643236 -0.68693572 116 143 108
-0.10222141 -0.40570736 -0.68688911 108 144 108
-0.10170612 -0.40637392 -0.68669176 114 146 107
-0.1017549 -0.40532413 -0.6866619 101 147 107
-0.096042521 -0.40530762 -0.68445057 105 137 111
-0.097901411 -0.4078784 -0.68522966 107 138 109
-0.097035423 -0.4069564 -0.68487448 105 137 109
-0.097895563 -0.40704754 -0.68520403 111 136 111
-0.097409651 -0.40758458 -0.68503445 105 137 109
-0.095733754 -0.40663832 -0.68437064 96 139 108
-0.097722761 -0.40607554 -0.68510318 110 138 111
-0.099216238 -0.4059847 -0.68561774 100 148 108
-0.09932182 -0.40458634 -0.68557042 86 158 104
-0.098912999 -0.40525284 -0.6854682 95 151 106
-0.098472677 -0.40592045 -0.68535501 103 144 109
-0.096677728 -0.40482533 -0.68466413 105 139 111
-0.09547244 -0.40611902 -0.68427467 97 138 109
-0.095543556 -0.40559155 -0.68428135 101 137 110
-0.094648577 -0.40720883 -0.68405575 91 139 108
-0.096252665 -0.40854329 -0.68462741 98 139 106
-0.095381103 -0.40889257 -0.68432736 96 138 107
-0.094266787 -0.40937957 -0.68400615 101 136 111
0 0 0 1 0 0 0 1 0 0 0 1 0 0 0 0 0 939 1 0 0
