ply
format ascii 1.0
comment PCL generated
element vertex 899
property float x
property float y
property float z
property uchar red
property uchar green
property uchar blue
element camera 1
property float view_px
property float view_py
property float view_pz
property float x_axisx
property float x_axisy
property float x_axisz
property float y_axisx
property float y_axisy
property float y_axisz
property float z_axisx
property float z_axisy
property float z_axisz
property float focal
property float scalex
property float scaley
property float centerx
property float centery
property int viewportx
property int viewporty
property float k1
property float k2
end_header
-0.24064292 0.57421714 -0.87108588 143 134 109
-0.24075282 0.57459241 -0.8711769 144 133 109
-0.24081381 0.57245392 -0.8712436 144 136 106
-0.23941709 0.57361197 -0.86974776 136 135 108
-0.23859201 0.57288706 -0.86886275 131 136 107
-0.23807243 0.57284313 -0.86831474 129 136 107
-0.23898517 0.57236153 -0.86926454 133 137 106
-0.2393894 0.5724231 -0.86969149 135 136 106
-0.24093124 0.57222265 -0.87137425 145 136 106
-0.24077299 0.5716669 -0.87120372 146 136 106
-0.24073896 0.5692876 -0.87119871 159 132 108
-0.24031992 0.56886864 -0.87063324 154 132 108
-0.24022925 0.57044864 -0.87054127 147 134 107
-0.23904659 0.57014656 -0.86940181 142 133 108
-0.23979433 0.56971484 -0.87011158 147 133 107
-0.23855762 0.57012105 -0.86893237 139 133 108
-0.23972492 0.57011354 -0.8700518 145 134 107
-0.23900513 0.57223326 -0.86928529 133 137 106
-0.23751238 0.5710898 -0.867778 130 135 107
-0.23768035 0.57109475 -0.86795455 131 135 107
-0.23787987 0.57175952 -0.86812735 129 136 107
-0.24040216 0.56698227 -0.8709017 150 134 108
-0.24066183 0.56717831 -0.87122381 156 132 109
-0.24040413 0.56482428 -0.87120104 139 137 109
-0.23767971 0.5648858 -0.8683663 131 138 108
-0.240025 0.56658357 -0.87054497 146 135 108
-0.23774679 0.56531197 -0.86837536 133 138 107
-0.23963988 0.5648188 -0.87039679 136 138 108
-0.23987693 0.5657019 -0.87051666 141 136 108
-0.23811738 0.56465852 -0.86884964 130 139 107
-0.23977427 0.5650174 -0.87050736 137 137 108
-0.2376518 0.5655278 -0.86825657 134 137 107
-0.23859516 0.56778157 -0.86898369 145 132 109
-0.23735401 0.56625855 -0.86791337 134 135 108
-0.23922572 0.5677377 -0.86959195 149 133 108
-0.23872229 0.5676282 -0.86911774 146 132 109
-0.23890793 0.56816357 -0.86925358 148 131 109
-0.24026321 0.56397146 -0.87105221 133 138 109
-0.24065487 0.55869853 -0.87135023 142 131 110
-0.24046859 0.55789679 -0.87094986 154 129 111
-0.23949288 0.55787748 -0.86982518 144 128 112
-0.23987597 0.55931735 -0.87016368 127 133 109
-0.23841164 0.55800319 -0.86887097 130 129 112
-0.23844543 0.55759263 -0.86890072 136 127 113
-0.23809582 0.55756378 -0.86859214 133 127 113
-0.23797913 0.55757636 -0.86848921 131 127 113
-0.23759131 0.5586502 -0.86803782 126 132 110
-0.23725964 0.55709577 -0.86784673 131 126 114
-0.23734981 0.55791807 -0.86786366 128 129 112
-0.23905104 0.55932522 -0.86941946 119 133 109
-0.24041954 0.55469823 -0.87131202 176 129 112
-0.24053708 0.55531716 -0.87140101 175 128 112
-0.23933929 0.55552959 -0.86972231 158 130 111
-0.23917639 0.55526751 -0.86959809 156 131 110
-0.23972952 0.55449915 -0.87039554 166 130 111
-0.23984776 0.55538726 -0.87032765 167 128 112
-0.23991682 0.55540884 -0.87040055 168 128 112
-0.23715466 0.5565834 -0.86776221 136 124 116
-0.23801047 0.5564357 -0.86851996 145 125 114
-0.23882943 0.55542779 -0.86925912 152 131 110
-0.23859094 0.54923904 -0.86991817 159 136 109
-0.23803939 0.54549456 -0.86941135 175 132 114
-0.23762776 0.5452044 -0.86882275 173 133 114
-0.2378394 0.5460853 -0.86893773 170 135 113
-0.23909564 0.54517907 -0.87119359 188 129 113
-0.23879269 0.54536337 -0.87065834 184 130 114
-0.23824225 0.54540801 -0.86976033 178 132 114
-0.23749352 0.54567057 -0.86848694 169 134 114
-0.23740606 0.5483796 -0.86848766 158 131 113
-0.23837963 0.5480231 -0.86964899 165 134 111
-0.23747504 0.54804945 -0.86855346 159 132 113
-0.23801182 0.54822737 -0.869214 162 133 112
-0.2384838 0.5478248 -0.86976457 166 135 111
-0.23744173 0.54738545 -0.86847717 162 132 113
-0.23844634 0.54106802 -0.87074035 170 132 111
-0.2379206 0.54227316 -0.86973077 170 133 113
-0.23674881 0.54211408 -0.86803824 169 135 112
-0.23673169 0.54427129 -0.86759037 169 134 115
-0.23768164 0.54331887 -0.86917436 169 133 114
-0.23804633 0.54245734 -0.8698796 169 132 113
-0.23773961 0.54319102 -0.86928463 169 133 114
-0.23859918 0.54441249 -0.87052083 183 130 114
-0.23861776 0.54447454 -0.8705433 183 130 114
-0.23842113 0.54353201 -0.87033927 176 131 113
-0.23893309 0.54474437 -0.87101889 187 129 114
-0.23844847 0.54390025 -0.87033933 179 131 114
-0.23805928 0.54376185 -0.86972898 175 132 114
-0.23848563 0.54468447 -0.87030542 183 130 114
-0.23711377 0.5406754 -0.86893094 169 134 111
-0.23716314 0.53908247 -0.86963671 167 132 112
-0.23733203 0.53866374 -0.87005115 167 131 112
-0.23792794 0.53942984 -0.87062144 168 131 112
-0.23797861 0.54042071 -0.8703019 169 132 111
-0.23843484 0.53921783 -0.87144983 168 130 112
-0.2364471 0.53923368 -0.86863887 160 131 112
-0.23679455 0.5388841 -0.86924809 163 131 112
-0.23708649 0.53833377 -0.86988157 163 130 113
-0.24646804 0.58270127 -0.87907428 137 131 110
-0.2464769 0.58303696 -0.87894797 137 131 109
-0.24510685 0.57727474 -0.87683761 137 129 111
-0.24595627 0.57283115 -0.87817276 169 126 112
-0.24651778 0.57344127 -0.87921107 168 125 113
-0.24628833 0.57248491 -0.87882334 174 124 113
-0.24635817 0.5732438 -0.87891716 168 125 113
-0.24491917 0.57295364 -0.8761903 163 128 109
-0.24590269 0.57251501 -0.87808698 171 126 112
-0.24642946 0.57160234 -0.87915319 172 125 113
-0.24628516 0.56985706 -0.87901729 161 129 112
-0.24624239 0.5712617 -0.87881285 169 126 114
-0.24620388 0.5714823 -0.87871802 169 125 114
-0.24628474 0.57083017 -0.87893337 166 127 113
-0.24450335 0.57180727 -0.87545532 163 129 109
-0.24523261 0.5713321 -0.87686723 162 128 111
-0.24579833 0.57192957 -0.87791693 170 125 112
-0.24626605 0.5718084 -0.87881386 172 124 114
-0.24509296 0.55938214 -0.87904018 162 129 109
-0.24470967 0.55727953 -0.87850666 166 129 112
-0.24419455 0.55841196 -0.87683767 161 133 109
-0.24462104 0.5581277 -0.87811613 162 129 112
-0.24364443 0.55752838 -0.87623388 164 133 109
-0.24360254 0.55749649 -0.87618929 164 133 109
-0.24384654 0.55776042 -0.87643683 163 133 109
-0.24428824 0.55559283 -0.87789243 180 130 113
-0.24477297 0.55643183 -0.87889129 171 128 113
-0.24458177 0.55493158 -0.87905908 187 126 116
-0.24451524 0.5549106 -0.87887675 187 126 115
-0.2442017 0.55370975 -0.87855822 200 125 117
-0.24300553 0.55452436 -0.87619323 176 130 113
-0.24328922 0.55343586 -0.87717539 191 126 116
-0.24266897 0.55314475 -0.87633234 185 126 116
-0.24325855 0.55504251 -0.87634206 174 130 112
-0.24281816 0.55403215 -0.87613595 179 128 114
-0.24311365 0.55485481 -0.87621391 174 130 112
-0.24355339 0.55644625 -0.8763175 169 133 110
-0.24298373 0.55476463 -0.87608355 174 130 112
-0.24288933 0.55021572 -0.87713063 182 128 115
-0.24373606 0.55030507 -0.87837493 190 124 115
-0.24317721 0.5498786 -0.8775689 183 127 114
-0.24247153 0.54905736 -0.87656289 171 130 113
-0.2438186 0.55070871 -0.87847984 193 125 116
-0.24252363 0.550107 -0.87659615 178 129 114
-0.24270518 0.55060011 -0.87683344 183 129 115
-0.24320965 0.55152828 -0.87752903 192 127 116
-0.24223308 0.55130613 -0.87600321 179 128 115
-0.24324444 0.55228555 -0.87749803 195 125 117
-0.24349275 0.55246383 -0.87787217 199 124 118
-0.24308485 0.55186266 -0.87729275 192 126 116
-0.2431093 0.54834515 -0.87769461 176 128 113
-0.24342652 0.54815191 -0.8782351 180 126 113
-0.24332586 0.54868186 -0.87788677 177 126 113
-0.2431199 0.5457142 -0.87870312 183 131 115
-0.24299783 0.54570371 -0.87852716 182 132 114
-0.24338697 0.54824144 -0.87814301 179 127 114
-0.24367821 0.5480032 -0.87866217 182 125 114
-0.24169455 0.54664063 -0.87589413 176 133 112
-0.24199033 0.54806727 -0.87614983 168 133 113
-0.24203008 0.54593354 -0.87667024 180 133 112
-0.24185303 0.54609883 -0.87630415 179 133 112
-0.24247156 0.54637724 -0.87740415 178 132 113
-0.2431553 0.54498798 -0.8789748 186 132 114
-0.24169526 0.54162264 -0.87672251 190 121 118
-0.24214408 0.54184985 -0.8779161 189 124 116
-0.24306683 0.54392058 -0.87923938 187 130 115
-0.24282715 0.5432201 -0.87901032 187 128 115
-0.2421103 0.5422079 -0.87756181 190 123 117
-0.24186692 0.54186231 -0.87707132 190 122 117
-0.24119619 0.54152572 -0.8755188 192 119 119
-0.24139977 0.54303181 -0.87581193 189 125 116
-0.2431493 0.54481596 -0.87898356 187 131 115
-0.24127725 0.54446828 -0.87549847 187 131 112
-0.2418074 0.54385626 -0.87652701 188 128 115
-0.24202718 0.5446071 -0.87689465 187 131 114
-0.24188171 0.53950065 -0.8785423 178 128 111
-0.24179335 0.5392909 -0.87839538 175 130 110
-0.24171974 0.53783798 -0.87883985 174 127 111
-0.24163157 0.53861409 -0.87825614 173 130 110
-0.24181166 0.53818178 -0.87893707 176 127 112
-0.24191147 0.53838575 -0.87911773 177 126 112
-0.24100493 0.53908765 -0.87623078 170 132 110
-0.24126391 0.54010814 -0.8763966 181 126 114
-0.24072874 0.53789687 -0.87611562 158 141 105
-0.24123722 0.53961766 -0.87661183 175 129 112
-0.24098495 0.53996027 -0.87564433 181 125 115
-0.2416086 0.53630459 -0.87886536 169 127 111
-0.241776 0.53632843 -0.87928408 169 128 111
-0.24156082 0.53518128 -0.87870228 162 130 109
-0.24118066 0.53363734 -0.8776933 151 134 106
-0.24152042 0.53591609 -0.8786301 167 128 110
-0.24155593 0.53543019 -0.87869978 164 129 109
-0.24104016 0.53587049 -0.87737411 162 132 108
-0.24077319 0.53496611 -0.87669045 156 133 107
-0.24059267 0.53653586 -0.87612808 154 140 105
-0.24111491 0.53673536 -0.87753749 164 133 108
-0.2404384 0.536569 -0.87570751 152 142 104
-0.24138492 0.53146422 -0.87856144 154 130 110
-0.24122888 0.53128719 -0.87801224 155 131 109
-0.24163389 0.53198546 -0.87927681 153 131 109
-0.24150661 0.53117102 -0.87927997 155 128 111
-0.24039832 0.53288502 -0.87571585 148 134 105
-0.24054517 0.53051025 -0.87602317 156 129 110
-0.24096912 0.53229088 -0.87712562 151 133 107
-0.24092066 0.53250629 -0.87701005 150 134 107
-0.2410852 0.53242087 -0.87741864 150 134 106
-0.24109092 0.53175581 -0.87741631 152 133 107
-0.25371638 0.58785516 -0.89495224 153 131 108
-0.25257888 0.6015234 -0.88600159 142 131 110
-0.2526167 0.60311311 -0.88540822 142 131 111
-0.25237966 0.60010248 -0.88616711 141 132 109
-0.25224066 0.59807312 -0.88617647 144 130 109
-0.25233623 0.59850711 -0.8863585 143 131 108
-0.25197855 0.5988543 -0.88557702 142 131 109
-0.25167978 0.59896976 -0.88514841 142 130 109
-0.25159323 0.59875906 -0.8850587 142 130 109
-0.25075245 0.59762883 -0.88407093 139 130 110
-0.25068191 0.5982464 -0.88389623 139 131 109
-0.25082359 0.59921688 -0.88396233 140 131 109
-0.25113222 0.59868795 -0.88444668 141 131 109
-0.25250629 0.59476632 -0.88693124 143 132 107
-0.25247461 0.59018379 -0.88699168 155 135 108
-0.25250831 0.59040529 -0.8870337 153 135 108
-0.25242785 0.5905503 -0.8868131 151 135 108
-0.25197729 0.59077418 -0.88573509 147 134 108
-0.24961017 0.58798498 -0.88331854 149 131 112
-0.25075242 0.58789426 -0.88483191 162 130 110
-0.25140601 0.59004503 -0.88515711 149 133 109
-0.2511034 0.5903942 -0.88467628 142 133 109
-0.25123563 0.58987105 -0.8849774 149 132 109
-0.25082228 0.59003443 -0.88439441 142 133 109
-0.25218281 0.58758938 -0.88702059 170 130 109
-0.25084177 0.58668411 -0.88590544 145 131 109
-0.24982698 0.58695829 -0.88436359 139 132 110
-0.25132805 0.58767152 -0.88575804 165 130 109
-0.25135475 0.58696663 -0.88635135 155 131 108
-0.24960326 0.58642489 -0.88418895 135 132 110
-0.24951679 0.58727002 -0.88351572 143 132 110
-0.24924091 0.58151877 -0.88418019 140 131 109
-0.24930736 0.58182937 -0.88438809 136 131 108
-0.2491508 0.58297944 -0.88371354 138 133 107
-0.25019026 0.57751966 -0.88596034 153 134 106
-0.25025415 0.57706696 -0.88615954 156 134 107
-0.25028047 0.57660538 -0.88626724 159 133 107
-0.24984266 0.57706475 -0.88515013 151 135 106
-0.25032595 0.57878339 -0.88617504 147 136 105
-0.25000295 0.57961905 -0.88547742 149 133 107
-0.25025427 0.57939917 -0.88600445 147 135 106
-0.24974269 0.57966942 -0.8849234 150 132 108
-0.24899301 0.57771921 -0.88322878 150 132 107
-0.24911746 0.5770613 -0.88346398 147 134 107
-0.24921726 0.57818907 -0.88373041 150 132 107
-0.25046363 0.57530349 -0.88682723 167 131 109
-0.25029495 0.5751425 -0.88628685 166 132 108
-0.25034833 0.57334113 -0.88690746 170 128 113
-0.24985424 0.57352984 -0.88516438 168 131 109
-0.24965031 0.57240099 -0.88473785 171 130 111
-0.249589 0.57278299 -0.88443446 170 130 110
-0.24952719 0.57436752 -0.88425672 162 133 108
-0.25013715 0.57508653 -0.88583422 165 133 108
-0.24937421 0.57449841 -0.88389617 160 133 107
-0.24940127 0.57390136 -0.8838954 163 133 108
-0.24953957 0.57614374 -0.88448685 152 134 107
-0.25017807 0.57592493 -0.88602877 161 133 107
-0.24985206 0.57059079 -0.88614821 168 127 114
-0.24984217 0.57045424 -0.88615501 168 128 113
-0.24967641 0.56850654 -0.88618052 164 131 111
-0.24876809 0.56864369 -0.8834911 165 127 114
-0.24934658 0.56849575 -0.88521981 164 130 112
-0.24937467 0.56901902 -0.88516492 165 128 113
-0.24916956 0.57071847 -0.88386744 168 129 112
-0.24923663 0.57168752 -0.8836292 169 130 110
-0.24923931 0.57201451 -0.88348025 170 131 110
-0.24977095 0.57156831 -0.88552237 170 127 114
-0.2490508 0.57071668 -0.8834604 168 130 111
-0.24982898 0.57171351 -0.88565159 170 127 113
-0.24885385 0.56466949 -0.88495469 167 127 111
-0.24898612 0.56474203 -0.88534474 167 127 111
-0.2493363 0.56462103 -0.88649654 169 126 112
-0.24981052 0.56793523 -0.88673204 163 131 110
-0.24934432 0.56530106 -0.88626289 167 127 111
-0.24910557 0.56537515 -0.88548082 166 129 110
-0.24915741 0.5674963 -0.88494235 164 130 111
-0.24846512 0.56595021 -0.88334888 165 129 111
-0.24844503 0.56573045 -0.88335115 165 129 111
-0.24950765 0.56821215 -0.88576686 163 130 112
-0.24868909 0.56810826 -0.88340437 164 128 113
-0.24875312 0.5605945 -0.88616085 182 127 115
-0.24808842 0.56318343 -0.88347703 166 129 111
-0.24888639 0.56121808 -0.88615972 182 127 115
-0.24819827 0.56333858 -0.88363606 167 129 111
-0.24911766 0.56184787 -0.88657773 181 126 114
-0.24906191 0.56374878 -0.88588536 172 127 112
-0.24837618 0.5644089 -0.88354075 166 129 110
-0.24875601 0.56429011 -0.88477236 168 127 111
-0.24913347 0.56380641 -0.88609558 172 126 113
-0.24741086 0.56136572 -0.88325483 168 128 113
-0.24797831 0.56077725 -0.88441461 172 128 113
-0.24891904 0.55991989 -0.88691086 186 127 115
-0.24857621 0.55867189 -0.88687855 186 130 113
-0.24827674 0.55744243 -0.88693082 187 133 110
-0.24835871 0.55898476 -0.8862192 183 130 112
-0.24808414 0.55706465 -0.88671839 186 133 110
-0.24784783 0.55958927 -0.88476425 177 128 113
-0.24733539 0.55855799 -0.88428605 180 127 115
-0.24764664 0.55844229 -0.88500303 181 129 113
-0.24800086 0.55952865 -0.88511884 177 129 113
-0.24760768 0.55780977 -0.88528514 183 129 113
-0.24731964 0.56050044 -0.88351494 170 128 113
-0.24683821 0.55919206 -0.88320345 174 126 115
-0.24743007 0.55536878 -0.88695848 168 133 111
-0.24644102 0.55579406 -0.88443285 173 127 115
-0.24713728 0.55516577 -0.88656616 165 133 111
-0.24643803 0.55526173 -0.88500124 165 128 115
-0.24705397 0.55647314 -0.88498086 184 129 113
-0.24651299 0.55354637 -0.88700956 139 133 112
-0.24768898 0.55599153 -0.88682783 177 133 110
-0.24597558 0.55368268 -0.88372278 168 131 112
-0.24616475 0.55355883 -0.88619137 140 131 114
-0.24587986 0.55298507 -0.88358426 166 132 112
-0.24611063 0.55463284 -0.88396776 169 128 115
-0.24606763 0.55317956 -0.88557088 145 131 113
-0.24600065 0.55011845 -0.88647598 161 128 115
-0.2459314 0.5504505 -0.88576174 162 129 115
-0.24603388 0.55156165 -0.88642174 145 131 114
-0.24601793 0.55112636 -0.88638395 151 130 114
-0.24593391 0.54972929 -0.8859632 169 128 115
-0.24600124 0.54910463 -0.88673246 171 127 115
-0.24573292 0.55068642 -0.88351166 179 129 113
-0.24578497 0.55095899 -0.88396311 173 130 113
-0.24586695 0.55175322 -0.88443565 163 131 113
-0.24600078 0.55213445 -0.88580519 145 131 113
-0.2456414 0.54935843 -0.88327235 191 127 115
-0.24055582 0.55038178 -0.8870225 123 134 108
-0.24032077 0.5488863 -0.88692814 129 128 112
-0.23912823 0.54933184 -0.88628072 110 132 110
-0.24007043 0.54993939 -0.88676369 120 132 109
-0.23931283 0.5497492 -0.88636136 109 131 110
-0.24519773 0.54542327 -0.88608217 164 130 111
-0.24527502 0.54577178 -0.88638765 163 131 111
-0.24544351 0.54633176 -0.88582331 173 127 114
-0.24536616 0.54600728 -0.88566703 173 128 114
-0.24536248 0.54614073 -0.88657665 163 131 111
-0.24532972 0.54590231 -0.8858884 170 128 113
-0.24549489 0.54718971 -0.88377988 193 124 117
-0.24543619 0.54649138 -0.88392621 193 123 118
-0.24524981 0.54521537 -0.88347155 197 121 120
-0.24532297 0.54577368 -0.8835938 196 121 119
-0.24561541 0.54801065 -0.88407791 191 125 117
-0.24209604 0.54543257 -0.8865062 132 138 106
-0.24159254 0.54538274 -0.88614988 134 138 107
-0.24044973 0.54617202 -0.88576835 135 136 110
-0.24122524 0.54509157 -0.88576937 136 138 109
-0.24072972 0.54749376 -0.88657904 130 132 110
-0.24026421 0.54593349 -0.8855328 136 136 111
-0.24011423 0.54811376 -0.88648182 129 130 111
-0.23950446 0.54826409 -0.88623184 120 133 110
-0.2396145 0.54848731 -0.88639545 121 132 110
-0.23978767 0.54839575 -0.88644332 123 131 110
-0.24418268 0.54160529 -0.88536882 160 132 110
-0.24490392 0.54215753 -0.88437474 150 132 111
-0.24467476 0.54133689 -0.88401902 154 132 112
-0.24454032 0.54251432 -0.8856225 158 133 109
-0.24501972 0.54376054 -0.88498992 161 130 112
-0.24498178 0.54239023 -0.88324463 168 127 116
-0.24501204 0.54402018 -0.88567418 155 132 110
-0.24504536 0.54369009 -0.88424301 170 127 115
-0.24506152 0.54422516 -0.88489193 168 129 113
-0.24223642 0.54448873 -0.88618731 136 138 107
-0.24208562 0.54481035 -0.88621384 135 139 107
-0.24374078 0.54299939 -0.88625985 145 135 107
-0.24394687 0.5418095 -0.88543338 158 132 110
-0.24274008 0.54403216 -0.88631403 138 137 107
-0.24307913 0.54392254 -0.88649619 137 137 107
-0.24130358 0.54406309 -0.88518053 144 137 110
-0.2433755 0.54256231 -0.88560039 152 134 109
-0.24226999 0.54279232 -0.88495982 152 135 111
-0.24120149 0.54254037 -0.88472348 136 135 111
-0.24363799 0.54117125 -0.88487178 159 132 110
-0.24147077 0.54337776 -0.8849386 146 136 111
-0.24287429 0.54147923 -0.88480097 152 132 111
-0.24440882 0.53973866 -0.88454711 156 131 111
-0.24437156 0.53862542 -0.88485384 153 131 110
-0.24418044 0.53908753 -0.88521397 158 131 109
-0.24475585 0.53951418 -0.88323581 162 127 114
-0.24461424 0.53939378 -0.88398123 154 130 112
-0.2447648 0.54033524 -0.88352418 152 130 113
-0.24459888 0.53779519 -0.88340807 173 124 114
-0.24310228 0.53981942 -0.88498271 147 132 110
-0.24350601 0.54081708 -0.8848567 156 132 111
-0.24413405 0.53970194 -0.88518512 161 131 110
-0.24424109 0.53650421 -0.88454413 164 125 112
-0.24298963 0.57264471 -0.87352723 152 132 107
-0.24344964 0.57309085 -0.87398708 151 131 108
-0.24362282 0.57273883 -0.8741883 154 131 108
-0.24118108 0.57367849 -0.87160158 146 134 108
-0.24429882 0.57164013 -0.87508124 157 130 108
-0.24300179 0.56912524 -0.87364972 151 131 109
-0.24208252 0.56869966 -0.8726753 157 131 109
-0.24412343 0.57026768 -0.87481529 147 131 109
-0.24140763 0.5684582 -0.87195718 162 130 109
-0.2423663 0.56864583 -0.87298304 154 131 109
-0.24197035 0.57069588 -0.87250203 158 132 108
-0.24149691 0.5719195 -0.87198317 149 135 106
-0.24182805 0.57071984 -0.87235188 157 133 107
-0.24147251 0.56976259 -0.87199408 161 131 108
-0.24160407 0.56923157 -0.87214154 165 130 109
-0.24166703 0.57179433 -0.87216425 151 134 107
-0.24424766 0.5668878 -0.87527901 138 133 109
-0.24413957 0.56660062 -0.87508053 139 133 109
-0.24153093 0.56468087 -0.87245727 141 136 109
-0.24226186 0.56620133 -0.87309384 137 135 110
-0.24297421 0.56555051 -0.87392783 140 135 108
-0.24291386 0.56578654 -0.87383914 140 134 109
-0.24393526 0.56610042 -0.87491006 140 134 109
-0.24212244 0.56696415 -0.87286842 144 133 110
-0.24260907 0.56826246 -0.87326491 149 131 110
-0.24277863 0.5683006 -0.87344384 148 131 110
-0.24097709 0.56609118 -0.87172031 149 134 109
-0.24098949 0.5670222 -0.87164199 156 132 109
-0.24112378 0.56645656 -0.87184244 150 133 109
-0.24075198 0.56441379 -0.87164986 140 137 109
-0.24343403 0.5633232 -0.87483621 145 135 108
-0.24230747 0.56398356 -0.87344372 143 136 108
-0.24244957 0.56436753 -0.87349439 143 136 108
-0.24181062 0.56436449 -0.8728056 142 136 108
-0.24165185 0.56349319 -0.87286735 142 136 109
-0.24351665 0.5619083 -0.8753038 145 134 108
-0.24128234 0.56244206 -0.87244046 134 135 109
-0.24119754 0.56324345 -0.87234008 139 136 109
-0.24156742 0.56237411 -0.87287319 137 135 109
-0.24110438 0.56277502 -0.87218082 135 135 109
-0.24077432 0.56295824 -0.8716836 132 136 109
-0.24217366 0.55818564 -0.87385577 161 131 110
-0.24246761 0.55726767 -0.87460434 164 132 109
-0.24209088 0.55671036 -0.87401599 168 132 110
-0.24206485 0.55760729 -0.87377512 164 131 111
-0.24202329 0.55807412 -0.8735972 162 130 110
-0.24192806 0.5602749 -0.87335378 133 134 108
-0.24126302 0.55927646 -0.87232512 140 132 110
-0.24152578 0.55982238 -0.87273365 136 132 109
-0.24194612 0.56049806 -0.87338436 130 134 108
-0.24222969 0.55447823 -0.87514293 174 130 112
-0.24216004 0.55442739 -0.87500685 174 130 112
-0.24200244 0.55431134 -0.87469959 174 130 112
-0.24092136 0.5530901 -0.87281084 178 130 113
-0.24185258 0.55491406 -0.87403959 172 132 111
-0.24224763 0.5549143 -0.87495977 171 131 111
-0.24133226 0.55593848 -0.87276191 172 130 111
-0.24258931 0.55642152 -0.8750158 167 134 109
-0.24071078 0.55430031 -0.87195837 176 130 112
-0.24074936 0.55524522 -0.87182099 175 129 112
-0.24081504 0.55541068 -0.87190759 174 129 112
-0.24054372 0.55431038 -0.87164241 176 130 112
-0.24075964 0.55050272 -0.87295657 172 133 111
-0.24085757 0.55060846 -0.87318283 171 133 112
-0.24064843 0.55000967 -0.87274605 172 134 111
-0.24064006 0.55098498 -0.87260407 173 133 112
-0.24039561 0.55210733 -0.8718639 177 132 112
-0.24172232 0.55134708 -0.87509215 173 129 114
-0.24094465 0.55219972 -0.87313801 177 130 113
-0.24092667 0.55147803 -0.87321669 174 131 112
-0.24139217 0.54973483 -0.87459224 167 133 112
-0.24168991 0.55092943 -0.87508643 172 130 113
-0.24081033 0.55271453 -0.87273914 179 129 113
-0.24060142 0.548724 -0.87280673 171 136 109
-0.24137382 0.54829609 -0.87481201 167 134 111
-0.24095084 0.54655093 -0.87425405 180 134 110
-0.2414867 0.54753286 -0.87529629 171 133 111
-0.24094644 0.54606354 -0.87437636 183 134 110
-0.24046318 0.5477131 -0.87273246 178 136 110
-0.24044536 0.54756624 -0.87271702 179 135 110
-0.24039194 0.5464223 -0.87282377 185 134 111
-0.24078633 0.54595029 -0.87397599 184 134 111
-0.23996852 0.54655999 -0.87204242 185 133 111
-0.24002114 0.54651511 -0.87211782 185 133 111
-0.23999134 0.548127 -0.87174237 176 136 109
-0.24095914 0.54419249 -0.87472022 190 129 113
-0.24055304 0.544662 -0.87360054 192 131 112
-0.24074003 0.54396284 -0.8741563 192 128 114
-0.24074212 0.54309964 -0.8742336 193 125 116
-0.2403979 0.54416937 -0.87322789 194 129 114
-0.24037188 0.54283786 -0.87321907 191 125 115
-0.2403385 0.54126662 -0.87320113 188 121 117
-0.24068026 0.54214257 -0.87412089 192 122 117
-0.24014935 0.54434538 -0.87266368 193 130 113
-0.2398614 0.54247367 -0.87243366 185 128 114
-0.23971023 0.54311258 -0.8722344 184 130 113
-0.23977803 0.54360348 -0.8722834 187 131 112
-0.23972961 0.54435188 -0.8721537 190 130 113
-0.24055308 0.53972 -0.87454683 176 128 113
-0.2403467 0.5395878 -0.87404013 174 129 112
-0.2406099 0.53948808 -0.87483728 175 128 113
-0.24035759 0.53903174 -0.87438375 168 133 110
-0.24025938 0.53832519 -0.87445837 164 136 108
-0.23811491 0.53741854 -0.87166071 167 128 113
-0.2399997 0.53790855 -0.87422937 162 137 107
-0.23924157 0.53754514 -0.87328511 162 134 109
-0.23888005 0.53735048 -0.87284631 163 133 110
-0.23973931 0.53838742 -0.87358212 167 132 110
-0.24005929 0.54023385 -0.87307507 181 124 115
-0.23892887 0.54019743 -0.8717128 172 129 113
-0.23815061 0.53782403 -0.87156188 167 128 113
-0.23965539 0.54075664 -0.87235302 180 125 115
-0.2395574 0.53537196 -0.87405127 145 139 105
-0.24008726 0.53664458 -0.87480783 152 142 104
-0.23963696 0.5354985 -0.87416971 146 140 105
-0.23991811 0.53514338 -0.87464786 147 139 105
-0.23911241 0.53600979 -0.87333632 148 138 107
-0.2385601 0.53657311 -0.87250072 157 133 110
-0.23824976 0.53590131 -0.87204182 151 133 110
-0.23894341 0.53622061 -0.87308019 151 136 108
-0.23819162 0.53556705 -0.87195814 148 133 110
-0.23839475 0.53580505 -0.87226063 149 133 109
-0.23999037 0.53162253 -0.87497061 148 133 107
-0.25289634 0.59775615 -0.88768363 141 131 109
-0.25299773 0.59690249 -0.88798368 142 129 109
-0.25300908 0.58811754 -0.88995296 163 129 111
-0.25301006 0.58872575 -0.88949972 162 129 111
-0.25255442 0.58895457 -0.88750619 167 131 109
-0.25288373 0.58936316 -0.88848037 163 129 110
-0.25312138 0.59149629 -0.88874197 141 134 108
-0.2525357 0.5887332 -0.88749838 169 131 109
-0.25237805 0.58817142 -0.88712007 175 130 109
-0.25343579 0.59130156 -0.88981235 142 131 110
-0.25227344 0.58402234 -0.8903662 145 129 109
-0.25206193 0.58677185 -0.88745534 157 130 109
-0.25286517 0.58777273 -0.88955063 166 129 111
-0.25269514 0.58729237 -0.88913095 168 128 110
-0.2526063 0.5868454 -0.88905948 168 129 110
-0.25292823 0.5864321 -0.89085305 159 128 111
-0.2525357 0.58731055 -0.88838339 171 129 110
-0.25251675 0.58325452 -0.89094299 155 128 110
-0.2523604 0.58321542 -0.89061081 148 128 110
-0.25200048 0.58014083 -0.88960743 153 129 109
-0.25223011 0.58144802 -0.8903355 147 128 110
-0.25150931 0.58133 -0.88867402 142 132 108
-0.25126728 0.58028984 -0.8881309 148 133 107
-0.25189292 0.58057922 -0.8893832 149 130 109
-0.25181472 0.58060133 -0.88923031 149 131 108
-0.25246027 0.57885522 -0.89071721 161 128 112
-0.25258353 0.57844263 -0.89100349 164 128 114
-0.25226742 0.5777449 -0.89007187 164 130 112
-0.25219151 0.57683426 -0.88983482 167 131 112
-0.25200519 0.57980728 -0.88957709 154 130 109
-0.25140646 0.57843351 -0.88850766 158 131 108
-0.2509298 0.57689244 -0.8876617 163 132 108
-0.25161505 0.57653552 -0.88871783 165 132 110
-0.25176024 0.57738352 -0.88899904 163 131 110
-0.25120902 0.57904959 -0.88807988 154 132 107
-0.25094923 0.57795274 -0.88765001 158 133 108
-0.25171474 0.57997698 -0.88900757 152 131 108
-0.25122851 0.57916945 -0.88810939 153 132 107
-0.25204876 0.57604092 -0.88944703 167 131 112
-0.25220981 0.57567972 -0.88980931 166 131 113
-0.25246873 0.57551181 -0.89041495 166 130 114
-0.25237256 0.57342076 -0.89011633 160 127 114
-0.25200662 0.5746035 -0.88934374 173 128 113
-0.25205556 0.57276076 -0.88945138 180 125 114
-0.25128046 0.57299501 -0.88835275 177 126 114
-0.25173232 0.57556933 -0.88893896 168 131 112
-0.25121871 0.57276475 -0.88827229 178 126 114
-0.25074396 0.57266068 -0.88764977 174 126 114
-0.25052032 0.57479233 -0.88712597 167 130 110
-0.25132245 0.57489222 -0.88837701 169 129 113
-0.25072116 0.5750609 -0.88741207 167 130 110
-0.25057599 0.57471925 -0.88722169 168 130 111
-0.25248176 0.57202846 -0.89046383 160 126 115
-0.25199729 0.56966513 -0.89058876 179 129 113
-0.25220564 0.57131279 -0.89022952 172 127 114
-0.25186789 0.56863874 -0.89095205 179 130 113
-0.25137785 0.56966752 -0.88987154 177 129 114
-0.25178418 0.57217139 -0.88906604 185 125 114
-0.25075534 0.57194179 -0.88783902 175 126 114
-0.25144142 0.57001722 -0.88976794 179 128 114
-0.250779 0.56912893 -0.88874972 171 130 112
-0.25101152 0.56962782 -0.88917249 173 129 113
-0.25028437 0.56874496 -0.88771391 166 131 111
-0.25068945 0.57064629 -0.88824219 173 128 114
-0.25067616 0.56925768 -0.88849235 170 130 112
-0.25035304 0.57191306 -0.88722974 172 126 114
-0.25007555 0.56554759 -0.88997054 173 123 115
-0.25034425 0.5659771 -0.88953233 174 126 114
-0.25001803 0.56544763 -0.88990664 173 123 115
-0.24963452 0.5646736 -0.88733387 170 126 113
-0.24998938 0.56530875 -0.8881036 172 126 113
-0.25002557 0.56543827 -0.88946819 173 124 114
-0.25087908 0.56769812 -0.88930953 172 130 112
-0.25002787 0.56805009 -0.88729829 164 131 111
-0.25067493 0.56801379 -0.88876444 169 131 111
-0.25069794 0.56721634 -0.88903266 173 130 112
-0.25030479 0.56603742 -0.88846773 172 128 113
-0.25039417 0.56798053 -0.88814157 168 131 111
-0.2489754 0.56079739 -0.88836527 180 127 115
-0.24908613 0.5623464 -0.88980168 175 123 115
-0.24850425 0.56091458 -0.89074206 167 128 112
-0.24926719 0.56289959 -0.88964528 177 122 116
-0.24876465 0.5611096 -0.88975716 173 127 114
-0.24907261 0.56301123 -0.89070702 172 122 116
-0.24936907 0.56307948 -0.8878696 176 124 114
-0.24930452 0.56231427 -0.8878274 180 125 115
-0.24935865 0.56312454 -0.88834649 176 124 115
-0.24944748 0.56402671 -0.88797253 172 124 114
-0.24927677 0.561791 -0.88725072 181 126 115
-0.24639332 0.56125349 -0.89042622 142 135 108
-0.24523468 0.56179386 -0.88987797 128 137 107
-0.24571203 0.56199336 -0.89011574 132 135 108
-0.24815798 0.55992359 -0.89068013 166 130 111
-0.24890274 0.56050193 -0.888336 180 127 114
-0.24876775 0.55968833 -0.88796264 182 129 113
-0.24820133 0.55718398 -0.88752729 185 134 109
-0.24870653 0.55937505 -0.88786268 183 129 113
-0.24834034 0.55813509 -0.88805264 182 132 111
-0.24846189 0.5602718 -0.89013511 170 130 112
-0.24639212 0.56044054 -0.89036334 145 137 106
-0.24725728 0.55833805 -0.88873297 168 135 108
-0.24750349 0.55938822 -0.88999194 163 133 109
-0.24662144 0.55949467 -0.88960284 154 136 106
-0.24719563 0.55969346 -0.89014167 158 134 108
-0.24656855 0.55844796 -0.88845772 161 138 106
-0.24650279 0.55877876 -0.88877267 158 137 106
-0.2462448 0.55943871 -0.88932878 151 138 105
-0.24686724 0.55853629 -0.88872194 163 137 106
-0.24508904 0.55747402 -0.88864362 139 132 109
-0.24620678 0.55740249 -0.88818687 158 134 108
-0.24558422 0.55842656 -0.88853276 147 137 106
-0.24645767 0.5570057 -0.88804895 162 133 110
-0.24516276 0.55688393 -0.8885591 141 130 111
-0.24530824 0.55909652 -0.88870615 143 140 104
-0.24460697 0.55286598 -0.88802642 123 134 115
-0.24784514 0.55616766 -0.88715261 179 134 110
-0.24623111 0.55437213 -0.88754368 149 134 112
-0.24638554 0.55631441 -0.88798612 161 131 111
-0.24529234 0.55419713 -0.8880502 141 134 113
-0.24505481 0.55607331 -0.88847917 139 129 112
-0.24710023 0.55658561 -0.88774645 172 132 110
-0.24453156 0.55533761 -0.88855922 129 129 114
-0.24607518 0.55653679 -0.88815057 156 131 111
-0.24469838 0.55013943 -0.88800263 175 131 115
-0.24540105 0.55254686 -0.88753748 128 133 114
-0.24509759 0.55101085 -0.88775134 159 131 115
-0.24582855 0.55105907 -0.88728476 151 130 114
-0.24447829 0.54904264 -0.88813776 193 129 116
-0.24571675 0.5496015 -0.88733232 168 128 115
-0.24208671 0.55020642 -0.88758552 132 130 113
-0.24365129 0.55037129 -0.88814062 159 131 115
-0.24116871 0.54924083 -0.88728255 134 128 113
-0.24200813 0.55004001 -0.8875618 134 130 113
-0.24383332 0.55059618 -0.88819981 158 131 115
-0.24135801 0.549743 -0.88733959 129 130 112
-0.24258856 0.55146098 -0.88774133 123 133 113
-0.24077462 0.55230623 -0.8871271 116 141 104
-0.24077928 0.55114424 -0.88713622 121 136 107
-0.24172916 0.55089313 -0.88745666 124 133 111
-0.24457638 0.54773742 -0.88785964 171 131 113
-0.24485408 0.54850465 -0.8878243 183 129 115
-0.24491362 0.54698455 -0.88749284 150 132 111
-0.24494503 0.54626256 -0.88734835 141 133 109
-0.24401948 0.5478496 -0.8880893 181 132 113
-0.24334835 0.54811639 -0.88789535 175 131 113
-0.2432695 0.54807353 -0.88785648 173 130 113
-0.24233419 0.54763895 -0.88741386 149 132 110
-0.24141861 0.54802775 -0.88718337 136 130 110
-0.24243419 0.5463177 -0.8871206 132 135 106
-0.24429145 0.54474658 -0.88745326 125 137 105
-0.23661333 0.55725837 -0.86717135 128 128 114
-0.23569335 0.55670637 -0.86621195 113 132 111
-0.23686339 0.55609781 -0.86749429 130 128 114
-0.23656668 0.5435822 -0.86746353 166 136 113
-0.23639442 0.54185867 -0.86756486 168 136 111
-0.23528524 0.54281259 -0.86620319 156 135 110
-0.23614424 0.54224181 -0.86716741 162 137 110
-0.23619996 0.54235762 -0.86719471 162 138 110
-0.23461612 0.54202294 -0.86551881 157 133 110
-0.23379755 0.54119694 -0.86454266 158 132 110
-0.23555699 0.54036528 -0.866768 161 136 110
-0.23573202 0.54098845 -0.86691594 166 136 110
-0.23549695 0.54067051 -0.86666226 163 136 110
-0.23527808 0.54080009 -0.86638093 163 135 110
-0.23490509 0.54000986 -0.86600876 155 136 110
-0.24893121 0.5886364 -0.88171303 140 132 111
-0.24914514 0.58821172 -0.88228422 143 132 111
-0.24956492 0.58864933 -0.88301486 144 131 111
-0.2492846 0.58630556 -0.88313019 145 133 109
-0.24933052 0.58760393 -0.88285941 146 131 111
-0.24944176 0.5876435 -0.8831225 147 132 111
-0.24918906 0.58546656 -0.88314247 143 134 107
-0.24835636 0.58497477 -0.88125575 139 133 107
-0.24717489 0.58472687 -0.8794347 140 131 110
-0.2488566 0.58238816 -0.88287568 147 131 108
-0.24870482 0.58296508 -0.88247138 145 132 107
-0.24888135 0.58327723 -0.88287663 143 133 106
-0.2486145 0.58205354 -0.88231379 149 130 109
-0.24842268 0.58230382 -0.88183618 149 129 109
-0.24769044 0.58187127 -0.88080347 147 129 110
-0.24792035 0.58331901 -0.88079756 144 130 109
-0.24757867 0.583543 -0.88033634 142 131 109
-0.24675283 0.5821929 -0.87966746 137 131 109
-0.24690245 0.58282334 -0.87966812 139 131 109
-0.24812399 0.57668197 -0.88113075 138 132 108
-0.24834275 0.57677311 -0.88167417 141 132 107
-0.24851112 0.57766759 -0.88222426 149 131 108
-0.24713643 0.57824695 -0.88019741 150 127 110
-0.24907641 0.57428217 -0.88314211 157 134 107
-0.24854463 0.57500774 -0.88193703 147 133 107
-0.24905606 0.57307941 -0.88295972 164 132 108
-0.24852163 0.57418555 -0.88182402 153 132 108
-0.24814777 0.57363909 -0.88102543 161 128 111
-0.24806383 0.57304275 -0.88083678 168 126 112
-0.24796212 0.5733965 -0.88072491 164 127 112
-0.24738529 0.5733279 -0.88015699 165 126 112
-0.24673121 0.5740943 -0.87946427 162 126 112
-0.24832511 0.57207787 -0.88142788 174 126 113
-0.24883145 0.57007486 -0.88308907 167 129 112
-0.24841319 0.57065314 -0.88203609 171 126 113
-0.24817021 0.57052863 -0.88141996 172 126 113
-0.24809854 0.57021797 -0.88124299 173 126 113
-0.2485067 0.56905913 -0.88267595 167 127 114
-0.24793059 0.56935078 -0.88106704 171 127 113
-0.24781796 0.57094622 -0.88069803 172 126 113
-0.24782604 0.56914461 -0.88096941 170 128 113
-0.24718128 0.57026941 -0.88002056 165 128 112
-0.24771503 0.57164204 -0.88048643 172 126 113
-0.24699348 0.57136917 -0.87978935 172 126 113
-0.24826862 0.56570446 -0.88282108 167 128 111
-0.24835089 0.56529212 -0.88319743 165 129 111
-0.24834833 0.56668866 -0.88277841 167 128 112
-0.24818197 0.56571656 -0.88255918 168 128 111
-0.24797411 0.56801325 -0.88134706 170 127 113
-0.24772893 0.56679249 -0.88134569 167 128 112
-0.24689949 0.56609762 -0.88021839 160 129 112
-0.2480128 0.56770808 -0.88150996 170 128 112
-0.24736273 0.56549299 -0.8811726 163 128 111
-0.24783406 0.56798863 -0.88113439 169 128 112
-0.24668886 0.56597561 -0.87996089 159 129 112
-0.24676044 0.56624931 -0.88001782 160 129 112
-0.24688062 0.56639653 -0.88014805 161 129 112
-0.24746056 0.56194085 -0.88300711 168 128 112
-0.24763729 0.56333369 -0.88255477 166 128 111
-0.24675657 0.56243783 -0.8815918 162 128 112
-0.24750645 0.56362587 -0.88218611 164 128 111
-0.24740121 0.56351721 -0.88207185 164 128 111
-0.24568069 0.56188059 -0.87959772 158 129 109
-0.24547456 0.56119967 -0.87942129 159 129 109
-0.24565296 0.56106913 -0.87985235 160 129 109
-0.24685036 0.56118256 -0.8823629 165 128 113
-0.24645178 0.5628441 -0.8808701 159 129 112
-0.24583825 0.56246072 -0.87970954 158 129 110
-0.24618256 0.55713487 -0.88258159 181 125 116
-0.24574666 0.55737382 -0.88116342 173 127 114
-0.24594888 0.55760676 -0.88160634 174 126 115
-0.24641405 0.55839157 -0.88246965 175 126 115
-0.24540572 0.55697823 -0.88041842 172 127 114
-0.24670607 0.55895722 -0.88296598 174 126 115
-0.24526533 0.55989939 -0.87935108 161 129 109
-0.2458972 0.55983013 -0.88071233 164 129 111
-0.2465672 0.55969894 -0.88216674 168 128 113
-0.24553074 0.55924851 -0.88004178 164 129 111
-0.2456193 0.5585441 -0.88036525 167 128 112
-0.24511828 0.55317992 -0.88126522 191 127 116
-0.24489854 0.55359191 -0.8805722 200 124 118
-0.24532609 0.5546267 -0.88135016 196 124 118
-0.24588387 0.55561543 -0.88247728 189 124 118
-0.2457677 0.55418152 -0.88262403 181 128 115
-0.24510799 0.55349308 -0.88114148 194 126 117
-0.24450493 0.55321473 -0.87966394 207 123 119
-0.24547511 0.55635828 -0.88096792 178 126 115
-0.24513693 0.55566704 -0.88031775 183 126 116
-0.24515574 0.55645227 -0.8799929 173 127 114
-0.24549183 0.55660456 -0.88089752 176 126 115
-0.24496616 0.55476606 -0.88025641 193 124 117
-0.24470618 0.54990745 -0.88038409 182 125 114
-0.24541405 0.54885077 -0.88263232 194 126 115
-0.24446027 0.54926157 -0.8797639 185 123 114
-0.24535333 0.55074102 -0.88215375 180 129 113
-0.24530818 0.55093491 -0.88199025 179 128 113
-0.24437706 0.55249977 -0.87950099 206 123 119
-0.24445209 0.55238253 -0.87969553 204 124 118
-0.24449861 0.55080289 -0.87983698 193 124 116
-0.24455206 0.55170345 -0.87996203 197 124 117
-0.2443464 0.55139989 -0.87943733 200 123 117
-0.24444389 0.55007905 -0.87970632 189 123 115
-0.24424237 0.54573721 -0.88042206 192 127 116
-0.24429837 0.54601777 -0.88046068 192 125 117
-0.2443382 0.5459882 -0.88057584 192 125 117
-0.24498865 0.54556268 -0.88243359 197 121 119
-0.24423738 0.54832667 -0.87940001 187 123 115
-0.24518865 0.54813957 -0.88218999 194 124 116
-0.24533583 0.54821253 -0.88259965 195 124 116
-0.24490277 0.5478825 -0.88143063 192 123 116
-0.24551162 0.54831332 -0.8830846 195 125 116
-0.24501233 0.54594541 -0.88236189 196 121 119
-0.2450303 0.54621422 -0.88233018 196 121 119
-0.24354939 0.54524559 -0.87950081 188 130 115
-0.24411438 0.54782462 -0.87932003 187 125 114
-0.2448656 0.54132348 -0.88312119 155 130 114
-0.24476311 0.5433175 -0.88243192 178 126 116
-0.24467048 0.54408967 -0.88202697 186 126 117
-0.24492499 0.54173231 -0.88318962 160 128 115
-0.2443513 0.54197419 -0.88176012 177 128 113
-0.24468981 0.54139817 -0.88268518 159 130 113
-0.24415968 0.54209995 -0.88129187 185 128 113
-0.24297126 0.54132754 -0.87994379 187 125 113
-0.24393725 0.54361796 -0.88056564 191 127 115
-0.24394238 0.54423678 -0.88040131 192 128 116
-0.24402261 0.5432834 -0.88076884 190 128 115
-0.24364643 0.54425961 -0.87998456 190 129 116
-0.243488 0.54442304 -0.8797037 189 130 115
-0.24468145 0.54075944 -0.88281447 160 130 113
-0.24469456 0.53865838 -0.88319337 169 126 114
-0.24456972 0.53750074 -0.88310331 180 123 115
-0.24429861 0.53843325 -0.88237798 182 124 114
-0.24337855 0.53765476 -0.8812508 180 123 114
-0.24340101 0.5373528 -0.88134068 180 123 114
-0.24305713 0.53766328 -0.8808369 179 124 114
-0.24355522 0.53724617 -0.88156009 180 122 115
-0.24398623 0.54017663 -0.88152027 182 127 112
-0.24208473 0.53772175 -0.8795771 176 126 113
-0.24336714 0.54061103 -0.88062984 183 127 112
-0.24240279 0.53996444 -0.87951458 183 125 113
-0.24243541 0.5407843 -0.87938309 186 125 113
-0.24419343 0.53669715 -0.88258028 181 120 116
-0.24313943 0.53681231 -0.88116652 178 122 114
-0.24329752 0.53577977 -0.88175905 177 121 115
-0.24318835 0.53555882 -0.88170248 176 121 115
-0.24201781 0.53666794 -0.87978262 174 124 113
-0.24383788 0.53648978 -0.88218403 179 120 116
-0.24265678 0.53586537 -0.88090503 175 122 114
-0.24196573 0.53416151 -0.87961781 157 132 108
-0.2425932 0.53539062 -0.88099432 173 122 114
-0.24199769 0.53404373 -0.87968189 157 131 108
-0.24198656 0.53614044 -0.8797279 171 126 112
-0.24246401 0.53537071 -0.88071865 171 123 113
-0.25373319 0.58790106 -0.89439547 155 131 109
-0.25371456 0.58795232 -0.89416969 155 131 109
-0.2536929 0.58867586 -0.89252657 157 129 112
-0.25361821 0.58755499 -0.89471883 154 131 108
-0.25311506 0.58585995 -0.89297479 155 129 109
-0.25256029 0.5842548 -0.89144272 155 128 109
-0.25314969 0.58752561 -0.89105856 159 129 112
-0.2529605 0.58628172 -0.89115405 158 128 111
-0.25370249 0.58772612 -0.89439315 155 131 109
-0.25263962 0.58428586 -0.89119643 156 128 110
-0.25289482 0.58546376 -0.89159358 157 128 110
-0.25228459 0.58367634 -0.89148515 153 128 109
-0.25204334 0.58302772 -0.89186722 150 129 109
-0.25207677 0.5802843 -0.89164829 146 127 111
-0.25128442 0.58387434 -0.89207649 146 129 109
-0.25185826 0.58052611 -0.89185536 143 128 110
-0.24725212 0.58020055 -0.89183629 157 130 109
-0.25209525 0.57940644 -0.89173841 149 128 111
-0.25224262 0.5799945 -0.89141458 151 127 111
-0.25247109 0.57842761 -0.89125341 161 128 112
-0.25230551 0.5781222 -0.89161938 159 128 113
-0.25062278 0.577268 -0.89241874 161 129 112
-0.24927667 0.5782029 -0.89232457 166 128 111
-0.24921092 0.57767379 -0.89239734 168 128 111
-0.25063607 0.57648969 -0.89252323 164 129 112
-0.25045708 0.57633495 -0.89254826 166 128 112
-0.24866675 0.5785107 -0.89229745 168 128 111
-0.25158048 0.57708669 -0.8923952 157 129 112
-0.250339 0.57903987 -0.89212805 156 128 111
-0.25013506 0.5797841 -0.89200729 155 128 111
-0.25108215 0.57776427 -0.89230728 157 129 111
-0.25117248 0.5782209 -0.89221799 155 129 111
-0.247566 0.57631195 -0.89231318 176 126 111
-0.2478634 0.57741082 -0.89234757 175 127 111
-0.24643447 0.57709706 -0.89151353 160 129 110
-0.24792761 0.5772984 -0.89240211 176 127 111
-0.24719179 0.57949984 -0.89178616 160 129 110
-0.24726132 0.5797444 -0.89182264 160 129 109
-0.24573633 0.57709152 -0.89117151 153 130 110
-0.25215703 0.57552814 -0.89206469 163 130 113
-0.252222 0.57560879 -0.89194107 164 130 113
-0.25255877 0.57460862 -0.89126956 166 129 114
-0.2523692 0.57370979 -0.8915596 164 130 112
-0.25106597 0.57570183 -0.89251304 164 129 111
-0.25162029 0.57317322 -0.89226949 165 131 110
-0.25164545 0.57617164 -0.89254218 160 129 112
-0.25151601 0.57308114 -0.89226359 166 131 110
-0.2508561 0.57607138 -0.89255166 164 129 112
-0.24779628 0.5760057 -0.89245635 178 126 111
-0.24741152 0.57530767 -0.89214951 167 129 109
-0.24677667 0.57565373 -0.89179534 163 130 110
-0.25263417 0.57173163 -0.89107358 150 127 114
-0.25241399 0.57076794 -0.89107132 160 128 114
-0.25182402 0.57000887 -0.89149475 172 131 111
-0.2509414 0.56979358 -0.89163065 162 131 112
-0.25050825 0.5690878 -0.89150757 159 131 113
-0.25181851 0.57049853 -0.89165092 170 131 111
-0.24878991 0.5669409 -0.89162898 152 128 115
-0.25025675 0.56825942 -0.89134276 160 132 114
-0.25019178 0.56773305 -0.8913393 163 130 113
-0.25082871 0.56751329 -0.89118767 173 129 113
-0.24949495 0.56737375 -0.8914845 158 129 114
-0.25007129 0.56638759 -0.89126009 172 126 114
-0.24823582 0.5646317 -0.89166838 163 122 114
-0.2477819 0.56728053 -0.89165646 135 130 115
-0.24879876 0.56313938 -0.89116514 166 124 114
-0.24855162 0.56329542 -0.89131141 164 123 114
-0.24751848 0.56394416 -0.89134681 153 125 113
-0.2475999 0.56126159 -0.89107406 155 131 110
0 0 0 1 0 0 0 1 0 0 0 1 0 0 0 0 0 899 1 0 0
