ply
format ascii 1.0
comment PCL generated
element vertex 640
property float x
property float y
property float z
property uchar red
property uchar green
property uchar blue
element camera 1
property float view_px
property float view_py
property float view_pz
property float x_axisx
property float x_axisy
property float x_axisz
property float y_axisx
property float y_axisy
property float y_axisz
property float z_axisx
property float z_axisy
property float z_axisz
property float focal
property float scalex
property float scaley
property float centerx
property float centery
property int viewportx
property int viewporty
property float k1
property float k2
end_header
-0.24863827 -0.32467809 -0.84006536 84 138 113
-0.24891365 -0.32497692 -0.83980119 85 138 113
-0.24964792 -0.32538348 -0.83917743 85 136 114
-0.24969313 -0.32494846 -0.83929795 88 136 114
-0.25097719 -0.32586494 -0.83810973 87 134 115
-0.24971217 -0.32604477 -0.8389042 82 136 113
-0.25250202 -0.3272025 -0.83664042 87 132 117
-0.25072914 -0.32931775 -0.83686936 81 133 116
-0.24987112 -0.33001775 -0.83710676 81 132 115
-0.250395 -0.32801542 -0.83755219 86 132 116
-0.25088313 -0.32855803 -0.83706516 84 132 116
-0.24932411 -0.32935363 -0.83766997 84 132 115
-0.25066945 -0.32857296 -0.83718348 84 132 116
-0.25015256 -0.32742962 -0.83796602 85 133 116
-0.2493837 -0.32723376 -0.8385796 82 135 114
-0.25027901 -0.32688731 -0.83813721 85 134 115
-0.24839598 -0.32963058 -0.83811349 85 132 115
-0.25140783 -0.32645595 -0.83757687 87 132 117
-0.24846345 -0.32636362 -0.83961511 78 138 112
-0.24811515 -0.32656682 -0.83975482 77 139 112
-0.24731627 -0.32829043 -0.83942717 81 135 114
-0.24593042 -0.32981709 -0.83953017 87 132 116
-0.24754316 -0.3279109 -0.83947206 80 137 113
-0.24519241 -0.32960218 -0.8400746 89 133 116
-0.24698755 -0.32767442 -0.83991754 81 136 113
-0.24721867 -0.32753912 -0.83984357 80 136 114
-0.25065905 -0.33045441 -0.83642876 79 133 115
-0.24891096 -0.33224404 -0.8364839 85 132 116
-0.24970879 -0.33032766 -0.83704513 81 132 115
-0.24830888 -0.33033237 -0.83785111 84 133 115
-0.2483959 -0.33226928 -0.83676791 86 132 116
-0.2454589 -0.33059412 -0.83941311 90 131 117
-0.24561627 -0.33036339 -0.8394419 89 132 117
-0.24748373 -0.33141166 -0.8377642 87 131 116
-0.24761263 -0.33157226 -0.8376013 87 131 116
-0.24715711 -0.33057532 -0.83840585 87 131 116
-0.2455046 -0.33113313 -0.83909482 90 131 117
-0.24443151 -0.3303068 -0.84017247 90 132 118
-0.24526593 -0.33154386 -0.83900076 90 131 117
-0.24515633 -0.33149496 -0.83909082 90 132 118
-0.24475689 -0.33312398 -0.8383472 87 132 118
-0.24500848 -0.33343032 -0.8380298 86 133 117
-0.24543497 -0.33278126 -0.83818138 88 132 117
-0.24517132 -0.33255437 -0.83845848 88 132 117
-0.24471606 -0.33384162 -0.83794576 85 133 117
-0.24447571 -0.3323344 -0.83896595 88 132 117
-0.24337392 -0.3319647 -0.83987153 88 133 118
-0.24180628 -0.333859 -0.83978683 82 134 117
-0.244065 -0.3320747 -0.83935106 88 132 118
-0.24326164 -0.3339563 -0.83877003 84 133 117
-0.24284624 -0.33377987 -0.83914798 84 133 117
-0.24524941 -0.33435273 -0.83736473 85 133 117
-0.24745242 -0.33400902 -0.836362 88 131 117
-0.24725901 -0.3340176 -0.8364622 88 131 117
-0.24588764 -0.33519423 -0.83654475 84 132 116
-0.24624999 -0.33410615 -0.8369602 87 132 117
-0.24394321 -0.33702347 -0.83659428 79 134 116
-0.24318828 -0.33624399 -0.83753055 79 134 116
-0.2430563 -0.33547977 -0.83804744 81 134 117
-0.24401118 -0.33621708 -0.83700317 80 134 117
-0.24237466 -0.33556497 -0.83844435 79 134 116
-0.24375306 -0.33691111 -0.83678126 78 134 116
-0.24316886 -0.33652064 -0.83737952 78 134 116
-0.24345516 -0.33701339 -0.83690834 77 135 116
-0.24072377 -0.33523247 -0.83967882 75 136 116
-0.24420556 -0.32011664 -0.8450399 79 136 113
-0.2440068 -0.32161191 -0.84453291 70 137 111
-0.24359652 -0.31975359 -0.84577858 77 137 113
-0.24400549 -0.31956893 -0.84547472 80 137 113
-0.24367869 -0.32127106 -0.84500182 70 137 111
-0.24148914 -0.31924915 -0.84802932 70 140 112
-0.24364023 -0.32142746 -0.84496725 69 138 111
-0.24165456 -0.32020289 -0.84743929 68 140 111
-0.24215505 -0.32111734 -0.84654301 68 139 111
-0.24244171 -0.31972629 -0.84689313 70 140 111
-0.2431931 -0.32163975 -0.84530377 69 138 111
-0.24061279 -0.32154867 -0.84783965 65 139 111
-0.24030232 -0.32208318 -0.84789759 65 138 112
-0.24039626 -0.32461622 -0.84636444 75 137 113
-0.2416109 -0.3241744 -0.84544545 75 136 112
-0.24371637 -0.32264721 -0.84429252 69 136 111
-0.24049996 -0.32530978 -0.84586328 79 136 113
-0.24111171 -0.32410091 -0.84597057 74 136 113
-0.24155529 -0.32369313 -0.84577745 72 137 112
-0.2424534 -0.32331455 -0.84512788 71 137 112
-0.24099706 -0.32364032 -0.84634775 72 137 112
-0.24117139 -0.32530224 -0.84522599 79 136 113
-0.2424902 -0.32513127 -0.84416384 78 136 114
-0.24141966 -0.32555526 -0.84488922 80 136 114
-0.24259408 -0.32497779 -0.84414738 78 135 114
-0.24011113 -0.32507595 -0.84637767 78 137 113
-0.23928876 -0.32483929 -0.84733117 77 136 114
-0.23962326 -0.32552674 -0.84660155 81 135 113
-0.23958853 -0.32483032 -0.84703869 77 136 114
-0.23987438 -0.32463971 -0.846865 77 136 113
-0.24072918 -0.32753199 -0.84438574 83 135 115
-0.24024543 -0.32828823 -0.84435695 83 135 114
-0.23905759 -0.32705498 -0.84626657 84 135 114
-0.2399132 -0.32807001 -0.84481484 84 135 115
-0.24019003 -0.32753196 -0.84485906 83 135 115
-0.23933454 -0.32741821 -0.84577608 84 135 115
-0.23778577 -0.32791471 -0.84690452 83 135 115
-0.23780425 -0.32770514 -0.84702551 83 135 114
-0.23957515 -0.32806712 -0.84514755 84 135 115
-0.23820108 -0.32732326 -0.84690976 84 135 115
-0.2385038 -0.32748479 -0.84652305 84 135 115
-0.2389643 -0.32891947 -0.84513754 83 135 115
-0.2364078 -0.32825568 -0.84795493 82 135 114
-0.23959298 -0.32892835 -0.84455186 83 135 115
-0.23712167 -0.32920295 -0.84660059 82 135 115
-0.23907818 -0.33006626 -0.84423232 83 135 116
-0.2358177 -0.32956213 -0.84758157 80 135 115
-0.23685378 -0.33058998 -0.84580493 80 136 115
-0.23818372 -0.330735 -0.84455401 82 135 116
-0.23777324 -0.3301318 -0.8453179 82 135 116
-0.23657291 -0.33243516 -0.84480006 79 134 116
-0.23740558 -0.331157 -0.84494299 80 135 116
-0.23730263 -0.33046731 -0.84549886 81 135 115
-0.23538648 -0.33038202 -0.84745806 78 134 115
-0.23620707 -0.330697 -0.84632397 79 136 115
-0.23631307 -0.33061808 -0.8462584 80 136 115
-0.23490728 -0.33084223 -0.84764194 77 134 115
-0.23306744 -0.33305451 -0.84793568 65 137 113
-0.2341273 -0.33327195 -0.8467021 69 136 114
-0.23442408 -0.33373815 -0.84606755 69 136 114
-0.23343812 -0.3336156 -0.84715819 66 136 113
-0.23491959 -0.33274221 -0.84627384 73 135 115
-0.23582263 -0.33346656 -0.8448382 76 135 116
-0.23363119 -0.33314806 -0.84729528 67 136 113
-0.23556322 -0.33376306 -0.84489012 74 135 116
-0.23347795 -0.33414254 -0.84670061 65 136 114
-0.23515059 -0.33483785 -0.84440726 69 135 115
-0.23244262 -0.3345944 -0.84736055 59 137 112
-0.23329301 -0.33435902 -0.84670162 64 136 114
-0.23362386 -0.33455664 -0.84619617 64 136 113
-0.23291941 -0.3346132 -0.84686124 61 137 112
-0.23261812 -0.33486724 -0.84694779 59 137 112
-0.23186459 -0.33464742 -0.84801859 57 136 112
-0.26276582 -0.32593167 -0.83128577 99 136 114
-0.26219529 -0.32578495 -0.83163059 99 136 114
-0.26497817 -0.32998085 -0.82945025 96 135 114
-0.26626256 -0.32761753 -0.82925302 101 137 112
-0.26541147 -0.32771426 -0.82962888 99 136 113
-0.26557541 -0.32739106 -0.82961315 100 137 112
-0.26381043 -0.32744285 -0.83043158 96 136 113
-0.26426062 -0.32829124 -0.83005983 95 136 113
-0.26441148 -0.32912561 -0.82983118 93 136 113
-0.26597509 -0.32724503 -0.82945317 101 137 112
-0.25984868 -0.32923386 -0.83215773 83 135 116
-0.26083386 -0.32706085 -0.83212441 94 135 115
-0.26116598 -0.3271423 -0.83191699 93 136 115
-0.26192987 -0.3273977 -0.83142346 93 136 115
-0.26000592 -0.32964432 -0.83196479 81 135 116
-0.26132879 -0.32625097 -0.83204144 97 136 115
-0.263576 -0.3300367 -0.83005494 89 135 114
-0.26238659 -0.32850084 -0.8309536 90 136 114
-0.26036319 -0.32974684 -0.83175236 82 135 116
-0.26135501 -0.32856181 -0.83146948 87 136 115
-0.26315889 -0.32668668 -0.83090198 95 137 113
-0.26231846 -0.32785052 -0.83111143 91 136 114
-0.25916386 -0.32973924 -0.83234429 80 134 116
-0.2649065 -0.33061481 -0.82932985 97 135 113
-0.26464352 -0.33236951 -0.82899749 97 136 112
-0.26495028 -0.33055916 -0.82932508 97 136 113
-0.26433232 -0.33224788 -0.82916248 95 137 112
-0.26528972 -0.33044606 -0.8292076 99 135 113
-0.26454332 -0.33302233 -0.82887602 97 136 112
-0.26558754 -0.332064 -0.82867891 102 135 113
-0.26110563 -0.33226964 -0.83067608 85 135 114
-0.26113957 -0.33250362 -0.83058113 85 135 114
-0.262133 -0.33293644 -0.83001423 88 136 113
-0.26283744 -0.33376607 -0.82943201 91 136 112
-0.26017895 -0.33065099 -0.83162385 81 135 116
-0.26064196 -0.33153096 -0.83112574 83 135 115
-0.26116395 -0.33075863 -0.83110738 84 135 115
-0.2623654 -0.33040047 -0.83058417 87 135 115
-0.26143953 -0.33075568 -0.83096725 85 135 115
-0.26320106 -0.330358 -0.83016765 89 135 114
-0.26191729 -0.33137071 -0.83056682 86 136 114
-0.26234028 -0.33236003 -0.83009928 88 136 114
-0.25968924 -0.33010793 -0.83201742 79 135 116
-0.25968155 -0.33089864 -0.83174652 80 135 116
-0.25975317 -0.33068192 -0.831792 80 134 116
-0.2597166 -0.33095932 -0.83171129 80 135 116
-0.25849092 -0.33153731 -0.8320123 82 134 117
-0.25630751 -0.33363003 -0.83218199 84 132 116
-0.25753781 -0.33306932 -0.83187306 83 133 116
-0.26329613 -0.33562854 -0.82855004 96 135 113
-0.26064101 -0.33788338 -0.82870275 98 131 116
-0.26220942 -0.33558503 -0.82896334 95 135 113
-0.26297891 -0.3354857 -0.82871789 96 135 113
-0.26129946 -0.33614448 -0.82910591 95 133 115
-0.25991252 -0.33700725 -0.8293305 95 132 116
-0.25980902 -0.33760107 -0.82912731 96 131 117
-0.26054388 -0.33448264 -0.83011389 87 134 113
-0.26127264 -0.33510548 -0.82954878 91 134 114
-0.26075345 -0.33519375 -0.82973033 90 134 113
-0.25684273 -0.3378337 -0.83019888 92 133 116
-0.25690126 -0.3375923 -0.83027983 92 133 116
-0.25764176 -0.33667764 -0.83038247 92 132 117
-0.25852656 -0.33779329 -0.82955432 95 132 117
-0.25785512 -0.33783826 -0.82979894 95 132 117
-0.25665635 -0.3360658 -0.83103329 89 132 116
-0.25905237 -0.33539289 -0.83035409 88 133 114
-0.25868791 -0.33517143 -0.83059484 88 132 115
-0.25908995 -0.33641735 -0.82991314 92 132 116
-0.25898176 -0.33554274 -0.8303206 89 132 115
-0.25858071 -0.33490291 -0.83075017 87 132 115
-0.25656426 -0.33440787 -0.831779 86 132 116
-0.25250804 -0.33705437 -0.8323738 94 134 118
-0.25493538 -0.33470482 -0.83232874 86 132 116
-0.25508618 -0.33753741 -0.8310492 91 134 117
-0.25573584 -0.33538276 -0.8316943 86 133 116
-0.25449863 -0.33594385 -0.8319906 90 133 117
-0.2535381 -0.33655468 -0.83214521 92 133 118
-0.25502837 -0.33688417 -0.83135557 90 133 117
-0.25448328 -0.33698845 -0.83154756 91 133 117
-0.25643754 -0.34155706 -0.82875091 75 136 111
-0.25862721 -0.33944362 -0.82881188 88 133 115
-0.25790846 -0.33984265 -0.82890761 85 134 114
-0.25630653 -0.3406598 -0.82917714 79 136 112
-0.25676948 -0.33789217 -0.83020252 92 133 116
-0.25601113 -0.33972347 -0.82970178 83 135 114
-0.25757852 -0.33867773 -0.82954174 91 132 116
-0.2570028 -0.33914459 -0.82956445 87 134 115
-0.2560266 -0.34140748 -0.82896101 76 136 111
-0.25363797 -0.34001893 -0.83056337 85 135 115
-0.2528657 -0.34009176 -0.83080089 86 135 116
-0.25488758 -0.34163672 -0.8292855 76 136 112
-0.25233057 -0.3390297 -0.83153826 91 135 118
-0.25562865 -0.34176657 -0.8289547 74 136 111
-0.25493792 -0.34132674 -0.82942712 77 136 113
-0.25242648 -0.34145194 -0.830257 82 137 116
-0.25430986 -0.33838764 -0.83101779 91 134 116
-0.25491244 -0.33790556 -0.83096611 92 134 117
-0.25460252 -0.33823043 -0.83095914 91 134 117
-0.2547746 -0.33806813 -0.83095509 91 134 117
-0.25393817 -0.33916554 -0.83083999 87 135 116
-0.2552959 -0.33821863 -0.83066285 90 134 116
-0.24867746 -0.34084588 -0.83227843 88 133 117
-0.25125492 -0.33836058 -0.83235103 96 134 118
-0.24946997 -0.34077424 -0.83193344 87 134 117
-0.25112522 -0.34167704 -0.83069611 83 136 117
-0.24994738 -0.34082592 -0.83168405 86 134 118
-0.25020659 -0.34139079 -0.83127224 85 135 117
-0.25111991 -0.34176189 -0.83065486 82 136 116
-0.25055134 -0.34053373 -0.83155257 87 134 118
-0.2502889 -0.34117922 -0.8313427 85 135 117
-0.25369394 -0.34249324 -0.82925105 78 137 113
-0.25286317 -0.344046 -0.82865673 78 137 112
-0.25350997 -0.34334466 -0.82883132 77 136 112
-0.25299773 -0.34300092 -0.82920349 79 137 114
-0.25256753 -0.34345785 -0.8290928 79 137 113
-0.25460631 -0.34209713 -0.82915103 77 136 113
-0.25047994 -0.34531409 -0.82889605 76 138 113
-0.25117058 -0.34359992 -0.82956773 79 137 114
-0.25151214 -0.34414339 -0.82910937 78 137 113
-0.25181183 -0.34277695 -0.82975364 80 137 115
-0.25181916 -0.34392434 -0.82909906 79 137 114
-0.25082618 -0.34435761 -0.82928866 78 137 114
-0.24909094 -0.34325311 -0.83071631 80 136 116
-0.24901074 -0.34463042 -0.82993317 77 137 115
-0.25144136 -0.34206903 -0.83032471 81 137 116
-0.24855921 -0.34249878 -0.83141387 82 134 116
-0.25012088 -0.34290126 -0.83044517 80 137 116
-0.24948685 -0.34267214 -0.8308776 81 135 116
-0.24860768 -0.3434124 -0.83084697 80 136 116
-0.24784261 -0.34339783 -0.8312037 80 135 116
-0.24681881 -0.34344387 -0.83160931 77 134 115
-0.24780792 -0.34298787 -0.83146268 81 135 116
-0.24862279 -0.34654927 -0.82909733 79 137 114
-0.24874632 -0.346479 -0.82907552 79 137 114
-0.24966331 -0.34577799 -0.82899648 75 139 112
-0.24708125 -0.34895775 -0.8285383 85 132 116
-0.24684107 -0.34803885 -0.82904208 80 134 115
-0.24745029 -0.34782919 -0.82894635 81 135 115
-0.24769223 -0.34777138 -0.82889652 82 135 115
-0.24774697 -0.34735072 -0.82907432 81 136 115
-0.24537678 -0.34975195 -0.82869691 80 131 116
-0.23649697 -0.3115463 -0.85789591 66 137 111
-0.23746301 -0.31233299 -0.8561182 68 139 110
-0.23713185 -0.31262848 -0.85638243 66 139 110
-0.23759378 -0.31206033 -0.85610896 69 139 110
-0.23524505 -0.31257594 -0.85928869 63 137 110
-0.23529749 -0.31273574 -0.85910594 63 137 110
-0.23538019 -0.31213543 -0.85931677 63 137 110
-0.2361425 -0.31191695 -0.85818464 65 138 110
-0.23629852 -0.31242779 -0.85763037 63 139 110
-0.2329962 -0.3219614 -0.85659456 69 129 115
-0.23271766 -0.32086775 -0.85778415 63 131 113
-0.23308133 -0.32183701 -0.85654193 69 129 115
-0.23320417 -0.31976664 -0.85773993 61 133 111
-0.23368007 -0.32043198 -0.85651594 63 132 112
-0.23325257 -0.32086712 -0.85691953 65 131 113
-0.2334301 -0.32060656 -0.85680574 64 132 112
-0.232253 -0.321794 -0.85788417 63 131 113
-0.23253904 -0.32338113 -0.85622847 67 131 116
-0.23227619 -0.3231681 -0.85680473 65 131 115
-0.23205465 -0.32466245 -0.85594988 63 134 114
-0.23511118 -0.31047511 -0.8608672 66 136 111
-0.2595529 -0.3260498 -0.83309108 99 134 116
-0.26026636 -0.32709759 -0.8324427 93 135 116
-0.2590259 -0.32916915 -0.83255512 82 134 116
-0.25807348 -0.32923529 -0.83297753 80 134 115
-0.25893342 -0.32775348 -0.83294815 89 134 115
-0.25752312 -0.32927421 -0.83321941 79 133 115
-0.25884786 -0.32849395 -0.83280915 85 134 115
-0.25719738 -0.328244 -0.83366722 85 133 116
-0.25647056 -0.32860851 -0.83394688 83 133 116
-0.25588235 -0.32984498 -0.83384514 74 133 114
-0.25679898 -0.32849741 -0.83380181 83 133 115
-0.2528955 -0.32817081 -0.83605003 85 133 117
-0.25316614 -0.32780826 -0.83603346 87 132 118
-0.25321278 -0.32846671 -0.83576351 85 133 117
-0.25503665 -0.3279838 -0.83494717 88 133 117
-0.25428128 -0.32865125 -0.83511919 84 133 117
-0.25432679 -0.32990232 -0.83465886 75 133 114
-0.25485483 -0.32858217 -0.83483607 84 133 117
-0.25188461 -0.32909745 -0.83628196 80 133 116
-0.25632629 -0.33093989 -0.83321893 75 133 114
-0.25821158 -0.3304455 -0.83254427 78 133 116
-0.25776213 -0.3307797 -0.83261925 78 133 116
-0.25814325 -0.33058736 -0.83251953 78 133 116
-0.25432149 -0.3337034 -0.832977 84 133 115
-0.25475949 -0.33301243 -0.83306879 82 132 116
-0.2543042 -0.33193314 -0.83368647 79 133 115
-0.25465477 -0.33241901 -0.83334792 80 133 115
-0.25408673 -0.33308214 -0.83332062 82 134 115
-0.25310493 -0.33353415 -0.83354908 85 134 115
-0.2523894 -0.33090335 -0.83520842 77 134 115
-0.25401297 -0.33147365 -0.83404398 78 134 114
-0.25265372 -0.33202678 -0.83448595 80 134 115
-0.25357684 -0.33135507 -0.83433884 78 133 115
-0.25216216 -0.33154479 -0.83499849 80 134 115
-0.25225788 -0.33344859 -0.83396256 85 134 115
-0.25269818 -0.33321711 -0.83384651 84 134 116
-0.24950376 -0.33196118 -0.83629322 83 133 115
-0.24981001 -0.33219409 -0.835989 83 133 116
-0.25129575 -0.33102942 -0.83574921 78 133 115
-0.24914038 -0.33395877 -0.83545482 88 132 116
-0.25165167 -0.33322412 -0.83441257 85 134 115
-0.2511043 -0.33327881 -0.83469433 85 134 115
-0.25068921 -0.33205149 -0.83556408 82 133 116
-0.25074756 -0.33219725 -0.83545566 82 133 116
-0.2479564 -0.33387759 -0.8361643 89 131 117
-0.25277495 -0.33478606 -0.83318543 88 133 116
-0.25359276 -0.33555192 -0.83253831 90 133 117
-0.25291181 -0.33493322 -0.83306944 88 134 116
-0.25298429 -0.33486059 -0.83306909 88 133 116
-0.25259203 -0.33681968 -0.83243608 94 134 118
-0.25132149 -0.33768314 -0.83264846 97 134 118
-0.24942841 -0.3365339 -0.83400702 95 134 114
-0.25126809 -0.33631665 -0.8332265 93 135 116
-0.25165397 -0.33656994 -0.83294159 94 134 118
-0.25145918 -0.33644018 -0.83308613 93 135 117
-0.2509473 -0.33529794 -0.83379102 91 134 115
-0.24993777 -0.33699262 -0.83358049 96 134 116
-0.24867132 -0.33504266 -0.83517849 91 133 115
-0.24848773 -0.33607596 -0.83476627 94 133 115
-0.24938047 -0.33505943 -0.83476853 91 133 115
-0.2485961 -0.33487609 -0.83530432 91 133 115
-0.25107571 -0.33455154 -0.83406228 89 134 115
-0.24913053 -0.3365126 -0.83418405 95 134 114
-0.24855843 -0.33691189 -0.83430856 96 133 114
-0.24447806 -0.33739856 -0.83608246 79 134 116
-0.24505591 -0.33690262 -0.83604884 80 134 117
-0.24690977 -0.33706453 -0.83507049 90 134 115
-0.24457699 -0.33758807 -0.83593404 79 134 116
-0.24776028 -0.33736512 -0.83451003 96 133 114
-0.24507704 -0.33715957 -0.83590692 80 134 116
-0.24719922 -0.33563912 -0.83564299 88 133 116
-0.24804014 -0.33780617 -0.83415473 99 133 114
-0.25048986 -0.33838311 -0.83270442 96 134 117
-0.24844852 -0.33909827 -0.83329719 94 133 115
-0.24830577 -0.3399834 -0.83290797 91 133 115
-0.24944369 -0.33977896 -0.83247733 91 134 117
-0.24833634 -0.33999187 -0.8328892 91 133 116
-0.24752411 -0.34135324 -0.83256656 84 132 116
-0.24680227 -0.34023565 -0.83347863 85 134 115
-0.24750552 -0.34111273 -0.83269924 85 133 116
-0.2463931 -0.34122133 -0.83316058 80 134 116
-0.24583314 -0.33808815 -0.83507168 86 134 115
-0.24625634 -0.33931279 -0.83421487 85 135 114
-0.24534795 -0.33955324 -0.83452481 80 135 115
-0.2464253 -0.33870476 -0.83445746 88 134 115
-0.24500483 -0.33962011 -0.83465463 77 134 116
-0.24136007 -0.31680432 -0.84920198 80 136 111
-0.24158801 -0.3174614 -0.84870738 76 138 112
-0.24101631 -0.31824008 -0.84899032 69 141 111
-0.24148248 -0.31805912 -0.84858102 72 140 111
-0.24203949 -0.3174693 -0.84823889 77 138 112
-0.23938318 -0.31817544 -0.85076565 65 141 110
-0.23913269 -0.31741393 -0.85135436 68 138 110
-0.24017496 -0.31714964 -0.85030311 71 138 111
-0.2403549 -0.32054767 -0.84857309 65 140 110
-0.24080096 -0.32021981 -0.84827089 67 140 111
-0.24112824 -0.31910303 -0.84847045 68 141 111
-0.23977704 -0.31986737 -0.84952986 65 140 110
-0.23949441 -0.32053602 -0.84952086 64 139 110
-0.23928098 -0.31902269 -0.85048431 64 140 110
-0.23944902 -0.32094175 -0.84935659 65 138 111
-0.23795992 -0.31930608 -0.85174417 66 137 110
-0.2384606 -0.32043371 -0.85063803 68 137 111
-0.23713239 -0.32126456 -0.851565 74 134 113
-0.23825935 -0.32152358 -0.85027218 70 136 112
-0.23846884 -0.3191599 -0.85129851 65 138 110
-0.23745258 -0.32038257 -0.85169959 70 136 112
-0.23950577 -0.32195863 -0.84876537 67 138 112
-0.23704453 -0.32383212 -0.85025102 78 134 114
-0.23820944 -0.32248855 -0.84981638 72 135 113
-0.23902322 -0.32264853 -0.84889632 70 137 113
-0.23815142 -0.32264701 -0.8497867 73 135 113
-0.23636264 -0.32586429 -0.84980631 84 134 116
-0.23669194 -0.32350668 -0.85079342 80 134 114
-0.23911889 -0.32237852 -0.84895027 69 137 112
-0.23648989 -0.32542384 -0.84992361 83 134 115
-0.2387964 -0.32418051 -0.84821874 75 136 113
-0.23829198 -0.32472405 -0.84842706 77 136 114
-0.23699754 -0.32573205 -0.84921098 82 134 115
-0.23560937 -0.32592613 -0.85062999 82 134 116
-0.23588972 -0.32438558 -0.85117507 80 134 114
-0.23523247 -0.32447726 -0.85187602 78 133 115
-0.2358204 -0.32457352 -0.85114878 80 133 115
-0.2367398 -0.32697269 -0.84858137 83 135 114
-0.23479307 -0.32664508 -0.85105324 79 134 116
-0.23492551 -0.32672653 -0.85083741 79 134 116
-0.2331275 -0.32885522 -0.8514477 73 133 115
-0.23383832 -0.32854259 -0.85081911 76 133 116
-0.23411834 -0.32693639 -0.85165387 77 134 116
-0.23471662 -0.32789019 -0.85023659 78 133 116
-0.23421073 -0.32738268 -0.85121679 77 134 116
-0.23438945 -0.32704893 -0.85124493 77 134 116
-0.23491493 -0.32970822 -0.84852749 78 133 116
-0.23597156 -0.3287397 -0.84804958 81 135 115
-0.23481125 -0.32918757 -0.8491053 78 133 116
-0.2333483 -0.32932305 -0.85080624 74 132 116
-0.23332976 -0.32959735 -0.85059369 74 132 116
-0.23253435 -0.32981181 -0.85143644 71 132 116
-0.23252557 -0.33206743 -0.84947294 66 135 114
-0.23329714 -0.33229983 -0.848288 68 136 114
-0.23287411 -0.33289045 -0.84829926 65 137 113
-0.23320407 -0.33185172 -0.84880435 69 135 114
-0.2343888 -0.33055767 -0.84845263 76 133 116
-0.23333533 -0.33205879 -0.84845382 69 135 114
-0.23217389 -0.33059624 -0.85128319 68 133 115
-0.2322138 -0.33198589 -0.84998733 65 134 114
-0.23152731 -0.33367538 -0.849446 57 137 112
-0.23135309 -0.33209816 -0.85110569 60 134 113
-0.23204409 -0.33223048 -0.85000992 63 135 114
-0.23145768 -0.33114159 -0.85181499 63 133 114
-0.26681778 -0.33317363 -0.8279385 109 132 115
-0.26661637 -0.333958 -0.82784373 110 131 115
-0.26450959 -0.3348116 -0.82839131 100 134 113
-0.26508328 -0.33635306 -0.82761228 106 132 115
-0.26379591 -0.33762664 -0.82767934 102 134 114
-0.26486328 -0.33627632 -0.82772923 104 133 114
-0.26586315 -0.33426684 -0.82804269 106 132 115
-0.26655003 -0.33691967 -0.82694727 112 135 115
-0.26615134 -0.33647096 -0.82721049 110 134 115
-0.26607186 -0.33656663 -0.82720965 110 134 115
-0.26245695 -0.33692986 -0.82838947 98 133 114
-0.26359966 -0.33613902 -0.82826591 97 135 113
-0.26373971 -0.33812231 -0.82753623 102 134 114
-0.26075429 -0.33869088 -0.82833725 93 133 115
-0.25989628 -0.34128934 -0.82761186 76 140 112
-0.26214924 -0.33865172 -0.82786489 95 134 114
-0.26141974 -0.33838701 -0.82822239 95 133 115
-0.26243725 -0.33871844 -0.82773858 95 135 113
-0.26081133 -0.33927399 -0.82808495 89 135 114
-0.26196119 -0.34090915 -0.8271004 88 139 112
-0.26221499 -0.34056479 -0.82714367 90 139 112
-0.26152974 -0.34136653 -0.82707161 85 140 111
-0.26091385 -0.34095261 -0.82740271 81 140 112
-0.2612474 -0.34040269 -0.82749349 83 139 112
-0.26228398 -0.34094149 -0.82699126 90 139 112
-0.25792632 -0.34119597 -0.82837117 76 138 111
-0.25877383 -0.34146574 -0.82795244 75 139 111
-0.25712705 -0.34160772 -0.82849675 74 138 111
-0.26064527 -0.34267282 -0.82685405 86 141 112
-0.26058081 -0.34182113 -0.82719982 79 142 111
-0.25633037 -0.34378833 -0.82765341 80 136 111
-0.25633043 -0.34231427 -0.82843167 74 137 110
-0.25857687 -0.34281397 -0.82735032 76 140 111
-0.25884473 -0.34228602 -0.82753289 74 141 111
-0.25667945 -0.34385714 -0.82748961 81 136 112
-0.25864398 -0.34247383 -0.82750648 75 140 111
-0.25921991 -0.34311029 -0.82702529 81 139 112
-0.25936988 -0.34327614 -0.82691008 83 137 112
-0.2581023 -0.34508711 -0.82645911 92 133 113
-0.25845367 -0.34392875 -0.82687521 84 136 112
-0.25792164 -0.34540832 -0.8263669 94 133 113
-0.25801939 -0.34532979 -0.82637453 94 132 114
-0.25537315 -0.34497496 -0.82734823 83 135 112
-0.25552046 -0.34317404 -0.8282522 77 136 111
-0.25573847 -0.34561467 -0.82689404 87 134 113
-0.25583389 -0.34251982 -0.82849771 76 136 111
-0.25543967 -0.34557649 -0.82700944 86 134 113
-0.25230479 -0.34532598 -0.82814199 77 137 111
-0.25209326 -0.34530216 -0.82822448 77 137 111
-0.25622326 -0.34694496 -0.82617527 97 133 115
-0.25602534 -0.34640899 -0.82646006 93 133 114
-0.25292331 -0.34740904 -0.82701313 91 134 114
-0.2527926 -0.34719262 -0.8271476 90 135 113
-0.25255737 -0.34687528 -0.82735866 86 136 113
-0.25546253 -0.34675717 -0.82648325 93 134 114
-0.25374112 -0.34727141 -0.82681149 92 134 113
-0.25005636 -0.34654084 -0.82847071 79 137 112
-0.25011262 -0.34680462 -0.82832915 81 136 113
-0.24868065 -0.3487775 -0.82805365 89 133 115
-0.25004694 -0.34794191 -0.82786047 87 134 114
-0.25081819 -0.34759098 -0.82770079 88 134 114
-0.25152272 -0.34768489 -0.8273772 92 133 115
-0.25090328 -0.34778118 -0.82758504 90 134 115
-0.25013518 -0.34791026 -0.8278386 87 134 114
-0.25065413 -0.34745583 -0.82782477 86 134 114
-0.24721338 -0.34915248 -0.82840955 86 133 116
-0.24978834 -0.35259297 -0.82570392 97 131 117
-0.24955069 -0.35244089 -0.82585388 96 131 117
-0.24977805 -0.35342896 -0.82531679 97 132 117
-0.24898845 -0.35118398 -0.82672518 95 131 117
-0.2491775 -0.3511014 -0.82669353 96 131 117
-0.24869405 -0.35285604 -0.82594532 92 131 117
-0.24877562 -0.35235178 -0.82618344 93 131 117
-0.24898441 -0.35076347 -0.82695276 96 131 117
-0.24633548 -0.35067478 -0.82789189 83 133 116
-0.24617828 -0.35008183 -0.82826287 83 133 115
-0.24772003 -0.35255486 -0.82646477 88 132 116
-0.24798237 -0.3504968 -0.8274923 91 132 116
-0.24614264 -0.35155505 -0.82747155 81 135 114
-0.2467116 -0.35192421 -0.82710379 84 133 115
-0.24866308 -0.35398263 -0.82538819 90 133 116
-0.24790978 -0.35368851 -0.8257919 87 131 116
-0.24850005 -0.32181448 -0.84104663 90 138 113
-0.24650654 -0.32102457 -0.8428064 87 136 114
-0.24526271 -0.32183015 -0.84343344 77 137 112
-0.24726124 -0.32197201 -0.84191161 84 138 112
-0.24413919 -0.32221264 -0.84413004 68 137 110
-0.24842764 -0.32351992 -0.84056765 85 138 112
-0.2484798 -0.32303971 -0.84068733 86 138 113
-0.24763836 -0.32563633 -0.8404004 77 139 112
-0.24727403 -0.3248392 -0.84087676 80 139 112
-0.24710783 -0.32426724 -0.84116387 81 139 112
-0.24664412 -0.32466966 -0.84132093 81 138 114
-0.24596986 -0.32450622 -0.84179074 82 137 114
-0.24488722 -0.32565415 -0.84209037 80 136 116
-0.2459414 -0.32334197 -0.84230459 79 138 112
-0.24525394 -0.32495481 -0.84210116 81 136 115
-0.24543999 -0.32252085 -0.84303474 75 137 111
-0.24463707 -0.32501772 -0.84252757 78 136 115
-0.24438691 -0.32525206 -0.84260857 78 136 115
-0.24561267 -0.32352018 -0.84246814 79 137 113
-0.24763437 -0.3223522 -0.84149379 83 139 112
-0.24301109 -0.3256745 -0.84350646 79 136 115
-0.24363443 -0.32421601 -0.84365267 74 136 113
-0.24387029 -0.32580712 -0.84276211 79 135 116
-0.24397148 -0.32575276 -0.84270537 78 136 115
-0.24592668 -0.32679346 -0.84098822 80 137 114
-0.24576697 -0.3263236 -0.84131539 78 137 115
-0.24457882 -0.32670808 -0.84185517 81 135 116
-0.24436429 -0.32905579 -0.84084034 89 133 117
-0.24659602 -0.32660875 -0.84066856 78 138 113
-0.24663316 -0.32686314 -0.84052163 79 138 114
-0.2447457 -0.32942721 -0.84042573 89 133 117
-0.2410772 -0.32747167 -0.84411913 83 135 115
-0.24051762 -0.32853761 -0.84396917 84 134 116
-0.24164875 -0.3270959 -0.84385002 82 135 115
-0.24212877 -0.32702291 -0.8435083 82 135 116
-0.24141072 -0.3287977 -0.84307426 84 134 116
-0.24214691 -0.3279424 -0.84297204 82 135 116
-0.24178883 -0.32917845 -0.84260833 85 134 116
-0.24369851 -0.32680583 -0.8423937 81 135 116
-0.24351251 -0.32885253 -0.84152812 87 134 117
-0.24123465 -0.32913253 -0.84302914 84 134 116
-0.24291186 -0.32942659 -0.84167975 88 133 117
-0.243056 -0.32945606 -0.84156173 88 133 117
-0.24283825 -0.3298232 -0.84153903 89 133 116
-0.23961622 -0.32968098 -0.8440249 84 134 116
-0.24213195 -0.33264321 -0.84029239 85 133 117
-0.24385877 -0.3304539 -0.84044433 90 132 118
-0.2412851 -0.33191922 -0.84134668 84 134 116
-0.24143493 -0.33052212 -0.84213787 87 134 116
-0.2413417 -0.33167857 -0.84146088 85 134 117
-0.2417749 -0.3321909 -0.84081978 84 134 117
-0.24323054 -0.33014089 -0.84109211 90 132 117
-0.24059552 -0.33282238 -0.84126145 81 135 116
-0.24035516 -0.33073515 -0.84277707 85 133 116
-0.24207498 -0.33125812 -0.84120411 86 133 117
-0.23684628 -0.33323434 -0.84402746 78 135 116
-0.23810314 -0.3316673 -0.84400159 81 135 116
-0.23770903 -0.33229038 -0.84392661 80 134 116
-0.23918308 -0.3311784 -0.84343946 83 134 115
-0.23849103 -0.33378765 -0.84232742 78 135 116
-0.23813459 -0.33289969 -0.84319049 79 135 116
-0.23845939 -0.33251554 -0.84317172 80 135 116
-0.23916839 -0.33350447 -0.84195495 79 135 116
-0.23920509 -0.33128795 -0.84335095 83 134 116
-0.23898046 -0.3313446 -0.84349841 83 134 116
-0.23916502 -0.33293223 -0.84232587 80 134 116
-0.23956896 -0.33502206 -0.84058404 72 136 115
-0.23650515 -0.33456814 -0.84339505 73 135 116
-0.23607388 -0.33470398 -0.84366482 71 135 116
-0.23772915 -0.31257614 -0.85560459 68 139 110
-0.23781879 -0.31313807 -0.85515374 69 138 110
-0.23773162 -0.31594014 -0.8537702 65 138 109
-0.23778471 -0.31688538 -0.85324883 63 139 109
-0.23841316 -0.31783569 -0.8519811 65 138 110
-0.23667093 -0.31896666 -0.85323918 63 138 109
-0.23661469 -0.31992468 -0.85279596 68 136 111
-0.23803146 -0.31848332 -0.8521021 63 138 110
-0.23743068 -0.31988755 -0.85198188 69 136 111
-0.2361564 -0.31983688 -0.85337597 67 136 110
-0.23448546 -0.32217121 -0.85436219 74 130 115
-0.23483454 -0.32116705 -0.85445029 70 133 113
-0.23424125 -0.32120442 -0.85522169 69 132 113
-0.23420827 -0.32102221 -0.85536623 68 132 113
-0.23246686 -0.3244248 -0.85552824 67 132 116
-0.23280585 -0.32488322 -0.85469574 69 134 115
-0.23380798 -0.32462937 -0.85365009 75 132 116
-0.23256655 -0.32566401 -0.85445142 69 134 116
-0.23282647 -0.32540226 -0.85431463 69 134 116
-0.23450357 -0.32328954 -0.85361481 76 131 116
-0.23444867 -0.32362956 -0.8534652 76 132 116
-0.23453453 -0.32234266 -0.8541941 74 131 114
-0.23428598 -0.32258615 -0.8543663 74 130 115
-0.23453528 -0.32402784 -0.8530885 76 132 116
-0.234542 -0.32398897 -0.85310501 76 132 116
-0.23534678 -0.32354853 -0.85231942 77 133 115
-0.23277512 -0.32841152 -0.85219866 72 133 116
-0.23247899 -0.32683304 -0.85372239 69 135 116
-0.23283601 -0.32752004 -0.85278153 72 134 116
-0.23266739 -0.32641152 -0.85380375 69 135 115
-0.23226078 -0.327779 -0.8533268 68 134 115
-0.23227724 -0.3284938 -0.85277629 69 133 115
-0.23231421 -0.32939824 -0.85205525 71 132 116
-0.23208334 -0.32878709 -0.85283804 68 133 115
-0.23142961 -0.32964158 -0.85312498 63 134 114
-0.23089035 -0.32818443 -0.85496694 56 135 113
-0.23093639 -0.33086517 -0.85279167 59 134 113
-0.23137122 -0.33034009 -0.85264868 63 133 114
-0.23068644 -0.33053774 -0.8534323 56 135 113
0 0 0 1 0 0 0 1 0 0 0 1 0 0 0 0 0 640 1 0 0
