ply
format ascii 1.0
comment PCL generated
element vertex 1070
property float x
property float y
property float z
property uchar red
property uchar green
property uchar blue
element camera 1
property float view_px
property float view_py
property float view_pz
property float x_axisx
property float x_axisy
property float x_axisz
property float y_axisx
property float y_axisy
property float y_axisz
property float z_axisx
property float z_axisy
property float z_axisz
property float focal
property float scalex
property float scaley
property float centerx
property float centery
property int viewportx
property int viewporty
property float k1
property float k2
end_header
-0.24405447 0.61157411 -0.87148076 134 138 110
-0.24383593 0.61230922 -0.87117851 136 136 111
-0.24396959 0.61115837 -0.87144166 131 138 110
-0.24181418 0.60799187 -0.86921394 94 142 108
-0.24193317 0.60830337 -0.86932123 96 142 108
-0.24189714 0.60897648 -0.86920065 99 142 108
-0.24348068 0.61040926 -0.87093991 122 139 109
-0.24203762 0.60904723 -0.8693614 101 142 108
-0.24172331 0.60864246 -0.86903 96 142 109
-0.24040595 0.61017793 -0.86757869 109 137 114
-0.2419122 0.61090076 -0.86920524 122 137 113
-0.24119355 0.60997957 -0.86843061 109 139 112
-0.24112278 0.60865057 -0.86835742 93 143 109
-0.24368137 0.61121035 -0.87111712 130 138 110
-0.24141657 0.61002284 -0.86867166 110 139 112
-0.24251132 0.61070412 -0.86985344 121 138 111
-0.24072002 0.60910988 -0.86792088 97 141 111
-0.24113962 0.60442054 -0.86884958 106 136 109
-0.24259242 0.60374719 -0.87071431 104 135 110
-0.2408936 0.60494262 -0.86849189 101 138 108
-0.24043836 0.60530853 -0.86789167 99 139 108
-0.24106185 0.60575116 -0.86860186 90 141 108
-0.24120273 0.60519183 -0.86884642 96 139 108
-0.24160337 0.60606134 -0.86921519 87 141 108
-0.24235736 0.60573673 -0.87016684 95 139 108
-0.24289787 0.60430431 -0.87101591 101 135 110
-0.24322334 0.60498029 -0.87131315 104 136 110
-0.24290723 0.605955 -0.87079746 101 138 109
-0.24149625 0.60628396 -0.86905545 87 141 108
-0.24277134 0.60318011 -0.87099016 110 134 110
-0.24075608 0.59969103 -0.86866421 130 140 110
-0.24018128 0.60000253 -0.86792147 126 142 110
-0.24210155 0.59664977 -0.87071985 113 139 107
-0.24225307 0.59688467 -0.87089568 116 138 108
-0.24213129 0.59667188 -0.87075669 113 139 107
-0.24024367 0.59745461 -0.86815763 114 142 107
-0.24100175 0.59579861 -0.8693037 105 141 105
-0.24108349 0.59769398 -0.86927164 117 141 108
-0.24027568 0.59797895 -0.86816144 117 142 108
-0.24038301 0.5989902 -0.86823028 124 142 110
-0.24041022 0.59898931 -0.868267 124 142 110
-0.24012621 0.59824532 -0.86799014 118 142 108
-0.23966824 0.59844309 -0.86757809 119 143 108
-0.24185373 0.59449184 -0.87053442 117 137 107
-0.24124941 0.59539127 -0.86966401 107 140 106
-0.24215722 0.59507197 -0.87090749 112 138 106
-0.24125655 0.59532899 -0.86967748 108 140 106
-0.2404466 0.59496301 -0.8686623 111 139 107
-0.23978646 0.59499627 -0.86796445 109 139 107
-0.23931752 0.5882923 -0.86826432 104 134 109
-0.23920505 0.58798647 -0.86815679 100 135 108
-0.2399292 0.58621842 -0.86912096 103 133 110
-0.23961729 0.58422565 -0.86900699 105 133 109
-0.24006423 0.5847379 -0.86943239 105 132 110
-0.23869091 0.58738559 -0.8676644 99 135 107
-0.23956871 0.58783835 -0.86855602 100 135 108
-0.23894852 0.58648509 -0.8680371 101 135 108
-0.23859133 0.58360988 -0.86794329 104 133 109
-0.23896746 0.58295536 -0.86837953 104 133 109
-0.23901251 0.58271432 -0.8684392 104 132 109
-0.24936333 0.61589175 -0.8771472 144 138 107
-0.24961483 0.61635721 -0.87746865 144 138 108
-0.24880707 0.61560345 -0.87614465 142 140 106
-0.24867041 0.61556029 -0.87588745 142 140 106
-0.24922261 0.61602682 -0.87681174 143 138 108
-0.24866995 0.61737937 -0.87595248 145 137 109
-0.24866188 0.61723483 -0.87593198 145 137 109
-0.24853271 0.61688828 -0.87573522 145 138 108
-0.24934931 0.61737174 -0.87686455 144 137 109
-0.24986801 0.61164975 -0.87843823 141 136 108
-0.24903831 0.6114375 -0.87731403 129 136 108
-0.2485932 0.61239141 -0.87634891 128 138 106
-0.24892414 0.61289793 -0.8767339 135 139 107
-0.24858315 0.61359584 -0.87606901 135 139 106
-0.25003305 0.61199945 -0.87861615 145 136 109
-0.24839288 0.61460483 -0.87557143 138 140 106
-0.25022823 0.6125719 -0.87902886 145 136 109
-0.24932547 0.61359096 -0.87726074 143 138 107
-0.24932791 0.61385161 -0.8772766 143 138 107
-0.2485406 0.61505795 -0.87574792 141 140 106
-0.24961007 0.61071545 -0.8784638 132 136 109
-0.2482938 0.61123341 -0.87632233 117 137 107
-0.24911961 0.61046559 -0.87787426 125 136 108
-0.24891898 0.60940272 -0.8780852 117 135 109
-0.24887566 0.61110365 -0.8772223 125 136 108
-0.24979302 0.60976988 -0.8791725 130 135 109
-0.2483201 0.60757673 -0.87770212 113 135 111
-0.24835733 0.60783732 -0.87768787 113 135 110
-0.2485861 0.60897022 -0.87775612 112 135 109
-0.24702393 0.60802174 -0.87552142 122 136 110
-0.24779548 0.60937244 -0.87620384 116 136 109
-0.24769861 0.61020803 -0.87578362 117 137 108
-0.24772242 0.61088133 -0.87566179 115 136 108
-0.24870443 0.60629165 -0.87862062 119 133 112
-0.24900071 0.60634875 -0.87919128 118 133 113
-0.24890804 0.60595989 -0.8790518 121 134 113
-0.24863108 0.60720205 -0.87838209 113 134 111
-0.24811739 0.60628593 -0.87735403 113 136 111
-0.24842271 0.60492736 -0.87809682 123 135 113
-0.24854754 0.60457611 -0.87841016 128 133 115
-0.24764472 0.60406572 -0.87655079 103 138 110
-0.24799791 0.60712141 -0.87714529 112 136 110
-0.24803016 0.60515791 -0.87709278 106 137 111
-0.24698779 0.60652852 -0.87568343 117 137 110
-0.24774455 0.60663021 -0.87679195 111 136 110
-0.24716868 0.6049931 -0.87597531 105 138 109
-0.24826182 0.60209709 -0.87797958 110 140 108
-0.24871245 0.60304552 -0.87892026 131 134 115
-0.24874191 0.60278052 -0.87906832 132 135 114
-0.24811766 0.60285318 -0.87740123 104 139 109
-0.24776195 0.60300112 -0.87686539 107 136 112
-0.2469655 0.60216194 -0.87617749 116 134 111
-0.24580783 0.58796424 -0.87657374 111 135 107
-0.24506105 0.5884046 -0.87552077 107 133 107
-0.24542135 0.58744007 -0.87608826 109 134 107
-0.2456103 0.58781266 -0.87631673 109 135 107
-0.22895955 0.61432892 -0.85967177 114 133 115
-0.22885883 0.6137405 -0.85957408 111 134 115
-0.22829372 0.61347967 -0.85932213 111 134 115
-0.22717582 0.61404884 -0.85895252 112 134 114
-0.22804327 0.61212581 -0.85916764 101 137 114
-0.22848389 0.61216539 -0.85932612 102 137 114
-0.22839619 0.61230391 -0.85930163 103 137 114
-0.22456434 0.61441904 -0.85803795 113 132 113
-0.22949553 0.60839087 -0.85974449 80 140 112
-0.22923616 0.60815853 -0.85960525 79 140 112
-0.2289668 0.60820735 -0.85944223 77 140 112
-0.22679412 0.60845304 -0.85852665 84 135 113
-0.22466774 0.60794592 -0.85767806 97 129 117
-0.22735129 0.60776758 -0.85870314 77 136 114
-0.22624677 0.6075843 -0.85826683 84 133 115
-0.22593729 0.60751015 -0.85814333 86 132 116
-0.22779891 0.6075511 -0.85886365 73 137 113
-0.22736168 0.60936683 -0.85878569 87 137 112
-0.22783643 0.60819101 -0.85891271 76 138 112
-0.22830652 0.61040449 -0.85918033 90 139 113
-0.22350891 0.60770804 -0.85743791 89 131 116
-0.22388266 0.60772038 -0.85750908 92 130 117
-0.2220028 0.6077894 -0.85715985 78 136 112
-0.22219944 0.60984361 -0.85733241 88 134 114
-0.22284569 0.60919267 -0.85741109 90 133 115
-0.22451206 0.60817307 -0.85765082 98 129 117
-0.22435015 0.60804558 -0.85761487 97 129 117
-0.21767832 0.60815817 -0.85676986 58 145 110
-0.21831925 0.60806102 -0.85680228 60 143 110
-0.21720482 0.6076681 -0.85668117 52 146 110
-0.2095561 0.60758287 -0.85707873 81 134 115
-0.22922869 0.60662228 -0.85951793 72 139 112
-0.22948885 0.60641652 -0.85966402 73 138 111
-0.22880466 0.6050294 -0.85917062 64 138 111
-0.22866024 0.60677499 -0.859182 67 138 112
-0.22897287 0.60404021 -0.85921478 63 137 110
-0.22611971 0.60392249 -0.85801607 66 134 114
-0.22762167 0.6035822 -0.85857671 60 137 112
-0.22823007 0.60367292 -0.85881639 59 137 111
-0.22496723 0.60706282 -0.8577444 92 129 118
-0.22518285 0.60535955 -0.85773379 78 132 116
-0.22500142 0.60364985 -0.85756975 66 134 115
-0.226898 0.60513449 -0.858383 73 134 114
-0.22650117 0.60622835 -0.8582902 79 133 114
-0.22706571 0.6069442 -0.85854733 77 135 114
-0.22811007 0.60478258 -0.85883117 64 137 112
-0.22537282 0.60694927 -0.85789466 89 130 117
-0.22157219 0.60439301 -0.85675734 65 136 113
-0.22152776 0.60424626 -0.85672939 65 136 113
-0.22355162 0.60435867 -0.85724545 65 135 114
-0.22182652 0.60379356 -0.85675138 64 135 114
-0.22201599 0.60569853 -0.85701841 66 137 112
-0.22432964 0.60365826 -0.85735804 65 135 115
-0.22454789 0.60629207 -0.85755235 86 130 117
-0.22435132 0.60609007 -0.85750419 83 131 117
-0.22430505 0.60647392 -0.85751665 86 130 117
-0.22369127 0.60618848 -0.8573854 80 132 115
-0.22384876 0.6071893 -0.85747015 88 130 117
-0.21858583 0.60513407 -0.85644424 54 141 112
-0.2180817 0.60523373 -0.85639024 51 143 112
-0.21876623 0.60354316 -0.8561641 53 139 113
-0.21907121 0.60582995 -0.85659605 57 141 112
-0.22061767 0.60393912 -0.85648304 64 136 114
-0.22040866 0.60404974 -0.85648161 63 136 114
-0.21969606 0.6052624 -0.85657305 60 139 112
-0.2129577 0.60581201 -0.85636693 55 141 114
-0.21487823 0.60656124 -0.85644454 55 143 112
-0.2154929 0.60546523 -0.85623825 50 142 112
-0.21527523 0.60671842 -0.85647786 54 144 112
-0.20934764 0.60563666 -0.85672677 62 135 115
-0.21003895 0.60616875 -0.85679644 68 136 115
-0.21206528 0.60544783 -0.85643232 56 140 114
-0.21188556 0.60740352 -0.85673034 70 138 115
-0.21130884 0.60708803 -0.85676533 70 137 115
-0.2110164 0.60686362 -0.85677415 70 137 115
-0.21113077 0.60566241 -0.85659057 61 137 115
-0.20784499 0.60646904 -0.85718238 66 132 115
-0.2087207 0.60638565 -0.85696864 69 134 115
-0.22909799 0.60258639 -0.85930341 62 137 110
-0.22965851 0.60237074 -0.85964233 67 136 110
-0.22894761 0.60023099 -0.85933274 60 137 108
-0.2286166 0.60104072 -0.85910136 59 136 109
-0.22529326 0.60144305 -0.85766238 58 136 113
-0.22742581 0.59998429 -0.85861588 57 135 109
-0.22556102 0.60198313 -0.85780668 61 135 113
-0.22599031 0.59993291 -0.85793883 53 136 110
-0.22769462 0.59975612 -0.85873461 57 135 108
-0.22588246 0.60156482 -0.85794365 60 134 113
-0.2283086 0.59989345 -0.8590216 59 135 109
-0.22752528 0.60234946 -0.85859495 60 136 111
-0.22808602 0.60180122 -0.85883909 58 136 110
-0.22748153 0.60066855 -0.85866332 60 135 110
-0.22596835 0.60239214 -0.85799229 63 134 114
-0.22791833 0.60049003 -0.85884082 59 135 110
-0.22120507 0.60082477 -0.85634375 53 137 111
-0.22128122 0.60064787 -0.85635072 52 136 112
-0.22161359 0.6017192 -0.85655278 57 136 113
-0.22096381 0.60083437 -0.85627037 53 137 111
-0.2213271 0.60111177 -0.85640806 54 136 111
-0.22335425 0.60070759 -0.85699421 53 137 111
-0.22121291 0.60330611 -0.85655957 63 135 114
-0.22241193 0.60225731 -0.85682195 59 136 113
-0.22217725 0.60243601 -0.85676968 60 135 113
-0.22231323 0.60193443 -0.85678649 58 136 112
-0.22410074 0.60071164 -0.85718918 53 136 112
-0.22420822 0.6000883 -0.85719466 50 137 110
-0.22041221 0.60226184 -0.85628092 57 137 113
-0.22049361 0.60282922 -0.85634559 60 135 113
-0.22925375 0.59897286 -0.85948932 63 136 108
-0.22908692 0.59800392 -0.85931402 63 133 109
-0.22882514 0.5964129 -0.85902309 59 135 108
-0.22891204 0.5975588 -0.85917276 61 134 108
-0.22637072 0.59735131 -0.85790116 53 135 109
-0.22511375 0.59900367 -0.85746104 49 137 109
-0.22590245 0.59754121 -0.85769075 53 134 110
-0.22711574 0.59658039 -0.8581847 55 135 109
-0.2246608 0.59831166 -0.85716206 51 136 110
-0.22710079 0.5986324 -0.85836625 55 135 109
-0.22584181 0.59872043 -0.85778153 51 137 109
-0.2266756 0.59813964 -0.85812378 53 137 109
-0.2274406 0.59748894 -0.85842776 54 136 108
-0.22680676 0.59942681 -0.85829622 54 136 108
-0.22640465 0.59918743 -0.85808647 53 136 109
-0.22150385 0.59760165 -0.85606408 48 136 109
-0.22316021 0.59570694 -0.85635936 53 134 109
-0.22107212 0.59858268 -0.85605615 47 137 110
-0.22226185 0.59647846 -0.85616291 50 136 108
-0.22453213 0.5960936 -0.85687095 56 133 110
-0.22243491 0.59915233 -0.85655916 48 137 110
-0.22349025 0.59895498 -0.85686237 49 136 110
-0.22450367 0.59895927 -0.85717469 49 137 109
-0.22445738 0.5972538 -0.85697448 54 134 110
-0.22069995 0.5983026 -0.8558895 47 138 109
-0.22965692 0.59325939 -0.85943174 67 133 109
-0.22960705 0.59339631 -0.85940349 66 134 109
-0.22930647 0.59358978 -0.85920691 64 133 109
-0.22907765 0.5925073 -0.85895973 66 133 110
-0.22907285 0.59333366 -0.85901648 64 134 109
-0.22645682 0.59297431 -0.85761642 63 134 110
-0.22468297 0.59469277 -0.8568697 60 132 111
-0.22478077 0.59218037 -0.85687619 66 134 110
-0.22692516 0.59266078 -0.85781562 64 134 110
-0.22654979 0.59314251 -0.85765922 63 134 110
-0.22499967 0.59453261 -0.85700512 60 132 111
-0.22678815 0.59415722 -0.85781461 61 133 110
-0.22699948 0.59372926 -0.85788757 61 133 110
-0.22743478 0.59409833 -0.85812938 61 133 110
-0.22850995 0.59201443 -0.85850787 64 135 109
-0.22847748 0.59451503 -0.85867429 59 134 109
-0.22750773 0.5954383 -0.85826313 57 134 109
-0.22286907 0.59285045 -0.85614401 64 133 109
-0.22449882 0.5942257 -0.85678858 61 133 110
-0.22429077 0.59421116 -0.85670865 61 133 110
-0.22275209 0.59419161 -0.85615754 58 134 109
-0.22293961 0.59358168 -0.85619622 61 134 108
-0.22251129 0.59404224 -0.85606945 58 135 108
-0.22267736 0.59384513 -0.85611784 59 134 109
-0.22218907 0.59407997 -0.85596126 56 136 107
-0.22992191 0.58987051 -0.85966158 73 134 109
-0.22928424 0.59045184 -0.85915267 70 135 109
-0.22929941 0.59116066 -0.85911483 69 134 109
-0.22876701 0.5890044 -0.85889798 71 134 109
-0.2296546 0.58852077 -0.85955846 76 136 109
-0.2246356 0.59082729 -0.85678369 65 135 110
-0.22743183 0.58835471 -0.85823613 70 135 109
-0.22695599 0.58915126 -0.85799938 70 135 109
-0.22623469 0.58820748 -0.85758096 65 136 109
-0.22621542 0.58799565 -0.85756463 65 136 109
-0.22748573 0.58839571 -0.85826659 70 135 108
-0.22633711 0.59045488 -0.85765672 68 135 109
-0.22532146 0.59175211 -0.85710949 66 135 110
-0.22600077 0.59054726 -0.85750294 68 135 109
-0.22839198 0.59010649 -0.85857868 69 134 109
-0.22556865 0.59157544 -0.85723138 67 135 109
-0.22677997 0.59076011 -0.8578245 68 134 110
-0.22420774 0.59070003 -0.85659671 64 136 110
-0.22451696 0.58974844 -0.8567006 63 136 110
-0.22320996 0.5879944 -0.85610181 58 136 110
-0.22379342 0.59028095 -0.85641265 63 135 110
-0.22343773 0.59044838 -0.85628408 63 136 109
-0.22298788 0.59129345 -0.85615098 65 135 109
-0.22963452 0.58476776 -0.85959119 77 135 109
-0.22914645 0.58725613 -0.85925323 75 135 109
-0.22863077 0.58718956 -0.85887796 73 134 108
-0.228622 0.58623463 -0.85883301 75 134 108
-0.22692233 0.58507478 -0.85783529 69 135 109
-0.22477195 0.58521128 -0.85667419 59 137 109
-0.22617684 0.58620429 -0.85747403 66 136 109
-0.22597253 0.58631337 -0.85736734 65 136 109
-0.22639434 0.58478791 -0.85753793 66 136 108
-0.22505741 0.58534652 -0.85683417 60 137 109
-0.2273123 0.58658749 -0.85810661 69 135 109
-0.22773616 0.58494288 -0.8582719 72 135 108
-0.22735073 0.58741909 -0.8581605 69 135 109
-0.22714505 0.58609182 -0.85799599 69 135 109
-0.22702177 0.5870114 -0.85796541 68 136 108
-0.2282279 0.58530188 -0.85855359 74 133 109
-0.2233268 0.58469605 -0.85606039 55 136 109
-0.22427025 0.58629912 -0.85649371 58 136 109
-0.22343422 0.5866465 -0.85616052 58 136 110
-0.22380485 0.58674812 -0.85631925 58 136 110
-0.22337207 0.58715999 -0.85614794 58 136 110
-0.22938228 0.58324516 -0.85936338 74 134 109
-0.22982322 0.58270001 -0.85972351 73 134 109
-0.22875275 0.58389992 -0.85885 76 134 108
-0.22949545 0.58106363 -0.85946691 68 133 110
-0.22915523 0.58057421 -0.85914856 68 134 111
-0.22597545 0.58022553 -0.85715795 56 134 110
-0.22517051 0.58063936 -0.856727 53 135 109
-0.22569391 0.58188611 -0.85706311 58 136 109
-0.22545557 0.58078474 -0.85689038 54 135 110
-0.22612043 0.58144104 -0.85728317 59 135 110
-0.22715774 0.58054578 -0.85782522 61 135 110
-0.22822107 0.58150858 -0.85843652 69 135 109
-0.22622518 0.58271462 -0.85738403 62 136 109
-0.22800961 0.58317727 -0.85836333 71 135 108
-0.22689611 0.58256966 -0.85774434 65 136 109
-0.22819071 0.58290446 -0.85845476 72 134 109
-0.22773679 0.58198869 -0.85818583 67 136 109
-0.22438829 0.5818525 -0.85637671 52 136 109
-0.22424538 0.58192414 -0.85632515 52 135 110
-0.22400613 0.58347142 -0.8562851 55 136 109
-0.22354116 0.58193099 -0.85605335 50 135 110
-0.22305484 0.58308393 -0.85589772 53 135 110
-0.22920084 0.58005387 -0.85917771 66 133 111
-0.22965223 0.57699448 -0.85964036 69 133 111
-0.22855036 0.5768401 -0.85875899 72 132 111
-0.22890759 0.57723171 -0.85902178 71 133 111
-0.22468348 0.57763201 -0.85641772 48 137 108
-0.22478956 0.57840443 -0.85649049 49 137 108
-0.22753236 0.57653403 -0.85816395 66 134 110
-0.22526978 0.57808882 -0.85678357 53 136 109
-0.22577916 0.57641226 -0.85708177 54 138 108
-0.22482309 0.57882082 -0.85651511 50 135 109
-0.2274297 0.57798314 -0.85806918 65 133 110
-0.22601524 0.57875967 -0.85724413 58 133 110
-0.22774068 0.5792942 -0.85817248 64 135 110
-0.22692017 0.57949841 -0.85770684 61 134 110
-0.22734988 0.57984394 -0.85792685 62 134 111
-0.2284108 0.57931787 -0.85854274 67 135 110
-0.22417754 0.57716191 -0.85618252 45 140 108
-0.22367533 0.57966214 -0.85603082 45 135 109
-0.22355822 0.57816935 -0.85595042 43 138 109
-0.22897673 0.57491368 -0.85915864 66 134 111
-0.22900255 0.57494313 -0.85917854 66 135 111
-0.2285417 0.5750308 -0.85876572 66 134 111
-0.22890617 0.57438225 -0.85909331 64 134 111
-0.22489595 0.57477486 -0.85646456 46 140 108
-0.22484878 0.57405388 -0.85639226 44 140 109
-0.22635937 0.57349586 -0.85734493 47 139 110
-0.22738819 0.57293755 -0.85798347 50 139 111
-0.22802481 0.57241499 -0.8583684 52 137 113
-0.22671922 0.57261324 -0.85752869 48 138 111
-0.22818545 0.5730781 -0.85849428 54 138 112
-0.2281931 0.57390463 -0.85851741 58 136 111
-0.22649702 0.57528049 -0.85750228 54 139 109
-0.22823216 0.57561833 -0.85857964 68 134 111
-0.22778682 0.57474315 -0.85828555 61 135 111
-0.22807959 0.5750277 -0.85847241 63 135 111
-0.22426574 0.57519114 -0.85614663 44 141 108
-0.22373103 0.57551938 -0.85593915 41 142 108
-0.22917378 0.57129318 -0.85934132 53 139 111
-0.22933197 0.57158738 -0.85947657 54 139 111
-0.22859111 0.56953979 -0.85885972 51 141 110
-0.22917005 0.56922865 -0.85942882 52 142 110
-0.22690158 0.56964147 -0.85771173 47 141 110
-0.2264249 0.56904978 -0.85736221 46 141 109
-0.22714251 0.56930482 -0.85787648 47 141 110
-0.22678792 0.56947047 -0.85762781 47 141 110
-0.22611114 0.56956172 -0.857149 46 140 110
-0.22780915 0.57119507 -0.85826141 50 139 112
-0.22741538 0.5706684 -0.85802549 49 139 111
-0.22840294 0.570059 -0.8586933 51 141 111
-0.22844838 0.56850672 -0.85878414 51 142 110
-0.2282695 0.57045847 -0.85859054 51 141 111
-0.22705403 0.57092673 -0.85777974 48 140 110
-0.22625908 0.57090825 -0.85726225 46 140 110
-0.22892825 0.56693774 -0.85921687 51 143 108
-0.22920251 0.56706274 -0.85948187 52 142 108
-0.22859098 0.56647867 -0.85886502 50 142 108
-0.22904302 0.56521374 -0.85929471 51 141 106
-0.22501282 0.56539035 -0.85616946 46 138 111
-0.22540438 0.56679326 -0.85655528 45 139 109
-0.22466813 0.56520653 -0.85589856 46 137 112
-0.22547555 0.56582075 -0.85654521 46 139 110
-0.22489743 0.56621122 -0.85613638 45 138 111
-0.22636306 0.56508905 -0.85716414 47 138 109
-0.22630288 0.56668383 -0.85722232 46 140 108
-0.22715135 0.56815511 -0.85786015 47 141 110
-0.22584425 0.5671488 -0.8569079 45 140 108
-0.22793864 0.56744617 -0.85840213 49 142 108
-0.22565135 0.56796634 -0.8567906 45 140 109
-0.22785166 0.56586272 -0.85830224 49 140 107
-0.22908112 0.56171972 -0.85964644 49 142 108
-0.2293635 0.56388021 -0.85967207 51 141 106
-0.22882532 0.56081623 -0.85950953 48 142 108
-0.22733872 0.56265801 -0.85791373 48 139 109
-0.22620183 0.56184864 -0.85699475 46 138 110
-0.22673641 0.56057757 -0.85764331 46 139 110
-0.22679736 0.56201458 -0.85750991 47 138 109
-0.22738707 0.56315207 -0.85789257 48 139 108
-0.2270281 0.56158525 -0.85777426 47 138 110
-0.22554927 0.5606209 -0.85656726 45 137 111
-0.22603008 0.56389165 -0.85686469 47 138 110
-0.22582823 0.56305975 -0.85670155 46 138 110
-0.22502246 0.56178993 -0.85607862 45 137 112
-0.22544032 0.56357831 -0.8564173 46 138 111
-0.22663516 0.5632149 -0.85730988 48 137 110
-0.22618388 0.56297302 -0.85696751 46 139 110
-0.22639982 0.5628854 -0.8571285 46 139 110
-0.2286983 0.56028771 -0.85942531 47 143 108
-0.22640227 0.56051314 -0.85734981 46 139 111
-0.22614771 0.55992293 -0.85718542 45 139 110
-0.22571929 0.55886418 -0.85692734 43 138 110
-0.2279247 0.55925471 -0.85878855 43 144 107
-0.22826923 0.55963326 -0.85905796 44 143 107
-0.23496358 0.61647958 -0.86282498 108 136 113
-0.23505473 0.61582035 -0.86289513 103 138 113
-0.23272212 0.61571193 -0.86159045 104 138 114
-0.23560819 0.6155839 -0.86321229 101 139 113
-0.2329302 0.61678404 -0.8616761 113 135 114
-0.23550296 0.61711383 -0.86313415 112 136 114
-0.23618521 0.6171782 -0.86353254 111 137 115
-0.23492514 0.61745596 -0.8627947 116 134 114
-0.2359118 0.61704856 -0.86337346 110 137 115
-0.23229729 0.61580104 -0.8613587 106 137 114
-0.22972518 0.61527199 -0.8601169 115 134 115
-0.23191381 0.61674243 -0.86114401 115 134 114
-0.2355973 0.61311996 -0.86327833 91 141 111
-0.23564692 0.61268365 -0.86335319 91 140 111
-0.23480514 0.61347878 -0.8626672 87 141 112
-0.23529014 0.61213183 -0.86314094 88 141 111
-0.23477022 0.61281729 -0.8627001 86 142 111
-0.2357153 0.61420333 -0.86326891 93 140 112
-0.23280111 0.61276835 -0.86144531 83 142 113
-0.23432064 0.61446804 -0.86243743 94 140 113
-0.23252964 0.61388266 -0.86138499 91 141 113
-0.2328424 0.61204821 -0.86140913 77 143 112
-0.23374519 0.61374921 -0.86205554 89 141 112
-0.23431136 0.61364746 -0.86236453 88 141 113
-0.22968943 0.61133337 -0.85984558 90 141 112
-0.2305996 0.61243945 -0.86035937 92 140 113
-0.23097488 0.61166829 -0.86047006 84 141 112
-0.23209383 0.61438668 -0.8612138 97 139 113
-0.22941807 0.61508042 -0.85995799 115 133 116
-0.23128317 0.6137585 -0.86078453 97 140 113
-0.23101251 0.61360079 -0.86064214 98 139 113
-0.23093426 0.61499298 -0.8606934 107 137 114
-0.23180132 0.61485529 -0.8611083 102 138 114
-0.23109221 0.61382073 -0.86069524 99 139 113
-0.23425484 0.61021531 -0.86246514 84 140 112
-0.23561062 0.60956597 -0.86346292 91 138 111
-0.23533541 0.6087988 -0.86326879 91 137 111
-0.2355545 0.60958469 -0.86342174 91 138 111
-0.23459582 0.60903817 -0.86272556 87 137 112
-0.23362976 0.6110931 -0.86199969 79 143 111
-0.23375529 0.6078735 -0.86215967 87 138 111
-0.23516212 0.60779607 -0.86315984 92 135 112
-0.23424968 0.6081292 -0.86250293 88 137 112
-0.2335791 0.60832655 -0.86202157 85 139 111
-0.23431014 0.60860676 -0.86253202 87 138 111
-0.23461813 0.607885 -0.86277133 90 136 112
-0.23208414 0.60940897 -0.86099768 78 142 111
-0.23161049 0.60922015 -0.8607623 77 141 111
-0.23188631 0.60999131 -0.86088026 75 142 112
-0.23047249 0.60790479 -0.86022168 77 140 112
-0.23135574 0.61072737 -0.86061674 77 142 112
-0.23019253 0.60909611 -0.86007082 79 140 113
-0.22994453 0.60934258 -0.8599565 81 141 112
-0.22974798 0.60832471 -0.85986161 78 139 112
-0.23140451 0.61089128 -0.86063999 78 143 112
-0.23443711 0.60658956 -0.86268383 90 136 111
-0.23425768 0.60590827 -0.86257911 88 137 109
-0.23496322 0.60520875 -0.86310267 90 136 109
-0.23547114 0.60413826 -0.86349833 90 136 108
-0.23556086 0.60687208 -0.86347163 94 134 112
-0.23350054 0.60509819 -0.86203074 87 137 110
-0.23302121 0.60643339 -0.86167461 86 139 110
-0.23283376 0.60586607 -0.86153126 86 138 110
-0.23258258 0.60474741 -0.86133772 87 136 111
-0.23263314 0.60628259 -0.86138171 85 139 110
-0.23130463 0.60493809 -0.86056066 79 137 111
-0.23230045 0.60397249 -0.86114234 86 135 112
-0.23182367 0.60579854 -0.86086905 82 138 111
-0.2321087 0.60595185 -0.86103714 84 138 111
-0.23107392 0.60681981 -0.8605091 80 139 111
-0.23030527 0.60568208 -0.86005706 76 138 112
-0.23118721 0.60656166 -0.86055279 80 139 111
-0.23046182 0.60636258 -0.86017323 77 138 112
-0.23009279 0.60448736 -0.85988474 73 136 111
-0.23451163 0.60095102 -0.86283094 88 134 110
-0.2352749 0.60092717 -0.86340642 88 135 108
-0.2350785 0.60077947 -0.86326104 88 135 109
-0.23534638 0.60219264 -0.86343837 89 135 108
-0.23404452 0.60297126 -0.86244398 89 135 110
-0.23388666 0.6019178 -0.86234331 88 134 110
-0.23312689 0.60201871 -0.86177027 86 135 111
-0.23272973 0.60076267 -0.86149603 84 137 111
-0.23297128 0.60163456 -0.86166078 85 136 111
-0.23286308 0.60091758 -0.86159325 84 137 111
-0.23275797 0.60214967 -0.86149061 86 135 112
-0.23172803 0.60044914 -0.86089063 78 138 110
-0.23108634 0.59988731 -0.86054981 74 138 109
-0.23155001 0.60151047 -0.86077279 79 136 111
-0.23120362 0.60147971 -0.86058354 77 136 110
-0.23175463 0.60325176 -0.86083227 83 134 112
-0.23008329 0.6034705 -0.85983944 71 136 111
-0.23041649 0.60191971 -0.86010903 71 137 110
-0.23031819 0.60189009 -0.86005265 71 136 110
-0.23488431 0.5977934 -0.86316669 92 139 109
-0.23422331 0.59741253 -0.86267644 91 140 110
-0.23489016 0.59753329 -0.86317539 93 138 110
-0.23532675 0.59955931 -0.86346984 87 136 107
-0.23422888 0.59873497 -0.86265874 88 138 109
-0.23265669 0.59788692 -0.86139995 82 138 110
-0.2339931 0.59735656 -0.86248732 90 140 110
-0.23319197 0.59688067 -0.86179751 84 138 110
-0.23421283 0.59578776 -0.86259514 90 138 110
-0.23413251 0.59739482 -0.86260521 91 140 110
-0.23159915 0.59642702 -0.86064261 76 135 111
-0.2322762 0.59644765 -0.86104846 78 136 110
-0.2318951 0.59750307 -0.86087114 78 136 111
-0.23091063 0.59854674 -0.86037767 73 137 109
-0.23001519 0.59735918 -0.85979629 68 134 110
-0.23149149 0.59906125 -0.8607353 76 138 109
-0.23188825 0.59934628 -0.86097449 79 139 110
-0.23118378 0.5992856 -0.86058384 74 138 109
-0.23456155 0.59459531 -0.86293179 89 136 111
-0.23410413 0.59487557 -0.86253816 87 136 111
-0.23418953 0.5944646 -0.86262792 86 135 112
-0.23457207 0.59436679 -0.86295092 88 135 112
-0.23508599 0.59237629 -0.86346918 85 131 114
-0.23462768 0.59206504 -0.86309361 83 131 113
-0.23414099 0.59330523 -0.86263937 82 132 113
-0.23247482 0.59275109 -0.86124164 78 134 110
-0.23310171 0.59429711 -0.86172372 80 133 111
-0.23460898 0.59196305 -0.8630811 83 131 113
-0.23217973 0.59389812 -0.86099643 77 135 110
-0.23171516 0.59274012 -0.86072242 75 134 110
-0.23154317 0.59256613 -0.86061263 75 133 110
-0.23230694 0.59192425 -0.86114657 77 134 109
-0.23082431 0.59401399 -0.86013073 73 132 110
-0.23127006 0.59377068 -0.86039525 74 134 110
-0.23159711 0.59457493 -0.86059743 75 134 110
-0.23476736 0.58827561 -0.86349839 73 136 111
-0.23345196 0.59084284 -0.86217839 78 133 110
-0.23437706 0.58899391 -0.86311018 74 135 111
-0.23450583 0.59009099 -0.86313319 78 133 112
-0.23357393 0.59168255 -0.86221594 80 132 111
-0.23312528 0.59005362 -0.86191636 78 135 110
-0.23297368 0.59009981 -0.86177033 79 135 110
-0.23336111 0.58833981 -0.86215532 83 136 111
-0.23452641 0.58847862 -0.86327416 74 136 111
-0.23250829 0.58876139 -0.86133265 88 134 111
-0.23149359 0.58906013 -0.86070389 82 135 110
-0.23124306 0.58842421 -0.86056167 83 135 110
-0.23168321 0.58891124 -0.860816 84 135 110
-0.23131642 0.58960849 -0.86059618 80 135 110
-0.23066303 0.59112716 -0.860089 74 134 109
-0.23067318 0.59065324 -0.86012572 74 134 109
-0.23095503 0.59027773 -0.86033869 76 135 109
-0.23334908 0.58614844 -0.86233896 83 136 111
-0.23342909 0.58672875 -0.86235195 83 136 111
-0.23395577 0.58520764 -0.86302572 77 137 111
-0.23445611 0.58530706 -0.86349559 73 137 110
-0.2328864 0.58516377 -0.86195338 82 138 109
-0.23333973 0.58510107 -0.86241716 80 137 110
-0.23306374 0.58499718 -0.86214668 80 138 109
-0.23354034 0.58455247 -0.86266589 77 138 109
-0.23237507 0.58573133 -0.86140263 86 138 110
-0.23138608 0.58625937 -0.86065036 86 135 110
-0.23207612 0.58643454 -0.86112988 87 136 110
-0.23224406 0.58429635 -0.8614285 82 138 109
-0.23078425 0.58738166 -0.86029619 83 135 110
-0.22996847 0.58578569 -0.85981649 78 135 109
-0.23084833 0.58694565 -0.8603332 83 135 110
-0.23002793 0.58687192 -0.85985261 79 135 110
-0.23258099 0.583866 -0.86175084 80 139 109
-0.23415543 0.58364552 -0.86335856 72 139 109
-0.23420836 0.58046407 -0.86362797 65 138 108
-0.23388748 0.58184779 -0.86320949 70 138 108
-0.23343296 0.58065182 -0.86282611 68 137 108
-0.23391621 0.58046639 -0.86333114 66 138 108
-0.23325013 0.58192724 -0.86255825 72 138 108
-0.23341486 0.58170897 -0.86274022 71 138 108
-0.23043795 0.58015561 -0.86023003 66 133 110
-0.23241091 0.58192468 -0.86170435 74 137 109
-0.23103082 0.58102465 -0.86065155 69 135 110
-0.23216477 0.58243918 -0.86147356 75 137 109
-0.23213397 0.58167446 -0.86149758 74 136 109
-0.23155884 0.58381146 -0.86096489 79 138 109
-0.23157875 0.58384454 -0.86097896 79 138 108
-0.23015416 0.58367592 -0.85995978 77 135 109
-0.23017381 0.58365995 -0.85997397 77 135 109
-0.23329824 0.57895648 -0.86280197 66 137 109
-0.23383382 0.57849586 -0.86338007 65 138 109
-0.23395541 0.57996333 -0.86340374 65 138 108
-0.23349184 0.57675201 -0.86311179 64 140 109
-0.23286657 0.57763654 -0.86236924 65 138 110
-0.23261073 0.579449 -0.86205715 67 136 109
-0.23367463 0.57629353 -0.86333001 64 139 110
-0.23201664 0.57860523 -0.86151975 67 136 110
-0.23126642 0.57725418 -0.86093581 67 136 110
-0.23010659 0.5762521 -0.86002702 69 134 110
-0.2322924 0.5768826 -0.86174685 64 138 110
-0.23216437 0.57624972 -0.86164945 64 138 110
-0.2313958 0.57917637 -0.86102033 69 134 110
-0.23211107 0.57962531 -0.86158836 69 134 110
-0.23066646 0.57936698 -0.86043048 67 133 110
-0.23051056 0.57787329 -0.86032969 69 134 110
-0.2335988 0.57562357 -0.86333531 63 140 109
-0.23329686 0.57307106 -0.86341697 61 145 104
-0.23325966 0.57304078 -0.86337829 61 145 104
-0.23381366 0.57535911 -0.86363411 63 142 108
-0.23282735 0.57443082 -0.86263204 62 142 107
-0.23252594 0.57274491 -0.86262053 57 145 104
-0.23125947 0.57247657 -0.86135966 55 143 107
-0.23104435 0.57370627 -0.86090392 58 140 110
-0.23209006 0.57549793 -0.86163956 61 140 110
-0.23237424 0.57371271 -0.86227226 58 143 106
-0.23216195 0.57479453 -0.86184758 61 141 108
-0.23060437 0.5740186 -0.86046427 59 139 110
-0.23029116 0.57565433 -0.86018366 66 136 110
-0.23134241 0.57540804 -0.86101753 62 138 110
-0.23166713 0.57603818 -0.86126059 64 137 111
-0.22977039 0.57579368 -0.85977018 68 134 111
-0.2332951 0.57224035 -0.86356199 61 146 102
-0.23056883 0.56970334 -0.86081576 54 144 106
-0.23118921 0.56896913 -0.86149436 70 141 108
-0.23066415 0.5694651 -0.86092651 58 143 107
-0.23195089 0.57163602 -0.86214304 55 146 103
-0.23055191 0.56863493 -0.86085355 64 141 109
-0.22980487 0.57008076 -0.86001009 53 142 109
-0.22995442 0.57194859 -0.86007154 54 139 111
-0.23177692 0.57151765 -0.86196977 55 145 104
-0.22994998 0.57062888 -0.8601324 54 141 109
-0.22987422 0.56898808 -0.86013567 53 143 108
-0.23098455 0.56556123 -0.86134326 68 142 105
-0.23048492 0.56533235 -0.8607952 63 142 106
-0.23005922 0.56757796 -0.86035097 59 142 108
-0.22993349 0.56689638 -0.86021405 58 141 108
-0.23031723 0.56817549 -0.86062354 63 141 109
-0.23157245 0.56206697 -0.86220837 72 143 104
-0.23094395 0.5624851 -0.8615917 63 144 104
-0.23115703 0.56260538 -0.86179882 64 146 103
-0.22972597 0.56211168 -0.86030579 53 144 106
-0.22965281 0.56137568 -0.860322 53 143 107
-0.22950211 0.5623551 -0.86002189 51 143 106
-0.22952461 0.56205016 -0.86008787 51 143 106
-0.22953781 0.56242442 -0.8600527 52 143 107
-0.23307262 0.55801755 -0.86355686 80 141 106
-0.23264618 0.55828661 -0.86316323 77 142 106
-0.23024714 0.557271 -0.86089826 50 148 103
-0.23184325 0.55781245 -0.86239034 67 144 105
-0.2323557 0.55921912 -0.86292654 80 141 106
-0.23174661 0.55812347 -0.86231595 68 144 104
-0.22991817 0.55676854 -0.86057264 43 150 102
-0.23236863 0.55683076 -0.86282772 64 147 103
-0.22970629 0.55752236 -0.86040694 46 149 102
-0.22948527 0.55718589 -0.86019224 43 149 102
-0.22922428 0.55903167 -0.85993189 45 146 105
-0.23110852 0.55957091 -0.86176968 71 141 106
-0.23057002 0.55980688 -0.86124331 65 142 106
-0.23008992 0.55839622 -0.86077881 54 146 104
-0.23292129 0.55504322 -0.86347443 69 144 104
-0.23279354 0.55493861 -0.86335742 68 144 105
-0.23249254 0.55585653 -0.86299658 65 146 104
-0.23156114 0.55521643 -0.86221528 57 145 104
-0.23199876 0.55454838 -0.8626579 60 146 104
-0.22987878 0.55361831 -0.86084527 45 143 105
-0.23090945 0.55454481 -0.86168879 53 144 105
-0.23050068 0.55336136 -0.8614192 48 144 105
-0.23180099 0.55447423 -0.86248785 58 146 104
-0.23117059 0.55443245 -0.86193013 54 145 104
-0.23030192 0.55549246 -0.86104369 47 146 103
-0.23003498 0.55439597 -0.86091703 46 143 105
-0.23131213 0.55559599 -0.86196101 55 146 103
-0.23062499 0.55534995 -0.86135608 50 145 104
-0.23038249 0.55579484 -0.86108506 47 147 103
-0.23123638 0.55590439 -0.86185801 54 146 103
-0.23252048 0.5526157 -0.86326784 66 145 105
-0.23139334 0.55105835 -0.86217451 59 145 106
-0.23135932 0.54940158 -0.86209166 68 147 105
-0.23002677 0.54909068 -0.86084813 52 146 108
-0.23084597 0.54910213 -0.86160707 63 147 106
-0.23101462 0.55092031 -0.86181957 55 146 107
-0.23210929 0.55147314 -0.86285037 65 147 104
-0.2310642 0.55075616 -0.86186039 57 145 107
-0.22973464 0.55241978 -0.8607673 43 142 106
-0.23088065 0.55137116 -0.86172032 53 144 107
-0.22960119 0.55250645 -0.86065406 43 142 106
-0.23092173 0.55187905 -0.86178929 52 144 106
-0.23103991 0.54696226 -0.8616423 67 147 103
-0.22988719 0.54542661 -0.86046189 53 144 104
-0.23066837 0.54796284 -0.86136556 61 148 104
-0.22979492 0.54815304 -0.86057186 50 146 107
-0.23006174 0.54787594 -0.86079699 54 146 106
-0.25285453 0.60892987 -0.88481671 108 142 103
-0.25328833 0.60771161 -0.88613898 119 134 110
-0.2533485 0.6077956 -0.88625258 121 133 110
-0.25337693 0.60804927 -0.88624698 122 134 110
-0.25283894 0.60756344 -0.88515884 109 136 108
-0.25198439 0.60746968 -0.88324207 88 143 102
-0.25257772 0.60955185 -0.88386279 122 139 106
-0.25294685 0.6108771 -0.88423622 143 137 107
-0.2521905 0.60461944 -0.88412267 131 131 111
-0.25245023 0.6060226 -0.88449961 103 141 104
-0.25265998 0.60448313 -0.88519251 126 135 109
-0.25226954 0.60517877 -0.88421822 121 135 108
-0.2522001 0.60471672 -0.88413 129 132 110
-0.25336471 0.60641003 -0.88652569 123 134 110
-0.2532053 0.60522389 -0.88631934 120 138 108
-0.25337189 0.60501963 -0.88672471 125 137 109
-0.25304663 0.60578728 -0.88588476 116 138 107
-0.25323403 0.60566378 -0.88632685 121 137 108
-0.25338042 0.60517603 -0.88672358 125 137 109
-0.25189531 0.60391432 -0.88362414 148 125 115
-0.25322762 0.6029197 -0.88685697 132 137 108
-0.25229046 0.60193801 -0.88517964 147 128 112
-0.25196457 0.602799 -0.88408643 152 125 115
-0.25204131 0.60283196 -0.88424218 151 125 114
-0.25123027 0.6013658 -0.88370353 146 129 112
-0.25194222 0.60299987 -0.88395977 153 125 115
-0.25168863 0.60068929 -0.8846131 145 129 111
-0.25143969 0.60281461 -0.88339144 155 125 115
-0.25241789 0.59641349 -0.88670123 145 130 108
-0.24804993 0.61590052 -0.87481773 141 140 107
-0.24592002 0.61434484 -0.87286472 142 138 109
-0.24624074 0.61447763 -0.87314963 141 138 108
-0.24755418 0.61501497 -0.87431729 140 140 107
-0.24494216 0.61226809 -0.87224054 134 139 109
-0.24491155 0.61237746 -0.8721922 135 138 109
-0.24671707 0.6130802 -0.87391156 131 139 107
-0.24784926 0.61463881 -0.87470287 136 140 106
-0.2479137 0.61493015 -0.87469268 138 141 106
-0.24618198 0.61219293 -0.87357867 128 139 108
-0.24517165 0.6115573 -0.87267917 129 138 109
-0.24501431 0.61135757 -0.87257379 129 137 110
-0.24651057 0.61205071 -0.87398583 126 138 108
-0.24714874 0.60999554 -0.87522179 119 136 109
-0.24738777 0.61120737 -0.87522399 115 136 108
-0.24635789 0.6097191 -0.87441033 123 137 109
-0.24500109 0.61022949 -0.87280595 129 137 110
-0.24613455 0.60940075 -0.87423289 125 137 110
-0.2462596 0.60940218 -0.87437034 124 136 110
-0.24590905 0.6104303 -0.87376273 124 137 109
-0.24493675 0.60821092 -0.8729583 117 138 109
-0.24531442 0.60862398 -0.8733905 122 137 110
-0.24448758 0.60758597 -0.87245858 112 138 110
-0.24500278 0.60849106 -0.87301165 120 137 110
-0.24439624 0.60756844 -0.87234527 111 138 110
-0.24392621 0.60922575 -0.87160462 120 138 110
-0.24670835 0.60666835 -0.87528789 119 136 110
-0.24621455 0.6070838 -0.87465894 119 136 110
-0.24546181 0.60561901 -0.87373143 105 140 108
-0.24509598 0.6060282 -0.87326401 105 140 109
-0.2456798 0.60690576 -0.87398726 114 137 110
-0.24596533 0.60707068 -0.87434489 117 137 110
-0.24588893 0.60376346 -0.87447309 103 138 109
-0.24433805 0.60439438 -0.87279147 109 135 111
-0.24440835 0.60437006 -0.87286693 108 136 111
-0.24550357 0.60386032 -0.87406617 104 138 109
-0.24538532 0.60473263 -0.87378734 104 138 109
-0.24396533 0.60392416 -0.87244248 108 134 112
-0.24378213 0.60492742 -0.87201309 107 135 111
-0.24402077 0.6049214 -0.87233466 108 136 111
-0.243357 0.60432875 -0.87155932 104 135 110
-0.24614863 0.60326469 -0.87485677 104 138 109
-0.24560156 0.60265994 -0.87448746 112 135 110
-0.24378453 0.60300976 -0.87232512 113 134 112
-0.24327663 0.59563047 -0.87246919 110 136 107
-0.2435562 0.59560734 -0.87288439 111 135 107
-0.24487776 0.58795261 -0.87528509 103 134 107
-0.24451621 0.5869506 -0.87475878 104 134 107
-0.24475867 0.58759314 -0.87511516 102 134 107
-0.24405269 0.5872255 -0.87397581 102 134 107
-0.25561559 0.61036986 -0.89049548 134 132 109
-0.25405759 0.60934228 -0.88760704 139 135 109
-0.25390863 0.60871112 -0.88735753 135 133 111
-0.25368795 0.60411644 -0.88779277 137 136 110
-0.25357756 0.60475808 -0.88728774 132 136 110
-0.25332516 0.60269147 -0.88720161 131 139 107
-0.2538178 0.60266054 -0.88882738 137 136 109
-0.25376108 0.60266894 -0.8886373 136 136 109
-0.25329801 0.6026693 -0.8871268 131 138 108
-0.22109495 0.59607732 -0.85571295 46 139 106
-0.2191719 0.59859955 -0.85575074 40 139 108
-0.21922339 0.59627628 -0.85541379 40 139 107
-0.21983501 0.59611154 -0.85547447 42 140 107
-0.2209318 0.59562171 -0.85560441 45 140 106
-0.22202702 0.59185523 -0.85580945 65 134 108
-0.22082824 0.59306949 -0.85542172 58 136 107
-0.21936911 0.59283757 -0.85516167 55 135 108
-0.21710227 0.59345734 -0.85483593 43 137 110
-0.21762285 0.59358871 -0.8549335 45 136 109
-0.2172806 0.59262204 -0.85479611 46 135 110
-0.21790291 0.59180576 -0.85483176 52 134 110
-0.22004844 0.59516537 -0.85540581 46 139 106
-0.21784653 0.59503871 -0.85508251 42 138 109
-0.21960704 0.59347868 -0.85524106 54 136 108
-0.22027983 0.59537625 -0.85545164 45 140 106
-0.22021343 0.59358543 -0.85533446 54 137 107
-0.21943623 0.59362948 -0.85522568 52 136 108
-0.22205937 0.59004754 -0.85573661 62 135 109
-0.2218753 0.59003365 -0.85566521 62 135 109
-0.22085363 0.58826119 -0.85513961 55 135 110
-0.22122802 0.58834392 -0.85530037 56 136 109
-0.22115667 0.58881837 -0.85530025 58 134 110
-0.21737525 0.58902335 -0.85448694 50 134 110
-0.21830237 0.58818471 -0.85459238 52 134 110
-0.21734099 0.59032649 -0.85461068 48 135 110
-0.21927078 0.58825052 -0.85479712 52 135 110
-0.21705678 0.58936054 -0.85445565 50 134 110
-0.21985085 0.58883786 -0.85497111 53 135 110
-0.22013958 0.59019643 -0.85510367 58 134 109
-0.22031505 0.59106022 -0.85518664 61 134 108
-0.22069193 0.58969432 -0.85516441 59 134 109
-0.21930213 0.5910427 -0.85501695 56 135 109
-0.21538092 0.59128231 -0.8545087 42 135 111
-0.21602167 0.59001881 -0.85442114 46 134 111
-0.21564947 0.58973241 -0.85436958 45 135 110
-0.21491566 0.59047467 -0.85439914 41 135 111
-0.21636097 0.59082514 -0.85452282 46 134 111
-0.22144806 0.58679008 -0.85533494 55 135 110
-0.22190408 0.58723956 -0.85553616 56 135 110
-0.2226762 0.58645159 -0.85583651 56 136 110
-0.22178057 0.58455998 -0.85543466 52 136 110
-0.22182973 0.58558214 -0.85546619 54 136 110
-0.22190523 0.58511192 -0.85549003 53 136 110
-0.22096354 0.58493149 -0.85512012 48 137 110
-0.21767168 0.58700907 -0.85442263 50 134 110
-0.21716164 0.58540404 -0.85409433 47 134 110
-0.21782354 0.58678252 -0.85444379 50 134 110
-0.21738832 0.58613932 -0.85424262 48 134 110
-0.2196348 0.5843361 -0.85472345 46 136 110
-0.21966761 0.58546793 -0.8548131 48 136 110
-0.22036326 0.58494294 -0.85494906 47 137 110
-0.21822758 0.58651471 -0.85453111 48 136 109
-0.21852224 0.5873937 -0.85460192 51 135 109
-0.2206161 0.58516365 -0.85500342 48 137 110
-0.21668527 0.5849393 -0.85392159 46 133 110
-0.2167282 0.58529139 -0.85396463 47 132 111
-0.21651192 0.5874784 -0.85417855 49 134 110
-0.2161551 0.58539015 -0.853912 44 134 110
-0.21679322 0.58451545 -0.85388738 46 134 110
-0.22136331 0.58339447 -0.85524648 47 136 111
-0.2210457 0.5836435 -0.8551302 46 137 110
-0.22145449 0.58318573 -0.85527563 46 137 110
-0.2224098 0.58243513 -0.85562527 48 136 110
-0.22163698 0.58045435 -0.8552177 40 138 110
-0.22082227 0.58131075 -0.85491723 40 139 109
-0.2215185 0.58220947 -0.85525966 43 137 110
-0.217437 0.58308262 -0.85397506 43 135 110
-0.22007495 0.58064574 -0.85464245 38 140 110
-0.21756527 0.58249098 -0.85398185 42 135 110
-0.21827385 0.5832473 -0.85423636 44 136 110
-0.21689995 0.58394498 -0.85385895 45 134 111
-0.2173647 0.58358067 -0.85397989 44 135 110
-0.21978585 0.58309162 -0.85468382 43 137 110
-0.21990564 0.58170974 -0.8546474 40 138 110
-0.21699402 0.58391863 -0.85388595 45 134 111
-0.22196256 0.57991111 -0.85533154 40 138 109
-0.22313502 0.5797832 -0.85582519 44 136 110
-0.22307931 0.57672697 -0.85571933 41 141 108
-0.22209579 0.57722408 -0.85528791 39 140 109
-0.22178185 0.57730114 -0.8551451 38 140 109
-0.22258435 0.57660693 -0.85548097 40 140 109
-0.22309068 0.57505381 -0.8556127 40 139 109
-0.2231012 0.5754953 -0.85564935 40 140 109
-0.22287337 0.56685084 -0.85510135 43 138 111
-0.22409299 0.56632578 -0.85566813 44 138 111
-0.22361992 0.56580645 -0.85539991 44 137 112
-0.22394241 0.56464803 -0.8554641 44 138 112
-0.22465046 0.56434792 -0.8558315 45 138 112
-0.22356156 0.56338769 -0.85521871 43 137 112
-0.22409856 0.56259072 -0.85548747 43 137 112
-0.22426343 0.56236356 -0.85557038 43 137 112
-0.22462477 0.55984622 -0.85581684 43 137 112
-0.23784254 0.61569542 -0.86517513 114 135 115
-0.23705904 0.61167812 -0.86461818 100 139 110
-0.23878205 0.61141914 -0.86612326 113 136 114
-0.23764771 0.61163259 -0.86513489 104 138 112
-0.23896866 0.61139578 -0.86628658 114 136 114
-0.23795083 0.61371726 -0.86536652 110 137 113
-0.23833989 0.61328971 -0.86578929 113 135 113
-0.23755893 0.61387646 -0.86496341 107 137 113
-0.23852251 0.61331326 -0.86596894 114 135 113
-0.2379097 0.61368918 -0.86532795 110 137 113
-0.23822294 0.61474723 -0.86555076 113 135 114
-0.23692031 0.61390078 -0.86432624 102 139 112
-0.23846857 0.6150775 -0.86581081 116 135 114
-0.23819141 0.61517531 -0.86553305 114 135 114
-0.23631054 0.61258459 -0.86383516 95 140 110
-0.23811197 0.60911334 -0.86554432 85 142 108
-0.23669973 0.60988897 -0.86429411 93 139 110
-0.23749338 0.6088165 -0.86500287 90 140 110
-0.2370646 0.60879493 -0.86462581 92 138 111
-0.23649545 0.60828358 -0.86412996 97 135 112
-0.23934513 0.60815549 -0.86663872 79 144 107
-0.23956552 0.60761261 -0.86683792 78 144 108
-0.23912892 0.60986322 -0.86643487 97 140 111
-0.24004042 0.60958493 -0.86724114 101 139 112
-0.23908837 0.61095232 -0.86639106 110 137 113
-0.23974368 0.61045468 -0.86697286 109 137 113
-0.23816264 0.60956711 -0.86558467 85 142 108
-0.23625822 0.6093694 -0.86392355 96 137 111
-0.23967279 0.60583127 -0.8670609 91 140 108
-0.23930354 0.60582924 -0.86670619 88 141 107
-0.24017005 0.60709363 -0.86740214 79 144 107
-0.23739794 0.60393965 -0.8650794 97 136 108
-0.23906659 0.60457516 -0.86661428 102 137 108
-0.2386187 0.60488534 -0.86615026 95 138 108
-0.23858798 0.60535395 -0.86606997 88 139 107
-0.23722574 0.6052019 -0.86484116 90 137 108
-0.23800077 0.60659838 -0.86548525 87 138 109
-0.23760325 0.60651636 -0.8651377 90 137 110
-0.23966886 0.60726112 -0.86693507 78 143 108
-0.23903783 0.60717034 -0.8663823 81 142 108
-0.2381978 0.60622001 -0.86566889 86 139 108
-0.23836318 0.60578823 -0.86582613 83 140 107
-0.23629203 0.60662031 -0.86398894 98 133 112
-0.23590954 0.60490131 -0.86378181 94 134 110
-0.23756754 0.60345381 -0.86529112 104 135 108
-0.23927505 0.60043311 -0.86707038 122 141 110
-0.23727077 0.60348171 -0.86500466 102 135 108
-0.23815972 0.59979111 -0.8659851 110 139 109
-0.23721844 0.60139894 -0.86502087 102 137 108
-0.23753631 0.60049295 -0.86535364 104 138 108
-0.2367418 0.6009652 -0.86455727 96 136 107
-0.23717503 0.59966165 -0.86501217 99 138 108
-0.23682167 0.60181326 -0.86461961 97 137 108
-0.23627262 0.60212624 -0.86408639 93 135 108
-0.23569967 0.60310334 -0.86368674 90 135 108
-0.23902953 0.59848613 -0.86694181 112 141 108
-0.23784108 0.59846479 -0.86576617 100 139 107
-0.23750815 0.59858537 -0.86542648 97 139 106
-0.23890384 0.59812456 -0.86684674 109 141 107
-0.23961093 0.59869623 -0.86750072 119 143 109
-0.23952396 0.59948134 -0.86735064 124 142 110
-0.23692486 0.5957911 -0.86495274 104 140 109
-0.23730576 0.59810096 -0.8652541 95 139 106
-0.23666137 0.59623337 -0.8646602 103 140 109
-0.23655231 0.59736055 -0.86450022 99 139 108
-0.23697999 0.59709078 -0.86495656 99 139 108
-0.23681301 0.59602416 -0.86482674 104 140 110
-0.23626958 0.59637558 -0.8642599 103 139 110
-0.23574054 0.59689444 -0.86381161 96 139 109
-0.23562606 0.59949052 -0.86369377 88 135 108
-0.23924653 0.59466928 -0.86751729 113 137 108
-0.23645732 0.59553456 -0.86449307 108 139 111
-0.23907007 0.59430492 -0.86738431 117 135 109
-0.23805726 0.59519804 -0.86620557 109 138 109
-0.23647669 0.59515321 -0.8645348 107 138 111
-0.23623341 0.59422719 -0.86432153 100 135 112
-0.23625329 0.5939939 -0.86434752 99 135 112
-0.23575915 0.5955168 -0.86388159 100 140 110
-0.23550917 0.59320748 -0.86378098 91 134 113
-0.23696443 0.59138048 -0.86528915 101 128 114
-0.23726122 0.59056449 -0.86570579 98 131 112
-0.23844054 0.58897734 -0.86723059 105 133 109
-0.23687531 0.58829248 -0.86562109 87 136 109
-0.23717915 0.59028053 -0.86563766 94 132 111
-0.23705965 0.58892709 -0.86571908 90 134 110
-0.23692368 0.58996493 -0.86541504 91 132 111
-0.23569827 0.58984035 -0.86415511 83 132 112
-0.23621391 0.58851165 -0.86488926 83 136 110
-0.2352425 0.58862102 -0.86387455 77 135 112
-0.23501614 0.58870596 -0.86367571 75 135 112
-0.23548257 0.59174097 -0.86382473 86 129 114
-0.23718998 0.58786142 -0.86601996 88 137 108
-0.23810644 0.58468664 -0.86733067 101 134 109
-0.2376034 0.5859673 -0.86666042 95 136 108
-0.23850353 0.58642596 -0.86756688 100 135 107
-0.2376218 0.58703887 -0.86656582 93 136 108
-0.237049 0.58510989 -0.86610818 92 135 110
-0.2369846 0.58513224 -0.86603302 92 134 110
-0.23656246 0.58436185 -0.86559987 90 134 112
-0.23643096 0.58607548 -0.86533785 86 135 111
-0.23562364 0.58402193 -0.8647089 82 135 112
-0.23609151 0.58650094 -0.86497599 83 137 110
-0.23542261 0.58450425 -0.86449355 79 137 111
-0.23512985 0.58609951 -0.86408222 75 137 110
-0.23501347 0.58532065 -0.86405438 75 137 110
-0.23479307 0.58567119 -0.8637867 72 138 110
-0.23766638 0.58317131 -0.86692768 99 132 110
-0.23756316 0.58149678 -0.86689103 98 131 110
-0.23693046 0.58374196 -0.86605752 93 133 112
-0.23819722 0.58242726 -0.86757159 103 132 109
-0.23696716 0.58044249 -0.86638021 92 132 109
-0.23648545 0.58211917 -0.86571252 89 133 111
-0.23671913 0.58303529 -0.86585492 92 132 112
-0.23637663 0.58185059 -0.86562961 88 133 110
-0.2351186 0.58028132 -0.86453986 74 136 108
-0.23588547 0.58062452 -0.86526781 82 134 109
-0.2345161 0.5806157 -0.86390454 68 137 108
-0.23631804 0.5818494 -0.86557013 87 133 110
-0.23531944 0.58292454 -0.86449802 78 135 110
-0.23468861 0.58110815 -0.86403215 70 136 109
-0.23468365 0.58154559 -0.86400074 70 137 109
-0.23479131 0.5837236 -0.86396563 73 137 110
-0.23694511 0.57956487 -0.86654562 95 133 109
-0.23695597 0.57965827 -0.86652952 95 132 108
-0.2372205 0.57989734 -0.8667298 96 131 109
-0.23590933 0.57793623 -0.86574 91 135 109
-0.23612499 0.57872921 -0.86582714 91 134 108
-0.23547585 0.57828927 -0.8651017 81 136 109
-0.23467 0.57687593 -0.86440742 74 138 109
-0.23606531 0.57907659 -0.86566824 88 134 108
-0.23564027 0.5795505 -0.86511612 80 135 108
-0.23432058 0.57899874 -0.86383837 66 137 108
-0.23515971 0.57895988 -0.86467689 75 137 108
-0.23445061 0.57998049 -0.86390227 67 137 108
-0.23474267 0.57599759 -0.8647002 80 138 109
-0.23358616 0.57341409 -0.8637017 63 144 104
-0.23351039 0.57247621 -0.86377925 64 146 102
-0.23328233 0.55479538 -0.86385649 74 143 105
-0.23329112 0.55394077 -0.86393309 76 142 106
-0.25236326 0.61046141 -0.88287646 141 135 108
-0.25203899 0.6091767 -0.88254219 118 138 106
-0.25214246 0.60992855 -0.88247353 131 136 108
-0.25145069 0.60774451 -0.88233143 97 140 105
-0.25170553 0.60814393 -0.8824749 102 139 105
-0.25042608 0.60792565 -0.88083559 108 136 108
-0.25159076 0.60997611 -0.88137543 134 135 109
-0.25081909 0.60759676 -0.88154286 100 138 106
-0.2506977 0.6090135 -0.8806479 125 135 110
-0.25054395 0.60842693 -0.88073915 116 135 109
-0.25051233 0.61023474 -0.87987477 139 134 110
-0.25063452 0.61040258 -0.87995571 141 134 110
-0.25058404 0.61004865 -0.88003379 138 134 110
-0.25043011 0.61077529 -0.87956423 142 135 110
-0.25043201 0.60697895 -0.8811751 107 135 109
-0.2499343 0.60613877 -0.88063103 126 130 112
-0.25168705 0.60641611 -0.88298529 108 136 107
-0.25028142 0.60657537 -0.88103491 116 133 110
-0.25089258 0.60635519 -0.88190752 115 133 109
-0.25134575 0.60390502 -0.88292825 156 123 116
-0.25049347 0.60375869 -0.88167 151 125 117
-0.249696 0.60493648 -0.88037539 135 130 115
-0.24915661 0.60514694 -0.87954736 129 132 115
-0.2497988 0.60430568 -0.8805812 141 129 116
-0.25024086 0.60505092 -0.88118529 139 128 114
-0.24911642 0.60597724 -0.87941951 121 133 113
-0.25101894 0.60273957 -0.88267362 154 126 115
-0.25126854 0.60299087 -0.88305026 158 123 116
-0.25044653 0.60103852 -0.88256633 144 131 111
-0.25125858 0.60288221 -0.88310152 157 124 115
-0.24942215 0.60228699 -0.88026398 138 133 113
-0.24893691 0.60280621 -0.87945634 137 134 115
-0.25010052 0.60327816 -0.88113475 149 128 116
-0.24987282 0.60217029 -0.88095915 142 132 112
-0.24946128 0.60328996 -0.8801719 143 131 116
-0.24950233 0.60263598 -0.88033205 141 132 114
-0.25054115 0.60299528 -0.88183975 151 127 115
0 0 0 1 0 0 0 1 0 0 0 1 0 0 0 0 0 1070 1 0 0
