ply
format ascii 1.0
comment PCL generated
element vertex 1021
property float x
property float y
property float z
property uchar red
property uchar green
property uchar blue
element camera 1
property float view_px
property float view_py
property float view_pz
property float x_axisx
property float x_axisy
property float x_axisz
property float y_axisx
property float y_axisy
property float y_axisz
property float z_axisx
property float z_axisy
property float z_axisz
property float focal
property float scalex
property float scaley
property float centerx
property float centery
property int viewportx
property int viewporty
property float k1
property float k2
end_header
-0.205383 0.54135853 -0.84781766 29 135 111
-0.20451252 0.54127192 -0.84776652 29 136 110
-0.20442943 0.54223996 -0.84790826 29 136 111
-0.20342378 0.54193407 -0.84787875 29 136 110
-0.20119989 0.54270345 -0.84798092 28 136 110
-0.20274009 0.54299545 -0.84801549 28 136 111
-0.20726915 0.54046446 -0.84800524 28 136 110
-0.20886689 0.53762293 -0.8479768 32 137 110
-0.20742112 0.53908539 -0.84789544 30 136 110
-0.20585833 0.53878605 -0.84763032 30 136 110
-0.20617108 0.53979182 -0.84777141 30 136 110
-0.20590903 0.53783602 -0.84754926 32 136 111
-0.2053552 0.53952652 -0.84762365 30 136 111
-0.20547678 0.53974855 -0.84766269 30 135 111
-0.20599759 0.53738111 -0.84752005 32 136 111
-0.20307672 0.53716058 -0.84720838 30 137 110
-0.20228601 0.53968376 -0.84761763 30 137 110
-0.20189488 0.54005021 -0.84765536 30 137 110
-0.20153287 0.53872967 -0.84738016 30 137 110
-0.20230055 0.53749895 -0.84721053 30 137 110
-0.20208339 0.53801697 -0.84729028 30 137 110
-0.2031395 0.54026884 -0.84767997 30 136 110
-0.20345017 0.53961253 -0.84761405 30 136 110
-0.20269965 0.5400635 -0.84766734 30 136 110
-0.20498228 0.53908443 -0.84754199 30 136 111
-0.20403723 0.54027057 -0.8476668 29 136 110
-0.19973595 0.53818619 -0.8472622 29 137 109
-0.20115519 0.5378412 -0.84718585 29 137 109
-0.20095032 0.53824568 -0.84726179 29 137 109
-0.20073588 0.53810823 -0.84723651 29 137 109
-0.20941845 0.53530943 -0.84804702 33 135 110
-0.20913708 0.5340367 -0.84791839 33 134 110
-0.20524992 0.5343371 -0.84719396 32 136 111
-0.20807722 0.53405374 -0.84772986 33 134 110
-0.20584424 0.53443956 -0.84731805 32 136 110
-0.20611711 0.53440648 -0.84736937 32 136 110
-0.20612721 0.53424275 -0.84735978 32 136 110
-0.20606343 0.53451419 -0.84736645 32 136 110
-0.20832922 0.53567338 -0.84781057 33 136 110
-0.20874141 0.53445554 -0.84784251 33 134 110
-0.20727512 0.5355584 -0.8476488 33 136 110
-0.20833401 0.536093 -0.84782171 33 136 110
-0.20811424 0.53515488 -0.84776533 33 134 110
-0.20875497 0.53622484 -0.84788847 33 135 110
-0.20241649 0.53338349 -0.84675145 31 136 111
-0.20171423 0.53392625 -0.84672606 31 135 112
-0.20119528 0.53694612 -0.84703189 30 137 110
-0.20443664 0.53333145 -0.84701133 31 137 110
-0.20184302 0.53469962 -0.84683889 31 136 111
-0.20137227 0.5341872 -0.84671336 31 135 112
-0.2034961 0.53610337 -0.84716058 31 137 110
-0.20188619 0.53679031 -0.84708261 30 137 110
-0.20315471 0.53627145 -0.84714568 31 137 110
-0.20237088 0.53612882 -0.84707397 30 137 110
-0.20454255 0.53395873 -0.84709132 31 137 110
-0.19870862 0.534352 -0.84672731 30 137 111
-0.19882676 0.53470796 -0.84678572 30 137 111
-0.19734232 0.53549898 -0.84689945 29 137 110
-0.19933192 0.53428972 -0.84672302 30 137 111
-0.20099221 0.5351277 -0.84680849 30 137 111
-0.20109144 0.53700662 -0.84703857 30 137 110
-0.20115198 0.53693289 -0.84702772 30 137 110
-0.2002497 0.53632742 -0.84697789 30 137 110
-0.19992985 0.53617883 -0.84696841 30 136 111
-0.19566153 0.5332759 -0.846645 30 138 112
-0.19656715 0.53384215 -0.84672147 30 138 111
-0.19585037 0.53513747 -0.84703076 29 137 110
-0.19665353 0.53580403 -0.84703016 29 137 110
-0.1964843 0.53585666 -0.8470614 29 137 110
-0.20947477 0.53299576 -0.84797961 35 135 110
-0.20934556 0.53256196 -0.84787977 35 135 110
-0.20962355 0.53002441 -0.84769166 36 135 110
-0.20935959 0.53106344 -0.84772784 35 136 109
-0.20784435 0.53034472 -0.84732538 33 135 110
-0.20555724 0.53087527 -0.84690434 32 136 110
-0.20540401 0.5328359 -0.84710532 32 136 110
-0.20568828 0.53002495 -0.8468309 33 136 111
-0.20755167 0.53035063 -0.84726411 33 135 110
-0.20544797 0.53159189 -0.84696651 32 136 110
-0.20690806 0.53186917 -0.84730113 33 136 110
-0.20866258 0.53111255 -0.8475675 35 135 110
-0.20718184 0.5331772 -0.84749097 33 134 110
-0.20759527 0.53114355 -0.84736085 33 135 110
-0.20620428 0.53244889 -0.84722304 33 136 110
-0.20781827 0.53228068 -0.84752291 33 135 110
-0.20211065 0.53215009 -0.84656686 31 136 112
-0.20237736 0.53108358 -0.84649879 30 136 111
-0.20201284 0.53007442 -0.84637135 30 135 111
-0.20232905 0.53126246 -0.84650981 30 136 111
-0.20390674 0.52939159 -0.84650385 31 136 110
-0.20453684 0.53106868 -0.84675461 32 136 111
-0.20270474 0.53194571 -0.8466174 32 134 112
-0.20312838 0.53183985 -0.84666067 32 134 112
-0.20491879 0.53128159 -0.84683031 32 136 111
-0.2035356 0.53285176 -0.84683484 32 134 112
-0.20184915 0.53311926 -0.84664428 31 136 112
-0.19995537 0.53169316 -0.84641892 30 136 111
-0.19915967 0.53284454 -0.8465144 31 137 111
-0.20105471 0.53091305 -0.84635937 30 136 111
-0.20111428 0.53236675 -0.84648979 31 135 112
-0.20055871 0.53013921 -0.84628558 30 136 111
-0.1951903 0.53285456 -0.84660816 30 138 112
-0.21139896 0.52634043 -0.84800553 38 138 110
-0.21085584 0.52745146 -0.84789294 38 137 110
-0.21110147 0.52639204 -0.8479262 38 138 110
-0.20982933 0.52713907 -0.84757823 36 137 111
-0.20998655 0.52689928 -0.84761316 36 136 110
-0.20938922 0.52656317 -0.8474068 34 136 110
-0.21003705 0.52595598 -0.84757316 35 138 110
-0.20692056 0.52683032 -0.84684771 32 137 110
-0.20702107 0.52598041 -0.84680492 32 136 111
-0.20762663 0.52544755 -0.84690297 32 137 111
-0.20527931 0.52786922 -0.84655058 32 136 111
-0.20842946 0.52585202 -0.84711915 33 137 111
-0.20816539 0.52829337 -0.84720927 33 137 110
-0.20854749 0.52745897 -0.84724087 34 135 110
-0.20761366 0.52841932 -0.84709996 33 135 110
-0.20826977 0.52658498 -0.84713042 33 137 110
-0.20551051 0.52919132 -0.84670031 33 136 111
-0.20331036 0.52597624 -0.84611088 29 136 111
-0.20146643 0.52644145 -0.84588164 29 136 111
-0.2028255 0.52585757 -0.84601843 29 136 111
-0.2012639 0.5261851 -0.84581548 29 136 111
-0.20214953 0.52711892 -0.84607989 29 136 111
-0.20216857 0.52765304 -0.84615415 29 136 111
-0.20241061 0.52824855 -0.84626126 29 136 111
-0.20435652 0.52754098 -0.84640509 30 136 111
-0.20298305 0.52845681 -0.84633583 29 136 111
-0.20419784 0.52897125 -0.8464998 31 136 110
-0.20168658 0.52885687 -0.84623444 29 136 111
-0.20337713 0.5282895 -0.84636313 30 136 111
-0.20036457 0.5261814 -0.84575206 28 136 110
-0.20002399 0.52675766 -0.84580821 28 136 110
-0.2000097 0.52704537 -0.84584576 28 136 110
-0.20096262 0.52744693 -0.84595662 28 136 110
-0.21185696 0.52435207 -0.84801322 38 139 109
-0.21141596 0.52486712 -0.8479225 38 138 110
-0.2117452 0.52443236 -0.84798568 38 139 109
-0.21044011 0.52501506 -0.84763134 36 138 110
-0.20905188 0.5232383 -0.84701526 35 136 110
-0.20946956 0.52482313 -0.84731019 34 137 110
-0.21033411 0.52160847 -0.84726387 38 137 109
-0.20967273 0.52180088 -0.8470701 36 136 109
-0.20941773 0.52331662 -0.84714109 35 137 109
-0.21002595 0.52301478 -0.84730673 36 137 110
-0.20752317 0.52183807 -0.84651929 34 137 110
-0.20650622 0.52291232 -0.84639359 33 135 110
-0.20572925 0.52350372 -0.84627515 32 136 110
-0.20539102 0.52162695 -0.84601492 33 135 110
-0.20768812 0.52218193 -0.84659028 34 136 110
-0.20804471 0.52454466 -0.84690928 33 137 110
-0.20888835 0.52381182 -0.84702933 34 136 110
-0.20615779 0.52433282 -0.84645355 32 136 110
-0.20583647 0.52466214 -0.8464129 31 136 110
-0.20732498 0.52340192 -0.84662801 33 137 110
-0.20129086 0.52176404 -0.84524512 29 136 111
-0.20209403 0.52350909 -0.8456254 29 136 110
-0.20118222 0.52490717 -0.84563392 29 136 111
-0.2017922 0.52403849 -0.84563696 29 136 110
-0.20217402 0.52230644 -0.84548402 31 136 111
-0.20312437 0.52517796 -0.84598255 29 136 110
-0.20393385 0.52366734 -0.8459627 32 136 111
-0.20430852 0.52355617 -0.84601104 32 136 111
-0.20500705 0.52170134 -0.84593999 33 136 111
-0.20489591 0.52280313 -0.84603018 32 136 111
-0.20262745 0.5243966 -0.8458277 30 136 111
-0.20086293 0.52373976 -0.845465 28 136 110
-0.20051992 0.52444929 -0.84554094 28 136 110
-0.20025297 0.52389151 -0.84545541 28 136 111
-0.20074256 0.52419603 -0.84551865 28 136 110
-0.21241553 0.52102888 -0.84789771 42 136 108
-0.21246533 0.51914215 -0.84780931 45 136 109
-0.2105922 0.52022964 -0.8472653 41 136 109
-0.21218483 0.51862955 -0.8476904 45 136 109
-0.21001159 0.52125359 -0.84713471 38 137 109
-0.21127799 0.52101249 -0.84752983 40 137 108
-0.21076101 0.51795846 -0.84710455 43 138 107
-0.21179707 0.51780021 -0.84747487 45 136 108
-0.21070562 0.51810938 -0.8470999 43 137 108
-0.21011987 0.5192371 -0.84700114 41 136 108
-0.21003415 0.51941264 -0.84698778 41 135 109
-0.21189858 0.51761389 -0.84749293 46 136 109
-0.20608988 0.52031028 -0.84603143 36 135 110
-0.20686734 0.51845837 -0.84598988 37 137 108
-0.20596121 0.5193699 -0.84588158 36 136 109
-0.20634067 0.51789623 -0.84578967 37 136 108
-0.20784318 0.51759046 -0.84612089 39 136 108
-0.20540108 0.5177092 -0.84553504 36 135 109
-0.20709892 0.52029163 -0.84626138 36 136 109
-0.20810306 0.52053595 -0.84651518 36 136 109
-0.20760471 0.51898789 -0.8462373 38 137 108
-0.20546153 0.52124971 -0.84599203 33 137 110
-0.20615223 0.52076113 -0.84609669 35 135 110
-0.2022438 0.51799834 -0.84501505 32 137 110
-0.20161557 0.51997483 -0.84510863 30 137 110
-0.20168224 0.51974785 -0.84509695 31 136 110
-0.20117685 0.51994675 -0.84503371 30 136 111
-0.20235172 0.51797426 -0.84503037 32 137 109
-0.20473611 0.51872671 -0.84551823 35 136 109
-0.20392174 0.51894486 -0.84539056 33 137 109
-0.20403346 0.51907629 -0.84542841 33 137 109
-0.20322958 0.51967776 -0.84535086 33 136 110
-0.20374225 0.52130026 -0.84565246 32 136 111
-0.20458183 0.51917905 -0.84554577 34 135 110
-0.19852571 0.51775581 -0.84462869 28 136 111
-0.1988959 0.51773399 -0.84465253 28 136 110
-0.19957356 0.51833731 -0.84475875 28 139 109
-0.19893748 0.51860881 -0.84474051 28 136 110
-0.20076139 0.52035064 -0.84504336 30 136 111
-0.19913329 0.51996183 -0.84488672 28 136 111
-0.20010307 0.52064866 -0.84502536 28 136 111
-0.19987023 0.52056116 -0.84499979 28 136 111
-0.19944631 0.52010626 -0.84492379 28 136 111
-0.21050026 0.51586956 -0.84684193 45 137 107
-0.21114556 0.51419419 -0.84695113 48 137 108
-0.21051036 0.51447475 -0.84672982 47 136 108
-0.21060781 0.51585084 -0.84688181 45 137 107
-0.20999803 0.51717305 -0.8467499 43 138 107
-0.21056101 0.51697391 -0.846946 44 137 107
-0.21244688 0.51744866 -0.8476848 47 136 109
-0.21022736 0.5174529 -0.84685564 43 138 107
-0.20787694 0.514135 -0.84581757 44 136 110
-0.20667645 0.51505536 -0.84558856 41 135 109
-0.20826879 0.51393867 -0.84590483 45 135 109
-0.20756027 0.51638877 -0.84595078 41 136 108
-0.20766781 0.51666874 -0.84600055 40 136 108
-0.20754382 0.51629949 -0.84593934 41 136 108
-0.20841223 0.51754236 -0.84625638 40 136 108
-0.20547792 0.51747024 -0.84552842 36 135 109
-0.20368145 0.51424611 -0.84480101 36 137 110
-0.20347652 0.51487964 -0.84484804 35 137 109
-0.20193185 0.51668143 -0.84481293 33 137 109
-0.2025999 0.51546818 -0.84477121 34 136 110
-0.20193589 0.51457536 -0.84453762 33 138 108
-0.20169403 0.51666391 -0.84476888 32 138 109
-0.20364419 0.51702678 -0.8451373 34 136 109
-0.2044 0.51697391 -0.8452552 36 135 109
-0.20417334 0.51522589 -0.84500849 36 136 109
-0.20333079 0.51610535 -0.84497535 35 136 109
-0.19843134 0.5167942 -0.84450203 28 136 110
-0.19916138 0.51710355 -0.84459376 28 139 109
-0.20977256 0.51336497 -0.84637702 47 136 109
-0.20528756 0.51075363 -0.84488589 42 136 110
-0.2063199 0.51175171 -0.84528553 42 136 110
-0.20590088 0.51221782 -0.84516978 41 137 109
-0.20165341 0.51045114 -0.84414136 36 138 109
-0.20428167 0.51023668 -0.84464151 41 135 110
-0.20166135 0.51226479 -0.84427714 35 137 109
-0.20328642 0.51354706 -0.84464973 35 138 109
-0.20274161 0.51337302 -0.84454471 35 137 109
-0.2010711 0.51252794 -0.84419531 33 139 108
-0.20587161 0.50637341 -0.84482318 43 134 110
-0.2055119 0.50621688 -0.84470141 42 135 109
-0.2057009 0.50819278 -0.84487098 43 135 109
-0.20633699 0.50863379 -0.84509832 44 136 110
-0.2050664 0.50678879 -0.8445943 42 134 109
-0.20412527 0.50726646 -0.8444106 42 134 110
-0.2042564 0.50856525 -0.84451967 42 135 110
-0.20317777 0.50725591 -0.84421843 40 134 110
-0.20373701 0.50743181 -0.84434021 42 134 110
-0.20525652 0.50540602 -0.84456795 42 135 109
-0.20515533 0.50544482 -0.84453696 42 135 109
-0.20426059 0.50537711 -0.84432226 42 134 109
-0.2040821 0.5046159 -0.84421909 42 135 109
-0.22463296 0.57008803 -0.85610932 42 139 110
-0.22475938 0.56964719 -0.85619086 42 139 110
-0.22425917 0.56928664 -0.85590643 42 139 110
-0.22874379 0.55816102 -0.85947144 39 148 104
-0.22525528 0.55775875 -0.85664392 40 140 109
-0.22488977 0.55932575 -0.85611892 42 137 111
-0.22579932 0.55803788 -0.85710216 41 140 109
-0.22544327 0.55851042 -0.8567211 42 139 110
-0.2279707 0.55817169 -0.85882282 37 146 105
-0.22731891 0.55798864 -0.85831386 38 144 106
-0.22721046 0.55669922 -0.85822725 30 147 104
-0.22731903 0.55729443 -0.8583129 34 146 105
-0.22522505 0.55684876 -0.85667807 36 141 108
-0.22860329 0.5554148 -0.85947287 31 147 104
-0.22548153 0.55379575 -0.85714006 36 143 106
-0.22612421 0.55372548 -0.85766822 36 141 107
-0.22641137 0.5536561 -0.85790735 36 141 107
-0.225188 0.5557673 -0.85673946 36 141 108
-0.22707808 0.55324471 -0.85848314 36 140 106
-0.22562873 0.55529624 -0.85713643 36 141 107
-0.22474185 0.55354893 -0.85655904 36 143 107
-0.22731735 0.55542451 -0.85845006 33 143 106
-0.22829497 0.55417782 -0.85935599 33 143 104
-0.22677299 0.55653286 -0.85789818 32 146 105
-0.22561379 0.55661148 -0.8569845 34 143 107
-0.22599116 0.55627918 -0.85731709 34 143 107
-0.22812341 0.55347288 -0.85930294 35 141 106
-0.22802377 0.55424863 -0.85913616 33 143 105
-0.22449064 0.55356508 -0.85637045 36 143 107
-0.22408892 0.55352807 -0.85610443 38 142 108
-0.22399801 0.55563468 -0.85590231 38 140 109
-0.22860534 0.55002809 -0.85958833 37 143 109
-0.2269232 0.5498895 -0.85819799 38 144 109
-0.22805843 0.54895592 -0.85905135 38 144 111
-0.2256026 0.55060464 -0.85718185 38 141 109
-0.22540104 0.55030489 -0.85700089 38 141 109
-0.22576429 0.55001813 -0.85727471 38 141 109
-0.22480707 0.54904294 -0.85644382 40 138 109
-0.22828197 0.55162245 -0.85942322 36 141 107
-0.22834939 0.55138385 -0.85946071 36 141 107
-0.22666143 0.55248493 -0.85816836 36 142 106
-0.22752957 0.55230272 -0.85886085 36 141 107
-0.22761896 0.55162352 -0.85888433 36 142 107
-0.22828282 0.55205804 -0.85945547 36 140 107
-0.22579634 0.55268532 -0.85747963 36 143 106
-0.2242519 0.54920256 -0.85605657 42 138 109
-0.22382198 0.55117178 -0.85589284 40 140 108
-0.22885014 0.54867738 -0.85973597 38 144 111
-0.22901395 0.54502779 -0.85957336 40 144 104
-0.22674984 0.54582113 -0.85772341 40 140 108
-0.22469544 0.54508084 -0.85609943 38 137 112
-0.22634126 0.54492986 -0.85735315 39 138 110
-0.2274348 0.54530555 -0.85821646 39 141 107
-0.22612955 0.54620558 -0.85727167 40 139 109
-0.22676207 0.5451619 -0.85769099 39 139 108
-0.2258534 0.54771996 -0.85716075 40 139 108
-0.22750439 0.54689807 -0.85840583 39 142 108
-0.22618757 0.54768336 -0.85742569 40 139 108
-0.22705877 0.54805839 -0.85816324 39 141 109
-0.22837636 0.54715371 -0.85913199 39 143 108
-0.2276336 0.54584455 -0.8584047 40 142 106
-0.22504456 0.54847229 -0.85658562 41 138 109
-0.22427753 0.54792953 -0.85599524 41 137 110
-0.22475788 0.54367942 -0.85604268 38 137 112
-0.22525406 0.54420918 -0.85644722 43 135 113
-0.22482958 0.54453784 -0.85615784 40 136 112
-0.22511388 0.54297888 -0.85625446 40 136 112
-0.22614281 0.54147792 -0.85690463 45 137 111
-0.22688355 0.54172003 -0.85746872 52 136 113
-0.22579892 0.54353678 -0.85680038 46 135 113
-0.22775929 0.54382586 -0.85832894 46 139 109
-0.22549798 0.54466283 -0.85667884 40 137 111
-0.22768992 0.5441981 -0.8583138 43 139 108
-0.22671787 0.54351956 -0.85749817 47 137 111
-0.22873922 0.53780919 -0.85919887 61 148 103
-0.2260195 0.53758639 -0.85655063 47 139 108
-0.2274044 0.53726685 -0.85793346 51 147 104
-0.22798501 0.53829294 -0.85839117 54 146 105
-0.2264763 0.53754705 -0.85699975 48 142 107
-0.22549435 0.53800339 -0.85611564 44 138 110
-0.22553052 0.53873503 -0.85620958 43 137 110
-0.22507663 0.54038239 -0.85602623 38 138 111
-0.22541963 0.53780609 -0.85604233 44 137 110
-0.22598667 0.53818434 -0.8564955 47 137 110
-0.2286415 0.5360691 -0.85923195 60 149 103
-0.22767608 0.53558636 -0.85828447 55 147 105
-0.22584555 0.53462368 -0.85654974 50 143 108
-0.22755881 0.53654087 -0.85812753 52 148 103
-0.22627284 0.53702563 -0.85685164 47 142 106
-0.22530235 0.53637892 -0.855937 45 138 109
-0.22531781 0.53630781 -0.85595542 45 140 108
-0.22549142 0.53681648 -0.85610032 45 139 108
-0.22536117 0.53093117 -0.85624367 50 143 108
-0.22533965 0.53106463 -0.85621697 50 142 108
-0.22915582 0.55342537 -0.86021399 39 142 105
-0.22920014 0.54984993 -0.86012769 41 143 110
-0.22874025 0.5506497 -0.8597694 38 142 109
-0.22914007 0.55160648 -0.86018628 40 141 108
-0.22908683 0.54641014 -0.85977811 40 145 106
-0.22908492 0.54866773 -0.85995513 42 145 111
-0.22912303 0.54597253 -0.85977697 39 145 105
-0.22922003 0.54664958 -0.85992044 42 144 107
-0.22925217 0.54471838 -0.85979748 43 144 104
-0.22930098 0.54436451 -0.85981196 48 143 105
-0.22982778 0.54436457 -0.86033976 62 139 107
-0.21444981 0.56514263 -0.85179651 33 135 110
-0.21434127 0.56500179 -0.85175353 33 137 110
-0.21453622 0.56528312 -0.85183352 33 135 110
-0.21421474 0.56530362 -0.85174948 33 136 111
-0.21085608 0.56529248 -0.85122013 30 136 111
-0.21280418 0.56450707 -0.8513096 34 136 112
-0.21258672 0.56507766 -0.85135263 33 137 111
-0.21236075 0.56625187 -0.85145372 31 137 110
-0.21167494 0.56696498 -0.85147893 30 137 111
-0.20989901 0.56759417 -0.8514238 28 136 110
-0.21484657 0.56315196 -0.85177463 34 135 111
-0.21564227 0.56124699 -0.85189992 33 137 111
-0.21458164 0.56432319 -0.85175765 35 134 111
-0.21406251 0.56332046 -0.85157251 33 137 111
-0.21408762 0.5620597 -0.8514955 33 137 111
-0.21429236 0.56186229 -0.85154307 33 137 111
-0.21301195 0.56404781 -0.85131735 34 136 112
-0.21324685 0.56245697 -0.85126883 33 135 111
-0.21178879 0.56062412 -0.85088325 30 136 111
-0.21092699 0.56257969 -0.85097498 29 135 111
-0.21205884 0.56218642 -0.85105735 31 136 111
-0.21186154 0.56272471 -0.85107845 31 136 111
-0.21211119 0.56421196 -0.8512156 32 137 111
-0.21285661 0.56416917 -0.85128617 34 136 112
-0.21621034 0.55919099 -0.8519364 33 136 111
-0.21554181 0.55963856 -0.85176295 32 136 110
-0.21597707 0.55855358 -0.8518216 33 136 111
-0.21564944 0.55898374 -0.85175103 33 136 111
-0.21475081 0.56035477 -0.85157049 32 136 111
-0.21617943 0.55730832 -0.85179871 34 133 112
-0.21315306 0.55791014 -0.85083979 33 134 111
-0.2157547 0.55730587 -0.85165697 34 133 112
-0.21462156 0.55805176 -0.85134953 33 134 111
-0.21539898 0.55713987 -0.85152036 34 133 112
-0.21449491 0.55718851 -0.85122013 33 134 110
-0.21551588 0.55748546 -0.85159445 34 133 112
-0.21067476 0.55721092 -0.85032523 31 136 110
-0.20975764 0.55830359 -0.85032558 30 136 111
-0.20901197 0.55981976 -0.8504166 28 136 111
-0.20912306 0.55899841 -0.85031688 29 136 111
-0.21097903 0.55827802 -0.85053194 30 136 110
-0.21247867 0.55884314 -0.85079229 33 133 111
-0.21217377 0.55954742 -0.85082406 31 136 110
-0.21131489 0.55923474 -0.85068297 30 136 111
-0.211785 0.56014395 -0.85083431 30 136 111
-0.21214281 0.55790484 -0.85065532 31 136 110
-0.20531467 0.55807447 -0.84996706 28 136 111
-0.20716536 0.55787319 -0.85006756 29 136 111
-0.20550881 0.55685282 -0.84972894 30 136 111
-0.20720419 0.55706578 -0.84990329 30 136 111
-0.20893927 0.55862653 -0.85023856 29 136 111
-0.20781952 0.55823815 -0.85016632 29 135 111
-0.20214313 0.55861378 -0.85036737 30 136 111
-0.20142907 0.55852157 -0.85040653 30 137 110
-0.20302846 0.55675977 -0.84985477 31 137 110
-0.20283103 0.55838406 -0.8502546 28 139 109
-0.20138532 0.55785948 -0.85025412 31 137 110
-0.20151095 0.55709964 -0.85006422 32 137 110
-0.19853936 0.55750227 -0.85050762 29 135 111
-0.19937518 0.55793935 -0.85045862 29 136 110
-0.20010689 0.55688214 -0.85017878 32 136 111
-0.20074798 0.55839914 -0.85043073 30 137 110
-0.20006658 0.55956084 -0.85075474 28 136 110
-0.20043319 0.55795902 -0.85035002 31 136 110
-0.20087531 0.55892366 -0.85054505 30 136 111
-0.21682031 0.5540542 -0.8517397 33 137 110
-0.21292065 0.55515188 -0.85052061 33 135 110
-0.21526536 0.55295157 -0.85112768 33 138 109
-0.21321484 0.55286402 -0.85044384 33 138 109
-0.21342357 0.55459404 -0.85064429 33 135 110
-0.21445562 0.55507183 -0.85102147 33 137 110
-0.21545964 0.55557269 -0.85140187 33 135 110
-0.21600224 0.55516326 -0.85155088 33 135 110
-0.21389361 0.55578482 -0.85089111 33 135 110
-0.21415664 0.55620813 -0.85101509 33 135 110
-0.2167809 0.55656964 -0.85193062 34 134 111
-0.21615842 0.5552848 -0.8516137 33 135 110
-0.20965011 0.55355215 -0.84977973 31 136 110
-0.20962198 0.55334663 -0.84975415 31 136 110
-0.2113694 0.55399758 -0.85015577 32 136 110
-0.2095608 0.55401719 -0.84980774 31 136 110
-0.21028587 0.55502808 -0.85004658 32 136 110
-0.2126735 0.55429262 -0.85040808 33 135 110
-0.21110699 0.55468756 -0.85016865 32 136 110
-0.21052773 0.55636358 -0.85019642 32 136 110
-0.21210803 0.55545205 -0.85039896 33 136 110
-0.21266796 0.55542111 -0.85049295 33 136 110
-0.21204191 0.55384672 -0.85026556 32 137 110
-0.20827013 0.5530417 -0.84954262 31 136 110
-0.20577411 0.55301058 -0.84932595 32 137 110
-0.20629755 0.55315018 -0.8493855 32 136 110
-0.2052487 0.55509073 -0.84950191 31 137 110
-0.20601742 0.55563956 -0.84962595 30 136 111
-0.20608418 0.55357969 -0.84941286 32 136 110
-0.2089055 0.5561769 -0.84990066 30 136 110
-0.20787503 0.55537617 -0.84974349 30 136 110
-0.20712443 0.55570281 -0.84971768 31 136 110
-0.20798494 0.55511451 -0.84972644 30 136 110
-0.20781913 0.55602431 -0.84980237 31 136 110
-0.20328104 0.55451876 -0.84957933 33 135 110
-0.20126942 0.55368525 -0.8495633 33 136 111
-0.20382608 0.55376071 -0.84944493 33 135 110
-0.20124406 0.55493075 -0.84974015 33 135 111
-0.2012658 0.55408299 -0.84961957 33 135 111
-0.20325831 0.55504435 -0.84963757 32 137 110
-0.20218277 0.55639148 -0.84987235 32 137 110
-0.20240809 0.55567598 -0.84977716 32 137 110
-0.20364408 0.55574971 -0.84967959 31 137 110
-0.20466481 0.55436236 -0.84944522 32 137 110
-0.19991797 0.55389559 -0.84977871 33 134 113
-0.19940537 0.55338925 -0.84977597 31 135 112
-0.19909029 0.55450767 -0.84998357 31 135 112
-0.200314 0.55330509 -0.84963715 33 134 113
-0.19964346 0.55446231 -0.84989887 31 135 112
-0.20040026 0.55496973 -0.84986091 33 136 111
-0.19919413 0.55601126 -0.85018229 31 135 112
-0.19918279 0.55640888 -0.85023999 31 135 112
-0.20077172 0.55581397 -0.84992629 33 136 111
-0.21710488 0.5527038 -0.85178638 33 138 110
-0.21694008 0.54889244 -0.85160768 37 135 109
-0.21504401 0.54951513 -0.85089672 35 135 110
-0.2152179 0.55000514 -0.85100454 36 135 110
-0.21381955 0.54933852 -0.85040718 33 136 110
-0.21335405 0.55005389 -0.85028565 33 135 110
-0.21476167 0.55035561 -0.85085648 34 136 110
-0.21374799 0.55118275 -0.85053152 33 137 110
-0.21441583 0.55142891 -0.85079825 34 136 110
-0.21551777 0.5519194 -0.85117429 33 138 110
-0.21567823 0.55224103 -0.85123527 33 138 109
-0.21539408 0.5518465 -0.85113162 33 138 110
-0.21612871 0.55022454 -0.85133398 36 135 110
-0.21559937 0.55013418 -0.85115689 36 135 110
-0.20932017 0.54891384 -0.84919 32 137 109
-0.2094679 0.55076605 -0.84944654 31 137 109
-0.21108361 0.54925531 -0.84963858 32 137 110
-0.21048249 0.55039728 -0.84963673 31 137 109
-0.21206008 0.54944277 -0.84988672 31 136 110
-0.20954673 0.54926008 -0.84928393 32 137 109
-0.21190694 0.54998696 -0.84991008 31 136 110
-0.21160123 0.55161458 -0.84998512 32 137 110
-0.21253258 0.55107337 -0.85012072 32 137 110
-0.2115258 0.55062038 -0.84988856 31 136 110
-0.21287635 0.55226821 -0.85028577 32 137 110
-0.2059615 0.55045754 -0.84904349 31 137 110
-0.20518598 0.55101198 -0.84904438 31 137 110
-0.20710084 0.55054092 -0.8491472 32 137 110
-0.20627785 0.54892033 -0.84888971 30 137 111
-0.20662187 0.55015355 -0.84906238 31 137 110
-0.20812795 0.54926026 -0.84908205 32 138 109
-0.20651397 0.55199128 -0.84927058 32 137 110
-0.2070595 0.55245095 -0.84937245 32 137 110
-0.20880453 0.551763 -0.84943902 31 137 109
-0.20809686 0.55088305 -0.84927291 32 137 110
-0.20812416 0.55150956 -0.84935051 32 137 110
-0.20196958 0.54976249 -0.8489626 28 136 111
-0.20208302 0.54941374 -0.84890705 28 136 111
-0.20206596 0.55063367 -0.84909683 30 136 111
-0.20301045 0.55239451 -0.84930158 33 136 111
-0.20423555 0.55252528 -0.84925508 33 135 111
-0.20448394 0.55054247 -0.84901053 30 137 111
-0.20325731 0.55080253 -0.84910285 31 137 111
-0.20456459 0.55029416 -0.84897739 30 137 111
-0.2006105 0.55178827 -0.84936523 31 135 112
-0.2006366 0.55125481 -0.84927869 30 136 111
-0.20015593 0.55214185 -0.84948349 31 135 112
-0.21736543 0.54618883 -0.85184318 38 136 109
-0.21706043 0.54734302 -0.85166806 37 135 109
-0.21424884 0.54615819 -0.85042721 33 137 109
-0.21332668 0.54635376 -0.85002244 31 136 110
-0.21446814 0.54529023 -0.85046357 33 135 109
-0.2134272 0.54631054 -0.85006499 31 136 110
-0.21328984 0.54530412 -0.84992915 30 136 109
-0.21645172 0.54504448 -0.85134709 39 135 108
-0.21514912 0.54699558 -0.85086912 36 135 109
-0.21647345 0.54746699 -0.85138577 37 135 109
-0.21379477 0.54852325 -0.85035354 33 135 110
-0.21524747 0.54754788 -0.85091078 36 134 110
-0.21489 0.54842043 -0.85077775 35 135 110
-0.21538298 0.54788411 -0.8509655 36 134 110
-0.20975155 0.54494351 -0.84893531 28 136 112
-0.21045227 0.5469718 -0.84929842 31 136 110
-0.21005312 0.54637772 -0.84914345 30 137 110
-0.21159488 0.54602528 -0.8494972 29 137 109
-0.21080267 0.54548615 -0.84924889 29 136 110
-0.21206784 0.54602736 -0.84961045 29 137 109
-0.21214737 0.54628503 -0.84964758 30 136 110
-0.21176487 0.54757482 -0.8496533 31 136 110
-0.21059637 0.54751116 -0.84937859 31 136 109
-0.21118395 0.54777294 -0.8495335 31 137 109
-0.20654836 0.54574019 -0.84856361 28 136 112
-0.20867032 0.54629236 -0.84884185 30 137 111
-0.20786469 0.5467754 -0.84881997 29 137 111
-0.20636906 0.54847896 -0.84885418 29 137 110
-0.20895137 0.54586422 -0.84882534 29 136 111
-0.21811967 0.54164582 -0.85189873 41 136 111
-0.21734382 0.54173774 -0.85147762 41 135 110
-0.21768011 0.54205239 -0.85169512 40 136 111
-0.2178755 0.54215211 -0.85181308 40 136 111
-0.21608871 0.54116905 -0.85079551 40 136 110
-0.21479777 0.54279649 -0.85037279 34 137 110
-0.2143653 0.54172516 -0.85006607 35 137 109
-0.21462755 0.54270673 -0.85028601 34 137 110
-0.21449137 0.5414995 -0.85010052 36 137 109
-0.21492204 0.54211843 -0.85036021 36 136 110
-0.21415552 0.54478347 -0.85028076 32 136 109
-0.21581547 0.5444724 -0.85100383 37 136 108
-0.21664995 0.54171175 -0.85110605 40 136 111
-0.2164522 0.54277676 -0.85112303 39 136 110
-0.21642965 0.54279238 -0.85111439 39 136 110
-0.21522765 0.54449648 -0.85073918 36 135 109
-0.20993137 0.54329395 -0.84880704 29 137 111
-0.21283923 0.54215801 -0.84942472 32 137 108
-0.21160345 0.54373938 -0.84927654 30 137 110
-0.21188207 0.542436 -0.84921324 31 138 109
-0.20601666 0.54238033 -0.84806389 28 136 111
-0.20564398 0.54346555 -0.84816611 28 136 111
-0.20851617 0.54439652 -0.84862977 28 136 112
-0.21903695 0.53893465 -0.8518905 41 133 113
-0.21901169 0.53865749 -0.85181659 41 133 113
-0.21899843 0.5392065 -0.85192806 41 133 112
-0.21845816 0.53799129 -0.85141152 40 133 113
-0.21695131 0.53863001 -0.85078043 42 134 113
-0.21784779 0.5379287 -0.85110223 41 133 113
-0.21882619 0.53757519 -0.85152221 40 133 113
-0.21821254 0.53893894 -0.85144943 41 133 112
-0.21427934 0.53843307 -0.84968841 37 137 111
-0.21389489 0.53756857 -0.84954137 38 136 112
-0.21452564 0.53902233 -0.8497836 37 136 111
-0.21451309 0.53826725 -0.84975797 38 136 111
-0.21351637 0.54017913 -0.84949589 34 137 109
-0.21512723 0.5406844 -0.85028589 38 137 110
-0.21441619 0.54001135 -0.84984922 36 137 109
-0.21641017 0.53971159 -0.8507089 40 135 111
-0.21580832 0.53864247 -0.85025585 39 134 112
-0.21633656 0.53903902 -0.85056299 40 135 112
-0.21571524 0.54027528 -0.85048592 38 137 110
-0.2111216 0.5377574 -0.84870094 34 136 110
-0.20917818 0.53987682 -0.84827131 28 136 110
-0.21054579 0.53891575 -0.84862202 33 137 111
-0.21107288 0.53803134 -0.8487103 34 136 110
-0.21078467 0.53752869 -0.84857208 34 136 110
-0.21066873 0.54034841 -0.84872848 30 137 110
-0.21157035 0.54040265 -0.84896272 32 137 110
-0.21244726 0.53988719 -0.8491742 33 138 108
-0.21203043 0.5386222 -0.84903038 35 137 110
-0.21124601 0.53892654 -0.84883672 33 138 110
-0.20877936 0.54001397 -0.84818929 28 136 110
-0.20878866 0.53871441 -0.84806961 30 136 110
-0.21957983 0.53494048 -0.8516354 41 135 113
-0.2184806 0.53644252 -0.85122055 41 134 113
-0.21885762 0.53551173 -0.85132867 41 135 113
-0.21959116 0.53598821 -0.85172695 40 134 112
-0.21689607 0.53343147 -0.85013783 41 133 112
-0.21898921 0.53458941 -0.85131377 41 136 113
-0.217445 0.53394604 -0.85046703 41 134 112
-0.21711141 0.53366542 -0.85027015 41 133 112
-0.21805409 0.53530109 -0.85090989 41 135 113
-0.21638034 0.53336275 -0.8499617 41 133 112
-0.21351463 0.53646153 -0.84934455 38 137 111
-0.21424343 0.53375065 -0.8494119 39 134 112
-0.21550098 0.53355879 -0.84973717 40 135 112
-0.21342245 0.53458953 -0.84923279 38 136 112
-0.21291023 0.5344758 -0.84909141 38 136 112
-0.21615705 0.53499961 -0.85003906 41 133 112
-0.21398802 0.53669095 -0.84951651 39 135 112
-0.21387964 0.53617501 -0.8494311 39 136 111
-0.21547684 0.53558433 -0.84988052 40 135 112
-0.21594502 0.53591383 -0.85006201 41 134 113
-0.21588899 0.53480393 -0.84993452 41 133 112
-0.21286367 0.53689229 -0.84919077 38 137 111
-0.21246116 0.53339493 -0.84890807 37 137 111
-0.21023364 0.53387606 -0.84826779 35 135 110
-0.21046904 0.53348279 -0.84831947 35 135 110
-0.2127818 0.53542638 -0.84909815 38 137 111
-0.21227989 0.53693295 -0.84900832 38 136 111
-0.20969228 0.53396064 -0.84809816 33 135 110
-0.21098559 0.53488022 -0.84853768 36 135 111
-0.20973529 0.53605658 -0.84816885 33 135 110
-0.2108039 0.53542656 -0.84849429 36 135 111
-0.21003802 0.536412 -0.84827554 34 135 110
-0.21720284 0.53302872 -0.85029125 41 134 112
-0.21987157 0.5307855 -0.85190791 43 137 112
-0.22025871 0.53275222 -0.85187346 41 138 112
-0.22005068 0.53266954 -0.85177761 41 137 112
-0.21900532 0.53114635 -0.8514263 43 137 112
-0.21910766 0.53110981 -0.85148245 43 137 112
-0.21928224 0.52937722 -0.85173106 44 136 113
-0.21804793 0.5302338 -0.85090786 42 135 113
-0.21829206 0.53058267 -0.85106856 43 135 113
-0.21708257 0.5313099 -0.8502624 40 135 113
-0.21892029 0.52992487 -0.85148847 43 137 112
-0.21336165 0.53207636 -0.84907269 38 137 112
-0.21321879 0.53070503 -0.8488465 40 137 111
-0.2141564 0.53183806 -0.84935617 38 136 113
-0.21556227 0.53049743 -0.8497436 38 137 113
-0.21289343 0.52995294 -0.84862524 42 137 111
-0.21343413 0.53183985 -0.84907192 38 137 112
-0.21641259 0.53028786 -0.84997481 40 135 114
-0.21640776 0.53119516 -0.8499698 40 134 113
-0.21354504 0.53292543 -0.84920192 38 136 112
-0.21421127 0.53255051 -0.84938049 38 136 112
-0.21447618 0.5326485 -0.84945053 39 135 113
-0.21638466 0.53061581 -0.84996605 39 136 113
-0.21200649 0.52946264 -0.84830302 40 137 110
-0.21222827 0.52995288 -0.84842908 40 137 110
-0.21221404 0.53192437 -0.84866881 38 137 111
-0.21130744 0.53012806 -0.8481788 38 136 110
-0.21077146 0.53156519 -0.84819555 37 135 111
-0.21209888 0.5316112 -0.84859616 38 137 111
-0.21236217 0.53279293 -0.84881938 37 137 111
-0.21860553 0.52851921 -0.85128319 45 135 113
-0.21877237 0.52835399 -0.85139424 45 136 113
-0.21950886 0.52674317 -0.8518858 51 135 112
-0.21935895 0.52775699 -0.85178471 47 137 112
-0.21915582 0.52901584 -0.85164785 44 136 113
-0.2170784 0.5254941 -0.85018468 42 136 111
-0.21752392 0.52783239 -0.85055417 43 135 113
-0.21838857 0.52620053 -0.85111958 47 136 112
-0.21714824 0.52624464 -0.85025197 42 135 112
-0.21889828 0.52618742 -0.85147619 50 135 112
-0.21352732 0.52646178 -0.84870082 41 138 110
-0.21615162 0.5259493 -0.84974366 41 136 110
-0.21426789 0.52660716 -0.84900522 40 138 110
-0.21538806 0.52614713 -0.84944195 40 137 110
-0.21348557 0.52830797 -0.84874862 42 137 111
-0.21386002 0.526214 -0.84882659 41 138 110
-0.21628755 0.52740866 -0.84983402 40 137 112
-0.21329719 0.52900141 -0.8486957 42 137 111
-0.21504785 0.52899337 -0.84938478 40 136 112
-0.21516639 0.52761203 -0.84939754 41 137 111
-0.21514358 0.52853721 -0.84941131 41 136 112
-0.21349955 0.52894622 -0.84877396 42 137 111
-0.21287768 0.5269506 -0.8484568 41 139 110
-0.21253031 0.5263415 -0.84833401 40 138 110
-0.21147174 0.5274691 -0.84806228 39 136 110
-0.21177088 0.52671617 -0.84812456 38 139 110
-0.21827877 0.52429312 -0.85096037 48 137 110
-0.21811675 0.52478576 -0.8508749 47 136 111
-0.21707958 0.52516985 -0.85017031 42 136 110
-0.21859977 0.52387655 -0.85116154 51 136 112
-0.21850611 0.52388 -0.85109615 51 135 112
-0.21745345 0.52335876 -0.85033113 48 136 110
-0.21742022 0.52258021 -0.85026491 50 135 111
-0.21740539 0.52276212 -0.85026461 49 136 110
-0.21783081 0.52252108 -0.85054839 52 135 111
-0.21719974 0.52292955 -0.8501302 48 136 111
-0.21296628 0.52468109 -0.84837836 40 139 109
-0.21318746 0.52479231 -0.8484838 41 139 110
-0.21329667 0.52211976 -0.84830403 43 137 109
-0.21626294 0.52164775 -0.84955114 51 135 110
-0.21340044 0.52412987 -0.84851992 42 139 110
-0.21308406 0.52476102 -0.8484363 41 139 110
-0.2136502 0.52514684 -0.84869945 41 139 110
-0.21664336 0.52174497 -0.84972137 51 135 110
-0.21534362 0.52406293 -0.84932405 43 137 110
-0.21554096 0.52408969 -0.84940535 43 137 110
-0.21519221 0.52315354 -0.84921259 46 137 110
-0.21663161 0.52263832 -0.84976596 48 136 110
-0.21264023 0.52492177 -0.84829277 40 139 109
-0.21167377 0.52537858 -0.8480494 39 137 111
-0.21306892 0.52058232 -0.84809041 44 136 108
-0.21392469 0.51840907 -0.84828067 48 136 109
-0.21346714 0.51868248 -0.84813321 47 136 109
-0.21378908 0.51806206 -0.84821492 48 136 109
-0.21492504 0.51965463 -0.84871459 48 137 108
-0.2144068 0.52023804 -0.84856683 46 136 109
-0.21582061 0.52141947 -0.84933674 50 136 110
-0.19858462 0.51249981 -0.84407592 31 137 108
-0.20266297 0.50567389 -0.84399343 40 134 110
-0.21324199 0.58874327 -0.85398948 34 137 110
-0.21074189 0.58566731 -0.85352451 33 136 112
-0.21224864 0.58618808 -0.85364169 34 136 111
-0.21215956 0.58703381 -0.85371429 33 137 110
-0.21268906 0.58592421 -0.85363668 34 136 110
-0.21157987 0.58553183 -0.85355383 34 135 112
-0.21379857 0.5808062 -0.85322309 35 138 111
-0.21377444 0.58295161 -0.85348499 36 137 111
-0.21446477 0.58227259 -0.85351259 36 137 111
-0.21118014 0.58009404 -0.8528713 29 137 111
-0.21133988 0.58146161 -0.85306984 31 137 111
-0.21152245 0.58057457 -0.85296059 31 137 112
-0.2125856 0.58214933 -0.85322589 35 137 111
-0.21164165 0.58343703 -0.85333347 33 137 112
-0.21222144 0.58275932 -0.85328138 34 136 112
-0.21866722 0.57725501 -0.85402745 35 137 111
-0.21742594 0.57795227 -0.8536973 35 137 111
-0.21858102 0.57637501 -0.85395843 34 137 112
-0.21716723 0.57747191 -0.8535974 34 137 112
-0.21722806 0.57848608 -0.85366559 35 137 111
-0.21862881 0.57626152 -0.85396683 34 137 112
-0.21376193 0.57745349 -0.85294765 29 136 111
-0.21368168 0.57834941 -0.85300195 31 137 111
-0.21376969 0.57907683 -0.85307503 33 138 111
-0.21608405 0.57882947 -0.85344064 35 137 111
-0.2155042 0.57754678 -0.85328311 33 138 111
-0.2151652 0.57846653 -0.85327393 34 137 112
-0.21503353 0.57873833 -0.85326612 34 137 112
-0.21647567 0.57678348 -0.85340238 33 137 112
-0.21268971 0.57927525 -0.85290992 31 137 111
-0.2123974 0.57979167 -0.85293001 32 138 112
-0.22172119 0.57501954 -0.85496724 37 138 111
-0.22373028 0.57347637 -0.85579962 41 138 110
-0.22108318 0.57530534 -0.85469508 36 137 111
-0.22189632 0.57237989 -0.85489881 36 137 110
-0.22075886 0.57395399 -0.85447395 35 138 111
-0.22099265 0.57337695 -0.8545472 35 138 111
-0.2216752 0.57303613 -0.85483569 36 138 111
-0.21996298 0.57232153 -0.85410041 33 137 111
-0.21829201 0.57237196 -0.85351712 30 137 111
-0.21800186 0.57424444 -0.85362864 32 137 112
-0.21839471 0.5738802 -0.85372555 33 137 111
-0.21931134 0.57338828 -0.85399252 34 136 112
-0.21830218 0.57428187 -0.85373878 33 137 111
-0.21984038 0.57329988 -0.85415894 34 136 111
-0.22010586 0.57326627 -0.85423505 34 137 111
-0.21903613 0.57420981 -0.85397309 34 136 112
-0.21950892 0.57441992 -0.85412371 34 137 112
-0.21988219 0.57444274 -0.8542347 34 137 111
-0.21832366 0.57590353 -0.85385782 33 138 111
-0.21592702 0.5758577 -0.85322309 30 137 112
-0.21640271 0.57496959 -0.85321188 30 136 112
-0.22384815 0.5690369 -0.85571361 41 138 110
-0.22405884 0.57150346 -0.85585284 40 138 110
-0.22216126 0.57111561 -0.85499114 38 138 110
-0.22216871 0.57132357 -0.85499823 38 138 110
-0.22352767 0.56984395 -0.85558373 40 138 110
-0.22157021 0.5700599 -0.85465759 38 137 110
-0.22170947 0.57023764 -0.85473657 38 138 110
-0.22159556 0.56906652 -0.85461336 39 137 110
-0.22194543 0.57003766 -0.85484171 38 138 110
-0.22190332 0.5696103 -0.85479653 39 137 110
-0.22172299 0.56836492 -0.85463637 40 137 110
-0.21870576 0.56857127 -0.8534199 33 139 110
-0.21908593 0.56929076 -0.85360736 34 137 110
-0.21757782 0.57186002 -0.85323006 30 136 111
-0.21972919 0.56958389 -0.85385859 36 136 110
-0.219368 0.57069486 -0.85379469 34 136 110
-0.21928249 0.57039732 -0.85374755 34 136 110
-0.22048432 0.57045728 -0.85417467 36 137 110
-0.21906097 0.57222176 -0.85377359 32 137 111
-0.22322655 0.56792229 -0.85534912 42 138 110
-0.22396548 0.56766182 -0.85569644 42 139 110
-0.2209087 0.56679899 -0.85407722 39 136 110
-0.22167858 0.56641853 -0.85444659 40 137 111
-0.22097586 0.56591576 -0.85402 38 138 110
-0.22165446 0.5665738 -0.85445011 40 137 111
-0.22112134 0.56654489 -0.85416359 39 136 110
-0.21772458 0.56714463 -0.85292411 30 138 111
-0.21680692 0.56575996 -0.85247231 33 136 111
-0.21741645 0.56537104 -0.85265046 33 135 110
-0.21758713 0.56468457 -0.85264653 36 134 111
-0.21897681 0.56472737 -0.8531394 36 135 111
-0.22028583 0.56696409 -0.85383344 38 137 110
-0.21982552 0.568129 -0.85378855 36 138 109
-0.2202132 0.56570435 -0.85367447 36 137 110
-0.21863195 0.56821465 -0.85336334 33 138 110
-0.21992649 0.56694049 -0.85370022 36 137 110
-0.21658443 0.56503373 -0.85234559 34 134 111
-0.21609348 0.56457502 -0.85217458 36 134 111
-0.21648355 0.56462759 -0.85228139 36 133 111
-0.21556376 0.56563431 -0.85213542 32 136 110
-0.22221063 0.56178451 -0.85443783 40 136 111
-0.22143178 0.56231427 -0.85402858 39 136 110
-0.22209176 0.56295383 -0.85442525 38 138 111
-0.22158509 0.5607087 -0.85404032 40 138 110
-0.22268428 0.56092662 -0.85466212 40 137 111
-0.22321784 0.56123602 -0.85497326 41 136 112
-0.2219232 0.5628432 -0.85432637 38 138 111
-0.2234419 0.56250829 -0.85513657 42 137 111
-0.22367667 0.56148839 -0.85523999 41 136 112
-0.2226004 0.56410831 -0.85472274 41 137 111
-0.21907985 0.56123501 -0.85301095 36 138 109
-0.21702936 0.56195223 -0.85233444 34 135 110
-0.2173426 0.56254476 -0.85246372 35 135 110
-0.21900272 0.56073129 -0.85296589 36 138 109
-0.21782213 0.56319469 -0.85265207 36 135 110
-0.21688262 0.56080043 -0.85224169 33 137 110
-0.21944144 0.56402218 -0.85325748 37 135 111
-0.22046879 0.56351489 -0.85359561 38 137 110
-0.22069205 0.56192678 -0.8536014 38 138 110
-0.22033346 0.56165439 -0.8534627 38 138 110
-0.22011554 0.56180233 -0.8533929 38 137 110
-0.21890172 0.56431639 -0.85308117 36 136 110
-0.21672411 0.56397605 -0.85230768 36 133 111
-0.21621816 0.56326401 -0.85214233 34 134 111
-0.2161745 0.56248397 -0.8520959 33 135 110
-0.22290258 0.55719918 -0.855084 40 136 111
-0.22216937 0.55750787 -0.85458583 41 135 112
-0.22398822 0.5596289 -0.85544717 42 136 113
-0.22430728 0.55916017 -0.85570735 42 136 112
-0.2222209 0.55680001 -0.8547098 40 136 111
-0.22144784 0.55897045 -0.85405338 40 137 111
-0.2222195 0.55856431 -0.85450786 42 136 112
-0.22110341 0.55725497 -0.85396713 40 135 111
-0.22277273 0.5596329 -0.8547501 41 137 111
-0.2226758 0.55891228 -0.85474044 42 136 112
-0.22080171 0.55934733 -0.85367066 40 137 111
-0.21698926 0.55700403 -0.85205704 34 134 111
-0.21975055 0.5574097 -0.85338467 39 134 112
-0.21929809 0.55737436 -0.8531692 38 135 111
-0.2192823 0.55801278 -0.85320443 38 136 111
-0.21793535 0.55876058 -0.85261995 34 136 110
-0.21754317 0.55977875 -0.85250318 33 137 110
-0.21823309 0.56000966 -0.85272831 35 138 110
-0.21780075 0.5603407 -0.8525598 34 137 110
-0.22032648 0.55748391 -0.8536011 39 135 111
-0.21765929 0.56044835 -0.85250467 34 137 110
-0.21978591 0.56041187 -0.8532359 38 138 110
-0.21651059 0.55939955 -0.85204047 32 137 110
-0.21627983 0.56024069 -0.85202789 32 137 110
-0.22319435 0.55423665 -0.85549331 38 140 109
-0.22356774 0.55632317 -0.85559243 39 138 110
-0.22277346 0.5564338 -0.85508901 39 137 110
-0.22357711 0.55317897 -0.85580045 38 143 108
-0.22234616 0.55493939 -0.85491812 39 138 110
-0.22216214 0.55441445 -0.85481536 39 139 109
-0.22152692 0.5541181 -0.854348 40 138 109
-0.2214223 0.55478877 -0.85428095 40 137 110
-0.22143342 0.55312526 -0.85426611 40 138 109
-0.22249991 0.55335015 -0.85504699 39 139 108
-0.21850874 0.55360544 -0.85255873 36 137 110
-0.22046688 0.552773 -0.8536014 40 137 109
-0.21922375 0.5532428 -0.85293865 38 137 110
-0.22047673 0.55525529 -0.85364103 40 135 111
-0.22001152 0.55337298 -0.85336453 39 136 110
-0.21973355 0.55647361 -0.85331357 38 135 112
-0.21958107 0.55591494 -0.85320222 39 134 112
-0.21769652 0.55620164 -0.85233486 36 134 111
-0.21797003 0.55524522 -0.85239613 36 135 111
-0.21746363 0.55621314 -0.85222596 36 134 112
-0.22181152 0.55201799 -0.85448748 41 138 109
-0.22268696 0.55207574 -0.8551299 40 139 108
-0.22273593 0.55138648 -0.85511851 41 138 109
-0.22323167 0.54989564 -0.85537815 42 137 110
-0.2230123 0.55155677 -0.85533172 40 139 108
-0.22072035 0.55123007 -0.85372704 41 137 110
-0.22254671 0.55026805 -0.85492069 42 137 110
-0.2220176 0.55111963 -0.85457957 42 137 109
-0.22232156 0.54933101 -0.85476488 42 137 110
-0.22147097 0.55162585 -0.85422415 42 137 109
-0.21953142 0.55111873 -0.85307378 40 135 109
-0.22002578 0.55076975 -0.8533414 41 136 110
-0.22025268 0.55075121 -0.85346538 41 136 110
-0.2206706 0.55092221 -0.85369539 41 137 110
-0.21867514 0.54891777 -0.85258734 39 135 110
-0.21767083 0.55247414 -0.85209161 35 137 110
-0.21756756 0.55219924 -0.85203183 34 137 110
-0.21864977 0.55208808 -0.85261273 38 137 110
-0.21963151 0.55157745 -0.85313344 40 136 109
-0.21803938 0.55239445 -0.85228884 36 137 110
-0.22399235 0.54716414 -0.85575986 42 135 112
-0.22408849 0.54592419 -0.85574853 41 135 113
-0.2232362 0.54682314 -0.85524189 41 136 112
-0.22361004 0.54572487 -0.85542178 41 135 113
-0.22223593 0.54818499 -0.85466576 42 136 111
-0.2235979 0.54575855 -0.85541582 41 135 113
-0.2222317 0.54561776 -0.85455364 40 136 112
-0.22088821 0.54793227 -0.85378397 41 137 111
-0.2223392 0.54658109 -0.85465139 41 135 113
-0.2235672 0.54564226 -0.85539198 41 135 113
-0.22406115 0.54492438 -0.85567915 40 135 113
-0.22126804 0.54776406 -0.85401684 41 137 111
-0.21968783 0.54671454 -0.85310572 40 136 110
-0.21881317 0.54502022 -0.85260111 39 135 110
-0.21766163 0.54492325 -0.85200393 38 136 109
-0.21834324 0.54573846 -0.85238129 39 136 109
-0.22064103 0.54826176 -0.85364622 41 137 110
-0.21811011 0.54788196 -0.85227138 38 136 109
-0.21913727 0.54840201 -0.85283667 40 135 110
-0.21811773 0.54574877 -0.85226184 39 136 109
-0.22000355 0.54876816 -0.85331297 41 135 110
-0.21858069 0.54816687 -0.85253066 39 135 110
-0.22281854 0.54433179 -0.85485619 38 136 113
-0.22296862 0.5446583 -0.85497439 40 135 114
-0.22190432 0.5447771 -0.8543157 40 135 114
-0.2242658 0.54283112 -0.85565287 36 137 112
-0.22342724 0.54255521 -0.85510606 35 137 111
-0.22457051 0.54204923 -0.85578579 35 137 112
-0.22185776 0.54109734 -0.85383427 37 138 111
-0.22177805 0.54311323 -0.85406381 38 137 113
-0.22141956 0.5421741 -0.85368216 38 137 112
-0.22161189 0.54209673 -0.85380477 38 137 112
-0.22110747 0.54449886 -0.8537941 38 137 113
-0.22236614 0.54317027 -0.85448015 36 137 112
-0.22077611 0.54381496 -0.85346729 38 138 112
-0.22009231 0.54207408 -0.85289514 40 136 112
-0.21945602 0.54277635 -0.85270745 41 135 113
-0.22035749 0.54205841 -0.8530125 40 136 112
-0.21963654 0.54306209 -0.85282922 40 136 112
-0.21945949 0.54404348 -0.85284191 40 136 112
-0.21898139 0.54374057 -0.85256433 39 136 111
-0.21885021 0.54340601 -0.85246253 40 135 111
-0.21879402 0.54427844 -0.85252249 39 135 110
-0.21791786 0.54323661 -0.85196424 39 136 110
-0.22485468 0.53741419 -0.85548455 40 137 110
-0.22231504 0.53711045 -0.85351741 38 133 112
-0.22120699 0.5401113 -0.85323113 38 136 112
-0.22125526 0.53945369 -0.85315216 39 134 112
-0.22188415 0.5372057 -0.85322011 38 133 112
-0.22234261 0.53871369 -0.85381573 38 137 111
-0.2226527 0.5377354 -0.85387182 38 136 111
-0.22179243 0.53811347 -0.85331082 38 135 112
-0.22351408 0.54072171 -0.85493171 35 137 111
-0.22348325 0.53886986 -0.85465205 38 137 112
-0.2226247 0.53983569 -0.85419065 38 137 112
-0.2245737 0.5378828 -0.8552714 36 137 111
-0.22448674 0.53792691 -0.85521722 36 137 111
-0.2242116 0.53962892 -0.85526359 34 139 111
-0.22031744 0.53905541 -0.85250139 39 134 112
-0.21996456 0.53827184 -0.85220331 40 133 112
-0.21882088 0.54041713 -0.8520664 41 135 112
-0.219326 0.53990823 -0.85220432 40 135 112
-0.21992519 0.54031712 -0.85254681 39 136 111
-0.22512366 0.53552186 -0.85580033 45 140 109
-0.22475004 0.53373367 -0.8554942 44 140 111
-0.2208714 0.53517783 -0.85234028 40 136 112
-0.22225095 0.53506017 -0.85350358 40 137 111
-0.22337285 0.53404248 -0.85438001 42 139 111
-0.22118349 0.53609705 -0.8526749 39 134 111
-0.22242811 0.53530109 -0.85367233 40 136 111
-0.22401081 0.53336316 -0.8548708 42 141 110
-0.22113985 0.53349638 -0.85244137 40 138 111
-0.22192208 0.53619772 -0.85327268 39 135 111
-0.22425288 0.53650659 -0.85495621 38 136 112
-0.22378679 0.5355829 -0.85465902 39 138 110
-0.22352777 0.53635854 -0.85443485 38 137 111
-0.22390293 0.53453285 -0.85479176 41 139 111
-0.22227116 0.53565222 -0.85355192 40 136 111
-0.22051764 0.5349493 -0.85208821 40 136 112
-0.22484487 0.53074533 -0.85574001 47 142 109
-0.22197221 0.53167653 -0.85323274 43 141 110
-0.22222619 0.53083974 -0.85355651 45 140 110
-0.22186783 0.53022456 -0.85339254 45 140 110
-0.22226092 0.52945161 -0.85380846 47 140 110
-0.22107993 0.53189898 -0.85253859 43 138 112
-0.2223843 0.5306443 -0.85370493 45 140 110
-0.22222908 0.529531 -0.85377204 47 140 110
-0.22332217 0.53153509 -0.85435808 43 143 109
-0.22315848 0.53310949 -0.85413921 42 141 111
-0.22229739 0.53271323 -0.85342765 42 141 111
-0.22358453 0.532776 -0.85451812 43 141 111
-0.22304228 0.53244054 -0.85407436 43 141 110
-0.22413912 0.53206342 -0.85502553 43 143 109
-0.22136348 0.53313023 -0.85261291 40 139 111
-0.22052039 0.53063571 -0.85234368 44 138 112
-0.22071366 0.52720904 -0.85267788 53 136 112
-0.22278145 0.5291267 -0.85421628 47 141 109
-0.22108346 0.52907109 -0.85296386 48 137 111
-0.22117747 0.52640587 -0.85301411 55 135 112
-0.22012089 0.52610159 -0.85228819 53 135 112
-0.21985894 0.52831614 -0.85211813 47 137 112
-0.21963206 0.52725554 -0.85196704 49 136 112
0 0 0 1 0 0 0 1 0 0 0 1 0 0 0 0 0 1021 1 0 0
