ply
format ascii 1.0
comment PCL generated
element vertex 724
property float x
property float y
property float z
property uchar red
property uchar green
property uchar blue
element camera 1
property float view_px
property float view_py
property float view_pz
property float x_axisx
property float x_axisy
property float x_axisz
property float y_axisx
property float y_axisy
property float y_axisz
property float z_axisx
property float z_axisy
property float z_axisz
property float focal
property float scalex
property float scaley
property float centerx
property float centery
property int viewportx
property int viewporty
property float k1
property float k2
end_header
0.147524 -0.23764694 -0.80825901 11 132 122
0.14687338 -0.23809326 -0.80766135 11 130 123
0.14670631 -0.23800343 -0.80790854 10 130 123
0.15195139 -0.19474821 -0.82031703 27 133 123
0.15192373 -0.19553396 -0.82063162 25 133 123
0.15189666 -0.19593841 -0.81940114 26 133 123
0.15186371 -0.19687335 -0.81977397 24 131 123
0.15194629 -0.19474131 -0.81973481 27 133 123
0.15183263 -0.19723292 -0.81791955 25 133 123
0.15182905 -0.19827358 -0.82044894 20 132 122
0.15168333 -0.19981389 -0.81865895 19 134 121
0.15180209 -0.20112664 -0.82044005 19 130 121
0.15179044 -0.19991939 -0.82012981 19 132 121
0.15176354 -0.2001776 -0.81979632 19 132 121
0.15175018 -0.19849935 -0.81894463 20 133 121
0.15159284 -0.20041148 -0.81711811 19 135 120
0.15173404 -0.19861932 -0.81815052 21 133 122
0.15166882 -0.19935793 -0.81696135 21 133 122
0.15162511 -0.2000445 -0.81769395 19 135 120
0.15178184 -0.20151833 -0.82049179 20 130 122
0.15124409 -0.20406169 -0.81999487 19 132 122
0.15131249 -0.20407982 -0.81968695 19 132 122
0.15103668 -0.20447068 -0.8204245 18 132 122
0.15174213 -0.20157062 -0.8206023 19 130 122
0.1516844 -0.20249341 -0.8178907 21 132 121
0.15173274 -0.20212774 -0.81881255 20 133 121
0.14979757 -0.20889123 -0.8191784 19 132 122
0.15029192 -0.20712622 -0.81982136 17 132 122
0.15012805 -0.20721406 -0.8200525 17 132 122
0.1505816 -0.20824288 -0.81834567 21 133 121
0.1507348 -0.20798777 -0.81834006 20 133 120
0.15105228 -0.20827867 -0.8175838 21 135 119
0.15111125 -0.20519589 -0.81937701 20 132 122
0.15104258 -0.20559481 -0.81941766 20 132 122
0.15114863 -0.20705424 -0.81806082 21 133 121
0.14946775 -0.21029618 -0.81922644 19 132 123
0.14909174 -0.21177711 -0.82022923 16 132 123
0.14928256 -0.21115881 -0.81967014 18 132 123
0.14962229 -0.21203591 -0.81864452 20 132 122
0.14948156 -0.2120962 -0.81906289 19 132 122
0.14864427 -0.21663141 -0.81935728 12 130 125
0.14851905 -0.21656337 -0.82002056 11 128 124
0.14853995 -0.21670644 -0.81981379 11 128 124
0.14905748 -0.21526788 -0.81832784 16 132 124
0.1487523 -0.21652076 -0.81890857 14 130 125
0.14960368 -0.21370414 -0.81800717 20 132 122
0.1490013 -0.21352904 -0.81994826 15 132 123
0.14955676 -0.21403871 -0.81786722 20 132 123
0.14864096 -0.21890129 -0.81987518 11 130 124
0.14881137 -0.21970029 -0.81919277 12 132 124
0.14878136 -0.21940205 -0.81923437 12 132 124
0.14861313 -0.21920681 -0.82020378 11 130 124
0.14862369 -0.2196427 -0.82035404 12 130 124
0.14867818 -0.21882403 -0.81960058 11 130 124
0.14875536 -0.21706836 -0.81873477 14 130 125
0.14887457 -0.21686205 -0.81811804 15 130 124
0.14906353 -0.21761163 -0.81731039 16 132 124
0.14900446 -0.21711378 -0.81752115 16 130 125
0.14845325 -0.21698573 -0.82020229 10 128 124
0.14874303 -0.21758613 -0.81887698 12 130 124
0.14866491 -0.22154681 -0.82055032 12 130 124
0.14843519 -0.2234613 -0.81813103 14 132 122
0.14870459 -0.22403251 -0.8201142 10 130 125
0.14864783 -0.22399172 -0.81967229 11 130 125
0.14862302 -0.22443306 -0.81933975 11 130 125
0.14883921 -0.22140872 -0.81842077 15 130 123
0.14876659 -0.22134478 -0.8189804 14 132 123
0.14866287 -0.22095703 -0.8202399 14 130 123
0.14906183 -0.22082035 -0.81792229 15 132 124
0.14895825 -0.22107418 -0.81818509 15 132 124
0.14272784 -0.14831232 -0.83958364 8 130 124
0.14432012 -0.15001298 -0.83946937 10 132 123
0.14321677 -0.14861383 -0.83972764 9 130 124
0.14535491 -0.15034243 -0.84002453 11 132 121
0.14506885 -0.14980567 -0.84023267 11 130 122
0.14842249 -0.15014799 -0.83965755 20 133 123
0.14831731 -0.15034907 -0.84008491 17 134 122
0.14902721 -0.14758243 -0.84019125 21 133 123
0.14416158 -0.15066795 -0.83938438 10 130 123
0.14276077 -0.15146352 -0.83926994 8 130 126
0.14327048 -0.15144157 -0.83964753 8 130 126
0.14389177 -0.15098925 -0.83957338 9 130 124
0.14834763 -0.1531155 -0.83825648 19 134 122
0.14827015 -0.15220016 -0.83966625 18 134 122
0.14822754 -0.15245318 -0.84010732 19 134 122
0.14839262 -0.15298796 -0.83772898 19 134 122
0.14838897 -0.15275218 -0.83788049 19 134 122
0.14839992 -0.15280659 -0.8377533 19 134 122
0.14820048 -0.15563723 -0.83906859 19 134 123
0.14826056 -0.15754922 -0.83727461 16 134 123
0.14831857 -0.15448099 -0.83799708 20 133 123
0.14843789 -0.15449445 -0.83644056 20 133 123
0.14828452 -0.15653662 -0.83716178 17 134 122
0.14835204 -0.15608394 -0.83656704 17 136 122
0.14823729 -0.15469956 -0.83891594 20 133 123
0.14792766 -0.16154075 -0.83753902 19 132 124
0.14783612 -0.16118002 -0.8387419 18 134 123
0.14799891 -0.16175342 -0.83652472 19 130 125
0.14824533 -0.15863431 -0.83660334 16 134 123
0.1471508 -0.16543788 -0.8378669 14 132 122
0.14712238 -0.16564742 -0.83703804 14 132 121
0.14724129 -0.16457526 -0.8401525 11 132 122
0.14719142 -0.16455728 -0.83800268 14 132 122
0.14729184 -0.16333583 -0.8400625 11 132 122
0.14759046 -0.16363892 -0.83652645 17 130 124
0.1477762 -0.16214056 -0.83747411 16 130 123
0.14723757 -0.16518995 -0.83656406 15 132 122
0.14773992 -0.16213115 -0.83771759 15 132 123
0.14746226 -0.1637482 -0.83718431 15 132 123
0.14778826 -0.16278648 -0.83648139 18 132 124
0.14712702 -0.16821782 -0.83881354 11 130 123
0.146873 -0.16929153 -0.83993584 10 130 124
0.14695948 -0.16921355 -0.83931077 10 130 123
0.14706782 -0.16859999 -0.83896381 11 130 123
0.14710309 -0.16756077 -0.83955967 11 130 123
0.14718191 -0.1678964 -0.83679646 12 132 121
0.14719337 -0.16817431 -0.83677584 12 130 122
0.14716627 -0.16681083 -0.8381142 12 130 122
0.14714073 -0.16661993 -0.83737826 14 130 122
0.14713782 -0.16660406 -0.83728445 14 132 122
0.14717253 -0.16743398 -0.8372426 12 130 122
0.14826529 -0.17283733 -0.83805197 10 132 124
0.14705628 -0.17043039 -0.84017414 9 130 124
0.14819998 -0.17243665 -0.84005946 9 130 124
0.1483507 -0.17272048 -0.8399086 9 130 124
0.14846537 -0.17322813 -0.83775353 10 132 123
0.14859234 -0.17311503 -0.8400895 9 130 124
0.14790724 -0.17187667 -0.83687818 10 132 123
0.14783406 -0.17185304 -0.83739322 10 132 123
0.14757156 -0.17080568 -0.83641654 10 132 121
0.14744687 -0.17064121 -0.83692998 10 132 121
0.14781274 -0.17187762 -0.83763576 10 132 123
0.14750521 -0.17073256 -0.83673197 10 132 121
0.14674929 -0.17767885 -0.83880633 8 130 125
0.1472355 -0.17713061 -0.83878666 9 128 126
0.1472439 -0.17675555 -0.83953577 8 130 125
0.14789291 -0.17663245 -0.83782953 10 130 125
0.14769146 -0.17588963 -0.83997184 8 130 125
0.1470356 -0.1775133 -0.83860028 9 128 126
0.14760949 -0.17684163 -0.83825374 9 130 125
0.14863777 -0.17464493 -0.83834338 9 130 123
0.14867595 -0.17398736 -0.83664477 10 132 123
0.14867046 -0.17439793 -0.83792865 10 130 124
0.14837041 -0.17525278 -0.83708978 10 132 124
0.14824018 -0.17557539 -0.83656651 10 132 124
0.14841759 -0.17521501 -0.83753973 10 130 124
0.14672983 -0.17806362 -0.8372547 9 130 124
0.14735198 -0.19350624 -0.83924395 14 130 121
0.14659357 -0.19482394 -0.84004551 9 130 123
0.15037601 -0.20169094 -0.84017342 12 130 123
0.14675723 -0.20478332 -0.83702713 9 130 124
0.1505108 -0.2012517 -0.83975679 14 130 123
0.1467569 -0.20509161 -0.83734649 10 128 124
0.14851166 -0.14549331 -0.84523851 19 135 122
0.14936796 -0.14522327 -0.84430075 19 135 122
0.1485641 -0.14531696 -0.84526432 20 133 122
0.14935781 -0.14364319 -0.84513706 21 135 123
0.1491853 -0.14395498 -0.8451919 21 133 123
0.14905964 -0.14458188 -0.84502333 20 135 122
0.1488294 -0.14379948 -0.84554696 21 135 122
0.14817853 -0.14445235 -0.84602755 21 133 122
0.14649162 -0.14735062 -0.84700316 17 132 119
0.14693251 -0.14993209 -0.8454358 15 134 119
0.14727262 -0.15005569 -0.84478515 16 134 119
0.1467631 -0.14938271 -0.84590572 15 134 119
0.14732958 -0.14943558 -0.84487975 17 134 119
0.14801075 -0.14910409 -0.84417135 18 134 120
0.14759418 -0.14760911 -0.84537023 18 134 120
0.14803424 -0.14707629 -0.84505624 18 134 120
0.14703417 -0.14735866 -0.84618855 18 134 119
0.14650336 -0.15149784 -0.84764332 14 132 120
0.14669438 -0.15168406 -0.84725851 14 132 120
0.14701258 -0.15179767 -0.8465569 15 132 120
0.14719908 -0.1521388 -0.84656054 15 132 120
0.14686847 -0.15109877 -0.84612006 15 132 120
0.14760725 -0.15173033 -0.84529394 17 134 120
0.14776477 -0.15421289 -0.8469249 18 134 121
0.14773998 -0.15139064 -0.8442564 19 134 120
0.14787297 -0.15200007 -0.84415895 20 135 121
0.14764063 -0.1542505 -0.84761757 16 132 121
0.14744654 -0.15707499 -0.84772199 14 130 123
0.14765227 -0.15532801 -0.84731847 14 132 121
0.14791772 -0.15753646 -0.84535849 14 132 123
0.14752042 -0.1559823 -0.84772718 14 130 122
0.14773326 -0.15815251 -0.84602684 12 130 124
0.14749114 -0.15570289 -0.84795487 14 132 121
0.14785396 -0.15621872 -0.84607798 15 132 122
0.14796662 -0.1557218 -0.84560215 17 134 122
0.14817359 -0.15723482 -0.8441478 16 134 123
0.14789642 -0.15495604 -0.84615588 18 134 122
0.14806156 -0.15745759 -0.84468579 15 132 123
0.14778994 -0.15519576 -0.84666049 16 132 121
0.14749376 -0.15831243 -0.84701586 12 130 124
0.14684406 -0.16034046 -0.84783971 12 132 121
0.14708084 -0.16019905 -0.84688216 12 132 121
0.14704004 -0.16051069 -0.84673136 14 132 121
0.14703216 -0.16042626 -0.84686118 14 132 121
0.14672934 -0.159886 -0.84506971 14 132 121
0.14758383 -0.15928979 -0.84530449 14 132 122
0.14725249 -0.15910356 -0.84443557 14 132 122
0.14750643 -0.16909584 -0.84544814 10 130 123
0.14753699 -0.16983621 -0.84470534 14 132 119
0.14723372 -0.16813324 -0.84551913 8 130 126
0.14803445 -0.16933194 -0.84720188 6 130 126
0.14759959 -0.16915064 -0.84574234 9 130 124
0.14700255 -0.16775362 -0.84576362 7 128 126
0.14738716 -0.16840374 -0.8467989 5 130 126
0.14680991 -0.16771208 -0.84702903 2 128 126
0.14649555 -0.16728325 -0.84682673 2 128 126
0.14690261 -0.16782409 -0.84699798 2 130 126
0.15046905 -0.1894967 -0.84433722 10 132 126
0.15079291 -0.19287528 -0.81359297 28 132 123
0.15154149 -0.20154953 -0.81634837 19 135 120
0.14930661 -0.21653891 -0.81636578 19 130 125
0.14985399 -0.22030826 -0.81494147 20 132 124
0.14952834 -0.22054157 -0.81597608 17 134 124
0.1496823 -0.21933681 -0.81503612 19 134 124
0.14932376 -0.22059366 -0.81660247 16 134 124
0.14945248 -0.21917483 -0.81570345 18 134 124
0.14954442 -0.21737452 -0.81500167 20 132 124
0.14964935 -0.21738695 -0.81451279 21 132 125
0.14959581 -0.21814115 -0.81487691 20 132 124
0.1488104 -0.22339407 -0.8161937 16 132 121
0.14986946 -0.22087279 -0.81486738 20 132 123
0.14882261 -0.22353385 -0.81605434 17 132 122
0.1492072 -0.22107369 -0.81670719 16 134 124
0.14933969 -0.22198646 -0.8156392 18 132 122
0.15003914 -0.22223726 -0.81394392 20 132 122
0.14993677 -0.22278745 -0.81408799 19 132 122
0.14986131 -0.22355419 -0.81417209 17 132 122
0.15022865 -0.22358137 -0.81353271 17 132 122
0.14893554 -0.22370516 -0.81576991 17 132 122
0.15011883 -0.22227103 -0.81380355 20 132 122
0.15042202 -0.22241841 -0.81327194 20 130 122
0.14982671 -0.22569954 -0.81442779 16 132 121
0.14924394 -0.2264224 -0.8156119 16 132 121
0.14867659 -0.2262641 -0.81655902 16 132 121
0.14925107 -0.22518907 -0.81530523 16 132 121
0.14976689 -0.22537026 -0.81445307 15 132 121
0.14852457 -0.22548462 -0.81663692 16 132 121
0.14992838 -0.22663723 -0.81422347 16 132 121
0.14933519 -0.2283496 -0.81560016 17 134 122
0.15005176 -0.22770761 -0.81385821 17 132 122
0.15029188 -0.22682722 -0.81331122 16 132 121
0.1494074 -0.22763194 -0.81546074 17 134 122
0.15040077 -0.22728254 -0.81303006 16 132 121
0.15019198 -0.22926149 -0.81325281 17 132 124
0.15013635 -0.22924042 -0.81339681 17 132 124
0.14914116 -0.23154554 -0.81522071 12 132 125
0.14868957 -0.23012877 -0.81674647 12 130 126
0.14916129 -0.23086044 -0.81536132 15 132 124
0.14912082 -0.23035522 -0.81560355 15 134 123
0.14863321 -0.23170562 -0.81644791 9 130 126
0.14757323 -0.16562307 -0.83071667 17 132 121
0.1472812 -0.165484 -0.83148569 15 132 121
0.14745905 -0.16420442 -0.83227867 16 130 121
0.14789453 -0.16470864 -0.8308574 19 130 122
0.14722931 -0.16460347 -0.83241355 14 132 120
0.14748494 -0.16413797 -0.83228332 16 130 121
0.1480853 -0.16325288 -0.8317849 19 130 122
0.14835654 -0.16251361 -0.83168733 20 130 122
0.1468994 -0.16834368 -0.83142227 14 130 122
0.14672574 -0.16896915 -0.83153206 12 132 123
0.14764941 -0.16882852 -0.83025682 16 132 121
0.14655884 -0.1671076 -0.83217198 11 132 120
0.14676444 -0.16934794 -0.83139515 14 130 123
0.1468498 -0.16665807 -0.83192003 12 134 120
0.14767949 -0.16739665 -0.83035445 18 132 122
0.14781284 -0.16739564 -0.83006179 19 132 122
0.14743844 -0.16664112 -0.83075494 16 132 121
0.14782932 -0.16738223 -0.83002335 19 132 122
0.14693744 -0.16621417 -0.83178133 14 132 121
0.14778304 -0.17228837 -0.83240789 14 132 123
0.1470844 -0.17090692 -0.83186907 14 130 123
0.14866211 -0.17176576 -0.83055049 20 132 123
0.14819606 -0.1722593 -0.83173466 17 132 122
0.14836156 -0.17196016 -0.8311823 19 132 123
0.14777061 -0.17084409 -0.83082968 16 132 123
0.14677416 -0.16994891 -0.83128548 14 130 125
0.14831145 -0.17198786 -0.83128268 19 132 123
0.14883722 -0.17240788 -0.83090782 21 132 122
0.14854686 -0.17761531 -0.82917374 17 130 122
0.14836416 -0.17743097 -0.83044171 16 130 123
0.14866953 -0.17687829 -0.82949609 18 130 122
0.14857084 -0.17627726 -0.83086449 17 132 122
0.14828077 -0.17765962 -0.830594 15 132 122
0.14344057 -0.17839287 -0.83134192 8 130 125
0.14299722 -0.1781318 -0.83071965 8 130 125
0.14257818 -0.17818448 -0.83046126 8 130 126
0.14287229 -0.17777286 -0.83023 9 130 126
0.14869022 -0.18156803 -0.83013761 15 130 122
0.14794759 -0.17816366 -0.83239973 14 130 122
0.14894511 -0.18113022 -0.82927746 17 130 124
0.14862342 -0.18074857 -0.83031434 16 130 123
0.14868423 -0.18042089 -0.8300975 16 130 123
0.14881311 -0.17900984 -0.82852799 17 130 122
0.14900473 -0.18103613 -0.82904619 17 130 124
0.14895044 -0.1801033 -0.82861882 17 130 122
0.14857142 -0.17872077 -0.82964689 17 130 124
0.14872913 -0.17877595 -0.82881242 17 130 122
0.14913937 -0.18422173 -0.83010924 17 128 122
0.14919832 -0.18462385 -0.83023494 17 128 122
0.14932396 -0.18473502 -0.82982391 17 130 122
0.14913462 -0.18413061 -0.8300457 17 128 122
0.14843301 -0.18320645 -0.83206511 14 130 121
0.14881676 -0.18411446 -0.83132696 15 130 122
0.14847188 -0.18250526 -0.83132464 15 128 122
0.14927647 -0.18237406 -0.82861072 18 130 123
0.14901055 -0.18191601 -0.82923734 17 130 124
0.14970173 -0.18525276 -0.82876569 18 130 122
0.14853044 -0.18261746 -0.83119273 15 128 122
0.1488754 -0.18222976 -0.82985044 16 130 123
0.14957348 -0.18835653 -0.83094102 15 132 123
0.14964575 -0.18863912 -0.83076799 15 132 123
0.14929682 -0.18726018 -0.83154386 15 130 123
0.1489812 -0.1860427 -0.83236629 14 130 122
0.14946958 -0.18796661 -0.83125561 14 132 122
0.14967279 -0.18575506 -0.8291676 18 130 122
0.149133 -0.18648638 -0.8314631 16 130 123
0.14983226 -0.18785526 -0.82878929 19 130 123
0.14935625 -0.18666625 -0.83057618 17 130 122
0.14969133 -0.18794276 -0.82937521 18 132 122
0.14995365 -0.19167165 -0.83204132 15 130 124
0.14985318 -0.19330022 -0.83113354 18 128 126
0.14949517 -0.19175375 -0.83090085 14 130 123
0.14966591 -0.19019625 -0.83194917 11 130 124
0.14966805 -0.19114076 -0.83156854 12 130 124
0.15017349 -0.19314723 -0.83196938 19 128 126
0.14937787 -0.19101311 -0.83042216 14 130 123
0.1492893 -0.19160497 -0.82880014 16 130 123
0.14954008 -0.19057594 -0.8298533 15 130 123
0.14948158 -0.19081701 -0.82960212 15 130 123
0.14989209 -0.18958126 -0.82887113 18 132 122
0.14960264 -0.19049911 -0.82913196 17 130 124
0.14849472 -0.19478992 -0.8299703 12 130 123
0.1483046 -0.19643046 -0.83196604 11 130 124
0.14894775 -0.1948528 -0.83116007 14 130 123
0.15026186 -0.1934921 -0.8323015 20 126 127
0.14898473 -0.19343789 -0.8291316 14 130 123
0.14884892 -0.19459316 -0.83053237 14 130 123
0.1491075 -0.19519475 -0.83205825 15 128 124
0.14860256 -0.19720699 -0.83011162 14 130 122
0.14831075 -0.19591136 -0.83086133 12 128 124
0.14867154 -0.193985 -0.82906419 14 130 123
0.1485033 -0.19547725 -0.83004862 14 130 123
0.14843994 -0.1971671 -0.8306976 14 130 123
0.14677653 -0.19926566 -0.8285625 14 128 122
0.1473029 -0.19972074 -0.82946491 12 130 123
0.147888 -0.19905837 -0.8293258 14 130 123
0.14786881 -0.19967908 -0.83027351 12 128 124
0.14853691 -0.19868341 -0.82987112 14 130 123
0.14702402 -0.20035648 -0.82986283 12 128 124
0.14705923 -0.20075579 -0.83055592 10 130 123
0.14830244 -0.19784181 -0.83110273 12 130 124
0.14860493 -0.19819658 -0.8299185 14 130 123
0.14784662 -0.20084867 -0.83212978 9 130 125
0.14846104 -0.19786091 -0.83051747 14 130 123
0.14841069 -0.19847684 -0.83057022 14 130 123
0.14686319 -0.2011786 -0.83089364 10 128 124
0.15168716 -0.19639736 -0.82184869 27 133 123
0.15146466 -0.19651519 -0.82260495 27 133 123
0.15181057 -0.19585581 -0.82138526 27 132 123
0.14667921 -0.20102212 -0.82439327 12 130 122
0.14949597 -0.19922531 -0.8245011 16 132 123
0.14992811 -0.19904351 -0.82445973 16 132 123
0.14919001 -0.20071192 -0.82381588 15 130 122
0.14727776 -0.20050827 -0.82452929 14 130 122
0.15080084 -0.20077571 -0.82268792 17 132 122
0.15100463 -0.19990726 -0.82279003 17 132 122
0.15059577 -0.20076478 -0.82305074 16 132 121
0.15083852 -0.19874343 -0.82371539 19 134 123
0.15087849 -0.19827044 -0.82391703 20 133 123
0.15154578 -0.19963829 -0.8217774 20 132 122
0.1513288 -0.19840878 -0.82262504 21 132 123
0.15177664 -0.19789855 -0.82097977 21 132 122
0.15123035 -0.19822611 -0.82299685 21 132 123
0.15156184 -0.19861324 -0.82175279 21 132 122
0.1464799 -0.20119515 -0.82434034 12 130 122
0.1477073 -0.20401958 -0.82454437 11 130 125
0.148431 -0.20379977 -0.82337403 14 130 123
0.14842319 -0.20448224 -0.82385474 12 130 125
0.14728253 -0.20243013 -0.82405734 12 130 123
0.14873032 -0.20414339 -0.82318676 14 130 123
0.14840768 -0.20331804 -0.82307553 14 130 123
0.15012869 -0.20383677 -0.82209945 15 132 122
0.14753826 -0.20158516 -0.82383603 14 130 123
0.14946835 -0.20261253 -0.82282752 15 130 123
0.14866768 -0.20270783 -0.823017 14 130 122
0.14684567 -0.20143622 -0.82410157 12 130 122
0.14914425 -0.20376107 -0.82241714 15 130 123
0.15067574 -0.20385115 -0.821495 16 132 121
0.1507443 -0.20408583 -0.82126975 16 132 121
0.15072781 -0.20263433 -0.82195008 16 132 121
0.1510478 -0.20298909 -0.82123363 17 132 122
0.1512939 -0.20160486 -0.82142651 18 130 122
0.149808 -0.20677666 -0.82105494 16 130 124
0.14889206 -0.20830129 -0.82127374 15 130 126
0.14921941 -0.20726912 -0.82155555 15 132 124
0.14867997 -0.20629881 -0.8230198 14 130 126
0.14890032 -0.20671038 -0.8224107 14 130 126
0.14889653 -0.20746832 -0.82186878 14 130 125
0.14918877 -0.20767087 -0.82130885 15 132 124
0.14822713 -0.20777518 -0.82381743 14 130 126
0.14861535 -0.20752728 -0.82233983 14 130 126
0.14859563 -0.20723853 -0.82248253 14 130 126
0.14807008 -0.20861776 -0.82424849 14 130 126
0.14865236 -0.20879263 -0.82190967 15 130 126
0.14869741 -0.21206519 -0.82265413 28 129 126
0.14840896 -0.21094353 -0.8242408 34 131 127
0.14801832 -0.20922917 -0.82438648 15 130 126
0.14826773 -0.21030688 -0.82412058 24 131 126
0.14831428 -0.21047771 -0.82376003 23 130 126
0.14870936 -0.20998827 -0.8216213 15 132 124
0.14862248 -0.20930576 -0.82197815 15 130 126
0.14825958 -0.20924465 -0.8234126 15 130 126
0.14886585 -0.21172738 -0.82096809 15 132 123
0.14821075 -0.21000226 -0.82359016 15 130 126
0.14840592 -0.21643032 -0.82237464 10 130 125
0.14843902 -0.21608347 -0.8217274 17 128 124
0.14849167 -0.21565817 -0.82202941 23 130 125
0.14845063 -0.21598431 -0.82173669 18 128 124
0.1484845 -0.21572015 -0.8220306 21 130 125
0.14879102 -0.21357204 -0.82227033 32 131 125
0.14873676 -0.21403155 -0.82162464 24 130 124
0.14880781 -0.2136279 -0.8211295 18 132 123
0.14865786 -0.21458958 -0.82143164 19 132 123
0.14856243 -0.21532944 -0.82075888 12 128 124
0.14858833 -0.2193585 -0.82307917 9 128 126
0.14858273 -0.2189744 -0.8242355 7 130 125
0.14846744 -0.21793438 -0.82356846 6 128 126
0.14866102 -0.21994786 -0.82373571 9 130 125
0.14853263 -0.21879323 -0.82298124 7 130 125
0.14838631 -0.2168704 -0.82393199 5 128 126
0.14848097 -0.21836531 -0.82185686 9 130 126
0.14839172 -0.21695822 -0.82379627 5 128 126
0.1484935 -0.21847302 -0.82222718 8 130 126
0.14839461 -0.21710451 -0.82301414 7 128 126
0.14834738 -0.1568943 -0.8357262 18 134 123
0.14832172 -0.15722808 -0.83609653 16 134 123
0.14829341 -0.15781581 -0.83610296 16 134 123
0.14833529 -0.15704595 -0.83591086 17 134 122
0.14830145 -0.15776007 -0.83589709 16 134 123
0.14825399 -0.15906084 -0.83567935 16 130 123
0.14827594 -0.16199364 -0.83254778 19 130 122
0.14825583 -0.15990016 -0.83483869 16 132 123
0.14812359 -0.16075018 -0.83566046 17 130 124
0.14823337 -0.16032085 -0.83470887 16 132 121
0.14830756 -0.15874802 -0.83434916 19 134 123
0.14827724 -0.16160284 -0.83287907 19 130 122
0.14829078 -0.16010599 -0.83374029 19 132 123
0.14828968 -0.15956417 -0.83428138 18 132 123
0.14830106 -0.15945612 -0.8339448 19 132 123
0.14730948 -0.16410041 -0.834553 15 132 122
0.14741582 -0.16433363 -0.83589894 16 132 123
0.14707363 -0.16483338 -0.83394253 14 132 121
0.14762008 -0.16335553 -0.83577543 17 130 124
0.14726952 -0.16463991 -0.83523852 15 132 122
0.14689671 -0.16572018 -0.83412474 14 132 121
0.147468 -0.16373016 -0.83398956 16 132 121
0.14782314 -0.16318165 -0.832443 17 130 122
0.14742713 -0.16378239 -0.83422482 15 132 122
0.14787664 -0.16259314 -0.83487153 17 132 122
0.14710586 -0.16475381 -0.83312362 14 132 121
0.1477938 -0.16282308 -0.83469552 17 132 122
0.14654814 -0.16680942 -0.83270103 11 132 121
0.146735 -0.16945858 -0.83461648 10 130 123
0.14678034 -0.16758549 -0.83370769 11 132 121
0.14669836 -0.16982229 -0.83471543 10 130 123
0.14688903 -0.16721526 -0.83418339 12 132 121
0.14708142 -0.16607775 -0.83623266 14 132 121
0.14690132 -0.16766177 -0.83412486 11 132 120
0.14694233 -0.16633777 -0.83495659 14 132 121
0.14680058 -0.16691424 -0.83354235 11 132 120
0.14661165 -0.17018282 -0.8337481 10 128 124
0.14768644 -0.17173603 -0.83343816 14 130 123
0.14841186 -0.17272179 -0.83347386 17 132 122
0.14679612 -0.17036383 -0.83377802 10 130 124
0.14663783 -0.17062804 -0.83263755 10 130 125
0.14804246 -0.17248015 -0.83284056 15 132 122
0.14715829 -0.17093232 -0.83361542 11 130 123
0.14855208 -0.17317417 -0.83436942 15 132 122
0.14837213 -0.17260754 -0.83381277 16 132 121
0.14838432 -0.17293918 -0.83597594 11 132 122
0.1479702 -0.1717713 -0.8356809 12 130 122
0.1480343 -0.17191178 -0.8354345 12 132 122
0.14864732 -0.17362832 -0.83578157 12 132 123
0.14819723 -0.17607719 -0.83485109 11 132 123
0.14794363 -0.17759223 -0.83279938 14 130 123
0.14780322 -0.17719172 -0.83607018 10 132 124
0.14793426 -0.17728479 -0.83401573 12 132 123
0.14810909 -0.17653903 -0.83436823 12 132 123
0.14857835 -0.17470011 -0.83437479 14 132 123
0.14860269 -0.17492066 -0.83282852 16 132 121
0.14859156 -0.174915 -0.83307528 16 132 121
0.148708 -0.17425185 -0.83398336 15 132 122
0.14855158 -0.17515168 -0.83271998 16 132 121
0.14855403 -0.17485791 -0.83409178 14 132 122
0.14751887 -0.18137687 -0.83297747 12 130 121
0.14684692 -0.18009128 -0.83459187 10 130 121
0.14766914 -0.18027706 -0.83390367 12 130 123
0.14680393 -0.1783755 -0.83620924 10 128 124
0.14714015 -0.17868167 -0.83572263 10 130 123
0.14769436 -0.17828491 -0.83568847 10 132 124
0.14784113 -0.17959931 -0.83403265 12 130 123
0.14773612 -0.1779467 -0.83506894 11 130 124
0.14789142 -0.17897026 -0.83324003 14 130 123
0.14773412 -0.17847371 -0.83520496 11 130 124
0.14661479 -0.18459778 -0.83572984 11 132 122
0.14774242 -0.18259707 -0.83339244 14 130 122
0.1475531 -0.18251711 -0.83345026 14 128 122
0.14682327 -0.18337682 -0.83465409 11 132 121
0.1482195 -0.18526821 -0.83368093 14 130 123
0.14785413 -0.1837946 -0.83375907 14 130 123
0.1484281 -0.18426518 -0.83275211 14 130 122
0.14780368 -0.18468426 -0.8342939 14 130 123
0.14788535 -0.18466178 -0.83410776 14 130 123
0.14795114 -0.18279077 -0.8330695 14 130 122
0.1472073 -0.18575117 -0.83623135 11 130 124
0.1495607 -0.18896736 -0.83386332 10 132 123
0.14946482 -0.18879899 -0.83415163 10 132 123
0.15008911 -0.18933849 -0.83513594 10 132 123
0.14923774 -0.18816836 -0.83602655 11 130 124
0.1474832 -0.18614644 -0.83586001 11 130 124
0.14877321 -0.18799043 -0.83414537 10 132 123
0.14757459 -0.18613759 -0.83548123 11 130 123
0.14955595 -0.18882929 -0.83251101 10 132 123
0.14839667 -0.18651026 -0.83389378 12 130 123
0.14865342 -0.18757026 -0.83384824 11 130 124
0.14851116 -0.18666804 -0.83372319 12 130 123
0.14926508 -0.18867214 -0.83306062 10 132 123
0.14737569 -0.19284679 -0.83436775 16 130 121
0.14721395 -0.19307031 -0.83388811 15 130 121
0.14653626 -0.19260782 -0.83513188 16 130 120
0.14847267 -0.19320491 -0.83326262 17 128 124
0.1483745 -0.19206378 -0.83432579 17 128 122
0.14939862 -0.19115055 -0.83308136 15 128 124
0.14828263 -0.19148216 -0.83431888 15 130 122
0.14818674 -0.1909579 -0.83432645 14 130 121
0.14962594 -0.19019623 -0.83267099 12 130 124
0.14930925 -0.19043669 -0.83304822 12 130 123
0.1498546 -0.19208248 -0.83276635 16 130 125
0.14927147 -0.19055018 -0.83310843 14 130 123
0.14978729 -0.1898241 -0.83602351 11 130 123
0.15020952 -0.18948868 -0.83558851 10 132 123
0.14852168 -0.19064525 -0.83569247 14 130 122
0.14814761 -0.1908824 -0.83554542 14 130 121
0.14927366 -0.19006668 -0.83508456 12 130 123
0.15029036 -0.18950492 -0.83621907 11 130 124
0.1496827 -0.18970487 -0.83433598 11 130 123
0.14780588 -0.19703978 -0.83255428 9 130 124
0.1490138 -0.1949876 -0.83258319 15 128 126
0.14725165 -0.19376127 -0.83317232 14 130 122
0.14697662 -0.19614393 -0.83303261 9 130 125
0.14877214 -0.19481537 -0.83270282 15 128 126
0.14959481 -0.19395424 -0.83257371 17 128 126
0.14742319 -0.19492438 -0.8330282 12 128 125
0.14665568 -0.19435404 -0.83326852 12 130 122
0.14699286 -0.19974048 -0.83317661 8 130 126
0.1469577 -0.20071213 -0.83364373 8 130 126
0.14708394 -0.20031875 -0.8332544 8 130 126
0.14728951 -0.20045272 -0.83294255 8 130 125
0.14773381 -0.19752142 -0.83251876 9 130 124
0.14699656 -0.1975458 -0.83283192 8 130 126
0.14747658 -0.20117557 -0.83289427 8 130 125
0.14693286 -0.15390462 -0.84843719 14 130 121
0.14725409 -0.15367511 -0.84808958 15 132 121
0.14658329 -0.15683247 -0.84868646 9 130 124
0.14708485 -0.15621008 -0.8483395 12 130 123
0.14662844 -0.15898043 -0.8484149 10 130 124
0.15072994 -0.2277714 -0.81153184 20 132 122
0.15075466 -0.22599931 -0.81166369 19 132 122
0.15082465 -0.22754222 -0.81103218 23 130 123
0.15047972 -0.22847435 -0.81283695 18 132 122
0.15094508 -0.22505037 -0.81174588 19 132 121
0.15068567 -0.22517823 -0.81226325 18 132 122
0.1504117 -0.22979921 -0.81257904 17 134 122
0.14524266 -0.23626876 -0.81196672 7 128 126
0.1452795 -0.23606445 -0.81218868 7 128 126
0.14645141 -0.23548315 -0.81133419 7 130 125
0.14652646 -0.23543249 -0.81131756 7 130 125
0.14692023 -0.23570749 -0.8105883 8 130 125
0.14728945 -0.23433903 -0.81207919 10 130 126
0.14786622 -0.23408425 -0.81189036 10 132 125
0.14760478 -0.23532569 -0.8105486 10 130 125
0.1475773 -0.23606184 -0.81005901 10 130 124
0.14713012 -0.23705705 -0.80926472 9 130 124
0.14747949 -0.23696215 -0.80927026 10 130 124
0.14913018 -0.17769338 -0.8266235 19 130 122
0.14882971 -0.1780615 -0.82786846 20 130 122
0.14873938 -0.17787752 -0.82816035 19 130 122
0.14976606 -0.1848447 -0.82823896 20 130 122
0.14991598 -0.18788195 -0.82846093 19 130 122
0.14995733 -0.1859152 -0.82810032 19 130 122
0.14999199 -0.18837857 -0.8282516 20 132 123
0.14944763 -0.19117346 -0.82848853 17 130 122
0.1498397 -0.191569 -0.8278172 18 130 123
0.15015145 -0.19106796 -0.82760841 19 132 123
0.15029761 -0.19013931 -0.82760358 20 132 123
0.15062578 -0.19162549 -0.82676059 27 131 124
0.15069219 -0.19318388 -0.82639289 27 131 124
0.14954469 -0.19387813 -0.82786912 16 130 123
0.14941384 -0.19506988 -0.82805598 16 130 123
0.14901803 -0.19458185 -0.82837725 15 130 122
0.15010306 -0.19640712 -0.82692212 18 132 122
0.15026724 -0.19445905 -0.82706201 17 132 122
0.14968513 -0.19553699 -0.82780719 17 132 122
0.14958411 -0.19638161 -0.82779652 17 132 122
0.15053421 -0.1961882 -0.82591641 20 132 124
0.15064713 -0.19713877 -0.82526451 20 133 123
0.15044728 -0.19534208 -0.82644266 19 132 123
0.15082283 -0.19684169 -0.82472825 25 133 125
0.14907923 -0.19744231 -0.82811111 17 130 122
0.14745852 -0.19868618 -0.82840872 15 128 122
0.14889868 -0.19805671 -0.8272199 16 132 121
0.14875168 -0.1985094 -0.82677323 16 130 123
0.14966153 -0.19864611 -0.82536519 16 132 123
0.14845453 -0.19877791 -0.82680827 15 132 122
0.14831297 -0.19948711 -0.82531339 15 130 123
0.14721431 -0.1993238 -0.82767719 14 130 122
0.14747131 -0.19989412 -0.82560015 14 130 122
0.14693159 -0.20019604 -0.82566673 14 128 122
0.14662549 -0.20068653 -0.82479012 12 130 121
0.14697395 -0.20009841 -0.82587326 14 128 122
0.14651346 -0.19967835 -0.82787126 12 130 121
0.14680721 -0.20456329 -0.82688546 10 130 126
0.14745981 -0.20446688 -0.82544887 10 130 125
0.14720434 -0.20414105 -0.82563353 10 130 125
0.14709993 -0.20369583 -0.8253848 11 130 125
0.14655764 -0.20299663 -0.82576889 11 130 124
0.1468527 -0.20568137 -0.82815981 9 132 126
0.14820085 -0.20610081 -0.8259663 10 130 126
0.14803082 -0.20535627 -0.82529539 10 130 126
0.1478636 -0.20670615 -0.82748556 10 130 126
0.14712505 -0.20551336 -0.82736522 9 132 126
0.14690556 -0.20538576 -0.82764006 10 130 126
0.14711161 -0.20596802 -0.82801509 9 132 126
0.14861679 -0.20785861 -0.82712144 10 128 126
0.14824753 -0.20767842 -0.82551843 12 128 126
0.14821985 -0.20803176 -0.82548636 12 130 126
0.14864251 -0.20862272 -0.82741356 10 128 126
0.14830138 -0.20650211 -0.82546353 11 130 126
0.14708337 -0.21224101 -0.82668138 15 130 127
0.14720659 -0.21275923 -0.82606858 18 130 128
0.14697529 -0.21288548 -0.82613188 12 130 127
0.14825685 -0.21111187 -0.82686877 27 130 127
0.14831737 -0.21208256 -0.82584149 42 129 129
0.14775865 -0.21152328 -0.82685071 27 130 128
0.14884301 -0.20998785 -0.82753545 19 130 126
0.14878426 -0.21167828 -0.82587731 42 130 127
0.14876743 -0.20927173 -0.82775325 12 128 126
0.14863293 -0.21084249 -0.82568562 34 131 127
0.14856622 -0.21005704 -0.82615364 24 131 126
0.14867759 -0.20901772 -0.82761616 10 128 126
0.14885496 -0.20917696 -0.82821339 10 130 126
0.14886475 -0.2101787 -0.82729846 24 130 126
0.14967269 -0.14532068 -0.84162182 21 137 122
0.14923643 -0.14606623 -0.84309489 20 135 122
0.14977165 -0.14497909 -0.84212047 21 137 122
0.15018055 -0.14364214 -0.84382087 21 135 123
0.15017137 -0.14368206 -0.84373486 21 135 123
0.14382952 -0.14651324 -0.84232318 9 130 124
0.14291503 -0.14663361 -0.84129786 8 130 124
0.14363384 -0.1472875 -0.84135348 9 130 124
0.14553651 -0.14670272 -0.84382135 10 132 123
0.14478973 -0.14733092 -0.84245092 10 130 123
0.1452987 -0.14814764 -0.8421303 10 132 123
0.14356151 -0.1483241 -0.84023738 9 130 123
0.14540033 -0.14665979 -0.84373015 10 130 123
0.14529672 -0.14930896 -0.84095794 11 130 122
0.14580226 -0.14914393 -0.84349257 11 132 120
0.14579515 -0.14907384 -0.84347123 11 132 121
0.14572975 -0.1503562 -0.84113449 11 132 120
0.14570118 -0.14840403 -0.84290403 11 132 122
0.14576407 -0.15035118 -0.84161872 11 132 120
0.14791124 -0.14999431 -0.84307283 17 134 120
0.1488855 -0.14693618 -0.84373379 18 134 122
0.14869745 -0.14753887 -0.84358186 18 134 122
0.1485599 -0.14854158 -0.84236991 17 136 122
0.14879158 -0.147342 -0.84345257 18 134 122
0.14791882 -0.15033855 -0.84235692 17 134 120
0.14859074 -0.1488841 -0.84129262 17 136 122
0.1484988 -0.14931226 -0.84106076 17 134 122
0.14869517 -0.14812386 -0.84238857 18 134 122
0.14895798 -0.1477368 -0.84050864 20 133 122
0.14908592 -0.14729422 -0.84036589 21 133 122
0.1478834 -0.1521938 -0.84339094 20 135 122
0.14774285 -0.15146045 -0.84332085 19 134 121
0.1478876 -0.15236464 -0.84267849 20 133 122
0.1480176 -0.15314437 -0.84225619 21 133 122
0.14792861 -0.15227866 -0.84413844 21 135 122
0.14764304 -0.15051277 -0.84374046 17 136 120
0.14781734 -0.15168422 -0.84256846 18 134 120
0.14798008 -0.15191793 -0.84163439 19 134 122
0.1481238 -0.15219973 -0.8407954 18 134 122
0.14766251 -0.15068981 -0.84360105 17 136 120
0.14820212 -0.15792985 -0.84332132 18 136 123
0.14666833 -0.16145483 -0.84171706 11 132 121
0.14695811 -0.1596981 -0.84353429 12 132 121
0.14780603 -0.15961021 -0.84277707 12 132 123
0.14730924 -0.15921791 -0.84375519 12 132 122
0.14719483 -0.15995345 -0.84298581 12 132 122
0.14811353 -0.15829712 -0.84402728 14 134 123
0.14779907 -0.16028953 -0.84084934 18 134 123
0.14789605 -0.15949279 -0.84252149 15 132 123
0.14786802 -0.15976185 -0.84189087 15 136 122
0.14807013 -0.15880258 -0.84271348 17 134 124
0.14795355 -0.15944377 -0.84190547 17 136 122
0.14708701 -0.16573489 -0.84046715 11 130 123
0.14656819 -0.16329093 -0.84133238 10 132 121
0.14653514 -0.16271904 -0.84120053 10 132 120
0.14676328 -0.16513523 -0.84142268 10 130 123
0.14704688 -0.16375098 -0.84047121 10 132 121
0.14718923 -0.16431583 -0.84030068 11 132 122
0.14667149 -0.1668068 -0.84313738 10 130 124
0.14710182 -0.16884764 -0.84408617 14 132 120
0.14733963 -0.16920674 -0.84355241 16 132 120
0.14676242 -0.16603978 -0.84185076 10 130 125
0.14722264 -0.16826858 -0.84284401 14 132 121
0.14715634 -0.16627866 -0.8406533 12 130 123
0.14688241 -0.16976579 -0.84081906 11 130 123
0.14707738 -0.16830111 -0.84106129 12 130 123
0.14695618 -0.16935006 -0.84099907 11 130 123
0.14719918 -0.16771615 -0.84142333 14 130 122
0.14714718 -0.16640534 -0.84027237 11 130 123
0 0 0 1 0 0 0 1 0 0 0 1 0 0 0 0 0 724 1 0 0
