ply
format ascii 1.0
comment PCL generated
element vertex 706
property float x
property float y
property float z
property uchar red
property uchar green
property uchar blue
element camera 1
property float view_px
property float view_py
property float view_pz
property float x_axisx
property float x_axisy
property float x_axisz
property float y_axisx
property float y_axisy
property float y_axisz
property float z_axisx
property float z_axisy
property float z_axisz
property float focal
property float scalex
property float scaley
property float centerx
property float centery
property int viewportx
property int viewporty
property float k1
property float k2
end_header
0.012255673 -0.1800168 -0.70266807 53 137 109
0.012488784 -0.17962939 -0.70274526 51 137 109
0.012398019 -0.17977732 -0.70271552 52 137 109
0.011742488 -0.18103229 -0.70248091 55 135 110
0.011527231 -0.18115984 -0.70243365 57 135 110
0.012535745 -0.18048535 -0.70266306 53 136 109
0.011559061 -0.17942323 -0.70262235 53 137 108
0.01380536 -0.18122625 -0.70278907 50 135 109
0.00099781877 -0.18418123 -0.70102191 61 137 111
-0.00010424084 -0.18546303 -0.7008782 61 137 111
0.0013052875 -0.18439439 -0.70103908 59 137 111
0.0004944345 -0.18482141 -0.70095402 61 137 111
0.0035060674 -0.18436237 -0.70128781 63 136 111
0.0042365962 -0.18482758 -0.70136958 61 137 112
0.0033071311 -0.1842245 -0.70126581 64 136 111
0.0027720458 -0.18426138 -0.7011987 62 136 111
0.002730608 -0.18455398 -0.70118189 61 136 111
0.0023535797 -0.18447487 -0.70113903 59 138 110
0.009309425 -0.18451211 -0.70193726 58 138 111
0.0097460691 -0.18443227 -0.70198262 58 138 111
0.0097519336 -0.18503144 -0.70195705 58 138 112
0.0066016018 -0.18480194 -0.70166463 57 139 112
0.0062125963 -0.18453091 -0.70163071 61 138 113
0.012855989 -0.1845731 -0.70237172 53 136 111
0.012555675 -0.18356317 -0.70242608 53 136 111
0.012976124 -0.18541832 -0.70231134 53 137 110
0.012269128 -0.18469204 -0.70229477 53 137 110
0.012988801 -0.18484664 -0.70236284 53 136 111
0.012042954 -0.18175937 -0.70245934 55 135 111
0.011093251 -0.18394248 -0.70221478 54 137 111
0.01237461 -0.1823556 -0.70248568 53 136 110
0.011876049 -0.18188207 -0.70242774 57 134 110
0.01298645 -0.1818863 -0.70260239 53 135 110
0.013744382 -0.18293965 -0.70262069 51 135 110
0.013733299 -0.18232346 -0.70267254 51 135 110
-0.010638829 -0.18943271 -0.70214748 63 139 107
-0.0098250834 -0.18877158 -0.70182228 62 138 108
-0.0061321035 -0.18857567 -0.70122844 61 137 109
-0.0078938389 -0.18906599 -0.70158577 61 137 109
-0.0065227905 -0.18814129 -0.70125306 63 137 110
-0.0062482278 -0.18940209 -0.70133191 59 138 108
-0.0077516306 -0.18880415 -0.70153457 62 137 109
-0.0094057731 -0.18878278 -0.70178765 63 138 108
-0.0047971448 -0.1891053 -0.70116985 60 138 109
-0.0033796416 -0.18942402 -0.70109242 60 139 110
-0.0046813842 -0.18731274 -0.70100659 63 138 110
-0.00012197183 -0.18768983 -0.70102096 59 138 110
0.0014129475 -0.18760303 -0.701087 60 138 110
0.0011625127 -0.1891095 -0.70112288 62 139 111
-0.0003243729 -0.18790235 -0.70101851 60 137 111
0.00013293209 -0.18939312 -0.70108563 63 139 111
0.0019278945 -0.18674606 -0.7010833 58 137 110
0.00097781955 -0.18627426 -0.70101637 57 137 109
-0.00050879968 -0.18583921 -0.70086145 61 137 111
9.4318297e-05 -0.18572401 -0.70090383 59 137 111
0.00082626962 -0.18627128 -0.70100349 57 138 109
0.0046540597 -0.18691637 -0.70143443 58 139 112
0.004538022 -0.1888883 -0.70135909 60 137 111
0.0053583332 -0.18746227 -0.70146221 58 138 111
0.0056858826 -0.1878878 -0.70146924 58 138 111
0.0044814758 -0.18732534 -0.70140904 59 139 112
0.0026443459 -0.18737172 -0.701195 60 138 111
0.0047910577 -0.1858353 -0.70142943 56 139 111
0.0030810325 -0.18677412 -0.70123374 58 139 110
0.0029244057 -0.18595897 -0.70118767 56 139 110
0.0044053625 -0.18675865 -0.70140755 58 139 112
0.0082989 -0.18714909 -0.70173991 57 138 112
0.0071832417 -0.18822303 -0.70159602 57 137 111
0.0081781466 -0.18731019 -0.70172268 57 138 112
0.0097559411 -0.18829381 -0.7018345 57 138 113
0.0072446703 -0.1885446 -0.70159006 57 137 111
0.0073453486 -0.18819131 -0.70161241 58 138 111
0.0068661971 -0.18643776 -0.70162714 57 138 112
0.0082832975 -0.18571121 -0.70178807 56 139 112
0.0061510471 -0.18776985 -0.70151275 58 138 112
0.0076330882 -0.18660544 -0.70169497 57 139 112
0.0062535228 -0.18621032 -0.70157605 56 139 112
0.012719504 -0.18737459 -0.70221031 54 136 110
0.013582377 -0.18945253 -0.70225322 59 137 112
0.013472637 -0.18918268 -0.70224792 59 137 112
0.013232403 -0.18683225 -0.70228815 54 137 110
0.011995847 -0.18737477 -0.70212305 54 137 111
0.012293987 -0.18714683 -0.70216572 54 137 111
0.010888549 -0.18810174 -0.70196974 55 138 112
0.0098222578 -0.18878874 -0.70182371 56 139 112
0.011728395 -0.18683599 -0.70211136 54 137 111
0.011827837 -0.1863725 -0.70213962 54 137 111
0.012886463 -0.18585533 -0.70227861 53 136 110
0.01478409 -0.1892115 -0.70247734 53 137 111
0.013927181 -0.18935657 -0.70231479 58 137 112
0.014331469 -0.18597314 -0.70249677 49 137 110
0.013717637 -0.18731014 -0.70233613 55 136 111
-0.0060638878 -0.18947639 -0.70130897 59 138 108
-0.0095892893 -0.18972704 -0.70196968 62 138 108
-0.0076261242 -0.19059691 -0.70178056 63 138 107
-0.0094222929 -0.19023161 -0.70202988 63 138 107
-0.007119678 -0.18993543 -0.70157486 61 138 108
-0.0053836363 -0.19314046 -0.70159042 62 138 107
-0.002632221 -0.19258717 -0.70121115 62 137 109
-0.0034539029 -0.19219205 -0.70130134 63 137 109
-0.0049811741 -0.19256599 -0.7015146 61 138 107
-0.0022437582 -0.1925347 -0.7011587 63 137 109
-0.0021190392 -0.19290517 -0.70115781 62 137 109
-0.0044595157 -0.19151999 -0.70137793 61 138 108
-0.002547211 -0.18985802 -0.70107645 61 138 111
-0.0046194876 -0.19049834 -0.70128661 61 137 109
-0.0052710064 -0.19107226 -0.70139015 61 138 108
-0.0056780898 -0.19286497 -0.7015987 61 138 106
0.0012417301 -0.19329762 -0.70119536 67 136 111
-0.0009484489 -0.19285856 -0.70116329 63 136 109
0.0011152541 -0.19136502 -0.70117593 65 137 110
-0.00036717299 -0.19328628 -0.70117468 64 137 109
0.0013050068 -0.19149232 -0.7011795 65 137 110
-0.0016072986 -0.19315578 -0.70115757 63 136 109
-0.0013559976 -0.19272739 -0.70115572 63 137 109
-0.0010610456 -0.19146498 -0.70111692 63 137 110
-0.0012799113 -0.19224076 -0.70113903 63 137 109
-0.00040183659 -0.18974002 -0.70107532 62 139 111
0.00056081242 -0.18997128 -0.70112801 63 137 111
0.0053076288 -0.19284399 -0.70133096 67 138 112
0.005414837 -0.19102889 -0.70137596 63 137 112
0.0052134413 -0.19170992 -0.70135355 64 137 112
0.0024933147 -0.19310313 -0.70122927 67 137 111
0.0047247629 -0.19205047 -0.70132917 65 137 112
0.002046363 -0.19192249 -0.70119792 66 136 111
0.004784707 -0.190404 -0.70136482 61 136 111
0.0023481115 -0.1912436 -0.70121163 65 138 111
0.0029488178 -0.19073187 -0.70124656 64 137 111
0.002888808 -0.19116884 -0.70124662 64 137 111
0.0083826128 -0.19322202 -0.70152807 62 136 112
0.0082245823 -0.19234191 -0.70155483 62 138 112
0.0096088899 -0.18992755 -0.70176095 57 138 113
0.0073125195 -0.19331171 -0.70144612 65 137 113
0.00917634 -0.1904254 -0.70170766 58 138 112
0.0075970814 -0.19049157 -0.70156616 60 138 112
0.007947756 -0.19073214 -0.70159352 61 138 113
0.0077539273 -0.19094609 -0.70157051 61 138 113
0.0094662867 -0.18969427 -0.7017594 57 138 113
0.0082492847 -0.19089073 -0.70161813 61 138 113
0.012009325 -0.19177251 -0.70197719 58 136 112
0.012335663 -0.19201185 -0.70201868 56 136 112
0.012492106 -0.19290251 -0.70202214 54 136 113
0.012624845 -0.1913316 -0.70207447 58 136 112
0.013421849 -0.18992171 -0.70221829 59 137 112
0.013303917 -0.19020742 -0.70219541 59 137 112
0.013018521 -0.18947975 -0.70218408 59 137 112
0.011118279 -0.19080943 -0.70189703 58 137 111
0.011993731 -0.18981889 -0.70204568 58 138 111
0.011153032 -0.19056791 -0.70191175 58 137 112
0.012715894 -0.19037689 -0.70210856 59 137 111
-0.0058880267 -0.19401132 -0.70166492 63 137 107
-0.0067922566 -0.19456755 -0.70192873 66 136 108
-0.0061114891 -0.19349959 -0.70172977 63 137 106
-0.0024608551 -0.19497003 -0.70118326 64 136 109
-0.0027999699 -0.19708368 -0.70117027 65 135 110
-0.0020826661 -0.19715218 -0.70105839 64 135 111
-0.003533686 -0.19598792 -0.7013163 66 135 110
-0.0020774987 -0.19577637 -0.70109981 63 136 109
-0.0037587271 -0.19448473 -0.70138085 65 136 109
-0.0051760697 -0.19518431 -0.70155942 66 136 109
-0.0047423504 -0.19481272 -0.70150596 66 136 108
-0.0051854532 -0.19387458 -0.70157003 63 137 107
-0.0058459835 -0.19432257 -0.70165241 64 136 107
0.0017754512 -0.19723633 -0.70101732 63 136 110
0.0018067867 -0.19670214 -0.70104319 63 138 110
0.0005426507 -0.1960081 -0.70108336 64 137 111
0.0016127941 -0.19460315 -0.70114625 66 136 111
0.00067335507 -0.195426 -0.70111102 65 136 111
-0.0012914506 -0.19506124 -0.7011112 64 136 110
-0.0012982327 -0.1965135 -0.70106649 64 135 111
-0.0011906703 -0.1935451 -0.70115906 64 136 109
-0.0015826951 -0.19548494 -0.70109445 63 136 109
-0.0017866697 -0.19573396 -0.7010842 63 136 110
0.0040463139 -0.19683215 -0.70116472 63 137 113
0.0041995272 -0.19554421 -0.70119339 65 138 112
0.0045591658 -0.19702393 -0.70119721 63 136 113
0.0047613499 -0.19700195 -0.70121139 63 137 113
0.0048944242 -0.19461013 -0.70125419 67 139 113
0.0026066105 -0.19437812 -0.70117772 66 138 111
0.0027354227 -0.19471508 -0.70116568 66 138 111
0.0042988597 -0.19446221 -0.70123124 67 138 112
0.0032916889 -0.1956818 -0.7011376 65 137 112
0.0043141376 -0.19476879 -0.70121688 67 138 112
0.0065451115 -0.19679648 -0.70133621 61 136 114
0.0076896129 -0.19587386 -0.70142913 60 135 113
0.0083746267 -0.19611521 -0.70146102 58 136 113
0.0064925645 -0.19675641 -0.70133442 61 136 114
0.0065454352 -0.1968645 -0.70133418 61 136 114
0.0059531322 -0.19400541 -0.70133573 68 138 114
0.0076279771 -0.19527012 -0.70144016 61 136 113
0.0072019044 -0.19408029 -0.70142579 64 137 113
0.006266085 -0.194499 -0.70135164 66 138 113
0.0063823932 -0.19604965 -0.70133829 63 136 114
0.012679802 -0.19348955 -0.70203531 52 136 113
0.011397189 -0.19470493 -0.70181572 54 135 113
0.012481532 -0.19357049 -0.70200461 53 134 113
0.01093984 -0.19348043 -0.70178705 56 135 112
0.0097962907 -0.19585013 -0.70155275 56 135 113
-0.011463605 -0.20062417 -0.70327938 63 135 117
-0.0062192646 -0.20028493 -0.70162165 65 135 113
-0.0071844216 -0.20072478 -0.70186925 65 136 113
-0.0061857384 -0.19969183 -0.70163405 66 135 112
-0.0072924444 -0.19982164 -0.70193154 66 135 112
-0.0069945725 -0.19952349 -0.70186102 67 135 112
-0.0069934907 -0.19970596 -0.70185411 66 135 112
-0.0021873079 -0.19900718 -0.70104152 63 135 111
-0.0021332696 -0.19748993 -0.70105547 63 136 111
-0.0021452766 -0.20030619 -0.7010181 62 134 112
-0.0035999669 -0.20055713 -0.7012046 63 134 112
-0.0031114251 -0.19949481 -0.70115548 63 135 112
-0.003779937 -0.19937271 -0.70124441 63 136 112
-0.0051419511 -0.19930604 -0.7014491 65 135 111
-0.0055446588 -0.19898638 -0.70152229 67 135 111
-0.0053146873 -0.19980718 -0.70145726 65 135 112
-0.00045119436 -0.20073022 -0.70095938 61 134 112
-0.00070263492 -0.20056249 -0.70097089 62 134 112
0.0010043625 -0.19944204 -0.70096654 61 135 111
0.00075830682 -0.20067164 -0.70093215 60 134 111
-0.00054610614 -0.2008751 -0.70095688 61 134 112
-0.00038878096 -0.19774637 -0.70102036 63 136 111
-0.0012026979 -0.1975964 -0.70102656 63 136 111
0.00046093413 -0.19836821 -0.70100737 62 136 111
0.0014288756 -0.19745779 -0.70101506 63 136 111
-0.00013777846 -0.19792171 -0.70101666 63 136 111
-0.0018404638 -0.19735007 -0.70103323 63 136 111
0.0055645513 -0.19820596 -0.70121479 60 136 113
0.0052807848 -0.19850168 -0.70118535 60 136 113
0.0042956923 -0.20036799 -0.70103312 58 135 112
0.0051001501 -0.19961965 -0.70111138 58 136 113
0.0047185021 -0.20090835 -0.70101881 56 136 112
0.0050745294 -0.19751549 -0.70122099 61 136 113
0.0026759708 -0.19813621 -0.7010361 61 136 111
0.0037564472 -0.19817325 -0.70110899 61 137 112
0.0044499072 -0.19855547 -0.7011441 61 136 113
0.002532739 -0.19971131 -0.70097464 60 135 112
0.0076657273 -0.20021957 -0.70121944 54 136 112
0.0094174333 -0.19844632 -0.70142448 54 136 113
0.0077974936 -0.2007695 -0.70120126 54 135 112
0.0082306731 -0.19908556 -0.7013132 54 136 112
0.00971823 -0.19795573 -0.70146888 54 136 113
0.0088762697 -0.19748092 -0.70144248 56 136 114
0.0063488283 -0.19886388 -0.70121604 58 136 112
0.006064144 -0.19863512 -0.70121336 59 136 113
0.0062793293 -0.19927901 -0.70118737 58 135 113
0.0081015369 -0.19735107 -0.70140594 58 136 114
0.010225837 -0.20109017 -0.70135987 52 133 113
0.0099052433 -0.19995351 -0.70138991 53 134 113
0.010228965 -0.19731127 -0.70155716 54 136 113
-0.015633376 -0.20493023 -0.70315051 66 130 120
-0.014639216 -0.2038973 -0.70332575 62 133 120
-0.014451819 -0.20408645 -0.70321703 63 132 119
-0.016314436 -0.20467806 -0.70338494 65 131 119
-0.011423049 -0.20130099 -0.70318186 61 135 116
-0.012778945 -0.20384765 -0.70278364 63 133 119
-0.012239651 -0.20324712 -0.70278817 64 134 118
-0.012798147 -0.20420322 -0.70266002 65 133 119
-0.012979475 -0.20412399 -0.70276237 63 133 119
-0.010453871 -0.20288445 -0.70231062 64 135 115
-0.011547904 -0.20440193 -0.70223558 63 134 117
-0.010221799 -0.20312765 -0.70217735 63 136 115
-0.010180516 -0.20317481 -0.70215267 63 136 115
-0.011588603 -0.20452064 -0.70221627 63 134 117
-0.0065269358 -0.20395139 -0.70119119 57 135 113
-0.0070504374 -0.2026305 -0.70146322 62 136 113
-0.0059791403 -0.20240092 -0.70133144 60 136 112
-0.0060270801 -0.20402309 -0.70110381 56 135 113
-0.0059623909 -0.20423347 -0.70106328 55 136 112
-0.0059489841 -0.20383704 -0.70111871 56 135 113
-0.0092722448 -0.20358525 -0.70178616 63 135 114
-0.0080810655 -0.20247544 -0.7017538 63 135 114
-0.0095192101 -0.20363757 -0.7018398 63 135 114
-0.0082603032 -0.20288213 -0.70169538 63 135 114
-0.0096398108 -0.2024662 -0.70218188 64 136 114
-0.0082231322 -0.20318328 -0.70160574 63 135 114
-0.0054855542 -0.20477967 -0.70092207 54 136 113
-0.0030095414 -0.20266987 -0.70091724 58 134 112
-0.0040873252 -0.20497531 -0.70076668 53 135 112
-0.0019687002 -0.20317139 -0.70076239 57 133 112
-0.0046683624 -0.20469496 -0.70085317 54 134 112
-0.0052191447 -0.20276327 -0.70117688 58 135 112
-0.0037982315 -0.20273073 -0.7009961 59 134 113
-0.004420639 -0.20153885 -0.70125002 61 135 112
-0.0030791538 -0.20195869 -0.70101404 61 133 112
-0.0052281274 -0.2038552 -0.70101982 56 135 113
0.00099215226 -0.20465098 -0.70060837 55 135 112
0.0012570481 -0.20446247 -0.70062518 55 135 112
0.0017856716 -0.20213284 -0.70081085 58 135 111
0.00096496195 -0.20433162 -0.70063299 55 135 112
0.00194635 -0.20312111 -0.70073527 57 135 111
-0.0017495708 -0.20284735 -0.70079172 58 133 112
-0.00020356069 -0.20281233 -0.70075834 57 135 112
-0.00165297 -0.2045688 -0.70059979 54 134 112
-0.001186562 -0.20304741 -0.70075607 57 134 112
-0.0011855403 -0.20306577 -0.70075405 57 134 112
-0.0018074588 -0.20457083 -0.70060331 54 134 112
0.0049288669 -0.20253649 -0.70092565 54 136 111
0.0040864702 -0.20301512 -0.7008363 54 136 111
0.0057232822 -0.20176464 -0.70102012 55 135 112
0.0021259754 -0.20490913 -0.7006036 54 135 111
0.0049087424 -0.20451075 -0.70086074 54 134 111
0.0023544286 -0.20416434 -0.70067096 55 134 111
0.0036797221 -0.20271096 -0.7008397 56 135 111
0.0038887905 -0.20264426 -0.70085365 55 135 112
0.0036057779 -0.20325983 -0.70079386 54 136 111
0.0045060441 -0.20241886 -0.70089716 55 135 112
0.009749583 -0.20457818 -0.70114225 50 134 112
0.0090575581 -0.20387642 -0.70114344 51 134 112
0.009178781 -0.20391341 -0.70114756 51 134 112
0.0082530351 -0.20445903 -0.70107472 52 134 112
0.0093182093 -0.20295517 -0.70120251 52 134 112
0.0061145267 -0.20343703 -0.70099574 54 135 111
0.0088455919 -0.20161346 -0.70123792 53 134 112
0.0088583389 -0.20147024 -0.70124334 53 134 112
0.008518924 -0.2016862 -0.70121354 53 134 112
0.0087560695 -0.20208851 -0.70121664 53 134 112
0.0099048847 -0.2023201 -0.70126832 51 134 112
-0.022385519 -0.20601411 -0.70307851 46 140 114
-0.021861138 -0.20561248 -0.70340198 43 142 114
-0.023116214 -0.20566586 -0.70316142 49 139 114
-0.023169156 -0.20573787 -0.70310986 49 139 113
-0.024365902 -0.20597388 -0.7027669 54 136 113
-0.024669454 -0.20823973 -0.70155758 55 135 113
-0.024486562 -0.2087754 -0.70129836 54 135 113
-0.023924893 -0.20759755 -0.70196068 53 136 113
-0.023696868 -0.20780648 -0.70187455 52 135 114
-0.020958127 -0.20816687 -0.70192045 46 134 116
-0.018617544 -0.20523557 -0.70347416 60 132 119
-0.018632518 -0.20596865 -0.7030434 61 131 119
-0.019771114 -0.20705517 -0.70248759 54 133 117
-0.0197163 -0.20549953 -0.70340008 53 136 117
-0.020423664 -0.20653762 -0.70284086 48 136 116
-0.020016288 -0.20850529 -0.70172888 49 133 117
-0.021138007 -0.20890291 -0.70152092 45 135 116
-0.018586518 -0.20660731 -0.70270455 59 131 118
-0.019900624 -0.20761223 -0.70218551 52 133 117
-0.020405583 -0.20848297 -0.7017386 48 133 117
-0.018311771 -0.20892361 -0.70152265 51 134 115
-0.015420757 -0.20734331 -0.70194232 58 132 117
-0.015336808 -0.2084206 -0.70149112 54 132 117
-0.0143066 -0.20805891 -0.70153153 56 131 117
-0.014054392 -0.20583303 -0.70241904 63 132 119
-0.01417385 -0.2068297 -0.70202231 59 131 118
-0.017331183 -0.20825343 -0.70181751 55 132 116
-0.017535524 -0.20628615 -0.70286423 63 130 118
-0.017402217 -0.20521809 -0.70338243 66 129 120
-0.016184447 -0.20597205 -0.70274758 63 130 119
-0.014855169 -0.20599934 -0.70246106 62 132 119
-0.01633448 -0.20632119 -0.7026 62 131 118
-0.010523057 -0.20888895 -0.70073998 55 135 114
-0.010417532 -0.20802991 -0.70092499 57 135 114
-0.010878121 -0.20878389 -0.70080549 55 135 114
-0.012232346 -0.20836553 -0.70105934 55 133 116
-0.011496918 -0.20891303 -0.70084792 54 134 114
-0.011703516 -0.20872182 -0.70091587 54 134 114
-0.011243952 -0.20597872 -0.7015968 60 133 115
-0.013466625 -0.20720807 -0.7017532 58 132 118
-0.013308179 -0.20663205 -0.70194256 59 131 118
-0.010812755 -0.20514973 -0.70180899 62 134 115
-0.011978031 -0.20698966 -0.70140004 57 133 116
-0.013387343 -0.20851937 -0.70119107 54 132 116
-0.0064656045 -0.20598273 -0.70083332 53 136 113
-0.0083005987 -0.20785575 -0.70068896 54 136 113
-0.0071638892 -0.20803668 -0.70057237 52 136 113
-0.0075808307 -0.20824035 -0.70057362 52 136 113
-0.0089728404 -0.20825119 -0.70068061 55 136 113
-0.0084959855 -0.20701675 -0.70088613 56 135 113
-0.008536906 -0.20581876 -0.70116752 58 135 114
-0.008060636 -0.20589171 -0.70107734 57 134 114
-0.0086109592 -0.2072752 -0.70084447 56 135 113
-0.0093601933 -0.20556079 -0.70135361 60 135 114
-0.0021647064 -0.20698704 -0.70036447 48 134 113
-0.0038111808 -0.20547174 -0.70066845 53 135 112
-0.0040514506 -0.20666514 -0.70050812 51 135 112
-0.0046595219 -0.20655321 -0.70058352 51 135 112
-0.0038488228 -0.20696537 -0.70044261 50 135 112
-0.0056612184 -0.20526636 -0.70087713 53 135 113
0.00094755995 -0.20677863 -0.70039839 51 134 113
0.0011909201 -0.20709933 -0.70036602 50 134 112
0.00071338308 -0.20652723 -0.70042354 51 135 112
0.00031191134 -0.2070805 -0.70036304 48 135 113
-0.0013728435 -0.2055103 -0.70051134 53 134 113
0.0014752829 -0.20529686 -0.70055664 54 134 111
-3.3986405e-05 -0.20640936 -0.70043004 51 134 113
-0.0014767647 -0.20639306 -0.7004199 50 134 113
0.0017205579 -0.20514481 -0.70057422 54 134 111
0.0040714908 -0.20809545 -0.70044929 49 134 113
0.0057521341 -0.20632742 -0.70078313 52 134 111
0.0024907852 -0.20845659 -0.70027471 48 133 113
0.0051816003 -0.20806848 -0.7005477 50 133 112
0.0042139255 -0.20667103 -0.70061392 51 134 112
0.002987009 -0.20602849 -0.7005738 53 134 112
0.0035524594 -0.20711853 -0.70050877 50 134 112
0.0040289066 -0.20684078 -0.70057982 51 134 112
0.0020605163 -0.20731279 -0.70035726 51 134 112
0.0076255873 -0.20631002 -0.70088094 50 134 112
0.008882436 -0.20519523 -0.70106208 50 134 112
0.0065911682 -0.20603767 -0.70085931 52 134 112
0.0080573093 -0.20576772 -0.70096022 50 134 112
0.0062916698 -0.20508644 -0.70094633 53 134 112
-0.022322923 -0.21267401 -0.6999281 51 132 119
-0.02362903 -0.21094863 -0.70049155 54 133 116
-0.021523513 -0.21145314 -0.7004953 47 133 120
-0.023342313 -0.20994979 -0.70091718 51 135 115
-0.023673097 -0.20932339 -0.70113391 52 134 115
-0.022830574 -0.2096964 -0.70106667 50 134 116
-0.023499198 -0.21043277 -0.70071071 53 133 116
-0.022912372 -0.2102059 -0.7008568 50 134 116
-0.020666424 -0.21220928 -0.70021009 49 132 120
-0.018865306 -0.21101621 -0.70072311 52 132 117
-0.019640217 -0.21237364 -0.70021242 51 133 118
-0.018598363 -0.21274975 -0.70014298 52 134 117
-0.018753663 -0.2108779 -0.70077705 52 132 117
-0.018756324 -0.21070281 -0.70083702 52 132 117
-0.019079056 -0.20910998 -0.70143849 50 133 116
-0.021016154 -0.2105456 -0.70086092 47 133 118
-0.018561987 -0.20983818 -0.70115203 51 133 116
-0.020925038 -0.21010432 -0.70103627 46 134 117
-0.019653568 -0.21064596 -0.70082706 50 132 118
-0.014217537 -0.21097861 -0.70060545 54 132 116
-0.015015181 -0.21038951 -0.70074958 53 133 116
-0.013879934 -0.21005842 -0.70082647 53 132 116
-0.013863648 -0.21217498 -0.70031607 54 133 115
-0.015999615 -0.21156576 -0.70046848 52 135 115
-0.01691482 -0.21075222 -0.700818 53 134 115
-0.016309205 -0.2090098 -0.70135295 53 133 115
-0.014094202 -0.20920976 -0.70105177 52 133 116
-0.017034411 -0.2091008 -0.70139784 53 133 115
-0.016537707 -0.21126997 -0.70060056 52 134 115
-0.017102571 -0.21085562 -0.70080221 53 134 115
-0.010838219 -0.2103871 -0.70044339 55 135 113
-0.012040587 -0.21279 -0.70010149 54 133 114
-0.0099794911 -0.21027748 -0.70043063 55 135 113
-0.013241188 -0.21280415 -0.70014167 54 133 115
-0.011823447 -0.21155798 -0.70029092 54 134 114
-0.011331488 -0.21131131 -0.70031303 54 135 114
-0.010884998 -0.20989232 -0.70054132 55 135 114
-0.010403529 -0.20936787 -0.70061171 55 135 114
-0.010893227 -0.20945932 -0.7006467 55 135 113
-0.013606137 -0.21147268 -0.7004773 54 133 115
-0.011640816 -0.21077356 -0.70041692 55 135 114
-0.012290298 -0.21105719 -0.70042413 54 134 114
-0.0083125979 -0.21164465 -0.70009279 51 135 112
-0.0073093986 -0.20907813 -0.70042318 50 137 112
-0.0096539622 -0.21027522 -0.70041472 55 135 113
-0.0086382478 -0.21000244 -0.70037907 53 136 113
-0.0091642123 -0.20904872 -0.70057267 54 136 113
-0.022085423 -0.2131978 -0.69978392 52 132 120
-0.018337471 -0.21449643 -0.69969761 53 134 118
-0.017915664 -0.21465398 -0.6996823 53 134 117
-0.019704463 -0.2136675 -0.69982868 51 134 118
-0.019194447 -0.21299256 -0.70003372 51 134 118
-0.020903926 -0.21350089 -0.69980282 50 134 120
-0.013994195 -0.21308932 -0.70009375 54 133 116
-0.014862682 -0.21492644 -0.69966453 53 134 116
-0.01679364 -0.21473852 -0.69968277 54 133 117
-0.016071171 -0.21353288 -0.69998503 53 134 116
-0.017536577 -0.21499212 -0.69961572 54 133 117
-0.016444422 -0.21344583 -0.70000821 53 134 116
-0.012005126 -0.21471158 -0.69968849 53 134 115
-0.011361608 -0.21409765 -0.69979656 53 134 114
-0.012733418 -0.21503696 -0.69963574 53 134 115
-0.01360664 -0.21315499 -0.70008057 54 133 116
-0.01249402 -0.2137361 -0.69990903 53 134 114
-0.011924019 -0.21301059 -0.70005399 54 133 114
-0.011322824 -0.21352853 -0.69991487 53 134 113
-0.022095166 -0.21429352 -0.69949961 53 134 118
-0.02255288 -0.21459599 -0.69937491 55 134 117
-0.023058252 -0.21408181 -0.69945252 56 134 116
-0.021326575 -0.2154005 -0.69929165 53 134 118
-0.021242172 -0.21435884 -0.699561 51 133 120
-0.02107555 -0.21616066 -0.69911307 55 134 117
-0.020888627 -0.21558785 -0.69926929 53 134 118
-0.018141875 -0.21555042 -0.69943923 54 133 118
-0.017855678 -0.21585089 -0.69937915 54 133 119
-0.017071567 -0.21679673 -0.69916707 54 133 119
-0.016466498 -0.21570896 -0.69946277 53 134 117
-0.013781979 -0.21616547 -0.69940048 51 135 116
-0.01689286 -0.21526112 -0.6995635 53 134 117
-0.011694522 -0.21630131 -0.69937718 52 134 115
-0.011854011 -0.21598278 -0.69944775 52 134 115
-0.01044054 -0.2154391 -0.699534 53 134 114
-0.012033791 -0.21530589 -0.69957721 53 134 115
-0.010428778 -0.21645722 -0.6993432 53 134 114
-0.0097358925 -0.21554606 -0.69950682 53 134 113
-0.025561467 -0.21977188 -0.69819164 58 138 121
-0.025937364 -0.2193628 -0.69823658 59 137 121
-0.021555841 -0.21721578 -0.69884014 55 136 117
-0.022360295 -0.22026509 -0.69819671 55 136 119
-0.023137009 -0.21999289 -0.69824332 55 137 119
-0.023153808 -0.21950361 -0.69834465 55 136 119
-0.021961944 -0.21922781 -0.69841719 54 136 118
-0.024318615 -0.21948642 -0.69832355 57 137 121
-0.0251587 -0.22002593 -0.69818038 57 137 122
-0.023284059 -0.21850464 -0.6985442 56 136 119
-0.024108686 -0.21910629 -0.69839358 56 137 120
-0.019992838 -0.220327 -0.69828552 54 136 118
-0.018298246 -0.21807499 -0.69884843 54 134 119
-0.017988769 -0.22065002 -0.69834346 53 134 118
-0.017751053 -0.21978922 -0.6985333 53 134 118
-0.018833451 -0.21941303 -0.69854313 54 135 118
-0.018298829 -0.21724494 -0.69901848 55 133 118
-0.020037264 -0.21728085 -0.69891089 55 135 117
-0.020759271 -0.21753907 -0.6988157 55 135 117
-0.020897282 -0.21982808 -0.69833249 54 136 118
-0.020689502 -0.21954563 -0.69840306 54 136 118
-0.019721899 -0.21788333 -0.69880396 55 135 117
-0.015557898 -0.21885844 -0.69878703 51 135 117
-0.016282342 -0.21961315 -0.69861305 51 135 117
-0.015535395 -0.22025621 -0.69848502 50 133 116
-0.013711605 -0.21796331 -0.69900811 50 134 116
-0.015944175 -0.22013853 -0.69850439 50 134 116
-0.016586078 -0.21766178 -0.69900441 54 133 118
-0.017551949 -0.21931839 -0.69864053 53 134 118
-0.014778396 -0.21756276 -0.69907457 51 135 117
-0.015363878 -0.21742561 -0.69908631 53 134 117
-0.01716058 -0.21788022 -0.69894409 54 133 118
-0.012816359 -0.21842983 -0.69891018 50 134 115
-0.012897671 -0.21713214 -0.69919068 51 134 116
-0.012150486 -0.21784189 -0.69903922 50 134 115
-0.012616798 -0.217804 -0.69904613 50 135 115
-0.012129769 -0.21730204 -0.69915605 51 134 115
-0.022906462 -0.22437015 -0.69749403 48 136 119
-0.021896739 -0.22112672 -0.69804591 54 136 119
-0.022061709 -0.22359146 -0.69762439 52 135 119
-0.022782903 -0.22201677 -0.69789666 51 135 119
-0.023712436 -0.22140387 -0.69797993 53 136 120
-0.024745757 -0.22141106 -0.69796562 54 136 122
-0.023537623 -0.22236003 -0.69783407 51 135 120
-0.023103461 -0.22170554 -0.69794101 53 136 120
-0.023346657 -0.22162141 -0.6979509 53 136 120
-0.024075728 -0.22214514 -0.69786048 52 136 120
-0.018841406 -0.22355032 -0.69773966 51 136 118
-0.019697361 -0.22422925 -0.69757646 51 137 118
-0.017933184 -0.22322403 -0.69783223 51 135 118
-0.017703326 -0.22400312 -0.69767934 50 136 117
-0.018786144 -0.22267222 -0.69792086 51 136 118
-0.020202696 -0.2231483 -0.69777721 52 136 118
-0.01952455 -0.22194955 -0.69802445 53 136 118
-0.019251563 -0.22197273 -0.69803727 52 135 119
-0.02020324 -0.22145273 -0.69806761 54 136 119
-0.020308452 -0.22232385 -0.69791192 53 137 118
-0.014030738 -0.22325468 -0.69784993 49 135 115
-0.014229601 -0.22392829 -0.6977008 50 136 116
-0.016465068 -0.22409786 -0.69766945 50 136 116
-0.015241396 -0.2242931 -0.6976226 50 136 116
-0.016245825 -0.22451857 -0.69757533 50 136 117
-0.016363548 -0.22114314 -0.698286 50 134 116
-0.017674178 -0.22775748 -0.69688535 48 136 116
-0.018310031 -0.22639002 -0.69716722 48 135 117
-0.01773423 -0.22622558 -0.69721144 48 136 116
-0.018497081 -0.22488639 -0.69747716 49 136 117
-0.020617198 -0.22567792 -0.69725788 48 136 118
-0.020229315 -0.22533318 -0.69733816 49 136 117
-0.019330649 -0.22590806 -0.69724816 47 136 117
-0.019130191 -0.22519648 -0.69739681 49 136 117
-0.020104399 -0.22496642 -0.69741541 50 136 118
-0.01724259 -0.22820397 -0.69679129 49 135 116
-0.013769525 -0.22514851 -0.69744539 50 136 116
-0.015756166 -0.22474672 -0.69752449 50 136 117
-0.015402082 -0.22508843 -0.69745046 50 136 116
-0.016965318 -0.22635441 -0.69718468 50 136 116
-0.017488405 -0.2269659 -0.69705564 49 136 116
-0.016988656 -0.22651036 -0.69715148 49 136 116
-0.018267468 -0.23126459 -0.69619083 53 134 118
-0.017791701 -0.22931817 -0.69656855 49 136 116
-0.019190304 -0.2301445 -0.69635302 50 133 118
-0.018781582 -0.22977357 -0.69643962 48 135 117
-0.018690135 -0.23132919 -0.69615948 53 134 119
-0.01995101 -0.23078652 -0.69620371 50 133 119
-0.020103829 -0.23074727 -0.69620967 50 133 119
-0.014667818 -0.23207578 -0.6961965 53 137 116
-0.015308013 -0.23018251 -0.69647795 49 136 117
-0.014764749 -0.2305768 -0.69643748 49 137 116
-0.016480586 -0.23164855 -0.69618613 53 136 117
-0.014523933 -0.23181888 -0.6962449 52 136 117
-0.015223697 -0.23155876 -0.69625646 53 136 117
-0.017205425 -0.22897141 -0.6966511 49 135 116
-0.017556548 -0.23206814 -0.69607621 54 135 118
-0.01656865 -0.22965541 -0.69654202 50 136 116
-0.013149143 -0.23046359 -0.69651508 50 136 115
-0.013627913 -0.23172849 -0.6962983 52 136 116
-0.01222163 -0.22901919 -0.69677037 48 136 113
-0.01328228 -0.23132908 -0.69637078 51 137 115
-0.019304236 -0.23302855 -0.6958341 52 134 120
-0.019022375 -0.23328362 -0.69578761 52 135 120
-0.020718973 -0.23273578 -0.69582349 51 133 121
-0.014387906 -0.23441067 -0.69576013 53 136 118
-0.01543237 -0.23414487 -0.69575864 53 137 118
-0.015918927 -0.23400249 -0.69576156 53 137 117
-0.014763626 -0.23247425 -0.69612449 53 136 116
-0.015660351 -0.23244394 -0.69609129 54 136 117
-0.010452714 -0.23349227 -0.69607025 57 137 117
-0.01076211 -0.23364647 -0.69603139 56 137 117
-0.010771425 -0.23509355 -0.69576788 57 136 117
-0.013048321 -0.23492995 -0.69571781 53 136 118
-0.010975421 -0.23422094 -0.69591945 56 137 117
-0.01202332 -0.23332158 -0.69605309 54 138 117
-0.012188982 -0.23311529 -0.69608879 54 137 117
-0.01283683 -0.23301229 -0.69609147 54 137 117
-0.019389564 -0.23513764 -0.69541198 50 136 121
-0.018499585 -0.23629437 -0.69523293 48 137 121
-0.017632917 -0.23536673 -0.69540006 53 137 120
-0.019202176 -0.2342713 -0.69557953 51 135 121
-0.018502049 -0.23393327 -0.6956659 53 136 120
-0.015384829 -0.23567034 -0.69546056 52 137 119
-0.016504737 -0.23597492 -0.69533789 51 138 119
-0.016180342 -0.23582231 -0.69538641 51 138 119
-0.01484578 -0.23539288 -0.69554484 52 136 118
-0.014209839 -0.23513208 -0.69562835 52 136 118
-0.013078673 -0.23542182 -0.69562304 53 136 118
-0.012133605 -0.23631296 -0.69548678 54 135 118
-0.010000602 -0.23566893 -0.69569033 59 136 117
-0.016439283 -0.23766407 -0.69507372 46 137 119
-0.017379239 -0.23718914 -0.69509214 47 137 120
-0.017064044 -0.23645514 -0.69521749 50 139 120
-0.014441375 -0.23661433 -0.69533771 50 136 119
-0.011017296 -0.23811084 -0.69522566 52 135 117
-0.010484766 -0.23780428 -0.69529128 53 135 116
-0.011971096 -0.23663941 -0.69543976 53 136 117
-0.01214616 -0.23691963 -0.69538713 53 135 118
-0.010269137 -0.2366522 -0.69550604 58 134 117
-0.011311645 -0.23688687 -0.69542599 54 136 117
-0.011539997 -0.23760511 -0.69530004 53 135 117
-0.013552427 -0.23650299 -0.69539839 50 136 118
-0.0091452049 -0.23761086 -0.69535464 58 135 117
-0.0090072565 -0.23810364 -0.69526583 56 135 116
-0.0096189324 -0.23828028 -0.69521695 52 136 116
-0.0086501287 -0.23949598 -0.69501418 53 135 116
-0.0062104929 -0.24197967 -0.69466275 54 136 118
-0.0063134125 -0.24166301 -0.69470936 56 135 118
-0.0077904765 -0.24222009 -0.69457603 52 134 119
-0.0075239004 -0.24215591 -0.69459438 53 134 118
-0.0066529401 -0.24063878 -0.69486183 60 134 118
-0.0066619329 -0.2406107 -0.69486612 60 134 118
-0.0072199493 -0.24068964 -0.69483888 58 134 118
-0.0039425762 -0.24351044 -0.6945594 54 136 116
-0.0056563728 -0.2418793 -0.69470662 54 136 118
-0.0045922385 -0.24252133 -0.69469619 52 137 117
-0.0033867336 -0.24799542 -0.69376653 51 131 119
-0.0029938323 -0.24790621 -0.69378799 55 130 119
-0.0030456069 -0.24726534 -0.6939165 55 131 119
-0.003546081 -0.24681975 -0.69400167 50 133 117
-0.0031450535 -0.24478598 -0.69438845 58 134 115
-0.0032507908 -0.24869409 -0.69366074 53 130 120
0.00055450725 -0.25086102 -0.69349134 47 138 116
0.00048900046 -0.25077972 -0.69350195 48 136 117
0.0012155779 -0.25065714 -0.69354874 53 136 117
0.00050772575 -0.2501691 -0.69360077 52 136 116
-4.5395689e-05 -0.24947596 -0.69367975 56 134 115
0.0022938154 -0.25169075 -0.69342661 48 138 118
0.0031446277 -0.25146002 -0.69349051 52 137 118
0.0047339918 -0.25187057 -0.69344664 54 138 119
0.0038710611 -0.25084621 -0.69362599 55 137 117
0.0035380665 -0.25032589 -0.69371808 56 137 116
0.006997698 -0.25175977 -0.69356328 53 137 117
0.0019370507 -0.25278065 -0.69320887 44 137 119
0.00098911207 -0.25209236 -0.69331181 42 139 119
0.0017032861 -0.25201431 -0.69334978 45 139 119
0.0055196183 -0.25412497 -0.69313484 41 137 117
0.0048732427 -0.25275639 -0.69327909 52 136 119
0.0033800071 -0.25333607 -0.69313389 45 137 118
0.0027568641 -0.25335112 -0.6931169 43 137 118
0.0029599508 -0.25382417 -0.69303042 42 136 118
0.0037283842 -0.25200653 -0.6933977 51 138 119
0.0063760937 -0.25312394 -0.69332784 46 137 117
0.0061869193 -0.25306547 -0.69332463 47 138 118
-0.017975962 -0.19953217 -0.70602959 61 135 113
-0.017975988 -0.19909757 -0.70612895 59 137 112
-0.017856345 -0.19953242 -0.70601338 60 136 112
-0.013866388 -0.19857928 -0.70448244 59 138 114
-0.015010093 -0.20024061 -0.70472884 59 136 115
-0.014485985 -0.19959448 -0.70460278 59 136 115
-0.01427477 -0.20006967 -0.70446819 58 135 117
-0.015526311 -0.20051678 -0.70489401 60 135 115
-0.016656414 -0.19828984 -0.70580316 57 136 112
-0.017235655 -0.19781412 -0.70619899 53 139 110
-0.017227121 -0.20006445 -0.70568025 62 135 113
-0.017286455 -0.1993704 -0.70586836 59 136 112
-0.012778191 -0.19973865 -0.70393091 59 137 116
-0.013456305 -0.19786447 -0.70440644 60 139 113
-0.013193673 -0.20004031 -0.70405716 57 137 116
-0.012176387 -0.19950058 -0.70368725 64 136 115
-0.013138302 -0.19801414 -0.70425171 62 138 113
-0.012948682 -0.19802719 -0.7041654 63 137 113
-0.023433713 -0.20405313 -0.70396519 51 141 113
-0.023051143 -0.20421447 -0.70394772 50 141 114
-0.020600449 -0.20438716 -0.70408314 47 141 115
-0.017987372 -0.20296262 -0.7046631 63 133 116
-0.019115502 -0.20321013 -0.7046113 56 137 115
-0.020153018 -0.20483774 -0.70380718 50 139 116
-0.01826003 -0.20290315 -0.70471507 61 134 116
-0.019324977 -0.20290504 -0.70479226 54 138 114
-0.020726189 -0.20298339 -0.70493406 60 137 116
-0.020713538 -0.2033986 -0.70468211 55 139 116
-0.013985164 -0.20248525 -0.70370567 58 133 119
-0.01505577 -0.20349878 -0.70355809 62 131 120
-0.013822793 -0.20148577 -0.70403099 55 135 119
-0.016544338 -0.2027849 -0.70433623 63 132 117
-0.016122844 -0.20173782 -0.70474112 61 133 116
-0.015275301 -0.20269522 -0.70390123 60 132 119
-0.016919939 -0.20380983 -0.70392585 64 131 118
-0.017479245 -0.20406552 -0.70400083 66 130 118
-0.015438531 -0.20258349 -0.70402372 60 133 118
-0.016948001 -0.20286669 -0.70444584 64 132 117
-0.013151658 -0.20175752 -0.70370227 58 134 118
-0.020798787 -0.20512718 -0.70369583 46 140 116
0 0 0 1 0 0 0 1 0 0 0 1 0 0 0 0 0 706 1 0 0
