ply
format ascii 1.0
comment PCL generated
element vertex 816
property float x
property float y
property float z
property uchar red
property uchar green
property uchar blue
element camera 1
property float view_px
property float view_py
property float view_pz
property float x_axisx
property float x_axisy
property float x_axisz
property float y_axisx
property float y_axisy
property float y_axisz
property float z_axisx
property float z_axisy
property float z_axisz
property float focal
property float scalex
property float scaley
property float centerx
property float centery
property int viewportx
property int viewporty
property float k1
property float k2
end_header
0.071417198 0.27932438 -0.80546224 54 135 124
0.0706442 0.27969971 -0.80538386 54 135 124
0.070151918 0.28010273 -0.80535221 53 135 123
0.072178788 0.27869761 -0.80553234 54 136 124
0.070785239 0.27916485 -0.80535114 53 134 124
0.075457878 0.27690494 -0.80609411 53 135 123
0.075278223 0.27577689 -0.8059606 51 135 123
0.074085534 0.27578801 -0.80571181 50 135 123
0.075423166 0.27543145 -0.80596161 50 135 123
0.07340461 0.27781385 -0.80572891 54 135 124
0.072333708 0.27823633 -0.80552596 54 136 124
0.072402403 0.27834851 -0.8055495 54 135 124
0.072446056 0.27852243 -0.80557215 54 136 124
0.07716018 0.27579013 -0.80646181 51 135 124
0.077917196 0.2758238 -0.80670661 51 134 124
0.076608852 0.27607489 -0.80630916 52 135 123
0.076641463 0.27621225 -0.8063311 52 135 123
0.076639876 0.27648309 -0.80635357 52 135 123
0.081062324 0.27594948 -0.8078016 51 135 126
0.081085227 0.27542934 -0.80777103 50 134 126
0.081059836 0.27614945 -0.80781597 51 135 126
0.075561203 0.27174991 -0.80566144 43 134 123
0.072934911 0.27268592 -0.80512118 45 135 124
0.072655223 0.27350032 -0.80515409 46 135 124
0.074805275 0.27259678 -0.80557925 43 136 123
0.07565064 0.27264345 -0.80577093 44 136 123
0.079028077 0.27378505 -0.80688798 45 134 125
0.079698712 0.27280688 -0.80700803 42 135 124
0.078544311 0.27345499 -0.80670601 45 134 125
0.079712018 0.2727319 -0.80700529 42 134 124
0.078845061 0.27225542 -0.80668974 42 134 124
0.076232925 0.27277932 -0.80591118 45 135 123
0.0763622 0.27321696 -0.80598998 46 134 123
0.076495908 0.27331546 -0.80604124 46 134 123
0.076384746 0.27496797 -0.80614686 50 136 123
0.08208707 0.27210018 -0.80784714 42 133 124
0.083636232 0.27497932 -0.80875009 51 134 126
0.083010934 0.27261081 -0.80825847 44 134 124
0.082922637 0.27362639 -0.80833131 47 133 125
0.082968228 0.27268857 -0.80825007 44 134 124
0.081418097 0.27457735 -0.80782628 47 134 126
0.080322728 0.27513862 -0.80743963 47 135 126
0.081901878 0.27488106 -0.80804783 48 134 126
0.081003264 0.27427843 -0.80763274 46 135 125
0.080871299 0.27522501 -0.8076672 48 134 126
0.08179199 0.27484936 -0.80800092 48 134 126
0.084080279 0.2727249 -0.80869967 45 134 124
0.076033153 0.26966035 -0.80556267 40 133 124
0.076019257 0.27110767 -0.80570483 42 134 123
0.075916223 0.27046412 -0.80561423 41 134 124
0.075226255 0.26910374 -0.80530435 40 132 125
0.075484946 0.26805845 -0.80527288 38 131 125
0.075652495 0.26814535 -0.8053177 38 132 125
0.078048535 0.26834327 -0.80603224 37 131 124
0.078122564 0.26829264 -0.80604798 36 133 124
0.078543447 0.26902622 -0.80625957 37 131 124
0.079385631 0.26823393 -0.80641323 36 132 124
0.079671748 0.27088201 -0.80681348 38 134 124
0.079220839 0.26868901 -0.80641896 36 133 124
0.076683611 0.26834074 -0.80562502 38 131 125
0.07649219 0.26857054 -0.80558819 38 132 124
0.0780195 0.27055433 -0.80626643 39 133 124
0.077240437 0.27123633 -0.80609089 41 134 124
0.076319814 0.27010339 -0.80568844 41 133 124
0.083847836 0.2693862 -0.80825627 42 133 123
0.083159722 0.27051255 -0.80808449 41 132 124
0.083350092 0.26855347 -0.80797172 41 132 124
0.082658798 0.2689696 -0.8077296 40 131 124
0.08393424 0.26945648 -0.80829841 42 133 123
0.082865193 0.26850665 -0.80776894 41 131 124
0.082257666 0.27015853 -0.80769002 40 132 124
0.080211505 0.26810524 -0.80665356 36 130 124
0.081158742 0.26899335 -0.80712593 38 131 124
0.082081631 0.27087244 -0.80770713 40 133 124
0.081119612 0.27002102 -0.80723339 38 132 124
0.085180923 0.26915121 -0.80890697 42 131 124
0.084251642 0.26830903 -0.80834842 42 133 123
0.084251903 0.26796114 -0.80831182 42 131 124
0.08454036 0.27108669 -0.80877936 42 133 124
0.084752537 0.2711747 -0.80890316 42 133 124
0.075251147 0.26711503 -0.80510455 36 133 124
0.077579506 0.26415813 -0.80530298 36 130 123
0.07742855 0.26442674 -0.80529571 36 130 123
0.078420699 0.26508635 -0.80573946 36 132 124
0.077504255 0.2662248 -0.8056165 36 133 124
0.078234926 0.2650058 -0.80566323 36 132 124
0.079896346 0.26652282 -0.80635822 36 130 123
0.079656936 0.26534969 -0.80614626 36 130 124
0.078718483 0.26527774 -0.805861 36 132 124
0.077612862 0.26752278 -0.80580592 36 133 124
0.078259811 0.26692367 -0.8059243 36 132 124
0.082816072 0.26450673 -0.8073135 42 131 123
0.081779845 0.26424 -0.80684739 40 130 124
0.080936074 0.26409209 -0.80647534 38 131 123
0.083562665 0.26630068 -0.80782109 42 132 123
0.082930401 0.26453257 -0.80736452 42 131 123
0.082150653 0.26755843 -0.80738401 39 131 124
0.080782101 0.26542497 -0.80656725 38 130 124
0.081971474 0.26575243 -0.80709302 39 131 124
0.080413461 0.26709896 -0.80661839 36 130 123
0.08109162 0.26722997 -0.80691141 38 130 124
0.085468866 0.26476005 -0.80859953 42 131 123
0.085662462 0.26564443 -0.80878943 42 131 123
0.085066274 0.26539996 -0.80845445 43 131 123
0.084780835 0.2644268 -0.80820787 43 131 122
0.08469823 0.26697245 -0.80843198 42 131 124
0.084122658 0.26472032 -0.80789953 43 132 122
0.084069178 0.26552108 -0.80795836 43 132 123
0.078246124 0.26263496 -0.80527544 36 130 124
0.078669377 0.26267585 -0.80542529 36 132 123
0.07823351 0.26280844 -0.80530018 36 130 124
0.079820074 0.26084429 -0.80550742 40 131 124
0.078925699 0.26020989 -0.80509084 39 131 124
0.083309248 0.26241791 -0.80722499 43 133 123
0.08367759 0.26146209 -0.8072269 45 132 123
0.082965933 0.2603187 -0.80673712 45 132 124
0.083750769 0.26263434 -0.80744874 44 132 123
0.080633193 0.26017162 -0.80571705 42 133 125
0.083302818 0.26034033 -0.80688453 45 133 124
0.081032462 0.26122278 -0.80606091 41 132 124
0.08166638 0.26150042 -0.80637497 42 132 124
0.082564443 0.26366833 -0.8071171 42 131 123
0.081035882 0.2618815 -0.80617261 41 131 124
0.080180973 0.26277944 -0.80596209 38 131 124
0.081655987 0.26333469 -0.8066777 40 131 123
0.085989147 0.26017341 -0.80814779 46 132 124
0.086599104 0.26164612 -0.80871248 44 133 123
0.086539581 0.26238427 -0.80881459 43 131 122
0.08586321 0.26112926 -0.80825585 45 131 123
0.086122125 0.26276672 -0.808676 43 131 122
0.086207949 0.26021132 -0.80826294 46 132 124
0.085313573 0.26358119 -0.80839431 42 133 122
0.083993122 0.25986651 -0.8071031 46 132 124
0.084232196 0.26235282 -0.80763173 44 133 123
0.079788767 0.25907549 -0.80517995 41 133 124
0.0806778 0.25692484 -0.80511898 44 135 123
0.080845177 0.25671569 -0.80514902 44 135 123
0.080710024 0.25813159 -0.80536181 43 134 123
0.080235198 0.25891826 -0.80531579 42 133 124
0.08345893 0.25620613 -0.80613697 47 134 123
0.083919235 0.25945488 -0.80699116 47 132 124
0.082488962 0.25774121 -0.8060326 45 133 123
0.08395759 0.25723785 -0.8065576 47 133 123
0.081812762 0.2587533 -0.80594927 43 134 124
0.083526254 0.25974825 -0.80688292 46 132 124
0.083509803 0.25814706 -0.80655092 47 132 124
0.087658621 0.25680882 -0.80836302 47 132 124
0.085810095 0.25918522 -0.80788064 47 132 124
0.087594524 0.25947443 -0.80881715 47 132 124
0.087552845 0.25643852 -0.80824322 47 132 124
0.087141469 0.25667644 -0.80808276 47 132 124
0.087622084 0.2589106 -0.80872804 47 132 124
0.085320599 0.25595126 -0.80699748 48 132 123
0.085285448 0.25596535 -0.80698216 48 132 123
0.086157136 0.25650838 -0.80754215 47 132 123
0.084424898 0.25805536 -0.80696231 47 132 123
0.085549287 0.25719905 -0.8073687 47 132 123
0.085080236 0.25621921 -0.80692774 48 132 123
0.088628881 0.25682637 -0.80892789 47 132 124
0.081845857 0.25545391 -0.80531424 46 134 122
0.083838299 0.25538021 -0.80612421 49 134 122
0.081906557 0.25565031 -0.80538219 46 133 123
0.0834793 0.25545439 -0.80599153 47 134 122
0.082404532 0.25557366 -0.80557197 47 134 123
0.082748957 0.25275376 -0.80509722 50 133 123
0.087888762 0.25365233 -0.80781126 50 133 124
0.084984213 0.25199169 -0.80595666 51 134 123
0.084930301 0.2523669 -0.80601287 51 133 123
0.086181432 0.25374204 -0.80695903 50 132 123
0.086209737 0.25415426 -0.80706555 50 131 124
0.087410145 0.25519842 -0.80791193 47 132 124
0.084587567 0.25438452 -0.80627882 50 133 123
0.085770138 0.25393131 -0.80679017 50 132 123
0.084852956 0.25441527 -0.80642253 50 133 123
0.085231118 0.25471151 -0.80668223 48 133 123
0.085642271 0.25578088 -0.80712765 48 132 123
0.084727094 0.25279298 -0.80600369 51 132 123
0.089442395 0.25469083 -0.80896717 48 132 124
0.089720532 0.25203347 -0.80852062 50 134 123
0.088863581 0.25416616 -0.80850863 50 131 124
0.089002572 0.25247687 -0.80820268 50 133 123
0.087954216 0.25491476 -0.80813247 48 132 124
0.088204153 0.25524059 -0.80835646 47 132 124
0.083905362 0.25063744 -0.80508631 52 133 122
0.085300453 0.24835305 -0.80519468 54 133 124
0.085118778 0.24959128 -0.80540842 53 134 123
0.08529643 0.2494777 -0.80546582 53 134 123
0.087067716 0.24881184 -0.80615145 56 134 125
0.08480338 0.25070077 -0.80552602 52 134 123
0.085221611 0.25159678 -0.80597138 52 133 123
0.085868791 0.25152633 -0.80628276 52 134 123
0.087853238 0.24864781 -0.80650574 56 134 125
0.086097762 0.25180012 -0.80647486 52 133 123
0.087672643 0.25189111 -0.80730444 52 134 123
0.08504492 0.251026 -0.80572438 52 134 123
0.091352902 0.249514 -0.80884677 51 133 123
0.088728793 0.2516768 -0.80785364 51 134 123
0.090646058 0.25071585 -0.80873406 50 134 123
0.089565605 0.25142193 -0.80827898 51 134 123
0.088595651 0.2513583 -0.80769628 51 134 123
0.088456601 0.24858083 -0.80685127 55 134 124
0.088908046 0.24924313 -0.80730832 54 133 124
0.089735523 0.24861097 -0.80763882 54 133 124
0.089140505 0.24921201 -0.80744141 54 133 124
0.090261951 0.24904661 -0.80807924 52 134 123
0.089815319 0.24861856 -0.80768955 54 133 124
0.091868058 0.24874522 -0.80896181 52 133 123
0.087447636 0.2465933 -0.80578089 56 134 124
0.087495245 0.24507377 -0.8054201 55 133 122
0.087785974 0.24443322 -0.80539751 55 133 122
0.087139182 0.24659739 -0.80563432 55 134 123
0.087112583 0.24764134 -0.80588514 56 133 125
0.086054899 0.24657889 -0.80510795 54 133 122
0.091547385 0.2473291 -0.80839634 52 133 123
0.088739008 0.24433239 -0.80592453 54 133 122
0.090763941 0.24674994 -0.80777729 52 134 122
0.091392435 0.24465933 -0.80757266 53 133 123
0.089156188 0.24440776 -0.80619025 54 133 123
0.090908833 0.24610367 -0.80768508 52 133 123
0.090540662 0.24697532 -0.80770397 53 133 123
0.090619296 0.24726099 -0.80782402 53 133 123
0.088895552 0.24761155 -0.80686224 55 133 124
0.08844614 0.24739774 -0.80653435 56 133 125
0.090765297 0.24761592 -0.80800259 52 134 123
0.0912259 0.24763329 -0.80828762 52 133 123
0.089155637 0.24753685 -0.80700183 55 133 124
0.093172021 0.24482653 -0.80881917 50 132 123
0.093333915 0.24465971 -0.80888718 50 131 123
0.092338592 0.24646977 -0.80868351 52 132 123
0.08891397 0.24130745 -0.80521309 55 132 123
0.088391155 0.24269606 -0.80527776 55 133 123
0.088922016 0.24252521 -0.80555564 55 132 123
0.090596899 0.24289107 -0.80664712 54 132 123
0.089899257 0.24250129 -0.80613881 54 133 123
0.090541832 0.24411702 -0.80692476 53 133 123
0.088999532 0.24408017 -0.80600965 54 133 123
0.088808246 0.24410687 -0.80590409 54 133 122
0.08918535 0.24395919 -0.80608821 54 133 123
0.09399531 0.24249607 -0.80876851 48 131 123
0.093834512 0.24235798 -0.80862296 50 131 124
0.0932393 0.24213487 -0.80816013 51 131 124
0.094772436 0.2404463 -0.80875582 47 131 123
0.094551176 0.24151164 -0.80888641 47 132 123
0.092754468 0.24407351 -0.80832225 52 131 124
0.093422934 0.24411234 -0.8088007 50 131 123
0.0918051 0.2436655 -0.80755341 53 133 123
0.094231032 0.23879024 -0.80793631 52 130 124
0.095007107 0.23982732 -0.80874759 48 130 124
0.093645059 0.23930135 -0.8076787 52 131 124
0.094864637 0.24015346 -0.80874038 47 131 123
0.096150622 0.23732471 -0.8088975 52 130 124
0.099557757 0.26097935 -0.81776315 53 132 126
0.099304438 0.26063275 -0.81744862 53 131 126
0.098907314 0.26050821 -0.81707323 52 132 126
0.09998779 0.26030585 -0.81802022 52 133 126
0.099698775 0.26073021 -0.81783754 53 132 126
0.099042237 0.25961852 -0.8169921 51 133 126
0.099336058 0.25909838 -0.8171351 51 131 126
0.10043716 0.25874466 -0.81812054 52 131 126
0.099754266 0.2571111 -0.81709236 47 132 125
0.10017996 0.25713938 -0.81752247 49 131 126
0.099971093 0.25663519 -0.81720126 47 132 125
0.10052485 0.2571145 -0.81785107 50 131 126
0.10170241 0.25671691 -0.81887895 52 132 126
0.10009968 0.2555947 -0.81708378 47 131 125
0.10100187 0.25249755 -0.81716776 46 131 126
0.10237894 0.25228366 -0.81839782 48 133 126
0.10028967 0.25475204 -0.81705338 47 131 126
0.10111082 0.25328249 -0.81746024 47 132 126
0.1029902 0.24909529 -0.81804734 48 133 126
0.10194338 0.24848133 -0.8169294 47 132 126
0.10145833 0.25068641 -0.81709373 46 131 126
0.10128704 0.25043038 -0.81686944 46 131 126
0.10343331 0.24478027 -0.81714243 48 133 126
0.10323866 0.24544366 -0.81717247 48 132 127
0.10284621 0.24757002 -0.81747723 48 132 126
0.10333801 0.24425396 -0.81689388 48 132 127
0.082447365 0.2365718 -0.8010729 49 132 121
0.083736077 0.23361249 -0.80080587 52 134 122
0.083307348 0.23339637 -0.80059522 53 133 122
0.083268099 0.23492016 -0.80096281 51 132 122
0.083652161 0.23351702 -0.80075079 52 134 122
0.082914032 0.23563524 -0.80101329 50 132 121
0.082827374 0.23333064 -0.80040848 54 133 122
0.082431369 0.23329926 -0.80026382 54 133 121
0.084661298 0.23318309 -0.80109757 54 133 122
0.083799951 0.22939254 -0.79982519 55 135 123
0.082771607 0.23120111 -0.79983461 55 133 123
0.083783761 0.23000734 -0.79996061 55 134 123
0.083420075 0.23208889 -0.80030811 54 133 123
0.084147416 0.23136282 -0.80042708 55 133 123
0.084190622 0.23080964 -0.80031914 55 134 123
0.083643295 0.22715755 -0.7991454 55 134 125
0.082732759 0.22703972 -0.79874825 55 135 124
0.084782228 0.22780159 -0.79977274 56 135 124
0.083992697 0.22738709 -0.79935396 55 135 125
0.084633313 0.22783311 -0.79972649 56 135 124
0.091725029 0.27296984 -0.81331968 48 132 124
0.091103382 0.27344161 -0.81297928 50 132 125
0.094150454 0.27375042 -0.81526005 50 132 125
0.095641613 0.27315539 -0.81641847 50 132 125
0.095543347 0.27195016 -0.81625134 50 132 125
0.093339704 0.27202037 -0.81448042 47 132 125
0.095218062 0.27151302 -0.81595731 48 132 125
0.09558031 0.27230456 -0.81630695 50 132 125
0.095026843 0.27156824 -0.81580716 48 132 125
0.093148097 0.27402067 -0.81451833 50 132 125
0.091975011 0.27353379 -0.8135643 49 132 124
0.091932677 0.27343991 -0.81352133 49 132 124
0.095947407 0.27236301 -0.81663334 50 132 125
0.091500476 0.27140936 -0.81298822 45 131 125
0.092270568 0.26825401 -0.81319845 45 132 125
0.09252017 0.26983204 -0.81354666 46 132 125
0.092855059 0.26893586 -0.81369412 46 132 125
0.094582811 0.26823297 -0.81487298 48 133 125
0.092547424 0.26980719 -0.81356376 46 132 125
0.093480133 0.270385 -0.81434906 47 133 125
0.092363797 0.27105308 -0.81357425 46 132 125
0.094745137 0.26884487 -0.81508076 48 133 125
0.095366314 0.27093175 -0.81597143 48 132 125
0.095158897 0.26833096 -0.81531823 49 133 126
0.09476383 0.26982799 -0.81527954 48 132 125
0.095788024 0.27077755 -0.81629097 50 132 125
0.095409945 0.26690772 -0.81528467 49 133 126
0.094888814 0.26598722 -0.81474364 48 133 126
0.094041333 0.26643372 -0.8142091 47 133 125
0.094500385 0.26695213 -0.81463367 48 133 126
0.095682211 0.26743144 -0.81557494 50 133 126
0.094860151 0.26554421 -0.8146441 48 132 126
0.094520763 0.26418254 -0.8141672 47 132 125
0.092646025 0.26653698 -0.8132214 45 132 125
0.093370259 0.26495275 -0.8134771 46 131 125
0.093864597 0.26465315 -0.8137787 47 131 126
0.092764892 0.26659977 -0.81331581 45 132 125
0.096370898 0.26572913 -0.8159225 52 133 126
0.096511528 0.26545092 -0.815997 52 133 126
0.096513316 0.26529542 -0.81596887 52 133 126
0.095713966 0.26479441 -0.81513184 50 132 126
0.096019477 0.26697707 -0.81581044 52 133 126
0.095226415 0.26055798 -0.81391853 46 132 125
0.094710305 0.26281446 -0.81403518 47 132 125
0.094708875 0.26158556 -0.81377149 47 132 126
0.094310142 0.263107 -0.81381416 47 132 126
0.09489876 0.26147118 -0.81388158 47 132 126
0.094319128 0.25976971 -0.81310958 46 132 125
0.095071778 0.2602849 -0.81375104 46 132 125
0.094647832 0.26004231 -0.81339985 46 132 125
0.097895928 0.26109949 -0.81632298 52 131 126
0.097596735 0.2608645 -0.81600577 51 131 126
0.098045394 0.26044878 -0.81630599 51 131 126
0.098008707 0.26007205 -0.81618762 50 132 126
0.098489128 0.26068017 -0.81674963 52 131 126
0.097983629 0.26200992 -0.81660819 53 132 127
0.096361846 0.26215026 -0.8151952 51 131 127
0.096030086 0.26214996 -0.81489372 50 131 126
0.095568143 0.25733522 -0.81348705 46 130 125
0.095650278 0.25678554 -0.81343108 46 131 124
0.095255688 0.25698876 -0.81319427 46 130 125
0.094441503 0.2586216 -0.81296158 46 131 125
0.099188633 0.25788745 -0.8167519 49 131 126
0.097339019 0.25882182 -0.8153246 47 132 125
0.098119564 0.25935706 -0.8161273 50 131 126
0.098515734 0.25971416 -0.81655312 50 132 126
0.098126471 0.25796291 -0.81583321 47 132 125
0.097727939 0.25895 -0.81569475 48 132 126
0.097654633 0.25846389 -0.81552553 47 132 125
0.09699937 0.2571407 -0.81467378 46 131 125
0.095729828 0.25703517 -0.8135435 46 131 124
0.097953662 0.25679815 -0.81543583 46 132 125
0.097374029 0.2580514 -0.8151899 46 132 125
0.096977465 0.2571803 -0.81466287 46 131 125
0.098135494 0.25719181 -0.81567627 46 132 125
0.097555459 0.25774971 -0.81528568 46 132 125
0.099155523 0.2562798 -0.81637746 46 132 125
0.096654229 0.252314 -0.81327808 45 131 125
0.097476549 0.25231239 -0.81397235 45 130 125
0.0964351 0.25242072 -0.81311721 45 132 125
0.096310683 0.25491679 -0.81357658 45 130 125
0.09901192 0.25246131 -0.81530273 43 131 125
0.098626293 0.25284138 -0.81506294 43 131 125
0.098799706 0.25488907 -0.8157326 46 131 125
0.099354513 0.25268564 -0.81565624 43 131 125
0.099595137 0.25235647 -0.81578255 43 131 125
0.098701969 0.25517547 -0.8157202 46 131 125
0.098650225 0.25405043 -0.81538868 45 131 125
0.098360553 0.25384727 -0.8150841 45 130 125
0.099548623 0.25453809 -0.81629711 45 131 125
0.09974885 0.25500065 -0.81660217 46 131 125
0.1001694 0.25290102 -0.81647748 45 131 125
0.099649027 0.25464147 -0.81641448 46 131 125
0.098948762 0.25071317 -0.81480736 43 131 125
0.098609149 0.25031227 -0.81441474 43 131 125
0.099554107 0.24937314 -0.81496531 43 130 126
0.0985462 0.2493234 -0.8141008 43 130 126
0.097131826 0.25123724 -0.81341082 45 131 125
0.098014057 0.25171474 -0.81428194 43 131 125
0.097714141 0.2486303 -0.8132183 44 131 125
0.097452238 0.24991859 -0.81333494 44 131 125
0.097525999 0.25001654 -0.81342274 45 131 125
0.09839265 0.24870682 -0.81380999 43 131 125
0.10106783 0.25001213 -0.81655258 45 132 125
0.10098013 0.25049451 -0.81660622 45 132 125
0.10176991 0.24807255 -0.81665862 46 132 126
0.1010716 0.24887142 -0.81623822 45 132 125
0.099754229 0.2492774 -0.81512761 43 130 126
0.10011523 0.25055838 -0.81581622 44 131 125
0.099707067 0.25174299 -0.81573194 43 131 125
0.09844479 0.24705239 -0.81339031 44 131 125
0.098649256 0.24792369 -0.81381732 43 131 125
0.099537656 0.24705113 -0.81431073 43 130 127
0.098461986 0.24789417 -0.81365091 44 131 125
0.098475486 0.24588494 -0.81308526 43 130 126
0.10108962 0.24469802 -0.81501693 45 131 127
0.10126124 0.24649891 -0.81572413 45 131 126
0.10034012 0.24462003 -0.81432188 43 131 127
0.10243377 0.24600999 -0.81662369 47 133 126
0.10128277 0.24619177 -0.81564903 45 131 126
0.10223548 0.24546184 -0.81627768 47 133 127
0.10022359 0.24472068 -0.8142485 43 131 127
0.10085029 0.2475718 -0.81566584 45 131 126
0.10106585 0.24764127 -0.81588465 45 131 126
0.099734075 0.24606569 -0.8141979 43 130 127
0.10075283 0.24671406 -0.81532538 44 131 126
0.099161707 0.24352764 -0.81298381 43 130 127
0.10198127 0.24408403 -0.81562698 46 133 127
0.10086531 0.24378775 -0.81453937 45 131 127
0.10047349 0.24364446 -0.81414574 44 131 126
0.1012261 0.24353088 -0.81478566 45 132 126
0.10339492 0.24364126 -0.81675076 48 133 126
0.10284201 0.24332386 -0.81616098 48 133 126
0.10140216 0.24211584 -0.81451225 47 132 126
0.10080819 0.2408752 -0.81360847 47 132 125
0.10295349 0.24310265 -0.81619179 48 133 126
0.1003536 0.24148358 -0.81338751 46 132 125
0.10232218 0.24195892 -0.81527919 48 133 126
0.10153873 0.24110119 -0.81432104 48 132 125
0.10057102 0.24022529 -0.81319588 48 132 125
0.10148137 0.24004732 -0.8139407 48 132 125
0.069038086 0.27760506 -0.80496716 46 133 123
0.068972722 0.27755544 -0.80495369 46 133 123
0.068722188 0.27786386 -0.8049379 46 133 123
0.072211839 0.27289653 -0.80497366 46 134 124
0.071989276 0.27218822 -0.80485249 45 134 125
0.070906185 0.27445531 -0.80497283 45 134 123
0.070051476 0.27182412 -0.80455148 42 132 124
0.069748767 0.27228093 -0.80455977 42 133 123
0.069051281 0.27171856 -0.80440933 41 132 124
0.070907265 0.271559 -0.80463582 43 132 125
0.072276622 0.27171364 -0.80483717 45 134 125
0.067989126 0.26943883 -0.8040297 37 131 124
0.068200342 0.27055192 -0.80417454 38 132 124
0.0698478 0.2682969 -0.80415964 38 133 124
0.070130751 0.26897126 -0.80425936 40 131 124
0.070793778 0.26814017 -0.80430037 38 133 124
0.070268348 0.26887238 -0.80427372 39 132 124
0.072190098 0.26945484 -0.80463165 41 132 124
0.072060175 0.26865456 -0.80454671 40 131 124
0.068949163 0.27136347 -0.80435801 40 132 124
0.070277765 0.27047122 -0.80443317 41 132 124
0.069628417 0.27031121 -0.80433035 41 132 124
0.068962499 0.27044627 -0.80425805 40 131 124
0.069216497 0.27061769 -0.80431038 40 131 124
0.073892504 0.26913422 -0.8050009 40 132 124
0.074098825 0.26801258 -0.80495405 38 131 125
0.073177025 0.26851207 -0.80478323 38 132 124
0.072938196 0.26956227 -0.80481654 41 132 124
0.072460905 0.27075914 -0.80479616 43 133 125
0.068036579 0.26700422 -0.80373502 36 130 124
0.068310983 0.26432192 -0.80330402 36 130 122
0.069240361 0.26444981 -0.80347192 36 130 122
0.072095022 0.26584464 -0.80415887 37 133 123
0.072038777 0.26510426 -0.80401838 37 133 123
0.069380984 0.26460218 -0.80352068 36 130 122
0.072020598 0.26572767 -0.80412662 37 133 123
0.068783715 0.2666961 -0.80378014 36 130 124
0.075943664 0.26540333 -0.80498117 36 132 123
0.075423285 0.2646367 -0.80473971 36 130 123
0.075412311 0.26479673 -0.80476344 36 130 123
0.074333139 0.26662031 -0.80481404 36 132 124
0.075086981 0.26632795 -0.8049401 36 132 124
0.074615173 0.26497766 -0.8046056 36 132 123
0.073067255 0.26380038 -0.80401701 37 133 122
0.073720634 0.26523837 -0.80443311 36 132 123
0.072981499 0.26460737 -0.80413979 37 131 123
0.074449822 0.2647236 -0.80451989 36 132 123
0.074551359 0.26416463 -0.80444515 36 132 123
0.076334089 0.26525941 -0.80506182 36 132 123
0.067619704 0.26204902 -0.80283141 38 131 120
0.067399159 0.26035738 -0.80250722 40 132 120
0.068349086 0.26173267 -0.80285186 38 133 121
0.06602525 0.26050359 -0.80238867 41 132 120
0.066683248 0.26182312 -0.80269271 39 132 120
0.067917526 0.26328063 -0.8030827 36 130 121
0.065681867 0.26128262 -0.8024959 40 132 120
0.070924878 0.26166654 -0.8032347 40 132 122
0.070220433 0.26111782 -0.803029 41 131 122
0.070397384 0.26048854 -0.80294359 42 132 122
0.069341019 0.26025426 -0.80274034 41 132 122
0.070087649 0.26074225 -0.80294162 41 132 122
0.068838485 0.26121059 -0.80283362 40 131 122
0.070591606 0.26322407 -0.80346119 38 131 122
0.06898538 0.26169994 -0.80294329 39 131 122
0.06871517 0.26122421 -0.80281717 39 131 121
0.06916216 0.26072684 -0.80279726 41 131 122
0.069595277 0.26121709 -0.80295104 40 132 122
0.075199209 0.26040527 -0.80393976 38 128 121
0.075395674 0.26190701 -0.80425191 37 129 123
0.074893169 0.26043928 -0.80386978 38 130 121
0.075966373 0.26211783 -0.80443043 35 130 122
0.073734619 0.26093805 -0.80366987 40 130 122
0.07524737 0.26319429 -0.80444235 36 130 123
0.073909163 0.26275447 -0.8040362 38 131 122
0.072836734 0.26246136 -0.80372137 40 131 122
0.073570237 0.26315939 -0.80402565 37 133 122
0.073157035 0.26236826 -0.80378312 40 131 122
0.074523896 0.26354206 -0.80432743 36 132 123
0.078396097 0.26082766 -0.80501556 38 131 123
0.07696937 0.26159608 -0.80465847 36 129 122
0.07814867 0.26044351 -0.80486435 38 129 124
0.077676915 0.26259559 -0.8050738 36 130 123
0.076980114 0.2635068 -0.80499333 35 130 123
0.075237811 0.25855622 -0.80359572 40 129 121
0.079568736 0.2582736 -0.80495185 42 133 123
0.077184312 0.2591325 -0.80429649 38 128 121
0.077883586 0.25829464 -0.80437791 40 130 122
0.078017443 0.2590982 -0.80457598 40 129 123
0.078949571 0.25884694 -0.80484831 40 131 123
0.077027656 0.25765997 -0.80392295 41 129 122
0.077241674 0.25854233 -0.8041994 39 128 122
0.07625173 0.25908574 -0.80394787 38 127 122
0.076789312 0.25782719 -0.80387044 40 129 122
0.077456243 0.25812167 -0.80418664 40 129 122
0.080149449 0.25716257 -0.80494481 44 133 123
0.078709133 0.25285301 -0.80354726 48 132 121
0.08253476 0.25198182 -0.80483139 51 133 122
0.081978776 0.25274912 -0.80476683 50 133 123
0.081282578 0.25289673 -0.80450213 50 133 123
0.082722828 0.25200507 -0.80491716 51 133 122
0.080217421 0.2525855 -0.803976 50 133 123
0.080790237 0.25578001 -0.8049469 46 134 123
0.079250172 0.24837731 -0.80268526 52 133 122
0.0797631 0.25120378 -0.80349946 51 133 122
0.083636902 0.25066045 -0.80497712 52 133 122
0.083026774 0.25135016 -0.8048864 51 133 123
0.081868008 0.25098383 -0.80429959 51 133 123
0.080908164 0.25154459 -0.80402738 51 133 122
0.083131686 0.24938579 -0.80444533 51 133 122
0.083278097 0.24989894 -0.80463493 51 133 123
0.080193907 0.24979931 -0.80332595 51 133 123
0.080491498 0.24941497 -0.80335987 51 133 122
0.080811501 0.25106475 -0.80387002 51 133 123
0.081877641 0.24918184 -0.80387515 51 133 122
0.081296206 0.24880461 -0.80354995 51 133 123
0.080567367 0.24805595 -0.80307889 51 133 123
0.084801711 0.24828751 -0.80493742 52 134 123
0.084395252 0.24903499 -0.80492419 52 133 123
0.079556711 0.24754202 -0.80258816 51 132 122
0.079479985 0.24662659 -0.80234599 50 134 121
0.079806633 0.24500297 -0.80206537 49 135 120
0.079324462 0.24650648 -0.80226731 50 134 121
0.083965972 0.24423032 -0.80345976 51 132 122
0.083190523 0.2445056 -0.80323601 51 132 122
0.081093706 0.24515107 -0.80260468 49 134 121
0.082159795 0.24583071 -0.80319297 50 134 121
0.083451688 0.24548696 -0.80359626 51 132 122
0.08327546 0.24676658 -0.80386817 51 132 122
0.080715522 0.2463998 -0.8027463 50 134 121
0.08186201 0.24625623 -0.80318266 50 134 121
0.08014302 0.24782383 -0.80284965 51 133 122
0.080649145 0.24640307 -0.80271983 50 134 121
0.081178464 0.24560706 -0.80274791 49 135 121
0.085520953 0.24442281 -0.80427641 52 133 122
0.085531436 0.24509592 -0.8044588 52 134 122
0.085856162 0.2442161 -0.80438757 53 132 122
0.086865604 0.24438253 -0.80493003 54 133 122
0.084641568 0.24442406 -0.80384237 52 132 122
0.086039372 0.24508733 -0.80470747 53 134 122
0.084645756 0.24789561 -0.80476165 52 134 123
0.084171906 0.24746555 -0.80441648 52 133 122
0.083934359 0.24113628 -0.80277187 49 132 121
0.082329094 0.24282083 -0.80252308 48 134 121
0.082380489 0.24187462 -0.80233741 48 133 121
0.083834872 0.24145646 -0.80280328 49 132 121
0.081874818 0.24370186 -0.80254042 48 134 121
0.083162919 0.24139567 -0.80253285 48 133 121
0.084733292 0.2436277 -0.80367011 51 131 123
0.085744232 0.24401629 -0.80427778 53 132 122
0.087063678 0.24381226 -0.80487263 54 133 122
0.085976243 0.24233517 -0.80392385 53 132 123
0.085263394 0.24306521 -0.80377513 52 132 122
0.085679978 0.24043596 -0.80337203 51 132 122
0.086844757 0.24027914 -0.80384153 53 132 122
0.08428093 0.24260706 -0.80323839 50 132 122
0.085705012 0.24113654 -0.80353487 52 132 122
0.084930107 0.24078895 -0.80312449 50 132 122
0.084181778 0.24100097 -0.80284697 49 132 121
0.088044949 0.24054827 -0.80446655 55 132 123
0.088502556 0.24132021 -0.80496407 55 132 123
0.083935536 0.23976952 -0.8024559 48 132 121
0.083436571 0.2398023 -0.80226493 48 132 121
0.086293884 0.23816 -0.8030678 53 132 123
0.085028 0.23720904 -0.80226946 50 133 122
0.087398171 0.23915875 -0.80380458 54 132 123
0.086852252 0.23841624 -0.80338091 54 132 123
0.086241305 0.23679258 -0.80271709 54 132 123
0.085280977 0.23922373 -0.80289525 51 132 122
0.086714551 0.23963167 -0.8036201 53 132 123
0.084546708 0.23903263 -0.8025285 50 132 122
0.086085178 0.24010219 -0.80346936 52 132 122
0.08660426 0.24001467 -0.80367124 53 132 123
0.084184341 0.23905134 -0.80237669 48 132 121
0.088356808 0.23829132 -0.80410659 56 132 123
0.088126056 0.23934935 -0.80421734 55 132 123
0.082971096 0.23624955 -0.80118871 50 132 122
0.085529834 0.23435917 -0.80178219 55 132 123
0.08418113 0.23542236 -0.8014456 50 133 122
0.084457807 0.23521277 -0.80151683 51 132 122
0.086475901 0.23614909 -0.80266607 54 132 123
0.086307213 0.23608381 -0.80257332 54 132 123
0.08532571 0.23521604 -0.80190897 53 132 122
0.085102431 0.2362065 -0.80206138 51 132 122
0.084871173 0.27572778 -0.80947602 53 134 125
0.087631762 0.27560842 -0.81104243 54 135 126
0.086531356 0.27566183 -0.81041878 53 134 126
0.087178819 0.27669469 -0.81090653 54 135 125
0.08755412 0.27675936 -0.81112134 54 135 125
0.089543454 0.27818656 -0.81258589 55 134 125
0.088974394 0.27637807 -0.81198442 53 135 125
0.088908821 0.27600047 -0.81189275 53 135 125
0.087830164 0.27322173 -0.81082273 48 133 125
0.086300179 0.2737864 -0.81002635 49 133 126
0.08702834 0.27367628 -0.81042778 49 133 126
0.08574558 0.27475297 -0.80984533 52 134 126
0.087590054 0.27197763 -0.81050944 46 133 125
0.085290737 0.27478054 -0.80958873 52 133 126
0.085069425 0.27379623 -0.80934453 48 133 125
0.084652565 0.27479306 -0.80922562 52 133 126
0.085041665 0.27303162 -0.80925 46 133 125
0.08542081 0.27365479 -0.80951768 48 133 125
0.086039111 0.27307522 -0.80978781 47 133 125
0.089652941 0.27200106 -0.8118391 46 132 125
0.090594396 0.27438805 -0.81275952 50 134 124
0.089567378 0.27210966 -0.81179631 46 132 125
0.090367183 0.27336726 -0.81248158 48 133 125
0.089807987 0.27313364 -0.81208342 48 132 124
0.088451602 0.27465108 -0.81141645 52 134 125
0.089258954 0.27359572 -0.81178153 48 133 125
0.088376984 0.2727311 -0.81109768 47 132 125
0.088072024 0.2725715 -0.81088096 47 133 125
0.087640695 0.27003428 -0.81028962 43 131 125
0.087289445 0.26868317 -0.80992615 41 131 123
0.08653827 0.27106056 -0.80983371 43 132 125
0.087773189 0.2690728 -0.81023544 42 131 124
0.087586701 0.26977769 -0.81022739 43 131 124
0.087337628 0.26781827 -0.80985117 42 130 123
0.087302998 0.26814544 -0.8098681 41 131 123
0.086707599 0.26902139 -0.80966091 42 131 123
0.089029953 0.27090606 -0.81130332 45 132 125
0.090394847 0.2714003 -0.81225491 45 132 125
0.089873523 0.27086321 -0.81185532 45 131 125
0.09060403 0.26994613 -0.81224197 45 131 125
0.09006644 0.2713111 -0.81202906 45 132 125
0.087999322 0.27089173 -0.81060928 44 132 125
0.08847107 0.26888001 -0.81067121 42 131 124
0.08853735 0.26986021 -0.81084412 44 131 125
0.089794159 0.26864955 -0.81154871 43 131 125
0.089004107 0.26794204 -0.81091481 42 130 124
0.089172997 0.27014744 -0.81131744 44 132 125
0.090854071 0.2677322 -0.81215632 43 130 125
0.087648317 0.26542148 -0.8097955 41 130 122
0.087489031 0.26728129 -0.80987638 42 130 123
0.087488316 0.2647146 -0.80965388 41 131 122
0.086181566 0.26640892 -0.80913967 42 130 124
0.086539932 0.2643269 -0.80911601 41 131 122
0.089766957 0.26493126 -0.81110889 42 131 123
0.090067744 0.2638433 -0.81110227 43 131 123
0.09148787 0.26591721 -0.81231165 43 131 124
0.090852946 0.26595998 -0.81193787 43 131 124
0.091125682 0.26486775 -0.81191367 43 131 124
0.090875387 0.26410878 -0.81163287 43 131 124
0.089422412 0.26588625 -0.81100792 42 131 123
0.089136958 0.26708993 -0.8109163 42 130 124
0.090254284 0.2669079 -0.81166691 42 131 124
0.088845871 0.26614463 -0.81063491 41 131 123
0.088323839 0.26657802 -0.81031436 41 130 123
0.089700058 0.26621506 -0.81122684 42 131 123
0.087991782 0.26570398 -0.81001097 41 130 123
0.092331655 0.26575845 -0.81287098 45 132 125
0.091926433 0.26533982 -0.81249505 45 132 125
0.087645084 0.26179922 -0.80927634 44 131 123
0.087539323 0.26340419 -0.80952793 41 132 122
0.091225423 0.26066223 -0.81119263 45 131 125
0.091305315 0.26092327 -0.81129044 45 131 125
0.091279551 0.2610997 -0.81130868 45 131 125
0.091134503 0.25998524 -0.81100863 46 130 126
0.091444299 0.26264277 -0.81170243 45 131 125
0.089343786 0.26103246 -0.81013221 46 132 125
0.088971324 0.26093459 -0.80988967 46 132 124
0.088967264 0.26176777 -0.81004703 45 131 124
0.090652704 0.26277158 -0.8112514 45 131 125
0.089482605 0.26220345 -0.81043994 44 132 123
0.088707455 0.26242077 -0.81001621 43 132 122
0.088111751 0.26247701 -0.80966938 43 131 122
0.092992336 0.26153293 -0.81255496 46 131 125
0.092351675 0.26157185 -0.81212145 46 131 126
0.092312396 0.26024088 -0.8118186 46 130 126
0.09179838 0.26350725 -0.81208056 45 131 125
0.090477586 0.25639889 -0.80995309 46 132 124
0.088681929 0.2571137 -0.80901188 46 132 124
0.089138836 0.2560786 -0.8090983 46 132 124
0.090846188 0.25606364 -0.81011248 46 132 124
0.088779263 0.25735128 -0.80911249 46 132 124
0.088907696 0.25872603 -0.80943584 46 132 124
0.090054065 0.2580508 -0.80999988 46 132 124
0.090767533 0.25810555 -0.81043893 46 131 125
0.090841718 0.25771642 -0.81041145 46 131 125
0.090223856 0.25768858 -0.81003487 46 132 124
0.090973802 0.25938037 -0.81079882 46 130 125
0.088662438 0.25914001 -0.80936491 46 132 124
0.093129821 0.25718471 -0.81180006 46 131 125
0.093108393 0.25754136 -0.81185353 46 132 125
0.094276227 0.25646824 -0.81244177 46 131 124
0.09412574 0.25727978 -0.81249446 46 131 124
0.093988523 0.25645199 -0.81224328 46 131 124
0.092158377 0.25746757 -0.81118876 46 131 125
0.092628486 0.25790063 -0.81159294 46 132 125
0.092318691 0.25855768 -0.81150097 46 131 125
0.091254309 0.25397068 -0.80985802 47 132 123
0.091038689 0.2542944 -0.80980861 47 132 124
0.091431253 0.25561917 -0.81036568 46 132 124
0.090375371 0.25515899 -0.80962455 47 132 124
0.09040802 0.25349781 -0.80924803 48 132 123
0.090650946 0.25341874 -0.80936736 48 132 124
0.093203023 0.25527582 -0.81146264 45 131 124
0.094073005 0.2548686 -0.81195974 45 131 124
0.094585076 0.25490618 -0.81231606 45 130 125
0.0949414 0.25477135 -0.812527 45 130 125
0.093996577 0.25375462 -0.81165165 45 132 125
0.094465472 0.25447664 -0.81213611 45 132 125
0.094576538 0.25249481 -0.81174749 45 132 124
0.092105307 0.25491464 -0.81062526 46 132 124
0.094708569 0.25206769 -0.8117348 45 132 124
0.093658827 0.25266033 -0.81115192 46 132 124
0.094074905 0.25267118 -0.81144285 45 132 124
0.092615589 0.25278243 -0.81045866 47 132 124
0.092803106 0.25295126 -0.81062984 46 133 123
0.09591613 0.2520161 -0.81258905 45 132 125
0.091392592 0.25163132 -0.80938363 50 132 123
0.09343265 0.248248 -0.80988187 48 132 123
0.092033051 0.25125489 -0.80967736 50 132 123
0.092510648 0.25034025 -0.80977386 48 132 123
0.093449764 0.24955772 -0.81020886 47 133 123
0.095065638 0.24859759 -0.81105047 44 132 123
0.092841841 0.24914888 -0.80970645 49 132 123
0.095106587 0.24990611 -0.8114298 44 132 123
0.093141861 0.25179118 -0.81057727 47 132 124
0.092160888 0.2516467 -0.80985844 48 132 123
0.095224246 0.24925016 -0.81133419 44 132 123
0.094604202 0.24972147 -0.81103176 45 132 123
0.095112354 0.25129107 -0.81180787 45 131 124
0.095049769 0.25050935 -0.81155336 45 131 124
0.095915243 0.24825169 -0.81157804 44 132 124
0.096416563 0.25045326 -0.81259668 45 132 125
0.096651077 0.24966115 -0.81258667 44 132 124
0.096811533 0.24925798 -0.81261683 44 132 124
0.095877632 0.24948713 -0.81187648 44 132 124
0.095422253 0.24705155 -0.81091303 44 133 123
0.093995459 0.24677165 -0.80989778 48 132 123
0.094383396 0.24693285 -0.81019443 46 133 123
0.095559716 0.24540363 -0.81060427 45 132 123
0.095236287 0.24735764 -0.81086379 45 131 123
0.09560141 0.24764861 -0.8111769 44 132 123
0.095414132 0.24439894 -0.81026214 46 131 123
0.094070144 0.24506885 -0.80950999 49 131 123
0.094799355 0.2447753 -0.809937 47 131 123
0.097540684 0.24612944 -0.81240332 44 131 125
0.097974636 0.24618912 -0.81276798 44 131 125
0.09718775 0.2452032 -0.81187111 45 130 125
0.096202172 0.24483989 -0.81098169 45 131 123
0.097448587 0.24709584 -0.81258875 44 132 124
0.097173959 0.24782372 -0.81255066 44 132 124
0.096973106 0.24719086 -0.81222451 44 132 124
0.096281841 0.24700409 -0.81158519 44 132 123
0.095000841 0.24288942 -0.80956423 47 132 123
0.094506413 0.24380676 -0.80947095 47 132 123
0.095497154 0.24413428 -0.8102482 46 131 123
0.095515817 0.24133755 -0.80949885 46 131 122
0.09371914 0.24403164 -0.80898577 49 131 123
0.097139165 0.24376883 -0.81143504 45 131 124
0.096271269 0.24408311 -0.81083214 45 131 123
0.097065255 0.24301961 -0.81115049 46 131 124
0.099306569 0.2415981 -0.81252402 46 131 125
0.098055869 0.2424846 -0.81178558 46 131 125
0.096212044 0.24228695 -0.81028235 46 132 123
0.099447928 0.24035436 -0.81226492 46 133 124
0.096177727 0.24165596 -0.81008375 46 130 123
0.096695513 0.24196814 -0.81057036 46 132 123
0.098412 0.24119341 -0.81169027 46 132 124
0.098345511 0.24144489 -0.81170726 46 132 124
0.095954344 0.24069242 -0.80964786 46 130 123
0.099920273 0.24075373 -0.81278312 46 132 125
0.095657125 0.23990408 -0.80920839 46 131 122
0.096778221 0.23715535 -0.80933183 52 131 124
0.098195225 0.23720181 -0.81040752 51 131 123
0.096377857 0.23755151 -0.80913234 52 130 124
0.098013915 0.23791972 -0.81046182 50 131 123
0.09823712 0.23745374 -0.81050611 50 132 122
0.099198021 0.24000582 -0.81197339 47 132 125
0.098669641 0.23743038 -0.81083113 50 132 122
0.098951936 0.23819076 -0.81126624 50 131 123
0.099482954 0.23677649 -0.81127578 52 132 122
0.097949214 0.23855618 -0.81059265 49 131 123
0.098103493 0.2388152 -0.81078595 49 131 123
0.097332828 0.23890984 -0.81021529 48 131 123
0.099842131 0.23665175 -0.81153935 52 132 123
0.099895984 0.23951769 -0.8124041 48 132 124
0 0 0 1 0 0 0 1 0 0 0 1 0 0 0 0 0 816 1 0 0
