ply
format ascii 1.0
comment PCL generated
element vertex 967
property float x
property float y
property float z
property uchar red
property uchar green
property uchar blue
element camera 1
property float view_px
property float view_py
property float view_pz
property float x_axisx
property float x_axisy
property float x_axisz
property float y_axisx
property float y_axisy
property float y_axisz
property float z_axisx
property float z_axisy
property float z_axisz
property float focal
property float scalex
property float scaley
property float centerx
property float centery
property int viewportx
property int viewporty
property float k1
property float k2
end_header
-0.19038649 0.48473564 -0.84004182 34 136 109
-0.19021854 0.48385587 -0.83989459 34 136 109
-0.19022688 0.48546565 -0.8401745 34 136 110
-0.19019979 0.4836157 -0.83985347 34 136 109
-0.19001742 0.48258662 -0.83967787 36 136 109
-0.18741307 0.48245546 -0.83977288 31 137 110
-0.18627113 0.48242456 -0.83982068 30 136 112
-0.18760905 0.48304686 -0.8398667 31 137 110
-0.18908009 0.48359367 -0.83989328 33 137 110
-0.18808024 0.48246551 -0.83974355 32 136 110
-0.18637097 0.48378336 -0.84004235 30 136 112
-0.18651882 0.48470816 -0.84018439 30 136 112
-0.1881315 0.48519 -0.84020585 32 136 111
-0.18914397 0.48546618 -0.84021515 33 135 110
-0.18465404 0.48367339 -0.84007317 28 136 113
-0.1823761 0.48256823 -0.83994871 27 135 114
-0.18457013 0.48388678 -0.84010899 28 136 113
-0.18355127 0.48410007 -0.84020388 27 137 113
-0.18134025 0.48256698 -0.84002876 27 135 114
-0.19027407 0.47945374 -0.83920807 36 137 108
-0.19071771 0.47949141 -0.83923268 38 136 108
-0.1894682 0.4801167 -0.83928609 33 137 109
-0.18957087 0.48075441 -0.83939725 34 136 109
-0.19062997 0.47940701 -0.83921492 37 137 108
-0.19053085 0.47919428 -0.83917516 37 137 108
-0.19044018 0.48177794 -0.83957595 38 136 109
-0.19088966 0.48123056 -0.83951092 39 135 108
-0.19116096 0.4810048 -0.83948046 40 135 108
-0.18574797 0.47980952 -0.839351 27 135 112
-0.18577208 0.48200002 -0.83976823 28 136 112
-0.18560471 0.48219648 -0.8398096 28 136 112
-0.18618882 0.47969076 -0.83931792 29 135 112
-0.18664503 0.47900367 -0.83917618 29 135 111
-0.18781272 0.48086327 -0.83948702 31 137 110
-0.18705589 0.4817346 -0.83966839 30 137 111
-0.18937522 0.48056981 -0.83936507 33 137 109
-0.18883143 0.48185313 -0.83960557 33 135 110
-0.18916182 0.47964907 -0.83922058 32 138 109
-0.18232319 0.47913882 -0.83938235 25 136 114
-0.18177755 0.479871 -0.83952838 24 136 114
-0.1843254 0.47928199 -0.83929694 27 134 114
-0.18372953 0.47948834 -0.83936203 27 134 114
-0.18288706 0.47970182 -0.83944154 26 136 114
-0.18424642 0.47964129 -0.83935845 27 134 114
-0.18462875 0.48197183 -0.83978879 27 137 113
-0.18507336 0.48017415 -0.83943594 27 135 112
-0.1850318 0.48209095 -0.83980244 27 138 112
-0.18390302 0.48034582 -0.83949506 27 134 114
-0.18482183 0.4815667 -0.83970726 27 137 113
-0.17953496 0.48194006 -0.84021837 27 137 115
-0.17803429 0.47923008 -0.8399483 23 138 116
-0.18101776 0.48225132 -0.84001803 27 135 115
-0.17968562 0.48103675 -0.84001321 26 136 116
-0.17868268 0.47986767 -0.83995938 23 138 115
-0.18018091 0.47876891 -0.83956206 23 136 115
-0.18073662 0.48065197 -0.83978516 24 138 114
-0.18095098 0.47984824 -0.8396275 24 136 115
-0.1803641 0.48082334 -0.83986396 24 136 115
-0.17961128 0.48022765 -0.83987314 23 138 115
-0.1814283 0.48020285 -0.83961803 24 136 114
-0.17702544 0.47902238 -0.84006381 23 138 116
-0.17663985 0.47923246 -0.84016168 23 138 116
-0.19079727 0.47499287 -0.83844101 31 138 110
-0.19113488 0.47595 -0.83862972 32 138 110
-0.19094808 0.47656587 -0.8387326 33 138 109
-0.19272198 0.47518626 -0.83856422 34 136 110
-0.18973476 0.47691968 -0.83874106 31 137 110
-0.18956168 0.47809047 -0.83894497 32 138 109
-0.19115907 0.47829223 -0.83904785 38 137 108
-0.19090174 0.47808722 -0.83900112 36 137 108
-0.19127782 0.47764793 -0.83893913 36 136 109
-0.19062997 0.47757167 -0.83889896 34 136 110
-0.18561283 0.47579047 -0.83855432 27 135 112
-0.18818794 0.47529861 -0.83845162 27 138 111
-0.18599308 0.47568637 -0.83853275 27 135 112
-0.18777677 0.47531229 -0.83845484 27 138 111
-0.18819742 0.47536761 -0.83846569 27 138 111
-0.18694766 0.47665283 -0.83872843 27 135 112
-0.18794656 0.47658041 -0.8387022 28 138 111
-0.18847777 0.47812197 -0.83896863 31 136 110
-0.18828057 0.47665045 -0.83870703 28 138 110
-0.18812357 0.47846159 -0.83903849 31 136 110
-0.1879824 0.47818449 -0.83899164 30 136 111
-0.18399429 0.47555751 -0.83859402 24 138 112
-0.18372008 0.47478145 -0.83845627 23 138 112
-0.18193433 0.47561827 -0.83872789 21 138 113
-0.18366703 0.47595623 -0.83869243 24 138 113
-0.18354043 0.47639307 -0.83878654 24 138 113
-0.18255267 0.47774354 -0.83911359 24 136 114
-0.18334652 0.4771319 -0.83894622 24 138 113
-0.18333045 0.47797364 -0.83911836 25 136 113
-0.18540443 0.47807828 -0.83902764 27 134 113
-0.18492635 0.47711954 -0.83885837 26 136 113
-0.17790963 0.47608784 -0.83932179 19 139 115
-0.17864352 0.47689503 -0.83940262 20 137 115
-0.17835693 0.47699857 -0.83946007 20 137 115
-0.17856279 0.47749057 -0.83953929 20 138 115
-0.18055622 0.47534752 -0.83883649 20 138 113
-0.18132424 0.47474617 -0.83861345 20 138 113
-0.17892832 0.47788811 -0.8395704 21 138 115
-0.17930062 0.47800899 -0.83954293 21 138 115
-0.17996813 0.47662815 -0.83917671 20 138 114
-0.17948651 0.47743276 -0.83940291 21 138 115
-0.18162742 0.47685099 -0.83899164 21 138 113
-0.1811415 0.47734779 -0.83915734 21 138 113
-0.17468287 0.47795308 -0.84016418 21 138 116
-0.17430581 0.47786182 -0.84019798 21 138 116
-0.17446327 0.47544307 -0.83956867 17 137 115
-0.17690578 0.47834963 -0.83993882 21 138 116
-0.17569177 0.47674918 -0.83971602 19 137 116
-0.17701642 0.4780179 -0.83983999 20 138 116
-0.1760699 0.47487524 -0.8392663 18 136 115
-0.17734759 0.47647563 -0.83946794 19 139 115
-0.17603862 0.4763366 -0.83958048 19 137 116
-0.17581542 0.47623262 -0.83958262 18 137 115
-0.17668399 0.4752104 -0.83927089 18 137 115
-0.17629156 0.47483176 -0.83923298 18 137 115
-0.17319311 0.4756884 -0.83982188 19 135 116
-0.17172217 0.47590712 -0.84010351 19 137 115
-0.17289285 0.47574371 -0.83988208 19 135 116
-0.1736594 0.47584173 -0.8397885 18 137 115
-0.19729182 0.47075468 -0.83863717 42 142 106
-0.19354632 0.47354114 -0.83836991 33 138 110
-0.19475828 0.4716703 -0.83831811 34 140 108
-0.19449203 0.47144485 -0.83823878 33 140 108
-0.19608711 0.47114155 -0.83847845 38 142 107
-0.1950659 0.47162068 -0.83836567 36 139 108
-0.19496918 0.47379962 -0.83863252 38 139 109
-0.19410324 0.47411111 -0.83854187 36 138 109
-0.18973503 0.47367269 -0.83816594 28 138 111
-0.18947877 0.47152841 -0.83776236 27 137 111
-0.1897243 0.47119752 -0.83772337 27 137 111
-0.19188763 0.47145343 -0.83794576 28 138 110
-0.1909204 0.47222501 -0.83800447 28 138 110
-0.19191293 0.47223333 -0.83808398 29 139 110
-0.19272205 0.47412303 -0.83839047 33 138 110
-0.19190516 0.47228217 -0.8380906 29 139 110
-0.19320065 0.47168005 -0.83806407 30 138 110
-0.19238989 0.47209582 -0.83808625 29 139 110
-0.19107316 0.47366703 -0.83824992 29 139 110
-0.18797955 0.47163713 -0.83773619 26 137 111
-0.18592328 0.47163388 -0.83756578 25 137 112
-0.18879326 0.4709889 -0.83763349 26 137 111
-0.18927422 0.47072896 -0.83760506 26 137 111
-0.18636495 0.47240514 -0.8378042 26 136 112
-0.18652411 0.47205833 -0.83772647 26 136 112
-0.18862776 0.47344843 -0.83810377 27 138 111
-0.18575968 0.47458237 -0.83830905 26 138 112
-0.18757261 0.47423354 -0.83824492 27 137 112
-0.18890855 0.47193515 -0.8378334 27 137 111
-0.18565048 0.47460833 -0.83831376 26 138 112
-0.18830211 0.47371656 -0.83815193 27 137 112
-0.18307637 0.47076166 -0.83738583 19 137 112
-0.18287191 0.47075003 -0.83738887 19 137 112
-0.18291566 0.47110027 -0.83748889 19 137 112
-0.18304673 0.47087714 -0.83742017 19 137 112
-0.18212834 0.4736577 -0.83825421 20 138 113
-0.18165264 0.47264442 -0.8379758 18 139 112
-0.18423083 0.47326693 -0.83804035 23 138 112
-0.18476404 0.47305021 -0.83795202 24 138 112
-0.18371055 0.47398576 -0.8382594 23 138 112
-0.18450312 0.47198972 -0.83768976 23 138 111
-0.18383861 0.47343403 -0.83810735 23 138 112
-0.17794116 0.47217619 -0.83825338 17 137 114
-0.17832306 0.47311488 -0.83850485 18 137 114
-0.17833607 0.47194821 -0.83814186 17 137 114
-0.17852476 0.47246441 -0.83828235 17 137 114
-0.17845216 0.47211584 -0.83818179 17 137 114
-0.17975919 0.47386941 -0.83856398 18 139 113
-0.18032591 0.47249317 -0.83809531 17 137 113
-0.18075278 0.47364756 -0.8383767 19 137 113
-0.18158565 0.47362128 -0.8382659 19 139 112
-0.17946126 0.47323593 -0.83841753 18 137 113
-0.18128338 0.47413465 -0.83845198 19 139 112
-0.17422697 0.47298968 -0.83896577 17 134 115
-0.174484 0.47338483 -0.83902931 17 136 115
-0.17514722 0.47192603 -0.83854294 16 136 114
-0.17451823 0.47123969 -0.8384611 16 136 114
-0.17551784 0.47160834 -0.83840173 16 136 114
-0.17608029 0.47296798 -0.83869976 17 136 114
-0.17606474 0.4735502 -0.83888191 17 136 114
-0.17574979 0.47344899 -0.83888471 17 136 114
-0.17768532 0.47174785 -0.83814722 17 136 114
-0.17725788 0.47358853 -0.83876437 17 137 114
-0.16995332 0.47358072 -0.83974558 18 137 113
-0.17032169 0.47104037 -0.83894658 18 136 113
-0.17171067 0.47144333 -0.83890069 17 134 114
-0.17256579 0.47168335 -0.83886999 17 134 114
-0.17025439 0.47412798 -0.83987236 18 137 114
-0.17210637 0.47397655 -0.83955234 17 136 114
-0.17109528 0.47420529 -0.83976823 17 137 114
-0.17294818 0.4724085 -0.83901113 17 136 115
-0.17185459 0.4736596 -0.839508 17 137 114
-0.17061123 0.47404104 -0.8397997 18 137 114
-0.17187093 0.47341755 -0.83944196 17 136 114
-0.16846341 0.47389475 -0.84012252 19 137 113
-0.16854246 0.47384456 -0.84008735 19 137 113
-0.16895969 0.47224489 -0.83950752 19 137 112
-0.1688379 0.4725714 -0.83962417 19 137 112
-0.16987455 0.47408608 -0.83990723 19 137 114
-0.16937111 0.47181511 -0.83931345 19 135 113
-0.1958147 0.4675144 -0.83778846 42 139 106
-0.19339734 0.46913558 -0.8376562 29 140 109
-0.19552024 0.4676832 -0.83776718 42 139 107
-0.19524255 0.46731326 -0.83765173 40 139 107
-0.19514972 0.46976784 -0.83807939 36 140 107
-0.19606109 0.46858966 -0.83802658 42 139 106
-0.19616605 0.46865818 -0.8380577 43 139 107
-0.19575407 0.46993151 -0.83821642 38 140 107
-0.19066152 0.46723717 -0.83698243 27 139 109
-0.19119494 0.46817383 -0.83726293 27 138 110
-0.18980645 0.46873552 -0.83721244 27 137 110
-0.18996193 0.46789348 -0.83704156 26 138 110
-0.19041556 0.4674446 -0.83699793 27 138 110
-0.19324203 0.4674204 -0.83733076 29 140 108
-0.19044173 0.4701339 -0.83759117 27 138 111
-0.19125605 0.47004917 -0.83764237 27 138 110
-0.19063815 0.47036117 -0.83764815 27 138 111
-0.19135126 0.46910214 -0.83747947 27 138 110
-0.1866325 0.46720281 -0.83659112 23 136 112
-0.18589225 0.46708497 -0.83650476 20 137 112
-0.18726167 0.46727768 -0.8366589 23 138 111
-0.18646465 0.46744713 -0.83663255 23 136 112
-0.18708587 0.46705773 -0.83659512 23 138 111
-0.18674827 0.4688223 -0.83696491 24 138 111
-0.18729262 0.47048452 -0.83738536 26 136 111
-0.18820854 0.46997577 -0.83734566 26 137 111
-0.18895955 0.47029418 -0.83747965 26 137 111
-0.18853737 0.4694052 -0.83724344 26 137 110
-0.18938608 0.46792102 -0.83697712 26 137 110
-0.18249272 0.46698532 -0.83647496 17 136 114
-0.18424182 0.46742958 -0.83657771 19 137 112
-0.18225208 0.46987045 -0.8372016 18 136 113
-0.18390836 0.4677681 -0.83666456 18 137 112
-0.182706 0.46705109 -0.83649045 17 136 114
-0.18195498 0.46732867 -0.83656406 17 136 114
-0.1846101 0.46872902 -0.83687627 20 137 112
-0.18492652 0.46995291 -0.83714169 21 137 111
-0.18483286 0.46879825 -0.83688492 20 137 111
-0.18522316 0.46923763 -0.83697146 21 137 111
-0.18418887 0.46824637 -0.83678091 19 137 112
-0.18017793 0.46743312 -0.83673519 17 134 114
-0.17886221 0.46944892 -0.83738488 17 134 114
-0.18110631 0.46690536 -0.83651036 17 134 114
-0.18067023 0.46742004 -0.83668566 17 134 114
-0.17853737 0.46951634 -0.83743286 17 134 114
-0.17789963 0.47070253 -0.83780074 17 136 114
-0.1814498 0.46811834 -0.83678395 17 136 114
-0.18142498 0.46992457 -0.8372407 17 137 113
-0.18111631 0.46919242 -0.83708853 17 136 114
-0.18006125 0.46996236 -0.83739114 17 136 114
-0.18143129 0.46960941 -0.83716077 17 136 113
-0.17536606 0.46811128 -0.83742142 16 136 114
-0.1748264 0.46705416 -0.83709395 16 136 113
-0.17449762 0.46741724 -0.83724302 16 136 113
-0.17446032 0.46928427 -0.83789194 16 136 114
-0.17544238 0.46810472 -0.83741373 16 136 114
-0.17659754 0.46698716 -0.8369447 16 136 113
-0.17493095 0.46973735 -0.83800364 16 136 114
-0.17717451 0.4705742 -0.83787173 17 134 114
-0.1758672 0.46995637 -0.83791459 16 136 114
-0.17558192 0.47052124 -0.83810663 16 136 114
-0.17756243 0.46979976 -0.83760893 17 134 114
-0.17036626 0.46847311 -0.83806962 19 135 112
-0.17232037 0.46702787 -0.83733612 18 136 113
-0.17011112 0.46754718 -0.83777988 19 135 112
-0.17244932 0.46738142 -0.83744293 17 136 112
-0.17085791 0.46742973 -0.83765 19 135 112
-0.17079805 0.46829185 -0.8379553 19 135 112
-0.17283949 0.46854705 -0.83779967 17 136 114
-0.17102697 0.47058743 -0.83872217 17 136 114
-0.17191164 0.4698849 -0.83837342 17 136 114
-0.17211026 0.47065824 -0.83861744 16 136 114
-0.17010736 0.47065574 -0.8388555 17 136 113
-0.17276871 0.46870941 -0.83786434 17 136 114
-0.16853888 0.46928999 -0.83862835 20 137 111
-0.16856973 0.47038984 -0.8390038 20 135 112
-0.16917029 0.47062603 -0.8389886 19 135 112
-0.19411674 0.46430424 -0.8369264 39 139 108
-0.19450824 0.46453527 -0.83705413 41 139 108
-0.19361743 0.4665117 -0.83723062 32 140 107
-0.19419952 0.46461564 -0.8370024 39 139 108
-0.19532135 0.46677694 -0.83756965 40 140 106
-0.18992357 0.46533385 -0.8365041 27 138 110
-0.18951063 0.46532172 -0.83644354 26 138 110
-0.19197153 0.46396771 -0.83651948 32 138 109
-0.1922773 0.46309325 -0.83639008 32 139 108
-0.19313316 0.46590292 -0.8370322 30 140 108
-0.19084562 0.46552929 -0.83666962 28 139 109
-0.19273347 0.46473017 -0.83676213 32 138 109
-0.19322002 0.46486247 -0.83684915 32 139 108
-0.18989234 0.46657073 -0.83674198 27 138 110
-0.19149117 0.46519306 -0.83668953 29 139 109
-0.18573253 0.46651441 -0.83637023 20 137 112
-0.18818946 0.46662152 -0.83659095 24 138 111
-0.18868718 0.4658629 -0.83648086 24 138 110
-0.18881015 0.46664014 -0.83664489 24 139 110
-0.18396296 0.46642873 -0.83633333 19 137 112
-0.18514587 0.46652898 -0.8363598 20 137 112
-0.1778872 0.46628582 -0.83660781 17 136 114
-0.17847799 0.46588427 -0.83641613 17 136 114
-0.18135633 0.46652415 -0.83637595 17 134 114
-0.17628367 0.46534333 -0.8364169 17 136 114
-0.17417388 0.46613505 -0.83683866 17 136 113
-0.17630808 0.46565023 -0.83651197 17 136 114
-0.17522778 0.4656809 -0.83660942 17 136 114
-0.17665733 0.46635374 -0.83672172 17 136 114
-0.17551906 0.46674389 -0.83693731 17 136 114
-0.17132674 0.46509543 -0.83683342 19 137 111
-0.17287455 0.46446517 -0.83645046 18 136 112
-0.17031939 0.46414068 -0.83664525 21 137 111
-0.17015812 0.46538818 -0.83706391 20 137 111
-0.17004436 0.46437421 -0.83675224 21 137 111
-0.17197517 0.46646068 -0.83719122 18 136 112
-0.17103229 0.46643487 -0.83729577 19 135 112
-0.17135918 0.46642953 -0.837255 19 135 112
-0.17246521 0.46543172 -0.83680737 18 136 112
-0.19350502 0.46200076 -0.83633929 37 141 106
-0.19355433 0.46264058 -0.83649004 37 139 108
-0.19367789 0.46282312 -0.83655399 38 139 108
-0.19253775 0.46289009 -0.83638602 33 138 108
-0.18592429 0.45159385 -0.83221817 48 136 109
-0.1834922 0.45166045 -0.83202124 42 136 110
-0.18508798 0.45167938 -0.83215058 46 135 110
-0.18260448 0.45149559 -0.83189493 40 135 110
-0.18240346 0.45218787 -0.83213931 38 135 111
-0.18150757 0.45169246 -0.83189702 36 137 111
-0.17993867 0.45135948 -0.83174282 33 137 110
-0.17936678 0.45171309 -0.83186424 30 137 111
-0.17907859 0.45257819 -0.83217299 28 138 111
-0.17906114 0.45245054 -0.83212638 28 138 111
-0.17778127 0.45169434 -0.83182102 27 138 110
-0.17762744 0.45329192 -0.83239633 24 138 111
-0.17304352 0.45162857 -0.83180106 25 140 108
-0.16948761 0.45135632 -0.83187801 31 138 108
-0.18811134 0.44999188 -0.83201587 58 135 109
-0.18858466 0.45040497 -0.83223981 57 136 108
-0.18587556 0.44961452 -0.83144474 53 135 110
-0.18624763 0.44858456 -0.83110833 55 135 110
-0.18590896 0.44877589 -0.83111131 54 136 110
-0.18739252 0.44869617 -0.83140635 60 135 109
-0.18697999 0.44836694 -0.83118159 59 134 110
-0.18679781 0.44772053 -0.83087867 59 135 110
-0.18357156 0.44841072 -0.83077049 46 136 110
-0.18191794 0.44737399 -0.83034903 44 136 110
-0.18168837 0.4492529 -0.83101708 40 136 110
-0.18258579 0.4498367 -0.83125341 42 136 110
-0.18286513 0.44735533 -0.83037043 46 136 110
-0.18541658 0.44804671 -0.83072519 52 136 110
-0.18353298 0.44947603 -0.8311612 45 136 110
-0.1852105 0.44879761 -0.83101445 51 135 110
-0.18362217 0.44942048 -0.83114552 45 136 110
-0.1847683 0.45058426 -0.83170646 47 136 110
-0.18437143 0.44981861 -0.83136481 47 135 110
-0.17881669 0.45000225 -0.83122677 33 137 110
-0.17878635 0.44752467 -0.83020461 36 137 109
-0.17868181 0.44827712 -0.83050698 35 137 109
-0.18070561 0.44738385 -0.8302837 41 136 109
-0.17966926 0.44788954 -0.83041793 38 137 109
-0.17983073 0.44826692 -0.83058476 37 137 109
-0.18034783 0.45003796 -0.83127314 36 136 110
-0.17889048 0.45083413 -0.83153152 31 137 110
-0.18095681 0.44914454 -0.83096379 39 136 110
-0.18136521 0.44884837 -0.83086514 40 136 110
-0.18009165 0.44896865 -0.83088422 37 136 110
-0.17944628 0.45037794 -0.83137822 33 137 110
-0.17569776 0.4477329 -0.83017492 34 136 110
-0.1766966 0.44811809 -0.83036125 33 138 109
-0.17686088 0.44751415 -0.83010846 34 137 109
-0.17682283 0.44839343 -0.83047825 32 138 109
-0.17760019 0.44924906 -0.83083802 31 137 110
-0.17105307 0.44932356 -0.83096135 35 137 109
-0.17123143 0.44856557 -0.83066237 38 138 109
-0.17005621 0.45086271 -0.8316282 32 139 108
-0.17004016 0.45026991 -0.83140904 34 139 108
-0.17077221 0.44877157 -0.83078235 38 138 109
-0.16995445 0.44830438 -0.8306855 43 137 108
-0.17209345 0.45001411 -0.83117354 31 138 109
-0.17285375 0.44859877 -0.83054072 34 136 110
-0.17335939 0.44797787 -0.83025587 34 136 110
-0.17190471 0.44967085 -0.83103561 32 138 109
-0.17381501 0.4491455 -0.83073282 31 137 110
-0.16707106 0.44984123 -0.83162904 34 137 108
-0.1675749 0.4492349 -0.83133376 36 138 108
-0.16752614 0.44738686 -0.83059591 42 137 109
-0.16645409 0.44732663 -0.8306815 40 137 109
-0.16715972 0.4496192 -0.83153075 35 137 109
-0.16637509 0.44878912 -0.83127743 36 137 109
-0.16896795 0.44908628 -0.83110565 39 137 108
-0.16734232 0.45031691 -0.83177847 33 138 108
-0.16959575 0.45029914 -0.83147418 34 139 108
-0.16932032 0.4491533 -0.83108401 39 137 108
-0.1694686 0.44895118 -0.83098918 40 137 108
-0.16583614 0.4484095 -0.83118284 35 138 109
-0.16593178 0.44826162 -0.83111215 36 137 109
-0.18599601 0.44569516 -0.82991898 55 136 111
-0.18564956 0.44677132 -0.83025241 54 136 111
-0.18610288 0.4438529 -0.82924217 55 135 112
-0.18681443 0.44611603 -0.83025801 60 134 111
-0.18180537 0.44350219 -0.8285771 45 135 111
-0.18186215 0.44632655 -0.8298918 44 136 110
-0.18256263 0.44365773 -0.82873476 46 135 112
-0.18193232 0.44541389 -0.82947707 45 135 110
-0.18493474 0.44341487 -0.82888979 51 136 112
-0.18311739 0.44442981 -0.82915491 46 136 111
-0.18250358 0.44578362 -0.82971269 45 136 110
-0.18548311 0.44357312 -0.82901251 51 136 112
-0.18462732 0.44467166 -0.82940465 49 136 111
-0.18549819 0.44398832 -0.82917076 52 136 112
-0.18417245 0.44637132 -0.83003712 49 136 110
-0.18423697 0.44506925 -0.82954413 49 136 111
-0.18039857 0.4438293 -0.82865107 42 136 110
-0.17853799 0.44420299 -0.82874632 38 137 110
-0.17863187 0.44461206 -0.8289237 38 137 110
-0.17878303 0.4445307 -0.82889426 38 138 109
-0.18041079 0.4436574 -0.82857829 42 136 110
-0.18093583 0.44499946 -0.82920128 43 136 110
-0.18031919 0.44612211 -0.82967752 41 136 110
-0.17884338 0.44711274 -0.83003116 37 137 109
-0.17979454 0.44710267 -0.83009446 40 135 109
-0.18035583 0.44652101 -0.82986498 40 136 109
-0.17930722 0.44674873 -0.82989562 38 137 109
-0.1739141 0.44603449 -0.82946235 36 136 110
-0.17433427 0.44403079 -0.82869017 37 138 109
-0.17546825 0.44446012 -0.82883465 36 138 109
-0.17464878 0.44642296 -0.82959807 36 136 110
-0.17494236 0.44580877 -0.82935858 36 136 110
-0.17773391 0.44392708 -0.82860124 36 138 109
-0.17711321 0.44709355 -0.82993543 35 137 109
-0.17702056 0.44615221 -0.82953244 35 137 109
-0.1769163 0.4455888 -0.82929015 35 138 109
-0.17663284 0.44553268 -0.82925981 35 138 109
-0.17219326 0.44411194 -0.82885271 45 135 109
-0.17099851 0.44342992 -0.82868218 52 134 110
-0.17373936 0.44458649 -0.82891768 38 137 110
-0.17211474 0.44494402 -0.82917631 45 135 110
-0.17381312 0.44439444 -0.82883877 37 138 109
-0.17142472 0.44415504 -0.82892692 50 135 110
-0.17056406 0.44479316 -0.82925034 52 134 110
-0.17114863 0.44680035 -0.82999974 44 136 109
-0.17263289 0.44706309 -0.82996523 40 135 109
-0.17282993 0.44642383 -0.82969052 40 136 110
-0.17077564 0.44622588 -0.82980466 46 136 109
-0.17011259 0.44437918 -0.82912695 54 134 110
-0.16723017 0.44349548 -0.8291043 52 134 110
-0.16651326 0.44532302 -0.82989377 45 135 109
-0.16727109 0.44409397 -0.8293305 50 135 110
-0.16608042 0.44715664 -0.83065224 40 137 109
-0.16812392 0.44389585 -0.82915401 53 135 110
-0.16684419 0.44448861 -0.82953292 48 135 110
-0.16813999 0.44545054 -0.8297568 48 136 109
-0.16755775 0.44712043 -0.83048576 42 138 108
-0.16745272 0.44702163 -0.83045691 42 138 108
-0.16982208 0.44726294 -0.830311 46 137 108
-0.16795397 0.44709876 -0.83043653 43 137 108
-0.1696763 0.44407073 -0.82904643 55 134 110
-0.16569944 0.44350475 -0.82928604 47 136 110
-0.16528487 0.44354531 -0.82934713 46 135 110
-0.16328232 0.44555303 -0.83035785 33 137 110
-0.16347401 0.44386119 -0.82966882 39 134 111
-0.16303904 0.44482255 -0.83009583 34 135 111
-0.1658356 0.446493 -0.8304249 41 136 110
-0.16513506 0.44532776 -0.83005762 41 137 110
-0.16491984 0.44589069 -0.83030021 38 137 109
-0.16553609 0.44726267 -0.83075726 38 138 109
-0.16360947 0.44636372 -0.8306371 33 137 111
-0.18653093 0.44215447 -0.82867205 55 135 113
-0.18586798 0.44304097 -0.82887781 53 136 113
-0.18694547 0.44260257 -0.82894117 58 135 112
-0.18715933 0.44269404 -0.82902378 59 134 112
-0.18468963 0.44313329 -0.8287462 49 136 112
-0.1715572 0.44316638 -0.82851893 50 136 110
-0.16794446 0.44260448 -0.82858843 54 134 111
-0.16735409 0.44243985 -0.82857364 53 136 110
-0.16732369 0.44329607 -0.82900947 52 135 110
-0.16411467 0.44215333 -0.82879668 43 136 111
-0.16261367 0.44205466 -0.82891697 38 136 111
-0.16375627 0.44241557 -0.8289668 42 136 111
-0.16341077 0.44186112 -0.82873148 42 135 111
-0.16521445 0.44313174 -0.82916623 46 135 110
-0.1657557 0.44214568 -0.82860839 50 135 111
-0.16098188 0.44194618 -0.82911927 32 134 112
-0.17312959 0.4347156 -0.82448113 31 136 116
-0.16996133 0.43395925 -0.82431906 41 134 116
-0.17224306 0.43409765 -0.82426137 31 137 115
-0.17011282 0.43310893 -0.8239463 34 136 115
-0.16888373 0.43283632 -0.82390523 34 136 115
-0.16637614 0.43181643 -0.82362735 30 137 116
-0.16799456 0.43274269 -0.8239218 35 136 116
-0.16785392 0.43223569 -0.82371306 32 137 115
-0.16796406 0.43332094 -0.82418209 39 134 116
-0.1662305 0.43227375 -0.8238582 33 138 115
-0.16643243 0.43338811 -0.82437539 42 135 116
-0.16283047 0.43198383 -0.82431549 36 136 117
-0.16548409 0.43294862 -0.82430279 40 135 116
-0.1639583 0.43265361 -0.82443559 39 135 116
-0.16217154 0.43218037 -0.82449615 36 136 117
-0.16251317 0.4321433 -0.82443136 36 136 117
-0.16209576 0.43229485 -0.82455498 36 136 117
-0.163087 0.43026087 -0.82338053 30 137 116
-0.16289675 0.4290244 -0.82275891 27 137 116
-0.16303091 0.42917326 -0.82281452 27 137 116
-0.16510512 0.43156666 -0.82370061 30 137 116
-0.16432397 0.43071061 -0.82339501 30 137 116
-0.1622842 0.43147033 -0.82415932 33 138 117
-0.16336899 0.43058845 -0.82350361 31 137 116
-0.15952311 0.43080154 -0.8242631 30 135 118
-0.15963641 0.43024564 -0.82397509 28 135 117
-0.16131131 0.43145171 -0.82430881 33 138 117
-0.16109307 0.429896 -0.82355303 28 136 116
-0.16110227 0.42999682 -0.82360458 29 136 116
-0.16177909 0.43080264 -0.8239001 32 137 117
-0.16185363 0.43043551 -0.82369137 31 137 117
-0.16184337 0.43076167 -0.82386595 32 137 117
-0.18966295 0.46326274 -0.83605927 27 135 110
-0.19025634 0.46363962 -0.83621603 27 138 110
-0.18737502 0.46292239 -0.83582217 24 138 111
-0.18596621 0.46293759 -0.8357296 23 138 112
-0.18598968 0.46550432 -0.83620119 23 136 112
-0.18767872 0.46400222 -0.83605373 25 137 112
-0.18820524 0.46466243 -0.83621335 26 136 111
-0.18625779 0.46582994 -0.83628058 23 136 112
-0.18816961 0.46441278 -0.83616525 26 136 111
-0.18467787 0.46375275 -0.83576733 21 137 112
-0.18412806 0.46484479 -0.83591461 20 135 113
-0.18447737 0.46519202 -0.83601075 20 135 113
-0.18328933 0.46431428 -0.8357392 19 135 112
-0.18479657 0.46306527 -0.83565325 21 137 112
-0.18261035 0.46628362 -0.83628511 18 136 114
-0.18239558 0.46418166 -0.83569229 18 136 113
-0.18231723 0.46581763 -0.83615237 18 136 114
-0.18222471 0.46605447 -0.8362186 18 136 114
-0.18269545 0.46505868 -0.83594072 18 136 113
-0.17904653 0.4640592 -0.83571696 17 136 114
-0.18011488 0.46352953 -0.83554184 17 136 114
-0.17985043 0.46351182 -0.83554327 17 136 114
-0.18022129 0.46303123 -0.83539903 18 136 114
-0.18082076 0.46471849 -0.83585942 17 136 114
-0.1810872 0.46620148 -0.83628947 17 134 114
-0.18046957 0.46580657 -0.83620602 17 134 114
-0.17841664 0.4647494 -0.83601975 17 136 114
-0.17616758 0.46342766 -0.83577919 18 136 114
-0.17478278 0.4634465 -0.8359341 18 136 113
-0.17711566 0.46367922 -0.83576751 18 136 114
-0.17626034 0.46441525 -0.8361218 18 136 114
-0.17471734 0.46424761 -0.83619696 18 136 113
-0.17578542 0.4647308 -0.8362633 17 136 114
-0.1725107 0.46377882 -0.83627295 19 135 112
-0.17352925 0.46385863 -0.83618051 18 136 113
-0.19029497 0.46246421 -0.83598173 27 138 109
-0.19111422 0.46233293 -0.83606666 29 140 108
-0.19055179 0.46227372 -0.83597624 28 139 109
-0.19038981 0.46211684 -0.83592027 27 139 108
-0.19051187 0.46186087 -0.83588219 28 139 108
-0.19046719 0.46158704 -0.83581251 29 139 108
-0.1915983 0.46060812 -0.83576113 31 143 105
-0.18988353 0.46035102 -0.83543706 31 138 108
-0.19158725 0.45939121 -0.83547848 34 143 104
-0.19017513 0.45923045 -0.83522338 33 140 107
-0.19095978 0.45960328 -0.83543056 33 141 106
-0.18603827 0.45948309 -0.83477432 28 136 110
-0.18742925 0.45950118 -0.83495224 30 137 110
-0.18649842 0.46007249 -0.83500069 28 136 111
-0.18578669 0.46230537 -0.83555353 24 136 112
-0.18580176 0.46086687 -0.83514237 26 137 110
-0.18611676 0.46177262 -0.83544159 26 136 111
-0.18840584 0.46282515 -0.83587074 25 137 111
-0.18774456 0.46278578 -0.83581674 25 137 111
-0.18839179 0.46210271 -0.83570302 27 135 110
-0.18805598 0.46091592 -0.83540618 28 138 109
-0.18926051 0.45927837 -0.83510989 33 138 108
-0.1834286 0.45921966 -0.83452636 26 136 112
-0.18248528 0.46188882 -0.8351239 20 135 112
-0.18370304 0.45990989 -0.83470541 26 136 112
-0.18466385 0.4598549 -0.83473766 27 135 111
-0.18303569 0.45908454 -0.83447522 25 134 112
-0.18463682 0.46084091 -0.83501774 26 136 112
-0.18430938 0.46264294 -0.83550447 21 135 112
-0.18229152 0.46262887 -0.83531082 19 135 113
-0.1855009 0.46017444 -0.83490747 27 137 111
-0.18504009 0.46178937 -0.83532798 25 136 112
-0.18041539 0.4596945 -0.83455974 20 135 113
-0.17876922 0.45946106 -0.83444881 19 135 113
-0.18120621 0.45914513 -0.83442056 21 135 112
-0.17887881 0.46116266 -0.83494687 18 136 113
-0.17821823 0.45902896 -0.83430874 18 136 113
-0.18135981 0.46055698 -0.83477032 20 135 113
-0.18158737 0.46011826 -0.83465916 20 135 112
-0.18100427 0.46206632 -0.83514208 19 134 114
-0.18085879 0.45995033 -0.83463651 20 135 112
-0.18148085 0.46254706 -0.83524615 19 134 114
-0.17924355 0.46223933 -0.83522654 18 136 113
-0.17397296 0.4619832 -0.83551282 18 136 113
-0.17400157 0.46184126 -0.83546168 18 136 113
-0.17554219 0.46077064 -0.83501333 18 136 113
-0.17650674 0.45992789 -0.83467209 18 136 113
-0.1752574 0.46145967 -0.83526838 18 136 113
-0.17495891 0.46102601 -0.83513045 18 136 113
-0.17670743 0.46263286 -0.83545476 18 136 114
-0.17761423 0.46026659 -0.83466905 18 136 114
-0.17593729 0.4615888 -0.83523333 18 136 113
-0.17746758 0.46195942 -0.83517736 18 136 114
-0.1770044 0.46187243 -0.83520168 18 136 114
-0.1728894 0.45913142 -0.83458114 20 138 112
-0.17310633 0.45921358 -0.83460265 20 138 112
-0.17290568 0.46016303 -0.83498818 20 138 112
-0.17274044 0.46044931 -0.83510768 20 137 112
-0.17311895 0.46059161 -0.83511376 19 137 112
-0.17179328 0.4613823 -0.83554441 21 138 112
-0.173409 0.46126333 -0.83531576 19 137 112
-0.19185302 0.45524639 -0.83436745 56 136 108
-0.18983221 0.45628154 -0.8343516 42 138 108
-0.19013749 0.45663902 -0.8344987 43 137 108
-0.190523 0.45535412 -0.83419549 48 137 108
-0.19075766 0.45712754 -0.83473063 46 137 108
-0.18655415 0.456429 -0.83395535 37 136 110
-0.18859211 0.45574054 -0.83403206 41 136 110
-0.1870892 0.45718336 -0.83425099 35 136 110
-0.18600844 0.45561105 -0.83363938 39 135 110
-0.18589331 0.45692724 -0.83401144 34 136 110
-0.18842375 0.4555681 -0.83395821 41 137 109
-0.18944803 0.45757529 -0.83465767 36 138 108
-0.18784736 0.45781499 -0.83452636 35 136 109
-0.18768471 0.45866761 -0.8347463 32 138 109
-0.18767399 0.4586682 -0.83474517 32 138 109
-0.18734193 0.45822787 -0.83457994 33 137 109
-0.18841551 0.45768285 -0.83455974 35 137 109
-0.18164179 0.45688525 -0.833722 27 135 112
-0.18282688 0.45563474 -0.83340824 32 134 112
-0.18291254 0.45754802 -0.83401859 27 137 111
-0.18479386 0.45519602 -0.83340466 38 135 111
-0.18244448 0.45808193 -0.83415514 27 134 112
-0.18256685 0.45611978 -0.83354366 30 136 112
-0.18546446 0.45535827 -0.83349764 39 135 110
-0.1853186 0.45850331 -0.83441758 29 136 111
-0.18502989 0.4557547 -0.8335939 37 135 111
-0.18400998 0.4571144 -0.83394629 31 136 111
-0.1854921 0.45820531 -0.83433795 31 136 111
-0.17802863 0.45705864 -0.83367866 19 135 112
-0.17789835 0.45575529 -0.83326018 20 137 112
-0.18001524 0.4563255 -0.83350176 26 136 113
-0.17809393 0.45828339 -0.83407032 19 135 113
-0.17885742 0.45751867 -0.8338486 21 135 113
-0.17986292 0.45785594 -0.83398217 23 135 113
-0.18155409 0.45621708 -0.83350855 27 135 112
-0.17984593 0.45745319 -0.8338545 23 135 112
-0.1815505 0.45601794 -0.83344555 27 135 112
-0.1800278 0.45759052 -0.83390266 23 135 112
-0.17409034 0.4576107 -0.83397901 18 139 111
-0.17593355 0.45519891 -0.83310401 20 135 112
-0.17443155 0.45598072 -0.83339834 20 135 112
-0.17601228 0.45639613 -0.83352661 19 137 111
-0.17408752 0.45778704 -0.83404148 18 139 111
-0.17407332 0.45679864 -0.83369195 19 137 111
-0.17705333 0.45846111 -0.83414882 18 136 113
-0.17744038 0.45580518 -0.83328533 19 137 111
-0.17662063 0.4586429 -0.8342272 18 136 113
-0.17603461 0.45790106 -0.83401883 18 137 112
-0.17712975 0.45590791 -0.83333272 19 137 111
-0.17595358 0.45827514 -0.83414173 18 137 112
-0.17279142 0.45757756 -0.83402848 20 137 111
-0.17380159 0.45632097 -0.83352727 20 135 112
-0.17278875 0.45781225 -0.83411169 20 137 111
-0.17353062 0.45565289 -0.83330607 20 135 111
-0.18977042 0.4511922 -0.83272737 57 136 107
-0.1897143 0.45216537 -0.83304018 54 136 108
-0.18962622 0.45431253 -0.83373851 46 137 108
-0.19106065 0.45365965 -0.83383381 55 137 107
-0.19034645 0.45506242 -0.83408684 48 137 108
-0.19124256 0.45503318 -0.83421558 54 136 108
-0.19114858 0.45475268 -0.83412898 54 136 108
-0.18587628 0.45237905 -0.83249152 46 135 110
-0.18580303 0.45395273 -0.83305252 43 136 110
-0.18646145 0.45397815 -0.83317196 44 136 110
-0.18741482 0.45225206 -0.83270651 50 135 109
-0.18743709 0.45488256 -0.83361298 42 136 110
-0.18788582 0.45363832 -0.83325821 46 136 109
-0.18864346 0.45297909 -0.83314157 49 136 108
-0.18793592 0.45320675 -0.83312064 48 137 108
-0.18791898 0.45402667 -0.83339268 45 136 109
-0.18655986 0.45480597 -0.83346701 42 136 110
-0.18260686 0.45310488 -0.83249527 36 135 111
-0.18177028 0.45459124 -0.83298159 31 135 112
-0.18322194 0.45416749 -0.83292764 36 135 111
-0.18213665 0.45485252 -0.83310288 31 136 112
-0.18281907 0.45499879 -0.83320296 33 136 111
-0.18479829 0.45427033 -0.83307332 39 135 110
-0.18042928 0.4536413 -0.83259022 30 135 112
-0.17800556 0.45387548 -0.83261418 24 136 112
-0.1794257 0.45476046 -0.83297157 25 137 112
-0.18145607 0.45473313 -0.83301926 30 136 112
-0.18122654 0.45434991 -0.83287221 30 136 112
-0.18935129 0.45114246 -0.83262146 55 136 107
-0.17715998 0.44342592 -0.82839477 37 138 109
-0.18735361 0.43971771 -0.82789242 55 135 113
-0.18688001 0.44058812 -0.82813072 53 135 112
-0.18745272 0.44056174 -0.82824647 57 135 113
-0.18557172 0.44102085 -0.82801276 46 138 112
-0.18569127 0.44024909 -0.82773572 46 137 112
-0.18583973 0.43985257 -0.82761252 46 137 112
-0.18514085 0.4402509 -0.82765931 44 138 112
-0.18466201 0.44073278 -0.82779521 45 137 111
-0.1828887 0.44259402 -0.82832873 46 136 111
-0.18179856 0.44323093 -0.8284573 45 135 111
-0.18412593 0.44065905 -0.82770348 43 137 111
-0.18186887 0.44179416 -0.82788265 43 135 112
-0.17888902 0.44078371 -0.82731044 36 136 112
-0.17918143 0.44150707 -0.82764041 37 137 111
-0.17855889 0.44037855 -0.82711548 36 136 112
-0.17809188 0.44246405 -0.82798737 36 138 109
-0.17852496 0.4407647 -0.82728016 36 136 112
-0.17804815 0.44221306 -0.82787645 36 137 110
-0.17916305 0.44236588 -0.82799894 38 137 111
-0.17418146 0.44132969 -0.82752651 37 139 110
-0.17462808 0.44120216 -0.82746702 37 137 111
-0.17527048 0.44090301 -0.82732946 36 138 111
-0.17730977 0.43968394 -0.82677186 35 136 113
-0.17457004 0.4414683 -0.82758689 37 138 110
-0.17465203 0.44166717 -0.82767588 37 138 110
-0.17681918 0.44310421 -0.82826263 38 137 110
-0.17582925 0.44161236 -0.82764101 36 137 111
-0.17722179 0.44133598 -0.82749033 36 136 112
-0.17688259 0.44245693 -0.82798183 36 138 109
-0.17738199 0.44023398 -0.82701099 35 136 112
-0.17687993 0.44084099 -0.8272844 35 137 111
-0.17106843 0.44185948 -0.82790184 51 135 111
-0.172123 0.44307032 -0.82842839 46 136 110
-0.17089602 0.44290578 -0.82843822 53 134 111
-0.17150655 0.44169092 -0.8277846 48 135 111
-0.17202295 0.44159082 -0.82769334 46 135 111
-0.17314576 0.44182378 -0.82776749 41 137 110
-0.17323679 0.44018894 -0.82703066 39 138 110
-0.17187396 0.44126433 -0.82754838 46 136 111
-0.1737168 0.44110245 -0.82742894 38 138 110
-0.17094052 0.44033828 -0.82715601 51 135 112
-0.16773014 0.44093493 -0.82775992 54 136 111
-0.16754864 0.4403289 -0.8274762 54 136 111
-0.167273 0.43995485 -0.82731855 53 136 111
-0.16782697 0.44024843 -0.82740617 54 136 111
-0.16811271 0.43958434 -0.82704335 53 135 112
-0.16743261 0.44088587 -0.82776934 54 136 111
-0.16773173 0.44239664 -0.82850784 54 134 111
-0.16787767 0.44143578 -0.82799864 54 135 111
-0.16715384 0.44075027 -0.82773268 54 136 111
-0.16329771 0.43957371 -0.82760268 43 136 112
-0.16526264 0.4399429 -0.82754678 49 136 111
-0.16414692 0.43993327 -0.82768095 46 136 111
-0.16319703 0.44077119 -0.82821715 42 135 112
-0.16452821 0.44120106 -0.82827961 46 136 111
-0.16262315 0.4409304 -0.8283602 39 135 111
-0.16033407 0.43979782 -0.82822853 33 136 113
-0.1606753 0.44033581 -0.82842302 33 134 112
-0.19215095 0.43678769 -0.82805055 59 134 112
-0.19129898 0.43776393 -0.82816458 61 133 112
-0.19047193 0.43669134 -0.82745737 57 133 113
-0.19019848 0.43788785 -0.82785404 61 133 113
-0.19073406 0.43755007 -0.82789344 59 134 112
-0.19003917 0.43744397 -0.82762074 59 133 113
-0.19056848 0.43804422 -0.82803994 61 133 112
-0.18681426 0.43744087 -0.82685131 45 135 113
-0.18679118 0.43726724 -0.82677621 44 136 112
-0.18766707 0.43608949 -0.82648915 45 134 113
-0.18805286 0.43942302 -0.8279267 57 135 113
-0.18768294 0.43912536 -0.82772464 54 134 112
-0.18613634 0.43928805 -0.82745272 46 138 112
-0.18873286 0.43742377 -0.82726151 55 133 113
-0.18907787 0.43690315 -0.82712501 55 133 113
-0.1866428 0.43853742 -0.82725793 47 136 112
-0.18377417 0.43692267 -0.82612741 33 135 114
-0.18257353 0.43689987 -0.82590717 31 135 115
-0.18385303 0.43658361 -0.82598728 32 136 114
-0.17984442 0.43850961 -0.82636577 32 136 113
-0.1806463 0.4389703 -0.82662356 34 135 113
-0.1791157 0.43933108 -0.82669443 34 136 113
-0.17539482 0.43665403 -0.82540202 30 137 114
-0.17515098 0.43680438 -0.82546473 31 136 114
-0.17396925 0.43616825 -0.82511371 33 136 116
-0.17414404 0.43738368 -0.82570392 33 138 113
-0.17490099 0.43797725 -0.8260181 33 138 112
-0.17599143 0.43718526 -0.82568008 29 137 113
-0.1760225 0.43895671 -0.82645774 33 138 112
-0.17622992 0.43885213 -0.82641107 33 138 111
-0.17747793 0.43916741 -0.82654256 33 137 112
-0.17662853 0.43896788 -0.82645959 34 136 113
-0.17403351 0.43928733 -0.8266117 36 138 111
-0.17219019 0.43581179 -0.82500851 40 133 116
-0.17107499 0.43802449 -0.82607508 48 134 114
-0.17036372 0.43572962 -0.82505691 49 131 117
-0.17040725 0.43896261 -0.82653642 53 134 113
-0.17143403 0.43565717 -0.82497329 44 132 117
-0.17053469 0.43873703 -0.82642704 52 134 114
-0.17152728 0.43939885 -0.82671732 47 136 112
-0.17115432 0.43827173 -0.8261857 48 134 114
-0.17116231 0.43824545 -0.82617295 48 134 114
-0.17328776 0.43704721 -0.82554388 36 136 114
-0.17183161 0.43865266 -0.82635146 45 134 113
-0.17199446 0.43841225 -0.8262319 44 136 113
-0.166839 0.43820077 -0.82654709 52 135 113
-0.16702813 0.43797624 -0.8264246 52 135 113
-0.16708988 0.4365429 -0.82578355 52 134 114
-0.16652544 0.43657765 -0.82586855 53 134 114
-0.16668408 0.43681136 -0.82595229 52 134 114
-0.1695039 0.43598804 -0.82524085 51 131 116
-0.1686261 0.43877685 -0.82661283 53 134 113
-0.16989961 0.43878663 -0.82648104 54 133 113
-0.1688378 0.43840423 -0.82641941 53 134 113
-0.1677227 0.43918458 -0.82689637 53 135 112
-0.16912322 0.43705538 -0.8257708 52 132 115
-0.16220933 0.43824491 -0.82713842 42 134 114
-0.16395482 0.43664742 -0.82621551 47 134 114
-0.16475725 0.43629476 -0.82596135 50 135 114
-0.16300264 0.43741119 -0.82667094 44 135 114
-0.16220087 0.43755642 -0.82683253 42 135 114
-0.16367237 0.43580928 -0.825876 47 135 115
-0.1648248 0.43762192 -0.82654136 48 135 113
-0.16575399 0.4387565 -0.82692689 51 137 112
-0.16556139 0.43791565 -0.82657933 52 135 113
-0.1632001 0.43843096 -0.82710135 43 135 112
-0.16490157 0.43801248 -0.82670432 48 135 112
-0.16287231 0.43892238 -0.82735938 42 135 113
-0.16048445 0.4369404 -0.82690179 37 135 116
-0.16014402 0.43713158 -0.82705444 36 134 115
-0.15940399 0.43630907 -0.82680547 33 134 116
-0.16058905 0.43708965 -0.82695198 37 135 116
-0.16018237 0.43770224 -0.82730967 34 136 115
-0.16131181 0.43829286 -0.8273378 38 136 113
-0.16045739 0.4381904 -0.82747 36 135 114
-0.15990211 0.43839911 -0.82767862 33 134 115
-0.19264108 0.43382621 -0.82702947 52 135 112
-0.19088078 0.43549088 -0.82710439 54 134 112
-0.19235565 0.43527505 -0.82750636 54 134 112
-0.19144896 0.4344646 -0.82688743 52 134 112
-0.18847314 0.43396047 -0.82576507 42 135 114
-0.17523989 0.43534812 -0.82476926 28 135 116
-0.17058468 0.43478066 -0.82463896 43 133 116
-0.17299856 0.43503872 -0.82462615 34 134 117
-0.17243537 0.43549013 -0.82485026 38 133 116
-0.1662956 0.43487489 -0.82511622 50 134 115
-0.16610976 0.43448076 -0.82494253 48 134 115
-0.16705787 0.43514895 -0.82516938 51 133 115
-0.16695219 0.43533352 -0.82527083 52 134 115
-0.16984057 0.43476617 -0.82467622 46 133 116
-0.16258582 0.43395397 -0.82519305 41 135 116
-0.16401954 0.43391559 -0.82496345 42 136 115
-0.16414505 0.43402144 -0.82499027 43 136 116
-0.16383059 0.43320403 -0.82468599 40 135 116
-0.16553941 0.43374509 -0.82466435 44 135 115
-0.16493809 0.43489808 -0.82528764 47 135 115
-0.16441542 0.43529987 -0.82554799 48 134 115
-0.16243711 0.43553445 -0.82590222 44 136 116
-0.15864803 0.43172598 -0.82485056 31 133 118
-0.16143915 0.43378413 -0.8252961 38 136 116
-0.16193539 0.43290293 -0.82483977 38 136 117
-0.15891978 0.43229669 -0.82505298 33 134 118
-0.16086186 0.43266627 -0.82490671 36 135 117
-0.16018169 0.43280849 -0.82507467 36 134 118
-0.1589268 0.43467051 -0.8261354 33 133 118
-0.15872814 0.43533158 -0.82647437 33 132 117
-0.15883212 0.43519169 -0.82639122 33 133 117
-0.1594135 0.43385458 -0.82567239 35 134 117
-0.15825199 0.43358827 -0.82576531 31 133 118
-0.15887804 0.4355121 -0.82652926 33 133 116
-0.15792631 0.43467623 -0.8263365 29 134 117
-0.19085754 0.49529189 -0.84155607 34 135 111
-0.19182664 0.49531165 -0.84155744 34 136 110
-0.19142646 0.49523574 -0.84154606 34 136 110
-0.19185366 0.49447852 -0.84142452 34 135 110
-0.18972337 0.4957158 -0.84162569 33 137 111
-0.1882866 0.4956505 -0.84172028 34 135 112
-0.18901347 0.49483404 -0.8415249 33 135 111
-0.19023925 0.49175048 -0.8410092 33 137 110
-0.19038479 0.4907864 -0.84086007 33 137 110
-0.19043389 0.49028948 -0.84078294 33 137 110
-0.1903957 0.49252623 -0.84113181 33 138 110
-0.19070424 0.49228907 -0.84109771 33 138 110
-0.19051464 0.49353048 -0.84128463 33 138 110
-0.19211088 0.49404198 -0.84135592 34 136 110
-0.18776838 0.49100792 -0.84106559 32 137 112
-0.18858559 0.49040803 -0.84089154 32 137 112
-0.18632579 0.49039564 -0.84116238 30 136 113
-0.18649727 0.49242607 -0.84139746 33 135 113
-0.1860728 0.49287975 -0.84150571 33 137 113
-0.18876916 0.49141988 -0.841012 33 137 112
-0.18802428 0.49241722 -0.84123492 33 137 112
-0.1890358 0.49251407 -0.84115869 33 135 111
-0.18938753 0.49347219 -0.84127653 33 135 111
-0.18913719 0.49166241 -0.84101653 33 137 111
-0.1854824 0.49333805 -0.84163904 33 137 113
-0.18535411 0.49197 -0.84149104 32 136 114
-0.18537232 0.49125358 -0.8413974 31 136 113
-0.18450375 0.49158776 -0.84160358 32 137 114
-0.18552925 0.49311092 -0.84160161 33 137 114
-0.19195968 0.48777029 -0.8404811 35 137 109
-0.1918928 0.48805815 -0.84052682 35 137 109
-0.19150467 0.48716426 -0.84040612 35 137 109
-0.19107091 0.4895384 -0.840707 34 137 110
-0.18975535 0.48773053 -0.84050381 33 135 110
-0.18968593 0.48729637 -0.84045738 33 135 110
-0.18729883 0.48789799 -0.84072644 31 136 112
-0.18707961 0.48799402 -0.84075207 31 136 112
-0.18587855 0.48680377 -0.84055889 30 137 113
-0.18562816 0.48844391 -0.84088558 30 136 113
-0.18685959 0.48739782 -0.84064323 31 136 112
-0.18755987 0.48864827 -0.84082603 32 134 112
-0.18713544 0.48959354 -0.84097695 31 136 112
-0.18687655 0.48984632 -0.84103483 31 136 112
-0.18818724 0.48904109 -0.84079182 32 136 112
-0.18806992 0.48968318 -0.84087366 32 137 112
-0.18223479 0.48678422 -0.84093183 32 137 115
-0.1831087 0.4872475 -0.84092611 32 137 114
-0.18287894 0.48777503 -0.8410548 33 137 115
-0.18289566 0.48657671 -0.84081823 31 137 115
-0.1838178 0.48734179 -0.84086633 32 137 114
-0.18340969 0.48847476 -0.8411333 33 137 114
-0.18539432 0.48676899 -0.84057975 31 137 113
-0.18324231 0.48948601 -0.84134853 33 137 115
-0.1848805 0.48960429 -0.84118819 31 136 114
-0.18947126 0.48614115 -0.84031951 33 135 110
-0.18774404 0.48556617 -0.84027928 32 136 112
-0.18604386 0.48614842 -0.84043109 30 137 113
-0.18927246 0.48599136 -0.84029955 33 135 110
-0.18322191 0.48528573 -0.84052652 30 136 115
-0.18197604 0.48405465 -0.84030628 27 137 115
-0.18183087 0.48433217 -0.84038746 27 137 115
-0.1821392 0.48463023 -0.84044027 28 136 115
-0.18409586 0.48542616 -0.84049261 30 136 114
-0.18445215 0.48531437 -0.84043545 30 137 113
-0.18106526 0.48331344 -0.84025282 27 137 115
-0.17968167 0.48235741 -0.84027714 28 135 116
-0.1796498 0.48225713 -0.84026217 27 137 115
-0.17629085 0.47951421 -0.84026986 25 136 117
-0.17454851 0.47898412 -0.84042341 23 138 116
-0.17750609 0.48131347 -0.84046096 27 137 117
-0.17689906 0.4804796 -0.84037888 27 135 117
-0.17484601 0.47969651 -0.84053081 26 137 117
-0.17461567 0.48091519 -0.84085339 28 138 117
-0.17476483 0.48172152 -0.84101415 31 138 117
-0.17537224 0.48026755 -0.84057122 27 135 117
-0.17293297 0.47929499 -0.84082514 25 137 116
-0.1707972 0.47852963 -0.84104317 23 138 116
-0.1703293 0.47922969 -0.84132659 25 139 115
-0.17179216 0.48143542 -0.84159881 30 138 116
-0.17165145 0.48164454 -0.84168088 31 138 116
-0.17168957 0.48132902 -0.84159869 30 138 116
-0.17328967 0.47961074 -0.84081757 26 137 116
-0.16732955 0.47993815 -0.84222001 30 137 116
-0.1683519 0.48077494 -0.84222996 31 137 116
-0.16496779 0.47884265 -0.84242928 32 139 116
-0.17057909 0.47708157 -0.84066272 20 138 115
-0.17119224 0.47630692 -0.84031588 19 139 114
-0.17249444 0.47723228 -0.84034306 20 138 115
-0.17104402 0.47723117 -0.84061873 20 138 115
-0.17287812 0.47764537 -0.84039283 21 138 116
-0.17112689 0.47834501 -0.84093058 23 138 116
-0.16922966 0.47510317 -0.84035075 19 139 114
-0.16885072 0.47635129 -0.84080416 21 138 115
-0.16933891 0.47702429 -0.84089774 21 138 115
-0.16976807 0.47644997 -0.84063357 20 137 115
-0.16954678 0.47634679 -0.84065115 20 138 114
-0.16673908 0.47588384 -0.84112543 23 139 114
-0.16687548 0.47757536 -0.84159875 25 139 114
-0.16872285 0.47840178 -0.84144157 24 139 115
-0.16836122 0.47697198 -0.84109527 23 138 115
-0.16901049 0.47768191 -0.84116477 24 138 115
-0.16515286 0.47795054 -0.84211367 30 138 116
-0.16497986 0.47739497 -0.84199166 30 137 116
-0.16767129 0.47382307 -0.84026957 20 138 113
0 0 0 1 0 0 0 1 0 0 0 1 0 0 0 0 0 967 1 0 0
