ply
format ascii 1.0
comment PCL generated
element vertex 735
property float x
property float y
property float z
property uchar red
property uchar green
property uchar blue
element camera 1
property float view_px
property float view_py
property float view_pz
property float x_axisx
property float x_axisy
property float x_axisz
property float y_axisx
property float y_axisy
property float y_axisz
property float z_axisx
property float z_axisy
property float z_axisz
property float focal
property float scalex
property float scaley
property float centerx
property float centery
property int viewportx
property int viewporty
property float k1
property float k2
end_header
-0.1197369 -0.56282336 -0.7258029 137 140 122
-0.1194141 -0.56352174 -0.72596645 130 142 122
-0.11929392 -0.56277853 -0.72571111 133 140 122
-0.11923785 -0.56235623 -0.72556818 134 140 122
-0.11653712 -0.56321502 -0.72532421 128 141 122
-0.11735447 -0.56317168 -0.7254222 128 142 121
-0.11630631 -0.56212586 -0.72483581 134 140 123
-0.11750193 -0.56333202 -0.72551018 128 141 122
-0.11554643 -0.5625518 -0.72490603 131 141 122
-0.11858711 -0.56217462 -0.72535813 134 140 122
-0.11766394 -0.56275606 -0.72531509 131 141 122
-0.11813392 -0.56311184 -0.72554237 129 142 121
-0.11391389 -0.56323266 -0.72499734 129 141 123
-0.11371763 -0.56318372 -0.72495461 130 141 123
-0.11347361 -0.56343818 -0.72503316 132 141 123
-0.11358505 -0.56344718 -0.72504956 131 141 122
-0.11378084 -0.56298625 -0.72487938 130 141 122
-0.11512183 -0.5626598 -0.72489417 130 141 123
-0.11496013 -0.56140786 -0.72435218 136 140 123
-0.11361942 -0.56264955 -0.72472024 132 141 122
-0.11980356 -0.56448841 -0.72634262 130 141 121
-0.11859623 -0.56621695 -0.72686195 124 140 123
-0.11823288 -0.56578404 -0.72664082 124 141 122
-0.11848279 -0.56451172 -0.72614378 123 143 121
-0.11578924 -0.56609774 -0.72644359 124 140 123
-0.11662463 -0.56579614 -0.72643244 123 141 123
-0.11727333 -0.56462365 -0.72602016 123 142 122
-0.11628268 -0.56447506 -0.72581542 122 143 121
-0.11416114 -0.56753504 -0.72688693 130 137 125
-0.11329187 -0.56748825 -0.72678888 134 137 125
-0.11453872 -0.56634974 -0.72641081 127 139 124
-0.11503782 -0.56662053 -0.72657204 124 140 124
-0.11495676 -0.56696904 -0.72671473 125 140 124
-0.11972563 -0.59537596 -0.73867482 158 137 122
-0.1175139 -0.59527117 -0.73886961 149 137 121
-0.11844454 -0.59557939 -0.73890048 156 136 122
-0.14419411 -0.59870511 -0.73929095 148 140 117
-0.14472741 -0.59900939 -0.73940545 147 139 117
-0.1436224 -0.59919959 -0.73938531 147 139 116
-0.14330314 -0.59907722 -0.73933262 147 140 116
-0.14637494 -0.59889483 -0.7394672 146 139 116
-0.14646691 -0.59909797 -0.73952955 146 139 116
-0.14497606 -0.59779131 -0.73908454 146 140 117
-0.14555086 -0.59884501 -0.73941278 147 139 117
-0.14058666 -0.59959579 -0.73951793 148 140 116
-0.13958204 -0.59866095 -0.73929095 157 138 118
-0.14019477 -0.59908879 -0.73938757 153 139 118
-0.13940902 -0.59953868 -0.73955727 148 141 117
-0.14095974 -0.5991683 -0.73937446 152 138 117
-0.14150517 -0.59814751 -0.73906565 155 138 118
-0.14216158 -0.59788126 -0.73897988 151 140 118
-0.14178804 -0.59817326 -0.73906583 154 138 118
-0.14225249 -0.59784174 -0.7389673 150 140 117
-0.13741067 -0.59910029 -0.73943502 140 141 116
-0.13671055 -0.59855771 -0.73923874 135 141 115
-0.13551041 -0.59912395 -0.73946285 129 140 115
-0.13617074 -0.59954077 -0.7396124 133 140 115
-0.13741937 -0.59802341 -0.73909175 147 139 117
-0.13789611 -0.59859979 -0.73928213 148 140 117
-0.13730152 -0.59793293 -0.73905993 146 139 117
-0.13704143 -0.59822673 -0.73913485 140 141 116
-0.13390784 -0.59930766 -0.73960608 123 139 115
-0.13268432 -0.5984208 -0.73936868 121 139 117
-0.1312743 -0.59848332 -0.73950303 120 138 119
-0.13256276 -0.59941322 -0.73975146 122 139 117
-0.13105446 -0.59791356 -0.73930597 119 138 119
-0.13190867 -0.5969879 -0.73889089 119 138 118
-0.13287495 -0.59726405 -0.73891968 120 139 117
-0.13457911 -0.59914368 -0.73949212 124 139 115
-0.13422786 -0.59748322 -0.73889726 122 140 114
-0.12974177 -0.59900868 -0.73966652 124 139 119
-0.12798928 -0.59832394 -0.73932153 131 140 119
-0.12723631 -0.59958839 -0.73986363 133 142 120
-0.12841678 -0.59907824 -0.73966581 129 141 119
-0.13082391 -0.59639764 -0.73874879 118 138 120
-0.12983832 -0.59700942 -0.73890996 123 138 119
-0.13019408 -0.59806478 -0.73933178 122 138 119
-0.13075288 -0.59897208 -0.73971206 120 138 119
-0.13062654 -0.59773839 -0.73923922 120 138 119
-0.12457599 -0.59760076 -0.7391873 143 142 119
-0.12607343 -0.59692341 -0.73875302 138 140 119
-0.12657666 -0.59749919 -0.73896432 136 140 120
-0.12675019 -0.59837514 -0.73933721 135 142 120
-0.12626906 -0.59883869 -0.73958427 136 143 119
-0.11999425 -0.5964123 -0.73913085 164 136 123
-0.11970144 -0.59614396 -0.73903227 163 136 123
-0.12088963 -0.59619117 -0.73892456 158 138 121
-0.11734377 -0.59908211 -0.74065077 163 132 121
-0.11792748 -0.59858298 -0.74030972 164 132 122
-0.11612363 -0.59908062 -0.74084055 156 132 121
-0.11725067 -0.59944898 -0.74084902 165 131 121
-0.11828144 -0.59591734 -0.73906529 156 136 122
-0.11757475 -0.59596241 -0.73915952 150 136 121
-0.14675044 -0.60281169 -0.74085099 148 135 120
-0.14661309 -0.6031478 -0.74095428 149 135 121
-0.14699633 -0.60202593 -0.74060053 147 137 119
-0.14690223 -0.60330844 -0.74104667 148 135 121
-0.1472878 -0.60010368 -0.73995739 145 139 117
-0.14327121 -0.60115802 -0.7400887 151 138 118
-0.14443101 -0.60239655 -0.74061048 151 137 119
-0.14443916 -0.6033141 -0.74100727 155 136 121
-0.14265636 -0.59975946 -0.73949111 147 139 116
-0.14376695 -0.60183424 -0.74037522 152 138 119
-0.14418784 -0.59982342 -0.73960614 147 139 116
-0.14601973 -0.60283542 -0.74079758 149 135 120
-0.14360064 -0.59999865 -0.73963124 147 139 116
-0.14441893 -0.60062355 -0.73990631 148 138 117
-0.14609864 -0.60038078 -0.73992682 148 138 117
-0.1448428 -0.6002894 -0.7398141 148 138 117
-0.14071129 -0.60311872 -0.74099302 157 138 120
-0.1400661 -0.60259533 -0.740794 155 138 120
-0.13993593 -0.60180587 -0.74047709 153 139 119
-0.1396156 -0.60115683 -0.74022079 152 140 119
-0.1410905 -0.6021952 -0.74061185 157 139 120
-0.14047115 -0.60137445 -0.740291 154 140 119
-0.14149716 -0.60211456 -0.74056232 157 139 120
-0.1424825 -0.60307997 -0.74093294 160 139 121
-0.14003448 -0.6002993 -0.73984671 150 141 118
-0.14237021 -0.60221571 -0.74056447 157 139 119
-0.13746557 -0.60316354 -0.74108088 146 136 118
-0.1347809 -0.60016251 -0.73988682 126 139 115
-0.13493122 -0.60022384 -0.73990834 127 139 115
-0.13499421 -0.60334235 -0.74123222 135 140 117
-0.13481063 -0.6014899 -0.74045026 129 139 115
-0.13827324 -0.60011101 -0.73982012 146 141 117
-0.13785306 -0.6003024 -0.73990178 144 140 117
-0.13837543 -0.60053647 -0.73999131 147 140 117
-0.13618712 -0.60081035 -0.74012393 134 137 116
-0.1340501 -0.60342562 -0.74128568 135 139 117
-0.13096116 -0.60005945 -0.74011731 122 139 118
-0.13291289 -0.60217226 -0.74085057 130 139 118
-0.13289928 -0.60194528 -0.74077058 129 139 118
-0.13215755 -0.60174561 -0.74070477 130 138 119
-0.13186151 -0.60061222 -0.74030668 123 139 118
-0.13359037 -0.60197783 -0.74075145 129 140 117
-0.13375783 -0.60073912 -0.74021161 126 139 117
-0.13356903 -0.60072309 -0.74021971 126 139 117
-0.1340532 -0.60072249 -0.74018139 126 139 116
-0.13379364 -0.6016739 -0.74060619 129 140 117
-0.13135156 -0.59989387 -0.74004143 121 139 118
-0.12814413 -0.60150373 -0.74062306 139 141 120
-0.12713481 -0.60105759 -0.7404896 137 143 120
-0.12704648 -0.60114092 -0.74053156 138 143 119
-0.12909344 -0.60309613 -0.7412625 143 139 120
-0.12762639 -0.60281688 -0.74123031 142 142 119
-0.12806596 -0.600586 -0.74023736 136 141 120
-0.1304919 -0.601331 -0.74055809 132 137 120
-0.12794514 -0.59994364 -0.74000776 132 141 120
-0.1297151 -0.60061216 -0.74028587 130 139 119
-0.12756163 -0.59998536 -0.7400133 134 142 120
-0.12978907 -0.60036784 -0.74020135 128 139 120
-0.12662783 -0.60084146 -0.74044663 141 142 120
-0.12631628 -0.59991884 -0.74008119 141 142 120
-0.11556981 -0.60168213 -0.74238396 157 134 120
-0.11683672 -0.60005194 -0.74120736 163 132 121
-0.11519542 -0.60166544 -0.74247068 155 134 119
-0.1466732 -0.60400909 -0.74131858 146 136 121
-0.14365813 -0.60632747 -0.7423839 146 141 119
-0.14494202 -0.60526556 -0.74188554 146 139 120
-0.14327657 -0.60673255 -0.74257296 145 142 119
-0.14463255 -0.60476977 -0.74166238 150 138 120
-0.14288801 -0.60505992 -0.74181533 154 140 119
-0.1429577 -0.60579222 -0.74214751 151 141 119
-0.14406809 -0.60381889 -0.74123681 156 137 121
-0.14407104 -0.60390013 -0.7412737 156 137 121
-0.14047359 -0.60544556 -0.74197876 153 139 119
-0.1413174 -0.60510921 -0.74183208 155 139 120
-0.14086324 -0.60550523 -0.74200881 153 140 119
-0.141229 -0.60579848 -0.74214488 152 140 119
-0.14088982 -0.60567772 -0.74208742 152 139 120
-0.13908833 -0.60537881 -0.74197251 150 138 118
-0.14022622 -0.60427302 -0.74148309 154 137 119
-0.13952209 -0.60455543 -0.74161625 152 137 119
-0.13927513 -0.6038273 -0.74131358 153 136 119
-0.13903083 -0.6059438 -0.7422123 149 139 119
-0.13812695 -0.60482061 -0.7417469 148 137 119
-0.1381046 -0.6040706 -0.74143022 150 136 119
-0.13844964 -0.60612446 -0.74229646 147 139 118
-0.13717462 -0.60384178 -0.74136662 145 137 118
-0.1371284 -0.60393584 -0.74140471 145 137 118
-0.13507943 -0.60407227 -0.74152035 136 140 117
-0.13530411 -0.6039716 -0.74147421 138 139 118
-0.13733926 -0.60442317 -0.74158823 146 137 119
-0.13331355 -0.6049037 -0.74192584 134 141 118
-0.13301891 -0.60626668 -0.74247181 134 141 119
-0.13430829 -0.60608339 -0.74233651 135 141 118
-0.13238105 -0.60616344 -0.74246311 133 142 119
-0.13165803 -0.60509139 -0.7420435 134 140 119
-0.13318211 -0.60430211 -0.7416777 135 140 118
-0.13313709 -0.6038453 -0.74147195 136 139 118
-0.13131323 -0.60380936 -0.74146742 141 137 120
-0.12872806 -0.60572904 -0.74252456 133 143 119
-0.12725943 -0.60550845 -0.74255478 134 144 119
-0.12960021 -0.60431087 -0.74180776 140 139 120
-0.12963945 -0.60542381 -0.74230635 135 142 120
-0.12727277 -0.60470802 -0.74215919 138 143 119
-0.12988128 -0.60388327 -0.74158323 142 138 120
-0.12899722 -0.60432851 -0.74186194 140 139 120
-0.12631963 -0.60494721 -0.742374 144 142 119
-0.11532167 -0.55661213 -0.72260869 135 142 122
-0.11539908 -0.55653417 -0.72260141 134 141 122
-0.11301383 -0.55629414 -0.72221303 136 139 122
-0.13521764 -0.58649963 -0.73509282 119 140 116
-0.13578497 -0.5859251 -0.73495412 122 140 117
-0.13284516 -0.58740419 -0.73534489 113 139 116
-0.13383472 -0.58774531 -0.73545867 115 139 117
-0.13291632 -0.58767039 -0.73544228 112 139 116
-0.13198024 -0.58730125 -0.73531747 109 139 116
-0.13378605 -0.58684325 -0.73515707 115 140 116
-0.13429873 -0.58656949 -0.73508275 116 140 116
-0.13389891 -0.58649433 -0.73505145 115 140 116
-0.13392101 -0.58726001 -0.73528874 116 139 117
-0.12933719 -0.58744985 -0.73526758 106 139 116
-0.12817356 -0.58771694 -0.73526978 108 138 117
-0.13071603 -0.58715469 -0.73526609 106 138 115
-0.13029714 -0.58695608 -0.73516029 107 138 116
-0.13030128 -0.5874874 -0.73535675 106 138 115
-0.1244273 -0.58741355 -0.73509741 110 137 119
-0.12431213 -0.58719611 -0.73501354 112 137 119
-0.12549101 -0.58667147 -0.7348066 111 137 119
-0.12477402 -0.58679307 -0.73485589 112 137 119
-0.11994438 -0.58769357 -0.73533171 100 136 119
-0.12107923 -0.58746862 -0.7352013 103 137 119
-0.12168037 -0.58693534 -0.73496735 105 137 120
-0.12287077 -0.58706558 -0.73499221 110 136 120
-0.11587028 -0.58767474 -0.73555213 105 136 120
-0.11544732 -0.58613086 -0.73486787 101 134 120
-0.11611923 -0.58766353 -0.73553079 104 136 120
-0.11760463 -0.58614969 -0.73477632 97 136 120
-0.11702872 -0.58647263 -0.73493671 98 136 120
-0.11163921 -0.58555239 -0.73489147 107 143 119
-0.11326252 -0.5868665 -0.73537302 108 140 119
-0.11159629 -0.58599699 -0.73510092 109 143 119
-0.11397618 -0.58769572 -0.73570132 110 138 120
-0.11459858 -0.58722043 -0.73543268 107 137 120
-0.11239533 -0.58549774 -0.73480791 105 141 119
-0.1137887 -0.58583057 -0.73485428 103 138 119
-0.11092645 -0.58619624 -0.73522246 115 143 119
-0.13904622 -0.59113872 -0.73664975 155 136 119
-0.13886338 -0.59037358 -0.73641896 152 135 119
-0.13798948 -0.59177798 -0.73681164 154 136 118
-0.13835272 -0.59129006 -0.73665631 157 135 119
-0.13830346 -0.59040844 -0.73639995 151 136 119
-0.13822709 -0.59112793 -0.73660344 155 135 119
-0.13198303 -0.58966917 -0.73613042 112 139 115
-0.13141343 -0.59136426 -0.73669386 115 139 117
-0.13363236 -0.59086454 -0.73651618 119 141 114
-0.13398491 -0.5915907 -0.73675424 122 140 115
-0.13107845 -0.58890784 -0.73588383 107 139 115
-0.13239624 -0.58845282 -0.7357195 111 139 115
-0.13304955 -0.58834571 -0.73567539 113 139 116
-0.13331793 -0.58956623 -0.73608363 115 140 115
-0.13306384 -0.58898771 -0.7358917 114 139 115
-0.13334593 -0.58889401 -0.73585659 114 140 115
-0.12767696 -0.5901258 -0.73611265 112 138 118
-0.12816602 -0.58950478 -0.73588687 111 138 118
-0.12889782 -0.59160674 -0.7367146 114 138 117
-0.12770092 -0.59040362 -0.73622012 112 138 118
-0.12863448 -0.59065497 -0.7363416 112 139 118
-0.12873793 -0.59106821 -0.73650324 113 138 118
-0.12871729 -0.58804268 -0.73542643 108 138 117
-0.13060877 -0.59036046 -0.73634499 111 138 116
-0.13040224 -0.59040529 -0.7363432 112 138 117
-0.12956783 -0.59008086 -0.73616862 112 138 118
-0.13056427 -0.5909124 -0.73652387 113 138 118
-0.13040522 -0.59097171 -0.73653066 113 138 118
-0.12338914 -0.58979189 -0.73607409 112 139 119
-0.12324189 -0.59092617 -0.73654157 113 139 118
-0.12480575 -0.59048426 -0.73629469 112 139 118
-0.12366555 -0.58944124 -0.73591965 111 138 119
-0.12315755 -0.59079397 -0.73649144 113 139 118
-0.12682325 -0.58792257 -0.73524892 110 137 119
-0.12412316 -0.58875751 -0.73562664 110 138 119
-0.12662694 -0.58931518 -0.73578852 111 138 118
-0.12440144 -0.58909738 -0.73575145 110 138 118
-0.12428647 -0.58904111 -0.7357322 110 138 118
-0.11932628 -0.58878636 -0.73580819 108 135 120
-0.12213977 -0.59119684 -0.73669308 114 139 118
-0.12097286 -0.58974826 -0.73613733 105 138 118
-0.12048412 -0.58968282 -0.73613214 109 137 119
-0.12200147 -0.59088433 -0.73656803 112 139 119
-0.12068013 -0.58849156 -0.73563528 102 137 119
-0.12020928 -0.58892715 -0.73582739 101 138 119
-0.12079898 -0.58905536 -0.73586076 103 137 119
-0.12258974 -0.59008628 -0.73622304 111 138 119
-0.1195845 -0.58790785 -0.7354328 98 136 119
-0.12229457 -0.5881387 -0.73544061 107 137 119
-0.11529369 -0.5881725 -0.73582149 110 136 119
-0.11826397 -0.58845931 -0.73573583 108 135 120
-0.11708669 -0.58900124 -0.73604006 118 135 121
-0.11838693 -0.58805788 -0.73555905 101 136 120
-0.11780002 -0.58842528 -0.73575157 109 135 121
-0.11366549 -0.58822078 -0.7359758 114 140 119
-0.14029421 -0.59486699 -0.73807287 164 136 121
-0.13882773 -0.59394479 -0.73771268 172 133 121
-0.13915639 -0.59283859 -0.7372449 163 135 120
-0.1394365 -0.59391624 -0.73769033 166 134 121
-0.14000621 -0.59438896 -0.73787808 164 136 120
-0.13992175 -0.59349835 -0.7375074 159 137 120
-0.13976686 -0.59241557 -0.73709309 156 137 119
-0.14241758 -0.59546369 -0.73829162 146 143 119
-0.14201407 -0.5947575 -0.73802596 147 142 119
-0.14134011 -0.59332579 -0.7374956 150 139 120
-0.13989905 -0.59273845 -0.73721153 156 137 119
-0.13567425 -0.59444427 -0.73782122 137 138 116
-0.13642704 -0.59361029 -0.73756665 150 136 118
-0.1353056 -0.59259516 -0.73713619 133 139 116
-0.13735585 -0.59502745 -0.73812985 164 133 120
-0.13708022 -0.59542531 -0.73825628 159 134 119
-0.13480836 -0.5938074 -0.73754162 124 142 114
-0.1381782 -0.59236526 -0.73705548 160 135 119
-0.13807866 -0.59207177 -0.73693281 157 135 119
-0.13702382 -0.59325385 -0.73742676 154 136 119
-0.1382121 -0.59355527 -0.73755264 167 133 120
-0.1355664 -0.5919795 -0.73689431 133 139 116
-0.13853933 -0.59312177 -0.73737156 168 133 120
-0.13139001 -0.59434414 -0.73787659 117 139 118
-0.1328489 -0.59396464 -0.73761743 118 140 115
-0.13087656 -0.59518141 -0.73826414 117 138 119
-0.13212918 -0.59403002 -0.73769397 117 139 117
-0.13107565 -0.59467685 -0.73803812 117 138 119
-0.13425489 -0.59406531 -0.73763448 121 141 114
-0.13261262 -0.59200269 -0.73690391 118 140 116
-0.13373707 -0.59407532 -0.73764098 120 141 115
-0.13428991 -0.59191638 -0.73686349 123 141 115
-0.13355294 -0.59335715 -0.7373845 120 141 115
-0.13024002 -0.59551907 -0.73836875 119 138 120
-0.12805942 -0.59524077 -0.73809612 129 137 120
-0.12948374 -0.59548306 -0.73829657 124 137 120
-0.12846565 -0.59377623 -0.7375859 118 139 119
-0.12836121 -0.59537315 -0.7381686 128 137 120
-0.130631 -0.5954349 -0.73836601 117 138 119
-0.13054594 -0.59410161 -0.73780221 116 138 119
-0.13082877 -0.59293592 -0.73731881 115 138 118
-0.12763129 -0.59215415 -0.73690444 114 139 118
-0.13034588 -0.59327179 -0.73744744 115 138 118
-0.12977691 -0.59302151 -0.73732686 115 138 118
-0.12607843 -0.59535909 -0.73810375 137 137 120
-0.12483765 -0.59447044 -0.73783654 132 138 118
-0.1232164 -0.59548634 -0.7383436 143 141 117
-0.12388999 -0.59318614 -0.73739439 124 140 118
-0.12326094 -0.5932309 -0.7374537 125 140 118
-0.12346037 -0.59251708 -0.73715973 119 140 118
-0.1245767 -0.59197789 -0.7369051 115 139 118
-0.1240306 -0.59252745 -0.73713195 118 139 118
-0.12484905 -0.59274501 -0.73717719 120 139 118
-0.12395469 -0.59219152 -0.73701096 116 140 118
-0.12634553 -0.59260517 -0.73706108 119 139 118
-0.12510972 -0.59278619 -0.73718125 120 139 118
-0.12133764 -0.59478348 -0.73821294 149 139 119
-0.11939822 -0.59432584 -0.73822719 156 135 122
-0.12037752 -0.59364986 -0.73779881 150 137 121
-0.12126296 -0.59414583 -0.73792553 148 138 120
-0.12173871 -0.59517467 -0.73834765 149 139 119
-0.12271893 -0.59269154 -0.73727083 124 140 118
-0.12192099 -0.59296918 -0.73741657 133 139 119
-0.12245033 -0.59424466 -0.73789388 139 140 118
-0.12159003 -0.59394014 -0.73781353 144 139 119
-0.12277027 -0.59333444 -0.73752129 129 140 118
-0.12218069 -0.59322464 -0.73750514 134 139 119
-0.11776647 -0.59465837 -0.73857439 149 137 121
-0.1182501 -0.59386343 -0.73814803 150 136 122
-0.11881996 -0.59449387 -0.73837328 156 136 122
-0.14154196 -0.59596789 -0.73848104 155 140 121
-0.14129072 -0.59652215 -0.73863959 158 139 120
-0.13928276 -0.59593964 -0.73851401 177 132 122
-0.1369151 -0.5964877 -0.73861426 155 135 119
-0.13649651 -0.59580755 -0.73835808 149 136 118
-0.13290371 -0.596277 -0.73855549 119 140 116
-0.13384822 -0.59595478 -0.73837394 120 141 115
-0.13099441 -0.59570479 -0.73847646 117 138 120
-0.12982966 -0.59611773 -0.73857129 122 138 120
-0.12758572 -0.59663481 -0.73860836 133 138 120
-0.12720363 -0.59578979 -0.73823571 137 136 120
-0.12484615 -0.59645778 -0.73865497 142 140 118
-0.12421542 -0.59597886 -0.73850667 144 140 118
-0.12044647 -0.56712639 -0.72742158 130 139 122
-0.12173164 -0.56811321 -0.7279442 136 138 122
-0.12194835 -0.56825596 -0.72802252 137 137 122
-0.12163831 -0.56693655 -0.72751009 139 138 122
-0.12011663 -0.56637841 -0.72712046 131 139 122
-0.122417 -0.56773806 -0.72787648 140 138 122
-0.12133278 -0.5668869 -0.7274521 137 138 123
-0.11599601 -0.5678997 -0.72723502 124 138 124
-0.11570612 -0.56741726 -0.72699261 124 138 124
-0.11794773 -0.56752479 -0.72731835 124 138 123
-0.119041 -0.56724066 -0.72733849 124 138 122
-0.11480453 -0.5675742 -0.72696167 126 138 125
-0.12408867 -0.57117867 -0.7293328 133 138 122
-0.12427311 -0.57165408 -0.72953105 132 139 122
-0.12437221 -0.57202011 -0.72967821 130 139 122
-0.12336103 -0.5696404 -0.72867501 137 138 121
-0.12630329 -0.57163101 -0.7297793 134 139 122
-0.12465788 -0.57212394 -0.72975254 130 139 122
-0.12643364 -0.57139218 -0.72970694 135 139 122
-0.12583606 -0.57092077 -0.72945833 137 139 122
-0.12436141 -0.56966352 -0.72881001 138 139 121
-0.11961278 -0.56986046 -0.72844523 121 138 122
-0.12079196 -0.57085121 -0.72890884 123 138 122
-0.1202816 -0.57199508 -0.72934538 117 139 121
-0.12140074 -0.57094896 -0.72898054 126 138 122
-0.12055236 -0.569938 -0.72852618 125 138 122
-0.12189981 -0.56884032 -0.72823769 135 138 122
-0.12041225 -0.56876856 -0.72807723 129 137 123
-0.1216096 -0.57003409 -0.72865063 130 138 122
-0.12176862 -0.56924415 -0.72837442 133 138 122
-0.11956312 -0.56849635 -0.72790056 125 137 123
-0.12099526 -0.56973571 -0.72848547 128 138 122
-0.11557056 -0.57060236 -0.72828239 115 138 123
-0.11524779 -0.57202154 -0.72880733 109 140 122
-0.11657085 -0.57161081 -0.72881019 112 139 122
-0.11549601 -0.571702 -0.72871125 110 140 122
-0.1153782 -0.57180274 -0.72873658 109 140 122
-0.11531271 -0.5708912 -0.728365 114 139 123
-0.11741944 -0.56901234 -0.72787136 122 138 123
-0.11798826 -0.56901991 -0.72794229 122 138 123
-0.11694963 -0.56960726 -0.72805637 120 138 123
-0.11736073 -0.56843257 -0.72762948 124 137 123
-0.11791857 -0.5687694 -0.72783244 123 138 123
-0.11837983 -0.5706296 -0.72864121 116 139 122
-0.1124159 -0.5711332 -0.72825325 121 139 123
-0.11250578 -0.57153642 -0.72843337 119 139 123
-0.11226961 -0.57173467 -0.72850621 117 140 122
-0.11445075 -0.57173896 -0.7286303 112 139 122
-0.11338485 -0.57099169 -0.72824621 121 138 124
-0.11423401 -0.57063794 -0.72816253 120 138 124
-0.11345279 -0.56876904 -0.72734618 132 136 125
-0.11471477 -0.56900227 -0.72755474 124 138 124
-0.11385648 -0.5707615 -0.72817719 121 138 124
-0.1144516 -0.57063907 -0.72818297 118 139 123
-0.11353078 -0.56836212 -0.72719109 133 136 126
-0.11091131 -0.57023406 -0.72777593 132 137 124
-0.11067858 -0.56994855 -0.72763747 136 136 125
-0.1105615 -0.57096314 -0.72807056 129 138 124
-0.11069784 -0.57226253 -0.72864312 119 141 122
-0.13117771 -0.57349825 -0.73084646 134 140 120
-0.12923755 -0.57419741 -0.73084676 128 140 120
-0.13048589 -0.57364529 -0.7307902 133 139 121
-0.12916411 -0.57253426 -0.7303564 135 138 122
-0.12757567 -0.57360798 -0.73053658 127 140 120
-0.12900086 -0.57302976 -0.73048681 133 139 121
-0.12580346 -0.57463974 -0.73067099 123 139 120
-0.12418735 -0.57562935 -0.73079848 120 139 120
-0.12619014 -0.57346749 -0.73036861 128 139 122
-0.12377255 -0.57591391 -0.73084009 120 138 121
-0.12589112 -0.57288557 -0.73015791 129 138 122
-0.12523636 -0.57240379 -0.72992176 130 139 122
-0.12407918 -0.57467598 -0.73049849 124 138 121
-0.12524021 -0.57358766 -0.730299 127 138 121
-0.12394284 -0.57498252 -0.73057884 123 138 121
-0.12080383 -0.57451046 -0.73021597 113 138 120
-0.12055387 -0.57555723 -0.73057842 110 138 120
-0.12150323 -0.57543975 -0.73055619 114 138 120
-0.12139042 -0.57508045 -0.7304278 114 138 120
-0.1224969 -0.57609791 -0.73080707 117 138 120
-0.12033341 -0.57451218 -0.73020726 112 138 120
-0.12301472 -0.57293826 -0.72981328 127 138 123
-0.12165842 -0.57414538 -0.73012578 118 138 121
-0.12184814 -0.57469547 -0.73031092 117 138 120
-0.12118679 -0.57415211 -0.73010308 116 138 121
-0.12244474 -0.57428288 -0.73021108 121 138 121
-0.12291794 -0.57359958 -0.73001862 125 138 122
-0.11671 -0.57447875 -0.72991538 105 139 121
-0.11548818 -0.57547623 -0.73026162 104 138 122
-0.11804712 -0.57543808 -0.73039496 105 138 120
-0.11596234 -0.57450867 -0.72988427 105 138 122
-0.11655807 -0.57589465 -0.73049915 104 138 121
-0.11537185 -0.57398224 -0.72962946 106 139 122
-0.1180136 -0.57401562 -0.72986716 107 139 121
-0.11671452 -0.57261294 -0.72921121 108 139 121
-0.11539114 -0.5724082 -0.72897267 107 140 121
-0.11669489 -0.57230288 -0.72909993 108 140 122
-0.11885352 -0.57516223 -0.73037535 105 139 120
-0.11709101 -0.57253391 -0.72923088 108 139 121
-0.11419191 -0.57515174 -0.73005319 107 139 122
-0.11499294 -0.5761683 -0.73053056 104 138 123
-0.11134472 -0.57514316 -0.72998083 110 141 122
-0.11189776 -0.57340485 -0.72921091 112 141 122
-0.11293572 -0.57501739 -0.72996247 108 140 122
-0.11250039 -0.57334524 -0.7292015 112 140 122
-0.11514664 -0.57323605 -0.72930413 106 139 122
-0.11251172 -0.57332504 -0.72919363 112 140 122
-0.11394931 -0.57262123 -0.72897971 110 140 122
-0.11428089 -0.57392287 -0.72954315 107 140 122
-0.11518835 -0.57429445 -0.7297495 105 139 122
-0.11092727 -0.5758931 -0.73029995 111 141 122
-0.10934535 -0.57596457 -0.73032349 121 139 122
-0.11075231 -0.57350647 -0.72920704 116 140 121
-0.11116317 -0.574839 -0.72983307 112 140 122
-0.1095987 -0.57417005 -0.72943395 121 139 122
-0.11097413 -0.57478666 -0.72979766 113 140 122
-0.11655633 -0.57641757 -0.73072392 104 138 121
-0.11498544 -0.57672125 -0.73077583 104 137 122
-0.11290242 -0.5762499 -0.73051733 106 140 122
-0.11315639 -0.57639521 -0.73058945 106 139 122
-0.1101321 -0.57676291 -0.73071706 116 140 122
-0.10972995 -0.57639456 -0.73054397 120 139 122
-0.1159137 -0.60262299 -0.74285221 160 134 120
-0.11651693 -0.602516 -0.74262637 163 135 120
-0.11478148 -0.6029737 -0.74332511 156 135 120
-0.11479881 -0.60290253 -0.74327952 156 135 120
-0.14327091 -0.60690171 -0.74265325 145 143 118
-0.14127512 -0.60714877 -0.74276084 147 141 118
-0.13349007 -0.60736817 -0.74289685 135 141 119
-0.13228703 -0.60655969 -0.74262232 133 142 119
-0.12810531 -0.60663313 -0.74300122 132 145 119
-0.12871942 -0.60688365 -0.74305797 131 145 119
-0.12817185 -0.60673028 -0.74304086 132 144 120
-0.12947308 -0.60663277 -0.74286419 131 144 119
-0.13030525 -0.60692859 -0.74292368 130 144 119
-0.12584782 -0.60647351 -0.74316639 145 142 121
-0.1259605 -0.60542762 -0.74265426 145 142 120
-0.1173 -0.60461044 -0.74365294 158 136 120
-0.11755046 -0.6039533 -0.74320149 165 136 121
-0.11832663 -0.60501146 -0.74361157 159 137 120
-0.1166013 -0.60469127 -0.74388784 154 137 120
-0.13563311 -0.60835361 -0.74329156 136 140 118
-0.13593164 -0.60861635 -0.74341804 136 139 118
-0.13858002 -0.61047894 -0.74432552 135 137 117
-0.13154352 -0.60793507 -0.74331909 126 144 119
-0.13420472 -0.60796499 -0.74315763 133 141 119
-0.13371569 -0.60815734 -0.74329084 130 142 118
-0.13387126 -0.60791665 -0.74315453 132 141 119
-0.1279669 -0.60752964 -0.74345821 131 144 120
-0.12897827 -0.60825026 -0.74379671 126 144 120
-0.12817658 -0.60743666 -0.74337971 131 144 120
-0.12980719 -0.60828692 -0.74373424 124 145 119
-0.13000606 -0.60801458 -0.7435469 126 144 119
-0.12361939 -0.60939544 -0.74528426 138 138 120
-0.12656593 -0.60863525 -0.74429744 128 144 118
-0.12591095 -0.60817081 -0.74413979 135 143 120
-0.12567876 -0.60930955 -0.74486768 130 143 118
-0.124499 -0.60861683 -0.74467003 142 140 119
-0.12647945 -0.60827398 -0.74409628 130 144 119
-0.12624669 -0.60962331 -0.74495095 124 144 117
-0.13268888 -0.57428467 -0.73140848 130 142 120
-0.13228126 -0.57444549 -0.73136848 130 141 121
-0.13120349 -0.57540298 -0.73142266 125 141 120
-0.13276874 -0.57336318 -0.73114908 135 141 121
-0.13281967 -0.57426459 -0.73142719 130 142 120
-0.13232708 -0.57525367 -0.73158383 128 141 120
-0.13229685 -0.57491827 -0.7315014 128 141 120
-0.13293621 -0.57582146 -0.7318064 130 141 119
-0.1298463 -0.57592601 -0.73141581 120 141 120
-0.13060401 -0.57395184 -0.73089039 131 140 120
-0.1282919 -0.57451838 -0.73086131 124 141 120
-0.13068028 -0.57442439 -0.73103887 129 140 120
-0.12518707 -0.57588327 -0.73096555 118 140 119
-0.13374883 -0.57964498 -0.73282129 126 138 120
-0.13421202 -0.57961202 -0.73283845 127 138 120
-0.13217652 -0.58002335 -0.73284501 123 139 121
-0.13180608 -0.57737207 -0.73200524 123 140 120
-0.1314508 -0.57887858 -0.73244894 121 139 120
-0.13261688 -0.5762102 -0.73184878 128 141 119
-0.13293433 -0.57638705 -0.73193467 129 141 119
-0.1340716 -0.57837236 -0.73253834 129 140 119
-0.13256304 -0.57634878 -0.73187113 128 140 120
-0.12789008 -0.57719833 -0.73162055 115 141 119
-0.12806444 -0.57820028 -0.73198885 114 141 119
-0.12836656 -0.57922757 -0.73237175 113 140 119
-0.12798069 -0.57826269 -0.7320078 113 141 119
-0.12879077 -0.5795911 -0.7325207 113 140 120
-0.13073994 -0.57917237 -0.7324934 120 139 120
-0.13045958 -0.57815504 -0.73215312 120 140 120
-0.12897198 -0.57702422 -0.73166412 117 141 119
-0.13031788 -0.57842201 -0.73222214 120 139 120
-0.13065326 -0.57690716 -0.73178643 120 141 120
-0.12307226 -0.57846951 -0.73180896 111 138 119
-0.1235206 -0.57793003 -0.73162514 113 138 119
-0.12359893 -0.57913238 -0.73213589 109 139 118
-0.12618506 -0.57685035 -0.73142302 113 141 118
-0.12571342 -0.5773766 -0.73159909 112 141 118
-0.12364624 -0.57972366 -0.73237348 107 139 118
-0.1246865 -0.57978106 -0.73243093 107 139 119
-0.12617142 -0.57761472 -0.7317031 111 141 118
-0.12481517 -0.57919139 -0.73222303 108 140 118
-0.12466782 -0.58006656 -0.73253316 106 138 119
-0.12656258 -0.57768101 -0.73174077 111 141 118
-0.1199019 -0.57949471 -0.73210591 98 138 119
-0.1208154 -0.57996696 -0.73233354 100 138 119
-0.11974777 -0.5794434 -0.73207867 98 138 119
-0.1194679 -0.57968181 -0.73215938 96 138 119
-0.11959861 -0.57739323 -0.73126632 103 137 119
-0.12135881 -0.57635337 -0.73088378 112 137 120
-0.12224007 -0.57636243 -0.73090684 115 137 120
-0.12098717 -0.57761616 -0.7314043 107 138 119
-0.12227408 -0.57898593 -0.73200589 107 138 119
-0.12303212 -0.57733703 -0.73133212 115 138 120
-0.12248571 -0.57629108 -0.73088229 116 138 120
-0.11533627 -0.57785249 -0.73129374 102 138 122
-0.11559353 -0.57730186 -0.73104262 102 137 122
-0.11807635 -0.57998961 -0.73226166 96 138 120
-0.11638299 -0.57847959 -0.73157734 100 137 122
-0.11820306 -0.58000207 -0.73226714 96 138 120
-0.11838655 -0.57733768 -0.73118651 102 137 120
-0.11813284 -0.577326 -0.73116946 102 138 121
-0.11596939 -0.57692665 -0.73090667 103 137 122
-0.11840878 -0.57931596 -0.73196477 96 138 120
-0.1154629 -0.57702291 -0.73091966 103 137 122
-0.1115492 -0.57823455 -0.73139518 107 140 122
-0.11201928 -0.57964176 -0.73205459 106 138 122
-0.1144613 -0.57967854 -0.73210979 102 137 121
-0.11277507 -0.57963705 -0.73206425 105 138 122
-0.11157808 -0.5776481 -0.73112386 107 140 122
-0.11518855 -0.5784874 -0.73158193 101 137 122
-0.1147079 -0.57743627 -0.73109293 103 138 122
-0.11429667 -0.57912147 -0.73185104 102 137 121
-0.11448525 -0.57852131 -0.73158199 103 137 122
-0.11357325 -0.57870907 -0.73164749 103 139 121
-0.10982255 -0.57995677 -0.73220521 120 138 123
-0.11025743 -0.57949811 -0.7319836 116 138 123
-0.10948996 -0.57826722 -0.73141384 121 137 123
-0.11065944 -0.57745743 -0.7310341 113 139 122
-0.11070406 -0.57724559 -0.73093575 112 139 122
-0.1107452 -0.5777269 -0.73115867 112 139 122
-0.1310599 -0.58059144 -0.73296481 119 139 120
-0.13349177 -0.58271629 -0.73379683 116 141 117
-0.13348648 -0.58284789 -0.73384017 116 141 117
-0.13174041 -0.58274293 -0.73371422 116 139 118
-0.13146064 -0.58154935 -0.73330361 117 140 119
-0.13319863 -0.58320814 -0.73394471 115 140 117
-0.131742 -0.5805648 -0.73299438 120 139 120
-0.13423276 -0.581707 -0.7335127 121 140 118
-0.13397674 -0.58138824 -0.73339397 122 139 119
-0.13306522 -0.58143991 -0.73335689 120 140 119
-0.13241048 -0.58065921 -0.73306453 121 139 120
-0.1327346 -0.58151174 -0.73336065 119 140 118
-0.12856664 -0.58333522 -0.73373365 111 139 118
-0.12817393 -0.58142555 -0.73311436 109 139 119
-0.1293073 -0.58249587 -0.73351896 111 139 118
-0.12718229 -0.58335495 -0.73365259 111 139 118
-0.13046214 -0.58369207 -0.73396415 113 138 117
-0.12725802 -0.58186269 -0.7331928 109 139 119
-0.130273 -0.58255428 -0.73358071 114 139 118
-0.12993346 -0.5803867 -0.73284709 116 139 120
-0.13062121 -0.58097726 -0.73307228 117 139 120
-0.12912016 -0.58100235 -0.73301673 112 139 119
-0.13019927 -0.58192009 -0.73336715 115 139 119
-0.12874557 -0.58082813 -0.73294306 111 139 119
-0.12394508 -0.58381182 -0.7337184 116 136 120
-0.12327945 -0.5805344 -0.73263377 108 138 119
-0.12517925 -0.58276844 -0.7334016 111 138 119
-0.12461085 -0.58369309 -0.73369271 115 137 119
-0.12315858 -0.58358431 -0.73362851 117 136 120
-0.12491021 -0.58384216 -0.73374736 115 137 119
-0.12646386 -0.58218902 -0.73325795 110 138 119
-0.1268824 -0.58265996 -0.7334193 110 138 119
-0.12631148 -0.58117104 -0.73293561 108 139 119
-0.12555669 -0.58092928 -0.73283368 107 139 118
-0.12665352 -0.58244079 -0.73334295 110 138 119
-0.12665646 -0.5834862 -0.73366857 111 138 119
-0.12207417 -0.58340985 -0.73354465 112 136 120
-0.12103844 -0.58266544 -0.73326832 106 137 119
-0.12001682 -0.58351189 -0.73359269 99 138 119
-0.12137493 -0.58284163 -0.73333329 108 136 120
-0.12091891 -0.58259201 -0.7332412 105 136 120
-0.11965007 -0.58213133 -0.73307306 97 137 119
-0.12236191 -0.58283228 -0.73334885 113 136 120
-0.12283712 -0.58281195 -0.73336411 114 136 120
-0.12081554 -0.58051711 -0.73252076 102 138 119
-0.12167483 -0.58027458 -0.73248106 103 138 119
-0.12191275 -0.58192313 -0.73303097 109 137 119
-0.11641401 -0.58375835 -0.73377401 89 137 119
-0.11860622 -0.58367479 -0.73366636 93 138 119
-0.11729248 -0.58265406 -0.73329252 94 138 119
-0.11828295 -0.58339041 -0.7335608 93 138 119
-0.11717919 -0.58292639 -0.7334078 93 138 119
-0.1177306 -0.58376545 -0.73373282 91 137 119
-0.11780551 -0.58058584 -0.73249412 96 138 120
-0.11568316 -0.58028585 -0.73238468 99 137 121
-0.11598098 -0.58068728 -0.73253578 98 137 120
-0.1172813 -0.58143079 -0.73281419 96 138 120
-0.11850048 -0.58296406 -0.73339099 94 138 119
-0.11199748 -0.58133101 -0.73281819 103 138 122
-0.11153071 -0.58306634 -0.73370564 100 142 120
-0.11283183 -0.58392143 -0.73403871 94 141 119
-0.1113785 -0.58016616 -0.73228598 107 138 123
-0.11258134 -0.58170056 -0.7329607 101 138 122
-0.11418006 -0.58298063 -0.73348296 92 136 120
-0.11480562 -0.58324945 -0.73359859 90 136 120
-0.11439006 -0.58240598 -0.7332468 94 137 120
-0.11497552 -0.58189255 -0.73304576 94 136 120
-0.11487239 -0.5827269 -0.73338574 92 136 120
-0.1134628 -0.58083934 -0.73259097 101 137 122
-0.11335241 -0.58159137 -0.7328971 99 136 122
-0.11008869 -0.58310074 -0.73374957 113 141 121
-0.10980222 -0.58289015 -0.73364878 116 141 120
-0.11026319 -0.58393282 -0.73415691 113 141 120
-0.10977104 -0.58245617 -0.73343575 115 142 120
-0.11125225 -0.58359432 -0.73398066 100 143 119
-0.11072008 -0.58267856 -0.73353493 106 142 120
-0.11035237 -0.58263302 -0.73351657 110 142 121
-0.11131813 -0.58340508 -0.7338866 100 143 119
-0.1107944 -0.58208549 -0.73324168 107 141 121
-0.1357214 -0.58491379 -0.73467648 121 140 117
-0.1359358 -0.58482826 -0.73467195 122 140 117
-0.13294624 -0.5848754 -0.73452723 112 140 116
-0.13238156 -0.58515465 -0.73460352 112 139 116
-0.13193302 -0.58497751 -0.73451769 112 139 116
-0.13156918 -0.58443308 -0.73428959 113 139 117
-0.13130194 -0.5845142 -0.73430675 112 139 117
-0.12920573 -0.58538491 -0.73448479 111 138 118
-0.12923881 -0.58563977 -0.73458534 111 138 118
-0.130466 -0.58576727 -0.73473328 110 137 117
-0.12761484 -0.58574748 -0.73450637 110 139 118
-0.12715873 -0.58445281 -0.73401463 111 138 119
-0.12758121 -0.58436668 -0.73401046 112 138 118
-0.12901981 -0.58413482 -0.73401815 113 139 117
-0.12618662 -0.58515608 -0.73425907 111 138 118
-0.12532069 -0.58590358 -0.73453307 112 137 119
-0.12604819 -0.58615547 -0.73461759 111 137 119
-0.12421856 -0.58636981 -0.73470831 112 137 119
-0.12554301 -0.58409142 -0.73384923 114 137 119
-0.1257737 -0.58405435 -0.73383892 114 137 119
-0.12429859 -0.58565247 -0.73444921 112 137 119
-0.12419248 -0.58472806 -0.73407727 114 137 120
-0.12234339 -0.5844543 -0.73396116 114 136 120
-0.1221594 -0.58462524 -0.73403376 113 136 120
-0.12185288 -0.58566183 -0.73445541 109 136 119
-0.12263396 -0.58478111 -0.73408532 115 135 121
-0.11961707 -0.585967 -0.73462725 98 136 120
-0.12074925 -0.58414584 -0.73383737 103 137 119
-0.12011962 -0.58564216 -0.73448491 102 136 120
-0.11843073 -0.58496183 -0.73422796 95 137 119
-0.11743452 -0.58594728 -0.73469698 97 136 120
-0.11836336 -0.58542818 -0.73443192 96 137 119
-0.11811715 -0.58420289 -0.73390865 93 138 119
-0.11570014 -0.58517468 -0.73443043 96 135 119
-0.11665258 -0.58423823 -0.73397374 91 136 119
-0.11401103 -0.58456683 -0.73426276 94 138 119
-0.11408448 -0.58494508 -0.73442882 97 138 119
-0.11335257 -0.58555722 -0.73476183 103 139 119
-0.11193997 -0.58446014 -0.73435748 99 143 119
-0.11097141 -0.58482838 -0.73458225 108 143 119
-0.11124056 -0.58425927 -0.73430514 101 143 119
0 0 0 1 0 0 0 1 0 0 0 1 0 0 0 0 0 735 1 0 0
