ply
format ascii 1.0
comment PCL generated
element vertex 805
property float x
property float y
property float z
property uchar red
property uchar green
property uchar blue
element camera 1
property float view_px
property float view_py
property float view_pz
property float x_axisx
property float x_axisy
property float x_axisz
property float y_axisx
property float y_axisy
property float y_axisz
property float z_axisx
property float z_axisy
property float z_axisz
property float focal
property float scalex
property float scaley
property float centerx
property float centery
property int viewportx
property int viewporty
property float k1
property float k2
end_header
0.29002735 -0.14447427 -0.86981463 41 134 121
0.29081088 -0.14534953 -0.87040216 45 135 121
0.28974482 -0.14514099 -0.86950618 41 134 123
0.28911451 -0.14538428 -0.86897522 40 133 122
0.29027444 -0.14577401 -0.86990136 44 135 123
0.28971821 -0.14545816 -0.86946464 42 133 122
0.28961638 -0.14647149 -0.86932319 44 134 123
0.29170471 -0.1451153 -0.87146592 49 136 120
0.29127908 -0.1447911 -0.87095404 46 136 119
0.29110423 -0.14544623 -0.8706758 46 135 121
0.29032522 -0.14801314 -0.86981678 39 135 123
0.28973514 -0.14756876 -0.86935908 39 135 122
0.28901106 -0.14650476 -0.86882639 42 134 122
0.2908113 -0.14834301 -0.87019593 39 136 122
0.29183939 -0.14767179 -0.87140566 47 137 124
0.29176599 -0.14709473 -0.87137461 50 136 124
0.2917954 -0.14650558 -0.87145662 52 135 124
0.29161856 -0.14698818 -0.87120485 48 137 123
0.29623049 -0.14252533 -0.87679839 81 139 127
0.2978375 -0.14632338 -0.87911981 78 138 128
0.29736823 -0.14513613 -0.87842584 80 138 127
0.29746157 -0.14512523 -0.87857908 81 138 127
0.29741529 -0.14531933 -0.87849152 80 138 127
0.29729876 -0.14477374 -0.87833464 81 137 127
0.29607898 -0.14300135 -0.87651521 78 139 126
0.2982558 -0.15038584 -0.87910932 79 138 129
0.29676053 -0.14881006 -0.87716657 72 135 128
0.29786274 -0.14894573 -0.87876546 77 138 128
0.29736847 -0.14980249 -0.87789923 75 137 129
0.29749495 -0.14987557 -0.87807333 76 137 129
0.29771742 -0.14851056 -0.87862247 77 137 128
0.29792842 -0.15015976 -0.87866461 77 138 129
0.29627594 -0.14930993 -0.87636161 69 134 129
0.29574239 -0.14688726 -0.8756578 64 138 126
0.29618612 -0.14896162 -0.876239 69 135 128
0.29751682 -0.1471376 -0.8785404 76 138 127
0.29607013 -0.14870925 -0.87606692 68 135 128
0.29573318 -0.14804743 -0.87556225 65 136 127
0.29876697 -0.1524255 -0.87924492 76 138 133
0.29823431 -0.15364169 -0.87820792 68 138 133
0.29822844 -0.15205708 -0.8786388 73 138 130
0.29850036 -0.15194425 -0.87901503 76 138 132
0.29803154 -0.15182689 -0.8784526 72 139 129
0.29812157 -0.15255129 -0.87836653 71 138 131
0.29717675 -0.15314232 -0.87700421 63 138 130
0.29666552 -0.15143919 -0.87660044 67 136 129
0.29762018 -0.15077314 -0.87811196 75 137 130
0.29601789 -0.15270384 -0.87544376 58 136 129
0.29594871 -0.15189278 -0.87547302 62 135 129
0.29667601 -0.15234631 -0.87646931 63 137 129
0.29619828 -0.15377529 -0.87553596 54 137 129
0.29754135 -0.15110937 -0.87794173 73 138 129
0.29770428 -0.15477499 -0.87724322 60 139 132
0.29849777 -0.15457277 -0.87829697 66 139 135
0.29824898 -0.15499093 -0.87788421 61 140 133
0.29817122 -0.15536961 -0.87769765 58 142 133
0.29660499 -0.15453547 -0.87590402 53 139 129
0.29790786 -0.15583761 -0.87725478 53 143 131
0.29676998 -0.15579787 -0.8758325 47 141 128
0.2968933 -0.15548043 -0.87605256 48 141 128
0.29647622 -0.15513079 -0.87560987 48 140 128
0.2988835 -0.157353 -0.87820154 48 147 131
0.29921374 -0.15715759 -0.87901348 50 145 131
0.2988416 -0.15685888 -0.87821728 52 145 132
0.29970685 -0.17618833 -0.87728697 44 137 131
0.29916006 -0.17727995 -0.87613964 39 139 131
0.30055249 -0.17402892 -0.87912953 50 135 131
0.29948995 -0.17670159 -0.87682027 42 139 131
0.30044883 -0.176699 -0.87855595 53 135 130
0.29975498 -0.17713949 -0.87723655 45 138 131
0.300239 -0.17389838 -0.87861031 45 135 130
0.29996416 -0.17512624 -0.87791163 45 135 131
0.299667 -0.1784253 -0.87695229 45 140 129
0.29910833 -0.1779429 -0.87596852 39 139 131
0.29940796 -0.17941603 -0.87642688 42 139 128
0.29963851 -0.17997205 -0.8768121 44 140 126
0.29953995 -0.17878529 -0.87670189 43 140 128
0.29926774 -0.18099625 -0.8760798 40 142 124
0.300026 -0.17992967 -0.87749189 48 139 126
0.29972404 -0.18027718 -0.87693816 45 140 126
0.30021837 -0.17992072 -0.87782103 51 138 127
0.30007732 -0.18012835 -0.87755734 49 139 126
0.29944301 -0.18345228 -0.87604362 47 139 124
0.30007422 -0.18222809 -0.87729824 52 139 125
0.29932985 -0.18312857 -0.87589765 45 140 124
0.30012035 -0.1817757 -0.87744272 52 139 126
0.29948258 -0.18351915 -0.87610137 48 140 124
0.29991698 -0.1831765 -0.87689209 52 139 125
0.29929304 -0.18583129 -0.87542242 52 137 125
0.30522776 -0.13457394 -0.89815021 104 136 130
0.30529422 -0.13305719 -0.89848125 110 135 129
0.3053005 -0.13476454 -0.89860904 102 137 129
0.30502495 -0.13863762 -0.8957662 107 135 131
0.30519313 -0.13840385 -0.89694178 105 136 130
0.30516085 -0.1385788 -0.89668274 106 135 131
0.3053197 -0.13744989 -0.89802742 104 137 130
0.30544752 -0.13863312 -0.8985697 104 137 131
0.30505538 -0.13756944 -0.89624363 106 135 130
0.3049095 -0.1361184 -0.89577746 111 134 131
0.30530453 -0.13487437 -0.89860028 102 137 129
0.30490094 -0.13597944 -0.89576763 111 134 130
0.30521312 -0.13571076 -0.89777732 103 136 130
0.30498388 -0.13481563 -0.89663988 110 135 130
0.30563793 -0.14183232 -0.89772153 101 136 130
0.3056863 -0.14038566 -0.89878809 103 136 131
0.30528492 -0.1419012 -0.89599192 100 134 130
0.30530527 -0.14200601 -0.89602894 100 134 130
0.3055917 -0.13989764 -0.89861709 103 136 131
0.30538639 -0.13946714 -0.89782494 103 136 131
0.30532858 -0.13992216 -0.89725304 102 135 130
0.30508903 -0.13951628 -0.89583242 105 135 130
0.30520454 -0.13903643 -0.8967973 105 136 131
0.30520725 -0.14081906 -0.89607674 102 135 130
0.30579865 -0.14433782 -0.89743942 99 137 129
0.30568114 -0.1457836 -0.89636123 96 136 129
0.30568594 -0.1461654 -0.89623439 96 136 129
0.30589256 -0.14501916 -0.89758879 98 137 129
0.30619648 -0.14577088 -0.89863551 97 138 130
0.30563498 -0.14330335 -0.89703429 100 135 129
0.30542389 -0.14451151 -0.89561969 97 135 129
0.30520275 -0.14294697 -0.89508468 99 134 129
0.305424 -0.14482033 -0.89551705 97 135 129
0.30541497 -0.14583267 -0.8951351 96 136 128
0.30546287 -0.14444317 -0.89582914 98 135 129
0.30638114 -0.14717047 -0.89863241 95 139 130
0.30643159 -0.14970252 -0.89734137 89 139 130
0.30614913 -0.14954418 -0.89673191 91 139 131
0.30596361 -0.14929134 -0.89641511 92 138 131
0.30634195 -0.15033427 -0.89676559 88 139 130
0.30570564 -0.1478769 -0.89589453 95 137 130
0.30552137 -0.14793105 -0.89507121 94 137 129
0.30566555 -0.14755702 -0.89578754 95 137 130
0.3057853 -0.14758159 -0.89630949 95 138 130
0.30566996 -0.14688045 -0.89595419 95 137 129
0.30572423 -0.14659631 -0.89625508 95 137 129
0.30682412 -0.15009977 -0.8981545 85 140 129
0.30611581 -0.15194267 -0.89591652 89 139 132
0.30652574 -0.15315664 -0.89672786 86 140 132
0.30606651 -0.15157975 -0.89585513 89 139 132
0.30572701 -0.15050952 -0.89519399 92 137 132
0.30613467 -0.15334894 -0.89502919 86 139 133
0.30605954 -0.15233988 -0.89553529 88 139 132
0.30615655 -0.15282784 -0.89560646 88 139 133
0.30710068 -0.15111941 -0.89881992 82 141 129
0.30700988 -0.15233327 -0.89847577 82 141 130
0.30697751 -0.15287891 -0.89836299 82 141 131
0.30673093 -0.15181816 -0.89749259 85 141 130
0.30679443 -0.15053132 -0.89788824 85 140 129
0.3066318 -0.15489407 -0.89634204 85 140 134
0.3065069 -0.15499118 -0.89562112 85 139 134
0.3068023 -0.15534665 -0.89685833 84 139 134
0.30666962 -0.15672192 -0.8952055 85 136 135
0.30673942 -0.15742382 -0.8951667 85 135 135
0.30690709 -0.15590213 -0.89704996 84 138 134
0.30718809 -0.15780929 -0.89836574 83 136 133
0.30706307 -0.15546539 -0.89842677 82 140 133
0.30695376 -0.15672301 -0.89697933 83 137 134
0.30681708 -0.15793303 -0.89533401 84 134 135
0.30698544 -0.15593673 -0.89759016 83 139 134
0.30688825 -0.15776786 -0.89597994 83 134 134
0.30728543 -0.16181855 -0.8979246 82 134 135
0.30710822 -0.16135682 -0.8969804 80 135 135
0.30721939 -0.161107 -0.89772314 81 135 134
0.3070783 -0.16180855 -0.89667308 79 135 135
0.30719668 -0.16090775 -0.89764142 81 135 134
0.30687654 -0.15903603 -0.8956508 82 134 135
0.30712017 -0.1592426 -0.89759558 81 134 134
0.30695951 -0.15958251 -0.89629167 81 134 135
0.30706844 -0.15822397 -0.89722663 83 134 134
0.30686408 -0.15892534 -0.89555562 83 133 135
0.30747434 -0.16488503 -0.89796978 81 134 137
0.30751783 -0.16479629 -0.89824641 82 135 137
0.30754504 -0.16365601 -0.89881265 83 135 136
0.30712816 -0.16507854 -0.89595401 76 131 135
0.30743185 -0.16321737 -0.8983354 83 134 136
0.30761498 -0.16558892 -0.89850497 82 135 137
0.30706975 -0.16234903 -0.8964622 79 134 136
0.30694726 -0.16473815 -0.89497244 74 131 135
0.30727744 -0.16277426 -0.89758682 82 133 136
0.30735138 -0.16278724 -0.8980307 82 133 136
0.30708307 -0.16217843 -0.89659637 79 135 136
0.30749163 -0.16921903 -0.89600182 76 133 135
0.30756712 -0.16807929 -0.89702386 78 134 135
0.30750471 -0.16869858 -0.89620894 77 133 135
0.3075189 -0.16925538 -0.8963294 76 134 135
0.30765277 -0.16756703 -0.89811063 79 136 136
0.30720052 -0.16753614 -0.8951394 74 131 134
0.30720958 -0.16648906 -0.89579761 75 132 135
0.30725047 -0.16798535 -0.89515966 74 132 134
0.30748844 -0.16647579 -0.89737231 79 134 136
0.30730587 -0.16847052 -0.89518964 74 132 134
0.30752125 -0.16717136 -0.8971535 79 134 136
0.30767539 -0.1710795 -0.89727783 77 137 133
0.30750462 -0.17027852 -0.89582068 75 134 134
0.3075079 -0.16993321 -0.89612532 75 133 134
0.30770186 -0.16992666 -0.89848322 75 137 134
0.30765405 -0.17132948 -0.89682728 78 136 133
0.30107823 -0.14161575 -0.88569748 100 137 129
0.30171418 -0.14223921 -0.88672101 103 135 131
0.30095729 -0.14219181 -0.88532972 99 137 129
0.30202913 -0.14531176 -0.88686228 98 135 130
0.30190235 -0.14310737 -0.88690537 102 134 130
0.30161098 -0.14381017 -0.88623106 99 135 130
0.30176771 -0.14417142 -0.88649464 99 135 129
0.30212733 -0.14960629 -0.88644379 93 135 132
0.30136704 -0.14905751 -0.88530701 90 136 130
0.30153406 -0.14895067 -0.88559294 90 136 130
0.30249816 -0.1495598 -0.88704824 95 136 133
0.30260506 -0.15378265 -0.88591146 79 139 134
0.30210006 -0.15364322 -0.88517606 77 140 133
0.30264482 -0.15314583 -0.88619423 82 138 134
0.30236575 -0.15391728 -0.88549328 77 140 134
0.30133891 -0.15315068 -0.88415891 75 140 131
0.30108988 -0.15315087 -0.88375795 74 140 131
0.30083978 -0.15360852 -0.88320756 71 141 131
0.30179372 -0.15154096 -0.88541067 85 137 133
0.3017039 -0.15093623 -0.88546127 88 137 132
0.30309176 -0.15394756 -0.88686568 76 139 133
0.3028864 -0.15203777 -0.88706744 85 138 133
0.30191875 -0.15564308 -0.88453573 70 140 133
0.3022337 -0.15623303 -0.88496673 70 140 134
0.30225635 -0.15523455 -0.88509977 73 140 134
0.30225798 -0.15502024 -0.88512337 73 140 133
0.30267635 -0.15565333 -0.88571054 73 139 134
0.30131122 -0.15765974 -0.88322282 65 139 132
0.30261612 -0.15803085 -0.88537806 67 138 134
0.30154181 -0.15816957 -0.8835308 64 138 132
0.301608 -0.15819702 -0.88363874 64 138 132
0.30318117 -0.15507367 -0.88686359 72 139 133
0.30317897 -0.15540408 -0.88681763 71 139 133
0.303222 -0.15578377 -0.88685864 70 139 134
0.30273414 -0.15547411 -0.88581795 74 139 135
0.30304471 -0.15490629 -0.88657731 73 140 133
0.30228883 -0.16059928 -0.88432044 68 134 135
0.30232611 -0.15936804 -0.88462704 67 137 135
0.30167979 -0.15857631 -0.88368595 65 138 133
0.30175537 -0.15931129 -0.88366908 66 137 133
0.3015328 -0.15929008 -0.88335776 65 137 133
0.30196846 -0.16029453 -0.88387448 66 135 134
0.30241707 -0.16129555 -0.88440949 69 134 136
0.30309477 -0.16073741 -0.88578588 68 134 136
0.30304164 -0.16173492 -0.88547009 69 134 136
0.3031629 -0.15998003 -0.88608104 67 135 135
0.30321321 -0.15979166 -0.88622099 66 136 135
0.30294871 -0.16031013 -0.88557577 68 135 136
0.30300421 -0.15878303 -0.88599193 67 137 135
0.3026498 -0.1633459 -0.88440382 68 133 137
0.30180714 -0.16275747 -0.88335371 65 132 135
0.30256659 -0.1649524 -0.88395417 66 134 136
0.30237967 -0.16547967 -0.88355404 66 133 136
0.30351761 -0.16529281 -0.88602114 61 136 135
0.30384648 -0.16298683 -0.88693821 63 136 134
0.30335742 -0.1646886 -0.88562155 64 135 136
0.30392194 -0.16445065 -0.88709432 60 136 135
0.30291411 -0.16276684 -0.88500041 69 133 137
0.30288139 -0.16551323 -0.88436443 66 135 136
0.30288208 -0.16480254 -0.8845135 66 135 136
0.30270913 -0.1674118 -0.88360107 66 134 136
0.30308273 -0.16800581 -0.88440633 63 134 136
0.30347705 -0.16602124 -0.88589483 60 135 136
0.30308223 -0.16783044 -0.88444597 63 134 136
0.30306754 -0.16776642 -0.88442284 63 134 136
0.30303225 -0.16891135 -0.88405776 63 134 136
0.30351105 -0.16964433 -0.88513458 61 136 135
0.30374306 -0.16966283 -0.88573605 61 137 134
0.30328959 -0.16864452 -0.88478893 61 135 136
0.30350915 -0.16859445 -0.88537383 61 135 135
0.30383977 -0.16947956 -0.88603121 61 135 134
0.30405134 -0.17361173 -0.88594472 66 137 133
0.3030183 -0.17360827 -0.88349086 63 140 134
0.3038713 -0.17169161 -0.88582528 62 138 133
0.3042798 -0.17279623 -0.88661844 65 137 134
0.30405489 -0.17235486 -0.88615495 63 137 133
0.30353171 -0.1713258 -0.88501501 62 138 134
0.30311 -0.17041984 -0.88398427 63 135 136
0.30358014 -0.17164524 -0.8851167 62 138 134
0.3029325 -0.17119415 -0.88346076 64 136 135
0.30309775 -0.17011058 -0.88397634 63 135 136
0.30344748 -0.17535502 -0.88436842 69 138 134
0.30392563 -0.17410354 -0.88559198 66 138 133
0.30391598 -0.11405888 -0.90268534 89 134 123
0.30404916 -0.11430979 -0.90209973 90 134 124
0.30403909 -0.11389893 -0.9020431 90 135 123
0.30421954 -0.11664524 -0.90113384 91 133 124
0.30429578 -0.11592614 -0.90095109 92 133 124
0.30425018 -0.11618075 -0.90110666 91 134 124
0.30413234 -0.12137663 -0.90203953 91 131 123
0.3041577 -0.12239055 -0.90187842 85 133 122
0.30461466 -0.12574105 -0.90110046 90 133 124
0.30441058 -0.1252311 -0.90186834 84 133 123
0.3041921 -0.12416056 -0.90210736 79 135 122
0.30411538 -0.12386987 -0.90228593 77 134 122
0.3046563 -0.12643711 -0.90160209 88 133 125
0.30433515 -0.12435278 -0.90140456 85 134 123
0.30448726 -0.12482902 -0.90093422 90 134 124
0.30472416 -0.12757361 -0.90194082 88 133 125
0.30499923 -0.13385645 -0.90069079 102 134 128
0.30527124 -0.13318607 -0.89925647 107 135 129
0.30519649 -0.13738643 -0.90011656 103 136 130
0.30507019 -0.137228 -0.90075886 101 136 129
0.30481035 -0.13753581 -0.90221429 94 133 128
0.30482072 -0.13824178 -0.90230769 91 133 127
0.30478925 -0.13817698 -0.90246242 91 133 127
0.305071 -0.13674442 -0.90065277 103 135 129
0.30483767 -0.13531403 -0.90160096 102 134 128
0.30515394 -0.13694081 -0.90025091 103 135 129
0.30497432 -0.13507076 -0.90082121 102 135 128
0.30516547 -0.13513878 -0.89981538 102 137 129
0.30484843 -0.13535029 -0.90155101 102 134 128
0.30522242 -0.14033139 -0.90121114 93 134 128
0.30473468 -0.14250049 -0.90248501 99 132 130
0.3059288 -0.14250423 -0.89892417 101 137 129
0.30512604 -0.14145066 -0.90140539 97 134 129
0.30492088 -0.14066634 -0.90208238 94 133 128
0.30479282 -0.14247869 -0.90231341 99 132 130
0.30546436 -0.1395795 -0.89954007 100 136 130
0.30531475 -0.13944875 -0.9002561 97 135 129
0.30559215 -0.14099824 -0.89977157 98 136 129
0.30554205 -0.14106815 -0.90008479 97 136 128
0.30591512 -0.14223084 -0.8988387 102 136 130
0.30542007 -0.13913991 -0.89949334 100 136 130
0.29888135 -0.14263242 -0.90269792 19 135 113
0.30478108 -0.14325885 -0.90250009 99 131 131
0.3048479 -0.14359275 -0.90237963 98 132 130
0.30612531 -0.14611129 -0.8992576 96 138 130
0.30508777 -0.14470015 -0.90192771 97 132 130
0.30583152 -0.14568599 -0.90000826 96 137 130
0.30531004 -0.14523824 -0.90140557 97 133 130
0.30604923 -0.14371581 -0.89885777 100 137 129
0.30609825 -0.14564903 -0.89921921 97 138 130
0.30572149 -0.14407079 -0.89992815 98 136 130
0.30523717 -0.14329956 -0.90116966 99 134 130
0.30572054 -0.14264308 -0.8995561 101 136 130
0.30538592 -0.14306277 -0.90066409 99 135 130
0.3064436 -0.15017058 -0.90059602 81 140 129
0.30635035 -0.150369 -0.90095311 80 140 128
0.30639586 -0.14808279 -0.89955914 91 139 130
0.30623153 -0.14710799 -0.89938456 94 139 130
0.30564153 -0.15005499 -0.90268236 84 137 129
0.30564311 -0.14844903 -0.90179569 89 135 129
0.30533662 -0.14838023 -0.90263492 89 133 129
0.30544481 -0.14778888 -0.90200049 90 134 128
0.30526814 -0.1465224 -0.90181029 95 132 129
0.30703828 -0.15034162 -0.89902139 81 141 128
0.30549115 -0.15262182 -0.90242082 80 137 127
0.30618778 -0.15125945 -0.90107274 80 139 128
0.30568272 -0.15137121 -0.90237957 81 137 128
0.30601779 -0.15216765 -0.90121609 79 138 127
0.30628192 -0.1531866 -0.90046328 79 140 129
0.30585769 -0.1529766 -0.90141684 78 138 128
0.30621618 -0.15228958 -0.90076596 78 140 128
0.30602255 -0.15206684 -0.9012239 79 138 127
0.30682191 -0.15285 -0.89945376 80 142 131
0.30710486 -0.15047678 -0.89885288 81 141 128
0.30688259 -0.15153416 -0.89943814 81 141 130
0.30561054 -0.15607378 -0.90230894 78 135 127
0.30555606 -0.15529686 -0.90216631 78 136 127
0.30632642 -0.15465236 -0.90028727 78 141 130
0.30591783 -0.15492198 -0.90125966 79 138 129
0.30631486 -0.15447149 -0.90025163 79 142 131
0.306499 -0.15592705 -0.90022105 79 140 130
0.3065711 -0.15541224 -0.89991683 80 141 131
0.30653292 -0.15779598 -0.90053356 80 136 130
0.3068856 -0.1559165 -0.89925182 81 139 132
0.30687758 -0.15668033 -0.89943588 81 138 132
0.30721226 -0.15779538 -0.8988812 83 135 133
0.30703035 -0.15614314 -0.8990252 82 138 132
0.30564699 -0.15960369 -0.90272111 75 134 127
0.30563593 -0.15982656 -0.90270722 75 134 127
0.30623358 -0.15880752 -0.90130526 78 135 129
0.30657965 -0.16018088 -0.90035999 78 136 131
0.30557162 -0.16197644 -0.90249401 71 134 128
0.30605304 -0.16185454 -0.90143472 74 135 130
0.30625972 -0.16169959 -0.90098554 75 135 131
0.30687609 -0.16041435 -0.89983535 80 135 133
0.30716968 -0.16123806 -0.89932072 82 134 135
0.30694884 -0.15848762 -0.899625 82 135 132
0.30670762 -0.15843645 -0.90019804 81 135 131
0.30605307 -0.16230214 -0.90150392 73 134 130
0.3058643 -0.16287078 -0.90216643 73 133 129
0.30655247 -0.1626284 -0.9005385 76 136 132
0.30608809 -0.1624617 -0.90149498 74 135 130
0.30662513 -0.16561756 -0.90168351 83 132 132
0.30719671 -0.1652319 -0.89990944 82 135 135
0.30732644 -0.16583586 -0.89980596 82 135 135
0.3071903 -0.16521528 -0.89992034 82 135 135
0.3073554 -0.1659147 -0.89975846 82 135 136
0.30759579 -0.16494939 -0.89888471 82 136 137
0.30717841 -0.16389927 -0.89944404 79 137 135
0.30653292 -0.16711169 -0.90228766 77 133 130
0.30634657 -0.16629671 -0.90251791 81 131 130
0.30665955 -0.1681595 -0.90216494 73 133 130
0.30681723 -0.1680305 -0.90159982 75 134 131
0.30704737 -0.1683792 -0.90087676 76 135 131
0.30682689 -0.1671675 -0.90140349 79 134 131
0.30715853 -0.16657132 -0.90037137 82 134 134
0.30738032 -0.16756544 -0.89976573 80 136 134
0.30706853 -0.16710612 -0.90063763 81 134 133
0.30727005 -0.16764641 -0.90007943 80 135 134
0.29315794 -0.14155933 -0.87304991 54 143 121
0.29308951 -0.14227806 -0.87298203 56 141 120
0.2922307 -0.14100549 -0.87215585 46 141 120
0.29274732 -0.14057519 -0.87265581 48 143 122
0.29280198 -0.14192007 -0.87270528 53 141 120
0.29274976 -0.14145535 -0.87265599 51 142 120
0.29277238 -0.14388546 -0.87258804 51 138 119
0.292835 -0.14327767 -0.87268901 52 140 119
0.29337743 -0.14306852 -0.8732267 57 140 120
0.29320723 -0.14448448 -0.87296814 51 140 119
0.29362968 -0.14343727 -0.87344575 58 140 121
0.29249528 -0.14277205 -0.87239456 52 139 117
0.29350376 -0.1461625 -0.87314004 55 138 124
0.29198456 -0.14380971 -0.87183076 48 137 118
0.29243726 -0.14554375 -0.87215 51 138 122
0.29245573 -0.14597628 -0.87213814 53 137 123
0.2921145 -0.14448693 -0.8719101 50 138 119
0.29170233 -0.14452074 -0.87150872 49 136 120
0.2930178 -0.14731012 -0.87259167 55 135 125
0.29434335 -0.14794183 -0.87383229 58 138 126
0.29288948 -0.1467969 -0.87250209 54 137 124
0.29428208 -0.1475939 -0.87379646 58 138 126
0.29468575 -0.14807145 -0.87415504 60 137 127
0.29347965 -0.1470383 -0.87305713 56 137 125
0.29254481 -0.14887704 -0.87201351 50 136 125
0.29274473 -0.14842768 -0.87224424 53 136 125
0.29196078 -0.14817239 -0.87149543 46 138 123
0.29215756 -0.14908002 -0.87161821 45 137 124
0.29370409 -0.14988038 -0.8730725 55 135 127
0.29538345 -0.14917453 -0.87496805 64 135 129
0.2955299 -0.1483627 -0.87522936 64 136 127
0.29534242 -0.14739782 -0.87502044 63 138 126
0.29407516 -0.15045376 -0.87338835 56 135 128
0.29401129 -0.15214707 -0.87309766 48 137 127
0.29392058 -0.1520083 -0.87302744 48 137 127
0.29468507 -0.15275666 -0.87367612 51 137 128
0.29394957 -0.15205885 -0.87304908 48 137 127
0.29420373 -0.15084554 -0.87346166 56 135 128
0.29452202 -0.15412955 -0.87333757 46 138 127
0.29589418 -0.15316224 -0.87520188 56 136 129
0.29563513 -0.15384381 -0.87474495 52 137 128
0.29563877 -0.15131855 -0.87512952 62 134 129
0.29504371 -0.15039383 -0.8744024 64 133 130
0.2953485 -0.15056305 -0.87481976 64 133 129
0.29518321 -0.15497543 -0.87392902 44 140 127
0.29872024 -0.1833643 -0.87472922 42 141 124
0.29858774 -0.18459266 -0.87429845 45 140 124
0.29874617 -0.18221365 -0.87500256 38 143 123
0.29811805 -0.18515538 -0.87355584 45 139 125
0.29892853 -0.18299361 -0.8751716 40 142 123
0.29886901 -0.18317921 -0.87499523 42 141 124
0.29776555 -0.18807378 -0.87262046 49 137 125
0.30253798 -0.14100419 -0.88861966 108 135 131
0.3027125 -0.14053799 -0.88908428 110 135 131
0.30188292 -0.13974006 -0.88767982 106 138 130
0.3027249 -0.14128117 -0.88891023 109 135 131
0.3022638 -0.1424031 -0.88772196 105 134 131
0.30225372 -0.1421545 -0.88776684 105 135 130
0.30261332 -0.14247832 -0.88837546 106 134 131
0.30347106 -0.14152397 -0.89055908 103 134 130
0.30368677 -0.1423704 -0.89088362 99 134 130
0.30299687 -0.14237547 -0.88924903 105 135 130
0.30346432 -0.13990341 -0.89089966 108 134 130
0.30276582 -0.14155996 -0.88892019 108 135 131
0.30275255 -0.14197654 -0.88878131 108 134 131
0.30239961 -0.14281286 -0.88790256 105 134 131
0.30212891 -0.14306571 -0.88734299 103 134 131
0.30236983 -0.14529264 -0.8874917 99 136 129
0.30382022 -0.14510241 -0.89072442 98 134 129
0.30311921 -0.14562112 -0.88902259 98 135 129
0.30343422 -0.14383744 -0.8900488 97 135 129
0.30344325 -0.1458914 -0.88972324 97 135 129
0.30344284 -0.14415012 -0.8900159 97 135 129
0.30288368 -0.14317459 -0.88884598 104 134 130
0.30279785 -0.14470337 -0.8884111 101 136 130
0.30362174 -0.14298151 -0.89062279 98 134 130
0.30246684 -0.14731246 -0.88737446 96 136 130
0.30401659 -0.15016474 -0.89026701 92 135 133
0.30420274 -0.14985794 -0.89074826 92 135 133
0.30364832 -0.14821689 -0.88978493 96 134 131
0.30412886 -0.15008508 -0.89053786 92 135 133
0.30374074 -0.14825025 -0.88998973 96 134 131
0.30373141 -0.15015401 -0.88961804 93 136 133
0.30301183 -0.14744975 -0.88845873 97 136 130
0.30329847 -0.14786208 -0.88904589 96 135 131
0.30311343 -0.14893988 -0.88842887 96 135 132
0.30275449 -0.14690782 -0.88796216 97 136 129
0.30341753 -0.15062287 -0.88877678 92 136 134
0.30324581 -0.15131423 -0.88814181 89 137 134
0.30431035 -0.15050191 -0.89085686 90 135 133
0.30330342 -0.15236086 -0.88790506 83 137 133
0.3034032 -0.15292856 -0.88793308 80 138 133
0.3029277 -0.15164681 -0.88729888 87 137 134
0.30414355 -0.15134132 -0.89019567 87 136 133
0.30443257 -0.1526244 -0.8905946 81 138 132
0.30419004 -0.15383232 -0.88964564 75 139 132
0.30465147 -0.15396108 -0.89079869 74 140 130
0.30438566 -0.15166689 -0.89073122 85 137 132
0.30414492 -0.15657598 -0.88902044 68 139 132
0.30372927 -0.15782483 -0.88775623 66 139 133
0.30465204 -0.15479051 -0.89062291 72 140 131
0.30467555 -0.15498523 -0.89063358 72 140 130
0.30416739 -0.15643218 -0.88910633 69 139 132
0.30445081 -0.15799037 -0.88941544 69 139 132
0.3044115 -0.15491934 -0.88999307 72 139 131
0.30348817 -0.15628967 -0.88740176 68 139 132
0.30340832 -0.1567772 -0.88711983 68 138 133
0.30393338 -0.15551794 -0.88866866 71 139 132
0.30389062 -0.15470883 -0.88868558 72 140 132
0.3054392 -0.16196592 -0.89090073 77 130 135
0.30499798 -0.15893453 -0.8904798 71 138 132
0.3046349 -0.16098708 -0.88914466 69 135 133
0.3052077 -0.16064344 -0.89062166 74 133 134
0.30505598 -0.16014376 -0.89035887 72 135 133
0.30415109 -0.16123785 -0.88790864 66 136 134
0.30420655 -0.15839611 -0.88874418 68 138 132
0.30372098 -0.15836494 -0.88760978 65 138 133
0.30427855 -0.15974374 -0.88857913 67 137 133
0.30424362 -0.15990323 -0.88845748 67 137 133
0.30458632 -0.15910995 -0.88946038 68 138 132
0.30502003 -0.16556261 -0.88946921 68 134 134
0.30450603 -0.1651666 -0.88843524 63 134 135
0.30544686 -0.16273826 -0.890809 76 130 135
0.305278 -0.16591486 -0.8899647 70 134 134
0.30564889 -0.16457625 -0.89095867 76 132 134
0.304735 -0.16506806 -0.88893783 65 135 134
0.3046996 -0.16262133 -0.88904589 70 133 135
0.30414057 -0.16392718 -0.88764381 62 135 135
0.30455917 -0.16288994 -0.88869518 68 133 135
0.30394122 -0.16338699 -0.88716972 62 136 135
0.3040247 -0.16383532 -0.8873626 61 136 135
0.3048602 -0.16273798 -0.88943607 71 133 134
0.30557379 -0.16655703 -0.89047641 73 133 134
0.30579668 -0.16673291 -0.89091259 77 133 135
0.30560905 -0.16759501 -0.89034718 76 133 135
0.30562586 -0.16873208 -0.89015949 78 132 136
0.30424935 -0.16767544 -0.88744432 59 137 134
0.30428779 -0.16620129 -0.88780582 60 136 135
0.30422631 -0.16729666 -0.88746709 59 137 134
0.30415848 -0.16639525 -0.88749373 58 136 135
0.30500749 -0.16758472 -0.8890757 67 135 134
0.30443555 -0.16848978 -0.88768637 61 137 133
0.30469522 -0.17192951 -0.88767397 67 136 134
0.30459651 -0.17210419 -0.88744062 66 136 134
0.30437362 -0.17027678 -0.88723075 61 137 133
0.30514774 -0.17006288 -0.88889617 73 133 136
0.30274332 -0.11809681 -0.90564811 56 134 122
0.30280998 -0.11719619 -0.90493923 63 133 122
0.30288258 -0.11741968 -0.90486211 66 132 123
0.30296975 -0.11657666 -0.90412831 73 133 123
0.3030529 -0.11706051 -0.90417135 75 132 123
0.30385146 -0.11672793 -0.9028613 91 131 124
0.30283722 -0.11998641 -0.90579128 53 134 122
0.30317599 -0.12129293 -0.90470618 60 133 122
0.302939 -0.12251937 -0.90472335 58 133 122
0.30344832 -0.12298093 -0.90361285 65 134 121
0.30303082 -0.1193113 -0.90542495 61 133 123
0.30378613 -0.12247616 -0.9031083 71 135 121
0.30304047 -0.11923302 -0.90540195 62 133 123
0.30371156 -0.12136458 -0.90338051 76 133 122
0.3033641 -0.11992966 -0.90444517 71 132 122
0.30274913 -0.12584187 -0.90554857 96 126 119
0.30364552 -0.12533498 -0.90391827 73 131 122
0.30355582 -0.12671219 -0.90439051 94 128 120
0.30276507 -0.12469391 -0.9052543 79 128 120
0.30350316 -0.12690422 -0.90452409 98 127 120
0.30418625 -0.12577665 -0.90307879 76 133 123
0.30366975 -0.12428588 -0.90356982 68 133 122
0.30384237 -0.12494449 -0.90345651 72 132 123
0.30327296 -0.12872089 -0.90638715 101 126 120
0.30354869 -0.12900464 -0.90614301 96 127 121
0.30286089 -0.12727019 -0.90587938 109 124 118
0.30422169 -0.12739579 -0.90368682 86 131 122
0.30435395 -0.12780456 -0.90379924 83 132 123
0.30316216 -0.12799166 -0.90596348 103 125 119
0.30425727 -0.13020393 -0.90573877 83 131 123
0.30450335 -0.12798506 -0.90343869 83 132 123
0.30452034 -0.12754537 -0.90323079 82 133 124
0.30447355 -0.1286442 -0.90378445 85 132 123
0.30433011 -0.1336761 -0.90512824 83 133 124
0.30416405 -0.13418303 -0.9065854 63 132 122
0.30420583 -0.13370559 -0.90621728 71 132 123
0.30424449 -0.13181005 -0.90586996 86 131 124
0.30425629 -0.13387075 -0.90577614 75 132 124
0.30299878 -0.1386621 -0.90570116 56 132 120
0.30438137 -0.13806567 -0.90384519 78 132 125
0.30323392 -0.13753529 -0.90627331 55 132 120
0.30358586 -0.13669707 -0.90625602 58 132 121
0.30387732 -0.13710028 -0.90544415 65 132 123
0.30453861 -0.13850261 -0.90324765 83 132 126
0.30413857 -0.13812099 -0.90423721 74 133 124
0.30464691 -0.13750874 -0.90330553 86 133 126
0.30463615 -0.1367878 -0.90315068 90 132 127
0.30447683 -0.13542667 -0.90407616 85 133 125
0.30454743 -0.13522556 -0.90338832 94 133 127
0.30419302 -0.13495959 -0.90640116 61 133 122
0.30284756 -0.14063084 -0.90484411 66 130 125
0.30385575 -0.14203064 -0.90346783 86 131 128
0.30333713 -0.1406112 -0.90461648 72 130 125
0.30316111 -0.13889782 -0.90540594 60 131 121
0.30390608 -0.14091246 -0.90406007 81 131 126
0.30435485 -0.13960676 -0.90336746 84 133 126
0.30432785 -0.14115557 -0.90334016 89 131 128
0.30328467 -0.1390903 -0.90518934 63 133 121
0.30344662 -0.14632551 -0.90514469 100 132 126
0.30326393 -0.14500998 -0.9045139 91 131 127
0.30466318 -0.14609815 -0.90292335 92 130 128
0.30329964 -0.14605139 -0.90519762 99 132 126
0.30337101 -0.14456001 -0.90401113 87 131 128
0.30420625 -0.14556336 -0.90331447 90 130 128
0.30279717 -0.14557999 -0.90571105 97 132 126
0.30458659 -0.14274068 -0.90277046 98 131 130
0.30471596 -0.14437936 -0.90276647 96 131 130
0.303633 -0.14317948 -0.90325397 86 130 129
0.3039996 -0.15034631 -0.90350711 70 134 128
0.30377212 -0.14970674 -0.90400457 76 134 128
0.30385339 -0.15016811 -0.90368223 71 134 128
0.30366468 -0.14957835 -0.90413177 76 134 127
0.30310991 -0.14844301 -0.90508163 85 133 126
0.3048948 -0.14725798 -0.90305847 92 132 128
0.30522946 -0.14857708 -0.90292072 88 135 128
0.30419219 -0.14654726 -0.90401667 97 131 127
0.3035804 -0.14693987 -0.90517962 99 133 125
0.30394563 -0.1479432 -0.9048875 96 135 126
0.30403927 -0.1475876 -0.90461349 96 134 127
0.3042109 -0.15310012 -0.903234 70 134 126
0.30274364 -0.15194902 -0.90401858 56 131 127
0.30289128 -0.15382989 -0.90392333 53 130 127
0.30437416 -0.15323815 -0.90314662 71 134 126
0.30451965 -0.1509189 -0.90321696 74 135 128
0.30443069 -0.15110534 -0.90324461 73 134 128
0.30425113 -0.15242225 -0.90324199 71 134 127
0.30357116 -0.15148644 -0.90360034 66 133 127
0.30554894 -0.15816766 -0.90282559 75 134 127
0.30356857 -0.15801515 -0.90376443 49 131 127
0.3031736 -0.15631215 -0.90387934 50 130 127
0.30392015 -0.1565783 -0.90353441 58 131 127
0.30464289 -0.15447718 -0.90300989 72 133 126
0.30350134 -0.15479624 -0.90363812 58 131 127
0.30562031 -0.15778641 -0.90276515 77 134 127
0.29870296 -0.14128025 -0.88081366 99 138 129
0.29807758 -0.14604375 -0.87948853 81 138 127
0.29902473 -0.15148884 -0.88010061 80 138 131
0.29953003 -0.15121803 -0.8813777 80 137 131
0.29943815 -0.15163547 -0.88102818 79 138 131
0.2991344 -0.15274379 -0.87997115 74 138 133
0.29924807 -0.15303826 -0.8801555 73 138 133
0.29965422 -0.1542356 -0.88055354 69 140 134
0.30004755 -0.15304202 -0.88183445 74 138 132
0.30057809 -0.15258083 -0.88309598 75 139 130
0.30035341 -0.1522423 -0.88277835 77 138 131
0.29947442 -0.15410827 -0.8802411 70 139 134
0.30041814 -0.15187199 -0.8830598 77 138 130
0.30118886 -0.1578103 -0.88294697 63 140 132
0.30117914 -0.15653318 -0.88317913 65 140 131
0.29974732 -0.15772803 -0.88001519 47 145 130
0.30108592 -0.1565143 -0.88299221 65 140 132
0.30051604 -0.15593427 -0.88194132 60 143 130
0.30032927 -0.15813324 -0.88112527 53 143 130
0.30002829 -0.15461339 -0.88122112 66 141 133
0.29945552 -0.15782127 -0.87940276 46 146 129
0.29999873 -0.15509257 -0.88106287 63 141 132
0.29997844 -0.15495633 -0.88104975 64 141 132
0.29980755 -0.1545898 -0.88077897 67 140 134
0.29941025 -0.15677218 -0.8795265 53 144 131
0.30100471 -0.16128749 -0.88207251 57 135 132
0.30034423 -0.16209236 -0.88059479 48 136 131
0.30039293 -0.16151272 -0.88077289 49 136 131
0.30077121 -0.16064978 -0.88167262 55 136 131
0.30056226 -0.16024105 -0.8812933 52 139 130
0.30120644 -0.15947308 -0.88273221 61 137 132
0.29971877 -0.1583878 -0.8798362 46 145 130
0.30005923 -0.15881193 -0.88047063 49 143 129
0.30206856 -0.16498466 -0.88319772 65 133 135
0.30086923 -0.165344 -0.88100505 47 135 130
0.30129814 -0.16468494 -0.88194019 55 133 132
0.30097568 -0.16454501 -0.88141799 51 134 130
0.3006424 -0.16476376 -0.88077486 45 135 129
0.30138928 -0.16354364 -0.88242388 60 132 134
0.30125117 -0.16395308 -0.88206667 56 132 132
0.30019972 -0.16300845 -0.88015938 44 136 129
0.30026191 -0.16347131 -0.88021988 43 136 129
0.30106682 -0.16222453 -0.88207513 58 133 133
0.30214012 -0.16941726 -0.88230592 59 134 134
0.30226296 -0.16696578 -0.8830269 65 133 135
0.3019399 -0.1680253 -0.88232046 60 134 134
0.30229402 -0.16672441 -0.8831256 66 134 135
0.30084249 -0.168956 -0.88050997 47 134 131
0.30111197 -0.16966727 -0.88074702 49 134 132
0.30174148 -0.16612552 -0.8823263 59 134 133
0.30097517 -0.1680266 -0.8808549 50 134 132
0.30168596 -0.16685829 -0.88217717 59 134 134
0.30133405 -0.16766126 -0.8815065 54 134 133
0.30244231 -0.17297511 -0.88240659 62 138 134
0.30261043 -0.17028821 -0.88285476 63 134 136
0.30150616 -0.17142817 -0.88115394 53 137 133
0.30061385 -0.17026095 -0.8799367 43 136 131
0.30200207 -0.17196739 -0.88183862 58 137 134
0.30228466 -0.17131096 -0.88230127 61 135 134
0.30193806 -0.17289566 -0.88164121 58 138 133
0.30158505 -0.1721575 -0.88120544 54 137 133
0.30102584 -0.17166273 -0.88038129 49 136 131
0.30118215 -0.17380045 -0.88021487 54 136 132
0.30060944 -0.17267089 -0.87949443 48 135 131
0.30276191 -0.17307343 -0.88289171 65 139 135
0.30195248 -0.17558724 -0.88133764 63 137 133
0.30125287 -0.17485164 -0.88024324 58 136 132
0.30259699 -0.17411838 -0.88251954 65 139 134
0.30131787 -0.17533281 -0.88029802 59 136 132
0.30116212 -0.17525691 -0.88003451 57 135 132
0.30115962 -0.17606328 -0.87991679 58 136 131
0.30207428 -0.17671297 -0.88143539 67 137 133
0.30289289 -0.17433906 -0.88311559 65 139 134
0.30290261 -0.17401224 -0.88316524 65 140 134
0.30187225 -0.17943244 -0.88057625 68 137 131
0.30194211 -0.17971648 -0.88063908 69 137 131
0.30410361 -0.13751562 -0.89300191 113 134 130
0.3047021 -0.13762552 -0.89454603 111 134 130
0.30441883 -0.13862517 -0.89367777 110 134 130
0.30387595 -0.13829717 -0.89230698 112 134 130
0.30420986 -0.13779713 -0.89324182 112 134 130
0.30491421 -0.14183593 -0.89440602 101 134 130
0.30493009 -0.1403206 -0.89471871 104 134 130
0.30480927 -0.14078265 -0.89429528 103 134 130
0.30464068 -0.14194264 -0.89361352 100 134 129
0.30473191 -0.14078158 -0.89407665 103 134 130
0.30435455 -0.13891613 -0.89344525 109 134 130
0.30387914 -0.1414707 -0.89158899 101 134 130
0.30352071 -0.13910152 -0.89122903 111 134 130
0.30365548 -0.14134403 -0.89103729 102 134 130
0.30374283 -0.14114821 -0.89131212 102 134 130
0.30449176 -0.13935857 -0.89369535 107 135 130
0.30529273 -0.14563535 -0.89473939 96 135 128
0.30498734 -0.14392015 -0.8942098 99 134 129
0.30505642 -0.14442666 -0.89430594 98 134 129
0.30492079 -0.14529425 -0.89374548 97 135 128
0.30463299 -0.14615579 -0.89275187 97 135 128
0.30441344 -0.14307648 -0.89275533 99 134 129
0.30426717 -0.14366937 -0.89221883 98 134 129
0.30480483 -0.14325018 -0.89382637 99 134 129
0.30451131 -0.14349665 -0.89294505 99 134 129
0.30417338 -0.14304087 -0.89208376 98 134 129
0.30415016 -0.14443639 -0.891729 98 134 129
0.30492082 -0.14978956 -0.89285785 92 136 132
0.305502 -0.149949 -0.89465505 92 137 132
0.30522186 -0.14932875 -0.89387286 93 136 132
0.30489752 -0.15012778 -0.89273238 92 136 133
0.30549452 -0.15034917 -0.89456964 92 137 133
0.30439204 -0.14907514 -0.89140177 93 135 132
0.30437112 -0.14865336 -0.89143914 94 135 131
0.30417556 -0.1472909 -0.8911944 97 134 130
0.30514166 -0.14652023 -0.89413041 95 136 128
0.30423126 -0.14699401 -0.89142179 97 134 129
0.30597386 -0.15318409 -0.89463109 86 139 133
0.30545577 -0.15214889 -0.89374518 86 138 132
0.30569151 -0.15346053 -0.89377582 83 139 132
0.30490547 -0.15381725 -0.89157766 76 140 131
0.30618951 -0.15404601 -0.89480883 85 139 133
0.30506232 -0.15331092 -0.89220911 78 139 131
0.304849 -0.15189551 -0.89204681 84 138 132
0.30489773 -0.15278932 -0.89190704 80 139 131
0.30469438 -0.15307827 -0.89117491 78 139 131
0.30542609 -0.15043905 -0.89433295 92 137 132
0.30520207 -0.15102401 -0.89343911 88 138 132
0.30489671 -0.15209883 -0.89212984 83 138 131
0.30653268 -0.15646462 -0.89483136 85 136 135
0.30616033 -0.15536965 -0.8943091 83 139 133
0.30606946 -0.15507752 -0.89418453 82 140 133
0.30567539 -0.15720724 -0.89257586 78 138 133
0.30630711 -0.15486459 -0.89481765 85 138 133
0.30610111 -0.15553147 -0.89411712 82 139 133
0.30562675 -0.15473516 -0.89312601 79 140 132
0.30515838 -0.15466043 -0.89192939 76 140 131
0.30528784 -0.15523459 -0.89212 76 139 132
0.30583167 -0.15522219 -0.89353466 81 139 132
0.30533731 -0.15681653 -0.89184797 75 139 131
0.30522043 -0.15587744 -0.89178234 75 139 132
0.30543438 -0.15890752 -0.89165658 73 138 132
0.30554143 -0.15892911 -0.89191055 74 137 132
0.30652693 -0.15854448 -0.89427567 83 134 135
0.30620241 -0.15830368 -0.89351362 81 135 134
0.30566534 -0.15824343 -0.89223707 76 137 133
0.3060686 -0.15839195 -0.8931908 80 136 134
0.30532613 -0.16007553 -0.89103895 74 134 133
0.30536076 -0.15994385 -0.89117569 75 134 133
0.30537903 -0.15903139 -0.8914687 73 138 132
0.30602089 -0.16079681 -0.89289945 76 135 135
0.30540782 -0.16013183 -0.89126527 75 134 133
0.30671337 -0.16104402 -0.8946448 80 134 136
0.30667457 -0.15842457 -0.89463902 84 134 136
0.30578443 -0.16244173 -0.8917948 78 131 135
0.30630338 -0.1634821 -0.89312786 77 132 135
0.30627096 -0.16254261 -0.89321089 78 133 136
0.30619273 -0.16240825 -0.89300561 78 132 136
0.30648121 -0.16428022 -0.89350069 77 132 135
0.30572098 -0.1648214 -0.89110005 76 132 134
0.30584258 -0.16572173 -0.89127392 76 132 134
0.30567443 -0.16292489 -0.89137232 77 130 135
0.30573246 -0.16339479 -0.89144647 77 130 135
0.30683997 -0.16600399 -0.89434391 75 130 135
0.30671135 -0.1646612 -0.89413565 76 133 135
0.30598903 -0.16665526 -0.89144254 77 132 135
0.30618268 -0.16745102 -0.89176708 80 132 136
0.3063024 -0.16783887 -0.89200234 81 132 136
0.3071456 -0.16779946 -0.89477581 75 131 135
0.30719039 -0.17143187 -0.89376104 80 133 134
0 0 0 1 0 0 0 1 0 0 0 1 0 0 0 0 0 805 1 0 0
