ply
format ascii 1.0
comment PCL generated
element vertex 840
property float x
property float y
property float z
property uchar red
property uchar green
property uchar blue
element camera 1
property float view_px
property float view_py
property float view_pz
property float x_axisx
property float x_axisy
property float x_axisz
property float y_axisx
property float y_axisy
property float y_axisz
property float z_axisx
property float z_axisy
property float z_axisz
property float focal
property float scalex
property float scaley
property float centerx
property float centery
property int viewportx
property int viewporty
property float k1
property float k2
end_header
-0.05529755 0.1468723 -0.83970582 3 130 126
-0.054682475 0.14583121 -0.83983254 3 130 126
-0.048900131 0.14214082 -0.84007478 1 130 126
-0.050011456 0.14255191 -0.83959806 3 130 126
-0.048768461 0.14210659 -0.8399536 1 130 126
-0.061736997 0.17145631 -0.84706277 3 128 126
-0.06068017 0.16824889 -0.84770751 3 128 126
-0.058886774 0.15992346 -0.84754974 3 128 126
-0.058688916 0.15889266 -0.84736151 2 130 126
-0.058341637 0.15853272 -0.84575444 3 128 126
-0.058164906 0.15827377 -0.84500337 3 128 126
-0.05852963 0.15481251 -0.84782171 1 128 126
-0.058161546 0.15506725 -0.84552354 2 128 126
-0.058542155 0.15455166 -0.84796149 1 128 127
-0.058339041 0.15476109 -0.84667647 2 128 126
-0.058507539 0.1548174 -0.84768635 1 128 126
-0.058100786 0.15758072 -0.84479433 3 128 126
-0.058224946 0.15618694 -0.84567004 2 130 126
-0.058462903 0.15715878 -0.84685749 2 130 126
-0.05803388 0.15776807 -0.84439838 3 128 126
-0.05834502 0.15711805 -0.84620988 2 130 126
-0.058174811 0.15801041 -0.8451466 3 128 126
-0.038255204 0.15482524 -0.8464455 3 128 126
-0.038207337 0.15437713 -0.84649622 2 130 126
-0.038223859 0.15562029 -0.84754437 2 130 126
-0.058254145 0.15359251 -0.8474437 1 128 127
-0.058156703 0.15301673 -0.8474009 1 128 126
-0.057373166 0.15156835 -0.84557498 1 130 126
-0.058067836 0.15198028 -0.84759998 1 128 126
-0.057610117 0.15185721 -0.84619665 1 130 126
-0.057969421 0.15187426 -0.84733528 1 128 126
-0.057879489 0.1533889 -0.84562373 2 128 126
-0.058014683 0.15323104 -0.84672755 1 128 126
-0.058183141 0.15379949 -0.84673327 1 130 126
-0.057866585 0.1541636 -0.84415859 2 128 126
-0.058312293 0.15419395 -0.84681177 1 130 126
-0.038624924 0.15043376 -0.84684461 2 130 126
-0.038620196 0.15087588 -0.84725153 2 130 126
-0.038460597 0.15233491 -0.84796178 2 130 126
-0.038651958 0.15134874 -0.84784853 2 130 126
-0.038301967 0.15148763 -0.84644514 2 130 126
-0.03810719 0.15203954 -0.8450129 2 130 126
-0.038070932 0.15421595 -0.84772527 1 130 126
-0.038092479 0.15375946 -0.84701389 2 128 126
-0.038064566 0.15350831 -0.84702909 1 130 126
-0.038082708 0.15356719 -0.84690696 1 130 126
-0.056898609 0.14716357 -0.84666818 2 128 127
-0.056908056 0.14736982 -0.84666252 2 128 127
-0.056644291 0.14888647 -0.84433776 2 128 126
-0.056674421 0.14940083 -0.84431279 2 128 126
-0.057507038 0.14987931 -0.84693074 1 130 126
-0.057177603 0.14776525 -0.84745085 1 128 126
-0.057168085 0.14789797 -0.84732181 1 128 126
-0.057238813 0.14887317 -0.84682268 1 130 126
-0.057064019 0.14931087 -0.84593958 1 130 126
-0.057218522 0.14988971 -0.84600234 1 130 126
-0.056491911 0.14751936 -0.84417683 2 128 126
-0.038741615 0.15035595 -0.84714597 2 130 126
-0.039025761 0.15010875 -0.84719509 2 130 126
-0.038925558 0.14989282 -0.84570718 2 130 126
-0.038840689 0.14996178 -0.84566879 2 130 126
-0.040046234 0.14893509 -0.84610629 3 128 126
-0.039966691 0.14905345 -0.84628093 3 128 126
-0.039721824 0.14920519 -0.84594434 2 130 126
-0.058347244 0.14452773 -0.84506828 2 128 126
-0.05988111 0.14274651 -0.84475356 3 128 127
-0.059965715 0.14289106 -0.84747458 3 128 127
-0.057771087 0.14520237 -0.84524941 2 128 126
-0.058541778 0.14435618 -0.84564143 2 128 126
-0.059483401 0.1432301 -0.84508049 3 128 127
-0.057908416 0.14507437 -0.84557611 2 128 126
-0.059874777 0.14301164 -0.84774762 3 128 127
-0.057996441 0.14472669 -0.84786093 2 128 127
-0.057189576 0.14550167 -0.84770292 2 128 128
-0.057646133 0.14520386 -0.84703213 2 128 127
-0.056859232 0.14608189 -0.84621769 2 128 127
-0.058531333 0.14454442 -0.84461129 2 128 126
-0.057939976 0.14534847 -0.84671932 2 128 127
-0.058480959 0.14483126 -0.8470937 2 128 127
-0.057982489 0.14549434 -0.8479504 2 128 128
-0.057360165 0.14590079 -0.84630501 2 128 127
-0.058225892 0.14518362 -0.84761637 2 128 127
-0.059749778 0.14366357 -0.84586012 3 128 127
-0.057994932 0.14523154 -0.84575552 2 128 126
-0.058281582 0.14493418 -0.84629387 2 128 126
-0.059405483 0.14389355 -0.84682125 2 130 126
-0.060250737 0.14323507 -0.84564835 3 128 127
-0.059634041 0.14368798 -0.84685194 3 128 127
-0.058242254 0.14497593 -0.84620804 2 128 126
-0.054540057 0.14464977 -0.84457481 3 130 126
-0.055632804 0.14573504 -0.84429634 2 128 126
-0.055138633 0.14487767 -0.84632194 2 130 126
-0.056380358 0.14581859 -0.84743029 2 128 128
-0.056122281 0.1456219 -0.84720612 2 128 127
-0.054554239 0.14446795 -0.84562153 3 130 126
-0.055339228 0.1448731 -0.84791118 1 128 127
-0.054218896 0.14401786 -0.84709001 2 128 126
-0.05296072 0.14294559 -0.84733868 1 128 126
-0.055727053 0.14521848 -0.84767896 2 128 127
-0.054164588 0.14390516 -0.84779626 1 128 127
-0.055829506 0.14531352 -0.84757793 2 128 127
-0.054665618 0.14430068 -0.84802693 1 128 127
-0.052719984 0.14288759 -0.84581649 3 128 126
-0.049660601 0.13999288 -0.84523529 2 128 127
-0.049767509 0.14010219 -0.84568626 2 128 128
-0.050198626 0.14048079 -0.84615505 2 128 128
-0.05099237 0.14115526 -0.84652835 2 128 128
-0.0523182 0.14232062 -0.84799248 1 128 127
-0.049808327 0.14022586 -0.84763622 1 128 128
-0.049103573 0.13960786 -0.84688973 1 128 128
-0.052484766 0.14255427 -0.84689343 2 128 126
-0.051588178 0.14176531 -0.84601212 2 130 126
-0.050949089 0.1412548 -0.84486049 3 128 126
-0.052099902 0.14227581 -0.84590763 3 128 126
-0.050351236 0.14072683 -0.84429175 3 128 126
-0.048357703 0.13961343 -0.84519523 3 128 127
-0.048015721 0.13989764 -0.84644222 3 128 127
-0.048056781 0.13989311 -0.84693468 3 128 128
-0.065955572 0.18181956 -0.85965329 2 128 126
-0.064728841 0.17845842 -0.85707706 2 128 126
-0.065183826 0.1787293 -0.85809195 2 128 126
-0.064806215 0.17873578 -0.85705107 2 128 126
-0.064908594 0.17988127 -0.85638088 2 128 126
-0.065635994 0.17946132 -0.85940462 2 128 126
-0.065668665 0.18158394 -0.85817897 2 128 126
-0.064367801 0.17773648 -0.85668015 2 128 126
-0.065339893 0.17673819 -0.8595773 2 128 126
-0.065067202 0.17447424 -0.85935152 2 128 126
-0.06524802 0.17488052 -0.85974759 2 128 126
-0.064887099 0.17546573 -0.85864282 2 128 126
-0.064518213 0.17728412 -0.85724419 2 128 126
-0.06457147 0.17520913 -0.85795242 2 128 126
-0.064664878 0.17536689 -0.85813212 2 128 126
-0.064334191 0.17471711 -0.85734361 2 128 126
-0.064388044 0.17426094 -0.85768098 2 128 126
-0.064320557 0.1743812 -0.8573845 2 128 126
-0.064023703 0.17516842 -0.85604435 2 128 126
-0.064499587 0.17345129 -0.85860097 2 128 126
-0.064281747 0.17171845 -0.85965264 2 128 126
-0.064155057 0.17380951 -0.85691357 2 128 126
-0.064052001 0.17341851 -0.85690689 2 128 126
-0.063984022 0.17134324 -0.85873669 2 128 126
-0.063456215 0.17099015 -0.8567611 3 128 127
-0.063445061 0.17144835 -0.85624737 3 128 127
-0.063443176 0.17039084 -0.85730761 3 128 127
-0.063819565 0.17220184 -0.85718715 2 128 126
-0.063655354 0.16728851 -0.85836983 2 128 126
-0.063223138 0.16671626 -0.85676944 2 128 126
-0.063420556 0.16675343 -0.85744625 2 128 126
-0.064085498 0.1666207 -0.85966349 2 128 127
-0.063485421 0.1675116 -0.85784882 2 128 126
-0.063629121 0.16725379 -0.85827267 2 128 126
-0.063130625 0.16731218 -0.85641015 2 128 126
-0.063199766 0.16736823 -0.85672319 2 128 126
-0.063545913 0.16963632 -0.85825354 2 130 126
-0.063492954 0.16884087 -0.85802782 2 128 126
-0.063177161 0.16868463 -0.85659599 2 128 126
-0.063522078 0.16950175 -0.8581478 2 128 126
-0.062589794 0.16271338 -0.85690361 1 128 126
-0.062263135 0.16302946 -0.85693306 1 128 126
-0.063087247 0.16290231 -0.85728621 1 128 126
-0.064028524 0.16465396 -0.85889941 2 128 127
-0.064226635 0.16517542 -0.85933638 1 128 126
-0.062543102 0.16371576 -0.85749435 1 128 126
-0.062910885 0.16463485 -0.857535 1 128 126
-0.063541234 0.16569236 -0.85814285 1 128 126
-0.062200446 0.16346847 -0.85681319 1 128 126
-0.063162871 0.16527125 -0.85746998 1 128 126
-0.063390948 0.16535015 -0.85812777 1 128 126
-0.062915742 0.16514021 -0.85682297 1 130 126
-0.064296432 0.15826708 -0.85705739 1 128 127
-0.063730054 0.16016585 -0.85704166 2 128 127
-0.06314677 0.16004626 -0.85681719 1 128 126
-0.062723719 0.15908137 -0.85656625 1 128 127
-0.06206049 0.15856998 -0.85627335 1 128 127
-0.061654177 0.16099893 -0.85607225 1 128 126
-0.061400678 0.15912358 -0.85601836 1 128 126
-0.06299933 0.16207184 -0.85673553 2 128 127
-0.061790168 0.16148463 -0.85612327 1 128 126
-0.061076052 0.15843126 -0.85587668 1 128 126
-0.038024597 0.16104919 -0.85605717 3 128 126
-0.060514193 0.15476465 -0.85608184 1 128 126
-0.038932376 0.15808712 -0.85649514 3 128 126
-0.041684173 0.15051074 -0.85600287 0 128 128
-0.040835451 0.15134084 -0.85619724 1 128 128
-0.040869206 0.15048714 -0.85688275 0 128 128
-0.039811619 0.15055721 -0.85829628 0 128 127
-0.039765239 0.1511621 -0.85778391 1 128 127
-0.040359527 0.15063727 -0.85745287 0 128 127
-0.039381374 0.15118709 -0.85829741 1 128 127
-0.039216749 0.15140647 -0.85831851 1 128 126
-0.039100848 0.15186504 -0.8595714 1 130 126
-0.038901325 0.15058009 -0.85972196 1 128 127
-0.038923379 0.15116546 -0.85915715 1 128 127
-0.041034628 0.14880262 -0.85912341 0 128 126
-0.041275695 0.1489379 -0.85867727 0 128 127
-0.041912783 0.14863037 -0.85823572 0 128 127
-0.042283952 0.14733024 -0.85948038 0 128 126
-0.041825429 0.149865 -0.85669851 0 128 128
-0.041675996 0.1485173 -0.85870445 0 128 127
-0.042336006 0.14862125 -0.85697669 0 128 127
-0.041997947 0.15008046 -0.85605514 0 128 128
-0.042682651 0.14705518 -0.85769457 0 128 126
-0.042901926 0.14649066 -0.85953498 0 128 126
-0.04253849 0.1473615 -0.85627371 0 128 126
-0.042651448 0.14718506 -0.85759383 0 128 126
-0.040542006 0.15005256 -0.85793817 0 128 127
-0.039633617 0.14987145 -0.85948032 0 128 127
-0.040897481 0.14935881 -0.858477 0 128 127
-0.042722791 0.1431738 -0.85687482 1 128 127
-0.042744823 0.14323997 -0.8573097 1 128 126
-0.042732254 0.14325581 -0.85704303 1 128 127
-0.04287827 0.14585817 -0.85917765 1 128 127
-0.042875845 0.14485879 -0.85947281 1 128 127
-0.042745594 0.14280374 -0.85747671 1 128 126
-0.042751543 0.14412776 -0.85719383 1 128 127
-0.042739637 0.14408876 -0.85699755 1 128 127
-0.042774037 0.14478262 -0.85751486 1 128 127
-0.042691827 0.14564906 -0.85606194 1 128 127
-0.042900637 0.14641979 -0.85949713 1 128 127
-0.044962958 0.13934784 -0.85847753 1 128 128
-0.045355447 0.1391363 -0.85883147 1 128 128
-0.04546782 0.13913193 -0.85954809 1 128 128
-0.04304098 0.14227261 -0.85942912 1 128 126
-0.042801939 0.14250699 -0.85773402 1 128 126
-0.044260629 0.14041772 -0.85887712 1 128 127
-0.043030724 0.14226675 -0.85913426 1 128 126
-0.04366165 0.1413537 -0.85949767 1 128 127
-0.043630213 0.14124227 -0.85735035 1 128 127
-0.044551723 0.1399989 -0.85909063 1 128 127
-0.044609271 0.13992354 -0.85922319 1 128 127
-0.043157227 0.14188495 -0.85650408 1 128 127
-0.043833863 0.14080428 -0.85603917 1 128 127
-0.043648832 0.14107125 -0.85586965 1 128 127
-0.051535901 0.13479576 -0.85863018 0 128 127
-0.050860941 0.13479605 -0.8596741 0 128 127
-0.05041327 0.13561533 -0.85882992 1 128 127
-0.050543368 0.13666441 -0.85819274 1 128 127
-0.05157759 0.13688277 -0.85722256 1 128 126
-0.050749522 0.13722315 -0.85784781 1 128 127
-0.05168049 0.13749948 -0.856951 2 128 126
-0.052455485 0.13621572 -0.8566497 1 130 126
-0.051018905 0.13656034 -0.85780674 1 128 127
-0.049254857 0.13661429 -0.85826945 1 128 128
-0.051983498 0.13775814 -0.8565709 2 128 126
-0.049463704 0.13670459 -0.85784101 1 128 128
-0.05028579 0.13705669 -0.8565166 1 128 127
-0.048917733 0.13647862 -0.85786605 1 128 128
-0.048864208 0.13646096 -0.85738021 1 128 128
-0.0483393 0.13622563 -0.85874081 1 128 128
-0.048182227 0.13615905 -0.85871601 1 128 128
-0.047750443 0.13596915 -0.8593992 1 128 128
-0.048146676 0.13615084 -0.85796767 1 128 128
-0.04860102 0.13632993 -0.8594985 1 128 128
-0.045663726 0.13508581 -0.85895902 1 128 127
-0.04585588 0.13508138 -0.85958886 1 128 127
-0.04552196 0.13553232 -0.85847509 1 128 127
-0.04513976 0.13538073 -0.85881341 1 128 127
-0.046080705 0.13833177 -0.85589319 1 128 128
-0.047414202 0.13664661 -0.85650545 1 128 128
-0.047248758 0.13632642 -0.85685802 1 128 128
-0.046077002 0.13591561 -0.85785162 1 128 127
-0.045877263 0.13826929 -0.85605854 1 128 128
-0.045653682 0.13788438 -0.85758603 1 128 128
-0.045825958 0.13803442 -0.85842854 1 128 128
-0.045971643 0.13803723 -0.85941225 1 128 127
-0.045305125 0.13606091 -0.85920542 1 128 127
-0.045733795 0.13775988 -0.85840267 1 128 127
-0.045523681 0.13703968 -0.85855001 1 128 127
-0.069101453 0.19358487 -0.86284697 3 128 126
-0.06940417 0.19425677 -0.86321229 3 128 126
-0.06668175 0.18592975 -0.86138964 3 128 126
-0.067173809 0.18620865 -0.86307865 3 128 126
-0.067109577 0.18337059 -0.86356825 2 128 126
-0.067091569 0.18357114 -0.86348015 2 128 126
-0.066686042 0.18367015 -0.86204338 2 128 126
-0.066735111 0.18339746 -0.86224961 2 128 126
-0.066669382 0.18255502 -0.86212325 2 128 126
-0.066552728 0.18369575 -0.86155134 2 128 126
-0.066685446 0.17802463 -0.86230344 2 128 126
-0.066490375 0.18000519 -0.86219549 2 128 126
-0.066624746 0.17854196 -0.86225486 2 128 126
-0.066796534 0.17915288 -0.8627066 2 128 126
-0.066826269 0.17914306 -0.86276728 2 128 126
-0.066901281 0.17897435 -0.86289859 2 128 126
-0.06600593 0.18021287 -0.86051357 2 128 126
-0.066545606 0.18049829 -0.86228788 2 128 126
-0.065746754 0.17958556 -0.85986996 2 128 126
-0.0663656 0.18028548 -0.86174607 2 128 126
-0.065901473 0.1808188 -0.85988897 2 128 126
-0.066233903 0.17427303 -0.86142898 2 128 126
-0.065854765 0.17460151 -0.86091715 2 128 126
-0.067133844 0.17611255 -0.86306971 2 128 126
-0.067516252 0.175938 -0.86361146 2 128 126
-0.065854631 0.17408405 -0.86083281 2 128 126
-0.066394031 0.17474073 -0.86174375 2 128 126
-0.067006767 0.174678 -0.862647 2 128 126
-0.065764293 0.17544037 -0.86073357 2 128 126
-0.06609945 0.17646581 -0.86125541 2 128 126
-0.066678002 0.17688356 -0.86239225 2 128 126
-0.065379798 0.17444944 -0.86010253 2 128 126
-0.066206761 0.17736916 -0.86132216 2 128 126
-0.065499708 0.17641988 -0.86000937 2 128 126
-0.064900763 0.17005891 -0.86172879 2 128 126
-0.065409258 0.17052411 -0.86206126 2 128 126
-0.064616203 0.17093788 -0.86083663 2 128 126
-0.065637469 0.17219423 -0.8613314 2 128 126
-0.065957427 0.17091063 -0.86249942 2 128 126
-0.066399567 0.17121695 -0.8629629 2 128 126
-0.066428676 0.17130825 -0.86295873 2 128 126
-0.066205777 0.17294858 -0.86177248 2 128 126
-0.066954263 0.1717876 -0.86349279 2 128 126
-0.065343969 0.17344105 -0.86023128 2 128 126
-0.066888109 0.17326447 -0.8626253 2 128 126
-0.066672549 0.17375414 -0.86204898 2 128 126
-0.064409822 0.17082191 -0.86059624 2 128 126
-0.064325534 0.17133403 -0.86005801 1 128 126
-0.064390846 0.16734374 -0.86040366 2 128 127
-0.063999742 0.16826563 -0.85976976 2 128 127
-0.064210147 0.16954528 -0.86056036 2 128 127
-0.04153258 0.14850639 -0.86103284 1 130 126
-0.042339955 0.14722478 -0.86009115 1 128 127
-0.042242613 0.14748126 -0.86040717 1 128 126
-0.041093051 0.14919649 -0.86153048 2 128 126
-0.041420873 0.14946574 -0.86308688 2 130 125
-0.042443089 0.14678846 -0.86334646 1 128 127
-0.042224042 0.14729668 -0.86354947 1 130 126
-0.04261164 0.14695159 -0.86100078 1 128 126
-0.042567164 0.14711428 -0.860807 1 128 126
-0.041742627 0.14877734 -0.86255902 2 128 126
-0.039939374 0.15023544 -0.86143744 2 128 126
-0.040408459 0.14952713 -0.86090362 1 130 126
-0.040115103 0.14965987 -0.86062145 1 128 126
-0.040338516 0.14983335 -0.86138159 2 128 126
-0.042844024 0.14273527 -0.86030525 1 128 126
-0.042707339 0.1445321 -0.86297846 1 128 127
-0.042783011 0.14362362 -0.86212969 1 128 126
-0.042734858 0.14433406 -0.86363769 1 128 127
-0.042682767 0.14478946 -0.86297858 1 128 127
-0.042730249 0.14569092 -0.86151767 1 128 127
-0.042775337 0.14564456 -0.86105478 1 128 127
-0.042860698 0.14352602 -0.85983741 1 128 126
-0.042791743 0.14590429 -0.86093289 1 128 127
-0.042850018 0.14410838 -0.86004305 1 128 126
-0.049360104 0.13512668 -0.86033654 0 128 127
-0.062397026 0.17062514 -0.8515678 3 128 125
-0.061913852 0.17073284 -0.84929311 2 130 126
-0.063025564 0.17341596 -0.85179508 3 128 126
-0.062133651 0.17002334 -0.85094351 2 130 124
-0.062549978 0.1712724 -0.8516528 3 128 126
-0.062823094 0.17247444 -0.85176152 3 128 126
-0.063094564 0.17373075 -0.85178858 3 128 126
-0.062434874 0.1723457 -0.8499524 3 128 126
-0.062496394 0.17248869 -0.85009629 3 128 126
-0.060994875 0.16640903 -0.85044813 2 130 126
-0.060708702 0.16665131 -0.84944671 2 130 126
-0.060798835 0.16795105 -0.84840471 2 130 126
-0.061087303 0.16818069 -0.84889096 2 130 126
-0.061249394 0.16838802 -0.84908313 2 130 126
-0.061079752 0.1680588 -0.84899813 2 130 126
-0.061769258 0.16959786 -0.84974247 2 130 125
-0.061611623 0.16838615 -0.85032016 2 130 125
-0.061997827 0.16865729 -0.8517701 2 130 124
-0.061881702 0.16900177 -0.8508817 2 130 124
-0.061429463 0.16641906 -0.85158998 2 130 126
-0.061580084 0.16990474 -0.84856522 2 130 126
-0.060462851 0.16614205 -0.84923375 3 130 126
-0.068232939 0.16433503 -0.85156298 2 128 126
-0.066698238 0.16288155 -0.85189557 1 128 126
-0.067153476 0.16309176 -0.85164785 1 128 126
-0.067523509 0.16347592 -0.85159039 1 130 126
-0.060880817 0.16497338 -0.85163212 2 130 126
-0.060896546 0.1652336 -0.85139316 2 130 126
-0.0604189 0.16344121 -0.85195142 2 128 126
-0.060511213 0.1637629 -0.85191542 2 128 126
-0.060016483 0.16296597 -0.85114855 1 130 126
-0.060102429 0.16532384 -0.84899759 3 130 126
-0.059977062 0.16390428 -0.84999537 2 130 126
-0.059717432 0.16221024 -0.85023892 2 130 126
-0.059949107 0.1653208 -0.84836096 3 130 126
-0.059728198 0.16340341 -0.84906256 3 130 126
-0.059154384 0.15950166 -0.84947467 1 130 126
-0.059452515 0.15936457 -0.85130727 1 128 126
-0.059078284 0.15848175 -0.84995025 1 130 126
-0.059386071 0.15967138 -0.85065174 1 130 126
-0.059376847 0.15831394 -0.85181278 1 128 127
-0.058963127 0.15894417 -0.84887624 1 130 126
-0.059652545 0.16188245 -0.85017556 2 130 126
-0.059075866 0.15969013 -0.84884357 2 130 126
-0.05954469 0.16198637 -0.84944934 3 128 126
-0.059614111 0.16205928 -0.849787 3 128 126
-0.059658013 0.16197039 -0.85012585 2 130 126
-0.05924648 0.15637283 -0.85122645 1 128 127
-0.059283305 0.15467586 -0.85126358 1 128 127
-0.058892149 0.15477055 -0.84957838 1 128 127
-0.05930645 0.15583602 -0.85144722 1 128 127
-0.058995564 0.15510838 -0.85005003 1 128 127
-0.058640283 0.15659358 -0.84805828 1 130 126
-0.058775064 0.15600401 -0.84896731 1 128 126
-0.058722891 0.15776496 -0.84826213 1 130 126
-0.058826011 0.15714535 -0.8489964 1 130 126
-0.059030697 0.15656137 -0.85030508 1 128 127
-0.038506094 0.15612756 -0.8504439 2 128 126
-0.038450591 0.15577526 -0.85017949 2 128 126
-0.038571455 0.1552296 -0.85101664 2 130 126
-0.038466789 0.15584113 -0.85026401 2 128 126
-0.038323399 0.15554421 -0.84945875 2 128 126
-0.038372919 0.15681987 -0.84885496 2 130 126
-0.038373381 0.15678386 -0.84889281 2 130 126
-0.038546748 0.1569214 -0.85044551 2 128 126
-0.038466871 0.15640369 -0.85015178 2 128 126
-0.038256135 0.15602235 -0.84846312 2 128 126
-0.059005473 0.15053962 -0.85116845 1 128 126
-0.058688723 0.15091808 -0.85014367 1 128 126
-0.058382872 0.15073267 -0.84923774 1 128 126
-0.059188157 0.15114604 -0.85163438 1 128 126
-0.059175543 0.15234195 -0.85141444 1 128 126
-0.058746561 0.15235955 -0.85010171 1 128 126
-0.058382064 0.15242468 -0.8485198 1 128 126
-0.058337323 0.1521489 -0.84850031 1 128 126
-0.059293795 0.1540961 -0.85140848 1 128 127
-0.058650263 0.15332149 -0.84911376 1 128 127
-0.058789313 0.15281345 -0.85003597 1 128 126
-0.058586191 0.15311202 -0.84896886 1 128 127
-0.038562641 0.1512676 -0.85169303 2 130 126
-0.038829166 0.15184073 -0.84949815 3 128 126
-0.038557477 0.15149495 -0.85185361 2 130 126
-0.038573466 0.15155409 -0.85173422 2 130 126
-0.038733099 0.15115684 -0.85005289 2 130 126
-0.03860984 0.1527496 -0.84938002 2 130 126
-0.038648739 0.15360826 -0.85075408 3 128 126
-0.038659059 0.15268603 -0.84959233 2 130 126
-0.038104426 0.15417549 -0.84822589 1 130 126
-0.038598545 0.15282175 -0.84940773 2 130 126
-0.038260762 0.15425992 -0.8492803 2 128 126
-0.060095835 0.14656457 -0.85143799 2 128 126
-0.05970417 0.14854154 -0.85175055 1 130 126
-0.060154319 0.14763638 -0.85190678 1 130 126
-0.059907716 0.14674947 -0.85129756 1 130 126
-0.059546858 0.14881127 -0.85167831 1 130 126
-0.060210232 0.14703575 -0.85174131 1 130 126
-0.059193615 0.14785628 -0.85092515 1 130 126
-0.059686918 0.14899503 -0.8519032 1 130 126
-0.057254188 0.14725615 -0.84807247 1 128 127
-0.05869453 0.15001236 -0.85051072 1 128 126
-0.057845734 0.14936031 -0.84838229 1 128 126
-0.058161043 0.14980021 -0.8490324 1 128 126
-0.057479803 0.14790504 -0.84829992 1 128 127
-0.041552309 0.14745024 -0.85156095 2 128 126
-0.041314624 0.14768614 -0.8518225 1 128 126
-0.040334024 0.14871006 -0.85120368 1 130 126
-0.040745594 0.14828926 -0.85148615 1 128 126
-0.03860097 0.15029633 -0.85182703 2 128 126
-0.040077578 0.14889558 -0.85177654 1 128 126
-0.039289981 0.15003903 -0.8480944 2 130 126
-0.040904734 0.14822556 -0.85084873 1 130 126
-0.040535714 0.1489059 -0.84813362 2 130 126
-0.039913632 0.1493478 -0.84908623 2 130 126
-0.059344538 0.14298983 -0.84906441 3 128 127
-0.059067413 0.14283301 -0.84962386 2 130 126
-0.060078878 0.14265218 -0.84828383 3 128 127
-0.058021512 0.14318036 -0.85086006 1 130 126
-0.05866652 0.14376298 -0.84874767 2 130 126
-0.058245495 0.14408278 -0.84890437 2 128 127
-0.057913944 0.14370158 -0.85045868 2 128 126
-0.057406846 0.14411052 -0.85059375 2 128 127
-0.05727708 0.14473103 -0.84946221 2 128 127
-0.0568363 0.144398 -0.85113591 2 128 127
-0.057817347 0.14405556 -0.84986037 2 128 127
-0.059479412 0.14593662 -0.85015625 2 128 126
-0.059486691 0.14630443 -0.85054851 2 128 126
-0.058581483 0.14617167 -0.84940428 2 128 126
-0.058708098 0.14623794 -0.84961414 2 128 126
-0.059237506 0.14553909 -0.84947228 2 128 126
-0.059293471 0.14509337 -0.84906888 2 128 126
-0.059888326 0.14484425 -0.84946948 2 128 126
-0.05871683 0.1456458 -0.84900534 2 128 127
-0.05905392 0.14544247 -0.84916741 2 128 126
-0.054880023 0.14293553 -0.85103458 1 130 126
-0.055685073 0.1432405 -0.85185343 1 130 126
-0.054506741 0.14275217 -0.85071445 1 128 126
-0.055451769 0.1431419 -0.85163069 1 130 126
-0.056333579 0.14488608 -0.84986156 1 128 127
-0.053731553 0.14346349 -0.84817553 1 128 127
-0.05572607 0.14502099 -0.84841216 1 128 127
-0.056311529 0.14417744 -0.85142183 1 128 126
-0.054562379 0.14350379 -0.84964949 1 128 127
-0.055718161 0.14470217 -0.84911788 1 128 127
-0.055228792 0.14377061 -0.8503018 1 128 126
-0.043838751 0.14349526 -0.85081214 3 128 127
-0.043920033 0.14309137 -0.85125929 2 128 127
-0.042565595 0.14639235 -0.85175318 1 128 126
-0.052894987 0.14122751 -0.84989673 2 128 126
-0.053041797 0.14206566 -0.84922117 2 128 127
-0.053843405 0.14233536 -0.85018265 2 128 126
-0.052806541 0.14176099 -0.84918255 2 128 127
-0.053024497 0.13988069 -0.85155326 2 128 126
-0.054231178 0.14164352 -0.85153556 2 128 126
-0.052426789 0.14235826 -0.84813279 1 128 127
-0.051209576 0.13947333 -0.85015923 2 128 127
-0.049734421 0.13967986 -0.84860098 1 128 128
-0.050604198 0.14011078 -0.84892303 1 128 127
-0.050683342 0.14072943 -0.84832674 1 128 127
-0.049198914 0.13971613 -0.84807706 1 128 128
-0.05184935 0.1412648 -0.84880412 2 128 128
-0.052013893 0.14020687 -0.85009533 2 128 126
-0.050449725 0.14040112 -0.84846967 1 128 127
-0.051570602 0.13926157 -0.85177553 2 128 126
-0.049892895 0.13953513 -0.85189086 1 130 126
-0.049726836 0.13952939 -0.85143608 1 130 127
-0.051299255 0.13922121 -0.85059243 2 128 126
-0.049929924 0.13936403 -0.84954387 1 128 127
-0.050554965 0.13941802 -0.85171527 2 128 126
-0.045756914 0.14058006 -0.85069197 3 128 128
-0.045196917 0.14063585 -0.85118449 2 128 128
-0.046150859 0.14040357 -0.85130608 2 128 128
-0.045604274 0.14060475 -0.85075986 2 128 127
-0.047512855 0.14002788 -0.84830427 3 128 128
-0.048147131 0.13974857 -0.8482883 2 128 128
-0.048506197 0.1398236 -0.85159034 1 130 127
-0.044877518 0.14085262 -0.85147423 2 128 128
-0.057398494 0.15503374 -0.84224761 3 128 126
-0.057312779 0.15443049 -0.84199005 3 128 126
-0.057452399 0.15613122 -0.84234619 3 128 126
-0.057725571 0.15471245 -0.84346133 3 128 126
-0.057495456 0.15517581 -0.84258646 3 128 126
-0.056665089 0.1525633 -0.84144431 3 128 126
-0.056704637 0.15309244 -0.84102499 3 128 126
-0.056840062 0.15311633 -0.84154958 3 128 126
-0.056950163 0.15156823 -0.84360194 2 130 126
-0.0575407 0.15389378 -0.8432585 3 128 126
-0.05761179 0.15403047 -0.8433702 3 128 126
-0.057016797 0.15249947 -0.84284884 2 130 126
-0.056892198 0.15187119 -0.8430683 2 130 126
-0.056497667 0.15285149 -0.84039766 3 128 126
-0.056179531 0.15089081 -0.84115851 3 130 125
-0.056189176 0.15140143 -0.84062672 3 130 125
-0.056245469 0.15139505 -0.84089041 3 130 125
-0.056529317 0.14850694 -0.84400183 1 130 126
-0.056001052 0.14960292 -0.84119761 3 130 125
-0.055996373 0.1495762 -0.84118611 3 130 125
-0.056571655 0.14952569 -0.84382623 2 128 126
-0.0564286 0.14984836 -0.84305596 2 130 126
-0.056180757 0.14927189 -0.84213793 2 130 125
-0.055751219 0.14842966 -0.84066051 2 130 126
-0.055840671 0.14822452 -0.84111547 2 130 126
-0.055572804 0.14708613 -0.84050709 2 128 126
-0.056325879 0.14674804 -0.84373993 2 128 126
-0.05610719 0.14701225 -0.84272969 2 128 126
-0.055988215 0.14710915 -0.84220022 2 128 126
-0.038658738 0.14986321 -0.84396195 2 130 125
-0.056196742 0.14630558 -0.84408975 2 128 126
-0.056138422 0.14626174 -0.84401953 2 128 126
-0.055329081 0.14572603 -0.84274262 2 130 126
-0.055505589 0.14581193 -0.84312898 2 130 126
-0.049637329 0.14129074 -0.84244084 2 130 126
-0.049498975 0.13993141 -0.84411013 2 130 126
-0.04974737 0.14062701 -0.84349263 3 128 126
-0.049326323 0.14025223 -0.84344256 2 128 126
-0.049076628 0.14151232 -0.84139138 1 130 126
-0.04933653 0.14129536 -0.84203362 2 128 126
-0.048911411 0.14109074 -0.84174603 1 130 126
-0.050410166 0.14248534 -0.84125423 3 130 126
-0.050289892 0.14249459 -0.84098351 3 130 126
-0.048708402 0.13932931 -0.84405696 2 128 126
-0.048478596 0.13991299 -0.84319049 2 128 126
-0.047707107 0.14181781 -0.84048134 2 130 126
-0.04778365 0.14185619 -0.84044003 2 130 126
-0.065439515 0.18333417 -0.85558605 3 128 126
-0.065450445 0.1833811 -0.85560864 3 128 126
-0.064227298 0.17833783 -0.85555679 2 128 126
-0.064273641 0.17837431 -0.85578161 2 128 126
-0.063607626 0.17476058 -0.85409361 2 128 126
-0.063575536 0.17406145 -0.85413945 2 128 126
-0.063805066 0.17584014 -0.85480034 2 128 126
-0.063525751 0.17501265 -0.85358584 3 128 126
-0.063896038 0.17446175 -0.85570151 2 128 126
-0.063950598 0.17663507 -0.85532141 2 128 126
-0.06362991 0.17622954 -0.85356998 3 128 126
-0.063581988 0.17591944 -0.85346216 3 128 126
-0.063446023 0.17212903 -0.85548729 3 128 126
-0.06332358 0.1716357 -0.85541475 3 128 126
-0.062552392 0.17031007 -0.85269111 3 128 125
-0.062577538 0.17051858 -0.85256958 2 130 124
-0.063323922 0.17273629 -0.85407704 2 128 126
-0.06339369 0.17329641 -0.85383391 2 128 126
-0.063193761 0.17272443 -0.85340571 2 128 126
-0.063149646 0.17317669 -0.85268134 3 128 126
-0.063021727 0.17166695 -0.85365272 2 128 126
-0.067968883 0.16617732 -0.85345554 2 128 126
-0.067664191 0.16757394 -0.85514838 1 130 126
-0.067160428 0.16686668 -0.85496598 1 130 126
-0.06649594 0.16706853 -0.855847 1 128 126
-0.066876002 0.16638856 -0.8547852 1 130 126
-0.06218414 0.16702278 -0.85383356 2 130 126
-0.062764473 0.16837385 -0.85524648 3 128 126
-0.062058996 0.16691987 -0.85352695 2 130 126
-0.062261235 0.16729097 -0.85402036 2 130 126
-0.06232417 0.16681704 -0.8541798 2 130 126
-0.062893212 0.16684127 -0.8555783 2 128 126
-0.062312547 0.16860862 -0.85358614 3 128 126
-0.062396672 0.168836 -0.85376024 3 128 126
-0.061994798 0.16763969 -0.85307693 2 130 126
-0.062159009 0.16832039 -0.8530972 3 128 126
-0.06245688 0.1694122 -0.85332674 3 128 126
-0.065651424 0.16601327 -0.85567021 1 128 126
-0.066023462 0.16485335 -0.85427815 1 128 126
-0.066094227 0.16320206 -0.8528021 1 128 127
-0.066999637 0.16343839 -0.85202891 1 128 126
-0.065484509 0.16595109 -0.85578835 1 128 127
-0.066207238 0.16553666 -0.85465986 1 128 126
-0.06704472 0.16526465 -0.85352874 2 128 126
-0.065830253 0.16213576 -0.85339445 1 128 127
-0.065597221 0.16229866 -0.85513788 1 128 127
-0.065707982 0.16274808 -0.85427564 1 128 127
-0.065796718 0.16269459 -0.85361129 1 128 127
-0.065902583 0.16252285 -0.8528254 1 128 127
-0.06560342 0.16219765 -0.85509765 1 128 127
-0.060860649 0.16250147 -0.85434681 1 130 126
-0.061305497 0.16241191 -0.85545236 1 130 126
-0.061025713 0.16284114 -0.85426408 1 130 126
-0.061126232 0.16407609 -0.85323101 2 128 126
-0.060687616 0.16363148 -0.85254264 1 130 126
-0.062007934 0.16588093 -0.85355198 2 128 126
-0.0613489 0.16233182 -0.85564995 1 130 126
-0.062449697 0.16514258 -0.85541141 1 130 126
-0.062344778 0.16583599 -0.8544271 2 128 126
-0.062060509 0.16412024 -0.85552567 1 130 126
-0.061369047 0.16334254 -0.85464066 1 130 126
-0.062455516 0.16507728 -0.85549408 1 130 126
-0.060099684 0.16221508 -0.85224777 1 130 126
-0.060179565 0.16250515 -0.85219526 1 130 126
-0.061195567 0.16092271 -0.85575879 1 128 126
-0.060681622 0.16103199 -0.85466248 1 128 126
-0.060594279 0.15856877 -0.85508186 1 128 127
-0.059898768 0.15863548 -0.85324246 1 128 127
-0.060452517 0.16103576 -0.85418802 1 128 126
-0.060510565 0.15952152 -0.85468996 1 128 127
-0.060328614 0.15842573 -0.85444927 1 128 127
-0.059956226 0.15938307 -0.85322684 1 128 127
-0.060151789 0.16181664 -0.85278118 1 128 126
-0.060274653 0.16120911 -0.85366291 1 128 126
-0.060108628 0.16092922 -0.853167 1 128 126
-0.059794843 0.16060394 -0.85210097 1 128 126
-0.038784228 0.15848246 -0.85441101 2 128 126
-0.038588874 0.15913582 -0.85480595 2 128 126
-0.038710285 0.15878801 -0.85552764 2 128 126
-0.038457293 0.15956143 -0.85483181 2 130 126
-0.037828419 0.16163695 -0.8556419 3 128 126
-0.038809866 0.15844922 -0.85523111 2 128 126
-0.03813988 0.16050656 -0.85413975 3 128 126
-0.038223378 0.15985309 -0.85255283 3 128 126
-0.038765337 0.1583976 -0.85212219 3 128 126
-0.038098793 0.16055013 -0.85393584 3 128 126
-0.060464665 0.15625913 -0.85549837 1 128 127
-0.060120091 0.15612143 -0.85461545 1 128 127
-0.059753813 0.15723033 -0.85326684 1 128 127
-0.060140081 0.15658471 -0.85451859 1 128 127
-0.0604853 0.15698723 -0.85531843 1 128 127
-0.05973836 0.15622886 -0.85333002 1 128 127
-0.059662763 0.15677062 -0.85304487 1 128 127
-0.059535354 0.15726471 -0.85253441 1 128 127
-0.059502419 0.15567745 -0.8522802 1 128 127
-0.059688315 0.15529209 -0.85304892 1 128 127
-0.038794812 0.15516318 -0.85350645 3 128 126
-0.038847815 0.1554558 -0.85428089 3 128 126
-0.038798407 0.15647498 -0.85358387 3 128 126
-0.038751334 0.15555528 -0.85269034 3 128 126
-0.038764097 0.15634733 -0.85197353 3 128 126
-0.038826343 0.15697612 -0.85419297 2 130 126
-0.038799465 0.15644953 -0.85368544 3 128 126
-0.060110219 0.1506497 -0.8535195 1 128 127
-0.059359174 0.15062307 -0.85224932 1 128 127
-0.060539424 0.15119125 -0.85452223 1 128 127
-0.060078166 0.15314646 -0.85478008 1 128 127
-0.060102921 0.15339045 -0.85494649 1 128 126
-0.059743389 0.15343066 -0.85339814 1 128 126
-0.059888825 0.15309688 -0.854092 1 128 126
-0.059845284 0.15295848 -0.853935 1 128 126
-0.059761506 0.15421839 -0.85330814 1 128 126
-0.041303791 0.15103045 -0.85575962 0 128 127
-0.040145282 0.15067291 -0.85414755 1 128 127
-0.040120989 0.15071325 -0.85415173 1 128 127
-0.03896163 0.15180795 -0.85370636 2 130 126
-0.039120432 0.15183017 -0.8539114 2 130 126
-0.039385211 0.15257646 -0.85485286 2 130 126
-0.03945744 0.15272412 -0.85506237 2 130 126
-0.038678285 0.15395311 -0.85196066 3 128 126
-0.038587742 0.15149477 -0.85247421 2 130 126
-0.038618982 0.15144373 -0.85290629 2 130 126
-0.038634095 0.15296641 -0.85206693 3 128 126
-0.038764235 0.15250351 -0.85403633 3 130 126
-0.03872345 0.15281084 -0.85330921 3 130 126
-0.05974406 0.14756268 -0.85475087 2 128 127
-0.059710782 0.1479857 -0.85533094 2 128 128
-0.059612654 0.14675428 -0.85398978 2 128 126
-0.060427204 0.1486166 -0.85483098 2 128 127
-0.058845565 0.14680739 -0.85542214 2 128 128
-0.060103506 0.14969753 -0.85297596 1 128 126
-0.059473123 0.15037757 -0.85231018 1 128 127
-0.060018446 0.14935456 -0.85263777 1 128 126
-0.059785094 0.1493938 -0.85226989 1 128 126
-0.04178147 0.14774121 -0.85260427 1 128 127
-0.041277017 0.14789456 -0.85216683 1 128 127
-0.041791871 0.14960851 -0.8548246 0 128 127
-0.042239726 0.14818402 -0.85363358 1 128 128
-0.042252 0.14856708 -0.85521513 0 128 127
-0.042534027 0.14718489 -0.85553557 0 128 126
-0.042450249 0.14735028 -0.85434085 1 128 127
-0.04235208 0.14777964 -0.85399735 1 128 127
-0.042456888 0.14709833 -0.85336465 1 128 127
-0.04248029 0.1471421 -0.85410166 1 128 127
-0.03935992 0.149955 -0.85244364 1 128 126
-0.03985934 0.14986821 -0.85292751 1 128 127
-0.040765792 0.14880465 -0.85267794 1 128 127
-0.040728077 0.1495143 -0.85351652 1 128 128
-0.05693163 0.14258647 -0.85358477 1 130 126
-0.056934558 0.14346102 -0.85235363 1 128 126
-0.060114864 0.14628856 -0.85316241 2 128 126
-0.059254155 0.14581281 -0.85567063 1 128 127
-0.05906545 0.14630334 -0.85500216 2 128 128
-0.059602745 0.14614052 -0.85437822 2 128 127
-0.056526806 0.14338011 -0.8529498 2 128 126
-0.042792629 0.14394183 -0.85550416 1 128 127
-0.042981144 0.14389652 -0.85495353 1 128 127
-0.04321713 0.14332974 -0.85425669 0 130 126
-0.042859923 0.14531559 -0.85532838 1 128 127
-0.043435119 0.1441742 -0.8536334 0 130 126
-0.043001506 0.14553769 -0.85486531 0 130 126
-0.04298671 0.14556636 -0.85477585 0 130 126
-0.04295164 0.14556943 -0.85399222 1 128 127
-0.043757997 0.14328931 -0.85255343 0 130 127
-0.042923346 0.14554667 -0.85313797 1 128 127
-0.042720035 0.14598668 -0.85231304 1 128 127
-0.054878425 0.14121763 -0.85298687 2 128 126
-0.05611033 0.14240631 -0.8536163 2 128 126
-0.054212004 0.14113887 -0.85204864 2 128 126
-0.056496404 0.14251631 -0.85409164 2 128 126
-0.055642139 0.14166556 -0.85380733 2 128 126
-0.053648777 0.13981262 -0.8531543 2 128 126
-0.054396272 0.14034788 -0.8545258 2 128 126
-0.053284649 0.13923627 -0.85471445 2 128 126
-0.056021705 0.14197591 -0.85423172 2 128 126
-0.053887814 0.13993768 -0.85391837 2 128 126
-0.055322532 0.14085273 -0.85442924 2 128 126
-0.055086911 0.14046742 -0.85445404 2 128 126
-0.055819355 0.14054631 -0.8542667 2 128 126
-0.055657089 0.14004999 -0.85426098 2 128 127
-0.054676309 0.1394808 -0.8544662 2 128 126
-0.055062085 0.13966425 -0.8543815 2 128 126
-0.051342111 0.13874841 -0.85424775 2 128 126
-0.049552873 0.13892619 -0.85329676 2 128 128
-0.050609879 0.13929087 -0.85290754 2 128 126
-0.050224673 0.13942254 -0.85240823 2 128 127
-0.051362902 0.13905263 -0.85374826 2 128 126
-0.049616843 0.13958147 -0.85196507 1 130 126
-0.045441534 0.13883984 -0.85581017 1 128 128
-0.048815999 0.13880268 -0.85318512 1 130 127
-0.047733776 0.13949561 -0.85311198 1 128 127
-0.04550463 0.13997228 -0.85324293 1 128 128
-0.045007903 0.13999562 -0.85347873 1 128 128
-0.044974953 0.14021239 -0.85292131 1 128 128
-0.047657512 0.13984491 -0.85229063 1 128 127
-0.04651022 0.13967954 -0.85341913 1 128 128
-0.045176342 0.13932338 -0.85516757 1 128 128
-0.043904047 0.14165971 -0.85399133 0 130 127
-0.044171132 0.14156844 -0.8533861 0 128 127
-0.042815607 0.14250118 -0.8555631 1 128 127
-0.044370953 0.14106376 -0.85376483 0 128 127
-0.044206772 0.14130209 -0.85378963 0 128 127
-0.043778617 0.14243501 -0.85288006 0 130 127
-0.044771735 0.14050418 -0.85304254 0 128 127
-0.044630617 0.14056131 -0.85370404 0 128 127
-0.044739686 0.14022554 -0.85396922 0 128 127
-0.050123401 0.13706456 -0.85574865 1 128 127
-0.052707031 0.13811101 -0.85578352 2 128 126
-0.050276466 0.13776615 -0.85495418 1 128 127
-0.049765401 0.13812666 -0.85434252 1 130 127
-0.049942866 0.13735986 -0.85528213 1 128 127
-0.049910352 0.13724937 -0.85539442 1 128 127
-0.049097724 0.13789299 -0.85434204 1 130 127
-0.048670415 0.13699245 -0.85537994 1 128 128
-0.047998331 0.13861398 -0.85407287 1 128 128
-0.048177373 0.13735877 -0.85535407 1 128 128
-0.047606606 0.13765384 -0.85547036 1 128 128
-0.052040774 0.12738338 -0.85496265 1 128 128
-0.05212469 0.12817585 -0.85569298 1 128 128
-0.069941528 0.19409989 -0.86616498 3 128 126
-0.070065573 0.19374445 -0.86711466 3 128 126
-0.069968022 0.19406429 -0.86632591 3 128 126
-0.069782548 0.19373621 -0.86579925 3 128 126
-0.069537081 0.19422953 -0.86381209 3 128 126
-0.071232647 0.19054113 -0.86648411 3 128 126
-0.070972718 0.18976456 -0.86663562 3 128 126
-0.069185302 0.19276653 -0.8638953 3 128 126
-0.069406621 0.19154559 -0.86461967 3 128 126
-0.070459045 0.19036542 -0.8659668 3 128 126
-0.071133845 0.19091244 -0.86623949 3 128 126
-0.069654435 0.19234723 -0.86444747 3 128 126
-0.070627362 0.19229309 -0.86700243 3 128 126
-0.071757711 0.19056776 -0.86720622 3 128 126
-0.07121323 0.19123629 -0.86662906 3 128 126
-0.070035055 0.19293948 -0.86613631 3 128 126
-0.071614034 0.19091374 -0.86755359 3 128 126
-0.070190854 0.19247459 -0.86549532 3 128 126
-0.070825331 0.1857944 -0.86547089 3 128 126
-0.072227351 0.18800028 -0.86622703 3 128 126
-0.068334423 0.18845493 -0.86524743 3 128 126
-0.067792296 0.18555482 -0.86531687 2 128 126
-0.067937203 0.1874382 -0.86467892 3 128 126
-0.067839131 0.18744588 -0.86439401 3 128 126
-0.070287704 0.18164589 -0.86460936 2 128 126
-0.071912877 0.18423392 -0.86458063 3 128 126
-0.069578193 0.18251631 -0.86526847 2 128 126
-0.07196638 0.18426368 -0.86456168 3 128 126
-0.068620965 0.18199289 -0.86561114 2 128 126
-0.071039908 0.18472637 -0.86521828 3 128 126
-0.068612702 0.183864 -0.86624223 2 128 126
-0.067792028 0.18215269 -0.86493754 2 128 126
-0.068340242 0.18428411 -0.86649132 2 128 126
-0.067894742 0.18314911 -0.86542857 2 128 126
-0.067555852 0.1817762 -0.8644495 2 128 126
-0.067341298 0.18497501 -0.86408842 2 128 126
-0.06729532 0.18521237 -0.86393285 2 128 126
-0.067381032 0.18462512 -0.86423749 2 128 126
-0.067282647 0.18464556 -0.86395389 2 128 126
-0.067725308 0.18503386 -0.86518139 2 128 126
-0.06792894 0.17825481 -0.86436069 2 128 126
-0.067804508 0.17834628 -0.86426157 2 128 126
-0.068038061 0.18138482 -0.86511475 2 128 126
-0.067870058 0.18039179 -0.86474705 2 128 126
-0.067824729 0.18035287 -0.86467332 2 128 126
-0.068185844 0.17540461 -0.86412746 2 128 126
-0.067826182 0.17719926 -0.86407155 2 128 126
-0.068014592 0.17744836 -0.8642832 2 128 126
-0.067520559 0.17061894 -0.86398929 2 128 126
-0.067666508 0.17204317 -0.86385453 2 128 126
-0.068061888 0.17104714 -0.86413455 2 128 126
-0.068162702 0.17376572 -0.86381376 2 128 127
-0.068266526 0.16925189 -0.86369038 2 128 126
0 0 0 1 0 0 0 1 0 0 0 1 0 0 0 0 0 840 1 0 0
