ply
format ascii 1.0
comment PCL generated
element vertex 797
property float x
property float y
property float z
property uchar red
property uchar green
property uchar blue
element camera 1
property float view_px
property float view_py
property float view_pz
property float x_axisx
property float x_axisy
property float x_axisz
property float y_axisx
property float y_axisy
property float y_axisz
property float z_axisx
property float z_axisy
property float z_axisz
property float focal
property float scalex
property float scaley
property float centerx
property float centery
property int viewportx
property int viewporty
property float k1
property float k2
end_header
-0.17463541 -0.56674898 -0.74226207 164 141 121
-0.17511275 -0.56657535 -0.74248731 165 141 122
-0.17397471 -0.56773341 -0.7420584 157 140 121
-0.17427666 -0.56709152 -0.74212891 162 140 121
-0.17118333 -0.56740093 -0.740785 157 138 122
-0.17233533 -0.5672875 -0.74128902 159 140 121
-0.17013972 -0.56735307 -0.7403143 156 138 123
-0.17039537 -0.56792253 -0.74048173 152 138 123
-0.1702408 -0.56791669 -0.74041218 152 138 123
-0.17344849 -0.56774646 -0.74182731 156 140 120
-0.17338948 -0.56721908 -0.74174786 161 140 121
-0.16854666 -0.56619573 -0.73950386 160 139 122
-0.16987547 -0.56805819 -0.74026245 151 137 123
-0.16875754 -0.56697726 -0.73966968 155 138 122
-0.16912176 -0.56696504 -0.73982871 156 138 122
-0.16688737 -0.56576502 -0.73869681 160 139 122
-0.17047283 -0.56904685 -0.74063087 146 138 122
-0.17193761 -0.57193971 -0.74159765 129 141 117
-0.16998284 -0.57127839 -0.74065703 121 143 117
-0.17100948 -0.56965876 -0.7409361 144 138 121
-0.1709443 -0.56858182 -0.7407915 148 138 122
-0.16636057 -0.56878787 -0.73879689 135 138 121
-0.16713887 -0.57053065 -0.73936516 134 137 122
-0.16720687 -0.56903547 -0.73920113 138 138 122
-0.16812743 -0.57015169 -0.73975199 138 137 122
-0.16670839 -0.56938046 -0.73902601 135 138 121
-0.16794439 -0.56920946 -0.73954904 140 137 122
-0.16791227 -0.5713042 -0.73978752 128 139 120
-0.16904138 -0.57172692 -0.74030864 120 142 118
-0.16971733 -0.57099932 -0.74051344 124 142 118
-0.16925238 -0.5711382 -0.74033308 125 141 119
-0.16739157 -0.57209903 -0.73965538 122 139 119
-0.16980062 -0.56917942 -0.74034965 141 138 122
-0.1654242 -0.57168072 -0.73879635 129 137 120
-0.17341314 -0.57434314 -0.74256098 123 143 117
-0.1710577 -0.57265973 -0.74130708 117 143 116
-0.16715904 -0.57236111 -0.73959142 120 140 119
-0.16515051 -0.57377028 -0.73902774 120 139 120
-0.16434854 -0.5740065 -0.73875523 122 139 120
-0.16462925 -0.57287985 -0.73867464 126 138 120
-0.17045721 -0.58296978 -0.74230653 109 136 118
-0.16650656 -0.58257365 -0.74070579 115 136 118
-0.16836479 -0.5826776 -0.74144584 111 136 118
-0.16408469 -0.58248222 -0.73977041 110 139 116
-0.16277406 -0.58309925 -0.73937857 112 140 116
-0.16280118 -0.58336848 -0.73942626 115 140 116
-0.16415693 -0.58374012 -0.73997325 121 139 117
-0.16524518 -0.58364934 -0.7403577 123 137 117
-0.16418801 -0.58147287 -0.73967892 103 139 116
-0.16044146 -0.58373278 -0.7387737 119 138 118
-0.1703635 -0.58424622 -0.74242461 115 135 118
-0.16979045 -0.58716571 -0.74255544 125 137 118
-0.16803627 -0.58707261 -0.74189812 124 138 117
-0.16932951 -0.58541781 -0.74217188 120 137 117
-0.16806921 -0.58694214 -0.7418943 124 138 117
-0.16807152 -0.58690983 -0.74189121 124 138 116
-0.16968149 -0.58697391 -0.74249101 125 137 118
-0.16734396 -0.58628398 -0.74154079 123 138 117
-0.16636449 -0.58674431 -0.74122441 126 138 116
-0.16635205 -0.58418328 -0.74084657 126 136 118
-0.16612931 -0.58407402 -0.74074346 126 136 118
-0.16753107 -0.58615458 -0.74159515 122 137 117
-0.16746907 -0.58542341 -0.74146444 123 137 117
-0.16393408 -0.58653814 -0.74031562 121 140 116
-0.164905 -0.5876289 -0.74083173 123 140 116
-0.1639469 -0.58670759 -0.74034876 121 140 116
-0.16266404 -0.58634555 -0.73984998 116 141 116
-0.16213159 -0.58770025 -0.73989832 112 140 117
-0.16506965 -0.58720273 -0.74081558 124 140 116
-0.16493848 -0.58485991 -0.74042028 124 138 117
-0.16342518 -0.58503532 -0.7398935 121 141 116
-0.16584361 -0.58476484 -0.74073678 126 137 117
-0.16290078 -0.58439153 -0.73960835 120 140 117
-0.16290517 -0.58454174 -0.73963183 120 140 117
-0.16505329 -0.58588517 -0.74061149 124 139 116
-0.16027401 -0.58420861 -0.73881185 118 139 117
-0.16065168 -0.58432102 -0.73893809 115 140 117
-0.15916365 -0.5860709 -0.73890436 91 144 113
-0.15864494 -0.58681965 -0.73891789 81 146 112
-0.1586881 -0.58636689 -0.73883879 87 144 113
-0.15983126 -0.58710539 -0.73926079 87 145 113
-0.16203856 -0.5858857 -0.73956633 114 141 117
-0.16184083 -0.58482724 -0.73934078 113 142 116
-0.16001971 -0.58751643 -0.73937428 88 145 113
-0.15726759 -0.58748978 -0.73871607 73 148 111
-0.16733992 -0.59040421 -0.74217027 117 143 116
-0.16645733 -0.58838838 -0.74150205 124 141 115
-0.16683705 -0.58939952 -0.74181408 120 141 115
-0.16830097 -0.5893423 -0.74234265 121 141 116
-0.16848402 -0.58802408 -0.74218518 126 139 117
-0.16640855 -0.59165096 -0.74202108 122 140 117
-0.16676842 -0.59083354 -0.74202472 120 142 116
-0.166316 -0.59019923 -0.74174792 123 141 116
-0.16236106 -0.59122074 -0.74055612 113 140 115
-0.16269968 -0.58971876 -0.74042451 114 140 117
-0.16474505 -0.59140682 -0.74139822 120 140 116
-0.16227831 -0.58900034 -0.74016297 112 140 116
-0.16264871 -0.58886659 -0.74026704 114 140 116
-0.16438754 -0.59136766 -0.74127007 119 140 116
-0.16519442 -0.59006447 -0.74133104 122 140 117
-0.16522834 -0.59019697 -0.7413643 123 140 116
-0.16494074 -0.59033811 -0.74128944 121 140 117
-0.16496126 -0.58875585 -0.74103707 122 140 116
-0.16359617 -0.58832538 -0.74050117 117 140 117
-0.16599527 -0.59023792 -0.74163246 125 139 116
-0.15928105 -0.59168106 -0.73993367 107 138 115
-0.15872604 -0.58909053 -0.73934573 79 145 111
-0.15926009 -0.59137684 -0.73987424 104 139 115
-0.15982874 -0.59159297 -0.74003595 107 139 115
-0.15715818 -0.58836085 -0.73889053 73 148 111
-0.15710931 -0.5888018 -0.73899829 77 146 111
-0.15659961 -0.58941591 -0.739043 83 144 112
-0.1562752 -0.59147525 -0.7393741 105 138 115
-0.1575985 -0.58933651 -0.73918641 82 144 112
-0.15676793 -0.58962649 -0.73911405 86 143 113
-0.16658826 -0.5934462 -0.74232614 118 141 116
-0.1664845 -0.59194118 -0.74209267 121 141 117
-0.16619453 -0.59212351 -0.74200529 123 140 116
-0.1661869 -0.59546155 -0.7424472 117 139 116
-0.16358998 -0.59363568 -0.74133891 114 139 116
-0.16272052 -0.59456819 -0.74127346 109 139 116
-0.16390145 -0.5938254 -0.74146354 115 139 116
-0.16424483 -0.59404457 -0.74160296 115 138 116
-0.16461819 -0.59436309 -0.74177003 116 139 116
-0.16233605 -0.59229183 -0.7407248 112 139 115
-0.16331181 -0.59255451 -0.74107707 115 139 116
-0.16546176 -0.59210038 -0.74174744 123 140 116
-0.16570489 -0.5941121 -0.74210262 120 139 116
-0.16303355 -0.59218609 -0.7409324 115 139 116
-0.16552918 -0.59465408 -0.74211627 119 138 116
-0.16351104 -0.59250319 -0.74113792 116 139 116
-0.16019668 -0.59470147 -0.740758 109 140 115
-0.15887302 -0.59411937 -0.74039584 112 140 115
-0.15984014 -0.59404033 -0.74053842 108 139 115
-0.1599984 -0.59554851 -0.74092978 113 141 115
-0.15841435 -0.59390217 -0.74026668 112 140 115
-0.16113134 -0.59438348 -0.74085391 107 138 116
-0.15881591 -0.59203726 -0.73990071 107 137 115
-0.15917264 -0.59200168 -0.7399708 108 138 115
-0.16192877 -0.59332871 -0.7408222 109 139 116
-0.16173218 -0.59220058 -0.74056172 111 139 115
-0.16126998 -0.59235215 -0.74049121 110 139 115
-0.15634963 -0.59485161 -0.74012321 119 141 115
-0.15475678 -0.59435493 -0.73969889 120 138 116
-0.15533324 -0.59433359 -0.73981571 119 139 116
-0.15672068 -0.59456378 -0.74014831 117 141 115
-0.15673846 -0.59557217 -0.74033636 121 141 116
-0.15581286 -0.59202462 -0.73941791 110 138 116
-0.1571793 -0.59414619 -0.7401365 115 141 115
-0.15816917 -0.59489173 -0.74046564 117 142 114
-0.15803561 -0.59303021 -0.73999524 111 139 115
-0.15788871 -0.59341127 -0.74006534 112 140 115
-0.15795954 -0.59249586 -0.73985451 109 139 115
-0.15063341 -0.59338152 -0.73867893 110 142 115
-0.15180956 -0.59284884 -0.73882103 110 140 115
-0.15157183 -0.59323758 -0.73884374 110 140 115
-0.15184952 -0.59325826 -0.73890424 110 140 115
-0.15341806 -0.59262425 -0.73910773 110 139 115
-0.15404381 -0.59517133 -0.73970038 124 138 116
-0.15268181 -0.59453225 -0.73930705 115 140 116
-0.15296844 -0.59391344 -0.73925215 114 139 116
-0.15251423 -0.59381366 -0.7391417 111 140 115
-0.15312071 -0.59521133 -0.73952031 120 139 116
-0.14988321 -0.59466022 -0.73879993 114 142 115
-0.15015039 -0.59524006 -0.73894036 112 143 115
-0.16358867 -0.59666324 -0.74194759 109 140 115
-0.1632147 -0.59640342 -0.74178523 108 139 116
-0.16408218 -0.59754479 -0.74227929 108 141 115
-0.15836124 -0.59869611 -0.7413289 119 142 115
-0.1593637 -0.59920442 -0.74161041 114 142 114
-0.1591664 -0.59703404 -0.74111611 114 143 114
-0.15877989 -0.59797972 -0.74124956 116 143 114
-0.15985204 -0.59706968 -0.7412408 111 143 114
-0.1605882 -0.59642231 -0.74122268 109 141 115
-0.16116275 -0.59688079 -0.74141872 106 141 115
-0.15873021 -0.59584993 -0.74078715 117 143 115
-0.1551536 -0.59888428 -0.74079144 123 139 116
-0.1550241 -0.5982672 -0.74061489 123 140 115
-0.15661293 -0.59930754 -0.74114728 122 141 115
-0.15552621 -0.59928173 -0.7409547 123 140 116
-0.15445895 -0.597992 -0.74044925 124 139 116
-0.15802224 -0.59817576 -0.74115336 120 143 115
-0.1554161 -0.5958783 -0.74012047 124 140 116
-0.15677589 -0.5970754 -0.74065906 122 141 115
-0.15706839 -0.5965392 -0.74060661 122 141 115
-0.1578218 -0.59687716 -0.74083608 120 143 115
-0.15051836 -0.59951115 -0.74023229 133 140 118
-0.15115625 -0.59710604 -0.73959655 117 142 116
-0.15126355 -0.59948385 -0.74033523 130 140 117
-0.15099873 -0.59862316 -0.74003416 126 140 117
-0.15140843 -0.59861887 -0.74009401 125 140 117
-0.15249312 -0.59819579 -0.74012733 119 141 116
-0.15353481 -0.59716755 -0.74006057 122 140 116
-0.15393807 -0.59580892 -0.7398026 126 138 117
-0.1521485 -0.5964129 -0.73959035 117 141 116
-0.15364622 -0.59817028 -0.74033397 121 140 116
-0.15128982 -0.59599704 -0.73931205 114 142 116
-0.15143299 -0.59642476 -0.73944807 114 142 115
-0.14910424 -0.59647602 -0.73911387 122 142 116
-0.14730871 -0.59851831 -0.73946929 139 140 116
-0.14823081 -0.59625673 -0.73894125 128 141 116
-0.1479474 -0.59763587 -0.73929846 132 141 116
-0.14742908 -0.5982275 -0.73940158 138 140 116
-0.14985122 -0.59903198 -0.73998928 132 140 117
-0.14941984 -0.59680408 -0.73924965 120 143 115
-0.14914043 -0.59698683 -0.73926467 123 142 116
-0.14829516 -0.59911758 -0.73978949 138 140 117
-0.15011597 -0.59712029 -0.73944676 120 142 116
-0.14935935 -0.59931475 -0.74000382 135 140 117
-0.14419411 -0.59870511 -0.73929095 148 140 117
-0.14472741 -0.59900939 -0.73940545 147 139 117
-0.1436224 -0.59919959 -0.73938531 147 139 116
-0.14330314 -0.59907722 -0.73933262 147 140 116
-0.14637494 -0.59889483 -0.7394672 146 139 116
-0.14646691 -0.59909797 -0.73952955 146 139 116
-0.14616466 -0.59623164 -0.73869818 141 140 116
-0.14497606 -0.59779131 -0.73908454 146 140 117
-0.14555086 -0.59884501 -0.73941278 147 139 117
-0.14058666 -0.59959579 -0.73951793 148 140 116
-0.13958204 -0.59866095 -0.73929095 157 138 118
-0.14019477 -0.59908879 -0.73938757 153 139 118
-0.13940902 -0.59953868 -0.73955727 148 141 117
-0.14095974 -0.5991683 -0.73937446 152 138 117
-0.14150517 -0.59814751 -0.73906565 155 138 118
-0.14216158 -0.59788126 -0.73897988 151 140 118
-0.14178804 -0.59817326 -0.73906583 154 138 118
-0.14225249 -0.59784174 -0.7389673 150 140 117
-0.13741067 -0.59910029 -0.73943502 140 141 116
-0.13671055 -0.59855771 -0.73923874 135 141 115
-0.13617074 -0.59954077 -0.7396124 133 140 115
-0.13741937 -0.59802341 -0.73909175 147 139 117
-0.13789611 -0.59859979 -0.73928213 148 140 117
-0.13730152 -0.59793293 -0.73905993 146 139 117
-0.13704143 -0.59822673 -0.73913485 140 141 116
-0.12607343 -0.59692341 -0.73875302 138 140 119
-0.15949158 -0.60255718 -0.74253458 117 140 116
-0.15951678 -0.60248858 -0.74252015 116 140 116
-0.15983684 -0.60066289 -0.74207073 111 142 115
-0.15840058 -0.60150629 -0.74205589 119 141 115
-0.15851067 -0.601937 -0.74219453 118 141 115
-0.15696821 -0.6017949 -0.74189162 117 142 115
-0.15730645 -0.60284567 -0.74224079 118 141 116
-0.15800123 -0.60263497 -0.74230045 119 140 116
-0.15530705 -0.60313445 -0.74198091 113 142 116
-0.15620647 -0.60205233 -0.74183351 115 143 115
-0.15788622 -0.60174161 -0.74203295 119 141 115
-0.1543283 -0.60107118 -0.74123895 118 141 116
-0.15651807 -0.60016567 -0.74136156 119 142 115
-0.15511557 -0.6005612 -0.74123162 119 141 115
-0.15578261 -0.60003918 -0.74120039 120 141 115
-0.15431198 -0.60349327 -0.74191123 110 143 115
-0.15653342 -0.59988332 -0.7412855 120 142 115
-0.15141495 -0.60221004 -0.74120641 128 140 119
-0.1509943 -0.60220414 -0.74116445 131 140 119
-0.15148725 -0.60182709 -0.74108577 128 141 118
-0.15140186 -0.60156864 -0.74099159 128 140 118
-0.15184908 -0.6028505 -0.74146086 126 141 118
-0.15142426 -0.60202014 -0.741144 128 140 118
-0.15231471 -0.60000247 -0.74063981 127 140 117
-0.15429695 -0.6013214 -0.74130332 117 141 116
-0.15334445 -0.60009968 -0.74082059 124 140 116
-0.15388215 -0.6015476 -0.74130446 117 141 116
-0.15385705 -0.60055131 -0.741023 121 141 116
-0.15426345 -0.6013841 -0.74131578 117 141 116
-0.14675044 -0.60281169 -0.74085099 148 135 120
-0.14661309 -0.6031478 -0.74095428 149 135 121
-0.14699633 -0.60202593 -0.74060053 147 137 119
-0.14690223 -0.60330844 -0.74104667 148 135 121
-0.14824212 -0.602754 -0.74101144 143 137 120
-0.1503738 -0.60057545 -0.74056232 134 140 118
-0.14970401 -0.60004956 -0.74028999 136 139 118
-0.14858399 -0.59999257 -0.74010849 141 139 118
-0.14967151 -0.60014039 -0.74031556 136 139 118
-0.1472878 -0.60010368 -0.73995739 145 139 117
-0.15016174 -0.59979963 -0.74027324 134 139 118
-0.14327121 -0.60115802 -0.7400887 151 138 118
-0.14443101 -0.60239655 -0.74061048 151 137 119
-0.14443916 -0.6033141 -0.74100727 155 136 121
-0.14265636 -0.59975946 -0.73949111 147 139 116
-0.14376695 -0.60183424 -0.74037522 152 138 119
-0.14418784 -0.59982342 -0.73960614 147 139 116
-0.14601973 -0.60283542 -0.74079758 149 135 120
-0.14360064 -0.59999865 -0.73963124 147 139 116
-0.14441893 -0.60062355 -0.73990631 148 138 117
-0.14609864 -0.60038078 -0.73992682 148 138 117
-0.1448428 -0.6002894 -0.7398141 148 138 117
-0.14071129 -0.60311872 -0.74099302 157 138 120
-0.1400661 -0.60259533 -0.740794 155 138 120
-0.13993593 -0.60180587 -0.74047709 153 139 119
-0.1396156 -0.60115683 -0.74022079 152 140 119
-0.1410905 -0.6021952 -0.74061185 157 139 120
-0.14047115 -0.60137445 -0.740291 154 140 119
-0.14149716 -0.60211456 -0.74056232 157 139 120
-0.1424825 -0.60307997 -0.74093294 160 139 121
-0.14003448 -0.6002993 -0.73984671 150 141 118
-0.14237021 -0.60221571 -0.74056447 157 139 119
-0.13746557 -0.60316354 -0.74108088 146 136 118
-0.13827324 -0.60011101 -0.73982012 146 141 117
-0.13751468 -0.60122341 -0.74027783 143 138 117
-0.13785306 -0.6003024 -0.73990178 144 140 117
-0.13837543 -0.60053647 -0.73999131 147 140 117
-0.13618712 -0.60081035 -0.74012393 134 137 116
-0.12814413 -0.60150373 -0.74062306 139 141 120
-0.12909344 -0.60309613 -0.7412625 143 139 120
-0.156947 -0.60402131 -0.74255985 114 140 116
-0.15540439 -0.60428804 -0.74240005 108 142 116
-0.15207639 -0.60572731 -0.74248898 105 143 118
-0.15322703 -0.60458905 -0.74219447 107 143 116
-0.1537241 -0.60410154 -0.74206889 108 143 116
-0.15055853 -0.60444075 -0.74187994 125 141 120
-0.15141606 -0.60566086 -0.7423836 107 143 118
-0.15051089 -0.60543996 -0.74222118 116 142 119
-0.15054069 -0.60540962 -0.74221355 116 142 119
-0.15282013 -0.60363185 -0.74181485 119 142 118
-0.1492369 -0.60513479 -0.74207282 128 141 120
-0.14979549 -0.60597587 -0.74237907 115 142 120
-0.15035716 -0.60567522 -0.74229032 115 141 120
-0.14821389 -0.60584795 -0.74229181 128 141 120
-0.1466732 -0.60400909 -0.74131858 146 136 121
-0.14831392 -0.60479051 -0.74187529 136 139 121
-0.1485842 -0.6041131 -0.74159807 139 138 121
-0.14792441 -0.60402244 -0.74147654 142 137 121
-0.14669855 -0.60589492 -0.74218482 134 140 120
-0.14365813 -0.60632747 -0.7423839 146 141 119
-0.14628756 -0.60589129 -0.74215901 136 139 120
-0.14494202 -0.60526556 -0.74188554 146 139 120
-0.14327657 -0.60673255 -0.74257296 145 142 119
-0.14580742 -0.60660678 -0.74249107 134 141 120
-0.14463255 -0.60476977 -0.74166238 150 138 120
-0.14288801 -0.60505992 -0.74181533 154 140 119
-0.1429577 -0.60579222 -0.74214751 151 141 119
-0.14406809 -0.60381889 -0.74123681 156 137 121
-0.14407104 -0.60390013 -0.7412737 156 137 121
-0.14047359 -0.60544556 -0.74197876 153 139 119
-0.1413174 -0.60510921 -0.74183208 155 139 120
-0.14086324 -0.60550523 -0.74200881 153 140 119
-0.141229 -0.60579848 -0.74214488 152 140 119
-0.14088982 -0.60567772 -0.74208742 152 139 120
-0.13908833 -0.60537881 -0.74197251 150 138 118
-0.14022622 -0.60427302 -0.74148309 154 137 119
-0.13952209 -0.60455543 -0.74161625 152 137 119
-0.13927513 -0.6038273 -0.74131358 153 136 119
-0.13903083 -0.6059438 -0.7422123 149 139 119
-0.13812695 -0.60482061 -0.7417469 148 137 119
-0.1381046 -0.6040706 -0.74143022 150 136 119
-0.13710476 -0.6060403 -0.74226558 144 139 119
-0.13844964 -0.60612446 -0.74229646 147 139 118
-0.13717462 -0.60384178 -0.74136662 145 137 118
-0.1371284 -0.60393584 -0.74140471 145 137 118
-0.13733926 -0.60442317 -0.74158823 146 137 119
-0.13131323 -0.60380936 -0.74146742 141 137 120
-0.12960021 -0.60431087 -0.74180776 140 139 120
-0.12988128 -0.60388327 -0.74158323 142 138 120
-0.12899722 -0.60432851 -0.74186194 140 139 120
-0.16339521 -0.56438679 -0.73718005 158 147 120
-0.1608126 -0.56397015 -0.73616886 165 146 122
-0.16202356 -0.56409138 -0.73663008 157 149 121
-0.16616799 -0.5673753 -0.7385506 144 139 121
-0.16609715 -0.56821722 -0.73861444 136 138 121
-0.16362716 -0.56780297 -0.7376644 134 143 120
-0.16303208 -0.56570578 -0.73719811 146 147 120
-0.16469307 -0.56827599 -0.73810697 133 140 121
-0.16399395 -0.56637669 -0.73762667 143 145 120
-0.16354011 -0.56597751 -0.7374146 145 146 120
-0.16426755 -0.56717664 -0.7378214 139 143 120
-0.16559251 -0.56560338 -0.73813105 157 141 121
-0.1634087 -0.56511527 -0.73726881 152 146 121
-0.16508782 -0.56587166 -0.73797446 152 142 121
-0.16578868 -0.56610173 -0.73825938 153 140 121
-0.1635191 -0.56528181 -0.73732823 151 146 121
-0.15998748 -0.56665319 -0.73618585 151 143 123
-0.1614172 -0.56821829 -0.73689228 133 144 120
-0.15968464 -0.56753087 -0.73614031 147 143 121
-0.16010648 -0.56665939 -0.73623401 150 143 123
-0.15851468 -0.56782168 -0.73569745 151 143 120
-0.16020221 -0.56607795 -0.73620969 154 144 123
-0.16200757 -0.56810963 -0.73711401 130 144 121
-0.16172579 -0.56610751 -0.7367714 145 147 121
-0.16055998 -0.56670374 -0.73641562 148 144 122
-0.16143744 -0.56663859 -0.73672926 143 145 121
-0.16064399 -0.56543362 -0.73629457 155 146 122
-0.15814339 -0.5681476 -0.73558366 151 143 119
-0.16578199 -0.56947529 -0.7386474 133 138 121
-0.16484131 -0.57028615 -0.73840821 133 139 120
-0.16501768 -0.5717352 -0.73865187 129 138 120
-0.16451266 -0.57034016 -0.7382955 134 139 120
-0.16554475 -0.56907827 -0.73851401 134 139 120
-0.16409571 -0.56857729 -0.73792738 132 141 120
-0.16454272 -0.56914496 -0.738159 133 140 120
-0.16304512 -0.57090813 -0.73783326 134 141 119
-0.16226594 -0.57166219 -0.73764366 134 141 118
-0.16351092 -0.56910425 -0.73778033 132 141 120
-0.16403432 -0.56921309 -0.73798323 133 141 120
-0.15896222 -0.57133144 -0.73648149 149 141 121
-0.16006662 -0.57110548 -0.73677897 143 141 119
-0.15894215 -0.57114369 -0.73643571 148 141 120
-0.16109534 -0.57207799 -0.73730487 139 141 119
-0.16027689 -0.57052547 -0.73672253 141 142 118
-0.16030887 -0.57219678 -0.73708421 143 141 119
-0.16144228 -0.57157737 -0.73730975 137 142 118
-0.16036402 -0.56911409 -0.73657596 139 143 119
-0.15958314 -0.56955212 -0.73631752 144 143 118
-0.16061229 -0.5691551 -0.73668033 138 143 119
-0.16192001 -0.56895274 -0.73717839 130 143 120
-0.16106966 -0.56952649 -0.73690879 136 143 119
-0.15492569 -0.57028812 -0.73497921 153 139 122
-0.15561697 -0.57086521 -0.7352767 144 141 121
-0.15443215 -0.57073712 -0.73490906 152 139 122
-0.15758555 -0.56922048 -0.73559171 149 142 119
-0.15810734 -0.57010311 -0.73595369 150 142 120
-0.15519182 -0.57189363 -0.7353459 142 140 122
-0.15708274 -0.57206261 -0.73601997 149 140 122
-0.15742049 -0.57088464 -0.73588616 149 141 121
-0.15330079 -0.57153785 -0.73477328 150 138 123
-0.15400511 -0.5713957 -0.73491138 149 139 122
-0.16385554 -0.57235873 -0.73831028 130 139 119
-0.16450498 -0.57282233 -0.73862022 127 138 120
-0.16239554 -0.57303685 -0.73788816 131 141 118
-0.16342895 -0.57462406 -0.73851687 122 140 119
-0.16271216 -0.57577175 -0.7384159 120 140 120
-0.16225012 -0.57469356 -0.73806477 125 140 120
-0.15848933 -0.57424057 -0.73681509 137 139 121
-0.15848932 -0.57418364 -0.73680687 137 140 121
-0.15994456 -0.57566136 -0.73747033 126 139 121
-0.15928657 -0.57492572 -0.73716062 131 140 121
-0.16024601 -0.57521445 -0.73749882 129 140 121
-0.1619096 -0.57458383 -0.73792624 127 140 120
-0.16048862 -0.57383186 -0.73737621 137 139 121
-0.16204335 -0.57589656 -0.73815358 123 139 121
-0.16047829 -0.57393968 -0.73738819 136 140 121
-0.16087048 -0.57324803 -0.73741293 137 140 120
-0.16058823 -0.57371551 -0.73739082 136 140 120
-0.15640542 -0.57605106 -0.7364459 128 138 120
-0.15509443 -0.57361913 -0.73560834 136 139 122
-0.15453106 -0.57571125 -0.73582268 136 137 120
-0.15576577 -0.57410377 -0.73589802 133 139 121
-0.15479738 -0.57504547 -0.7357806 135 138 120
-0.1581177 -0.57541764 -0.73686808 127 140 121
-0.15731572 -0.57450044 -0.73646462 132 140 121
-0.15649967 -0.57374507 -0.73607975 135 140 121
-0.1561742 -0.57289451 -0.73584688 141 139 122
-0.15617345 -0.57391006 -0.7359935 133 139 121
-0.15360709 -0.5726279 -0.73503149 138 141 121
-0.15384914 -0.57245976 -0.73505557 139 140 122
-0.15154439 -0.57490838 -0.73498333 120 150 115
-0.1532525 -0.57518458 -0.73542017 130 143 117
-0.15296739 -0.57479197 -0.73528379 128 144 117
-0.15357359 -0.57594556 -0.735632 131 140 118
-0.15175305 -0.57497936 -0.73504364 120 150 115
-0.153818 -0.5760805 -0.73571193 133 139 118
-0.16281165 -0.57625598 -0.73852599 117 140 120
-0.16013302 -0.57835102 -0.73798853 121 139 120
-0.15945086 -0.579844 -0.73800576 115 139 117
-0.16034314 -0.57874548 -0.73809242 115 140 118
-0.16058195 -0.57985681 -0.73829526 104 140 116
-0.15829116 -0.57904828 -0.73755753 124 139 119
-0.16104572 -0.57670677 -0.73798192 122 140 120
-0.16058439 -0.57680547 -0.73785734 122 140 120
-0.15900806 -0.57872361 -0.73771989 123 139 119
-0.15824182 -0.579265 -0.73758179 124 139 119
-0.16151913 -0.57660002 -0.73810875 122 139 121
-0.15619436 -0.5788275 -0.73685843 132 138 119
-0.15493424 -0.57902884 -0.73645926 138 139 119
-0.15645261 -0.57878685 -0.73694032 131 138 119
-0.15517649 -0.57728678 -0.73629397 134 138 119
-0.15621461 -0.57991576 -0.7370199 133 139 118
-0.15494867 -0.57874084 -0.73642319 137 139 118
-0.15701181 -0.57865703 -0.73710245 128 138 119
-0.15803343 -0.57923198 -0.73751301 124 139 118
-0.1563579 -0.57617331 -0.73645407 128 138 120
-0.1571244 -0.57626301 -0.73669982 125 139 120
-0.1581492 -0.57869518 -0.73744982 123 139 119
-0.1518883 -0.57849705 -0.73564124 131 145 116
-0.15185702 -0.5781666 -0.73558056 127 147 115
-0.1506944 -0.5795871 -0.73557711 145 141 120
-0.15214111 -0.57945782 -0.73585075 140 142 118
-0.15043993 -0.57707328 -0.73511207 119 151 114
-0.15418535 -0.57758951 -0.73601317 138 138 119
-0.15337558 -0.57759982 -0.73583162 132 142 117
-0.15170696 -0.57620406 -0.73525602 118 149 114
-0.15330766 -0.57693917 -0.73572236 130 142 117
-0.15405734 -0.5769192 -0.73588902 135 139 119
-0.14762206 -0.57818919 -0.73478299 140 146 119
-0.14963761 -0.57692283 -0.73493862 118 153 114
-0.14924331 -0.57799542 -0.73504221 129 149 116
-0.15033108 -0.57708436 -0.73509288 119 151 114
-0.14975806 -0.57846999 -0.73521507 134 146 117
-0.14938116 -0.57749635 -0.73498553 124 151 115
-0.14950435 -0.57901514 -0.73525786 139 145 118
-0.1494609 -0.57922184 -0.73528385 141 144 119
-0.15935561 -0.58071333 -0.73809481 116 139 118
-0.16021922 -0.58055753 -0.73829418 107 140 116
-0.15996404 -0.58364326 -0.73863465 121 137 118
-0.15843853 -0.58048338 -0.73783118 124 138 118
-0.16053964 -0.58014107 -0.73832107 102 140 115
-0.15852143 -0.58340085 -0.7382015 123 136 120
-0.15949567 -0.58393425 -0.73854131 123 136 119
-0.1586282 -0.58109021 -0.73795855 124 138 118
-0.15569365 -0.58176559 -0.73708737 132 138 118
-0.15588777 -0.58285445 -0.7373485 120 140 117
-0.15481719 -0.58104253 -0.73671567 135 139 118
-0.15472756 -0.58232659 -0.73693913 117 143 115
-0.15479371 -0.58179218 -0.73685378 126 141 117
-0.15505098 -0.58110523 -0.73678976 136 139 118
-0.15784521 -0.58295172 -0.73793644 125 136 120
-0.15540476 -0.58100998 -0.73687828 138 138 119
-0.15589049 -0.58160394 -0.73711348 135 137 119
-0.15781957 -0.58146906 -0.73775232 126 137 119
-0.15679181 -0.58160061 -0.73741901 130 137 119
-0.15560097 -0.58131546 -0.73698103 137 137 119
-0.15139367 -0.58192396 -0.73617429 136 141 119
-0.15411982 -0.58392692 -0.73709953 96 149 113
-0.15332712 -0.58362758 -0.73689121 108 146 115
-0.15091957 -0.58294976 -0.73630816 143 139 120
-0.15401991 -0.58388895 -0.73707324 98 148 113
-0.15275042 -0.58318216 -0.73669082 116 144 116
-0.15346253 -0.58251792 -0.73669171 114 145 115
-0.15124972 -0.58052528 -0.73585713 143 140 120
-0.15188798 -0.58115023 -0.73610747 134 142 119
-0.15314423 -0.5811882 -0.7363708 131 142 117
-0.15349245 -0.58179045 -0.73655778 123 143 116
-0.15845917 -0.58437419 -0.73834062 117 136 118
-0.15662278 -0.58648711 -0.73832637 91 144 113
-0.1549097 -0.58780384 -0.73817152 79 148 111
-0.15689528 -0.58647662 -0.73839569 90 144 113
-0.15628164 -0.58718705 -0.73839378 82 147 112
-0.15432124 -0.5854454 -0.73748183 89 148 112
-0.15787801 -0.58399475 -0.73809624 120 136 119
-0.15723175 -0.58451539 -0.73804289 114 138 118
-0.15651143 -0.58519375 -0.73800564 106 141 116
-0.15339512 -0.58764058 -0.73780042 91 146 113
-0.15176105 -0.58671606 -0.73728412 114 142 117
-0.15374285 -0.58751124 -0.73784083 89 147 112
-0.15129112 -0.58699948 -0.73725277 115 143 117
-0.15289545 -0.58746481 -0.73766541 97 146 114
-0.15121868 -0.58608937 -0.73704457 124 141 118
-0.15303074 -0.58460283 -0.73705411 110 145 115
-0.15417491 -0.58520114 -0.73739779 91 148 113
-0.15338327 -0.58511966 -0.73723543 103 146 114
-0.1517643 -0.58484626 -0.73687917 128 141 118
-0.1471239 -0.58683425 -0.73640645 137 140 121
-0.14743741 -0.58750021 -0.73661464 133 140 121
-0.14688766 -0.58723259 -0.73644984 137 139 121
-0.14706072 -0.58618915 -0.73625088 141 139 121
-0.14979556 -0.58682716 -0.73692065 125 141 119
-0.1490126 -0.58624828 -0.73664016 131 141 119
-0.14844905 -0.58570033 -0.73641026 136 140 120
-0.14930296 -0.58537418 -0.73651206 138 139 120
-0.14555551 -0.58761615 -0.73632532 138 140 121
-0.14499238 -0.58665127 -0.7360369 142 140 121
-0.14374734 -0.58594221 -0.73570424 145 140 120
-0.14418694 -0.58716416 -0.73602986 141 140 120
-0.14510037 -0.58645463 -0.73601002 142 140 121
-0.14551197 -0.58678275 -0.73613936 141 139 121
-0.13964713 -0.58432913 -0.73488617 142 139 121
-0.13924456 -0.58551639 -0.7351467 140 139 120
-0.13880749 -0.58465499 -0.73487878 138 139 120
-0.1412297 -0.58729649 -0.73573524 142 139 119
-0.14218456 -0.58677948 -0.73568779 143 140 119
-0.14236623 -0.58669496 -0.73568177 144 140 119
-0.14168306 -0.58719623 -0.73574382 142 140 118
-0.13948642 -0.58776957 -0.73572099 140 138 119
-0.14016788 -0.5870446 -0.73561084 142 138 119
-0.13858657 -0.58502358 -0.73495156 137 139 120
-0.13830176 -0.58687627 -0.73540288 137 137 119
-0.13832892 -0.58457959 -0.73481679 136 139 120
-0.15521461 -0.5885759 -0.73846704 81 147 112
-0.15528853 -0.58876288 -0.73853987 82 147 111
-0.15112637 -0.59164947 -0.73843074 109 140 115
-0.1535805 -0.58880073 -0.73813832 87 146 112
-0.15059111 -0.59070045 -0.73805696 110 141 116
-0.14710516 -0.59122425 -0.73755592 130 140 117
-0.14794976 -0.59112316 -0.73768115 125 140 117
-0.14830153 -0.59148854 -0.73784631 123 140 117
-0.14742643 -0.59038687 -0.73738199 129 140 118
-0.14726496 -0.58944321 -0.73709112 131 139 119
-0.15032537 -0.59121931 -0.73814404 111 141 115
-0.14837706 -0.58899158 -0.73717558 125 140 119
-0.14858162 -0.58970994 -0.73740679 123 140 118
-0.14930885 -0.58907664 -0.73737675 119 141 118
-0.14855811 -0.58835727 -0.73704076 124 141 119
-0.15032668 -0.59088945 -0.73805612 112 141 116
-0.1445155 -0.59081888 -0.7370466 137 140 118
-0.14344788 -0.58919775 -0.73644125 139 141 118
-0.14266624 -0.58820951 -0.73605353 140 141 118
-0.14461942 -0.59173477 -0.73731685 137 140 118
-0.14290491 -0.58882648 -0.73625982 140 141 118
-0.14626305 -0.58953267 -0.73694211 135 140 120
-0.14451207 -0.58891487 -0.73651665 137 140 119
-0.14469804 -0.58847058 -0.73642045 137 140 119
-0.14396223 -0.58865857 -0.73636574 138 141 118
-0.14615126 -0.59007591 -0.73707652 135 140 119
-0.14610514 -0.59051728 -0.73719215 135 140 119
-0.13904622 -0.59113872 -0.73664975 155 136 119
-0.13886338 -0.59037358 -0.73641896 152 135 119
-0.14039832 -0.59135336 -0.73678875 150 137 119
-0.14105174 -0.59098411 -0.73671973 144 139 119
-0.14089713 -0.59085184 -0.73667282 145 138 119
-0.13940887 -0.58806038 -0.73578906 139 138 119
-0.13922268 -0.58793592 -0.73574209 139 138 119
-0.14238399 -0.58876538 -0.73618293 140 141 118
-0.14053255 -0.58838785 -0.73595488 139 139 119
-0.14227755 -0.59123498 -0.73686439 141 140 119
-0.13649832 -0.59100592 -0.73655128 140 138 117
-0.13798948 -0.59177798 -0.73681164 154 136 118
-0.13743216 -0.59057003 -0.7364043 148 136 118
-0.13753711 -0.59060347 -0.73641849 148 136 119
-0.13835272 -0.59129006 -0.73665631 157 135 119
-0.13830346 -0.59040844 -0.73639995 151 136 119
-0.13822709 -0.59112793 -0.73660344 155 135 119
-0.13669434 -0.58946985 -0.73605055 137 137 118
-0.15055168 -0.59337711 -0.73866057 110 142 115
-0.15023845 -0.592628 -0.73845524 111 141 115
-0.15020107 -0.5937224 -0.73866755 112 142 115
-0.14739722 -0.59479177 -0.73850137 132 140 116
-0.14785182 -0.59227931 -0.73796839 126 140 116
-0.14873628 -0.59330744 -0.73838079 122 140 115
-0.14903621 -0.59267992 -0.73828149 119 140 115
-0.14804053 -0.59227699 -0.73800206 125 140 116
-0.14879665 -0.59244388 -0.73818016 121 140 116
-0.14883579 -0.59227383 -0.73814559 120 140 116
-0.14551964 -0.59545875 -0.73843163 140 140 117
-0.14404155 -0.59556496 -0.73840147 143 142 118
-0.14313236 -0.59410232 -0.737858 143 142 119
-0.14292639 -0.59240776 -0.73726648 141 140 119
-0.14362933 -0.59293979 -0.737481 141 139 118
-0.14496993 -0.59420258 -0.73797524 140 140 117
-0.1455263 -0.59355134 -0.7378943 138 140 117
-0.14578544 -0.59215403 -0.73758912 135 140 118
-0.14540777 -0.59366095 -0.73790413 138 140 117
-0.14404561 -0.59236687 -0.73739141 139 140 118
-0.14559419 -0.59214884 -0.73756039 136 139 118
-0.14029421 -0.59486699 -0.73807287 164 136 121
-0.13882773 -0.59394479 -0.73771268 172 133 121
-0.13915639 -0.59283859 -0.7372449 163 135 120
-0.1394365 -0.59391624 -0.73769033 166 134 121
-0.14000621 -0.59438896 -0.73787808 164 136 120
-0.13992175 -0.59349835 -0.7375074 159 137 120
-0.13976686 -0.59241557 -0.73709309 156 137 119
-0.14241758 -0.59546369 -0.73829162 146 143 119
-0.14201407 -0.5947575 -0.73802596 147 142 119
-0.14134011 -0.59332579 -0.7374956 150 139 120
-0.13989905 -0.59273845 -0.73721153 156 137 119
-0.13567425 -0.59444427 -0.73782122 137 138 116
-0.13642704 -0.59361029 -0.73756665 150 136 118
-0.1353056 -0.59259516 -0.73713619 133 139 116
-0.13735585 -0.59502745 -0.73812985 164 133 120
-0.13708022 -0.59542531 -0.73825628 159 134 119
-0.1381782 -0.59236526 -0.73705548 160 135 119
-0.13807866 -0.59207177 -0.73693281 157 135 119
-0.13702382 -0.59325385 -0.73742676 154 136 119
-0.1382121 -0.59355527 -0.73755264 167 133 120
-0.1355664 -0.5919795 -0.73689431 133 139 116
-0.13853933 -0.59312177 -0.73737156 168 133 120
-0.12245033 -0.59424466 -0.73789388 139 140 118
-0.14450578 -0.59582418 -0.73850316 142 142 117
-0.14154196 -0.59596789 -0.73848104 155 140 121
-0.14129072 -0.59652215 -0.73863959 158 139 120
-0.13928276 -0.59593964 -0.73851401 177 132 122
-0.1369151 -0.5964877 -0.73861426 155 135 119
-0.13607377 -0.59635729 -0.73852611 142 138 116
-0.13649651 -0.59580755 -0.73835808 149 136 118
-0.13481542 -0.57061601 -0.73083311 143 140 121
-0.13469684 -0.57072568 -0.73083913 142 140 121
-0.13217774 -0.57113975 -0.73040807 141 139 121
-0.1330042 -0.57201576 -0.73081142 140 140 121
-0.13337927 -0.57019675 -0.73041981 143 139 121
-0.13148604 -0.57090139 -0.73018825 145 138 122
-0.13170861 -0.57086253 -0.7302283 144 138 122
-0.13188888 -0.57106066 -0.73032355 142 138 121
-0.12963104 -0.57174516 -0.73012412 141 138 122
-0.12905507 -0.57117057 -0.72986341 144 139 122
-0.12965089 -0.57130247 -0.72996169 145 139 122
-0.12897129 -0.57114369 -0.72984642 144 139 122
-0.12948178 -0.57140183 -0.72998452 144 139 122
-0.17537019 -0.56672513 -0.74262923 163 141 122
-0.17378309 -0.57544053 -0.74282593 117 145 116
-0.17110518 -0.58357054 -0.74264055 108 136 118
-0.17041285 -0.5862909 -0.74269408 120 137 118
-0.17153169 -0.58505023 -0.7429896 108 137 117
-0.17050648 -0.58736938 -0.74286425 122 138 118
-0.17167503 -0.586312 -0.74319726 110 138 117
-0.16980222 -0.58760786 -0.74261504 127 137 118
-0.17021367 -0.5882594 -0.74285531 123 138 117
-0.17208628 -0.58799791 -0.74350679 111 139 118
-0.17078044 -0.58861369 -0.7431044 115 140 117
-0.16972509 -0.58955824 -0.74292475 118 141 117
-0.16959773 -0.58973664 -0.74290729 117 142 117
-0.16829322 -0.59987146 -0.74401146 109 138 116
-0.16328444 -0.60623997 -0.74434966 119 140 117
-0.16404897 -0.60704559 -0.74479538 107 144 116
-0.15885215 -0.60649151 -0.74358076 111 139 115
-0.15948132 -0.60689265 -0.74380928 111 139 116
-0.15856907 -0.60604233 -0.74339759 112 139 115
-0.16049117 -0.60729766 -0.74410462 110 139 116
-0.15997095 -0.60676253 -0.74385482 112 139 116
-0.15849203 -0.6070177 -0.74367601 109 140 114
-0.16061014 -0.60542822 -0.74355948 120 138 117
-0.15956296 -0.60443234 -0.74308169 122 138 117
-0.15627174 -0.60560852 -0.74301386 105 140 117
-0.15718319 -0.60607511 -0.74324346 107 140 116
-0.15699208 -0.60527533 -0.74298537 109 140 116
-0.14767395 -0.60701144 -0.74267936 119 142 119
-0.14887571 -0.60690963 -0.74267477 111 144 119
-0.14327091 -0.60690171 -0.74265325 145 143 118
-0.14578621 -0.60683757 -0.74259794 133 141 120
-0.14127512 -0.60714877 -0.74276084 147 141 118
-0.13623641 -0.60710627 -0.74271768 140 140 119
-0.13711312 -0.60680878 -0.74259031 143 140 118
-0.15862161 -0.60892165 -0.74435782 106 139 115
-0.15862876 -0.60910201 -0.74442488 106 139 115
-0.15912196 -0.60808605 -0.74413252 104 140 114
-0.14677702 -0.60870749 -0.7434234 124 141 120
-0.14682272 -0.60936481 -0.74370599 123 140 119
-0.14735335 -0.60876602 -0.74344242 117 142 119
-0.14686233 -0.61041367 -0.7441572 123 140 119
-0.14830038 -0.61062962 -0.74423474 106 142 118
-0.1467642 -0.60750437 -0.74290836 124 142 120
-0.14773944 -0.60751301 -0.74291569 116 143 119
-0.14811248 -0.60877734 -0.74344313 109 144 119
-0.14259705 -0.61039221 -0.74420059 140 140 117
-0.14397348 -0.60949188 -0.74378496 137 141 118
-0.14295636 -0.61021858 -0.74411905 139 141 117
-0.14367935 -0.60908622 -0.74361104 140 141 118
-0.14356297 -0.60955542 -0.74381888 139 141 118
-0.14471233 -0.61023891 -0.74410242 134 140 118
-0.14485002 -0.60835469 -0.74328429 135 141 119
-0.14433247 -0.60845256 -0.74332947 137 142 119
-0.14530928 -0.60847515 -0.7433334 133 141 119
-0.14611523 -0.6095776 -0.74380338 128 140 120
-0.14564793 -0.60914129 -0.74361825 131 141 119
-0.1456852 -0.61010796 -0.74403435 131 139 119
-0.13879821 -0.60805666 -0.74315161 144 139 118
-0.13928986 -0.60857022 -0.74338406 143 139 118
-0.13984652 -0.60901833 -0.74358284 142 139 117
-0.13874699 -0.60980725 -0.74399894 138 138 117
-0.13869384 -0.60987294 -0.74403232 138 138 117
-0.1393843 -0.60945767 -0.74380982 140 138 117
-0.14120696 -0.60807586 -0.74316674 145 141 118
-0.14210708 -0.60853422 -0.743379 144 141 118
-0.14091772 -0.60905308 -0.74359262 143 140 118
-0.1422945 -0.60929596 -0.74371582 142 141 117
-0.14205283 -0.61078495 -0.74436706 139 139 117
-0.14119908 -0.60878307 -0.74347734 143 141 118
-0.13802773 -0.6111607 -0.74467236 130 137 116
-0.1380122 -0.60770017 -0.7429812 144 140 118
-0.13825275 -0.60838008 -0.74331051 142 139 118
-0.1368314 -0.60785073 -0.74304998 141 139 118
-0.13858002 -0.61047894 -0.74432552 135 137 117
-0.1378966 -0.60856336 -0.74339783 140 139 118
-0.13815317 -0.60893863 -0.74357998 140 138 118
-0.14759809 -0.61149907 -0.74463904 114 140 118
-0.14611001 -0.6120317 -0.74494016 125 138 119
-0.14357379 -0.61172193 -0.74480116 131 139 117
-0.14634982 -0.61137116 -0.74457926 127 138 119
-0.14258283 -0.61312288 -0.74554014 123 139 118
-0.14203638 -0.6127497 -0.7453801 124 139 117
-0.14200281 -0.61189163 -0.74493837 131 139 117
-0.13929453 -0.61133248 -0.74471867 133 137 116
-0.13965179 -0.6121704 -0.74517071 124 137 116
-0.1400107 -0.61155277 -0.74481779 131 138 116
-0.13552548 -0.57136315 -0.73113692 144 141 121
-0.13446157 -0.57112414 -0.73089206 142 141 121
-0.15110232 -0.57293481 -0.73452419 143 140 121
-0.15215366 -0.57269526 -0.73471284 143 139 122
-0.1503396 -0.57372457 -0.73450047 137 143 119
-0.14976847 -0.57449949 -0.73454094 135 145 119
-0.14954828 -0.57352787 -0.73432738 148 140 122
-0.14843144 -0.5758242 -0.7345463 136 147 118
-0.14959261 -0.57512134 -0.7346223 131 147 117
-0.13521874 -0.57282877 -0.73144788 141 143 121
-0.13609608 -0.57444817 -0.73195028 141 142 120
-0.13520217 -0.57455724 -0.73184729 139 142 120
-0.13632309 -0.57540768 -0.73220593 141 142 120
-0.13558024 -0.5757553 -0.73218006 139 142 120
-0.13796957 -0.57599527 -0.73257899 145 142 120
-0.13738723 -0.5748626 -0.73223239 144 142 120
-0.13577162 -0.57263499 -0.7314899 143 142 121
-0.13343136 -0.57235289 -0.73099273 140 141 121
-0.13468482 -0.57316977 -0.73145002 139 143 121
-0.14767909 -0.57767045 -0.73471171 139 147 119
-0.14792395 -0.57758671 -0.73474133 137 147 118
-0.13636796 -0.57945073 -0.73313361 139 138 120
-0.13507245 -0.57853085 -0.73272526 134 139 120
-0.13577564 -0.5777005 -0.73265588 139 140 119
-0.13556576 -0.57966048 -0.73305142 134 138 120
-0.13759117 -0.57698053 -0.73275578 145 141 120
-0.13565037 -0.57641584 -0.73234427 139 141 119
-0.13802485 -0.57644647 -0.73269254 145 141 120
-0.13910045 -0.58304638 -0.73450077 142 139 120
-0.13905546 -0.58304524 -0.73449403 142 139 120
-0.13781857 -0.58356792 -0.73446763 135 139 120
-0.13785216 -0.58376193 -0.7345342 134 139 119
-0.13738695 -0.58160394 -0.73384511 138 139 120
-0.13703452 -0.5802241 -0.73341674 141 138 119
-0.13664107 -0.58077455 -0.73350233 137 138 120
-0.1383262 -0.58254468 -0.7342487 141 138 120
0 0 0 1 0 0 0 1 0 0 0 1 0 0 0 0 0 797 1 0 0
