ply
format ascii 1.0
comment PCL generated
element vertex 895
property float x
property float y
property float z
property uchar red
property uchar green
property uchar blue
element camera 1
property float view_px
property float view_py
property float view_pz
property float x_axisx
property float x_axisy
property float x_axisz
property float y_axisx
property float y_axisy
property float y_axisz
property float z_axisx
property float z_axisy
property float z_axisz
property float focal
property float scalex
property float scaley
property float centerx
property float centery
property int viewportx
property int viewporty
property float k1
property float k2
end_header
-0.13703217 -0.45625168 -0.70262694 155 145 121
-0.13553761 -0.45515031 -0.70058233 156 145 119
-0.13538663 -0.45592177 -0.70072663 155 144 120
-0.13630496 -0.45793033 -0.70251232 154 143 122
-0.13616294 -0.45681024 -0.70191443 155 144 121
-0.1378492 -0.45512268 -0.70305663 156 146 121
-0.13772799 -0.45518404 -0.70295072 156 146 121
-0.13598081 -0.45840403 -0.70228326 157 142 122
-0.13591298 -0.45935601 -0.70259786 159 142 122
-0.13661361 -0.45906499 -0.70327824 155 142 123
-0.13216622 -0.46717516 -0.70321953 180 135 123
-0.12726527 -0.46803063 -0.69975919 147 142 116
-0.12892625 -0.46852151 -0.70116842 169 136 119
-0.12716983 -0.46822831 -0.69976377 147 141 116
-0.12924604 -0.46955541 -0.70185381 174 135 121
-0.1291405 -0.46925285 -0.7016418 173 136 120
-0.12642141 -0.47068956 -0.70022535 139 139 115
-0.12899303 -0.47373259 -0.70314324 175 130 123
-0.12882355 -0.47212109 -0.70248878 171 133 122
-0.12965718 -0.4707213 -0.70267755 181 133 123
-0.12906814 -0.47361541 -0.70316315 176 130 123
-0.12911898 -0.47209111 -0.70270711 176 132 123
-0.12895353 -0.47244236 -0.70269352 174 132 122
-0.12879945 -0.47141597 -0.70224112 171 134 121
-0.12741663 -0.47287413 -0.701617 158 132 119
-0.12791723 -0.47249737 -0.70191038 160 134 119
-0.12796547 -0.47325459 -0.7021783 164 132 120
-0.12708049 -0.47376192 -0.70161182 160 130 120
-0.12527008 -0.47325259 -0.70024955 123 138 115
-0.12633067 -0.47435001 -0.70127726 149 131 120
-0.12693627 -0.47281376 -0.70121068 155 133 119
-0.12601604 -0.47235867 -0.70046914 135 138 116
-0.12560663 -0.4721607 -0.70013958 126 140 115
-0.12495906 -0.47255954 -0.69983244 117 139 115
-0.12475745 -0.47253844 -0.69969195 114 139 114
-0.12820347 -0.47547349 -0.70303249 166 131 121
-0.127621 -0.47611639 -0.70274574 159 134 119
-0.12862949 -0.4756062 -0.70341766 169 131 121
-0.12717876 -0.47473642 -0.70198464 163 128 122
-0.12743112 -0.47775689 -0.70307589 151 139 116
-0.12691517 -0.47738555 -0.70257616 155 134 118
-0.1266986 -0.47614557 -0.70205486 155 131 120
-0.12666804 -0.48096502 -0.7034567 145 134 116
-0.12558661 -0.4801437 -0.70243806 134 136 116
-0.1261017 -0.48081493 -0.70300764 140 134 116
-0.12600914 -0.48020989 -0.70276231 139 135 116
-0.12612708 -0.48191947 -0.70335186 139 132 115
-0.12596619 -0.48223397 -0.70332867 137 132 115
-0.12430736 -0.48059717 -0.70167285 116 136 115
-0.12515303 -0.47921976 -0.7018984 126 136 117
-0.12601948 -0.47886759 -0.70239782 139 136 117
-0.12581955 -0.47878191 -0.70224029 135 136 117
-0.12383748 -0.48121351 -0.70150977 109 136 114
-0.12370254 -0.48385483 -0.70216417 112 137 115
-0.12446766 -0.48452696 -0.70290941 123 136 117
-0.1252339 -0.48359635 -0.70319408 131 133 116
-0.12401954 -0.48287913 -0.7021119 113 135 114
-0.12487491 -0.48361912 -0.70294178 126 134 116
-0.12391326 -0.48454776 -0.70251554 117 137 116
-0.12393922 -0.48569253 -0.70286965 126 136 119
-0.12396646 -0.48555544 -0.70284867 125 136 119
-0.12315987 -0.48493278 -0.70209605 120 133 118
-0.12209357 -0.48553571 -0.70161778 119 134 120
-0.11946923 -0.48624644 -0.70024216 111 138 122
-0.12158214 -0.48500416 -0.70115292 112 136 119
-0.12230439 -0.48477072 -0.70152038 114 134 118
-0.12134785 -0.48528138 -0.7010929 113 136 119
-0.11970144 -0.48627597 -0.70039105 112 138 122
-0.12340172 -0.48915985 -0.7034443 122 140 118
-0.1239413 -0.48769227 -0.70342761 127 139 119
-0.1230852 -0.48869008 -0.70309335 123 138 118
-0.12121074 -0.48905531 -0.7020511 119 141 118
-0.12146654 -0.48887104 -0.70215905 116 141 118
-0.12043563 -0.48914564 -0.70160103 124 140 118
-0.12046921 -0.48972112 -0.70177299 128 140 117
-0.11916418 -0.48963368 -0.70095217 134 138 118
-0.12056919 -0.48793477 -0.70136404 114 141 119
-0.12072062 -0.48636216 -0.70103085 118 136 122
-0.11991443 -0.48659825 -0.70060807 113 138 121
-0.12097953 -0.48752546 -0.70150226 116 139 120
-0.1211365 -0.48677102 -0.70139265 119 137 121
-0.12093195 -0.48807269 -0.70162177 114 141 119
-0.12256955 -0.48744607 -0.70244062 124 136 120
-0.11769011 -0.48885116 -0.69997609 121 140 117
-0.11822315 -0.48779887 -0.69997686 116 139 119
-0.11860831 -0.48858389 -0.7003842 124 139 119
-0.11765736 -0.4886944 -0.69991779 120 140 117
-0.11819862 -0.48700774 -0.6997419 111 139 119
-0.12160448 -0.49325562 -0.70350963 134 138 119
-0.12256022 -0.49089357 -0.70338649 121 141 117
-0.12142196 -0.4922083 -0.70309132 127 141 117
-0.11980597 -0.49405879 -0.70266759 134 140 118
-0.12098819 -0.49099386 -0.70245814 128 140 117
-0.11943591 -0.49036387 -0.70131612 137 138 118
-0.12186693 -0.49141046 -0.70312297 123 142 116
-0.11984987 -0.49256399 -0.70224321 131 141 117
-0.11954859 -0.49318299 -0.70224863 132 141 117
-0.11950742 -0.49042788 -0.70137942 136 138 117
-0.11711216 -0.49075952 -0.70022434 130 139 115
-0.1172774 -0.49048123 -0.70021224 130 139 115
-0.11674512 -0.49186832 -0.70041794 133 137 117
-0.11525593 -0.49201977 -0.69969958 126 139 115
-0.11710404 -0.49195379 -0.70063299 136 136 118
-0.11818885 -0.49073279 -0.70077479 135 138 117
-0.11726233 -0.49353164 -0.70120424 135 137 118
-0.11912937 -0.49123061 -0.70139575 137 138 118
-0.11856306 -0.49258518 -0.7015388 135 139 117
-0.11857535 -0.49114093 -0.70110226 137 137 118
-0.11886509 -0.49099863 -0.70119774 138 138 118
-0.11847267 -0.49234545 -0.70142198 136 138 118
-0.11726746 -0.49262691 -0.70092952 137 136 118
-0.11466618 -0.493774 -0.70004803 130 136 117
-0.1192875 -0.49484622 -0.70261109 131 141 117
-0.1209406 -0.49424195 -0.70340538 137 137 119
-0.11917212 -0.49606958 -0.7029413 128 142 118
-0.11909506 -0.4970046 -0.70320648 126 142 118
-0.11879997 -0.49596548 -0.70272058 130 141 118
-0.11662575 -0.49693823 -0.7019574 131 139 118
-0.11619316 -0.49799368 -0.70208776 130 139 118
-0.11574837 -0.49767783 -0.70176309 132 138 118
-0.11749033 -0.49770823 -0.70263958 128 140 118
-0.11901214 -0.49448055 -0.70234007 133 141 117
-0.1171226 -0.4944832 -0.7014299 134 137 118
-0.11685386 -0.49598986 -0.70176798 133 138 118
-0.11533868 -0.49553239 -0.70089865 134 135 119
-0.11658224 -0.4948684 -0.70128989 134 137 118
-0.11631835 -0.49676922 -0.70175248 133 138 118
-0.11646954 -0.49448371 -0.7011165 135 136 118
-0.11294726 -0.49553204 -0.69984484 124 137 116
-0.11358029 -0.49562213 -0.70014477 128 136 117
-0.1134074 -0.4963125 -0.7002812 127 136 117
-0.11307595 -0.49661675 -0.70022875 125 137 116
-0.11388378 -0.49632201 -0.70049512 129 136 117
-0.11420129 -0.49704 -0.70085841 129 137 118
-0.11508224 -0.49740186 -0.70136076 132 137 118
-0.11248557 -0.49707064 -0.70010793 122 138 116
-0.11594287 -0.50113314 -0.70318973 110 143 117
-0.1170193 -0.49887285 -0.70283973 122 141 118
-0.11686048 -0.50035429 -0.70334113 113 143 117
-0.11826669 -0.49821499 -0.70320261 124 142 118
-0.11750468 -0.49853742 -0.70294982 124 141 118
-0.11606149 -0.50151008 -0.70339644 107 144 116
-0.11582794 -0.5017007 -0.70335621 106 143 117
-0.11295602 -0.50053459 -0.70157671 108 142 116
-0.11247322 -0.50131398 -0.70163465 104 142 115
-0.11181087 -0.50105935 -0.70122916 105 141 115
-0.11308765 -0.50120807 -0.70188546 106 142 116
-0.11271218 -0.50033867 -0.70139003 109 141 116
-0.11229651 -0.50085884 -0.70138466 106 142 115
-0.11477921 -0.50023764 -0.70229137 115 141 118
-0.11223345 -0.49810871 -0.7003234 120 139 116
-0.11512594 -0.50148612 -0.70293784 108 142 118
-0.11460252 -0.49964729 -0.70198005 119 140 117
-0.11322887 -0.49834433 -0.70085728 122 138 116
-0.11473097 -0.49910855 -0.70182431 123 139 118
-0.11016794 -0.5003857 -0.70028853 107 140 116
-0.11102647 -0.49983338 -0.70043123 109 140 115
-0.11009324 -0.50002837 -0.7001276 109 140 116
-0.11111278 -0.50117862 -0.70095879 104 141 115
-0.11044063 -0.50015754 -0.70031452 108 140 115
-0.14747988 -0.45003551 -0.71513224 117 141 118
-0.14736268 -0.44881937 -0.71518618 128 141 118
-0.14653148 -0.45108792 -0.71313012 121 141 119
-0.14698845 -0.44979104 -0.71441066 124 141 118
-0.14662774 -0.44824353 -0.71431088 139 141 119
-0.14635684 -0.45018524 -0.71321636 127 142 118
-0.14517514 -0.45104346 -0.71153468 120 148 117
-0.14611769 -0.44919789 -0.71328741 134 143 119
-0.14764124 -0.45348212 -0.71460438 115 140 121
-0.14769101 -0.45202133 -0.71500361 109 141 118
-0.14750154 -0.45188335 -0.71469241 111 141 118
-0.14688243 -0.45129836 -0.71370411 116 141 118
-0.14692327 -0.45483097 -0.71361417 103 149 117
-0.14738794 -0.45407483 -0.71420527 112 144 119
-0.14659183 -0.45226309 -0.71316385 115 144 118
-0.14689913 -0.45235533 -0.71356028 118 142 119
-0.14604425 -0.45274854 -0.71258229 115 147 116
-0.14616856 -0.45435598 -0.71272355 104 151 115
-0.14527754 -0.454227 -0.71181607 111 151 114
-0.14543253 -0.45324472 -0.71194196 115 149 115
-0.14493598 -0.45446107 -0.71145272 111 152 114
-0.14517595 -0.45376763 -0.71168137 113 151 115
-0.1474261 -0.45547712 -0.71396178 109 147 117
-0.1476928 -0.45613143 -0.71381027 116 147 115
-0.14669932 -0.45564863 -0.71333289 102 153 115
-0.14648536 -0.45823237 -0.71451277 112 153 117
-0.14815244 -0.45750239 -0.71430939 128 145 115
-0.14656267 -0.45858464 -0.71468228 115 152 118
-0.14683542 -0.45699313 -0.71396685 110 152 116
-0.14543822 -0.45865154 -0.71336293 122 149 119
-0.14470421 -0.45809782 -0.71216303 125 147 119
-0.14530836 -0.45748067 -0.71265352 117 149 119
-0.14478905 -0.45852265 -0.71246892 126 147 119
-0.14478372 -0.45777196 -0.71211421 123 147 119
-0.14528082 -0.45786467 -0.71279603 119 148 119
-0.14609787 -0.45669571 -0.7133044 108 152 117
-0.14513446 -0.45683867 -0.71216208 115 149 117
-0.14503416 -0.45579615 -0.71177369 111 152 115
-0.14483854 -0.45677352 -0.71184319 118 149 118
-0.14583069 -0.4556798 -0.71255183 105 152 115
-0.1470754 -0.45928374 -0.71506286 126 149 118
-0.14535731 -0.45928979 -0.7135641 121 150 119
-0.1434985 -0.46073741 -0.71189058 124 148 117
-0.14431851 -0.45963153 -0.71239793 127 147 119
-0.14375919 -0.45941156 -0.71157038 132 145 120
-0.14609209 -0.45937356 -0.71454352 116 152 118
-0.14360785 -0.46175104 -0.71249217 116 151 114
-0.14591652 -0.46008909 -0.71467888 122 151 118
-0.14602749 -0.45974693 -0.71464974 119 151 117
-0.14424342 -0.4626455 -0.7136991 133 145 117
-0.14371353 -0.46220613 -0.71283782 121 149 115
-0.14474979 -0.46177873 -0.71395659 129 148 117
-0.1443225 -0.46458891 -0.71426201 132 143 117
-0.14394604 -0.46395311 -0.71365428 129 145 116
-0.14319824 -0.46372095 -0.7126627 120 148 113
-0.14314574 -0.46382332 -0.71261793 119 148 113
-0.14447179 -0.46508923 -0.71455491 132 142 118
-0.14270006 -0.46563718 -0.71245986 130 144 113
-0.14380559 -0.46623191 -0.7139647 129 141 116
-0.14264812 -0.46549752 -0.71236473 130 143 113
-0.14443438 -0.46674794 -0.71485943 130 140 118
-0.14315957 -0.46615526 -0.7131446 132 142 115
-0.14215779 -0.4658694 -0.71195233 130 144 113
-0.14191581 -0.4660874 -0.71176583 130 144 113
-0.14195269 -0.46458143 -0.7114591 122 149 112
-0.14323513 -0.46730489 -0.71357113 132 141 113
-0.1428944 -0.4672555 -0.71312881 134 141 113
-0.14383401 -0.4683046 -0.71469378 126 143 112
-0.14320709 -0.46828189 -0.71390575 129 143 110
-0.14276242 -0.46876696 -0.71356654 129 144 109
-0.14306565 -0.47056499 -0.71463758 120 149 104
-0.14240643 -0.46932834 -0.71342719 128 145 108
-0.1420608 -0.4701778 -0.71345752 127 146 108
-0.14107707 -0.47007713 -0.71252906 132 143 114
-0.14078993 -0.47058487 -0.71247452 132 143 114
-0.14243472 -0.47012046 -0.71377188 125 147 105
-0.14082764 -0.46961251 -0.71211672 135 141 116
-0.14139368 -0.4673101 -0.71164918 134 143 113
-0.14162496 -0.467507 -0.71196264 136 141 115
-0.13995145 -0.46971413 -0.71134704 136 141 119
-0.14272688 -0.4720161 -0.71475524 125 145 104
-0.14277947 -0.47295037 -0.71513492 126 142 105
-0.13928723 -0.47294295 -0.71174943 130 144 116
-0.13913226 -0.47306257 -0.71164072 130 144 117
-0.13925101 -0.47273943 -0.71166366 130 144 117
-0.1404653 -0.47078636 -0.71225083 133 142 116
-0.14079449 -0.47239316 -0.71297145 125 148 109
-0.13944525 -0.47364852 -0.71208411 127 146 113
-0.1411465 -0.4727411 -0.71342909 126 146 108
-0.14135449 -0.47401461 -0.71406871 129 141 109
-0.14154989 -0.47378442 -0.71418166 128 142 108
-0.13953497 -0.47404879 -0.71229583 127 146 113
-0.14194819 -0.47354445 -0.71449018 128 142 106
-0.14013457 -0.47422722 -0.71294492 128 144 112
-0.13993771 -0.47453204 -0.7128582 129 143 112
-0.14025272 -0.47453436 -0.7131688 129 143 111
-0.14182355 -0.4750092 -0.71485686 134 139 109
-0.14099191 -0.47535354 -0.7141397 135 141 111
-0.14032626 -0.47619909 -0.71373224 140 144 114
-0.13987038 -0.47571114 -0.71314144 137 145 115
-0.13963556 -0.47488028 -0.71266776 130 144 113
-0.14006253 -0.47652251 -0.71356744 142 145 116
-0.13914317 -0.4779301 -0.71306247 135 148 117
-0.13888447 -0.47660977 -0.7124266 131 148 116
-0.13875397 -0.47815546 -0.71274161 131 150 117
-0.13945116 -0.47835356 -0.71348929 139 148 117
-0.13958475 -0.47753793 -0.71338719 140 147 117
-0.13798892 -0.47800872 -0.71197289 132 150 116
-0.13811782 -0.47737905 -0.7119137 131 150 116
-0.13779093 -0.4771094 -0.71152735 132 149 115
-0.13837086 -0.47492427 -0.71144229 129 147 115
-0.14053516 -0.48003671 -0.71493703 154 144 118
-0.14021058 -0.48014712 -0.71463925 151 145 118
-0.13993233 -0.48050737 -0.71444106 149 145 118
-0.14010498 -0.47926643 -0.71434516 148 146 117
-0.13884734 -0.47916758 -0.71307081 136 149 117
-0.13958004 -0.48139939 -0.71426189 151 144 118
-0.13867292 -0.47964704 -0.71297413 138 148 117
-0.13933563 -0.48097911 -0.71392447 147 145 118
-0.13828753 -0.48063529 -0.71282703 145 146 117
-0.13681519 -0.48195246 -0.71181166 155 143 118
-0.13760693 -0.4818379 -0.71246743 153 144 117
-0.13761127 -0.48052242 -0.712228 145 146 117
-0.13839231 -0.48214594 -0.71319586 155 143 117
-0.13710405 -0.48068547 -0.71180958 147 146 117
-0.13729455 -0.47866517 -0.71149892 135 151 116
-0.13743575 -0.47986475 -0.7119236 141 148 117
-0.15488768 -0.43434656 -0.72648942 109 135 120
-0.15448475 -0.43404785 -0.72618967 115 135 122
-0.15394585 -0.4333539 -0.72584039 111 136 121
-0.15561759 -0.44319144 -0.72694355 112 136 118
-0.15491346 -0.44443044 -0.72592729 113 136 120
-0.15526831 -0.44420514 -0.72643399 111 136 119
-0.15496652 -0.44522449 -0.72601891 109 135 119
-0.15519536 -0.44514465 -0.72634691 107 136 118
-0.15500894 -0.44579571 -0.72606927 106 136 119
-0.15487318 -0.44648665 -0.72580212 104 137 120
-0.15530834 -0.44657958 -0.72652483 99 138 117
-0.15365291 -0.44669604 -0.72395152 106 142 121
-0.15305699 -0.44425493 -0.72320044 117 142 121
-0.15357816 -0.44502616 -0.72393161 113 140 121
-0.15331917 -0.44442901 -0.72357446 116 141 121
-0.15436624 -0.44728261 -0.72491109 107 139 122
-0.15466414 -0.44751114 -0.72544026 104 138 121
-0.15472873 -0.44812131 -0.7256304 105 138 121
-0.15492371 -0.45059234 -0.72604847 107 138 121
-0.15430105 -0.44749025 -0.724769 107 139 122
-0.15430605 -0.44978845 -0.72441912 106 141 119
-0.15464547 -0.44924664 -0.72547036 107 139 122
-0.15401885 -0.45020324 -0.72398078 107 141 120
-0.15392755 -0.44968861 -0.72394854 108 141 120
-0.15344076 -0.44961765 -0.72331828 108 142 120
-0.15338886 -0.44997418 -0.72320044 108 142 119
-0.153381 -0.45016003 -0.72316509 108 143 119
-0.15462054 -0.45184949 -0.72517377 106 141 118
-0.15506262 -0.45270273 -0.72653121 107 139 119
-0.15470287 -0.45223406 -0.72545302 106 141 118
-0.15447071 -0.45180216 -0.72474205 105 142 118
-0.15445021 -0.45349783 -0.7245878 103 142 117
-0.15438965 -0.45204267 -0.72446054 105 143 118
-0.15459657 -0.45430607 -0.72507894 103 142 117
-0.15440713 -0.45203868 -0.72452599 105 143 118
-0.15421462 -0.45257193 -0.72394586 103 143 118
-0.15413816 -0.45323685 -0.72377706 102 143 118
-0.15373099 -0.45122603 -0.72346199 109 142 119
-0.15384208 -0.45217955 -0.72348756 106 142 119
-0.15485503 -0.45583352 -0.72633559 114 139 116
-0.15434922 -0.45529217 -0.72420162 102 143 118
-0.1548094 -0.4552803 -0.72591281 107 141 117
-0.15479542 -0.45690557 -0.72660267 127 136 117
-0.12595356 -0.46637973 -0.69825971 138 144 118
-0.12707014 -0.46742329 -0.69938344 144 143 115
-0.12656854 -0.46859002 -0.6994943 139 141 115
-0.1255686 -0.46951735 -0.69918531 125 140 116
-0.12608793 -0.46890286 -0.69929862 132 141 115
-0.12501796 -0.46797934 -0.6982559 122 142 117
-0.12544884 -0.46809739 -0.69854665 124 142 116
-0.1254904 -0.46722922 -0.69831085 131 143 117
-0.12626885 -0.46687526 -0.69866598 138 143 117
-0.11817614 -0.48620424 -0.69950128 108 137 121
-0.11808786 -0.48593032 -0.69937825 107 137 120
-0.11750985 -0.48751062 -0.69950497 113 139 118
-0.11646854 -0.4884232 -0.69918978 117 138 115
-0.1159715 -0.4884592 -0.6989246 118 137 114
-0.11620785 -0.48906994 -0.69923091 120 139 114
-0.11607948 -0.48866886 -0.69904464 118 138 114
-0.11543261 -0.48780507 -0.69844675 115 135 115
-0.1159353 -0.48959056 -0.69923705 122 139 114
-0.1152636 -0.49051195 -0.69918227 123 141 113
-0.11483388 -0.49126157 -0.69925416 123 140 114
-0.11336443 -0.49392596 -0.69954002 124 138 116
-0.11286458 -0.49280807 -0.69890231 119 140 114
-0.1133805 -0.49397838 -0.69956654 124 138 116
-0.11350334 -0.49246818 -0.69907612 121 139 115
-0.11304094 -0.49450421 -0.69958282 123 138 116
-0.10697037 -0.49436653 -0.69711655 107 138 114
-0.10627123 -0.49560958 -0.69727463 108 138 115
-0.14298743 -0.4504883 -0.70923853 126 145 117
-0.1443284 -0.4507778 -0.71065319 124 148 118
-0.14282762 -0.450434 -0.70907593 126 144 117
-0.14258711 -0.45055816 -0.70876914 125 144 117
-0.14458871 -0.45088553 -0.71091229 122 148 117
-0.14334324 -0.45228463 -0.70950985 115 148 115
-0.14389782 -0.45234254 -0.7101351 116 149 115
-0.14387563 -0.45330068 -0.71017808 114 150 115
-0.14348301 -0.45265824 -0.70969284 115 148 115
-0.14380246 -0.45232937 -0.71002734 116 149 115
-0.14265034 -0.4546282 -0.70937645 138 144 121
-0.14300308 -0.45421106 -0.70959306 131 145 119
-0.14350289 -0.45378441 -0.70993513 121 148 116
-0.14280067 -0.45398882 -0.70936996 132 145 120
-0.14240719 -0.45294389 -0.70876342 130 144 119
-0.14226353 -0.45211971 -0.70842743 125 145 118
-0.1421897 -0.4528214 -0.7084955 129 144 118
-0.14200468 -0.45337328 -0.70840806 133 144 119
-0.14155149 -0.45314094 -0.70785648 132 145 119
-0.14084928 -0.4548035 -0.7074312 144 144 122
-0.14368913 -0.45613301 -0.71062052 129 147 119
-0.14390291 -0.45693573 -0.71099395 128 147 119
-0.14368045 -0.45548481 -0.71046126 127 148 118
-0.14290383 -0.45521501 -0.70972461 137 145 121
-0.14319988 -0.45820203 -0.71054637 138 143 122
-0.14340805 -0.4588691 -0.71088779 137 144 122
-0.14312321 -0.45803007 -0.71042824 138 143 122
-0.14129707 -0.45789516 -0.70809799 143 144 120
-0.1414672 -0.45870036 -0.70839357 142 144 120
-0.1422866 -0.45719332 -0.70926327 141 144 122
-0.14231965 -0.45802397 -0.7093901 140 143 122
-0.14249322 -0.45768982 -0.70957273 140 143 122
-0.14154717 -0.45598376 -0.70829594 144 144 122
-0.14118224 -0.45579287 -0.70788378 144 144 122
-0.1420482 -0.45579296 -0.70884609 143 143 122
-0.14273271 -0.46136743 -0.71121556 125 148 116
-0.14309628 -0.46047714 -0.71124339 129 146 118
-0.14238952 -0.46180534 -0.7109766 121 149 115
-0.14071089 -0.45908993 -0.70752925 143 145 119
-0.14143762 -0.46056381 -0.70916671 132 147 116
-0.14165449 -0.46105158 -0.70967901 128 148 115
-0.14223734 -0.46267408 -0.71121001 116 152 112
-0.14172475 -0.46269253 -0.71063447 117 152 113
-0.14036755 -0.4606857 -0.70801491 134 148 119
-0.14047025 -0.46181905 -0.70874906 127 150 118
-0.14074507 -0.46037191 -0.70826745 135 148 118
-0.14143583 -0.46182761 -0.70983779 124 150 115
-0.14131233 -0.46162638 -0.7095893 125 150 115
-0.13925861 -0.46238086 -0.70769542 127 152 122
-0.13991867 -0.46107668 -0.70772445 133 149 120
-0.13868384 -0.46404859 -0.70783675 124 152 120
-0.13880977 -0.46635017 -0.70895547 122 152 114
-0.13919638 -0.46517673 -0.70877868 125 152 117
-0.13980737 -0.46518365 -0.70931506 127 149 117
-0.14164437 -0.46340165 -0.71079099 118 151 113
-0.14049244 -0.46385884 -0.70962155 124 151 116
-0.14211726 -0.46314636 -0.71125275 116 152 112
-0.13976349 -0.46354732 -0.70871872 125 151 119
-0.14186303 -0.46306697 -0.71094573 116 152 113
-0.14135021 -0.46355665 -0.71050274 120 151 113
-0.1411977 -0.46352172 -0.71032202 120 151 114
-0.13740164 -0.46654457 -0.70776033 143 142 118
-0.13803604 -0.46642724 -0.70828819 132 148 116
-0.13851124 -0.46647441 -0.7087428 124 151 114
-0.14045511 -0.46730253 -0.71079522 130 146 113
-0.13964243 -0.46904776 -0.7108019 133 143 118
-0.13951582 -0.4698976 -0.71104008 135 142 120
-0.13971648 -0.46891665 -0.71081275 132 144 117
-0.14051439 -0.467868 -0.71107906 133 144 115
-0.13897108 -0.46895227 -0.71017623 129 145 118
-0.13692476 -0.46919236 -0.70834309 135 152 116
-0.13652544 -0.46991077 -0.70825595 139 151 117
-0.13680449 -0.46925041 -0.70825195 136 152 116
-0.13782746 -0.47009301 -0.70957488 137 145 121
-0.13697712 -0.47014138 -0.70878208 139 149 119
-0.137714 -0.46950197 -0.70922422 134 148 118
-0.13816629 -0.46894261 -0.70942718 131 148 118
-0.13549678 -0.47032326 -0.70744807 145 152 117
-0.13635559 -0.468173 -0.70742947 149 144 118
-0.13685921 -0.46840006 -0.70797414 138 150 116
-0.13929372 -0.47077709 -0.71119505 138 139 123
-0.13583528 -0.47165486 -0.70821834 141 150 117
-0.13597305 -0.47185156 -0.70841146 139 149 117
-0.13747752 -0.47082192 -0.70952767 139 144 122
-0.13601364 -0.47302476 -0.70881397 135 148 115
-0.1370808 -0.47141811 -0.70933467 138 146 120
-0.13569443 -0.47288197 -0.70846492 137 149 115
-0.13732402 -0.47163248 -0.70963329 137 144 120
-0.13680016 -0.47197101 -0.70923811 137 146 119
-0.13865916 -0.47267923 -0.71111995 132 143 120
-0.13717014 -0.47242719 -0.70972008 135 144 118
-0.13605858 -0.47334588 -0.70895475 135 147 115
-0.13589096 -0.47377181 -0.70891196 133 149 113
-0.13819821 -0.47232306 -0.71061629 134 143 120
-0.13593489 -0.47450471 -0.70913607 132 150 112
-0.13759452 -0.47385588 -0.71046174 131 146 116
-0.13405572 -0.47455445 -0.7075308 141 147 112
-0.13696744 -0.47723481 -0.71081024 134 150 115
-0.13636163 -0.47472018 -0.70957547 132 150 112
-0.13797176 -0.47477791 -0.71103531 130 148 115
-0.13705505 -0.47727239 -0.71089911 134 150 115
-0.1354091 -0.47479814 -0.70874274 133 151 111
-0.13628356 -0.47622567 -0.70991945 134 150 114
-0.13756159 -0.47471312 -0.71064967 130 148 114
-0.13504773 -0.47518992 -0.70851934 133 152 111
-0.13627276 -0.47725236 -0.71018165 134 151 114
-0.13498721 -0.4761965 -0.7086764 132 153 111
-0.13605475 -0.47787568 -0.71009952 133 153 113
-0.13377233 -0.47826591 -0.70812923 148 148 113
-0.13306415 -0.47845954 -0.70761943 160 143 115
-0.1337886 -0.47800308 -0.70808518 148 148 113
-0.13430466 -0.47498554 -0.70783097 139 149 112
-0.13550277 -0.47880432 -0.70976281 133 154 112
-0.13544795 -0.4792648 -0.70982593 136 153 112
-0.13606183 -0.47888327 -0.71033853 135 152 114
-0.13532686 -0.47925976 -0.70970434 136 153 112
-0.13593087 -0.48153517 -0.71088576 152 146 116
-0.13547228 -0.48105159 -0.71032685 148 148 115
-0.13498475 -0.48049206 -0.70973033 144 149 115
-0.13527139 -0.4819158 -0.71040195 154 145 118
-0.13426304 -0.48015395 -0.70903236 143 151 114
-0.13253203 -0.48117319 -0.70793802 155 144 117
-0.13411908 -0.47978866 -0.70880944 141 151 113
-0.13437803 -0.48215884 -0.70971268 156 144 118
-0.13318335 -0.48086408 -0.70837158 151 145 116
-0.13328086 -0.47923055 -0.70799398 153 146 115
-0.13315739 -0.47935253 -0.70793092 154 145 115
-0.13325606 -0.47936776 -0.70801187 152 146 115
-0.13348301 -0.47874761 -0.70802057 151 147 114
-0.12375571 -0.50202411 -0.70762748 167 134 121
-0.12348036 -0.50397772 -0.70806921 158 134 121
-0.12326185 -0.50436211 -0.70805651 155 134 121
-0.12361354 -0.50289589 -0.70780957 163 134 121
-0.1239547 -0.50350273 -0.70821011 161 135 121
-0.12397805 -0.50514394 -0.70873702 154 135 121
-0.12362409 -0.50556165 -0.70865035 151 134 121
-0.12280296 -0.50319743 -0.70743138 158 134 121
-0.12192409 -0.50485224 -0.70749921 144 134 121
-0.12327573 -0.50863886 -0.7095536 92 144 116
-0.12412859 -0.50625485 -0.70918018 145 137 120
-0.12340288 -0.50639087 -0.70880228 139 136 120
-0.12329281 -0.50746983 -0.70913398 116 140 118
-0.12424427 -0.5062741 -0.70925546 145 138 120
-0.12242402 -0.50608021 -0.70815134 141 134 120
-0.12239207 -0.50640696 -0.7082479 138 134 120
-0.12270173 -0.50705767 -0.70865208 125 137 119
-0.15203768 -0.44427469 -0.72163433 123 141 120
-0.15174794 -0.4446156 -0.72116524 123 141 120
-0.15199856 -0.44424587 -0.72159117 124 141 120
-0.15188681 -0.44699278 -0.72112113 108 144 120
-0.15275855 -0.44538531 -0.72267705 112 144 120
-0.15223576 -0.44494647 -0.72179222 118 142 120
-0.15291815 -0.44572717 -0.72294009 109 145 120
-0.15234278 -0.44568467 -0.72195107 113 143 120
-0.15174435 -0.44622737 -0.7209022 114 143 120
-0.15238762 -0.4508259 -0.72176194 105 147 117
-0.15312243 -0.44889218 -0.72298408 103 145 119
-0.15278579 -0.44966182 -0.72243923 104 146 118
-0.15089214 -0.45107874 -0.71975112 99 153 113
-0.15195136 -0.45023137 -0.7212618 101 149 116
-0.15303844 -0.44899526 -0.72285962 103 146 119
-0.15098341 -0.45060807 -0.71993273 98 153 113
-0.15109669 -0.44786224 -0.71983099 110 145 119
-0.15079738 -0.44830465 -0.71937466 109 146 117
-0.15143205 -0.44807291 -0.72043628 106 147 118
-0.15101321 -0.44758096 -0.71964985 111 145 119
-0.15100051 -0.4495666 -0.7198922 101 151 115
-0.15096213 -0.45018777 -0.71990883 98 153 113
-0.15183613 -0.45398051 -0.72034168 110 141 118
-0.1533539 -0.45143831 -0.72295147 110 141 119
-0.15276201 -0.45494026 -0.72157997 104 143 118
-0.15221849 -0.45423353 -0.7208733 108 141 118
-0.1520157 -0.45473242 -0.72050214 107 141 118
-0.15323405 -0.45157909 -0.72275388 110 141 119
-0.15240251 -0.45156294 -0.72164536 107 145 117
-0.15196744 -0.45259219 -0.72082907 107 144 117
-0.15200622 -0.45165244 -0.72110021 105 146 116
-0.15163907 -0.45405656 -0.72005206 110 141 118
-0.15234762 -0.45221108 -0.72142112 108 144 117
-0.1521536 -0.45314324 -0.72094637 110 141 118
-0.15295616 -0.45153576 -0.7223841 110 143 118
-0.15319858 -0.45614997 -0.72215503 113 144 118
-0.15167859 -0.45545325 -0.71993393 112 141 118
-0.15269355 -0.45586997 -0.72141814 112 143 118
-0.15145701 -0.45529816 -0.71961325 111 141 118
-0.14927448 -0.46607909 -0.71961123 135 136 120
-0.15017574 -0.46672875 -0.72067618 140 134 122
-0.1498393 -0.46593475 -0.72018003 137 136 121
-0.14920291 -0.46711868 -0.71973795 135 135 121
-0.14942427 -0.46786824 -0.72014296 137 136 120
-0.14915939 -0.46829206 -0.71996129 136 136 121
-0.14777996 -0.47092041 -0.71917504 131 141 118
-0.15668234 -0.43855217 -0.72884262 110 137 120
-0.15704834 -0.43842086 -0.72929549 108 136 122
-0.1571001 -0.43884447 -0.72923225 109 137 121
-0.15658492 -0.43755171 -0.72909546 107 139 120
-0.15601842 -0.43650258 -0.7277509 106 137 119
-0.15624952 -0.43677124 -0.7283532 107 138 119
-0.1558549 -0.43830162 -0.72795403 114 138 118
-0.15592223 -0.436744 -0.72761196 108 136 119
-0.15605862 -0.43711996 -0.72803622 109 137 119
-0.15564223 -0.44351122 -0.72696024 111 136 118
-0.1557329 -0.44379538 -0.72712076 109 136 118
-0.15711485 -0.45107955 -0.729967 94 144 120
-0.15571009 -0.45031005 -0.72755599 102 138 120
-0.15594864 -0.4498128 -0.72788244 98 139 119
-0.15679258 -0.45445961 -0.72958088 104 139 119
-0.15642236 -0.45339003 -0.72897595 100 143 118
-0.1559802 -0.45470008 -0.72830862 105 140 117
-0.15668055 -0.45318905 -0.72937763 99 143 119
-0.15603031 -0.45485631 -0.72839069 106 139 118
-0.15681611 -0.45271343 -0.72958064 97 144 119
-0.15649407 -0.45376834 -0.72909671 102 142 118
-0.15526892 -0.45396647 -0.72713405 106 140 117
-0.15549046 -0.45449471 -0.72753406 105 141 116
-0.15558018 -0.4520539 -0.72751611 105 139 120
-0.15714921 -0.45147645 -0.73005635 95 144 120
-0.15574677 -0.45316947 -0.72786558 103 141 118
-0.15626988 -0.45124933 -0.72859538 101 141 121
-0.15580335 -0.45816785 -0.72967851 121 136 119
-0.15602273 -0.45815369 -0.73041773 111 138 119
-0.15655868 -0.45663303 -0.72979355 119 135 120
-0.15595245 -0.45736057 -0.72887659 129 134 119
-0.15639436 -0.45741758 -0.73050547 111 137 119
-0.15639265 -0.45598307 -0.72913939 117 136 119
-0.15623537 -0.45679399 -0.72904807 127 134 120
-0.15509543 -0.45547789 -0.72700232 112 139 116
-0.15580131 -0.45550591 -0.7281177 112 139 117
-0.15542029 -0.45592827 -0.72759986 117 138 117
-0.15584022 -0.46127594 -0.73076463 142 136 121
-0.15561305 -0.46078891 -0.72999096 134 137 119
-0.15555559 -0.46034694 -0.72985107 127 137 118
-0.15518752 -0.45910084 -0.72884476 130 135 118
-0.15551749 -0.45902991 -0.7300086 116 138 118
-0.14025381 -0.45103693 -0.7062735 126 151 115
-0.13952886 -0.45113581 -0.70557088 127 154 115
-0.13945876 -0.45055732 -0.7056675 133 152 116
-0.14072475 -0.45188013 -0.70679891 127 149 116
-0.14038308 -0.45281824 -0.70664603 134 148 118
-0.13915798 -0.45123094 -0.70522583 128 155 115
-0.14097953 -0.45375425 -0.70736623 138 145 120
-0.1401033 -0.45338562 -0.70648551 138 149 119
-0.1398685 -0.45325735 -0.70624429 138 150 119
-0.13904725 -0.45483845 -0.70459247 151 147 121
-0.13921249 -0.45506492 -0.70481688 152 146 121
-0.13976863 -0.45355925 -0.70606184 140 149 120
-0.14068176 -0.45516559 -0.70724916 146 144 123
-0.14058901 -0.45583415 -0.70713025 146 144 122
-0.13959688 -0.45588747 -0.70549178 149 146 121
-0.14024456 -0.45680732 -0.70661074 147 145 121
-0.13925949 -0.45620993 -0.70495033 151 147 121
-0.14046954 -0.45825574 -0.70705771 145 145 120
-0.1392336 -0.45747668 -0.7054047 152 144 121
-0.13945121 -0.45818144 -0.70589375 151 143 121
-0.13909951 -0.45734212 -0.70521855 153 144 122
-0.13942143 -0.45802286 -0.70580304 151 144 121
-0.13750684 -0.45809788 -0.70386279 154 143 123
-0.13849901 -0.45850623 -0.70505589 157 141 123
-0.13841857 -0.4575561 -0.70460701 155 143 122
-0.13819604 -0.45813093 -0.70459527 156 142 123
-0.13840157 -0.4553678 -0.70374596 155 147 121
-0.13935326 -0.4590039 -0.7061134 152 142 122
-0.13920625 -0.46115646 -0.70701635 137 148 122
-0.13906126 -0.45961171 -0.70611697 150 143 123
-0.1388212 -0.46260425 -0.70733649 127 152 122
-0.13746421 -0.46223488 -0.70572335 143 147 121
-0.13730682 -0.46285126 -0.70585626 139 149 121
-0.1385323 -0.46086663 -0.70618504 143 146 123
-0.13798234 -0.46147081 -0.70589876 144 146 122
-0.13781016 -0.46195701 -0.70595294 141 147 122
-0.13604225 -0.46216246 -0.70419097 158 143 121
-0.13678135 -0.46212056 -0.70494896 151 145 121
-0.13607098 -0.46135262 -0.70383239 159 142 121
-0.13777708 -0.45947367 -0.70471871 157 141 123
-0.13736467 -0.45911184 -0.70411551 155 141 123
-0.13716556 -0.45923576 -0.70396662 155 142 123
-0.13522616 -0.46311855 -0.70380729 160 142 121
-0.13494417 -0.46453252 -0.70427889 165 138 123
-0.13598605 -0.46499509 -0.70562893 154 140 124
-0.13555145 -0.46484309 -0.70508808 159 139 123
-0.13525975 -0.46593642 -0.70537645 163 135 125
-0.13744695 -0.46315023 -0.70616323 138 149 122
-0.13517022 -0.46503606 -0.70479155 163 138 123
-0.13762473 -0.46350291 -0.70654273 136 148 123
-0.13516213 -0.46671605 -0.70567447 166 133 125
-0.13756567 -0.46509215 -0.70726299 140 145 120
-0.13647698 -0.46561033 -0.7064414 151 140 123
-0.1353429 -0.46629423 -0.70565325 163 135 125
-0.13446321 -0.46582258 -0.70453048 169 135 124
-0.13314332 -0.4660711 -0.70351684 172 136 123
-0.13449155 -0.46481472 -0.70400596 167 137 123
-0.1354454 -0.46884039 -0.70680666 154 144 120
-0.13522096 -0.46788868 -0.70620656 160 139 122
-0.13538699 -0.46981579 -0.70713955 149 150 118
-0.13499162 -0.4683491 -0.70616639 159 141 122
-0.1359459 -0.46797538 -0.70695031 154 141 120
-0.13478005 -0.4681237 -0.70587742 160 140 122
-0.13440178 -0.46709561 -0.70513535 172 132 126
-0.13388138 -0.46752968 -0.7048676 175 132 125
-0.13350283 -0.46757415 -0.704557 176 133 125
-0.13295797 -0.46907783 -0.7047168 179 134 124
-0.13421308 -0.46900746 -0.7057541 162 142 121
-0.13334765 -0.46872553 -0.7049045 176 134 125
-0.13464905 -0.46865413 -0.70598072 159 142 121
-0.1344891 -0.46910128 -0.70602667 157 144 120
-0.13428438 -0.47350892 -0.70738959 142 150 113
-0.13422228 -0.47263199 -0.70706564 145 150 114
-0.13372622 -0.47191352 -0.70640934 154 149 116
-0.13272917 -0.47361061 -0.70609844 163 142 117
-0.13376144 -0.47431505 -0.70721042 146 146 113
-0.13321167 -0.47411212 -0.7066735 154 144 115
-0.13253203 -0.47152975 -0.70527387 171 141 120
-0.13313022 -0.47199577 -0.70592725 161 145 117
-0.13153903 -0.47320935 -0.70495468 180 136 121
-0.13239054 -0.4722887 -0.70539051 171 141 119
-0.13291368 -0.47164586 -0.70563424 165 144 119
-0.13203104 -0.47272873 -0.70522255 175 139 120
-0.13219842 -0.4723815 -0.70525634 173 140 120
-0.12987302 -0.47448882 -0.70404601 181 130 123
-0.12927428 -0.47433534 -0.70355457 179 128 124
-0.13145873 -0.47502902 -0.70543045 178 135 120
-0.1322826 -0.47657564 -0.70651221 169 139 117
-0.13111193 -0.47467881 -0.70504797 182 134 120
-0.13232185 -0.47721481 -0.70670074 169 138 118
-0.13162738 -0.47487178 -0.70553708 176 136 119
-0.13261324 -0.47585025 -0.70662022 163 141 116
-0.13112465 -0.47572938 -0.70532399 183 134 120
-0.13168965 -0.47773725 -0.70631093 175 138 117
-0.1314507 -0.47616935 -0.70570642 179 135 119
-0.13091844 -0.47801015 -0.7057482 182 137 117
-0.12953232 -0.47681287 -0.70441234 169 138 117
-0.12982506 -0.47821704 -0.70499307 171 139 116
-0.12828749 -0.47850668 -0.70393813 154 142 114
-0.12939553 -0.47812706 -0.70465386 166 140 115
-0.13031623 -0.47823292 -0.70535827 176 138 116
-0.12909105 -0.47828686 -0.70447165 163 140 115
-0.12909229 -0.4748646 -0.70357281 175 129 123
-0.13163361 -0.48011196 -0.7069239 171 138 118
-0.13185665 -0.48013023 -0.70711243 169 139 117
-0.13087261 -0.48017505 -0.7063154 176 137 117
-0.12756789 -0.47974148 -0.70375878 151 137 115
-0.12805583 -0.47980347 -0.70413506 157 136 116
-0.12779547 -0.48003632 -0.70400965 155 136 116
-0.12911637 -0.4796398 -0.70486635 167 135 116
-0.12825409 -0.48082954 -0.70456362 159 132 116
-0.12744772 -0.48118731 -0.70407259 152 132 116
-0.12835474 -0.4802967 -0.70449048 160 134 116
-0.12790994 -0.48149061 -0.70449442 156 131 115
-0.12976572 -0.48000589 -0.70544589 170 135 116
-0.12902991 -0.48040229 -0.70501381 166 134 116
-0.12791331 -0.4822877 -0.70472425 152 131 116
-0.13080657 -0.4798103 -0.70616132 177 137 117
-0.12684178 -0.48087266 -0.70355016 147 133 116
-0.12926815 -0.4826757 -0.7058391 159 135 118
-0.12928572 -0.48356855 -0.70610809 155 140 118
-0.12865978 -0.48304081 -0.70549297 153 136 117
-0.12865001 -0.48308629 -0.70549881 153 136 117
-0.1276309 -0.48246863 -0.70456672 150 131 116
-0.12612049 -0.48360103 -0.70381016 141 132 117
-0.12591393 -0.48885494 -0.70506775 122 150 111
-0.12380098 -0.48952863 -0.70382315 121 143 116
-0.12504831 -0.48875716 -0.70447123 123 146 115
-0.12518324 -0.49016452 -0.70488679 118 149 109
-0.12641837 -0.48923802 -0.70549083 120 152 108
-0.1253978 -0.48779306 -0.70447558 125 147 116
-0.12436658 -0.48720184 -0.70359439 128 140 119
-0.12461279 -0.48817056 -0.70402724 125 143 117
-0.12373841 -0.48915002 -0.70367807 122 142 117
-0.12758613 -0.49298009 -0.7072295 163 137 117
-0.1270462 -0.49024093 -0.70614213 118 155 103
-0.12736812 -0.493195 -0.7071352 163 136 117
-0.1271639 -0.49079219 -0.70636719 127 151 106
-0.12700199 -0.49327758 -0.70689154 162 136 117
-0.12349162 -0.49056172 -0.70387566 119 143 115
-0.1258529 -0.49117491 -0.70562011 120 152 107
-0.12461853 -0.49185127 -0.7049982 124 146 112
-0.12402406 -0.49253383 -0.70480251 127 143 114
-0.12403043 -0.49109682 -0.70438868 121 144 114
-0.12492 -0.49097127 -0.70494211 120 148 110
-0.12609926 -0.49327075 -0.70631748 153 137 116
-0.12589779 -0.4940882 -0.70640028 163 133 120
-0.12663992 -0.49124405 -0.70613801 128 149 107
-0.12612562 -0.49298933 -0.70626193 149 139 115
-0.12465327 -0.49396008 -0.70558524 148 137 119
-0.12354105 -0.49370995 -0.704822 132 141 116
-0.12588191 -0.49276441 -0.70605111 143 141 114
-0.12170776 -0.49379164 -0.70372701 136 138 119
-0.12235788 -0.49240187 -0.70370781 129 140 118
-0.1224549 -0.49409577 -0.70425802 135 138 118
-0.12688608 -0.49481013 -0.70726377 173 131 121
-0.12554833 -0.49566939 -0.70671052 160 135 119
-0.12546098 -0.4969933 -0.70711219 155 139 118
-0.12652382 -0.49500081 -0.70710069 169 132 120
-0.1248583 -0.49669445 -0.70662516 152 138 118
-0.12673828 -0.49423447 -0.70697355 173 130 121
-0.12407758 -0.49578771 -0.70582497 145 138 118
-0.12419702 -0.49424213 -0.70537889 146 136 119
-0.12321519 -0.49720335 -0.70576024 136 141 117
-0.12332358 -0.49651092 -0.7055949 137 140 118
-0.12412827 -0.49552163 -0.7057671 145 137 119
-0.12098184 -0.49609882 -0.70402992 128 141 118
-0.1215564 -0.49484012 -0.70396441 134 138 119
-0.12068466 -0.49530351 -0.70359743 133 139 119
-0.12298564 -0.49657291 -0.7054047 134 141 117
-0.1228445 -0.49671182 -0.7053659 134 141 117
-0.12097826 -0.49744347 -0.70447969 129 141 118
-0.12247579 -0.4955796 -0.70476025 132 140 118
-0.12195674 -0.49650955 -0.70475876 131 141 118
-0.11948256 -0.49775484 -0.70367682 125 142 119
-0.12201139 -0.4954547 -0.7044363 131 140 118
-0.12343295 -0.50074631 -0.70703006 158 136 120
-0.12457468 -0.4991937 -0.70727086 155 140 118
-0.12456691 -0.4991563 -0.70725423 154 140 118
-0.12329713 -0.49950674 -0.70655543 147 140 118
-0.12312724 -0.50039995 -0.70672852 153 137 119
-0.11986014 -0.49982756 -0.70461577 126 142 117
-0.11988159 -0.49960476 -0.70454687 128 142 118
-0.11951918 -0.5018518 -0.70516032 112 146 114
-0.11953471 -0.49903238 -0.70414549 126 142 118
-0.12043498 -0.5018788 -0.70568126 126 143 115
-0.12097467 -0.50022739 -0.70538294 142 139 119
-0.12075731 -0.50133526 -0.7056638 134 141 117
-0.1225869 -0.50056124 -0.70644951 153 137 119
-0.12263391 -0.49964976 -0.70619172 146 138 119
-0.1200918 -0.49820232 -0.70419395 128 142 118
-0.12189573 -0.49820298 -0.70528919 132 142 117
-0.1228809 -0.49825829 -0.70590454 135 142 117
-0.1224494 -0.49858406 -0.70574492 137 141 118
-0.11874173 -0.49866354 -0.70360774 121 143 118
-0.11790894 -0.49988538 -0.70366728 115 143 117
-0.11767358 -0.49992701 -0.70357388 115 143 117
-0.11869825 -0.50032663 -0.70419139 113 145 116
-0.11775827 -0.50017899 -0.70370442 113 144 117
-0.11891796 -0.4983125 -0.70356148 122 142 119
-0.12287202 -0.50290209 -0.7073741 160 134 121
-0.12163574 -0.5035159 -0.70692527 146 135 120
-0.12051577 -0.50448918 -0.70664918 131 136 119
-0.12239543 -0.50261849 -0.70703703 157 134 120
-0.12008017 -0.50445265 -0.7063933 124 138 118
-0.11972263 -0.50430036 -0.70613998 118 140 117
-0.12177875 -0.50232249 -0.70658869 147 137 119
-0.11938395 -0.5035857 -0.70569843 112 142 116
-0.1194342 -0.50276965 -0.7054382 111 145 115
-0.1205774 -0.50378633 -0.70643538 131 138 118
-0.11803829 -0.50214422 -0.70454454 105 146 114
-0.11592744 -0.50202316 -0.70352882 104 144 116
-0.1180897 -0.50398237 -0.70523018 104 143 115
-0.11883169 -0.50432831 -0.70568609 107 142 115
-0.11877283 -0.50241566 -0.70498383 104 147 113
-0.12078673 -0.5059669 -0.70726442 128 135 120
-0.15040782 -0.44588235 -0.71890426 124 140 119
-0.14990963 -0.44649997 -0.71819133 124 142 119
-0.14821939 -0.44696835 -0.7163527 135 142 119
-0.15018374 -0.446776 -0.71837682 120 143 120
-0.14826518 -0.44715294 -0.71633935 134 143 119
-0.1505481 -0.44845432 -0.71893346 109 147 117
-0.15044686 -0.45038608 -0.71903133 100 153 113
-0.14859033 -0.4504436 -0.71636194 106 143 117
-0.14986382 -0.45107317 -0.71827984 97 152 112
-0.14923936 -0.45055589 -0.7173062 102 147 114
-0.14986975 -0.44814116 -0.71782213 112 144 119
-0.15010245 -0.44805515 -0.7181406 112 145 119
-0.14955671 -0.44886187 -0.7174899 110 144 118
-0.14798728 -0.44742233 -0.71600455 134 143 119
-0.14781202 -0.44789043 -0.71576673 132 142 119
-0.15001692 -0.4474377 -0.71803027 116 144 120
-0.14821185 -0.44873896 -0.71605247 121 142 118
-0.1486913 -0.44918182 -0.71647209 114 142 118
-0.14756989 -0.44849458 -0.71544385 129 142 118
-0.15062049 -0.45340085 -0.71866035 104 146 115
-0.1507865 -0.4544394 -0.71861476 108 142 117
-0.14946601 -0.45420465 -0.7168799 109 143 118
-0.15030307 -0.45462891 -0.71754473 111 140 117
-0.14960165 -0.45390555 -0.71713823 108 144 117
-0.14986372 -0.45503184 -0.71693969 113 139 119
-0.14882898 -0.45368695 -0.71639472 107 145 118
-0.1483421 -0.45344755 -0.71574008 109 142 119
-0.14847609 -0.4512642 -0.71629912 103 145 115
-0.14916284 -0.45201781 -0.71715248 102 148 115
-0.14833184 -0.45418632 -0.71560097 110 142 120
-0.14902894 -0.45232621 -0.71690935 103 147 116
-0.15091552 -0.45538419 -0.71846908 114 140 117
-0.15087055 -0.45564052 -0.71821624 118 139 117
-0.15101141 -0.45535657 -0.71870458 114 139 118
-0.14907929 -0.45587593 -0.71566522 123 139 119
-0.14889796 -0.46161357 -0.7180028 133 145 119
-0.1486727 -0.4608779 -0.71737695 131 146 118
-0.14870366 -0.46673036 -0.71912736 133 135 121
-0.14771093 -0.46628493 -0.71815974 133 137 120
-0.14829017 -0.46642312 -0.71870011 134 135 121
-0.14596926 -0.46593028 -0.71643591 133 140 119
-0.14607149 -0.46645558 -0.71664971 128 140 118
-0.14552525 -0.46627706 -0.71601343 131 140 118
-0.14569288 -0.46650535 -0.71624207 129 140 118
-0.14848723 -0.46723813 -0.71903217 131 136 120
-0.14783715 -0.46834126 -0.71866876 130 138 119
-0.14810486 -0.46847299 -0.71893167 131 138 119
-0.14784782 -0.46990675 -0.71898073 131 140 118
-0.14710449 -0.46941647 -0.71832591 128 140 119
-0.14727925 -0.47061113 -0.71879292 130 140 119
-0.14512098 -0.46959221 -0.71657985 122 145 112
-0.14640096 -0.46742135 -0.71727467 125 140 118
-0.14518231 -0.47014421 -0.71681631 123 144 112
-0.14448355 -0.46963543 -0.71591228 120 146 109
-0.14533445 -0.47022665 -0.71700436 124 144 114
-0.14582056 -0.46893612 -0.71712393 124 142 115
-0.14437872 -0.46943006 -0.71573263 120 146 109
-0.14434633 -0.46812451 -0.71525943 125 143 114
-0.14430881 -0.46883395 -0.71545583 122 145 111
-0.14482974 -0.46845567 -0.71590304 123 144 112
-0.14763077 -0.47078282 -0.71903861 131 141 118
-0.14515822 -0.47167635 -0.71727502 129 140 114
-0.14394952 -0.4713698 -0.71588576 122 145 108
-0.14401875 -0.47115281 -0.71589035 122 146 108
-0.1439783 -0.47193956 -0.71609873 125 143 109
-0.14380637 -0.47135586 -0.7157284 122 146 107
-0.14336504 -0.4732669 -0.71586812 129 139 108
-0.14273 -0.47399223 -0.71542388 131 138 106
-0.14540145 -0.47367266 -0.71809292 134 139 116
-0.14592421 -0.47207662 -0.7181868 131 140 118
-0.14585418 -0.4724088 -0.71820694 132 140 118
-0.14597371 -0.471692 -0.71813124 131 140 118
-0.14544378 -0.47300112 -0.71795076 133 140 116
-0.14376183 -0.47440997 -0.7166211 134 138 111
-0.14455996 -0.47426784 -0.71739888 135 139 114
-0.14107215 -0.47900781 -0.71524805 156 144 117
-0.15842371 -0.4531115 -0.73224157 96 140 121
-0.15784065 -0.45460933 -0.73114693 105 137 121
-0.15796873 -0.45262018 -0.73137665 94 142 120
-0.15857604 -0.4572956 -0.73350853 94 142 118
-0.1580366 -0.45557889 -0.73161751 108 136 122
-0.15790179 -0.45685822 -0.73222625 101 139 119
-0.1564599 -0.45801863 -0.7311424 107 139 119
-0.15708533 -0.45694941 -0.73126936 108 137 120
-0.15752043 -0.45704377 -0.731866 103 139 119
-0.15683609 -0.45725369 -0.73114574 108 138 120
-0.15645343 -0.46003234 -0.73237938 110 143 118
-0.15594143 -0.45965561 -0.73145735 111 141 118
0 0 0 1 0 0 0 1 0 0 0 1 0 0 0 0 0 895 1 0 0
