ply
format ascii 1.0
comment PCL generated
element vertex 968
property float x
property float y
property float z
property uchar red
property uchar green
property uchar blue
element camera 1
property float view_px
property float view_py
property float view_pz
property float x_axisx
property float x_axisy
property float x_axisz
property float y_axisx
property float y_axisy
property float y_axisz
property float z_axisx
property float z_axisy
property float z_axisz
property float focal
property float scalex
property float scaley
property float centerx
property float centery
property int viewportx
property int viewporty
property float k1
property float k2
end_header
-0.0080475286 0.34640378 -0.84769201 54 128 119
-0.0080556311 0.34362543 -0.84779757 55 130 117
-0.0080556069 0.34487298 -0.8477447 55 129 118
-0.0074869306 0.34485316 -0.8470332 51 130 117
-0.0076072905 0.34247023 -0.84728956 53 132 116
-0.0071915081 0.34236223 -0.84678584 53 130 117
-0.0079550911 0.34213963 -0.84773535 55 132 116
-0.0077370289 0.33938885 -0.84793693 59 132 116
-0.0064589977 0.34081176 -0.84610379 53 131 117
-0.0066522723 0.34085026 -0.84633368 54 131 117
-0.0078730751 0.33986309 -0.84801531 59 132 116
-0.0071060779 0.33960554 -0.84712255 56 132 116
-0.0065019531 0.33955091 -0.84634286 56 130 117
-0.0066317846 0.33946413 -0.8465308 56 130 117
-0.0059557478 0.33972085 -0.84557688 56 130 117
-0.0069156387 0.3391442 -0.84695792 58 131 117
-0.0053548571 0.33952963 -0.84483355 54 130 118
-0.005180411 0.33876383 -0.84470993 55 130 118
-0.0057542156 0.33988521 -0.84529221 55 130 117
-0.0048781158 0.33971727 -0.8442359 52 129 118
-0.0070333593 0.33661383 -0.84739667 60 131 117
-0.0065420899 0.33752635 -0.84664071 61 131 117
-0.0072261528 0.3367818 -0.84764361 60 131 117
-0.007120817 0.3377555 -0.84740794 61 131 117
-0.0069324626 0.33461723 -0.84745216 60 131 119
-0.0061402083 0.33679983 -0.84616494 61 131 118
-0.0060370844 0.33400235 -0.84632009 60 131 119
-0.0054967506 0.33632329 -0.84537578 58 132 117
-0.0051965839 0.33552659 -0.84507519 58 132 117
-0.0054458017 0.33602065 -0.84534222 58 132 117
-0.0054188045 0.33679757 -0.84522665 59 132 117
-0.0044183047 0.33492166 -0.84414834 54 133 116
-0.0062321788 0.33394825 -0.84658366 59 132 119
-0.006623778 0.3320387 -0.84716052 54 130 120
-0.006773226 0.33378953 -0.84731114 59 131 119
-0.0064406665 0.33059129 -0.84701413 49 131 119
-0.0068208091 0.330129 -0.84751511 48 130 120
-0.0063693547 0.33022958 -0.84694749 48 131 119
-0.0057822336 0.33013889 -0.84622496 47 132 118
-0.0052429512 0.33085147 -0.84552592 48 132 118
-0.0049322452 0.33079696 -0.84515148 47 132 118
-0.0055757212 0.33107123 -0.84591711 50 132 118
-0.0055080685 0.33330163 -0.84569657 57 132 119
-0.0052189082 0.33341768 -0.84531623 56 132 118
-0.0049744309 0.33287624 -0.8450523 54 133 118
-0.0066582765 0.3289133 -0.8474555 45 131 119
-0.0066754338 0.32931817 -0.84742838 46 131 120
-0.007033953 0.32847911 -0.84797472 45 131 120
-0.0061119501 0.32788843 -0.84684056 43 131 119
-0.0062059383 0.32646617 -0.84707677 40 131 119
-0.0057348842 0.32812893 -0.84629637 42 131 119
-0.0052694627 0.3281157 -0.8456772 40 131 118
-0.0057046274 0.32676661 -0.84635371 38 131 119
-0.005663286 0.3297233 -0.8460899 46 131 118
-0.0048167533 0.32792011 -0.84509051 39 132 117
-0.006457848 0.32597351 -0.84747428 40 131 119
-0.0061987964 0.32552108 -0.84714127 42 131 119
-0.0064678737 0.32311401 -0.8477239 55 128 120
-0.0052595525 0.3243655 -0.84596056 40 130 119
-0.0058551058 0.3248935 -0.84669739 42 130 120
-0.0057799844 0.32251298 -0.84678632 53 127 122
-0.005717312 0.32252568 -0.84670341 52 128 121
-0.0057813101 0.3236742 -0.84669673 48 128 121
-0.006602902 0.32172272 -0.8480072 57 129 120
-0.0062784599 0.32199845 -0.84752673 57 127 121
-0.0061326968 0.32046211 -0.84737939 51 130 120
-0.0060030273 0.31988573 -0.84723639 49 130 120
-0.0054372 0.32104373 -0.84641367 50 129 120
-0.0053931917 0.31942606 -0.84644514 45 131 119
-0.0051915832 0.32109731 -0.84608251 50 128 121
-0.0048700003 0.31851718 -0.84579682 42 132 118
-0.0051654745 0.31987959 -0.84611559 47 130 120
-0.0054598269 0.32217696 -0.84639078 51 127 121
-0.0045284829 0.32008636 -0.84525543 46 129 119
-0.0039123748 0.31914726 -0.84448701 42 130 118
-0.0044566174 0.32156852 -0.84510356 43 130 119
-0.0062401663 0.31779379 -0.84763259 46 132 118
-0.00641684 0.31780121 -0.84787136 46 133 117
-0.005925748 0.31534258 -0.84718466 48 129 121
-0.0063091363 0.31462055 -0.84768182 53 127 121
-0.0052403389 0.31490281 -0.84630185 48 128 121
-0.0055767484 0.3158122 -0.84674084 47 129 121
-0.0054976041 0.3157742 -0.84663934 47 129 121
-0.0051932926 0.31619474 -0.84625465 45 130 120
-0.0055939062 0.31704971 -0.84677517 45 131 119
-0.0057584145 0.31522873 -0.84696722 48 129 121
-0.0039642164 0.31517899 -0.8446728 45 129 121
-0.0039122901 0.31511891 -0.84460485 45 129 121
-0.0042091557 0.31769124 -0.84493899 42 131 118
-0.005039528 0.31730139 -0.84605789 43 131 119
-0.0046534566 0.3165471 -0.84556037 44 130 120
-0.0062197405 0.31401747 -0.84756857 53 127 121
-0.0059073442 0.31283566 -0.84716672 53 125 122
-0.0049365358 0.31285509 -0.84589368 48 128 121
-0.0052529876 0.31230596 -0.84631264 51 126 122
-0.0046433317 0.31095278 -0.84552592 49 126 122
-0.0052782167 0.31314021 -0.84633869 48 128 121
-0.0055607031 0.31223685 -0.84671617 52 126 122
-0.0038385279 0.31285295 -0.84449017 45 128 121
-0.0039755753 0.31267226 -0.84466356 46 128 122
-0.0050214343 0.31366512 -0.84600985 48 128 121
-0.0042877146 0.31309098 -0.84506655 47 127 122
-0.0042261165 0.31323731 -0.8449893 47 127 122
-0.0052568032 0.30918005 -0.84620005 49 126 121
-0.0052742204 0.30883583 -0.84618062 48 127 121
-0.0057357764 0.30873269 -0.84674829 49 127 121
-0.0047268784 0.3103734 -0.84562254 51 125 122
-0.0046636858 0.30988559 -0.84549433 49 126 122
-0.016484205 0.36247227 -0.87068635 38 133 117
-0.01646455 0.36247954 -0.87043697 37 134 117
-0.016177803 0.36231169 -0.86760896 37 134 116
-0.016359529 0.35891744 -0.86910146 57 132 119
-0.016465643 0.35428208 -0.86926365 54 136 115
-0.016498903 0.35494378 -0.86966449 52 136 117
-0.016500015 0.35351732 -0.86974525 53 137 115
-0.016427977 0.35409945 -0.86878335 57 137 115
-0.01634728 0.35666344 -0.86839795 59 133 118
-0.01641915 0.35718057 -0.86920816 54 133 118
-0.016391002 0.35677713 -0.86884737 56 133 118
-0.016386386 0.35487434 -0.86839068 58 135 116
-0.016612409 0.35295647 -0.8714453 44 137 115
-0.016539557 0.35250086 -0.87103832 46 136 115
-0.016273681 0.35114819 -0.86949331 54 135 115
-0.016483525 0.35255197 -0.87064785 48 136 115
-0.01640809 0.35201454 -0.87023914 50 136 115
-0.016548596 0.35306555 -0.87095171 46 137 115
-0.016195523 0.35156688 -0.86828643 59 135 115
-0.016017012 0.35011724 -0.86782372 62 133 115
-0.016033081 0.35020465 -0.8679204 61 133 116
-0.016301403 0.35189968 -0.8692348 55 135 115
-0.016340232 0.35346556 -0.8677364 63 136 114
-0.016363403 0.34769073 -0.87000746 56 132 116
-0.016261812 0.3467209 -0.86905885 63 132 117
-0.016482303 0.34863353 -0.87112433 48 135 113
-0.016423745 0.34683868 -0.87062037 59 129 118
-0.016313778 0.34655496 -0.86956704 63 131 117
-0.016170507 0.34612608 -0.86819673 68 130 118
-0.016271597 0.34912249 -0.86964339 54 134 114
-0.016262282 0.347987 -0.86927009 58 134 115
-0.016081762 0.34743941 -0.86789429 66 131 117
-0.016041312 0.34941733 -0.86815959 61 133 115
-0.016016582 0.34916806 -0.86792356 62 132 115
-0.016474538 0.349509 -0.87112743 45 136 112
-0.016036769 0.34240437 -0.86872256 74 127 121
-0.016227001 0.34274369 -0.87014979 70 128 119
-0.015968887 0.3419008 -0.86833495 75 127 120
-0.016277881 0.34226587 -0.8707124 69 129 118
-0.016401328 0.3431856 -0.87141603 66 129 118
-0.016112294 0.34560272 -0.86770666 71 130 118
-0.016189089 0.34544891 -0.8685382 70 128 119
-0.016288267 0.34463018 -0.86997122 68 127 121
-0.016337112 0.34567958 -0.86983567 67 127 120
-0.016396271 0.34509125 -0.87074846 66 126 121
-0.016094228 0.34134445 -0.86934394 78 128 119
-0.015946807 0.34114176 -0.86813837 83 127 120
-0.01594403 0.34071624 -0.86808252 89 127 120
-0.016218279 0.34070432 -0.87029481 84 128 117
-0.015931547 0.36161512 -0.87629294 34 133 113
-0.015728842 0.36236078 -0.87829596 47 131 112
-0.015946383 0.36143979 -0.87606859 32 133 113
-0.015648121 0.36156905 -0.87839228 43 132 111
-0.016067244 0.36214921 -0.87566215 30 135 113
-0.01609502 0.36379004 -0.87656981 40 133 112
-0.016070245 0.36357236 -0.87659597 40 133 112
-0.016125506 0.36252376 -0.87550855 29 134 113
-0.016295267 0.36457083 -0.87570184 30 137 110
-0.016357072 0.35756958 -0.87578177 38 129 117
-0.015977211 0.35913211 -0.877527 40 131 113
-0.015761061 0.35991392 -0.87868023 41 133 111
-0.015910363 0.35943758 -0.87778866 41 131 112
-0.015915059 0.35883889 -0.87863135 37 134 111
-0.016097238 0.35973302 -0.87605041 35 132 114
-0.015985521 0.35973412 -0.87688881 39 130 114
-0.016123179 0.35924619 -0.8762179 36 132 114
-0.016285243 0.35866928 -0.87542993 35 130 116
-0.016001608 0.3607882 -0.87598348 32 132 114
-0.016288137 0.354426 -0.87783033 28 138 113
-0.016554628 0.35405883 -0.87604415 27 140 113
-0.016591147 0.35386646 -0.87580627 27 139 113
-0.016251376 0.35489026 -0.87805665 29 136 113
-0.016314499 0.35419363 -0.87766314 28 136 113
-0.016393101 0.35663235 -0.87613809 34 132 115
-0.016567115 0.35482639 -0.87546653 30 137 114
-0.016198352 0.35732102 -0.87777191 33 134 112
-0.016309179 0.35588682 -0.8775323 29 137 111
-0.016354853 0.35556173 -0.87725741 29 139 111
-0.016450513 0.3549372 -0.87664437 29 137 113
-0.016108509 0.35318398 -0.87904042 29 135 114
-0.016069856 0.35243613 -0.87885261 31 135 115
-0.016307371 0.35060239 -0.87718463 30 136 114
-0.015765643 0.35049444 -0.87910563 43 133 118
-0.016219182 0.35111043 -0.8777281 31 135 115
-0.016652586 0.35214305 -0.87546921 26 138 113
-0.016517555 0.35074759 -0.87644613 25 137 112
-0.01617898 0.35339579 -0.8786189 29 134 115
-0.016482843 0.35105571 -0.87666726 25 137 112
-0.016621249 0.3514075 -0.87571448 24 140 112
-0.015717108 0.34825391 -0.87897784 50 131 118
-0.016094621 0.34635371 -0.87713575 42 131 116
-0.016273515 0.34582895 -0.87615758 37 131 115
-0.015945002 0.34724766 -0.87782639 45 131 117
-0.016004663 0.34756595 -0.87736195 41 131 117
-0.015666759 0.3484132 -0.87924993 51 131 119
-0.015985463 0.34875312 -0.87769532 41 132 118
-0.016156578 0.34702474 -0.87662333 38 131 117
-0.016422544 0.34950292 -0.87630254 29 136 114
-0.016374743 0.34769338 -0.87600482 31 135 114
-0.016325697 0.34689337 -0.87597466 33 133 114
-0.016018692 0.34862071 -0.87754005 40 133 117
-0.015907656 0.34226206 -0.87831008 65 132 111
-0.016247442 0.34226492 -0.87594438 63 129 117
-0.016051799 0.34332746 -0.87733686 61 129 115
-0.015921615 0.34244812 -0.87821817 64 132 112
-0.015784377 0.34447592 -0.87923151 60 130 113
-0.015936792 0.34467256 -0.87818468 58 129 115
-0.016152287 0.34529346 -0.87690526 45 131 115
-0.016301643 0.34267256 -0.8756451 58 129 117
-0.016116204 0.3444187 -0.87702519 53 129 116
-0.016264206 0.34247041 -0.8758558 61 129 116
-0.016088432 0.3454445 -0.87732536 46 131 115
-0.015860036 0.33826062 -0.87760395 62 138 115
-0.016139861 0.33793491 -0.87563866 80 136 116
-0.015738623 0.33911982 -0.87867016 56 137 114
-0.015996061 0.33809823 -0.87664741 71 136 116
-0.016062062 0.33810815 -0.87620968 75 136 116
-0.016250717 0.34096804 -0.87568653 68 130 116
-0.016017519 0.33953249 -0.87692636 75 135 113
-0.016114604 0.34160411 -0.87680435 66 131 114
-0.016301183 0.34161237 -0.87550747 65 130 117
-0.01615943 0.33927178 -0.87586862 76 134 116
-0.015724447 0.3356427 -0.87781018 58 138 117
-0.015676934 0.33493489 -0.87801564 56 139 116
-0.015572479 0.33452246 -0.87871087 50 142 116
-0.015754459 0.33484846 -0.87741601 61 138 116
-0.015626652 0.33497679 -0.87840152 53 140 116
-0.015715886 0.33448988 -0.8776288 60 139 117
-0.016013719 0.33764371 -0.87639391 72 136 117
-0.015819466 0.33716482 -0.87754774 59 138 116
-0.015846305 0.33756459 -0.87748808 61 138 116
-0.016148197 0.33750305 -0.87545395 81 135 116
-0.015824897 0.33744109 -0.87759411 59 138 116
-0.015807036 0.33143583 -0.87759084 61 137 114
-0.01585749 0.33106554 -0.8771553 65 135 114
-0.015747467 0.33194774 -0.87750709 61 138 114
-0.015777316 0.33154345 -0.87873143 48 137 115
-0.015620287 0.3328481 -0.87886912 48 140 116
-0.015927527 0.33157986 -0.87593895 77 135 114
-0.015839739 0.33130613 -0.87659764 71 137 113
-0.015623481 0.33364055 -0.87821448 55 140 116
-0.015901828 0.33211136 -0.87613058 74 135 115
-0.015912075 0.33279791 -0.8760525 74 135 115
-0.016090659 0.32681933 -0.87689626 82 128 117
-0.016093688 0.32644323 -0.87733936 77 129 117
-0.016046539 0.32678893 -0.8792122 48 134 118
-0.016077746 0.32619038 -0.8785612 59 132 117
-0.016090937 0.32701313 -0.8765735 87 127 117
-0.016095936 0.32726309 -0.87574363 95 126 116
-0.015978966 0.32982627 -0.87747824 61 133 115
-0.016064866 0.32770553 -0.8767758 82 128 116
-0.016061535 0.32773855 -0.876921 80 127 117
-0.015986474 0.32932827 -0.87816596 56 132 116
-0.016245941 0.32415932 -0.87856388 78 131 116
-0.016233176 0.32429498 -0.87861997 76 131 116
-0.016237579 0.32394776 -0.87885201 76 132 116
-0.016135825 0.32571313 -0.87840718 66 132 118
-0.016147824 0.31900162 -0.87904251 95 131 118
-0.016122749 0.31876397 -0.87871546 99 131 119
-0.016191902 0.32072434 -0.8782118 99 130 116
-0.016077273 0.31461364 -0.87762791 103 131 118
-0.016100826 0.31543377 -0.87900937 88 131 119
-0.015966842 0.31328264 -0.87885571 93 130 118
-0.015972812 0.31334567 -0.87871885 93 130 118
-0.016008273 0.31380677 -0.87749243 103 131 118
-0.016008316 0.31379285 -0.87761402 101 131 118
-0.015579833 0.30468979 -0.87734866 87 131 119
-0.015546768 0.30447641 -0.87746447 88 130 119
-0.015594983 0.30549729 -0.87805623 83 132 120
-0.015581142 0.30471236 -0.87722558 89 131 119
-0.014586782 0.35466969 -0.85922366 58 131 116
-0.014473083 0.35372034 -0.85874921 64 131 116
-0.014481395 0.35416588 -0.85880172 61 131 116
-0.014719761 0.35295376 -0.85971528 67 130 116
-0.014556704 0.35244125 -0.85923094 66 130 116
-0.014384625 0.35159355 -0.85877568 66 130 116
-0.014620817 0.35163552 -0.85960501 68 130 116
-0.014143023 0.35326543 -0.85761476 64 131 116
-0.013834303 0.35200956 -0.8566615 63 131 117
-0.014105576 0.35089371 -0.85783452 65 131 117
-0.013887458 0.35030127 -0.85699737 64 131 118
-0.013788231 0.35233057 -0.85645294 63 130 117
-0.013875442 0.35036686 -0.8569442 64 131 118
-0.014036947 0.347859 -0.85791659 67 130 119
-0.014401066 0.3481639 -0.85933793 70 130 118
-0.014488994 0.34893292 -0.85957497 70 131 118
-0.01432064 0.34842697 -0.8589735 69 130 119
-0.014142444 0.34947479 -0.85809505 66 130 118
-0.013861066 0.34593466 -0.85764164 66 131 121
-0.014251428 0.34611973 -0.85906988 70 130 121
-0.014056316 0.34643641 -0.85827214 68 131 120
-0.013878868 0.34603527 -0.85768789 66 131 121
-0.013479042 0.34672746 -0.85638708 63 131 121
-0.014287338 0.34429637 -0.85933489 69 131 120
-0.013932743 0.34483209 -0.85798603 66 132 122
-0.014173789 0.3446663 -0.85889667 68 131 121
-0.01436322 0.34260947 -0.85967344 68 131 121
-0.013716549 0.34227332 -0.85663807 61 133 121
-0.013857049 0.34411055 -0.85761356 65 131 121
-0.013724986 0.34255975 -0.85672522 61 133 121
-0.013842502 0.34232184 -0.85725349 63 133 121
-0.013900777 0.34251341 -0.85756564 63 133 121
-0.013427812 0.34561825 -0.85648227 64 131 122
-0.013399536 0.34513038 -0.85634845 63 132 121
-0.014053143 0.33973035 -0.85865158 63 131 120
-0.014178777 0.34117588 -0.85893095 65 132 120
-0.014261098 0.34073117 -0.85942852 66 132 120
-0.014026325 0.3403179 -0.85838944 63 131 120
-0.014341679 0.34141162 -0.85966343 67 131 121
-0.013860396 0.33835489 -0.85840052 60 131 119
-0.013892907 0.33817205 -0.8585881 60 131 119
-0.012809233 0.3384394 -0.85629994 56 132 119
-0.012778934 0.33846939 -0.85623831 56 132 120
-0.013607712 0.34149587 -0.85636324 59 134 121
-0.013079859 0.33828521 -0.85680461 56 132 119
-0.013294495 0.34111834 -0.85595673 59 134 120
-0.013870752 0.33716375 -0.85872817 68 130 118
-0.014119028 0.33707345 -0.85960668 73 129 118
-0.013937747 0.33756655 -0.8589046 64 131 118
-0.013431614 0.33521318 -0.85782784 81 128 118
-0.012620937 0.33414376 -0.85642725 76 130 118
-0.013470821 0.3346211 -0.85798049 89 128 118
-0.013544265 0.335614 -0.85798925 79 129 118
-0.012458413 0.33449444 -0.85608017 70 130 118
-0.013033247 0.33644092 -0.85694432 62 131 119
-0.012840383 0.33745715 -0.85659015 58 132 119
-0.01238081 0.33375388 -0.85598087 74 130 119
-0.012914047 0.33236426 -0.85692924 89 129 117
-0.013259608 0.33395326 -0.85766137 91 128 118
-0.012660374 0.33233914 -0.85644567 85 130 117
-0.015348482 0.35746586 -0.86261529 59 132 116
-0.0155964 0.36001828 -0.86352152 56 132 118
-0.015373362 0.35540044 -0.86263096 66 131 116
-0.015440607 0.35619235 -0.86293232 66 131 116
-0.015453017 0.35558859 -0.86300623 66 132 116
-0.01492713 0.3540915 -0.86053473 66 130 116
-0.015503122 0.35595655 -0.86323625 66 132 116
-0.015483821 0.35575938 -0.86314899 66 132 116
-0.014897324 0.35529003 -0.86051369 60 131 116
-0.014995745 0.35499328 -0.86089152 64 131 116
-0.015349917 0.35694644 -0.86257273 62 131 117
-0.015258974 0.35659888 -0.86215746 62 131 116
-0.014958832 0.35538265 -0.8607794 61 131 116
-0.015375452 0.35053387 -0.86344892 71 131 117
-0.01542887 0.35144731 -0.86346978 69 132 116
-0.015511441 0.35223633 -0.86366343 68 132 116
-0.015479081 0.3516126 -0.8636691 69 132 117
-0.014865138 0.34972152 -0.86119866 70 131 117
-0.014691801 0.3514446 -0.85993469 68 131 116
-0.015267093 0.35231131 -0.86246574 67 132 116
-0.01490728 0.35287738 -0.86061078 66 132 116
-0.014831698 0.35217956 -0.8604216 68 130 116
-0.015214225 0.35234419 -0.86220551 67 132 116
-0.014944702 0.34731129 -0.86188209 72 130 119
-0.01498003 0.34696689 -0.86198419 73 130 119
-0.014515972 0.34601527 -0.86017287 72 130 120
-0.015297772 0.34765935 -0.8632279 73 131 118
-0.015339225 0.34596053 -0.86323655 74 131 118
-0.014966163 0.34897599 -0.86183065 71 131 118
-0.014819683 0.34855542 -0.86120111 71 131 118
-0.014809753 0.3492462 -0.86102706 71 130 118
-0.014760834 0.34748638 -0.86111265 72 130 119
-0.014831974 0.34911624 -0.86115795 71 130 118
-0.014688009 0.3420611 -0.8611595 69 131 120
-0.014763491 0.34232789 -0.86143422 69 130 120
-0.015133191 0.34450513 -0.8624872 72 132 119
-0.015075617 0.342664 -0.86282825 70 129 119
-0.015271891 0.34416068 -0.86327273 73 130 119
-0.01517726 0.34254774 -0.86335808 70 129 119
-0.014572318 0.34552196 -0.86036175 72 130 121
-0.014525861 0.343187 -0.86026216 69 131 120
-0.014825071 0.34407979 -0.86134923 71 131 119
-0.014411966 0.34354737 -0.85982633 69 131 121
-0.014404697 0.34259298 -0.85982925 69 132 121
-0.014881579 0.33873299 -0.86261326 79 131 117
-0.01487679 0.33838758 -0.8626219 82 131 117
-0.014913713 0.33989614 -0.86265254 73 129 119
-0.01508688 0.33878663 -0.86348516 85 132 117
-0.015068611 0.33906448 -0.86338377 83 132 117
-0.014787574 0.34043133 -0.86203796 68 129 119
-0.014588294 0.34103605 -0.86093897 68 130 120
-0.014283177 0.33831176 -0.86008209 65 130 118
-0.01460194 0.34097779 -0.86101806 67 130 119
-0.015088485 0.34147862 -0.86325389 69 128 119
-0.014308885 0.3366845 -0.86044896 83 129 118
-0.01444699 0.33677384 -0.86102301 87 129 117
-0.014482505 0.35873148 -0.88361651 68 136 114
-0.014955864 0.35795546 -0.88328248 60 138 111
-0.014286518 0.35651311 -0.8836633 33 140 111
-0.014280502 0.35704225 -0.88378209 34 140 112
-0.01408645 0.35706413 -0.88394409 30 138 113
-0.014255407 0.35201743 -0.88329297 58 138 108
-0.014172507 0.3507843 -0.88358623 94 133 113
-0.013699644 0.34763518 -0.88486844 171 125 117
-0.0141868 0.34787425 -0.88423377 146 126 117
-0.014713607 0.34778482 -0.8834154 145 127 117
-0.014745696 0.34727013 -0.88344753 157 127 117
-0.0141312 0.34642693 -0.88457453 179 125 117
-0.014406184 0.3481378 -0.88385302 137 127 117
-0.014072337 0.3433446 -0.88404518 110 129 120
-0.014368363 0.34518805 -0.88414848 177 125 118
-0.014344463 0.34548697 -0.88428098 187 125 118
-0.013938796 0.34444231 -0.88460565 152 126 119
-0.014318424 0.34239787 -0.88368791 91 130 122
-0.014604366 0.34268841 -0.88346106 109 129 121
-0.013989458 0.34050852 -0.88383687 84 130 119
-0.013966207 0.34167323 -0.88394809 64 132 122
-0.014567538 0.3388097 -0.88327348 118 129 113
-0.014596179 0.33925757 -0.88327563 115 129 114
-0.013845382 0.33491009 -0.88381797 76 130 114
-0.014554637 0.33401224 -0.88323158 73 131 112
-0.014159169 0.33330059 -0.88427925 68 130 114
-0.014156064 0.3306663 -0.88699126 82 125 117
-0.014180012 0.33246624 -0.88513416 69 128 115
-0.014773038 0.33198819 -0.88461453 81 129 114
-0.015120068 0.33035553 -0.88496727 76 128 116
-0.014902977 0.33261031 -0.88341004 68 130 114
-0.01488657 0.33197966 -0.8841604 75 130 114
-0.014713666 0.33274251 -0.88403946 78 130 113
-0.014334508 0.32889017 -0.88669825 112 125 117
-0.014755066 0.32816216 -0.88554919 102 128 118
-0.014076834 0.32634291 -0.88516349 118 127 120
-0.014021584 0.32618093 -0.88512176 119 127 120
-0.014322612 0.32686406 -0.88519973 112 127 119
-0.01507083 0.32912615 -0.88519245 87 128 117
-0.015121079 0.32772365 -0.88457996 92 129 119
-0.01530515 0.32996663 -0.88448018 69 128 116
-0.0155716 0.32972616 -0.88332283 54 130 117
-0.015329416 0.32668617 -0.88342822 86 132 119
-0.015398609 0.32869363 -0.88372898 70 130 117
-0.012216685 0.32909214 -0.88627034 103 122 119
-0.012280303 0.32895136 -0.88625574 109 122 119
-0.011929958 0.32846677 -0.88557446 109 122 120
-0.013087794 0.32800144 -0.88637477 119 123 118
-0.010869921 0.32939792 -0.88520908 98 121 120
-0.011799706 0.32846519 -0.8854453 108 122 120
-0.011161469 0.32732433 -0.88692045 72 127 122
-0.010566824 0.32769537 -0.88698959 41 129 124
-0.010496341 0.32834765 -0.88620156 66 125 122
-0.012097536 0.32747397 -0.88565582 114 124 120
-0.010886232 0.32880741 -0.88514805 100 121 121
-0.01213188 0.32767084 -0.88529098 112 124 120
-0.012577282 0.32662219 -0.88637984 122 125 120
-0.014086061 0.32554674 -0.88493729 120 126 120
-0.013864798 0.32387912 -0.88502991 129 122 119
-0.014358342 0.32486853 -0.88445276 115 126 119
-0.014001128 0.32488504 -0.88496989 123 124 119
-0.01472996 0.32344601 -0.88388097 115 123 119
-0.014144083 0.32228798 -0.88454306 131 119 119
-0.014053902 0.32305667 -0.88465786 128 121 119
-0.014029447 0.32033798 -0.88453972 84 133 113
-0.013736132 0.32202756 -0.88499802 131 121 117
-0.013889514 0.32145962 -0.88478053 115 125 116
-0.013773807 0.3193104 -0.88476318 60 140 109
-0.014460642 0.31849235 -0.8839649 58 144 108
-0.015103469 0.32008842 -0.88333178 90 131 114
-0.014911312 0.32004765 -0.88353831 85 132 113
-0.014243787 0.31824186 -0.88419449 53 145 108
-0.014386293 0.31699011 -0.88403946 73 137 111
-0.014081281 0.31818235 -0.88437051 50 145 108
-0.01445913 0.31634411 -0.88395816 81 134 112
-0.014299433 0.31460202 -0.88411474 84 127 114
-0.014797914 0.31392333 -0.88346428 85 127 114
-0.013829615 0.31399569 -0.88455594 90 127 114
-0.013793151 0.33040398 -0.93509358 77 140 115
-0.014134017 0.3300373 -0.93464333 68 149 111
-0.010948475 0.35030985 -0.85179234 54 130 117
-0.010747498 0.34670985 -0.8514325 61 130 118
-0.010799722 0.34719047 -0.85152566 61 130 118
-0.010403548 0.34819639 -0.85083151 59 130 117
-0.010536138 0.34640676 -0.85108334 61 130 117
-0.0098042218 0.34724966 -0.84983659 61 129 117
-0.010061575 0.34643039 -0.85028797 62 129 118
-0.0098021468 0.34770447 -0.84982187 61 129 117
-0.0087907016 0.34616011 -0.84860575 59 127 119
-0.0094419084 0.34754449 -0.84936851 60 129 118
-0.0092750927 0.34650916 -0.84919 60 129 118
-0.0089777801 0.34827277 -0.8487891 56 128 118
-0.0083807083 0.34647575 -0.84810132 56 127 119
-0.0089433808 0.34824267 -0.84874827 55 130 117
-0.01004989 0.34468549 -0.85040557 63 129 118
-0.010861874 0.34492731 -0.85173714 62 131 118
-0.01057139 0.34298474 -0.85147804 63 130 118
-0.010443795 0.34518003 -0.8510074 62 130 118
-0.010615512 0.34211645 -0.85164011 63 130 118
-0.009808328 0.34477895 -0.84995461 63 129 118
-0.010012112 0.34366637 -0.85041112 63 129 117
-0.009716304 0.3446033 -0.84982401 63 129 118
-0.0093533378 0.34290454 -0.84947312 61 130 117
-0.0093254661 0.34453782 -0.84932202 62 129 118
-0.0084123313 0.34348556 -0.84824568 58 130 117
-0.0089364368 0.34450758 -0.84884495 60 129 118
-0.008621023 0.34287688 -0.8485263 58 131 116
-0.0087404978 0.34374958 -0.84863645 59 130 117
-0.010045815 0.34054536 -0.8508634 62 131 117
-0.01039525 0.34056726 -0.85150743 62 131 118
-0.010349858 0.33887354 -0.85177243 61 133 117
-0.0098315384 0.3401584 -0.8505463 61 131 117
-0.0098941289 0.33902928 -0.85089576 61 132 116
-0.0095061418 0.34006509 -0.85010284 61 131 117
-0.0095241014 0.3399449 -0.8501513 61 131 117
-0.0087591028 0.33976841 -0.84918278 61 131 117
-0.008092097 0.33810186 -0.84865123 61 132 116
-0.0096137756 0.33807534 -0.85065585 61 133 116
-0.0080959341 0.33978093 -0.84831864 60 132 116
-0.0082647642 0.34045556 -0.84840447 59 132 116
-0.0086708907 0.34130406 -0.84876364 60 131 116
-0.0083640153 0.34080553 -0.84846413 59 132 116
-0.01004148 0.33593073 -0.85153872 53 133 117
-0.010145828 0.33593741 -0.85173148 53 133 117
-0.0099646784 0.33407357 -0.85153466 47 133 120
-0.0090882126 0.33501813 -0.85023463 54 132 118
-0.0082939994 0.3344014 -0.84925866 56 132 119
-0.0094928714 0.33610383 -0.85067487 56 132 118
-0.009439053 0.33588761 -0.85062164 55 133 117
-0.0088171028 0.33616826 -0.84980088 59 131 118
-0.0085310992 0.33709887 -0.84934378 61 132 117
-0.0081538484 0.33629116 -0.84892178 60 131 118
-0.0091040032 0.3372483 -0.85008281 61 133 117
-0.0088488068 0.33783782 -0.84969383 61 133 116
-0.0080403043 0.33560336 -0.84883523 60 131 119
-0.0099141449 0.33332318 -0.85146844 46 132 119
-0.0097983647 0.3335886 -0.85125196 47 133 120
-0.0096359421 0.3319858 -0.85105938 43 131 120
-0.0086393431 0.3303307 -0.84982145 43 131 120
-0.0084673911 0.33071563 -0.84959364 44 131 120
-0.0091310861 0.33196098 -0.85041499 45 132 119
-0.0085148625 0.33017516 -0.84966582 43 131 120
-0.0082433727 0.33272895 -0.84925836 51 131 120
-0.0073894914 0.3326728 -0.84816152 55 130 121
-0.0073766499 0.33240858 -0.84815216 54 130 120
-0.008497227 0.33237666 -0.84959441 48 132 120
-0.0074821287 0.3337343 -0.848252 58 131 120
-0.0093697542 0.33389813 -0.85067564 49 132 119
-0.0099324472 0.32874 -0.85191792 48 129 119
-0.0095254527 0.32828102 -0.85140586 48 130 119
-0.0091636442 0.32727811 -0.85119325 55 130 119
-0.0092601553 0.32925618 -0.85082436 44 130 119
-0.007769559 0.32921818 -0.8489297 50 129 121
-0.0090509485 0.32786602 -0.85090297 52 130 120
-0.0088450927 0.32755759 -0.85071677 54 130 120
-0.0070981965 0.32786924 -0.84814173 45 131 120
-0.0077445055 0.32776508 -0.84910083 49 130 120
-0.0071665389 0.32755789 -0.84828538 45 131 120
-0.0076323561 0.3270382 -0.8490392 48 129 120
-0.0082415445 0.32676518 -0.84996778 51 131 119
-0.007850891 0.32851481 -0.84915084 50 130 120
-0.0075287209 0.32935208 -0.84856224 48 130 121
-0.0089351153 0.32367274 -0.85113662 57 130 118
-0.0092896046 0.32258821 -0.8516171 56 131 117
-0.0076201516 0.32271761 -0.84936285 58 129 120
-0.0089517022 0.3245005 -0.85115755 58 129 119
-0.0084714694 0.32446581 -0.85050923 58 129 120
-0.0080871349 0.32391569 -0.84999126 58 129 120
-0.0090220636 0.32329115 -0.85125464 56 131 118
-0.0085863741 0.32543603 -0.85061711 57 129 120
-0.0071193618 0.32485303 -0.84852248 51 129 120
-0.0070300489 0.32408929 -0.8484562 53 129 120
-0.0084479945 0.32515067 -0.85043889 57 129 120
-0.0079119736 0.32564792 -0.84961379 51 130 119
-0.0074583986 0.32459167 -0.84903985 54 129 120
-0.0075865709 0.32435456 -0.8492471 55 129 120
-0.0092875082 0.32192686 -0.85162777 54 133 116
-0.0090429531 0.32121077 -0.85134423 54 133 116
-0.0094321324 0.32145131 -0.85187477 55 133 116
-0.0085780295 0.31842372 -0.85093081 57 132 115
-0.0085877245 0.31962019 -0.85083908 54 132 116
-0.0093122246 0.32115766 -0.85173064 55 133 116
-0.0080081262 0.31919289 -0.85005498 52 133 116
-0.0070327949 0.32155234 -0.84859651 57 129 119
-0.0087773111 0.32177424 -0.85094386 54 131 117
-0.0069881468 0.32120392 -0.84854883 55 130 119
-0.007495393 0.32025075 -0.84926832 51 132 117
-0.0066086408 0.32043692 -0.8480643 54 130 120
-0.0081139421 0.32065791 -0.85008872 52 132 117
-0.0085619194 0.31679687 -0.85088181 61 130 115
-0.0088737067 0.31750444 -0.85133857 61 131 115
-0.007900307 0.315523 -0.84991866 60 129 117
-0.0085050631 0.31663069 -0.85079753 60 130 116
-0.0072593288 0.31673908 -0.84903866 54 130 118
-0.0075443634 0.31679562 -0.84944379 55 130 117
-0.0084701786 0.31739208 -0.85076678 58 131 115
-0.0073384396 0.31662878 -0.84914893 54 130 117
-0.0082029654 0.31751996 -0.85039014 56 132 116
-0.0066547208 0.31759739 -0.84819639 48 132 118
-0.016287645 0.37076226 -0.87427485 32 136 113
-0.016413722 0.36425608 -0.87459028 31 137 111
-0.016318209 0.36322278 -0.87455785 31 136 112
-0.016392892 0.36330885 -0.87404734 33 134 113
-0.016422452 0.36397469 -0.87431431 32 137 112
-0.016170854 0.36148804 -0.87440342 32 134 114
-0.016516091 0.36324286 -0.87237602 36 133 117
-0.01654418 0.36278069 -0.87162942 38 133 117
-0.016453069 0.35785949 -0.87401497 38 130 118
-0.016229611 0.35983902 -0.87447125 33 133 116
-0.016436188 0.35813498 -0.87384105 38 131 117
-0.016354732 0.35906899 -0.87365597 36 133 117
-0.016346164 0.35876411 -0.8743034 35 132 116
-0.016208438 0.35955808 -0.8752895 32 132 115
-0.016304744 0.36029264 -0.87348527 36 133 117
-0.016215542 0.36062691 -0.87409693 33 133 116
-0.016158368 0.36112294 -0.87442631 32 133 115
-0.016568609 0.35474873 -0.87346882 38 136 115
-0.016472142 0.35646364 -0.87520701 36 132 116
-0.016492579 0.3561478 -0.87538362 34 132 116
-0.01660561 0.35422176 -0.87430346 33 138 114
-0.016580975 0.35457453 -0.87376988 38 136 115
-0.016679885 0.34966099 -0.87537199 23 139 111
-0.016624929 0.35235864 -0.87445694 30 140 113
-0.016581016 0.34978515 -0.87294757 35 138 111
-0.016661633 0.34971827 -0.87493002 25 140 111
-0.01655847 0.34975746 -0.8723855 38 138 112
-0.016569111 0.35110533 -0.8721537 40 138 113
-0.01660065 0.35198766 -0.87335783 36 138 113
-0.016616661 0.35268521 -0.87264919 39 137 114
-0.016581027 0.35153958 -0.87207514 41 138 113
-0.016643165 0.35317251 -0.87500471 28 140 113
-0.01652959 0.34745204 -0.8752749 28 135 113
-0.016492628 0.34612 -0.87315762 49 130 118
-0.01654193 0.34690639 -0.8734135 45 131 117
-0.016427968 0.34584543 -0.87478483 37 130 116
-0.016499531 0.34606159 -0.87275648 53 128 119
-0.016579714 0.34778047 -0.87304848 44 133 116
-0.016528577 0.34728611 -0.87182772 54 130 117
-0.016524829 0.34654269 -0.87180096 57 129 119
-0.016602321 0.34895888 -0.87350303 36 136 113
-0.016532212 0.34783956 -0.87186861 50 132 116
-0.016390592 0.34486461 -0.87462205 40 132 114
-0.016365699 0.34356427 -0.87456888 50 131 115
-0.01634624 0.34230116 -0.87390232 61 130 116
-0.016382605 0.34431487 -0.87426919 45 131 115
-0.016351094 0.34276816 -0.8744536 57 130 116
-0.016397566 0.34520996 -0.87481207 38 131 115
-0.016466144 0.34554261 -0.87280554 54 128 119
-0.016464863 0.34507582 -0.87218618 59 127 119
-0.016399078 0.34295946 -0.87154746 66 129 117
-0.016414739 0.3446568 -0.87340176 50 130 116
-0.016261531 0.33941203 -0.87461179 80 132 117
-0.016311085 0.34027323 -0.87415516 78 130 118
-0.016339038 0.34023592 -0.87153292 83 130 117
-0.016325422 0.34126994 -0.8746509 70 129 117
-0.016331032 0.34092253 -0.87346846 75 129 118
-0.016330071 0.34106442 -0.87377805 73 129 118
-0.016105754 0.33632317 -0.87528783 82 135 117
-0.016002696 0.333464 -0.87527323 81 134 117
-0.013843345 0.33060098 -0.88955694 87 117 122
-0.014394108 0.33024904 -0.88795573 98 123 118
-0.014284044 0.33013707 -0.88979053 105 118 120
-0.013819554 0.32936504 -0.88999885 105 116 122
-0.014276896 0.32937726 -0.88723886 112 124 116
-0.014008643 0.32892245 -0.88743562 117 123 118
-0.014305588 0.330024 -0.88984245 108 118 120
-0.0041825077 0.33856428 -0.84351754 53 130 118
-0.0043917596 0.33848041 -0.84377855 54 130 118
-0.0037995982 0.3381997 -0.84306937 52 130 118
-0.0036193477 0.33633429 -0.84301853 51 131 117
-0.0039691515 0.33464691 -0.84361595 52 133 117
-0.0041076797 0.33633527 -0.8436259 53 131 117
-0.0043386961 0.33399126 -0.84413868 54 133 117
-0.0032453635 0.33786482 -0.84240615 50 130 118
-0.0042362693 0.33420929 -0.84399033 53 134 116
-0.0037424569 0.33490229 -0.84330606 51 133 116
-0.0033119898 0.33469513 -0.84273946 49 133 117
-0.0033308091 0.3344878 -0.8427729 49 133 117
-0.0041172816 0.33391643 -0.8438499 53 134 117
-0.0038660648 0.33237299 -0.84365952 48 133 118
-0.0029920358 0.31611472 -0.8433404 42 129 120
-0.0030756518 0.31520271 -0.84349364 42 129 120
-0.0030108721 0.31303158 -0.843449 42 129 120
-0.0034173836 0.31238493 -0.84395146 44 128 121
-0.0034265073 0.31186128 -0.84395784 44 128 121
-0.0023534205 0.31090802 -0.84252357 41 129 121
-0.0030993796 0.31138042 -0.84353352 43 129 120
-0.0030653893 0.31035972 -0.84343612 43 128 122
-0.0028445157 0.31010726 -0.84311903 42 128 122
-0.01212425 0.3512333 -0.85357982 60 130 117
-0.012243618 0.35127261 -0.8537671 60 130 117
-0.01231321 0.34963548 -0.85397625 61 130 118
-0.013005308 0.35209867 -0.85492778 61 129 117
-0.01318475 0.35023996 -0.8553248 62 129 119
-0.012982478 0.3496232 -0.85504049 62 129 119
-0.012364461 0.35198665 -0.85393584 57 130 116
-0.011215996 0.35009471 -0.85221618 58 129 117
-0.011594537 0.35049501 -0.85278517 59 129 117
-0.011860906 0.35124287 -0.85318106 57 130 117
-0.011535523 0.35073781 -0.8526935 57 130 117
-0.013341051 0.34816703 -0.85583699 63 131 119
-0.012720452 0.34792119 -0.85470748 63 130 119
-0.013050952 0.34884447 -0.85515869 63 129 119
-0.011419503 0.34603661 -0.8525995 61 131 118
-0.012681665 0.34584695 -0.8550275 62 131 120
-0.012338522 0.34758076 -0.85404825 63 129 119
-0.011483446 0.34705478 -0.85265309 61 130 118
-0.01213396 0.34782487 -0.85368866 61 131 118
-0.011668208 0.34779134 -0.85294843 61 130 118
-0.011051398 0.34925875 -0.85197186 60 129 117
-0.012022686 0.34945655 -0.85351586 61 130 118
-0.01205076 0.3490448 -0.85355937 61 130 118
-0.011756508 0.34336326 -0.85359091 62 131 119
-0.012765185 0.3420943 -0.85492736 61 133 120
-0.012630047 0.34236094 -0.85475975 61 133 120
-0.013275733 0.3427999 -0.85576403 61 133 121
-0.01140736 0.34226078 -0.85294503 62 131 119
-0.011762714 0.34255514 -0.853504 62 131 119
-0.012151879 0.34567666 -0.85405421 62 131 119
-0.012034845 0.34554219 -0.85385025 62 131 119
-0.011627767 0.34526601 -0.85311532 62 131 118
-0.011073584 0.34435821 -0.85218531 61 131 118
-0.011257896 0.34303141 -0.85271037 62 131 118
-0.011557193 0.34457779 -0.85307282 62 131 118
-0.012202384 0.33895871 -0.85495317 58 133 119
-0.010964284 0.33791563 -0.85312551 58 133 118
-0.01216114 0.33794066 -0.85537702 56 132 119
-0.012300683 0.33856556 -0.85533291 57 132 120
-0.012824371 0.34066805 -0.85528702 59 134 119
-0.01179968 0.33961433 -0.85386825 60 133 118
-0.011961902 0.34015802 -0.85397601 60 133 118
-0.011022774 0.34177786 -0.85232592 62 131 118
-0.011836628 0.34155828 -0.85356194 61 131 119
-0.010869425 0.34005195 -0.8523826 61 131 118
-0.011973873 0.3410368 -0.85384977 61 133 119
-0.011052055 0.33890063 -0.85284048 60 133 118
-0.011412298 0.33518189 -0.85414958 56 132 119
-0.01205992 0.33674195 -0.85527617 56 132 119
-0.011262137 0.33424434 -0.85391337 58 132 119
-0.011244163 0.33451515 -0.85386848 57 131 119
-0.012197478 0.3363907 -0.8555451 59 132 119
-0.012187346 0.33524022 -0.8555764 64 131 118
-0.011477322 0.33679739 -0.85418481 54 132 120
-0.011028849 0.33589193 -0.85340011 51 132 119
-0.010323838 0.33485308 -0.85213947 49 132 119
-0.010262273 0.33582839 -0.85195464 53 133 118
-0.010629642 0.33562413 -0.85266382 51 132 119
-0.011582279 0.33685985 -0.854379 54 132 120
-0.011458165 0.33066782 -0.85425335 68 130 118
-0.012300248 0.33238062 -0.85577214 77 130 117
-0.012226782 0.33316192 -0.85567933 73 131 118
-0.011991926 0.33339053 -0.85528588 67 130 118
-0.011855029 0.33227813 -0.85500342 70 130 118
-0.012150763 0.33198789 -0.85549879 76 131 117
-0.011127451 0.33292177 -0.85370642 57 131 119
-0.010236227 0.33276075 -0.85206741 46 132 119
-0.011508655 0.33392292 -0.85438102 62 131 119
-0.010429149 0.33103025 -0.85247225 49 130 119
-0.010488527 0.33167872 -0.85256332 49 131 119
-0.011235568 0.33248404 -0.85391819 58 131 118
-0.0099349776 0.32703805 -0.85231352 57 129 119
-0.010367721 0.32647455 -0.85316128 65 131 118
-0.010110574 0.32888699 -0.85218292 50 130 119
-0.010879999 0.32689631 -0.85389769 70 131 117
-0.010294974 0.32902357 -0.85245639 53 130 119
-0.011925144 0.32991648 -0.85506099 80 130 117
-0.010778612 0.32957906 -0.85315734 58 131 117
-0.011101595 0.32965937 -0.85369641 64 131 117
-0.011354983 0.32785872 -0.85447735 73 132 117
-0.011559814 0.32897741 -0.85461414 74 131 117
-0.011291995 0.32953173 -0.85404783 68 130 117
-0.010831482 0.32611185 -0.85400212 73 132 117
-0.010527295 0.32490188 -0.8536495 70 131 118
-0.01029301 0.32520604 -0.85322982 66 130 119
-0.010339594 0.32300055 -0.85333937 66 132 117
-0.010052457 0.32370606 -0.85279912 61 131 117
-0.0099582206 0.32503736 -0.85261673 61 131 118
-0.010663632 0.32391569 -0.85394114 71 131 117
-0.010718578 0.32342657 -0.85404617 72 132 117
-0.0099236574 0.32511151 -0.85255176 61 131 118
-0.010477354 0.32205492 -0.8536287 67 133 116
-0.010436789 0.32098705 -0.85369593 68 131 116
-0.0098242005 0.32074198 -0.85250521 59 132 115
-0.010098682 0.31908405 -0.8531844 66 131 114
-0.010773991 0.31951711 -0.85450417 75 130 116
-0.009527972 0.32000953 -0.85213172 59 132 115
-0.0098238764 0.3183333 -0.85268992 63 132 113
-0.0095807714 0.31717405 -0.85230017 65 131 114
-0.016161419 0.36227924 -0.86748558 38 135 116
-0.015906626 0.35829374 -0.8655467 59 132 117
-0.016174402 0.35846373 -0.86717612 57 132 118
-0.016172441 0.35873231 -0.86717254 56 132 118
-0.016114058 0.35863626 -0.86681551 57 132 118
-0.016220506 0.35648546 -0.86733693 63 133 118
-0.015825106 0.3540909 -0.86500305 65 134 115
-0.01584807 0.35476395 -0.86520046 65 132 116
-0.016068876 0.35488349 -0.86636275 63 134 116
-0.016291995 0.35484776 -0.86751902 63 134 116
-0.015709752 0.3548843 -0.86440438 65 133 115
-0.015649632 0.35596853 -0.8640061 66 132 116
-0.016020451 0.35630295 -0.86624479 64 132 117
-0.015905367 0.35576278 -0.86556357 65 132 118
-0.015886685 0.3555142 -0.86545795 65 132 117
-0.016044566 0.35221079 -0.8664943 66 134 115
-0.015965527 0.35164514 -0.86633629 66 134 115
-0.015994037 0.35201392 -0.86628318 66 134 115
-0.015519971 0.3496173 -0.86466986 70 130 117
-0.015871346 0.35066754 -0.86635083 66 132 116
-0.015608934 0.35208434 -0.86421233 68 132 116
-0.016191289 0.3532491 -0.86691558 64 135 114
-0.015777564 0.35240051 -0.86500102 66 133 115
-0.015516905 0.35171002 -0.86383832 69 132 117
-0.015840795 0.35324496 -0.86509383 66 134 115
-0.015432727 0.35051638 -0.86373419 71 131 117
-0.015981482 0.34747875 -0.86726129 68 131 117
-0.015635513 0.34644386 -0.86490697 72 131 117
-0.015801128 0.34607041 -0.86582184 72 130 118
-0.015678212 0.34580353 -0.86500996 73 131 118
-0.015865328 0.34609661 -0.86621821 72 130 118
-0.015486812 0.34639996 -0.86394918 74 130 118
-0.015471083 0.34821784 -0.8641265 72 131 117
-0.015572176 0.34722358 -0.86465675 71 131 117
-0.015507746 0.34896055 -0.86449122 71 131 117
-0.015609274 0.34691203 -0.86485964 71 131 117
-0.015811525 0.34233645 -0.86705154 75 127 120
-0.015817616 0.34268534 -0.86696661 74 128 120
-0.015786877 0.3441453 -0.8662886 71 129 118
-0.015527069 0.3421734 -0.86547601 72 127 120
-0.015759185 0.34329107 -0.86642331 72 128 119
-0.015507714 0.34524018 -0.86414552 74 130 119
-0.01556805 0.3438969 -0.86508024 71 129 119
-0.015476177 0.34362042 -0.8646391 71 129 118
-0.015509842 0.34512883 -0.86420554 74 130 119
-0.015563346 0.34379327 -0.8650955 70 129 118
-0.015525799 0.33907187 -0.86575401 94 129 119
-0.015284143 0.3386943 -0.86455017 89 131 117
-0.015231955 0.3385261 -0.86428249 89 132 117
-0.015519087 0.3400377 -0.86575854 83 130 119
-0.015537455 0.34060305 -0.8657999 80 129 119
-0.015412358 0.34032941 -0.86511338 80 129 118
-0.015316453 0.34139729 -0.86444253 73 128 119
-0.015589706 0.35753271 -0.88114589 43 138 110
-0.015646877 0.35839203 -0.88063437 58 135 111
-0.015796937 0.35800722 -0.88014418 48 136 110
-0.015589008 0.35781249 -0.88105839 48 137 110
-0.015662298 0.35972273 -0.87966567 47 134 110
-0.01587067 0.35850364 -0.87945437 39 134 110
-0.015134649 0.35691905 -0.88287592 47 140 109
-0.014949584 0.35554436 -0.88256425 38 140 108
-0.01516948 0.35633484 -0.88251615 44 139 110
-0.015445951 0.35413048 -0.88086808 32 137 111
-0.015115689 0.3565805 -0.88274586 45 140 109
-0.015730079 0.35460013 -0.88053209 35 136 113
-0.015445453 0.3564868 -0.8817997 43 137 110
-0.015344573 0.35702014 -0.88219708 46 138 110
-0.015416078 0.3570886 -0.88190234 44 138 110
-0.015767178 0.35599941 -0.88049674 36 136 112
-0.015904486 0.35595536 -0.87993586 33 137 111
-0.016053233 0.35438955 -0.87937278 30 135 113
-0.014904285 0.35088196 -0.88147962 54 134 114
-0.014565781 0.3520551 -0.88221729 40 139 109
-0.014605354 0.3504459 -0.88296109 82 132 114
-0.014181911 0.35324723 -0.88313174 29 142 104
-0.014268253 0.35302648 -0.88289934 30 142 105
-0.015103525 0.35082069 -0.88069063 44 135 115
-0.01466387 0.35287839 -0.88197529 28 141 107
-0.014413615 0.35291836 -0.88248628 28 141 106
-0.015752718 0.35241798 -0.8796829 33 135 115
-0.015012316 0.35251942 -0.88119048 32 138 110
-0.015558515 0.35278898 -0.8801617 32 136 113
-0.014488188 0.35342753 -0.88246012 26 142 106
-0.015350744 0.34703025 -0.88088876 82 128 116
-0.014700693 0.34930795 -0.88315314 106 129 116
-0.014860497 0.34809443 -0.88295305 129 128 117
-0.015691521 0.34575912 -0.87974375 72 128 115
-0.014724942 0.34919095 -0.88308614 107 129 116
-0.015339642 0.345734 -0.88165587 141 127 117
-0.015520026 0.34799871 -0.87994891 61 130 117
-0.015563161 0.34755152 -0.87985295 60 130 117
-0.015474481 0.34815595 -0.88010818 63 131 117
-0.015634112 0.34630698 -0.87978882 62 129 115
-0.015359444 0.34734902 -0.88073224 72 130 115
-0.015326077 0.34789771 -0.88076913 72 129 117
-0.015080821 0.34300417 -0.8825376 124 127 119
-0.015058323 0.3418887 -0.88240606 94 129 119
-0.015051442 0.34526539 -0.8831327 182 126 118
-0.015111539 0.34425014 -0.88266015 154 127 117
-0.015138444 0.34504968 -0.88270724 174 126 116
-0.015103323 0.34295955 -0.8824299 122 127 118
-0.015445455 0.34563127 -0.88110036 122 127 116
-0.015561637 0.34426272 -0.88044327 103 129 114
-0.015454886 0.34467527 -0.88102835 123 128 115
-0.015591783 0.34472647 -0.88029093 96 130 114
-0.015361798 0.34456262 -0.88152802 140 128 115
-0.015087698 0.33860081 -0.88146943 85 133 114
-0.015130288 0.3385371 -0.88128424 81 134 114
-0.014914466 0.33922443 -0.88232356 98 131 115
-0.014967366 0.33822227 -0.8818379 95 133 112
-0.014974896 0.33820608 -0.88180381 95 133 113
-0.015168437 0.34065938 -0.88168305 79 131 119
-0.015617504 0.3391667 -0.87942547 51 138 114
-0.015157948 0.3405039 -0.88169861 78 131 120
-0.015211635 0.34141347 -0.88164097 84 130 118
-0.015701422 0.34075245 -0.87936729 61 135 111
-0.015582962 0.34077269 -0.87988997 65 134 113
-0.014742146 0.33509189 -0.88254088 84 133 112
-0.014768536 0.33698028 -0.882442 109 131 111
-0.014727649 0.33447769 -0.88259894 76 133 112
-0.015164765 0.33418176 -0.88067788 58 139 114
-0.014771181 0.33685154 -0.88242924 107 132 111
-0.015046916 0.33708799 -0.88134354 87 135 112
-0.015167796 0.3353993 -0.88067931 75 138 113
-0.014720598 0.3375423 -0.88267791 116 131 110
-0.014995222 0.33632612 -0.88146168 91 135 112
-0.015009474 0.33734843 -0.88151991 91 134 112
-0.015455681 0.3312076 -0.8816064 52 132 115
-0.014628491 0.33384234 -0.88317984 73 131 113
-0.015659191 0.33047518 -0.88149476 47 132 116
-0.015257669 0.33170289 -0.88242602 57 131 115
-0.015196275 0.33180013 -0.88286436 58 132 114
-0.015552607 0.33094946 -0.88125652 50 132 116
-0.015095447 0.33334744 -0.88131219 58 136 114
-0.015682753 0.33223608 -0.87931412 43 139 116
-0.014895778 0.33397886 -0.8818593 64 135 113
-0.015261269 0.33245516 -0.88104963 56 135 114
-0.015459384 0.33252349 -0.88014454 50 137 115
-0.015614314 0.32920831 -0.88292909 55 130 117
-0.015687939 0.32828385 -0.88216853 56 131 118
-0.015879797 0.3274596 -0.88080186 50 133 117
-0.015565106 0.3274157 -0.88250154 68 132 118
-0.015593208 0.32763657 -0.88243401 65 131 118
-0.016051987 0.32652739 -0.87930936 47 133 118
-0.015794829 0.32911077 -0.88149202 46 132 117
-0.015954698 0.32745883 -0.88015258 47 133 117
-0.015883023 0.32929289 -0.88033575 43 133 116
-0.015804185 0.32932842 -0.88129359 45 133 116
-0.016054662 0.32319006 -0.88032866 85 131 115
-0.015585667 0.32440662 -0.88220149 92 129 118
-0.01535362 0.32345334 -0.88305718 105 124 119
-0.015884338 0.32338756 -0.88099766 89 129 116
-0.015413053 0.32508615 -0.88290137 93 129 120
-0.015911192 0.32367119 -0.88090652 86 131 116
-0.016011186 0.32605895 -0.87962395 52 134 118
-0.015956705 0.32458463 -0.88042772 74 132 117
-0.016000416 0.32576403 -0.87978405 57 133 117
-0.015892006 0.32465479 -0.88075656 77 132 117
-0.016040817 0.3241879 -0.88010514 75 132 116
-0.015868606 0.32539552 -0.88062972 69 133 117
-0.015424097 0.3215344 -0.88260353 110 122 119
-0.015309334 0.32154992 -0.88306797 108 122 118
-0.015815409 0.31920233 -0.88068408 96 130 118
-0.015233788 0.31884983 -0.88297421 82 137 112
-0.015844867 0.31964716 -0.88063103 101 127 119
-0.016206484 0.32076988 -0.87942958 88 131 115
-0.016039625 0.32166091 -0.88023615 92 128 115
-0.016260985 0.32124302 -0.87930328 86 131 114
-0.015823277 0.3211711 -0.88098651 100 125 117
-0.015817968 0.32059464 -0.8809036 101 126 118
-0.016044732 0.32216924 -0.88030756 92 127 115
-0.015518109 0.31557342 -0.88164949 79 131 115
-0.015604665 0.31451559 -0.88125807 80 128 117
-0.015338717 0.31449431 -0.88231713 79 127 116
-0.015148523 0.31651914 -0.88316405 77 134 112
-0.015380084 0.3156409 -0.88220257 78 132 115
-0.015967961 0.31618237 -0.87987143 84 132 117
-0.01608664 0.31782225 -0.87944931 92 132 118
-0.015438521 0.31752339 -0.88204902 78 138 113
-0.015642105 0.31747106 -0.88122743 83 136 115
-0.015896957 0.3154631 -0.88013291 81 132 117
-0.015913429 0.31419745 -0.87991464 83 129 118
-0.015964074 0.31386119 -0.87956798 86 130 118
-0.015590903 0.31437728 -0.88127756 81 128 117
-0.015743364 0.31419292 -0.8805905 83 129 118
-0.015604373 0.30736929 -0.87935197 83 133 119
0 0 0 1 0 0 0 1 0 0 0 1 0 0 0 0 0 968 1 0 0
