ply
format ascii 1.0
comment PCL generated
element vertex 888
property float x
property float y
property float z
property uchar red
property uchar green
property uchar blue
element camera 1
property float view_px
property float view_py
property float view_pz
property float x_axisx
property float x_axisy
property float x_axisz
property float y_axisx
property float y_axisy
property float y_axisz
property float z_axisx
property float z_axisy
property float z_axisz
property float focal
property float scalex
property float scaley
property float centerx
property float centery
property int viewportx
property int viewporty
property float k1
property float k2
end_header
-0.14975545 -0.45811972 -0.71496147 148 137 116
-0.1486468 -0.45672134 -0.71459198 129 141 117
-0.14852329 -0.45819196 -0.71465892 136 143 116
-0.14557382 -0.46214342 -0.71515602 144 143 120
-0.14525324 -0.46204266 -0.71470749 138 145 118
-0.14513309 -0.46355024 -0.71506685 146 141 120
-0.14127567 -0.47751227 -0.71504951 150 143 114
-0.14015205 -0.48299468 -0.71520609 160 142 120
-0.13962016 -0.48372313 -0.71482837 163 140 120
-0.13895662 -0.4826844 -0.71385598 158 142 118
-0.13966325 -0.48454052 -0.71508455 166 139 121
-0.13870302 -0.48524138 -0.71423018 170 139 122
-0.13901733 -0.48530218 -0.714589 169 139 121
-0.13687207 -0.48491439 -0.71256918 179 137 123
-0.13734406 -0.48454845 -0.71288204 174 138 122
-0.13687292 -0.48500144 -0.71259177 179 137 123
-0.13811281 -0.4848412 -0.71361554 171 139 121
-0.13724597 -0.48450759 -0.71278751 174 138 122
-0.13687624 -0.48513585 -0.71262848 180 137 124
-0.13621977 -0.48587239 -0.71225065 187 136 126
-0.13720618 -0.4831084 -0.7124036 164 141 120
-0.13601567 -0.48503038 -0.71186405 183 136 125
-0.1359214 -0.48440945 -0.71162891 177 138 123
-0.13593037 -0.48415038 -0.71157211 175 138 123
-0.13640459 -0.48672178 -0.71260399 186 136 126
-0.13572735 -0.48812863 -0.71232766 182 137 125
-0.13646768 -0.48722169 -0.71276546 182 137 125
-0.13488877 -0.48855886 -0.71169925 185 137 126
-0.13525216 -0.48774061 -0.71183133 187 136 126
-0.13525334 -0.48795715 -0.71188045 185 136 125
-0.13649081 -0.48855031 -0.71308184 175 139 123
-0.13703139 -0.4894383 -0.71379691 166 143 123
-0.13635227 -0.48956954 -0.71322012 169 142 123
-0.1373094 -0.48802331 -0.713682 173 139 123
-0.13780724 -0.48730141 -0.71394348 175 138 123
-0.1342338 -0.48943508 -0.71136606 182 137 124
-0.13401982 -0.49023592 -0.7113744 177 138 123
-0.15435934 -0.45707616 -0.7246815 124 141 118
-0.1545725 -0.45844942 -0.72642118 144 133 118
-0.15436231 -0.4571088 -0.72470796 124 141 117
-0.15438209 -0.45744714 -0.72490424 129 140 118
-0.15428263 -0.45790026 -0.72432458 133 143 117
-0.15413226 -0.45697835 -0.7236442 118 145 116
-0.15400545 -0.45664781 -0.7233699 114 146 117
-0.15453477 -0.45930564 -0.7260828 150 135 117
-0.15461013 -0.46061024 -0.72597289 155 136 117
-0.15461393 -0.46064788 -0.72598124 155 137 117
-0.1548879 -0.46285397 -0.72690362 164 134 117
-0.15459023 -0.46246517 -0.72619098 155 136 117
-0.15336232 -0.46282011 -0.72470254 142 139 118
-0.15410021 -0.46045944 -0.72478676 145 141 117
-0.1540935 -0.46244991 -0.72538018 146 138 117
-0.15418899 -0.46107683 -0.72506893 146 140 117
-0.15418296 -0.45952916 -0.72459537 145 142 116
-0.15235305 -0.46190277 -0.72312862 134 143 118
-0.15389889 -0.45923293 -0.72361642 139 145 116
-0.15432309 -0.46294871 -0.72581422 149 136 117
-0.1542359 -0.46369988 -0.72609097 152 136 118
-0.15323769 -0.46533433 -0.72597384 151 140 119
-0.15293454 -0.46448627 -0.72516602 146 140 119
-0.15391889 -0.46424499 -0.72609198 151 138 118
-0.15205564 -0.46322128 -0.72350043 136 142 119
-0.15379262 -0.46482253 -0.72628295 152 139 118
-0.15211041 -0.46406892 -0.72389704 139 141 119
-0.15219201 -0.46415097 -0.7240721 140 142 119
-0.15188891 -0.46406075 -0.72347134 138 141 119
-0.15249901 -0.46503717 -0.72486508 146 141 119
-0.15196574 -0.46530059 -0.72390616 143 140 119
-0.15191498 -0.46589711 -0.72394758 146 139 120
-0.15426534 -0.47001961 -0.72686052 143 143 114
-0.15213558 -0.46887639 -0.72502857 158 136 121
-0.15297504 -0.46959412 -0.72566319 151 139 117
-0.15418491 -0.46973842 -0.72685724 144 143 113
-0.15311626 -0.46882069 -0.72605062 153 139 118
-0.15328123 -0.46801895 -0.7264713 155 139 119
-0.15275387 -0.46883479 -0.72567499 155 138 119
-0.15135971 -0.4694345 -0.72383571 157 134 122
-0.15118237 -0.46881208 -0.7233215 154 134 122
-0.15270071 -0.46692485 -0.72569531 155 139 120
-0.1529195 -0.46694684 -0.72612005 156 140 119
-0.15116508 -0.46928561 -0.72342157 156 134 122
-0.15110122 -0.47005478 -0.72351557 159 133 123
-0.1510063 -0.47142634 -0.72344947 154 134 122
-0.1514779 -0.4712227 -0.72389597 152 136 120
-0.15343654 -0.47101536 -0.72588128 143 142 115
-0.15182385 -0.4724831 -0.72460681 144 139 119
-0.15220316 -0.47257558 -0.72506148 142 141 117
-0.15324964 -0.47142753 -0.72580755 142 142 115
-0.15056954 -0.47308397 -0.72343183 148 137 122
-0.1531916 -0.47186428 -0.72589576 141 143 115
-0.15335339 -0.47195905 -0.72608423 142 142 115
-0.15193911 -0.47358739 -0.72511417 144 140 119
-0.15076634 -0.4743979 -0.72412503 144 139 121
-0.15402865 -0.47226086 -0.72693115 146 140 116
-0.15119015 -0.47423899 -0.7245447 144 139 121
-0.15179348 -0.47414398 -0.72520304 146 138 121
-0.1520472 -0.47643542 -0.72632182 151 137 121
-0.151889 -0.47658369 -0.72618693 150 137 121
-0.15133278 -0.47678101 -0.72560495 148 138 121
-0.15153992 -0.47592878 -0.72556269 148 137 122
-0.15192625 -0.47598159 -0.72603011 150 137 122
-0.15204054 -0.47537652 -0.72596192 150 137 122
-0.15064535 -0.47541788 -0.72436136 144 139 121
-0.15130101 -0.47779569 -0.72595745 148 139 120
-0.15096669 -0.47804803 -0.72570938 148 139 119
-0.15105212 -0.47848403 -0.72596604 149 139 119
-0.14968929 -0.47644812 -0.72374588 149 138 121
-0.14908963 -0.47816825 -0.72376895 154 137 121
-0.14939381 -0.47846931 -0.7242105 153 137 120
-0.15036631 -0.47508883 -0.7239449 144 139 121
-0.14906026 -0.47705185 -0.72330564 153 137 122
-0.14971966 -0.47471058 -0.72308147 147 138 121
-0.15125127 -0.48029089 -0.72662109 151 140 119
-0.15083887 -0.47890136 -0.72585279 149 139 119
-0.15147988 -0.47914648 -0.72657573 150 139 119
-0.15069193 -0.47970763 -0.72589934 149 140 119
-0.15093443 -0.48216084 -0.72673762 152 141 118
-0.15095872 -0.48206842 -0.72674757 152 141 118
-0.14894252 -0.48089498 -0.72419131 152 141 120
-0.14862283 -0.48214936 -0.72410345 155 141 120
-0.15007345 -0.48229247 -0.72574806 153 140 119
-0.1499176 -0.48033139 -0.72515589 150 140 119
-0.14982486 -0.47944894 -0.7248643 149 140 119
-0.14992681 -0.47973216 -0.72503823 149 141 119
-0.14827652 -0.4814758 -0.723575 154 141 120
-0.1483417 -0.47862488 -0.72312331 158 135 122
-0.14917639 -0.47958168 -0.72419095 152 140 120
-0.14906189 -0.47948933 -0.72405159 153 139 120
-0.14861922 -0.47854379 -0.72340524 157 136 121
-0.15041998 -0.4835965 -0.72642416 156 139 119
-0.15065198 -0.48441896 -0.72688973 159 138 119
-0.14989224 -0.48489028 -0.72612357 161 138 119
-0.14963177 -0.48338506 -0.72549868 157 139 120
-0.14856821 -0.48273292 -0.72417009 156 140 121
-0.14923881 -0.48272341 -0.72491413 155 140 120
-0.14777941 -0.48398128 -0.72365332 157 140 120
-0.14895597 -0.48585197 -0.72539049 161 138 119
-0.14723982 -0.48582399 -0.72362596 155 139 118
-0.14861691 -0.48531112 -0.7248894 160 138 119
-0.14781983 -0.48463643 -0.7238813 157 140 119
-0.14826433 -0.48498186 -0.72443467 158 139 120
-0.14911798 -0.48587629 -0.72556329 161 138 119
-0.14755587 -0.48903984 -0.72459221 137 148 113
-0.14706384 -0.48914254 -0.72402543 123 154 109
-0.14750256 -0.49016494 -0.72467124 117 157 108
-0.14823098 -0.48975798 -0.72547805 142 147 114
-0.14808948 -0.48907927 -0.72522581 149 144 116
-0.14777631 -0.48823267 -0.72475022 154 141 117
-0.14780609 -0.48707312 -0.72452837 157 139 118
-0.14817102 -0.48749238 -0.72500277 159 139 118
-0.14884092 -0.48656061 -0.72546434 160 138 119
-0.14847218 -0.48800454 -0.72543424 160 139 118
-0.14905439 -0.48646799 -0.72566056 161 138 119
-0.14632648 -0.48934346 -0.72320294 107 160 106
-0.14923103 -0.49110439 -0.72693622 159 139 119
-0.14776957 -0.49173835 -0.72537464 122 152 110
-0.1485478 -0.4908568 -0.72606874 142 146 114
-0.14790422 -0.49275383 -0.7257899 125 150 112
-0.1475745 -0.49023554 -0.72476506 118 156 108
-0.14864017 -0.49067736 -0.72613221 144 146 115
-0.14682327 -0.49293762 -0.72456378 122 146 114
-0.14668645 -0.49220347 -0.72421682 114 152 111
-0.14651522 -0.49030006 -0.72353351 93 166 103
-0.14650668 -0.49304476 -0.72421819 123 143 116
-0.1461346 -0.49351236 -0.72392261 124 141 117
-0.14592667 -0.49369439 -0.72373825 124 140 117
-0.14646824 -0.49070728 -0.72358233 97 163 104
-0.15985522 -0.46564394 -0.74242073 131 138 117
-0.15972146 -0.46553496 -0.74070203 117 142 118
-0.15952457 -0.4663043 -0.7409811 131 139 118
-0.15929243 -0.46664983 -0.73961347 126 141 119
-0.15916543 -0.46678075 -0.73868972 121 143 120
-0.15927333 -0.46607849 -0.73911989 117 144 119
-0.15957107 -0.46874145 -0.74113262 142 134 121
-0.15970901 -0.46913031 -0.74153179 149 134 121
-0.15992324 -0.46990487 -0.74200815 158 134 122
-0.15980703 -0.46954101 -0.74170238 153 134 122
-0.15965499 -0.46968964 -0.74077702 142 134 122
-0.15964855 -0.47035253 -0.74018562 138 134 123
-0.15934497 -0.46685395 -0.74056464 136 138 119
-0.15934676 -0.46952531 -0.73875034 121 137 122
-0.15950182 -0.46716267 -0.74198228 147 135 119
-0.1593519 -0.46702433 -0.74051982 135 138 119
-0.15939756 -0.46716905 -0.74089491 138 137 119
-0.16011091 -0.47122392 -0.74252808 159 134 123
-0.16006474 -0.47160715 -0.742392 153 134 123
-0.1597535 -0.47373343 -0.74112958 117 134 122
-0.15964007 -0.47402334 -0.7403034 114 133 122
-0.1595625 -0.47428596 -0.73978704 110 133 122
-0.15990786 -0.47315419 -0.74211431 126 134 123
-0.16007362 -0.47102767 -0.74212945 162 134 123
-0.15966874 -0.47180805 -0.74000025 134 134 123
-0.15981996 -0.47113022 -0.74079448 145 134 123
-0.15951021 -0.47309244 -0.73916906 119 133 122
-0.15996692 -0.47125483 -0.74156833 155 134 124
-0.15997577 -0.47154227 -0.74161571 154 134 123
-0.15955551 -0.47818607 -0.74192911 143 133 123
-0.15949306 -0.47595161 -0.74142957 108 133 121
-0.15906367 -0.47821769 -0.74007487 133 132 122
-0.1593769 -0.47760531 -0.74118584 131 133 122
-0.15900658 -0.47832143 -0.73987138 133 132 122
-0.15958644 -0.47807491 -0.74203289 143 134 123
-0.15883586 -0.47798073 -0.73915631 123 132 121
-0.15873821 -0.47825429 -0.73872882 126 131 120
-0.15959723 -0.47505155 -0.74111456 103 133 122
-0.15918563 -0.47628 -0.73944312 114 132 121
-0.15924668 -0.47621351 -0.73989075 112 133 121
-0.1593526 -0.47616333 -0.74077988 110 133 122
-0.1596157 -0.48241597 -0.74245566 88 132 121
-0.15864745 -0.48180693 -0.73977453 135 135 122
-0.15843689 -0.48041302 -0.73873425 143 134 122
-0.15889104 -0.48039496 -0.73988169 121 133 121
-0.15919547 -0.48164904 -0.74110985 108 133 121
-0.15942484 -0.48187095 -0.74177313 96 132 121
-0.15952712 -0.47866276 -0.74186844 145 133 123
-0.15934364 -0.48107451 -0.7413013 100 132 121
-0.15952797 -0.4807297 -0.74197954 111 133 121
-0.15921897 -0.47870034 -0.74070632 137 133 122
-0.15956295 -0.48178405 -0.7421667 94 132 121
-0.15928265 -0.48513925 -0.74169791 154 135 123
-0.15887396 -0.48322764 -0.74059808 140 135 122
-0.15919241 -0.48243198 -0.74138218 109 135 121
-0.15954348 -0.48283958 -0.74228752 99 133 121
-0.15894154 -0.48422003 -0.74080151 154 136 122
-0.15835285 -0.48629069 -0.73919833 156 144 117
-0.15827467 -0.48595825 -0.73899478 156 144 118
-0.15863992 -0.48605075 -0.73997217 157 141 119
-0.15840667 -0.48397136 -0.73938477 157 139 121
-0.15861459 -0.48379794 -0.73994517 157 137 122
-0.15863362 -0.48706299 -0.7396853 160 141 119
-0.15884966 -0.48712116 -0.74024343 161 139 120
-0.16371593 -0.48545066 -0.75677723 104 133 119
-0.16350053 -0.48542801 -0.75525343 109 133 119
-0.16368863 -0.4852871 -0.75720847 96 132 119
-0.16338086 -0.484925 -0.75631213 88 132 120
-0.16290173 -0.48355582 -0.75804633 33 131 123
-0.16262351 -0.48313597 -0.7575956 19 130 125
-0.16329788 -0.48436394 -0.75566638 93 133 121
-0.16334328 -0.48454013 -0.75555247 96 134 120
-0.16376057 -0.48337615 -0.75432235 139 138 121
-0.16362408 -0.48489392 -0.75479949 123 135 119
-0.16328579 -0.48302242 -0.75561148 94 136 123
-0.16318232 -0.48393297 -0.75595742 82 133 122
-0.16440962 -0.48744506 -0.75500065 148 134 119
-0.1646325 -0.48775715 -0.75567412 148 134 119
-0.13209945 -0.48201045 -0.70783532 163 140 119
-0.13581093 -0.4826383 -0.71108484 160 142 119
-0.13523771 -0.48353764 -0.71080858 168 141 121
-0.13541961 -0.48400781 -0.7110914 173 139 122
-0.13362414 -0.48282647 -0.70926756 163 140 120
-0.13099197 -0.48419496 -0.70743519 181 132 123
-0.13275829 -0.48292497 -0.70859134 167 138 120
-0.13333152 -0.48304617 -0.70907801 165 139 120
-0.13370794 -0.48319685 -0.70941436 165 140 120
-0.13097036 -0.48587519 -0.70778358 191 128 125
-0.13155141 -0.48510048 -0.70808434 184 132 123
-0.13325207 -0.48495129 -0.70946658 181 135 124
-0.13385986 -0.48335427 -0.70957321 165 140 120
-0.1340241 -0.4837265 -0.70980722 169 139 121
-0.13398306 -0.48540768 -0.71020162 187 135 125
-0.1339435 -0.48478028 -0.71000797 180 136 124
-0.13405691 -0.48839831 -0.71098858 188 135 125
-0.13373502 -0.48937911 -0.71094781 184 135 124
-0.12984127 -0.48963732 -0.70792425 170 139 117
-0.12979595 -0.48942113 -0.7078377 169 139 117
-0.13276 -0.49119303 -0.71063149 188 135 123
-0.13271125 -0.4904241 -0.71036053 186 134 123
-0.12907182 -0.49087709 -0.70770884 162 141 116
-0.12930439 -0.4905906 -0.7077955 163 141 116
-0.1527759 -0.45738703 -0.72147083 127 143 117
-0.15346266 -0.45808998 -0.72247404 130 146 116
-0.15381141 -0.45768422 -0.723014 124 147 116
-0.15362677 -0.45727655 -0.72275305 121 146 117
-0.1530768 -0.45722738 -0.72192907 124 144 116
-0.15356135 -0.4572852 -0.72265446 121 146 116
-0.15179232 -0.457793 -0.71998179 137 141 116
-0.15191646 -0.45654342 -0.72023052 123 142 117
-0.15141307 -0.45847812 -0.71938384 145 141 116
-0.15065815 -0.46236956 -0.7202096 135 144 118
-0.15142596 -0.46280012 -0.72218835 134 143 119
-0.15139523 -0.46034059 -0.72036225 145 141 117
-0.15154968 -0.46255529 -0.72223246 135 142 119
-0.15051219 -0.46155211 -0.71920705 137 144 117
-0.15154006 -0.4624159 -0.72211492 135 142 118
-0.15223426 -0.45912522 -0.72070533 145 143 115
-0.1520229 -0.46135551 -0.72215301 138 143 118
-0.15288466 -0.46001711 -0.72238797 137 145 116
-0.15152541 -0.460729 -0.72091007 143 141 117
-0.15180553 -0.46252277 -0.72275037 135 142 119
-0.15263762 -0.46112639 -0.72289479 135 144 117
-0.15325207 -0.46015248 -0.72304678 135 146 116
-0.15017264 -0.46209627 -0.71914768 136 144 118
-0.15149906 -0.46511355 -0.72296673 140 140 120
-0.15081957 -0.46452248 -0.72146744 140 141 120
-0.1511859 -0.46315035 -0.72186625 136 142 119
-0.15169573 -0.46302488 -0.72285336 133 142 119
-0.15052658 -0.46507323 -0.72091317 139 139 120
-0.15124364 -0.46677625 -0.72283703 145 137 120
-0.15118203 -0.46664751 -0.72267485 145 137 121
-0.14950542 -0.46459845 -0.7195791 135 140 120
-0.14959744 -0.4632293 -0.71939564 138 142 120
-0.15070832 -0.46829048 -0.72212738 149 133 123
-0.15074138 -0.46734983 -0.72188985 145 135 122
-0.15083383 -0.46824712 -0.72239643 150 134 122
-0.15050489 -0.46844739 -0.72166693 148 133 123
-0.15059975 -0.46974093 -0.72227591 154 132 123
-0.14956966 -0.47066009 -0.72089523 145 136 120
-0.15026076 -0.47005978 -0.72147775 149 135 121
-0.15012936 -0.46929234 -0.72117871 145 135 120
-0.14998634 -0.46927929 -0.72102886 144 136 120
-0.14850646 -0.47040766 -0.7197479 135 139 119
-0.15047611 -0.47145462 -0.72257042 153 134 122
-0.14733696 -0.47216681 -0.71935707 135 140 120
-0.14770608 -0.47164464 -0.71946961 135 140 119
-0.14848958 -0.47100088 -0.71994597 138 139 119
-0.14764632 -0.47299445 -0.72001147 142 139 120
-0.14778759 -0.47285053 -0.72009397 142 139 120
-0.14858857 -0.47317567 -0.72115356 146 137 121
-0.15020426 -0.47097501 -0.72169828 151 135 120
-0.14952354 -0.47186071 -0.72143996 149 136 121
-0.14953278 -0.47209302 -0.72161341 149 136 121
-0.14807355 -0.47422469 -0.72107297 144 138 121
-0.14951713 -0.47343102 -0.72238868 148 137 122
-0.14788055 -0.47398719 -0.72077268 144 138 121
-0.14912988 -0.47506601 -0.72257173 147 138 121
-0.14801013 -0.47624996 -0.72181189 149 137 121
-0.14773144 -0.47646686 -0.721591 150 138 121
-0.14855522 -0.47760582 -0.7229709 156 136 121
-0.14869224 -0.47506097 -0.72208369 146 138 121
-0.14947194 -0.47483024 -0.72285527 147 138 121
-0.14667735 -0.47744277 -0.72035807 159 136 122
-0.14655243 -0.47537035 -0.71971691 145 138 121
-0.1468858 -0.47694665 -0.7205677 154 137 122
-0.14700961 -0.47737846 -0.72085029 157 136 122
-0.14620386 -0.47659224 -0.71962333 152 138 121
-0.14624822 -0.47588125 -0.71950901 147 139 120
-0.14599356 -0.47554123 -0.71919453 143 140 120
-0.14780502 -0.4809233 -0.72293687 157 139 122
-0.14694409 -0.47874221 -0.72105694 165 134 123
-0.14766206 -0.48107094 -0.72275752 158 139 122
-0.14818101 -0.47901699 -0.72301304 158 136 122
-0.14759342 -0.47878641 -0.7220577 161 135 122
-0.14699958 -0.48162681 -0.72193879 157 139 122
-0.14658691 -0.47948554 -0.72072738 164 135 123
-0.14683598 -0.48100045 -0.72152412 160 138 123
-0.14646478 -0.48188299 -0.72126871 157 139 122
-0.14617004 -0.47952393 -0.72026056 164 135 123
-0.14643432 -0.48135957 -0.72108215 158 138 122
-0.14481027 -0.48201406 -0.71955001 157 139 122
-0.14603175 -0.47944036 -0.72008902 164 135 123
-0.14462964 -0.48108491 -0.71914881 157 138 121
-0.14568393 -0.4788191 -0.71963197 161 136 122
-0.14672975 -0.48440677 -0.72257042 154 140 119
-0.14737904 -0.48281658 -0.72286117 156 141 121
-0.14659226 -0.48272356 -0.72171825 155 140 122
-0.14626607 -0.48569596 -0.72249496 154 139 119
-0.14370616 -0.48613173 -0.71984094 158 139 123
-0.14624298 -0.4861103 -0.72263241 154 140 118
-0.14531875 -0.48436314 -0.72092527 156 140 122
-0.1449867 -0.48625612 -0.72130316 156 139 120
-0.14484672 -0.48427996 -0.7203716 157 139 123
-0.14504641 -0.48590341 -0.72123039 156 139 120
-0.14559245 -0.48274288 -0.72061533 156 139 122
-0.14389734 -0.48366305 -0.71914268 157 139 122
-0.14555658 -0.48311388 -0.72070944 156 139 122
-0.14435501 -0.48352766 -0.71958059 157 139 122
-0.14317937 -0.48642772 -0.71935833 157 139 123
-0.14605166 -0.48676845 -0.72259802 147 142 117
-0.14576323 -0.48869371 -0.72254497 117 155 110
-0.14587709 -0.48829234 -0.72261173 123 152 111
-0.14529964 -0.48934719 -0.72215265 108 158 110
-0.145492 -0.48886877 -0.72228998 115 155 111
-0.14479573 -0.48924443 -0.72162628 111 156 113
-0.14496547 -0.48935944 -0.7218135 109 158 112
-0.14524445 -0.49085206 -0.72234553 99 160 109
-0.14481176 -0.49034402 -0.72178924 97 162 110
-0.15881379 -0.46595809 -0.73830062 125 146 118
-0.15775973 -0.46535701 -0.73654211 145 147 119
-0.15804136 -0.46598771 -0.73665929 143 145 121
-0.15743028 -0.46667069 -0.73540223 157 141 123
-0.15722218 -0.46587077 -0.73534191 155 143 121
-0.15728101 -0.46443957 -0.73563832 142 146 119
-0.15724902 -0.46545595 -0.73545581 152 144 121
-0.15726027 -0.46554238 -0.73548037 152 144 120
-0.15706344 -0.46646014 -0.73483461 161 140 124
-0.15905665 -0.46889204 -0.73812705 126 138 123
-0.15880096 -0.46683055 -0.73785651 130 142 121
-0.15925439 -0.46857873 -0.73862153 121 139 121
-0.1582938 -0.46974787 -0.73683798 158 138 122
-0.15828969 -0.46946606 -0.73681366 156 138 122
-0.15902072 -0.47025645 -0.73801804 133 136 123
-0.15801623 -0.46865684 -0.73642451 154 139 123
-0.15791254 -0.46832401 -0.73629177 152 139 123
-0.15815443 -0.47004515 -0.73666108 163 137 122
-0.15771098 -0.46891505 -0.73611212 154 138 123
-0.15698501 -0.46924573 -0.73532516 154 137 123
-0.157557 -0.46805486 -0.73586965 150 139 123
-0.15918949 -0.47272459 -0.73831439 123 134 122
-0.15884134 -0.47236469 -0.73776436 138 134 122
-0.15897292 -0.47165325 -0.73797154 135 134 123
-0.15848157 -0.4723981 -0.73724419 149 136 121
-0.15849634 -0.47182825 -0.73722988 152 135 122
-0.15915643 -0.47408572 -0.73828191 119 133 122
-0.15726639 -0.47394142 -0.73599988 146 139 120
-0.15772261 -0.47417322 -0.73647797 145 139 119
-0.15803336 -0.47211364 -0.73666847 158 137 121
-0.1566463 -0.47444874 -0.73540026 142 140 120
-0.15757506 -0.47174612 -0.73617744 159 137 121
-0.15622386 -0.47281492 -0.73482341 149 137 121
-0.15678585 -0.47077376 -0.73523557 161 135 123
-0.15673523 -0.47280499 -0.7353732 151 138 120
-0.15881935 -0.47493348 -0.73793107 125 135 121
-0.15886334 -0.47651681 -0.73840296 123 133 120
-0.15868402 -0.47583336 -0.73797715 129 135 121
-0.15845229 -0.47674724 -0.73784745 136 135 120
-0.15826638 -0.47850549 -0.73667037 156 136 122
-0.15825883 -0.478333 -0.73666191 155 136 122
-0.15808094 -0.47846663 -0.73611426 160 137 123
-0.1581241 -0.47618169 -0.73657322 151 138 121
-0.1578294 -0.47743732 -0.73574901 157 138 122
-0.15615489 -0.47483698 -0.73482525 142 140 119
-0.15744826 -0.47650173 -0.73551959 153 139 121
-0.15742615 -0.47545534 -0.73588735 147 139 120
-0.15762947 -0.47690934 -0.73555183 155 139 122
-0.15659186 -0.47475064 -0.73530179 142 140 120
-0.15826723 -0.47885206 -0.73690331 155 136 123
-0.1585438 -0.47855788 -0.73803139 137 133 121
-0.15844604 -0.47876787 -0.73770541 144 134 122
-0.15818191 -0.48142707 -0.73831594 157 137 123
-0.15812241 -0.47899061 -0.73651922 159 137 123
-0.15778969 -0.47922134 -0.73597497 161 138 124
-0.15784487 -0.4796502 -0.73638546 161 138 123
-0.15699573 -0.48118263 -0.73563236 153 138 122
-0.15743417 -0.4798626 -0.73566133 160 138 123
-0.15731616 -0.48206124 -0.7369135 154 138 122
-0.15757249 -0.4815104 -0.73708141 157 138 123
-0.15666664 -0.48206085 -0.73553365 149 138 121
-0.15737288 -0.48194346 -0.73695344 155 137 123
-0.1576955 -0.48514438 -0.73801589 156 143 119
-0.15743053 -0.4847247 -0.73756683 156 141 120
-0.15725163 -0.48602539 -0.7372185 155 144 117
-0.15782876 -0.48306835 -0.73830694 157 139 122
-0.15709884 -0.48534662 -0.73697203 155 142 119
-0.15729004 -0.48458514 -0.73732638 156 141 120
-0.1568671 -0.48545504 -0.73656571 154 142 118
-0.15657017 -0.48320556 -0.73572135 149 139 121
-0.15638195 -0.48322213 -0.73532462 148 139 121
-0.15717919 -0.48387679 -0.73713976 156 139 121
-0.15713389 -0.48281065 -0.73684525 153 138 122
-0.15606372 -0.48588079 -0.73514313 153 142 118
-0.15657708 -0.48367366 -0.73582304 151 139 120
-0.15820865 -0.48709247 -0.73856777 160 144 117
-0.15787606 -0.48705697 -0.7381106 161 144 117
-0.15650824 -0.48709854 -0.73576164 161 141 118
-0.15779254 -0.48667148 -0.73808199 158 145 117
-0.15631635 -0.48666897 -0.73551416 156 143 118
-0.15652071 -0.48677611 -0.73584819 157 142 118
-0.15709868 -0.48774981 -0.73665816 167 141 118
-0.16393377 -0.47029492 -0.75428766 60 132 125
-0.16386762 -0.4701767 -0.75154966 76 137 121
-0.16381708 -0.47010016 -0.75093925 78 138 120
-0.16396229 -0.47400358 -0.75286365 83 131 125
-0.16398093 -0.47244301 -0.75279284 80 132 124
-0.16394365 -0.4741177 -0.75268179 84 132 125
-0.16406891 -0.473014 -0.75384468 75 132 125
-0.16383274 -0.47410965 -0.75148022 91 132 124
-0.16387925 -0.47306412 -0.75166696 87 133 123
-0.16400449 -0.47122756 -0.75190437 78 132 123
-0.16410106 -0.47111058 -0.75383109 71 132 124
-0.16396624 -0.47180396 -0.75185251 81 132 124
-0.16399197 -0.47140181 -0.75186807 79 132 124
-0.16389403 -0.47284725 -0.7516948 86 132 124
-0.16414964 -0.47781059 -0.75301582 69 135 124
-0.16417944 -0.47740951 -0.75355095 69 134 124
-0.16402957 -0.47664607 -0.75252694 74 134 125
-0.16422601 -0.47835675 -0.75344318 67 135 124
-0.16414037 -0.47801161 -0.75280344 69 135 124
-0.16402625 -0.47501975 -0.75343043 79 131 126
-0.16399664 -0.47577503 -0.75268531 77 133 125
-0.16378461 -0.47565669 -0.75045776 91 134 124
-0.16390853 -0.47523752 -0.75203425 85 132 125
-0.16392897 -0.47569358 -0.7519989 82 134 125
-0.16393456 -0.47590607 -0.75193995 81 134 124
-0.16394311 -0.48012316 -0.75280279 77 134 123
-0.16373926 -0.48160732 -0.75295651 108 136 123
-0.16372642 -0.4817633 -0.75306284 112 136 122
-0.16352122 -0.48210233 -0.75143206 98 133 122
-0.16378503 -0.4810479 -0.75257236 92 134 122
-0.16401322 -0.47882292 -0.75167257 71 137 123
-0.16379723 -0.4799979 -0.75117862 77 135 123
-0.1640113 -0.47968477 -0.7528578 73 133 123
-0.16402271 -0.47958228 -0.75282753 73 133 123
-0.16426054 -0.47871161 -0.75396264 66 135 123
-0.16424434 -0.47867942 -0.75375736 67 135 123
-0.16376694 -0.48519844 -0.75408632 142 136 119
-0.16375716 -0.48624018 -0.75392854 143 134 117
-0.16345052 -0.48543203 -0.75261718 150 135 120
-0.16370764 -0.48449507 -0.75389224 142 137 120
-0.16320623 -0.48485643 -0.75117767 147 134 122
-0.16332476 -0.48326051 -0.75074476 111 133 122
-0.16347161 -0.48331663 -0.75234574 133 136 122
-0.16321586 -0.48470965 -0.75112456 143 134 122
-0.16313702 -0.48482218 -0.75041497 137 132 122
-0.16409416 -0.48748958 -0.75377715 151 134 118
-0.16391464 -0.48675263 -0.75406742 144 135 117
-0.16406378 -0.48696741 -0.75419223 146 135 117
-0.15485907 -0.45878476 -0.72740585 146 132 119
-0.15511395 -0.45784461 -0.72748691 138 134 118
-0.15532494 -0.46148601 -0.72877944 144 136 118
-0.15556455 -0.46209982 -0.7295779 154 135 120
-0.15524749 -0.46115869 -0.72855532 140 136 117
-0.15496057 -0.46108991 -0.72757488 151 134 117
-0.15481722 -0.46150666 -0.72697598 159 133 117
-0.1544718 -0.46674123 -0.7281307 163 138 120
-0.1546281 -0.46635804 -0.72829002 163 137 120
-0.15505479 -0.46509787 -0.7285673 164 136 120
-0.1547135 -0.46567994 -0.72812122 164 137 120
-0.15538569 -0.46605599 -0.72987974 165 137 121
-0.15462604 -0.46551895 -0.72782767 163 136 119
-0.15557374 -0.46598974 -0.730416 165 137 122
-0.15538138 -0.46406561 -0.72910374 165 135 120
-0.15528983 -0.46482274 -0.72898775 165 135 120
-0.15545893 -0.46354428 -0.72923851 165 134 121
-0.155515 -0.46310931 -0.72931832 165 134 121
-0.15559873 -0.46307823 -0.72962546 166 133 122
-0.15539959 -0.46752685 -0.7301271 159 139 120
-0.15459536 -0.46788874 -0.72814649 155 140 118
-0.15456152 -0.46913958 -0.72772014 146 141 116
-0.15441667 -0.46783566 -0.72774345 155 140 118
-0.15471046 -0.46922484 -0.72804469 146 141 116
-0.15520354 -0.47036752 -0.73074239 132 135 123
-0.15530342 -0.4682155 -0.73002768 153 139 120
-0.15477416 -0.47009501 -0.72840965 138 141 116
-0.15513405 -0.47051141 -0.73047155 131 136 121
-0.15476923 -0.47039959 -0.72855747 135 140 116
-0.15468408 -0.47015184 -0.72798496 138 142 114
-0.15418522 -0.46909511 -0.72704327 148 142 115
-0.15449579 -0.47284475 -0.72796392 140 138 117
-0.15453127 -0.4732137 -0.72819668 140 137 118
-0.15512055 -0.47433716 -0.73035032 119 134 120
-0.15479776 -0.47279838 -0.72884065 127 139 116
-0.15489696 -0.4732646 -0.72930384 124 137 117
-0.15487742 -0.47279525 -0.72908831 124 138 117
-0.15468533 -0.4716067 -0.72822189 129 141 115
-0.1551982 -0.47388417 -0.73061651 117 134 120
-0.15495601 -0.47304827 -0.72946393 122 137 118
-0.15504296 -0.47167319 -0.73002994 126 136 119
-0.15365581 -0.47376272 -0.72713101 152 136 120
-0.15365502 -0.47354817 -0.72705686 150 137 119
-0.15472251 -0.47794613 -0.73071003 146 133 120
-0.1546014 -0.47689191 -0.72988474 148 134 120
-0.15485102 -0.47550881 -0.73002833 134 134 121
-0.1546516 -0.47571084 -0.72951812 144 134 121
-0.15433672 -0.47827372 -0.72984326 149 133 121
-0.15285006 -0.478333 -0.72794402 151 136 121
-0.15351059 -0.47714069 -0.72820163 152 135 121
-0.15263699 -0.47810894 -0.72756672 151 137 120
-0.15305348 -0.47806922 -0.7280733 150 135 120
-0.15239392 -0.47799513 -0.72720492 151 137 120
-0.15353274 -0.4784458 -0.72886032 150 134 121
-0.15277152 -0.47617048 -0.72704446 154 136 122
-0.15335642 -0.47499067 -0.72725725 155 134 123
-0.15445516 -0.47957832 -0.73066825 150 134 121
-0.15422708 -0.48105091 -0.7307325 152 134 122
-0.15319033 -0.48054191 -0.7292183 153 136 122
-0.15387399 -0.48055637 -0.73008674 152 134 122
-0.15420596 -0.47870791 -0.72981572 149 133 121
-0.15393814 -0.48123467 -0.73042095 152 135 123
-0.15332432 -0.48041818 -0.72934121 152 136 122
-0.15180458 -0.48007885 -0.72720039 152 139 120
-0.15117969 -0.4821339 -0.72701579 153 140 119
-0.15240103 -0.48054573 -0.72816372 153 137 121
-0.15218362 -0.48213732 -0.72838366 153 139 121
-0.15259127 -0.48225978 -0.72897834 154 137 121
-0.15231185 -0.48171204 -0.72842038 153 138 120
-0.1532526 -0.48126054 -0.72955483 153 137 122
-0.15101163 -0.48620629 -0.72775948 159 138 119
-0.1524886 -0.48559201 -0.72950333 143 142 119
-0.15193191 -0.48443124 -0.72852427 147 141 119
-0.15214957 -0.48492771 -0.72891694 145 142 119
-0.15274274 -0.48607701 -0.72993994 142 142 119
-0.15207805 -0.48614126 -0.72910595 148 141 119
-0.15128739 -0.48392433 -0.72758406 153 140 119
-0.15345897 -0.48501897 -0.73068017 141 142 120
-0.1532252 -0.48541328 -0.73043305 140 142 120
-0.15323693 -0.48411208 -0.73021454 146 140 121
-0.15176928 -0.48283401 -0.7279861 151 140 119
-0.15186527 -0.48290324 -0.72812927 151 140 119
-0.15138693 -0.48283178 -0.72746515 151 141 119
-0.15278 -0.48489347 -0.72973323 142 143 119
-0.15256071 -0.48690856 -0.72988153 150 140 120
-0.15288025 -0.48664546 -0.73023707 144 142 119
-0.15315177 -0.48642597 -0.73053998 139 143 119
-0.16101366 -0.47252098 -0.74520868 132 136 123
-0.16038971 -0.47417036 -0.74633056 90 133 124
-0.16018391 -0.47444534 -0.74544615 88 133 124
-0.160531 -0.47341165 -0.74428022 116 135 122
-0.16046482 -0.47351596 -0.74406993 115 135 123
-0.16085096 -0.47296235 -0.74555379 121 135 123
-0.16035172 -0.47119045 -0.74308825 159 135 123
-0.16135344 -0.4717648 -0.74538839 148 137 122
-0.16164616 -0.47074714 -0.74584746 166 138 123
-0.16166243 -0.47105357 -0.74593824 160 138 123
-0.16034462 -0.47189212 -0.74319875 146 135 123
-0.16123362 -0.47187081 -0.74514461 146 137 122
-0.16078092 -0.47597322 -0.74629098 109 135 125
-0.16083242 -0.47762975 -0.74504536 140 136 125
-0.16020662 -0.47747883 -0.74418014 135 134 124
-0.16153269 -0.47834751 -0.74557394 156 138 126
-0.16017325 -0.47737968 -0.74420702 133 134 124
-0.16058142 -0.47789946 -0.74443388 145 135 125
-0.15990263 -0.4747453 -0.74329275 96 133 123
-0.1598603 -0.47697976 -0.74358165 126 134 123
-0.15985987 -0.47651631 -0.74342471 121 133 123
-0.15974547 -0.47792855 -0.7426846 144 134 123
-0.1600024 -0.47479525 -0.74435949 91 133 123
-0.16005906 -0.47489434 -0.74498874 90 132 124
-0.1621567 -0.47964153 -0.74632031 158 139 125
-0.16134974 -0.48227477 -0.74503654 118 135 121
-0.16136701 -0.47974211 -0.74517125 142 138 125
-0.16143581 -0.48130801 -0.7452035 129 136 122
-0.16149627 -0.47999936 -0.74534804 142 137 125
-0.16131637 -0.48228288 -0.74498767 117 135 121
-0.16053399 -0.47880825 -0.74385661 152 136 124
-0.16001999 -0.47943231 -0.74306959 139 134 123
-0.16161004 -0.47882581 -0.74553269 158 138 125
-0.15968275 -0.48235095 -0.74260724 87 132 121
-0.15969488 -0.48139971 -0.74260569 103 133 121
-0.16080914 -0.47904745 -0.74429023 149 137 124
-0.16049406 -0.48260134 -0.74385983 104 134 120
-0.16063318 -0.48261702 -0.7440685 107 133 121
-0.1617173 -0.48343292 -0.74597949 139 135 120
-0.16053265 -0.48330012 -0.74420273 116 133 121
-0.1614484 -0.48345587 -0.74559796 134 135 120
-0.16119307 -0.48319557 -0.74511993 126 135 120
-0.16054058 -0.48550665 -0.74476963 153 133 121
-0.16078499 -0.48527637 -0.74534738 151 133 120
-0.16077645 -0.48537803 -0.74532998 153 133 120
-0.16075718 -0.4886407 -0.743249 158 137 120
-0.16076617 -0.48933122 -0.74265438 155 138 120
-0.16058566 -0.4887757 -0.74271828 156 138 120
-0.16090381 -0.48909867 -0.74319106 157 138 120
-0.16153723 -0.49030384 -0.74337882 156 140 119
-0.16678597 -0.47877666 -0.76070666 0 128 128
-0.16683422 -0.47858164 -0.76053536 0 128 128
-0.1664792 -0.47947824 -0.76116866 0 128 128
-0.12820797 -0.47727641 -0.70355654 157 138 117
-0.12872991 -0.47666976 -0.70378256 163 137 118
-0.13146158 -0.48157042 -0.70719951 169 138 119
-0.12975363 -0.48198554 -0.70600158 164 135 118
-0.13054557 -0.48500371 -0.70729172 182 132 123
-0.12812603 -0.48542941 -0.70576298 143 145 118
-0.12890472 -0.48605481 -0.70641959 161 139 120
-0.12896137 -0.48605874 -0.70645839 163 139 121
-0.12979545 -0.48528415 -0.70685005 171 136 121
-0.1282043 -0.48582986 -0.7059018 147 144 118
-0.12996434 -0.48256856 -0.70632416 163 137 118
-0.13012046 -0.48266569 -0.70646763 163 137 118
-0.1258589 -0.48618832 -0.70436466 130 144 117
-0.12532425 -0.48585677 -0.70389515 132 140 118
-0.12533745 -0.48598707 -0.7039417 131 141 118
-0.12659764 -0.48521337 -0.70460248 134 142 116
-0.12909786 -0.48781005 -0.7069661 160 141 117
-0.12982298 -0.48662752 -0.70716614 178 133 122
-0.12882586 -0.48816347 -0.7068693 154 144 116
-0.12807533 -0.48717219 -0.70612693 145 145 117
-0.12896559 -0.48712182 -0.70671117 161 140 119
-0.12967432 -0.48762244 -0.70730698 171 137 119
-0.12824576 -0.48922575 -0.7067343 139 149 112
-0.12737763 -0.48732188 -0.70569426 132 150 115
-0.12824248 -0.48980737 -0.7068668 138 150 110
-0.12720601 -0.4869321 -0.70548546 131 150 115
-0.12672758 -0.48677719 -0.70512563 128 150 115
-0.15111208 -0.45644712 -0.71883303 125 140 116
-0.15107943 -0.45651364 -0.71867138 127 140 117
-0.15102327 -0.45762491 -0.71823287 138 140 116
-0.15114422 -0.45717388 -0.71886468 133 140 116
-0.15086083 -0.45692769 -0.71759403 133 138 116
-0.14924213 -0.45673472 -0.71532285 133 137 119
-0.15015137 -0.45666233 -0.71627635 133 137 118
-0.1499241 -0.45758599 -0.71550494 144 136 117
-0.15035948 -0.45676491 -0.71642447 134 137 117
-0.15040353 -0.45986953 -0.71641988 153 138 116
-0.15068671 -0.46072647 -0.71891963 143 142 117
-0.15064172 -0.46066073 -0.71862113 143 142 116
-0.15049495 -0.46076742 -0.71809721 145 141 117
-0.1479156 -0.46230152 -0.71752006 142 143 121
-0.14688548 -0.4625046 -0.71664482 150 141 121
-0.1477564 -0.46240467 -0.71741146 144 142 121
-0.14815506 -0.46202192 -0.717637 138 144 120
-0.14950216 -0.4623929 -0.71888125 136 144 119
-0.14931725 -0.46266627 -0.71892583 137 143 120
-0.14939934 -0.46046254 -0.71696347 141 143 117
-0.14897366 -0.46036035 -0.71672171 138 144 117
-0.15010136 -0.4611285 -0.718059 140 143 117
-0.1497875 -0.45949072 -0.71569198 152 138 116
-0.14992881 -0.46105045 -0.71790969 140 143 117
-0.14614104 -0.46111751 -0.71539176 137 146 120
-0.14557773 -0.46280262 -0.71541756 151 140 121
-0.14802302 -0.4638637 -0.71800596 145 139 121
-0.14800893 -0.46415418 -0.71804291 143 139 121
-0.14837158 -0.46297467 -0.71817476 145 141 121
-0.14917089 -0.46348989 -0.71900117 138 141 120
-0.14672393 -0.4644134 -0.71692395 144 139 120
-0.14672555 -0.46394473 -0.71683514 148 139 121
-0.14589006 -0.46376288 -0.71593833 149 140 121
-0.1459582 -0.46374631 -0.71600813 150 139 121
-0.14502066 -0.46551341 -0.71532017 137 140 119
-0.14537315 -0.47682828 -0.7188828 149 138 120
-0.14413279 -0.47646958 -0.71752167 146 137 115
-0.14581972 -0.47576949 -0.71907705 144 139 120
-0.14515494 -0.47621903 -0.71850735 145 138 118
-0.14500415 -0.47561172 -0.71820146 142 139 117
-0.14330372 -0.47567838 -0.71647447 140 136 111
-0.14411323 -0.47562903 -0.71729225 141 137 114
-0.14376272 -0.47829482 -0.71770692 159 138 118
-0.1436429 -0.4779501 -0.71748871 157 138 116
-0.14399908 -0.47722143 -0.7176007 151 137 115
-0.14317149 -0.47781783 -0.71700466 157 138 116
-0.14307743 -0.47783318 -0.71692085 157 138 116
-0.1425647 -0.47580481 -0.71581668 143 137 110
-0.14236355 -0.47675562 -0.71590465 149 139 112
-0.14211717 -0.47763669 -0.71592575 155 140 115
-0.14445859 -0.4813695 -0.71904999 157 139 121
-0.14373997 -0.48096094 -0.71828502 159 139 120
-0.14354832 -0.47898546 -0.71767503 161 139 118
-0.14438912 -0.48002446 -0.71869206 159 138 120
-0.14291431 -0.47881448 -0.71704131 163 139 117
-0.14313076 -0.48214692 -0.71792424 165 139 122
-0.14265184 -0.48176673 -0.71737766 168 139 122
-0.14334975 -0.48125723 -0.71796322 162 139 121
-0.14318998 -0.47997639 -0.71755189 161 139 119
-0.14187716 -0.48046684 -0.71636486 163 140 118
-0.14061461 -0.48201197 -0.71544236 159 142 119
-0.14158684 -0.48156616 -0.71630031 163 141 120
-0.14169003 -0.48138562 -0.71636498 163 141 120
-0.14140821 -0.4798359 -0.71576864 160 142 118
-0.14149471 -0.48020953 -0.71593779 161 141 118
-0.14292316 -0.48432779 -0.71840346 163 139 123
-0.14350949 -0.48360118 -0.71874052 161 139 123
-0.14284886 -0.48363888 -0.71810299 165 139 123
-0.14309262 -0.48569664 -0.71902186 159 139 124
-0.14261341 -0.4831048 -0.71769226 168 139 123
-0.14233188 -0.48422945 -0.71775126 167 138 124
-0.13955064 -0.48631036 -0.71542203 172 136 123
-0.14155237 -0.4843075 -0.71693587 170 138 123
-0.14176014 -0.4840183 -0.71706682 170 138 123
-0.14182895 -0.48521534 -0.71752626 167 138 123
-0.14252219 -0.48592624 -0.71850252 163 138 124
-0.14101723 -0.48282698 -0.71601111 164 141 121
-0.14017618 -0.48383784 -0.71543074 165 140 121
-0.14037544 -0.48343867 -0.71553057 163 140 121
-0.14007735 -0.48448443 -0.71548694 167 139 122
-0.14133555 -0.48642194 -0.71737617 166 138 123
-0.13968758 -0.48744243 -0.71585894 165 141 123
-0.14098193 -0.48651662 -0.71701902 167 138 124
-0.15682454 -0.46233407 -0.73428744 126 146 118
-0.15685876 -0.4618693 -0.7340374 122 145 118
-0.15658689 -0.46176058 -0.73362416 123 145 118
-0.15651289 -0.46194336 -0.73329806 129 143 118
-0.15620235 -0.4622561 -0.73201275 146 138 122
-0.15658595 -0.46286306 -0.73341846 142 142 121
-0.15653092 -0.46181029 -0.73339379 126 144 119
-0.15634426 -0.46519899 -0.7329666 150 142 120
-0.15691125 -0.46525368 -0.73451757 151 142 121
-0.15681662 -0.46567956 -0.73422146 155 141 122
-0.15697415 -0.46561283 -0.73465937 154 141 122
-0.15622167 -0.46544251 -0.73260939 153 141 121
-0.155955 -0.4656423 -0.73179299 157 139 121
-0.15610659 -0.46377274 -0.73179805 158 137 123
-0.15626179 -0.46456382 -0.73266327 149 141 120
-0.15590657 -0.46352315 -0.73092777 166 135 124
-0.15625651 -0.46378809 -0.73239577 152 140 121
-0.15636837 -0.46292168 -0.73256272 151 139 121
-0.15619944 -0.47000331 -0.73382568 153 135 123
-0.15575773 -0.47007042 -0.73238677 141 135 123
-0.15664351 -0.46899784 -0.73471427 162 136 124
-0.15569322 -0.47018746 -0.73224044 140 135 123
-0.15656506 -0.4692592 -0.7346071 160 135 124
-0.15600915 -0.46740779 -0.73209769 159 138 123
-0.15545242 -0.46997982 -0.73135972 135 135 123
-0.15626222 -0.46769264 -0.73287946 156 138 123
-0.15604234 -0.46773309 -0.7322886 156 138 123
-0.15546876 -0.46896052 -0.73109168 145 136 123
-0.1555623 -0.46761087 -0.73093402 157 137 122
-0.15588938 -0.47288457 -0.7333408 139 135 121
-0.15556766 -0.47359645 -0.73199767 127 134 121
-0.15597133 -0.47385615 -0.73420757 140 138 120
-0.15539317 -0.47422057 -0.73137748 120 134 121
-0.15564595 -0.47373632 -0.73246694 130 134 121
-0.15610111 -0.47324321 -0.73460114 146 138 121
-0.1560414 -0.47167036 -0.73365468 147 133 123
-0.15532199 -0.47140083 -0.73126233 129 135 122
-0.15572789 -0.47136897 -0.73262316 141 134 123
-0.15525346 -0.47155324 -0.73102379 127 134 122
-0.15578508 -0.47254577 -0.73274404 137 133 122
-0.15631451 -0.47571295 -0.7346195 146 140 120
-0.15683421 -0.47799924 -0.73416764 158 138 123
-0.15614879 -0.47604379 -0.7342127 147 139 121
-0.1563857 -0.47650293 -0.73430979 150 139 121
-0.15547472 -0.47721153 -0.73265046 148 136 120
-0.15551735 -0.47683537 -0.7329064 146 137 120
-0.15638496 -0.47681594 -0.734146 151 139 121
-0.15537834 -0.47578803 -0.73236871 135 136 120
-0.15549846 -0.47590277 -0.73307782 140 137 120
-0.15522145 -0.47690174 -0.73239762 145 136 119
-0.15527952 -0.47510245 -0.73133832 122 134 120
-0.15538567 -0.47533873 -0.73206699 129 136 120
-0.15484054 -0.48196292 -0.73215777 150 136 122
-0.15478681 -0.48217043 -0.73214066 150 136 122
-0.15503427 -0.47946635 -0.73177272 148 134 120
-0.15532584 -0.48069665 -0.73266435 147 136 120
-0.15448348 -0.48051283 -0.73103416 151 134 121
-0.15503408 -0.47963551 -0.73181981 148 134 120
-0.15475667 -0.48017982 -0.73145264 150 134 121
-0.15632966 -0.48028651 -0.73399144 152 138 121
-0.15653364 -0.47893244 -0.73366296 157 138 122
-0.1557184 -0.48016393 -0.73306936 149 136 121
-0.15612613 -0.48036537 -0.73373896 151 137 121
-0.15702929 -0.47934932 -0.73455548 159 139 123
-0.15649153 -0.47963202 -0.73392236 155 138 122
-0.1565669 -0.47993141 -0.73416573 154 138 122
-0.15551877 -0.48424006 -0.7338444 150 140 120
-0.15557049 -0.48372009 -0.73385561 149 139 121
-0.15579142 -0.48511699 -0.7344746 151 141 119
-0.15501857 -0.48388624 -0.73288643 151 139 121
-0.15571925 -0.48567158 -0.73443198 152 142 119
-0.15472978 -0.4835915 -0.73232067 152 138 122
-0.1546196 -0.48400354 -0.73220032 149 139 121
-0.15475664 -0.48591989 -0.73278028 144 143 119
-0.1548447 -0.48597953 -0.73294538 145 143 119
-0.15560214 -0.4862065 -0.7343148 152 142 118
-0.15397315 -0.48566097 -0.73149103 139 143 120
-0.15404868 -0.48590481 -0.73163611 139 143 120
-0.1540232 -0.48282337 -0.73105305 151 137 123
-0.15489753 -0.48736462 -0.73288977 152 142 119
-0.15563941 -0.48745209 -0.73417395 160 140 120
-0.15588334 -0.48720685 -0.73465168 160 141 118
-0.15578136 -0.48784298 -0.73434383 164 139 120
-0.15370119 -0.48797348 -0.73157853 159 138 122
-0.15366645 -0.48656657 -0.73124546 139 144 119
-0.15368478 -0.48776644 -0.73152173 156 139 121
-0.16224307 -0.47020003 -0.74732238 144 141 120
-0.16317683 -0.47322068 -0.74911982 122 134 123
-0.1637738 -0.47236016 -0.75021023 93 132 124
-0.16383794 -0.47275087 -0.75038767 90 132 124
-0.16337559 -0.47157335 -0.749313 110 134 123
-0.16389683 -0.47134238 -0.75033003 85 132 123
-0.16345565 -0.47166368 -0.7494849 107 133 123
-0.16260697 -0.47286081 -0.74827313 126 135 123
-0.16250806 -0.47209615 -0.74779093 141 136 123
-0.16305596 -0.47393361 -0.74930316 108 133 123
-0.16187969 -0.47460592 -0.748299 88 131 125
-0.16080348 -0.47394291 -0.74680787 96 134 124
-0.16122721 -0.47278151 -0.7467078 121 135 123
-0.16111766 -0.4729006 -0.74664611 119 135 124
-0.16109127 -0.47263786 -0.74649268 124 135 124
-0.16298726 -0.47638685 -0.74854565 127 135 125
-0.16297008 -0.47612128 -0.74867624 122 135 125
-0.16284473 -0.47648299 -0.74832886 128 135 125
-0.16293962 -0.47733119 -0.74825317 129 137 126
-0.162705 -0.47787207 -0.74764651 139 138 126
-0.16357778 -0.47845259 -0.74959219 91 139 124
-0.16368583 -0.47721666 -0.74998999 90 136 124
-0.16286458 -0.47704822 -0.74811387 135 137 126
-0.16290523 -0.47756571 -0.74814564 130 138 125
-0.16202866 -0.47475493 -0.74838191 91 132 124
-0.16144679 -0.47633433 -0.74687541 119 135 126
-0.16104011 -0.47533098 -0.74698782 97 134 125
-0.16132417 -0.47608888 -0.74687779 114 135 125
-0.16281526 -0.48232105 -0.74817717 119 134 121
-0.16295362 -0.48163345 -0.7483359 114 135 121
-0.16331251 -0.48152709 -0.74966222 96 134 122
-0.1635935 -0.47988981 -0.74985355 86 136 123
-0.16349088 -0.48105845 -0.75009465 88 134 122
-0.1632255 -0.4805131 -0.74877393 103 137 122
-0.16336264 -0.47967774 -0.74900061 99 138 123
-0.16308872 -0.48006251 -0.74833924 111 138 122
-0.16330475 -0.47933459 -0.74889272 103 138 123
-0.16331492 -0.47983494 -0.7488786 101 137 122
-0.16343313 -0.47870064 -0.74923676 98 139 124
-0.162313 -0.48301145 -0.74670571 147 136 120
-0.1625634 -0.48397508 -0.7479192 151 134 121
-0.16259664 -0.48246971 -0.74740738 130 135 120
-0.16273251 -0.4836292 -0.74837905 140 134 121
-0.16320035 -0.48348784 -0.75012892 115 132 122
-0.16275242 -0.48448053 -0.74878448 150 134 121
-0.16252238 -0.48265332 -0.74719185 136 135 120
0 0 0 1 0 0 0 1 0 0 0 1 0 0 0 0 0 888 1 0 0
