ply
format ascii 1.0
comment PCL generated
element vertex 936
property float x
property float y
property float z
property uchar red
property uchar green
property uchar blue
element camera 1
property float view_px
property float view_py
property float view_pz
property float x_axisx
property float x_axisy
property float x_axisz
property float y_axisx
property float y_axisy
property float y_axisz
property float z_axisx
property float z_axisy
property float z_axisz
property float focal
property float scalex
property float scaley
property float centerx
property float centery
property int viewportx
property int viewporty
property float k1
property float k2
end_header
-0.11989237 0.34961709 -0.82018918 85 130 117
-0.12138113 0.35022813 -0.81895924 87 128 118
-0.1199071 0.35169303 -0.82035494 85 130 116
-0.12121377 0.35103932 -0.81917316 87 128 118
-0.1215157 0.35000074 -0.81882381 87 128 119
-0.1197569 0.35058033 -0.82038867 85 130 116
-0.12245986 0.35001463 -0.8180117 89 127 120
-0.12171146 0.35144141 -0.81878203 88 128 119
-0.12310933 0.34872821 -0.81733006 84 128 120
-0.12367359 0.34897074 -0.81690401 80 129 119
-0.11973263 0.34790951 -0.8202244 86 130 115
-0.11952765 0.34725744 -0.82036197 86 130 115
-0.11984283 0.34650016 -0.82004511 87 129 115
-0.12040145 0.34944576 -0.81974018 86 129 117
-0.12088428 0.34947544 -0.81932604 86 128 117
-0.12007822 0.34878966 -0.81997931 86 130 116
-0.12134247 0.34898004 -0.81890172 87 128 118
-0.12015588 0.34660694 -0.81977707 87 129 115
-0.12263907 0.34713459 -0.81758428 77 130 119
-0.12143178 0.34686455 -0.81864893 82 130 117
-0.12229128 0.348131 -0.8180021 85 128 119
-0.12264045 0.348104 -0.81768328 83 128 119
-0.12301382 0.34946123 -0.81748575 89 126 121
-0.12168065 0.34668767 -0.81840545 80 130 117
-0.12032438 0.34251869 -0.81928414 64 135 117
-0.119287 0.34462383 -0.82036722 81 131 115
-0.11917078 0.342363 -0.82022583 74 133 118
-0.11939124 0.3429302 -0.82010239 74 133 117
-0.12114493 0.34311333 -0.81866521 61 135 116
-0.12010524 0.34391665 -0.81961322 72 133 115
-0.11930718 0.34446669 -0.82033396 80 132 115
-0.12141447 0.34435409 -0.81850302 66 134 116
-0.12219023 0.34305516 -0.81776106 53 136 117
-0.12182614 0.34419155 -0.81812543 63 133 117
-0.12181051 0.34564444 -0.81818426 72 132 117
-0.12062778 0.34464651 -0.819224 72 132 115
-0.12138249 0.3449519 -0.81855029 70 133 116
-0.12276598 0.34409991 -0.81727213 56 136 117
-0.11912922 0.34195405 -0.82021737 72 134 119
-0.12047903 0.34054607 -0.81894231 46 138 118
-0.1207782 0.34084284 -0.81872648 47 137 118
-0.11876222 0.34092021 -0.82041055 61 136 118
-0.10465762 0.3715263 -0.83748305 36 133 106
-0.10416412 0.37036678 -0.8377946 42 132 106
-0.10355248 0.37048918 -0.83862311 38 132 107
-0.10357964 0.37088123 -0.83869904 36 133 107
-0.10377817 0.36946163 -0.83804786 48 132 107
-0.10480647 0.36937785 -0.83683485 69 127 109
-0.10522805 0.37038684 -0.83654845 61 128 109
-0.10549328 0.37125042 -0.83641458 52 129 108
-0.10317257 0.36985651 -0.83902591 42 132 108
-0.10320622 0.37062174 -0.83918583 38 131 108
-0.10248967 0.36971834 -0.84005916 40 132 109
-0.10271788 0.36947525 -0.83963346 43 132 109
-0.10347335 0.37021387 -0.83865756 40 132 107
-0.10405289 0.3690469 -0.83764285 60 129 108
-0.10428604 0.36860192 -0.83727413 66 127 110
-0.10376925 0.36911228 -0.83798712 54 130 107
-0.1036552 0.36656466 -0.83756167 67 129 112
-0.10474635 0.36742753 -0.83648658 78 126 112
-0.10383609 0.3656202 -0.83714706 73 128 113
-0.10238239 0.36651602 -0.83943975 61 130 112
-0.10272668 0.36559334 -0.83870101 68 128 114
-0.10237055 0.36804363 -0.83982694 51 131 110
-0.10324879 0.36552182 -0.83790183 70 129 113
-0.10266585 0.36759943 -0.83927727 55 130 111
-0.1032481 0.367713 -0.83839554 57 130 110
-0.10290591 0.36820936 -0.83904135 52 130 110
-0.10343415 0.36708516 -0.83796602 61 129 110
-0.10302061 0.3691037 -0.83905727 47 132 108
-0.10354341 0.36350766 -0.83706123 74 129 114
-0.10383791 0.36376041 -0.83677363 76 128 114
-0.1040154 0.36328977 -0.83647603 77 129 115
-0.10163538 0.3628397 -0.83980554 73 129 115
-0.10156291 0.36436343 -0.8401978 69 129 114
-0.10241499 0.36195832 -0.83845609 75 129 115
-0.10279539 0.36138415 -0.837771 77 129 115
-0.10164076 0.36218205 -0.83967566 75 128 116
-0.10213405 0.36218154 -0.83892494 75 128 116
-0.10225412 0.36433759 -0.83914554 70 128 114
-0.10340077 0.36342326 -0.83724856 74 129 114
-0.10216451 0.36484152 -0.83937877 69 129 114
-0.10221805 0.36455268 -0.83924186 70 129 114
-0.10353744 0.36059126 -0.83652091 77 129 115
-0.10291863 0.36014208 -0.83738625 78 128 116
-0.10292627 0.35975152 -0.83731312 78 129 116
-0.10349823 0.36017516 -0.83650947 78 129 115
-0.10167712 0.36059648 -0.83934462 77 129 116
-0.10205602 0.36011443 -0.83869088 78 128 116
-0.10190749 0.36006325 -0.83890718 78 128 116
-0.10136235 0.35924548 -0.83956313 81 128 117
-0.10176215 0.35968363 -0.83905315 80 128 117
-0.10276902 0.35768551 -0.83719331 82 127 116
-0.10262177 0.35865232 -0.83759046 81 128 116
-0.1023301 0.35903731 -0.83809322 80 128 116
-0.10163429 0.35856432 -0.83903456 82 128 116
-0.10121553 0.35875398 -0.83968908 82 128 117
-0.10159113 0.35413268 -0.83864951 76 131 116
-0.10067775 0.35444984 -0.84008282 78 130 116
-0.10146995 0.35409817 -0.83883566 76 131 116
-0.10237552 0.35419503 -0.83743602 74 132 115
-0.10078228 0.35600495 -0.84000158 82 129 117
-0.1022424 0.35429376 -0.83764762 75 132 115
-0.10194617 0.35678339 -0.83829993 82 129 116
-0.10329329 0.3573359 -0.83636075 81 128 116
-0.10168448 0.35697526 -0.83870542 83 128 117
-0.10244209 0.35557628 -0.83745039 78 131 116
-0.10137261 0.35679454 -0.8391493 83 128 117
-0.10143669 0.35670474 -0.83904588 82 129 116
-0.10180799 0.35033262 -0.83823687 79 131 115
-0.10109109 0.35111439 -0.83936661 75 133 115
-0.10106166 0.35055405 -0.8394087 75 134 114
-0.10065245 0.35172898 -0.84005886 74 132 115
-0.10099478 0.35115528 -0.83951795 75 133 115
-0.10171306 0.35084927 -0.83838946 79 131 115
-0.10295014 0.35213777 -0.83648467 76 132 115
-0.10160342 0.35195446 -0.83857042 80 130 116
-0.10143325 0.35235032 -0.83884144 78 130 116
-0.10211468 0.35199437 -0.83777809 79 130 115
-0.101228 0.35335213 -0.83917773 75 131 116
-0.10274001 0.35205919 -0.83680922 77 132 115
-0.10107511 0.34629285 -0.83907205 80 130 116
-0.10072052 0.3490822 -0.83990496 73 135 114
-0.10054974 0.34712005 -0.83990777 74 132 115
-0.10247178 0.3462576 -0.83711106 93 128 117
-0.10090578 0.34723717 -0.83942306 77 132 115
-0.10074092 0.34886125 -0.83984977 73 135 114
-0.10172521 0.34693256 -0.83823836 85 130 116
-0.10217907 0.34958211 -0.83764935 80 132 115
-0.10299441 0.34835339 -0.83635163 89 128 117
-0.10182493 0.34817618 -0.83818263 83 132 115
-0.10213398 0.34959987 -0.83772033 80 132 115
-0.10129819 0.34844813 -0.8390128 79 133 115
-0.10184245 0.34904462 -0.8381688 80 133 115
-0.10060513 0.34400606 -0.83940917 72 130 116
-0.099870056 0.34239215 -0.84000689 61 131 115
-0.10119362 0.34250376 -0.83840203 73 129 116
-0.10016085 0.34265292 -0.83969903 64 131 115
-0.10062226 0.3429544 -0.83918917 69 130 115
-0.100708 0.34392583 -0.83926755 72 130 116
-0.10116234 0.3422192 -0.8383866 71 130 116
-0.10205411 0.3430452 -0.83742923 81 128 117
-0.10181534 0.34359089 -0.83780479 80 129 117
-0.10215867 0.34373301 -0.83733451 84 128 117
-0.10276953 0.34278947 -0.83640766 87 128 118
-0.10039439 0.34563193 -0.83994931 74 130 116
-0.10182649 0.34462008 -0.83786672 84 128 117
-0.10148654 0.34526262 -0.83839136 83 128 117
-0.10016124 0.34173939 -0.83953869 62 131 114
-0.10142939 0.34113935 -0.83800262 71 131 116
-0.1016833 0.34094086 -0.83769786 73 130 116
-0.10031541 0.33943212 -0.83943313 58 133 114
-0.10033686 0.34101832 -0.83934939 61 132 115
-0.10049626 0.33964658 -0.83920318 59 133 114
-0.10045061 0.33919749 -0.83927554 58 134 114
-0.10156175 0.33816668 -0.83765483 59 132 117
-0.10241315 0.33882353 -0.8365249 66 130 118
-0.10044084 0.33848691 -0.83926588 56 133 114
-0.10251157 0.34117791 -0.83663154 79 129 117
-0.10140961 0.33857763 -0.83791178 60 131 116
-0.1006163 0.33865118 -0.83903611 57 133 114
-0.10039772 0.33668867 -0.83930039 50 134 114
-0.10050341 0.33553627 -0.8391971 50 132 116
-0.10022999 0.33613047 -0.83956289 49 133 115
-0.10160156 0.33440006 -0.83767629 51 131 117
-0.10033752 0.33510697 -0.83945167 50 131 116
-0.10116036 0.33475894 -0.83829135 50 131 116
-0.10168286 0.33565938 -0.83751518 53 131 116
-0.1018096 0.33637744 -0.83731759 55 131 117
-0.10184599 0.33572468 -0.83728379 54 131 116
-0.10083931 0.3372705 -0.83865952 53 133 115
-0.10159767 0.33698094 -0.83759987 55 132 117
-0.10154367 0.33737367 -0.83766538 56 132 116
-0.10167951 0.33115578 -0.83763736 41 132 120
-0.099720158 0.33181685 -0.8401525 40 131 119
-0.09979035 0.33329782 -0.84020746 45 130 118
-0.099706069 0.33085674 -0.84007764 37 131 119
-0.10000464 0.33081347 -0.83969986 38 130 119
-0.10102166 0.33031124 -0.83837903 38 131 119
-0.099696577 0.33111608 -0.84011447 38 131 119
-0.10192702 0.33189341 -0.83729374 43 131 119
-0.10212239 0.33153284 -0.83702606 42 132 119
-0.10168684 0.33236372 -0.83762205 45 131 118
-0.10218126 0.33164543 -0.8369385 43 131 119
-0.10203256 0.33228546 -0.8371309 46 131 119
-0.10080139 0.33285362 -0.83887088 45 131 118
-0.10245705 0.33319613 -0.83649665 50 130 118
-0.099591225 0.3308855 -0.84022838 36 132 119
-0.10099851 0.32924336 -0.83840197 32 132 119
-0.10018765 0.32991463 -0.83940321 34 132 119
-0.10238915 0.32984883 -0.83665019 37 133 120
-0.10035773 0.32973784 -0.83919394 34 132 119
-0.099738017 0.32803777 -0.84000283 25 131 119
-0.10078514 0.32869044 -0.83867985 29 131 120
-0.10249811 0.32960156 -0.83651626 36 133 119
-0.10063188 0.32738996 -0.83889639 21 133 118
-0.10194506 0.32883927 -0.83722281 31 133 119
-0.10242575 0.3287679 -0.83661699 32 133 119
-0.10259849 0.32963735 -0.83638918 36 133 119
-0.1010861 0.32763606 -0.83832037 25 131 119
-0.10161816 0.32731256 -0.83765262 23 135 118
-0.098924667 0.36854735 -0.84661186 47 133 112
-0.099188209 0.36806986 -0.84570795 50 132 112
-0.098781109 0.36892408 -0.84714615 45 133 112
-0.098781765 0.36794752 -0.84673387 51 132 113
-0.098966196 0.36791703 -0.84624195 51 133 112
-0.09822014 0.36584258 -0.84702349 56 130 114
-0.098735601 0.3657271 -0.84574097 59 132 114
-0.098548442 0.36751673 -0.84708238 51 132 113
-0.097987846 0.36551994 -0.84741372 55 131 114
-0.098077513 0.36652365 -0.8477037 53 130 114
-0.098818965 0.36590984 -0.84563446 59 132 114
-0.097257592 0.36184645 -0.84693456 54 133 113
-0.097994953 0.36204484 -0.8456859 61 131 113
-0.097762302 0.36271247 -0.84647977 58 131 113
-0.097852327 0.36373153 -0.84687209 58 130 114
-0.097171932 0.36151731 -0.84691203 54 133 113
-0.097468354 0.36306596 -0.8472144 55 132 113
-0.09860605 0.36178812 -0.84436798 67 129 113
-0.097981952 0.3649936 -0.84718448 57 130 115
-0.098745696 0.36503163 -0.84538567 61 131 114
-0.098710582 0.36383614 -0.84497172 64 131 113
-0.09832111 0.36413094 -0.84601974 61 131 114
-0.098281704 0.36295316 -0.84562331 63 130 114
-0.097099476 0.35979503 -0.84678972 61 130 114
-0.096593268 0.35845509 -0.84783983 62 131 113
-0.097063899 0.35798773 -0.84685713 69 129 114
-0.097291917 0.35904354 -0.84638578 66 130 114
-0.096623354 0.3598904 -0.84778243 56 132 113
-0.097936839 0.3578392 -0.84503704 77 126 115
-0.098194271 0.36045769 -0.84482187 68 130 113
-0.097629339 0.36011976 -0.8458212 64 131 113
-0.098152958 0.36104891 -0.84496903 65 130 113
-0.098069929 0.36108801 -0.84512651 63 131 113
-0.098141022 0.35950539 -0.84480548 72 128 114
-0.097934574 0.358486 -0.84506303 73 128 115
-0.096852936 0.3562324 -0.8472988 70 129 114
-0.096774004 0.35576302 -0.84750104 70 129 114
-0.096764229 0.35651067 -0.84748346 69 129 114
-0.097038954 0.35363457 -0.84701824 74 127 117
-0.097056262 0.35378397 -0.84697145 74 127 117
-0.096745379 0.35522974 -0.84759361 70 129 115
-0.097933352 0.35574698 -0.84500349 78 127 116
-0.098059863 0.35675246 -0.84476334 80 126 116
-0.096900061 0.35663033 -0.84717792 70 129 114
-0.097539492 0.35625726 -0.8458364 75 128 115
-0.097764619 0.35490242 -0.8453353 76 128 116
-0.097789392 0.35705063 -0.84533411 77 127 115
-0.096714996 0.3505761 -0.84748739 63 131 116
-0.096527621 0.35064456 -0.84785098 63 130 116
-0.097655721 0.35007831 -0.8456459 64 132 116
-0.096905537 0.35058433 -0.84712595 63 131 116
-0.096979834 0.35140723 -0.84707153 66 130 116
-0.096779875 0.35102358 -0.84741127 64 131 116
-0.097402819 0.35194269 -0.84629643 70 130 117
-0.098147191 0.35168311 -0.84463823 72 130 117
-0.097671479 0.35342392 -0.84560823 77 127 118
-0.097618431 0.35157004 -0.845833 69 132 116
-0.097875498 0.35271329 -0.84519017 75 129 117
-0.097578548 0.35153157 -0.84592485 68 130 117
-0.0966103 0.34582204 -0.84683013 54 133 113
-0.097119346 0.34715143 -0.84611464 60 131 114
-0.097266912 0.34643483 -0.84568918 60 131 114
-0.096505195 0.34690282 -0.84724599 56 132 114
-0.096201584 0.34581888 -0.84761518 52 133 113
-0.09653344 0.34776464 -0.84736222 58 131 115
-0.097284406 0.34833109 -0.84603864 61 132 116
-0.097953044 0.34581262 -0.84424722 62 133 114
-0.097984105 0.34605625 -0.8442384 63 133 114
-0.09798532 0.34686723 -0.84440356 64 132 115
-0.096997723 0.34869996 -0.84665996 61 131 116
-0.097560957 0.34838378 -0.8455236 62 132 115
-0.09619274 0.34211007 -0.84735757 59 131 115
-0.096656024 0.34186059 -0.84632504 58 132 114
-0.096531555 0.34400865 -0.84671152 54 133 113
-0.095936269 0.34328586 -0.8479836 57 131 115
-0.096037447 0.34335604 -0.84776461 56 131 114
-0.095928997 0.34185386 -0.84792459 60 130 115
-0.097552307 0.34553885 -0.84496754 60 133 114
-0.096463352 0.34544596 -0.84704483 54 133 113
-0.097297132 0.34475741 -0.8453235 58 132 114
-0.097626604 0.34434301 -0.84461874 59 133 113
-0.0972348 0.34370559 -0.84526211 56 132 114
-0.09709882 0.34563771 -0.84585625 58 132 114
-0.096510492 0.33874974 -0.84618133 55 130 118
-0.096013494 0.3414228 -0.84769797 60 129 116
-0.095831051 0.33928752 -0.84758818 58 128 118
-0.096183769 0.33812594 -0.84666914 56 129 119
-0.096488394 0.33952993 -0.84639025 57 130 117
-0.096662581 0.33972743 -0.84610128 56 130 117
-0.096802689 0.34168732 -0.84598905 58 132 114
-0.097449057 0.34090984 -0.84449661 56 132 115
-0.097482994 0.34016904 -0.84435517 54 132 115
-0.097235762 0.33861184 -0.84475887 53 131 117
-0.096705638 0.34052891 -0.84609824 57 131 116
-0.096248373 0.34162867 -0.84720361 59 131 115
-0.095755391 0.33640298 -0.84728181 50 129 121
-0.095831499 0.33487439 -0.84698141 41 131 120
-0.095863074 0.33770108 -0.84720927 56 128 120
-0.096138492 0.33540654 -0.84645188 42 131 119
-0.095757902 0.33601296 -0.84723729 47 129 121
-0.09614522 0.3376101 -0.84666359 54 129 119
-0.096298993 0.33492684 -0.8461135 40 131 120
-0.096824884 0.33483392 -0.8451578 40 132 119
-0.097297788 0.33454999 -0.84428668 38 133 118
-0.097329065 0.33704939 -0.84437692 48 131 118
-0.097280331 0.33542442 -0.84436959 42 132 118
-0.095459424 0.33565542 -0.84793669 44 129 120
-0.095473766 0.33591607 -0.84792686 46 129 120
-0.095620565 0.33647946 -0.84760541 49 129 120
-0.095824592 0.33267912 -0.8468141 30 132 120
-0.096533246 0.33297557 -0.84555662 31 133 119
-0.096135095 0.33339113 -0.84630829 33 132 120
-0.096623026 0.33331999 -0.84542114 33 133 119
-0.095837608 0.33266661 -0.84678954 30 132 120
-0.097063281 0.33278823 -0.84458786 31 133 118
-0.09715043 0.33097455 -0.84430379 25 133 120
-0.095611081 0.33316624 -0.8473084 32 132 120
-0.12436981 0.34642076 -0.81600934 61 135 116
-0.12351876 0.34603712 -0.81669772 64 134 117
-0.12547864 0.34639776 -0.81505108 54 137 116
-0.1242008 0.34579551 -0.81608158 59 136 117
-0.12549978 0.34694222 -0.8150968 57 137 116
-0.12550808 0.34717509 -0.81511694 58 136 116
-0.12624787 0.34728551 -0.81453711 54 138 116
-0.12648273 0.3475658 -0.81440556 54 138 116
-0.12406448 0.34949157 -0.81663978 81 130 119
-0.12350848 0.34394345 -0.81660783 52 136 117
-0.12367959 0.34484458 -0.81648302 58 134 117
-0.12330512 0.34391519 -0.81678867 53 136 117
-0.12434167 0.3448357 -0.81589711 55 136 117
-0.12407189 0.34541142 -0.81616431 58 135 116
-0.109234 0.37323311 -0.83230704 43 131 105
-0.10932894 0.37261823 -0.83207488 52 129 105
-0.10971739 0.37290904 -0.8316853 48 130 106
-0.10952608 0.37280285 -0.83188385 50 130 106
-0.11033536 0.37300369 -0.83099967 50 129 108
-0.11090595 0.36142197 -0.82856071 72 140 113
-0.10943285 0.36052704 -0.82989734 75 137 114
-0.10821885 0.35942987 -0.83094674 76 136 115
-0.10760414 0.35859707 -0.83143729 76 134 116
-0.10821725 0.35872218 -0.83084416 73 135 115
-0.10853942 0.35826343 -0.83048314 73 135 115
-0.10955218 0.35769513 -0.82950699 75 134 113
-0.10855626 0.35771036 -0.83042467 73 135 114
-0.1096896 0.35898158 -0.82948053 73 136 113
-0.10786847 0.35746428 -0.83103842 72 135 114
-0.11051191 0.35810491 -0.82865566 76 135 113
-0.10728442 0.35820991 -0.83172238 75 134 115
-0.10931191 0.35698056 -0.82967341 76 133 113
-0.10979066 0.35734743 -0.82926065 76 133 113
-0.10860143 0.35621873 -0.83026952 76 133 114
-0.1092758 0.35674313 -0.82968867 76 133 113
-0.10869958 0.3558605 -0.83015198 77 133 114
-0.10872497 0.3560231 -0.83014095 77 133 114
-0.10825308 0.35380003 -0.83041692 80 131 114
-0.11042982 0.35602778 -0.82858872 80 132 114
-0.10857802 0.35351828 -0.8301059 81 131 115
-0.1089979 0.35445744 -0.82978487 80 132 114
-0.10938934 0.35513139 -0.82947302 80 131 114
-0.10694087 0.35379171 -0.83169401 79 131 115
-0.10675159 0.35501212 -0.8320049 76 132 114
-0.10676151 0.35582301 -0.83206487 75 132 115
-0.10718246 0.35688204 -0.83167636 73 134 115
-0.10803383 0.35202655 -0.83061832 80 132 114
-0.10872972 0.35227773 -0.82998616 81 132 114
-0.10778861 0.35311615 -0.83082449 80 131 115
-0.10815173 0.35124937 -0.83052272 80 132 114
-0.10819509 0.35165164 -0.83047789 80 132 114
-0.10998421 0.35097262 -0.82873625 89 129 116
-0.11022165 0.35195526 -0.82855135 88 130 115
-0.10915051 0.34969401 -0.8294968 88 130 115
-0.10982179 0.35216644 -0.82895833 85 131 115
-0.1092483 0.35027111 -0.82942945 87 130 115
-0.10645032 0.35260054 -0.83221751 79 132 114
-0.10698789 0.35027602 -0.83167976 79 132 114
-0.10678501 0.34977224 -0.83192885 79 132 114
-0.10665669 0.35219285 -0.83199579 79 132 114
-0.10633842 0.35340327 -0.83232266 79 132 114
-0.10871988 0.34814605 -0.83000672 88 130 116
-0.10888379 0.34868124 -0.82981229 89 129 116
-0.10789143 0.34784687 -0.83084548 84 131 116
-0.10774372 0.34813938 -0.83097434 83 131 116
-0.10944609 0.34919116 -0.82922459 91 128 116
-0.10941628 0.34832853 -0.82929969 90 128 117
-0.10954264 0.34760499 -0.82919526 88 128 117
-0.10854504 0.34638301 -0.83026224 86 129 118
-0.10945389 0.34598428 -0.82934302 83 130 117
-0.10960361 0.34776726 -0.82912701 88 128 117
-0.10672044 0.3459343 -0.83219242 88 129 118
-0.10683278 0.34650311 -0.83204478 85 131 117
-0.1073202 0.34899834 -0.83135813 80 132 114
-0.10697619 0.34875351 -0.83176666 80 132 115
-0.10820839 0.34407282 -0.83051562 78 131 117
-0.10868721 0.34542751 -0.83012038 82 130 117
-0.10835784 0.34485677 -0.83041793 81 130 117
-0.10767016 0.34312323 -0.83100063 76 132 117
-0.10831024 0.34522223 -0.83049285 82 130 117
-0.10774059 0.34396392 -0.83098817 78 131 117
-0.11001866 0.34439838 -0.82870442 78 131 116
-0.10925868 0.3436864 -0.82942569 77 131 117
-0.10900491 0.34213495 -0.82960612 72 132 116
-0.10876331 0.3430019 -0.82988566 75 131 116
-0.1079299 0.34243345 -0.83068639 73 132 116
-0.10650307 0.34408051 -0.83231395 83 131 117
-0.10650948 0.34497267 -0.83237588 87 130 118
-0.10741525 0.34452638 -0.83136261 81 131 118
-0.10707435 0.34508139 -0.83177322 84 131 117
-0.10875566 0.34143472 -0.82981235 71 131 117
-0.10751943 0.33819559 -0.83081079 62 132 118
-0.10920966 0.3411791 -0.82934391 70 131 117
-0.10957524 0.34125483 -0.82898659 71 131 117
-0.10760583 0.33871412 -0.83076155 63 131 119
-0.10885418 0.33791232 -0.8295123 61 133 120
-0.10936024 0.33889827 -0.82907426 64 132 119
-0.10939821 0.33907792 -0.82904649 64 133 118
-0.10779601 0.33794874 -0.83052981 61 131 119
-0.10629981 0.3415187 -0.83233446 75 132 117
-0.10694639 0.33866817 -0.83144528 64 132 118
-0.10606424 0.33925098 -0.832421 67 132 117
-0.10730702 0.33990306 -0.83114994 67 132 118
-0.10683687 0.34136325 -0.83175266 72 132 116
-0.10706655 0.34045163 -0.83144426 69 132 117
-0.10776122 0.33769315 -0.83055395 59 132 119
-0.10776035 0.33490652 -0.83046496 39 133 118
-0.10768907 0.33653274 -0.83058584 51 132 119
-0.10817704 0.33674625 -0.83012432 53 133 119
-0.10869867 0.33669856 -0.82962209 52 134 119
-0.10894018 0.33612439 -0.82937104 48 133 119
-0.10873329 0.33531359 -0.82954228 42 134 118
-0.10816482 0.3346377 -0.83006674 37 134 117
-0.10966472 0.33611456 -0.82867235 47 134 119
-0.10660087 0.33563483 -0.83169508 46 133 117
-0.10677811 0.33524147 -0.8314929 43 132 118
-0.10693002 0.33451745 -0.83131582 38 133 117
-0.10657821 0.3375909 -0.83176959 59 131 118
-0.10730711 0.33694673 -0.83097714 54 132 118
-0.10684457 0.33614382 -0.83144093 49 132 118
-0.10632931 0.3322835 -0.8320021 34 132 119
-0.1064572 0.33213988 -0.83185846 33 132 118
-0.11594462 0.35519281 -0.82391906 81 132 117
-0.1163012 0.35366893 -0.82348025 82 131 118
-0.11635462 0.35365826 -0.82343584 82 131 118
-0.11922904 0.3524493 -0.82100105 83 130 115
-0.11635166 0.35053939 -0.82317972 82 130 117
-0.11714756 0.35058859 -0.8225348 82 131 116
-0.11883654 0.349648 -0.82108331 83 132 115
-0.11731721 0.35054857 -0.82239336 82 131 116
-0.11534652 0.3520534 -0.82411921 81 131 118
-0.11575463 0.35253313 -0.82382458 81 131 118
-0.11624514 0.35122991 -0.82332134 81 131 117
-0.1178615 0.35310739 -0.8221674 83 130 116
-0.11901202 0.35239211 -0.82117563 83 130 115
-0.11849342 0.35163629 -0.82152998 83 131 115
-0.11764946 0.35219392 -0.82226032 82 131 116
-0.11696667 0.35306752 -0.82288748 82 130 117
-0.11836153 0.35051945 -0.82154053 83 132 115
-0.11837476 0.35090423 -0.82156295 82 131 115
-0.11497574 0.34970045 -0.8242296 82 131 118
-0.11464253 0.35098371 -0.82460165 83 131 118
-0.11505546 0.35261515 -0.82440668 82 131 118
-0.11661041 0.34590235 -0.82270944 84 130 116
-0.11655536 0.34604734 -0.82276356 84 130 116
-0.1159004 0.34590453 -0.82329726 84 130 117
-0.11639047 0.34630963 -0.82291549 84 130 117
-0.117552 0.34779489 -0.82204098 83 131 116
-0.11564915 0.3459712 -0.8235091 84 129 118
-0.11694071 0.34649679 -0.82247114 84 130 116
-0.1158879 0.34863895 -0.82343924 82 131 118
-0.11602928 0.34829727 -0.82330823 82 130 117
-0.11617377 0.3473396 -0.82314628 83 130 117
-0.11590378 0.34885913 -0.82343644 82 131 118
-0.11577407 0.34806529 -0.82350564 82 131 118
-0.11690073 0.34800079 -0.82258415 83 131 117
-0.11652048 0.34843969 -0.82291436 82 130 117
-0.11454978 0.34648588 -0.82446295 86 129 119
-0.11480051 0.34927267 -0.82434547 83 131 118
-0.11538034 0.34547451 -0.82369459 83 130 118
-0.11528002 0.34235907 -0.82348728 72 133 117
-0.11610938 0.34276235 -0.82283831 75 133 116
-0.11640155 0.34547356 -0.82284915 84 130 117
-0.11739261 0.34462351 -0.82194954 82 130 116
-0.11705667 0.34509683 -0.8222717 83 131 115
-0.11850773 0.34429246 -0.82098418 81 131 115
-0.11724973 0.34224796 -0.82182533 73 134 117
-0.11761943 0.34285027 -0.82157826 75 133 117
-0.11792906 0.34294206 -0.82132757 76 133 117
-0.11738814 0.34354886 -0.82184696 78 131 116
-0.11765865 0.34279737 -0.82153964 75 133 117
-0.11452334 0.34347177 -0.82428318 77 132 117
-0.11457206 0.3447088 -0.82432842 82 130 118
-0.11434298 0.34271425 -0.8244006 74 133 117
-0.11476936 0.344284 -0.8241142 80 130 118
-0.11727033 0.34173909 -0.82175487 71 135 118
-0.11614065 0.34120533 -0.82265687 66 134 118
-0.11600308 0.33914602 -0.82258654 50 136 118
-0.11590336 0.33893645 -0.82265139 47 136 118
-0.11833312 0.34178671 -0.82086521 71 135 118
-0.11689226 0.33944049 -0.82185435 51 136 118
-0.11812539 0.34008861 -0.82085449 54 136 118
-0.1169355 0.33953202 -0.82182729 53 136 118
-0.11719581 0.33941048 -0.82158619 50 136 118
-0.11643227 0.33790898 -0.82207727 35 137 117
-0.11384653 0.33883002 -0.82457852 52 134 117
-0.11463843 0.3389723 -0.82380074 50 136 117
-0.11399522 0.34081405 -0.82459033 65 134 116
-0.11452707 0.34171054 -0.82414687 70 133 117
-0.1151072 0.33923712 -0.82336396 50 136 117
-0.11408102 0.33512574 -0.82429081 35 136 117
-0.11427592 0.33544463 -0.82410848 36 135 118
-0.1148923 0.33711442 -0.823479 38 136 118
-0.1147604 0.33540601 -0.82365113 34 135 117
-0.10833266 0.37403977 -0.83356464 36 133 105
-0.10782741 0.37341601 -0.83398962 36 134 103
-0.10757364 0.37327766 -0.83424884 36 134 103
-0.10677897 0.37311429 -0.83520073 33 134 104
-0.10810754 0.37186417 -0.83334583 65 127 108
-0.10819853 0.37196162 -0.83325815 63 127 107
-0.10753024 0.37225154 -0.83409029 54 129 106
-0.10888913 0.37253758 -0.83256125 54 129 107
-0.10563792 0.37008277 -0.83599675 73 126 111
-0.10645367 0.37085682 -0.83517075 75 125 111
-0.10618253 0.37029305 -0.83538073 79 124 111
-0.10727377 0.37145308 -0.83425581 70 126 109
-0.10710345 0.3729198 -0.83474678 38 133 104
-0.10606709 0.37261233 -0.83600861 41 131 107
-0.10495506 0.36676386 -0.83610874 80 127 113
-0.10440857 0.36297166 -0.83593476 78 129 115
-0.10483006 0.3623777 -0.83531135 80 129 116
-0.10484357 0.36159274 -0.83512968 80 129 116
-0.10504447 0.36438668 -0.83548218 80 129 115
-0.10461478 0.36294237 -0.83568496 79 129 115
-0.10364062 0.35940546 -0.83620697 78 129 115
-0.10460398 0.36009538 -0.83516067 75 130 115
-0.10471229 0.35764715 -0.83466184 77 130 115
-0.10382714 0.35793224 -0.83576155 80 128 116
-0.10550433 0.35873047 -0.83387983 73 132 115
-0.10412854 0.35964593 -0.83566046 77 129 115
-0.10464806 0.35898772 -0.83494085 76 130 115
-0.10543633 0.35991648 -0.83414805 77 132 115
-0.10651043 0.3577446 -0.83253211 72 133 115
-0.10448883 0.36039731 -0.83534425 76 130 115
-0.10653819 0.35873723 -0.83265781 76 133 115
-0.10418645 0.3547731 -0.83496469 72 132 115
-0.10546899 0.35664076 -0.83363867 73 132 114
-0.10498958 0.35662881 -0.83420968 75 131 115
-0.10506679 0.35711685 -0.83417112 75 131 115
-0.1046504 0.35561496 -0.83450323 73 132 114
-0.10560042 0.35708725 -0.83353084 74 132 115
-0.10628059 0.35461649 -0.83248448 77 132 115
-0.10619114 0.3539049 -0.83252209 78 131 114
-0.10582647 0.35531157 -0.83308363 74 133 115
-0.10466916 0.35402858 -0.83432126 73 133 115
-0.10553429 0.35476238 -0.83337474 74 133 115
-0.10493419 0.35529599 -0.83413005 71 134 114
-0.10332899 0.3557021 -0.83614093 77 130 115
-0.10476457 0.35310277 -0.83415866 76 132 114
-0.10512027 0.35276106 -0.83373928 79 131 115
-0.10564394 0.35297194 -0.83312529 80 131 115
-0.10437208 0.35219797 -0.83461517 79 131 115
-0.10376691 0.35005793 -0.83531547 84 130 114
-0.10358177 0.35264462 -0.83554554 74 133 114
-0.10567525 0.35235295 -0.83309853 81 131 115
-0.10586842 0.35118592 -0.83292019 80 131 114
-0.10472015 0.35042197 -0.83423197 83 130 115
-0.10476112 0.35085809 -0.83417183 83 130 115
-0.10512286 0.35109916 -0.83375853 82 130 115
-0.1031111 0.35186011 -0.83623594 77 132 115
-0.10346891 0.3514865 -0.83569062 79 131 115
-0.10347662 0.35210007 -0.83568156 76 132 114
-0.10491594 0.34928808 -0.83404231 84 130 115
-0.10425685 0.3474665 -0.83479857 93 128 116
-0.10496917 0.34799317 -0.83399522 89 129 115
-0.10440321 0.34897026 -0.83462 86 130 115
-0.1037809 0.34652522 -0.8353411 97 127 117
-0.10571929 0.34876049 -0.83314717 84 131 114
-0.10559005 0.34785166 -0.83332485 87 130 115
-0.10566192 0.34705424 -0.83328271 89 129 117
-0.10519113 0.34735492 -0.83377492 90 129 116
-0.10478783 0.34649426 -0.83424574 94 128 117
-0.10630953 0.34641835 -0.83261544 88 130 117
-0.10630555 0.34635416 -0.83262253 88 130 117
-0.10315632 0.3472296 -0.83612573 93 128 117
-0.10310204 0.34793317 -0.83620417 91 128 117
-0.10314285 0.34927443 -0.83615518 86 129 116
-0.10353199 0.34462866 -0.83555293 97 127 118
-0.10500652 0.34535939 -0.83402151 94 128 117
-0.10471648 0.34449691 -0.83427191 92 128 119
-0.1053002 0.34428576 -0.83363032 89 129 118
-0.10628433 0.34545165 -0.8326562 89 129 118
-0.10416097 0.34464043 -0.83487844 95 128 118
-0.10593865 0.34402817 -0.83291948 86 129 118
-0.10596194 0.34453911 -0.83293438 88 129 118
-0.10587592 0.34385464 -0.83297384 85 130 117
-0.10477135 0.34209901 -0.83403313 84 129 118
-0.10455696 0.34200278 -0.83425796 84 129 118
-0.10490318 0.3427546 -0.83394176 86 129 118
-0.1030208 0.34308806 -0.83609802 89 128 118
-0.10289551 0.34406579 -0.83632731 92 127 118
-0.10329602 0.34533599 -0.83590156 98 127 118
-0.10555653 0.34083915 -0.83305836 74 131 117
-0.10507234 0.34069103 -0.83356768 75 131 117
-0.10534219 0.34168002 -0.83337849 79 131 117
-0.10533015 0.34121305 -0.83334279 77 131 117
-0.10590286 0.34155712 -0.83275801 76 131 116
-0.10382733 0.3414523 -0.83499652 84 129 119
-0.10465391 0.33829904 -0.83381331 65 131 118
-0.10513851 0.33876193 -0.83334446 66 131 118
-0.10520562 0.3403042 -0.83338332 72 132 116
-0.10598963 0.33908263 -0.83248639 66 132 118
-0.10593835 0.3411895 -0.83268732 74 132 117
-0.10290783 0.34073108 -0.83604515 79 129 118
-0.10258853 0.33876464 -0.83627522 66 130 118
-0.10345929 0.33939943 -0.83519268 74 130 119
-0.10355507 0.33773577 -0.83492523 65 131 118
-0.10372595 0.33591086 -0.83479142 60 129 118
-0.10535767 0.33692226 -0.8330794 60 131 118
-0.10380115 0.33496395 -0.83473587 57 129 118
-0.10439214 0.33649489 -0.83408839 61 130 118
-0.1050945 0.3360233 -0.83335721 57 130 118
-0.10529896 0.33544594 -0.83312947 53 130 118
-0.10514747 0.33637714 -0.83330297 58 131 118
-0.10590798 0.33596489 -0.83247232 52 132 117
-0.10446249 0.33500037 -0.83403462 55 130 117
-0.10258857 0.33492243 -0.83626372 55 130 117
-0.10251161 0.33654648 -0.83632517 58 130 118
-0.10306705 0.33641365 -0.83559102 59 129 118
-0.10278903 0.33722389 -0.83593994 61 130 118
-0.10281092 0.33673164 -0.8359226 59 129 118
-0.10503607 0.33282611 -0.83344948 42 131 119
-0.10395675 0.33192563 -0.83466017 43 131 119
-0.10510831 0.33302081 -0.83336288 42 131 119
-0.10354979 0.33397183 -0.83501774 54 130 118
-0.10414205 0.33256963 -0.83443201 46 131 119
-0.10563625 0.33282012 -0.83278006 39 131 119
-0.10594224 0.33297098 -0.83243251 38 131 118
-0.10532786 0.33230203 -0.83313632 39 131 119
-0.10595794 0.33157644 -0.83243734 33 133 118
-0.10484535 0.33083442 -0.83370429 36 133 120
-0.10283075 0.33048305 -0.83607763 40 132 120
-0.10304232 0.33124736 -0.83578694 42 132 119
-0.1032403 0.33149797 -0.83552378 43 132 119
-0.10300151 0.33363596 -0.83575261 52 130 118
-0.10471209 0.33001602 -0.83386761 33 132 121
-0.10271795 0.32926601 -0.83624208 35 133 119
-0.10287444 0.32948098 -0.83604056 36 133 120
-0.097640328 0.36558175 -0.84841919 54 130 115
-0.097659156 0.36609414 -0.84877223 52 130 115
-0.097975872 0.36691839 -0.84820676 50 131 114
-0.097830713 0.36695296 -0.84881008 50 131 114
-0.097913496 0.36773583 -0.84913594 48 132 113
-0.097037807 0.36346632 -0.84843415 51 132 114
-0.096971698 0.36319834 -0.84837997 50 132 114
-0.096490808 0.35829523 -0.84805703 61 131 112
-0.096406639 0.35777897 -0.84835887 63 130 113
-0.096493475 0.35731643 -0.84805036 66 129 113
-0.096340567 0.35604843 -0.848647 65 129 114
-0.096483156 0.35451061 -0.84829974 68 129 116
-0.09611953 0.3537674 -0.84954393 64 129 116
-0.095803268 0.3512316 -0.84987998 57 131 114
-0.096160777 0.35345685 -0.84941006 65 129 115
-0.09609089 0.35247269 -0.84932989 63 129 116
-0.096091308 0.35348254 -0.8496449 64 129 116
-0.096410282 0.35047045 -0.8480584 61 130 116
-0.095769718 0.34961823 -0.84953433 54 133 113
-0.095765993 0.34630385 -0.84863853 51 132 114
-0.095733762 0.34893304 -0.84943765 53 133 113
-0.096022449 0.34669644 -0.84814686 53 132 114
-0.095503569 0.34841087 -0.85021168 51 134 112
-0.095629215 0.34904444 -0.84985548 52 134 112
-0.095726162 0.34285966 -0.84843087 59 130 115
-0.095845796 0.34360778 -0.84820288 56 131 114
-0.095165685 0.34379312 -0.85034472 55 131 115
-0.095072627 0.34386614 -0.85066515 54 132 115
-0.095570914 0.34431747 -0.84900415 54 132 114
-0.095599517 0.34396741 -0.84888935 55 131 115
-0.095421731 0.34403822 -0.84949267 55 132 115
-0.09556634 0.34534168 -0.84907299 51 132 114
-0.095495142 0.34112889 -0.84898061 60 129 117
-0.09499494 0.34141272 -0.85075229 58 130 116
-0.095485508 0.33977756 -0.84865981 57 129 118
-0.094860002 0.34142399 -0.85121119 57 129 117
-0.09543474 0.34028345 -0.84897369 58 129 118
-0.094860882 0.33867505 -0.85053271 52 129 118
-0.095174141 0.33796698 -0.8492502 54 128 120
-0.094880596 0.33944461 -0.85064423 53 130 118
-0.095336005 0.33840969 -0.84877831 56 127 119
-0.094621085 0.33675727 -0.85102421 42 131 118
-0.094349243 0.33508584 -0.85159796 35 130 119
-0.094593056 0.33410943 -0.85059136 33 132 118
-0.095211968 0.33435437 -0.84857732 36 132 120
-0.095333077 0.33401766 -0.8481068 36 132 120
-0.094717681 0.33705008 -0.85073638 44 130 118
-0.095080443 0.33523929 -0.84918398 38 130 119
-0.095160224 0.33685344 -0.84913236 47 129 119
-0.095246501 0.33701813 -0.84884888 49 129 119
-0.095340252 0.33503169 -0.84822905 40 131 119
-0.09532512 0.3347429 -0.84824133 38 130 119
-0.094158217 0.33177963 -0.85156703 24 131 119
-0.094363585 0.33259127 -0.8511259 26 131 119
-0.094256707 0.33243471 -0.85140866 26 131 119
-0.094930977 0.33235723 -0.84928888 27 133 120
-0.094718106 0.3338449 -0.8501367 32 132 119
-0.094307087 0.33384565 -0.85150659 30 132 119
-0.094737537 0.33370781 -0.85005915 32 131 120
-0.095261991 0.3331494 -0.84825939 30 132 119
-0.11160189 0.3616406 -0.82792723 72 141 113
-0.11213309 0.36197248 -0.82753515 76 139 114
-0.11170758 0.35979772 -0.82770443 72 139 112
-0.11243853 0.35832036 -0.82701302 74 135 113
-0.11214599 0.3598437 -0.82735389 72 139 113
-0.11229939 0.35826921 -0.82712173 74 135 112
-0.11141279 0.36053598 -0.82799304 70 140 112
-0.11213697 0.35778716 -0.82721955 76 134 112
-0.11274036 0.36067033 -0.82693833 69 139 113
-0.11246297 0.3611989 -0.82720083 68 140 112
-0.11114124 0.35873777 -0.82812303 75 135 112
-0.11131913 0.35818225 -0.8279084 75 134 111
-0.1122378 0.35373893 -0.82689309 86 131 116
-0.1137135 0.35520503 -0.82577819 82 132 116
-0.11465329 0.35429144 -0.824893 81 132 117
-0.11193229 0.35370287 -0.82714927 87 130 116
-0.11327302 0.35519218 -0.82615113 83 132 116
-0.11141952 0.35375544 -0.82758355 88 130 115
-0.11259472 0.35628539 -0.82676637 80 132 114
-0.11148836 0.35455376 -0.82756931 85 131 114
-0.11194349 0.35598326 -0.82727605 81 131 114
-0.11110989 0.35462525 -0.82790387 85 131 114
-0.11054383 0.35519278 -0.82843614 82 131 114
-0.111297 0.35696357 -0.82785201 78 132 112
-0.11394519 0.35321054 -0.82539582 84 130 117
-0.11138797 0.35297224 -0.82754892 90 129 116
-0.11189444 0.35124907 -0.8269757 93 128 117
-0.11278019 0.35284019 -0.82635498 87 130 116
-0.11214105 0.35281011 -0.82689559 89 129 117
-0.11246802 0.35250041 -0.82659203 89 129 117
-0.11352077 0.35080284 -0.8255474 89 129 118
-0.11302558 0.350568 -0.8259511 91 129 117
-0.11327612 0.35065717 -0.82574415 90 129 117
-0.11456338 0.35102415 -0.82467264 83 131 117
-0.11374219 0.35009781 -0.82529342 88 129 117
-0.11039465 0.35023764 -0.82828927 93 128 117
-0.11044765 0.34970635 -0.82820863 95 127 117
-0.11126376 0.35295051 -0.8276546 90 129 116
-0.1107562 0.35204849 -0.82802635 91 128 116
-0.11136671 0.34916461 -0.82730299 97 127 117
-0.1125591 0.34801239 -0.82631922 88 129 118
-0.11177523 0.34784287 -0.82699776 90 128 117
-0.11139377 0.34616992 -0.8273825 85 129 117
-0.11135402 0.34763536 -0.82736635 91 128 117
-0.11296164 0.34622285 -0.82593679 85 130 118
-0.11258961 0.34575957 -0.82627177 85 129 118
-0.11376261 0.34812009 -0.82524377 85 130 118
-0.11411348 0.34810388 -0.82491368 85 130 118
-0.11319222 0.34649172 -0.82572865 85 130 118
-0.11223335 0.34638917 -0.82662606 85 129 118
-0.11068284 0.34673065 -0.82806635 86 129 116
-0.11102354 0.34620678 -0.82774287 85 129 116
-0.11090098 0.34751281 -0.82782096 89 128 117
-0.11097983 0.34842125 -0.82771081 93 127 117
-0.11269242 0.34525058 -0.82615656 83 129 118
-0.11202246 0.34567031 -0.82680148 84 129 118
-0.11326141 0.34520951 -0.82562053 84 129 118
-0.11255798 0.34383988 -0.82623005 80 129 118
-0.11141331 0.34524903 -0.82735789 82 129 117
-0.11257868 0.34348169 -0.82619721 79 129 118
-0.11378087 0.342489 -0.82493424 74 132 117
-0.11304846 0.34184805 -0.8256101 72 132 117
-0.11312088 0.3424862 -0.82558727 75 131 117
-0.1135433 0.34354484 -0.82525015 79 130 118
-0.11317687 0.34341171 -0.82560265 78 130 118
-0.1112158 0.34203467 -0.82742894 74 130 117
-0.11052477 0.343187 -0.82815355 76 130 117
-0.11030424 0.34470424 -0.82843667 79 129 117
-0.11095982 0.34466895 -0.82778525 80 129 117
-0.11101457 0.34447429 -0.82772315 79 130 116
-0.11160527 0.33955377 -0.82691282 65 133 118
-0.11313408 0.34091124 -0.82547337 68 134 117
-0.11343325 0.34105167 -0.82518488 69 133 117
-0.11244248 0.34034976 -0.82612741 67 134 117
-0.11222603 0.34021509 -0.8263343 66 133 117
-0.11321449 0.34080136 -0.82538784 68 134 117
-0.11351369 0.33931696 -0.82496142 58 134 117
-0.11386024 0.34077725 -0.82472581 65 134 116
-0.113028 0.339908 -0.82551175 64 134 117
-0.11321823 0.33789873 -0.82514781 50 134 118
-0.11006248 0.33938569 -0.82842112 65 132 119
-0.110184 0.33967948 -0.82831573 66 132 119
-0.11027809 0.34170023 -0.82832575 72 130 117
-0.11126386 0.33960217 -0.82725233 65 132 118
-0.11307625 0.33769742 -0.82528877 48 135 117
-0.11187059 0.3367264 -0.8265081 48 136 118
-0.11189535 0.33704427 -0.82649052 51 135 118
-0.11155991 0.33465454 -0.82677662 36 137 118
-0.11182586 0.33409393 -0.82650584 33 138 117
-0.11238473 0.33493307 -0.82595211 36 136 118
-0.11334957 0.33556828 -0.82499629 38 135 118
-0.11205486 0.33504289 -0.82627881 36 136 117
-0.11218081 0.33530152 -0.82615399 38 136 117
-0.10980228 0.3345415 -0.82848507 36 135 118
-0.10992242 0.33727702 -0.82846451 57 134 120
-0.1101362 0.33489844 -0.82817644 38 136 118
-0.11111349 0.33549419 -0.82724869 44 136 119
-0.11102639 0.33675563 -0.82736635 52 135 119
-0.11087223 0.33774257 -0.82754338 58 134 119
-0.10193171 0.37011459 -0.84110576 38 132 110
-0.099712625 0.36746141 -0.84412861 52 133 112
-0.10002089 0.3672097 -0.8435272 54 132 112
-0.1006717 0.36684823 -0.84234798 57 131 113
-0.10048147 0.36684585 -0.84265739 57 131 113
-0.10006964 0.36652741 -0.843225 58 132 113
-0.10117044 0.36532387 -0.84103721 66 129 113
-0.099945128 0.36700237 -0.84358305 55 131 113
-0.10136208 0.36849466 -0.8416428 48 131 111
-0.10078106 0.36747244 -0.8423667 53 131 112
-0.10048362 0.36877698 -0.84325099 45 133 111
-0.10128329 0.36733213 -0.84145319 54 131 112
-0.10137733 0.36668935 -0.84110886 58 130 112
-0.10098647 0.36768261 -0.84206825 53 130 112
-0.10025778 0.36883634 -0.84366071 45 132 112
-0.099991895 0.36400181 -0.84262335 69 130 114
-0.10063668 0.36511895 -0.84184963 67 130 113
-0.10055261 0.36346811 -0.84157634 72 129 114
-0.10025536 0.36386994 -0.84216094 70 129 114
-0.099685512 0.3651042 -0.84339702 65 132 113
-0.10061489 0.36251923 -0.84128731 74 129 114
-0.10041113 0.36277524 -0.84164077 74 128 114
-0.10068776 0.36225063 -0.84112853 75 129 115
-0.099114798 0.36263481 -0.84372318 69 130 114
-0.098731808 0.36173484 -0.8440786 68 130 112
-0.099562094 0.36403891 -0.84334755 69 131 114
-0.10056569 0.36000201 -0.84090298 81 128 117
-0.09970279 0.35988775 -0.84218085 81 128 116
-0.10014156 0.35966146 -0.84147954 82 128 117
-0.10103832 0.36130628 -0.84042823 77 129 117
-0.10055057 0.35873905 -0.84068549 83 128 117
-0.10053447 0.35805908 -0.84057945 85 128 117
-0.1004476 0.35775957 -0.84065497 86 127 117
-0.098759256 0.35973448 -0.84369934 76 127 114
-0.099319324 0.35825077 -0.8425017 85 126 117
-0.098530553 0.35857615 -0.8439784 79 126 115
-0.09901017 0.36098754 -0.84346563 73 129 114
-0.099309765 0.36011833 -0.84283561 78 127 115
-0.098926276 0.36024594 -0.84346354 75 128 114
-0.10056375 0.35728636 -0.84040451 86 127 117
-0.10050628 0.35733017 -0.84049505 86 127 117
-0.099858411 0.35570613 -0.84139663 84 128 117
-0.10051518 0.35389045 -0.84030414 77 130 116
-0.10032497 0.35577542 -0.84068751 82 129 117
-0.10061016 0.35547125 -0.84024066 81 129 117
-0.099069305 0.3546252 -0.84272224 80 128 117
-0.098840937 0.35422677 -0.84315449 80 127 117
-0.098440774 0.35373598 -0.84391648 80 127 117
-0.098420203 0.3557587 -0.84400016 81 127 116
-0.099327296 0.35524544 -0.84226656 82 128 116
-0.098827288 0.35723552 -0.84328967 85 126 117
-0.099337533 0.35712287 -0.84235317 87 126 117
-0.098680831 0.35683501 -0.84353417 82 126 116
-0.10030033 0.35297808 -0.84063208 75 132 116
-0.10015654 0.35338265 -0.84083319 76 131 116
-0.10040164 0.35095498 -0.84046644 71 135 114
-0.10010544 0.34991089 -0.84096611 68 138 114
-0.1001875 0.35095739 -0.84083366 70 135 115
-0.098503105 0.34967253 -0.84397709 66 133 117
-0.098524258 0.35089761 -0.84387487 71 132 117
-0.09847293 0.35009903 -0.844015 67 134 117
-0.098880231 0.34970844 -0.84323692 66 135 116
-0.099413581 0.35101506 -0.84213513 70 135 115
-0.099156328 0.35110015 -0.84262836 70 134 116
-0.099244334 0.35283259 -0.84238797 77 131 117
-0.09938293 0.3525281 -0.84213269 76 131 117
-0.099674575 0.34844005 -0.84150052 66 137 114
-0.099885136 0.3468782 -0.84086961 69 133 115
-0.099760458 0.34779796 -0.84124231 67 135 114
-0.099763043 0.34611064 -0.84095603 69 132 115
-0.099464357 0.34597346 -0.84146392 68 132 115
-0.098422676 0.34837842 -0.84388918 65 133 116
-0.099114269 0.34582832 -0.84208632 66 132 115
-0.098290324 0.34672177 -0.84380084 64 133 115
-0.098583862 0.3493813 -0.84378278 65 134 117
-0.098935381 0.34826943 -0.84290236 67 133 117
-0.099063262 0.34844846 -0.84268296 66 135 115
-0.099316716 0.3473739 -0.84200102 66 133 115
-0.099924549 0.34516081 -0.84052318 69 130 115
-0.099967502 0.34521949 -0.84047073 69 130 116
-0.098426625 0.3454099 -0.84327149 63 132 114
-0.098835565 0.34471795 -0.8423456 63 131 115
-0.099584639 0.34449974 -0.84089923 64 132 114
-0.099252909 0.34369528 -0.84132552 61 131 114
-0.098190628 0.34298587 -0.84326565 58 133 114
-0.0980893 0.34504637 -0.84383839 62 133 114
-0.098223269 0.34345114 -0.84328383 59 133 113
-0.098476611 0.34435713 -0.84293902 60 133 113
-0.098058797 0.342556 -0.84345251 58 132 114
-0.099097364 0.34291413 -0.84143704 58 133 114
-0.099472694 0.339789 -0.84053886 53 134 113
-0.099215001 0.33863023 -0.84104383 51 133 113
-0.09922678 0.34100139 -0.84092551 55 132 114
-0.098712437 0.33847338 -0.84194225 51 133 115
-0.098512314 0.3381345 -0.84231138 51 133 116
-0.099285454 0.34074289 -0.84083205 54 133 114
-0.097968034 0.34125048 -0.84345329 56 132 114
-0.099329457 0.34165126 -0.84075981 56 132 113
-0.09758053 0.33883637 -0.84403127 52 132 117
-0.097985119 0.34052718 -0.84335971 54 133 114
-0.097757377 0.34051913 -0.84381515 54 133 114
-0.097912103 0.34037757 -0.8434937 54 133 114
-0.098829366 0.33519885 -0.84183502 47 131 117
-0.098471388 0.33569607 -0.8424384 47 132 117
-0.097848102 0.33604798 -0.84346205 46 133 117
-0.097764872 0.33437932 -0.84350878 38 133 118
-0.09861812 0.33556452 -0.84219486 47 132 117
-0.098494582 0.33742338 -0.84236944 49 133 115
-0.098307207 0.33767417 -0.84269303 50 133 116
-0.098503374 0.33646843 -0.8423878 48 132 117
-0.097832106 0.33763757 -0.84353751 51 131 117
-0.099265262 0.3376652 -0.84099311 48 134 113
-0.098301932 0.33755991 -0.8427065 50 132 116
-0.099749006 0.3332603 -0.84025699 44 131 118
-0.097826682 0.33390489 -0.84338039 37 134 117
-0.099529319 0.33296579 -0.84053987 42 131 118
-0.098263226 0.33383361 -0.84266919 40 132 118
-0.098175302 0.33303466 -0.8427304 37 133 118
-0.099430755 0.33033574 -0.84042579 33 132 119
-0.098788999 0.33211023 -0.84164673 36 133 119
-0.098012172 0.33243284 -0.84294331 33 133 118
-0.097895823 0.33133158 -0.84306574 29 132 120
-0.097365454 0.33363923 -0.844109 35 133 119
-0.098076843 0.3304297 -0.84270215 27 133 120
-0.097478434 0.33266172 -0.84385461 33 132 119
-0.098874964 0.33107543 -0.84140486 33 132 118
-0.097868994 0.33247712 -0.84318662 33 133 119
-0.098257035 0.32985649 -0.84238148 26 131 120
-0.098900445 0.32970417 -0.84130466 28 131 120
-0.098834336 0.3291713 -0.8414281 25 133 119
-0.094022065 0.33238083 -0.85216653 25 131 119
0 0 0 1 0 0 0 1 0 0 0 1 0 0 0 0 0 936 1 0 0
