ply
format ascii 1.0
comment PCL generated
element vertex 1036
property float x
property float y
property float z
property uchar red
property uchar green
property uchar blue
element camera 1
property float view_px
property float view_py
property float view_pz
property float x_axisx
property float x_axisy
property float x_axisz
property float y_axisx
property float y_axisy
property float y_axisz
property float z_axisx
property float z_axisy
property float z_axisz
property float focal
property float scalex
property float scaley
property float centerx
property float centery
property int viewportx
property int viewporty
property float k1
property float k2
end_header
0.29357326 -0.08000122 -0.87569934 36 132 115
0.29462925 -0.079661481 -0.87673557 32 133 115
0.29635558 -0.078023665 -0.87921262 33 132 118
0.29577449 -0.079335824 -0.87836528 34 133 116
0.29576671 -0.079168513 -0.87833512 34 132 117
0.29607871 -0.07935632 -0.87888068 36 132 116
0.29436252 -0.08014372 -0.87646526 34 133 114
0.29590392 -0.080240659 -0.87867129 36 133 115
0.31035182 -0.036153603 -0.89787406 26 133 124
0.30988908 -0.035466935 -0.89709157 24 131 125
0.31009597 -0.035055824 -0.8975752 21 133 125
0.30901971 -0.036660634 -0.89540619 25 131 125
0.30946085 -0.036860704 -0.89617211 27 131 126
0.30913541 -0.036069803 -0.89566505 24 131 125
0.30935469 -0.036239695 -0.89603943 25 131 125
0.31071335 -0.036385141 -0.89856583 28 131 126
0.30984983 -0.037784591 -0.89689982 30 132 125
0.31035331 -0.038159054 -0.89782721 33 132 125
0.31009778 -0.03767911 -0.8973313 30 132 124
0.31020865 -0.039559964 -0.89769197 38 129 126
0.30996734 -0.03743317 -0.8970781 30 131 125
0.30878335 -0.037978418 -0.8950491 28 129 126
0.30992329 -0.040108372 -0.89724785 40 129 127
0.30932957 -0.040480915 -0.89628047 38 129 127
0.31038958 -0.040765613 -0.8981216 42 130 126
0.30856109 -0.040426265 -0.89496392 36 129 126
0.31074911 -0.038513452 -0.89862931 36 132 126
0.30977124 -0.04169875 -0.89730579 43 129 127
0.30997241 -0.041053001 -0.89745176 42 130 126
0.3098416 -0.04288692 -0.89781874 45 129 128
0.30969137 -0.043514922 -0.8977766 45 129 128
0.31013638 -0.042518456 -0.89819157 45 128 128
0.3097223 -0.042297758 -0.89741999 44 128 128
0.30976611 -0.044622935 -0.89818102 48 128 129
0.30855247 -0.042323705 -0.89517409 40 129 127
0.30871013 -0.043827936 -0.89567494 44 129 128
0.30854139 -0.043008279 -0.89521104 42 129 127
0.30938509 -0.043505225 -0.89720082 44 129 128
0.3087692 -0.044339683 -0.89585781 45 130 128
0.31058556 -0.041558091 -0.89865434 45 129 127
0.30885488 -0.048290774 -0.89695328 45 131 128
0.30925918 -0.0484671 -0.89805377 45 131 128
0.30957881 -0.046306521 -0.89813161 46 130 128
0.30846849 -0.048051521 -0.8958773 45 131 128
0.30832386 -0.048277106 -0.89558309 44 131 128
0.30898929 -0.047248159 -0.89693993 46 130 128
0.30858579 -0.04518326 -0.89554197 46 130 128
0.30926588 -0.045449909 -0.89716369 46 130 128
0.30882919 -0.046578377 -0.89638841 46 130 128
0.3083728 -0.046129592 -0.89524484 46 130 128
0.30893865 -0.046735805 -0.8966729 46 130 128
0.30852276 -0.046948045 -0.89575791 45 131 128
0.30867824 -0.051016785 -0.89736551 46 131 126
0.30823651 -0.052064363 -0.89655197 47 132 126
0.3089985 -0.050675012 -0.8980996 46 131 126
0.30812997 -0.052391279 -0.89638144 47 133 125
0.30798879 -0.052465025 -0.89603126 47 133 125
0.30893454 -0.050100826 -0.89773118 46 131 127
0.3077623 -0.051869843 -0.89524198 46 133 126
0.30891624 -0.049491104 -0.89749515 45 131 127
0.30816436 -0.050346904 -0.89581865 45 132 127
0.30827332 -0.049240433 -0.89576668 44 132 127
0.30809626 -0.050829917 -0.89578855 45 132 126
0.30831897 -0.051083867 -0.89643753 46 132 126
0.30797935 -0.056350403 -0.89723259 56 131 124
0.30879661 -0.053679831 -0.8985725 51 131 124
0.30724192 -0.05647824 -0.89528221 54 132 124
0.308043 -0.055620287 -0.89716733 54 131 124
0.30756783 -0.055897485 -0.89597386 53 132 124
0.3083365 -0.055095132 -0.89778942 54 130 124
0.30750686 -0.054697815 -0.895441 51 133 125
0.30810356 -0.053121977 -0.89654785 48 132 125
0.30779657 -0.053498577 -0.89584595 48 133 125
0.30866641 -0.052834485 -0.89795786 47 132 125
0.30781567 -0.053748023 -0.89597297 48 133 125
0.30740097 -0.060166992 -0.89633328 70 127 125
0.30776539 -0.060197417 -0.89730883 70 127 125
0.30769178 -0.059585366 -0.89702129 68 128 124
0.30737874 -0.059550591 -0.89618194 68 128 125
0.30791172 -0.059262156 -0.89755899 66 128 124
0.30833277 -0.05848496 -0.89856464 64 128 124
0.30776426 -0.058234364 -0.89700943 63 129 124
0.3080782 -0.057095829 -0.89766926 59 130 124
0.30718455 -0.057563573 -0.89533263 58 132 124
0.30751029 -0.058975231 -0.89644575 66 128 125
0.30694306 -0.059270263 -0.89496243 65 130 124
0.30727741 -0.059497401 -0.89590311 67 129 124
0.30755854 -0.062921636 -0.89727783 71 129 126
0.30755973 -0.064096749 -0.8975805 73 128 126
0.30704385 -0.061244182 -0.89557868 71 127 126
0.30775854 -0.06388554 -0.89801764 73 127 127
0.30693093 -0.063975111 -0.89599627 74 129 126
0.30817369 -0.061847381 -0.89870429 71 127 126
0.30789495 -0.060684629 -0.89773327 71 127 126
0.30726472 -0.06145265 -0.89620495 71 127 126
0.30781674 -0.063107103 -0.89800072 71 129 126
0.30787271 -0.061704267 -0.89787424 71 127 126
0.30642813 -0.065276042 -0.89523876 72 128 126
0.30638823 -0.065015554 -0.89511019 72 128 126
0.3061789 -0.066995777 -0.89514196 69 127 127
0.30626744 -0.067267932 -0.89536828 69 127 127
0.30668971 -0.068247795 -0.89640379 70 128 127
0.30727997 -0.067291416 -0.89759624 70 127 127
0.3076117 -0.06670066 -0.89825732 70 127 127
0.30763948 -0.066965207 -0.89836663 69 129 127
0.30697682 -0.067390315 -0.89691508 70 128 127
0.30722669 -0.065158315 -0.89701283 73 128 126
0.30668858 -0.067525305 -0.89623451 70 129 126
0.30719882 -0.066603385 -0.89728028 71 128 127
0.30726582 -0.066421635 -0.89740348 71 128 127
0.3063553 -0.068700835 -0.89576364 67 128 127
0.30651188 -0.068686567 -0.89606029 68 128 127
0.30595824 -0.069477759 -0.89499646 63 129 127
0.30609491 -0.071495734 -0.89521456 60 128 127
0.30754331 -0.069082722 -0.89837652 66 129 127
0.30744267 -0.070080467 -0.89822388 63 129 127
0.30739307 -0.070262067 -0.89810705 63 128 128
0.30731988 -0.069970831 -0.89785963 65 128 128
0.30697387 -0.070012197 -0.89704394 65 128 128
0.30692479 -0.070925154 -0.89691341 63 127 129
0.30706212 -0.068834536 -0.89726973 68 127 127
0.30673245 -0.071662463 -0.8964569 62 127 129
0.30653077 -0.073251583 -0.89651328 55 129 127
0.30637294 -0.072509244 -0.89584666 58 128 128
0.30648878 -0.075676419 -0.89762521 46 129 127
0.30566323 -0.073603511 -0.89497763 54 129 127
0.30600372 -0.074399613 -0.89604175 51 129 127
0.30527252 -0.07606364 -0.89535236 47 130 125
0.30554762 -0.074181169 -0.89501745 53 129 126
0.30679709 -0.076123193 -0.89848578 43 130 126
0.30743295 -0.072644338 -0.89867634 57 129 128
0.30693176 -0.074580379 -0.89820731 50 128 128
0.3067821 -0.074754104 -0.89786726 50 128 128
0.30573243 -0.076243006 -0.89637363 46 130 125
0.30555433 -0.076299511 -0.89604682 46 130 125
0.30532035 -0.076445378 -0.89565879 46 131 124
0.30570647 -0.078979388 -0.8979004 46 133 120
0.30610088 -0.07720352 -0.89767462 44 131 123
0.30602941 -0.078298695 -0.89816129 44 133 120
0.30558354 -0.079467274 -0.89773607 47 133 120
0.30553669 -0.079917379 -0.89770317 47 132 120
0.30513021 -0.078617096 -0.89594358 47 132 122
0.30488613 -0.078583442 -0.89509839 48 131 123
0.30500028 -0.080014691 -0.89589441 49 131 121
0.30516613 -0.077001169 -0.89560908 46 132 123
0.30547199 -0.080494463 -0.89776665 49 132 119
0.30553249 -0.080324404 -0.89787596 48 132 119
0.31347299 -0.04398755 -0.91076297 43 129 128
0.31179994 -0.048426908 -0.91281819 36 133 124
0.31232899 -0.047599975 -0.91271299 36 133 124
0.31243113 -0.048471626 -0.91182357 42 131 125
0.31207806 -0.048419733 -0.91240257 38 132 124
0.31314379 -0.046771742 -0.91131359 42 132 125
0.31331509 -0.045578219 -0.91115749 42 130 127
0.31325299 -0.045976039 -0.91123247 42 130 126
0.31323615 -0.045963254 -0.91131622 42 130 126
0.3110339 -0.049381137 -0.9138307 33 133 123
0.31150863 -0.051909234 -0.91397822 40 131 125
0.31204453 -0.051197663 -0.91292179 43 132 125
0.31122813 -0.049064692 -0.91342771 35 133 123
0.31240028 -0.049269967 -0.91172141 44 131 125
0.31119362 -0.050425306 -0.91394675 36 132 124
0.311683 -0.05009719 -0.91309237 40 131 124
0.31241041 -0.052299272 -0.91121155 42 133 125
0.31281617 -0.050709657 -0.91056842 46 132 126
0.31171522 -0.052187078 -0.91358477 42 131 126
0.31262627 -0.051349044 -0.91091621 45 132 126
0.31176075 -0.05231753 -0.91337425 41 132 125
0.31195146 -0.052306999 -0.91274172 42 131 126
0.31142557 -0.054246984 -0.91376126 43 131 124
0.3114171 -0.055156514 -0.91402203 44 132 123
0.31145445 -0.054094076 -0.91318083 42 132 124
0.3113876 -0.053561695 -0.91443044 42 131 125
0.31146303 -0.055159464 -0.91312551 44 132 123
0.31153762 -0.055959802 -0.91175252 45 132 123
0.31214896 -0.05353019 -0.91124481 42 133 124
0.3114295 -0.053260364 -0.91386747 41 132 124
0.31171104 -0.05466019 -0.91179192 43 133 124
0.31224671 -0.053653792 -0.91081804 42 133 124
0.31207943 -0.053841617 -0.9112246 42 133 124
0.31150627 -0.060309023 -0.91121995 51 132 124
0.3113679 -0.059022002 -0.91424549 42 132 122
0.31133735 -0.060020749 -0.91445142 40 130 122
0.31140465 -0.058670022 -0.91369146 45 132 123
0.31144795 -0.060069472 -0.91238648 47 132 124
0.31154573 -0.05976817 -0.91064978 52 133 125
0.31155738 -0.058890473 -0.910707 50 133 124
0.31154299 -0.057867385 -0.91132063 48 132 123
0.31144148 -0.057070781 -0.91356182 47 132 123
0.31156701 -0.057828575 -0.91086429 48 132 124
0.31095117 -0.061742608 -0.91384697 38 130 122
0.3108736 -0.063022204 -0.91221023 42 128 123
0.31119013 -0.061618973 -0.91289234 43 129 123
0.31111917 -0.062107503 -0.91233945 43 129 124
0.31110671 -0.062207486 -0.91218823 43 129 123
0.31107065 -0.062689595 -0.91101372 47 128 125
0.31133544 -0.061496645 -0.91066945 50 131 124
0.31135672 -0.061399389 -0.91064668 51 131 125
0.30721235 -0.076758809 -0.91139656 31 131 123
0.3074677 -0.076868013 -0.91119689 33 131 122
0.30846283 -0.076585494 -0.91069543 40 132 121
0.30327764 -0.043922599 -0.88580292 26 131 125
0.30348158 -0.044037703 -0.88619775 26 131 125
0.30322444 -0.043817427 -0.88568354 26 131 125
0.30325624 -0.043179143 -0.88561261 25 131 125
0.30306983 -0.043935336 -0.88543242 26 130 126
0.30350187 -0.042947594 -0.88600016 25 131 125
0.30394673 -0.041177608 -0.88643706 23 131 123
0.30304721 -0.043655589 -0.88533765 25 131 125
0.30264986 -0.045159414 -0.8849932 26 131 126
0.30235752 -0.047810517 -0.88513875 25 133 127
0.30243942 -0.045091584 -0.88478684 25 131 126
0.30188876 -0.047880504 -0.88465428 23 133 127
0.3018401 -0.047793444 -0.88459456 23 133 127
0.30227685 -0.048183143 -0.88510096 25 133 127
0.3033278 -0.047552381 -0.88662189 27 134 127
0.30277774 -0.048790902 -0.885737 26 134 127
0.30320662 -0.046350297 -0.88611615 27 133 126
0.3032347 -0.045560561 -0.88604277 27 131 126
0.30368769 -0.04550837 -0.88685608 28 131 127
0.30262959 -0.048834551 -0.88553578 26 134 127
0.30216637 -0.056404401 -0.88623083 31 135 122
0.30237558 -0.059572674 -0.88646948 45 131 122
0.30135345 -0.058241285 -0.88510597 36 130 123
0.30157149 -0.058740474 -0.88539112 39 130 123
0.3011269 -0.057837855 -0.88480663 33 131 123
0.30265731 -0.057378463 -0.88691419 37 134 122
0.30150354 -0.058411706 -0.88530689 38 130 123
0.30234331 -0.060417056 -0.88643211 48 130 123
0.30138177 -0.05876217 -0.88513786 39 130 123
0.30174273 -0.06001316 -0.88565159 43 131 122
0.30072087 -0.059644815 -0.88433766 36 130 123
0.3002905 -0.060593337 -0.88383514 35 130 122
0.30137751 -0.060908463 -0.88524336 44 130 122
0.3013666 -0.061516307 -0.88528329 47 129 123
0.30226734 -0.062894613 -0.8865515 59 127 123
0.30214456 -0.063362516 -0.88643897 59 126 123
0.30222484 -0.063048951 -0.88651186 59 126 123
0.30159029 -0.063355424 -0.88571608 56 126 123
0.30084208 -0.062019046 -0.88466364 45 128 122
0.30163971 -0.063821882 -0.88579583 58 127 123
0.3010245 -0.062913038 -0.88493568 50 127 123
0.30139813 -0.064115018 -0.8854757 57 126 123
0.30073148 -0.063455917 -0.88455242 49 127 123
0.30009604 -0.060975328 -0.88362217 36 130 122
0.30247423 -0.065776125 -0.887034 65 126 124
0.30085281 -0.067152977 -0.88488066 55 127 126
0.30236754 -0.065651484 -0.88687748 65 125 124
0.30118737 -0.067873336 -0.88539416 57 129 125
0.30058697 -0.067777775 -0.88455504 53 129 126
0.30145004 -0.06774348 -0.8857494 59 128 125
0.30231693 -0.066034585 -0.88683373 65 126 124
0.29987234 -0.065940157 -0.88348246 46 129 125
0.30037344 -0.067174062 -0.8842209 52 128 126
0.29970816 -0.068188943 -0.88336504 46 130 127
0.30176258 -0.064796045 -0.88599592 61 126 124
0.30072561 -0.065196559 -0.88460636 53 128 124
0.30073351 -0.064956643 -0.88460582 53 127 124
0.30098158 -0.065844551 -0.88498449 56 126 125
0.30216715 -0.069136903 -0.88695592 61 129 125
0.30222079 -0.069220968 -0.88708144 61 129 125
0.30198357 -0.070431381 -0.88706875 59 129 125
0.30019176 -0.072265908 -0.8844679 45 130 125
0.30152237 -0.070631534 -0.88630605 56 129 125
0.29979017 -0.072205789 -0.88372344 42 130 125
0.30208144 -0.069663271 -0.88698184 60 129 125
0.30008766 -0.06930688 -0.88393408 48 129 126
0.30001387 -0.0711319 -0.88389194 45 130 125
0.30190018 -0.068417974 -0.88641793 61 128 125
0.29969147 -0.069956914 -0.88340622 45 129 126
0.30061463 -0.069865637 -0.88468325 51 129 125
0.30114871 -0.069722325 -0.88541895 55 129 125
0.29966873 -0.071508586 -0.88342589 42 130 125
0.30107364 -0.074654393 -0.88631177 46 130 124
0.30083141 -0.074159175 -0.8858034 47 131 124
0.3004711 -0.075449653 -0.88528901 42 130 123
0.30034405 -0.076161489 -0.88513815 40 130 122
0.30016014 -0.075677022 -0.88473934 40 130 122
0.30144468 -0.07356368 -0.88686985 50 130 125
0.30056232 -0.073869966 -0.88527656 47 131 124
0.29994163 -0.074651927 -0.88422626 42 130 123
0.30004525 -0.073617265 -0.88432235 43 130 124
0.2995376 -0.075372256 -0.88356119 39 131 122
0.29951894 -0.075786874 -0.88356388 39 131 122
0.29962021 -0.074856989 -0.88366491 40 130 122
0.30051896 -0.079025686 -0.88594097 42 132 119
0.3001577 -0.078559458 -0.88510633 41 132 119
0.3004325 -0.07814505 -0.88557172 40 132 119
0.30044129 -0.078167439 -0.88559443 40 132 119
0.30072117 -0.07868515 -0.88627559 42 132 120
0.30000937 -0.07932622 -0.88497478 41 133 117
0.29957765 -0.07689669 -0.88380295 38 133 119
0.29958495 -0.078152515 -0.88396382 38 132 118
0.30093658 -0.07675527 -0.88630676 41 131 122
0.30012283 -0.07807371 -0.88495219 40 132 119
0.30075723 -0.076390743 -0.88593137 40 130 122
0.30049261 -0.07645312 -0.88544792 40 130 122
0.30002257 -0.080475152 -0.88529313 44 132 118
0.30062854 -0.080578767 -0.88655365 47 131 120
0.29987073 -0.080497533 -0.88499266 43 132 118
0.31223938 -0.036318816 -0.90238607 34 131 127
0.3122364 -0.034878172 -0.90243852 30 131 127
0.31215346 -0.03601798 -0.90217239 33 131 126
0.31161764 -0.037002705 -0.90072006 34 129 126
0.31169894 -0.036799032 -0.90094256 33 131 126
0.31228212 -0.036621992 -0.90248597 35 130 127
0.31089911 -0.034904566 -0.89925247 24 133 125
0.3112067 -0.035925142 -0.89973515 29 131 126
0.31112522 -0.035898525 -0.89955992 28 131 126
0.31101626 -0.035124622 -0.89946908 25 133 125
0.31116194 -0.036213499 -0.89957994 29 131 125
0.31132048 -0.040575892 -0.90024585 44 129 127
0.31203368 -0.039056402 -0.90199959 40 129 127
0.31155592 -0.040232938 -0.90084153 43 129 127
0.31220865 -0.037958879 -0.90235311 38 130 127
0.31119394 -0.040879838 -0.89993829 44 130 126
0.31124821 -0.039185695 -0.89991885 40 130 126
0.31165183 -0.038778938 -0.90094739 40 130 127
0.31090596 -0.040344339 -0.89911598 43 129 126
0.31103247 -0.040223539 -0.89943886 43 129 126
0.31221205 -0.037490115 -0.90231341 37 130 127
0.3108454 -0.040291335 -0.89895189 42 130 126
0.31026107 -0.04426866 -0.89897835 48 129 128
0.31055325 -0.042998858 -0.89904118 47 129 128
0.31140858 -0.043407932 -0.90115404 45 129 128
0.31169993 -0.044859678 -0.9023447 45 130 129
0.31084073 -0.043289658 -0.89976621 46 129 128
0.3107706 -0.041669779 -0.89904255 45 129 127
0.31144315 -0.043489795 -0.90126419 45 129 128
0.31191322 -0.043668475 -0.90256727 44 130 128
0.31181464 -0.042807471 -0.90208071 45 129 128
0.31127492 -0.041648783 -0.90033317 44 129 127
0.31138036 -0.04163998 -0.9006139 44 129 127
0.31199312 -0.041646101 -0.90226048 45 129 128
0.31053439 -0.044970389 -0.8996228 49 128 129
0.31017268 -0.047116827 -0.89955229 47 130 128
0.30972025 -0.048652887 -0.89913821 46 131 127
0.31022301 -0.048288576 -0.89990008 47 130 128
0.31132555 -0.047146402 -0.90198052 45 131 128
0.31118152 -0.047885124 -0.90180141 45 132 127
0.31138134 -0.048048943 -0.90227991 45 132 126
0.31065899 -0.047664173 -0.90055245 47 130 128
0.31072828 -0.045594729 -0.900222 48 129 129
0.31062207 -0.04595913 -0.90005708 48 130 128
0.31092241 -0.047384784 -0.90111059 46 130 128
0.31070933 -0.04611617 -0.90030169 48 129 129
0.30977577 -0.049445659 -0.89946347 47 131 127
0.31042513 -0.050853461 -0.90099257 53 130 127
0.30976349 -0.051207826 -0.89990228 51 131 127
0.30949786 -0.051071059 -0.89935905 49 131 126
0.31011483 -0.051705405 -0.90069962 54 130 126
0.30935499 -0.050424688 -0.89892435 46 131 126
0.31000519 -0.052445371 -0.90067357 54 130 126
0.31134173 -0.049732734 -0.90261191 48 132 127
0.31068352 -0.052216321 -0.90192574 58 129 127
0.31110111 -0.049749948 -0.90209174 48 132 127
0.31072339 -0.051417485 -0.90176755 54 130 127
0.31064495 -0.04975589 -0.90107363 50 131 127
0.30951807 -0.053752646 -0.90002429 54 131 125
0.31006014 -0.053769615 -0.90106702 58 130 126
0.31034985 -0.052993659 -0.90146035 58 129 127
0.30960885 -0.053266197 -0.90009677 54 131 126
0.30927137 -0.054326769 -0.89968663 54 131 125
0.31023028 -0.055898976 -0.9018389 65 129 127
0.30916914 -0.053888381 -0.89939606 52 132 124
0.30999666 -0.056633469 -0.90156662 66 129 126
0.30885607 -0.056628779 -0.89942724 61 129 124
0.30897546 -0.055218369 -0.89933294 56 130 125
0.31077865 -0.053471953 -0.90239751 61 129 127
0.31065032 -0.052944127 -0.90203273 59 129 127
0.31019989 -0.05678045 -0.901986 68 130 126
0.30998725 -0.06040217 -0.90262902 71 129 124
0.30971828 -0.059337892 -0.90181869 69 128 125
0.30955577 -0.05820255 -0.9011867 66 130 124
0.30971876 -0.058630317 -0.9016149 68 129 125
0.3100934 -0.058240507 -0.90220201 70 129 126
0.30911288 -0.058686752 -0.90041465 66 129 124
0.30962244 -0.060171567 -0.90177268 70 129 124
0.30901837 -0.059895173 -0.90035337 69 128 125
0.3084366 -0.058592748 -0.8988533 65 129 124
0.30915064 -0.059268255 -0.90057582 68 128 124
0.30960581 -0.062333766 -0.90233141 71 129 125
0.30874169 -0.063657664 -0.90048164 72 129 126
0.30954754 -0.062429357 -0.90220934 71 129 125
0.30915669 -0.0637789 -0.90168995 71 129 126
0.30927354 -0.064041361 -0.90212667 70 130 126
0.3091774 -0.062311836 -0.90112776 72 129 125
0.30876279 -0.060907867 -0.89991254 72 127 126
0.30915976 -0.062016074 -0.90100908 73 128 125
0.30935723 -0.060923908 -0.90127701 72 127 125
0.30931336 -0.061409175 -0.90125847 72 127 125
0.30839643 -0.062485963 -0.89933985 72 127 126
0.30894461 -0.065886274 -0.90165663 69 129 127
0.30920583 -0.067601807 -0.90255409 65 129 127
0.30912849 -0.067695774 -0.90236491 65 129 127
0.30893371 -0.066228233 -0.90167171 68 129 127
0.30788749 -0.068225659 -0.89920503 67 129 128
0.3081454 -0.06513954 -0.89929843 71 129 127
0.30861071 -0.0647716 -0.90051901 71 129 127
0.3082155 -0.064488262 -0.89935803 72 128 127
0.30887952 -0.065608896 -0.901443 69 130 126
0.30836576 -0.06475997 -0.89983362 71 129 126
0.30876413 -0.069474995 -0.90164685 61 129 127
0.30881348 -0.069830723 -0.90204155 61 129 128
0.30820888 -0.071083993 -0.90055275 59 129 128
0.30902481 -0.069330618 -0.90252495 61 129 128
0.30830866 -0.070963234 -0.9008497 59 129 128
0.30857536 -0.070472434 -0.9015435 59 129 127
0.30833808 -0.068768337 -0.90044385 65 129 127
0.30879167 -0.069023103 -0.9016546 63 129 127
0.30779189 -0.070658103 -0.89925498 61 128 128
0.30822268 -0.069974527 -0.9002915 63 128 128
0.30815768 -0.070147872 -0.90014368 61 129 127
0.30767933 -0.069724441 -0.89884788 65 128 128
0.30822256 -0.073491834 -0.90199995 50 131 127
0.30783162 -0.074959546 -0.9013775 47 130 127
0.30810097 -0.074242726 -0.90196669 48 130 127
0.30740213 -0.075507045 -0.90011382 45 131 126
0.30736545 -0.075557493 -0.9000079 45 131 126
0.30756843 -0.07572487 -0.9008373 46 129 127
0.30731747 -0.075013317 -0.89952928 47 130 127
0.30809376 -0.072287358 -0.90084404 55 129 128
0.30794996 -0.073164195 -0.90081292 52 130 127
0.30823261 -0.072589219 -0.90152997 53 130 127
0.30774403 -0.073188722 -0.90006512 53 129 128
0.30608317 -0.079624124 -0.89928991 46 134 119
0.30654511 -0.078573212 -0.90002662 44 133 120
0.30642122 -0.07862065 -0.89952612 44 133 120
0.30617842 -0.079382963 -0.89941025 45 133 119
0.30672136 -0.077288315 -0.89918458 43 131 123
0.30672508 -0.079343535 -0.90184468 46 134 119
0.30730587 -0.076702431 -0.90077043 45 131 125
0.30698523 -0.077111483 -0.90010136 44 132 124
0.30703005 -0.07738582 -0.90059769 44 132 123
0.3069607 -0.076856777 -0.89970273 43 131 125
0.30753016 -0.076541707 -0.90139091 45 131 126
0.30727848 -0.077159673 -0.9012264 45 131 124
0.29258347 -0.080540441 -0.87466872 36 133 113
0.29219019 -0.080406412 -0.87426722 36 133 113
0.30489114 -0.040501859 -0.88772792 24 131 124
0.30558139 -0.040395841 -0.88853133 24 131 124
0.3050938 -0.041003466 -0.88798308 25 131 124
0.30698895 -0.038964599 -0.89053422 23 131 123
0.30683166 -0.040622864 -0.89021784 26 131 123
0.30664909 -0.039776493 -0.88975573 24 131 124
0.30585566 -0.043396913 -0.8895511 31 129 126
0.30611202 -0.043909945 -0.88999671 33 129 126
0.30626991 -0.041726224 -0.88956082 28 131 124
0.30477804 -0.041716754 -0.88781339 26 131 124
0.30636317 -0.043267719 -0.89010793 32 131 125
0.3041932 -0.042833433 -0.88719815 26 131 125
0.30449358 -0.041389853 -0.88737315 25 131 124
0.30465752 -0.042534474 -0.88778657 27 131 124
0.30448824 -0.04404192 -0.88780212 28 131 126
0.30543402 -0.043533593 -0.88901716 31 129 126
0.30505514 -0.042465501 -0.88832116 27 131 125
0.30495402 -0.044737466 -0.88855612 31 131 126
0.30665824 -0.04259605 -0.89028132 30 131 124
0.30675161 -0.041594338 -0.89020962 28 131 124
0.30590853 -0.045324553 -0.88997751 34 129 127
0.30611518 -0.047719445 -0.89081144 34 131 128
0.30596271 -0.047380432 -0.89052492 34 129 128
0.30605346 -0.047500856 -0.89067668 34 129 128
0.30583662 -0.046673719 -0.89018971 33 131 127
0.30573633 -0.045965828 -0.88988954 33 131 127
0.30530009 -0.046663012 -0.88945389 32 131 126
0.30429086 -0.046328839 -0.88796616 29 131 127
0.30495539 -0.048427068 -0.88931537 30 132 127
0.30359137 -0.04869388 -0.88738769 27 134 127
0.3043009 -0.047751628 -0.8882426 29 132 127
0.30396405 -0.045300901 -0.88730341 29 129 127
0.30393967 -0.047506545 -0.88767397 27 132 127
0.30554187 -0.050305855 -0.89044142 32 133 126
0.30524722 -0.052565418 -0.89042771 32 136 123
0.30525598 -0.050626919 -0.89003754 31 133 126
0.30528858 -0.050596405 -0.89008486 31 133 126
0.30417511 -0.049395856 -0.8882944 27 134 127
0.30462405 -0.049187869 -0.88893181 29 134 127
0.30490616 -0.049386289 -0.88935322 30 132 127
0.30422217 -0.049496066 -0.88836896 27 134 127
0.30381522 -0.055716615 -0.88870782 36 135 122
0.30426997 -0.056164175 -0.88962519 42 132 123
0.30378711 -0.056424111 -0.88884693 39 133 122
0.3047843 -0.05495261 -0.8902052 39 133 123
0.30467379 -0.054197475 -0.88981003 34 135 122
0.30512589 -0.053799234 -0.89049751 35 136 122
0.30414167 -0.054364648 -0.88894922 32 137 122
0.30472815 -0.05305532 -0.88966846 31 136 123
0.30335572 -0.055685014 -0.88790345 33 136 121
0.30355635 -0.060111862 -0.88863444 54 130 123
0.30351132 -0.060415547 -0.88860261 54 130 123
0.30405125 -0.05981255 -0.88965511 55 130 123
0.3041445 -0.058678433 -0.88960934 51 130 123
0.30449274 -0.058288287 -0.89028794 52 130 124
0.30315971 -0.058818128 -0.88775069 46 131 123
0.3041431 -0.058132842 -0.88949341 50 130 123
0.30339435 -0.057597481 -0.88819218 42 133 122
0.30368477 -0.058584362 -0.8886779 48 132 123
0.30329984 -0.059394233 -0.88798267 50 131 123
0.30285847 -0.05954992 -0.88720423 47 132 122
0.30327612 -0.06278459 -0.88841063 59 128 123
0.30290076 -0.061606854 -0.88740623 56 129 122
0.30397442 -0.063870668 -0.89017457 60 128 124
0.30352855 -0.063128933 -0.88904357 59 129 123
0.30293494 -0.063322797 -0.88764995 63 126 123
0.30406559 -0.063247427 -0.89029235 59 129 123
0.30447078 -0.060766827 -0.89077491 60 127 124
0.30384564 -0.062359173 -0.8896634 58 129 123
0.30390725 -0.061515398 -0.88966012 58 129 123
0.30392504 -0.061574452 -0.88970894 58 129 123
0.30373925 -0.061200432 -0.88923949 57 129 123
0.3026917 -0.066405185 -0.8873331 68 126 124
0.30255836 -0.067766502 -0.88725609 65 127 124
0.30431861 -0.067238167 -0.8909927 61 129 124
0.30416647 -0.06610658 -0.89068007 61 129 123
0.30414218 -0.067008391 -0.89060944 61 129 124
0.30412954 -0.066607751 -0.89058942 61 129 123
0.30357295 -0.066780128 -0.88936329 63 129 124
0.302926 -0.064943902 -0.88776225 67 125 124
0.30363193 -0.065413646 -0.88946688 64 128 124
0.3031866 -0.06614916 -0.88844723 66 127 124
0.30283293 -0.065133922 -0.88755113 68 126 123
0.30307314 -0.06720835 -0.88823456 65 128 124
0.30282852 -0.064741232 -0.88751942 68 124 123
0.30193123 -0.071012124 -0.88715482 58 129 125
0.30212039 -0.070584923 -0.88729298 59 129 125
0.30265841 -0.071699716 -0.88825333 59 127 126
0.30327249 -0.071404047 -0.88942504 58 129 125
0.30361304 -0.070696145 -0.88998532 58 129 125
0.30382609 -0.072228998 -0.8907271 54 130 125
0.30341086 -0.070757292 -0.88958162 59 129 125
0.30317214 -0.070425354 -0.88898045 61 128 125
0.30294344 -0.071538776 -0.88876235 59 128 125
0.30280629 -0.070378795 -0.8881647 62 128 125
0.30335402 -0.069816977 -0.88922453 61 129 125
0.30299383 -0.069848977 -0.88844144 62 129 125
0.30248576 -0.075038478 -0.88878912 46 130 124
0.30230221 -0.073061213 -0.88811266 54 129 126
0.30163455 -0.07567323 -0.88744211 43 130 124
0.30214551 -0.074743249 -0.88820684 47 130 124
0.30206522 -0.073843658 -0.88797283 49 131 124
0.30393079 -0.072380684 -0.89097679 53 130 125
0.30345681 -0.075290114 -0.8908152 45 130 124
0.30316314 -0.075243615 -0.89008635 45 130 124
0.30306211 -0.073035128 -0.88933462 54 129 125
0.30371696 -0.072351024 -0.89052886 54 130 125
0.30277544 -0.072922863 -0.88871992 55 128 125
0.30301598 -0.075214252 -0.88972622 45 130 124
0.30266592 -0.077469319 -0.88950366 40 130 122
0.30244923 -0.076208711 -0.8888846 41 130 122
0.30240136 -0.077976853 -0.88915658 39 131 121
0.301974 -0.078618556 -0.88855141 39 131 121
0.30115163 -0.079491705 -0.8872937 45 130 122
0.30153829 -0.077138528 -0.8875196 41 130 122
0.30114391 -0.078911036 -0.88717115 45 130 122
0.30159587 -0.076914437 -0.88757694 41 130 122
0.30332765 -0.076834984 -0.89092797 41 130 122
0.30298951 -0.078272566 -0.89039987 38 131 121
0.30329084 -0.076330371 -0.89074373 41 131 122
0.30309054 -0.077871352 -0.89056504 39 131 121
0.30261752 -0.080728963 -0.89018756 40 132 119
0.3021625 -0.081378028 -0.88964891 47 131 119
0.30226806 -0.081308924 -0.88980502 46 131 119
0.30159324 -0.08091794 -0.88848776 48 130 120
0.30098024 -0.080933467 -0.88736421 49 130 121
0.3009786 -0.080223858 -0.88714814 46 131 121
0.30302557 -0.08026053 -0.89085484 36 133 119
0.31253776 -0.036823161 -0.90337366 36 130 127
0.31311929 -0.034454685 -0.90627962 32 131 127
0.31295988 -0.034306925 -0.90578437 30 131 126
0.31261089 -0.036723979 -0.90366393 36 130 127
0.31280637 -0.036582556 -0.90439337 36 130 127
0.31326288 -0.035441294 -0.90640306 35 130 127
0.31255645 -0.035083003 -0.90377891 32 131 127
0.31260896 -0.035674274 -0.90399915 33 131 126
0.31236422 -0.034216024 -0.90286767 29 129 127
0.31317234 -0.038652442 -0.90573752 43 129 128
0.31282228 -0.039709348 -0.90467006 44 129 128
0.31285027 -0.040649947 -0.90503228 46 129 128
0.31317621 -0.039147396 -0.90588599 44 129 128
0.31314194 -0.038923588 -0.90569317 43 130 128
0.31228444 -0.040771473 -0.90288889 44 129 128
0.31311476 -0.03811381 -0.90539753 41 129 127
0.31241682 -0.038173474 -0.90299255 40 129 127
0.3125408 -0.039119571 -0.90355015 42 129 128
0.31254035 -0.038947336 -0.90352511 41 129 127
0.31204098 -0.044624947 -0.90333915 45 130 129
0.31270996 -0.044194914 -0.90574336 50 129 129
0.31289655 -0.043626744 -0.90625435 50 129 129
0.31234664 -0.044113439 -0.90432554 46 130 128
0.31199726 -0.044906683 -0.90327245 45 130 129
0.31309435 -0.042556103 -0.90662909 50 129 129
0.31259084 -0.041107159 -0.90416223 46 129 128
0.31207392 -0.043475393 -0.90304321 44 130 128
0.31285328 -0.042106327 -0.90554726 47 130 129
0.31227157 -0.041188959 -0.90295875 45 130 128
0.31215426 -0.043792251 -0.90347135 45 130 129
0.31201258 -0.044024296 -0.90300989 45 130 129
0.3124564 -0.047044296 -0.90557486 51 131 128
0.31261989 -0.046412747 -0.90601933 52 130 129
0.31255555 -0.048634633 -0.90615129 53 132 127
0.31272265 -0.046417743 -0.90636122 53 130 128
0.31275368 -0.046601024 -0.90649277 53 130 129
0.31211472 -0.04514635 -0.90380114 46 130 129
0.31186882 -0.045376737 -0.90293723 45 130 129
0.31171051 -0.046690155 -0.90276647 44 131 128
0.31169313 -0.046793066 -0.9027341 44 131 128
0.31184134 -0.047867306 -0.90365613 47 132 127
0.31195071 -0.050967794 -0.90510178 58 130 128
0.3120954 -0.05145172 -0.90585667 58 130 127
0.31168175 -0.051970799 -0.9046604 58 130 127
0.31148532 -0.051777389 -0.90387005 58 129 128
0.31173638 -0.051978149 -0.9048568 58 130 127
0.31204349 -0.050994176 -0.90544218 58 130 128
0.3126094 -0.048996396 -0.90643048 55 131 128
0.31178722 -0.049496602 -0.90390998 51 132 127
0.31130785 -0.051640552 -0.90321332 57 130 127
0.31209114 -0.049927443 -0.90509862 55 131 128
0.31189761 -0.048898309 -0.90402675 48 132 127
0.31141493 -0.054633595 -0.9048087 64 129 127
0.31124789 -0.055481322 -0.90452242 66 129 127
0.31178364 -0.054988924 -0.90620434 64 129 127
0.31131357 -0.055893455 -0.90489078 66 129 127
0.31140891 -0.056056656 -0.90527612 66 129 127
0.31105393 -0.055699952 -0.90392739 66 130 126
0.3116371 -0.053739917 -0.90526199 62 130 127
0.31105691 -0.053364042 -0.90307665 61 129 127
0.31119511 -0.05492837 -0.90414429 65 129 127
0.31161007 -0.053055249 -0.90491265 61 129 128
0.31122518 -0.053842701 -0.90384763 62 130 127
0.31028587 -0.059790287 -0.90311134 72 129 125
0.31048232 -0.058600254 -0.90314251 72 129 126
0.31089443 -0.060094446 -0.90509361 73 129 126
0.31091419 -0.059214402 -0.90480596 72 130 126
0.31092614 -0.059301976 -0.90488273 72 130 126
0.31085587 -0.059848234 -0.90486103 73 129 126
0.31093919 -0.057139825 -0.90405506 70 129 127
0.31106469 -0.057944771 -0.90481317 70 130 126
0.31080446 -0.056652002 -0.90339285 69 130 126
0.31112778 -0.058836177 -0.90539074 72 129 127
0.31109744 -0.05807469 -0.90497875 71 129 127
0.3105318 -0.063129954 -0.90542054 73 130 126
0.3103556 -0.060559027 -0.90359539 73 129 125
0.3102293 -0.064198919 -0.90507323 72 130 126
0.31031445 -0.064432845 -0.90544343 73 130 126
0.30999693 -0.062327385 -0.90348864 72 129 125
0.31033698 -0.06292899 -0.90481275 73 129 126
0.31008998 -0.063491397 -0.90431613 72 129 126
0.31106189 -0.062005222 -0.90660226 74 129 127
0.31080356 -0.062991858 -0.90627062 74 129 126
0.31088617 -0.060905576 -0.90543973 74 129 126
0.31062719 -0.062337235 -0.90531212 74 129 126
0.31042147 -0.065051712 -0.906115 72 129 127
0.31005958 -0.067742877 -0.90655917 64 127 127
0.30955553 -0.065077096 -0.90348071 69 129 127
0.31014872 -0.06662377 -0.90618569 67 127 127
0.31026953 -0.065095179 -0.90567273 71 129 127
0.309708 -0.067764565 -0.90508747 63 127 127
0.30952561 -0.067751944 -0.90411073 63 129 127
0.30960301 -0.066825651 -0.90428209 65 129 127
0.30955073 -0.068182722 -0.90435719 63 128 128
0.30943817 -0.066539727 -0.90332764 66 129 127
0.30953619 -0.070004232 -0.90552735 58 128 127
0.30930591 -0.070319146 -0.90475392 57 128 127
0.30919775 -0.071205489 -0.90463161 55 128 128
0.30992535 -0.068833113 -0.90662575 60 127 127
0.30964079 -0.071571037 -0.90643632 51 129 127
0.30932477 -0.071712285 -0.90528017 51 130 127
0.30914128 -0.070606284 -0.90415204 57 128 128
0.30870879 -0.071715206 -0.90279794 54 130 127
0.30953538 -0.068916298 -0.90480095 61 128 127
0.3089059 -0.070768356 -0.90303504 56 129 127
0.30932921 -0.068523012 -0.90336198 63 129 127
0.30871704 -0.075636387 -0.90641797 49 130 126
0.30930954 -0.073160887 -0.90603775 48 129 127
0.30863896 -0.0747668 -0.90437955 47 129 127
0.30859509 -0.074905403 -0.90432936 47 129 127
0.30929038 -0.073381461 -0.90629542 49 129 127
0.30903515 -0.074085571 -0.90582639 48 130 127
0.30877602 -0.073065475 -0.90382862 50 130 127
0.30857494 -0.074167639 -0.90369177 48 129 127
0.30933437 -0.072697736 -0.9057433 49 129 127
0.30887681 -0.073018052 -0.904185 50 130 127
0.30863631 -0.073994935 -0.90382671 48 129 127
0.30855024 -0.072703786 -0.90276366 52 130 127
0.30829147 -0.077607103 -0.90659761 52 130 125
0.30820918 -0.077115446 -0.90590489 50 131 124
0.30744576 -0.079127833 -0.90467322 50 133 121
0.30787089 -0.078722887 -0.90592468 52 132 122
0.30751511 -0.078538179 -0.90446365 48 133 121
0.30782762 -0.079128399 -0.90608513 53 131 122
0.3081719 -0.076187253 -0.90375894 46 130 126
0.30749077 -0.078023337 -0.90330839 47 132 122
0.30740708 -0.078192756 -0.90312821 47 132 122
0.30757305 -0.078138113 -0.90411144 48 132 122
0.30836064 -0.076645173 -0.90603352 50 130 125
0.30734715 -0.07826563 -0.90289134 47 132 122
0.30719161 -0.080147326 -0.9046182 51 134 120
0.30710801 -0.080151476 -0.90431726 51 134 120
0.31352028 -0.036256254 -0.90752763 36 130 127
0.31348976 -0.037023481 -0.90794396 37 130 127
0.31349644 -0.035202749 -0.90826505 32 131 126
0.31337768 -0.035032447 -0.90741271 32 132 126
0.31326494 -0.040735822 -0.90699768 47 130 128
0.31333917 -0.039612509 -0.90826327 42 129 127
0.31339854 -0.039559424 -0.90874767 41 129 127
0.31359941 -0.040811189 -0.90949255 42 129 128
0.31363669 -0.040528715 -0.9099521 41 129 128
0.31334719 -0.039324827 -0.90722549 43 129 127
0.31341198 -0.037981845 -0.90864396 38 129 126
0.31337345 -0.038361967 -0.90922898 36 130 126
0.31338465 -0.038633659 -0.90775502 41 129 127
0.31337705 -0.038351569 -0.90908784 38 129 126
0.31345451 -0.044048969 -0.90981591 45 129 128
0.31346703 -0.043065872 -0.90954047 45 129 128
0.31321937 -0.044059735 -0.90840012 48 128 129
0.31319398 -0.043789569 -0.90815043 48 128 129
0.31303129 -0.044532742 -0.90743351 51 129 129
0.31328174 -0.04145164 -0.90725911 48 129 128
0.3134172 -0.04237432 -0.90894175 46 128 129
0.31365851 -0.041397285 -0.91008365 42 128 129
0.31356725 -0.041279066 -0.90930647 43 129 128
0.3132607 -0.041828919 -0.90736622 48 129 128
0.31334493 -0.04580678 -0.90975374 47 130 128
0.31326565 -0.046674673 -0.90996385 47 130 127
0.31319821 -0.04718281 -0.9098711 48 129 127
0.31304353 -0.047332492 -0.90846217 50 131 128
0.31333795 -0.046534471 -0.91053987 46 130 127
0.31305042 -0.04688419 -0.90824294 51 131 128
0.31320223 -0.045579769 -0.90879041 49 129 128
0.31287417 -0.045994896 -0.90692735 53 129 129
0.31281075 -0.047328055 -0.90692145 54 130 128
0.3131468 -0.046155281 -0.90861857 50 129 128
0.31278586 -0.048033744 -0.90697092 54 131 128
0.31275046 -0.050201274 -0.90923268 52 130 126
0.3125658 -0.050943367 -0.90843558 54 130 126
0.31264636 -0.051737059 -0.91018736 46 132 126
0.31225985 -0.052679446 -0.9077512 54 130 127
0.31245086 -0.052592684 -0.9094314 47 133 126
0.31243858 -0.051583108 -0.90804768 55 130 127
0.3126007 -0.050452702 -0.90807259 54 130 127
0.31262094 -0.05067268 -0.90860325 54 130 126
0.31302494 -0.048852105 -0.91006911 49 131 126
0.31244466 -0.051354263 -0.90779793 56 130 127
0.31281739 -0.049354672 -0.90868002 52 130 127
0.31287405 -0.049065702 -0.90883642 51 131 126
0.31199297 -0.055243745 -0.90915561 52 131 125
0.31179833 -0.056366734 -0.90702927 64 129 127
0.31166613 -0.056449439 -0.91009241 49 131 124
0.31198773 -0.055339426 -0.90866524 54 130 126
0.3118301 -0.055784307 -0.91002196 48 132 124
0.31176087 -0.056168914 -0.90936399 52 131 125
0.31192812 -0.054828897 -0.90666115 63 129 127
0.312168 -0.052769121 -0.9069922 58 130 127
0.31201866 -0.054656677 -0.90734917 60 129 127
0.3122516 -0.053640909 -0.9085862 52 132 126
0.31209049 -0.054075122 -0.9074809 58 130 127
0.31213567 -0.054688837 -0.90847528 54 132 126
0.31137836 -0.05995832 -0.90787822 66 131 126
0.31156141 -0.058775861 -0.91045135 51 133 124
0.31146893 -0.058453321 -0.90891021 58 132 124
0.31151938 -0.059989981 -0.91010749 54 133 124
0.31140271 -0.059376471 -0.90810925 64 131 125
0.31145063 -0.058985487 -0.90876168 61 131 125
0.311598 -0.057179015 -0.90896744 56 131 125
0.31161457 -0.056707744 -0.91001844 50 131 124
0.31155661 -0.057600915 -0.90875328 58 131 125
0.31142503 -0.059174046 -0.90733087 68 130 126
0.31160268 -0.056696314 -0.91037977 47 133 123
0.31103039 -0.063003786 -0.91038889 50 129 125
0.31089562 -0.063617684 -0.90841067 63 129 126
0.31109697 -0.062666804 -0.9096567 55 130 125
0.31076097 -0.064279623 -0.90888649 57 128 125
0.31143391 -0.061045974 -0.91026765 54 132 125
0.31075871 -0.0641957 -0.90671813 73 129 127
0.3111985 -0.062097628 -0.90878916 62 131 126
0.31132942 -0.060930833 -0.90814996 66 130 126
0.31110722 -0.061863005 -0.90680832 73 129 127
0.31122333 -0.061623983 -0.90808374 66 130 126
0.31125683 -0.060868323 -0.90686214 72 130 126
0.31009993 -0.067667663 -0.90746152 58 127 126
0.31023666 -0.066939794 -0.90842515 54 126 126
0.31033304 -0.066435203 -0.90702343 65 127 127
0.31031033 -0.066554122 -0.90736663 62 128 126
0.31033182 -0.066437207 -0.90910947 50 127 124
0.31045422 -0.065855332 -0.91026771 45 127 124
0.3100628 -0.068272501 -0.9092021 49 128 123
0.31015402 -0.067653067 -0.90918493 50 127 124
0.31066182 -0.064737439 -0.90879887 57 128 125
0.31059188 -0.065072276 -0.90804392 62 128 126
0.30988964 -0.069877774 -0.90943611 43 129 124
0.30948997 -0.072066389 -0.90961581 40 130 126
0.30980116 -0.070749879 -0.90834129 46 129 125
0.30970082 -0.071136922 -0.90886205 44 129 125
0.30951232 -0.071707316 -0.91029847 40 129 126
0.31005979 -0.068608843 -0.91020226 43 129 122
0.30996844 -0.069067761 -0.90853673 50 128 125
0.3098723 -0.069633819 -0.90701246 56 127 127
0.30979973 -0.070544243 -0.90718895 52 128 127
0.30979723 -0.070702374 -0.90754211 50 128 126
0.30877617 -0.075848483 -0.90806854 47 130 124
0.3089236 -0.075742476 -0.90955389 45 130 123
0.30906618 -0.074643508 -0.90978676 42 131 124
0.3090522 -0.074565664 -0.90954 42 131 124
0.30884421 -0.076111175 -0.90913033 46 130 123
0.30928728 -0.072902299 -0.91010398 40 130 126
0.3092438 -0.073144279 -0.9092899 42 129 126
0.30928746 -0.073131621 -0.90862489 43 129 126
0.30941212 -0.072382048 -0.90981203 40 130 126
0.30904755 -0.074307345 -0.90749377 47 130 126
0.30880415 -0.075415112 -0.90671498 49 130 126
0.30894917 -0.074829668 -0.9068566 49 129 126
0.30725518 -0.080063164 -0.90824097 46 131 121
0.30762771 -0.079810709 -0.90760148 51 132 121
0.30839559 -0.077690236 -0.90935612 46 132 121
0.30788699 -0.079333536 -0.90773433 51 131 121
0.30850872 -0.077128276 -0.91009486 43 132 121
0.3069652 -0.079861015 -0.90951121 40 131 119
0.3076213 -0.078362763 -0.91040707 40 130 120
0.30815744 -0.078606665 -0.9073841 51 132 122
0.30820379 -0.078542925 -0.90774196 51 132 122
0.308483 -0.077157885 -0.90755731 50 131 124
0.30837098 -0.077626415 -0.90742761 50 131 123
0.30873066 -0.076642126 -0.90906096 46 131 123
0.30864587 -0.076297835 -0.90732801 49 130 125
0.30654868 -0.080600955 -0.90957922 42 131 120
0.30475208 -0.083032042 -0.90826315 38 131 123
0.30389145 -0.083928354 -0.90788668 33 131 124
0.30602965 -0.083009213 -0.9075247 60 133 121
0.30592257 -0.081333645 -0.90925044 40 129 122
0.30418375 -0.083268493 -0.9083671 29 131 123
0.30362365 -0.083736777 -0.90823627 26 128 125
0.30404693 -0.083034925 -0.90868026 25 130 123
0.30341229 -0.083193123 -0.90878969 16 128 125
0.30544028 -0.080927581 -0.90959305 28 129 121
0.30397618 -0.080619909 -0.9090156 16 130 121
0.30300274 -0.083145142 -0.90862811 12 130 126
0.30412152 -0.082154602 -0.90907097 19 130 122
0.30726966 -0.080912217 -0.9068532 58 133 121
0.30717918 -0.080451608 -0.90785259 50 131 121
0.30720672 -0.080488689 -0.90771097 51 132 121
0.29948562 -0.062905133 -0.8827433 37 130 123
0.29895508 -0.064136356 -0.88185984 37 129 124
0.29902089 -0.064109348 -0.88197386 38 130 123
0.2988835 -0.061952624 -0.88183367 31 129 123
0.29880437 -0.064577289 -0.88162798 37 130 124
0.29866898 -0.06654077 -0.88154393 40 129 125
0.29850993 -0.065145224 -0.88133717 36 130 123
0.29866073 -0.066188373 -0.88152498 38 130 124
0.29840291 -0.065617405 -0.88123924 36 130 124
0.29861835 -0.068008713 -0.88153321 41 129 126
0.29795492 -0.067722455 -0.88078725 37 130 126
0.2993747 -0.067191057 -0.8827287 44 130 125
0.29955837 -0.066508606 -0.88303405 44 130 125
0.29948005 -0.066228114 -0.8828662 44 129 125
0.2990818 -0.067234352 -0.8821733 43 129 125
0.29911739 -0.065742463 -0.8821919 40 129 124
0.29922989 -0.065241709 -0.88237375 40 130 123
0.29842216 -0.068499677 -0.88131154 40 129 126
0.29779577 -0.068733759 -0.88061601 36 129 125
0.29823828 -0.068883888 -0.88112754 38 130 125
0.29877126 -0.069736339 -0.88178641 40 130 125
0.29786369 -0.070068672 -0.88077813 36 130 125
0.29754221 -0.071645416 -0.88048679 32 132 123
0.29764402 -0.070941783 -0.88057172 33 131 124
0.29855734 -0.072015874 -0.8816852 36 132 123
0.29929078 -0.070977837 -0.88278943 41 130 125
0.29923013 -0.07113865 -0.88268715 41 130 125
0.29892093 -0.070689753 -0.88208872 40 130 125
0.29922652 -0.069672279 -0.8826068 43 129 126
0.29767424 -0.072787054 -0.88069022 33 132 122
0.29870576 -0.074618377 -0.88196129 36 130 122
0.29857871 -0.073447786 -0.88176799 36 132 123
0.29828319 -0.073416963 -0.88142306 36 130 123
0.29835388 -0.075192086 -0.88157433 34 132 121
0.2975755 -0.075925484 -0.88061196 33 132 121
0.29785863 -0.075888894 -0.8809635 33 132 121
0.29922777 -0.074559912 -0.88287139 38 131 122
0.29929477 -0.072754592 -0.88287079 40 130 124
0.29885957 -0.074856609 -0.88216954 36 133 121
0.29880363 -0.078870073 -0.88254684 37 134 116
0.29804271 -0.07851579 -0.88154864 36 133 117
0.29815808 -0.076625317 -0.88140231 34 133 119
0.29838997 -0.077715494 -0.88185686 36 133 118
0.2963317 -0.079535887 -0.87932032 36 132 116
0.29671288 -0.077200122 -0.87964779 33 131 119
0.29666492 -0.079577774 -0.87977719 36 133 116
0.29664487 -0.079446405 -0.87973917 36 133 116
0.29853693 -0.079876766 -0.88234943 38 135 115
0.29687539 -0.079182573 -0.88003129 36 133 116
0.2990419 -0.077037431 -0.88276738 36 133 119
0.29906896 -0.078026637 -0.88297844 37 133 117
0.30859876 -0.036659122 -0.8945477 24 131 125
0.30863473 -0.036207203 -0.89469618 23 131 125
0.30832297 -0.038657818 -0.89392024 28 129 125
0.30850974 -0.038078755 -0.89435291 27 131 125
0.30826223 -0.038415913 -0.89368987 27 130 124
0.30835575 -0.039728228 -0.89424068 32 131 125
0.30751637 -0.040514879 -0.89191717 29 129 125
0.30737931 -0.040693887 -0.89154834 29 129 125
0.3082478 -0.037371848 -0.89361262 24 131 124
0.30822855 -0.038248949 -0.89358908 26 131 125
0.30830133 -0.037791703 -0.89375955 25 131 124
0.30782893 -0.038543783 -0.89258969 25 131 124
0.30748156 -0.040245444 -0.89176208 28 131 124
0.30779061 -0.044234768 -0.89355612 40 129 127
0.30785218 -0.043746017 -0.89365596 40 129 128
0.30842912 -0.041461185 -0.89480788 38 128 127
0.30756012 -0.043509565 -0.89294201 38 128 127
0.30724731 -0.044290092 -0.89227438 38 128 127
0.30811441 -0.044559538 -0.89435351 44 129 128
0.30690274 -0.043546628 -0.89113641 33 131 126
0.3071627 -0.041734029 -0.89123833 30 131 124
0.30734622 -0.043196447 -0.89232165 36 129 126
0.30748302 -0.043049425 -0.89267278 37 129 127
0.30793446 -0.041973706 -0.89361399 37 129 127
0.30785677 -0.04126697 -0.89312303 33 131 126
0.30663702 -0.048809081 -0.89167649 36 132 128
0.3066932 -0.046613831 -0.89136291 37 130 128
0.30759335 -0.047830652 -0.89376378 41 131 127
0.30726564 -0.04739764 -0.89289171 40 130 128
0.30688548 -0.046928383 -0.89188671 38 130 127
0.30711016 -0.047544759 -0.89254916 39 130 128
0.30797216 -0.047861859 -0.89466935 44 131 128
0.30794832 -0.046023022 -0.89422584 43 131 127
0.30804282 -0.045026273 -0.89423996 45 129 128
0.30738708 -0.04696276 -0.89309424 40 130 128
0.30826229 -0.04544029 -0.89484704 46 129 128
0.30648273 -0.051349629 -0.89206308 38 134 125
0.3063361 -0.0525668 -0.89208549 38 136 122
0.30587298 -0.052556571 -0.89140689 35 135 123
0.30765685 -0.051017575 -0.89470994 45 133 126
0.30686721 -0.052253269 -0.89301002 41 134 124
0.30748054 -0.050933797 -0.89421976 43 133 125
0.3070294 -0.049429957 -0.89275008 40 132 127
0.30739936 -0.050395638 -0.89385265 42 133 126
0.30719939 -0.049576074 -0.89318985 41 131 127
0.30678117 -0.050506856 -0.89239752 39 132 126
0.30687776 -0.051848039 -0.89292997 40 134 124
0.30660272 -0.055355795 -0.89331871 50 133 123
0.30629504 -0.054862723 -0.89271623 46 134 123
0.30628744 -0.055017449 -0.89275312 46 134 123
0.30607492 -0.05555737 -0.89255303 47 133 123
0.30551159 -0.054989126 -0.89146829 43 133 123
0.30575216 -0.05458774 -0.89176834 43 134 123
0.30554155 -0.05627349 -0.89184386 49 131 124
0.3071641 -0.055091076 -0.89465886 51 133 124
0.30730516 -0.0540906 -0.8947264 50 132 125
0.30675858 -0.054936297 -0.89355427 49 133 123
0.3070569 -0.053551566 -0.89391088 46 133 124
0.30674431 -0.05515008 -0.893583 50 133 123
0.30606192 -0.057245687 -0.89291161 54 132 124
0.30652925 -0.058625448 -0.89393288 62 130 125
0.30604872 -0.057657711 -0.89296144 56 130 125
0.30547419 -0.057309441 -0.89194131 53 130 125
0.30656117 -0.058548324 -0.89397269 62 130 125
0.30522195 -0.057370581 -0.89152974 52 131 124
0.30509689 -0.057875883 -0.89140487 53 130 124
0.30492166 -0.058874324 -0.8912791 56 129 124
0.30560583 -0.05888072 -0.89243126 59 129 124
0.30487597 -0.060495891 -0.89147669 62 127 124
0.30542782 -0.057835627 -0.89195484 55 130 125
0.30691949 -0.058775466 -0.89483505 63 130 124
0.30664659 -0.057155062 -0.89387709 57 131 124
0.30677792 -0.059134468 -0.89455956 64 130 124
0.30609322 -0.061365843 -0.89372504 69 127 125
0.30645746 -0.060786732 -0.89420229 70 127 125
0.30655169 -0.062458929 -0.89475238 73 127 126
0.30545449 -0.06174989 -0.89274651 66 127 125
0.30572659 -0.062288675 -0.8933351 68 128 124
0.30497828 -0.062786028 -0.89206249 63 129 124
0.30463031 -0.0640596 -0.8915804 62 129 124
0.3061862 -0.06414564 -0.89456004 71 128 125
0.30468565 -0.063611232 -0.89162195 62 129 124
0.30620947 -0.064346798 -0.89463311 72 128 126
0.30499202 -0.061630871 -0.8919239 63 129 124
0.30555153 -0.068036593 -0.89394486 65 129 126
0.3059985 -0.066617846 -0.89465469 68 129 125
0.30510569 -0.067521751 -0.89268774 65 129 126
0.30453837 -0.068151027 -0.8914535 62 130 124
0.30523133 -0.067061327 -0.89286977 66 129 126
0.30564511 -0.065021947 -0.8935625 69 128 125
0.30511743 -0.065282919 -0.89255178 66 128 125
0.30451563 -0.066341661 -0.89138633 63 129 124
0.30478716 -0.06716606 -0.89189059 64 129 125
0.30473202 -0.066722907 -0.89179271 64 129 125
0.30437526 -0.068247586 -0.891087 62 130 124
0.30460593 -0.071827151 -0.89228976 56 129 125
0.30569291 -0.070980012 -0.89444554 60 129 127
0.30543149 -0.070021302 -0.89395165 61 129 126
0.30525368 -0.070389912 -0.89359415 61 129 126
0.30483672 -0.070974 -0.89276171 58 129 125
0.30551183 -0.070379891 -0.89410204 61 129 126
0.30410808 -0.071730994 -0.89124918 55 130 125
0.30531082 -0.068934895 -0.89357495 63 129 126
0.30477443 -0.070124365 -0.892524 59 129 126
0.30521953 -0.069049135 -0.89337492 63 129 126
0.3040373 -0.071784846 -0.89108574 54 130 124
0.30418015 -0.070680097 -0.8911767 57 129 125
0.30550143 -0.073107369 -0.89431733 55 128 127
0.30400163 -0.075973593 -0.89231747 43 131 124
0.30452314 -0.074789651 -0.89290696 48 131 124
0.30498499 -0.075224556 -0.89426792 48 130 125
0.30427819 -0.075123705 -0.89250457 47 130 124
0.30407345 -0.07425461 -0.89178097 48 130 125
0.30451733 -0.07317093 -0.8923555 53 129 125
0.30423507 -0.073874734 -0.89199418 50 130 125
0.30399594 -0.072728276 -0.89120811 53 130 125
0.30417866 -0.074163437 -0.89196271 49 130 125
0.30376649 -0.074626602 -0.8912797 47 130 124
0.30432358 -0.0796455 -0.89387649 46 131 121
0.30488005 -0.077486001 -0.89481008 47 131 124
0.30436864 -0.078812867 -0.89381772 45 131 122
0.30448958 -0.078076206 -0.89396602 45 131 122
0.30461863 -0.078394182 -0.89434975 46 131 123
0.30473369 -0.076900914 -0.89432901 45 131 123
0.3039088 -0.076888748 -0.89233226 42 131 123
0.30365407 -0.077115893 -0.89175761 41 131 122
0.30437139 -0.077504672 -0.89355791 42 132 122
0.30455577 -0.076745905 -0.89386892 45 130 124
0.30429381 -0.077416174 -0.89335501 42 132 122
0.3039493 -0.077410609 -0.89252239 41 132 122
0.30303404 -0.081216365 -0.89125645 43 132 118
0.30336377 -0.081591778 -0.89222348 47 132 119
0.30369589 -0.080530375 -0.89260173 43 131 120
0.30342862 -0.080169089 -0.89179158 39 131 120
0.30400798 -0.080455035 -0.89334154 46 131 121
0.30324444 -0.080520339 -0.89148223 39 132 119
0.31091386 -0.052575719 -0.91477013 33 132 124
0.31104511 -0.052620582 -0.91468126 35 132 124
0.31059489 -0.055479221 -0.91510803 33 131 124
0.31106436 -0.05496401 -0.91469496 39 131 123
0.31114888 -0.053937152 -0.91462892 38 133 124
0.31092918 -0.059318561 -0.91481239 35 130 123
0.31122321 -0.059245668 -0.9145633 40 130 122
0.31075904 -0.06123887 -0.91465271 33 131 122
0 0 0 1 0 0 0 1 0 0 0 1 0 0 0 0 0 1036 1 0 0
