ply
format ascii 1.0
comment PCL generated
element vertex 612
property float x
property float y
property float z
property uchar red
property uchar green
property uchar blue
element camera 1
property float view_px
property float view_py
property float view_pz
property float x_axisx
property float x_axisy
property float x_axisz
property float y_axisx
property float y_axisy
property float y_axisz
property float z_axisx
property float z_axisy
property float z_axisz
property float focal
property float scalex
property float scaley
property float centerx
property float centery
property int viewportx
property int viewporty
property float k1
property float k2
end_header
-0.24181418 0.60799187 -0.86921394 94 142 108
-0.24193317 0.60830337 -0.86932123 96 142 108
-0.24189714 0.60897648 -0.86920065 99 142 108
-0.24203762 0.60904723 -0.8693614 101 142 108
-0.24172331 0.60864246 -0.86903 96 142 109
-0.24040595 0.61017793 -0.86757869 109 137 114
-0.24119355 0.60997957 -0.86843061 109 139 112
-0.24112278 0.60865057 -0.86835742 93 143 109
-0.24141657 0.61002284 -0.86867166 110 139 112
-0.24072002 0.60910988 -0.86792088 97 141 111
-0.24113962 0.60442054 -0.86884958 106 136 109
-0.24259242 0.60374719 -0.87071431 104 135 110
-0.2408936 0.60494262 -0.86849189 101 138 108
-0.24043836 0.60530853 -0.86789167 99 139 108
-0.24106185 0.60575116 -0.86860186 90 141 108
-0.24120273 0.60519183 -0.86884642 96 139 108
-0.24160337 0.60606134 -0.86921519 87 141 108
-0.24235736 0.60573673 -0.87016684 95 139 108
-0.24289787 0.60430431 -0.87101591 101 135 110
-0.24322334 0.60498029 -0.87131315 104 136 110
-0.24290723 0.605955 -0.87079746 101 138 109
-0.24149625 0.60628396 -0.86905545 87 141 108
-0.24277134 0.60318011 -0.87099016 110 134 110
-0.24764472 0.60406572 -0.87655079 103 138 110
-0.24803016 0.60515791 -0.87709278 106 137 111
-0.24716868 0.6049931 -0.87597531 105 138 109
-0.24826182 0.60209709 -0.87797958 110 140 108
-0.24811766 0.60285318 -0.87740123 104 139 109
-0.24776195 0.60300112 -0.87686539 107 136 112
-0.22273906 0.63521695 -0.85957259 106 130 106
-0.22121641 0.63525331 -0.8594268 94 131 104
-0.22462206 0.63335288 -0.85966498 130 130 108
-0.22200151 0.63343424 -0.8593871 110 129 106
-0.22139414 0.63366473 -0.85932159 105 129 105
-0.22156209 0.63161927 -0.85920078 122 128 106
-0.22090957 0.63305408 -0.85921371 108 129 104
-0.22365597 0.63240522 -0.85952049 128 130 108
-0.22376151 0.63411945 -0.85960317 120 130 107
-0.22397678 0.63325572 -0.85958993 126 130 107
-0.22375527 0.63252628 -0.85953605 128 130 108
-0.22366334 0.63314807 -0.8595522 124 130 107
-0.21810468 0.63154238 -0.85920864 96 132 101
-0.21832931 0.63173646 -0.85923243 95 132 101
-0.21850297 0.63201886 -0.85927129 94 133 101
-0.2203549 0.63174933 -0.8591333 113 129 104
-0.22029313 0.63211775 -0.85916603 110 129 104
-0.21981141 0.63341522 -0.85931075 94 132 103
-0.2210958 0.62821639 -0.8588587 130 129 106
-0.22079203 0.62750447 -0.85876274 130 130 105
-0.22159563 0.63074666 -0.85914099 129 128 107
-0.21878162 0.62722546 -0.85873622 123 128 106
-0.21703401 0.63004589 -0.8590489 100 131 101
-0.21738359 0.62977034 -0.85901833 102 131 101
-0.2190246 0.62757033 -0.85877442 121 129 105
-0.21996865 0.62750459 -0.85876715 125 130 104
-0.21793695 0.63026232 -0.85905802 103 131 101
-0.21750532 0.63066477 -0.85910344 99 132 100
-0.2186864 0.62952131 -0.85897559 111 130 102
-0.21847147 0.63071907 -0.85908151 107 130 102
-0.22064732 0.62761241 -0.85876256 129 130 105
-0.21640235 0.62995744 -0.85911179 96 132 100
-0.21655767 0.62926549 -0.85900646 102 130 102
-0.21669166 0.62787515 -0.85882765 112 129 105
-0.2161745 0.62734091 -0.85886371 112 128 106
-0.21561924 0.62715536 -0.85894555 109 129 105
-0.2172718 0.62444568 -0.85841912 120 130 107
-0.21865647 0.62355828 -0.85834408 126 130 108
-0.21822937 0.62327486 -0.85830116 124 131 107
-0.21768984 0.62508577 -0.85850412 122 129 108
-0.21745485 0.6251716 -0.85850912 121 129 108
-0.21894747 0.62592393 -0.8586064 127 128 107
-0.2177283 0.62632763 -0.8586455 123 127 108
-0.2178811 0.62664127 -0.85867584 123 127 108
-0.21927099 0.62684655 -0.85869569 126 129 106
-0.2181854 0.62638795 -0.85865134 124 128 108
-0.21377678 0.62486881 -0.85887885 102 133 101
-0.2132014 0.62414759 -0.85875136 107 131 103
-0.21567166 0.62390995 -0.85852277 110 133 103
-0.21579193 0.62320185 -0.85834956 115 132 105
-0.2146737 0.6250158 -0.85885012 102 133 102
-0.21403643 0.62323302 -0.85847992 113 131 104
-0.21449468 0.62648237 -0.85907459 101 132 102
-0.21454741 0.62582296 -0.85898674 101 133 102
-0.2157328 0.62618244 -0.85881084 110 130 105
-0.21630856 0.62679982 -0.85877788 115 128 106
-0.21532869 0.6258468 -0.85884553 107 131 103
-0.20915952 0.624533 -0.85970366 96 133 103
-0.20970225 0.62402624 -0.85952622 100 131 102
-0.21047843 0.62483495 -0.8595171 97 132 101
-0.21074617 0.62556535 -0.85958558 93 133 101
-0.20942937 0.62333333 -0.85945278 104 130 104
-0.21167283 0.62461239 -0.85918719 100 132 101
-0.21219097 0.62466097 -0.85906833 101 132 101
-0.21002063 0.62323689 -0.8592819 105 131 103
-0.2088134 0.62378597 -0.85967296 99 132 104
-0.22238706 0.61974651 -0.8582319 132 131 111
-0.22260725 0.61976135 -0.85826778 132 131 111
-0.21747051 0.6197859 -0.85785991 125 129 110
-0.21811563 0.62007034 -0.85792053 124 130 109
-0.21786101 0.62151289 -0.85809165 122 131 107
-0.2179299 0.62061852 -0.85798216 123 130 108
-0.2196584 0.61949444 -0.85790795 128 129 109
-0.22043502 0.6194604 -0.85793287 129 129 109
-0.2196826 0.62063843 -0.85804439 127 130 108
-0.21932785 0.62266958 -0.85825711 128 131 108
-0.21452931 0.62086189 -0.8581531 120 129 107
-0.21438332 0.62088931 -0.8581723 119 130 107
-0.21374887 0.62034476 -0.85820282 120 130 106
-0.21362917 0.619775 -0.85817146 122 131 107
-0.21387884 0.6218797 -0.85830957 116 129 106
-0.21599688 0.6228084 -0.85826921 117 131 106
-0.21673186 0.61936021 -0.85778505 125 129 110
-0.21570186 0.62226629 -0.85822189 117 131 106
-0.21668458 0.62244576 -0.85817546 118 132 106
-0.21545526 0.62240279 -0.85825628 116 131 106
-0.21577086 0.62106544 -0.85806638 120 130 107
-0.20910279 0.61961019 -0.85887939 130 125 112
-0.21082856 0.62061322 -0.85878557 118 130 106
-0.21154048 0.61942297 -0.85846674 124 130 108
-0.2093122 0.62061155 -0.85902166 122 126 109
-0.21082716 0.62004954 -0.85868734 122 129 108
-0.21222799 0.62089056 -0.85851234 117 131 105
-0.2113568 0.62274063 -0.8588779 111 130 104
-0.21225759 0.62018561 -0.85844898 119 132 105
-0.21201959 0.62047553 -0.85853171 117 132 105
-0.21209492 0.62093389 -0.85854918 116 132 105
-0.20760874 0.62212914 -0.85970956 102 131 104
-0.20706631 0.62051326 -0.85951275 109 130 108
-0.20812467 0.61960143 -0.85910124 124 126 111
-0.2085553 0.61925411 -0.85893792 130 125 113
-0.20723253 0.62122554 -0.85959744 104 131 106
-0.20742619 0.62042928 -0.85941225 112 129 109
-0.20825794 0.62062782 -0.85924864 117 127 109
-0.22868691 0.61592662 -0.85961151 122 132 116
-0.22697996 0.61579311 -0.85899955 122 131 115
-0.22664286 0.61641026 -0.85894513 125 131 116
-0.22564545 0.61619389 -0.85856795 121 132 114
-0.22731243 0.61592722 -0.85913181 124 131 115
-0.22485356 0.61631489 -0.85829943 120 132 113
-0.22307122 0.61671466 -0.85801518 120 131 111
-0.22164497 0.61613023 -0.85771888 111 133 110
-0.22091755 0.61852759 -0.85786992 126 130 110
-0.22108138 0.61830008 -0.85787094 124 131 109
-0.22109272 0.61759424 -0.85779369 120 131 110
-0.22370036 0.61604607 -0.858042 117 131 112
-0.22146276 0.61909819 -0.85801774 130 130 110
-0.22325327 0.61660713 -0.85803246 119 131 111
-0.22392745 0.61634797 -0.85810995 118 132 112
-0.21727628 0.61767727 -0.85762912 116 132 109
-0.21778709 0.61803931 -0.85767019 119 131 110
-0.21846329 0.61675388 -0.85756564 111 133 110
-0.21929239 0.6156022 -0.85747564 104 135 109
-0.21758974 0.61592615 -0.85747653 106 136 108
-0.21743669 0.61864495 -0.8577221 122 130 110
-0.22024694 0.61762267 -0.85771614 119 131 110
-0.2199844 0.61775565 -0.85772091 119 131 110
-0.22051097 0.61775327 -0.857741 120 131 110
-0.21845283 0.61860389 -0.85775679 123 130 110
-0.21888973 0.61814779 -0.85772252 120 130 110
-0.21561055 0.61568445 -0.857539 107 137 107
-0.21453023 0.61687392 -0.85777771 114 135 107
-0.2135224 0.61568099 -0.85766625 116 134 108
-0.21430556 0.61657411 -0.85774797 114 135 107
-0.21573268 0.6159007 -0.8575629 107 137 107
-0.21620376 0.61702687 -0.8576315 112 135 108
-0.21580176 0.61771375 -0.85774004 116 134 108
-0.21542802 0.61773199 -0.85778517 116 134 108
-0.21641909 0.6177125 -0.85766822 116 132 109
-0.21519116 0.61786354 -0.85782456 117 133 108
-0.21068911 0.61656624 -0.85817546 126 128 111
-0.21074226 0.61595261 -0.85807741 126 129 111
-0.21158053 0.61527318 -0.85784835 123 130 110
-0.20998164 0.61552811 -0.85813284 127 128 111
-0.2119395 0.61566812 -0.85785067 122 131 110
-0.21284358 0.61618382 -0.85778522 120 133 108
-0.21155953 0.61770052 -0.8582055 125 130 110
-0.21240261 0.61875683 -0.85822737 124 131 107
-0.21124129 0.61815757 -0.85832143 127 129 110
-0.21258967 0.6181888 -0.85811579 122 132 107
-0.20526296 0.61682159 -0.85940707 101 134 109
-0.20687765 0.61551696 -0.85882485 112 131 110
-0.20627829 0.61728042 -0.85920203 110 131 110
-0.20670894 0.61738008 -0.85910314 114 130 110
-0.2054116 0.61641872 -0.85931784 101 134 109
-0.20736334 0.61847568 -0.85910493 121 127 111
-0.20745967 0.61827445 -0.85905248 121 127 111
-0.2072973 0.61761385 -0.85899448 119 128 111
-0.20801467 0.61846119 -0.85894752 126 126 112
-0.20657022 0.61873275 -0.85933161 115 129 111
-0.20395701 0.61626559 -0.85972059 93 136 109
-0.20489471 0.61686254 -0.85951573 99 134 109
-0.22895955 0.61432892 -0.85967177 114 133 115
-0.22885883 0.6137405 -0.85957408 111 134 115
-0.22600906 0.61355126 -0.8585093 108 135 113
-0.22518569 0.61220407 -0.85811609 111 133 113
-0.22550327 0.61321253 -0.85829943 109 134 113
-0.22547697 0.61398941 -0.85833997 110 133 113
-0.22562653 0.61204797 -0.85826975 108 134 113
-0.22829372 0.61347967 -0.85932213 111 134 115
-0.22717582 0.61404884 -0.85895252 112 134 114
-0.22804327 0.61212581 -0.85916764 101 137 114
-0.22848389 0.61216539 -0.85932612 102 137 114
-0.22839619 0.61230391 -0.85930163 103 137 114
-0.22847655 0.61486936 -0.85945433 121 132 116
-0.22230354 0.61269248 -0.85754496 102 134 111
-0.22355692 0.61164516 -0.8576833 106 133 113
-0.22169505 0.61157018 -0.85734546 92 136 112
-0.22303131 0.61175579 -0.85759854 103 134 112
-0.22173952 0.61224627 -0.85740823 95 136 111
-0.22456434 0.61441904 -0.85803795 113 132 113
-0.22262949 0.61361992 -0.85767311 107 133 112
-0.22279361 0.61412913 -0.85773271 109 133 112
-0.22368206 0.61412877 -0.85787642 110 133 112
-0.22364648 0.61407202 -0.857867 110 133 112
-0.22000001 0.6118564 -0.85717976 85 139 110
-0.21707894 0.6137979 -0.85728651 93 140 109
-0.21985696 0.61210185 -0.85719758 87 138 110
-0.21815406 0.61378056 -0.85730547 95 138 109
-0.21750903 0.61254984 -0.85719043 86 140 110
-0.21983127 0.61195016 -0.85718441 86 138 110
-0.21971774 0.61232764 -0.85721374 88 138 110
-0.22007684 0.61303771 -0.85727733 92 137 110
-0.21745123 0.61516154 -0.85740602 102 137 108
-0.22067855 0.61266452 -0.85725701 89 137 111
-0.22063673 0.61437118 -0.85739487 98 135 110
-0.21314821 0.61247993 -0.8573842 107 134 112
-0.21303682 0.61460465 -0.85757655 115 133 110
-0.21481819 0.61194259 -0.85724181 94 138 111
-0.21573384 0.61156976 -0.85715687 86 140 111
-0.21566406 0.61147648 -0.85715264 86 140 111
-0.21374002 0.61345536 -0.85743582 107 135 111
-0.21361335 0.61491781 -0.85756946 113 134 109
-0.21616934 0.6131826 -0.85726815 92 140 109
-0.21651371 0.6125657 -0.85719568 87 141 110
-0.21606578 0.61499566 -0.85742587 103 138 108
-0.21630311 0.61290973 -0.85723722 89 141 109
-0.21182156 0.61163056 -0.85746354 108 133 112
-0.21191022 0.61150527 -0.85743755 107 133 112
-0.20956458 0.61317283 -0.85792297 118 130 111
-0.21132737 0.61271691 -0.85765541 114 131 112
-0.21163198 0.61187273 -0.85751587 109 132 112
-0.20934284 0.61197788 -0.85780406 112 132 110
-0.21102135 0.61432743 -0.85784966 120 130 111
-0.21080554 0.61430871 -0.85788143 121 129 112
-0.21090475 0.61338288 -0.85778505 117 130 112
-0.21281436 0.61279589 -0.85743839 110 134 111
-0.21236427 0.61514437 -0.85771364 119 132 109
-0.20610467 0.61195701 -0.85842919 90 136 108
-0.20735624 0.61273915 -0.85834581 103 134 109
-0.20654018 0.61338687 -0.85862398 100 134 109
-0.20613661 0.61344981 -0.85871178 97 136 108
-0.20633525 0.61230087 -0.85845244 93 136 108
-0.20573615 0.61225575 -0.85855603 88 137 107
-0.20892851 0.61380053 -0.85808367 122 129 111
-0.2069325 0.61377776 -0.85859752 104 134 109
-0.20555545 0.6148811 -0.85908842 99 135 108
-0.20783924 0.6133194 -0.858307 110 132 109
-0.20696442 0.61357516 -0.85856456 104 134 109
-0.20814385 0.61523134 -0.85846114 123 128 111
-0.2039616 0.61413509 -0.85935283 82 138 108
-0.20346038 0.61429554 -0.85953712 82 138 108
-0.20347859 0.61291468 -0.85925055 72 140 107
-0.20496078 0.61273992 -0.85880548 84 138 108
-0.20486301 0.61409432 -0.85909438 89 137 108
-0.20425542 0.61182278 -0.8588239 74 139 107
-0.20452748 0.61346805 -0.85906643 84 138 108
-0.20386121 0.61319506 -0.85919857 77 139 108
-0.22736168 0.60936683 -0.85878569 87 137 112
-0.22629915 0.60984153 -0.85841072 95 134 113
-0.22571146 0.61067957 -0.85822755 104 133 113
-0.22830652 0.61040449 -0.85918033 90 139 113
-0.22656235 0.60969573 -0.85850245 93 135 113
-0.22380026 0.61100841 -0.857683 105 132 113
-0.21767832 0.60815817 -0.85676986 58 145 110
-0.21831925 0.60806102 -0.85680228 60 143 110
-0.21985994 0.60808736 -0.85691023 68 140 110
-0.21924816 0.6081605 -0.85687697 66 141 109
-0.21720482 0.6076681 -0.85668117 52 146 110
-0.21712689 0.61102331 -0.85706109 77 143 111
-0.21767829 0.61063027 -0.85704553 77 142 111
-0.21729071 0.61124617 -0.85707891 78 143 111
-0.21953206 0.61076164 -0.8570894 79 140 111
-0.21919802 0.61001563 -0.85703379 75 140 110
-0.21475917 0.60836631 -0.85677934 67 142 112
-0.21449484 0.60919809 -0.85692698 76 140 112
-0.21293436 0.61107409 -0.85725266 102 134 113
-0.21388744 0.61082309 -0.85718298 94 136 113
-0.21448712 0.61067635 -0.85713178 88 139 112
-0.21590586 0.6112383 -0.85711551 84 141 112
-0.21605709 0.60968494 -0.85692793 70 143 111
-0.21574681 0.61000621 -0.85698271 75 141 111
-0.20950751 0.61034513 -0.8575359 100 133 111
-0.21119855 0.60898572 -0.85708219 84 137 113
-0.2095561 0.60758287 -0.85707873 81 134 115
-0.2111164 0.6083228 -0.85698539 80 136 114
-0.20988198 0.610174 -0.85745662 97 134 111
-0.21132223 0.61108321 -0.85744268 104 134 112
-0.21124294 0.61032403 -0.85731554 97 135 112
-0.21158309 0.60964245 -0.85715199 89 136 113
-0.21134505 0.60984772 -0.85721755 92 136 112
-0.21044277 0.61046565 -0.85743731 99 134 111
-0.2125766 0.61105013 -0.85728586 102 135 113
-0.20670435 0.61109012 -0.85815644 90 136 108
-0.20822689 0.61132681 -0.85790968 103 134 109
-0.20715949 0.60993779 -0.85788316 85 135 111
-0.20792472 0.61055899 -0.85784113 95 134 110
-0.20752619 0.61029238 -0.85787231 90 135 110
-0.2206627 0.60666037 -0.85680032 66 139 110
-0.22605592 0.6365183 -0.860313 121 130 110
-0.22537482 0.63591313 -0.86005509 122 130 109
-0.22477782 0.63556224 -0.85984582 121 130 108
-0.22530854 0.63596946 -0.86004072 121 130 109
-0.22829054 0.6374554 -0.86096042 122 130 110
-0.22408973 0.63599533 -0.859806 114 132 107
-0.22537376 0.63380963 -0.85990828 129 131 108
-0.22640218 0.63460594 -0.86024475 129 130 108
-0.20807034 0.62305033 -0.85980314 100 132 103
-0.20830737 0.62360144 -0.85981154 98 132 103
-0.20562634 0.62059468 -0.85995162 99 133 107
-0.20588917 0.62146318 -0.8600949 96 134 106
-0.20559011 0.62009829 -0.85983264 101 132 108
-0.20654541 0.62124252 -0.85982335 100 132 106
-0.20400612 0.61965233 -0.86025411 98 134 108
-0.20193951 0.61959016 -0.86095572 93 136 108
-0.2034899 0.6197691 -0.86046422 96 135 108
-0.20315735 0.61971176 -0.86056465 96 135 108
-0.1976745 0.6200496 -0.86270797 100 132 108
-0.20101485 0.61920691 -0.8611812 94 136 109
-0.19753847 0.62036407 -0.86282766 98 132 107
-0.19602449 0.61918157 -0.86335891 102 130 108
-0.1967238 0.62104815 -0.86336929 93 133 107
-0.19637901 0.62011003 -0.86336052 98 132 107
-0.23496358 0.61647958 -0.86282498 108 136 113
-0.23505473 0.61582035 -0.86289513 103 138 113
-0.23272212 0.61571193 -0.86159045 104 138 114
-0.23560819 0.6155839 -0.86321229 101 139 113
-0.2329302 0.61678404 -0.8616761 113 135 114
-0.23302606 0.61767375 -0.86170411 119 132 114
-0.23349586 0.61875874 -0.8619526 127 130 114
-0.23550296 0.61711383 -0.86313415 112 136 114
-0.23618521 0.6171782 -0.86353254 111 137 115
-0.23492514 0.61745596 -0.8627947 116 134 114
-0.2359118 0.61704856 -0.86337346 110 137 115
-0.23385267 0.61891413 -0.86216033 127 131 115
-0.2314247 0.61795926 -0.86086977 127 130 115
-0.23198053 0.61800236 -0.86114019 125 130 114
-0.23229729 0.61580104 -0.8613587 106 137 114
-0.22972518 0.61527199 -0.8601169 115 134 115
-0.23191381 0.61674243 -0.86114401 115 134 114
-0.23031405 0.61699241 -0.86036849 124 131 115
-0.23041517 0.61738086 -0.86042082 125 131 115
-0.20376495 0.61896384 -0.86017281 99 133 109
-0.20482872 0.61899889 -0.85980886 102 132 109
-0.20325628 0.6181047 -0.8602047 95 135 109
-0.20182504 0.61746508 -0.86059433 89 136 110
-0.20357518 0.61886764 -0.86022246 98 134 109
-0.20354758 0.61711776 -0.85995698 93 135 109
-0.20199254 0.616009 -0.86029267 83 138 110
-0.20308448 0.61543 -0.85987955 87 137 109
-0.19888857 0.61581773 -0.86142844 96 134 113
-0.19816642 0.61544597 -0.86163229 101 133 115
-0.19798523 0.6159429 -0.86179709 103 132 114
-0.1975158 0.61628103 -0.86204123 106 131 114
-0.19881353 0.6170615 -0.86169642 96 133 110
-0.19846307 0.61778021 -0.86196846 99 132 109
-0.2000958 0.61800355 -0.86134833 93 136 109
-0.19980973 0.61863339 -0.86157048 96 134 109
-0.19915038 0.61787921 -0.86171049 96 133 109
-0.20012832 0.61843032 -0.8614071 95 135 109
-0.20095365 0.61548549 -0.86057597 80 139 111
-0.19918355 0.6174491 -0.86162448 94 134 110
-0.19583891 0.61607778 -0.86286801 105 130 113
-0.19421564 0.61561936 -0.86366153 103 130 113
-0.19526459 0.6162805 -0.86321765 104 130 113
-0.19658759 0.61630505 -0.86250508 106 131 114
-0.1959163 0.61617339 -0.86284411 105 130 113
-0.19668403 0.61898488 -0.86296797 104 130 109
-0.19709523 0.61911583 -0.86277342 106 129 108
-0.19646145 0.61798382 -0.86289424 104 130 110
-0.2355973 0.61311996 -0.86327833 91 141 111
-0.23564692 0.61268365 -0.86335319 91 140 111
-0.23480514 0.61347878 -0.8626672 87 141 112
-0.23529014 0.61213183 -0.86314094 88 141 111
-0.23477022 0.61281729 -0.8627001 86 142 111
-0.2357153 0.61420333 -0.86326891 93 140 112
-0.23432064 0.61446804 -0.86243743 94 140 113
-0.23252964 0.61388266 -0.86138499 91 141 113
-0.23374519 0.61374921 -0.86205554 89 141 112
-0.23431136 0.61364746 -0.86236453 88 141 113
-0.22968943 0.61133337 -0.85984558 90 141 112
-0.2305996 0.61243945 -0.86035937 92 140 113
-0.23209383 0.61438668 -0.8612138 97 139 113
-0.22941807 0.61508042 -0.85995799 115 133 116
-0.23128317 0.6137585 -0.86078453 97 140 113
-0.23101251 0.61360079 -0.86064214 98 139 113
-0.23093426 0.61499298 -0.8606934 107 137 114
-0.23180132 0.61485529 -0.8611083 102 138 114
-0.23109221 0.61382073 -0.86069524 99 139 113
-0.1985845 0.61373997 -0.86112607 81 139 111
-0.19916196 0.61494863 -0.8611533 90 136 113
-0.19789764 0.61356068 -0.86135131 84 139 111
-0.19824944 0.61464667 -0.86143959 94 135 114
-0.19932193 0.61484385 -0.86107081 88 137 113
-0.197533 0.61398482 -0.86157727 92 136 113
-0.19529989 0.61378753 -0.86270756 95 134 114
-0.19575681 0.61425489 -0.86255461 99 133 115
-0.19658111 0.61495084 -0.8622489 105 132 115
-0.19506335 0.61319292 -0.86271518 91 135 114
-0.19413617 0.61252165 -0.86308169 85 136 114
-0.19476749 0.61254758 -0.86274433 85 136 114
-0.19698414 0.61273968 -0.86157751 80 140 111
-0.1960579 0.61339879 -0.86221653 91 136 114
-0.19706945 0.61479402 -0.86195183 104 132 116
-0.19329669 0.61291689 -0.86362225 86 135 112
-0.23425484 0.61021531 -0.86246514 84 140 112
-0.23561062 0.60956597 -0.86346292 91 138 111
-0.23533541 0.6087988 -0.86326879 91 137 111
-0.2355545 0.60958469 -0.86342174 91 138 111
-0.23459582 0.60903817 -0.86272556 87 137 112
-0.23375529 0.6078735 -0.86215967 87 138 111
-0.23516212 0.60779607 -0.86315984 92 135 112
-0.23424968 0.6081292 -0.86250293 88 137 112
-0.2335791 0.60832655 -0.86202157 85 139 111
-0.23431014 0.60860676 -0.86253202 87 138 111
-0.23461813 0.607885 -0.86277133 90 136 112
-0.23443711 0.60658956 -0.86268383 90 136 111
-0.23425768 0.60590827 -0.86257911 88 137 109
-0.23496322 0.60520875 -0.86310267 90 136 109
-0.23547114 0.60413826 -0.86349833 90 136 108
-0.23556086 0.60687208 -0.86347163 94 134 112
-0.23350054 0.60509819 -0.86203074 87 137 110
-0.23302121 0.60643339 -0.86167461 86 139 110
-0.23283376 0.60586607 -0.86153126 86 138 110
-0.23258258 0.60474741 -0.86133772 87 136 111
-0.23263314 0.60628259 -0.86138171 85 139 110
-0.23230045 0.60397249 -0.86114234 86 135 112
-0.23182367 0.60579854 -0.86086905 82 138 111
-0.2321087 0.60595185 -0.86103714 84 138 111
-0.23451163 0.60095102 -0.86283094 88 134 110
-0.2352749 0.60092717 -0.86340642 88 135 108
-0.2350785 0.60077947 -0.86326104 88 135 109
-0.23534638 0.60219264 -0.86343837 89 135 108
-0.23404452 0.60297126 -0.86244398 89 135 110
-0.23388666 0.6019178 -0.86234331 88 134 110
-0.23312689 0.60201871 -0.86177027 86 135 111
-0.23272973 0.60076267 -0.86149603 84 137 111
-0.23297128 0.60163456 -0.86166078 85 136 111
-0.23286308 0.60091758 -0.86159325 84 137 111
-0.23275797 0.60214967 -0.86149061 86 135 112
-0.23175463 0.60325176 -0.86083227 83 134 112
-0.23488431 0.5977934 -0.86316669 92 139 109
-0.23422331 0.59741253 -0.86267644 91 140 110
-0.23489016 0.59753329 -0.86317539 93 138 110
-0.23532675 0.59955931 -0.86346984 87 136 107
-0.23422888 0.59873497 -0.86265874 88 138 109
-0.23265669 0.59788692 -0.86139995 82 138 110
-0.2339931 0.59735656 -0.86248732 90 140 110
-0.23319197 0.59688067 -0.86179751 84 138 110
-0.23421283 0.59578776 -0.86259514 90 138 110
-0.23413251 0.59739482 -0.86260521 91 140 110
-0.23456155 0.59459531 -0.86293179 89 136 111
-0.23410413 0.59487557 -0.86253816 87 136 111
-0.23418953 0.5944646 -0.86262792 86 135 112
-0.23457207 0.59436679 -0.86295092 88 135 112
-0.23250829 0.58876139 -0.86133265 88 134 111
-0.23395577 0.58520764 -0.86302572 77 137 111
-0.2328864 0.58516377 -0.86195338 82 138 109
-0.23333973 0.58510107 -0.86241716 80 137 110
-0.23306374 0.58499718 -0.86214668 80 138 109
-0.23354034 0.58455247 -0.86266589 77 138 109
-0.23224406 0.58429635 -0.8614285 82 138 109
-0.23258099 0.583866 -0.86175084 80 139 109
-0.23155884 0.58381146 -0.86096489 79 138 109
-0.23157875 0.58384454 -0.86097896 79 138 108
-0.24448758 0.60758597 -0.87245858 112 138 110
-0.24439624 0.60756844 -0.87234527 111 138 110
-0.24546181 0.60561901 -0.87373143 105 140 108
-0.24509598 0.6060282 -0.87326401 105 140 109
-0.24588893 0.60376346 -0.87447309 103 138 109
-0.24433805 0.60439438 -0.87279147 109 135 111
-0.24440835 0.60437006 -0.87286693 108 136 111
-0.24550357 0.60386032 -0.87406617 104 138 109
-0.24538532 0.60473263 -0.87378734 104 138 109
-0.24396533 0.60392416 -0.87244248 108 134 112
-0.24378213 0.60492742 -0.87201309 107 135 111
-0.24402077 0.6049214 -0.87233466 108 136 111
-0.243357 0.60432875 -0.87155932 104 135 110
-0.24614863 0.60326469 -0.87485677 104 138 109
-0.23784254 0.61569542 -0.86517513 114 135 115
-0.19339882 0.61572373 -0.86412889 101 131 112
-0.1945758 0.61798894 -0.86391389 100 131 109
-0.19503149 0.61841261 -0.86374813 100 130 109
-0.19336922 0.61610979 -0.86421496 100 131 111
-0.19386309 0.61605233 -0.86393982 101 131 112
-0.19012371 0.61592281 -0.86621487 85 131 111
-0.19266252 0.61755127 -0.86491883 93 132 109
-0.19035164 0.61528444 -0.86595345 87 131 112
-0.19212456 0.61548734 -0.86488008 96 130 112
-0.19236493 0.61724252 -0.865049 92 131 110
-0.19185419 0.61524713 -0.86500573 95 131 113
-0.19304773 0.61863613 -0.86487508 92 132 108
-0.23705904 0.61167812 -0.86461818 100 139 110
-0.23878205 0.61141914 -0.86612326 113 136 114
-0.23764771 0.61163259 -0.86513489 104 138 112
-0.23896866 0.61139578 -0.86628658 114 136 114
-0.23795083 0.61371726 -0.86536652 110 137 113
-0.23833989 0.61328971 -0.86578929 113 135 113
-0.23755893 0.61387646 -0.86496341 107 137 113
-0.23852251 0.61331326 -0.86596894 114 135 113
-0.2379097 0.61368918 -0.86532795 110 137 113
-0.23822294 0.61474723 -0.86555076 113 135 114
-0.23692031 0.61390078 -0.86432624 102 139 112
-0.23846857 0.6150775 -0.86581081 116 135 114
-0.23819141 0.61517531 -0.86553305 114 135 114
-0.23631054 0.61258459 -0.86383516 95 140 110
-0.19347644 0.61482292 -0.86391348 99 131 113
-0.19247855 0.61300313 -0.86402059 85 134 112
-0.19326816 0.61468506 -0.86399287 98 131 113
-0.19152753 0.61342424 -0.86454856 87 131 112
-0.19062172 0.61486256 -0.86563981 87 131 112
-0.18978967 0.61449581 -0.86602724 83 131 111
-0.19042179 0.61469316 -0.86570328 86 131 112
-0.24023549 0.61075985 -0.86740458 116 136 115
-0.23811197 0.60911334 -0.86554432 85 142 108
-0.23669973 0.60988897 -0.86429411 93 139 110
-0.23749338 0.6088165 -0.86500287 90 140 110
-0.2370646 0.60879493 -0.86462581 92 138 111
-0.23649545 0.60828358 -0.86412996 97 135 112
-0.23934513 0.60815549 -0.86663872 79 144 107
-0.23956552 0.60761261 -0.86683792 78 144 108
-0.23912892 0.60986322 -0.86643487 97 140 111
-0.24004042 0.60958493 -0.86724114 101 139 112
-0.23908837 0.61095232 -0.86639106 110 137 113
-0.23974368 0.61045468 -0.86697286 109 137 113
-0.23816264 0.60956711 -0.86558467 85 142 108
-0.23625822 0.6093694 -0.86392355 96 137 111
-0.23967279 0.60583127 -0.8670609 91 140 108
-0.23930354 0.60582924 -0.86670619 88 141 107
-0.24017005 0.60709363 -0.86740214 79 144 107
-0.23739794 0.60393965 -0.8650794 97 136 108
-0.23906659 0.60457516 -0.86661428 102 137 108
-0.2386187 0.60488534 -0.86615026 95 138 108
-0.23858798 0.60535395 -0.86606997 88 139 107
-0.23722574 0.6052019 -0.86484116 90 137 108
-0.23800077 0.60659838 -0.86548525 87 138 109
-0.23760325 0.60651636 -0.8651377 90 137 110
-0.23966886 0.60726112 -0.86693507 78 143 108
-0.23903783 0.60717034 -0.8663823 81 142 108
-0.2381978 0.60622001 -0.86566889 86 139 108
-0.23836318 0.60578823 -0.86582613 83 140 107
-0.23629203 0.60662031 -0.86398894 98 133 112
-0.23590954 0.60490131 -0.86378181 94 134 110
-0.23756754 0.60345381 -0.86529112 104 135 108
-0.23727077 0.60348171 -0.86500466 102 135 108
-0.23721844 0.60139894 -0.86502087 102 137 108
-0.23753631 0.60049295 -0.86535364 104 138 108
-0.2367418 0.6009652 -0.86455727 96 136 107
-0.23717503 0.59966165 -0.86501217 99 138 108
-0.23682167 0.60181326 -0.86461961 97 137 108
-0.23627262 0.60212624 -0.86408639 93 135 108
-0.23569967 0.60310334 -0.86368674 90 135 108
-0.23784108 0.59846479 -0.86576617 100 139 107
-0.23750815 0.59858537 -0.86542648 97 139 106
-0.23692486 0.5957911 -0.86495274 104 140 109
-0.23730576 0.59810096 -0.8652541 95 139 106
-0.23666137 0.59623337 -0.8646602 103 140 109
-0.23655231 0.59736055 -0.86450022 99 139 108
-0.23697999 0.59709078 -0.86495656 99 139 108
-0.23681301 0.59602416 -0.86482674 104 140 110
-0.23626958 0.59637558 -0.8642599 103 139 110
-0.23574054 0.59689444 -0.86381161 96 139 109
-0.23562606 0.59949052 -0.86369377 88 135 108
-0.23645732 0.59553456 -0.86449307 108 139 111
-0.23647669 0.59515321 -0.8645348 107 138 111
-0.23623341 0.59422719 -0.86432153 100 135 112
-0.23625329 0.5939939 -0.86434752 99 135 112
-0.23575915 0.5955168 -0.86388159 100 140 110
-0.23550917 0.59320748 -0.86378098 91 134 113
-0.23696443 0.59138048 -0.86528915 101 128 114
-0.23726122 0.59056449 -0.86570579 98 131 112
-0.23687531 0.58829248 -0.86562109 87 136 109
-0.23717915 0.59028053 -0.86563766 94 132 111
-0.23705965 0.58892709 -0.86571908 90 134 110
-0.23692368 0.58996493 -0.86541504 91 132 111
-0.23621391 0.58851165 -0.86488926 83 136 110
-0.23718998 0.58786142 -0.86601996 88 137 108
-0.2376034 0.5859673 -0.86666042 95 136 108
-0.2376218 0.58703887 -0.86656582 93 136 108
-0.237049 0.58510989 -0.86610818 92 135 110
-0.2369846 0.58513224 -0.86603302 92 134 110
-0.23656246 0.58436185 -0.86559987 90 134 112
-0.23643096 0.58607548 -0.86533785 86 135 111
-0.23562364 0.58402193 -0.8647089 82 135 112
-0.23609151 0.58650094 -0.86497599 83 137 110
-0.23542261 0.58450425 -0.86449355 79 137 111
-0.23693046 0.58374196 -0.86605752 93 133 112
-0.23696716 0.58044249 -0.86638021 92 132 109
-0.23648545 0.58211917 -0.86571252 89 133 111
-0.23671913 0.58303529 -0.86585492 92 132 112
-0.23637663 0.58185059 -0.86562961 88 133 110
-0.23588547 0.58062452 -0.86526781 82 134 109
-0.23631804 0.5818494 -0.86557013 87 133 110
-0.23531944 0.58292454 -0.86449802 78 135 110
-0.23694511 0.57956487 -0.86654562 95 133 109
-0.23695597 0.57965827 -0.86652952 95 132 108
-0.2372205 0.57989734 -0.8667298 96 131 109
-0.23590933 0.57793623 -0.86574 91 135 109
-0.23612499 0.57872921 -0.86582714 91 134 108
-0.23547585 0.57828927 -0.8651017 81 136 109
-0.23606531 0.57907659 -0.86566824 88 134 108
-0.23564027 0.5795505 -0.86511612 80 135 108
-0.23474267 0.57599759 -0.8647002 80 138 109
0 0 0 1 0 0 0 1 0 0 0 1 0 0 0 0 0 612 1 0 0
