ply
format ascii 1.0
comment PCL generated
element vertex 1041
property float x
property float y
property float z
property uchar red
property uchar green
property uchar blue
element camera 1
property float view_px
property float view_py
property float view_pz
property float x_axisx
property float x_axisy
property float x_axisz
property float y_axisx
property float y_axisy
property float y_axisz
property float z_axisx
property float z_axisy
property float z_axisz
property float focal
property float scalex
property float scaley
property float centerx
property float centery
property int viewportx
property int viewporty
property float k1
property float k2
end_header
-0.23845503 0.55390036 -0.86909473 145 137 107
-0.23828308 0.5528844 -0.86913103 145 140 106
-0.237128 0.55422509 -0.86777705 128 138 106
-0.23753157 0.55480331 -0.86812383 135 134 109
-0.23800585 0.5545435 -0.86854666 139 136 108
-0.23893417 0.55156559 -0.87006193 156 138 107
-0.23947968 0.5502553 -0.87085956 164 138 108
-0.23778057 0.55211812 -0.86868459 137 143 104
-0.23845695 0.55184877 -0.86948454 147 141 106
-0.23828574 0.55176818 -0.86930281 145 142 105
-0.23897962 0.55088401 -0.8702082 156 139 107
-0.2378878 0.54981214 -0.86902303 151 136 109
-0.23784655 0.5509845 -0.86888599 141 142 105
-0.23811096 0.55048561 -0.86924368 147 140 106
-0.23711491 0.54975837 -0.86808974 147 134 111
-0.23725519 0.55003768 -0.86823916 145 135 109
-0.23729773 0.54995763 -0.86829668 146 135 109
-0.23614687 0.53739387 -0.86908972 147 125 114
-0.23555766 0.53760791 -0.8681125 142 127 114
-0.23542061 0.53725636 -0.86807549 139 126 115
-0.23692225 0.53595376 -0.8702631 142 128 112
-0.23760918 0.53428793 -0.8711552 133 132 110
-0.23708834 0.53539968 -0.87048018 138 129 111
-0.23686869 0.5334233 -0.87000555 118 139 106
-0.23635888 0.53634036 -0.86947691 141 128 112
-0.23642427 0.53550285 -0.8695063 133 132 110
-0.23731455 0.53363883 -0.87069726 124 136 107
-0.23582819 0.53458285 -0.86868799 124 136 107
-0.23560645 0.53497565 -0.86845595 127 134 108
-0.23531356 0.53398812 -0.86802453 117 140 105
-0.23596418 0.53666472 -0.86896086 141 127 113
-0.23502518 0.53401846 -0.86761045 114 140 105
-0.23522876 0.53615439 -0.86787641 129 129 112
-0.23736016 0.5328179 -0.87083185 119 139 105
-0.23669991 0.53156424 -0.87016517 109 146 101
-0.2369826 0.53256768 -0.87032729 115 141 104
-0.23695116 0.53287703 -0.87019801 116 141 105
-0.23659152 0.52942199 -0.87037081 118 143 103
-0.2366443 0.53091294 -0.87018943 112 145 101
-0.23660538 0.52972233 -0.87034035 116 144 102
-0.23614965 0.53200358 -0.86909217 117 141 104
-0.23580156 0.52943784 -0.86898249 127 136 107
-0.23595956 0.52966231 -0.86920875 125 138 106
-0.23544943 0.53008544 -0.86826295 128 133 109
-0.23514199 0.53123415 -0.86777568 122 136 108
-0.23510261 0.53207552 -0.86771971 117 139 105
-0.23526968 0.53108656 -0.86792964 124 135 108
-0.23692441 0.52798474 -0.87103808 129 138 106
-0.2368577 0.5292868 -0.87089074 113 146 101
-0.23640731 0.52781957 -0.86997157 136 135 107
-0.23641801 0.52698755 -0.86993098 142 132 108
-0.23651864 0.52783179 -0.87023169 137 134 108
-0.23521629 0.52578616 -0.8680926 122 133 108
-0.23605517 0.52686769 -0.86933547 136 133 108
-0.23593926 0.5255909 -0.86907512 143 129 110
-0.23496431 0.52623975 -0.86771071 119 133 108
-0.23527564 0.5292244 -0.8681187 132 131 110
-0.23527469 0.52716887 -0.86820024 121 134 108
-0.23535283 0.52700871 -0.86833942 120 136 107
-0.23680426 0.52419996 -0.87081897 155 125 114
-0.23646311 0.5246259 -0.86998391 153 126 112
-0.23647405 0.52459484 -0.8700124 153 126 112
-0.2368917 0.52165353 -0.8712849 147 125 117
-0.23642269 0.52237254 -0.87023276 138 127 115
-0.23558746 0.52376652 -0.86892903 136 130 111
-0.23471245 0.5223484 -0.86806691 116 136 109
-0.23520857 0.52317673 -0.86855209 128 132 110
-0.23613758 0.52459353 -0.86948061 147 128 111
-0.23482242 0.52431971 -0.86776656 116 134 109
-0.23453215 0.52305776 -0.86765879 110 136 108
-0.2348583 0.52327263 -0.8680591 119 134 109
-0.2353697 0.52502543 -0.86835814 130 131 109
-0.23656164 0.51975763 -0.87117821 114 134 113
-0.2367973 0.52072525 -0.87135422 134 128 116
-0.23634759 0.51868045 -0.87104851 94 139 110
-0.23517655 0.51826245 -0.86896306 103 142 108
-0.23554653 0.51852679 -0.86957186 102 141 109
-0.23630047 0.51982486 -0.87059563 109 135 112
-0.23453636 0.51797038 -0.86786246 107 144 107
-0.23590432 0.51760709 -0.87049615 85 145 107
-0.23500609 0.51950407 -0.86848402 113 139 109
-0.23425297 0.52074951 -0.86760587 105 140 108
-0.23494451 0.51952237 -0.86840928 112 139 109
-0.23436776 0.5190568 -0.86768645 106 143 107
-0.23531152 0.52099115 -0.86891073 117 134 112
-0.23620605 0.51748592 -0.87108058 82 145 107
-0.234751 0.51740372 -0.8684057 100 146 106
-0.23561832 0.51553464 -0.870377 100 144 107
-0.2351265 0.51751846 -0.86907756 95 145 106
-0.23596717 0.51689494 -0.87075484 87 145 107
-0.23588777 0.51398653 -0.87117946 106 143 107
-0.23487481 0.51521301 -0.86915505 110 143 107
-0.23563239 0.51379704 -0.87080735 109 142 108
-0.23526204 0.51513487 -0.86981958 107 144 107
-0.23454802 0.51603508 -0.86838335 110 144 107
-0.23536366 0.51493287 -0.87004459 106 144 107
-0.2343602 0.51433575 -0.86854535 119 141 108
-0.23495093 0.51029623 -0.86991167 101 142 107
-0.23576544 0.51072049 -0.87095821 89 143 106
-0.23534724 0.51237798 -0.87055391 109 143 108
-0.23426954 0.51010597 -0.86904794 112 142 107
-0.23600678 0.51211035 -0.87135798 95 142 106
-0.23538317 0.5115425 -0.87053949 102 142 107
-0.23462859 0.51180851 -0.86961544 118 142 108
-0.23487279 0.51328778 -0.86967194 117 141 109
-0.23503272 0.51281536 -0.87004882 115 142 108
-0.23485218 0.51294667 -0.86971819 116 141 108
-0.23530954 0.50740892 -0.87141675 110 136 112
-0.24055326 0.52572095 -0.87882346 162 111 125
-0.24024443 0.52683014 -0.87702751 160 116 121
-0.24038298 0.52790636 -0.87667239 160 120 117
-0.23960997 0.52545834 -0.87669134 158 114 122
-0.24014239 0.52773875 -0.87613344 159 120 117
-0.23987825 0.526559 -0.87644583 159 117 120
-0.23964068 0.52578449 -0.87651598 158 115 121
-0.2336465 0.52597958 -0.87915832 88 142 106
-0.23282011 0.52719343 -0.87911302 79 141 106
-0.23403332 0.52545136 -0.87920111 91 142 106
-0.23131281 0.52543145 -0.87902236 85 133 112
-0.232318 0.52675778 -0.87865317 81 137 109
-0.24045287 0.52424705 -0.87904865 145 117 121
-0.23978688 0.52285337 -0.87783802 126 130 114
-0.23989189 0.52360809 -0.87784499 137 124 117
-0.24011207 0.52461708 -0.87801683 151 115 122
-0.24000846 0.52429265 -0.87789476 146 118 120
-0.24019814 0.5236885 -0.87844664 135 122 118
-0.23988181 0.52261311 -0.87809724 121 131 112
-0.2394924 0.52508533 -0.87658691 155 117 121
-0.23887224 0.52361608 -0.87573129 140 129 113
-0.24012168 0.52534211 -0.87783176 160 111 125
-0.23873954 0.52278012 -0.87570733 133 134 109
-0.23300561 0.52346325 -0.8785615 98 136 111
-0.23381986 0.52347732 -0.8792491 99 140 109
-0.23373547 0.52287 -0.8792606 100 139 109
-0.23286732 0.5246582 -0.87828118 95 134 111
-0.23278129 0.52189797 -0.87870783 97 137 111
-0.23332213 0.52179253 -0.87908459 102 137 111
-0.23195247 0.5220834 -0.87896067 90 135 112
-0.23223306 0.5225789 -0.87854481 93 135 111
-0.23181346 0.52415252 -0.87869692 89 134 112
-0.23225179 0.52325457 -0.87839556 92 134 112
-0.24042092 0.51855052 -0.87904823 98 146 104
-0.23997948 0.51788807 -0.87805438 106 142 107
-0.23985052 0.52036399 -0.8783443 103 139 109
-0.23992522 0.51766741 -0.87793201 107 143 106
-0.23911875 0.51921326 -0.87704736 110 135 112
-0.23977381 0.51906627 -0.87798047 106 139 109
-0.23872925 0.52143306 -0.87606472 118 144 105
-0.238731 0.51994836 -0.87621921 115 139 109
-0.23870002 0.51915407 -0.87623686 114 135 112
-0.23861441 0.51982164 -0.87599462 116 138 109
-0.23825443 0.5181011 -0.87543648 118 132 114
-0.23244372 0.52139878 -0.87858206 94 137 111
-0.23296224 0.52008528 -0.87919748 92 140 109
-0.23225959 0.52141088 -0.87875217 92 136 112
-0.23945855 0.51460403 -0.87923139 120 143 107
-0.23840943 0.5173865 -0.8758207 117 133 114
-0.23840949 0.51677853 -0.8762368 119 133 114
-0.23912911 0.51560253 -0.87809795 119 140 109
-0.2400021 0.51689911 -0.87849218 109 144 106
-0.23913927 0.51547879 -0.87819755 119 141 109
-0.23807004 0.5157389 -0.87590194 116 136 112
-0.23851392 0.51515514 -0.87728125 121 138 111
-0.238556 0.51372784 -0.87804663 121 142 109
-0.23829409 0.5170747 -0.875844 119 132 114
-0.23824677 0.51410073 -0.87710136 117 141 109
-0.23754346 0.51387173 -0.87544972 109 141 109
-0.23245136 0.51690412 -0.87908703 79 145 105
-0.23333384 0.5146752 -0.87884337 90 146 104
-0.23317933 0.51385176 -0.87836212 94 144 104
-0.23224851 0.51374662 -0.87790442 91 140 106
-0.23234694 0.51629972 -0.87889063 81 143 106
-0.23110703 0.51377428 -0.87925994 77 141 106
-0.2387931 0.51311016 -0.87915087 128 142 109
-0.2380356 0.51162457 -0.87784362 116 141 108
-0.23792204 0.5113163 -0.87802434 123 140 109
-0.23737927 0.51045096 -0.87621111 95 142 106
-0.23713829 0.50999194 -0.87573558 90 142 105
-0.23716992 0.50983983 -0.87673295 112 139 109
-0.23788784 0.51209193 -0.8768819 106 142 107
-0.23808995 0.51236141 -0.87730527 110 142 107
-0.23834227 0.51328737 -0.87765497 117 142 108
-0.23738806 0.51147646 -0.8758195 98 142 106
-0.23796897 0.51243532 -0.87698048 109 142 107
-0.2382797 0.51249129 -0.87774009 112 143 107
-0.2343194 0.51273608 -0.87916255 108 145 105
-0.23340608 0.5131442 -0.87844086 102 143 106
-0.23383108 0.51344132 -0.87880278 98 146 104
-0.2334199 0.51331282 -0.87846118 100 144 105
-0.23271327 0.51282412 -0.87793583 104 139 108
-0.23289356 0.51041192 -0.87841815 125 134 111
-0.2328041 0.51034766 -0.87839031 124 133 112
-0.23183544 0.5109027 -0.87880939 108 135 110
-0.23159258 0.51016122 -0.87918288 107 134 111
-0.23172067 0.51328409 -0.87855852 88 140 106
-0.23198923 0.51119089 -0.87859344 109 135 110
-0.23212773 0.51249838 -0.8782112 100 138 108
-0.23710941 0.50874531 -0.8768183 132 134 113
-0.23699953 0.50840849 -0.87580758 118 135 111
-0.23721747 0.50859672 -0.87799424 157 132 117
-0.23701079 0.50818992 -0.87600732 126 134 112
-0.23455793 0.50958985 -0.87914366 146 134 115
-0.23330639 0.50940686 -0.87846589 133 132 113
-0.23274656 0.50837451 -0.8779043 137 131 113
-0.23384728 0.50807732 -0.87763774 138 129 115
-0.23313037 0.50879681 -0.87794852 133 130 113
-0.23050688 0.50663143 -0.87919408 112 135 111
-0.23121043 0.50697356 -0.87869757 124 133 112
-0.23075598 0.5061149 -0.87881672 121 134 112
-0.23186235 0.50957847 -0.87889212 116 133 112
-0.23168968 0.50944871 -0.879049 114 134 111
-0.23105536 0.50582057 -0.87845409 130 133 112
-0.22898474 0.54183179 -0.8592096 69 135 112
-0.22851509 0.54159826 -0.85868096 59 137 111
-0.22923961 0.53962523 -0.85954583 76 138 110
-0.22941318 0.54071516 -0.85961819 82 133 114
-0.22774446 0.53979695 -0.85799855 57 138 110
-0.22768737 0.54048198 -0.85796154 58 136 112
-0.23293331 0.54733121 -0.86350399 109 141 105
-0.23289277 0.54632604 -0.86344033 118 137 107
-0.23178793 0.54503804 -0.8623597 110 130 112
-0.23190479 0.54588395 -0.86249083 103 135 108
-0.23302974 0.54355299 -0.86357027 142 130 111
-0.23279288 0.54376608 -0.8633523 139 128 112
-0.23248936 0.54426801 -0.8630504 133 127 113
-0.23253275 0.54111707 -0.86295885 153 132 111
-0.23190774 0.54240435 -0.86232376 133 130 113
-0.23073305 0.5421747 -0.8610552 107 130 114
-0.23003165 0.54162914 -0.86027849 94 130 115
-0.22997457 0.54107416 -0.86019117 96 131 115
-0.23238309 0.54211485 -0.86281914 145 131 111
-0.23097982 0.54138416 -0.86128217 118 131 113
-0.23217471 0.54480857 -0.8627342 123 127 113
-0.23022713 0.54311395 -0.86061829 85 133 111
-0.22962232 0.54267377 -0.85996956 73 135 111
-0.23271942 0.54081571 -0.86322129 153 132 111
-0.23001762 0.53756922 -0.86060566 87 145 104
-0.23058814 0.53811806 -0.86116219 101 142 106
-0.23107216 0.53725517 -0.86180097 102 142 106
-0.23206894 0.54024458 -0.86251879 142 134 110
-0.23229997 0.53858751 -0.86297983 132 135 110
-0.23013374 0.53732383 -0.86076373 87 145 104
-0.23212694 0.54055369 -0.86254352 145 134 110
-0.22975759 0.53861642 -0.86020672 86 142 107
-0.23070346 0.54002672 -0.86107224 111 136 110
-0.22991209 0.53889275 -0.86034328 90 141 108
-0.23090817 0.53919148 -0.86137861 114 140 107
-0.23053685 0.53963161 -0.86093509 107 138 109
-0.23113734 0.53990149 -0.86154985 122 136 109
-0.23152535 0.53663743 -0.86240417 105 142 106
-0.23152649 0.5358218 -0.86255765 101 145 104
-0.23186356 0.53357154 -0.86334735 95 153 99
-0.23036622 0.53709972 -0.86104721 89 145 105
-0.23007634 0.53660798 -0.86082131 81 148 102
-0.23098367 0.53542477 -0.86203676 89 149 102
-0.23154029 0.53654289 -0.8624382 105 142 106
-0.22946829 0.53494185 -0.86025894 75 146 104
-0.23004059 0.53385276 -0.86105323 81 146 103
-0.23147964 0.53342885 -0.86288363 91 152 99
-0.23100913 0.53408164 -0.86224806 87 151 100
-0.22993533 0.53510994 -0.86083096 78 148 102
-0.23017465 0.53457063 -0.86116916 80 148 102
-0.22939478 0.53538299 -0.8601352 73 146 104
-0.2323858 0.5310024 -0.86363316 121 137 110
-0.23126745 0.53293717 -0.86266267 90 151 101
-0.23197332 0.53312624 -0.86352551 95 153 98
-0.23243639 0.52365923 -0.86353534 124 142 103
-0.23231912 0.52505141 -0.86344653 112 151 98
-0.23189232 0.52223104 -0.86288458 129 134 110
-0.23174904 0.52145195 -0.86270911 133 131 113
-0.23031899 0.52034801 -0.86137843 118 135 112
-0.23017114 0.52074951 -0.86115122 115 135 112
-0.23122846 0.52044612 -0.86233944 129 133 112
-0.23125544 0.52037406 -0.86238664 130 133 112
-0.23015517 0.51913083 -0.86145812 119 136 112
-0.23240341 0.5209887 -0.86351413 143 129 114
-0.23126973 0.51893991 -0.86278844 133 130 115
-0.23077291 0.51768333 -0.86260724 128 129 117
-0.23040229 0.51775932 -0.86215031 124 131 115
-0.23149672 0.51911783 -0.862997 135 129 115
-0.23096339 0.51775086 -0.86280829 130 128 118
-0.23932935 0.55283159 -0.88633084 95 142 103
-0.23818538 0.55390495 -0.88666248 85 140 106
-0.23676665 0.5530014 -0.88513207 55 143 104
-0.23868753 0.55402911 -0.88700598 93 140 105
-0.23640651 0.55350882 -0.88548946 52 143 104
-0.23842598 0.55370438 -0.88656384 87 141 105
-0.23626128 0.55449003 -0.88660204 58 142 105
-0.23552719 0.55325037 -0.88703221 42 145 103
-0.23793331 0.55029202 -0.88561326 87 137 107
-0.23681839 0.55071998 -0.88500917 68 143 105
-0.23799305 0.54982978 -0.88566309 91 137 108
-0.23723018 0.55022627 -0.88524562 78 140 106
-0.23679247 0.54909933 -0.88505983 81 143 106
-0.23812452 0.55146545 -0.88567346 82 138 107
-0.23892459 0.5513258 -0.88610798 95 137 106
-0.23791638 0.551494 -0.88556069 78 139 106
-0.23931509 0.55081975 -0.88633239 104 135 108
-0.23526128 0.55142546 -0.88707703 51 144 105
-0.23558401 0.55050415 -0.8863917 59 145 104
-0.23527217 0.54942632 -0.88699144 71 143 108
-0.23533227 0.55196404 -0.88694978 44 146 103
-0.23554248 0.55271077 -0.88647515 39 146 103
-0.23615579 0.55114007 -0.88512957 57 144 104
-0.23598629 0.55131888 -0.88551158 54 145 103
-0.23598923 0.55039555 -0.8855415 62 145 104
-0.23650625 0.54833287 -0.88456929 82 144 106
-0.23654328 0.54752469 -0.8837775 86 140 109
-0.23965724 0.54538381 -0.88491488 132 139 110
-0.23818029 0.54552013 -0.88380486 122 133 114
-0.23865218 0.54606384 -0.88461131 119 138 111
-0.23911756 0.54596198 -0.88491577 123 140 109
-0.23771533 0.54802567 -0.88517684 97 141 107
-0.23877214 0.54779315 -0.88562328 112 137 109
-0.23807457 0.54754972 -0.88514072 104 141 107
-0.23628175 0.54757166 -0.88360453 81 139 108
-0.2360395 0.54818499 -0.88473922 79 141 108
-0.23540016 0.54831141 -0.88605249 77 142 108
-0.23545384 0.54793417 -0.88540256 77 142 108
-0.23407927 0.54578841 -0.88400608 61 140 106
-0.23563521 0.54814208 -0.88547188 79 141 108
-0.23433925 0.54638386 -0.88455999 64 141 106
-0.23461142 0.54509068 -0.88653904 61 156 100
-0.2343654 0.54497057 -0.88567251 59 152 100
-0.23460673 0.54509115 -0.88652128 61 156 99
-0.2344169 0.54593271 -0.88544053 63 146 104
-0.23469011 0.54492778 -0.88690501 61 159 99
-0.2347938 0.5460605 -0.88679284 65 152 102
-0.24010843 0.54220027 -0.88441724 119 135 111
-0.23935556 0.54245269 -0.88404977 112 138 108
-0.23912893 0.54118258 -0.8836686 100 137 107
-0.23851861 0.54277438 -0.88346791 109 136 110
-0.2395737 0.54355246 -0.88439196 122 139 109
-0.23968181 0.54380429 -0.88449907 126 139 109
-0.23933089 0.54350775 -0.88418901 121 138 109
-0.23287702 0.54103667 -0.88698745 38 142 111
-0.23325405 0.54380262 -0.88379419 48 141 105
-0.23276459 0.54232556 -0.88481063 39 144 105
-0.23322654 0.54397696 -0.88346785 47 143 103
-0.23329231 0.5420875 -0.8866629 44 145 108
-0.23368278 0.54360127 -0.88546288 51 144 105
-0.23339772 0.54207367 -0.88708121 45 146 108
-0.23330772 0.54225433 -0.88642734 45 144 108
-0.2337283 0.54362381 -0.88559347 51 146 104
-0.23364878 0.54456562 -0.88364142 54 139 105
-0.23951893 0.53901821 -0.88414633 123 129 114
-0.23838268 0.53797781 -0.88366032 111 129 115
-0.23861441 0.53753752 -0.88385808 122 127 115
-0.23927753 0.53924716 -0.88397497 115 130 113
-0.23817265 0.53727496 -0.88364774 115 128 115
-0.23848449 0.54094738 -0.88328701 92 138 105
-0.23947789 0.54024261 -0.8839398 108 133 111
-0.23897034 0.54027039 -0.88365388 101 136 109
-0.23268019 0.53988785 -0.88458019 47 144 106
-0.23270404 0.53883547 -0.88334066 50 144 106
-0.23355049 0.53860563 -0.88406813 55 141 109
-0.23296165 0.54053664 -0.88625872 42 143 110
-0.2331049 0.54037637 -0.8863551 42 142 110
-0.23410515 0.53775609 -0.88388455 59 138 112
-0.23344249 0.53959715 -0.88601607 50 140 111
-0.23392269 0.53836799 -0.88546538 62 138 111
-0.23310167 0.54051602 -0.88684714 43 141 111
-0.23376429 0.53884459 -0.88632184 61 138 111
-0.23367986 0.53900123 -0.88585472 56 139 111
-0.2386051 0.53417784 -0.88382643 111 141 106
-0.23838949 0.53329712 -0.88394028 95 147 103
-0.23871292 0.53674477 -0.88395059 128 127 115
-0.23780766 0.53676826 -0.88343984 108 130 115
-0.23819131 0.53649539 -0.88363594 116 130 114
-0.23860481 0.53705627 -0.88391346 127 126 116
-0.23320973 0.53485864 -0.88705808 65 144 106
-0.23440346 0.53569657 -0.88593853 76 141 107
-0.23413394 0.53618109 -0.88681906 80 138 109
-0.23367369 0.53553116 -0.88692415 73 141 107
-0.23433125 0.53361225 -0.88407838 56 153 100
-0.23409526 0.53592968 -0.88664162 78 139 108
-0.23376359 0.53458899 -0.88589144 64 146 105
-0.23449247 0.53550446 -0.88383645 63 144 106
-0.23445204 0.53583431 -0.88349181 61 144 107
-0.23442054 0.53616124 -0.88334769 61 142 108
-0.23448044 0.53654563 -0.88541883 77 138 110
-0.23447822 0.53572947 -0.88390934 63 144 106
-0.2344975 0.53581709 -0.88451129 68 143 107
-0.23822308 0.53232938 -0.88322347 99 145 103
-0.23861775 0.53202456 -0.88364863 100 142 105
-0.23840888 0.53214359 -0.88339889 100 143 104
-0.2388801 0.53207934 -0.88408148 99 141 106
-0.23305729 0.5324077 -0.88632977 55 150 104
-0.23353291 0.53276867 -0.88531196 54 152 102
-0.23401646 0.53247595 -0.88470805 58 150 103
-0.2329938 0.53216267 -0.88659418 58 149 105
-0.23304382 0.53177059 -0.88676804 62 146 107
-0.23382235 0.52987581 -0.88672543 82 136 114
-0.23383088 0.53032219 -0.88524783 77 140 109
-0.23387524 0.53031766 -0.88543773 78 139 110
-0.23343591 0.53006774 -0.8841064 79 140 108
-0.23347455 0.53013188 -0.88414496 78 140 108
-0.23361915 0.53044295 -0.88415694 76 142 107
-0.23394458 0.53084421 -0.88474041 73 143 108
-0.23418714 0.52593398 -0.88593298 84 141 107
-0.23392917 0.52597493 -0.8855601 84 141 107
-0.23333426 0.52579498 -0.88474602 82 141 106
-0.23405795 0.52626747 -0.88566822 84 141 107
-0.23369637 0.52756703 -0.88481045 84 139 107
-0.23288231 0.52771991 -0.8836863 85 139 107
-0.23406011 0.52606827 -0.88572901 84 141 107
-0.23340152 0.52869779 -0.88469058 85 137 109
-0.23330954 0.52857614 -0.88417006 84 138 108
-0.23405646 0.52827829 -0.88687164 86 135 113
-0.23444659 0.5263629 -0.88619488 83 140 107
-0.23352404 0.52838492 -0.88482052 85 137 109
-0.2402444 0.5233078 -0.88335663 113 135 112
-0.23256847 0.52219325 -0.8854562 67 140 107
-0.23379678 0.52148932 -0.88432878 82 142 108
-0.23245274 0.52349001 -0.88431323 73 140 107
-0.23279533 0.52378994 -0.88349497 81 141 107
-0.23276578 0.52331203 -0.8840245 77 140 107
-0.23283339 0.52477503 -0.8847146 76 140 106
-0.23249063 0.52263701 -0.88635206 63 139 108
-0.23380633 0.52432895 -0.88653827 75 141 107
-0.23281382 0.52407759 -0.88537961 72 140 107
-0.23408084 0.52520269 -0.88605988 81 141 107
-0.23365875 0.52425003 -0.88640726 75 140 107
-0.23322053 0.52316141 -0.88686687 67 140 108
-0.23235261 0.52237588 -0.88644391 61 139 108
-0.23227257 0.52404642 -0.88470572 71 140 106
-0.23236212 0.52338028 -0.88461906 72 140 107
-0.23223545 0.52313 -0.88518262 68 139 107
-0.23231199 0.52417296 -0.88393259 76 140 107
-0.23329233 0.5214293 -0.88519555 74 140 108
-0.23387936 0.51843166 -0.88704467 77 141 108
-0.23297775 0.5203287 -0.88687211 65 139 108
-0.23348024 0.52071691 -0.88568318 74 141 108
-0.23408812 0.51939338 -0.88583905 81 142 108
-0.23391663 0.52031422 -0.88530833 81 142 108
-0.23394999 0.51846856 -0.88689327 78 141 109
-0.23397361 0.51817024 -0.88514793 80 143 108
-0.23412427 0.51977736 -0.88371074 85 144 108
-0.23376475 0.51856846 -0.88385189 79 144 107
-0.23418541 0.51959074 -0.88417786 86 143 108
-0.2342132 0.51879245 -0.88528371 83 144 108
-0.23265162 0.51398885 -0.88399535 86 141 107
-0.23279531 0.51539326 -0.88354206 80 143 107
-0.23287836 0.5150308 -0.88396454 83 141 108
-0.23262522 0.51467413 -0.88362223 82 141 107
-0.23308203 0.51520777 -0.88431114 85 142 107
-0.23381416 0.51429021 -0.88661122 99 139 109
-0.23380613 0.51661479 -0.88563991 84 142 108
-0.23392409 0.5166716 -0.88606721 84 142 108
-0.23396483 0.51455504 -0.8870793 99 140 109
-0.23403423 0.51620948 -0.88667482 88 141 108
-0.23401803 0.51609659 -0.88665855 89 141 108
-0.23368612 0.51037318 -0.88322455 119 139 111
-0.2335449 0.51262826 -0.88520354 106 139 110
-0.23292659 0.51255792 -0.88362104 97 139 109
-0.23303325 0.51294076 -0.88428122 97 140 108
-0.23307066 0.51262033 -0.88403785 99 140 109
-0.23382473 0.51316828 -0.88645053 106 139 109
-0.23384327 0.5109179 -0.88499695 115 139 110
-0.23379536 0.51002878 -0.88458711 116 139 110
-0.23370096 0.51173925 -0.88677132 103 139 108
-0.23377927 0.51071215 -0.88529801 112 139 110
-0.23350099 0.50990367 -0.8866818 102 140 108
-0.23384829 0.51307493 -0.88682288 105 139 109
-0.23304181 0.50850296 -0.88633919 101 141 107
-0.23252133 0.50700927 -0.88559115 102 140 108
-0.23250175 0.50600046 -0.88417596 114 140 109
-0.2332036 0.5080061 -0.88451076 114 139 109
-0.23362708 0.50926459 -0.88440078 117 138 110
-0.23318641 0.50759053 -0.8836295 120 139 111
-0.23349488 0.50865066 -0.88389796 119 138 111
-0.23304509 0.50734812 -0.88409775 116 139 109
-0.23316762 0.50760788 -0.88381231 119 138 110
-0.23206131 0.50632709 -0.88679105 97 140 108
-0.23235191 0.5076502 -0.88710237 89 142 107
-0.23251426 0.50534201 -0.88359773 118 139 109
-0.23230678 0.50533861 -0.88457292 112 141 108
-0.23226917 0.50567096 -0.88494873 109 140 109
-0.23114423 0.50466776 -0.88648605 95 139 106
-0.23018406 0.50336713 -0.88607144 88 137 105
-0.23064771 0.50405854 -0.88636941 91 138 106
-0.23107816 0.50431424 -0.88605022 96 139 106
-0.2304747 0.50326723 -0.8854354 93 138 105
-0.23212957 0.50407982 -0.88394529 114 141 107
-0.2304778 0.50400949 -0.8865754 88 138 106
-0.23128882 0.49882817 -0.88430941 115 140 108
-0.23149417 0.49440739 -0.8848635 119 136 111
-0.23151509 0.49449453 -0.88494861 118 137 111
-0.23150496 0.49500692 -0.88534003 116 138 110
-0.23260118 0.49352327 -0.88709205 141 129 116
-0.23094454 0.49376008 -0.88381714 112 139 111
-0.23198125 0.49210745 -0.88663083 132 132 115
-0.23115648 0.49345905 -0.88437533 116 137 112
-0.23124087 0.4929128 -0.884794 119 137 113
-0.23132825 0.49295515 -0.88494754 120 136 113
-0.23115258 0.4925209 -0.8847813 119 137 113
-0.23844407 0.52932918 -0.87303466 128 139 105
-0.23773834 0.53132409 -0.87181801 118 142 103
-0.23773125 0.53145784 -0.87176901 118 141 104
-0.2382945 0.53254044 -0.87236989 127 137 106
-0.23844416 0.53298682 -0.87248492 129 136 107
-0.2381319 0.5279513 -0.87324387 129 135 108
-0.23907201 0.52680683 -0.87489593 150 124 115
-0.23894934 0.52867085 -0.87392682 140 133 109
-0.23793134 0.52852803 -0.87274522 123 139 105
-0.23814127 0.5284307 -0.87304461 127 137 106
-0.23909587 0.52668697 -0.87497777 151 123 115
-0.23813204 0.52727467 -0.87354136 132 133 109
-0.23730852 0.52830076 -0.87178725 120 141 103
-0.23761 0.52810609 -0.87243521 121 139 105
-0.23828562 0.52642399 -0.87391245 143 126 113
-0.23737504 0.52675045 -0.8719607 141 132 109
-0.23822133 0.52577698 -0.87378818 152 123 115
-0.23735289 0.52836603 -0.87188071 119 142 103
-0.23859981 0.52391344 -0.87496883 145 125 115
-0.23817466 0.52335322 -0.87402481 147 125 116
-0.23882522 0.52504081 -0.87513852 154 119 119
-0.23848684 0.52385575 -0.87468165 147 125 116
-0.2383703 0.52256817 -0.87487471 134 134 110
-0.23728952 0.52180052 -0.87221318 146 127 116
-0.23854949 0.52492636 -0.87453789 155 119 118
-0.23727907 0.52347696 -0.8719517 154 124 116
-0.23711371 0.52432662 -0.87152368 158 124 115
-0.23754121 0.52341557 -0.87251711 153 123 117
-0.23785244 0.52389663 -0.87313956 154 122 118
-0.23861922 0.52532965 -0.87465131 156 119 119
-0.23786232 0.51950574 -0.87445027 111 140 108
-0.23668739 0.51761085 -0.87213999 87 141 110
-0.2380468 0.5194906 -0.87484634 114 139 109
-0.23780572 0.52006972 -0.87426901 110 143 106
-0.23813638 0.51935118 -0.87505281 116 138 109
-0.23750466 0.52126169 -0.87302363 134 133 112
-0.23675101 0.51916015 -0.87183923 106 137 111
-0.23774587 0.52036458 -0.87406361 111 143 106
-0.23732112 0.52130133 -0.87250304 138 131 113
-0.23696031 0.52132314 -0.87150317 146 126 117
-0.23774143 0.52145535 -0.8735922 134 135 110
-0.23688281 0.51443231 -0.8734892 101 143 108
-0.23737662 0.51381326 -0.87505281 107 141 108
-0.23652492 0.51582128 -0.87219423 91 143 108
-0.23686986 0.51442885 -0.87345159 101 143 108
-0.23656787 0.51606363 -0.87228113 90 143 108
-0.23634323 0.5167219 -0.87150687 85 144 108
-0.23699756 0.51568604 -0.87355566 96 141 109
-0.2365723 0.51695013 -0.87214583 85 143 109
-0.23695105 0.51655382 -0.87311274 93 141 109
-0.23705409 0.51728719 -0.87304276 94 139 111
-0.237828 0.51741707 -0.87464637 110 134 113
-0.23798418 0.51747197 -0.87495857 113 133 114
-0.23629053 0.51539415 -0.87162614 92 144 108
-0.2369789 0.51301181 -0.87413996 102 142 107
-0.23685694 0.51080418 -0.87457055 89 143 105
-0.23694806 0.51035547 -0.87500012 88 142 105
-0.23708344 0.51107085 -0.87514341 93 142 106
-0.2370187 0.51075786 -0.87506443 90 142 105
-0.23646185 0.51183754 -0.87256837 90 143 105
-0.23684464 0.5102511 -0.87453234 86 143 105
-0.2364064 0.51262045 -0.87232774 95 143 106
-0.23680669 0.50983518 -0.87429219 81 143 104
-0.23635709 0.51050425 -0.87189114 77 143 105
-0.23625945 0.50980306 -0.87152719 73 143 104
-0.23615797 0.51170564 -0.87152791 89 143 106
-0.23661092 0.50896358 -0.87337846 92 139 107
-0.23671517 0.50916517 -0.87390727 91 139 107
-0.23690902 0.50909567 -0.8749792 96 139 107
-0.23659939 0.50823551 -0.87346095 106 134 111
-0.23664297 0.50805497 -0.87373501 110 134 111
-0.23653769 0.50725609 -0.87375993 123 131 114
-0.23636572 0.50851065 -0.87256813 96 136 109
-0.23599024 0.50663203 -0.8731209 128 129 116
-0.23632081 0.50836372 -0.87256694 98 136 110
-0.23516963 0.50681347 -0.87160408 119 134 114
-0.23698588 0.55858004 -0.89094228 47 144 103
-0.23746376 0.55910283 -0.89065254 59 143 104
-0.23756589 0.55749363 -0.88998991 54 142 106
-0.23701406 0.55788994 -0.89037043 40 149 100
-0.2375122 0.5579502 -0.8899346 51 147 102
-0.23880844 0.55760956 -0.88891029 80 139 109
-0.23684829 0.55679262 -0.88994569 48 144 104
-0.23634018 0.55703104 -0.89045846 35 149 100
-0.23582621 0.55714929 -0.89021307 39 147 102
-0.23608406 0.55747479 -0.8907153 31 149 100
-0.23398429 0.55887967 -0.89099348 30 143 103
-0.23505351 0.5578866 -0.89048558 36 145 103
-0.24041565 0.55372775 -0.88724339 113 138 107
-0.24080023 0.55352378 -0.8873294 114 138 108
-0.23663139 0.55561066 -0.88829917 58 143 104
-0.23976511 0.55371493 -0.88720042 107 139 106
-0.23720217 0.55535859 -0.88828439 66 143 104
-0.23868765 0.55448699 -0.88781732 88 141 105
-0.23793501 0.55570495 -0.88895679 70 142 105
-0.23982187 0.55416828 -0.88751626 106 138 107
-0.23434258 0.53580338 -0.88823271 68 134 112
-0.23347424 0.53459179 -0.88794369 56 142 108
-0.23325233 0.53456712 -0.88755637 58 144 107
-0.2335812 0.5345614 -0.88817692 54 142 109
-0.23444994 0.53616285 -0.88803774 73 133 112
-0.23348476 0.53402215 -0.8885901 45 142 109
-0.23523656 0.5359391 -0.8901754 53 139 111
-0.23461261 0.53594029 -0.88867486 66 135 112
-0.23476876 0.53568399 -0.88933933 58 136 112
-0.23552313 0.53684372 -0.88984287 64 141 109
-0.23581192 0.53700781 -0.89035159 62 142 109
-0.23532911 0.53567201 -0.89069933 46 141 111
-0.2353884 0.53617287 -0.89027637 54 140 111
-0.23272333 0.53235304 -0.88725668 58 147 106
-0.23363891 0.53211701 -0.88888597 47 139 112
-0.23373343 0.53081626 -0.88808894 66 136 114
-0.23290685 0.53213477 -0.88745236 58 146 107
-0.23363809 0.5305233 -0.88767892 72 136 114
-0.23401313 0.53292584 -0.89023739 28 136 114
-0.23391046 0.53199881 -0.88933331 45 135 114
-0.23425768 0.53127164 -0.89077741 26 134 117
-0.23419504 0.53110129 -0.89024556 36 133 117
-0.23408248 0.53047442 -0.88931274 52 133 117
-0.23408286 0.5295195 -0.88938409 52 133 117
-0.23406205 0.53052437 -0.8891319 54 133 116
-0.23488712 0.52574402 -0.88802123 79 139 109
-0.234791 0.52629328 -0.88858539 71 138 111
-0.23486996 0.5257467 -0.89098781 80 138 111
-0.23461303 0.52729529 -0.89007545 57 136 113
-0.23452516 0.52781618 -0.89002782 49 135 115
-0.23478954 0.52615029 -0.88761067 77 139 109
-0.23388773 0.52928704 -0.88768077 79 132 117
-0.23437996 0.52849275 -0.88995397 42 135 115
-0.23424542 0.52837354 -0.88848561 66 134 115
-0.23446038 0.52717036 -0.88732177 82 137 112
-0.23462611 0.5270257 -0.88839644 65 138 111
-0.23290722 0.52241671 -0.89016771 61 138 109
-0.2333786 0.52310443 -0.89057356 66 139 109
-0.23249303 0.52181226 -0.88981456 56 137 109
-0.23248282 0.52185827 -0.88744962 58 139 108
-0.23389404 0.52388388 -0.88995641 74 138 110
-0.23359817 0.52341866 -0.89099878 69 138 110
-0.234824 0.52520835 -0.88713872 82 141 107
-0.23367143 0.52357471 -0.88872516 71 139 109
-0.23489518 0.52532274 -0.88871598 83 140 108
-0.23375255 0.52368438 -0.88794976 72 139 108
-0.23474759 0.52509987 -0.88721752 81 140 108
-0.23363206 0.52351671 -0.8885057 70 139 108
-0.23265776 0.51248717 -0.88930678 76 142 106
-0.23245434 0.51094282 -0.88866758 76 142 107
-0.23273353 0.51354349 -0.88990384 74 144 104
-0.23254067 0.51158279 -0.88892746 76 142 106
-0.23370747 0.51364338 -0.88752055 99 139 108
-0.23349382 0.51083905 -0.88715297 99 140 108
-0.23233043 0.51073182 -0.88881832 76 141 107
-0.23157014 0.51054662 -0.89048159 80 135 114
-0.23210654 0.51126236 -0.88975048 75 140 109
-0.23190336 0.5118221 -0.89065552 74 139 109
-0.23235029 0.51320356 -0.8906399 66 145 103
-0.23237972 0.5133664 -0.89067805 66 145 103
-0.2331683 0.5094499 -0.8871752 95 140 107
-0.23258077 0.4941431 -0.88860983 128 131 113
-0.23256363 0.49352136 -0.88759035 137 130 115
-0.23269355 0.49401608 -0.88721126 141 129 115
-0.23633061 0.55040962 -0.86702865 133 135 109
-0.23575324 0.55017453 -0.86643177 127 138 108
-0.23578022 0.5510661 -0.86643755 120 140 106
-0.23626743 0.55062795 -0.86695582 131 136 109
-0.2360169 0.54978222 -0.86671615 134 134 110
-0.23638089 0.54595906 -0.8669098 151 137 111
-0.23462018 0.54528379 -0.86510295 143 134 110
-0.23585759 0.54707825 -0.8664571 146 133 112
-0.23507574 0.54682612 -0.8656776 143 131 112
-0.23457743 0.54602522 -0.86512548 141 131 111
-0.23445064 0.54621798 -0.8650192 141 130 112
-0.2344836 0.54554182 -0.86499286 142 132 111
-0.23361903 0.54638857 -0.86417472 129 134 109
-0.23323461 0.54581356 -0.86375827 129 134 109
-0.23367605 0.54717839 -0.86425638 123 137 107
-0.23503707 0.54767722 -0.86568743 138 131 111
-0.23350267 0.5455128 -0.86402881 136 130 110
-0.23362687 0.54573238 -0.86416435 136 130 111
-0.23441027 0.54353791 -0.8651877 149 133 110
-0.23453566 0.54377007 -0.86525571 148 133 110
-0.23338637 0.544734 -0.86391926 138 130 110
-0.23348351 0.542871 -0.86410892 148 131 110
-0.23366557 0.54358822 -0.8643102 145 131 110
-0.23461612 0.54202294 -0.86551881 157 133 110
-0.2333439 0.54171914 -0.86397249 154 131 111
-0.23316275 0.54420483 -0.86367714 140 130 111
-0.23379755 0.54119694 -0.86454266 158 132 110
-0.23375943 0.54295522 -0.86444378 149 132 110
-0.23503155 0.53800458 -0.86708319 140 130 113
-0.23485613 0.53894609 -0.86627799 147 134 111
-0.23377419 0.53821552 -0.86483151 136 136 109
-0.23556112 0.53911877 -0.86738384 151 132 112
-0.23479584 0.53834277 -0.86650026 142 132 112
-0.23385501 0.53805643 -0.86505455 135 135 110
-0.23477337 0.53890616 -0.86615872 146 134 110
-0.23302969 0.53999507 -0.86371756 148 132 110
-0.23306057 0.53784388 -0.86398351 130 136 109
-0.23311706 0.53404599 -0.86483443 106 147 101
-0.23244041 0.53324735 -0.86404634 99 154 98
-0.23349713 0.53339398 -0.86547768 104 149 100
-0.23399529 0.5343976 -0.86596501 112 143 104
-0.23311955 0.5360319 -0.86442053 118 139 107
-0.23252754 0.53519183 -0.86380768 110 145 103
-0.2343663 0.53500348 -0.8664754 117 138 107
-0.23423551 0.53655851 -0.8662225 126 132 111
-0.2345259 0.53646135 -0.86671817 127 131 112
-0.23442757 0.53675205 -0.86654532 128 130 112
-0.23339808 0.53619081 -0.86480564 120 137 108
-0.23341267 0.53680599 -0.86481845 124 134 110
-0.233504 0.5358761 -0.86499196 119 138 107
-0.23243591 0.53095168 -0.86368024 123 136 110
-0.23319185 0.53287321 -0.86503911 105 149 100
-0.23359783 0.53251183 -0.86554217 110 144 104
-0.23254189 0.53279769 -0.86413038 103 150 100
-0.23433754 0.5331015 -0.86665612 108 145 102
-0.23266095 0.53115427 -0.86403471 121 137 110
-0.23272443 0.53178144 -0.86422145 115 141 106
-0.2348841 0.53296733 -0.86739874 111 142 104
-0.23477894 0.53108358 -0.86725187 124 135 108
-0.23469779 0.52968514 -0.86713773 133 129 112
-0.23441644 0.52975589 -0.86666858 134 128 113
-0.23484805 0.52991474 -0.86738425 132 130 111
-0.23466238 0.52956986 -0.86708051 134 129 112
-0.23229872 0.53205067 -0.86370438 110 144 104
-0.23452608 0.52596051 -0.86699224 117 136 106
-0.23349096 0.52617729 -0.86526829 116 144 102
-0.23318972 0.52574426 -0.86478615 114 147 100
-0.2348558 0.52799541 -0.86745834 129 131 110
-0.23387958 0.52584875 -0.86592525 116 141 104
-0.23479435 0.5268333 -0.86740237 123 132 109
-0.23338246 0.52784944 -0.86501819 127 135 108
-0.23351826 0.52819538 -0.86522919 130 133 110
-0.23295054 0.5274229 -0.86431819 126 138 107
-0.23294142 0.52847892 -0.86425728 134 129 114
-0.23315522 0.52660924 -0.86469412 118 145 102
-0.23315389 0.52921438 -0.86457878 139 124 118
-0.23380154 0.5230155 -0.8660273 124 133 110
-0.23377997 0.52164185 -0.86651564 115 136 109
-0.23367983 0.52208114 -0.86610991 121 134 110
-0.23421006 0.52332145 -0.86685997 117 135 109
-0.23434545 0.52333552 -0.86717021 114 136 109
-0.23395681 0.5244441 -0.86606127 121 136 107
-0.23318644 0.52339035 -0.86477345 129 136 108
-0.23266742 0.52258444 -0.86390477 134 135 109
-0.23262303 0.524427 -0.86385077 119 146 101
-0.23326586 0.52278328 -0.86489862 134 131 111
-0.23256096 0.52179718 -0.86372 140 131 111
-0.23250957 0.51917624 -0.86413962 143 127 117
-0.23394395 0.51765168 -0.86692941 113 142 108
-0.23245341 0.5176388 -0.86445224 144 124 119
-0.23253734 0.52019793 -0.86391604 142 129 114
-0.2330938 0.51947427 -0.86503929 131 134 112
-0.23300558 0.51997256 -0.86479056 132 133 111
-0.23395889 0.51889032 -0.8668198 112 142 107
-0.23311995 0.52107179 -0.86501062 130 133 111
-0.23399718 0.51920694 -0.86693048 111 141 107
-0.23362474 0.52049637 -0.86614889 119 136 110
-0.2335587 0.52000523 -0.86596179 120 138 109
-0.23360182 0.5213908 -0.8661558 119 135 110
-0.23217075 0.51908594 -0.8637737 143 126 117
-0.23385651 0.51604056 -0.8672331 118 141 108
-0.23307829 0.51649302 -0.86581147 134 131 114
-0.23305354 0.51635003 -0.86581022 135 131 114
-0.23286524 0.51493615 -0.86586851 125 136 111
-0.23269442 0.5160988 -0.86527103 134 130 115
-0.23221485 0.51463318 -0.86495113 110 139 110
-0.23189992 0.51742965 -0.86393863 138 125 119
-0.23283044 0.51012528 -0.86693352 121 144 107
-0.23263039 0.51135868 -0.8662926 112 144 106
-0.23280877 0.51068681 -0.86678463 119 144 107
-0.23231401 0.51329339 -0.8653785 101 145 107
-0.23232424 0.51325327 -0.86539787 101 145 107
-0.23268506 0.50884718 -0.86660779 124 145 107
-0.23252846 0.50863677 -0.86625129 120 145 107
-0.23251796 0.50824565 -0.86618161 122 143 108
-0.23266926 0.5081498 -0.86649466 128 143 108
-0.23203614 0.50865024 -0.86563241 110 145 106
-0.23123914 0.5081991 -0.86471081 103 143 106
-0.23121984 0.50769126 -0.86466533 104 142 106
-0.23659967 0.54528421 -0.88230348 100 136 110
-0.23663601 0.54570198 -0.8825649 98 137 110
-0.23522049 0.54501599 -0.88249499 79 138 107
-0.2346991 0.54551524 -0.88303405 68 139 106
-0.23767669 0.54481208 -0.88293636 120 131 115
-0.23755835 0.5432775 -0.88273835 101 136 109
-0.23684497 0.54488498 -0.88229078 106 135 111
-0.23677112 0.54137534 -0.88206387 68 142 105
-0.23764509 0.54187644 -0.88272339 87 139 106
-0.2365604 0.54318929 -0.88198608 84 139 107
-0.23682757 0.54195124 -0.88212925 76 140 106
-0.23303202 0.543212 -0.88278151 47 143 103
-0.23380162 0.54327917 -0.88236517 60 142 105
-0.23370604 0.54456973 -0.88303083 57 139 105
-0.23359138 0.5440343 -0.88283175 55 140 105
-0.23453052 0.5437901 -0.88224542 71 141 106
-0.23437174 0.54275411 -0.88192117 68 143 106
-0.23550354 0.54264092 -0.88184512 71 142 106
-0.23621759 0.54165471 -0.88175881 64 141 106
-0.23553596 0.54341531 -0.88187563 79 141 107
-0.23427221 0.54105163 -0.88185596 50 146 104
-0.2322937 0.54232955 -0.88309717 38 148 101
-0.23774312 0.53988969 -0.88297123 88 137 108
-0.23720656 0.5408662 -0.88239515 73 141 105
-0.23741582 0.53757131 -0.88316911 97 131 114
-0.23806193 0.54041827 -0.8831045 89 139 106
-0.23681824 0.53711259 -0.882779 88 132 115
-0.23411728 0.53761077 -0.88308525 61 140 110
-0.23406774 0.53922617 -0.88223273 57 142 108
-0.23415364 0.53830439 -0.88275242 61 141 109
-0.23400627 0.53915602 -0.88230669 57 142 108
-0.23554963 0.53766799 -0.88243586 71 138 112
-0.23575354 0.54054421 -0.88184077 58 143 106
-0.23562269 0.54086083 -0.88179559 56 143 105
-0.23555511 0.53957129 -0.88201737 62 141 108
-0.23459405 0.539406 -0.88210577 59 142 108
-0.23494741 0.5406571 -0.88187248 54 144 106
-0.23324007 0.54024839 -0.8820489 48 146 105
-0.23219252 0.54083228 -0.88251752 42 147 104
-0.23730901 0.53679657 -0.88314122 98 132 114
-0.23671971 0.53326887 -0.88220429 75 153 100
-0.2351401 0.53379893 -0.88276815 60 153 101
-0.2348696 0.53485471 -0.88291937 60 148 104
-0.2351478 0.53550094 -0.88265663 65 145 106
-0.23477924 0.53646529 -0.88293505 64 141 109
-0.23557456 0.53548443 -0.88247412 68 145 106
-0.23530115 0.5361225 -0.88267338 67 142 109
-0.2376425 0.53202039 -0.88260585 88 146 102
-0.23755814 0.53180051 -0.88245916 87 146 103
-0.23744336 0.53197712 -0.88241792 85 146 102
-0.23664421 0.53160071 -0.88173562 69 147 104
-0.23719846 0.53002959 -0.8817957 77 137 110
-0.23767817 0.53136307 -0.88243043 88 144 103
-0.2371868 0.53170335 -0.8821494 80 146 103
-0.23470095 0.52961934 -0.88213253 69 138 110
-0.23370136 0.53092778 -0.88314313 71 145 104
-0.23420314 0.53167039 -0.88303953 63 148 102
-0.23448239 0.53023845 -0.88244957 67 142 107
-0.23529246 0.52985895 -0.881827 63 139 110
-0.23366921 0.5296405 -0.88279212 77 139 108
-0.2361092 0.53274506 -0.88193011 65 153 101
-0.23544605 0.53241605 -0.88238984 58 152 101
-0.23627995 0.5331468 -0.88188028 67 156 99
-0.24096501 0.52715075 -0.88008678 156 117 120
-0.24100627 0.52708018 -0.880647 151 119 118
-0.24113588 0.52801114 -0.88052815 152 121 117
-0.23744622 0.52861464 -0.88199264 90 132 113
-0.23711184 0.52918136 -0.88160461 75 134 112
-0.23670821 0.52795941 -0.88166124 89 133 115
-0.23313817 0.52673739 -0.88062304 84 142 106
-0.23291905 0.52696598 -0.88113809 83 141 105
-0.23291613 0.52707726 -0.88066286 82 141 106
-0.23299801 0.52714998 -0.87976587 80 142 105
-0.23374978 0.52769345 -0.88217175 77 139 108
-0.23312598 0.52708644 -0.8822251 85 140 107
-0.23268996 0.52708548 -0.88270313 86 140 106
-0.23420592 0.52590108 -0.87980503 89 142 107
-0.23473743 0.52699006 -0.88035476 79 140 108
-0.23510499 0.52845043 -0.88147116 68 137 111
-0.23424397 0.52805531 -0.88200563 74 138 109
-0.23523594 0.52641726 -0.88043183 94 139 110
-0.236047 0.52867168 -0.88082206 65 137 112
-0.23469505 0.52568567 -0.87991536 97 140 108
-0.23551822 0.52588212 -0.88100588 110 137 111
-0.23552494 0.5277276 -0.88040257 73 137 111
-0.23279041 0.52889824 -0.88319421 85 138 107
-0.23288411 0.52759397 -0.88295352 82 140 107
-0.23508188 0.52926826 -0.88179427 68 136 111
-0.23199962 0.52700299 -0.87987256 76 139 107
-0.23125046 0.52577084 -0.87938046 81 135 111
-0.23208077 0.52675855 -0.88062328 76 140 106
-0.23176107 0.52579081 -0.88122869 79 138 107
-0.23240083 0.52775937 -0.88053429 75 141 105
-0.23238446 0.52711219 -0.88299334 83 141 106
-0.24030712 0.52186137 -0.88045287 102 139 109
-0.24025016 0.52244061 -0.88268274 106 137 111
-0.24059328 0.52292538 -0.88096213 121 134 111
-0.240821 0.52388936 -0.88167894 136 130 114
-0.24044493 0.52312309 -0.87934917 127 126 116
-0.24054822 0.52372718 -0.87974584 136 123 118
-0.2405242 0.52254641 -0.88029665 117 134 111
-0.23902512 0.52348775 -0.88294595 117 136 112
-0.23898263 0.52279985 -0.88093102 110 138 110
-0.23811555 0.52390712 -0.88215101 121 135 112
-0.23873942 0.52303606 -0.88105345 113 137 111
-0.23881058 0.52294004 -0.88093811 112 137 111
-0.24001996 0.52245307 -0.88236028 106 138 110
-0.23747213 0.52371836 -0.88152879 122 137 112
-0.2390766 0.52236235 -0.88063169 108 139 110
-0.23646475 0.52320731 -0.8818267 126 140 111
-0.23849186 0.52166891 -0.88072735 108 141 109
-0.23632872 0.52163684 -0.88157451 120 145 108
-0.23397523 0.522237 -0.87971658 108 137 111
-0.23407903 0.52254069 -0.87979358 108 137 111
-0.23543051 0.52494103 -0.88114768 121 136 112
-0.23507385 0.52528155 -0.88056982 112 138 110
-0.23489779 0.52516049 -0.88035005 109 139 110
-0.23573883 0.52230579 -0.88122743 120 141 110
-0.23490004 0.52165949 -0.88042158 112 141 109
-0.23547174 0.52256507 -0.88106143 120 139 111
-0.23417795 0.52221179 -0.87994373 111 137 112
-0.23552948 0.52371204 -0.88133162 125 136 113
-0.23326236 0.52282268 -0.88272321 87 141 108
-0.23263372 0.52224088 -0.88144046 86 138 109
-0.23248033 0.52362949 -0.88242733 82 140 107
-0.23258488 0.52172148 -0.88093805 86 137 110
-0.23236686 0.52225208 -0.88107949 85 137 109
-0.23222969 0.52485472 -0.88301551 80 141 106
-0.23163964 0.52331197 -0.8800742 85 136 111
-0.231169 0.52532041 -0.87973166 83 134 111
-0.23193508 0.52477038 -0.88217795 81 139 107
-0.23159534 0.52537292 -0.88134211 81 137 109
-0.23176327 0.52317101 -0.88043278 84 137 110
-0.24024299 0.51944768 -0.88047254 90 147 104
-0.24038826 0.51865047 -0.8799063 92 148 103
-0.24057592 0.51772618 -0.87929827 95 149 103
-0.23961821 0.51816255 -0.88115287 88 152 101
-0.23768532 0.51983953 -0.88136441 105 148 105
-0.23734151 0.51921451 -0.88133872 100 146 106
-0.23720194 0.51928574 -0.88135058 101 145 106
-0.23789981 0.51798427 -0.88122642 90 146 105
-0.23808087 0.52077055 -0.88105035 107 145 106
-0.23981565 0.51868469 -0.88094163 89 150 102
-0.23953597 0.51950347 -0.88082594 94 148 104
-0.23904537 0.52077627 -0.88066828 101 144 106
-0.2389939 0.52108461 -0.88060343 103 143 107
-0.24009125 0.52105165 -0.88017964 96 142 107
-0.23323385 0.51897246 -0.88117963 82 144 107
-0.23359162 0.5187037 -0.88300806 79 144 107
-0.23346055 0.51858819 -0.88262594 79 144 107
-0.23371656 0.51997012 -0.88181734 86 144 107
-0.23367843 0.51899141 -0.88297707 81 144 107
-0.23295529 0.51819175 -0.8810873 78 144 107
-0.23314725 0.51965731 -0.88081294 85 142 108
-0.23261055 0.51973104 -0.88016504 82 141 108
-0.23248868 0.52091384 -0.88041937 85 138 109
-0.23297839 0.52123022 -0.88114268 87 139 109
-0.23317942 0.52006745 -0.88099456 85 142 107
-0.23344858 0.51772022 -0.88111079 78 144 107
-0.23496583 0.51762122 -0.8815338 83 142 108
-0.23577674 0.51760995 -0.88117963 86 141 109
-0.23512483 0.51767552 -0.8806774 85 142 108
-0.23417975 0.51769352 -0.88102204 81 143 108
-0.23367289 0.51917386 -0.87998414 92 144 107
-0.23377682 0.5214467 -0.87948638 105 138 111
-0.23433514 0.52136534 -0.87995982 108 140 110
-0.23411508 0.5209536 -0.87988687 104 141 109
-0.23384456 0.51891851 -0.8800962 91 145 106
-0.23335321 0.51805091 -0.87978488 82 144 107
-0.23551637 0.51975977 -0.88101071 103 144 108
-0.236059 0.51928478 -0.88125622 102 143 108
-0.23558429 0.51888406 -0.88098544 96 143 108
-0.23622814 0.52096862 -0.88145846 115 145 108
-0.23203659 0.52086663 -0.87958604 85 137 111
-0.23194343 0.52135992 -0.87957859 87 136 111
-0.24035597 0.51715976 -0.87997854 94 150 102
-0.239227 0.51526582 -0.87968373 111 146 105
-0.23988451 0.51543826 -0.87932587 112 144 106
-0.24011317 0.51595289 -0.87934411 108 145 106
-0.23872675 0.51544249 -0.88031936 105 149 103
-0.23963086 0.51600289 -0.87993836 104 147 104
-0.24018751 0.51726401 -0.88076979 87 152 101
-0.24016371 0.51688379 -0.88035452 94 150 102
-0.23636615 0.51623851 -0.88118011 98 144 107
-0.23715867 0.51684654 -0.88118362 92 145 106
-0.23702168 0.51684117 -0.88119012 93 144 107
-0.23768882 0.51728988 -0.88118869 88 146 105
-0.23702724 0.51736009 -0.88122666 89 143 107
-0.23278935 0.51532155 -0.8812694 82 144 105
-0.23358397 0.51521242 -0.87935483 88 148 103
-0.23299818 0.51450551 -0.88185114 84 144 105
-0.23320723 0.51482809 -0.88086343 85 146 104
-0.2326692 0.5155133 -0.8813175 81 144 106
-0.23398279 0.51429105 -0.87958795 92 148 103
-0.23391718 0.51401109 -0.88040519 92 148 103
-0.23529899 0.51661676 -0.88157123 88 141 108
-0.23403317 0.51456994 -0.88090688 89 146 105
-0.23503415 0.51594293 -0.88114065 89 143 107
-0.2337195 0.51551014 -0.88246059 83 141 108
-0.23389633 0.51459593 -0.88112861 88 146 105
-0.23560441 0.51670396 -0.88124865 89 142 108
-0.23607185 0.51647085 -0.88096952 94 143 107
-0.2354781 0.51488584 -0.88032627 99 146 105
-0.23543301 0.5146848 -0.88027179 99 148 104
-0.23453511 0.51370203 -0.87939942 97 150 102
-0.23449917 0.51624811 -0.88218945 84 141 108
-0.2336098 0.51637125 -0.88277179 80 142 108
-0.23344877 0.51627475 -0.88285583 79 143 107
-0.23359953 0.51700133 -0.88289165 77 143 107
-0.232233 0.51386195 -0.88284189 83 141 108
-0.23197491 0.51490492 -0.88082403 80 142 106
-0.23224564 0.51412445 -0.88257837 82 141 107
-0.23163746 0.51369917 -0.88115394 80 141 106
-0.2318404 0.51567292 -0.8795132 77 143 105
-0.23240513 0.51477093 -0.88283122 80 143 107
-0.23839736 0.51345205 -0.87967449 126 144 108
-0.23804919 0.51330608 -0.87987345 127 144 108
-0.23810369 0.5135588 -0.87987256 124 145 107
-0.23644823 0.51159275 -0.88065106 144 142 111
-0.23788315 0.51110041 -0.87937564 150 138 114
-0.23746169 0.51005805 -0.87935144 160 135 116
-0.23528524 0.51214021 -0.8799777 124 143 108
-0.23577285 0.51324058 -0.88047832 115 147 105
-0.23498002 0.51334274 -0.87977558 106 149 103
-0.23612639 0.5123198 -0.88067657 131 144 108
-0.23551078 0.51084471 -0.88003832 144 139 113
-0.23567337 0.51020253 -0.88007116 154 137 115
-0.23285833 0.50977504 -0.88176394 114 137 110
-0.23268358 0.51208234 -0.88294649 97 139 109
-0.23337452 0.51032144 -0.8827818 116 138 110
-0.23221746 0.51094031 -0.88146365 101 137 109
-0.23217422 0.51091254 -0.88135421 102 136 110
-0.23235703 0.51284206 -0.88292599 89 140 108
-0.23168319 0.51166302 -0.88051611 95 138 109
-0.23125117 0.51204693 -0.87931061 90 138 108
-0.23138125 0.51263195 -0.8799572 86 139 107
-0.23158583 0.51270157 -0.88062984 87 139 108
-0.23171832 0.51175129 -0.88066244 95 137 109
-0.23179974 0.51351082 -0.88163126 82 141 107
-0.2325609 0.50675726 -0.8826521 118 138 110
-0.23275393 0.50700879 -0.88280535 119 139 110
-0.23353325 0.50943202 -0.8827951 122 138 111
-0.23296167 0.5085755 -0.88240683 117 137 110
-0.23326628 0.50870329 -0.88275498 121 138 111
-0.23607883 0.50972909 -0.8802709 164 136 117
-0.23083413 0.50661463 -0.88009256 111 135 111
-0.23241547 0.50775129 -0.88202393 115 137 110
-0.23208266 0.50768542 -0.88154411 114 137 110
-0.23202962 0.50658721 -0.88192809 116 137 111
-0.23177049 0.50816721 -0.88086385 111 136 110
-0.23186706 0.5074659 -0.88130808 114 136 111
-0.2318777 0.50952762 -0.88020563 109 134 111
-0.23135747 0.5089817 -0.87952328 109 134 112
-0.23146823 0.50913447 -0.87963992 109 134 112
-0.23021875 0.50552928 -0.87969327 108 136 110
-0.23184882 0.50551116 -0.88219225 116 139 109
-0.23029412 0.50550514 -0.8798244 109 137 110
-0.23178637 0.5048793 -0.88236576 115 140 108
-0.23164104 0.50501436 -0.88219064 113 141 108
-0.23077556 0.49473867 -0.88210052 127 136 112
-0.23073225 0.49427623 -0.88285017 114 139 111
-0.23250717 0.52433127 -0.89229316 37 134 116
-0.23354125 0.52385032 -0.89127678 65 137 111
-0.23298037 0.52427953 -0.89191312 48 137 113
-0.2331668 0.52454156 -0.89190596 52 135 114
-0.23310913 0.52356136 -0.8914541 57 137 112
0 0 0 1 0 0 0 1 0 0 0 1 0 0 0 0 0 1041 1 0 0
