ply
format ascii 1.0
comment PCL generated
element vertex 1030
property float x
property float y
property float z
property uchar red
property uchar green
property uchar blue
element camera 1
property float view_px
property float view_py
property float view_pz
property float x_axisx
property float x_axisy
property float x_axisz
property float y_axisx
property float y_axisy
property float y_axisz
property float z_axisx
property float z_axisy
property float z_axisz
property float focal
property float scalex
property float scaley
property float centerx
property float centery
property int viewportx
property int viewporty
property float k1
property float k2
end_header
-0.20278938 0.24895845 -0.80852139 144 134 118
-0.20333204 0.2478286 -0.80879486 146 134 119
-0.20332246 0.24779026 -0.80878174 147 134 119
-0.20367438 0.24586001 -0.80879778 164 133 120
-0.2032598 0.24746478 -0.80868566 150 133 119
-0.20260511 0.24449176 -0.80761373 156 131 121
-0.20293643 0.24513927 -0.80805254 163 131 121
-0.20464352 0.24110657 -0.80879891 184 132 121
-0.20253082 0.24384053 -0.80741328 153 131 121
-0.20273447 0.24340317 -0.80751324 156 131 121
-0.20245948 0.24377295 -0.80733556 152 131 121
-0.20193945 0.24383707 -0.80687666 144 131 121
-0.20212682 0.24398324 -0.80707479 147 131 121
-0.20348319 0.24065904 -0.80780309 171 132 120
-0.2025975 0.2426226 -0.80724752 154 131 121
-0.20249683 0.24179924 -0.8071121 156 132 120
-0.20310262 0.24030094 -0.80748135 168 133 120
-0.20427437 0.24088252 -0.80843598 178 132 121
-0.20449324 0.24048114 -0.80857909 182 132 121
-0.20098396 0.24078447 -0.80589175 145 134 119
-0.20515436 0.23794746 -0.80885333 145 136 119
-0.20150879 0.24004781 -0.80621135 148 135 118
-0.20359999 0.23824729 -0.80763578 134 136 118
-0.20451842 0.23891871 -0.80842996 157 134 119
-0.20258647 0.23932068 -0.80696857 145 135 118
-0.20372577 0.23862405 -0.80777735 143 135 118
-0.20243853 0.23883019 -0.80679715 135 135 118
-0.21090545 0.2608864 -0.82037151 152 135 116
-0.21031794 0.26148915 -0.81959605 158 134 116
-0.21015124 0.26025993 -0.81912458 154 132 118
-0.21117994 0.25982717 -0.82052559 148 135 115
-0.21013165 0.26070395 -0.81917787 156 132 118
-0.20921859 0.26038688 -0.81780559 159 129 121
-0.20866613 0.26024279 -0.81713092 158 128 121
-0.20911631 0.25766358 -0.81683683 162 131 121
-0.20977205 0.25882563 -0.81816083 156 131 119
-0.20927708 0.25824559 -0.81724656 159 131 120
-0.21037377 0.25913653 -0.81913501 152 133 117
-0.21043357 0.25783166 -0.81876683 155 135 117
-0.21086222 0.2596361 -0.82001191 149 134 116
-0.2106137 0.25956595 -0.81962979 150 134 117
-0.21031398 0.25705129 -0.81839204 154 135 117
-0.21114339 0.25664899 -0.81974584 137 135 116
-0.21127927 0.25616238 -0.8198778 132 135 115
-0.21086805 0.25718954 -0.81938344 144 135 116
-0.21021736 0.25649807 -0.818106 154 135 117
-0.21140631 0.25604579 -0.82007337 129 135 115
-0.21109383 0.25823626 -0.8199991 144 135 116
-0.20848081 0.2596809 -0.81683439 155 128 122
-0.21077275 0.25260466 -0.81830412 136 140 115
-0.21179731 0.2535162 -0.82006383 125 139 114
-0.21209411 0.25219366 -0.82013535 126 143 113
-0.21013492 0.25198346 -0.81719387 143 140 115
-0.212106 0.25236028 -0.82019883 124 143 113
-0.21125682 0.25315851 -0.81916952 130 140 114
-0.20978914 0.25424644 -0.81699032 154 137 117
-0.20986627 0.25437486 -0.8171429 153 137 117
-0.20991802 0.25348315 -0.81710243 149 138 117
-0.21007881 0.25370005 -0.81741321 146 138 116
-0.21104522 0.25558314 -0.81936628 134 135 116
-0.21059814 0.25399944 -0.8183586 138 137 116
-0.21271534 0.24910341 -0.82036328 131 136 116
-0.21209213 0.24837905 -0.81923866 138 135 117
-0.21132123 0.24850847 -0.81808269 144 137 117
-0.21267512 0.2505556 -0.82062477 126 141 114
-0.21134754 0.24907133 -0.81824803 142 138 116
-0.21196488 0.24921954 -0.81923306 136 138 116
-0.21078987 0.24899161 -0.81738728 147 138 116
-0.21095668 0.24920486 -0.81768763 144 139 116
-0.21102138 0.24962838 -0.81789184 143 139 115
-0.21116926 0.25171578 -0.81864667 135 142 114
-0.21023898 0.24987198 -0.81680304 149 138 117
-0.21029201 0.2506268 -0.81707537 145 139 116
-0.21113746 0.25122201 -0.8184728 136 141 115
-0.2129306 0.24785773 -0.82037258 132 132 118
-0.21376489 0.24482042 -0.82037473 144 137 117
-0.2137797 0.24420577 -0.82014406 145 137 117
-0.21191728 0.24538107 -0.81809622 137 132 120
-0.21220642 0.24429034 -0.81800318 139 133 119
-0.21239571 0.24683833 -0.81928438 134 132 118
-0.21226683 0.24430199 -0.81808233 139 133 119
-0.21134058 0.24704969 -0.81772316 144 134 118
-0.21125652 0.24597026 -0.81728709 142 134 119
-0.21078441 0.2479261 -0.81711698 150 136 117
-0.21117716 0.24523689 -0.81695652 142 133 119
-0.2106971 0.2472941 -0.81680304 149 136 118
-0.21150653 0.24727535 -0.81804252 143 134 118
-0.21421054 0.24341139 -0.82058817 144 137 117
-0.21378437 0.24325539 -0.81991118 140 135 117
-0.21414553 0.24342895 -0.82049489 144 137 117
-0.21363969 0.24120301 -0.81928784 141 133 118
-0.21329065 0.24174422 -0.81890535 144 133 118
-0.21393573 0.24165282 -0.81977409 135 133 118
-0.21329609 0.24272728 -0.81908792 139 134 118
-0.21418819 0.24043836 -0.81990415 137 133 118
-0.21276742 0.24278122 -0.8184033 145 134 118
-0.21277393 0.24260241 -0.81837869 146 134 118
-0.21151584 0.24334103 -0.81697547 142 133 119
-0.21209185 0.24191865 -0.81747675 147 135 118
-0.21232584 0.24385515 -0.81804699 140 134 118
-0.21199177 0.24340843 -0.81757087 142 133 119
-0.2146076 0.23791122 -0.82011193 119 136 117
-0.21459405 0.23998384 -0.82038891 130 133 118
-0.21437642 0.23902343 -0.81995338 128 134 118
-0.21497507 0.23745331 -0.8205508 110 137 117
-0.21467416 0.23781413 -0.82018942 117 136 117
-0.21389182 0.2384951 -0.81921118 133 135 118
-0.21325102 0.23883714 -0.81835103 151 135 119
-0.21500048 0.23645069 -0.82043386 107 138 116
-0.21333173 0.23673156 -0.81808239 157 135 120
-0.21334927 0.23691975 -0.818142 155 136 119
-0.21322751 0.23823871 -0.8182078 154 135 119
-0.21278428 0.2374882 -0.81746238 166 135 120
-0.21257232 0.23663473 -0.81706083 167 135 121
-0.21246994 0.23961735 -0.81750041 156 134 119
-0.21213137 0.23806737 -0.81683016 159 136 119
-0.21215168 0.23802833 -0.8168456 160 135 119
-0.2139734 0.23568283 -0.81883788 146 136 119
-0.21415912 0.23462681 -0.81895036 151 135 119
-0.21526599 0.23496403 -0.8205936 113 137 117
-0.21339224 0.23565513 -0.81799698 163 135 120
-0.21436262 0.23487872 -0.81928033 142 136 118
-0.21508808 0.23272778 -0.82004791 134 135 117
-0.21316072 0.23425029 -0.81760758 153 134 121
-0.21309401 0.23530272 -0.817581 162 135 120
-0.21334174 0.23370661 -0.81781358 148 134 121
-0.21374086 0.23466009 -0.81839234 155 135 120
-0.21342143 0.23338404 -0.81789947 145 134 121
-0.21271329 0.23268086 -0.8169902 139 133 122
-0.21259686 0.23502804 -0.81698036 158 134 121
-0.2133645 0.23226561 -0.81773484 137 132 122
-0.21362647 0.2313939 -0.81788743 135 132 122
-0.21373038 0.23220226 -0.81820095 135 133 121
-0.21468711 0.23121037 -0.81923866 132 133 119
-0.21553573 0.22972864 -0.82019645 141 130 122
-0.22065532 0.25816393 -0.83826625 136 136 112
-0.22066085 0.25969958 -0.84014755 129 136 111
-0.22060721 0.25803903 -0.83910936 128 137 111
-0.22056115 0.25663695 -0.8382321 128 137 112
-0.22063585 0.25745642 -0.83803511 132 137 111
-0.220529 0.25658146 -0.83864754 125 138 112
-0.22063319 0.25618374 -0.83665705 137 137 112
-0.22048752 0.2559633 -0.83857512 122 139 111
-0.22085686 0.25287214 -0.83637488 100 143 108
-0.22038779 0.25274724 -0.83919561 96 142 106
-0.22064783 0.25317949 -0.83731347 102 141 108
-0.22062539 0.25422958 -0.83703119 116 140 109
-0.22040392 0.25522861 -0.83948708 112 139 110
-0.22036076 0.25405303 -0.83973026 103 141 108
-0.22032742 0.25355822 -0.84005797 97 141 107
-0.22040495 0.25583717 -0.83967775 114 139 111
-0.22042242 0.25510079 -0.8391692 113 139 110
-0.22048663 0.25447172 -0.83800286 117 140 109
-0.22075261 0.25187677 -0.83730501 86 143 106
-0.2209315 0.2494618 -0.83914125 96 140 108
-0.22087863 0.25020191 -0.83860588 94 140 108
-0.2208828 0.25122708 -0.83743769 91 142 107
-0.22099611 0.25058204 -0.8368187 93 142 108
-0.22101919 0.24924473 -0.83831251 97 140 109
-0.22100547 0.25008529 -0.83735037 94 141 109
-0.22108874 0.24833404 -0.8377493 97 139 111
-0.22106685 0.24804978 -0.83885366 100 138 111
-0.22066009 0.25042233 -0.8395521 89 140 106
-0.22053985 0.25194046 -0.83853787 85 144 105
-0.22052059 0.25187534 -0.83874172 85 143 105
-0.22116816 0.2473269 -0.8397752 110 137 110
-0.22148781 0.24501295 -0.83885348 129 135 114
-0.22208203 0.24421775 -0.83682603 154 134 115
-0.22124796 0.24477686 -0.83972162 121 134 114
-0.22117625 0.24433811 -0.84001416 119 133 114
-0.22177133 0.24520899 -0.8378346 140 135 113
-0.22187527 0.24530433 -0.83722258 143 135 114
-0.22182964 0.24549709 -0.83700871 139 136 114
-0.22131521 0.24725096 -0.83798057 112 138 112
-0.22141366 0.24699199 -0.83717656 115 138 112
-0.2217795 0.2457438 -0.83649278 134 136 114
-0.22156689 0.24062774 -0.83826059 130 138 116
-0.22134106 0.24093466 -0.8391369 121 139 115
-0.22164901 0.24107844 -0.83798748 135 136 117
-0.22119187 0.24263072 -0.83983684 118 136 115
-0.22139692 0.24155632 -0.83897668 125 137 116
-0.22142044 0.241925 -0.83891791 126 136 116
-0.22208361 0.2426687 -0.83662242 154 135 117
-0.22182262 0.24305187 -0.83759749 144 134 116
-0.22152877 0.24291511 -0.83861625 132 134 116
-0.22146119 0.24408334 -0.83901745 131 133 114
-0.22208917 0.2413518 -0.83641946 152 135 118
-0.22209167 0.24334963 -0.83668876 154 134 116
-0.22267792 0.23634011 -0.83834416 132 132 120
-0.22163264 0.2386311 -0.83968157 114 139 116
-0.22185557 0.2377954 -0.83964795 115 135 118
-0.22234939 0.23792881 -0.838135 134 138 118
-0.22164783 0.23846973 -0.839755 113 138 116
-0.2216204 0.23937127 -0.83912033 121 141 116
-0.22153091 0.2399957 -0.83866632 125 140 116
-0.22252744 0.23781313 -0.83767527 139 137 119
-0.22174597 0.24008337 -0.83774436 135 139 117
-0.22293147 0.2373132 -0.8367855 150 135 120
-0.2219065 0.23978235 -0.83752072 138 137 118
-0.22269076 0.23396949 -0.84002244 121 133 119
-0.22328685 0.23386124 -0.83789533 126 131 120
-0.22345202 0.23346841 -0.8376587 129 132 121
-0.22302084 0.23260076 -0.84011704 128 135 118
-0.22253172 0.23477463 -0.83983523 117 131 119
-0.22307846 0.23560108 -0.83757514 138 132 121
-0.22336176 0.23476295 -0.83719039 139 132 122
-0.22275501 0.2362473 -0.83817303 133 132 121
-0.22212052 0.23627476 -0.83997864 110 131 119
-0.22299191 0.2361058 -0.83756584 141 132 121
-0.22374874 0.23319721 -0.83687955 134 132 121
-0.22395651 0.22853836 -0.83976221 129 136 111
-0.22354056 0.23023449 -0.84010094 129 136 114
-0.22385167 0.22959822 -0.83849651 122 139 112
-0.22326726 0.23139279 -0.84022987 129 135 116
-0.22365141 0.23014554 -0.83923507 125 137 113
-0.22422832 0.2299158 -0.83635271 121 139 114
-0.22406356 0.23228909 -0.83641678 136 133 121
-0.22423841 0.22931756 -0.83645433 117 141 112
-0.22406359 0.23026685 -0.83688784 122 138 115
-0.22326946 0.23205848 -0.8394444 128 135 118
-0.2248359 0.22661479 -0.83765864 131 136 113
-0.22470668 0.22680056 -0.83973855 137 133 114
-0.22504328 0.22603422 -0.83701169 134 134 115
-0.2247154 0.2269147 -0.83839124 131 135 113
-0.22548401 0.22526461 -0.83914322 141 131 116
-0.22506802 0.22594282 -0.83883566 140 131 115
-0.22516243 0.22584754 -0.83918637 140 131 115
-0.22503747 0.22619464 -0.83978045 139 132 115
-0.22444932 0.2274645 -0.83989072 134 134 113
-0.22424445 0.22839051 -0.83763683 119 141 110
-0.22456157 0.22757638 -0.8369137 120 140 111
-0.22652425 0.2218388 -0.83962202 158 126 119
-0.22613916 0.22229785 -0.83809507 159 128 120
-0.22623391 0.2229955 -0.83953124 152 128 118
-0.22613719 0.2236187 -0.83981234 148 129 118
-0.22590293 0.22244895 -0.83639336 159 128 119
-0.22558258 0.22459134 -0.83681983 143 130 117
-0.2257989 0.22386864 -0.83760124 148 130 118
-0.2258783 0.22311865 -0.83717197 154 129 119
-0.22571567 0.22377907 -0.83675742 149 130 118
-0.22784168 0.21057068 -0.83858413 136 133 113
-0.2277211 0.20905742 -0.83728135 120 137 112
-0.22799273 0.20956652 -0.83871692 133 133 113
-0.2277156 0.21005405 -0.83777291 128 135 112
-0.22806823 0.2115005 -0.84004265 150 129 115
-0.22788967 0.20924981 -0.83810842 127 135 112
-0.22755602 0.20974131 -0.83686441 123 136 112
-0.22806634 0.2065853 -0.83966035 131 129 116
-0.227915 0.20682772 -0.83871245 133 129 118
-0.2281308 0.20657547 -0.8400135 131 129 116
-0.22790594 0.20634507 -0.83892554 130 129 117
-0.22783442 0.20556295 -0.83896422 127 129 118
-0.22747406 0.20773123 -0.83647066 119 134 115
-0.22819036 0.20829828 -0.83942944 137 131 115
-0.22749339 0.20682991 -0.83676535 125 131 117
-0.22762255 0.20879191 -0.8368631 118 137 112
-0.22779122 0.20838137 -0.83768725 125 134 113
-0.22803515 0.20843495 -0.83872753 132 132 114
-0.22765535 0.20326757 -0.83890462 122 132 116
-0.22768691 0.20432214 -0.83771646 129 129 119
-0.22794375 0.2045912 -0.83935666 126 129 117
-0.22753258 0.2040913 -0.83666545 131 129 120
-0.22756684 0.20470704 -0.8374328 128 129 120
-0.22080308 0.25990427 -0.8443895 133 136 111
-0.20527312 0.26076958 -0.8132109 161 138 117
-0.20798919 0.26166886 -0.81657445 159 130 120
-0.20812704 0.26137176 -0.81669343 159 129 121
-0.20653096 0.26019171 -0.81464171 157 135 118
-0.20680644 0.26150936 -0.81515837 160 134 118
-0.20796722 0.26022232 -0.81633747 156 130 121
-0.20504345 0.26026535 -0.8128956 161 138 117
-0.2077651 0.25600523 -0.81484175 157 135 120
-0.20798738 0.25590244 -0.81505799 157 134 120
-0.20771334 0.25655609 -0.81494594 159 133 120
-0.20799109 0.25770366 -0.81561434 160 131 121
-0.20866637 0.25856149 -0.81663644 160 129 122
-0.20816469 0.25807965 -0.81593239 159 130 121
-0.20575336 0.25973082 -0.81365389 158 137 117
-0.20568539 0.25763127 -0.81297451 159 137 118
-0.20568208 0.25943962 -0.81348681 158 137 117
-0.20604154 0.25747356 -0.81334895 158 136 119
-0.20749162 0.2584379 -0.81533176 156 131 121
-0.20586792 0.2589972 -0.81357938 158 136 117
-0.20813158 0.25966799 -0.81643647 154 129 121
-0.20936751 0.25488859 -0.81649989 155 136 118
-0.20924492 0.25284973 -0.81604695 152 138 117
-0.20911521 0.25200987 -0.8157298 152 139 117
-0.20903321 0.25245208 -0.81568283 154 138 117
-0.2084872 0.25271618 -0.81508547 158 137 118
-0.20820162 0.25235978 -0.81470221 160 137 118
-0.20803539 0.25275251 -0.81457376 161 136 118
-0.20830387 0.25422409 -0.81511331 160 135 119
-0.20759784 0.25211957 -0.81397289 164 136 119
-0.20875184 0.25562558 -0.81585079 157 134 120
-0.20792644 0.25454801 -0.81474257 161 135 119
-0.20666352 0.25582835 -0.81357223 158 135 119
-0.20651896 0.25364396 -0.81302023 166 135 119
-0.20700867 0.25496849 -0.81380063 161 135 120
-0.20736018 0.25416058 -0.81404537 163 134 120
-0.21051943 0.24821004 -0.81678838 151 137 117
-0.20945981 0.25169513 -0.81614733 150 138 117
-0.20905697 0.25127709 -0.81548816 154 138 117
-0.20971996 0.24971536 -0.81604004 153 137 118
-0.20937721 0.24865673 -0.81536013 154 136 119
-0.20938921 0.25006974 -0.8156749 154 138 118
-0.20799753 0.24879971 -0.81390041 157 135 119
-0.20872946 0.24806727 -0.81446284 157 134 120
-0.20860945 0.25080231 -0.81492358 155 137 118
-0.20817609 0.25136429 -0.81453049 159 137 118
-0.20743284 0.25024176 -0.81352991 162 135 119
-0.20794794 0.25126749 -0.81425631 160 137 118
-0.20735981 0.25185409 -0.81366092 166 135 119
-0.2087076 0.25191009 -0.81521177 156 138 117
-0.21005659 0.24673149 -0.81581163 149 134 119
-0.21021397 0.24668978 -0.81601077 149 134 119
-0.21040627 0.24675041 -0.81628156 149 135 119
-0.20983326 0.24702062 -0.81558555 151 134 120
-0.20979443 0.24432707 -0.81501848 146 134 120
-0.21040127 0.24465589 -0.81582111 144 133 120
-0.20980389 0.24563515 -0.81526959 148 134 120
-0.20903827 0.24584602 -0.81437147 152 135 120
-0.20915036 0.24459992 -0.81428051 150 135 120
-0.20891172 0.24750251 -0.81454337 156 134 120
-0.20863244 0.24645184 -0.81410003 154 134 120
-0.20788695 0.24618156 -0.81333894 154 135 120
-0.20790513 0.2459895 -0.81332648 154 134 120
-0.20740795 0.24800852 -0.81315732 159 135 120
-0.20785734 0.24707262 -0.81345028 156 135 120
-0.2105502 0.24340528 -0.81567603 148 133 120
-0.21026148 0.24325095 -0.81527388 150 133 120
-0.20932347 0.24274464 -0.81396586 157 134 120
-0.20936599 0.24297313 -0.81409031 156 134 121
-0.20985024 0.24358036 -0.81487513 149 134 120
-0.2091316 0.24163732 -0.81338042 165 135 120
-0.21044058 0.24247436 -0.81527108 154 133 120
-0.21023782 0.24135004 -0.81477469 160 134 120
-0.20970209 0.24105084 -0.81393087 165 134 120
-0.21127282 0.24255207 -0.81651413 146 133 120
-0.21112803 0.24232669 -0.81626081 148 134 119
-0.21117549 0.24386512 -0.8166002 142 132 120
-0.20846349 0.24242854 -0.81298518 161 134 121
-0.20866202 0.24184813 -0.81298059 164 134 121
-0.21057303 0.23772804 -0.81465775 131 134 119
-0.21135844 0.23805036 -0.81579024 145 135 119
-0.21175018 0.23980075 -0.81671423 152 136 118
-0.21194147 0.23766738 -0.81649035 156 136 119
-0.21146935 0.23896845 -0.81614733 147 135 119
-0.21165347 0.23979925 -0.8165834 150 135 118
-0.21210144 0.23725992 -0.81661415 160 136 120
-0.21046585 0.23810741 -0.81459206 130 135 119
-0.21059582 0.23849781 -0.81484354 135 134 119
-0.21107151 0.24017893 -0.81580251 156 135 119
-0.20975424 0.23845135 -0.81359321 142 134 120
-0.20989805 0.23933543 -0.81394035 154 135 120
-0.20938674 0.23997255 -0.81328213 167 134 120
-0.20969467 0.23751861 -0.81336302 127 134 120
-0.21235642 0.23472567 -0.81666183 153 134 121
-0.21236463 0.23385829 -0.81662947 146 134 122
-0.21242011 0.23508032 -0.81677276 156 135 121
-0.21127535 0.2327911 -0.81498796 128 135 120
-0.21114638 0.23321359 -0.81482166 130 135 120
-0.21229729 0.23532288 -0.81660622 157 135 121
-0.21131326 0.2335795 -0.8150835 135 136 120
-0.21151978 0.23504806 -0.81546366 148 136 119
-0.21041338 0.2363053 -0.81412333 129 134 120
-0.21017975 0.23620333 -0.81379569 124 134 120
-0.2113778 0.23484342 -0.8152473 145 136 120
-0.21040885 0.23376036 -0.81380868 125 136 119
-0.21090622 0.23441094 -0.81455863 136 136 119
-0.21094567 0.23497762 -0.81468046 137 136 119
-0.21714155 0.26165476 -0.8304835 141 131 116
-0.21719764 0.26160368 -0.83055651 141 131 116
-0.21787378 0.2603347 -0.83121645 131 136 113
-0.21716461 0.2619344 -0.83061498 145 130 116
-0.21751793 0.26114991 -0.83091885 138 132 115
-0.21642481 0.26005802 -0.82875007 121 135 113
-0.2163959 0.26071119 -0.8288967 131 133 114
-0.21683401 0.25919563 -0.82915431 107 139 111
-0.21818204 0.25869358 -0.83114618 124 139 112
-0.2174637 0.25826946 -0.82984173 113 140 111
-0.21716715 0.25950724 -0.82979649 112 139 111
-0.21789232 0.25879812 -0.83071625 120 140 111
-0.2182028 0.25971681 -0.83153683 126 138 112
-0.21844478 0.25953344 -0.83186233 129 138 112
-0.21890931 0.2585575 -0.83228999 131 136 114
-0.21730781 0.25596106 -0.82878798 106 143 111
-0.21867728 0.25773472 -0.83163232 126 137 114
-0.21850727 0.25663996 -0.83098495 121 138 114
-0.21891221 0.25649098 -0.83159941 125 134 116
-0.21929906 0.25699544 -0.83240408 131 133 116
-0.2184535 0.25610575 -0.83071703 119 137 114
-0.21659561 0.25911158 -0.82872719 112 139 112
-0.21954009 0.25549012 -0.83234853 130 131 119
-0.21924251 0.25440785 -0.83160335 127 133 117
-0.21913527 0.25354689 -0.83124775 125 134 117
-0.21903247 0.25305346 -0.8309682 124 135 117
-0.21877334 0.25324816 -0.83052945 124 134 117
-0.21929137 0.25472027 -0.83175057 128 132 118
-0.21742754 0.25474805 -0.82865053 109 142 112
-0.21823116 0.25501651 -0.83004183 117 138 114
-0.21888041 0.25574738 -0.83130455 123 134 117
-0.21922794 0.25563169 -0.83184361 127 132 118
-0.21825531 0.2533159 -0.82962269 121 135 116
-0.21879786 0.25579849 -0.83118278 121 135 116
-0.21935697 0.24957724 -0.83080173 123 138 114
-0.21954402 0.24807879 -0.83082759 119 139 113
-0.21937752 0.24851559 -0.83060783 121 138 114
-0.21991819 0.24986772 -0.83192903 120 139 114
-0.21990708 0.25052217 -0.83205152 122 138 115
-0.21907488 0.2493393 -0.83021492 125 137 114
-0.21875502 0.25108957 -0.83004469 123 137 115
-0.21857037 0.25135368 -0.82977116 122 136 115
-0.21827745 0.24995108 -0.82889044 124 137 114
-0.2184339 0.24877037 -0.82888746 126 137 113
-0.21891323 0.25060797 -0.83021641 125 136 115
-0.21815117 0.24978328 -0.82861793 124 137 114
-0.21989806 0.24574369 -0.83085221 136 138 115
-0.22021829 0.24664542 -0.83175558 126 139 114
-0.21966958 0.24548137 -0.83028418 141 136 115
-0.21930417 0.24460159 -0.8292833 151 135 116
-0.22039066 0.24797599 -0.83241153 114 140 114
-0.21925938 0.24707179 -0.82996082 130 137 114
-0.21912062 0.24733293 -0.82978362 128 137 114
-0.21975036 0.24628417 -0.83063263 134 137 115
-0.21887475 0.24556515 -0.82873696 146 135 115
-0.21879952 0.24584332 -0.82868576 144 135 115
-0.21874885 0.24731535 -0.82907325 131 137 114
-0.21984918 0.24036729 -0.82961708 136 129 121
-0.21995619 0.24047592 -0.82991391 137 130 121
-0.2200571 0.24109019 -0.83025551 138 130 120
-0.22035377 0.24099402 -0.83103055 142 129 120
-0.21941127 0.24369064 -0.82931721 150 134 116
-0.22013889 0.24330685 -0.83085799 141 136 116
-0.21905449 0.24392539 -0.82857335 156 133 117
-0.22051474 0.24378406 -0.83182305 139 138 115
-0.21950455 0.24382943 -0.82956177 151 135 116
-0.21947493 0.2425784 -0.82918179 143 134 118
-0.22084157 0.24020253 -0.83214915 152 125 123
-0.22076418 0.23719239 -0.83020377 116 138 116
-0.22095609 0.23887029 -0.83163935 138 129 121
-0.2208343 0.23644406 -0.82992184 109 140 115
-0.22097063 0.23657869 -0.83031523 112 139 115
-0.22052121 0.23670116 -0.82935488 112 141 114
-0.22056903 0.23725069 -0.82979012 117 138 116
-0.22047631 0.24014987 -0.83121753 145 126 123
-0.22024395 0.23882614 -0.82987171 131 133 119
-0.21986613 0.24008995 -0.82956654 135 130 121
-0.2198028 0.23873432 -0.82865131 123 136 118
-0.22021759 0.23663333 -0.82859308 112 142 114
-0.22240201 0.23360662 -0.83222377 143 133 119
-0.22208147 0.235167 -0.83219498 132 133 119
-0.22181234 0.23419571 -0.8311348 131 137 117
-0.2221463 0.23431948 -0.83195925 136 134 118
-0.22130023 0.2348893 -0.83035463 123 138 116
-0.2210445 0.23432067 -0.82981974 128 137 116
-0.22120444 0.23517253 -0.83023417 119 140 115
-0.22082542 0.23311868 -0.82924634 141 134 119
-0.22094736 0.23407717 -0.82961214 131 137 117
-0.22062671 0.23268487 -0.82884789 144 133 120
-0.22035702 0.2359685 -0.82871789 112 142 114
-0.22156492 0.23055905 -0.82988936 154 132 119
-0.22209424 0.23128933 -0.83101344 153 133 119
-0.22145106 0.2313695 -0.82992113 152 133 119
-0.22116098 0.2319106 -0.82957125 150 133 119
-0.22143359 0.2316924 -0.82998216 151 133 119
-0.22093183 0.23130859 -0.82900381 150 132 119
-0.2227596 0.22946511 -0.83142817 151 131 119
-0.22233023 0.22944914 -0.83075404 153 131 119
-0.22211359 0.23036025 -0.83074105 154 132 119
-0.22330692 0.22868255 -0.83200169 147 131 119
-0.22269925 0.23015207 -0.83157873 151 132 119
-0.22254787 0.23025858 -0.83138096 152 132 119
-0.22285926 0.22905959 -0.83143896 150 131 119
-0.22063012 0.23227616 -0.82877642 147 133 119
-0.22398891 0.22467132 -0.83230042 156 129 116
-0.22326195 0.22494127 -0.83105463 155 130 117
-0.22367267 0.2249402 -0.83178961 155 129 117
-0.22225782 0.22468349 -0.82920414 156 133 118
-0.22337443 0.22510125 -0.83128887 155 130 117
-0.22304991 0.22690229 -0.83107847 150 132 118
-0.22149915 0.22822924 -0.82903939 156 131 119
-0.2217214 0.22655725 -0.82886839 155 132 118
-0.22260201 0.22683491 -0.83032519 151 132 119
-0.2220989 0.22510117 -0.82900584 154 134 118
-0.22165044 0.22680068 -0.82883316 156 132 119
-0.22205657 0.22530538 -0.8290031 155 133 118
-0.22436571 0.22081994 -0.83128613 165 125 117
-0.22448705 0.22190608 -0.83197689 161 126 116
-0.22418791 0.22322126 -0.8320412 159 127 116
-0.22338387 0.22258757 -0.83041352 166 127 119
-0.22412972 0.22300725 -0.8318519 160 127 116
-0.22270718 0.22407481 -0.82978433 158 131 118
-0.22339581 0.22301233 -0.83060169 164 127 118
-0.22284697 0.22302602 -0.82962459 164 129 119
-0.22279651 0.22295699 -0.82950729 164 129 119
-0.22259639 0.2242104 -0.82963902 157 131 118
-0.22501622 0.21976978 -0.83228683 165 127 117
-0.22464395 0.21795261 -0.83107257 169 130 116
-0.22492997 0.21802458 -0.83169204 169 130 117
-0.22376296 0.21682972 -0.82908148 168 130 116
-0.22448646 0.21875536 -0.83094585 167 128 117
-0.2242876 0.2200634 -0.83090061 165 125 117
-0.22387424 0.21918048 -0.82993191 167 127 117
-0.21223837 0.25984997 -0.82195926 153 135 115
-0.2122854 0.26054364 -0.82221711 154 134 115
-0.21167736 0.26056352 -0.82141459 150 134 115
-0.21260001 0.26245978 -0.82317483 158 131 115
-0.21256807 0.26353765 -0.82341582 161 129 116
-0.21144792 0.26213968 -0.82149172 156 133 116
-0.21105577 0.26143199 -0.82076323 153 134 116
-0.21138242 0.26094663 -0.8211 151 134 116
-0.21147208 0.26023617 -0.82104731 148 135 115
-0.21455406 0.25661835 -0.82439089 124 141 113
-0.21457693 0.25637373 -0.82437193 121 141 113
-0.21413176 0.25710383 -0.82393301 129 140 113
-0.21401951 0.2566199 -0.82372296 123 140 113
-0.21325716 0.25874591 -0.82310164 146 138 114
-0.21343787 0.25682905 -0.82303876 124 139 113
-0.21223731 0.25610772 -0.82135552 120 136 114
-0.21265136 0.2568835 -0.82204318 126 137 113
-0.21273704 0.25886458 -0.82245618 148 136 115
-0.21228243 0.25867191 -0.82181513 145 136 115
-0.21236065 0.25802472 -0.82181317 141 135 115
-0.2125079 0.25856203 -0.82209682 146 136 115
-0.21166945 0.25961325 -0.82115448 148 135 115
-0.21475077 0.25386441 -0.82409835 119 137 116
-0.21507542 0.25406787 -0.82453954 119 139 115
-0.21402006 0.25484592 -0.82340187 115 139 114
-0.2146287 0.25544927 -0.8242746 116 141 113
-0.21478148 0.25216913 -0.82372838 123 137 116
-0.21352781 0.25312746 -0.82231933 120 141 113
-0.21291259 0.25310686 -0.82149267 120 143 112
-0.21344335 0.25449181 -0.82258248 116 139 113
-0.21342096 0.25326666 -0.82221508 120 141 113
-0.21414837 0.2523948 -0.82294565 122 140 115
-0.2123823 0.25479278 -0.82124239 117 139 113
-0.21245091 0.25344917 -0.82098871 119 142 112
-0.21252161 0.25456849 -0.82137674 117 140 113
-0.21326506 0.24889162 -0.8210752 133 134 118
-0.21355237 0.25096172 -0.82184404 127 139 115
-0.2143423 0.25064853 -0.82283986 128 135 118
-0.21326791 0.25039905 -0.82135963 129 138 116
-0.2130858 0.24914807 -0.82088375 132 135 117
-0.21338379 0.24947807 -0.82134289 131 135 117
-0.21456884 0.25000295 -0.82304549 131 133 118
-0.21506065 0.25038692 -0.8237955 132 134 118
-0.21425635 0.24940433 -0.82252157 134 132 119
-0.21554473 0.24987002 -0.82441431 138 133 118
-0.21582371 0.24827778 -0.82459819 150 133 117
-0.21334636 0.24834225 -0.82108682 135 131 119
-0.21565728 0.24929798 -0.82449788 142 133 117
-0.21282606 0.25090575 -0.82088518 126 142 114
-0.21592121 0.24426602 -0.82394063 130 138 113
-0.21495917 0.24419983 -0.82216257 140 138 115
-0.21538466 0.24554352 -0.82322478 143 137 115
-0.21496813 0.24454394 -0.8222512 142 138 115
-0.21579131 0.24542487 -0.82394558 138 137 114
-0.21609792 0.2451147 -0.82444274 133 138 113
-0.21402806 0.24577595 -0.82113534 144 136 117
-0.21379222 0.24565729 -0.82075423 143 136 117
-0.21406752 0.24661799 -0.82151788 143 134 117
-0.21577285 0.24798039 -0.82446921 151 133 117
-0.21434341 0.24725224 -0.82215583 144 134 117
-0.21456608 0.24571499 -0.82187617 147 136 116
-0.2141874 0.24554798 -0.82127333 146 136 116
-0.21556088 0.24115741 -0.82244557 135 133 116
-0.21510778 0.24072276 -0.82143784 130 133 117
-0.21630612 0.24130325 -0.82397318 148 133 116
-0.21618287 0.2414549 -0.82376069 144 134 116
-0.21635468 0.24098022 -0.82399678 151 132 117
-0.21499838 0.24064569 -0.82120085 129 133 117
-0.21584375 0.24341178 -0.82355773 128 137 114
-0.21479833 0.24167967 -0.82113093 133 135 116
-0.21500075 0.24158223 -0.82147342 131 135 116
-0.21543232 0.24317321 -0.82273304 132 137 114
-0.21603577 0.24384011 -0.82403588 127 138 112
-0.21529901 0.24332289 -0.82253265 134 137 115
-0.21691675 0.23893055 -0.82443017 153 132 118
-0.21690665 0.23835023 -0.82420081 147 133 118
-0.21579354 0.23684286 -0.82184851 114 136 117
-0.21676509 0.23794122 -0.8238256 139 133 118
-0.21667497 0.23878083 -0.82398838 147 132 118
-0.21560116 0.23711713 -0.82163793 115 137 116
-0.21570343 0.23961106 -0.82239068 139 132 118
-0.21533391 0.23976468 -0.8216818 134 133 117
-0.21647738 0.24017084 -0.82405919 158 131 118
-0.21593873 0.23980315 -0.82290256 145 132 118
-0.21493718 0.23914362 -0.82075685 121 134 118
-0.21524002 0.23891732 -0.8213169 125 133 118
-0.21742921 0.23550087 -0.82413489 137 135 118
-0.21767421 0.2345763 -0.82435697 146 136 118
-0.21765164 0.23454091 -0.82431501 146 136 118
-0.21730384 0.23304299 -0.82356966 152 136 117
-0.21693289 0.23368002 -0.82311767 142 137 116
-0.2177835 0.23263334 -0.82421106 160 137 117
-0.21616641 0.23306319 -0.8217575 134 136 117
-0.21610771 0.23370279 -0.8217451 128 136 117
-0.21653992 0.23265061 -0.82233912 144 137 117
-0.21667111 0.23595516 -0.82301867 120 137 117
-0.2156104 0.23471865 -0.82109714 115 137 116
-0.21616335 0.23538204 -0.82210195 118 136 117
-0.21593697 0.23428497 -0.82155436 122 136 117
-0.21780115 0.23235054 -0.82418245 162 137 117
-0.21794513 0.23183748 -0.82421058 160 136 118
-0.21826339 0.23163314 -0.82460129 162 136 118
-0.21718903 0.22957169 -0.82247907 151 133 121
-0.21697994 0.22984101 -0.82227772 151 133 121
-0.2186255 0.22885591 -0.82417482 152 134 119
-0.21684366 0.22893877 -0.82184988 151 131 123
-0.21771869 0.23039792 -0.82340437 152 135 118
-0.21632393 0.22950584 -0.82135218 149 131 122
-0.2164458 0.23051552 -0.82178259 150 132 121
-0.21591376 0.23183216 -0.82112867 137 134 118
-0.21647128 0.23132822 -0.8219884 148 135 119
-0.21622998 0.23114489 -0.82154214 144 133 119
-0.21680008 0.22843 -0.82164395 151 130 123
-0.21775019 0.22727802 -0.82244056 154 131 122
-0.21793725 0.22765891 -0.822837 153 132 122
-0.21723172 0.22723222 -0.82173938 153 130 123
-0.21788822 0.22750291 -0.82271099 154 131 122
-0.22042231 0.25629717 -0.83589613 137 137 112
-0.21936844 0.2588205 -0.83369982 137 136 112
-0.22057858 0.25646484 -0.83619481 141 135 113
-0.22009353 0.25614968 -0.83461243 135 135 114
-0.21999128 0.25633857 -0.83438438 135 135 114
-0.21960002 0.25739974 -0.83376074 134 136 114
-0.21933194 0.25818297 -0.8333748 134 136 113
-0.22001703 0.25625283 -0.83441377 135 135 114
-0.21993083 0.25610924 -0.8339985 133 134 115
-0.22081363 0.25328794 -0.83623534 106 141 109
-0.2208233 0.25265977 -0.8360666 99 142 108
-0.22050768 0.25230992 -0.83468688 106 141 111
-0.22026624 0.25313574 -0.83405703 124 138 114
-0.22019617 0.25255117 -0.83359718 121 138 114
-0.22012669 0.25279668 -0.83341742 126 137 115
-0.21985309 0.25283477 -0.83244014 126 136 117
-0.22039361 0.25569671 -0.83541697 135 136 113
-0.22014023 0.25364318 -0.83376372 130 136 115
-0.21963088 0.25505003 -0.83244461 129 132 118
-0.21989198 0.25559482 -0.83357924 132 133 116
-0.22004443 0.2550222 -0.83391923 132 135 115
-0.22103092 0.250229 -0.83632183 93 142 110
-0.22075388 0.25009117 -0.83496076 97 141 111
-0.22091252 0.24842848 -0.83523101 97 140 112
-0.22096308 0.24967195 -0.83588696 95 140 111
-0.22044241 0.24812506 -0.83272338 111 140 113
-0.22066809 0.24825865 -0.83393347 101 140 112
-0.22018017 0.25119001 -0.83300418 116 139 114
-0.2200131 0.2516681 -0.83258414 123 137 116
-0.22004008 0.25110543 -0.83244085 122 138 115
-0.22032544 0.25088885 -0.83341908 112 139 113
-0.2207244 0.24679956 -0.83356631 112 140 113
-0.22072807 0.24660882 -0.8334949 114 140 113
-0.220724 0.24753237 -0.83390981 104 140 113
-0.22119166 0.24459054 -0.83392483 140 138 114
-0.22100776 0.24499284 -0.83373076 132 138 114
-0.22167356 0.24560589 -0.83593345 134 137 114
-0.22137579 0.24484448 -0.8345952 139 137 114
-0.22163546 0.24550042 -0.83575636 135 137 114
-0.22095582 0.24501567 -0.83361012 132 139 114
-0.22058606 0.24695164 -0.832937 116 140 113
-0.22068341 0.24730937 -0.83360517 108 140 113
-0.22106165 0.2405467 -0.83273929 155 126 122
-0.222008 0.24054424 -0.83606374 152 135 119
-0.22208597 0.24146982 -0.83620948 154 135 118
-0.22142087 0.24045272 -0.83401412 154 129 121
-0.22190428 0.24309546 -0.83534622 158 132 117
-0.22118048 0.24074009 -0.83312988 155 127 121
-0.22187336 0.2438167 -0.83535272 156 134 115
-0.22117335 0.24194503 -0.83323449 152 130 119
-0.22117633 0.24343769 -0.83345729 148 135 116
-0.2216323 0.24250121 -0.83452666 157 130 118
-0.22158077 0.24291697 -0.83445048 155 132 117
-0.22241682 0.23681653 -0.83413935 139 133 121
-0.22213082 0.23825975 -0.83468217 141 134 120
-0.22234938 0.23856404 -0.83555663 148 134 120
-0.22253378 0.23780952 -0.83536804 147 134 120
-0.22247198 0.2369803 -0.83443981 141 133 121
-0.22186211 0.23988757 -0.83528525 149 133 120
-0.22151236 0.23979752 -0.83397639 150 130 121
-0.22164077 0.24022163 -0.83480573 152 131 120
-0.2219336 0.23776063 -0.83363897 135 133 120
-0.22184442 0.23753276 -0.83312243 134 131 120
-0.22126652 0.23922125 -0.83259875 147 127 122
-0.2236618 0.23434074 -0.83610988 148 133 122
-0.2234288 0.23370589 -0.83511406 148 133 121
-0.22325481 0.23327719 -0.83439368 149 133 120
-0.22313756 0.23454005 -0.83470297 154 134 121
-0.22317527 0.23460408 -0.83484429 154 134 121
-0.22292881 0.23387496 -0.83376747 153 134 120
-0.22272496 0.23505442 -0.83384639 146 133 120
-0.22281119 0.23552038 -0.83433217 147 133 121
-0.22242126 0.23608668 -0.833574 137 132 120
-0.22273383 0.23405157 -0.83333111 149 133 120
-0.22233954 0.23445261 -0.83247203 139 133 119
-0.22423947 0.22895733 -0.83602375 118 141 112
-0.22411193 0.22940314 -0.83547235 125 138 114
-0.22429036 0.22891729 -0.83629107 115 142 111
-0.22397013 0.23070645 -0.83513683 137 133 119
-0.22414619 0.22941147 -0.83566451 124 139 114
-0.22293323 0.23210518 -0.83282161 151 133 119
-0.22342923 0.22943819 -0.83249414 147 131 119
-0.22375847 0.23209746 -0.83519185 141 133 120
-0.22373664 0.23138201 -0.83465821 142 131 121
-0.22307529 0.23107423 -0.83255196 149 132 119
-0.22362444 0.22879325 -0.83263165 146 130 119
-0.22462726 0.22627646 -0.83536506 131 136 113
-0.22474483 0.22637215 -0.83575976 129 136 113
-0.22478509 0.22489934 -0.83461237 144 131 115
-0.22446257 0.22631867 -0.83495635 133 136 113
-0.22439256 0.22642833 -0.83485579 133 136 113
-0.22370704 0.22829162 -0.83278805 143 132 118
-0.22408113 0.2258283 -0.83329082 146 132 115
-0.22397318 0.22756484 -0.83379692 137 135 115
-0.22379954 0.22851494 -0.8334409 137 134 117
-0.22397806 0.22812691 -0.83418077 132 136 115
-0.22465977 0.22260289 -0.83269453 157 127 115
-0.22487652 0.22215007 -0.83306694 157 127 116
-0.22491845 0.22301033 -0.833718 153 128 116
-0.22482519 0.22352645 -0.83379316 152 128 116
-0.22509374 0.22371192 -0.83462483 149 129 116
-0.22529039 0.22118929 -0.83369875 162 127 117
-0.22570281 0.22174111 -0.83532178 161 128 118
-0.22573182 0.22101997 -0.83501619 166 127 119
-0.22556885 0.22215231 -0.83512074 158 127 118
-0.22526923 0.22085823 -0.83344817 164 127 117
-0.22518732 0.22075982 -0.83313203 164 126 117
-0.22458996 0.22407661 -0.83348203 151 129 116
-0.22523873 0.21906534 -0.83267933 167 129 117
-0.2253232 0.21856816 -0.83277154 168 130 118
-0.22532585 0.21917482 -0.83299696 167 129 118
-0.22677609 0.20564131 -0.83415216 127 134 116
-0.22712411 0.20714745 -0.83520269 121 136 114
-0.226781 0.20561674 -0.83417678 127 134 116
-0.22703427 0.2068814 -0.83490521 122 136 114
-0.2270295 0.20703159 -0.83485425 121 137 114
-0.22718555 0.20814066 -0.83528584 119 138 112
-0.22731061 0.20404623 -0.83577788 135 128 121
-0.22715309 0.20483522 -0.83564085 131 128 121
-0.22686064 0.20501232 -0.8345741 130 132 119
-0.22718579 0.20434088 -0.83552665 135 128 121
-0.20499605 0.25989771 -0.81280965 158 139 116
-0.20549454 0.2567398 -0.81243753 156 135 119
-0.20510158 0.25850683 -0.81248599 156 137 117
-0.20489421 0.25857946 -0.81231213 155 137 117
-0.20450284 0.25930753 -0.81219774 154 138 117
-0.20467694 0.25807545 -0.81195086 152 136 118
-0.2044393 0.25655833 -0.81123906 148 133 120
-0.2047148 0.25937051 -0.81240964 156 138 117
-0.20555836 0.25572658 -0.81220597 155 135 120
-0.20577562 0.25551745 -0.81245381 157 135 120
-0.20526651 0.25526485 -0.81171358 152 133 120
-0.20594358 0.25249517 -0.81204623 153 134 119
-0.20569488 0.25317127 -0.81185663 150 134 119
-0.2066683 0.25143936 -0.81280339 168 134 120
-0.20670296 0.25137794 -0.81283915 168 134 120
-0.20596728 0.24735682 -0.81120086 145 135 119
-0.2067069 0.24643445 -0.81198549 149 135 120
-0.20543008 0.24796242 -0.81061715 143 135 119
-0.207156 0.24764928 -0.81284064 158 135 120
-0.20656455 0.24801241 -0.81213325 154 135 119
-0.20521042 0.245765 -0.81004208 163 134 120
-0.20562945 0.24441476 -0.81037563 172 133 121
-0.20701608 0.24449319 -0.81204629 155 134 121
-0.20665376 0.24520361 -0.81170088 152 134 120
-0.20528437 0.24676105 -0.81025487 152 135 119
-0.20459194 0.24587058 -0.80951083 162 134 120
-0.20487396 0.24548376 -0.80968642 167 133 120
-0.20450191 0.24760273 -0.80966955 146 135 118
-0.20442286 0.24792421 -0.80965143 143 135 118
-0.20786184 0.24263479 -0.81238252 164 134 121
-0.20699328 0.24342293 -0.81167334 167 134 121
-0.20701461 0.2429281 -0.81149095 172 134 121
-0.20718579 0.24350379 -0.81193793 164 133 121
-0.20534079 0.24391285 -0.80989987 182 133 121
-0.2083334 0.24117412 -0.81233877 174 134 121
-0.2052433 0.24387237 -0.80979365 182 133 121
-0.20644461 0.24111077 -0.81047499 183 133 121
-0.20614153 0.2403762 -0.8100602 185 132 121
-0.20682706 0.2423346 -0.81104875 179 133 121
-0.20817395 0.24055186 -0.8120355 177 134 121
-0.20662443 0.24078953 -0.81059259 183 133 121
-0.20665038 0.24157581 -0.81075084 181 133 121
-0.20624174 0.2413304 -0.81031805 183 133 121
-0.20505379 0.24206804 -0.8093105 186 132 121
-0.20906736 0.23866192 -0.8126567 153 133 121
-0.20925231 0.23702228 -0.8126744 127 133 120
-0.20743126 0.23735549 -0.81092054 142 133 120
-0.20687942 0.23769642 -0.81044644 147 133 120
-0.20568223 0.23834036 -0.80940974 156 133 120
-0.205983 0.23880701 -0.80972284 165 132 121
-0.20714277 0.23757493 -0.81067616 145 133 120
-0.20625377 0.23891954 -0.80997896 168 132 121
-0.20864809 0.23715046 -0.81203443 138 132 121
-0.20747265 0.23910846 -0.8111639 166 133 121
-0.20738059 0.23868589 -0.81102079 161 132 121
-0.20805788 0.23808038 -0.81159037 152 132 121
-0.20788148 0.23951462 -0.81160808 170 133 120
-0.20879769 0.23781495 -0.81226403 146 133 121
-0.20848587 0.23937976 -0.81216908 166 133 121
-0.20852844 0.23738171 -0.81194997 141 133 120
-0.20902742 0.23502757 -0.81213361 121 134 119
-0.20883521 0.23545566 -0.81199867 123 133 120
-0.21617544 0.26039588 -0.82835907 130 134 115
-0.21611665 0.25630003 -0.82691699 109 142 112
-0.21661572 0.25664639 -0.82788658 106 143 111
-0.21648681 0.258394 -0.82830113 112 139 112
-0.21580486 0.25787127 -0.82695353 116 139 113
-0.21635373 0.25797379 -0.82793212 112 139 112
-0.21618621 0.25883555 -0.82793105 116 138 112
-0.21615961 0.25943616 -0.8280775 119 137 113
-0.21470636 0.25680441 -0.82464164 127 141 114
-0.21534203 0.2583552 -0.82625687 128 138 114
-0.21568614 0.25936198 -0.8271783 130 137 114
-0.21728212 0.25479862 -0.82841682 108 142 112
-0.21730955 0.25279611 -0.8279205 111 138 114
-0.21703716 0.25449643 -0.82790565 107 141 112
-0.21668097 0.25220397 -0.82673419 103 138 115
-0.21586882 0.25275669 -0.82547259 118 136 117
-0.21648723 0.25240812 -0.82645154 107 138 115
-0.21646555 0.25356457 -0.82670635 108 139 114
-0.21617728 0.25452876 -0.82646507 112 140 114
-0.21543722 0.25451925 -0.82523876 116 140 114
-0.2151196 0.25502351 -0.82485324 117 141 114
-0.21607935 0.2551299 -0.82646954 111 142 113
-0.2154538 0.25424489 -0.82519025 117 139 115
-0.21718545 0.25194278 -0.82750267 108 138 114
-0.21747689 0.25129312 -0.82783633 113 137 114
-0.21826291 0.24849558 -0.82850778 126 137 113
-0.21702063 0.25112104 -0.82705581 107 137 114
-0.21735051 0.24977584 -0.82730335 117 137 114
-0.21682085 0.24849626 -0.82617593 135 135 115
-0.21731688 0.25042403 -0.82738662 112 137 114
-0.21644019 0.25041234 -0.82600236 121 136 115
-0.21669747 0.24977113 -0.82625681 124 136 115
-0.21564981 0.25055689 -0.82466531 133 134 118
-0.21583386 0.250296 -0.82494056 132 134 117
-0.21579246 0.25138167 -0.82504511 124 135 117
-0.2160953 0.25066531 -0.82545149 125 135 116
-0.21763925 0.24803834 -0.82740062 132 136 114
-0.21839212 0.24739891 -0.8284381 132 137 113
-0.21799576 0.24782379 -0.82791662 131 136 114
-0.21819302 0.24645053 -0.82785076 143 135 115
-0.21808529 0.24550158 -0.82743782 149 134 116
-0.21713684 0.24592389 -0.82615048 137 135 114
-0.21687357 0.24704289 -0.82597232 137 135 114
-0.21840408 0.24491492 -0.82779098 151 134 116
-0.21793313 0.24599758 -0.82730794 148 134 115
-0.21675861 0.24429019 -0.82531297 126 138 112
-0.21644011 0.2443077 -0.82484579 126 138 112
-0.21624485 0.24796538 -0.82518965 146 134 116
-0.21630205 0.2476242 -0.82521719 143 134 115
-0.21802408 0.2431021 -0.82694018 135 135 115
-0.21788388 0.2431961 -0.82675374 133 136 115
-0.21723427 0.24364127 -0.82589144 128 137 113
-0.21860038 0.24236028 -0.82764965 136 134 117
-0.21866314 0.24338827 -0.82790428 146 134 116
-0.21774179 0.24373938 -0.82663643 136 136 114
-0.21809684 0.24084695 -0.82667232 142 132 119
-0.21723646 0.24188486 -0.82560003 143 133 116
-0.21692616 0.24038756 -0.82489806 161 131 118
-0.21798094 0.24048145 -0.82644278 147 131 119
-0.21823725 0.24181472 -0.82703888 130 134 117
-0.21855783 0.24134234 -0.82742399 131 133 118
-0.2167699 0.24241605 -0.8250128 142 135 115
-0.21650437 0.24253082 -0.82463992 142 135 115
-0.2182636 0.23788236 -0.82603288 136 133 120
-0.21930602 0.24007553 -0.82826936 132 131 121
-0.21783336 0.23816061 -0.82550126 142 132 120
-0.21756122 0.23789978 -0.82502055 145 133 119
-0.21745758 0.23950829 -0.82540244 153 131 119
-0.21723031 0.23977 -0.82515955 157 131 119
-0.21826962 0.23859137 -0.82627612 138 132 120
-0.21997851 0.23763777 -0.82851422 117 139 116
-0.21947511 0.23855421 -0.82804692 125 135 119
-0.21997049 0.23733833 -0.82840925 116 140 115
-0.21908215 0.23868161 -0.82749957 129 133 119
-0.21849015 0.23797473 -0.82639593 133 133 120
-0.21835473 0.23679301 -0.82582676 131 135 119
-0.22024682 0.23278715 -0.82822978 142 134 119
-0.21966271 0.2350139 -0.8274374 128 140 115
-0.22010159 0.23448719 -0.82812268 129 138 116
-0.21958268 0.23438203 -0.82725537 134 139 116
-0.2199043 0.23482852 -0.8278228 128 140 116
-0.22012843 0.23535627 -0.82823521 121 140 115
-0.21856073 0.23541091 -0.82583541 135 137 117
-0.21825892 0.23312216 -0.82499874 158 136 117
-0.2193737 0.23596227 -0.82714254 122 140 115
-0.2181226 0.23582397 -0.82525074 136 135 118
-0.21949434 0.23621716 -0.82736576 119 140 115
-0.21798298 0.23342355 -0.82463741 157 136 118
-0.21792278 0.23627785 -0.82502878 135 134 119
-0.22053005 0.22988579 -0.82792366 154 132 119
-0.21979238 0.22882996 -0.82617432 155 133 119
-0.22053488 0.22986972 -0.82792771 154 132 119
-0.21963981 0.22993237 -0.82622391 150 134 119
-0.22053218 0.23085009 -0.8282299 151 133 119
-0.21999165 0.23022564 -0.8269943 151 133 120
-0.2195017 0.2310373 -0.82641065 151 134 119
-0.21996681 0.2316774 -0.82743812 148 133 120
-0.22018917 0.23228912 -0.82805222 146 133 119
-0.21894869 0.23232034 -0.82601118 157 135 118
-0.21995942 0.23129813 -0.82727331 147 134 119
-0.21988188 0.23213083 -0.8274799 149 134 119
-0.21905075 0.23038201 -0.82540053 155 134 119
-0.22115894 0.22755006 -0.82827365 158 132 119
-0.22087713 0.22841787 -0.8280828 159 131 119
-0.22153704 0.22531153 -0.82813698 159 133 118
-0.22089629 0.22723024 -0.82767445 163 133 119
-0.22164555 0.22492029 -0.82818925 159 133 118
-0.2203666 0.22789085 -0.82693857 163 132 119
-0.21935238 0.22810128 -0.82507885 157 134 119
-0.22034484 0.22749157 -0.82674903 165 132 119
-0.22336842 0.21665673 -0.82828754 167 130 117
-0.22089657 0.25979006 -0.84193814 133 136 111
-0.22088417 0.26071641 -0.84126747 139 135 111
-0.22090793 0.25954565 -0.84279895 131 136 111
-0.2211142 0.25969401 -0.84381914 136 136 111
-0.21873827 0.2511397 -0.84317702 84 137 116
-0.21944042 0.25155222 -0.84327418 85 139 114
-0.21954753 0.25162947 -0.8437807 84 140 114
-0.21913688 0.25139984 -0.84412408 84 138 117
-0.21961324 0.25164855 -0.84311861 84 140 112
-0.22010589 0.24960272 -0.84085792 91 139 109
-0.21879281 0.2500414 -0.84210986 87 136 115
-0.21992868 0.24898764 -0.84115535 93 137 112
-0.21864741 0.24922247 -0.84241378 89 133 117
-0.2202844 0.24973583 -0.84065092 92 139 108
-0.21954443 0.24958435 -0.84143245 90 137 112
-0.21886811 0.24993894 -0.84205276 88 135 115
-0.21762148 0.24957463 -0.84333718 85 132 121
-0.22019848 0.24819775 -0.84089351 94 137 111
-0.2171205 0.24865036 -0.842489 77 135 120
-0.21783276 0.24805313 -0.84157306 78 137 116
-0.22034647 0.25157887 -0.84023428 87 143 104
-0.22078861 0.2461976 -0.84064662 106 134 113
-0.22100878 0.24756455 -0.84027356 103 137 110
-0.22077127 0.24256459 -0.8406949 110 138 114
-0.22092189 0.24186069 -0.84040797 109 140 113
-0.22174434 0.23692656 -0.84035647 106 132 119
-0.22147818 0.23804915 -0.84033954 106 136 117
-0.22121172 0.23933226 -0.84028351 106 140 115
-0.22070706 0.23631343 -0.84150708 103 126 120
-0.22082439 0.23509246 -0.84130424 110 127 121
-0.22171634 0.23526818 -0.84048116 113 130 120
-0.22216208 0.23308778 -0.84053236 124 132 119
-0.22217506 0.23513715 -0.84030044 113 131 119
-0.22108635 0.23164435 -0.84155792 130 128 123
-0.22179599 0.23160847 -0.84127873 131 129 122
-0.22094207 0.22920823 -0.84316736 143 120 128
-0.2212047 0.23236956 -0.84104675 127 129 121
-0.2235301 0.22898054 -0.84053469 132 134 113
-0.22293307 0.23100153 -0.84069043 131 133 118
-0.22212423 0.22858489 -0.84215319 139 125 122
-0.22325867 0.23079431 -0.84038812 130 134 116
-0.22108024 0.22857277 -0.84328669 144 119 128
-0.22311281 0.22888382 -0.84101009 134 132 115
-0.22269098 0.22860581 -0.84153438 136 129 118
-0.22522682 0.22509639 -0.84057951 139 131 117
-0.2245333 0.22673236 -0.84042811 135 133 114
-0.22295667 0.22723365 -0.84184057 138 127 121
-0.22285695 0.22681151 -0.8421368 138 126 122
-0.22348276 0.22609419 -0.84177911 137 128 121
-0.22387427 0.22615586 -0.84132761 135 130 119
-0.22284774 0.2269616 -0.84207982 138 126 122
-0.22321497 0.22684674 -0.8417334 137 128 121
-0.22213867 0.22714522 -0.84276581 142 122 126
-0.22318318 0.22591045 -0.84213471 136 126 123
-0.2208987 0.22484896 -0.84372127 87 132 122
-0.22199424 0.22533479 -0.84296137 111 129 123
-0.22252625 0.2251724 -0.84260803 115 130 122
-0.22223368 0.22581048 -0.84278071 122 127 123
-0.22095296 0.22716863 -0.84359312 127 123 127
-0.22465083 0.22336231 -0.84148484 138 131 119
-0.22496921 0.22248282 -0.84146196 141 130 119
-0.22539103 0.22083259 -0.84146506 150 128 120
-0.22593142 0.22447079 -0.84030068 142 130 118
-0.22547494 0.22150157 -0.84126377 148 129 119
-0.22625564 0.22100981 -0.84071213 157 126 120
-0.22238593 0.22253132 -0.84370261 100 132 123
-0.22301649 0.22178762 -0.84360027 107 132 122
-0.22414556 0.2210511 -0.84251583 134 131 121
-0.22293571 0.22185595 -0.84365422 105 132 122
-0.22264478 0.22345832 -0.84282053 110 132 121
-0.22245033 0.2231019 -0.84303576 109 132 121
-0.22438435 0.22285829 -0.84178537 136 131 120
-0.22448924 0.22152887 -0.84202689 141 130 120
-0.22377734 0.22347224 -0.84205151 126 132 120
-0.22251488 0.22349811 -0.84289902 108 133 120
-0.22217214 0.22417459 -0.84297174 102 133 121
-0.22517025 0.2185799 -0.84161842 135 132 118
-0.22542049 0.22005466 -0.84144908 147 129 119
-0.2252135 0.21973135 -0.84161258 143 130 119
-0.22488062 0.2179918 -0.84184361 129 134 118
-0.22676913 0.21913022 -0.84043127 160 127 119
-0.22622202 0.21756512 -0.84090441 150 131 118
-0.22580905 0.21781191 -0.84116453 143 131 118
-0.22380053 0.21801338 -0.84355146 88 140 118
-0.22367333 0.21888871 -0.84384185 89 138 120
-0.22367601 0.21917024 -0.8438586 92 136 121
-0.2244789 0.22066423 -0.8423925 139 131 120
-0.22432886 0.22019179 -0.84267247 130 131 121
-0.22460623 0.2185809 -0.84209001 131 133 119
-0.22648536 0.2163365 -0.840765 149 132 117
-0.22541104 0.2151112 -0.84144503 111 136 115
-0.22565873 0.2157279 -0.84129924 125 134 116
-0.22483099 0.21599947 -0.84186304 113 136 117
-0.22483449 0.21436916 -0.84180731 89 138 113
-0.2252882 0.21366896 -0.84150428 89 138 112
-0.22614357 0.21463419 -0.84099448 122 134 114
-0.22648914 0.21385437 -0.8408857 125 133 114
-0.22708209 0.21322441 -0.84064019 137 130 114
-0.22634172 0.21464312 -0.84089422 128 133 115
-0.22528329 0.21039449 -0.84130424 70 127 121
-0.22574395 0.21104029 -0.841142 87 128 119
-0.22672455 0.21214922 -0.84076804 121 129 116
-0.22477143 0.20931853 -0.84144622 48 123 125
-0.22719778 0.21145223 -0.84053832 129 127 117
-0.22719954 0.21024489 -0.84058559 120 128 117
-0.22741961 0.211309 -0.84047067 134 128 117
-0.22608531 0.20932181 -0.84099054 85 126 121
-0.22807911 0.20953342 -0.84032297 136 130 115
-0.22754201 0.20844577 -0.84053028 115 132 115
-0.22573142 0.20782985 -0.84113806 64 132 117
-0.22702223 0.20777421 -0.84071207 98 134 113
-0.22471264 0.20860262 -0.84146345 42 125 124
-0.2272636 0.20843734 -0.84062243 108 132 115
-0.22825073 0.20773874 -0.84024864 134 131 115
-0.22683772 0.20734349 -0.84077829 90 136 112
-0.22776356 0.20600995 -0.84036946 117 131 115
0 0 0 1 0 0 0 1 0 0 0 1 0 0 0 0 0 1030 1 0 0
