ply
format ascii 1.0
comment PCL generated
element vertex 797
property float x
property float y
property float z
property uchar red
property uchar green
property uchar blue
element camera 1
property float view_px
property float view_py
property float view_pz
property float x_axisx
property float x_axisy
property float x_axisz
property float y_axisx
property float y_axisy
property float y_axisz
property float z_axisx
property float z_axisy
property float z_axisz
property float focal
property float scalex
property float scaley
property float centerx
property float centery
property int viewportx
property int viewporty
property float k1
property float k2
end_header
-0.208893 0.29388425 -0.82032311 160 139 115
-0.20823981 0.29226562 -0.81936562 163 137 116
-0.20875207 0.29155621 -0.82012254 172 136 117
-0.20854397 0.29278558 -0.81981218 163 137 116
-0.20770736 0.29234087 -0.81858081 159 137 117
-0.20662622 0.29117751 -0.81699133 157 135 119
-0.20829736 0.29448462 -0.81943375 149 140 115
-0.20665213 0.29191867 -0.8170172 151 137 117
-0.20805171 0.29079616 -0.81910789 170 135 118
-0.20837301 0.29095143 -0.8195703 172 135 117
-0.2089382 0.29085639 -0.82040977 177 136 117
-0.20847431 0.28825518 -0.81991053 183 135 118
-0.20858096 0.28803757 -0.82008314 185 134 118
-0.20788431 0.29064292 -0.81887203 170 135 118
-0.20648576 0.28812045 -0.81696653 174 133 118
-0.20699348 0.28746349 -0.81776237 180 133 118
-0.20682524 0.29024839 -0.81733751 163 135 119
-0.20877965 0.28736743 -0.82042319 190 134 118
-0.20887122 0.28723937 -0.82056731 191 134 118
-0.20742463 0.28773037 -0.81838644 181 133 118
-0.2092706 0.28372303 -0.82068431 187 130 121
-0.2068588 0.2836335 -0.81744277 176 133 117
-0.20781966 0.28493822 -0.81889784 183 134 118
-0.20864837 0.28435642 -0.81991804 185 132 119
-0.20789778 0.28401113 -0.81887406 181 132 119
-0.20691445 0.28379396 -0.81753868 177 133 118
-0.20808601 0.28592023 -0.81936872 186 134 117
-0.20739424 0.28674757 -0.8183682 184 133 118
-0.20797889 0.28664279 -0.8192336 187 133 118
-0.20721796 0.284587 -0.81803381 180 133 118
-0.20815982 0.28677872 -0.81950712 187 134 118
-0.20699324 0.28589991 -0.81774378 181 133 118
-0.20945349 0.28193897 -0.8206414 183 132 119
-0.20944913 0.28037438 -0.82036436 172 135 116
-0.20953742 0.27971375 -0.82037479 169 137 115
-0.20821178 0.28173962 -0.81907749 165 135 118
-0.20840038 0.28007242 -0.8190279 148 141 113
-0.20762515 0.27972686 -0.81807637 141 143 112
-0.2082404 0.28071216 -0.81894565 155 138 115
-0.20776203 0.28031191 -0.8183285 148 141 113
-0.20725094 0.28149807 -0.81781083 159 137 116
-0.20826273 0.28242767 -0.81920499 172 133 119
-0.20778567 0.28203008 -0.81854987 166 135 118
-0.20699325 0.28002217 -0.817388 142 142 113
-0.20692153 0.28278619 -0.81744403 171 133 117
-0.20772813 0.28144738 -0.81844163 160 136 117
-0.20934075 0.27848709 -0.81998587 156 141 112
-0.20961761 0.27798286 -0.82031208 167 138 114
-0.2091101 0.27712321 -0.81957358 158 138 114
-0.20942189 0.27657479 -0.81994331 165 137 115
-0.20802622 0.27570459 -0.81814605 159 131 117
-0.20827304 0.27638486 -0.81849569 157 134 116
-0.20781873 0.27591577 -0.81791383 157 131 117
-0.20799184 0.27555099 -0.8180927 160 131 117
-0.20801882 0.27861163 -0.81839263 142 141 112
-0.20676593 0.27793011 -0.8168751 141 138 114
-0.20752729 0.27870652 -0.81783414 140 142 112
-0.20676334 0.27891836 -0.81697267 135 143 112
-0.20813493 0.27856144 -0.81852174 143 140 112
-0.21001767 0.27497038 -0.82064158 180 134 117
-0.2097646 0.27276036 -0.82031989 175 134 117
-0.20966634 0.27239782 -0.82017577 174 134 117
-0.2091486 0.27464545 -0.81948787 169 134 117
-0.20917889 0.27406758 -0.819516 169 134 117
-0.20830426 0.27289423 -0.81840736 167 133 116
-0.20891337 0.27347827 -0.81913549 170 133 117
-0.2077702 0.27233598 -0.81776762 165 133 116
-0.20854604 0.27186388 -0.81866211 170 133 116
-0.20793925 0.27170116 -0.8179481 167 132 117
-0.20706876 0.27534431 -0.81697249 156 127 119
-0.20852414 0.27518547 -0.81871611 165 132 117
-0.20825075 0.27499655 -0.81838602 164 132 117
-0.20713989 0.27279052 -0.81702805 161 131 117
-0.21015638 0.2687335 -0.82040143 172 136 116
-0.20963661 0.27015647 -0.81988674 173 134 116
-0.21008794 0.27091059 -0.82066524 176 135 117
-0.20930152 0.26928008 -0.81924462 173 134 117
-0.20942368 0.2700662 -0.81956136 172 134 117
-0.20968561 0.26899299 -0.81975818 172 135 116
-0.20764886 0.26770788 -0.81698561 167 131 120
-0.20856048 0.26779968 -0.81803823 171 133 119
-0.20839885 0.26824489 -0.81793225 171 132 119
-0.20836262 0.26996964 -0.81819111 170 132 118
-0.20736553 0.26860806 -0.81680369 165 131 119
-0.20827198 0.27007282 -0.81810188 170 132 118
-0.2079913 0.26988146 -0.81774253 168 131 118
-0.20916484 0.26744953 -0.8187409 173 134 118
-0.21038304 0.26422265 -0.82039058 163 133 117
-0.21014139 0.26741505 -0.82017267 171 136 116
-0.21015659 0.26513198 -0.82009721 166 133 117
-0.20946144 0.2657598 -0.81906205 170 133 118
-0.20988175 0.26407474 -0.8195647 167 133 118
-0.20968381 0.26504019 -0.81934601 169 133 118
-0.20909244 0.26575801 -0.81846529 173 133 119
-0.20887846 0.26676148 -0.81826776 173 133 119
-0.20883863 0.26554859 -0.81809229 173 132 119
-0.20796645 0.26440516 -0.81692958 165 132 119
-0.20783192 0.2647849 -0.81682384 165 131 119
-0.20823126 0.26663938 -0.8175084 169 132 119
-0.20966554 0.26268569 -0.81888753 166 133 118
-0.20998928 0.26321331 -0.81956357 165 133 118
-0.20940813 0.26117915 -0.81822383 161 131 119
-0.20857175 0.26196367 -0.81731683 164 130 120
-0.2082932 0.26302621 -0.81713927 165 131 120
-0.21862726 0.28863618 -0.83925629 153 134 116
-0.21884251 0.2878803 -0.84001184 159 132 117
-0.21886475 0.28795797 -0.83985943 159 131 117
-0.21914788 0.28786719 -0.83951694 157 131 117
-0.2191218 0.28734878 -0.83832073 159 133 115
-0.21881768 0.28880095 -0.83779216 148 135 113
-0.21902229 0.28831539 -0.83883899 152 133 115
-0.21888089 0.28823423 -0.83752942 151 135 114
-0.21936704 0.28395975 -0.83814836 164 131 118
-0.21944521 0.28391722 -0.83840853 165 131 117
-0.21966147 0.28451854 -0.83958662 169 131 117
-0.2197822 0.2848236 -0.8402248 171 132 116
-0.21952748 0.28532413 -0.83960813 167 130 118
-0.21974826 0.28487346 -0.84013194 171 131 117
-0.21907969 0.28630358 -0.83749312 159 133 115
-0.21909165 0.28491265 -0.83736253 159 131 118
-0.2189939 0.28545421 -0.83662641 158 133 116
-0.21902227 0.28589964 -0.83694041 158 133 115
-0.21925521 0.28678933 -0.83905804 162 130 117
-0.2196493 0.28102857 -0.83827555 170 136 115
-0.21946074 0.27977625 -0.83755112 167 136 115
-0.21959676 0.28075609 -0.83802766 170 135 115
-0.21981306 0.28012642 -0.84010339 168 131 116
-0.219392 0.27938947 -0.83724487 166 136 115
-0.21937896 0.28062099 -0.83706588 167 136 115
-0.21973337 0.2827782 -0.83890581 171 133 116
-0.21954426 0.28255603 -0.83815563 168 133 116
-0.2194978 0.28206608 -0.83786279 167 133 116
-0.2191748 0.28178528 -0.83660591 162 134 117
-0.22009905 0.27563813 -0.83723062 129 133 115
-0.22024941 0.27723861 -0.83946812 137 132 115
-0.2206444 0.27668709 -0.8400985 121 133 115
-0.22028649 0.2768698 -0.83917511 133 132 115
-0.21993661 0.27654928 -0.83771765 141 132 115
-0.21969862 0.27862591 -0.83884847 160 131 116
-0.21963701 0.27862537 -0.83836448 160 133 116
-0.21947075 0.2791611 -0.83774477 164 135 115
-0.21964362 0.27762955 -0.83714467 152 134 115
-0.2194905 0.27912334 -0.83785141 164 134 116
-0.21954583 0.2787219 -0.83777255 161 134 115
-0.22084552 0.27513593 -0.83953768 106 135 113
-0.22115244 0.27294657 -0.83986217 135 135 113
-0.22086328 0.27293721 -0.83909523 136 133 114
-0.22079805 0.27255332 -0.83885109 142 132 114
-0.22087058 0.27208039 -0.83895075 148 132 114
-0.22009206 0.27206016 -0.83721226 154 128 117
-0.22048363 0.27256402 -0.83813894 144 130 115
-0.21985237 0.2718434 -0.83666259 159 126 118
-0.21988055 0.27353203 -0.83654225 146 129 117
-0.22021711 0.27415329 -0.83762914 129 131 115
-0.22003148 0.27432203 -0.83694798 135 131 116
-0.21989524 0.27469173 -0.83640879 138 131 116
-0.22076033 0.27122584 -0.83856821 158 130 116
-0.22119185 0.26891929 -0.83987784 172 124 119
-0.22081731 0.26832217 -0.83900237 172 124 119
-0.22105832 0.26835987 -0.83959013 175 123 120
-0.22058538 0.26919922 -0.83829838 164 127 117
-0.22054452 0.26810747 -0.83829433 168 125 118
-0.22035035 0.26912364 -0.83763969 159 129 115
-0.22033133 0.27030298 -0.83754236 156 130 115
-0.22000137 0.2691783 -0.83677846 157 130 114
-0.21975026 0.27061972 -0.83632809 162 127 117
-0.22108877 0.26684448 -0.83987397 176 123 119
-0.22086458 0.26743391 -0.83921999 175 122 120
-0.22071159 0.26660681 -0.83878326 172 125 117
-0.22098947 0.26367715 -0.84013182 161 132 112
-0.22090532 0.26457113 -0.83972389 164 130 113
-0.22067769 0.26575208 -0.83855134 171 128 116
-0.22061521 0.26449767 -0.83815074 169 131 112
-0.22065885 0.26462084 -0.83838236 169 131 113
-0.22007652 0.2661086 -0.83655417 161 132 112
-0.22015347 0.26581365 -0.83667856 163 132 112
-0.22003171 0.2669495 -0.83669454 159 131 113
-0.22002146 0.2672081 -0.83674765 159 131 113
-0.22083467 0.26226899 -0.83997077 151 134 111
-0.22074907 0.26281422 -0.83922744 157 134 111
-0.22062765 0.26216638 -0.83889455 153 134 110
-0.22041295 0.26236624 -0.83769655 156 136 110
-0.22045852 0.26309973 -0.83757311 162 135 110
-0.22038805 0.26265353 -0.83650655 166 134 111
-0.22043279 0.26209715 -0.83763474 155 135 111
-0.22040999 0.26227468 -0.8377198 155 136 110
-0.22032711 0.26314288 -0.83664066 165 135 110
-0.22065634 0.26021382 -0.83769262 153 131 113
-0.22070408 0.25951156 -0.83748001 152 130 114
-0.22068487 0.25898719 -0.83780581 146 132 113
-0.22069405 0.25885034 -0.83710384 151 131 113
-0.21761729 0.27658999 -0.84435606 110 139 114
-0.21887815 0.27595162 -0.84421784 139 135 116
-0.21951605 0.27543047 -0.84426886 147 133 117
-0.21989794 0.26561356 -0.84435898 149 130 115
-0.21949668 0.26649863 -0.84443718 142 131 116
-0.22045015 0.26505405 -0.84420806 157 129 115
-0.21848419 0.26658848 -0.8447755 126 131 118
-0.21998894 0.26641104 -0.84427559 149 132 115
-0.21790281 0.26631358 -0.84496737 118 130 119
-0.2170618 0.2644119 -0.84496629 125 134 118
-0.2180191 0.26592767 -0.84491271 122 130 118
-0.21858534 0.26484141 -0.84471351 135 130 117
-0.21771847 0.26618284 -0.84499133 117 131 119
-0.20504652 0.29570615 -0.81462789 161 135 117
-0.20471917 0.29652768 -0.81424105 154 136 116
-0.20395145 0.2953355 -0.81336898 160 134 118
-0.20381474 0.29567963 -0.81320721 157 134 118
-0.20375822 0.29653588 -0.81312722 152 135 116
-0.20537825 0.29352441 -0.81512761 165 134 118
-0.20526627 0.29250234 -0.81496948 168 135 118
-0.20580268 0.29154903 -0.81577027 163 135 118
-0.20391238 0.29130596 -0.8135438 172 135 117
-0.20505139 0.29483676 -0.81464726 168 134 118
-0.20393927 0.29193074 -0.81356585 172 134 118
-0.20347001 0.29173365 -0.81308287 171 134 118
-0.20362489 0.29473117 -0.81301284 162 133 119
-0.20363845 0.29469743 -0.81303126 163 133 119
-0.20380381 0.29327106 -0.81334037 168 134 118
-0.20583339 0.28973323 -0.81589979 170 135 118
-0.20601469 0.28947857 -0.81618392 170 134 118
-0.20592853 0.28857979 -0.81611258 176 134 118
-0.20620295 0.28956908 -0.81645679 167 134 118
-0.20562598 0.28859338 -0.81569481 173 134 118
-0.20521651 0.28978899 -0.81501794 170 135 118
-0.20604953 0.28721783 -0.81640977 175 132 118
-0.20420785 0.28715914 -0.81417662 157 132 118
-0.20448917 0.28771958 -0.81441903 160 133 118
-0.20475636 0.29040101 -0.81442207 168 136 118
-0.20378137 0.28823197 -0.81360584 159 133 118
-0.20321913 0.28964245 -0.81294489 166 133 118
-0.20321305 0.28926241 -0.81296277 164 132 118
-0.20326483 0.28929159 -0.8130123 164 133 118
-0.20325331 0.28983516 -0.81296664 167 133 118
-0.20617367 0.28438622 -0.81650567 172 133 117
-0.20621651 0.28461927 -0.81657034 173 133 117
-0.20567614 0.28696263 -0.81591481 169 133 118
-0.2054859 0.28577033 -0.81562442 164 133 118
-0.20559746 0.28340605 -0.81572384 164 132 117
-0.20540872 0.28481516 -0.8155039 162 133 117
-0.20353946 0.28421912 -0.8134858 138 135 115
-0.20462127 0.28377971 -0.81458199 152 133 117
-0.20475948 0.28347874 -0.81471717 154 132 117
-0.20363666 0.28348309 -0.81357038 139 135 115
-0.20485473 0.28709751 -0.8148756 159 133 118
-0.20299883 0.28552493 -0.81289721 144 133 116
-0.20419954 0.28644043 -0.81417793 153 133 117
-0.20372742 0.28478679 -0.81368393 142 135 116
-0.20640194 0.28074339 -0.81664401 147 140 114
-0.20560549 0.28282198 -0.81570971 161 133 117
-0.20639306 0.28310513 -0.8167603 172 133 117
-0.20571044 0.28046575 -0.81562054 150 139 115
-0.20634413 0.27980745 -0.81650823 137 142 113
-0.20581019 0.28078985 -0.81582242 147 139 114
-0.20561793 0.28030533 -0.81545359 152 138 115
-0.20487931 0.28088099 -0.81449509 162 135 117
-0.20501256 0.28203157 -0.81479937 160 133 117
-0.20440918 0.28006986 -0.81389385 160 136 117
-0.20448317 0.28309685 -0.81441373 151 133 117
-0.20361151 0.28029302 -0.81310838 153 136 116
-0.20386253 0.28110823 -0.81348544 153 135 117
-0.20406382 0.28305012 -0.81397849 145 134 116
-0.20558189 0.27892947 -0.81520081 157 138 117
-0.20582648 0.2791656 -0.81561267 150 141 115
-0.20648928 0.27672893 -0.81630832 154 131 118
-0.20585471 0.27761129 -0.8154462 160 133 118
-0.20614144 0.27622092 -0.81574243 148 130 118
-0.20580143 0.27714345 -0.81533015 153 132 118
-0.20441915 0.27724844 -0.81370318 141 136 117
-0.20467146 0.27800912 -0.81399447 150 136 117
-0.20401222 0.27750322 -0.81330347 143 135 117
-0.20422848 0.27756217 -0.81352812 144 136 117
-0.20357847 0.27894881 -0.81291389 154 136 117
-0.20662928 0.27287981 -0.81634021 153 131 117
-0.20630001 0.27497035 -0.8158952 141 130 117
-0.20652422 0.2724109 -0.81618232 150 133 116
-0.20560472 0.27174923 -0.81461626 150 132 118
-0.2064568 0.2708101 -0.81582427 159 131 118
-0.20600487 0.27144486 -0.81523162 155 132 117
-0.20637783 0.27049369 -0.81562394 158 131 118
-0.20693213 0.2696619 -0.81633878 162 132 119
-0.20514764 0.26850608 -0.81391418 171 132 120
-0.20717551 0.2679525 -0.81638795 164 131 120
-0.20541269 0.26980466 -0.81419152 160 132 120
-0.20514341 0.2707082 -0.81383526 154 132 119
-0.20530057 0.26834852 -0.81410462 171 133 120
-0.20495263 0.26932597 -0.8137061 165 132 120
-0.20457558 0.26834244 -0.8134495 174 132 120
-0.20479694 0.27083293 -0.81352252 154 132 119
-0.20630255 0.26752651 -0.81533676 172 132 120
-0.20613356 0.26742584 -0.81511885 173 132 120
-0.20752414 0.26536545 -0.81652975 166 132 119
-0.2076543 0.26495549 -0.81663311 165 131 120
-0.20669511 0.26592544 -0.81560016 171 132 120
-0.20534591 0.26679364 -0.81407291 176 133 120
-0.20559074 0.26685575 -0.81438577 176 133 120
-0.2064402 0.26506889 -0.8151648 170 133 120
-0.20585203 0.2661078 -0.8145951 174 132 120
-0.20702146 0.26456562 -0.815808 168 132 119
-0.20599833 0.26544118 -0.81467426 172 133 120
-0.20505796 0.26613435 -0.81362635 176 133 120
-0.20417067 0.26654303 -0.81301844 179 133 120
-0.20415473 0.26598027 -0.81292701 178 133 120
-0.20593843 0.2628648 -0.81424743 166 135 119
-0.20652179 0.26296994 -0.81498092 166 134 119
-0.20535418 0.26222503 -0.81345868 166 136 118
-0.20586997 0.26168236 -0.81404287 163 136 118
-0.20661622 0.26272109 -0.81507283 164 134 118
-0.20752917 0.26310599 -0.8162424 163 132 119
-0.20787907 0.26264259 -0.81658685 162 131 120
-0.21478434 0.28799459 -0.82936585 150 133 116
-0.21479261 0.2893374 -0.82931495 155 136 113
-0.21450466 0.28922173 -0.82888019 152 135 115
-0.21454453 0.28749123 -0.82902306 146 132 117
-0.21504228 0.28757098 -0.82978028 150 133 115
-0.21610028 0.28795245 -0.83137959 158 136 111
-0.21550383 0.28839928 -0.83044666 156 136 113
-0.21610069 0.28476468 -0.83128428 161 133 114
-0.21649893 0.28546906 -0.83207577 160 133 113
-0.21572915 0.28460371 -0.83047682 162 132 114
-0.21555506 0.28356951 -0.83023173 163 130 116
-0.21593487 0.28477299 -0.83091277 162 132 115
-0.21528691 0.28384608 -0.82959443 163 131 116
-0.21619722 0.28609806 -0.83134496 160 135 112
-0.21493854 0.28666642 -0.82954603 149 132 117
-0.21600023 0.2856423 -0.83094341 161 134 112
-0.21464232 0.28621805 -0.82899433 150 131 118
-0.21541914 0.28676596 -0.83030266 152 133 115
-0.21522661 0.28614092 -0.82987064 153 133 115
-0.21627349 0.28689501 -0.83163726 157 135 112
-0.21617787 0.27994025 -0.83121192 176 132 117
-0.21652512 0.28262049 -0.83235288 164 129 117
-0.2161577 0.27980506 -0.83114892 177 132 117
-0.21651974 0.28019962 -0.83195162 178 131 118
-0.21567605 0.28109014 -0.83037293 164 133 116
-0.21510641 0.27968478 -0.82898355 167 136 114
-0.2149152 0.28211176 -0.82876384 165 132 116
-0.21556669 0.28120273 -0.83014399 164 133 116
-0.21529201 0.28312176 -0.82968849 164 130 117
-0.21573377 0.28232747 -0.83060968 163 131 116
-0.21533088 0.28286889 -0.82975453 163 131 116
-0.21502566 0.28039664 -0.82886934 166 135 115
-0.21694613 0.27604812 -0.83180374 178 133 117
-0.217255 0.27552304 -0.83221543 175 133 118
-0.21677572 0.27923957 -0.83231866 187 130 119
-0.21635455 0.27775872 -0.83119512 181 131 118
-0.21625035 0.27785376 -0.83103514 180 131 117
-0.21678637 0.27564979 -0.83141941 178 133 117
-0.2153156 0.27617541 -0.82890093 169 132 116
-0.21515101 0.27814606 -0.82884717 169 135 115
-0.2151356 0.27921718 -0.82896906 170 136 115
-0.21598481 0.27848479 -0.83059722 178 132 117
-0.21521954 0.27909249 -0.82912248 170 136 115
-0.21578845 0.27795249 -0.83012033 176 133 116
-0.21727265 0.27442786 -0.83206552 177 133 117
-0.21746448 0.27432716 -0.83238924 175 133 117
-0.21745744 0.27177125 -0.83192939 175 132 115
-0.21696854 0.27397624 -0.83141273 176 132 117
-0.21724205 0.27309656 -0.83177936 176 132 116
-0.21651664 0.27280468 -0.83021098 165 132 116
-0.21630208 0.27244368 -0.82967752 161 132 116
-0.21651305 0.27233446 -0.8301003 163 132 116
-0.21575896 0.27528504 -0.82950413 170 132 116
-0.21589956 0.27354696 -0.82922488 163 132 116
-0.21587609 0.27225617 -0.82879138 156 131 116
-0.21586797 0.27535397 -0.82971781 172 132 116
-0.21622428 0.27405572 -0.82995367 168 132 117
-0.2172955 0.27015406 -0.83129048 160 131 116
-0.21773745 0.27065089 -0.83228612 172 131 115
-0.21781036 0.26987663 -0.83229297 167 131 116
-0.21704905 0.2707071 -0.83088946 161 132 115
-0.21732806 0.26883817 -0.83128089 160 129 117
-0.21738729 0.26883325 -0.83137292 159 129 117
-0.21736358 0.26881909 -0.83133578 160 129 117
-0.21676965 0.26950461 -0.83042639 165 128 116
-0.21648124 0.26895303 -0.82995474 169 127 118
-0.21657833 0.26935038 -0.83011836 167 127 117
-0.21644136 0.27127212 -0.82979131 160 132 115
-0.21597016 0.26922441 -0.82907766 170 127 119
-0.2157698 0.26981446 -0.8285715 163 128 118
-0.21764439 0.26520595 -0.83194178 162 126 118
-0.21767147 0.26479316 -0.83201826 163 126 118
-0.21780254 0.26477927 -0.83222336 161 127 118
-0.21772584 0.26370773 -0.83217543 162 126 118
-0.21705051 0.26660079 -0.83089972 166 124 119
-0.21716551 0.2643899 -0.83119798 165 124 119
-0.2162171 0.26409367 -0.82935613 172 124 121
-0.21659429 0.26498583 -0.83011675 168 124 120
-0.21633723 0.26402146 -0.82961512 170 124 120
-0.21579853 0.26490101 -0.82860112 176 124 121
-0.21641743 0.26745057 -0.82981062 171 123 120
-0.21584621 0.26417342 -0.82861298 176 125 121
-0.21770248 0.26260746 -0.83173722 156 128 117
-0.21766651 0.26200873 -0.83145124 151 130 116
-0.21792071 0.26173952 -0.83177882 149 131 116
-0.21668196 0.26342946 -0.83029479 164 124 120
-0.21649037 0.26364923 -0.82995087 168 124 121
-0.21645606 0.26212573 -0.82943541 149 128 118
-0.20943418 0.29581958 -0.82101941 151 138 115
-0.20930155 0.29529652 -0.82087666 155 138 115
-0.21017203 0.29247141 -0.82222199 160 139 114
-0.21129982 0.29212931 -0.82388312 141 139 111
-0.21120031 0.29147044 -0.82370752 143 137 112
-0.21083719 0.29180139 -0.82318193 149 138 112
-0.21013992 0.29240313 -0.82217145 161 139 114
-0.21062773 0.2942749 -0.82294464 145 142 112
-0.20939539 0.29414171 -0.82105535 160 138 115
-0.20966196 0.29344094 -0.82145482 161 139 115
-0.20925194 0.29450771 -0.82084018 160 138 116
-0.21039635 0.29438996 -0.82259166 147 142 113
-0.209572 0.29178953 -0.82129633 171 137 116
-0.21003979 0.28737956 -0.82216209 170 134 118
-0.2093107 0.29028311 -0.82092744 179 135 117
-0.20946464 0.2887097 -0.82126886 179 134 118
-0.21010806 0.28809458 -0.8221969 166 134 118
-0.20999692 0.28931752 -0.82194316 166 134 117
-0.20917445 0.28982738 -0.82077998 183 135 117
-0.21028602 0.28923219 -0.82234418 159 135 117
-0.21153636 0.28950623 -0.82418871 138 135 114
-0.21086046 0.28897908 -0.82318491 149 134 117
-0.20948318 0.29062125 -0.82113743 174 135 117
-0.21015762 0.29070815 -0.82213944 162 135 115
-0.21148524 0.28812727 -0.82411385 137 134 117
-0.20997639 0.29099035 -0.82186991 166 136 115
-0.20917721 0.28484005 -0.8207047 189 132 120
-0.21024971 0.28529826 -0.82222861 166 132 120
-0.21017984 0.28490409 -0.82208151 168 131 120
-0.21104267 0.28645474 -0.82346362 148 133 119
-0.21017843 0.28658339 -0.82229906 167 133 119
-0.21070714 0.2859675 -0.8229413 156 133 119
-0.21107467 0.28664351 -0.82353204 148 133 119
-0.21058448 0.28564766 -0.82273179 158 132 119
-0.21091393 0.28394988 -0.8231951 162 132 118
-0.21063638 0.28320378 -0.82276005 171 132 119
-0.21118777 0.28320488 -0.82363093 164 133 117
-0.21157111 0.28620771 -0.82422304 140 133 118
-0.2105457 0.28369263 -0.82261467 169 132 119
-0.21125977 0.28407893 -0.82374078 158 133 118
-0.21053974 0.27950013 -0.82193953 171 136 114
-0.21184754 0.28081501 -0.82436413 160 135 113
-0.21144615 0.28059012 -0.82364351 164 135 114
-0.21105993 0.28093505 -0.82302409 165 135 115
-0.21124986 0.27972203 -0.82319123 166 135 114
-0.21182589 0.28062195 -0.82430142 161 135 114
-0.210008 0.28119639 -0.8213594 176 134 117
-0.21062598 0.28206635 -0.82251245 170 134 117
-0.21090584 0.28219166 -0.82297999 167 134 117
-0.20967101 0.28289992 -0.82117367 182 130 121
-0.21114586 0.28286928 -0.82349688 165 134 117
-0.20992923 0.28245938 -0.8214919 178 132 119
-0.21135519 0.27715003 -0.82302934 171 134 115
-0.21197166 0.27554187 -0.82365108 175 131 117
-0.21165833 0.27697399 -0.82345819 171 133 116
-0.21171094 0.27577263 -0.8232981 175 131 118
-0.21220066 0.27783316 -0.82446069 166 133 114
-0.21200098 0.27786034 -0.8241604 167 133 114
-0.21104859 0.27824932 -0.82268298 171 134 114
-0.21066599 0.27685454 -0.82188356 176 134 116
-0.21027084 0.27892214 -0.82141203 174 136 114
-0.21016839 0.27570215 -0.82091069 180 134 117
-0.21102965 0.27926114 -0.82275248 169 135 114
-0.2110955 0.27824274 -0.82276309 170 135 114
-0.21235304 0.27174556 -0.82410735 175 127 119
-0.21103512 0.27151167 -0.82215828 176 131 118
-0.21233219 0.27212727 -0.82408839 175 128 119
-0.21250007 0.27360493 -0.82438147 174 128 119
-0.21193533 0.27423945 -0.823569 175 131 118
-0.21195835 0.27157596 -0.82352054 175 128 119
-0.21239412 0.27171326 -0.82416689 175 127 119
-0.21088445 0.27312621 -0.82197213 177 133 118
-0.21112603 0.27464956 -0.82233137 177 132 118
-0.21074001 0.2733109 -0.82174969 177 133 118
-0.21177192 0.27417248 -0.82332367 175 131 118
-0.21045645 0.2748169 -0.82130492 180 133 118
-0.21028669 0.27384511 -0.82105184 179 133 118
-0.21279153 0.26813173 -0.82431942 170 135 113
-0.21191932 0.2680929 -0.82296652 171 134 114
-0.21238545 0.27078775 -0.82403457 174 128 119
-0.21223846 0.26881987 -0.82355422 172 133 115
-0.21220799 0.26949129 -0.82359344 172 131 116
-0.21109986 0.2704055 -0.82206976 174 132 117
-0.21163967 0.27109817 -0.82298267 175 130 118
-0.21062356 0.26820669 -0.82099473 172 136 116
-0.21090943 0.27143776 -0.82196438 176 132 118
-0.2106265 0.2707355 -0.82142836 175 133 117
-0.21160759 0.27023929 -0.82278961 174 131 118
-0.21299689 0.26681715 -0.82444119 169 134 113
-0.21183687 0.26455238 -0.82253516 163 133 115
-0.21204229 0.26439542 -0.82280356 163 132 115
-0.21149331 0.26480162 -0.82208449 164 133 115
-0.21239936 0.26492354 -0.82337224 164 132 115
-0.21164359 0.26475042 -0.82228899 164 133 115
-0.21120219 0.26415297 -0.82159305 163 132 116
-0.21076871 0.26539287 -0.82102281 165 135 116
-0.21059866 0.26656574 -0.82081294 169 135 116
-0.21081677 0.26560199 -0.82110649 166 135 116
-0.21140456 0.26538157 -0.82200491 165 134 115
-0.21055844 0.26657504 -0.82075119 169 135 116
-0.2107088 0.26748663 -0.82102466 170 137 115
-0.21400698 0.26073378 -0.82456517 164 134 116
-0.21336041 0.2611199 -0.82381272 161 134 116
-0.21359742 0.26043585 -0.82393736 161 135 116
-0.21331985 0.26225072 -0.82407689 162 132 116
-0.21134058 0.26327738 -0.8216269 160 132 116
-0.2142366 0.25896445 -0.82444185 153 137 116
-0.21763764 0.28722316 -0.83402699 157 136 111
-0.21738067 0.28674409 -0.83356136 157 135 112
-0.21841276 0.28465042 -0.83532703 157 133 115
-0.21817337 0.28706816 -0.83498538 158 136 112
-0.21835519 0.28689975 -0.83530349 158 136 112
-0.21845216 0.28439131 -0.83538812 158 132 116
-0.21864699 0.28454056 -0.83574057 157 133 116
-0.21719594 0.28488055 -0.83334404 156 132 114
-0.21749267 0.2843481 -0.83385497 156 131 115
-0.21811385 0.28364149 -0.83489126 157 130 117
-0.21793289 0.28365165 -0.83460528 156 131 117
-0.21795768 0.28351855 -0.83465523 156 130 117
-0.21669227 0.28333688 -0.83268255 157 129 117
-0.2172758 0.28027096 -0.8332482 180 130 119
-0.21770027 0.28263432 -0.83420587 161 130 118
-0.21715115 0.28222945 -0.83329111 163 129 118
-0.21710846 0.27998552 -0.83294964 182 130 119
-0.21742287 0.28262997 -0.83376819 160 129 118
-0.21777512 0.28287244 -0.83435285 159 130 118
-0.21844977 0.28197879 -0.83530986 166 131 119
-0.21893157 0.27985579 -0.83585036 167 135 116
-0.21844603 0.27960971 -0.83504671 172 135 116
-0.21732973 0.2796247 -0.83326203 181 131 118
-0.21922421 0.27933675 -0.83626229 166 137 115
-0.21886094 0.2814576 -0.83591121 163 133 117
-0.21870962 0.28047675 -0.83556259 168 134 117
-0.21859381 0.27737638 -0.83479404 166 136 116
-0.21842086 0.27651647 -0.83430761 164 134 117
-0.21955022 0.27699497 -0.83618408 148 134 115
-0.21893817 0.27651131 -0.83511037 155 134 116
-0.21936993 0.2759555 -0.83564079 146 133 116
-0.21919674 0.27610707 -0.83540994 149 134 116
-0.21817531 0.27622172 -0.83385134 166 134 117
-0.21712959 0.27795717 -0.83259666 182 131 118
-0.21712938 0.27880925 -0.83279318 183 131 119
-0.21883769 0.27884802 -0.83553571 168 136 116
-0.2179485 0.27799454 -0.83391565 174 134 117
-0.21795112 0.27916169 -0.83418953 177 133 117
-0.21737893 0.27840108 -0.83309817 180 132 118
-0.21971144 0.272239 -0.83623075 159 127 118
-0.21979813 0.27387568 -0.83625525 146 130 117
-0.21811417 0.27190611 -0.83313763 173 132 115
-0.21981023 0.27385435 -0.83628082 146 130 117
-0.2192333 0.27347514 -0.83518654 153 131 116
-0.21956789 0.27384627 -0.8358078 148 130 116
-0.21790278 0.27432874 -0.83307463 168 133 116
-0.21761887 0.27364501 -0.83254141 175 133 116
-0.21776417 0.27155066 -0.83248562 178 132 115
-0.21925911 0.27483073 -0.83525032 145 132 116
-0.21754703 0.27487594 -0.83259529 173 133 117
-0.21838993 0.27496955 -0.83391798 159 133 117
-0.21855392 0.2681326 -0.83351183 155 129 118
-0.2189513 0.26848224 -0.83441871 156 129 116
-0.21928407 0.27032837 -0.8352713 162 126 118
-0.21919951 0.27002713 -0.83506471 161 126 118
-0.21964502 0.26923284 -0.8360104 159 129 116
-0.21916889 0.27084246 -0.83512425 165 127 118
-0.21844767 0.27120259 -0.83377755 172 130 116
-0.21844316 0.26937845 -0.83344823 162 129 118
-0.21899988 0.27139902 -0.83489156 169 128 117
-0.21841048 0.27137983 -0.833736 173 130 116
-0.21886286 0.27047774 -0.83446193 165 127 118
-0.21866809 0.26465088 -0.83389854 161 129 115
-0.22000325 0.26478571 -0.83609706 164 134 111
-0.2198586 0.2636888 -0.83566129 167 134 111
-0.21902931 0.26483804 -0.83452082 161 130 114
-0.21888773 0.26370892 -0.83408421 165 131 114
-0.21893099 0.2643393 -0.8342697 163 130 115
-0.21934277 0.26747936 -0.83524907 154 131 114
-0.21841045 0.26497564 -0.83346915 159 128 117
-0.21877809 0.26701358 -0.83404577 156 130 116
-0.21838719 0.26706234 -0.83316839 155 129 117
-0.21830864 0.26510721 -0.8332265 159 128 117
-0.2191982 0.26748273 -0.83492637 154 131 115
-0.21989544 0.25986108 -0.83470631 152 132 114
-0.21956606 0.26097742 -0.83431935 150 135 112
-0.22000167 0.26138806 -0.83526868 158 133 112
-0.22041228 0.26240486 -0.83631068 168 133 111
-0.21973857 0.2622374 -0.83495176 156 136 110
-0.22019318 0.26108137 -0.83557218 160 132 113
-0.22015823 0.26353949 -0.83609796 167 135 109
-0.218363 0.26182684 -0.83255315 149 132 115
-0.21899381 0.26251528 -0.83383018 156 133 113
-0.2190291 0.26335934 -0.83419406 163 131 114
-0.21902016 0.26123866 -0.83340955 146 136 112
-0.21853331 0.26268584 -0.83314234 156 131 115
-0.22071806 0.25942284 -0.8363232 162 128 115
-0.22058389 0.25840583 -0.83610803 154 131 114
-0.21977533 0.25912553 -0.83448386 146 134 113
-0.22062489 0.25716937 -0.83625048 146 134 113
-0.20279874 0.29193342 -0.81228596 155 135 117
-0.20303349 0.29121852 -0.81261098 165 135 117
-0.20280583 0.28993139 -0.81242263 156 134 116
-0.2030481 0.28865793 -0.81282371 159 132 118
-0.20289798 0.28924724 -0.8125909 157 133 117
-0.20306742 0.2898064 -0.81275719 163 133 117
-0.20204741 0.28957188 -0.81150949 131 136 113
-0.20253551 0.28810695 -0.81223077 142 133 116
-0.20234118 0.28838563 -0.81196111 137 134 115
-0.20295714 0.28694445 -0.81282961 151 132 118
-0.2025193 0.28548792 -0.8122552 133 135 116
-0.2026055 0.28577587 -0.81236827 136 134 117
-0.20389313 0.27085224 -0.81264138 153 131 119
-0.20346063 0.2686469 -0.81242573 168 132 119
-0.2034127 0.27046889 -0.81219447 151 131 119
-0.20328386 0.26859799 -0.8122521 166 133 119
-0.20247121 0.26889378 -0.81136459 151 133 118
-0.20281504 0.26857769 -0.81175423 158 133 119
-0.20418979 0.26504841 -0.81279397 176 134 120
-0.20326391 0.26709953 -0.81219375 169 133 119
-0.20296879 0.26602262 -0.81165612 157 134 118
-0.2030613 0.26624486 -0.81180155 160 134 119
-0.20393959 0.26682806 -0.81287694 180 133 120
-0.20372608 0.26453117 -0.81219715 164 135 119
-0.2041771 0.26391336 -0.81258142 169 135 120
-0.20452701 0.2621685 -0.81268716 165 136 118
-0.20369886 0.26332521 -0.81209815 157 135 119
-0.20453909 0.26230383 -0.81271601 166 137 118
-0.21393648 0.28755742 -0.8281402 138 132 118
-0.21325119 0.28899765 -0.82715923 129 136 115
-0.21320516 0.28742546 -0.82713771 122 133 118
-0.21260035 0.28800151 -0.82612002 122 135 116
-0.21269001 0.28961045 -0.82625312 127 137 113
-0.21255794 0.2872583 -0.8260566 119 134 118
-0.21193656 0.28912321 -0.82482857 131 135 114
-0.21332446 0.28660759 -0.82721084 125 133 118
-0.21427839 0.28465012 -0.82813495 151 131 118
-0.21351847 0.28654736 -0.82746577 129 133 118
-0.21317066 0.28426322 -0.82661408 143 132 117
-0.2135524 0.28448233 -0.82714689 144 132 117
-0.21326798 0.28554529 -0.82694989 132 133 117
-0.21377949 0.28374994 -0.82732314 153 131 117
-0.21196125 0.28326857 -0.82482862 155 134 116
-0.2118516 0.28323379 -0.82467437 156 134 116
-0.21275429 0.28627247 -0.82639241 122 134 118
-0.2118661 0.28508714 -0.82471454 143 134 117
-0.21228705 0.2868894 -0.82553035 125 134 118
-0.21270889 0.28683692 -0.8263582 118 134 118
-0.21370241 0.28315231 -0.82713115 157 131 117
-0.21419173 0.28091654 -0.82766104 161 135 115
-0.21388258 0.28289524 -0.82735348 159 132 116
-0.21482077 0.28017306 -0.82844448 166 136 114
-0.21327348 0.28099272 -0.82641757 155 134 114
-0.21298498 0.282673 -0.82616174 152 132 115
-0.21328276 0.28050581 -0.82638991 155 135 113
-0.21320209 0.27991742 -0.82623059 156 135 112
-0.21444611 0.28003299 -0.82794434 164 136 115
-0.21274735 0.28136027 -0.82571477 154 133 114
-0.21270052 0.28209636 -0.82570761 154 132 115
-0.21248996 0.28177208 -0.82538557 155 133 114
-0.21214916 0.28268591 -0.82501876 156 134 116
-0.21377651 0.27866992 -0.82690573 159 135 112
-0.2148941 0.27683347 -0.82826024 166 133 115
-0.21338649 0.27869731 -0.82637411 157 135 112
-0.21456945 0.27693269 -0.82782501 164 133 114
-0.21358213 0.27896988 -0.82666832 158 136 112
-0.21440676 0.276057 -0.82746643 165 132 115
-0.2135269 0.27662295 -0.82624191 165 132 115
-0.21389599 0.27689302 -0.82684427 163 133 114
-0.2131808 0.27794835 -0.82595307 159 134 112
-0.21306084 0.27795437 -0.82577366 159 134 113
-0.21234681 0.278045 -0.82472122 164 134 113
-0.21254753 0.27648735 -0.82471675 169 131 116
-0.21355739 0.27479488 -0.82591838 168 130 117
-0.21450031 0.27453557 -0.82726967 166 131 117
-0.21417074 0.27434251 -0.82672405 166 130 117
-0.21489117 0.27437168 -0.82781523 164 131 116
-0.21502683 0.27290258 -0.82763976 158 131 117
-0.21290001 0.27389094 -0.82500279 172 128 118
-0.21414863 0.27308396 -0.82649928 163 130 117
-0.21522255 0.27159062 -0.82774466 156 131 116
-0.21458289 0.27290955 -0.82702535 160 130 117
-0.21310638 0.2748999 -0.82530981 170 129 118
-0.21368518 0.27408162 -0.82598031 166 129 117
-0.21281174 0.27294984 -0.82483643 174 127 119
-0.212724 0.27312663 -0.82470906 174 127 119
-0.21421504 0.26944095 -0.82625872 161 134 114
-0.21403524 0.27005866 -0.82610941 164 132 115
-0.21298161 0.27129254 -0.82495528 173 126 119
-0.2152925 0.27092534 -0.82775998 155 132 116
-0.21504074 0.27107799 -0.82746762 157 131 116
-0.21499641 0.27045906 -0.82734066 157 132 115
-0.21512468 0.26779044 -0.82776928 175 126 119
-0.21563904 0.26859704 -0.82847798 172 125 120
-0.21474811 0.26917884 -0.82705116 163 131 116
-0.21554546 0.26890004 -0.82830375 169 127 119
-0.21556708 0.26912987 -0.82831383 167 127 118
-0.21324432 0.26783097 -0.82487732 167 135 112
-0.21376202 0.26834735 -0.82562041 166 134 114
-0.21550591 0.26563397 -0.82818961 177 124 121
-0.21408014 0.26383823 -0.82568288 170 127 118
-0.21504302 0.26579675 -0.82744354 175 125 120
-0.21408497 0.26477069 -0.82577556 170 126 118
-0.21543942 0.26434857 -0.82796347 175 125 120
-0.21376753 0.26424769 -0.82520622 169 127 118
-0.21438634 0.26615629 -0.82644266 173 127 118
-0.21510501 0.26715887 -0.82769728 176 125 120
-0.21490717 0.26699752 -0.82736915 176 125 119
-0.21414289 0.26639611 -0.82610482 171 129 116
-0.21442789 0.26638183 -0.82654035 173 127 118
-0.21387002 0.26576102 -0.82559013 170 129 116
-0.21519175 0.26157522 -0.82683265 165 131 118
-0.21507488 0.26176932 -0.82666498 170 130 119
-0.21484081 0.26124048 -0.82609689 168 131 119
-0.21451063 0.26027137 -0.825239 164 134 117
-0.21496522 0.26123852 -0.82632715 165 132 118
-0.214801 0.2631911 -0.8266899 171 127 119
-0.21381544 0.26315504 -0.8250578 168 128 118
-0.21485676 0.26186246 -0.82633203 170 130 119
-0.21376427 0.26210907 -0.82461971 165 131 117
-0.21542493 0.26313248 -0.82769561 173 127 120
-0.21492471 0.26304856 -0.82684505 172 127 119
-0.21462777 0.25912562 -0.8251484 150 137 115
-0.21449409 0.25893152 -0.82484573 151 137 116
-0.21763749 0.28719285 -0.84102613 136 137 117
-0.21740586 0.28607276 -0.8414495 147 134 118
-0.217567 0.28633136 -0.84130371 146 135 118
-0.21779953 0.28578368 -0.84134132 158 131 119
-0.2172775 0.28448734 -0.84193712 169 129 121
-0.21914501 0.28600699 -0.84053636 168 129 119
-0.21925463 0.2855418 -0.84051621 169 130 118
-0.21849391 0.28459138 -0.84116071 174 129 120
-0.21834321 0.28454596 -0.84127116 174 129 120
-0.21756302 0.284143 -0.84186304 176 128 121
-0.21770437 0.28216687 -0.84165829 173 130 118
-0.21825683 0.28228408 -0.84129858 173 131 117
-0.21760626 0.28039122 -0.84134978 162 133 116
-0.21724272 0.28085795 -0.84170198 165 131 117
-0.21719037 0.28226048 -0.84203607 174 129 120
-0.21891737 0.28030851 -0.84068543 166 132 116
-0.21964262 0.28008211 -0.84032351 168 131 116
-0.21835996 0.28002667 -0.84094656 163 132 116
-0.21973883 0.28183323 -0.84034216 172 132 115
-0.22030374 0.27749127 -0.84042567 138 132 115
-0.21986678 0.27720141 -0.84218109 160 131 117
-0.22015202 0.27574015 -0.84274107 145 133 116
-0.22009118 0.2776776 -0.84082085 149 131 116
-0.22026141 0.27641639 -0.84158599 139 133 116
-0.21937992 0.27854076 -0.84118927 163 131 117
-0.2196041 0.27897966 -0.84063476 165 130 116
-0.21902815 0.27679363 -0.84313291 158 132 117
-0.21971907 0.2775245 -0.84205484 162 131 117
-0.2191783 0.27630609 -0.84355432 158 132 117
-0.21889895 0.27830008 -0.84166777 161 131 117
-0.21811672 0.27746072 -0.84295911 153 133 116
-0.21756372 0.27713862 -0.84392208 124 138 114
-0.21741349 0.27795467 -0.84294319 142 135 115
-0.2169926 0.27864176 -0.84239632 146 135 115
-0.22074258 0.27524281 -0.84100395 116 134 114
-0.22118825 0.27164999 -0.84065455 152 135 112
-0.22113593 0.2719304 -0.84070814 149 135 112
-0.22128788 0.27166721 -0.84044141 152 135 112
-0.22042981 0.27226275 -0.84235573 158 134 112
-0.21934016 0.27180359 -0.84383368 155 137 112
-0.21968518 0.27314636 -0.84373564 157 134 114
-0.22032894 0.27277625 -0.8426643 158 134 113
-0.22066411 0.27383864 -0.84147602 134 134 113
-0.220155 0.27501351 -0.8431772 148 133 116
-0.22059186 0.27495641 -0.84156507 126 134 115
-0.22041577 0.2736612 -0.84242612 149 134 114
-0.22073202 0.26784369 -0.84192288 167 126 118
-0.22086772 0.27064151 -0.84142601 159 133 113
-0.22123599 0.2698206 -0.84059286 163 129 116
-0.22095372 0.26855373 -0.84133309 167 127 117
-0.22039185 0.26811916 -0.84263194 164 128 116
-0.22045243 0.26802045 -0.84250247 164 128 117
-0.22016181 0.26766908 -0.84402996 152 134 114
-0.22010843 0.27122658 -0.84261233 157 135 112
-0.21995735 0.27018756 -0.84291542 160 133 114
-0.21938919 0.27116555 -0.8436861 157 136 112
-0.22068426 0.26968241 -0.84187293 163 130 115
-0.22112149 0.26725656 -0.84093887 177 123 120
-0.22076741 0.26492015 -0.84347183 165 126 116
-0.22100668 0.26589182 -0.84213561 172 124 119
-0.22107098 0.26469404 -0.84040582 166 129 115
-0.22109984 0.26544869 -0.84082705 170 126 117
-0.22086802 0.26411894 -0.84310603 165 127 115
-0.22089443 0.26449692 -0.84311759 167 126 116
-0.2210079 0.26400009 -0.84062839 162 131 113
-0.22049735 0.26563075 -0.84403002 158 130 115
-0.22065647 0.26481593 -0.84391469 163 128 115
-0.22051133 0.26601675 -0.84373367 159 130 115
-0.22090039 0.26147193 -0.84089023 144 134 112
-0.22094217 0.2619594 -0.84087622 148 134 111
-0.22101046 0.26356706 -0.84032089 160 132 112
-0.22108522 0.26149127 -0.84223247 148 134 111
-0.22087528 0.26291439 -0.84380031 158 130 114
-0.22113821 0.26086116 -0.84307045 144 135 111
-0.22107297 0.26154289 -0.84294426 148 134 112
-0.22089091 0.26326206 -0.84291965 159 130 113
-0.22109957 0.26132393 -0.84289062 148 134 112
-0.22095309 0.26268128 -0.84291679 156 131 113
0 0 0 1 0 0 0 1 0 0 0 1 0 0 0 0 0 797 1 0 0
