ply
format ascii 1.0
comment PCL generated
element vertex 764
property float x
property float y
property float z
property uchar red
property uchar green
property uchar blue
element camera 1
property float view_px
property float view_py
property float view_pz
property float x_axisx
property float x_axisy
property float x_axisz
property float y_axisx
property float y_axisy
property float y_axisz
property float z_axisx
property float z_axisy
property float z_axisz
property float focal
property float scalex
property float scaley
property float centerx
property float centery
property int viewportx
property int viewporty
property float k1
property float k2
end_header
-0.21511561 0.1895725 -0.80675733 118 132 125
-0.21535094 0.18993607 -0.80707425 122 133 124
-0.21781401 0.18660226 -0.80888021 121 134 122
-0.21778709 0.18582356 -0.80856758 115 134 122
-0.21719204 0.18645723 -0.80795991 112 135 121
-0.21530841 0.18795185 -0.80643672 108 136 123
-0.21554117 0.18922308 -0.80709594 119 133 124
-0.2152918 0.18922274 -0.80683869 117 133 125
-0.2148672 0.1882427 -0.8060776 107 134 124
-0.2152828 0.18827669 -0.80651742 111 134 124
-0.21856834 0.18313646 -0.80876124 121 134 123
-0.21810953 0.18544869 -0.80888778 117 133 122
-0.218346 0.18331848 -0.80851096 119 134 123
-0.21867892 0.18263109 -0.80874801 123 133 124
-0.21849236 0.18213718 -0.80831987 119 134 123
-0.21792704 0.18229112 -0.8075754 110 136 121
-0.21688446 0.17910209 -0.80508012 110 134 122
-0.21747077 0.17777231 -0.80538476 120 132 124
-0.21958803 0.1779923 -0.80771846 129 137 120
-0.21855852 0.17822893 -0.80668145 123 135 122
-0.21778148 0.17826644 -0.80585867 118 134 123
-0.21846533 0.17873557 -0.80672574 119 136 121
-0.21800742 0.17864327 -0.80620825 117 135 122
-0.21891023 0.18155846 -0.8086893 124 133 124
-0.21872984 0.18160808 -0.80846596 121 134 123
-0.21875294 0.1803426 -0.80771279 116 137 120
-0.22045265 0.17826323 -0.80881685 135 138 119
-0.21947704 0.17959666 -0.80827004 125 137 121
-0.21907037 0.18007867 -0.80799627 120 137 120
-0.22076754 0.1747577 -0.80770808 137 133 121
-0.21925123 0.17427556 -0.80580693 117 136 122
-0.22049594 0.17635559 -0.80804366 134 137 120
-0.2207 0.17577882 -0.80803227 137 135 121
-0.21934682 0.17773069 -0.80738479 130 136 121
-0.21819623 0.17748418 -0.80604464 123 133 124
-0.21861024 0.17556848 -0.80566543 117 135 122
-0.21772434 0.17743891 -0.80551904 121 132 124
-0.2189339 0.17757243 -0.80687386 127 135 122
-0.21973579 0.17731716 -0.80762434 130 137 121
-0.21790875 0.17626885 -0.80521393 116 134 124
-0.21980672 0.17719749 -0.80764896 130 137 121
-0.22202086 0.17214273 -0.80820799 124 133 121
-0.22263341 0.17185725 -0.80893511 117 133 121
-0.22140317 0.17037702 -0.80639511 86 138 118
-0.22076224 0.17002463 -0.80530208 68 141 117
-0.22132963 0.17195316 -0.80712563 114 134 120
-0.22179887 0.17065144 -0.8071 97 137 119
-0.2219387 0.17180175 -0.80790681 121 133 121
-0.22251573 0.17045353 -0.80800915 105 136 119
-0.22109251 0.17129497 -0.80644178 98 137 119
-0.22067723 0.17216487 -0.80632383 108 135 120
-0.22065422 0.17309758 -0.80679172 125 133 122
-0.22042903 0.17279474 -0.80638194 116 134 121
-0.22059453 0.17246376 -0.8063904 112 135 120
-0.22048755 0.17303994 -0.80657649 121 134 121
-0.22033848 0.17188919 -0.80580276 98 137 120
-0.22210838 0.16771458 -0.80602974 79 137 118
-0.22148731 0.16729282 -0.80516845 84 140 118
-0.22280738 0.1674864 -0.80675834 79 134 119
-0.22258539 0.16762339 -0.80654907 79 136 119
-0.22216702 0.16841258 -0.80633658 74 136 118
-0.22120073 0.16901273 -0.80542696 71 140 117
-0.22392692 0.16687216 -0.80788535 85 132 120
-0.22275807 0.16903251 -0.80753434 89 136 118
-0.22279061 0.16889723 -0.80749881 88 136 119
-0.22116806 0.1697554 -0.80572128 70 141 117
-0.22274798 0.16929294 -0.80767703 92 136 118
-0.22196463 0.16891687 -0.80634248 74 138 118
-0.22451372 0.1662821 -0.80835962 88 129 121
-0.22533476 0.16389316 -0.80887264 106 130 120
-0.22518714 0.16238222 -0.80799735 103 132 118
-0.22506465 0.163754 -0.80830997 101 131 120
-0.22571766 0.16213025 -0.80892408 120 131 119
-0.22503716 0.16302162 -0.80796313 99 132 119
-0.22424544 0.1633103 -0.80685157 84 135 118
-0.22375479 0.1628962 -0.80614859 80 139 115
-0.22445731 0.163434 -0.80713302 85 134 118
-0.22431292 0.16562374 -0.80784428 86 131 120
-0.22352129 0.16409603 -0.80635428 81 138 117
-0.22370338 0.16590092 -0.80724531 88 133 120
-0.22312279 0.1654105 -0.80639023 88 136 118
-0.22296487 0.16248782 -0.80510533 76 145 114
-0.22224917 0.16533846 -0.80535471 89 140 117
-0.22543107 0.16174592 -0.8081705 112 132 119
-0.22478312 0.16144559 -0.80675834 93 134 117
-0.22487976 0.16056995 -0.80648762 98 134 117
-0.22477084 0.15976937 -0.80585808 97 134 117
-0.22594173 0.16146666 -0.80894881 123 131 120
-0.22587702 0.15840271 -0.80709219 118 132 119
-0.2256532 0.15940057 -0.80726826 116 132 119
-0.22581136 0.15979411 -0.80776894 119 132 119
-0.22625549 0.15867317 -0.80790842 124 132 119
-0.22639364 0.15879473 -0.80821925 127 131 120
-0.22400811 0.16061771 -0.80530435 86 139 115
-0.2242606 0.15999606 -0.80524474 89 137 116
-0.22355686 0.16147026 -0.80527115 80 142 114
-0.22640295 0.15622273 -0.80725837 138 130 120
-0.22575158 0.15442303 -0.80551702 139 130 118
-0.2267987 0.15606409 -0.80799747 139 132 119
-0.22699635 0.15779449 -0.80882746 136 131 121
-0.2269118 0.15717962 -0.80850434 137 131 120
-0.22640041 0.15613231 -0.80723029 138 131 119
-0.22624946 0.15661836 -0.80709499 134 131 119
-0.22499396 0.15796205 -0.80535179 106 134 117
-0.22503927 0.15752292 -0.80528271 110 134 117
-0.22596374 0.15736869 -0.80684847 125 132 119
-0.22511588 0.15748504 -0.80540407 111 133 117
-0.22536571 0.15659691 -0.80554122 121 132 118
-0.22567984 0.15428649 -0.80533874 139 130 118
-0.22872339 0.17537022 -0.82060069 85 135 117
-0.2279695 0.1745954 -0.81903458 91 132 119
-0.22822124 0.17521627 -0.8197192 85 134 118
-0.2281681 0.17496546 -0.81950784 87 133 119
-0.22751132 0.17583321 -0.8191089 96 132 119
-0.22773185 0.1755677 -0.81925744 93 132 119
-0.22768071 0.17599538 -0.81942701 93 133 119
-0.22940518 0.17277564 -0.82063305 113 132 118
-0.22977947 0.17092176 -0.82061255 131 132 118
-0.22987397 0.1703552 -0.82056803 136 132 119
-0.22887835 0.17261291 -0.8195231 99 133 119
-0.22933561 0.1700916 -0.81925309 114 133 118
-0.22928983 0.16997413 -0.81909305 112 134 117
-0.22958735 0.17006792 -0.81979471 124 133 118
-0.2297733 0.17056166 -0.82045335 133 132 119
-0.22818808 0.17005694 -0.8170284 79 137 116
-0.22788323 0.173134 -0.81814849 93 132 119
-0.22805473 0.17028829 -0.81697589 80 137 116
-0.22750664 0.17184648 -0.81700754 95 132 119
-0.22853658 0.16965871 -0.81723106 77 136 116
-0.22950536 0.16850649 -0.81856894 115 135 116
-0.22893576 0.1695542 -0.8180356 95 136 116
-0.22920375 0.16784379 -0.81745076 99 138 115
-0.22957036 0.167512 -0.81802928 113 136 115
-0.22917908 0.16815159 -0.81760788 99 136 115
-0.22995953 0.16818768 -0.81942034 126 134 117
-0.23031533 0.16603443 -0.81899887 109 137 115
-0.23004401 0.16829661 -0.81970936 128 134 118
-0.23058906 0.16663443 -0.82009053 116 135 117
-0.22964057 0.16684198 -0.81774265 112 137 115
-0.22978525 0.16776311 -0.81869859 121 136 116
-0.23093943 0.16295336 -0.81965214 118 133 120
-0.23069185 0.1646035 -0.81951535 123 133 119
-0.23064309 0.16271019 -0.81878978 126 132 121
-0.23016188 0.16265389 -0.81749594 141 131 123
-0.23129076 0.16256994 -0.82046306 107 134 119
-0.23108998 0.16450642 -0.82054043 111 134 118
-0.22963236 0.1654546 -0.81702054 110 138 115
-0.23071472 0.16592295 -0.82000059 112 136 117
-0.22999665 0.16413645 -0.81754386 126 133 119
-0.22972704 0.16486484 -0.81707621 117 136 117
-0.22976862 0.16428749 -0.81699717 123 135 118
-0.23175944 0.15820672 -0.81905532 137 136 119
-0.23145284 0.1589371 -0.81882888 122 136 119
-0.23151127 0.16064835 -0.81998348 114 135 119
-0.23112831 0.15954408 -0.81850445 109 136 118
-0.23166676 0.16125678 -0.82068044 115 135 119
-0.23028317 0.16193952 -0.81756061 137 130 123
-0.23131454 0.16164386 -0.82014662 105 134 119
-0.23014048 0.16121322 -0.81681633 137 131 122
-0.23099342 0.16157246 -0.81925917 114 133 120
-0.23008558 0.16206667 -0.81710076 143 130 124
-0.2310067 0.16113296 -0.81907296 111 134 119
-0.23140503 0.18138489 -0.8380385 99 129 121
-0.23098381 0.18118495 -0.83874166 93 129 121
-0.2299283 0.18091705 -0.83890212 62 129 121
-0.23038061 0.18107037 -0.83856869 73 129 121
-0.23078915 0.18098247 -0.83982319 97 129 120
-0.23164622 0.18157822 -0.83715326 98 129 121
-0.22942103 0.17899458 -0.83752745 42 132 119
-0.22890152 0.17850386 -0.83799708 32 132 119
-0.2293158 0.18045895 -0.83893138 45 129 120
-0.22873434 0.17951867 -0.83912975 31 131 119
-0.22876425 0.1784143 -0.83815473 28 132 119
-0.23128736 0.18157186 -0.83652204 82 129 121
-0.23109189 0.17822839 -0.83696955 44 138 114
-0.23162919 0.18085968 -0.83637333 77 132 119
-0.2311015 0.17800145 -0.83700007 42 139 114
-0.23140673 0.18089812 -0.83645064 76 131 119
-0.23119684 0.18082179 -0.83654052 74 131 120
-0.23012589 0.1798199 -0.83709115 56 131 120
-0.23257773 0.17641091 -0.83681566 51 143 110
-0.23270643 0.17689064 -0.83637178 58 142 111
-0.23275441 0.17564833 -0.83690631 58 141 112
-0.23252149 0.17687096 -0.83667976 50 143 111
-0.23342048 0.17379996 -0.83672792 85 136 115
-0.23291858 0.17382005 -0.83753794 63 139 113
-0.23264955 0.17107822 -0.83788401 65 131 123
-0.23315029 0.1713863 -0.83717078 83 131 122
-0.23323743 0.17190972 -0.83702111 85 132 120
-0.23361948 0.17029183 -0.83664393 104 131 122
-0.23247916 0.1685143 -0.83883804 69 131 123
-0.23286144 0.1680987 -0.83855116 86 133 121
-0.23286697 0.16934617 -0.83792579 80 130 124
-0.23243764 0.16812478 -0.83908457 70 133 123
-0.23407474 0.16676769 -0.83643174 99 129 122
-0.23382962 0.16881426 -0.83662987 108 131 122
-0.23414706 0.16620265 -0.83636695 97 129 122
-0.23268637 0.16658574 -0.83948159 87 136 119
-0.23326211 0.16618244 -0.83829528 89 133 121
-0.23357049 0.1666519 -0.8375476 94 132 121
-0.23303567 0.16583003 -0.83862579 86 133 121
-0.23260264 0.16299453 -0.83668166 71 122 135
-0.23277709 0.16538368 -0.83873397 82 133 122
-0.2325941 0.16461588 -0.83835053 77 131 126
-0.23265105 0.16406614 -0.83766711 75 127 130
-0.2328921 0.16343132 -0.83649665 76 122 134
-0.21048544 0.18269575 -0.800188 104 137 120
-0.21010566 0.18207014 -0.79962289 104 137 121
-0.21082082 0.18116617 -0.79996622 106 136 121
-0.214366 0.17387666 -0.80009782 79 142 117
-0.21505103 0.17423837 -0.80095124 60 143 116
-0.21181633 0.17390995 -0.79768705 102 135 121
-0.21212947 0.17401525 -0.79802728 105 135 121
-0.21281458 0.17533062 -0.79932094 101 136 121
-0.216075 0.17206548 -0.80088544 118 139 118
-0.21467124 0.17334281 -0.80013514 94 140 118
-0.21517593 0.17363195 -0.80077004 69 143 116
-0.21541734 0.17254739 -0.80047709 112 139 118
-0.21587254 0.17115299 -0.80028772 147 136 119
-0.21431121 0.17282465 -0.79953343 124 137 120
-0.21510503 0.1720719 -0.79995775 134 137 120
-0.21520562 0.17040516 -0.79952157 156 134 122
-0.21527532 0.17020905 -0.79952365 157 134 122
-0.21289605 0.1727538 -0.79834765 125 135 122
-0.21504115 0.1715029 -0.79968596 144 136 120
-0.2138177 0.17187592 -0.79883194 136 135 122
-0.21377999 0.17046008 -0.7984252 150 132 124
-0.21421523 0.17109576 -0.79893386 146 134 122
-0.21270165 0.17114633 -0.79775268 138 133 124
-0.21249677 0.17008436 -0.7972917 147 130 126
-0.21236052 0.17099968 -0.79740578 137 132 125
-0.21237558 0.17046021 -0.79727876 142 131 125
-0.21729225 0.16917197 -0.80093205 153 135 120
-0.21813309 0.16692801 -0.80104542 95 137 119
-0.21732089 0.16747302 -0.80035931 121 135 120
-0.21372022 0.1677805 -0.79738945 121 134 124
-0.21594471 0.16642572 -0.79873592 113 133 122
-0.21545947 0.16892432 -0.79924995 147 133 123
-0.21593189 0.16692197 -0.79893422 121 132 123
-0.21674806 0.16690628 -0.79956496 124 133 122
-0.21640301 0.16972685 -0.80025929 161 135 121
-0.21656619 0.16744958 -0.79960877 131 133 122
-0.21468858 0.16966645 -0.79890263 155 133 123
-0.21442904 0.16942099 -0.79861653 151 132 123
-0.21929751 0.16392413 -0.80102593 53 137 118
-0.21783456 0.16440505 -0.79971993 86 134 120
-0.21847259 0.1631224 -0.79987597 69 135 119
-0.21884097 0.16262689 -0.80005229 61 135 118
-0.21807481 0.16380881 -0.79973882 80 134 120
-0.21808732 0.1639796 -0.79981089 80 135 120
-0.22099653 0.15898488 -0.80077988 96 128 121
-0.21928395 0.16145137 -0.799986 63 134 119
-0.21811336 0.16173851 -0.79900461 80 135 119
-0.21894212 0.16120191 -0.79954439 74 134 119
-0.21987131 0.16210768 -0.80085069 37 137 117
-0.21912907 0.16059525 -0.79944038 83 132 120
-0.22056668 0.16045101 -0.80076194 62 132 119
-0.22177821 0.15670565 -0.80106133 121 127 122
-0.22119491 0.15758796 -0.80043268 111 127 122
-0.22161791 0.15595055 -0.80040282 115 129 121
-0.22176532 0.15495795 -0.80032021 120 130 122
-0.2210342 0.15718421 -0.79997879 106 129 121
-0.2217821 0.15475401 -0.80028552 122 130 122
-0.21953116 0.15481633 -0.79770136 100 135 123
-0.22011034 0.15524219 -0.79840434 107 133 122
-0.22182259 0.15281418 -0.79964024 107 135 117
-0.22147776 0.15242425 -0.79903656 102 137 116
-0.22096971 0.15242398 -0.79836833 101 139 116
-0.22088118 0.15252142 -0.79828942 102 139 117
-0.22102906 0.15086187 -0.79782683 84 143 112
-0.22114414 0.15070754 -0.79787815 84 143 112
-0.2218345 0.1518458 -0.79919016 99 138 115
-0.22297543 0.15264627 -0.80083257 116 133 120
-0.22316068 0.1518575 -0.80065215 112 135 119
-0.22226642 0.15288979 -0.80017251 112 134 119
-0.22189917 0.15112054 -0.79890823 94 140 115
-0.22384936 0.15056454 -0.80077922 108 136 120
-0.22008044 0.1541633 -0.79805934 111 135 122
-0.22051273 0.15098171 -0.79726863 80 144 112
-0.22054207 0.15219751 -0.7977671 95 141 115
-0.22384989 0.15038022 -0.80069375 107 137 119
-0.22202641 0.14845389 -0.79841578 116 135 117
-0.22314431 0.14975156 -0.79982907 109 137 118
-0.2230024 0.14994508 -0.79970092 105 138 118
-0.22105677 0.14992619 -0.79756165 87 142 112
-0.22383709 0.15030979 -0.80066967 107 137 119
-0.22612809 0.16997758 -0.81350309 98 133 117
-0.22680627 0.1709145 -0.81526774 97 133 118
-0.22657235 0.17161977 -0.8153106 103 131 119
-0.22632189 0.169971 -0.81383365 96 134 117
-0.22790362 0.17019148 -0.81670463 82 136 116
-0.225448 0.17216727 -0.81314445 119 131 120
-0.22579812 0.17175606 -0.81379247 112 131 119
-0.22598903 0.17216986 -0.81445587 113 130 120
-0.22861014 0.16854772 -0.81663477 76 139 114
-0.22857939 0.167518 -0.8158583 82 140 114
-0.22886069 0.16671564 -0.81592417 89 140 114
-0.22829032 0.16824459 -0.81594831 75 139 114
-0.22753116 0.1661189 -0.81357408 83 141 115
-0.22825843 0.16687053 -0.81496423 83 139 114
-0.22788829 0.16854696 -0.81566358 78 139 115
-0.22725508 0.16906315 -0.81494808 85 137 116
-0.22740938 0.16823 -0.81476265 82 138 116
-0.22635397 0.16908854 -0.81340587 94 136 116
-0.22636169 0.16934098 -0.81355613 95 135 117
-0.22760583 0.16891338 -0.81547254 82 138 116
-0.22715895 0.16758996 -0.81398302 83 139 115
-0.22747721 0.16937208 -0.81549925 83 137 116
-0.22964773 0.16351229 -0.81648773 129 133 120
-0.2291542 0.16583067 -0.81603694 100 139 115
-0.22952616 0.16513093 -0.81666309 112 137 116
-0.22909814 0.16476852 -0.81562334 109 137 117
-0.22909476 0.16293228 -0.81497377 116 132 121
-0.22889322 0.16272625 -0.81440544 109 131 120
-0.2288563 0.16277879 -0.81433433 108 132 120
-0.22921531 0.1638553 -0.81560606 118 135 119
-0.22866519 0.16545522 -0.81484497 95 140 115
-0.22835639 0.16212593 -0.81305677 97 131 120
-0.22826284 0.16395684 -0.81361467 92 136 117
-0.22740488 0.16538046 -0.81311512 86 139 116
-0.22798637 0.16557819 -0.81388646 88 140 115
-0.22884712 0.16128264 -0.81363356 103 131 121
-0.22905146 0.16049981 -0.81372273 104 133 121
-0.22959901 0.16150773 -0.81559116 130 131 122
-0.2291543 0.16154803 -0.81452423 116 131 121
-0.22918545 0.16128828 -0.81446421 115 131 122
-0.23002636 0.16167326 -0.81674647 142 130 123
-0.22986041 0.16050564 -0.81573743 127 133 122
-0.22970374 0.15978616 -0.81497407 116 133 121
-0.22978942 0.15880817 -0.8147136 104 136 120
-0.2303952 0.15865874 -0.81621611 108 135 119
-0.23001145 0.16019367 -0.81597626 124 133 122
-0.23094615 0.15679935 -0.81659776 130 135 119
-0.23065948 0.15790296 -0.81650513 111 136 119
-0.23070753 0.15760411 -0.81645423 116 135 119
-0.22972386 0.15749155 -0.81383288 112 136 120
-0.22978291 0.15717903 -0.813806 120 135 120
-0.22990255 0.15803696 -0.81461293 101 137 119
-0.23030581 0.15682261 -0.8149609 132 133 120
-0.23066753 0.15799868 -0.81658155 109 135 119
-0.23056678 0.15747355 -0.81601602 120 135 119
-0.23096938 0.17869276 -0.82949865 116 136 118
-0.23086745 0.17824951 -0.82885426 117 135 119
-0.23252119 0.17459647 -0.82906127 114 135 115
-0.23273805 0.17496093 -0.83077937 117 133 116
-0.23273627 0.17386037 -0.82862741 112 136 114
-0.2328063 0.17472114 -0.83076793 117 134 116
-0.23288219 0.17454387 -0.83092904 117 133 117
-0.23192774 0.17596269 -0.82927471 116 134 117
-0.23241261 0.17499898 -0.82934749 115 135 115
-0.23234181 0.17469469 -0.82862043 114 136 115
-0.23198138 0.17570636 -0.82904172 115 135 116
-0.23140456 0.176791 -0.82885563 115 135 118
-0.23365812 0.17100893 -0.83241969 112 134 117
-0.23324248 0.17233074 -0.83103681 116 132 119
-0.23320723 0.17128493 -0.83015293 115 132 120
-0.23353644 0.17147158 -0.83206493 114 133 119
-0.23372185 0.16995233 -0.83206648 111 134 118
-0.2332174 0.17247239 -0.83097792 116 132 119
-0.23316592 0.17215827 -0.83045095 115 133 119
-0.23303251 0.17279668 -0.82993537 114 134 117
-0.2330841 0.17124091 -0.82936865 114 132 119
-0.23310362 0.17276628 -0.83039159 115 133 118
-0.23368876 0.16704883 -0.83177733 120 132 118
-0.23365724 0.16604169 -0.83158875 124 131 119
-0.23360458 0.16755202 -0.83100402 112 134 117
-0.23366247 0.16800308 -0.83146852 113 134 117
-0.23355554 0.16747662 -0.83058465 109 135 117
-0.23373912 0.16729152 -0.83219379 122 132 118
-0.23343483 0.16863355 -0.83007312 109 134 118
-0.23318858 0.16936405 -0.82897013 112 132 120
-0.23350765 0.16839595 -0.83039242 107 135 117
-0.23342493 0.16794953 -0.82979959 106 135 117
-0.23324202 0.16734126 -0.82861054 105 135 118
-0.23319408 0.16926333 -0.82896757 111 133 119
-0.2344088 0.16292456 -0.83125705 104 134 116
-0.23413594 0.16399978 -0.83147722 114 133 117
-0.23450112 0.1627509 -0.83142096 101 135 116
-0.23454633 0.16315822 -0.83211851 104 133 117
-0.23405297 0.16420846 -0.83139586 116 133 118
-0.2345954 0.16252351 -0.83152562 98 134 116
-0.23363897 0.16459346 -0.82925165 108 136 116
-0.23370394 0.16421546 -0.82923615 108 136 116
-0.23364525 0.16598852 -0.83144468 124 131 118
-0.23385847 0.1634903 -0.82946563 110 136 116
-0.23361072 0.16563489 -0.83060282 117 133 118
-0.23364484 0.16540535 -0.83054721 116 133 117
-0.2348603 0.16040906 -0.83227205 89 131 119
-0.23432124 0.1586424 -0.82974195 127 132 120
-0.23449688 0.15986159 -0.83047068 119 133 118
-0.2348357 0.15946332 -0.83228505 85 130 121
-0.2347399 0.15939699 -0.83179867 94 130 120
-0.2345764 0.16192347 -0.83091193 99 135 116
-0.2348689 0.16185106 -0.83211488 96 134 116
-0.23441398 0.16206105 -0.83025205 98 137 115
-0.23429029 0.16102156 -0.82965392 113 135 117
-0.23421913 0.15936853 -0.82922161 132 134 118
-0.23470818 0.16172211 -0.83143979 99 134 117
-0.23484312 0.15791193 -0.83220619 83 129 123
-0.23486258 0.15758112 -0.83196062 89 129 122
-0.23457538 0.1575169 -0.8301428 126 131 122
-0.23465711 0.15685281 -0.82961679 140 132 121
-0.21274018 0.18200062 -0.80198961 120 136 120
-0.21682093 0.17890728 -0.80494106 111 134 123
-0.21297441 0.1791175 -0.8011995 106 135 121
-0.21463671 0.17833775 -0.80262369 103 134 123
-0.2148459 0.1789116 -0.80303073 112 135 122
-0.21491429 0.1793385 -0.80324668 117 134 122
-0.21300815 0.18072644 -0.80182898 116 136 120
-0.21487126 0.1791003 -0.80312133 114 134 123
-0.21435356 0.17943968 -0.80272329 114 135 122
-0.21580797 0.17974047 -0.80424905 108 136 121
-0.2162472 0.17890152 -0.80440646 111 134 123
-0.21441822 0.18074371 -0.8032226 115 136 120
-0.21570189 0.17965588 -0.80411911 110 135 121
-0.21522219 0.17992344 -0.80373967 114 135 122
-0.21204087 0.18151811 -0.80123049 121 135 120
-0.21783033 0.17583135 -0.80491465 114 134 123
-0.21818791 0.17479524 -0.8048324 109 136 123
-0.21751909 0.17589705 -0.80452889 108 135 124
-0.2170447 0.17389783 -0.80274665 63 142 118
-0.21590395 0.17404433 -0.8016724 56 144 116
-0.21521036 0.17509378 -0.80157226 66 141 117
-0.21598592 0.17740171 -0.80358034 104 134 123
-0.21590565 0.17758623 -0.80359924 106 134 124
-0.21701346 0.17134844 -0.80152303 135 137 119
-0.21793345 0.17306112 -0.80358148 109 138 120
-0.21752305 0.17259307 -0.80279815 112 138 119
-0.21760029 0.17251503 -0.80286884 116 138 120
-0.21708408 0.17280544 -0.80228949 93 140 118
-0.21738045 0.17310631 -0.80283809 93 139 119
-0.218281 0.17221937 -0.80363953 134 136 121
-0.2185784 0.16994679 -0.80273169 135 137 118
-0.21822202 0.17128058 -0.80305463 141 136 120
-0.21826173 0.17013882 -0.80247188 145 136 119
-0.21846552 0.17292766 -0.80424249 125 136 122
-0.21845518 0.17152117 -0.80345619 132 136 120
-0.21882208 0.17151728 -0.80387753 120 137 120
-0.21664183 0.17187925 -0.80133718 117 139 118
-0.22112995 0.16654584 -0.80425256 77 141 117
-0.22075815 0.1695272 -0.80506319 66 141 116
-0.2210958 0.16660139 -0.80422306 77 141 117
-0.21954432 0.16694328 -0.80260152 69 139 118
-0.21891567 0.16605657 -0.80156028 70 138 119
-0.22051954 0.16881062 -0.80445105 65 142 117
-0.22019088 0.16693564 -0.80323458 68 141 117
-0.21923752 0.16816622 -0.80280328 84 139 118
-0.21865568 0.16753718 -0.80188966 94 137 119
-0.21820699 0.16890609 -0.80189848 132 136 119
-0.21771151 0.16961052 -0.80159754 159 135 120
-0.2188805 0.16974482 -0.8029986 122 137 118
-0.21852615 0.16843313 -0.80208492 113 137 119
-0.21913409 0.16718329 -0.8023057 70 139 118
-0.22100656 0.16569889 -0.80362839 70 142 116
-0.2219775 0.16395946 -0.80428749 71 144 115
-0.22139898 0.16574091 -0.80429363 81 141 117
-0.22139655 0.16244997 -0.8028149 50 142 115
-0.22187735 0.1632421 -0.80383807 64 143 115
-0.22205977 0.16216129 -0.80365074 59 143 115
-0.22085883 0.16505533 -0.80312532 61 143 116
-0.2210377 0.16367836 -0.80280942 54 142 116
-0.22235166 0.16216289 -0.80407214 63 144 114
-0.2205178 0.1637143 -0.80215442 46 140 116
-0.22063303 0.16571216 -0.8031044 65 142 117
-0.21957959 0.16392364 -0.80131561 50 138 118
-0.22040051 0.164667 -0.80243635 55 140 117
-0.21936087 0.16435979 -0.80128348 54 137 118
-0.21941976 0.16508453 -0.80164599 61 139 118
-0.22133161 0.15846086 -0.80118459 115 126 122
-0.22184245 0.1588925 -0.80189836 103 129 120
-0.22125009 0.16099995 -0.80192161 59 136 117
-0.22247545 0.16012196 -0.80299687 73 136 117
-0.22123984 0.15969597 -0.80148947 89 130 120
-0.22391218 0.15861727 -0.80410409 100 133 117
-0.2213099 0.16065562 -0.80187684 67 135 118
-0.22298074 0.16206135 -0.80492532 74 145 114
-0.22224946 0.16071804 -0.80299038 64 138 116
-0.22293648 0.16194393 -0.80478454 73 144 114
-0.22231609 0.16111422 -0.80334616 64 140 115
-0.22239296 0.16205621 -0.80407459 64 143 115
-0.22298737 0.16154039 -0.80459332 75 142 114
-0.22461909 0.15558659 -0.80375862 126 130 119
-0.22510451 0.15565634 -0.80473655 126 131 118
-0.2246643 0.15608239 -0.80403751 122 130 118
-0.22373496 0.15451428 -0.80244654 129 129 120
-0.2243256 0.15715002 -0.80405331 113 132 118
-0.22438554 0.15635096 -0.80380708 119 131 118
-0.22417489 0.15570545 -0.80334699 123 130 119
-0.22382808 0.15707915 -0.8035056 112 132 118
-0.22266223 0.15472141 -0.80143344 125 129 122
-0.22301076 0.15542336 -0.80205196 121 129 121
-0.22190899 0.15699458 -0.80135 121 126 122
-0.22381985 0.15803611 -0.80381292 109 132 118
-0.22249907 0.15641309 -0.80181193 120 128 121
-0.22506222 0.15363219 -0.80382288 141 129 120
-0.22503027 0.15262356 -0.80330408 138 130 120
-0.22494063 0.1527929 -0.80320746 136 130 120
-0.22397783 0.15227741 -0.80170596 120 132 120
-0.22420622 0.15200499 -0.8018145 120 133 120
-0.22331448 0.15370484 -0.80167496 126 129 121
-0.22284903 0.1539526 -0.80131656 126 129 122
-0.22891161 0.17512971 -0.82083398 95 134 117
-0.23004541 0.17506313 -0.82395035 122 134 120
-0.23025967 0.17392886 -0.82425541 96 133 121
-0.23099658 0.17004226 -0.82424122 116 136 114
-0.23078638 0.17000343 -0.82346004 121 135 115
-0.23093574 0.17030001 -0.82419986 115 136 115
-0.23039728 0.1722049 -0.8235746 109 133 119
-0.23032856 0.17108327 -0.82255781 123 133 119
-0.22998452 0.17218202 -0.82212627 116 132 119
-0.23002966 0.17381085 -0.82342601 95 133 120
-0.23004918 0.17077602 -0.8213557 132 132 119
-0.22942227 0.17380825 -0.82136482 102 133 119
-0.23178598 0.16610308 -0.82279038 113 130 118
-0.23188172 0.16718347 -0.82400376 112 131 117
-0.23189129 0.16649526 -0.82340431 112 131 117
-0.23220111 0.16655968 -0.82422686 112 129 118
-0.23109037 0.16800927 -0.82279938 114 136 116
-0.23154978 0.16769522 -0.82364833 113 132 116
-0.23092611 0.16854817 -0.8227213 117 135 115
-0.23025055 0.16926433 -0.82091343 136 132 118
-0.23023014 0.16961658 -0.82114387 137 132 118
-0.23095293 0.16899477 -0.82320267 117 136 115
-0.23087311 0.16686967 -0.82108396 116 135 117
-0.23072691 0.1693709 -0.82271546 123 134 116
-0.2326725 0.16485398 -0.82457393 114 130 118
-0.23249482 0.16289474 -0.82332432 101 136 117
-0.23262216 0.16424838 -0.82418472 111 132 118
-0.23209929 0.16397227 -0.82282597 106 132 118
-0.23226142 0.16369076 -0.82307059 103 133 118
-0.23240472 0.16506679 -0.82389152 109 130 118
-0.23164481 0.16581717 -0.82230538 113 132 118
-0.2315819 0.16338871 -0.82143825 106 133 118
-0.23158495 0.16350643 -0.82148027 107 133 119
-0.23210421 0.16536273 -0.82330614 111 129 118
-0.23153815 0.16391984 -0.821486 108 133 118
-0.23248591 0.16074799 -0.82216603 119 137 118
-0.23260374 0.16045573 -0.82231539 127 138 118
-0.23326482 0.16008113 -0.82405663 142 135 120
-0.23295368 0.16121687 -0.82376999 124 138 118
-0.23302966 0.16035776 -0.82350045 137 136 119
-0.23181443 0.16123453 -0.82098478 115 135 119
-0.2317546 0.16195351 -0.82129472 103 135 118
-0.23230514 0.16076919 -0.82175827 118 138 118
-0.23144001 0.18191133 -0.83595788 90 130 120
-0.23189019 0.17920496 -0.83451343 97 131 118
-0.23204386 0.17875385 -0.83484679 87 134 117
-0.23213699 0.1785486 -0.83522201 77 136 116
-0.23166452 0.18040492 -0.8353886 90 130 119
-0.23211892 0.1785408 -0.83502823 81 135 116
-0.23140429 0.18133482 -0.83359754 109 135 116
-0.23315087 0.1745089 -0.83288246 110 134 117
-0.23313707 0.17457382 -0.83295101 109 134 117
-0.23262544 0.17675889 -0.83463001 81 138 114
-0.23298067 0.17525041 -0.83349782 100 135 116
-0.23282541 0.176098 -0.83466923 79 138 114
-0.23297858 0.17547601 -0.83426392 88 138 115
-0.23299302 0.17592603 -0.83594 73 139 113
-0.2327936 0.17649631 -0.83566147 68 140 112
-0.23260872 0.17712528 -0.8357411 60 142 111
-0.23313084 0.17483895 -0.83379698 98 136 116
-0.23293689 0.1758506 -0.83506632 79 139 114
-0.23374936 0.17172506 -0.83483529 104 134 117
-0.23373489 0.17203358 -0.83494288 103 135 117
-0.23382998 0.17048892 -0.83534431 110 133 120
-0.2336867 0.17348765 -0.83628178 97 135 116
-0.23376817 0.17093936 -0.83381152 107 134 117
-0.23368061 0.17326412 -0.83569783 99 135 116
-0.23368174 0.17202258 -0.83404106 106 134 117
-0.23362444 0.17303471 -0.83476973 103 135 116
-0.23371615 0.17215775 -0.83460242 103 135 117
-0.23371089 0.17202733 -0.83436894 104 135 117
-0.23359562 0.17178486 -0.83277124 112 134 118
-0.23379974 0.16684952 -0.83342588 125 130 120
-0.23408203 0.16657023 -0.83582133 103 129 122
-0.233817 0.16743793 -0.83399016 123 130 121
-0.23411162 0.16648348 -0.83603275 101 129 122
-0.23386912 0.16773511 -0.83467329 119 130 121
-0.23392844 0.16777782 -0.8352465 114 130 122
-0.2338251 0.16853692 -0.83439845 120 131 120
-0.23379618 0.16903836 -0.83299446 115 133 118
-0.23378447 0.16898952 -0.832528 115 133 118
-0.23380828 0.1679455 -0.83393919 123 131 120
-0.23377627 0.16788591 -0.8326332 121 132 119
-0.23327601 0.16326027 -0.83573395 79 123 131
-0.23458254 0.16247609 -0.83321595 89 131 119
-0.2344082 0.16469672 -0.83504975 94 130 120
-0.23318036 0.16318175 -0.83582205 78 123 132
-0.23319329 0.16283011 -0.83555371 77 123 132
-0.23429424 0.16325529 -0.83420062 89 130 121
-0.23338573 0.16259821 -0.83510047 77 125 129
-0.2343124 0.16532332 -0.83562487 96 130 121
-0.23409855 0.16498792 -0.83273137 118 130 119
-0.23434897 0.16494635 -0.83491176 98 130 120
-0.2348769 0.16241781 -0.83272064 92 134 117
-0.23469809 0.16311656 -0.83302426 96 133 117
-0.23442827 0.16458507 -0.83463418 97 130 120
-0.23459546 0.1615648 -0.83293128 82 135 116
-0.2118393 0.17184076 -0.79715127 124 133 124
-0.21111065 0.17339247 -0.79689628 103 135 121
-0.21123983 0.17156148 -0.79654688 125 133 124
-0.21022955 0.17299229 -0.79601055 104 135 122
-0.21055177 0.17174037 -0.79598171 115 133 123
-0.21007375 0.17216757 -0.79566514 107 134 123
-0.21291374 0.16813518 -0.7968303 129 133 124
-0.21331181 0.1674192 -0.79686791 119 135 123
-0.21262956 0.16721463 -0.79616231 115 135 123
-0.21189083 0.16735235 -0.79557043 102 136 122
-0.21127646 0.16940962 -0.79594284 117 133 124
-0.21256262 0.16771904 -0.79632759 120 134 124
-0.21243043 0.16937356 -0.79694712 140 131 125
-0.21242458 0.16955778 -0.79702395 142 131 125
-0.2127125 0.16852273 -0.79681993 133 132 125
-0.21914043 0.15248314 -0.79645133 81 140 116
-0.21979183 0.15239201 -0.79708248 86 140 116
-0.21959092 0.15246898 -0.79690695 85 141 116
-0.22011922 0.15151767 -0.79707557 82 142 113
-0.21973957 0.15139332 -0.79663783 76 143 112
-0.21986297 0.15116853 -0.79668504 76 143 112
-0.2198825 0.15057047 -0.7965591 74 145 112
-0.22090369 0.14874902 -0.79721838 102 139 113
-0.22076714 0.14774469 -0.79690605 119 134 116
-0.22052155 0.14847776 -0.79678351 107 137 115
-0.21982682 0.14961644 -0.79635048 87 142 113
-0.22046834 0.14794037 -0.79665589 116 135 116
-0.21960001 0.14787467 -0.79588938 115 134 118
-0.21960311 0.14898166 -0.79605955 97 139 115
-0.21938893 0.1487205 -0.79583341 101 138 116
-0.21990681 0.18597075 -0.81121933 140 137 120
-0.21834834 0.18569165 -0.80928469 121 133 122
-0.21804728 0.1865205 -0.80919641 124 133 122
-0.22104158 0.18327609 -0.81170553 139 137 122
-0.22072399 0.1834444 -0.81129408 143 136 122
-0.22076927 0.18435511 -0.81163347 143 137 121
-0.22130471 0.18298332 -0.81200045 136 137 121
-0.2206496 0.18475956 -0.81160122 143 138 120
-0.2185774 0.18421045 -0.80910379 122 134 122
-0.21958555 0.18395467 -0.81018615 133 135 122
-0.22034375 0.18475696 -0.81127012 141 138 120
-0.21959279 0.18495865 -0.81046695 133 136 121
-0.21841218 0.18510163 -0.80915689 120 134 122
-0.2210751 0.18123205 -0.81106675 137 135 124
-0.2210975 0.1798019 -0.81041199 135 137 121
-0.22127411 0.18127383 -0.81137639 135 136 123
-0.22153264 0.17828637 -0.81043315 133 137 120
-0.22138691 0.17786457 -0.81001949 134 138 119
-0.22031638 0.17982619 -0.80943394 137 135 122
-0.22061898 0.17851742 -0.80912888 139 138 120
-0.22392598 0.17400497 -0.81147355 122 131 121
-0.22331214 0.17402515 -0.81075895 123 131 121
-0.2214874 0.17680265 -0.80968916 132 136 120
-0.22488309 0.17319964 -0.81243795 119 131 120
-0.22494823 0.17242922 -0.81225705 113 132 119
-0.22528665 0.17070585 -0.81219894 104 134 117
-0.22513476 0.17083709 -0.81194705 105 134 117
-0.2249741 0.17188063 -0.81207216 110 133 118
-0.22440466 0.17191145 -0.81108928 112 134 118
-0.22412293 0.17149508 -0.8105588 112 134 119
-0.22370653 0.17054355 -0.80962914 110 134 119
-0.22383812 0.17196611 -0.8104201 114 133 120
-0.22272794 0.17365241 -0.80986547 122 131 121
-0.22445741 0.17362535 -0.81190205 119 131 120
-0.22333384 0.17037299 -0.80910426 110 135 119
-0.22264403 0.17342943 -0.8096655 122 131 121
-0.22320378 0.17134079 -0.80938667 114 134 120
-0.22564435 0.16936938 -0.81226987 99 133 118
-0.22481935 0.16900444 -0.81038344 99 135 117
-0.22519915 0.16831993 -0.81076294 95 133 119
-0.22673343 0.16633967 -0.81253624 84 139 116
-0.22663504 0.1664978 -0.8124432 85 139 116
-0.22594523 0.16728836 -0.81160057 90 135 118
-0.22549097 0.16628999 -0.81013495 87 133 120
-0.22528005 0.16615759 -0.80965298 87 131 121
-0.22557649 0.16820581 -0.81144685 94 133 118
-0.22365911 0.16956589 -0.80908811 106 135 119
-0.2244762 0.16780975 -0.80905324 94 133 119
-0.22742729 0.16248722 -0.81180656 103 131 119
-0.22640856 0.16405913 -0.81096983 101 135 117
-0.22712234 0.16534756 -0.81272399 86 139 116
-0.22785597 0.16270348 -0.81258756 97 132 119
-0.22585718 0.16217183 -0.80917883 119 130 120
-0.22600839 0.1626198 -0.80963594 115 132 119
-0.22695403 0.16548018 -0.8125236 86 139 116
-0.22560367 0.16389443 -0.80937845 105 131 120
-0.225687 0.16294453 -0.80917597 113 131 120
-0.22626935 0.16543514 -0.81123531 89 136 117
-0.22562127 0.16367392 -0.80932808 107 132 119
-0.22563814 0.165966 -0.81023252 86 133 119
-0.22594203 0.16362676 -0.8099224 107 133 119
-0.22859317 0.16008614 -0.81241268 94 133 120
-0.22856796 0.1583408 -0.81148851 97 136 119
-0.22822839 0.15867066 -0.81108588 105 134 120
-0.22789571 0.15901898 -0.81074262 112 133 120
-0.22830647 0.1598928 -0.81181329 100 133 119
-0.22798893 0.16069034 -0.81174546 107 131 121
-0.22746456 0.15954255 -0.81036109 121 131 120
-0.22671542 0.16065533 -0.80975556 121 131 120
-0.22716559 0.15887974 -0.80955529 129 130 121
-0.22700824 0.15950586 -0.80962807 127 131 120
-0.22790535 0.16172907 -0.81218022 104 130 120
-0.22633566 0.16063963 -0.80914927 125 130 120
-0.22727269 0.16002952 -0.81031293 120 130 120
-0.2291946 0.15771464 -0.81261855 105 136 120
-0.22935231 0.15687072 -0.81255013 126 134 120
-0.22910154 0.15759872 -0.8123439 109 136 120
-0.22878562 0.15739003 -0.81153309 116 134 120
-0.22808908 0.1569351 -0.81038344 117 136 119
-0.22828218 0.15777718 -0.81085187 107 136 119
-0.22802173 0.15751815 -0.8103959 115 135 119
-0.22783571 0.15767939 -0.81013966 118 134 120
-0.23216593 0.17427973 -0.82794809 109 136 115
-0.23108499 0.17431316 -0.82617557 101 134 119
-0.23087227 0.1747859 -0.82619965 101 134 119
-0.23149692 0.17536803 -0.82770187 109 135 117
-0.23145571 0.17552251 -0.82775676 110 134 118
-0.2315287 0.17504479 -0.82749665 108 135 117
-0.23039189 0.17527921 -0.82537007 112 134 120
-0.23244126 0.17092262 -0.82727081 104 134 116
-0.23243485 0.17197986 -0.82754922 105 135 115
-0.23225874 0.17240979 -0.82734424 107 135 115
-0.23162325 0.17119835 -0.82586497 111 136 114
-0.2322679 0.17043485 -0.82681161 105 134 116
-0.23208886 0.17038648 -0.82647628 106 135 116
-0.23129523 0.17120203 -0.82530802 110 136 114
-0.23143069 0.17139176 -0.8255952 110 136 114
-0.23141384 0.17341466 -0.82621396 102 135 117
-0.23097511 0.17101733 -0.82471365 108 135 115
-0.23114954 0.17294309 -0.82562119 102 135 117
-0.23118228 0.17036067 -0.82485008 112 137 113
-0.23248035 0.1667335 -0.82497829 112 128 118
-0.23268564 0.16864057 -0.82673448 111 130 119
-0.23254617 0.16773161 -0.82579589 110 130 118
-0.23256181 0.16747658 -0.82566482 111 129 118
-0.23303448 0.16724977 -0.8275339 109 132 119
-0.23286329 0.16785482 -0.82685393 113 130 119
-0.23302725 0.1671084 -0.8274557 108 131 118
-0.23260745 0.16623552 -0.8250882 113 127 118
-0.23282608 0.16813552 -0.82675046 114 129 120
-0.23326366 0.1660679 -0.82833391 102 135 116
-0.23174453 0.16896909 -0.82509941 110 134 115
-0.23231995 0.16917755 -0.82627136 106 132 117
-0.23241717 0.1682741 -0.82585001 107 131 117
-0.23185924 0.16831671 -0.82487518 112 132 116
-0.23359078 0.1636074 -0.82794106 104 137 116
-0.23324689 0.16345966 -0.82639503 109 137 117
-0.23339628 0.16448388 -0.82777512 104 137 116
-0.23317768 0.16230077 -0.82525057 112 138 117
-0.23328596 0.16425158 -0.82714278 105 137 116
-0.23347521 0.16454206 -0.82814789 103 137 116
-0.2331139 0.16331004 -0.8257125 111 137 117
-0.23256426 0.16574886 -0.82462305 114 127 118
-0.23275866 0.16485277 -0.82498544 113 131 118
-0.23293009 0.1630888 -0.82463783 114 136 117
-0.23316637 0.16471539 -0.82693881 106 137 116
-0.2339424 0.15956312 -0.82702202 141 134 119
-0.23403904 0.15900838 -0.82827204 139 134 118
-0.23401186 0.16106609 -0.82848322 116 137 116
-0.23401871 0.16062845 -0.82845414 120 137 117
-0.23375708 0.16083992 -0.82651603 128 136 117
-0.2332336 0.16171879 -0.82503086 119 137 118
-0.23349123 0.16016771 -0.8248679 142 135 120
-0.23367997 0.16102362 -0.82634056 126 136 117
-0.23379371 0.16201635 -0.82760918 107 139 115
-0.23317324 0.16157344 -0.82466251 122 137 118
0 0 0 1 0 0 0 1 0 0 0 1 0 0 0 0 0 764 1 0 0
