ply
format ascii 1.0
comment PCL generated
element vertex 700
property float x
property float y
property float z
property uchar red
property uchar green
property uchar blue
element camera 1
property float view_px
property float view_py
property float view_pz
property float x_axisx
property float x_axisy
property float x_axisz
property float y_axisx
property float y_axisy
property float y_axisz
property float z_axisx
property float z_axisy
property float z_axisz
property float focal
property float scalex
property float scaley
property float centerx
property float centery
property int viewportx
property int viewporty
property float k1
property float k2
end_header
-0.10748387 -0.50147575 -0.69961077 103 139 117
-0.10746939 -0.50190407 -0.69976014 102 139 117
-0.10955079 -0.50162369 -0.70049405 102 141 116
-0.11480579 -0.50334382 -0.70349008 101 142 117
-0.11244006 -0.50556099 -0.70325643 93 140 117
-0.11170676 -0.50582695 -0.7030279 92 139 118
-0.11135227 -0.50377625 -0.70206022 96 140 116
-0.11189487 -0.50217134 -0.70168239 101 142 116
-0.11338897 -0.50332475 -0.70284194 99 141 117
-0.11230052 -0.50245571 -0.70198584 101 142 116
-0.11211752 -0.50410831 -0.70255202 96 141 117
-0.11335109 -0.50250041 -0.70249867 102 142 117
-0.11342363 -0.50261658 -0.70257866 101 142 117
-0.1074799 -0.50370628 -0.70048445 100 139 118
-0.10859248 -0.5049414 -0.70141995 97 139 117
-0.10794878 -0.50333357 -0.70052075 99 139 117
-0.10782592 -0.50353938 -0.70055461 99 140 117
-0.10867698 -0.50347811 -0.70086712 98 139 118
-0.108847 -0.50473243 -0.701437 97 139 118
-0.11101158 -0.50375044 -0.70191139 96 140 116
-0.11008587 -0.5043577 -0.70177907 95 139 117
-0.10958037 -0.50321198 -0.7011236 98 140 117
-0.10868733 -0.50248355 -0.70047706 100 140 117
-0.11079799 -0.50339156 -0.70168394 97 141 116
-0.11110006 -0.50491619 -0.70240718 93 140 117
-0.10639411 -0.50262791 -0.6996628 102 140 117
-0.105368 -0.50398022 -0.69983882 107 138 116
-0.10741865 -0.50553572 -0.70119327 100 139 118
-0.10651653 -0.5045433 -0.70047396 103 138 117
-0.10421428 -0.50532746 -0.69996709 110 137 116
-0.10514226 -0.50527078 -0.7002753 108 138 117
-0.10533173 -0.5049625 -0.70021939 107 138 116
-0.1051623 -0.5058313 -0.70050704 107 137 117
-0.11235885 -0.50616193 -0.70344067 92 139 117
-0.11123619 -0.50665379 -0.70312262 92 139 118
-0.11117452 -0.50651723 -0.70304722 92 139 118
-0.10989207 -0.50766182 -0.70293707 97 139 119
-0.10966705 -0.50760043 -0.7028237 97 139 118
-0.1078231 -0.50948966 -0.70275527 105 139 119
-0.10883953 -0.5073759 -0.70241654 99 139 118
-0.10945315 -0.50767428 -0.70276403 98 139 118
-0.10817447 -0.50693583 -0.70199907 100 139 118
-0.10760224 -0.5090124 -0.70249951 104 139 119
-0.1079907 -0.50844264 -0.70245385 102 139 119
-0.10943725 -0.50730282 -0.70262772 98 139 118
-0.10656572 -0.50893229 -0.70209539 107 139 118
-0.10509893 -0.50762552 -0.70111954 110 138 117
-0.10584944 -0.50952542 -0.70208716 108 140 118
-0.10382476 -0.50637621 -0.70022851 112 137 117
-0.10423508 -0.50814426 -0.7010349 111 139 117
-0.10602073 -0.50664032 -0.70109779 106 138 117
-0.10570245 -0.50705105 -0.70112813 107 138 117
-0.1052441 -0.50694752 -0.70092839 109 138 117
-0.10728201 -0.50865346 -0.70225251 104 139 119
-0.10604907 -0.50806862 -0.701608 108 138 118
-0.10566153 -0.50711173 -0.7011348 108 138 117
-0.10221011 -0.506091 -0.69965112 106 138 116
-0.10082202 -0.50741607 -0.69978637 98 139 116
-0.10240927 -0.50727868 -0.70018262 106 138 115
-0.10254439 -0.50738543 -0.70025837 107 138 116
-0.10232117 -0.50869715 -0.70069915 105 140 115
-0.10149107 -0.50899065 -0.70059448 100 140 114
-0.10297067 -0.50788504 -0.7005595 108 139 115
-0.10930548 -0.50979632 -0.70346844 99 140 119
-0.10772466 -0.51013362 -0.70296383 106 139 119
-0.10595364 -0.51233864 -0.70330852 112 140 118
-0.10700957 -0.51069993 -0.70295084 108 140 119
-0.1059855 -0.51139528 -0.70292777 110 140 119
-0.10483242 -0.51267701 -0.70310611 114 140 117
-0.10560427 -0.5114426 -0.70282662 111 140 118
-0.10440893 -0.50984365 -0.70174223 109 141 117
-0.10401134 -0.51233476 -0.70269406 114 141 116
-0.10409242 -0.51135612 -0.70229566 112 141 116
-0.10394594 -0.51140898 -0.70227075 113 141 116
-0.10530024 -0.51050258 -0.70231926 109 140 117
-0.1008267 -0.51167005 -0.70151979 100 141 115
-0.10202119 -0.51347232 -0.70259309 111 140 116
-0.10105604 -0.51272804 -0.70201099 105 140 116
-0.10001453 -0.51118749 -0.70108753 96 141 115
-0.10077722 -0.51347107 -0.7022264 106 140 117
-0.10228433 -0.51327819 -0.70259285 111 141 116
-0.10197333 -0.51094097 -0.70152521 104 141 115
-0.10334814 -0.51347119 -0.70298213 115 141 116
-0.10153548 -0.51072186 -0.701316 101 141 115
-0.10325155 -0.51126623 -0.70199949 111 141 116
-0.10160913 -0.51021451 -0.70111489 101 142 115
-0.10343099 -0.51029629 -0.70162511 111 141 116
-0.096562058 -0.51180291 -0.70057243 98 139 117
-0.095930815 -0.51192546 -0.70047688 99 139 118
-0.096529089 -0.51237267 -0.70081484 100 139 117
-0.097080804 -0.51126885 -0.70046067 96 140 117
-0.098226704 -0.51226407 -0.70112574 99 139 117
-0.097265214 -0.51339191 -0.70138699 103 139 117
-0.098932043 -0.51334232 -0.70169705 102 140 117
-0.098264746 -0.51313323 -0.70148122 102 139 117
-0.099248499 -0.51117301 -0.70089102 95 141 115
-0.095039271 -0.51340455 -0.70096785 108 138 119
-0.095600888 -0.5132696 -0.70099717 105 138 118
-0.094318092 -0.51249695 -0.70045596 109 139 119
-0.094689719 -0.51210344 -0.70034164 106 139 119
-0.095287435 -0.51204008 -0.70040792 102 139 118
-0.10264999 -0.5151875 -0.70349872 114 141 118
-0.10029864 -0.51442784 -0.70249039 106 140 117
-0.10105367 -0.5141902 -0.70261061 109 141 117
-0.10103954 -0.5136764 -0.70238596 108 140 117
-0.1014553 -0.51543701 -0.70326388 112 141 117
-0.10086294 -0.51553851 -0.70313305 109 141 117
-0.099237055 -0.51711625 -0.70337099 107 141 118
-0.096515767 -0.51713473 -0.70286596 101 143 119
-0.096501395 -0.51678336 -0.70271242 101 143 119
-0.098805919 -0.51497763 -0.7023719 103 141 117
-0.099318773 -0.51448131 -0.70225567 104 140 118
-0.097428091 -0.5168376 -0.70291042 102 142 118
-0.097688027 -0.51528317 -0.70228946 102 141 118
-0.096140608 -0.51584226 -0.70222837 102 142 118
-0.095714673 -0.51403517 -0.70135158 105 139 118
-0.097466074 -0.51505059 -0.70214349 102 141 118
-0.096243329 -0.51521862 -0.70197517 103 140 119
-0.096861869 -0.51581556 -0.70235938 102 142 118
-0.094550155 -0.51680887 -0.7023803 106 142 121
-0.094491929 -0.51489758 -0.70153552 109 141 120
-0.095605478 -0.51595968 -0.70217776 103 141 119
-0.094280079 -0.51516593 -0.70161963 109 141 120
-0.096822895 -0.51780021 -0.70320976 102 143 118
-0.096696459 -0.5184322 -0.70345795 102 142 118
-0.092953414 -0.51761419 -0.70246226 109 142 122
-0.091967247 -0.5189777 -0.70282769 103 145 120
-0.094964959 -0.51785576 -0.70288861 100 144 119
-0.092493512 -0.5178616 -0.7024821 109 142 121
-0.12665282 -0.5087837 -0.71142656 120 148 114
-0.1269975 -0.51326072 -0.71305466 106 143 113
-0.12594089 -0.51093215 -0.71172655 97 148 111
-0.12644449 -0.51106083 -0.71203488 102 147 112
-0.12579915 -0.51236385 -0.71212113 95 145 113
-0.12527798 -0.51331115 -0.7121563 89 144 112
-0.12490086 -0.51266116 -0.71174383 86 146 112
-0.12630643 -0.51112038 -0.71198148 101 148 112
-0.12375836 -0.51334953 -0.71136576 74 145 112
-0.1257626 -0.51067579 -0.71154982 97 148 112
-0.12328961 -0.51431262 -0.71142584 72 144 112
-0.12395601 -0.51533651 -0.71209878 87 142 113
-0.12444057 -0.51454651 -0.71210712 86 143 113
-0.12457154 -0.5143162 -0.71210408 85 143 113
-0.12333976 -0.51503515 -0.71167886 79 143 113
-0.12319031 -0.51608497 -0.71192884 84 143 112
-0.12341441 -0.5172556 -0.71241498 95 142 113
-0.12675856 -0.51557964 -0.71369147 114 144 110
-0.12593114 -0.5148977 -0.7130087 103 142 113
-0.12531383 -0.51710415 -0.71340787 110 144 110
-0.12680738 -0.51385289 -0.71314049 104 142 113
-0.12238685 -0.51632893 -0.71164048 83 142 113
-0.12196221 -0.51644194 -0.71148986 83 142 114
-0.12206968 -0.51617658 -0.7114538 81 142 113
-0.12563673 -0.5193243 -0.71434402 124 142 111
-0.12362371 -0.52123863 -0.71391648 109 141 112
-0.12553716 -0.51952344 -0.71435595 125 141 111
-0.12405481 -0.52027172 -0.71382433 108 143 111
-0.12494221 -0.51936328 -0.71399164 113 144 109
-0.12311497 -0.5178895 -0.71246809 95 142 113
-0.12393355 -0.51853079 -0.71314394 103 143 111
-0.12393028 -0.51990092 -0.71362519 106 143 111
-0.122774 -0.5176512 -0.71222776 93 142 113
-0.12205599 -0.51785535 -0.71198672 91 142 113
-0.12018235 -0.51904148 -0.71159285 85 141 113
-0.12240883 -0.51800615 -0.7121976 92 142 113
-0.11949205 -0.51988566 -0.71160442 84 141 113
-0.1208622 -0.52111745 -0.71264982 91 142 112
-0.1230153 -0.51922852 -0.71288955 97 143 112
-0.1211879 -0.52097452 -0.71273643 92 143 112
-0.1220032 -0.51929688 -0.71248788 92 143 113
-0.12240549 -0.52086586 -0.71321023 97 142 112
-0.12206241 -0.51972044 -0.71266216 94 143 113
-0.11895721 -0.51978606 -0.71133566 83 141 113
-0.1181289 -0.52131474 -0.71158618 84 141 113
-0.12102007 -0.52471209 -0.71398014 109 141 115
-0.12003107 -0.52405918 -0.71332353 98 142 114
-0.11950871 -0.52196288 -0.71237963 89 142 113
-0.11981425 -0.52482277 -0.7134887 96 142 112
-0.11947935 -0.5252459 -0.71348602 93 143 112
-0.1204724 -0.52471834 -0.71374196 104 141 114
-0.12210297 -0.52200896 -0.71348941 102 142 113
-0.12108124 -0.5227046 -0.71330953 102 141 114
-0.1220246 -0.52201909 -0.71346009 102 142 113
-0.12115356 -0.52164942 -0.71296102 95 142 112
-0.11701039 -0.52223879 -0.71147001 84 141 114
-0.11630562 -0.52301759 -0.71146339 84 140 114
-0.11633246 -0.52353203 -0.71165347 84 140 113
-0.11740207 -0.52261955 -0.71176046 84 141 113
-0.1184672 -0.52453202 -0.71283132 88 142 112
-0.11559968 -0.52520996 -0.71194392 84 141 113
-0.11912865 -0.52347994 -0.71273071 87 142 112
-0.11708321 -0.52481085 -0.71238649 86 141 113
-0.11868422 -0.52390879 -0.71270353 87 142 112
-0.1169645 -0.52450258 -0.71223515 85 142 112
-0.11517891 -0.52407229 -0.71138799 84 139 114
-0.11916423 -0.52639246 -0.71382052 96 141 112
-0.11937433 -0.52748454 -0.7143743 104 140 113
-0.11751167 -0.52779943 -0.71376562 101 139 113
-0.11736097 -0.52838373 -0.71393281 103 138 114
-0.11726543 -0.52825624 -0.71384251 102 138 114
-0.11660768 -0.52640468 -0.71282732 92 140 113
-0.11863701 -0.52741331 -0.71404523 100 140 112
-0.11556327 -0.52556568 -0.71206522 86 140 113
-0.11857975 -0.52583528 -0.7133559 91 142 112
-0.11686987 -0.52543896 -0.71252137 86 142 112
-0.1171931 -0.52588886 -0.71283758 89 141 112
-0.11257281 -0.52645546 -0.71142149 79 138 114
-0.11388858 -0.52671492 -0.71195197 82 140 113
-0.11281881 -0.52716851 -0.71178555 80 140 113
-0.11221243 -0.52830166 -0.71203798 81 140 114
-0.11278395 -0.52814019 -0.71215838 83 140 114
-0.11267552 -0.52877867 -0.71237504 86 139 114
-0.11330704 -0.52793604 -0.71224612 85 140 114
-0.11292477 -0.52858382 -0.71237844 86 139 114
-0.11046958 -0.5289619 -0.71172327 76 139 115
-0.11103286 -0.5291431 -0.71198535 79 140 114
-0.10887336 -0.52962756 -0.71144426 72 138 115
-0.10895606 -0.53129965 -0.71213204 86 137 115
-0.10785181 -0.53139549 -0.71179271 82 136 116
-0.10744724 -0.53170007 -0.7117756 83 136 116
-0.10856068 -0.53138506 -0.71203089 85 137 116
-0.10569043 -0.53280425 -0.7117641 80 136 116
-0.10651717 -0.53246921 -0.71184194 83 136 116
-0.10386354 -0.53450209 -0.7119785 77 136 116
-0.10562228 -0.53421783 -0.71233135 87 136 116
-0.10394353 -0.53349632 -0.71160471 71 137 116
-0.099929683 -0.5363363 -0.71196538 81 138 117
-0.10037872 -0.53485537 -0.71139455 77 138 117
-0.10314576 -0.5334959 -0.71142107 68 137 115
-0.10168015 -0.53505474 -0.71178871 75 137 117
-0.10350008 -0.53365052 -0.711546 69 137 115
-0.10290562 -0.53703195 -0.71276647 88 137 117
-0.10196979 -0.53504807 -0.71183473 75 138 116
-0.10320438 -0.53358263 -0.71146989 68 137 115
-0.10257479 -0.53691471 -0.71266514 87 137 117
-0.097354896 -0.53674614 -0.71180052 86 136 119
-0.09625487 -0.53632736 -0.7114709 86 135 119
-0.09779387 -0.53605098 -0.71153516 83 136 118
-0.099382326 -0.53625989 -0.71182746 82 138 118
-0.099522412 -0.53530192 -0.7114076 79 138 117
-0.095182613 -0.53689897 -0.71161884 89 134 120
-0.097829342 -0.53813714 -0.71245259 91 136 119
-0.09946157 -0.53725666 -0.71228617 85 139 117
-0.095969014 -0.53721517 -0.7118479 90 134 120
-0.098708011 -0.53790969 -0.71246475 89 137 119
-0.095620774 -0.53761965 -0.7119714 93 134 120
-0.10755013 -0.50077325 -0.69937891 107 139 118
-0.10533453 -0.50072426 -0.69855547 106 139 116
-0.10426765 -0.50333446 -0.69918412 104 138 115
-0.10378533 -0.50336015 -0.69902092 104 139 115
-0.10425926 -0.50395018 -0.69943094 106 139 115
-0.10387574 -0.50355339 -0.69913191 104 139 115
-0.10274782 -0.50490546 -0.69932723 105 138 115
-0.10251065 -0.50455886 -0.69911575 103 138 116
-0.092255041 -0.50550359 -0.6971817 104 141 118
-0.092841364 -0.50530368 -0.69719976 101 141 118
-0.10192944 -0.50613797 -0.69958895 104 138 116
-0.092466086 -0.50732982 -0.69795972 106 141 118
-0.093089573 -0.5088551 -0.69868988 106 140 119
-0.092527017 -0.5077517 -0.6981442 107 141 119
-0.094274588 -0.50959462 -0.69918215 100 140 118
-0.094279297 -0.50836188 -0.6986717 97 141 118
-0.093423575 -0.50970513 -0.69909459 106 140 119
-0.093243636 -0.50723374 -0.69804215 101 141 118
-0.094542444 -0.5084725 -0.69875973 95 141 118
-0.094432734 -0.51033753 -0.69952714 100 140 119
-0.0929012 -0.51013964 -0.69920099 110 140 120
-0.093001187 -0.5108937 -0.6995455 110 140 120
-0.12456659 -0.50949347 -0.71054655 89 148 114
-0.12575257 -0.50889283 -0.71098644 111 147 114
-0.11951985 -0.50841337 -0.70745546 96 137 118
-0.12090372 -0.50722694 -0.70776135 118 136 119
-0.1204598 -0.50822657 -0.70788032 106 137 118
-0.12138107 -0.50764787 -0.70815969 118 135 119
-0.11989437 -0.50955993 -0.7080639 83 139 117
-0.12161553 -0.50896335 -0.70876914 89 141 116
-0.12083942 -0.50838655 -0.70814025 104 137 118
-0.12124582 -0.50911498 -0.70862627 87 141 116
-0.12458722 -0.51113248 -0.71108198 85 147 112
-0.1232344 -0.50989288 -0.70997226 70 148 113
-0.12543602 -0.51014471 -0.71120661 95 148 112
-0.12324366 -0.50993294 -0.70999002 70 148 113
-0.12332331 -0.51267493 -0.71091896 69 146 112
-0.11915443 -0.50978106 -0.70774716 81 138 117
-0.11942423 -0.51089853 -0.70828766 79 138 117
-0.11997665 -0.51300579 -0.70932865 73 138 116
-0.12025309 -0.51259547 -0.70931631 73 139 115
-0.12094415 -0.51233333 -0.70956337 72 140 115
-0.12140346 -0.51293993 -0.7100119 70 142 114
-0.12196475 -0.51168257 -0.70986998 70 144 113
-0.12142141 -0.51120675 -0.70942461 72 143 114
-0.12281557 -0.51309907 -0.7107839 66 145 113
-0.12215373 -0.51049012 -0.7095868 70 145 114
-0.12170237 -0.51225567 -0.70991391 70 142 114
-0.12096334 -0.51014972 -0.70883757 75 142 115
-0.1180345 -0.51315325 -0.70846391 78 136 118
-0.11811031 -0.51359981 -0.70866096 77 136 118
-0.11778359 -0.51315022 -0.70834845 79 137 117
-0.1164103 -0.51306289 -0.70769078 83 137 119
-0.11802642 -0.51096678 -0.70766425 83 138 118
-0.11836819 -0.51071364 -0.70772779 82 138 118
-0.11773387 -0.51119423 -0.70761353 83 138 118
-0.12190705 -0.5159924 -0.71132481 79 142 113
-0.1213223 -0.51552689 -0.710908 73 141 113
-0.12105612 -0.51709723 -0.71129781 85 140 115
-0.12237386 -0.51410758 -0.71091783 66 144 112
-0.1199922 -0.51601458 -0.71043116 76 139 115
-0.12075312 -0.51534623 -0.71056515 73 140 114
-0.12026142 -0.5145036 -0.71001488 72 139 115
-0.12055722 -0.51403391 -0.70999062 70 139 114
-0.11975937 -0.51584858 -0.71025538 76 138 115
-0.11539318 -0.51433432 -0.70773232 87 137 119
-0.11765594 -0.51389414 -0.70857525 78 136 117
-0.11612923 -0.51505011 -0.70837313 86 136 118
-0.11743215 -0.51406366 -0.70854568 80 136 118
-0.11698376 -0.5140267 -0.70832562 81 137 118
-0.11552213 -0.51636922 -0.70865941 92 136 119
-0.11734263 -0.51723373 -0.70974666 87 137 117
-0.1181429 -0.5148682 -0.70920026 79 135 118
-0.11710118 -0.5175311 -0.70976007 89 137 117
-0.11909036 -0.51530212 -0.70973015 77 136 116
-0.118271 -0.51741976 -0.71017885 84 137 116
-0.11766874 -0.51551366 -0.7092489 83 135 118
-0.11492542 -0.51413101 -0.7074303 87 137 119
-0.11467549 -0.51550782 -0.70790219 90 137 119
-0.11372837 -0.51755726 -0.70833856 94 137 119
-0.11262918 -0.51673502 -0.70747924 90 139 119
-0.11521982 -0.51640832 -0.70853829 93 136 120
-0.12030582 -0.5176332 -0.71113181 86 139 114
-0.11823048 -0.51999837 -0.71112835 83 139 114
-0.11894517 -0.51781762 -0.7105909 82 138 115
-0.11823934 -0.51927644 -0.71086055 82 138 114
-0.1174502 -0.51995999 -0.71080643 83 138 115
-0.11610984 -0.51958185 -0.7101379 87 137 117
-0.1182171 -0.51812392 -0.7104196 83 138 115
-0.11593428 -0.51888144 -0.70980686 89 137 117
-0.11617612 -0.51768088 -0.70945239 92 136 118
-0.11552138 -0.52039206 -0.71021014 87 137 117
-0.11700752 -0.51885957 -0.71021998 86 137 117
-0.11262844 -0.51778769 -0.70792717 91 139 119
-0.11454996 -0.51797521 -0.70889258 93 137 119
-0.11165532 -0.51834249 -0.7077083 88 139 119
-0.11246675 -0.51793462 -0.70791405 91 138 119
-0.11348374 -0.51853746 -0.70863318 89 138 118
-0.11145625 -0.52050006 -0.7085098 77 141 117
-0.11304431 -0.51883155 -0.70855212 87 138 119
-0.11483211 -0.51872706 -0.70930451 91 137 119
-0.1134304 -0.52143121 -0.70972526 79 139 117
-0.11433209 -0.51968914 -0.7094537 87 137 118
-0.11367226 -0.52044302 -0.70945746 83 138 117
-0.11353918 -0.51966065 -0.70910841 85 138 118
-0.11368295 -0.52073765 -0.7095722 82 139 117
-0.10930169 -0.51999348 -0.70743436 75 142 116
-0.10838822 -0.52123946 -0.70758671 66 144 115
-0.11104061 -0.52123576 -0.70864087 73 141 116
-0.10962927 -0.52110428 -0.70802468 70 142 116
-0.10842267 -0.52101302 -0.70750666 67 143 115
-0.11574293 -0.52213573 -0.71093309 85 138 115
-0.11582016 -0.52268553 -0.71115476 84 140 114
-0.11453654 -0.52370477 -0.71104831 82 138 114
-0.11408908 -0.52286923 -0.710612 81 137 115
-0.11216944 -0.52477676 -0.71064597 75 137 114
-0.11258105 -0.5251928 -0.71092439 76 138 114
-0.11151063 -0.52481931 -0.71040851 73 136 115
-0.11258983 -0.52152354 -0.70940781 76 140 117
-0.11444789 -0.52198899 -0.71039742 82 138 116
-0.11220375 -0.52411067 -0.71038789 75 137 115
-0.11256181 -0.52348673 -0.71026331 76 137 115
-0.11343832 -0.52240717 -0.7101562 79 138 116
-0.11028947 -0.52149671 -0.70845032 70 142 116
-0.1086629 -0.52274799 -0.70838052 65 141 116
-0.10969909 -0.52281153 -0.7088238 68 140 116
-0.10758432 -0.52436477 -0.70870036 61 139 116
-0.10969748 -0.52198708 -0.70844036 68 142 116
-0.1074602 -0.52391762 -0.70844322 61 140 116
-0.10989322 -0.5232603 -0.70910197 67 140 116
-0.11072179 -0.5245834 -0.70999873 70 137 115
-0.10916765 -0.52434617 -0.70930833 65 138 117
-0.11043192 -0.5244934 -0.70984977 69 138 116
-0.10935752 -0.52469993 -0.70953608 66 138 116
-0.11099962 -0.52186644 -0.70890319 71 141 116
-0.10399353 -0.5251869 -0.70812571 87 136 123
-0.10439349 -0.52514726 -0.70821249 83 136 122
-0.10639559 -0.52472502 -0.70854211 69 139 118
-0.10426439 -0.52411193 -0.70771611 88 138 122
-0.10627916 -0.52367771 -0.70802623 71 139 118
-0.1071176 -0.52220583 -0.70755589 65 142 116
-0.10580635 -0.52461648 -0.70834202 74 138 119
-0.10552698 -0.52294356 -0.70749438 78 140 119
-0.10141249 -0.52507526 -0.70743066 95 137 121
-0.10311338 -0.52480799 -0.70773244 92 137 123
-0.11172112 -0.52655303 -0.71118224 76 138 114
-0.11000506 -0.5280351 -0.71119666 72 138 115
-0.11021592 -0.52779931 -0.71117407 72 138 115
-0.11027135 -0.52684164 -0.71080762 70 137 115
-0.10832722 -0.52924365 -0.7111128 66 138 115
-0.10972893 -0.52655333 -0.71049291 68 137 115
-0.10887159 -0.52779394 -0.71071577 66 138 115
-0.10818897 -0.52788979 -0.71050072 64 138 115
-0.10814895 -0.52772361 -0.7104125 63 137 115
-0.10940481 -0.52590239 -0.71008426 66 137 115
-0.1079699 -0.52576882 -0.70948476 62 138 116
-0.105744 -0.52789199 -0.70976406 72 137 118
-0.10460418 -0.5292868 -0.70998359 68 139 118
-0.10351754 -0.52675879 -0.70864224 83 137 122
-0.1036988 -0.52837026 -0.70934427 75 138 120
-0.10436874 -0.52781725 -0.70932245 76 138 120
-0.10665623 -0.52893889 -0.71045786 65 138 116
-0.1048974 -0.5256421 -0.70856321 79 137 121
-0.10715906 -0.52605641 -0.70933616 63 138 118
-0.10567814 -0.52549273 -0.70870137 74 136 120
-0.10703599 -0.52672577 -0.7095986 64 137 117
-0.10675287 -0.52736878 -0.70980769 66 138 117
-0.10715686 -0.52780551 -0.71010536 64 137 116
-0.10310882 -0.52544934 -0.7080161 90 136 123
-0.10091819 -0.5274092 -0.70833892 86 137 121
-0.10107277 -0.52616119 -0.70782214 91 136 121
-0.09986341 -0.52650642 -0.70767254 92 137 120
-0.099752635 -0.52702582 -0.70787597 89 138 120
-0.10028926 -0.52631652 -0.70769477 91 137 120
-0.10237088 -0.52677715 -0.70841146 86 136 122
-0.10252482 -0.52740884 -0.70869726 82 138 122
-0.10333601 -0.52576894 -0.70820653 88 136 123
-0.1026124 -0.52887446 -0.70930457 75 139 120
-0.10220363 -0.52741665 -0.70863378 83 137 121
-0.096004739 -0.52809119 -0.70757437 79 137 118
-0.095908783 -0.52877033 -0.70787644 75 137 118
-0.098875985 -0.52797318 -0.70811075 85 137 119
-0.097048067 -0.5281173 -0.70779842 81 137 119
-0.097821005 -0.52798831 -0.70790017 83 137 119
-0.097507611 -0.52725714 -0.70751017 85 138 119
-0.098739482 -0.5289312 -0.70850909 80 138 119
-0.094350837 -0.52844208 -0.70749831 77 139 117
-0.094885573 -0.52859133 -0.70764107 77 138 118
-0.10815953 -0.52942657 -0.7111274 67 137 116
-0.10705348 -0.52998406 -0.71100324 66 138 115
-0.10620493 -0.53072733 -0.71107918 66 138 115
-0.1069571 -0.52967846 -0.71085882 63 138 115
-0.10418918 -0.52977276 -0.71007168 68 139 118
-0.10558669 -0.5294466 -0.71034718 66 138 117
-0.10504908 -0.53101677 -0.71087348 65 138 116
-0.10364611 -0.5305199 -0.71023613 69 139 117
-0.10406502 -0.53251588 -0.71123499 65 137 115
-0.10311805 -0.5325532 -0.71099377 67 137 116
-0.10287705 -0.53102964 -0.71026921 70 138 117
-0.10145314 -0.53244334 -0.71055025 71 138 117
-0.10346515 -0.52947038 -0.70972592 70 140 118
-0.10257345 -0.53236276 -0.71078098 69 138 116
-0.10252117 -0.53105557 -0.71019602 70 138 118
-0.099982135 -0.53239197 -0.71019149 74 138 118
-0.10014756 -0.53222132 -0.71015614 74 138 118
-0.10134451 -0.53004771 -0.7095176 75 138 119
-0.10011294 -0.53260702 -0.71030641 73 138 117
-0.10023776 -0.53075916 -0.70957816 77 137 119
-0.09994486 -0.53063524 -0.70946681 78 138 119
-0.097006194 -0.5318436 -0.70945334 73 138 117
-0.09712556 -0.5325855 -0.70981634 73 138 116
-0.096598282 -0.53253895 -0.70972234 73 138 116
-0.096852489 -0.53068852 -0.70889264 73 137 118
-0.097742312 -0.53254932 -0.70988387 73 138 117
-0.097238295 -0.53169888 -0.70941752 73 138 117
-0.098252118 -0.53033984 -0.70901048 76 138 118
-0.095956333 -0.52950948 -0.70822144 73 137 118
-0.096433878 -0.52976185 -0.70841807 73 137 118
-0.099034637 -0.53046948 -0.70921683 78 138 119
-0.099500164 -0.53123122 -0.70961899 77 138 118
-0.0993618 -0.53231275 -0.71003318 75 138 118
-0.094228089 -0.53256643 -0.70944512 73 138 117
-0.092188865 -0.53140879 -0.70866334 74 141 117
-0.093175061 -0.53293335 -0.70952445 72 140 117
-0.092386372 -0.53085542 -0.70840579 75 141 117
-0.094248511 -0.53309679 -0.70971268 72 139 116
-0.092415705 -0.53053337 -0.70824736 75 141 117
-0.09321814 -0.53012991 -0.70814461 75 140 117
-0.093005367 -0.52942044 -0.70778489 75 141 117
-0.094717123 -0.53111726 -0.70880467 73 138 117
-0.093526132 -0.53054303 -0.70837849 74 140 117
-0.093940504 -0.53095323 -0.70862508 74 139 117
-0.095112346 -0.53111637 -0.70885676 73 138 117
-0.091702424 -0.5302977 -0.70805591 76 141 117
-0.090704963 -0.53217238 -0.7088657 78 141 117
-0.090848848 -0.53099811 -0.70829624 80 140 118
-0.090860344 -0.53069955 -0.70814824 80 140 118
-0.091654897 -0.53228313 -0.70904398 73 141 117
-0.102355 -0.53360152 -0.71128225 69 138 115
-0.10181898 -0.53323811 -0.7109862 69 138 116
-0.1019287 -0.53332841 -0.71105415 69 138 116
-0.098739967 -0.53507173 -0.7112034 80 137 117
-0.097213686 -0.53518891 -0.71106523 82 136 118
-0.096574202 -0.5357337 -0.71123761 84 136 119
-0.096476287 -0.53453493 -0.71065354 79 137 117
-0.0958139 -0.53405184 -0.71033156 77 136 117
-0.096319452 -0.53451777 -0.71062386 79 137 117
-0.096971668 -0.53395557 -0.71044397 77 136 118
-0.095859945 -0.53454542 -0.71057415 79 137 117
-0.095482342 -0.53491223 -0.7107048 81 136 118
-0.094601616 -0.53519446 -0.71074617 82 137 118
-0.095660202 -0.53374642 -0.71016556 76 137 117
-0.094667137 -0.53523248 -0.71077138 82 137 118
-0.092879944 -0.53384548 -0.7099331 75 140 117
-0.093041398 -0.53417444 -0.71010411 77 140 117
-0.091832235 -0.53605044 -0.71086848 84 141 118
-0.093909264 -0.53357911 -0.70990956 74 139 116
-0.092123188 -0.5352152 -0.71050364 80 140 117
-0.091701917 -0.53552556 -0.7106089 82 141 118
-0.091758668 -0.53340286 -0.70961374 72 141 117
-0.09031114 -0.53481948 -0.71014762 80 140 118
-0.091456115 -0.53343755 -0.70959812 73 141 117
-0.091323592 -0.53349835 -0.70961189 74 141 117
-0.11526051 -0.50358278 -0.70378083 101 141 117
-0.11573457 -0.50384724 -0.70409924 99 142 116
-0.11592806 -0.50325304 -0.7039699 101 142 116
-0.11698006 -0.50370175 -0.70462549 101 143 115
-0.11605099 -0.50387114 -0.7042554 100 142 115
-0.11690586 -0.50434488 -0.70482588 99 143 114
-0.11617818 -0.50545764 -0.7048918 97 140 115
-0.11552647 -0.50570059 -0.70468456 95 140 115
-0.11398544 -0.50525022 -0.70382905 95 140 117
-0.11498852 -0.50533593 -0.70430672 95 140 116
-0.11459889 -0.5049116 -0.70397675 96 140 116
-0.11972111 -0.50603056 -0.70672929 116 136 119
-0.11853962 -0.50962329 -0.70740372 82 138 117
-0.11641528 -0.5097093 -0.70647323 82 138 117
-0.11625984 -0.50971597 -0.70640528 82 138 117
-0.118037 -0.50860375 -0.70682168 91 138 117
-0.11820044 -0.50936455 -0.70716006 84 138 117
-0.11859463 -0.50848097 -0.70703101 92 138 118
-0.11626 -0.50804657 -0.70582628 92 138 117
-0.11760861 -0.50695348 -0.70605505 102 138 117
-0.11716725 -0.50651759 -0.70570594 101 138 117
-0.11665879 -0.50613874 -0.70534641 99 138 116
-0.1172464 -0.5074383 -0.70605969 98 138 117
-0.11626696 -0.5074361 -0.70561844 94 138 117
-0.11149156 -0.50747782 -0.70353407 92 139 118
-0.11394711 -0.5062893 -0.70419335 93 140 116
-0.11358075 -0.50704396 -0.70430529 93 140 117
-0.11178869 -0.50757045 -0.70369995 92 139 118
-0.1124631 -0.50816327 -0.70421594 91 140 118
-0.1118253 -0.50810248 -0.70391011 91 140 118
-0.11443827 -0.50687355 -0.70462054 93 139 117
-0.11512206 -0.50917685 -0.70570773 84 139 117
-0.11300205 -0.50889355 -0.70470667 89 140 118
-0.11282346 -0.50886095 -0.70461935 89 140 118
-0.11416915 -0.50804657 -0.70491117 89 139 117
-0.11483052 -0.50799203 -0.70517415 88 139 116
-0.10967784 -0.50961715 -0.70355517 98 140 120
-0.1105157 -0.50889224 -0.70363915 94 139 119
-0.11764294 -0.51005185 -0.70715153 82 138 117
-0.11558274 -0.51265603 -0.70716566 84 138 118
-0.11753949 -0.51018709 -0.70715386 82 138 117
-0.1162082 -0.51054198 -0.70668095 82 138 117
-0.11643541 -0.51071334 -0.70684588 82 138 117
-0.11179836 -0.51053315 -0.70478737 90 140 119
-0.11271121 -0.5134533 -0.70632792 95 138 119
-0.11414638 -0.51263791 -0.7065407 87 138 119
-0.11323506 -0.51274908 -0.7062394 91 138 119
-0.11158846 -0.51330537 -0.70584029 99 138 120
-0.11377627 -0.51244789 -0.70632225 89 138 119
-0.11470512 -0.51222843 -0.70662767 86 138 119
-0.11237547 -0.51022995 -0.70490962 88 139 119
-0.11332518 -0.50983429 -0.70517063 86 139 119
-0.11387483 -0.51095366 -0.70581114 86 139 118
-0.11447599 -0.5115701 -0.70629102 86 138 119
-0.112963 -0.5110321 -0.70545113 88 139 119
-0.10790776 -0.51149225 -0.70359087 108 139 120
-0.10847036 -0.51103568 -0.70363498 105 139 120
-0.10935901 -0.51134354 -0.70413315 101 140 119
-0.10762636 -0.51329583 -0.7042262 112 139 120
-0.11036067 -0.51030552 -0.70411718 95 140 120
-0.11015354 -0.51200557 -0.70473111 100 139 120
-0.11049997 -0.51255286 -0.70509601 100 139 120
-0.11060815 -0.51139832 -0.7046684 97 139 120
-0.11082942 -0.5117138 -0.70488751 97 139 120
-0.11101449 -0.51304162 -0.70550561 100 138 120
-0.1080617 -0.51346189 -0.70447302 111 139 120
-0.10739078 -0.51256204 -0.70382547 112 139 120
-0.105784 -0.51317328 -0.70360005 114 140 119
-0.11208016 -0.51688522 -0.70728791 89 140 118
-0.11303901 -0.51452553 -0.70683563 92 138 119
-0.11199548 -0.5140124 -0.70626205 97 138 119
-0.1114943 -0.51399946 -0.70606691 99 138 120
-0.11229966 -0.51444393 -0.70652628 95 138 119
-0.11164387 -0.51465601 -0.70634979 97 138 119
-0.1130624 -0.51397467 -0.70665497 94 138 119
-0.10884067 -0.51631075 -0.70585483 102 139 120
-0.10969535 -0.5161764 -0.70610017 99 139 119
-0.10910405 -0.51618785 -0.70589763 101 140 120
-0.11077709 -0.51743573 -0.70698488 92 140 119
-0.10770214 -0.51560587 -0.70517296 107 140 120
-0.10757633 -0.51553214 -0.70509928 107 140 120
-0.10897323 -0.51440489 -0.70518285 106 139 120
-0.1103994 -0.51486307 -0.70592213 101 138 120
-0.1111344 -0.51555091 -0.70645857 97 138 120
-0.11131719 -0.51506382 -0.70636553 98 138 120
-0.10782383 -0.51374733 -0.7044878 112 139 120
-0.1094139 -0.51470077 -0.70546436 104 139 120
-0.1062669 -0.51381606 -0.70400989 114 139 119
-0.10412821 -0.51579946 -0.70416754 115 140 119
-0.10472608 -0.51573843 -0.70432264 115 140 120
-0.1039144 -0.51461834 -0.70362616 115 141 118
-0.10362771 -0.51639056 -0.70425588 115 141 120
-0.1035369 -0.51537526 -0.7038185 115 141 118
-0.10566109 -0.51644152 -0.7048853 112 140 121
-0.10738094 -0.51695478 -0.70560443 105 140 121
-0.10691893 -0.5174818 -0.70567828 104 141 121
-0.1071393 -0.51607019 -0.70517695 107 140 121
-0.10621758 -0.51736963 -0.70542407 107 141 121
-0.1053466 -0.51719725 -0.70509505 111 140 121
-0.10276832 -0.5169903 -0.70425987 114 140 120
-0.10204551 -0.5170694 -0.70409381 112 141 119
-0.10182785 -0.51602536 -0.70361245 112 141 118
-0.10061003 -0.51675344 -0.70357305 110 141 117
-0.11076487 -0.51847702 -0.70738775 86 140 118
-0.1088915 -0.51888579 -0.70686245 85 141 118
-0.10797925 -0.51837724 -0.70635599 93 141 120
-0.10788746 -0.51876754 -0.70646733 89 141 119
-0.10743908 -0.52129298 -0.70723873 64 143 115
-0.1089976 -0.51988858 -0.7072683 74 142 116
-0.10896142 -0.51978821 -0.70721865 76 141 117
-0.10416596 -0.519912 -0.70584965 102 141 121
-0.10458504 -0.52091199 -0.7063753 94 142 121
-0.10474504 -0.52086598 -0.70639437 92 141 121
-0.10490134 -0.52032876 -0.70620406 92 142 120
-0.10448095 -0.52077615 -0.70629245 95 141 121
-0.10550353 -0.52013338 -0.70626652 87 142 118
-0.10732927 -0.51774794 -0.7059018 101 141 121
-0.10617375 -0.51974964 -0.70629311 85 142 118
-0.10686978 -0.51883936 -0.70616603 91 142 119
-0.10733234 -0.52131778 -0.70721513 64 143 115
-0.10614364 -0.51932478 -0.70612788 89 142 118
-0.10124072 -0.52098477 -0.70555949 104 141 121
-0.099829182 -0.52124536 -0.70531476 104 140 120
-0.0997435 -0.52108347 -0.70522135 104 140 120
-0.10145036 -0.52062428 -0.70545369 104 141 121
-0.099667147 -0.51949042 -0.70449841 106 141 119
-0.10140799 -0.52023935 -0.70527291 105 140 121
-0.10274123 -0.51967436 -0.70538104 107 140 122
-0.10276449 -0.51805872 -0.70470154 112 141 121
-0.10205721 -0.51943243 -0.70509225 106 141 121
-0.10256891 -0.51833546 -0.70476586 111 140 121
-0.10166632 -0.51955765 -0.70503908 105 141 121
-0.10171071 -0.51829964 -0.70451713 109 141 119
-0.095883422 -0.5201692 -0.70406419 99 141 118
-0.097787768 -0.51911128 -0.70396411 104 141 118
-0.097680941 -0.51929444 -0.7040242 104 141 118
-0.097067177 -0.5199222 -0.70418262 102 140 118
-0.097902291 -0.52144462 -0.70501626 102 140 119
-0.098050863 -0.52141917 -0.70503378 102 140 120
-0.099062428 -0.51865858 -0.70401043 106 141 118
-0.098981231 -0.52105266 -0.70505202 103 140 120
-0.098552391 -0.52109373 -0.70498711 103 140 120
-0.098942898 -0.51934749 -0.70429152 105 141 118
-0.095482238 -0.52118748 -0.70443219 98 141 118
-0.10361426 -0.522313 -0.70674992 99 140 123
-0.10365858 -0.52286649 -0.7070052 96 140 123
-0.10361363 -0.5232538 -0.70716542 95 139 123
-0.10441741 -0.52247435 -0.7070151 89 141 122
-0.10246473 -0.52408385 -0.70725065 95 138 122
-0.10325117 -0.52195972 -0.70650518 101 140 124
-0.10289551 -0.52221358 -0.70652992 101 140 123
-0.10070527 -0.52443129 -0.70697153 99 138 121
-0.10111123 -0.52374536 -0.70676678 99 138 121
-0.10072935 -0.52354395 -0.70657861 100 139 121
-0.10058463 -0.52237546 -0.70601475 102 139 121
-0.10179822 -0.52319419 -0.70669341 100 139 122
-0.099884823 -0.52347142 -0.70633066 100 139 120
-0.10234461 -0.52227896 -0.70641983 101 140 122
-0.096244715 -0.52287132 -0.70531428 97 138 119
-0.097746059 -0.52497584 -0.70653671 96 137 120
-0.098510101 -0.52537149 -0.7068736 97 136 120
-0.097599335 -0.52347749 -0.70587128 98 139 119
-0.098761089 -0.52521002 -0.7068612 97 137 120
-0.09617696 -0.52345514 -0.70554578 97 138 119
-0.096532367 -0.52228761 -0.70513093 99 139 118
-0.099428102 -0.52210999 -0.70561123 103 140 120
-0.098970585 -0.52212477 -0.70552939 102 140 119
-0.097740091 -0.52159661 -0.70505309 101 140 119
-0.097637005 -0.52278137 -0.70556742 99 139 119
-0.094765432 -0.52326542 -0.70516092 93 141 118
-0.095173247 -0.5228976 -0.70509231 95 140 119
-0.095583133 -0.52334899 -0.70537013 95 138 119
-0.094368055 -0.52378494 -0.70529568 91 142 118
-0.095103331 -0.52213579 -0.70475572 96 141 118
-0.094806761 -0.52422726 -0.70557582 92 140 119
-0.09773168 -0.52673608 -0.70732874 88 137 119
-0.098639376 -0.52625519 -0.70730281 92 137 119
-0.097648978 -0.5254063 -0.70669758 95 136 120
-0.096461415 -0.52556401 -0.70650703 93 136 119
-0.096459508 -0.5272634 -0.70729691 84 137 119
-0.09609995 -0.52602708 -0.70664203 90 136 119
-0.095080741 -0.52738529 -0.70710272 83 137 118
-0.093833052 -0.52788311 -0.70716828 82 139 118
-0.094450563 -0.52813023 -0.70736533 79 138 118
-0.095700674 -0.52756274 -0.70726764 81 137 118
-0.092582077 -0.52732491 -0.70671201 84 140 117
-0.092571117 -0.52689064 -0.70649451 85 140 117
-0.092024811 -0.52828932 -0.70710051 80 141 117
-0.091931112 -0.52816737 -0.70702475 80 141 117
-0.091423452 -0.52859163 -0.70716441 81 141 118
-0.091530569 -0.52703303 -0.70640445 85 141 117
0 0 0 1 0 0 0 1 0 0 0 1 0 0 0 0 0 700 1 0 0
