ply
format ascii 1.0
comment PCL generated
element vertex 778
property float x
property float y
property float z
property uchar red
property uchar green
property uchar blue
element camera 1
property float view_px
property float view_py
property float view_pz
property float x_axisx
property float x_axisy
property float x_axisz
property float y_axisx
property float y_axisy
property float y_axisz
property float z_axisx
property float z_axisy
property float z_axisz
property float focal
property float scalex
property float scaley
property float centerx
property float centery
property int viewportx
property int viewporty
property float k1
property float k2
end_header
-0.20207053 0.37431261 -0.80878001 101 144 104
-0.20186529 0.37477082 -0.80869609 98 144 105
-0.20265774 0.37118942 -0.80874556 118 146 103
-0.20247968 0.37172642 -0.80871421 112 147 102
-0.20326334 0.36968639 -0.80890071 135 142 106
-0.20192644 0.37049586 -0.80817926 126 143 105
-0.20183674 0.37091014 -0.80818552 119 145 104
-0.20321396 0.3693715 -0.80882186 140 141 108
-0.20216532 0.37138993 -0.8084659 109 149 101
-0.19847563 0.36929265 -0.80613518 133 140 111
-0.19932739 0.36920297 -0.80656266 140 138 111
-0.19986005 0.36962047 -0.80686069 139 136 112
-0.19907293 0.36920041 -0.80643308 138 138 111
-0.19904558 0.36935753 -0.80642927 136 138 112
-0.19773419 0.36994603 -0.80580032 123 141 112
-0.20097125 0.37092093 -0.80764765 122 142 105
-0.19974634 0.3710708 -0.80694067 121 138 111
-0.20006756 0.37042156 -0.80703348 132 136 112
-0.20063847 0.37285292 -0.80774266 88 152 100
-0.20079069 0.37220666 -0.80773526 100 148 102
-0.19991834 0.37290746 -0.80732197 88 149 103
-0.19685464 0.37010619 -0.80537748 114 141 113
-0.20282413 0.3685441 -0.80846816 136 137 110
-0.20360683 0.36612889 -0.80866933 97 134 114
-0.20317125 0.36742881 -0.80855203 119 135 112
-0.20243032 0.36876771 -0.80824655 141 136 110
-0.20151988 0.36527082 -0.80727875 97 138 116
-0.20156334 0.36721769 -0.80752403 124 135 114
-0.20157172 0.36558235 -0.80734587 101 138 115
-0.20221764 0.36653459 -0.80785304 111 134 114
-0.20203823 0.36615649 -0.80769944 106 135 115
-0.19912831 0.36711043 -0.80622345 111 141 114
-0.19785176 0.36809099 -0.80567276 115 142 112
-0.1989089 0.36678132 -0.80605423 103 142 112
-0.1993086 0.36542681 -0.80606985 82 142 111
-0.19861402 0.36757439 -0.80601192 114 141 113
-0.19959122 0.36740902 -0.80649871 119 139 114
-0.19937414 0.36743563 -0.80639124 118 139 114
-0.20047008 0.36600599 -0.80678844 105 139 115
-0.20077881 0.36588669 -0.80693215 105 138 115
-0.20081711 0.36815506 -0.80720598 136 135 113
-0.20070198 0.36728486 -0.80704981 124 136 114
-0.20293447 0.36406186 -0.80803055 111 138 114
-0.20307818 0.36450279 -0.80816519 102 137 114
-0.20169954 0.36508197 -0.80737036 99 137 116
-0.2043467 0.36449826 -0.8089512 94 135 114
-0.2038665 0.36499056 -0.80870432 87 135 115
-0.20148006 0.36396852 -0.80707294 109 137 115
-0.20149909 0.3620559 -0.80679435 121 135 114
-0.20119566 0.36399528 -0.80688614 107 137 115
-0.20208423 0.36318022 -0.80735815 119 137 114
-0.20334706 0.36135447 -0.80792737 139 137 111
-0.20241538 0.36327764 -0.80759519 120 138 114
-0.20109464 0.36150941 -0.80644959 121 134 114
-0.20057805 0.36428529 -0.80659127 95 138 114
-0.19933425 0.36218068 -0.80559385 87 139 110
-0.20059028 0.36167791 -0.80620074 111 136 113
-0.19938861 0.36502779 -0.80605358 80 142 111
-0.20016773 0.36480269 -0.80644524 88 140 113
-0.19950779 0.3642545 -0.80600196 83 140 111
-0.20004058 0.36441633 -0.80631745 88 139 113
-0.19958663 0.3637802 -0.80597347 85 140 111
-0.20515378 0.3596324 -0.80891746 140 138 110
-0.20383111 0.36130735 -0.80824423 142 138 110
-0.20321833 0.36077896 -0.80774587 135 136 112
-0.20394033 0.36044878 -0.80817825 139 137 111
-0.20353465 0.36002403 -0.80784631 133 136 112
-0.20450582 0.35861775 -0.80828756 133 136 112
-0.20308781 0.35964912 -0.80749416 128 135 113
-0.20338139 0.35998461 -0.80773854 132 136 112
-0.20221107 0.35949221 -0.80673623 115 135 114
-0.20119904 0.35907742 -0.80573058 95 136 114
-0.20386668 0.35830548 -0.80775422 125 136 113
-0.20192116 0.36047187 -0.80681741 123 135 113
-0.20291275 0.3590025 -0.80717206 119 135 113
-0.20228896 0.3592436 -0.8067193 113 135 113
-0.20387313 0.35827488 -0.80774945 125 135 113
-0.2008536 0.36072117 -0.80609006 111 135 113
-0.20037176 0.35848203 -0.80508727 76 138 113
-0.20024943 0.36130822 -0.80595547 108 136 112
-0.19974169 0.36080328 -0.80551213 93 138 110
-0.201814 0.35603708 -0.80552965 84 134 118
-0.20252629 0.35358256 -0.80570066 97 129 124
-0.20332466 0.35680386 -0.80702317 107 135 115
-0.20473354 0.35640261 -0.80824822 130 133 116
-0.2016343 0.35698628 -0.80556768 80 136 116
-0.20502461 0.35637367 -0.80849874 134 133 116
-0.20352453 0.3569192 -0.80718863 110 135 115
-0.20309493 0.35183844 -0.80644387 97 140 113
-0.20263916 0.35176712 -0.80591208 88 141 113
-0.20201693 0.35326684 -0.80509764 86 132 122
-0.20285456 0.35329822 -0.80608046 102 130 123
-0.20214325 0.3524445 -0.80529159 83 138 117
-0.20337734 0.34507233 -0.80669248 87 142 114
-0.20319805 0.34504306 -0.80650753 90 141 114
-0.21343909 0.37113154 -0.81933701 155 135 112
-0.2138083 0.37040195 -0.81972766 149 134 113
-0.2134192 0.37105438 -0.81931227 154 135 112
-0.2129018 0.37136069 -0.81874168 154 135 111
-0.21242127 0.36933956 -0.81810296 148 130 115
-0.21278852 0.37242693 -0.81864154 172 137 111
-0.21273342 0.36976594 -0.81848979 141 131 114
-0.21414477 0.36881655 -0.82006538 138 131 115
-0.21420413 0.36718285 -0.82013667 148 132 114
-0.21391754 0.36812982 -0.81981248 140 132 114
-0.21320188 0.36685753 -0.81907886 145 133 113
-0.21318074 0.36740363 -0.81903321 141 132 114
-0.2129696 0.36571652 -0.81888831 154 135 113
-0.21217911 0.36566821 -0.81785285 139 135 113
-0.2126527 0.36593017 -0.81847757 147 135 113
-0.21273655 0.36792716 -0.81850338 133 132 113
-0.21239915 0.36830688 -0.81805867 133 131 114
-0.21197064 0.36801144 -0.81754237 145 131 115
-0.21183036 0.36753073 -0.81736809 144 132 115
-0.21447137 0.36379629 -0.82066494 154 134 113
-0.21436863 0.36400402 -0.82052946 155 134 113
-0.21441853 0.36447477 -0.82051474 158 134 113
-0.21301877 0.36346605 -0.81913573 149 134 113
-0.21327576 0.36208385 -0.81956428 142 133 113
-0.21370564 0.36268157 -0.8200264 146 135 112
-0.21230766 0.36349031 -0.81812567 157 131 115
-0.21227367 0.36178502 -0.8182252 150 128 115
-0.21259287 0.36282247 -0.81860214 150 131 114
-0.21192957 0.36173037 -0.8177256 155 126 117
-0.21152033 0.36377224 -0.81704062 143 130 115
-0.21249653 0.36450508 -0.81832492 156 133 114
-0.21145755 0.36377183 -0.81695634 142 130 115
-0.2129869 0.36129001 -0.81928444 139 131 113
-0.21395667 0.36115855 -0.82044393 141 134 112
-0.21372135 0.36072567 -0.82015872 145 133 113
-0.21313526 0.35892138 -0.81946874 162 131 116
-0.21302453 0.35789657 -0.81934905 172 133 117
-0.21371023 0.35752624 -0.82014024 176 132 117
-0.21216482 0.3587023 -0.81804419 160 133 115
-0.21233994 0.35965866 -0.8183133 152 132 114
-0.21244285 0.35985583 -0.81847411 151 132 114
-0.21204562 0.35850078 -0.81785774 161 133 115
-0.21145892 0.36064106 -0.81704623 161 125 118
-0.21182585 0.35958451 -0.81754601 158 130 116
-0.21173275 0.35985509 -0.81741929 158 129 117
-0.21384998 0.35534802 -0.82025838 151 131 118
-0.21361332 0.35553211 -0.8199901 153 131 118
-0.21328101 0.35667235 -0.81963181 167 132 117
-0.21388406 0.3535375 -0.82017046 120 132 119
-0.21357797 0.3554388 -0.81994438 151 132 118
-0.21296056 0.35683203 -0.81923395 166 133 117
-0.21327078 0.35523468 -0.81949741 142 132 117
-0.21240053 0.35548791 -0.81827962 146 135 115
-0.21225774 0.35506874 -0.81802696 139 136 114
-0.21278161 0.3551392 -0.81880105 134 134 116
-0.21172777 0.35728654 -0.81735569 169 134 116
-0.21234149 0.35665584 -0.8182829 164 134 115
-0.2115348 0.35682562 -0.81702155 161 135 115
-0.21206711 0.35739681 -0.81789798 171 134 116
-0.21312591 0.35290375 -0.81911343 105 136 114
-0.21386544 0.35176048 -0.82013059 124 133 115
-0.21311072 0.35309723 -0.81909364 105 135 115
-0.2132532 0.35228127 -0.81929332 111 135 114
-0.21327367 0.35208467 -0.81932527 112 135 113
-0.21350783 0.35121354 -0.81965148 120 134 113
-0.21321721 0.3486886 -0.81936419 122 135 112
-0.21388827 0.34814015 -0.82025361 129 133 113
-0.21419622 0.34818697 -0.82064825 134 131 114
-0.21319816 0.34615803 -0.81930393 116 132 113
-0.21357565 0.34705678 -0.81987423 122 133 113
-0.21307662 0.34834772 -0.81915718 120 135 111
-0.21256118 0.34581441 -0.81832671 111 134 111
-0.21388626 0.34491688 -0.82023787 134 127 116
-0.21352457 0.34564382 -0.8197732 120 130 114
-0.21336529 0.34460932 -0.81944013 134 128 116
-0.21346332 0.34365356 -0.8195107 147 125 117
-0.21307546 0.34375268 -0.81897402 143 125 117
-0.21385047 0.34183976 -0.81993347 176 119 121
-0.21323778 0.34283337 -0.81914079 156 123 119
-0.21227512 0.34347659 -0.81784225 128 129 116
-0.21231377 0.34328836 -0.81788355 132 128 116
-0.21189237 0.34256887 -0.81725103 130 129 116
-0.21245088 0.34447494 -0.81814557 119 132 114
-0.21224992 0.34481901 -0.81783104 116 133 112
-0.21229841 0.34420207 -0.81790441 120 132 113
-0.21294056 0.34177202 -0.8186692 168 120 121
-0.21323627 0.34060746 -0.81967914 166 122 119
-0.21325035 0.34050274 -0.81975245 166 121 119
-0.21387237 0.34073919 -0.82050252 173 120 119
-0.21281326 0.34099504 -0.81886834 164 122 119
-0.21284094 0.34074908 -0.81904125 163 122 119
-0.22110662 0.36543533 -0.83638221 167 126 117
-0.22087276 0.36638495 -0.83637977 178 127 118
-0.21548198 0.3614088 -0.83840996 175 134 116
-0.2154666 0.36203244 -0.83845693 178 134 116
-0.21552569 0.36181793 -0.83913893 180 133 117
-0.21539336 0.36171952 -0.83738291 173 135 115
-0.21550973 0.36162305 -0.83885473 178 134 117
-0.21517146 0.36260259 -0.83653581 163 136 114
-0.21533412 0.3623592 -0.83716822 173 135 115
-0.21499215 0.36399207 -0.83669686 159 137 115
-0.21531239 0.36036545 -0.83959365 186 132 117
-0.21535893 0.35763973 -0.84019053 185 138 112
-0.21465154 0.35954425 -0.83633083 184 131 115
-0.21522215 0.36046949 -0.83920765 186 132 118
-0.21545164 0.36131978 -0.83802468 173 135 116
-0.21355915 0.35361403 -0.83800793 138 134 114
-0.2135796 0.35358804 -0.83804661 137 133 115
-0.21293938 0.35425717 -0.83689082 174 131 114
-0.21461402 0.35417363 -0.83923978 101 133 116
-0.21372756 0.35608143 -0.83700866 178 129 117
-0.2147608 0.35421953 -0.83938587 96 133 116
-0.21311989 0.35537654 -0.83672136 181 129 116
-0.21521515 0.35659912 -0.83999401 162 137 113
-0.21529873 0.35701314 -0.84014112 173 138 113
-0.21499974 0.3555907 -0.83960509 135 135 115
-0.21282339 0.35352615 -0.83703578 165 133 113
-0.21335344 0.35149619 -0.83647656 145 143 109
-0.21473157 0.35319918 -0.83949459 83 137 114
-0.2139111 0.35135657 -0.83713639 122 145 107
-0.2141228 0.35198608 -0.83784521 112 142 110
-0.21417473 0.35004562 -0.83665562 112 152 104
-0.21373807 0.35276052 -0.83780575 129 138 112
-0.21370253 0.35226333 -0.83743197 131 140 110
-0.21490312 0.35257027 -0.83943635 76 139 114
-0.21452491 0.35110494 -0.83788449 95 147 108
-0.21465686 0.34964228 -0.83905405 87 138 113
-0.21478689 0.35000414 -0.83963275 81 135 116
-0.21465459 0.35087395 -0.83864999 88 142 111
-0.21474484 0.34665504 -0.839773 100 132 118
-0.2145468 0.34781983 -0.83887082 101 133 119
-0.21475634 0.34847069 -0.83975643 89 131 119
-0.2142536 0.34821129 -0.83729672 113 142 112
-0.21423462 0.34876478 -0.8370434 112 146 109
-0.21439286 0.34926394 -0.83775061 102 145 109
-0.21412857 0.34790188 -0.83671445 120 144 111
-0.21406475 0.34755263 -0.83646977 125 143 112
-0.20794497 0.37790856 -0.81351012 150 136 111
-0.20787567 0.37786826 -0.81344408 148 136 112
-0.20729929 0.37846935 -0.81303519 138 137 112
-0.20789008 0.37842241 -0.81351304 150 136 112
-0.20906386 0.37472466 -0.81429344 162 133 111
-0.20863836 0.37305459 -0.81381202 150 137 108
-0.20802531 0.37304828 -0.81331927 147 135 108
-0.20857081 0.37532371 -0.81391573 162 131 112
-0.2074552 0.37449914 -0.81290442 141 136 109
-0.20749711 0.37426263 -0.81293458 142 135 109
-0.20826532 0.37525189 -0.81365871 159 131 112
-0.20976903 0.37286514 -0.81495643 163 135 110
-0.2090189 0.37003607 -0.81409138 118 137 112
-0.20933704 0.37120149 -0.81447971 143 135 111
-0.21014543 0.37058455 -0.81542057 164 132 115
-0.20959124 0.36933821 -0.81475419 130 135 114
-0.20990539 0.36961475 -0.81512642 145 133 115
-0.20858821 0.3705318 -0.81368744 122 137 111
-0.20832154 0.37080106 -0.81344193 125 137 110
-0.20875703 0.3694655 -0.81383133 110 137 112
-0.2081458 0.37060568 -0.81328446 122 138 110
-0.20788687 0.3696931 -0.81302744 110 138 111
-0.21097486 0.36645514 -0.81633919 132 134 114
-0.21063791 0.36701685 -0.81595135 129 135 113
-0.21040818 0.36712199 -0.81568319 123 135 113
-0.21008164 0.36913297 -0.81532711 145 133 116
-0.21117829 0.368177 -0.81660122 167 130 118
-0.21059871 0.36564019 -0.81580681 115 135 112
-0.21091358 0.36599302 -0.81626099 122 135 112
-0.20907998 0.36675286 -0.81391364 95 136 111
-0.21011496 0.36551026 -0.81515259 105 135 111
-0.21024637 0.36657721 -0.81543934 114 136 112
-0.20840478 0.36559904 -0.81317127 88 140 107
-0.20795369 0.36763087 -0.81294501 97 139 109
-0.20788953 0.36819845 -0.81293488 100 139 110
-0.21009019 0.36506572 -0.81509674 105 135 111
-0.21126248 0.36427847 -0.81667739 134 131 114
-0.21093924 0.36270165 -0.81630659 143 127 117
-0.21089432 0.36335033 -0.81622362 136 129 115
-0.21032482 0.3648046 -0.81541681 112 133 112
-0.20999201 0.36318234 -0.81501728 126 129 115
-0.20925969 0.36428711 -0.81399977 103 133 112
-0.20965937 0.36266646 -0.81453741 136 129 116
-0.21094084 0.36185151 -0.81633735 152 124 118
-0.20989563 0.36357376 -0.81488764 118 129 115
-0.20901205 0.36263525 -0.81362045 136 132 115
-0.20895202 0.36200753 -0.81353396 148 132 115
-0.20842339 0.36188543 -0.81295288 154 131 115
-0.21099554 0.35999152 -0.81635916 164 127 118
-0.21020348 0.36086759 -0.81526834 162 127 118
-0.20938183 0.36095947 -0.81410837 162 130 117
-0.21064426 0.36084849 -0.81589168 162 126 118
-0.21069312 0.35994712 -0.81592947 164 129 117
-0.21102807 0.36060336 -0.81642646 163 125 118
-0.20967743 0.35938087 -0.81453729 161 133 116
-0.20931867 0.35931003 -0.81408 159 133 116
-0.21074188 0.35772058 -0.81597966 165 134 116
-0.20976879 0.35753453 -0.81473911 159 134 116
-0.20908882 0.36051425 -0.81372982 159 132 116
-0.2088493 0.35999435 -0.81347108 157 133 115
-0.20827658 0.35812166 -0.81292599 148 140 112
-0.21074702 0.35695979 -0.81597561 159 135 115
-0.21078901 0.35706738 -0.81603521 161 135 115
-0.21081266 0.35698968 -0.81606144 159 135 115
-0.21054785 0.35622111 -0.81568116 148 136 114
-0.2101216 0.35713968 -0.81518233 158 135 115
-0.20905556 0.35620198 -0.81387591 147 135 115
-0.20936508 0.35538682 -0.81426442 141 135 115
-0.20911768 0.3548879 -0.81400871 139 134 115
-0.20925842 0.35556507 -0.81413543 143 135 115
-0.21095327 0.35375655 -0.8161363 123 137 112
-0.20869656 0.35488465 -0.81344062 141 134 116
-0.20849125 0.35395646 -0.81318682 137 134 116
-0.20857131 0.35554349 -0.81325239 145 135 115
-0.20856287 0.3569569 -0.81326658 148 138 113
-0.20953183 0.3534998 -0.81454235 130 135 114
-0.20977649 0.35287136 -0.81483603 125 136 114
-0.20915323 0.35307404 -0.81412315 128 135 114
-0.20893472 0.35262427 -0.81385827 121 138 113
-0.20850131 0.35249227 -0.813227 122 138 113
-0.21138257 0.34256983 -0.81658119 128 130 116
-0.21142848 0.34431934 -0.81663221 115 135 111
-0.21078135 0.34369239 -0.81598687 119 132 114
-0.21103422 0.34252736 -0.81623906 127 130 116
-0.21001135 0.34344766 -0.81524736 114 134 113
-0.20821954 0.34506449 -0.81316549 126 128 117
-0.22113295 0.36075681 -0.83214688 170 130 118
-0.21894142 0.35906294 -0.82922101 164 134 116
-0.21799313 0.35771671 -0.82980645 179 135 116
-0.21930635 0.35874167 -0.82863802 167 135 115
-0.21869451 0.35914254 -0.82955682 163 134 115
-0.21895969 0.35921189 -0.8292622 162 135 115
-0.21969284 0.35994557 -0.83071131 166 132 117
-0.2195231 0.35973594 -0.83089006 169 132 116
-0.22041163 0.360259 -0.83138198 171 131 117
-0.21880965 0.3592608 -0.83063197 169 133 116
-0.21789604 0.35897321 -0.83197385 176 131 117
-0.21901691 0.35918719 -0.83201998 180 131 118
-0.21860522 0.35892197 -0.8318938 180 131 118
-0.22058207 0.36051241 -0.83110672 167 131 117
-0.21552908 0.3576341 -0.83215338 187 131 118
-0.21643981 0.35742694 -0.83139557 184 133 116
-0.21770336 0.35708386 -0.82992059 173 136 115
-0.21685466 0.3559815 -0.83058494 142 142 110
-0.21699087 0.35621065 -0.83049601 148 141 111
-0.21723348 0.35447839 -0.82961315 97 153 103
-0.21687505 0.35701102 -0.83090854 171 136 114
-0.21725914 0.35423583 -0.8295362 92 154 103
-0.21877965 0.35696998 -0.82861179 171 138 114
-0.21864729 0.356186 -0.82867324 156 141 111
-0.21609691 0.35685399 -0.83131021 185 134 116
-0.21597746 0.35724798 -0.83161712 186 132 117
-0.21669267 0.356094 -0.83074266 148 141 111
-0.21659984 0.35489571 -0.83038068 117 148 106
-0.2146834 0.35472968 -0.83122581 173 137 114
-0.21493113 0.35414693 -0.83091205 148 142 110
-0.21678996 0.35440478 -0.83012515 96 153 103
-0.21546176 0.35583451 -0.83123374 180 135 115
-0.21747674 0.35103747 -0.82949269 112 134 112
-0.21681449 0.35181561 -0.82989675 86 144 107
-0.21713255 0.3517105 -0.82968885 95 141 108
-0.21825345 0.35179937 -0.8288883 121 139 109
-0.21787454 0.34964594 -0.82916915 131 125 118
-0.21738911 0.35069427 -0.82956284 112 132 113
-0.21299823 0.3515757 -0.83075684 134 139 114
-0.21444356 0.35182849 -0.83094484 157 131 116
-0.21323283 0.34971386 -0.82989854 73 143 111
-0.21619831 0.34976199 -0.83006448 108 127 117
-0.21337023 0.35268283 -0.83129197 173 134 115
-0.21331742 0.35258979 -0.83124596 170 134 115
-0.21504574 0.35327184 -0.83065718 129 145 108
-0.21392988 0.35305601 -0.83119309 167 136 113
-0.21378173 0.35331985 -0.83124918 169 137 113
-0.21677297 0.35336357 -0.82984012 72 157 100
-0.21545219 0.3514424 -0.83056015 135 131 114
-0.21505989 0.35256881 -0.83068669 135 139 111
-0.21205384 0.35184491 -0.83227032 158 136 115
-0.21246643 0.35245708 -0.83193302 165 136 114
-0.21161205 0.34985694 -0.8319599 110 137 115
-0.21242659 0.35056466 -0.83104157 109 140 113
-0.21195126 0.3506462 -0.83182675 125 137 115
-0.2128755 0.35111731 -0.83056748 117 140 113
-0.21766064 0.34792235 -0.82980061 115 133 114
-0.21709959 0.34880203 -0.83000362 110 129 116
-0.21775767 0.34772697 -0.82977742 116 134 114
-0.2180943 0.34743384 -0.8295027 126 134 115
-0.21782193 0.34768489 -0.8297264 118 134 114
-0.21855655 0.34610045 -0.82928574 137 138 113
-0.21893519 0.34574029 -0.82897675 149 138 113
-0.21696065 0.34592038 -0.83089256 87 143 111
-0.21399879 0.3479951 -0.83018655 70 144 111
-0.21413296 0.34683979 -0.83022225 72 143 111
-0.21330416 0.34797341 -0.82995719 68 145 111
-0.21400855 0.34758604 -0.83018672 70 145 111
-0.21472588 0.3471075 -0.83041996 74 144 111
-0.21401045 0.34646249 -0.83017904 71 143 111
-0.21481477 0.3493962 -0.82998443 85 136 114
-0.21360885 0.34917954 -0.82998544 70 144 111
-0.21636046 0.34743249 -0.83059764 88 138 113
-0.21671389 0.34658113 -0.83084816 86 141 112
-0.21632248 0.34928536 -0.83008778 101 129 116
-0.21138543 0.34631059 -0.83236551 112 135 117
-0.21222685 0.34666079 -0.83089221 87 138 113
-0.21216801 0.34722888 -0.83095938 88 138 113
-0.21185471 0.3468909 -0.8315205 97 137 114
-0.21173261 0.34863728 -0.83163899 100 137 114
-0.21208987 0.34928921 -0.83108461 88 141 113
-0.21216393 0.34822509 -0.83096081 88 139 113
-0.21270566 0.3490836 -0.83011919 71 144 112
-0.21889782 0.34552073 -0.82901752 151 137 113
-0.21890938 0.34515557 -0.82900035 158 136 114
-0.21785156 0.3446871 -0.8300367 136 136 114
-0.21769074 0.34518334 -0.83020312 121 139 113
-0.21521316 0.34322596 -0.83055478 130 130 115
-0.21369933 0.3446393 -0.83009231 96 136 113
-0.21430096 0.34427273 -0.83025002 104 134 113
-0.21499135 0.34404433 -0.83047122 111 134 113
-0.21549147 0.34523332 -0.83065486 87 141 111
-0.21546459 0.34340534 -0.83061737 126 131 115
-0.21639387 0.34407672 -0.83093458 114 136 113
-0.21641895 0.34472391 -0.83095294 101 139 112
-0.21636549 0.34438702 -0.83093005 108 137 113
-0.211739 0.34422594 -0.83192575 133 134 119
-0.21238089 0.34481806 -0.83080286 106 138 115
-0.21214834 0.34482864 -0.83120275 113 136 116
-0.21271396 0.34566599 -0.83011448 75 140 112
-0.19615154 0.37026536 -0.80505216 108 142 113
-0.19998068 0.35896236 -0.80503303 76 138 112
-0.19851109 0.35836256 -0.80429965 93 140 112
-0.19820151 0.35858378 -0.8042205 94 141 111
-0.20156848 0.35477403 -0.80488235 85 132 121
-0.20159566 0.35478851 -0.80491984 84 132 121
-0.20099305 0.35738447 -0.80506319 75 137 115
-0.19787478 0.35732624 -0.80387199 115 140 114
-0.1998475 0.35665104 -0.80442166 94 137 116
-0.20100363 0.35388461 -0.80408281 100 132 124
-0.19940944 0.35528105 -0.80387586 110 136 119
-0.20022047 0.3546744 -0.80401003 104 134 122
-0.19929139 0.35577399 -0.80396914 108 136 118
-0.20000444 0.3535226 -0.80356944 87 141 117
-0.19847696 0.35614416 -0.80376548 114 138 117
-0.19738121 0.3557837 -0.80320668 96 150 108
-0.20058037 0.35405126 -0.80396909 103 132 123
-0.19746286 0.35520366 -0.80305886 87 152 106
-0.20122656 0.35324317 -0.80412608 98 132 123
-0.2003148 0.35343435 -0.80369818 90 138 119
-0.20126089 0.34734616 -0.80443001 94 143 110
-0.20090929 0.34698054 -0.80412555 99 140 113
-0.21594609 0.36948919 -0.82214469 180 131 119
-0.21478768 0.3707408 -0.8208465 159 135 114
-0.21751213 0.36602718 -0.82458949 167 129 116
-0.21606581 0.3654469 -0.82271105 169 129 114
-0.21601529 0.36582664 -0.82256573 172 130 115
-0.21671024 0.36583802 -0.82360822 174 128 115
-0.21551493 0.3662183 -0.82174206 174 132 115
-0.21471928 0.36886701 -0.82071 141 132 115
-0.21554887 0.36901078 -0.82167816 167 131 118
-0.21538 0.36799315 -0.82148403 168 132 117
-0.21531822 0.36745939 -0.82141352 169 132 116
-0.2149322 0.36802605 -0.82096112 153 132 115
-0.21707343 0.36355591 -0.82442689 169 128 116
-0.2149518 0.36166942 -0.82174551 150 132 113
-0.21614191 0.36415014 -0.82307827 162 130 114
-0.21621794 0.36152002 -0.82353109 168 128 116
-0.21507165 0.3617534 -0.82190162 151 132 113
-0.21571204 0.36318904 -0.82260549 158 131 113
-0.2151224 0.36262402 -0.82185763 150 133 113
-0.21623062 0.36517885 -0.82300901 167 129 114
-0.21458177 0.36306712 -0.82096291 150 134 112
-0.2147443 0.36354932 -0.82110846 154 133 113
-0.21535414 0.36502707 -0.82172263 163 132 113
-0.21492541 0.36477238 -0.82113034 161 133 113
-0.21670745 0.35836422 -0.82457721 177 126 118
-0.21590197 0.3606528 -0.8231923 164 130 116
-0.21456616 0.36075476 -0.82131773 145 134 112
-0.21528016 0.36025628 -0.82237011 156 131 115
-0.21647832 0.35889921 -0.82419503 173 127 117
-0.21565431 0.35905382 -0.82302827 162 130 115
-0.21562818 0.3590712 -0.82298988 161 130 115
-0.21551454 0.35827711 -0.82280463 169 129 116
-0.21510096 0.35961384 -0.82216156 156 131 114
-0.2142891 0.35884425 -0.82086194 164 132 115
-0.21445878 0.3591947 -0.82113564 161 132 115
-0.21493225 0.35973173 -0.82189453 155 132 114
-0.21461895 0.35847846 -0.82138252 167 131 116
-0.21682572 0.35484537 -0.82459885 151 129 115
-0.21531719 0.35390577 -0.82227671 135 131 117
-0.21616086 0.35434669 -0.82355934 144 130 116
-0.21591184 0.35464028 -0.82323009 146 129 117
-0.21597278 0.35562697 -0.82342213 156 128 117
-0.21522781 0.35455459 -0.82221729 142 129 118
-0.21593945 0.35614592 -0.82342643 161 128 118
-0.21450618 0.35556421 -0.82113785 154 130 119
-0.21588172 0.35615936 -0.82334262 161 127 118
-0.21603705 0.35647872 -0.82359892 165 127 118
-0.21499532 0.35598454 -0.82192791 159 129 118
-0.21434742 0.35733256 -0.82093644 177 131 118
-0.21449108 0.355138 -0.82110149 148 130 119
-0.21430863 0.35694981 -0.82086372 172 131 118
-0.21689221 0.35216165 -0.82445747 139 134 112
-0.21678011 0.3531585 -0.82433975 139 132 114
-0.21504758 0.34973475 -0.82173419 140 134 112
-0.21532582 0.35077968 -0.82219213 139 133 113
-0.2155554 0.35139257 -0.82255012 139 133 113
-0.21646191 0.35089639 -0.82373071 140 134 112
-0.21484703 0.35012519 -0.82149541 139 133 112
-0.21429858 0.35040495 -0.8207227 137 133 114
-0.21510819 0.3531563 -0.82192379 132 131 117
-0.21533388 0.35199532 -0.82224494 137 132 115
-0.2143286 0.35204592 -0.82077813 132 131 117
-0.21505649 0.35134965 -0.82183552 138 132 114
-0.21505013 0.35245982 -0.82183409 134 132 116
-0.21628138 0.34881523 -0.82342041 137 134 111
-0.21625249 0.34833851 -0.82337379 140 133 112
-0.21520741 0.34618604 -0.82202661 138 129 115
-0.21558331 0.34654421 -0.82250178 141 129 115
-0.21484102 0.34595424 -0.8215661 134 128 116
-0.2158998 0.34873047 -0.82291305 137 133 112
-0.21508609 0.34824982 -0.82184064 135 132 113
-0.21569368 0.34938696 -0.82260442 139 134 111
-0.21447465 0.34758168 -0.82104933 132 131 114
-0.21624683 0.34902772 -0.82336605 138 134 111
-0.21528068 0.34197307 -0.82207406 172 123 118
-0.21501197 0.34269756 -0.82155275 178 120 120
-0.21467158 0.34326833 -0.82115549 166 122 119
-0.21521027 0.34519136 -0.82197845 149 126 117
-0.21460462 0.34255359 -0.82101524 175 120 120
-0.21479818 0.34475544 -0.82143158 148 125 118
-0.2147218 0.3451446 -0.82136774 141 127 117
-0.21483131 0.34552127 -0.82153386 138 128 116
-0.21492583 0.34164453 -0.821576 176 121 119
-0.21540366 0.34143579 -0.82239145 170 124 117
-0.21507704 0.34103966 -0.82198197 173 123 118
-0.2207516 0.3649497 -0.83624035 174 124 118
-0.22081351 0.36148331 -0.83358341 178 128 119
-0.22072497 0.36224374 -0.83416271 178 127 118
-0.22063935 0.36293939 -0.83465916 176 126 118
-0.22018243 0.36308655 -0.8345114 168 128 117
-0.21503519 0.36332646 -0.83629143 157 137 114
-0.21521164 0.36270741 -0.83609205 158 137 114
-0.22088115 0.36045781 -0.83254564 178 129 119
-0.21817364 0.36025104 -0.83251601 168 129 118
-0.22019467 0.36060318 -0.83276725 177 129 118
-0.22011471 0.36077994 -0.83289945 176 129 118
-0.21908775 0.36107859 -0.83296317 169 128 118
-0.21563967 0.35849833 -0.83272904 180 131 117
-0.21598735 0.35946617 -0.83334965 173 131 117
-0.21511512 0.35874438 -0.83370793 183 132 117
-0.21483271 0.35842922 -0.83422148 187 131 116
-0.21504764 0.35874039 -0.83387995 183 132 116
-0.21511474 0.35991302 -0.8351928 176 134 115
-0.21237147 0.35430411 -0.83475697 176 132 115
-0.21209025 0.35353681 -0.83593029 163 132 115
-0.21252432 0.35470873 -0.83441359 182 132 116
-0.21224506 0.35401735 -0.83583295 168 132 115
-0.21265279 0.35501525 -0.83476394 187 131 116
-0.21354489 0.35054281 -0.83613378 131 147 107
-0.21309888 0.35096174 -0.83581293 140 142 110
-0.21281847 0.35093647 -0.83542395 139 140 112
-0.21231347 0.3500236 -0.83415341 121 140 112
-0.2123207 0.35003707 -0.83417189 122 139 113
-0.2124981 0.35248286 -0.8360821 159 135 113
-0.21238649 0.35294551 -0.83630204 161 134 114
-0.21218009 0.35278612 -0.83310789 174 134 115
-0.21202797 0.35242128 -0.83340549 163 134 115
-0.21161428 0.35102561 -0.83309889 137 134 116
-0.21150158 0.35074675 -0.83329558 129 134 115
-0.21182352 0.35234094 -0.83493847 148 133 115
-0.21183181 0.35154817 -0.83267587 152 135 115
-0.21353488 0.34952459 -0.83553064 114 149 106
-0.21336685 0.34879985 -0.83535832 119 144 110
-0.21373056 0.34900975 -0.8358236 117 149 107
-0.21301264 0.34691396 -0.83489233 128 140 115
-0.21328264 0.34751827 -0.83529818 126 140 115
-0.21211794 0.34736139 -0.83353031 115 139 114
-0.21284987 0.34705022 -0.83464253 126 140 114
-0.21287322 0.3492983 -0.8346526 115 144 111
-0.21139058 0.34705508 -0.83250928 113 136 116
-0.21163346 0.34882984 -0.83292508 113 137 115
-0.21184279 0.34908789 -0.83322269 113 138 114
-0.21135683 0.34883502 -0.83254832 112 136 115
-0.20612451 0.38220689 -0.81227058 136 135 114
-0.20537955 0.38195118 -0.81153703 120 140 111
-0.20244256 0.38124451 -0.80944341 128 143 109
-0.2027746 0.38269415 -0.80985242 107 143 110
-0.20259407 0.38178039 -0.80961466 121 143 110
-0.2039742 0.38093877 -0.81047523 117 144 108
-0.20391643 0.38216683 -0.8105678 106 144 110
-0.20409741 0.38224491 -0.81067306 107 143 109
-0.20432304 0.38169807 -0.81080168 106 144 109
-0.20689897 0.37800726 -0.81260169 129 139 110
-0.20514892 0.3772392 -0.81070727 111 142 106
-0.20599578 0.37714711 -0.81154925 119 140 107
-0.20578274 0.37777087 -0.81143707 116 141 108
-0.2062719 0.37848672 -0.81205106 121 141 108
-0.20662501 0.37742037 -0.8122316 125 140 109
-0.20407344 0.3789371 -0.81037861 105 143 109
-0.20452958 0.37886906 -0.8106119 106 144 107
-0.20500565 0.37718645 -0.81058794 109 142 106
-0.20371646 0.38028464 -0.81026155 115 144 109
-0.20388034 0.37933475 -0.81033617 105 143 109
-0.20386568 0.38044658 -0.81037247 115 144 109
-0.20330313 0.37965083 -0.80994648 114 143 109
-0.20354359 0.38011673 -0.81013381 115 144 109
-0.20671827 0.37454036 -0.81216156 133 137 108
-0.20654769 0.37650844 -0.81205976 126 139 108
-0.2072818 0.37635612 -0.81279743 134 138 109
-0.20734777 0.3767688 -0.81287909 133 138 109
-0.20554738 0.37677553 -0.81105679 115 141 106
-0.2051117 0.37503883 -0.81056827 127 134 109
-0.2065784 0.37335679 -0.8119868 142 132 110
-0.20508976 0.37584642 -0.81056887 119 138 108
-0.20573246 0.37515527 -0.81119174 126 137 107
-0.20565735 0.37588945 -0.8111372 119 139 106
-0.2038532 0.37472489 -0.80978894 111 142 104
-0.20323466 0.37391075 -0.80939412 109 144 103
-0.2045023 0.37410882 -0.81016225 126 135 108
-0.20466742 0.37539175 -0.81029743 118 139 107
-0.20392039 0.3764492 -0.80993235 107 141 107
-0.20492938 0.37680617 -0.81049812 109 142 106
-0.20420064 0.37652549 -0.81008792 108 142 106
-0.2027148 0.37345436 -0.80907762 107 144 102
-0.20230694 0.3752768 -0.80898577 104 142 107
-0.20662431 0.3708204 -0.81187481 121 133 112
-0.20708725 0.37062395 -0.81232417 119 135 111
-0.20752941 0.37005547 -0.81272787 114 136 111
-0.20604001 0.37260085 -0.81141031 140 130 112
-0.20556113 0.37179795 -0.81085169 136 132 112
-0.20557043 0.36963359 -0.81061172 128 144 107
-0.20585817 0.37004414 -0.81096697 126 140 109
-0.20525478 0.36958882 -0.81026882 130 145 107
-0.2057 0.37121886 -0.81093335 132 134 111
-0.20380197 0.36979493 -0.80924511 142 139 109
-0.20502035 0.37288615 -0.81042165 144 128 113
-0.20339411 0.37103188 -0.80917639 130 141 106
-0.20286188 0.37283501 -0.80911529 112 144 103
-0.20353594 0.37186739 -0.80938178 128 139 106
-0.20429197 0.37215847 -0.80987841 137 133 110
-0.20772777 0.36619511 -0.81256688 94 143 106
-0.20762327 0.3666648 -0.81250232 97 142 107
-0.20687272 0.36772707 -0.81180602 108 143 107
-0.20627022 0.36890563 -0.81127989 118 144 108
-0.20777498 0.36851212 -0.81285024 101 139 111
-0.20632993 0.36729166 -0.81117249 109 145 106
-0.20718515 0.3657434 -0.8119148 90 142 107
-0.20661511 0.36554119 -0.81124938 86 140 109
-0.20688923 0.36630946 -0.81166214 97 143 106
-0.20555459 0.3681466 -0.81042355 119 146 106
-0.20525081 0.36696619 -0.80992067 101 141 109
-0.20526122 0.36557341 -0.80973977 81 136 112
-0.20506674 0.36846226 -0.80992711 122 146 107
-0.20389485 0.3691107 -0.80922818 139 143 107
-0.20417289 0.36643764 -0.80906957 98 137 112
-0.20646949 0.3650471 -0.81102979 85 138 110
-0.20662002 0.36366785 -0.81109226 113 133 114
-0.20687239 0.3636426 -0.81137258 115 134 114
-0.20693038 0.36418521 -0.81147903 104 135 112
-0.20691083 0.36515477 -0.8115316 83 139 108
-0.20717531 0.36307094 -0.81166744 126 133 114
-0.20688471 0.36191127 -0.81121469 148 134 114
-0.2056991 0.36337548 -0.81000328 115 136 113
-0.20665929 0.36329463 -0.81110513 120 133 115
-0.2055797 0.36337453 -0.80986512 115 136 113
-0.20642449 0.36319986 -0.81082314 122 134 114
-0.20631158 0.36189425 -0.81054986 146 135 113
-0.20710193 0.36256224 -0.81153709 136 132 115
-0.20501991 0.36190432 -0.80909419 141 139 110
-0.20491426 0.36335272 -0.80918765 113 137 112
-0.20531392 0.35877463 -0.80900544 132 138 111
-0.20635921 0.35871252 -0.81020719 136 136 113
-0.20593539 0.3597284 -0.80984741 142 137 111
-0.2063477 0.36012846 -0.81037569 147 136 113
-0.20525484 0.36037943 -0.80914372 145 139 110
-0.20547609 0.35777202 -0.80906487 124 139 110
-0.20545353 0.35776055 -0.80903733 124 138 111
-0.2071117 0.36010897 -0.81125695 150 134 114
-0.20793749 0.35885283 -0.81241041 149 137 113
-0.20693757 0.35918549 -0.81097847 143 135 114
-0.20555404 0.35752106 -0.80913156 123 138 111
-0.20597509 0.35797578 -0.80969691 129 137 112
-0.20664768 0.35886136 -0.81058997 139 135 113
-0.20797122 0.3589133 -0.81245416 150 137 113
-0.20735469 0.35874349 -0.81159496 144 137 113
-0.20769602 0.35607398 -0.81216222 143 137 114
-0.20819993 0.35636887 -0.81285042 142 140 112
-0.20696075 0.35739163 -0.81112331 135 140 111
-0.20624761 0.35731325 -0.81011873 129 139 111
-0.20688871 0.35607842 -0.81104916 142 135 115
-0.20588063 0.35639337 -0.8096202 131 135 114
-0.20677705 0.35618609 -0.81088942 140 136 115
-0.20724821 0.35680225 -0.81154132 141 138 113
-0.20739403 0.35092172 -0.81159264 98 141 111
-0.20758328 0.35339764 -0.81194693 135 132 117
-0.2182007 0.36646497 -0.82529438 164 130 116
-0.21856643 0.36672154 -0.82566398 163 130 116
-0.21715249 0.36146793 -0.82477319 174 127 117
-0.21726619 0.3624849 -0.82479388 169 127 117
-0.21717253 0.36234245 -0.8246994 170 128 116
-0.2171942 0.35785139 -0.82555854 178 128 117
-0.2181734 0.35782537 -0.82716537 180 132 117
-0.21747139 0.35818869 -0.82593888 179 129 117
-0.21757847 0.35901752 -0.82595795 179 130 117
-0.21696165 0.36027706 -0.82471609 176 127 117
-0.21814084 0.35875273 -0.82694608 179 133 116
-0.2175052 0.3602916 -0.82562691 178 129 117
-0.21785991 0.36060873 -0.82592082 171 130 116
-0.2184824 0.35891604 -0.82735318 176 134 116
-0.2174211 0.36087084 -0.82529461 174 129 117
-0.21825011 0.3599177 -0.8266663 172 131 116
-0.21887907 0.36064783 -0.82710844 160 132 116
-0.21894532 0.35974813 -0.82755727 165 133 116
-0.21718365 0.36130929 -0.82483357 174 128 117
-0.21874619 0.35860741 -0.82779181 176 134 116
-0.21869642 0.35709104 -0.82805824 178 135 115
-0.21777289 0.3565577 -0.82646811 170 132 116
-0.21723437 0.35563189 -0.82544863 160 131 115
-0.2180642 0.3564485 -0.82692808 170 133 116
-0.21820547 0.35657975 -0.82717872 172 134 115
-0.21867573 0.35484317 -0.82822484 142 144 108
-0.21860838 0.35579166 -0.82797551 159 139 112
-0.21810554 0.35358739 -0.82714564 126 144 107
-0.21882002 0.35629001 -0.82837254 165 139 113
-0.21832824 0.35473245 -0.82749438 144 141 110
-0.21828529 0.35552031 -0.82731509 157 137 113
-0.21737023 0.34972674 -0.8252942 138 136 110
-0.21828742 0.3503578 -0.82749867 139 133 113
-0.21818323 0.35033458 -0.8272469 139 134 112
-0.21870613 0.3517758 -0.82847416 132 139 110
-0.21765608 0.35056549 -0.82596374 133 139 108
-0.21783414 0.35325703 -0.82654929 128 141 108
-0.21712834 0.35028034 -0.82476228 136 137 110
-0.21846648 0.35287255 -0.82786477 122 148 104
-0.21764605 0.35305935 -0.82612872 130 140 109
-0.21766232 0.35150236 -0.82601786 131 141 107
-0.21805815 0.35250807 -0.826958 126 145 106
-0.21721104 0.34913895 -0.82489526 141 135 111
-0.21830441 0.34942257 -0.82755369 147 127 117
-0.21548639 0.36214936 -0.84223813 173 134 117
-0.2154898 0.36152104 -0.84275073 179 134 117
-0.21541533 0.3619366 -0.84385115 174 134 116
-0.21556103 0.36220479 -0.84079832 179 133 118
-0.21539162 0.35828009 -0.84134954 185 137 113
-0.21540999 0.35937539 -0.84243399 184 136 114
-0.21543984 0.3603895 -0.84364867 183 135 115
-0.21543537 0.35761881 -0.84159559 192 136 113
-0.2155275 0.35871053 -0.8438881 197 134 114
-0.21547976 0.36006269 -0.84142447 183 135 115
-0.21540686 0.35883024 -0.8412171 183 136 114
-0.21556586 0.36101747 -0.84099448 182 133 117
-0.21550083 0.36082235 -0.8420276 181 134 116
-0.21540911 0.3592222 -0.84170002 182 136 114
-0.21527354 0.35429966 -0.84228027 99 133 117
-0.21532318 0.35442007 -0.84305876 104 132 117
-0.21533571 0.35438025 -0.84335285 103 132 117
-0.21532091 0.35394061 -0.84368223 87 131 118
-0.21531917 0.3549065 -0.84230572 120 133 116
-0.21527603 0.35420281 -0.84246212 95 133 117
-0.21541691 0.3563706 -0.84226531 167 135 114
-0.21538252 0.35614768 -0.84193689 158 135 114
-0.2153933 0.35717148 -0.84102964 182 137 113
-0.21526662 0.35547334 -0.84074831 131 136 115
-0.21540013 0.35737211 -0.84092915 187 137 112
-0.21510006 0.35127181 -0.84207952 74 131 119
-0.21516062 0.35119125 -0.84233671 72 130 119
-0.21536599 0.35121629 -0.84334493 66 130 120
-0.21545935 0.35134947 -0.84385872 64 129 120
-0.2152001 0.3519153 -0.84285843 72 130 119
-0.21511605 0.3530179 -0.84093434 68 133 117
-0.21508299 0.35226518 -0.84115988 71 132 118
-0.21519293 0.35260576 -0.84286827 72 131 119
-0.21525052 0.35316157 -0.84333414 72 131 118
-0.2152013 0.35264242 -0.84298605 72 131 119
-0.2133836 0.34728837 -0.84332937 97 130 119
-0.21373469 0.34706682 -0.84284359 93 130 119
-0.21328963 0.3477737 -0.8439104 96 128 119
-0.21458431 0.34869704 -0.84396088 74 128 120
-0.21449831 0.34711799 -0.84223717 88 131 119
-0.21481007 0.34656489 -0.84129363 92 131 119
-0.2137178 0.34676027 -0.84251755 95 132 118
-0.21391816 0.34581447 -0.84120578 104 133 118
-0.21432309 0.34620765 -0.84130836 98 132 118
-0.21494775 0.34639037 -0.8407141 94 132 118
-0.21528123 0.34823805 -0.8422569 74 130 120
-0.21510878 0.34818679 -0.84142208 79 130 120
-0.21517017 0.34959611 -0.84166229 69 129 120
-0.21527059 0.34941781 -0.84215695 67 130 120
0 0 0 1 0 0 0 1 0 0 0 1 0 0 0 0 0 778 1 0 0
