ply
format ascii 1.0
comment PCL generated
element vertex 807
property float x
property float y
property float z
property uchar red
property uchar green
property uchar blue
element camera 1
property float view_px
property float view_py
property float view_pz
property float x_axisx
property float x_axisy
property float x_axisz
property float y_axisx
property float y_axisy
property float y_axisz
property float z_axisx
property float z_axisy
property float z_axisz
property float focal
property float scalex
property float scaley
property float centerx
property float centery
property int viewportx
property int viewporty
property float k1
property float k2
end_header
0.030377531 -0.52021772 -0.71523315 40 137 116
0.029464783 -0.52018374 -0.7152189 43 137 116
0.014859225 -0.53687793 -0.72315931 25 139 119
0.015114614 -0.53704703 -0.72325885 25 136 120
0.020941935 -0.53624964 -0.72329795 21 137 119
0.018121131 -0.53706306 -0.7235083 24 139 119
0.017763538 -0.53614259 -0.72306448 27 138 119
0.018601567 -0.53606272 -0.7230764 27 137 120
0.024377774 -0.53709167 -0.72370279 16 136 121
0.023593795 -0.53677034 -0.72354537 17 136 120
0.021744497 -0.53626907 -0.72333348 20 137 119
0.021595141 -0.53666455 -0.72351784 20 137 119
0.026768552 -0.53710091 -0.72374189 19 135 122
0.02608848 -0.5371033 -0.72372395 17 136 122
0.028172567 -0.53625649 -0.72341067 28 134 122
0.028138362 -0.53550804 -0.7230587 30 133 121
0.027905658 -0.535927 -0.7232554 28 134 121
0.031624712 -0.53644961 -0.72339046 38 133 119
0.031828914 -0.53642666 -0.72336924 39 131 119
0.029810313 -0.53659374 -0.72355956 33 133 121
0.030554509 -0.53561121 -0.72308451 37 134 119
0.035592664 -0.5370338 -0.72360027 40 132 118
0.034619343 -0.53610879 -0.72314906 39 132 117
0.033836406 -0.53606433 -0.72312963 41 131 116
0.0071641146 -0.53995937 -0.72402525 51 138 116
0.0083199386 -0.53967488 -0.72402722 45 135 117
0.0094568375 -0.53771979 -0.72316587 42 135 117
0.0070902039 -0.54085094 -0.72447515 50 138 116
0.0082258647 -0.53968656 -0.72402108 45 136 116
0.0091790613 -0.5401895 -0.72440273 39 134 118
0.0075399186 -0.53820503 -0.72314769 55 138 115
0.0072384067 -0.53830177 -0.72315568 57 138 115
0.007264432 -0.53969973 -0.72390401 51 137 116
0.0065602758 -0.53913778 -0.72350293 58 139 114
0.011545203 -0.53749096 -0.72321314 33 134 118
0.010851836 -0.53761959 -0.72323054 36 135 118
0.010269619 -0.53916842 -0.72398752 36 134 118
0.011564943 -0.53834879 -0.72365618 31 135 118
0.010434874 -0.54002178 -0.72443873 33 134 118
0.010939237 -0.53977227 -0.72434527 31 136 118
0.01088621 -0.54011011 -0.72450858 31 135 118
0.010403628 -0.5409407 -0.72489148 31 133 118
0.012921114 -0.54001874 -0.72454053 21 135 118
0.011275088 -0.54046005 -0.72469211 27 135 117
0.011507213 -0.53978121 -0.72437304 28 135 118
0.012223446 -0.54069328 -0.72484004 24 135 118
0.016987508 -0.54027557 -0.72491145 19 137 118
0.016514637 -0.53984511 -0.72468591 20 135 119
0.015974274 -0.53966987 -0.72457302 19 137 118
0.016061194 -0.53973526 -0.72460824 19 135 118
0.014659678 -0.54069412 -0.72496235 17 134 118
0.016256081 -0.5403226 -0.7248888 18 137 118
0.013803577 -0.53804952 -0.7236293 23 135 118
0.013682346 -0.5383938 -0.7237851 21 135 118
0.014342436 -0.53761834 -0.72346723 23 138 118
0.014152398 -0.53749108 -0.72338957 23 138 118
0.016506473 -0.53766018 -0.72367239 23 138 119
0.013843265 -0.53965724 -0.72440869 19 134 118
0.019331066 -0.53975952 -0.724819 19 137 119
0.018883795 -0.54060042 -0.72518319 17 137 119
0.021477643 -0.53919858 -0.7247076 17 134 120
0.020625262 -0.53890568 -0.72450906 18 136 119
0.020845873 -0.54019171 -0.72513038 15 134 120
0.019809313 -0.54011244 -0.72501928 17 136 120
0.018399937 -0.53926921 -0.72453415 20 137 119
0.01787585 -0.54068083 -0.72514987 19 137 118
0.017666182 -0.53723359 -0.72356009 24 139 119
0.018815724 -0.53890717 -0.72439253 20 137 119
0.019662898 -0.53747362 -0.72378546 21 137 119
0.018141808 -0.5395655 -0.72465479 20 137 119
0.025144113 -0.53901017 -0.72460598 15 134 123
0.024479864 -0.53909051 -0.72464579 15 134 123
0.02363609 -0.53941774 -0.72480279 14 134 121
0.022479244 -0.54084873 -0.72548217 14 132 121
0.023283882 -0.54005235 -0.72510368 14 134 121
0.022407075 -0.54040205 -0.72527134 14 132 121
0.02273141 -0.53818095 -0.72422343 17 134 122
0.023245687 -0.53807336 -0.72417051 16 136 121
0.025019711 -0.53723317 -0.72376716 16 134 123
0.022973709 -0.53782129 -0.72405297 17 134 122
0.023676157 -0.5386771 -0.72445291 15 136 122
0.024546754 -0.53794068 -0.72410238 15 134 123
0.027717438 -0.53917003 -0.72473389 20 135 121
0.027855901 -0.5405736 -0.72536302 16 138 119
0.028054755 -0.53914481 -0.7247237 20 137 120
0.028561641 -0.53828406 -0.72433984 25 134 121
0.029201511 -0.53832203 -0.72435904 26 134 121
0.029221667 -0.53872555 -0.72453988 25 136 120
0.028271545 -0.53755319 -0.72399724 26 134 123
0.027751934 -0.53801507 -0.72420096 23 135 121
0.026862679 -0.53862041 -0.72446221 19 135 122
0.025676042 -0.54066396 -0.72539455 14 134 121
0.025994888 -0.5381664 -0.72422343 16 136 121
0.026123703 -0.53855592 -0.72441107 16 136 121
0.030916965 -0.54005432 -0.72507536 28 135 118
0.032985624 -0.53927648 -0.72466761 40 133 119
0.032372173 -0.53817827 -0.72414267 40 132 117
0.033055671 -0.53875357 -0.72441244 41 133 118
0.030956846 -0.53937274 -0.72474355 31 133 118
0.031095617 -0.53888279 -0.72451609 33 134 118
0.031292919 -0.53817576 -0.7241891 36 133 118
0.030698501 -0.53782046 -0.72406107 33 133 119
0.03249551 -0.53729224 -0.72373015 43 131 118
0.032030158 -0.53718215 -0.72370535 41 133 117
0.029574269 -0.54020852 -0.72518981 21 137 118
0.034024969 -0.53764856 -0.7238825 42 133 117
0.033486273 -0.53839409 -0.72423881 42 133 118
0.033439916 -0.5377329 -0.72391689 45 132 117
0.0056002489 -0.5431627 -0.72539675 51 138 117
0.0055395495 -0.5432561 -0.72543496 51 138 117
0.0054329596 -0.54310828 -0.72535378 53 137 117
0.0041897669 -0.54413176 -0.72571355 54 138 117
0.0041429596 -0.54363447 -0.72547227 55 138 118
0.0052873725 -0.54276174 -0.72517401 54 138 117
0.0096629104 -0.54287249 -0.72577882 30 135 119
0.009095313 -0.54247326 -0.72551322 33 135 118
0.008866787 -0.54473293 -0.72656447 30 136 119
0.0094276983 -0.54222786 -0.72543949 32 136 117
0.0070644259 -0.54299146 -0.72549659 44 136 118
0.0065622553 -0.5429548 -0.72541463 47 137 118
0.0065933373 -0.54198277 -0.72495627 50 137 117
0.0062549761 -0.54333156 -0.72555435 48 137 118
0.0066056619 -0.54348415 -0.72567201 45 136 118
0.0065113637 -0.54356575 -0.72569865 45 136 118
0.013115663 -0.54337537 -0.72613317 16 132 121
0.013146859 -0.54330337 -0.7261005 16 132 121
0.012138812 -0.54440475 -0.72658855 17 136 122
0.013556758 -0.5442118 -0.72653228 15 132 123
0.011635649 -0.54436576 -0.72655863 19 134 121
0.013288048 -0.54479027 -0.72679472 15 132 123
0.012183629 -0.54171538 -0.72532898 21 133 118
0.01032185 -0.54148048 -0.72514701 30 135 118
0.011524757 -0.54135495 -0.72513199 26 133 118
0.01046616 -0.54405034 -0.72638208 23 136 119
0.010474934 -0.54245645 -0.72561973 27 135 118
0.010248535 -0.54414511 -0.72641933 24 135 119
0.016282035 -0.54291791 -0.72607392 17 134 122
0.017207794 -0.54247957 -0.72591209 17 136 120
0.017236542 -0.54283422 -0.72606748 17 136 120
0.016759027 -0.544379 -0.72672552 16 132 121
0.016211709 -0.54320276 -0.72619581 16 136 121
0.015968896 -0.54147315 -0.72540116 17 136 119
0.016245579 -0.54123741 -0.72530842 17 137 118
0.013995038 -0.54253429 -0.725775 15 134 120
0.013835452 -0.54102743 -0.72506517 16 134 117
0.014044548 -0.54208916 -0.72557116 16 132 120
0.014049312 -0.54184836 -0.72545952 16 134 119
0.018188093 -0.54198706 -0.72576201 19 137 119
0.020207137 -0.54400396 -0.72681576 21 135 120
0.018225111 -0.54376304 -0.72653902 18 134 121
0.020018471 -0.54326987 -0.72647953 21 137 119
0.019450085 -0.54439908 -0.72692227 19 135 120
0.01968213 -0.54327536 -0.72645283 20 137 119
0.020555139 -0.54214662 -0.72601295 18 136 119
0.021303527 -0.54362154 -0.72673821 23 135 119
0.018932223 -0.54158914 -0.72564352 19 137 119
0.020225247 -0.54286456 -0.72631657 21 135 119
0.021685684 -0.54194462 -0.72598898 16 134 120
0.024806088 -0.54399061 -0.7269513 18 136 117
0.021609012 -0.54349786 -0.7266959 21 135 119
0.022620682 -0.54291195 -0.7264387 18 134 118
0.02411866 -0.54120994 -0.72564811 12 136 121
0.025202002 -0.54370487 -0.72682273 16 136 117
0.022271618 -0.54136324 -0.72572571 15 132 121
0.023664085 -0.54253751 -0.72627604 15 136 118
0.024487773 -0.54180205 -0.72592658 14 134 120
0.025764955 -0.54378659 -0.7268616 17 134 118
0.02861567 -0.54364663 -0.72680175 18 136 118
0.027861796 -0.54355019 -0.72675461 17 137 118
0.027289396 -0.54366982 -0.7268098 17 136 118
0.028647145 -0.5429942 -0.72649461 18 136 118
0.028777048 -0.54326791 -0.72662377 18 136 118
0.027354946 -0.5410229 -0.72556275 16 136 120
0.02924666 -0.5428195 -0.72641438 19 135 118
0.029872578 -0.54257542 -0.72630632 20 137 118
0.030766437 -0.54358548 -0.72679174 23 136 118
0.029437391 -0.54357356 -0.72677094 19 137 117
0.030485321 -0.54268539 -0.72636503 21 138 118
0.00088037248 -0.54718715 -0.72679311 55 138 116
0.0015881128 -0.54585719 -0.72625726 58 138 118
0.002191595 -0.54629844 -0.72656471 53 139 117
0.0021519465 -0.54689538 -0.72685277 51 139 117
0.0041182251 -0.54620564 -0.72674859 48 137 118
0.0032885622 -0.54651082 -0.72679949 50 137 118
0.0040606274 -0.5455901 -0.72643864 51 136 119
0.0050607771 -0.54578692 -0.7266475 46 136 119
0.0062049017 -0.54534262 -0.72652924 43 136 119
0.010032997 -0.5451299 -0.7268694 24 136 119
0.012799147 -0.54501861 -0.72689599 15 132 122
0.016398732 -0.52817541 -0.71924585 40 137 120
0.017373569 -0.52775693 -0.71916002 36 137 119
0.01536449 -0.52894324 -0.71948344 43 138 119
0.01563571 -0.5284766 -0.71930122 43 138 119
0.019704591 -0.52875519 -0.71975243 28 136 119
0.018865872 -0.52881575 -0.71972835 29 136 118
0.021314029 -0.52828294 -0.71962744 27 137 120
0.017667539 -0.5291028 -0.71979457 32 136 118
0.018925941 -0.52836478 -0.71952176 31 135 119
0.023971535 -0.52905726 -0.72000587 33 138 118
0.024825582 -0.52915168 -0.72005361 38 137 118
0.022034599 -0.52923673 -0.72009575 27 137 120
0.024649886 -0.52754205 -0.71924651 38 137 118
0.021831274 -0.52825046 -0.71961874 27 135 120
0.02470007 -0.5274775 -0.71921486 39 136 118
0.029289408 -0.52875531 -0.71976066 45 137 114
0.028513514 -0.52876312 -0.71978116 43 137 115
0.026822474 -0.52894604 -0.71991283 41 138 116
0.025964648 -0.52844656 -0.71968132 40 138 116
0.026546739 -0.52853858 -0.71971029 41 138 116
0.028457697 -0.52768648 -0.7192238 42 138 115
0.031095264 -0.52880573 -0.71969581 38 136 116
0.030667672 -0.5287441 -0.71968979 40 136 116
0.008637486 -0.52996808 -0.71939933 57 137 113
0.0095539493 -0.53181541 -0.72023416 53 134 116
0.0097283088 -0.53185976 -0.720267 51 135 116
0.0095013008 -0.53310597 -0.72075498 54 136 115
0.0090030422 -0.53133434 -0.71999133 54 136 114
0.010579069 -0.53075117 -0.7198683 50 136 116
0.0109341 -0.52957231 -0.71940994 48 136 116
0.010109343 -0.52980399 -0.71945423 48 136 115
0.017520746 -0.53253734 -0.72138548 38 136 117
0.017226703 -0.53313601 -0.72163194 40 135 118
0.016158674 -0.53143793 -0.72071773 37 137 117
0.016613591 -0.53279638 -0.7214039 40 136 118
0.017533693 -0.53070575 -0.72053123 34 135 118
0.016315596 -0.53062952 -0.72035778 35 137 118
0.016328584 -0.53012353 -0.72012585 36 136 118
0.014973252 -0.53135681 -0.72054958 41 137 119
0.015530414 -0.52970654 -0.71984935 40 138 118
0.016158342 -0.52964002 -0.71988535 38 137 118
0.016668053 -0.52990913 -0.72006321 35 136 119
0.020492619 -0.53236699 -0.72147828 29 136 119
0.020379985 -0.53224671 -0.72141707 29 136 119
0.019556053 -0.53166479 -0.72110581 32 137 118
0.019077778 -0.53211361 -0.72128546 34 136 118
0.019932155 -0.53150702 -0.72105396 31 136 119
0.019556422 -0.53249639 -0.72148675 33 137 119
0.018893167 -0.52931553 -0.71997017 29 135 119
0.018063338 -0.53115129 -0.72077519 34 135 118
0.017932728 -0.53063393 -0.72052515 33 138 117
0.018897405 -0.52962476 -0.72011495 29 135 119
0.018592166 -0.531106 -0.72078758 33 137 118
0.02517014 -0.53203791 -0.7212978 28 139 118
0.022846045 -0.53206408 -0.72138625 29 137 118
0.02538516 -0.52932334 -0.72013837 39 137 117
0.02244092 -0.53257388 -0.72161615 28 138 118
0.025020985 -0.53198481 -0.72128028 28 140 118
0.024652364 -0.53059632 -0.72070307 35 137 117
0.023642741 -0.52962339 -0.72027606 33 137 118
0.021963309 -0.53068489 -0.72076178 27 137 119
0.025000002 -0.52945185 -0.7201978 38 138 117
0.023733959 -0.53020823 -0.72054392 33 138 118
0.02165612 -0.52975696 -0.72033668 25 137 119
0.023526546 -0.5308162 -0.72082233 33 138 118
0.027352016 -0.53234202 -0.72148287 33 138 118
0.026412459 -0.53271228 -0.72160566 28 140 118
0.027869828 -0.53238988 -0.72154623 36 137 118
0.028718309 -0.5329079 -0.72187859 39 135 119
0.027087452 -0.53285158 -0.72172821 32 137 118
0.026303651 -0.53241217 -0.72144157 28 140 118
0.027539654 -0.52997178 -0.72036773 40 138 115
0.027203633 -0.5294832 -0.72016752 42 137 116
0.028949361 -0.5293352 -0.72006768 45 137 114
0.025475442 -0.53227437 -0.72138906 27 139 118
0.028154468 -0.52959698 -0.72019565 43 137 115
0.03019849 -0.53280908 -0.72182304 39 134 119
0.03030237 -0.53241348 -0.72160578 38 135 118
0.030009042 -0.53303111 -0.72195089 39 134 119
0.03070404 -0.52948433 -0.72005391 40 136 115
0.029620189 -0.53269827 -0.7217924 41 134 119
0.030260116 -0.53068918 -0.72070795 41 135 117
0.029554922 -0.53025508 -0.72052616 43 137 115
0.03119038 -0.52983254 -0.72020471 38 136 116
0.0081803948 -0.53611189 -0.72212929 57 137 114
0.0089888703 -0.53470582 -0.72150117 54 136 115
0.0075327856 -0.5368017 -0.72240043 60 139 113
0.0084746629 -0.53640449 -0.72232819 54 137 115
0.0088538323 -0.53396338 -0.72109604 57 137 114
0.0087000001 -0.53400534 -0.72110265 58 137 114
0.0090122139 -0.53381389 -0.72103947 57 136 115
0.013443777 -0.53359807 -0.72143769 43 137 119
0.011650126 -0.53675705 -0.72285241 35 135 118
0.010921814 -0.53601974 -0.72244257 42 134 118
0.012845554 -0.53537703 -0.72226298 37 136 118
0.012581129 -0.53438693 -0.72176218 43 136 119
0.010507504 -0.53366166 -0.72114509 51 135 117
0.0098103518 -0.53483051 -0.72168702 48 134 117
0.010352092 -0.53550202 -0.7221055 45 134 117
0.012094612 -0.53421676 -0.7216205 45 135 118
0.010167602 -0.53556371 -0.72211736 45 134 117
0.01655663 -0.53571713 -0.72275251 30 137 119
0.01526572 -0.53607225 -0.72280639 28 138 119
0.01476404 -0.53453165 -0.7220093 38 137 120
0.014537692 -0.53535891 -0.72239155 33 138 119
0.015153814 -0.53559017 -0.72256112 32 137 119
0.014165338 -0.53578734 -0.72256595 31 137 119
0.017443107 -0.53500789 -0.72251707 33 137 119
0.014905807 -0.533328 -0.72145808 42 137 119
0.014534063 -0.53352797 -0.72150791 42 137 119
0.016271787 -0.53365254 -0.7217617 39 136 118
0.019162972 -0.5355072 -0.72285372 27 137 119
0.01982527 -0.53537911 -0.72283322 27 137 119
0.019343166 -0.53507394 -0.72266501 29 135 119
0.020384178 -0.53570777 -0.72301668 24 138 119
0.021221295 -0.53491431 -0.72269732 24 138 118
0.018936036 -0.53378981 -0.72204989 34 136 118
0.018033007 -0.53343415 -0.72183526 38 136 117
0.02272271 -0.53463703 -0.72255963 23 136 120
0.021751268 -0.53511894 -0.72280186 23 136 119
0.021885974 -0.53540987 -0.72293478 21 137 119
0.023190195 -0.53474188 -0.7225998 21 137 120
0.024003739 -0.53420395 -0.72231942 21 138 119
0.024396854 -0.53491873 -0.72265506 20 138 120
0.022877883 -0.53363299 -0.72207838 25 137 120
0.023174096 -0.53353643 -0.72202146 24 139 118
0.028830631 -0.53526503 -0.72297734 33 135 121
0.027539872 -0.53451204 -0.72254008 29 137 120
0.025599146 -0.5338645 -0.72211897 23 139 119
0.026226221 -0.53380013 -0.72212154 26 138 119
0.026531961 -0.53356361 -0.72203255 28 138 120
0.028842816 -0.53408772 -0.72244066 36 136 119
0.0289912 -0.5341025 -0.72245842 38 134 120
0.030317629 -0.534949 -0.72280109 38 133 119
0.029494865 -0.5340004 -0.7224229 40 134 119
0.029909253 -0.53375906 -0.72228873 42 133 119
0.029894728 -0.53536427 -0.72301435 36 134 120
0.032335788 -0.53526765 -0.72282249 42 132 117
0.031314936 -0.5340938 -0.72236603 40 132 119
0.033261858 -0.53499591 -0.72266763 38 131 117
0.0083037233 -0.53754735 -0.72290701 52 137 115
0.0084832255 -0.5375585 -0.72293907 51 136 116
0.029134363 -0.56081337 -0.73481262 38 138 111
0.03189566 -0.56106907 -0.73484045 39 135 110
0.032140668 -0.5612331 -0.73491514 40 136 110
0.036680397 -0.56145072 -0.73510402 31 135 114
0.036498781 -0.56332529 -0.73612171 48 132 112
0.035806756 -0.56303149 -0.73594505 47 132 112
0.036316093 -0.56368226 -0.73631197 52 131 112
0.034408785 -0.56226647 -0.73548919 43 134 111
0.034228429 -0.56167763 -0.73515999 40 134 111
0.035128411 -0.56144446 -0.73505741 35 135 112
0.03344503 -0.56120574 -0.73487788 38 136 110
0.039447665 -0.56269526 -0.73579329 38 134 110
0.038538981 -0.56377971 -0.7364006 48 132 110
0.040687624 -0.56161129 -0.73519653 27 134 111
0.039050393 -0.56307077 -0.73600107 41 133 110
0.039639864 -0.56412303 -0.73663551 45 134 109
0.03721654 -0.5631898 -0.73606163 45 133 111
0.038326968 -0.562837 -0.73586202 42 132 111
0.038246863 -0.5621835 -0.73550624 36 134 112
0.03862083 -0.56200093 -0.73540431 34 133 112
0.038328689 -0.56301516 -0.73595917 43 133 111
0.038902685 -0.56096584 -0.73483813 24 135 113
0.041791312 -0.56113189 -0.73492348 21 137 112
0.042285454 -0.56138086 -0.73506784 24 136 112
0.041316498 -0.56199664 -0.73543137 27 135 111
0.042310435 -0.56118751 -0.73495454 24 135 113
0.041340489 -0.56228447 -0.73559994 29 135 111
0.039564542 -0.56534702 -0.73732257 53 132 110
0.040586416 -0.56470782 -0.73699927 45 135 109
0.042407505 -0.5666737 -0.73813695 52 134 110
0.041988835 -0.5652892 -0.73735845 43 136 109
0.042315099 -0.56497556 -0.73715973 42 136 109
0.021005619 -0.54463047 -0.72716618 25 134 119
0.017705878 -0.5448699 -0.72697836 17 132 122
0.023466757 -0.54485416 -0.72733909 21 135 116
0.023415223 -0.54445672 -0.72714895 21 135 117
0.027102128 -0.54456192 -0.72723228 19 135 116
0.026125595 -0.54418373 -0.72705078 18 134 117
0.030427551 -0.54408413 -0.72702116 23 136 118
0.029967604 -0.54441738 -0.72716969 21 137 118
0.0018539825 -0.54843891 -0.72754103 46 138 116
0.00039702715 -0.54868186 -0.72743112 51 138 116
0.0039970037 -0.54820383 -0.72771275 42 135 118
0.0046969471 -0.54751718 -0.7274614 42 135 118
0.0030945342 -0.54877794 -0.72787714 42 136 117
0.0036029809 -0.54721421 -0.72717112 46 136 117
0.0021019315 -0.5474928 -0.72713101 48 139 116
0.0079160733 -0.54823846 -0.72810817 27 135 118
0.008962566 -0.5466578 -0.72747838 26 136 120
0.0089267772 -0.54829806 -0.7281577 25 134 120
0.0071747121 -0.54850549 -0.72820061 31 133 119
0.0091005228 -0.54809368 -0.72807717 25 134 120
0.0078264987 -0.54577655 -0.7269572 34 135 119
0.0079139695 -0.54663575 -0.72740805 31 135 119
0.012710035 -0.54786158 -0.7282263 15 132 122
0.012247167 -0.54702854 -0.72776574 16 132 121
0.013656528 -0.54822421 -0.72850448 14 132 123
0.012696866 -0.54805344 -0.72832 15 132 122
0.012366926 -0.5464282 -0.72748107 16 132 121
0.013195353 -0.54674047 -0.72772193 14 132 122
0.0129837 -0.54526275 -0.72700721 15 132 122
0.011938393 -0.54602623 -0.72729534 17 134 122
0.011079209 -0.54537278 -0.72700107 20 133 121
0.010943911 -0.54705697 -0.7276957 18 134 120
0.012485372 -0.54533881 -0.72702521 16 132 121
0.014237833 -0.54676205 -0.72779918 14 132 123
0.01465762 -0.54507732 -0.72697777 14 132 123
0.015652357 -0.54545599 -0.72719491 15 132 123
0.01456634 -0.54589504 -0.7273798 14 132 123
0.015918609 -0.54624224 -0.72759318 15 132 123
0.017072592 -0.54537404 -0.7271992 16 132 123
0.016042415 -0.54821044 -0.72851193 12 132 123
0.017205233 -0.54813832 -0.7284745 12 132 123
0.017055903 -0.54589677 -0.72744209 16 132 123
0.015917486 -0.54797816 -0.7284053 14 130 123
0.015483515 -0.5472644 -0.72807795 14 132 122
0.01659574 -0.54689354 -0.72790301 14 132 123
0.019982314 -0.54856324 -0.72880715 19 135 120
0.021195555 -0.54588437 -0.72773433 26 134 119
0.019264154 -0.54844129 -0.72871697 17 134 122
0.021317778 -0.54765397 -0.72849244 26 136 120
0.019214803 -0.54778516 -0.72843564 17 134 122
0.019637804 -0.54863197 -0.72881794 18 134 121
0.018360768 -0.54631859 -0.72770476 17 132 122
0.020151449 -0.54497409 -0.72724557 23 135 119
0.019731853 -0.54621905 -0.72778177 20 133 120
0.018715307 -0.54603517 -0.72760588 18 132 122
0.018770346 -0.54600888 -0.72759873 18 132 122
0.018208954 -0.54814422 -0.72853237 15 132 123
0.024662895 -0.54685551 -0.72825211 20 137 115
0.022383409 -0.54859477 -0.72893739 26 136 120
0.025273766 -0.54592621 -0.72785598 19 135 116
0.02365564 -0.54878628 -0.72908813 24 138 117
0.024339894 -0.54866445 -0.72906601 24 138 117
0.024975952 -0.54857689 -0.72905725 24 138 116
0.023297377 -0.54701018 -0.72825575 21 135 117
0.021913426 -0.54708618 -0.72826684 26 134 119
0.024781182 -0.54492438 -0.72739267 19 134 116
0.021536097 -0.54609889 -0.72784168 27 135 119
0.02284706 -0.54517698 -0.72747022 23 136 117
0.022027459 -0.54595417 -0.72778773 25 136 118
0.02887289 -0.54775852 -0.72867477 21 137 116
0.02928903 -0.54851478 -0.72901022 21 137 115
0.028855622 -0.54743922 -0.72853142 20 137 115
0.028932961 -0.54636312 -0.72804683 20 137 116
0.027193541 -0.54715896 -0.72842324 21 138 116
0.028517485 -0.54818201 -0.72886896 23 135 116
0.025555424 -0.54598558 -0.7278887 19 137 115
0.02723177 -0.54689366 -0.72830272 21 137 116
0.026447395 -0.54577309 -0.72778982 19 137 116
0.026748326 -0.54545844 -0.72764504 19 135 116
0.026861222 -0.54641336 -0.72808295 20 137 116
0.029382862 -0.54757649 -0.72859061 21 137 116
0.030064344 -0.54567349 -0.72775286 21 137 117
0.02992407 -0.54546762 -0.72765666 20 137 116
0.00031099864 -0.5499801 -0.7281177 47 137 114
-0.00052585092 -0.55128938 -0.72870702 48 136 113
0.00074583618 -0.54950285 -0.7279228 48 137 115
0.0050555472 -0.55019736 -0.72888315 36 134 117
0.0049288254 -0.55266279 -0.73008049 34 135 115
0.0026220393 -0.54940093 -0.72813338 43 137 117
0.0086714504 -0.55011785 -0.7289992 25 133 119
0.0094355829 -0.55261272 -0.73014587 21 133 118
0.007044415 -0.55250859 -0.7301113 27 135 116
0.009746518 -0.55053526 -0.72918576 20 135 118
0.0085412236 -0.55058736 -0.72921658 25 133 119
0.0091413241 -0.55131638 -0.72954947 23 133 118
0.0061662635 -0.55193579 -0.72983718 31 135 117
0.0087487297 -0.54976928 -0.7288357 25 133 120
0.0075869067 -0.54997331 -0.72890741 27 134 118
0.0079383748 -0.55020219 -0.72902858 27 134 119
0.0081200739 -0.55003828 -0.72895247 26 134 119
0.0069396431 -0.5491994 -0.72851115 30 135 118
0.0122688 -0.55142128 -0.72981316 16 132 120
0.013147007 -0.55084032 -0.72962606 15 132 121
0.01292565 -0.55234826 -0.73025328 16 134 120
0.012831921 -0.55223608 -0.73019898 16 134 120
0.013181296 -0.5527156 -0.73042738 15 134 119
0.01312213 -0.55225778 -0.73022825 15 134 119
0.010987484 -0.54894531 -0.7285794 18 134 121
0.010359418 -0.54888076 -0.72848415 19 134 120
0.0098290518 -0.55135274 -0.72956932 20 133 118
0.011084205 -0.55015594 -0.72914803 18 132 120
0.011634702 -0.54909229 -0.72871464 17 132 122
0.010208151 -0.55100554 -0.72944868 19 134 118
0.016311904 -0.55222344 -0.73038924 14 134 121
0.015048332 -0.55137712 -0.72988731 14 132 121
0.016159862 -0.55225056 -0.73039269 14 134 121
0.017249351 -0.54930162 -0.72900397 11 132 123
0.016416788 -0.55084312 -0.72971261 14 132 122
0.016893575 -0.55194902 -0.73029143 14 132 121
0.015532443 -0.54961926 -0.72913539 12 132 122
0.014508151 -0.55099207 -0.72972393 14 132 121
0.015454791 -0.5507893 -0.72963417 14 132 121
0.01451049 -0.54911864 -0.72892582 12 132 122
0.015620753 -0.54999769 -0.72929633 12 132 122
0.014844653 -0.54940116 -0.72904497 12 132 122
0.02059111 -0.55136013 -0.730187 17 136 120
0.01879359 -0.55243039 -0.73062921 14 134 120
0.019660551 -0.55255949 -0.73072803 14 134 121
0.020555614 -0.55091399 -0.7299698 18 136 119
0.019043978 -0.55160034 -0.73023826 16 136 120
0.020467263 -0.54983503 -0.72944415 21 137 119
0.01860081 -0.54963893 -0.72924721 15 134 121
0.018305892 -0.55155617 -0.73018074 15 134 121
0.018885523 -0.54961079 -0.72924852 16 134 121
0.020243214 -0.5497734 -0.72940171 20 137 119
0.018587612 -0.54945266 -0.72915429 15 132 122
0.02425256 -0.55150032 -0.73050511 19 139 117
0.021609608 -0.55039424 -0.72976708 20 137 119
0.02315739 -0.55231786 -0.73081636 16 138 118
0.022444567 -0.5520097 -0.73061252 16 136 119
0.024005586 -0.55114794 -0.73031574 20 138 117
0.023822879 -0.55183464 -0.7306338 18 137 117
0.022071186 -0.54897732 -0.72910619 26 136 120
0.0234254 -0.54975194 -0.72957349 23 138 118
0.024667896 -0.55127209 -0.73042065 20 138 116
0.024168642 -0.55038089 -0.72993529 21 138 117
0.023909226 -0.55031645 -0.72988915 21 138 117
0.026155064 -0.55211598 -0.73081064 20 138 116
0.027699331 -0.55169088 -0.7304253 24 136 116
0.0265543 -0.55094904 -0.73016459 23 138 116
0.026099509 -0.54988754 -0.72966468 23 138 116
0.027122848 -0.5501796 -0.7297439 24 138 115
0.028934024 -0.5495218 -0.72944725 23 136 115
0.025849767 -0.54919803 -0.72934401 24 138 115
0.025459643 -0.5488342 -0.72919482 24 138 115
0.029074594 -0.54942411 -0.72940463 23 136 115
0.029298224 -0.54985154 -0.72958231 23 136 115
0.02945153 -0.54935372 -0.72936469 23 136 115
0.0051656691 -0.55347228 -0.73050052 33 134 115
0.0060589709 -0.55304295 -0.73037219 30 135 116
0.0072007487 -0.55403978 -0.73085767 27 134 115
0.0075763743 -0.55326349 -0.73048115 27 134 117
0.0094011249 -0.55389768 -0.73079282 21 133 117
0.011356942 -0.55333233 -0.73060405 19 132 118
0.0099105425 -0.55325192 -0.73047209 20 133 117
0.012361696 -0.55284494 -0.73043197 17 134 119
0.014446593 -0.55337161 -0.73082733 16 134 119
0.028555937 -0.52070236 -0.71553469 42 138 115
0.027101582 -0.52112919 -0.71585566 43 137 115
0.028075036 -0.52030003 -0.71537071 43 137 116
0.025656277 -0.5209865 -0.71589404 43 137 115
0.025813211 -0.52099419 -0.71588576 43 137 115
0.029452672 -0.52064103 -0.71544939 41 137 115
0.029405948 -0.52066928 -0.71546376 41 137 115
0.020633636 -0.52468789 -0.71784693 36 136 121
0.018960761 -0.52482736 -0.7178486 38 137 120
0.019001294 -0.52498066 -0.7179265 38 137 120
0.021413444 -0.52388012 -0.71747679 36 134 122
0.021346636 -0.52453756 -0.71780103 34 135 121
0.021071531 -0.52296281 -0.71700674 38 135 122
0.018239487 -0.52421075 -0.71752888 40 137 120
0.019354682 -0.52347696 -0.71719724 40 136 121
0.022771398 -0.5253638 -0.71818399 35 136 120
0.025229655 -0.5228458 -0.71685016 43 137 117
0.024887435 -0.52207166 -0.71646845 42 137 115
0.022602839 -0.52448219 -0.71774364 35 136 119
0.02433108 -0.52375793 -0.71733356 40 136 117
0.025259022 -0.52311414 -0.71698475 42 137 116
0.022687694 -0.52327925 -0.71714103 38 136 119
0.022169136 -0.52352434 -0.71728009 36 136 119
0.024869796 -0.52150148 -0.71618485 43 137 115
0.024699833 -0.52202588 -0.71645129 42 137 116
0.028286593 -0.52251732 -0.71647054 39 137 115
0.026776437 -0.52423102 -0.71745181 41 137 117
0.02785344 -0.52418226 -0.71738392 40 138 115
0.026159342 -0.52531713 -0.71806055 42 138 118
0.026525486 -0.52446079 -0.71758521 41 138 117
0.028277699 -0.52389181 -0.71721107 40 137 115
0.026923286 -0.52338356 -0.71700591 40 137 116
0.026715726 -0.52280825 -0.71673071 41 136 116
0.02542291 -0.52482152 -0.71784037 42 137 118
0.02555309 -0.52258307 -0.71670163 43 136 116
0.02769029 -0.52281654 -0.71666408 40 136 116
0.027174605 -0.52158886 -0.71608222 42 136 115
0.031746365 -0.52475852 -0.71760958 33 138 116
0.03149182 -0.52505445 -0.71776599 33 138 115
0.030026088 -0.52411205 -0.71729571 39 137 115
0.029660929 -0.52497542 -0.71775788 39 138 114
0.030322449 -0.52280927 -0.71659625 38 137 115
0.0091814222 -0.52872097 -0.71891969 54 136 116
0.0090995869 -0.52887166 -0.71897775 55 135 116
0.015478604 -0.527466 -0.71883094 45 138 119
0.01684976 -0.52655089 -0.71854866 40 137 120
0.017569937 -0.52647173 -0.71857935 38 138 120
0.018810086 -0.52644753 -0.71863067 35 137 120
0.017819203 -0.52683574 -0.71876305 36 138 119
0.01897659 -0.52646595 -0.71864766 35 137 120
0.018308505 -0.52629715 -0.71853489 36 137 120
0.0200876 -0.52593011 -0.71843857 33 137 121
0.021477766 -0.52721649 -0.71912485 29 135 120
0.021350874 -0.52715415 -0.71908921 29 135 120
0.024357593 -0.52721256 -0.7190904 38 137 118
0.023425145 -0.52673888 -0.71886903 36 136 119
0.022473317 -0.52631015 -0.71866989 33 137 120
0.02305273 -0.526142 -0.71858001 35 136 119
0.024116665 -0.52547413 -0.71820605 38 137 119
0.023359574 -0.52629209 -0.71864992 36 137 119
0.028150331 -0.52723724 -0.71900266 42 138 115
0.027451497 -0.52740669 -0.71911216 42 137 116
0.026300365 -0.52684063 -0.71885395 42 137 117
0.027635049 -0.52593607 -0.71833366 41 138 116
0.02838834 -0.52650154 -0.71860582 42 138 115
0.025588034 -0.52541733 -0.71813643 41 138 118
0.028028293 -0.52677304 -0.71876436 42 138 115
0.029402973 -0.52731478 -0.71899885 42 137 114
0.029867988 -0.52650404 -0.71854454 40 137 114
0.031796701 -0.52641451 -0.71843135 33 138 116
0.030429495 -0.52580082 -0.71815771 36 137 114
0.022925446 -0.55261952 -0.73094434 16 136 119
0.021635408 -0.55269754 -0.730883 15 134 121
0.009571786 -0.5544377 -0.73106241 21 132 117
0.0077035292 -0.5556224 -0.73162997 26 133 116
0.009242258 -0.55480254 -0.73124218 21 133 116
0.0097095519 -0.55562001 -0.73166978 20 133 115
0.0088911457 -0.55415118 -0.73091489 23 133 116
0.0064631375 -0.55419648 -0.730932 29 134 116
0.0074051367 -0.55551267 -0.73157036 26 134 115
0.0072057229 -0.5547902 -0.73122054 27 134 115
0.011554455 -0.55603164 -0.73197854 20 133 116
0.013168783 -0.55429256 -0.73120117 18 132 118
0.011309167 -0.55576217 -0.73183465 20 132 117
0.012213017 -0.55637318 -0.73217744 23 131 117
0.012028895 -0.55598068 -0.73197597 21 132 117
0.010340356 -0.55593258 -0.73186725 20 132 116
0.01036882 -0.5550341 -0.73140967 20 132 117
0.010581407 -0.55489987 -0.73135453 20 132 117
0.010191112 -0.55552322 -0.73164845 20 132 116
0.017399251 -0.55484819 -0.73184294 18 134 117
0.014066183 -0.55652213 -0.73235977 24 133 118
0.015121331 -0.556081 -0.73224431 21 133 117
0.017155077 -0.55553174 -0.73218489 19 134 116
0.017375112 -0.55542147 -0.73215097 19 134 116
0.015034916 -0.55476671 -0.73155236 18 134 118
0.013707482 -0.55471528 -0.731435 19 132 118
0.016211804 -0.55384725 -0.73118258 15 136 118
0.014901151 -0.5548948 -0.73160595 18 134 118
0.016035609 -0.55381566 -0.73115486 15 136 118
0.017972235 -0.55456126 -0.73172569 16 136 117
0.018682182 -0.55318302 -0.73100972 14 134 120
0.018853042 -0.55341887 -0.73114514 15 134 120
0.018832905 -0.55496973 -0.73198521 18 134 117
0.019304803 -0.5546838 -0.7318508 17 134 118
0.020779446 -0.55493402 -0.73202747 18 134 117
0.020551942 -0.55402416 -0.73154205 16 134 118
0.020864382 -0.55376101 -0.73141229 15 136 118
0.021252912 -0.55568278 -0.73243499 19 135 116
0.019940175 -0.55658937 -0.73287541 20 135 114
0.019432813 -0.55644304 -0.73278403 20 135 114
0.024368804 -0.55559248 -0.73248154 20 135 115
0.024912659 -0.55358839 -0.73157465 19 137 116
0.024263941 -0.55512267 -0.73226804 19 137 115
0.022832198 -0.55559003 -0.73247451 20 137 115
0.023313202 -0.55495697 -0.73218924 20 137 115
0.023406986 -0.55516058 -0.73228198 20 135 115
0.022487145 -0.55307072 -0.73114336 16 134 119
0.022937786 -0.55356777 -0.73143959 17 137 118
0.021861663 -0.55451 -0.73185307 18 134 117
0.02454054 -0.55289364 -0.73120773 18 137 117
0.025158159 -0.55294424 -0.73128182 19 139 116
0.022862023 -0.55404568 -0.73168534 18 136 117
0.028765492 -0.55281806 -0.73089206 23 136 115
0.028780352 -0.55335951 -0.73116523 23 136 116
0.028515736 -0.55353057 -0.73127878 23 135 116
0.028776746 -0.55421263 -0.73159891 23 135 116
0.028460756 -0.5547896 -0.73192382 21 137 116
0.029271089 -0.55543226 -0.73216867 23 135 116
0.026564484 -0.55277348 -0.73109084 20 137 116
0.025871407 -0.55639154 -0.73282564 20 135 115
0.027104132 -0.55527967 -0.73226422 21 135 116
0.027237808 -0.55639583 -0.73276424 20 137 115
0.027082015 -0.55629134 -0.73272401 20 137 115
0.025696712 -0.55340856 -0.73148078 19 139 116
0.026983254 -0.55596685 -0.73258144 20 137 115
0.032457959 -0.55610871 -0.73244745 21 135 114
0.03067811 -0.5566206 -0.73272979 21 135 116
0.029476615 -0.55647981 -0.73270237 23 135 116
0.036439661 -0.55443352 -0.73167592 21 133 116
0.036394469 -0.55556905 -0.7322818 20 132 117
0.03630963 -0.55433244 -0.73162776 21 133 116
0.034700338 -0.55592495 -0.73240304 21 132 116
0.035938453 -0.55566984 -0.73233843 20 132 116
0.035521906 -0.55633903 -0.73262179 19 134 116
0.040978152 -0.55524081 -0.73209393 19 134 118
0.039756469 -0.55607182 -0.73251969 18 132 118
0.040454201 -0.55598742 -0.73247331 17 134 118
0.039904568 -0.55461872 -0.73178589 21 135 117
0.038579229 -0.55653107 -0.73275769 17 132 118
0.039219081 -0.55584258 -0.73240691 18 134 117
0.038897712 -0.55466312 -0.73180777 21 135 117
0.037153699 -0.5559907 -0.73247612 18 134 117
0.041717824 -0.55440229 -0.73167735 21 135 117
0.041026734 -0.55531031 -0.73212886 19 134 118
0.04195435 -0.55550635 -0.73223639 18 134 117
0.042872567 -0.55549383 -0.7322138 20 133 118
0.043089412 -0.55470747 -0.73183924 21 135 117
0.044170797 -0.55622584 -0.73252362 21 133 119
0.042467184 -0.55540699 -0.73218352 19 134 118
0.042958844 -0.55637676 -0.73262578 19 132 118
0.0054166773 -0.55724537 -0.73237169 31 135 114
0.005755547 -0.55755764 -0.73253119 30 135 114
0.0088513941 -0.5580399 -0.73282152 26 133 115
0.0087706968 -0.55897403 -0.73325408 28 132 115
0.0077644507 -0.56038463 -0.73388577 33 133 114
0.0092327492 -0.55959588 -0.73355454 30 132 115
0.0076452093 -0.55879456 -0.73314321 27 135 115
0.0088975281 -0.55855441 -0.73306197 27 134 115
0.0082498211 -0.55714238 -0.73239326 26 133 116
0.0068786079 -0.55672258 -0.73217154 27 134 114
0.0078286314 -0.558056 -0.73280615 27 134 115
0.0081604095 -0.55723095 -0.73243225 26 133 115
0.0071953461 -0.55853534 -0.73301429 29 134 115
0.0071730264 -0.55666715 -0.73215199 27 134 115
0.012742613 -0.55765063 -0.73280829 27 131 117
0.011143034 -0.55931467 -0.73351043 29 132 115
0.012893526 -0.55961239 -0.73385137 33 134 115
0.01264728 -0.55801141 -0.73298711 27 134 115
0.013516967 -0.56013072 -0.73418868 34 135 114
0.012181188 -0.56005007 -0.73400515 33 133 114
0.011742271 -0.55666977 -0.73229998 23 133 116
0.010765075 -0.55741894 -0.73260224 25 131 116
0.0098108342 -0.5592261 -0.73339766 28 132 115
0.010479989 -0.55905551 -0.73334998 28 132 115
0.010639396 -0.55766696 -0.73271167 25 131 116
0.011305233 -0.55828756 -0.73303181 27 132 116
0.017452842 -0.55964398 -0.73416805 36 136 113
0.016544778 -0.55848372 -0.73361617 29 136 114
0.016665064 -0.55927616 -0.73397368 33 135 114
0.017148325 -0.55944967 -0.73406971 34 136 113
0.017562348 -0.55674946 -0.73288369 23 135 115
0.016971949 -0.55809534 -0.73345989 27 135 114
0.014961098 -0.55744648 -0.73295093 25 134 115
0.015097234 -0.55734855 -0.73291558 25 134 115
0.015461954 -0.55835831 -0.73348701 27 135 114
0.015465569 -0.55717486 -0.73286778 25 134 116
0.013789435 -0.55858326 -0.73340869 29 134 115
0.013929383 -0.55739367 -0.73280227 26 134 116
0.020587452 -0.55871797 -0.73379195 33 136 113
0.019521106 -0.55870658 -0.73380566 32 134 114
0.020928733 -0.55734044 -0.73323524 26 134 114
0.017751515 -0.55666333 -0.73285085 23 135 115
0.017839761 -0.55958956 -0.73415607 36 136 113
0.019857606 -0.55718046 -0.73314041 25 136 114
0.018890005 -0.55701411 -0.73303908 25 134 115
0.018887874 -0.55860478 -0.73374718 32 134 114
0.018128568 -0.55886835 -0.73384315 32 136 113
0.024617884 -0.55939364 -0.73424238 36 136 112
0.023553984 -0.55938983 -0.73413783 36 136 112
0.024493247 -0.55948782 -0.73427671 37 136 112
0.024990255 -0.55888528 -0.73402792 33 135 112
0.022200506 -0.55727857 -0.73320365 26 134 114
0.02208038 -0.55803031 -0.73350388 29 136 113
0.021637592 -0.55798227 -0.7334829 29 136 113
0.02500728 -0.55701321 -0.73310834 21 137 113
0.0220499 -0.55702537 -0.73310184 25 134 114
0.022737026 -0.55841869 -0.73366171 31 136 112
0.025640808 -0.55817229 -0.73370153 28 135 113
0.025598679 -0.55727071 -0.73325968 24 136 114
0.027313165 -0.56003451 -0.73452622 36 137 111
0.026051829 -0.55772614 -0.73345906 26 136 114
0.026846889 -0.55882269 -0.73395568 31 136 112
0.027438808 -0.55775881 -0.73340786 27 135 114
0.028553883 -0.5567677 -0.73287576 21 137 116
0.028522478 -0.55897224 -0.73394573 31 137 112
0.026764603 -0.55716777 -0.73315269 23 136 114
0.027353704 -0.55836356 -0.73370486 27 137 113
0.027572295 -0.55686063 -0.73296636 21 137 115
0.030421862 -0.56009501 -0.73441213 35 137 111
0.032561872 -0.55787307 -0.73327267 27 134 114
0.03137099 -0.56027663 -0.73445779 34 137 110
0.030623967 -0.55994797 -0.73433417 34 136 111
0.032814335 -0.55806363 -0.73335207 27 135 112
0.030001562 -0.55923051 -0.73401409 32 137 112
0.031864554 -0.55778223 -0.73325688 27 134 114
0.031328619 -0.55847216 -0.73360717 29 135 113
0.029466471 -0.55811501 -0.73348933 28 135 115
0.031683128 -0.55800325 -0.73336935 27 135 112
0.029554665 -0.5594213 -0.73411983 33 137 112
0.034030776 -0.56029844 -0.73441708 31 136 111
0.03690736 -0.5576064 -0.73325968 19 132 116
0.036946185 -0.55927479 -0.73402876 20 135 115
0.036339417 -0.55803323 -0.73343998 21 133 116
0.035054158 -0.55923486 -0.73395663 27 135 112
0.035745051 -0.55900472 -0.73387027 25 134 114
0.033512656 -0.56017733 -0.73434585 32 136 110
0.033757374 -0.55991763 -0.73423314 31 137 110
0.036363654 -0.55706912 -0.73299313 19 134 116
0.037039969 -0.55665374 -0.73282421 18 132 117
0.034358524 -0.55863571 -0.73365211 27 135 112
0.039885215 -0.55854166 -0.73367822 18 134 116
0.03771358 -0.56042606 -0.7345584 21 135 116
0.040349439 -0.55916232 -0.73395753 18 134 115
0.040974449 -0.56032377 -0.73448241 18 136 112
0.040294476 -0.55791473 -0.73338825 17 134 116
0.038398508 -0.55720514 -0.73307377 17 134 118
0.039486863 -0.55666101 -0.73281741 16 134 117
0.037486933 -0.55900997 -0.73390949 19 134 116
0.037963755 -0.55675954 -0.73287094 17 132 118
0.038637672 -0.55854571 -0.73368955 18 134 116
0.038459126 -0.55690372 -0.73293471 17 132 118
0.04228564 -0.55948955 -0.73407364 19 135 114
0.043080803 -0.55924219 -0.73395431 20 133 115
0.042903081 -0.55979025 -0.73421878 20 133 115
0.042842247 -0.55886525 -0.7337724 20 133 115
0.043028552 -0.55966926 -0.73416036 20 135 115
0.044648349 -0.55872464 -0.73370451 21 133 118
0.043548055 -0.55713075 -0.7329582 20 132 119
0.044572309 -0.55676067 -0.73276263 21 133 119
0.041686412 -0.55850148 -0.73363239 18 134 115
0.041156724 -0.55720609 -0.73305452 16 134 117
0.042127762 -0.55926454 -0.73396951 19 135 114
0.044990949 -0.5599758 -0.73431259 21 133 117
0.03129473 -0.56060553 -0.73462093 35 138 110
0.03358493 -0.56073546 -0.73462284 33 138 110
0.045205429 -0.56072021 -0.7346862 21 135 116
0 0 0 1 0 0 0 1 0 0 0 1 0 0 0 0 0 807 1 0 0
