ply
format ascii 1.0
comment PCL generated
element vertex 791
property float x
property float y
property float z
property uchar red
property uchar green
property uchar blue
element camera 1
property float view_px
property float view_py
property float view_pz
property float x_axisx
property float x_axisy
property float x_axisz
property float y_axisx
property float y_axisy
property float y_axisz
property float z_axisx
property float z_axisy
property float z_axisz
property float focal
property float scalex
property float scaley
property float centerx
property float centery
property int viewportx
property int viewporty
property float k1
property float k2
end_header
-0.16818345 -0.52826422 -0.74228173 151 138 117
-0.16748661 -0.528938 -0.74149936 154 136 118
-0.1689 -0.53049141 -0.74217278 165 133 120
-0.1686085 -0.53075302 -0.74185151 166 132 121
-0.16932005 -0.53069776 -0.74245256 167 132 120
-0.16776939 -0.53097153 -0.74107438 165 132 122
-0.17981035 -0.51686639 -0.75749898 171 132 119
-0.17886014 -0.51725274 -0.75690788 169 132 119
-0.17981437 -0.51658827 -0.75770336 169 133 119
-0.17874289 -0.51721519 -0.75689709 168 132 119
-0.17926179 -0.51605469 -0.75791293 161 134 118
-0.17731638 -0.51626337 -0.75688624 154 135 116
-0.17764202 -0.51683396 -0.75676072 158 134 117
-0.18930164 -0.52119344 -0.75812924 135 146 119
-0.18717457 -0.52043778 -0.75781667 160 140 119
-0.1876498 -0.52116102 -0.75761127 155 142 120
-0.17678148 -0.51772308 -0.75549334 163 135 118
-0.17709266 -0.51781166 -0.75566387 163 134 118
-0.17678379 -0.51896513 -0.75463396 162 137 118
-0.17686225 -0.51903343 -0.75464511 162 137 118
-0.19088201 -0.52526748 -0.75711775 150 140 119
-0.19137758 -0.52372259 -0.75795281 145 141 119
-0.1917558 -0.52510214 -0.75755149 151 139 119
-0.19090022 -0.52334964 -0.75790399 143 142 118
-0.19020395 -0.52471882 -0.75705594 147 141 118
-0.19182356 -0.5240159 -0.75802094 147 141 119
-0.18689524 -0.52453929 -0.75593472 150 144 118
-0.18690179 -0.52359003 -0.75634551 161 141 120
-0.18860056 -0.52493387 -0.75636482 150 142 118
-0.18813691 -0.52475524 -0.75627857 151 142 118
-0.18751025 -0.52450758 -0.75616467 152 142 118
-0.18570545 -0.52391195 -0.75578612 155 144 118
-0.18905091 -0.52403682 -0.75688601 147 142 118
-0.18796021 -0.52343988 -0.75677127 158 140 119
-0.18723029 -0.52237064 -0.75696629 164 139 120
-0.18762718 -0.52284479 -0.75690377 160 140 120
-0.18732238 -0.52261335 -0.75689793 164 139 120
-0.18390134 -0.5249542 -0.75462061 157 142 119
-0.18470876 -0.52399957 -0.75543946 158 142 119
-0.18514156 -0.52440637 -0.75539517 151 144 118
-0.1849307 -0.52298182 -0.75594437 168 140 121
-0.1963463 -0.52879137 -0.75799972 165 135 123
-0.19344173 -0.52874327 -0.75681448 156 138 122
-0.19523305 -0.5279361 -0.75787669 162 136 122
-0.19409417 -0.52735764 -0.75763339 158 137 121
-0.19415185 -0.5291937 -0.75693059 159 138 123
-0.19439737 -0.52642989 -0.75812638 160 136 121
-0.19068991 -0.52687848 -0.75640529 150 140 120
-0.1896397 -0.52633506 -0.756194 149 140 119
-0.18979402 -0.52684385 -0.7560674 150 139 120
-0.19080107 -0.52754426 -0.75620407 152 139 121
-0.19147192 -0.52923018 -0.75584686 155 137 123
-0.18968534 -0.52867091 -0.75535315 154 136 123
-0.19150175 -0.52724034 -0.75659567 152 140 120
-0.1926804 -0.52746195 -0.75700253 154 139 121
-0.19326003 -0.527529 -0.7572192 156 138 122
-0.19116808 -0.52550888 -0.75714099 152 139 119
-0.19117841 -0.52709824 -0.75651628 151 140 120
-0.1926102 -0.52817166 -0.75669217 154 139 122
-0.18650718 -0.52704561 -0.75473928 144 143 119
-0.18715455 -0.52846837 -0.75434482 149 138 121
-0.18775499 -0.52839577 -0.75467068 150 138 122
-0.18773393 -0.52789927 -0.75490272 148 140 120
-0.18852907 -0.52861667 -0.75492793 152 137 122
-0.18872692 -0.5262118 -0.75591081 147 141 119
-0.18837108 -0.52657545 -0.75565195 147 141 119
-0.18898481 -0.52613688 -0.75602913 148 141 119
-0.18864943 -0.52783191 -0.75528795 150 139 121
-0.18796271 -0.52741116 -0.7552011 148 141 120
-0.18875919 -0.52835047 -0.75513595 151 138 122
-0.18493447 -0.52643603 -0.75429732 146 143 119
-0.18484682 -0.52580011 -0.7545805 146 145 118
-0.19377179 -0.5298152 -0.75660527 155 140 122
-0.19689651 -0.53063166 -0.75771922 165 138 121
-0.1944335 -0.53026682 -0.75678229 158 140 121
-0.19595106 -0.53058308 -0.7573384 162 139 121
-0.19648454 -0.53059894 -0.75755596 164 139 121
-0.1899531 -0.53078854 -0.75467598 142 140 122
-0.19071892 -0.52993482 -0.7553373 146 140 121
-0.19125994 -0.53040224 -0.75540966 140 144 119
-0.19311546 -0.52972347 -0.75633842 150 141 121
-0.18867131 -0.53001159 -0.75437504 150 136 124
-0.20166892 -0.49217758 -0.77144337 128 135 114
-0.20212358 -0.49284056 -0.77139068 129 136 114
-0.2018601 -0.49149096 -0.77169842 122 135 112
-0.20262052 -0.49389249 -0.77123904 132 137 114
-0.20163101 -0.493884 -0.77094179 138 135 115
-0.20075759 -0.491943 -0.77127898 124 135 114
-0.20508367 -0.49762836 -0.77076685 166 134 121
-0.20169105 -0.49716926 -0.76999187 159 133 117
-0.20159905 -0.49474612 -0.77066666 146 134 117
-0.20186689 -0.49577978 -0.77043939 153 133 118
-0.20235665 -0.49593312 -0.77052337 155 133 118
-0.20226862 -0.49563193 -0.77058697 153 133 118
-0.20417909 -0.49663851 -0.77081811 158 134 119
-0.20440641 -0.49707305 -0.77074403 163 133 120
-0.20339334 -0.49558157 -0.77092785 148 135 117
-0.20501652 -0.49581885 -0.77134138 142 139 115
-0.20478217 -0.49589494 -0.77124542 144 138 116
-0.20093152 -0.49584237 -0.77018225 150 133 116
-0.1996402 -0.49549055 -0.76998848 139 133 115
-0.20018183 -0.49529615 -0.77016854 142 133 116
-0.20516381 -0.49866077 -0.77046996 173 132 122
-0.20737214 -0.50175083 -0.77034873 156 137 119
-0.20615956 -0.50031227 -0.77033687 165 135 120
-0.20597266 -0.49897847 -0.77067548 164 135 121
-0.20627904 -0.50019306 -0.77041793 164 135 120
-0.2058643 -0.49815395 -0.77088755 161 136 120
-0.20499156 -0.49815682 -0.77057046 172 132 122
-0.204877 -0.49939042 -0.77015889 175 131 122
-0.20452358 -0.49889994 -0.77021819 173 132 122
-0.20758557 -0.50326341 -0.77003121 157 140 117
-0.21583973 -0.52139539 -0.77009135 177 136 123
-0.21738665 -0.52490324 -0.77034301 149 151 112
-0.21712717 -0.52350324 -0.77043235 161 144 117
-0.2181492 -0.52410483 -0.77092773 157 145 116
-0.21720582 -0.52304047 -0.77055824 165 141 119
-0.21848023 -0.52490938 -0.77098304 151 147 115
-0.21754117 -0.5234679 -0.77068114 162 143 118
-0.21665682 -0.52337861 -0.77018517 161 145 117
-0.21960291 -0.52594978 -0.77145791 150 146 115
-0.21883535 -0.52551621 -0.77108568 148 149 113
-0.21890414 -0.52688706 -0.77088016 154 145 116
-0.21827149 -0.52557951 -0.77074379 147 151 112
-0.17584471 -0.5184505 -0.75429136 161 139 117
-0.17591326 -0.51962 -0.7535972 160 140 118
-0.17582496 -0.51906431 -0.75389904 159 139 118
-0.17588753 -0.52423453 -0.75065207 150 138 119
-0.17606084 -0.5236485 -0.7511149 151 140 120
-0.18591622 -0.52766311 -0.75413662 143 141 119
-0.18749437 -0.52909738 -0.75420105 152 136 122
-0.1856394 -0.52780122 -0.75393564 144 141 120
-0.18419977 -0.52634972 -0.75400716 152 141 120
-0.18533927 -0.52716732 -0.75410807 143 142 119
-0.18460497 -0.5274455 -0.75364929 152 138 120
-0.18479574 -0.52825332 -0.75334013 153 136 121
-0.18405992 -0.5291993 -0.75247777 151 135 123
-0.1845815 -0.5287143 -0.75299996 153 135 122
-0.18346763 -0.52921945 -0.75217283 152 136 123
-0.17932317 -0.52830213 -0.75056767 154 134 124
-0.18114965 -0.52912033 -0.75106716 154 135 124
-0.18969896 -0.53294581 -0.7536931 130 143 124
-0.18657245 -0.52933359 -0.75364333 151 135 122
-0.18624596 -0.52950168 -0.75341606 149 136 122
-0.18589443 -0.52964056 -0.75319207 147 136 122
-0.18932343 -0.53209102 -0.753851 137 140 124
-0.18708239 -0.53002983 -0.75360203 147 136 123
-0.18715979 -0.53176445 -0.75294244 139 138 123
-0.18645759 -0.53073388 -0.75302058 143 137 123
-0.18839808 -0.53259158 -0.7532084 134 140 123
-0.18725237 -0.53227574 -0.75277901 137 138 123
-0.18894 -0.53285414 -0.75336528 131 142 124
-0.18606079 -0.53117102 -0.75264901 143 136 122
-0.18165481 -0.52944189 -0.75117195 153 136 124
-0.18183106 -0.53035557 -0.75088936 148 136 123
-0.18341655 -0.5320617 -0.75098634 142 136 123
-0.1852006 -0.53286171 -0.75153726 141 135 123
-0.18223113 -0.53046614 -0.75104511 148 136 123
-0.18288383 -0.5320192 -0.75074351 141 137 122
-0.18340343 -0.5308252 -0.75147563 148 135 124
-0.18406317 -0.52956408 -0.75231743 150 136 123
-0.18322186 -0.52997494 -0.75173223 150 136 124
-0.18540375 -0.53030056 -0.75268257 146 135 122
-0.18484375 -0.52990144 -0.75256735 149 135 123
-0.18486187 -0.53214896 -0.75165975 143 135 123
-0.18352175 -0.52986741 -0.75192499 150 136 123
-0.18050519 -0.52949125 -0.7505731 152 135 124
-0.18153021 -0.52960682 -0.75104189 152 136 124
-0.19016288 -0.53696406 -0.75270379 123 142 115
-0.19047847 -0.53561461 -0.75330937 129 142 118
-0.19042753 -0.53589439 -0.75319219 128 143 117
-0.19079471 -0.53646821 -0.75322449 128 142 116
-0.18963744 -0.53587604 -0.75274128 123 143 117
-0.19113789 -0.53549767 -0.7537272 133 142 119
-0.18682083 -0.53614533 -0.75121212 124 141 118
-0.18569019 -0.53352928 -0.7515313 138 136 122
-0.18588948 -0.53514594 -0.75107408 129 139 120
-0.18692599 -0.53582472 -0.75137812 126 140 118
-0.18850075 -0.5364061 -0.75199616 122 142 116
-0.18594272 -0.53628027 -0.75070816 124 141 118
-0.18930328 -0.53473282 -0.75292027 125 142 120
-0.18781124 -0.53503346 -0.75209904 129 139 119
-0.18766332 -0.53440773 -0.75222325 131 139 121
-0.18867849 -0.53576279 -0.75229281 124 141 117
-0.18791497 -0.53354919 -0.75261509 132 140 123
-0.18735781 -0.53440565 -0.75207502 131 138 120
-0.18738101 -0.53381014 -0.75227314 133 138 122
-0.18343039 -0.53340596 -0.75046664 135 137 121
-0.18537578 -0.53367931 -0.75132012 137 136 122
-0.1855081 -0.53395587 -0.75128812 136 136 122
-0.18419102 -0.53391796 -0.75065887 134 138 120
-0.19072805 -0.53743863 -0.75289041 130 141 115
-0.18864743 -0.53716785 -0.75181544 119 143 115
-0.18914612 -0.53729749 -0.75204605 120 143 115
-0.18684924 -0.53779882 -0.75073808 126 141 117
-0.18864612 -0.53763425 -0.75171036 124 141 116
-0.18824869 -0.53747731 -0.75153857 122 142 116
-0.19931667 -0.49559581 -0.76988214 137 133 116
-0.19944797 -0.49581954 -0.76984715 139 133 116
-0.19845799 -0.49510425 -0.76982635 129 132 115
-0.19939902 -0.49677268 -0.76954937 144 132 116
-0.19882077 -0.49678537 -0.76940173 139 133 116
-0.20043714 -0.49771836 -0.76951569 156 133 117
-0.19793786 -0.49781874 -0.76886338 133 134 115
-0.19894755 -0.49661842 -0.76948476 139 133 116
-0.19953692 -0.49780074 -0.76926655 149 133 116
-0.20516719 -0.50187379 -0.76948375 182 131 122
-0.20309849 -0.49897119 -0.76982081 171 132 120
-0.20238106 -0.49917582 -0.7695685 170 132 118
-0.20416814 -0.50096339 -0.76949018 179 131 121
-0.20252188 -0.50009918 -0.76930183 169 133 118
-0.20143214 -0.50187367 -0.76838672 155 139 114
-0.20265774 -0.50035757 -0.76925468 169 133 118
-0.20371693 -0.50114679 -0.76929903 175 132 120
-0.20243953 -0.50010711 -0.76927507 168 133 118
-0.1995946 -0.50151432 -0.76802623 144 138 114
-0.20048444 -0.50168812 -0.76819724 149 139 114
-0.19856527 -0.49987841 -0.76832724 137 137 115
-0.20092694 -0.50171435 -0.76830328 151 139 114
-0.20080017 -0.49950877 -0.76901317 157 135 116
-0.2004472 -0.49891225 -0.769126 155 134 116
-0.19811139 -0.49809074 -0.76882142 135 135 116
-0.19842531 -0.49896175 -0.76860666 135 136 115
-0.199982 -0.49977225 -0.76872122 148 136 115
-0.19970952 -0.49974307 -0.76866329 146 137 115
-0.20769326 -0.50404823 -0.76987004 157 141 116
-0.20596634 -0.50258571 -0.76959723 174 134 120
-0.20645112 -0.50331497 -0.76959187 170 136 118
-0.20548524 -0.50335735 -0.76920837 180 133 121
-0.20556401 -0.50382638 -0.7691136 180 134 120
-0.20562583 -0.50481546 -0.76887357 179 135 120
-0.20720316 -0.5056259 -0.76926553 164 141 116
-0.20599343 -0.50309795 -0.76947349 174 135 119
-0.2063687 -0.50429797 -0.76929808 172 137 118
-0.2020001 -0.50525594 -0.76773113 166 135 119
-0.20264593 -0.5044924 -0.76807457 168 136 118
-0.20280631 -0.50372642 -0.76829356 167 137 117
-0.20231993 -0.50315517 -0.76830083 162 138 116
-0.20184188 -0.50359577 -0.76807553 161 137 117
-0.20194606 -0.50494701 -0.76778889 165 135 119
-0.2018905 -0.50247943 -0.76835358 159 138 115
-0.20449032 -0.50234032 -0.76915085 179 133 120
-0.20340228 -0.50381249 -0.76844001 171 136 118
-0.20307079 -0.50222117 -0.7687676 168 135 118
-0.20226428 -0.50213075 -0.76855594 162 137 116
-0.20462915 -0.50348854 -0.76888514 180 134 120
-0.19820955 -0.50298679 -0.76726359 140 137 117
-0.19835851 -0.50451076 -0.76679564 140 137 116
-0.19902715 -0.50582504 -0.7665928 145 137 117
-0.200325 -0.50579172 -0.76708639 156 135 118
-0.19805731 -0.50465143 -0.76663548 137 137 116
-0.20038886 -0.50331634 -0.76776409 153 137 116
-0.20019509 -0.50255167 -0.76789105 149 138 115
-0.20077503 -0.50296581 -0.76794583 153 138 115
-0.20106402 -0.50244892 -0.76814091 154 139 115
-0.20076452 -0.50489682 -0.76749521 159 135 118
-0.20095228 -0.50369316 -0.76782322 157 137 116
-0.21008262 -0.50975722 -0.76955211 166 138 120
-0.20979387 -0.50805986 -0.76978457 156 142 117
-0.20898975 -0.50721461 -0.76960319 155 144 115
-0.20513499 -0.50785154 -0.767941 184 135 121
-0.20642519 -0.50722897 -0.76861048 181 136 121
-0.20648071 -0.50946254 -0.76811057 179 135 121
-0.20699245 -0.50813282 -0.76862943 178 136 121
-0.20540068 -0.50883824 -0.76781803 183 135 122
-0.20746884 -0.50665689 -0.76913548 167 140 117
-0.20767725 -0.5075382 -0.76902771 171 139 119
-0.20696495 -0.50688308 -0.76889294 173 138 119
-0.20778248 -0.50610828 -0.76937354 160 143 116
-0.20701234 -0.50725448 -0.76883197 175 137 120
-0.20894647 -0.508834 -0.7692405 166 139 119
-0.20161976 -0.5088771 -0.76648915 166 133 122
-0.20126988 -0.50916904 -0.76625621 164 133 122
-0.2014906 -0.50765634 -0.76686805 165 133 120
-0.20144461 -0.50972331 -0.76612759 165 133 122
-0.20141432 -0.50867277 -0.7664839 165 133 121
-0.20339698 -0.50898045 -0.76711684 175 134 121
-0.20470841 -0.5071997 -0.76797515 183 135 121
-0.20357023 -0.5065974 -0.76782292 177 134 121
-0.2026782 -0.50589812 -0.76775676 172 134 120
-0.20475948 -0.50722504 -0.76798236 183 135 121
-0.204108 -0.50873041 -0.76746243 179 134 121
-0.19972609 -0.5074957 -0.7662679 151 135 119
-0.19870937 -0.5066151 -0.76619846 142 137 117
-0.20045494 -0.50689435 -0.7667492 157 134 120
-0.19873762 -0.50698358 -0.76607996 142 137 117
-0.19892852 -0.50644815 -0.76633823 144 137 117
-0.20975561 -0.51155871 -0.76898003 169 138 120
-0.21097536 -0.51265931 -0.76928198 160 139 119
-0.21073905 -0.51265305 -0.76917303 162 139 119
-0.20913313 -0.51079285 -0.76887566 173 137 120
-0.20704876 -0.5129776 -0.76740342 182 136 121
-0.20724699 -0.51347882 -0.7673412 181 136 119
-0.20511794 -0.5114454 -0.76696527 181 136 120
-0.206324 -0.51252657 -0.76720023 181 136 119
-0.20574163 -0.51262456 -0.76689345 180 137 118
-0.20872405 -0.51356471 -0.76801509 182 136 122
-0.20644741 -0.51102728 -0.76771897 183 135 122
-0.20695314 -0.51029617 -0.76810229 179 135 121
-0.20879945 -0.51188064 -0.76846623 178 136 121
-0.20802116 -0.5123601 -0.76803344 182 135 122
-0.20651659 -0.51113993 -0.76771963 183 135 122
-0.20828702 -0.51184958 -0.76826566 180 136 122
-0.20478238 -0.51180738 -0.76671439 179 136 119
-0.20258841 -0.51035374 -0.76635408 170 134 121
-0.20310092 -0.50979084 -0.76672351 173 134 122
-0.20449851 -0.5105654 -0.76700073 179 135 121
-0.20433865 -0.51322585 -0.76609981 175 137 117
-0.20338173 -0.51055849 -0.76658571 173 135 120
-0.2040372 -0.51002181 -0.76700026 178 134 121
-0.21111839 -0.51496452 -0.76885307 166 139 121
-0.21129106 -0.51494473 -0.76893753 165 139 120
-0.21197256 -0.51561946 -0.769126 160 141 120
-0.20958273 -0.51420462 -0.76828212 179 136 122
-0.21043223 -0.51494819 -0.76853573 173 138 122
-0.21147315 -0.51453727 -0.76910096 161 140 120
-0.21059626 -0.51745921 -0.76805604 175 139 122
-0.20950389 -0.51427072 -0.76822984 180 136 122
-0.20977323 -0.51562065 -0.76805955 180 137 122
-0.21200998 -0.51717359 -0.76882833 164 140 121
-0.21034393 -0.51653814 -0.76813793 176 138 122
-0.21241821 -0.5171442 -0.76903939 161 141 121
-0.20550711 -0.51551026 -0.76602286 177 139 116
-0.20735633 -0.51669425 -0.76664525 183 138 119
-0.20670956 -0.51576048 -0.76655114 182 138 119
-0.20547749 -0.51407182 -0.7663511 180 137 118
-0.20564964 -0.51433569 -0.76637256 180 137 118
-0.20666003 -0.5148086 -0.76674551 181 138 119
-0.20712297 -0.51444769 -0.76704675 181 137 119
-0.20728876 -0.51425487 -0.767169 181 137 120
-0.20774376 -0.51588386 -0.76701659 184 137 121
-0.2088829 -0.5159291 -0.76754677 186 136 122
-0.20881292 -0.51469475 -0.76779258 184 136 122
-0.21394381 -0.51824391 -0.7696321 158 141 120
-0.21463312 -0.5200938 -0.76967263 170 138 122
-0.21465822 -0.52030694 -0.76964545 172 138 122
-0.21444774 -0.52041686 -0.76950383 172 138 122
-0.21402349 -0.52048516 -0.7692486 173 139 121
-0.21307631 -0.51939285 -0.76892483 168 140 121
-0.21292262 -0.52094942 -0.76852965 176 139 120
-0.20979197 -0.52140117 -0.76661998 189 137 122
-0.20948665 -0.52038151 -0.7667281 189 137 122
-0.20932674 -0.5206815 -0.76655048 189 138 122
-0.20932613 -0.52016169 -0.76669616 189 138 122
-0.21042618 -0.51913637 -0.76762629 185 137 122
-0.21144073 -0.52096075 -0.76770622 183 138 121
-0.21010076 -0.51979953 -0.76725006 186 137 122
-0.21092771 -0.51908302 -0.76789761 181 138 122
-0.21204184 -0.51988655 -0.7682966 177 139 121
-0.21040806 -0.5188061 -0.76769221 184 138 122
-0.21100208 -0.51942313 -0.76786762 182 138 121
-0.21185739 -0.51775855 -0.76862484 167 140 121
-0.21227413 -0.51772535 -0.76884001 164 141 121
-0.20889002 -0.52035952 -0.76639551 191 137 122
-0.20820643 -0.51874733 -0.76651996 186 138 121
-0.20846766 -0.52024561 -0.7662245 189 138 121
-0.20854858 -0.51935327 -0.76651406 188 138 122
-0.20832261 -0.51832104 -0.76669556 186 138 121
-0.21494694 -0.52159601 -0.7695567 177 137 121
-0.2147526 -0.52201593 -0.76936865 173 140 120
-0.21391457 -0.52185088 -0.76892161 175 139 120
-0.21020424 -0.52187926 -0.7667588 187 139 121
-0.20984215 -0.52206808 -0.76650983 188 140 121
-0.21018299 -0.52235031 -0.76665276 187 141 120
-0.21002974 -0.52155083 -0.76672226 189 138 121
-0.21158263 -0.52167559 -0.76760405 183 139 120
-0.21680923 -0.52874023 -0.76926488 169 142 119
-0.21752442 -0.52811903 -0.76984406 160 146 116
-0.17323197 -0.52902102 -0.74641782 154 136 120
-0.17226249 -0.52795219 -0.74607325 146 138 119
-0.1701759 -0.52750766 -0.74447727 144 139 117
-0.17121685 -0.5292111 -0.74459136 157 135 118
-0.1702221 -0.52832115 -0.74414259 150 138 117
-0.17003159 -0.52817714 -0.74404436 149 138 117
-0.17036761 -0.52846062 -0.74420387 151 137 117
-0.17029302 -0.52826983 -0.74422741 150 138 117
-0.1693974 -0.52865022 -0.743276 153 137 117
-0.17456718 -0.53102797 -0.74644136 156 137 120
-0.17580345 -0.53299522 -0.74625999 150 139 120
-0.17544971 -0.53228778 -0.74638444 151 139 120
-0.17411651 -0.53090757 -0.74620807 160 136 120
-0.16996925 -0.53008401 -0.74320352 163 134 118
-0.17283133 -0.53224641 -0.74448842 169 135 119
-0.17225641 -0.53213876 -0.74411821 169 134 120
-0.17131914 -0.53256398 -0.74331021 174 132 121
-0.17158812 -0.53207958 -0.74366546 170 133 120
-0.17225109 -0.5329482 -0.74383885 174 132 121
-0.17072894 -0.53056353 -0.74357373 163 135 118
-0.17316902 -0.53107584 -0.74535453 164 135 120
-0.17294894 -0.53142625 -0.74499071 165 135 119
-0.17163303 -0.53035116 -0.7443881 162 135 119
-0.17191686 -0.52970171 -0.74495536 159 135 119
-0.1719337 -0.53013813 -0.74475336 161 135 119
-0.17131373 -0.52940685 -0.74458098 158 135 118
-0.17380704 -0.53104961 -0.7459293 164 135 121
-0.16925701 -0.52953202 -0.742778 160 135 117
-0.16955763 -0.5304656 -0.74272877 166 133 119
-0.17408828 -0.53374505 -0.74485117 165 136 120
-0.18029658 -0.54096007 -0.74645984 131 138 115
-0.17984535 -0.54059005 -0.74631494 126 141 114
-0.17867219 -0.53986239 -0.74587965 115 147 112
-0.17872335 -0.54109633 -0.74560666 124 143 113
-0.17910536 -0.54112858 -0.74580288 126 142 114
-0.18039548 -0.54123837 -0.74646538 133 138 115
-0.17816705 -0.54216725 -0.74512553 132 143 113
-0.18103535 -0.50955987 -0.76210552 142 140 116
-0.17926973 -0.50950712 -0.76180035 155 138 118
-0.17411058 -0.50808805 -0.75966233 164 134 118
-0.17529458 -0.50972778 -0.75960976 152 137 116
-0.1767281 -0.50936228 -0.76086259 163 135 119
-0.17694101 -0.50969678 -0.76083094 160 136 119
-0.17589681 -0.50900459 -0.76045513 163 135 119
-0.1756459 -0.50930226 -0.76010495 158 136 118
-0.17360801 -0.50876284 -0.75858009 156 137 116
-0.19125514 -0.51249868 -0.76202333 137 136 117
-0.19017781 -0.51181668 -0.76204509 126 139 116
-0.1901644 -0.51171488 -0.76208282 126 139 117
-0.19130631 -0.51236022 -0.7620908 136 136 117
-0.18740527 -0.51365483 -0.76085788 142 138 116
-0.1869202 -0.51343077 -0.76088113 142 137 116
-0.18883979 -0.51207268 -0.76168901 127 140 116
-0.1877505 -0.51336962 -0.76101959 139 139 115
-0.18739876 -0.5108515 -0.76202518 126 139 116
-0.18742707 -0.51241893 -0.76135844 134 138 117
-0.18698023 -0.51079106 -0.7620005 128 138 116
-0.18716699 -0.51098853 -0.76193863 128 138 116
-0.18559678 -0.51316977 -0.76081669 145 135 117
-0.18499765 -0.51311374 -0.76075339 144 136 117
-0.18365495 -0.51350397 -0.76038784 145 136 117
-0.18510669 -0.5125953 -0.76099116 142 136 116
-0.18466334 -0.51264405 -0.76090473 142 136 116
-0.18278129 -0.51276416 -0.76057482 141 138 117
-0.18445309 -0.51055819 -0.76182646 133 138 116
-0.18294512 -0.5106256 -0.76171464 136 139 116
-0.18219599 -0.51188582 -0.7610023 140 139 117
-0.18466291 -0.51048553 -0.76187587 132 138 116
-0.1829257 -0.51051748 -0.76177156 136 139 116
-0.18253261 -0.51221156 -0.76084477 140 138 117
-0.17807446 -0.50990629 -0.76136112 161 136 120
-0.18161152 -0.51290417 -0.7604236 143 138 117
-0.18126881 -0.51060641 -0.76158923 141 140 116
-0.18026826 -0.51218456 -0.76055533 151 137 119
-0.18051435 -0.51134318 -0.76105231 148 138 118
-0.17953153 -0.51070189 -0.76121014 153 137 119
-0.17919509 -0.51131564 -0.7608133 156 136 119
-0.17859814 -0.51259726 -0.75991511 144 138 116
-0.18048556 -0.51294476 -0.7601667 147 138 118
-0.17864642 -0.51071191 -0.76103598 159 136 119
-0.17922348 -0.51261985 -0.76005286 146 138 116
-0.17790875 -0.51035917 -0.76106524 159 136 119
-0.17755497 -0.50976604 -0.76124108 163 136 120
-0.17767315 -0.50994849 -0.76122016 162 135 120
-0.17736422 -0.50981903 -0.76107043 161 136 120
-0.17719661 -0.51178765 -0.75978965 145 138 116
-0.17580435 -0.50985217 -0.75991035 154 137 117
-0.19390437 -0.5157752 -0.7614994 137 136 120
-0.19381014 -0.51413959 -0.76203972 152 131 120
-0.19395176 -0.51629341 -0.7613343 132 138 120
-0.19513936 -0.51746464 -0.76133871 120 142 121
-0.19480482 -0.51664996 -0.76150739 128 139 121
-0.19473398 -0.51517218 -0.76200056 141 135 120
-0.19289982 -0.51716572 -0.76071376 124 141 120
-0.19033381 -0.51625448 -0.76042336 140 138 119
-0.19123863 -0.51679307 -0.76044846 136 139 120
-0.18985401 -0.51550174 -0.76057649 141 139 118
-0.19056612 -0.5154615 -0.76076144 135 140 117
-0.19181283 -0.51396906 -0.76158005 146 135 118
-0.19263461 -0.51398396 -0.76176715 150 133 118
-0.19189738 -0.51512218 -0.76119572 136 138 118
-0.19002597 -0.51367682 -0.76126438 139 140 115
-0.1913729 -0.51557446 -0.7609145 129 141 117
-0.19116654 -0.51528108 -0.76096898 131 140 117
-0.18911186 -0.51751637 -0.75968176 154 135 122
-0.18727817 -0.51740474 -0.75925827 163 134 120
-0.18805256 -0.51751792 -0.75940549 159 134 121
-0.18772119 -0.51675373 -0.75968534 156 134 121
-0.18565603 -0.51575148 -0.7596283 160 134 117
-0.18585111 -0.51537275 -0.7598604 157 133 118
-0.18724839 -0.51393265 -0.76073664 144 137 117
-0.18809257 -0.51613295 -0.76006895 150 135 120
-0.18892063 -0.51637757 -0.76009542 150 136 121
-0.18851803 -0.51578325 -0.76025182 148 136 119
-0.18918103 -0.51608962 -0.7602337 147 137 120
-0.18855852 -0.51649714 -0.76000315 150 135 121
-0.18220507 -0.51449174 -0.7596795 152 136 118
-0.1823405 -0.51456058 -0.75967419 152 136 118
-0.18437643 -0.51532757 -0.75962973 157 135 117
-0.18350679 -0.5137043 -0.76027858 146 136 117
-0.18451799 -0.51562077 -0.75951028 159 134 118
-0.18512498 -0.51418394 -0.76028836 150 135 117
-0.18436301 -0.51525247 -0.75966376 156 135 117
-0.1853046 -0.5149129 -0.75996572 155 134 117
-0.17907576 -0.51542139 -0.75830513 155 135 116
-0.17874348 -0.51461673 -0.75874358 147 137 115
-0.18033102 -0.51549292 -0.75861651 163 134 118
-0.18157488 -0.51391065 -0.7598598 147 137 118
-0.19780698 -0.51811182 -0.7620942 121 143 120
-0.20011756 -0.52138752 -0.76200223 147 136 116
-0.19728807 -0.52134496 -0.76079303 135 138 120
-0.19829065 -0.52137685 -0.76121587 139 137 119
-0.19834968 -0.51939982 -0.76190186 130 140 120
-0.19802909 -0.52130926 -0.76112533 138 138 119
-0.19432807 -0.51939154 -0.76040578 125 140 119
-0.19499056 -0.52062678 -0.7602219 128 139 118
-0.19609855 -0.52134883 -0.76036954 132 138 119
-0.19516823 -0.52134401 -0.76004189 129 138 118
-0.19372362 -0.51961857 -0.76011485 124 140 118
-0.19450358 -0.52051079 -0.76008874 126 139 118
-0.19704834 -0.51935059 -0.76137376 125 141 121
-0.19399637 -0.51771307 -0.76085454 121 142 120
-0.19428493 -0.518103 -0.7608251 123 141 120
-0.19533867 -0.5189898 -0.76089692 126 141 120
-0.19662903 -0.52044094 -0.76086295 131 139 120
-0.19509225 -0.51854092 -0.76096088 124 142 120
-0.18946277 -0.51864076 -0.75928509 147 139 121
-0.18977545 -0.51906168 -0.75920886 144 139 120
-0.19114746 -0.51967722 -0.75939876 138 138 119
-0.1911041 -0.51936948 -0.75951695 139 137 120
-0.19021767 -0.52083313 -0.75859243 134 144 118
-0.18987651 -0.52034998 -0.75868738 138 143 119
-0.19014792 -0.51973683 -0.75904155 140 140 120
-0.19168212 -0.51932037 -0.75968504 136 138 119
-0.19052587 -0.51836872 -0.75973028 145 136 121
-0.1932158 -0.51782167 -0.76056015 123 141 120
-0.19121125 -0.51795781 -0.76003367 139 138 121
-0.19048634 -0.5178045 -0.75991189 144 137 122
-0.19128191 -0.51782024 -0.76009721 138 138 121
-0.18690275 -0.51909435 -0.75840038 160 137 118
-0.18850164 -0.52021742 -0.75835294 143 143 118
-0.18780234 -0.5192827 -0.75857496 152 139 118
-0.18708657 -0.51785731 -0.75900477 163 134 119
-0.18943831 -0.51952159 -0.7588973 142 141 120
-0.18920653 -0.51924717 -0.75895554 145 141 120
-0.2024775 -0.52497995 -0.76200473 181 134 120
-0.20134002 -0.52433395 -0.76165634 167 135 118
-0.20267653 -0.52520871 -0.76203132 183 134 121
-0.1989435 -0.52172738 -0.7613892 144 137 118
-0.19922704 -0.52295536 -0.76114649 152 136 119
-0.20070653 -0.52353942 -0.76161146 161 135 117
-0.19902448 -0.52259463 -0.76116616 149 137 119
-0.19976749 -0.52246809 -0.76152414 151 136 117
-0.19792086 -0.52444422 -0.76008821 147 138 119
-0.19936679 -0.52376705 -0.76096183 156 136 119
-0.19829477 -0.52466649 -0.76018715 149 137 119
-0.19743957 -0.52414662 -0.75996464 142 138 119
-0.19820146 -0.52265286 -0.76078844 145 138 119
-0.19854192 -0.52337247 -0.7607131 148 137 119
-0.19337238 -0.52283686 -0.75892746 135 138 117
-0.1943828 -0.52340609 -0.7591033 137 138 118
-0.19447222 -0.52343553 -0.75912547 136 138 117
-0.19457835 -0.5248825 -0.75870252 148 137 119
-0.1941994 -0.52505893 -0.75851285 151 137 119
-0.19427629 -0.52360547 -0.75900239 139 138 118
-0.19507538 -0.52414209 -0.75911331 140 138 118
-0.19709469 -0.52331954 -0.76008952 139 138 119
-0.19528632 -0.52289706 -0.75958449 132 138 117
-0.19631378 -0.52249873 -0.76007557 135 138 119
-0.19619206 -0.52315581 -0.75982237 136 138 118
-0.19687693 -0.5225414 -0.76026124 136 139 119
-0.19685483 -0.52186352 -0.76047009 135 138 120
-0.19311199 -0.52454203 -0.75829679 150 137 119
-0.19205458 -0.52186584 -0.75879955 130 141 117
-0.19104148 -0.52243131 -0.75828314 137 143 118
-0.19304563 -0.52442259 -0.75831288 149 137 119
-0.1923774 -0.52347362 -0.75839394 143 140 118
-0.20298707 -0.52614307 -0.76192671 192 133 122
-0.20275562 -0.52596051 -0.76186484 189 133 122
-0.20165303 -0.52641678 -0.76121187 184 133 121
-0.1972803 -0.52825809 -0.75853491 162 136 122
-0.19738708 -0.52579701 -0.7594136 148 137 119
-0.19728263 -0.52655298 -0.75910741 151 137 120
-0.19752893 -0.52920371 -0.75834507 170 134 124
-0.19914873 -0.52770567 -0.7596702 179 133 123
-0.19937363 -0.52760363 -0.75981867 181 133 123
-0.19802326 -0.52901018 -0.75866121 175 134 124
-0.2007262 -0.52743107 -0.7604875 189 132 123
-0.19852379 -0.52582616 -0.75993735 157 137 119
-0.20043258 -0.52736008 -0.76037401 186 132 123
-0.19925186 -0.52551824 -0.7603547 159 136 119
-0.19765478 -0.52554142 -0.7596224 148 138 119
-0.20040272 -0.52583975 -0.76078743 171 134 120
-0.1963118 -0.527969 -0.75828791 163 136 122
-0.1956092 -0.52679873 -0.75843245 158 136 121
-0.19542885 -0.52707672 -0.75827569 160 136 121
-0.1968662 -0.52592301 -0.7591688 149 138 119
-0.19705261 -0.52566844 -0.75931978 146 138 119
-0.19633055 -0.52785575 -0.75833249 162 135 122
-0.17518948 -0.5252474 -0.74962157 146 135 120
-0.17520191 -0.52507788 -0.74972588 147 136 119
-0.17639086 -0.52583265 -0.75011802 152 133 121
-0.17493372 -0.52571559 -0.7492153 145 135 120
-0.1749526 -0.52624804 -0.74897039 144 134 120
-0.17657742 -0.52794027 -0.74922228 148 133 121
-0.17763346 -0.52918458 -0.74931616 150 132 122
-0.17449716 -0.52758181 -0.74804395 148 135 120
-0.17562123 -0.52748889 -0.74881446 146 134 120
-0.17498884 -0.52814674 -0.74809551 150 135 120
-0.17415603 -0.52726066 -0.74797481 147 136 119
-0.17401223 -0.52778429 -0.74763507 150 135 120
-0.17485149 -0.52843994 -0.7478686 151 135 120
-0.17542523 -0.52838981 -0.74826312 151 134 121
-0.1735864 -0.52818394 -0.74712098 152 136 119
-0.17369153 -0.52576977 -0.7483446 141 136 119
-0.17272842 -0.52707988 -0.74686909 143 137 119
-0.18220098 -0.53250229 -0.75021112 139 137 121
-0.18022823 -0.5302856 -0.75012732 147 135 122
-0.17922959 -0.52988607 -0.74980873 149 134 122
-0.17847191 -0.52993613 -0.74943006 147 134 122
-0.18047987 -0.5313279 -0.74984318 143 136 122
-0.1801527 -0.53081751 -0.74988639 145 135 122
-0.17885028 -0.53096884 -0.74915105 143 135 121
-0.17890581 -0.53055036 -0.74938887 145 134 121
-0.17962627 -0.53250694 -0.74884325 137 139 120
-0.1745947 -0.53087103 -0.74653411 155 137 120
-0.17614911 -0.5325036 -0.74672627 144 140 119
-0.175585 -0.53052086 -0.74733722 148 138 120
-0.17564844 -0.53102154 -0.74713212 146 139 119
-0.17529538 -0.52953082 -0.74763662 153 135 120
-0.17760623 -0.52984786 -0.74897462 148 134 122
-0.17559412 -0.53016019 -0.74752039 150 137 120
-0.17597434 -0.53016597 -0.74776334 149 136 120
-0.17724277 -0.53019536 -0.74856883 147 136 121
-0.18356495 -0.5346781 -0.75008816 130 139 119
-0.18209466 -0.53358048 -0.74975449 133 138 120
-0.18522878 -0.53658313 -0.75024289 123 141 118
-0.18194042 -0.53484553 -0.74927896 125 138 119
-0.18392371 -0.53599364 -0.7498284 123 140 118
-0.18282859 -0.53679442 -0.74906689 115 139 118
-0.18347465 -0.53557885 -0.74975342 125 140 119
-0.18201222 -0.53432447 -0.7494784 129 138 120
-0.18245433 -0.53654534 -0.74897355 115 138 118
-0.18037371 -0.53611094 -0.74799711 115 140 118
-0.1800511 -0.53672481 -0.74758887 107 144 116
-0.17947245 -0.53639156 -0.74735415 108 146 115
-0.17885324 -0.53687245 -0.74681258 100 152 113
-0.18163684 -0.53624296 -0.7486921 116 136 119
-0.18148756 -0.5357163 -0.74877399 118 138 119
-0.1808608 -0.53480959 -0.74870139 124 139 119
-0.18103525 -0.53370267 -0.74915558 131 138 120
-0.18690009 -0.53957605 -0.7503677 143 136 119
-0.18651283 -0.54012871 -0.75004458 143 135 120
-0.1861648 -0.53997886 -0.7498979 140 136 119
-0.18573479 -0.5405969 -0.74953634 140 135 119
-0.18284748 -0.53900576 -0.74848539 125 135 119
-0.1819485 -0.53917468 -0.74793297 126 135 118
-0.18221931 -0.53834826 -0.74834555 120 136 119
-0.1826167 -0.53914791 -0.74831223 126 135 119
-0.18233246 -0.5398193 -0.74794143 131 134 118
-0.18352817 -0.53916776 -0.74881154 126 135 119
-0.18494625 -0.53963226 -0.74937814 133 136 119
-0.18548833 -0.53895462 -0.7497806 130 138 119
-0.18487544 -0.53766555 -0.74978691 122 140 118
-0.18225786 -0.5373373 -0.74865162 113 137 119
-0.1851709 -0.53963411 -0.7494815 133 137 119
-0.18480326 -0.53711635 -0.74987692 119 141 118
-0.18130887 -0.53862822 -0.74775463 119 136 117
-0.18151879 -0.54099256 -0.74711877 139 133 117
-0.18054886 -0.53867573 -0.74729007 116 141 116
-0.18036114 -0.53973955 -0.74685949 122 140 115
-0.18079127 -0.53860092 -0.74745911 116 140 116
-0.18073821 -0.53965551 -0.74711281 124 138 116
-0.17988241 -0.5395112 -0.74663776 119 143 114
-0.18175437 -0.54203951 -0.74708188 147 133 118
-0.18241972 -0.54219407 -0.74740475 148 133 118
-0.18292272 -0.5416013 -0.74778032 144 133 118
-0.18508612 -0.54152107 -0.74899542 145 134 120
-0.18321444 -0.54138589 -0.7479822 143 133 119
-0.18305025 -0.54144573 -0.74787992 143 133 118
-0.18390372 -0.54132259 -0.74837637 143 133 120
-0.18058456 -0.54139757 -0.74654371 135 137 116
-0.18509185 -0.50579357 -0.76439226 121 138 115
-0.19915643 -0.50774986 -0.7659682 146 137 118
-0.19755766 -0.50696987 -0.7656545 135 138 116
-0.1989089 -0.50846905 -0.76563197 146 135 119
-0.19740076 -0.50718594 -0.76552355 134 138 116
-0.19895579 -0.50880742 -0.76553315 147 135 119
-0.19770592 -0.50757146 -0.76550239 136 137 117
-0.19645484 -0.50940984 -0.7645188 132 136 119
-0.19555198 -0.50817317 -0.764732 127 134 119
-0.19591551 -0.50968331 -0.76429254 127 137 118
-0.19518733 -0.50736421 -0.76492405 124 134 119
-0.19573168 -0.50690025 -0.76521111 125 136 118
-0.18579213 -0.5071404 -0.76371115 122 137 115
-0.18650459 -0.50974733 -0.76240027 124 138 115
-0.18650885 -0.50805044 -0.76330894 121 137 115
-0.18460126 -0.50882596 -0.76277214 130 140 116
-0.18336818 -0.50884497 -0.7627086 132 141 116
-0.18481977 -0.50913721 -0.76260418 130 139 115
-0.18466766 -0.50944006 -0.76242512 131 139 115
-0.18535808 -0.50701541 -0.76374757 124 137 115
-0.18552856 -0.50844973 -0.7629813 127 137 115
-0.1839429 -0.50778455 -0.76332426 130 141 116
-0.17979974 -0.50827014 -0.76253033 156 139 117
-0.18141261 -0.50897092 -0.76250631 139 142 116
-0.20190877 -0.51289779 -0.76530099 164 135 119
-0.20163032 -0.51195735 -0.76549268 163 134 120
-0.20227304 -0.51124614 -0.76595402 167 134 120
-0.20239668 -0.51185155 -0.76581001 167 134 120
-0.20222527 -0.5126819 -0.765486 166 135 119
-0.19768354 -0.51102066 -0.76435006 143 135 120
-0.19783147 -0.51075214 -0.76448756 143 135 120
-0.19833559 -0.51268613 -0.76406562 150 136 121
-0.19728674 -0.51260114 -0.76371223 146 137 121
-0.20073946 -0.51333392 -0.76473397 158 134 120
-0.19890247 -0.51341462 -0.76404327 153 136 120
-0.20072569 -0.51159024 -0.76527572 159 133 121
-0.20093401 -0.51085043 -0.76558346 161 133 121
-0.20009305 -0.50991076 -0.76557261 156 133 122
-0.20094389 -0.51209342 -0.76519722 160 133 120
-0.19866206 -0.51072794 -0.76479644 147 135 120
-0.19937181 -0.51116878 -0.76491606 151 134 120
-0.19603154 -0.51283681 -0.76329356 140 137 119
-0.19589108 -0.51289451 -0.76322252 141 137 119
-0.19633155 -0.51276577 -0.7634241 139 138 119
-0.19357353 -0.51199853 -0.76280457 134 135 116
-0.19408198 -0.51343095 -0.76239145 152 131 119
-0.19582872 -0.51060474 -0.76398045 128 139 117
-0.19648086 -0.51125139 -0.76393634 135 138 119
-0.19696559 -0.51079029 -0.76419795 139 136 120
-0.19538999 -0.51010078 -0.76403159 123 139 116
-0.19675961 -0.51047438 -0.76424682 136 136 119
-0.19123946 -0.51153523 -0.76242667 131 135 118
-0.19040628 -0.51105267 -0.76242536 123 138 117
-0.19295724 -0.51270062 -0.76234806 144 132 118
-0.19293457 -0.51262665 -0.76237309 143 132 118
-0.18659696 -0.51007366 -0.76226926 126 138 116
-0.18709849 -0.51009637 -0.76231885 124 139 116
-0.18487108 -0.50994098 -0.76216799 132 138 115
-0.20574428 -0.51606411 -0.76601022 178 139 116
-0.20540754 -0.51731646 -0.76555836 178 139 116
-0.20264049 -0.5140304 -0.76524836 166 136 118
-0.20375337 -0.51452971 -0.76554716 171 137 117
-0.20411913 -0.51527935 -0.76551056 173 138 116
-0.20435452 -0.51547468 -0.76555318 174 138 116
-0.20343792 -0.51560479 -0.76518244 170 137 118
-0.20237356 -0.51733857 -0.76424575 144 142 116
-0.2027656 -0.51645792 -0.76466751 157 139 117
-0.20242546 -0.51702332 -0.76435882 147 141 116
-0.20422973 -0.51684141 -0.76518571 173 138 116
-0.203474 -0.51635301 -0.76500183 167 138 117
-0.20126945 -0.51391077 -0.76475811 159 135 119
-0.19789606 -0.51646477 -0.76268035 127 142 120
-0.19916451 -0.51626712 -0.76327419 132 142 118
-0.19763976 -0.5144912 -0.76324612 143 139 121
-0.19752704 -0.51589274 -0.76272202 131 141 121
-0.19885217 -0.51556629 -0.76338321 137 141 119
-0.19898599 -0.51545691 -0.76347607 138 140 119
-0.20112242 -0.51552796 -0.76423299 143 139 117
-0.19914311 -0.51482296 -0.76371884 144 139 119
-0.19913836 -0.51474833 -0.76373857 144 139 119
-0.19927107 -0.51415318 -0.76395792 150 137 120
-0.20088872 -0.51493537 -0.76431882 147 138 118
-0.20070328 -0.51640862 -0.76382774 134 142 117
-0.1943091 -0.51430798 -0.76215351 150 132 120
-0.1947912 -0.51384091 -0.76247543 153 133 120
-0.1955384 -0.51549721 -0.76216489 137 137 121
-0.19446905 -0.51394254 -0.7623319 152 132 120
-0.19649453 -0.51441926 -0.76285487 144 137 121
-0.19478261 -0.51477408 -0.76215518 145 134 120
-0.20617184 -0.51802754 -0.76574183 180 139 117
-0.20669307 -0.51899588 -0.76571983 183 139 118
-0.20716819 -0.51943392 -0.76582623 185 138 119
-0.20721632 -0.52095068 -0.76543063 194 135 122
-0.20726827 -0.52080035 -0.76549637 193 136 122
-0.20658718 -0.51982075 -0.765441 189 137 120
-0.20211269 -0.51910788 -0.76362199 149 140 118
-0.20266208 -0.52120632 -0.76321876 169 134 118
-0.20168087 -0.5210104 -0.76281756 154 136 116
-0.20384669 -0.521088 -0.76381505 185 132 123
-0.2040236 -0.52126825 -0.76384163 189 131 123
-0.20197694 -0.52147806 -0.76280969 161 135 116
-0.20252629 -0.51788247 -0.76415926 146 142 116
-0.20168735 -0.51770949 -0.76384634 133 144 115
-0.20415385 -0.51859564 -0.76466328 173 138 119
-0.20459223 -0.51974356 -0.76453787 186 134 122
-0.20426852 -0.51911825 -0.7645697 178 136 120
-0.20080625 -0.51981854 -0.76279455 139 139 116
-0.19933465 -0.51959801 -0.76225305 135 139 118
-0.20012081 -0.52022594 -0.76237881 141 138 117
-0.20029671 -0.51915246 -0.76279473 134 141 116
-0.20042956 -0.51840514 -0.76308864 129 142 116
-0.19972105 -0.51856089 -0.76274478 128 142 117
-0.20066352 -0.51963562 -0.76279265 138 140 116
-0.20177691 -0.52345467 -0.76212484 167 134 118
-0.20314872 -0.52473819 -0.76239228 185 134 121
-0.20335746 -0.52403921 -0.76269573 184 135 120
-0.20355253 -0.5244624 -0.76266217 188 135 121
-0.20152056 -0.52173984 -0.76251584 154 136 115
-0.20406541 -0.52223116 -0.76356947 191 132 123
-0.20430014 -0.52201712 -0.76374429 194 131 123
-0.20306234 -0.52156508 -0.76329565 176 133 119
0 0 0 1 0 0 0 1 0 0 0 1 0 0 0 0 0 791 1 0 0
