ply
format ascii 1.0
comment PCL generated
element vertex 968
property float x
property float y
property float z
property uchar red
property uchar green
property uchar blue
element camera 1
property float view_px
property float view_py
property float view_pz
property float x_axisx
property float x_axisy
property float x_axisz
property float y_axisx
property float y_axisy
property float y_axisz
property float z_axisx
property float z_axisy
property float z_axisz
property float focal
property float scalex
property float scaley
property float centerx
property float centery
property int viewportx
property int viewporty
property float k1
property float k2
end_header
-0.11099732 -0.47036609 -0.69175541 58 144 113
-0.10848807 -0.47034761 -0.6908381 86 136 119
-0.10931358 -0.46927646 -0.69085807 94 138 121
-0.10971776 -0.47004315 -0.6912061 77 140 117
-0.10910685 -0.47068357 -0.69115138 74 138 116
-0.10743789 -0.46961498 -0.69030005 98 134 120
-0.10747655 -0.47039831 -0.6904915 95 133 120
-0.106036 -0.4704169 -0.69001967 96 135 119
-0.10628086 -0.47009054 -0.69003779 96 134 120
-0.1051693 -0.46881127 -0.6894111 99 136 120
-0.10522041 -0.47034428 -0.68973053 98 135 118
-0.10651138 -0.46872202 -0.68981254 101 135 120
-0.1054085 -0.46829596 -0.6893779 101 136 120
-0.10936227 -0.47259092 -0.69173348 65 141 114
-0.10856979 -0.47282884 -0.69150591 73 138 115
-0.10875214 -0.47275093 -0.69155234 71 139 115
-0.10783918 -0.47266486 -0.69119781 82 136 117
-0.10842398 -0.47379476 -0.6917004 71 139 114
-0.10744913 -0.47428194 -0.6914438 76 139 115
-0.10557412 -0.47308192 -0.69049031 87 138 115
-0.10663634 -0.47416911 -0.69111675 80 139 115
-0.10450934 -0.47350827 -0.69013751 94 139 118
-0.10654798 -0.47386172 -0.69102526 80 139 115
-0.10563437 -0.47284976 -0.69047248 87 138 115
-0.10674724 -0.47430974 -0.69118708 79 139 115
-0.10594455 -0.47108752 -0.69014084 95 135 118
-0.10664817 -0.47206169 -0.69062001 88 136 117
-0.10726033 -0.47347641 -0.69117802 80 138 116
-0.1059747 -0.47176361 -0.69031906 91 136 117
-0.10742185 -0.47421831 -0.6914168 77 138 116
-0.10490583 -0.47083494 -0.68972808 98 136 118
-0.10611048 -0.4772754 -0.69171679 82 140 114
-0.10494053 -0.47791263 -0.69142604 89 139 115
-0.10553503 -0.47773045 -0.69161224 86 139 115
-0.10515364 -0.47839737 -0.69164187 88 139 115
-0.10421728 -0.47591916 -0.69058448 95 139 118
-0.10625373 -0.47519028 -0.69120407 82 139 115
-0.10520253 -0.47594345 -0.69098932 88 139 116
-0.10403284 -0.4760372 -0.69054294 96 139 118
-0.10444213 -0.4760173 -0.69070268 93 139 117
-0.10512079 -0.47504026 -0.69070458 89 139 117
-0.10464633 -0.4787744 -0.69155234 90 139 115
-0.10443102 -0.47969201 -0.6917488 90 138 116
-0.10323062 -0.48060837 -0.6915679 93 137 117
-0.10245962 -0.48034364 -0.69121981 92 137 116
-0.10144933 -0.48147041 -0.69121647 88 138 116
-0.10210863 -0.4812274 -0.69136906 90 137 116
-0.10261898 -0.48036939 -0.69128257 92 137 116
-0.10151259 -0.48006228 -0.69080567 94 138 115
-0.10103622 -0.48009336 -0.69064891 96 137 116
-0.097019546 -0.48114386 -0.689789 88 140 115
-0.096066959 -0.48115396 -0.68953997 88 142 114
-0.097519591 -0.48178414 -0.69012153 86 141 114
-0.098392345 -0.48184291 -0.69037092 86 139 115
-0.098432355 -0.48221639 -0.69049823 84 140 114
-0.098202042 -0.480207 -0.68981063 94 139 115
-0.099500827 -0.48188257 -0.69067746 87 138 115
-0.095257312 -0.48181733 -0.68955868 87 143 114
-0.094602302 -0.48123726 -0.68924165 91 142 114
-0.094468042 -0.48210031 -0.6894837 88 142 114
-0.095491074 -0.48073953 -0.6892702 90 142 114
-0.094859518 -0.48028705 -0.68899792 93 141 114
-0.08821813 -0.48211083 -0.68823212 106 139 114
-0.08504688 -0.48229623 -0.68792665 117 138 116
-0.10010164 -0.48399943 -0.6915285 88 137 115
-0.099789374 -0.48307896 -0.69113803 85 138 114
-0.099956468 -0.48274165 -0.69109178 85 138 115
-0.09926638 -0.48479524 -0.69150847 91 138 115
-0.097977474 -0.4857524 -0.6914407 96 138 116
-0.097819075 -0.48514801 -0.69120932 95 138 116
-0.098930657 -0.48364344 -0.69105923 88 139 114
-0.098928645 -0.48496059 -0.69146532 92 138 115
-0.097877584 -0.4828859 -0.69055045 87 140 115
-0.097934216 -0.48361436 -0.69077712 90 139 115
-0.096871771 -0.48383921 -0.69056123 91 140 115
-0.098155446 -0.48347956 -0.69079655 89 139 115
-0.09719865 -0.48274517 -0.69032985 85 142 115
-0.094689071 -0.48620752 -0.690727 105 139 116
-0.093724661 -0.4860867 -0.69048935 106 139 116
-0.093890838 -0.48627523 -0.69057852 106 139 116
-0.093158796 -0.48558491 -0.69022614 105 140 115
-0.095171601 -0.48560622 -0.69065523 101 139 116
-0.095640868 -0.48325354 -0.69006878 88 142 115
-0.095254287 -0.48298237 -0.68990988 88 142 115
-0.09043552 -0.48597607 -0.68977904 108 139 115
-0.088156536 -0.48275697 -0.68839294 107 139 114
-0.088352419 -0.48568127 -0.68927735 105 137 114
-0.089474693 -0.48616454 -0.68964142 106 138 114
-0.088189036 -0.48370996 -0.68867487 106 139 113
-0.089751728 -0.48514357 -0.68940169 108 138 114
-0.089403242 -0.48319966 -0.68877143 105 140 114
-0.089393087 -0.48363212 -0.68889362 107 140 114
-0.090129711 -0.48359314 -0.689031 104 140 114
-0.08546596 -0.48308012 -0.68817145 114 138 116
-0.08656048 -0.4826009 -0.68815637 111 138 115
-0.084691346 -0.48316121 -0.68811506 116 138 116
-0.084786385 -0.48450336 -0.68847322 112 137 116
-0.084745795 -0.48262334 -0.68798077 118 137 116
-0.087883629 -0.48586327 -0.6892367 104 137 114
-0.086012848 -0.4849512 -0.68873125 108 138 114
-0.085575886 -0.48499042 -0.68868613 108 138 114
-0.087812595 -0.48579159 -0.68920678 104 137 114
-0.086699039 -0.48502642 -0.6888417 106 138 114
-0.087156333 -0.48601753 -0.68918729 105 137 114
-0.082903981 -0.48594412 -0.68866348 114 140 115
-0.081458084 -0.48491386 -0.68824726 121 145 115
-0.081718013 -0.48439449 -0.68813759 122 144 115
-0.082984 -0.48477843 -0.68836421 116 140 116
-0.082048304 -0.48371613 -0.68799448 123 142 116
-0.081980012 -0.48371387 -0.68798703 123 143 116
-0.096847445 -0.4879567 -0.69179058 97 139 116
-0.096871667 -0.48744318 -0.69164234 99 139 116
-0.098200284 -0.48654321 -0.69174641 97 138 115
-0.09569674 -0.48772514 -0.69139588 100 139 116
-0.095195986 -0.48816139 -0.69144231 103 139 117
-0.093881577 -0.4893246 -0.69156826 108 138 116
-0.092633024 -0.48999718 -0.6915527 113 137 117
-0.093975484 -0.4886345 -0.691374 109 138 117
-0.092630848 -0.48721784 -0.69063008 110 138 116
-0.091972403 -0.48837286 -0.69088304 113 138 116
-0.092516504 -0.48883232 -0.69115329 114 137 117
-0.093034275 -0.48765743 -0.69086403 110 138 116
-0.092793763 -0.4887737 -0.69119179 113 137 117
-0.092033207 -0.48635045 -0.69021034 109 139 116
-0.089525521 -0.49001864 -0.69096142 123 137 117
-0.088262826 -0.48792785 -0.68999553 113 136 115
-0.091703095 -0.49015036 -0.69142997 116 137 117
-0.09081421 -0.49019244 -0.69127172 120 137 117
-0.08810316 -0.48951915 -0.6905129 124 137 116
-0.089229748 -0.48948568 -0.69072026 120 137 117
-0.089437425 -0.48721665 -0.68998241 108 137 115
-0.090869889 -0.48700136 -0.69019592 110 138 116
-0.089107357 -0.48709142 -0.68987399 107 137 114
-0.088843696 -0.48635328 -0.68957108 106 136 114
-0.091411963 -0.48887542 -0.69093955 114 138 116
-0.085583389 -0.48955938 -0.69019938 125 138 115
-0.086289249 -0.48898292 -0.69008243 123 137 116
-0.087271459 -0.48971567 -0.69046009 127 136 117
-0.084363557 -0.48920721 -0.6899268 123 138 114
-0.086769648 -0.48943806 -0.69030118 125 137 116
-0.087881789 -0.48773304 -0.68985498 113 136 115
-0.085601464 -0.4871698 -0.6893661 112 137 115
-0.085733846 -0.48731235 -0.68943238 113 136 115
-0.086556323 -0.48822498 -0.68985313 118 136 116
-0.08669544 -0.48660159 -0.68931174 107 137 114
-0.08355312 -0.48987937 -0.69007939 127 140 114
-0.081101187 -0.49018258 -0.68999243 117 145 114
-0.082293592 -0.48647133 -0.68876642 119 141 117
-0.083529495 -0.48823166 -0.68949652 121 139 116
-0.08355768 -0.48847854 -0.68958592 122 139 115
-0.091658309 -0.49128771 -0.69178766 122 137 119
-0.090918578 -0.49025375 -0.69131279 119 136 117
-0.088736005 -0.49128038 -0.69122601 128 137 118
-0.087924428 -0.49245614 -0.69145459 133 139 119
-0.087949328 -0.49337435 -0.69176114 134 141 119
-0.08937975 -0.49115887 -0.69131118 126 138 117
-0.087354273 -0.49164701 -0.691118 134 138 118
-0.087331429 -0.49316642 -0.69161451 136 139 119
-0.087338172 -0.49091691 -0.69087523 133 137 118
-0.086946636 -0.49149725 -0.69101858 135 137 117
-0.087138161 -0.49116606 -0.69093287 134 136 118
-0.085147135 -0.49119276 -0.6906988 134 137 116
-0.085942753 -0.49039853 -0.69053471 129 138 115
-0.086057477 -0.49126819 -0.69083452 135 137 117
-0.084808089 -0.49068895 -0.69049191 131 139 115
-0.080082148 -0.4910253 -0.69019324 118 145 116
-0.082125373 -0.4904846 -0.69017541 122 143 115
-0.081813961 -0.49070844 -0.69022405 123 143 115
-0.076687582 -0.49121553 -0.69010627 122 144 116
-0.076226346 -0.49090376 -0.68998152 121 145 116
-0.078690767 -0.49101934 -0.69013017 119 144 117
-0.079060301 -0.49144706 -0.69028902 121 143 117
-0.079414487 -0.49077165 -0.69007927 117 145 116
-0.076886326 -0.4902418 -0.68979192 117 146 115
-0.077975966 -0.4913103 -0.69019592 121 144 117
-0.12102723 -0.48075739 -0.6996907 94 130 118
-0.12144469 -0.48048609 -0.6998629 95 130 118
-0.12017921 -0.48377398 -0.69998121 102 134 118
-0.12033081 -0.4842853 -0.70020622 103 135 118
-0.12057607 -0.48438236 -0.70037484 104 136 118
-0.11466618 -0.493774 -0.70004803 130 136 117
-0.11294726 -0.49553204 -0.69984484 124 137 116
-0.11153416 -0.49692219 -0.69964617 117 139 115
-0.11358029 -0.49562213 -0.70014477 128 136 117
-0.1134074 -0.4963125 -0.7002812 127 136 117
-0.11307595 -0.49661675 -0.70022875 125 137 116
-0.11388378 -0.49632201 -0.70049512 129 136 117
-0.11420129 -0.49704 -0.70085841 129 137 118
-0.11248557 -0.49707064 -0.70010793 122 138 116
-0.11127571 -0.49740615 -0.69968265 116 139 114
-0.11322887 -0.49834433 -0.70085728 122 138 116
-0.11254713 -0.4989385 -0.70078993 115 140 115
-0.10015156 -0.50844711 -0.70001489 93 140 115
-0.10015977 -0.50956208 -0.7004649 92 140 114
-0.096570976 -0.50974 -0.69967127 91 140 117
-0.099444292 -0.5084334 -0.69981241 91 140 115
-0.096292175 -0.50982988 -0.69964367 92 140 117
-0.096877418 -0.50997996 -0.69984651 91 140 116
-0.072916165 -0.45398852 -0.68078041 113 143 121
-0.072810471 -0.45479992 -0.68082261 116 144 122
-0.072731882 -0.45424482 -0.68077469 116 144 122
-0.073439799 -0.45324191 -0.68079531 104 142 118
-0.070198275 -0.45308325 -0.68045312 138 136 116
-0.071429513 -0.4550651 -0.68070209 131 142 121
-0.071488947 -0.45348305 -0.68059897 128 140 120
-0.069939062 -0.45458078 -0.68054426 141 138 116
-0.072195612 -0.45361057 -0.6806668 123 142 122
-0.071947828 -0.4532977 -0.68062472 124 141 121
-0.066322215 -0.45431671 -0.6802879 126 142 111
-0.065082394 -0.45408908 -0.68023461 107 148 110
-0.068331018 -0.45416871 -0.68032199 153 134 113
-0.068017066 -0.45461321 -0.68037236 150 135 113
-0.072410151 -0.45824271 -0.68132055 117 145 119
-0.072488241 -0.45592254 -0.6809302 122 145 122
-0.073165588 -0.45849061 -0.68140841 114 145 117
-0.073519327 -0.45607361 -0.6810351 114 144 120
-0.073393941 -0.45595059 -0.68100643 115 144 120
-0.068590887 -0.45853832 -0.68094128 146 141 119
-0.070822217 -0.45833343 -0.68117863 130 143 117
-0.07084167 -0.45836729 -0.68118548 129 143 117
-0.069776513 -0.45814142 -0.68102849 138 141 118
-0.069075301 -0.45705265 -0.68079799 145 139 116
-0.071990609 -0.45857176 -0.68134481 120 145 118
-0.070813231 -0.45636767 -0.68087101 134 141 117
-0.071525849 -0.45600137 -0.68086827 129 142 121
-0.070759453 -0.45727962 -0.68102175 131 141 116
-0.072106332 -0.45832175 -0.68131191 119 145 118
-0.070461728 -0.45619068 -0.68081146 136 140 117
-0.065694749 -0.45776126 -0.68081337 131 139 116
-0.066327885 -0.45701742 -0.68069029 119 147 115
-0.066262648 -0.45749217 -0.68076503 127 143 116
-0.066149279 -0.4579235 -0.68083358 134 139 117
-0.067361064 -0.45546553 -0.68048894 138 140 113
-0.066962905 -0.45662475 -0.68064189 129 144 115
-0.065277554 -0.45552319 -0.68047702 103 151 112
-0.067268945 -0.45740056 -0.68074965 132 144 117
-0.067616567 -0.45611125 -0.68057865 141 140 114
-0.066361114 -0.45585626 -0.68053234 120 146 113
-0.06375581 -0.45839843 -0.68089509 153 126 120
-0.063060939 -0.45675331 -0.68059391 142 133 120
-0.06290219 -0.45731235 -0.68067241 154 129 122
-0.056071285 -0.45745751 -0.68082649 154 132 121
-0.076522656 -0.46259144 -0.68234622 153 133 123
-0.072645701 -0.4595052 -0.68154454 122 144 119
-0.072712518 -0.46150142 -0.68180454 137 141 120
-0.07262364 -0.46004379 -0.68161035 126 143 119
-0.07401339 -0.46215075 -0.68202537 149 137 122
-0.072812863 -0.46233374 -0.68192065 143 139 121
-0.074434757 -0.46107295 -0.68192995 144 138 122
-0.075720422 -0.45992601 -0.68180948 117 140 116
-0.074999273 -0.46028608 -0.68182814 127 140 118
-0.075162567 -0.46164337 -0.68207246 150 135 123
-0.0757678 -0.46051598 -0.68191427 128 138 118
-0.07394924 -0.45945963 -0.68162185 117 143 117
-0.069355614 -0.46068212 -0.68133336 154 139 120
-0.070869192 -0.46182996 -0.68164504 148 139 120
-0.068409532 -0.46169159 -0.68142098 176 134 121
-0.07146579 -0.46232814 -0.68177539 146 140 120
-0.069266587 -0.46200696 -0.68154275 170 135 121
-0.069892451 -0.45976105 -0.68125457 140 142 120
-0.07224568 -0.46252111 -0.68188369 140 140 120
-0.070074327 -0.45918095 -0.68120271 135 143 119
-0.071234852 -0.45997247 -0.68144083 132 143 120
-0.07042852 -0.46042284 -0.68140209 141 141 120
-0.072044104 -0.46014088 -0.68155825 126 144 119
-0.066440262 -0.46255195 -0.68156505 152 137 119
-0.068157211 -0.46282119 -0.68160272 186 131 122
-0.064593919 -0.4601483 -0.6811977 142 131 118
-0.064865477 -0.46204746 -0.68149066 124 141 116
-0.065368548 -0.46044207 -0.68124133 156 129 119
-0.068090402 -0.45937073 -0.68104029 152 139 121
-0.066763289 -0.45943168 -0.6810652 155 133 120
-0.067256518 -0.45902774 -0.68099356 150 136 120
-0.067350447 -0.45962015 -0.6810894 156 135 120
-0.065721534 -0.45997429 -0.6811657 163 128 120
-0.06285385 -0.4620699 -0.68151736 107 148 116
-0.060640071 -0.46053132 -0.68130225 109 147 118
-0.064268969 -0.46275407 -0.68160254 104 149 115
-0.061734594 -0.46100944 -0.68135923 106 149 117
-0.063367397 -0.46276847 -0.68162704 109 147 115
-0.063232511 -0.4614186 -0.68139941 105 150 116
-0.063548468 -0.46116003 -0.68135816 113 145 116
-0.064367004 -0.46073207 -0.6812886 130 137 116
-0.062917888 -0.46122384 -0.68137062 103 151 116
-0.063650176 -0.45928499 -0.68106782 138 132 118
-0.06413798 -0.45960712 -0.68111563 141 131 118
-0.060486361 -0.46022391 -0.68125176 108 149 118
-0.076280728 -0.46385741 -0.68256873 162 133 125
-0.076413222 -0.46530831 -0.68289512 156 137 124
-0.077899769 -0.46676809 -0.68337125 128 141 120
-0.076405972 -0.46576625 -0.68299282 155 138 124
-0.076348104 -0.4639208 -0.68258965 161 134 125
-0.076647848 -0.46349064 -0.68252987 158 132 125
-0.077348612 -0.46342179 -0.68261117 141 135 122
-0.076570764 -0.46289301 -0.68240499 158 133 124
-0.07273531 -0.46639493 -0.68271166 167 138 122
-0.074231818 -0.46632192 -0.68286818 161 139 123
-0.072543889 -0.46412575 -0.68222028 151 139 121
-0.072774641 -0.4665789 -0.68275422 167 138 122
-0.074919716 -0.46606866 -0.68289465 156 140 123
-0.073649831 -0.4636535 -0.6822443 149 139 122
-0.07367789 -0.46397567 -0.6823166 149 139 121
-0.074547634 -0.46368185 -0.68234605 155 136 123
-0.075916663 -0.46401346 -0.68256319 163 134 125
-0.075766243 -0.46385536 -0.68251318 162 134 125
-0.069471925 -0.46425274 -0.68199354 185 133 122
-0.068734869 -0.46564016 -0.68228543 191 131 127
-0.068632133 -0.46631491 -0.68244046 192 131 128
-0.069560841 -0.4650802 -0.68219465 185 133 124
-0.070986331 -0.46647868 -0.68259984 178 135 123
-0.069968224 -0.46672466 -0.68260622 184 133 126
-0.071849622 -0.46291387 -0.6819036 147 139 120
-0.06987635 -0.4640573 -0.68197852 180 133 122
-0.071085356 -0.46366039 -0.68199545 163 136 121
-0.071913928 -0.46501181 -0.68234289 163 138 121
-0.07022953 -0.46399519 -0.68199462 175 134 122
-0.072047986 -0.46402031 -0.68214875 153 139 120
-0.067045085 -0.46558124 -0.68225187 165 137 125
-0.067085035 -0.46658489 -0.68245739 175 134 127
-0.067505471 -0.46602324 -0.68235642 175 134 127
-0.06811785 -0.46586433 -0.68232 187 132 127
-0.067934111 -0.46583605 -0.68231368 184 132 127
-0.067914158 -0.46629155 -0.68242192 184 133 128
-0.066995107 -0.46502393 -0.68212289 162 137 124
-0.067916177 -0.46331868 -0.68171567 181 133 122
-0.064074822 -0.46481729 -0.68202323 125 143 119
-0.063713886 -0.4633829 -0.68174011 113 146 116
-0.078422107 -0.46929204 -0.6839512 121 141 117
-0.076504707 -0.46770552 -0.68340921 151 141 122
-0.07832092 -0.46785703 -0.68363804 120 141 118
-0.076684028 -0.4694151 -0.68377501 148 140 120
-0.076178446 -0.47054335 -0.68394834 156 140 119
-0.078575924 -0.46691498 -0.68347514 116 141 119
-0.073181912 -0.46846905 -0.6832338 161 139 120
-0.075783327 -0.4705947 -0.68393171 155 141 119
-0.072805569 -0.46950695 -0.68349278 151 141 117
-0.075156644 -0.47040305 -0.68384933 154 140 118
-0.074446104 -0.46967465 -0.68361914 157 140 119
-0.075925887 -0.46887296 -0.68358111 157 140 121
-0.074359745 -0.46768671 -0.68316132 163 139 122
-0.074958533 -0.46691605 -0.68307388 161 140 123
-0.073304407 -0.46770483 -0.6830439 167 137 121
-0.073288769 -0.46715847 -0.68293148 167 137 122
-0.075563319 -0.46811262 -0.68338561 159 140 122
-0.068734132 -0.46924713 -0.68316203 181 138 124
-0.069535449 -0.46908873 -0.68318552 173 138 123
-0.071049295 -0.46999928 -0.68352216 154 141 118
-0.069352247 -0.47065356 -0.68354958 169 142 120
-0.070661366 -0.47058687 -0.68363428 156 143 117
-0.06881021 -0.46822888 -0.68292183 184 135 125
-0.071414456 -0.46935993 -0.68338311 154 140 118
-0.070132554 -0.46787405 -0.68291998 175 135 124
-0.071807332 -0.468043 -0.68305087 164 138 121
-0.072016515 -0.46767429 -0.68296289 165 137 121
-0.069942906 -0.4674041 -0.6827845 180 134 125
-0.070287965 -0.46707177 -0.68271321 180 134 125
-0.067135312 -0.46784163 -0.68275464 174 136 125
-0.066740155 -0.4683497 -0.68286484 166 139 124
-0.068025552 -0.46794325 -0.68280745 185 135 126
-0.065482393 -0.46717313 -0.68254054 154 138 124
-0.065983586 -0.46704167 -0.68252468 161 137 125
-0.072915256 -0.47089425 -0.68386662 140 144 115
-0.071627639 -0.47126201 -0.68388265 144 142 116
-0.069777168 -0.47132596 -0.68376082 164 139 120
-0.068939298 -0.47194508 -0.68386185 173 135 124
-0.06918928 -0.47210053 -0.68392265 170 134 124
-0.067599244 -0.47158515 -0.68369484 170 140 123
-0.068326421 -0.47130078 -0.6836437 179 138 123
-0.067536943 -0.47108972 -0.68355548 170 143 121
-0.11955375 -0.47055954 -0.69598567 55 146 112
-0.12007415 -0.47053415 -0.69625753 61 144 113
-0.11995365 -0.47050816 -0.69618499 60 145 113
-0.12056706 -0.47241479 -0.69713384 63 144 112
-0.11919802 -0.47191891 -0.6962108 50 144 111
-0.11989164 -0.47238329 -0.69674361 57 143 112
-0.11954428 -0.47317496 -0.69678986 52 141 112
-0.12024894 -0.47241151 -0.69695354 60 144 112
-0.12027679 -0.47277486 -0.69708037 60 143 112
-0.12095706 -0.47109932 -0.69691408 67 143 112
-0.11758508 -0.47344688 -0.69578266 50 139 113
-0.11864016 -0.47306919 -0.69625252 49 140 112
-0.11724626 -0.47407937 -0.69578815 48 137 113
-0.11860673 -0.47399217 -0.6965161 47 139 112
-0.12098444 -0.47757667 -0.6988101 69 138 115
-0.12088562 -0.47838342 -0.69898105 69 136 116
-0.1218655 -0.47800443 -0.69946146 80 134 118
-0.12019241 -0.47654662 -0.69807452 58 140 113
-0.12115685 -0.47588295 -0.69845319 68 140 113
-0.11973529 -0.47588658 -0.69765306 54 140 112
-0.11966817 -0.47644332 -0.69775343 53 140 112
-0.11963326 -0.47800764 -0.69812214 53 142 112
-0.12064383 -0.47521189 -0.69799751 63 139 113
-0.11717392 -0.47480094 -0.69595844 48 136 113
-0.11705361 -0.47478405 -0.69588745 48 135 113
-0.11737192 -0.4760493 -0.69638419 45 135 113
-0.1153303 -0.47830766 -0.695831 42 132 114
-0.11851927 -0.47579759 -0.69695586 46 138 112
-0.11911525 -0.47612131 -0.69736236 47 139 112
-0.11862338 -0.47754422 -0.69744647 47 139 113
-0.11860294 -0.47548825 -0.69692481 46 138 112
-0.11773781 -0.47759581 -0.69697469 45 138 112
-0.11831456 -0.47662592 -0.69704944 46 138 112
-0.12026424 -0.48109543 -0.69932473 88 132 116
-0.12042987 -0.48088792 -0.69936961 88 131 117
-0.11988992 -0.4805637 -0.69895995 78 133 115
-0.11986749 -0.47952238 -0.69867229 67 137 114
-0.11923439 -0.48061326 -0.69858533 76 134 116
-0.11655971 -0.47989687 -0.69692683 63 131 116
-0.11790559 -0.48190188 -0.6981982 83 132 115
-0.11615013 -0.48178509 -0.69720644 59 142 106
-0.11723766 -0.4820461 -0.69787121 74 136 111
-0.11575146 -0.48234481 -0.69713753 54 148 102
-0.11633579 -0.48194852 -0.69735163 61 142 106
-0.11760567 -0.48052669 -0.69766724 73 130 117
-0.11895293 -0.48118931 -0.69858122 83 131 117
-0.11872412 -0.47918221 -0.69792056 57 137 114
-0.11905371 -0.47985891 -0.69828147 66 136 115
-0.11697424 -0.47982404 -0.6971342 63 131 116
-0.11853581 -0.47968146 -0.69795072 63 136 115
-0.11822969 -0.48009157 -0.69789267 68 133 115
-0.11460374 -0.4821609 -0.69650626 49 148 102
-0.11384816 -0.48158127 -0.69599313 51 144 106
-0.11401074 -0.4809379 -0.69589871 49 142 108
-0.1136362 -0.48218438 -0.69605345 53 147 105
-0.11959153 -0.48302454 -0.69944012 101 130 118
-0.11889798 -0.48406774 -0.69932312 103 131 120
-0.1169413 -0.48549536 -0.69862515 107 133 118
-0.11818112 -0.48425257 -0.6989761 104 131 119
-0.11802836 -0.48381665 -0.6987735 103 130 118
-0.11900871 -0.48252434 -0.69896758 100 127 119
-0.11568946 -0.48373783 -0.69747084 75 142 107
-0.11707721 -0.48316404 -0.69807911 84 136 112
-0.11527288 -0.48581746 -0.69779074 102 134 113
-0.11682619 -0.48313308 -0.69793355 80 137 110
-0.11579394 -0.48338312 -0.6974346 70 142 106
-0.11425452 -0.48248747 -0.69642842 51 149 102
-0.11220392 -0.48424196 -0.695943 61 144 108
-0.11378319 -0.48283747 -0.69630206 54 148 103
-0.11156821 -0.48523715 -0.69591784 66 141 109
-0.11293754 -0.48437905 -0.69632912 58 145 105
-0.11412043 -0.4848251 -0.69699574 74 142 107
-0.11377206 -0.48399588 -0.69661701 57 147 103
-0.11420992 -0.48588613 -0.69731647 92 136 112
-0.11212119 -0.48618171 -0.69643337 75 139 110
-0.11467353 -0.48414931 -0.69707215 69 144 105
-0.11521876 -0.48368755 -0.69720137 68 145 104
-0.11110725 -0.48620611 -0.6959883 68 140 110
-0.11335062 -0.48837805 -0.69765043 97 141 111
-0.11300368 -0.48880491 -0.69762981 98 140 112
-0.11190058 -0.48951507 -0.69736147 95 140 112
-0.11171293 -0.48765641 -0.69669497 81 140 110
-0.11276323 -0.48896703 -0.6975736 97 140 112
-0.11263498 -0.49005312 -0.69785714 104 140 112
-0.11473006 -0.48667243 -0.69777501 106 134 115
-0.11327655 -0.48674285 -0.69712734 91 137 112
-0.11242256 -0.48663214 -0.69670141 82 138 111
-0.11321895 -0.48745084 -0.69731241 93 138 112
-0.11450549 -0.48917881 -0.69842058 112 140 112
-0.11355882 -0.48830023 -0.69772255 99 140 111
-0.10915197 -0.48822346 -0.69586354 76 141 112
-0.11089846 -0.48713678 -0.69619507 73 140 110
-0.11027783 -0.48775026 -0.6961484 76 140 111
-0.10936049 -0.48936784 -0.69630229 84 140 113
-0.11083649 -0.48691252 -0.69610089 71 140 111
-0.10849019 -0.48957291 -0.69603127 83 140 114
-0.11117814 -0.48920852 -0.69695264 88 140 111
-0.11336443 -0.49392596 -0.69954002 124 138 116
-0.1133805 -0.49397838 -0.69956654 124 138 116
-0.11272918 -0.49041304 -0.69801718 107 140 113
-0.11355525 -0.49030373 -0.69834751 112 140 113
-0.11225057 -0.49104246 -0.6980198 107 140 113
-0.11341792 -0.4904173 -0.69832534 111 140 112
-0.11277667 -0.49173468 -0.69849128 113 140 113
-0.11332119 -0.49113917 -0.69852966 114 140 113
-0.10750911 -0.49190852 -0.69645274 95 140 115
-0.10751323 -0.49086696 -0.69608533 88 141 115
-0.1084279 -0.49311268 -0.69722277 104 140 114
-0.10966119 -0.49261895 -0.69750881 104 140 115
-0.10879107 -0.49213806 -0.6970132 99 141 114
-0.1086624 -0.49368623 -0.69751352 107 140 115
-0.10923667 -0.49132884 -0.69690144 95 140 114
-0.11123218 -0.49349201 -0.6984117 112 140 114
-0.10993709 -0.49190983 -0.69737041 101 140 114
-0.10971233 -0.49127394 -0.69706589 97 141 114
-0.10825586 -0.4904522 -0.69622308 88 141 114
-0.10839371 -0.49119896 -0.69653213 92 141 115
-0.10632257 -0.49353358 -0.69656229 101 138 114
-0.10711791 -0.49219173 -0.69640064 96 139 115
-0.10716873 -0.49209386 -0.69638598 95 140 115
-0.10483868 -0.49329001 -0.69589084 96 137 114
-0.10644306 -0.49238753 -0.69620389 95 139 115
-0.10487743 -0.49384657 -0.69610327 100 136 115
-0.10533014 -0.49220127 -0.69570714 92 138 115
-0.11304094 -0.49450421 -0.69958282 123 138 116
-0.11165614 -0.49620798 -0.69947952 117 139 115
-0.11097181 -0.49673814 -0.69935042 116 139 114
-0.1095627 -0.49764758 -0.69906598 118 138 117
-0.11048243 -0.49688223 -0.69919711 117 138 116
-0.11104183 -0.49463341 -0.69871086 116 140 115
-0.10868112 -0.49700654 -0.69850391 120 137 118
-0.10988974 -0.49424052 -0.69816172 113 139 114
-0.10787524 -0.49533355 -0.69771963 113 138 116
-0.10878664 -0.49622375 -0.69831353 118 137 117
-0.10873225 -0.49545607 -0.69807482 115 138 116
-0.11072781 -0.49447814 -0.69854254 116 139 115
-0.11062102 -0.49453992 -0.69852018 116 139 115
-0.10513437 -0.49628192 -0.6971032 105 138 115
-0.10461546 -0.49587473 -0.69674724 103 138 115
-0.10409077 -0.49681503 -0.6968894 103 138 115
-0.10409527 -0.49652791 -0.69678456 103 138 115
-0.10498668 -0.49576634 -0.69685352 104 138 115
-0.10731657 -0.4980039 -0.69827729 121 136 120
-0.10542848 -0.49780548 -0.69763982 112 137 117
-0.10726674 -0.4967182 -0.69789624 116 137 118
-0.10718221 -0.49776641 -0.6981684 119 136 119
-0.10740441 -0.49618816 -0.69778788 115 137 117
-0.10000429 -0.49765134 -0.69593441 95 139 116
-0.10040362 -0.49771133 -0.69607443 96 139 116
-0.10001536 -0.49736208 -0.69583631 95 140 115
-0.10186515 -0.49700421 -0.69624734 99 138 115
-0.10258725 -0.49616414 -0.69614774 99 138 114
-0.1011233 -0.49624518 -0.69574738 96 138 115
-0.10286827 -0.4953329 -0.69592172 98 137 114
-0.1014703 -0.49637473 -0.69589752 97 137 115
-0.10872325 -0.49839497 -0.69897956 118 137 117
-0.10832387 -0.4992688 -0.69913912 114 138 118
-0.10788422 -0.49959919 -0.69908208 113 137 118
-0.1072697 -0.49982074 -0.69891983 112 138 118
-0.10727663 -0.49840692 -0.69840211 120 137 119
-0.10730785 -0.49877802 -0.69854981 118 137 119
-0.10674051 -0.49875364 -0.69833666 118 137 119
-0.10369994 -0.50164735 -0.69831318 100 139 115
-0.1036638 -0.49955514 -0.69764155 102 139 115
-0.10580579 -0.49835053 -0.69792044 114 138 117
-0.10588599 -0.49921995 -0.69821954 114 137 118
-0.10626362 -0.4988232 -0.69821054 116 137 118
-0.10688954 -0.49829397 -0.69823611 119 136 119
-0.10109411 -0.50040913 -0.6971615 94 140 115
-0.10084088 -0.49965307 -0.69683659 95 140 115
-0.10119154 -0.50146121 -0.69754297 93 140 115
-0.10221001 -0.50184816 -0.69795561 95 140 114
-0.10055768 -0.50074643 -0.69712645 92 140 115
-0.10104179 -0.49813607 -0.69640976 97 139 116
-0.10238133 -0.5002535 -0.69747788 98 140 115
-0.10140831 -0.49929261 -0.69688421 97 140 115
-0.10325422 -0.49964666 -0.69754684 101 139 115
-0.10189587 -0.49887636 -0.69689828 98 140 115
-0.10308377 -0.4983972 -0.69710153 102 139 115
-0.09659835 -0.49970123 -0.69576091 92 140 117
-0.096355021 -0.50083888 -0.69612271 88 140 117
-0.09626092 -0.50100642 -0.6961602 87 141 117
-0.098662794 -0.50010628 -0.6964286 90 140 116
-0.098290503 -0.50100774 -0.69664598 88 141 116
-0.099245138 -0.49942878 -0.69633526 91 140 116
-0.098813556 -0.50158352 -0.69696122 87 141 115
-0.098011248 -0.50160706 -0.69678324 87 140 116
-0.098963998 -0.50088584 -0.69676101 89 141 115
-0.094239406 -0.50137943 -0.69586885 93 144 117
-0.095078386 -0.50054449 -0.69571579 92 142 117
-0.10246172 -0.50346941 -0.69865704 99 139 115
-0.10200224 -0.50208026 -0.69798261 95 140 114
-0.10252737 -0.50235969 -0.69823629 96 140 114
-0.10002827 -0.50345528 -0.69796735 91 140 115
-0.096392252 -0.50272274 -0.69682264 86 140 117
-0.099037752 -0.50551832 -0.69851726 92 138 118
-0.098815352 -0.50511438 -0.69830918 91 139 118
-0.096903965 -0.50514108 -0.69788009 86 138 117
-0.095821515 -0.5024938 -0.6966024 85 140 117
-0.098465607 -0.50548112 -0.69837129 90 138 117
-0.09582939 -0.50197738 -0.69640374 85 140 117
-0.098422885 -0.5035001 -0.69759363 88 140 116
-0.097473219 -0.50366837 -0.69743872 88 139 118
-0.09839648 -0.50267667 -0.69726902 88 140 116
-0.098816812 -0.50352556 -0.69769478 90 140 117
-0.099374242 -0.50268519 -0.69749886 89 140 115
-0.093794361 -0.50344986 -0.69662368 95 142 118
-0.095351957 -0.50223702 -0.6964162 86 141 118
-0.093424305 -0.50346178 -0.69655806 96 143 118
-0.094069108 -0.50420374 -0.69697279 94 140 118
-0.094990999 -0.50524879 -0.69752955 86 139 117
-0.094411381 -0.50445127 -0.69712496 90 140 117
-0.095693529 -0.50289756 -0.69673049 83 139 117
-0.099719189 -0.50671959 -0.69917279 93 139 117
-0.097745381 -0.50830436 -0.69935465 92 139 117
-0.099488087 -0.50637126 -0.69896573 93 138 117
-0.097570159 -0.50838208 -0.69934505 92 139 117
-0.096233428 -0.5096218 -0.69954252 91 140 117
-0.097526461 -0.50607526 -0.69839048 87 138 117
-0.096247062 -0.50728512 -0.69858992 86 139 117
-0.095977657 -0.50666028 -0.69827306 83 138 117
-0.09616489 -0.50820553 -0.69894654 88 139 117
-0.096139967 -0.50684857 -0.69838721 85 138 117
-0.097674139 -0.50628096 -0.69850826 88 138 117
-0.095545478 -0.50614786 -0.6979751 82 138 116
-0.095503226 -0.50868398 -0.69900292 89 140 117
-0.095112868 -0.50889027 -0.69902331 92 140 118
-0.095427297 -0.50769627 -0.6985876 87 139 117
-0.068795972 -0.44763869 -0.67964631 123 142 119
-0.06939131 -0.4475725 -0.67971998 114 143 117
-0.066133015 -0.44960672 -0.67960936 125 143 112
-0.067134105 -0.45049605 -0.67976916 137 137 115
-0.06594146 -0.45014909 -0.67966121 127 140 112
-0.066245243 -0.44966549 -0.67962253 126 143 112
-0.067359217 -0.44936258 -0.67966902 132 140 115
-0.06688334 -0.44907683 -0.67960459 127 143 114
-0.066607088 -0.44923249 -0.67959726 126 143 112
-0.068302125 -0.44785467 -0.67960328 129 141 120
-0.11709674 -0.47070277 -0.69472677 51 144 114
-0.11196503 -0.46979409 -0.69199562 62 145 113
-0.11321958 -0.47004846 -0.6926322 59 144 114
-0.11242755 -0.47056717 -0.69242162 51 144 112
-0.11237562 -0.47005785 -0.69225144 58 145 113
-0.11251906 -0.47029188 -0.69238394 54 145 112
-0.11721052 -0.47319287 -0.69550991 50 138 113
-0.11602014 -0.4713473 -0.69434112 51 140 115
-0.1177245 -0.47090322 -0.69511884 50 144 113
-0.11612396 -0.47099999 -0.69429559 52 140 115
-0.11726927 -0.47246391 -0.69532961 50 140 113
-0.11600134 -0.47262675 -0.69470221 51 137 115
-0.11644654 -0.47428885 -0.69541126 50 134 115
-0.11178782 -0.47345856 -0.69295853 57 139 114
-0.1131782 -0.47378632 -0.69366121 54 137 114
-0.11303931 -0.47444645 -0.69379133 56 136 114
-0.11322982 -0.47361827 -0.69363528 53 137 114
-0.11171932 -0.47186536 -0.69246811 50 143 111
-0.11169104 -0.47298303 -0.69277877 56 139 113
-0.1140029 -0.47203481 -0.69353867 50 139 114
-0.11490557 -0.47177145 -0.69387728 51 139 115
-0.11373412 -0.47100279 -0.69313592 50 142 114
-0.11290612 -0.47166738 -0.69294029 48 142 112
-0.11207423 -0.47139022 -0.69248694 47 144 111
-0.11354407 -0.47203466 -0.69333011 48 140 113
-0.11006865 -0.47342473 -0.69224072 62 140 113
-0.1097328 -0.473324 -0.69207644 63 140 113
-0.10985173 -0.472994 -0.69202894 61 141 112
-0.11083648 -0.47330406 -0.69251496 59 141 113
-0.11066008 -0.47281131 -0.69230151 58 141 113
-0.11049452 -0.47125515 -0.69180316 56 143 112
-0.11568652 -0.47604257 -0.69543707 46 133 114
-0.11563446 -0.47660139 -0.69555426 45 134 114
-0.11501915 -0.47800389 -0.69560188 43 133 114
-0.1140407 -0.47682136 -0.69485348 52 134 115
-0.11368041 -0.47717676 -0.69478732 53 134 115
-0.11238478 -0.47783518 -0.69438499 58 136 115
-0.11502819 -0.4773193 -0.69542527 45 133 114
-0.11345815 -0.47641566 -0.69448644 56 135 115
-0.11210067 -0.4760128 -0.69378901 61 136 115
-0.11177128 -0.47560874 -0.69354099 62 136 115
-0.11425476 -0.47557878 -0.69461924 53 134 115
-0.11141739 -0.47720176 -0.69379604 63 137 115
-0.11159389 -0.47785074 -0.69404018 62 137 115
-0.111513 -0.47818339 -0.69409037 62 138 115
-0.10822267 -0.4752498 -0.69200951 72 139 115
-0.10882782 -0.47473446 -0.69211674 71 138 114
-0.10810003 -0.47768193 -0.69260412 72 142 115
-0.10752922 -0.47623834 -0.69199198 74 140 115
-0.10828551 -0.47692043 -0.69247717 71 141 114
-0.10903679 -0.47523478 -0.69233322 70 138 115
-0.11011121 -0.47751683 -0.69335735 67 139 115
-0.10908365 -0.47800457 -0.69307685 69 141 115
-0.10968517 -0.47705254 -0.69306958 68 140 115
-0.11067553 -0.47665736 -0.69335914 65 138 115
-0.10866767 -0.4784337 -0.69302291 70 141 115
-0.11130529 -0.47751111 -0.69382757 63 137 115
-0.10636757 -0.47805372 -0.69202298 81 141 115
-0.10668396 -0.47680345 -0.69181395 79 140 114
-0.11299542 -0.48192164 -0.69568199 54 144 108
-0.11416108 -0.4790867 -0.69549811 47 135 113
-0.11197346 -0.47875586 -0.69444191 60 137 114
-0.11386184 -0.47885123 -0.69530648 48 136 113
-0.11150564 -0.47857571 -0.69418895 62 137 115
-0.11393735 -0.48019698 -0.69567382 48 140 111
-0.11166733 -0.47980124 -0.69456321 61 140 113
-0.11171817 -0.47979936 -0.69458598 61 140 113
-0.10897478 -0.48129973 -0.69384032 68 142 114
-0.10873972 -0.48132294 -0.69375253 69 140 114
-0.10792326 -0.48234969 -0.69367576 73 138 115
-0.10846752 -0.48108846 -0.69358784 70 141 114
-0.10849591 -0.48110723 -0.69360363 70 141 114
-0.10960713 -0.48123276 -0.69407541 65 142 114
-0.11105881 -0.48008588 -0.69437087 63 140 114
-0.11112102 -0.48072684 -0.69455153 61 141 114
-0.11054251 -0.47918478 -0.69394755 65 139 115
-0.10954957 -0.48049036 -0.69387317 66 143 114
-0.10910833 -0.4798308 -0.69353825 68 142 114
-0.10492565 -0.48011178 -0.69206619 85 140 116
-0.10462999 -0.47969663 -0.69182819 88 139 116
-0.10416228 -0.48103037 -0.69204485 89 138 117
-0.10500329 -0.48034281 -0.69216424 84 140 116
-0.1070642 -0.48041889 -0.69289315 76 140 115
-0.10532747 -0.48165467 -0.69261938 82 138 117
-0.10424158 -0.4818559 -0.69231033 87 138 117
-0.10701571 -0.48171765 -0.6931904 77 138 116
-0.10716778 -0.47954834 -0.69271725 75 141 115
-0.10535834 -0.48105592 -0.69248509 83 139 117
-0.11160099 -0.48398682 -0.6955902 63 142 110
-0.11147122 -0.48462331 -0.69570136 65 142 110
-0.1110655 -0.48476493 -0.69557649 66 141 112
-0.10983997 -0.48594642 -0.69543993 68 142 111
-0.10858115 -0.48520753 -0.69477856 66 144 113
-0.11120144 -0.48272866 -0.69508135 60 142 113
-0.11015975 -0.48590669 -0.69554716 68 142 111
-0.10961248 -0.48523396 -0.69516569 66 143 112
-0.10862973 -0.48489252 -0.69470567 66 144 113
-0.10783529 -0.48584855 -0.69467318 68 144 113
-0.10987218 -0.4834086 -0.69475979 63 142 113
-0.10853165 -0.4851751 -0.69475043 66 144 113
-0.10744055 -0.48268703 -0.69357985 75 138 115
-0.10790613 -0.48268735 -0.69376493 73 139 115
-0.10410884 -0.48599932 -0.69342154 80 140 115
-0.10557535 -0.48544821 -0.69376904 77 142 115
-0.10414095 -0.4851369 -0.69318902 83 139 116
-0.10442529 -0.48497233 -0.69324011 82 140 116
-0.10364711 -0.48575762 -0.69319493 83 139 115
-0.10395973 -0.4836897 -0.69271821 86 139 117
-0.10732317 -0.48399267 -0.69392675 73 140 114
-0.10501735 -0.48371533 -0.69308537 82 140 116
-0.10687032 -0.48461396 -0.69396168 74 141 114
-0.10468214 -0.4835878 -0.69293725 84 139 117
-0.10595808 -0.48406884 -0.69349986 78 140 115
-0.1066073 -0.48294905 -0.69338191 78 138 116
-0.10280205 -0.48256749 -0.69201195 89 137 117
-0.1026831 -0.48325416 -0.69217992 90 138 118
-0.1034434 -0.48383659 -0.69258451 87 138 117
-0.10323524 -0.48435614 -0.69266552 87 138 117
-0.10071535 -0.48555058 -0.69220686 92 138 115
-0.1023327 -0.48565304 -0.69274664 87 138 115
-0.10315363 -0.48327109 -0.69233328 89 137 118
-0.10201641 -0.4843584 -0.69228113 90 138 116
-0.099534035 -0.48593342 -0.69193381 93 138 115
-0.10819435 -0.48829746 -0.69552624 77 142 113
-0.10787311 -0.48878357 -0.69555366 79 142 114
-0.10963336 -0.4869892 -0.69566417 71 142 111
-0.10753545 -0.48643133 -0.69472378 69 144 113
-0.10721499 -0.48870608 -0.69529533 78 143 114
-0.10701528 -0.48791406 -0.69498813 75 143 114
-0.10502733 -0.48965892 -0.69482738 85 139 117
-0.10600689 -0.48821893 -0.69473195 77 141 115
-0.10691375 -0.48736867 -0.69478887 73 143 113
-0.10619619 -0.48781657 -0.6946761 75 142 114
-0.10364825 -0.48734304 -0.6936599 83 139 116
-0.10552202 -0.48654273 -0.69406337 75 142 114
-0.10429519 -0.48744476 -0.69391227 81 139 116
-0.10523219 -0.4879438 -0.69438291 79 140 116
-0.10506034 -0.48823524 -0.6944111 80 140 116
-0.10535922 -0.48824927 -0.69451785 79 140 116
-0.09977816 -0.48771504 -0.69255114 92 138 115
-0.10025564 -0.48931098 -0.69318461 90 137 116
-0.099635854 -0.48849645 -0.69274431 91 137 115
-0.10089085 -0.48824906 -0.69305944 91 137 116
-0.099840261 -0.489867 -0.69322443 90 137 115
-0.10046004 -0.48689419 -0.69251508 92 137 115
-0.10269793 -0.48763666 -0.69344395 87 138 116
-0.10133048 -0.48694575 -0.69280541 89 138 115
-0.10192263 -0.48722818 -0.69307691 88 138 116
-0.10243138 -0.48703063 -0.69317853 86 138 116
-0.10142943 -0.48791191 -0.69312561 90 137 116
-0.097169735 -0.48776901 -0.69182479 97 139 115
-0.098329656 -0.48727727 -0.69200313 94 138 115
-0.096637338 -0.48859525 -0.69192469 96 140 115
-0.096870668 -0.48933777 -0.69221979 95 140 115
-0.099125534 -0.48839468 -0.69256878 92 138 115
-0.099111244 -0.48883003 -0.69269699 92 138 115
-0.097669743 -0.48963344 -0.69253486 93 139 115
-0.09805923 -0.48847842 -0.69229364 94 139 114
-0.098468192 -0.489667 -0.69277018 92 138 115
-0.09526819 -0.49007747 -0.69203877 98 140 116
-0.1050653 -0.49143234 -0.69538039 89 138 115
-0.10413344 -0.49214 -0.69527537 93 136 116
-0.10434807 -0.49071446 -0.69491315 88 138 116
-0.10609745 -0.49038196 -0.69541508 86 140 116
-0.10405406 -0.49195656 -0.69519186 93 136 116
-0.1048663 -0.49100277 -0.69518024 89 138 116
-0.10351632 -0.49083027 -0.69466102 90 136 117
-0.10212727 -0.4935973 -0.69510746 97 136 114
-0.10055557 -0.4917793 -0.69405407 92 138 114
-0.10041381 -0.49177948 -0.69401574 92 138 114
-0.1000241 -0.49069005 -0.6935339 91 137 115
-0.10001881 -0.4917379 -0.69389451 92 138 114
-0.1010347 -0.49330992 -0.69471252 95 139 114
-0.10296921 -0.49056479 -0.69440985 90 136 117
-0.10232595 -0.49127275 -0.69442588 92 136 116
-0.10108828 -0.49037135 -0.69376594 90 137 116
-0.10261393 -0.49142456 -0.69456172 92 136 116
-0.10232675 -0.49095622 -0.6943295 91 136 116
-0.10329695 -0.49346769 -0.6953975 97 135 115
-0.097402126 -0.49265039 -0.69349343 97 141 114
-0.097068503 -0.49325264 -0.69362903 98 140 114
-0.099490799 -0.49403182 -0.69454318 96 141 113
-0.097565964 -0.49353051 -0.69386017 98 141 113
-0.09761332 -0.4936341 -0.69391066 98 141 113
-0.097306609 -0.49381977 -0.69389969 98 141 114
-0.098593608 -0.49065292 -0.69312251 92 138 115
-0.098355599 -0.49204025 -0.69353485 95 141 114
-0.099113494 -0.49024218 -0.69312716 90 138 115
-0.098659001 -0.4911778 -0.69332236 92 139 114
-0.09803655 -0.49039364 -0.69287592 92 138 115
-0.097760484 -0.49127218 -0.69310164 94 140 114
-0.094332017 -0.4904905 -0.69200462 104 139 116
-0.092375733 -0.49261081 -0.69233 124 137 121
-0.093155727 -0.49164274 -0.69216168 116 138 119
-0.092790604 -0.49140999 -0.69202489 117 137 119
-0.092380621 -0.49334678 -0.6925621 128 137 122
-0.095209129 -0.49352586 -0.69326335 105 139 116
-0.095179945 -0.49171668 -0.69258988 102 139 116
-0.09516266 -0.49148315 -0.69249988 102 139 116
-0.09489955 -0.49411991 -0.69341147 108 138 116
-0.094390444 -0.4923971 -0.69266015 110 139 118
-0.093869276 -0.4926534 -0.69263548 115 138 119
-0.087912224 -0.49406141 -0.69198489 135 142 120
-0.090781391 -0.49266008 -0.69205809 129 138 120
-0.089386359 -0.49328548 -0.69199848 133 139 120
-0.089549914 -0.49272794 -0.69185328 129 139 119
-0.090250961 -0.49233475 -0.69185847 127 139 119
-0.099836357 -0.49515927 -0.69502378 95 141 114
-0.10174257 -0.49551845 -0.69566232 96 137 115
-0.10096293 -0.49464107 -0.69515133 97 139 114
-0.099746153 -0.49424449 -0.69468653 96 141 113
-0.10028295 -0.49439681 -0.69488382 96 141 113
-0.098984465 -0.4971461 -0.6954776 95 140 116
-0.097658142 -0.49778816 -0.69535244 98 139 117
-0.097619422 -0.49729949 -0.69517571 98 139 117
-0.097475819 -0.49749663 -0.69520581 98 139 117
-0.097605333 -0.49768779 -0.69530457 98 139 117
-0.096229017 -0.49573699 -0.69428301 101 139 116
-0.096751288 -0.4946045 -0.69403225 100 139 115
-0.096462525 -0.49618796 -0.69449711 100 139 116
-0.097947054 -0.49571893 -0.69472152 98 141 115
-0.096351832 -0.49443001 -0.69386941 100 140 114
-0.097114846 -0.49659824 -0.69480574 99 140 115
-0.092471085 -0.49593127 -0.69350529 122 139 121
-0.093682639 -0.49621871 -0.69385445 117 138 120
-0.094726101 -0.497082 -0.69438213 110 138 120
-0.093660191 -0.49623531 -0.69385612 117 138 120
-0.091929376 -0.49455181 -0.69288802 132 137 123
-0.093253516 -0.49491107 -0.69330543 122 137 121
-0.095230259 -0.49445909 -0.69360328 105 139 116
-0.09226805 -0.4944104 -0.69290948 131 136 123
-0.094952129 -0.49641594 -0.69420654 108 138 118
-0.094453752 -0.49438247 -0.69339967 112 138 118
-0.090159535 -0.49801368 -0.69385451 128 140 121
-0.090739191 -0.49753726 -0.69377571 120 142 120
-0.090002038 -0.49708194 -0.69347733 126 141 120
-0.088160373 -0.4952395 -0.69246715 137 140 120
-0.090161115 -0.49529949 -0.69284302 128 140 121
-0.088201478 -0.49437585 -0.69215035 134 141 120
-0.09143281 -0.49743074 -0.69385731 115 143 119
-0.091325276 -0.49681044 -0.6936093 119 141 120
-0.090448864 -0.49656266 -0.69336051 120 143 119
-0.096673824 -0.49940154 -0.69567126 93 140 117
-0.097145565 -0.49865296 -0.69552517 96 139 117
-0.09524025 -0.49907058 -0.69521636 99 141 118
-0.093970612 -0.50105381 -0.69569522 95 145 117
-0.095608369 -0.49925202 -0.69534874 96 140 117
-0.091393754 -0.49830523 -0.69417709 115 143 119
-0.089256652 -0.4989284 -0.69404161 136 139 122
-0.091381609 -0.4990702 -0.69446194 113 144 119
-0.08991275 -0.49824768 -0.69389963 130 140 121
-0.090044968 -0.49825361 -0.69392473 129 140 121
-0.092895538 -0.47068512 -0.68622577 119 139 114
-0.089764416 -0.46995455 -0.68556273 113 138 114
-0.089757316 -0.47050068 -0.68567061 113 137 115
-0.091584571 -0.46993759 -0.68579203 119 139 114
-0.077991106 -0.47037673 -0.68413115 130 141 117
-0.078882337 -0.47062835 -0.68429345 118 141 116
-0.078689761 -0.47057524 -0.6842587 120 141 116
-0.092489779 -0.4736025 -0.68680596 124 137 117
-0.092526026 -0.47261864 -0.68657804 121 138 116
-0.092994168 -0.47106171 -0.68632704 117 138 115
-0.091457978 -0.47454718 -0.68684316 128 137 117
-0.089888431 -0.47324184 -0.68632573 117 137 116
-0.091709897 -0.47392884 -0.68673217 130 136 117
-0.091540657 -0.47359282 -0.68663019 129 136 117
-0.090369642 -0.4713946 -0.68595469 118 137 116
-0.089017242 -0.47112238 -0.68571645 112 136 116
-0.089517415 -0.4713715 -0.68584001 114 137 115
-0.090333916 -0.47177458 -0.68604094 119 137 116
-0.084738046 -0.47442091 -0.68588388 112 137 116
-0.081217371 -0.47450608 -0.68542552 115 140 114
-0.082226418 -0.47311807 -0.68526828 113 138 116
-0.077648699 -0.4721522 -0.68453377 131 138 117
-0.077490926 -0.47264194 -0.68464118 132 137 118
-0.076312944 -0.47361585 -0.68474948 145 134 119
-0.079093285 -0.47092885 -0.68439353 114 141 115
-0.076611407 -0.47323385 -0.68468708 143 135 119
-0.077897497 -0.47165307 -0.68443513 129 139 117
-0.07800021 -0.47284251 -0.68475223 124 136 117
-0.076794595 -0.47455063 -0.68502444 139 133 118
-0.078651316 -0.47228113 -0.68468243 117 138 116
-0.076952353 -0.4744558 -0.68501639 138 133 118
-0.079795055 -0.4741652 -0.68517327 114 141 113
-0.078598678 -0.47218329 -0.68465739 117 138 116
-0.074009873 -0.47374779 -0.68464828 133 144 114
-0.073722653 -0.47285968 -0.68441087 136 142 115
-0.075110473 -0.47428137 -0.68484539 138 138 117
-0.072717331 -0.47163877 -0.68404657 135 146 113
-0.076121122 -0.47242638 -0.68442237 151 137 119
-0.07415361 -0.47123045 -0.68401372 144 144 116
-0.073550165 -0.47126919 -0.68399322 141 145 115
-0.074870221 -0.4720667 -0.68426609 146 140 117
-0.070136189 -0.47421113 -0.6845274 150 140 119
-0.071287714 -0.47410429 -0.68456727 132 152 112
-0.071880974 -0.47266188 -0.68424976 132 150 112
-0.070221059 -0.47278661 -0.68416637 153 141 119
-0.070979401 -0.47385415 -0.68448383 137 149 114
-0.070994332 -0.47251481 -0.68415213 145 144 116
-0.071077809 -0.47390819 -0.68450403 136 150 114
-0.092212968 -0.47492957 -0.6870659 126 137 118
-0.090678245 -0.47484428 -0.68679953 116 139 115
-0.091349266 -0.4746334 -0.68684697 126 137 116
-0.08645805 -0.47762808 -0.68688351 116 137 115
-0.085385785 -0.47749493 -0.68670249 125 137 116
-0.084289648 -0.47603098 -0.6862061 126 136 118
-0.084437169 -0.47840142 -0.68678242 137 138 117
-0.085204966 -0.47795534 -0.68678522 128 138 116
-0.086194545 -0.47628033 -0.68652594 111 137 115
-0.084233105 -0.47479194 -0.68590713 120 136 118
-0.086557478 -0.47693959 -0.68673384 112 137 115
-0.080348015 -0.47502902 -0.68542975 116 142 112
-0.081312582 -0.47781509 -0.68626428 137 139 118
-0.081036828 -0.47584853 -0.68572056 122 141 113
-0.081717864 -0.47724596 -0.68616122 132 139 116
-0.081970833 -0.47727105 -0.68619603 133 139 116
-0.083641656 -0.47597879 -0.68610382 128 137 118
-0.083909228 -0.47627258 -0.68620968 130 137 117
-0.080744162 -0.4752706 -0.68553716 118 141 113
-0.083766423 -0.4758302 -0.68608624 127 137 117
-0.083761111 -0.47540346 -0.68598545 125 136 117
-0.083181739 -0.47755486 -0.68640977 135 138 116
-0.078857891 -0.47754702 -0.6859597 145 136 120
-0.078816041 -0.47794294 -0.68605536 146 137 120
-0.077125944 -0.47586399 -0.68538678 145 134 120
-0.076749608 -0.4758344 -0.6853466 147 134 120
-0.078522757 -0.47514352 -0.68530953 130 137 117
-0.080070831 -0.47827491 -0.6862455 142 138 120
-0.080064468 -0.47785726 -0.68613613 138 139 119
-0.079985328 -0.47622541 -0.68570447 126 140 116
-0.078160487 -0.47558075 -0.68539566 136 136 118
-0.079603396 -0.47625196 -0.68568188 129 139 116
-0.075712301 -0.47517562 -0.68510419 144 136 118
-0.074948274 -0.47529969 -0.68509048 138 141 116
-0.07381887 -0.47581509 -0.68515354 132 150 113
-0.074117042 -0.47501811 -0.68497115 131 146 114
-0.089003071 -0.48034739 -0.68789077 104 139 113
-0.087976672 -0.47918615 -0.68746555 109 138 114
-0.088257782 -0.47923189 -0.68751496 107 138 114
-0.087171517 -0.48111951 -0.68785006 110 138 114
-0.087874949 -0.47854549 -0.68729752 109 137 114
-0.087597802 -0.48056614 -0.68775821 109 138 115
-0.084847219 -0.48158094 -0.68773359 118 137 116
-0.084457114 -0.47989404 -0.68720233 130 137 117
-0.085499041 -0.48004347 -0.68739021 121 137 116
-0.084170505 -0.48119953 -0.68753189 125 137 116
-0.086067431 -0.47889265 -0.6871438 122 138 115
-0.085033551 -0.48023537 -0.68737954 123 138 116
-0.085505307 -0.48034242 -0.68747574 119 137 116
-0.082272701 -0.48170727 -0.68746608 126 141 116
-0.080396093 -0.47919974 -0.68654108 139 139 119
-0.080534607 -0.47904155 -0.68650943 140 138 119
-0.083317466 -0.48041207 -0.68720829 131 138 117
-0.082975022 -0.480786 -0.68727589 129 138 117
-0.082060859 -0.47914755 -0.68670964 139 138 118
-0.081547111 -0.4785699 -0.68648863 142 138 119
-0.083095297 -0.47913438 -0.6868217 139 138 118
-0.082230046 -0.47955894 -0.68684506 137 138 118
-0.078341916 -0.47874042 -0.68622321 150 138 120
-0.078688435 -0.47869837 -0.68624115 149 138 120
-0.080065742 -0.47857413 -0.68632483 143 138 120
0 0 0 1 0 0 0 1 0 0 0 1 0 0 0 0 0 968 1 0 0
