ply
format ascii 1.0
comment PCL generated
element vertex 669
property float x
property float y
property float z
property uchar red
property uchar green
property uchar blue
element camera 1
property float view_px
property float view_py
property float view_pz
property float x_axisx
property float x_axisy
property float x_axisz
property float y_axisx
property float y_axisy
property float y_axisz
property float z_axisx
property float z_axisy
property float z_axisz
property float focal
property float scalex
property float scaley
property float centerx
property float centery
property int viewportx
property int viewporty
property float k1
property float k2
end_header
-0.054807004 -0.33374614 -0.6750676 182 141 120
-0.053067531 -0.33315006 -0.67532021 214 133 127
-0.053406578 -0.33101985 -0.6757983 206 136 124
-0.054483101 -0.3322261 -0.67544544 187 141 120
-0.054498728 -0.33210564 -0.67547274 186 142 120
-0.05507528 -0.33396178 -0.67499959 178 142 119
-0.054712128 -0.33055601 -0.67587918 184 141 122
-0.054216322 -0.33147752 -0.6756416 191 141 121
-0.055120382 -0.33152238 -0.67560482 176 144 120
-0.054892853 -0.33127505 -0.67567837 180 142 121
-0.055865627 -0.33162552 -0.67555654 163 146 118
-0.053877238 -0.33037817 -0.67595023 198 138 124
-0.050230246 -0.33158123 -0.67593795 218 133 127
-0.049333349 -0.33320796 -0.6756171 214 132 127
-0.04908669 -0.33266002 -0.67578185 217 132 127
-0.049641017 -0.33301121 -0.67563552 214 132 127
-0.049087681 -0.33389252 -0.67547178 214 132 127
-0.052270003 -0.33080745 -0.67593044 217 133 127
-0.051681016 -0.33376938 -0.67528427 219 130 129
-0.050301272 -0.33374381 -0.67540544 216 131 127
-0.050887663 -0.33248317 -0.67565244 216 132 127
-0.051140826 -0.33278486 -0.67556047 217 132 128
-0.045399737 -0.33381057 -0.67601722 210 135 125
-0.047573313 -0.33330151 -0.67582893 214 133 126
-0.046916913 -0.33361319 -0.67584556 213 134 126
-0.047380425 -0.33384576 -0.67571878 212 133 126
-0.046554215 -0.33262157 -0.67615229 215 134 125
-0.058076996 -0.33564165 -0.67448545 174 142 116
-0.057671838 -0.33709934 -0.67420173 186 139 118
-0.056994576 -0.33612314 -0.67443424 172 144 116
-0.054777279 -0.33699262 -0.67442232 208 135 124
-0.054423377 -0.33712158 -0.67443436 214 133 125
-0.05313535 -0.33520451 -0.67489409 222 131 128
-0.052782048 -0.33609483 -0.67477334 230 130 130
-0.053917188 -0.33766472 -0.67438906 223 132 127
-0.054609388 -0.33450189 -0.67491734 192 138 122
-0.056001209 -0.33630499 -0.67445385 183 141 118
-0.055118717 -0.3359414 -0.6745863 196 137 122
-0.056045882 -0.33635855 -0.67443985 183 141 119
-0.053669307 -0.3343322 -0.67501336 207 134 126
-0.049889233 -0.33633846 -0.67493725 223 131 128
-0.049917329 -0.33666089 -0.67487061 223 132 128
-0.050192874 -0.33625245 -0.67493773 224 131 128
-0.049019579 -0.33718568 -0.67481476 221 133 127
-0.048856243 -0.33466589 -0.67533278 215 132 127
-0.050839089 -0.33654115 -0.67484337 228 130 129
-0.052681349 -0.3358905 -0.6748181 230 129 130
-0.050673947 -0.33535513 -0.67507899 224 131 128
-0.051383387 -0.33584413 -0.67493451 227 130 129
-0.051005393 -0.33425781 -0.67524254 219 131 128
-0.050973792 -0.3348164 -0.67514783 222 131 128
-0.046333879 -0.33724773 -0.67519075 201 136 123
-0.045513876 -0.33585715 -0.67558736 202 136 124
-0.046509255 -0.33735433 -0.67514312 202 136 123
-0.045646407 -0.33711368 -0.67532229 195 138 122
-0.045797907 -0.33543828 -0.67562538 208 136 125
-0.047958653 -0.33579466 -0.67523342 216 134 127
-0.048343655 -0.3344152 -0.67545569 214 132 127
-0.047094233 -0.33422232 -0.67567736 212 133 126
-0.046755053 -0.33482856 -0.67560446 213 134 126
-0.046624765 -0.33478627 -0.67563206 213 134 126
-0.042369939 -0.33609894 -0.67606544 206 133 127
-0.041895736 -0.33684337 -0.67600143 205 133 128
-0.043948047 -0.3354094 -0.67593122 205 134 125
-0.043534856 -0.33627346 -0.67583323 200 136 124
-0.043415837 -0.33662573 -0.67578489 199 136 125
-0.044143155 -0.33500934 -0.67597586 206 135 125
-0.044282891 -0.33628476 -0.6757037 197 136 123
-0.040698234 -0.33705881 -0.67615002 206 132 129
-0.063057825 -0.3416968 -0.67334658 220 137 122
-0.062925115 -0.34151065 -0.67337394 220 137 122
-0.06154843 -0.34151158 -0.67334765 230 134 126
-0.062796183 -0.34146768 -0.67337835 220 137 122
-0.064114764 -0.34156924 -0.67338705 212 140 120
-0.058283374 -0.34083161 -0.67354113 226 133 124
-0.057758741 -0.34111926 -0.67351979 230 132 123
-0.058292478 -0.34146544 -0.6734401 234 132 125
-0.059399419 -0.34158313 -0.67337012 236 132 127
-0.058080066 -0.34166679 -0.67341799 237 132 124
-0.060429204 -0.34089303 -0.67343313 232 131 127
-0.059141792 -0.34007564 -0.67362183 219 134 124
-0.0585141 -0.33940253 -0.67375779 210 135 123
-0.05399758 -0.34046802 -0.67392099 234 130 127
-0.053483773 -0.34084606 -0.67390305 231 130 128
-0.055906706 -0.34110311 -0.67364538 238 131 123
-0.053701632 -0.34086359 -0.67388082 232 129 127
-0.055106595 -0.34099767 -0.67373395 236 131 125
-0.05550433 -0.33905602 -0.67400992 218 134 123
-0.055482585 -0.33890849 -0.67403543 216 135 123
-0.053709239 -0.33792356 -0.67436475 228 131 128
-0.055890005 -0.34040061 -0.67375886 230 133 123
-0.05474741 -0.33986747 -0.6739549 238 131 126
-0.055865843 -0.34008944 -0.67381066 226 133 123
-0.049786743 -0.34062159 -0.67427003 216 131 127
-0.050594449 -0.34172249 -0.67405665 217 130 127
-0.050004955 -0.33912423 -0.67441362 222 133 127
-0.050155096 -0.3402032 -0.67427588 219 131 127
-0.051476609 -0.34096557 -0.67404324 223 130 128
-0.049505524 -0.33961946 -0.67441368 218 132 127
-0.050902493 -0.33938545 -0.67431659 226 131 128
-0.052129533 -0.34020087 -0.67411143 228 129 129
-0.051901679 -0.34050736 -0.67407274 226 130 128
-0.049832262 -0.33839846 -0.67454183 224 133 127
-0.052602153 -0.33790451 -0.67447007 239 129 130
-0.047944251 -0.34143057 -0.67440283 205 131 125
-0.045881152 -0.34173125 -0.67459953 201 134 125
-0.045216233 -0.33937052 -0.67502785 190 137 122
-0.046997968 -0.34120885 -0.67454642 202 133 125
-0.047083143 -0.34078246 -0.67459983 200 133 124
-0.046977419 -0.33870682 -0.67487532 200 136 123
-0.048806112 -0.3395139 -0.67450434 215 132 126
-0.048199363 -0.34020337 -0.67452008 208 132 125
-0.047902774 -0.33926213 -0.67467111 208 133 125
-0.048617687 -0.3397488 -0.6745069 213 133 126
-0.042179253 -0.34007335 -0.67539859 200 134 127
-0.041592419 -0.34020773 -0.67545992 200 134 127
-0.043069974 -0.34063131 -0.67517269 200 134 126
-0.042805672 -0.34000358 -0.67532027 201 134 127
-0.041588798 -0.3414084 -0.67525107 199 135 126
-0.042784348 -0.34128377 -0.67510015 199 135 127
-0.04219427 -0.3386108 -0.67563951 199 134 127
-0.044627242 -0.33815783 -0.67529255 186 138 121
-0.043538921 -0.33812979 -0.67548198 191 136 123
-0.042654444 -0.33845234 -0.67558467 196 135 126
-0.04405633 -0.33959821 -0.67517585 195 135 124
-0.0421644 -0.3389599 -0.67559278 201 133 128
-0.038097084 -0.33979997 -0.67607003 217 131 128
-0.037451215 -0.34144279 -0.6759187 225 130 129
-0.039324675 -0.33821106 -0.67613322 207 133 127
-0.040283684 -0.33816859 -0.67600727 205 132 128
-0.040497322 -0.33918455 -0.67580748 205 133 128
-0.040429384 -0.34073502 -0.67554849 204 134 127
-0.03865632 -0.34063008 -0.67586076 217 131 128
-0.03936433 -0.33986318 -0.67587709 212 131 129
-0.038455397 -0.34072769 -0.67587709 218 131 128
-0.037023149 -0.34132975 -0.67599124 225 130 129
-0.076569878 -0.34505475 -0.67429417 218 132 123
-0.074572138 -0.34515488 -0.67399746 231 130 125
-0.073131435 -0.34519827 -0.67376459 236 130 126
-0.073676698 -0.34469602 -0.67387885 228 131 126
-0.076110758 -0.34515181 -0.67422754 222 130 123
-0.069264889 -0.34291732 -0.67349935 219 133 124
-0.069022924 -0.34483364 -0.67336303 236 132 125
-0.068695739 -0.34313288 -0.67343587 220 134 123
-0.069858909 -0.34554359 -0.67339474 243 130 126
-0.070396259 -0.34425968 -0.67351943 232 131 125
-0.068932049 -0.34357533 -0.67343038 224 133 124
-0.070581369 -0.34327543 -0.67359018 220 134 125
-0.070012137 -0.34313083 -0.67355096 220 134 124
-0.070368633 -0.34311837 -0.67358106 218 134 125
-0.07066448 -0.3433097 -0.67359531 220 134 125
-0.064764664 -0.34219867 -0.67334235 215 140 120
-0.06601496 -0.34492919 -0.67320609 238 132 125
-0.064838253 -0.34241235 -0.67333072 216 140 120
-0.066240914 -0.34495699 -0.67321372 238 132 125
-0.065121152 -0.34334904 -0.67327768 224 137 122
-0.068260647 -0.34551921 -0.67325974 242 131 126
-0.066785157 -0.34268808 -0.67338061 217 137 122
-0.068338349 -0.34320498 -0.67340094 221 134 124
-0.06753888 -0.34306571 -0.67338288 220 135 122
-0.060875218 -0.34437045 -0.67308885 233 132 127
-0.060772952 -0.34531358 -0.6730113 231 133 126
-0.061993431 -0.34479687 -0.67308718 237 131 127
-0.062826417 -0.34509659 -0.67308736 240 131 127
-0.060634948 -0.343743 -0.67313153 234 132 127
-0.060991075 -0.34410155 -0.67311341 235 132 127
-0.062994123 -0.34409595 -0.67316979 242 131 128
-0.062765732 -0.3419365 -0.67331535 225 136 124
-0.064162508 -0.34331781 -0.67324597 227 136 123
-0.063124597 -0.3440682 -0.67317426 240 131 127
-0.063804679 -0.34214836 -0.67332035 219 139 121
-0.062556192 -0.34326476 -0.6732192 238 132 127
-0.056913465 -0.34434515 -0.67320138 223 134 126
-0.05807342 -0.3442612 -0.67318076 228 133 125
-0.058986306 -0.34447172 -0.67313671 230 133 124
-0.057819054 -0.34547311 -0.67306548 220 134 127
-0.05664441 -0.34226692 -0.67341679 235 132 122
-0.058112063 -0.34482226 -0.67312348 225 133 126
-0.059090119 -0.34397587 -0.67317814 233 133 124
-0.060316872 -0.34445158 -0.6730836 232 133 126
-0.060539767 -0.34232655 -0.67324144 237 131 128
-0.060524039 -0.34357917 -0.67314303 234 132 127
-0.059687924 -0.34448054 -0.67311049 232 133 125
-0.054538429 -0.34537327 -0.67328 204 135 127
-0.054197263 -0.34534925 -0.67331058 202 135 127
-0.053141125 -0.34441122 -0.6734975 204 134 127
-0.0557875 -0.3450951 -0.67320704 214 135 128
-0.055492021 -0.34563759 -0.67317337 207 136 127
-0.054620054 -0.34344441 -0.67347765 221 131 128
-0.055980176 -0.34354958 -0.67334664 225 133 126
-0.054536816 -0.3425186 -0.67357796 227 130 127
-0.056284785 -0.34365833 -0.67330873 226 133 126
-0.055242915 -0.34287193 -0.67347991 227 132 126
-0.050668299 -0.34536451 -0.67358047 192 137 125
-0.049845591 -0.34342781 -0.67392963 201 133 125
-0.050147057 -0.34507915 -0.67365825 193 137 124
-0.04943436 -0.3456111 -0.67362416 192 140 124
-0.051330399 -0.34459281 -0.67365444 195 135 125
-0.052213743 -0.34337243 -0.67369974 209 132 127
-0.051732257 -0.3439343 -0.67369342 202 133 126
-0.05036708 -0.34249669 -0.67399889 209 131 126
-0.052373946 -0.34231323 -0.67379504 219 130 128
-0.052212995 -0.34420067 -0.67361146 201 133 126
-0.044984337 -0.34340903 -0.67446387 200 136 126
-0.045475338 -0.34474754 -0.67421055 199 137 125
-0.045256063 -0.34484464 -0.67422438 200 137 125
-0.048170529 -0.34536162 -0.67378193 193 140 124
-0.045699518 -0.34261918 -0.67448622 198 136 125
-0.046548918 -0.34366304 -0.67422968 196 137 125
-0.045481835 -0.34225991 -0.67456597 199 135 126
-0.048225936 -0.34290141 -0.67414719 202 134 124
-0.047686156 -0.34438813 -0.67398387 195 138 124
-0.047619518 -0.34296763 -0.67420805 201 134 125
-0.047867857 -0.34305233 -0.67416608 201 134 125
-0.043324217 -0.34548125 -0.67442542 206 136 125
-0.041537397 -0.34298611 -0.67503011 202 136 126
-0.041724153 -0.34418121 -0.67484629 207 135 125
-0.042463031 -0.34437361 -0.67470461 205 136 125
-0.043166094 -0.34473082 -0.67454731 203 137 125
-0.042522732 -0.34334373 -0.67482811 199 137 126
-0.042609211 -0.34266597 -0.67491186 199 136 126
-0.044376466 -0.34434527 -0.67441678 200 137 125
-0.043800551 -0.34194028 -0.67484349 199 135 126
-0.043965198 -0.34244862 -0.67474705 199 135 126
-0.042870078 -0.34181905 -0.67499518 199 135 126
-0.039236613 -0.34553835 -0.67502421 213 135 126
-0.039270174 -0.344174 -0.67524159 221 132 126
-0.038739964 -0.34410921 -0.67532229 219 133 126
-0.038720895 -0.34530842 -0.67512983 213 135 127
-0.037707459 -0.34283587 -0.67566592 223 131 128
-0.037742425 -0.34548625 -0.67523044 209 137 127
-0.040682875 -0.34310299 -0.67515278 207 135 126
-0.040713683 -0.34184372 -0.67531013 200 135 126
-0.039859869 -0.34448278 -0.67511117 220 133 126
-0.039171848 -0.34304851 -0.67541039 218 132 127
-0.039113205 -0.3428106 -0.6754508 217 132 127
-0.033914432 -0.34256026 -0.67613602 220 135 128
-0.034479842 -0.34234649 -0.67610765 222 133 128
-0.034702815 -0.34397846 -0.67585993 204 140 128
-0.034472365 -0.34325412 -0.67598337 212 138 128
-0.035366047 -0.34493256 -0.67562604 200 141 127
-0.03627545 -0.34379697 -0.67569494 212 136 128
-0.03505116 -0.34479991 -0.67568761 200 142 128
-0.035494316 -0.3442651 -0.67571819 205 139 128
-0.034048542 -0.34487048 -0.67580378 194 146 127
-0.031649858 -0.34478277 -0.67614532 188 140 125
-0.031498257 -0.34489346 -0.67615378 186 140 124
-0.032354381 -0.34562117 -0.67591983 182 146 126
-0.076745532 -0.34678707 -0.6743319 228 131 125
-0.076303035 -0.34808514 -0.67425954 230 134 126
-0.076382354 -0.34617698 -0.67426401 231 129 125
-0.077641673 -0.34692687 -0.67448378 222 132 125
-0.07229422 -0.34804699 -0.67366296 244 130 131
-0.074257165 -0.34938321 -0.67397106 236 135 130
-0.073075518 -0.34659386 -0.67373478 242 131 127
-0.07439106 -0.34813097 -0.67395765 236 134 128
-0.072283588 -0.34587643 -0.67360592 246 129 127
-0.074888192 -0.34606636 -0.67402041 237 129 126
-0.074134611 -0.34753984 -0.6739074 238 132 127
-0.073893964 -0.34629792 -0.67386252 240 130 126
-0.075852096 -0.34736767 -0.67418134 232 132 126
-0.073625818 -0.34608042 -0.67381853 241 129 127
-0.070133753 -0.34899783 -0.67349982 243 131 130
-0.069054261 -0.34895959 -0.67340696 244 131 129
-0.069138139 -0.34856731 -0.67340255 243 131 129
-0.069367774 -0.34906712 -0.67343676 244 131 130
-0.068804689 -0.34853277 -0.67337316 244 131 129
-0.071685724 -0.34861955 -0.67362213 243 131 132
-0.070494682 -0.34758925 -0.67348999 243 131 130
-0.072128817 -0.34846315 -0.67365754 243 130 132
-0.070384406 -0.34602857 -0.67344022 245 130 127
-0.069089748 -0.34641585 -0.67333513 243 131 127
-0.064477816 -0.34929684 -0.67307413 232 133 128
-0.065744407 -0.34901455 -0.67317116 237 131 129
-0.065257862 -0.34819058 -0.67313743 238 131 128
-0.065689802 -0.34856844 -0.67316872 238 131 128
-0.066143349 -0.34884301 -0.67320204 239 131 129
-0.066327125 -0.34633726 -0.67318428 244 131 127
-0.067758888 -0.34681597 -0.67325926 244 131 127
-0.067299083 -0.34771162 -0.67326611 244 131 128
-0.067264244 -0.34696749 -0.67324275 244 131 127
-0.06835261 -0.34923846 -0.67335582 244 131 129
-0.061165411 -0.34655392 -0.67298591 227 134 126
-0.062368348 -0.34835097 -0.67300695 223 134 127
-0.060851216 -0.3472448 -0.6729632 219 135 126
-0.061169416 -0.34668362 -0.67298412 226 134 126
-0.061944176 -0.34812933 -0.67299342 220 135 126
-0.06411539 -0.34858128 -0.67306525 233 132 128
-0.0635316 -0.34794688 -0.673051 233 132 127
-0.062501609 -0.34613559 -0.67302841 236 132 127
-0.061625268 -0.34578341 -0.67300457 233 132 126
-0.06305524 -0.346659 -0.67304224 236 132 127
-0.059344579 -0.3495312 -0.67293322 201 138 125
-0.058048479 -0.34794617 -0.67299289 208 136 127
-0.057280567 -0.34895095 -0.67297494 212 134 126
-0.058783188 -0.34934708 -0.67294526 204 137 125
-0.05778601 -0.34804386 -0.67299348 209 136 126
-0.058024459 -0.34742472 -0.67300749 208 137 127
-0.060447682 -0.34814906 -0.67294019 207 138 125
-0.059832428 -0.34585622 -0.67298967 225 134 126
-0.060123313 -0.34653851 -0.6729722 220 135 126
-0.058234874 -0.34607241 -0.6730265 217 135 127
-0.060217857 -0.34574857 -0.67298162 227 133 126
-0.059703305 -0.34614861 -0.67298853 222 134 126
-0.055620003 -0.34948149 -0.67303658 212 133 125
-0.053274564 -0.34936774 -0.67319298 206 134 123
-0.053253524 -0.34866098 -0.67322624 203 134 124
-0.05294764 -0.34838992 -0.67325819 201 135 124
-0.052738085 -0.34880817 -0.67325282 202 134 123
-0.054610014 -0.34839621 -0.67315066 205 134 125
-0.055144534 -0.347709 -0.67313999 205 134 126
-0.055294849 -0.34777337 -0.67312586 206 134 126
-0.054148942 -0.34690875 -0.6732437 199 135 126
-0.056632947 -0.34877899 -0.67298841 215 133 126
-0.055213656 -0.3475197 -0.67313945 205 134 126
-0.05368229 -0.34659597 -0.67329061 196 135 126
-0.050204813 -0.34709787 -0.67349678 196 138 123
-0.049908172 -0.34950575 -0.67343968 201 137 123
-0.051120516 -0.34909081 -0.67335939 202 136 123
-0.050511867 -0.34829891 -0.67343301 199 137 123
-0.049316797 -0.34714124 -0.67356426 195 139 124
-0.051970296 -0.34765762 -0.67335516 198 136 124
-0.050670743 -0.34680179 -0.67347926 195 138 124
-0.051140767 -0.34678233 -0.67344916 195 137 124
-0.051430494 -0.34762484 -0.67339218 198 136 124
-0.052277353 -0.34744102 -0.67334473 197 135 124
-0.045716751 -0.34730026 -0.67395216 208 137 126
-0.046007309 -0.34884515 -0.67380422 219 134 128
-0.045365937 -0.34957135 -0.67379606 232 131 130
-0.0454036 -0.34621987 -0.67406422 201 138 125
-0.047491334 -0.34926423 -0.6736533 209 136 126
-0.047297142 -0.3491888 -0.6736747 210 136 126
-0.045453034 -0.34588078 -0.67407095 199 138 125
-0.046444353 -0.34719905 -0.67390174 200 138 125
-0.047494568 -0.34578401 -0.67381597 195 140 124
-0.047758315 -0.34705541 -0.67374033 197 139 124
-0.04855822 -0.34910071 -0.67357105 199 138 124
-0.042478647 -0.34818277 -0.67430264 222 132 128
-0.043660667 -0.34929657 -0.67402732 228 131 130
-0.04259678 -0.34919453 -0.67417806 219 131 130
-0.042494323 -0.34812751 -0.67430651 222 132 128
-0.041364856 -0.34957558 -0.67429876 209 131 130
-0.041511953 -0.34941754 -0.6742965 210 131 129
-0.044099737 -0.34777346 -0.6741066 223 133 128
-0.044649649 -0.34858206 -0.67395419 228 132 129
-0.043744769 -0.34606853 -0.67430073 209 136 125
-0.042766221 -0.3469654 -0.67438298 222 133 127
-0.044518597 -0.34735292 -0.67407435 218 134 128
-0.041915424 -0.34622097 -0.67457783 218 134 125
-0.038351703 -0.34781441 -0.67493707 194 136 127
-0.037734479 -0.34707785 -0.67509121 196 137 127
-0.038065374 -0.34692875 -0.67503589 202 136 128
-0.038431469 -0.34716043 -0.67495477 204 136 128
-0.039270077 -0.34868062 -0.67471921 195 134 128
-0.039109573 -0.34680435 -0.67489558 209 135 127
-0.038152073 -0.3465201 -0.67505294 207 136 128
-0.039193049 -0.34587386 -0.67498487 212 136 126
-0.03864963 -0.34581882 -0.67506272 210 136 126
-0.039015405 -0.34638652 -0.67495304 210 135 127
-0.034830496 -0.3457225 -0.67556792 193 145 127
-0.035798404 -0.34628275 -0.67541665 191 142 127
-0.036187898 -0.34705773 -0.67532825 182 141 126
-0.036656167 -0.34658262 -0.67529249 192 139 126
-0.037022226 -0.34642279 -0.67525393 196 138 127
-0.077103414 -0.35083291 -0.67452091 222 136 130
-0.077311352 -0.35040212 -0.67452073 222 138 129
-0.073450565 -0.3497391 -0.67387515 238 133 132
-0.068542615 -0.35191062 -0.67349845 206 142 127
-0.068421312 -0.35182977 -0.67348123 207 142 126
-0.070636593 -0.35095513 -0.67365837 223 134 129
-0.07159999 -0.34973881 -0.67365181 241 131 132
-0.069979936 -0.3501814 -0.67354631 235 133 130
-0.064976625 -0.35144684 -0.67320263 219 134 128
-0.064477779 -0.35190699 -0.67318928 223 131 129
-0.066790804 -0.35203797 -0.67336589 200 143 126
-0.064570807 -0.35246003 -0.67322409 221 132 129
-0.068110071 -0.35071853 -0.67340183 225 136 128
-0.067542151 -0.34992316 -0.67332029 236 133 128
-0.066266328 -0.35032824 -0.67324328 225 136 127
-0.067839861 -0.3499662 -0.67334497 236 132 128
-0.067480057 -0.35125268 -0.67337996 214 139 127
-0.061145488 -0.35142556 -0.67299533 207 136 126
-0.06056999 -0.35005787 -0.6729269 199 139 126
-0.062299505 -0.35210812 -0.6730898 211 134 127
-0.06275405 -0.35279009 -0.67313564 215 132 128
-0.061788268 -0.35136876 -0.6730389 206 136 126
-0.061482593 -0.34975609 -0.67296058 203 138 126
-0.062108245 -0.34979042 -0.67298716 209 137 126
-0.063790567 -0.35150158 -0.67314065 219 133 128
-0.061865184 -0.34962231 -0.67296904 207 138 126
-0.062337223 -0.35031211 -0.67302269 209 136 127
-0.063502595 -0.35098511 -0.67310303 218 133 128
-0.057288125 -0.35325262 -0.67307842 226 132 127
-0.0574264 -0.35097659 -0.67299241 219 132 126
-0.058322527 -0.35204777 -0.67300612 221 132 127
-0.059526645 -0.3534106 -0.67302167 224 131 127
-0.060421526 -0.35349375 -0.67299974 224 131 127
-0.059386577 -0.3529045 -0.67300731 222 132 127
-0.059901383 -0.35066259 -0.67294592 207 136 126
-0.060506687 -0.3529329 -0.67298537 219 132 127
-0.057099443 -0.34976238 -0.67296243 214 133 125
-0.058595885 -0.35051259 -0.67295921 212 134 126
-0.060503583 -0.35310909 -0.67298913 221 132 127
-0.052793082 -0.35236609 -0.67326361 212 137 125
-0.054836385 -0.35289118 -0.67317837 220 135 126
-0.054102201 -0.35180935 -0.67319304 215 134 125
-0.054583989 -0.3522265 -0.6731782 218 134 126
-0.053969014 -0.35106674 -0.67318588 213 134 124
-0.054959759 -0.35197446 -0.67315626 219 133 125
-0.056423709 -0.3507542 -0.67302036 218 133 126
-0.056552097 -0.35047206 -0.67300183 218 133 125
-0.056639425 -0.35346279 -0.67310423 227 132 127
-0.05614318 -0.35030976 -0.67302239 217 133 125
-0.055901695 -0.34999406 -0.67302656 215 133 125
-0.056591194 -0.35140598 -0.67303306 221 132 126
-0.049032249 -0.35272184 -0.67351454 222 133 128
-0.050803207 -0.35337222 -0.67340624 221 134 128
-0.049048074 -0.34984183 -0.67350692 201 138 124
-0.049872216 -0.35281801 -0.67346269 220 134 127
-0.050035033 -0.35279155 -0.67345256 219 134 127
-0.050469801 -0.35021788 -0.67340362 204 137 124
-0.049879901 -0.35029209 -0.67345065 203 138 124
-0.052663527 -0.35044718 -0.6732375 207 135 124
-0.050034031 -0.34987456 -0.67343122 202 137 124
-0.052020542 -0.35228062 -0.67332017 211 137 125
-0.049782626 -0.34977123 -0.67344886 202 138 124
-0.046145886 -0.35348734 -0.67373842 209 134 128
-0.045185097 -0.35093251 -0.67380947 226 132 130
-0.047921866 -0.35271162 -0.67359853 229 131 130
-0.047564525 -0.35234651 -0.67362589 230 131 130
-0.045809329 -0.35118186 -0.67376119 228 131 130
-0.04802566 -0.35123473 -0.67358702 220 134 128
-0.048155274 -0.35082677 -0.67357588 215 135 127
-0.046715811 -0.34981048 -0.67368698 222 133 128
-0.047138423 -0.35165927 -0.67365801 231 131 130
-0.04816227 -0.35198995 -0.67357802 224 132 128
-0.045723457 -0.35034522 -0.67376649 235 131 131
-0.042289652 -0.35250834 -0.67412788 197 132 129
-0.04107165 -0.35220563 -0.67425895 194 130 130
-0.042475816 -0.35142866 -0.67414093 202 133 128
-0.042197786 -0.35342193 -0.67411011 192 131 130
-0.043554366 -0.3534503 -0.6739732 196 133 129
-0.042028215 -0.35040945 -0.67420936 206 132 129
-0.042526089 -0.35046872 -0.67414403 210 132 129
-0.041865814 -0.34975907 -0.67422962 211 132 129
-0.041636311 -0.35010624 -0.67426032 206 131 129
-0.04176506 -0.34988329 -0.67424309 209 131 129
-0.044407934 -0.3501097 -0.67389625 228 131 130
-0.040001951 -0.35089299 -0.67449582 186 133 128
-0.040747203 -0.351769 -0.67432845 192 131 130
-0.061025027 -0.35586503 -0.67319107 200 143 128
-0.061268494 -0.35431451 -0.67311257 213 135 127
-0.0606145 -0.35583124 -0.67315239 201 144 128
-0.062171448 -0.3551771 -0.67324847 202 139 126
-0.060896013 -0.35364765 -0.67303234 221 131 127
-0.06404607 -0.35454938 -0.67332715 207 135 127
-0.062567823 -0.35519859 -0.67327863 202 139 126
-0.057758473 -0.35552719 -0.67319793 212 139 128
-0.059678614 -0.35666949 -0.67322379 196 148 129
-0.056923851 -0.3543762 -0.67314935 222 135 127
-0.05728922 -0.3559964 -0.67323434 213 137 128
-0.058087185 -0.35527605 -0.67317688 211 140 128
-0.059876576 -0.35657516 -0.67321306 196 148 129
-0.060020007 -0.35505411 -0.6731109 210 140 128
-0.058579028 -0.35437113 -0.67310709 218 136 128
-0.058378961 -0.35468397 -0.67313284 215 138 128
-0.059687451 -0.35500008 -0.67311674 210 139 128
-0.059509028 -0.35368893 -0.67303711 223 132 127
-0.053180527 -0.35615584 -0.67336202 209 134 128
-0.054356962 -0.35651222 -0.67334837 210 135 128
-0.053378876 -0.35709551 -0.67338789 207 133 129
-0.053131379 -0.35484076 -0.67332095 212 136 127
-0.052792065 -0.35648835 -0.67338091 207 133 129
-0.054912377 -0.35632464 -0.67333061 211 136 127
-0.055315599 -0.35493374 -0.67324835 217 135 127
-0.055372298 -0.35448053 -0.67321986 220 135 127
-0.05386731 -0.35356808 -0.6732375 218 136 126
-0.054953583 -0.35533661 -0.67328811 214 137 127
-0.055358212 -0.35477436 -0.67323726 218 135 127
-0.049595166 -0.35444456 -0.67351151 222 132 129
-0.052494347 -0.35412055 -0.67332113 214 136 127
-0.051864263 -0.35560617 -0.67340779 212 133 129
-0.05112322 -0.3553074 -0.67344415 216 132 129
-0.051138092 -0.35419402 -0.67340755 219 134 128
-0.051238723 -0.35463259 -0.67341536 217 133 128
-0.051143296 -0.35546613 -0.67344797 215 132 129
-0.046929199 -0.35353175 -0.6736778 215 132 128
-0.047185384 -0.35369372 -0.67366332 214 133 128
-0.046938643 -0.35411003 -0.67369664 205 135 127
-0.061413504 -0.35958374 -0.67354274 159 156 122
-0.06100985 -0.36067387 -0.67364162 141 163 113
-0.06218449 -0.36081892 -0.6737268 144 156 119
-0.061477903 -0.35979041 -0.6735698 156 156 121
-0.056715928 -0.35875741 -0.67342305 203 135 126
-0.056998719 -0.35962784 -0.67348963 193 137 123
-0.05773275 -0.35918647 -0.6734758 184 145 120
-0.058486991 -0.36082008 -0.67360598 163 149 116
-0.060145177 -0.36047581 -0.67360044 143 164 112
-0.060071018 -0.3576555 -0.67328501 187 152 128
-0.059232868 -0.35997707 -0.67356312 156 158 114
-0.060439561 -0.35891259 -0.6734187 165 159 121
-0.059825867 -0.35861814 -0.6733982 173 155 122
-0.053614318 -0.35889843 -0.67348707 193 134 128
-0.053586822 -0.3593775 -0.67351383 186 135 128
-0.054290947 -0.36045563 -0.67356819 178 136 126
-0.052908845 -0.36102301 -0.67360979 156 142 128
-0.053528056 -0.36089793 -0.67359829 164 140 127
-0.053714465 -0.35811493 -0.67343909 202 132 128
-0.055955362 -0.35799873 -0.67338341 207 135 127
-0.053851075 -0.35815164 -0.67343873 203 132 128
-0.055167053 -0.35927278 -0.67348826 199 132 126
-0.055750828 -0.35763517 -0.67336261 209 135 128
-0.060913973 -0.36445528 -0.67403579 146 153 119
-0.061136801 -0.36271665 -0.67388934 130 163 111
-0.060560003 -0.36334014 -0.67388725 142 159 115
-0.06176661 -0.36167121 -0.67381084 131 162 113
-0.059987426 -0.36498648 -0.67403239 160 145 122
-0.060023502 -0.36260638 -0.67380172 145 158 114
-0.059915617 -0.36314464 -0.67385221 151 153 117
-0.059896581 -0.36169639 -0.67370945 140 161 111
-0.060511094 -0.36289641 -0.67384136 139 161 113
-0.059549734 -0.36304629 -0.6738342 156 150 117
-0.05309096 -0.32913175 -0.67636013 201 134 124
-0.054132573 -0.329521 -0.67620403 190 138 124
-0.051137827 -0.32989982 -0.67628348 218 134 126
-0.051562753 -0.32829645 -0.67676109 201 130 124
-0.051738482 -0.32785073 -0.67688805 196 129 124
-0.04956542 -0.32952264 -0.6765663 219 133 127
-0.051693339 -0.32801506 -0.67683923 198 130 124
-0.052631326 -0.3287833 -0.67649394 204 131 125
-0.051130466 -0.32759237 -0.67702901 194 129 124
-0.050296009 -0.32721731 -0.67720371 181 130 120
-0.048887298 -0.3291592 -0.67673051 210 134 125
-0.048933312 -0.32956073 -0.67660731 217 134 126
-0.04575175 -0.32776579 -0.67756319 191 131 124
-0.045625623 -0.32879731 -0.67730248 203 130 125
-0.04628766 -0.32912928 -0.67711025 209 131 126
-0.046672303 -0.32990962 -0.67683893 218 131 126
-0.04555469 -0.32844681 -0.67740858 199 131 124
-0.045520149 -0.32990816 -0.67701691 215 129 125
-0.048820093 -0.32851726 -0.67692751 197 134 121
-0.043001436 -0.32949215 -0.67744964 207 129 124
-0.041546345 -0.32922196 -0.67769367 203 129 122
-0.04281443 -0.32982251 -0.67737824 213 128 124
-0.042519204 -0.32967699 -0.67745328 210 129 123
-0.044900954 -0.32831654 -0.67754412 195 130 123
-0.043418042 -0.32771787 -0.67789239 181 130 121
-0.043844614 -0.3274681 -0.67790681 180 130 122
-0.044410534 -0.32809436 -0.67766583 190 129 123
-0.044762235 -0.32985169 -0.67714447 213 128 125
-0.039341055 -0.32923067 -0.67797911 203 127 122
-0.03966232 -0.32887077 -0.67803347 196 126 122
-0.039170422 -0.32865754 -0.67816025 192 125 121
-0.037740737 -0.32869002 -0.67834967 194 125 122
-0.039550409 -0.3299095 -0.67776364 216 128 125
-0.0402923 -0.32861671 -0.67802078 192 127 121
-0.039672129 -0.32854202 -0.67812371 189 126 121
-0.049623247 -0.33012778 -0.67636746 224 135 128
-0.048932124 -0.33102965 -0.67621166 223 134 127
-0.045721479 -0.33172336 -0.67651266 215 132 125
-0.047896273 -0.33116242 -0.67633045 220 133 126
-0.046982784 -0.33169368 -0.67632979 218 133 126
-0.045117803 -0.33152747 -0.67665499 214 131 125
-0.045530908 -0.33185008 -0.67650837 214 132 125
-0.048050698 -0.33072707 -0.67641795 222 133 127
-0.047862478 -0.33085179 -0.67641574 221 133 127
-0.043586385 -0.33374918 -0.67632663 212 133 126
-0.044460762 -0.33261111 -0.67647809 212 132 125
-0.04407195 -0.33265299 -0.67653149 213 132 125
-0.043739967 -0.33341029 -0.6763888 212 133 126
-0.043635208 -0.33345628 -0.6763941 212 133 126
-0.044539079 -0.33286002 -0.67640013 212 132 125
-0.041419555 -0.33229768 -0.67699915 217 129 127
-0.042900514 -0.3310411 -0.67709321 217 129 126
-0.041610468 -0.33301666 -0.6768254 217 129 128
-0.041866772 -0.33047059 -0.67733294 218 129 125
-0.043086085 -0.33062747 -0.67715907 217 129 125
-0.042326432 -0.33036122 -0.67730296 218 129 125
-0.037871428 -0.33201915 -0.67748457 217 130 129
-0.039191548 -0.33334643 -0.67702109 216 131 130
-0.039036218 -0.33233452 -0.67729694 218 129 129
-0.039415196 -0.33275878 -0.67715263 218 130 129
-0.037697613 -0.33342576 -0.67713672 213 134 130
-0.038820032 -0.33176669 -0.67746234 219 129 128
-0.040098455 -0.33084667 -0.67747915 219 128 126
-0.040829554 -0.33226568 -0.67707837 217 129 127
-0.039892115 -0.3318257 -0.67730123 218 129 127
-0.040747199 -0.3307786 -0.67740351 218 129 125
-0.034968771 -0.33196598 -0.67786008 203 130 123
-0.035075244 -0.33300179 -0.67758369 206 133 126
-0.034417454 -0.33258125 -0.67778355 204 132 124
-0.036371354 -0.33346248 -0.67728269 209 135 129
-0.034793857 -0.33218747 -0.67782915 203 131 123
-0.037078466 -0.33156583 -0.67767543 217 131 128
-0.036068689 -0.33102861 -0.67795187 212 129 125
-0.036766194 -0.33163127 -0.677701 215 131 127
-0.031536233 -0.33394057 -0.67785996 200 135 126
-0.042534139 -0.33475333 -0.67629457 211 132 128
-0.043208286 -0.33399916 -0.67632687 212 133 127
-0.043927949 -0.3340371 -0.6762014 211 134 126
-0.039243106 -0.33743748 -0.67627561 208 132 128
-0.039544661 -0.3362644 -0.67645669 211 131 128
-0.039854024 -0.3352662 -0.67660415 214 130 129
-0.039790399 -0.33552322 -0.67656404 214 131 128
-0.040720157 -0.33530587 -0.67647934 212 131 129
-0.039252784 -0.33523846 -0.67666829 214 131 129
-0.037344519 -0.33619207 -0.67670351 211 134 128
-0.039318297 -0.33502337 -0.67669356 214 131 129
-0.03741521 -0.33418599 -0.67698872 211 136 131
-0.038730208 -0.33598021 -0.67660809 213 131 128
-0.038161606 -0.3362464 -0.6766212 212 132 127
-0.033335693 -0.33418083 -0.67755455 206 135 126
-0.033819616 -0.33549574 -0.67728269 208 135 126
-0.033804916 -0.33643991 -0.67713404 209 135 125
-0.033816166 -0.33662763 -0.67710268 210 135 125
-0.033880342 -0.33596036 -0.67720085 208 135 125
-0.034798495 -0.33537051 -0.67717391 207 135 126
-0.036551137 -0.33692908 -0.67669743 210 134 126
-0.036567468 -0.33721834 -0.67665303 210 133 126
-0.036597438 -0.33456472 -0.67703456 210 136 130
-0.036740385 -0.33410949 -0.67708033 210 136 131
-0.029849702 -0.33558592 -0.67780846 200 134 126
-0.030870227 -0.33683422 -0.67745209 205 134 125
-0.029612774 -0.33541909 -0.67786777 199 134 126
-0.030906163 -0.33600089 -0.67760682 203 135 125
-0.032619853 -0.33739394 -0.67714244 210 135 125
-0.031484183 -0.33541957 -0.67762709 204 135 126
-0.03287708 -0.33680022 -0.67720193 210 135 125
-0.032140747 -0.33450252 -0.67767668 204 135 126
-0.030933265 -0.33467233 -0.67782736 201 135 126
-0.032114256 -0.33554408 -0.67751449 206 135 126
-0.027227191 -0.33750546 -0.67789471 203 135 124
-0.037208077 -0.33868718 -0.67635113 213 132 126
-0.037327047 -0.33896378 -0.67629564 215 131 127
-0.035091925 -0.34095496 -0.67624342 224 132 128
-0.034154318 -0.34104592 -0.67632461 225 132 128
-0.036848981 -0.34000641 -0.6762023 219 131 127
-0.036649354 -0.33881271 -0.67639267 215 133 126
-0.035922036 -0.33862087 -0.67650598 214 133 126
-0.035052698 -0.33894536 -0.67656225 216 133 126
-0.03533484 -0.33882922 -0.6765458 216 133 126
-0.034702297 -0.34027627 -0.67637998 222 132 127
-0.033550169 -0.34036073 -0.67651361 222 133 127
-0.032296538 -0.34094605 -0.67656326 223 132 127
-0.029397823 -0.34018171 -0.67702454 195 136 129
-0.030983921 -0.34072962 -0.67674971 209 134 128
-0.031274855 -0.34029055 -0.6767928 214 133 127
-0.031711832 -0.34161726 -0.67651331 214 134 129
-0.033194542 -0.33991361 -0.67663562 221 134 126
-0.031686004 -0.33881101 -0.67699885 212 134 126
-0.032221176 -0.340139 -0.67670995 219 133 126
-0.032777987 -0.33805785 -0.67700082 212 135 125
-0.032898717 -0.34082559 -0.67651415 224 133 127
-0.032875225 -0.3387101 -0.67687815 215 134 126
-0.027958754 -0.3411389 -0.67713785 191 140 130
-0.028622523 -0.3379623 -0.6775493 203 134 125
-0.027472612 -0.3389467 -0.677598 201 136 127
-0.027357496 -0.33789253 -0.67780268 205 135 125
-0.028331932 -0.34015113 -0.67722535 195 137 129
-0.027968831 -0.3379721 -0.67767227 204 134 125
-0.033489496 -0.34228942 -0.67621642 224 134 128
-0.032075681 -0.34394675 -0.67619383 200 137 126
-0.031875663 -0.34333432 -0.67630905 205 135 125
-0.032380503 -0.34212375 -0.67637527 219 133 128
-0.029951271 -0.34246305 -0.6766187 191 137 129
-0.027013199 -0.34233478 -0.67718279 184 143 126
-0.027816946 -0.34269097 -0.67698091 182 141 126
-0.027422644 -0.34240031 -0.67709094 184 142 126
-0.027531583 -0.34181327 -0.67712373 187 143 128
0 0 0 1 0 0 0 1 0 0 0 1 0 0 0 0 0 669 1 0 0
