ply
format ascii 1.0
comment PCL generated
element vertex 796
property float x
property float y
property float z
property uchar red
property uchar green
property uchar blue
element camera 1
property float view_px
property float view_py
property float view_pz
property float x_axisx
property float x_axisy
property float x_axisz
property float y_axisx
property float y_axisy
property float y_axisz
property float z_axisx
property float z_axisy
property float z_axisz
property float focal
property float scalex
property float scaley
property float centerx
property float centery
property int viewportx
property int viewporty
property float k1
property float k2
end_header
0.10391701 0.60991216 -0.87918514 109 140 124
0.11264835 0.64390653 -0.8973425 130 140 126
0.11275192 0.64398742 -0.8977133 130 140 126
0.11265142 0.64394569 -0.89735222 130 140 126
0.11287575 0.63920885 -0.89816988 137 141 126
0.11304754 0.6398468 -0.89878911 140 141 127
0.11269894 0.63945717 -0.89754486 134 142 126
0.11231975 0.64113837 -0.8962028 129 141 126
0.11248223 0.64162207 -0.89678836 131 141 126
0.11292996 0.64223814 -0.89840263 136 140 126
0.11274798 0.64181185 -0.89774668 133 141 126
0.11281175 0.6371547 -0.89812809 138 141 126
0.11234404 0.63582015 -0.89627701 134 141 125
0.11268447 0.63670611 -0.89765579 138 141 126
0.11286805 0.63687289 -0.89851373 139 141 126
0.1127485 0.635795 -0.89831173 138 142 125
0.11204343 0.63553941 -0.89511317 129 142 125
0.11213081 0.6361658 -0.89544189 129 142 125
0.11221611 0.63618493 -0.89574564 131 142 125
0.11239096 0.63658428 -0.8963787 133 142 125
0.11265522 0.63727415 -0.89733803 137 142 126
0.11215357 0.63099599 -0.89566672 135 142 127
0.11282591 0.63124394 -0.89828545 136 143 127
0.11244442 0.63263565 -0.89711851 136 142 126
0.11249179 0.63178337 -0.89712197 136 142 127
0.11279521 0.63342953 -0.89862323 137 142 125
0.11224196 0.63442922 -0.89616668 133 142 125
0.11224809 0.63270813 -0.89626348 135 142 126
0.11199089 0.63298488 -0.89496493 132 142 125
0.11208373 0.63251442 -0.89544791 134 141 127
0.11213281 0.63240594 -0.89569789 134 142 126
0.11202023 0.62724179 -0.89544439 138 143 126
0.11207923 0.62733471 -0.89568251 138 143 126
0.11292043 0.62976396 -0.89879996 138 143 127
0.11214461 0.62703156 -0.89604884 139 143 126
0.11279554 0.62932587 -0.89835662 138 143 127
0.11219462 0.63033664 -0.89583576 135 142 127
0.11200179 0.62871712 -0.89522618 136 143 126
0.11246444 0.63072079 -0.89683598 135 143 127
0.11221251 0.63077736 -0.89586961 135 142 127
0.11248598 0.62984127 -0.89698696 137 143 126
0.11261561 0.6236459 -0.89832896 140 141 130
0.11202897 0.62323064 -0.89623588 127 142 129
0.11221539 0.62479264 -0.89688265 131 142 128
0.11219841 0.62377411 -0.89683497 131 142 129
0.11267062 0.62515163 -0.89850634 141 142 129
0.1125414 0.62464315 -0.89805067 139 141 130
0.11188718 0.62643343 -0.89505994 135 143 126
0.1125384 0.62625128 -0.89799374 139 142 128
0.11201765 0.62517357 -0.89596021 131 143 127
0.11188553 0.62564564 -0.89525384 132 143 126
0.11222342 0.62513423 -0.89688253 132 143 128
0.11228308 0.62085414 -0.89671904 134 142 130
0.11258765 0.61960405 -0.89868844 129 143 130
0.11208186 0.61919022 -0.8959794 128 143 130
0.11216987 0.61993617 -0.89629883 131 143 131
0.11243568 0.61955041 -0.89785856 129 143 130
0.11234729 0.62130606 -0.89701337 136 142 131
0.11213505 0.62287766 -0.89658237 130 142 130
0.11209663 0.62269032 -0.89640576 129 142 130
0.11188281 0.6227141 -0.89564592 124 143 129
0.11249831 0.622612 -0.89782619 138 141 131
0.11210368 0.62038714 -0.89595008 132 142 131
0.11259536 0.61762077 -0.89836556 128 142 129
0.11256929 0.61824244 -0.89845312 127 143 130
0.11275441 0.61569637 -0.89840657 130 142 128
0.11210265 0.61595422 -0.89589083 123 141 129
0.11265008 0.61587059 -0.89804476 129 142 129
0.1125808 0.61822104 -0.89849234 127 143 130
0.11208769 0.61701161 -0.89594436 125 142 130
0.11190126 0.61739469 -0.89492553 126 142 130
0.11236772 0.61810213 -0.89753604 126 143 129
0.11210454 0.6171754 -0.89604378 125 142 130
0.11220114 0.61742294 -0.89658809 125 142 130
0.11191612 0.61755568 -0.89501381 126 142 130
0.11301319 0.61278743 -0.89810348 135 141 130
0.11294297 0.61347353 -0.89813584 134 142 129
0.11280677 0.61335886 -0.89745378 135 142 129
0.11299577 0.61372936 -0.89850914 133 142 129
0.1129164 0.61359137 -0.89807504 134 142 129
0.11287375 0.61416882 -0.89817744 133 142 129
0.11235812 0.6151731 -0.89665115 126 141 129
0.11243369 0.61331302 -0.89587694 134 141 130
0.11266939 0.61521226 -0.89791316 130 141 129
0.11246854 0.6144914 -0.89669681 130 142 129
0.11311956 0.61022288 -0.89773774 137 141 131
0.11318046 0.6113261 -0.89811647 136 142 130
0.11624123 0.64727914 -0.91139424 127 141 126
0.1159784 0.64670473 -0.91434622 95 139 127
0.11610068 0.64690542 -0.91288394 111 140 126
0.11626652 0.64821237 -0.91105968 129 141 126
0.11629808 0.64956278 -0.91127336 125 141 126
0.11627523 0.64859688 -0.9105888 133 141 126
0.11626966 0.64835531 -0.91069221 132 141 126
0.11624814 0.64742059 -0.9111852 129 141 126
0.11495678 0.64347535 -0.91396749 97 141 126
0.1152105 0.64331913 -0.91308618 112 141 128
0.11525247 0.64407945 -0.9137184 102 141 127
0.11580758 0.64395279 -0.91224426 124 139 129
0.11581572 0.64406931 -0.91234213 123 139 129
0.11610384 0.64592934 -0.91169715 126 141 127
0.11615708 0.64637285 -0.9114064 128 141 127
0.11598814 0.6461466 -0.91356128 105 140 128
0.11604565 0.64619619 -0.91279912 113 140 128
0.11611801 0.64604616 -0.91161841 127 141 127
0.11472055 0.64041555 -0.91424376 93 144 122
0.11475825 0.64072812 -0.91406643 96 143 122
0.11500399 0.6388644 -0.91363519 100 145 121
0.11501151 0.64029509 -0.91340661 106 143 123
0.11556194 0.63969326 -0.91147065 113 143 125
0.11536718 0.63891333 -0.91231018 110 145 122
0.11527352 0.63881922 -0.91267425 109 146 122
0.1157679 0.63908046 -0.91078568 110 143 125
0.11578098 0.63925695 -0.91074443 112 142 126
0.11574544 0.6406467 -0.91091281 123 141 127
0.11473154 0.63543987 -0.91438222 80 143 122
0.11509746 0.63865745 -0.91332823 104 146 121
0.11523312 0.63812566 -0.91269815 105 146 122
0.11512424 0.63567752 -0.91257215 86 143 123
0.1149891 0.63510704 -0.91309005 81 142 123
0.115099 0.63571906 -0.91270936 87 142 123
0.11527847 0.6371184 -0.91222405 100 144 123
0.1154654 0.63650495 -0.91128635 99 142 125
0.11570971 0.63842374 -0.91098219 108 143 124
0.11572018 0.638592 -0.91099656 109 143 124
0.11534505 0.6341778 -0.9110418 90 141 126
0.1114586 0.62658525 -0.91298139 65 136 119
0.11208256 0.6253913 -0.91345263 71 138 119
0.11299582 0.62615293 -0.91195607 81 140 122
0.11245866 0.62473738 -0.9136706 75 138 120
0.1128621 0.62534827 -0.91278166 79 139 121
0.11214333 0.62573361 -0.91306609 72 138 120
0.11296479 0.62492055 -0.91306955 80 139 122
0.11388912 0.62420851 -0.91156042 92 142 124
0.11351293 0.62479877 -0.91269994 86 141 123
0.11396939 0.62406307 -0.91132671 94 142 124
0.11393239 0.62339854 -0.91178852 93 141 124
0.11378623 0.62425935 -0.91192567 90 142 123
0.11320732 0.62242019 -0.91413122 77 138 122
0.11410863 0.62274027 -0.91136956 96 141 124
0.11421134 0.62212443 -0.91113806 96 141 124
0.11346833 0.62294769 -0.91374224 86 139 122
0.1081011 0.6353206 -0.88637203 117 141 124
0.10762312 0.63566214 -0.88540727 115 141 124
0.10794517 0.63497263 -0.88600546 118 141 124
0.10730623 0.63404167 -0.88469291 116 141 123
0.10714112 0.63187659 -0.88429695 116 140 123
0.10734279 0.6311878 -0.88441712 118 139 123
0.10721537 0.63368487 -0.88456607 116 141 123
0.10779655 0.63152176 -0.88532072 119 140 124
0.10854262 0.63291711 -0.88704687 121 142 123
0.10842133 0.63362926 -0.88686305 120 142 124
0.10832849 0.6326465 -0.88656479 120 142 124
0.10759003 0.63225347 -0.8849628 118 140 124
0.10760761 0.63294679 -0.88507521 118 140 124
0.10752631 0.63211626 -0.88481402 118 140 124
0.10796419 0.63408518 -0.88594788 119 141 124
0.10701937 0.62988895 -0.88396388 115 139 123
0.10714738 0.62793267 -0.88392323 115 139 124
0.10857216 0.62714803 -0.88662815 122 140 126
0.10830357 0.6291346 -0.8861863 120 142 124
0.10766764 0.62732619 -0.88467693 118 139 125
0.10821656 0.62701046 -0.88584626 120 140 126
0.10795435 0.62995732 -0.88550824 120 141 124
0.10808366 0.63072056 -0.88584912 120 141 124
0.10846944 0.63047653 -0.88664603 121 143 124
0.10756834 0.62980783 -0.88467658 118 140 124
0.10725036 0.62442195 -0.88378108 120 140 125
0.1069056 0.62586707 -0.8835125 115 139 125
0.10715459 0.62388545 -0.8836509 120 140 125
0.10852409 0.62436938 -0.88645697 125 141 126
0.10818073 0.62308866 -0.88565016 126 141 125
0.10807806 0.62362319 -0.88541108 125 141 125
0.108348 0.6256004 -0.88604766 123 141 125
0.10844758 0.62505156 -0.88627946 124 141 126
0.10759206 0.62451762 -0.88433474 122 140 126
0.10827148 0.62594599 -0.88589877 123 140 126
0.10788066 0.62442261 -0.88495547 124 140 126
0.10839454 0.62673461 -0.88621503 121 140 126
0.10796858 0.62595105 -0.88524139 121 140 126
0.10686524 0.62284607 -0.88333642 120 140 125
0.10728373 0.62029552 -0.88403165 130 141 127
0.1072522 0.6195339 -0.88407791 131 141 127
0.1072126 0.61981368 -0.88400835 130 141 127
0.10801733 0.6192745 -0.88549918 133 142 128
0.10798178 0.61946589 -0.88542831 133 142 128
0.10780998 0.61918437 -0.88507956 133 142 127
0.10844932 0.62035656 -0.88637805 131 142 128
0.10801937 0.62078971 -0.88551116 131 141 127
0.10770367 0.62045103 -0.88481313 131 141 127
0.10774355 0.62201458 -0.88473797 127 141 126
0.10783296 0.62123716 -0.88503104 129 141 126
0.10861015 0.62254924 -0.88670886 128 142 126
0.1075068 0.62224394 -0.88415903 126 141 125
0.10729847 0.61899531 -0.88415378 133 140 127
0.10673314 0.61833817 -0.88350821 129 141 127
0.10681926 0.61566037 -0.88336909 133 142 127
0.10792886 0.61532861 -0.88504958 137 143 128
0.10814374 0.61696935 -0.88558334 135 144 128
0.10827763 0.6162014 -0.8858313 136 143 128
0.1086235 0.61559153 -0.88653672 136 143 128
0.10797803 0.61628169 -0.88519901 136 143 128
0.1082219 0.61890298 -0.88589215 133 143 128
0.10780744 0.61877447 -0.88504362 134 142 128
0.10760658 0.61690766 -0.88448179 135 142 128
0.10757312 0.61804605 -0.88450909 135 142 128
0.1067609 0.61493826 -0.88321656 133 142 127
0.10718025 0.6131134 -0.88332653 139 140 129
0.10808059 0.61168432 -0.88489264 138 141 130
0.10880653 0.61412591 -0.88681376 136 142 129
0.10887744 0.61271328 -0.88690704 133 144 129
0.10803736 0.61181515 -0.88479406 138 141 129
0.10755759 0.61419964 -0.88406807 139 141 128
0.10856062 0.61488688 -0.88632298 136 143 129
0.10823996 0.60931814 -0.88520497 131 144 128
0.1083933 0.60845232 -0.88527203 134 143 128
0.1091479 0.60949367 -0.88693696 135 142 129
0.10763159 0.60761791 -0.88364595 132 144 128
0.10768312 0.61017501 -0.88388234 137 141 129
0.10773358 0.6097964 -0.88400149 136 142 129
0.10748055 0.60758585 -0.8833527 131 144 128
0.10830141 0.61131281 -0.885414 136 142 129
0.10803988 0.60455561 -0.88373196 129 142 128
0.10813464 0.60567719 -0.88415217 131 142 128
0.10857964 0.60698348 -0.88526356 136 142 128
0.10861956 0.60721004 -0.88538712 137 141 128
0.1088801 0.60633057 -0.88568008 136 140 128
0.10794888 0.60620481 -0.88392162 132 143 128
0.10885772 0.6050002 -0.88536066 134 141 129
0.10850718 0.60497147 -0.88469177 132 141 129
0.1088564 0.60426819 -0.8852089 133 141 129
0.10916669 0.60137403 -0.885557 130 142 128
0.10970282 0.60171282 -0.88669729 129 141 129
0.10951386 0.60233074 -0.88625211 133 141 129
0.10949335 0.60058588 -0.88631016 125 142 128
0.10952736 0.60201138 -0.88630009 131 141 129
0.10937893 0.60180175 -0.88599116 131 142 129
0.10876551 0.60265201 -0.88481927 131 142 129
0.10936591 0.60302424 -0.88598269 134 141 129
0.10848679 0.60343993 -0.88435078 130 142 129
0.10909005 0.6033265 -0.88548344 133 141 129
0.10917 0.60285598 -0.88559955 133 141 129
0.10914921 0.60338205 -0.88559949 133 141 129
0.10959657 0.59873784 -0.88651264 119 142 126
0.10931046 0.59830225 -0.88584268 119 142 126
0.10833056 0.59916621 -0.88380712 125 142 127
0.10908994 0.59891027 -0.88542485 120 142 126
0.11419733 0.64380068 -0.90215182 136 140 127
0.11382074 0.64261848 -0.90086013 140 140 127
0.11394467 0.64496833 -0.90179342 130 140 128
0.11413006 0.64505535 -0.90230107 130 140 128
0.11370081 0.64262259 -0.90054744 139 141 126
0.11316787 0.64377564 -0.89922535 133 140 126
0.1131895 0.64391536 -0.89929956 132 141 127
0.11323445 0.64433753 -0.89944947 130 141 126
0.11421224 0.64057642 -0.9026199 142 142 126
0.11354501 0.63991368 -0.9001233 142 141 127
0.11385158 0.63919926 -0.90194935 141 142 126
0.11412431 0.63986409 -0.90270734 141 142 126
0.11354829 0.63923526 -0.9005897 142 142 126
0.11407119 0.63947499 -0.90273261 141 142 126
0.1132872 0.64144546 -0.89944243 139 141 126
0.11316288 0.64132351 -0.89911598 139 141 126
0.11344889 0.64199752 -0.89987099 139 141 126
0.1132474 0.64005017 -0.8993243 141 140 127
0.11366392 0.64079463 -0.90042144 141 141 126
0.11379523 0.63519853 -0.90237004 139 141 129
0.11331309 0.63599664 -0.90064335 139 142 126
0.11319008 0.63584399 -0.90022099 138 141 126
0.11368432 0.63565272 -0.901959 139 141 128
0.11366545 0.63686961 -0.90183097 140 141 126
0.1129318 0.63502884 -0.89935941 138 141 126
0.1137668 0.63838732 -0.90201938 141 142 127
0.11301997 0.63605142 -0.89948642 139 141 125
0.11331548 0.63768643 -0.90025872 141 141 126
0.11305576 0.63706368 -0.89931655 140 141 126
0.11314999 0.63647175 -0.89992303 139 141 126
0.11335815 0.63212788 -0.90039468 137 143 127
0.11363111 0.63126898 -0.90139705 138 144 128
0.11382983 0.63358432 -0.90238214 139 142 129
0.11383338 0.63370621 -0.90240669 139 142 129
0.11383346 0.63233489 -0.90228796 139 143 129
0.11357095 0.63212508 -0.90123397 138 143 128
0.1133018 0.63456506 -0.90062833 138 141 127
0.11300618 0.63103527 -0.89892173 137 143 126
0.11318523 0.63470709 -0.90024781 138 141 127
0.1136776 0.63409704 -0.90185326 139 140 129
0.11335262 0.63425744 -0.90074736 138 141 127
0.11312621 0.6337294 -0.89985508 138 142 126
0.11397219 0.63081956 -0.90272212 139 145 129
0.1134605 0.62722361 -0.90218657 143 140 128
0.11383046 0.63023913 -0.90233606 140 144 129
0.11373615 0.62888062 -0.90263528 141 143 129
0.11378664 0.62985259 -0.90233511 140 144 129
0.11329276 0.62756693 -0.90114045 143 142 128
0.11302914 0.62971938 -0.89924198 139 143 127
0.11293852 0.62862372 -0.89913005 141 143 128
0.11323062 0.63001281 -0.89997107 139 143 128
0.11310866 0.62895924 -0.89972615 141 143 128
0.11309125 0.6296621 -0.89949983 139 143 127
0.11344836 0.62496918 -0.90203714 139 140 129
0.11345502 0.62440628 -0.90197307 137 141 129
0.11347667 0.62475729 -0.90212047 138 140 129
0.11349141 0.62421399 -0.90209323 136 141 129
0.11328209 0.62361401 -0.90112376 137 140 130
0.11331601 0.62528354 -0.9015373 141 140 129
0.11292412 0.62400389 -0.89967763 143 140 130
0.11283923 0.6262297 -0.89920712 144 141 129
0.11327545 0.62604249 -0.90142041 143 140 129
0.11322813 0.62649775 -0.9011724 143 141 129
0.11279608 0.6259504 -0.89899355 144 141 129
0.11342252 0.62184137 -0.90188968 128 142 129
0.11349041 0.62149036 -0.9023965 126 142 129
0.1133109 0.62046272 -0.90193111 124 143 129
0.11355658 0.62230748 -0.90237206 129 142 130
0.11309896 0.61997783 -0.90105587 125 143 129
0.11338269 0.62122619 -0.90195954 126 142 129
0.1132458 0.62287754 -0.90090883 135 141 130
0.11281785 0.62208158 -0.89926171 138 141 131
0.11274265 0.62191099 -0.89897752 138 142 131
0.11318544 0.62268829 -0.9006896 135 141 130
0.11274038 0.62138867 -0.89905649 135 142 130
0.11319584 0.62177473 -0.90088773 131 142 130
0.11309071 0.61657548 -0.90029562 127 142 128
0.1135327 0.61536872 -0.90102172 132 142 128
0.11365394 0.61542791 -0.90145999 132 142 128
0.1135601 0.61653978 -0.90183014 128 143 128
0.11359639 0.61668879 -0.90204173 128 142 128
0.11307964 0.6163094 -0.90009588 128 143 128
0.1128796 0.61904013 -0.90025949 124 144 129
0.11287118 0.61693615 -0.89937812 129 143 129
0.11328761 0.61886096 -0.90229064 121 143 128
0.11272008 0.61812985 -0.89907497 128 143 130
0.11286891 0.61888421 -0.90014231 125 143 129
0.11409532 0.61379468 -0.9020645 135 141 129
0.11372989 0.61199772 -0.90019953 136 141 130
0.11450639 0.61195672 -0.90221715 140 139 131
0.11380887 0.61274415 -0.90078306 135 141 130
0.11386964 0.61155355 -0.90034252 137 140 130
0.11440332 0.61290705 -0.90242559 138 140 130
0.11361063 0.61386603 -0.90068656 134 141 130
0.11333137 0.61408448 -0.89984226 133 142 129
0.11338991 0.61206812 -0.89928323 135 141 130
0.11352544 0.61501992 -0.90083516 133 142 128
0.11357074 0.61445141 -0.90077299 133 142 129
0.11468817 0.61107033 -0.90226817 143 138 131
0.11352108 0.61125952 -0.89928484 136 141 131
0.11389409 0.61094195 -0.90012932 139 140 131
0.11455636 0.61102515 -0.90190303 142 138 131
0.10987689 0.63943362 -0.88996649 124 141 125
0.11040369 0.64089584 -0.89086831 127 141 125
0.11046299 0.64120901 -0.89096534 128 140 126
0.1103655 0.64029884 -0.89081758 128 141 125
0.10959872 0.63491875 -0.88904047 125 141 124
0.10904595 0.63582867 -0.8882212 123 141 124
0.10987452 0.63532948 -0.88956928 126 142 124
0.10971504 0.63626182 -0.88942587 126 141 124
0.11036447 0.63797486 -0.89077461 130 142 124
0.11013535 0.63652086 -0.89018083 128 142 124
0.11001902 0.63805717 -0.890185 128 141 124
0.10864336 0.63692713 -0.88760704 117 141 124
0.10960401 0.63847297 -0.88948029 122 142 124
0.10963143 0.63775623 -0.88946038 125 141 124
0.10967871 0.63087636 -0.88908362 124 143 124
0.11022396 0.63118201 -0.89013773 126 143 125
0.10958645 0.63213348 -0.88883752 125 143 124
0.10956215 0.63188559 -0.88880265 125 143 124
0.11009081 0.63257658 -0.8898043 126 143 124
0.10977624 0.63124174 -0.88925612 124 143 124
0.10905391 0.63369495 -0.88799816 123 142 124
0.10967172 0.63347435 -0.88903672 126 142 124
0.1087049 0.63123006 -0.88719612 122 143 124
0.10947762 0.63253593 -0.88862658 125 143 124
0.10902164 0.63174427 -0.88778067 123 143 123
0.10873487 0.6320979 -0.88731956 122 143 124
0.1087946 0.6328178 -0.88748169 122 143 124
0.10891072 0.62696117 -0.88735813 123 141 126
0.10927759 0.62728459 -0.88816124 123 141 126
0.11048879 0.63014382 -0.89067715 125 143 125
0.1094625 0.62822074 -0.88850754 123 142 126
0.11000907 0.62918854 -0.88966721 125 142 125
0.10997821 0.62923479 -0.88959414 125 142 125
0.1098964 0.63034523 -0.88947862 124 143 124
0.10888045 0.63041633 -0.88748956 122 143 124
0.10894485 0.62775564 -0.88744479 122 141 125
0.10880893 0.62787348 -0.88718569 122 141 125
0.10944364 0.62849259 -0.88847107 123 142 126
0.10920169 0.62888688 -0.88802159 123 142 125
0.11064225 0.62524199 -0.89092028 132 144 126
0.11057006 0.62362772 -0.89050162 138 144 127
0.1103726 0.62529504 -0.89042723 130 143 125
0.10918778 0.62367272 -0.88793415 128 142 126
0.10989634 0.6238988 -0.88929409 132 143 126
0.1090455 0.62355912 -0.88764906 127 142 125
0.10936881 0.62437928 -0.88838613 126 142 126
0.10922547 0.62542892 -0.88806522 124 142 125
0.1088018 0.62651926 -0.88711208 123 141 126
0.10955153 0.6267516 -0.88880384 124 142 125
0.10910922 0.62590635 -0.88780409 124 141 126
0.10918686 0.62510425 -0.88797742 125 142 125
0.10982838 0.62069196 -0.88916206 135 144 128
0.10996136 0.61975193 -0.88993818 132 143 129
0.11059611 0.62160271 -0.89083266 137 144 128
0.11005162 0.61951566 -0.8902868 130 144 129
0.10999028 0.62011427 -0.88985568 133 144 129
0.10960998 0.62001956 -0.88887012 134 144 128
0.10889325 0.61936986 -0.8872577 133 145 128
0.10907318 0.62065232 -0.88759911 132 144 128
0.11005431 0.62236828 -0.88943529 137 143 127
0.10887326 0.62289584 -0.88723725 128 142 126
0.10941335 0.62060934 -0.88823265 135 144 128
0.11039425 0.62214535 -0.89006758 140 144 127
0.10972626 0.61611128 -0.88911021 131 143 128
0.11001443 0.61801922 -0.89020675 130 143 129
0.11001845 0.6169368 -0.88994664 129 144 129
0.11012804 0.61859852 -0.89059609 129 143 130
0.10925391 0.61596423 -0.88805294 134 143 129
0.10930939 0.61536509 -0.88802403 134 143 129
0.10953832 0.61824971 -0.8890124 131 143 129
0.10898924 0.61844778 -0.88754076 132 144 129
0.10947408 0.61825818 -0.8888393 131 144 129
0.10903294 0.6157344 -0.88749558 136 142 129
0.109023 0.61618316 -0.88749576 135 143 129
0.10931987 0.61191595 -0.8878336 131 144 128
0.11061411 0.61153197 -0.89032626 135 142 127
0.1103938 0.6136117 -0.89017576 128 144 128
0.11020061 0.61330658 -0.88975441 128 144 127
0.10985522 0.61279267 -0.88900542 129 144 128
0.11047807 0.61399788 -0.89039391 127 144 128
0.10896795 0.61360395 -0.88717157 134 144 129
0.10951309 0.6127035 -0.88830429 129 144 128
0.11005376 0.61482775 -0.88957959 128 144 128
0.10965508 0.6140123 -0.88867706 129 144 128
0.11026323 0.61523068 -0.89005256 127 144 128
0.10955974 0.6148597 -0.88851362 131 144 128
0.11077191 0.6107316 -0.89044225 137 141 127
0.10936586 0.60969657 -0.88740963 136 142 128
0.10914914 0.61040062 -0.88717103 134 143 128
0.10923092 0.61100352 -0.88749236 132 144 128
0.1103351 0.61076701 -0.88960052 136 142 128
0.10945957 0.60954106 -0.8875525 137 141 129
0.10994057 0.60101253 -0.88720489 126 142 128
0.11066324 0.60049325 -0.88826758 133 140 128
0.11086164 0.60054773 -0.88855159 135 141 128
0.11029103 0.60054338 -0.88772875 128 141 127
0.11052032 0.5992201 -0.88813931 126 141 126
0.11063299 0.59872323 -0.88835722 127 141 127
0.11044325 0.59899724 -0.888053 125 141 126
0.11057787 0.59734821 -0.88837636 126 141 126
0.1100224 0.59865224 -0.88740426 121 141 126
0.11518295 0.6434353 -0.90495121 137 141 127
0.11492924 0.64386851 -0.90439177 135 141 127
0.11502779 0.64386147 -0.90461552 135 141 127
0.11434395 0.64538062 -0.90300143 129 140 128
0.11513511 0.64282006 -0.9047845 139 141 127
0.11467444 0.64422667 -0.90371859 133 141 127
0.11553002 0.64380813 -0.90622723 137 141 127
0.11566079 0.64520204 -0.90662932 134 141 127
0.11559436 0.64576715 -0.90627372 133 140 127
0.11541678 0.64548999 -0.90571398 132 140 127
0.11502717 0.64241129 -0.90442252 141 141 127
0.11482935 0.64113748 -0.90434456 143 141 127
0.11517216 0.64168191 -0.90523469 142 141 127
0.11465333 0.64196742 -0.90338367 143 140 127
0.11502054 0.63867807 -0.90611786 145 141 129
0.11470703 0.63967299 -0.90464979 143 141 127
0.11420459 0.6392312 -0.90327173 142 142 127
0.11427615 0.64068902 -0.90280026 142 142 126
0.11433377 0.63976705 -0.90342391 142 142 127
0.11467735 0.6414907 -0.90368581 143 141 127
0.11543034 0.64220738 -0.90611368 140 142 126
0.11527135 0.64063388 -0.90608919 143 142 127
0.1151715 0.63645333 -0.90609777 146 141 129
0.11435238 0.6357044 -0.90401924 142 140 129
0.11446244 0.63507557 -0.90413028 143 141 129
0.11488424 0.63681889 -0.90551382 145 141 129
0.1142204 0.63638091 -0.90369517 141 141 129
0.11420662 0.6383974 -0.90355849 142 142 127
0.1144131 0.63740957 -0.9042573 142 141 128
0.11419193 0.63626069 -0.90361065 141 140 129
0.11422858 0.63591212 -0.90374273 141 140 129
0.1140866 0.63725269 -0.90323162 141 142 128
0.11526646 0.63626385 -0.90628439 146 141 129
0.11472107 0.63379043 -0.90496069 142 142 130
0.11515844 0.63456559 -0.90573984 146 142 129
0.11502136 0.63267624 -0.90600222 142 143 130
0.11486691 0.63201976 -0.90584922 140 143 131
0.11499802 0.6325236 -0.90599555 141 144 130
0.11433161 0.63238734 -0.90414041 139 143 130
0.11416208 0.63268828 -0.90354723 139 142 130
0.11402607 0.63301516 -0.9030782 139 142 130
0.11424492 0.63280004 -0.90385783 139 142 130
0.11448587 0.63192278 -0.90466487 139 143 130
0.11536147 0.63385779 -0.90649301 141 143 129
0.1141722 0.62837505 -0.90439773 142 142 130
0.11458641 0.62801695 -0.9056471 141 143 130
0.11467602 0.62734324 -0.90599287 140 143 130
0.11475837 0.62858188 -0.90607554 140 143 130
0.1144282 0.62854975 -0.90511978 141 143 130
0.11398967 0.62792826 -0.90392357 142 142 129
0.11389049 0.62926579 -0.90306669 141 143 129
0.11413006 0.62902385 -0.90403849 141 142 130
0.1139947 0.62877518 -0.90364784 141 142 129
0.11389992 0.62961704 -0.90295666 140 143 129
0.1138566 0.62893128 -0.90308076 141 142 129
0.11446881 0.63007194 -0.90484101 140 143 130
0.11460015 0.62565792 -0.90629953 135 144 130
0.11419355 0.62346804 -0.90631253 126 144 129
0.11404338 0.62406617 -0.90410465 132 142 130
0.11484399 0.62678105 -0.9065907 139 143 130
0.11434412 0.62498528 -0.90519685 134 143 129
0.11410933 0.62381881 -0.9050501 130 143 129
0.11395798 0.62441248 -0.90366554 134 141 130
0.11383698 0.62582237 -0.90347439 139 141 129
0.11437462 0.62675947 -0.90514404 140 142 130
0.11433642 0.62531215 -0.90486813 136 142 130
0.11417966 0.62533373 -0.90441495 136 142 130
0.11390174 0.62382227 -0.90343487 132 142 130
0.11371513 0.61941576 -0.90405267 126 143 129
0.11429847 0.62036735 -0.9063248 134 142 131
0.11371548 0.61968899 -0.90413624 125 143 128
0.11394487 0.62006152 -0.90502918 128 143 129
0.11415736 0.61975116 -0.90565884 133 142 130
0.11433706 0.62063062 -0.90653551 134 142 131
0.11361097 0.62189245 -0.90290421 127 142 129
0.11397983 0.62274462 -0.90539265 125 144 129
0.11380526 0.62262398 -0.90400791 127 142 129
0.11370446 0.62182611 -0.90374166 125 142 129
0.11371326 0.62175035 -0.90387142 125 143 128
0.11448081 0.61770225 -0.90559846 136 142 130
0.11454467 0.61537099 -0.90418237 128 143 127
0.11440543 0.61545599 -0.90384001 130 143 128
0.11512512 0.61533892 -0.90583068 119 145 125
0.11426837 0.61727929 -0.90468186 137 141 130
0.11337079 0.61912876 -0.90279025 120 143 127
0.11420923 0.61652583 -0.90400666 136 142 129
0.11389215 0.61749339 -0.90353602 130 142 129
0.1139318 0.61795092 -0.90395874 130 142 129
0.11428941 0.61519748 -0.90333694 130 143 128
0.11486924 0.61326307 -0.90411156 134 140 129
0.11464755 0.61332327 -0.90350145 136 139 130
0.11421367 0.61503714 -0.90304494 133 142 128
0.11499455 0.61511368 -0.90532738 121 145 126
0.11488815 0.61163509 -0.90319437 141 138 131
0.11446913 0.61344332 -0.90292573 137 140 129
0.11528169 0.61189449 -0.90472448 135 138 131
0.11533386 0.6140039 -0.90582639 120 143 127
0.11496653 0.6102311 -0.90336913 140 138 131
0.11515482 0.61117637 -0.90398508 140 137 132
0.11518332 0.61003566 -0.90419793 138 137 131
0.11485115 0.60852933 -0.90299129 143 138 129
0.11488478 0.60905391 -0.90310311 142 138 130
0.11532713 0.60925347 -0.90493584 134 137 130
0.11533428 0.61050487 -0.90485567 136 136 131
0.11523857 0.60913694 -0.90449452 137 137 130
0.11598913 0.64940935 -0.90897876 128 141 126
0.11616614 0.64987326 -0.90979433 130 141 126
0.11599503 0.64947706 -0.9090305 128 141 126
0.11583743 0.64729768 -0.90749764 131 141 127
0.11594525 0.64716375 -0.90832776 133 141 127
0.11582536 0.64687097 -0.90748167 132 141 127
0.11624756 0.64924848 -0.91022658 132 141 126
0.11624312 0.64939249 -0.91016829 132 141 126
0.11578234 0.64270431 -0.90874708 143 140 128
0.11581853 0.64296591 -0.90893143 143 140 128
0.11599056 0.64363503 -0.91027015 143 139 129
0.11589866 0.64387268 -0.90907633 141 141 127
0.11597955 0.64316547 -0.91052777 145 139 130
0.11601983 0.64520609 -0.90932554 138 142 127
0.11599454 0.64644158 -0.9088251 134 141 126
0.11585943 0.64633107 -0.90784037 133 141 127
0.11608937 0.64639497 -0.90954578 136 142 126
0.11594209 0.64484203 -0.90881264 138 142 126
0.11591253 0.64539725 -0.9084596 137 141 126
0.11559615 0.638699 -0.90900975 125 142 126
0.11547133 0.64072049 -0.90706927 139 142 127
0.1155217 0.64125562 -0.90706152 138 142 127
0.11574487 0.64014769 -0.9090637 121 143 126
0.11557141 0.63874841 -0.90883076 126 142 126
0.11576802 0.64193124 -0.90885687 137 141 127
0.11575228 0.64169091 -0.90874618 135 141 127
0.11582968 0.63930899 -0.91019613 115 142 125
0.11592636 0.64244384 -0.91045415 145 138 129
0.11588698 0.64169449 -0.9102149 138 139 129
0.11559732 0.63768697 -0.90856355 127 141 127
0.11536781 0.63692051 -0.90680748 142 141 128
0.11550611 0.63735074 -0.90785038 132 141 128
0.11554877 0.63655376 -0.90772212 132 142 128
0.11553015 0.63514274 -0.90692687 136 142 128
0.11577633 0.6378442 -0.90995014 113 142 125
0.11563599 0.63620031 -0.90873897 119 142 127
0.11567345 0.63664222 -0.90854353 124 142 127
0.1155863 0.63560897 -0.90986127 103 141 127
0.11553574 0.63501352 -0.90995812 99 141 127
0.1152046 0.63179791 -0.90877897 123 143 129
0.11522005 0.63188154 -0.9091233 120 143 129
0.1151932 0.63163954 -0.91001683 113 142 129
0.11534237 0.63298577 -0.90925032 117 142 128
0.11529159 0.63245553 -0.91009068 110 142 128
0.11536014 0.63316679 -0.90979493 109 142 128
0.11550771 0.63469791 -0.90916729 107 141 128
0.11523597 0.63205755 -0.90851629 126 143 129
0.11532678 0.63299578 -0.90733975 135 143 130
0.11535448 0.63321692 -0.90770584 131 143 129
0.11466281 0.62897307 -0.90974963 113 143 127
0.11431291 0.62740362 -0.90922284 110 143 127
0.11463029 0.62708163 -0.90770203 127 143 128
0.11445551 0.62802768 -0.90941966 111 143 127
0.11475257 0.62882972 -0.90925962 118 143 128
0.11470454 0.62932009 -0.9099955 112 143 127
0.11501925 0.63021684 -0.9079802 131 143 130
0.11501384 0.63003999 -0.90734118 135 143 130
0.11497235 0.62914318 -0.90802634 131 143 129
0.11496583 0.62903231 -0.90849972 128 143 129
0.1149601 0.62879813 -0.90725648 135 144 130
0.11417148 0.62317431 -0.90751386 118 144 128
0.11424398 0.62334126 -0.90994132 103 143 125
0.11388417 0.62632465 -0.91049254 91 143 124
0.11396315 0.62534273 -0.90929067 102 144 126
0.11405914 0.62436742 -0.90855074 109 143 127
0.11422837 0.62523776 -0.90785331 118 144 128
0.11475703 0.62633699 -0.9066779 137 143 130
0.1144945 0.62574518 -0.9072305 127 144 129
0.11456372 0.62634546 -0.90738535 128 143 129
0.11435214 0.62665641 -0.90836382 117 143 128
0.11422407 0.62418789 -0.90715855 122 144 129
0.11434707 0.62236857 -0.91033328 101 141 125
0.11428848 0.62192506 -0.90754873 124 143 129
0.11435176 0.62088674 -0.90680665 132 142 130
0.11436532 0.62077278 -0.90689623 132 142 130
0.11446813 0.61976165 -0.90723878 135 141 131
0.11431996 0.62207615 -0.90870953 116 142 128
0.1152288 0.61527592 -0.90888786 104 142 124
0.11495038 0.61669052 -0.90780532 119 141 128
0.11489008 0.61691046 -0.90788674 120 141 128
0.11499105 0.61638236 -0.9081012 115 142 127
0.11468244 0.61815399 -0.90710026 132 141 130
0.11453258 0.61889595 -0.90695834 137 141 131
0.11456183 0.61894792 -0.90893835 116 137 128
0.11458664 0.61858702 -0.90809405 125 139 129
0.1152481 0.6157794 -0.90715271 116 144 126
0.11485325 0.61419898 -0.90942436 104 140 125
0.11520948 0.61484259 -0.90895385 104 141 125
0.11527283 0.61500525 -0.90868801 105 142 125
0.10541446 0.61975712 -0.88198417 115 140 124
0.10610992 0.62181252 -0.882577 116 140 124
0.10577661 0.6198619 -0.88240403 118 140 124
0.10545889 0.62050563 -0.88195103 114 140 124
0.10463143 0.61563039 -0.88098329 117 140 125
0.10427082 0.61581236 -0.88060582 114 139 124
0.1055961 0.61726141 -0.88218236 122 140 126
0.10465858 0.61550081 -0.88100135 117 140 124
0.10555922 0.61728579 -0.88214427 121 140 125
0.10435601 0.61633694 -0.88074577 114 139 124
0.10422497 0.6169275 -0.88060194 112 139 124
0.10459194 0.61812973 -0.88105839 112 140 123
0.10499796 0.61469412 -0.88123399 121 140 125
0.10535852 0.61500573 -0.88169348 123 141 125
0.1053771 0.6149503 -0.88170207 123 141 126
0.1039472 0.61284733 -0.87970287 113 140 124
0.10418986 0.61245042 -0.87988949 114 140 125
0.10408399 0.61331391 -0.87994695 114 140 125
0.10506529 0.61258942 -0.88088191 121 141 125
0.10464952 0.61158139 -0.88022566 117 141 125
0.10596668 0.61347926 -0.88205343 127 141 126
0.10669114 0.61280131 -0.88272506 135 140 128
0.10564583 0.61278874 -0.88156396 126 140 127
0.10638686 0.61163127 -0.88216102 133 139 128
0.104471 0.61214483 -0.88013697 116 141 125
0.10599881 0.60809237 -0.88142604 122 142 127
0.10558798 0.60819876 -0.88091087 119 141 126
0.10530369 0.60789329 -0.88054967 116 141 126
0.1067722 0.60874069 -0.88240641 130 142 128
0.10735693 0.60966396 -0.88315314 137 141 129
0.10632293 0.60825783 -0.88183558 125 142 127
0.10565018 0.60882747 -0.88099694 121 140 127
0.10647628 0.61104149 -0.8821643 134 139 128
0.10436872 0.60959125 -0.87964058 112 140 125
0.1057814 0.61061805 -0.88133925 127 139 127
0.1040558 0.61097831 -0.87947321 112 140 125
0.10497398 0.60954976 -0.88030612 117 140 126
0.10646543 0.61117202 -0.88216913 134 139 128
0.10472936 0.6096015 -0.88004166 115 140 126
0.10696298 0.60638821 -0.88240337 125 144 127
0.10671046 0.60583222 -0.88196468 121 143 126
0.1061744 0.60382807 -0.8808282 114 141 126
0.10624991 0.60397863 -0.88095552 115 141 126
0.10726359 0.60414356 -0.88220191 124 141 127
0.10675724 0.60685533 -0.88225436 124 144 127
0.1049227 0.60707754 -0.8799938 111 141 125
0.10723374 0.60717094 -0.88291842 129 144 127
0.10523608 0.60667974 -0.88030583 112 141 125
0.10497987 0.60740167 -0.88013244 112 141 125
0.10543689 0.60506433 -0.88022554 109 141 125
0.10758195 0.60528946 -0.88301665 128 143 128
0.10746146 0.60558468 -0.8828336 128 143 128
0.1055648 0.60315824 -0.88000059 108 140 125
0.10675066 0.60276097 -0.88138276 119 141 127
0.10693569 0.60226589 -0.88156807 121 141 127
0.1068548 0.60232425 -0.88147599 120 141 127
0.10619151 0.60064089 -0.88053519 115 140 125
0.10781454 0.60100448 -0.88287348 127 142 128
0.10794801 0.60106945 -0.88315117 127 142 128
0.10743998 0.60180724 -0.88215238 126 141 128
0.10750155 0.60259259 -0.88233864 126 141 128
0.10653751 0.59662086 -0.88058263 114 141 124
0.1077889 0.5991345 -0.88265795 126 142 127
0.10758564 0.59904391 -0.88223338 125 142 126
0.1064439 0.59474438 -0.88033009 115 140 124
0.11082813 0.6418879 -0.89159298 128 140 126
0.11121967 0.64058965 -0.89233017 128 141 126
0.11068844 0.63868237 -0.89144665 130 142 125
0.11078535 0.63919955 -0.89160556 129 142 125
0.11104693 0.63887942 -0.89208591 128 142 125
0.11165833 0.64024323 -0.8938036 128 141 125
0.11132969 0.63932604 -0.89257783 128 142 125
0.11088303 0.63834393 -0.89174592 129 141 125
0.11099074 0.63824779 -0.89192474 129 142 124
0.11066236 0.63618249 -0.89103556 131 142 124
0.11160091 0.63529569 -0.89320576 130 142 124
0.11153051 0.63517612 -0.89289224 131 142 125
0.11170883 0.63505536 -0.89367104 130 142 124
0.11142402 0.63795537 -0.89283693 127 142 125
0.11148463 0.63753814 -0.89299327 127 142 125
0.11109495 0.6344142 -0.89161974 131 142 124
0.11095052 0.63395196 -0.89141577 131 142 125
0.110805 0.63184452 -0.89125311 128 143 125
0.1108508 0.63178647 -0.89134985 128 143 125
0.11194726 0.63309336 -0.89477873 131 143 125
0.11163183 0.63100952 -0.89358336 132 142 127
0.111832 0.63297236 -0.89432228 131 142 125
0.11176777 0.63376492 -0.89401877 130 142 125
0.11134155 0.63324499 -0.8921982 131 142 125
0.11148559 0.63308287 -0.89284688 130 143 124
0.11193489 0.63460886 -0.89466912 130 142 124
0.1113523 0.63182372 -0.8923862 130 143 125
0.11080558 0.63023347 -0.89133972 127 143 125
0.11110837 0.62824512 -0.89206135 130 143 125
0.11077115 0.62814832 -0.89140636 126 143 125
0.11100969 0.62712765 -0.89194131 129 143 125
0.11066584 0.62782359 -0.89122123 126 143 125
0.11164012 0.62721419 -0.89386618 134 143 125
0.11152989 0.62704659 -0.89341742 133 143 125
0.11160344 0.6281985 -0.89362735 133 142 125
0.11174065 0.6288085 -0.89415145 134 142 126
0.11184252 0.63020074 -0.89446306 134 142 127
0.11136771 0.62815815 -0.89267319 131 143 125
0.11156599 0.62930566 -0.89340544 132 142 126
0.11193483 0.63070917 -0.89480531 134 142 127
0.11120967 0.62590152 -0.89228356 131 144 126
0.11132748 0.62449026 -0.89243227 133 144 126
0.1106436 0.62593842 -0.89106518 129 144 125
0.1111457 0.6237458 -0.89198601 133 144 127
0.1114922 0.62409139 -0.89315289 135 144 127
0.1116804 0.6234557 -0.89488995 121 143 128
0.11166815 0.62351447 -0.89476925 123 143 128
0.11157364 0.6245895 -0.89356053 135 144 127
0.11162497 0.62574983 -0.89375484 136 143 126
0.11163761 0.62690312 -0.89387524 135 143 125
0.11147048 0.62621474 -0.89313269 134 143 125
0.1113679 0.62652433 -0.89271963 132 144 125
0.11115917 0.62214255 -0.89194721 137 144 128
0.11108525 0.62235957 -0.89168644 138 144 128
0.1108557 0.62272376 -0.8910296 141 144 127
0.11098117 0.62033278 -0.89193821 133 143 130
0.11053991 0.61986589 -0.89129841 131 143 130
0.11165445 0.62063396 -0.89438808 125 143 130
0.11167445 0.61972189 -0.89426774 127 143 131
0.11170828 0.61947823 -0.89433873 128 143 131
0.11134735 0.62273341 -0.89254194 134 144 128
0.11158404 0.62263817 -0.89438397 122 144 128
0.11138328 0.62144774 -0.89299762 130 143 130
0.11114004 0.61762816 -0.89233673 126 143 130
0.11101262 0.61745453 -0.89208752 126 143 129
0.11047783 0.61771107 -0.89112812 127 144 129
0.11077993 0.61574519 -0.89128774 124 144 128
0.11173595 0.61659187 -0.89416641 124 142 129
0.11160286 0.61582243 -0.89355206 123 142 129
0.11181755 0.61650723 -0.89452654 125 141 129
0.11152637 0.61566162 -0.89320737 123 142 129
0.11151535 0.61671335 -0.89321011 125 143 130
0.11175621 0.61873442 -0.89438105 128 143 131
0.11084992 0.61495662 -0.89125115 125 145 128
0.11084861 0.61499864 -0.89125752 124 144 127
0.11109457 0.61268073 -0.8912856 133 142 127
0.11205429 0.61298501 -0.89436144 133 141 129
0.11144894 0.61198574 -0.89211416 135 141 128
0.11196344 0.61485851 -0.89490384 124 141 129
0.11200861 0.61363995 -0.89450938 129 141 129
0.11168183 0.61425698 -0.89367372 126 141 129
0.11141391 0.61384642 -0.89239395 128 142 128
0.11144607 0.6145128 -0.89268136 125 142 128
0.11583923 0.64710903 -0.91469908 91 139 126
0.11216938 0.62403828 -0.9148013 66 136 120
0.11162383 0.62343472 -0.9156214 49 135 121
0.11246397 0.62350273 -0.91486925 69 137 121
0 0 0 1 0 0 0 1 0 0 0 1 0 0 0 0 0 796 1 0 0
