ply
format ascii 1.0
comment PCL generated
element vertex 792
property float x
property float y
property float z
property uchar red
property uchar green
property uchar blue
element camera 1
property float view_px
property float view_py
property float view_pz
property float x_axisx
property float x_axisy
property float x_axisz
property float y_axisx
property float y_axisy
property float y_axisz
property float z_axisx
property float z_axisy
property float z_axisz
property float focal
property float scalex
property float scaley
property float centerx
property float centery
property int viewportx
property int viewporty
property float k1
property float k2
end_header
0.1460121 -0.27046093 -0.75807005 12 132 122
0.14564896 -0.27136657 -0.75679892 12 132 122
0.14613616 -0.27070922 -0.75811571 12 130 122
0.14599581 -0.27375659 -0.75538683 12 130 124
0.14641809 -0.27526432 -0.75484306 12 128 126
0.14571318 -0.27428955 -0.75444955 12 130 124
0.14725228 -0.27395201 -0.75754976 12 130 125
0.14709276 -0.27529767 -0.75609481 12 128 126
0.14691223 -0.27459964 -0.75634605 12 128 126
0.14660397 -0.27481097 -0.75557601 12 128 126
0.1472895 -0.27453628 -0.75712162 12 128 126
0.14681692 -0.27358142 -0.75703394 12 130 125
0.14764768 -0.27553689 -0.75697398 12 128 126
0.14704461 -0.27723283 -0.75460976 12 128 126
0.14763074 -0.27808961 -0.75511038 12 130 126
0.14788286 -0.27707168 -0.75632155 12 130 126
0.14756106 -0.27585518 -0.75658256 12 128 126
0.14771193 -0.27816308 -0.75521225 12 130 126
0.14875349 -0.27815059 -0.75727254 12 128 126
0.14896049 -0.27870038 -0.75729299 12 128 126
0.14819679 -0.27635437 -0.75744212 12 130 126
0.14878389 -0.27896762 -0.75675476 12 128 126
0.14834546 -0.2759808 -0.75800037 12 130 126
0.14901333 -0.27911484 -0.75710434 12 128 127
0.1478927 -0.27864438 -0.75522083 12 130 126
0.15026078 -0.28215727 -0.75694978 12 128 126
0.14967549 -0.28081927 -0.7570653 12 128 126
0.14972745 -0.28063849 -0.75728995 11 130 126
0.15009236 -0.28262308 -0.7562961 12 128 126
0.14922319 -0.28301811 -0.75461513 12 130 126
0.14806344 -0.28021273 -0.75442219 12 130 126
0.14798586 -0.27997553 -0.75444359 12 130 126
0.14890891 -0.27948678 -0.75662917 12 128 126
0.14916289 -0.28094181 -0.75605953 12 128 126
0.14909744 -0.28206328 -0.75510389 12 130 126
0.14927596 -0.28054062 -0.75657874 12 128 126
0.15134503 -0.28303507 -0.75813013 11 130 124
0.15005217 -0.28405476 -0.75529385 12 128 126
0.15031011 -0.28361759 -0.7559467 11 130 125
0.14972632 -0.28330532 -0.75520355 12 130 126
0.15085012 -0.28518566 -0.75599784 12 130 125
0.15078864 -0.28473851 -0.7561419 11 130 124
0.15072821 -0.28477737 -0.75601357 11 130 124
0.15129413 -0.28514582 -0.75681114 12 130 124
0.15193625 -0.28593174 -0.75751114 12 130 124
0.15112759 -0.28648686 -0.75576663 12 130 124
0.15132642 -0.2865051 -0.75610912 12 130 124
0.15089965 -0.28644553 -0.7553854 12 130 124
0.15187237 -0.28533322 -0.75773221 12 130 124
0.15308048 -0.27079585 -0.77308297 12 128 126
0.15220729 -0.26889905 -0.77259243 12 130 125
0.15217945 -0.26931205 -0.77210426 12 132 126
0.15258269 -0.26936185 -0.77315527 12 130 126
0.15313557 -0.27079999 -0.77322924 12 128 126
0.15156485 -0.26906684 -0.77069896 12 132 126
0.15186557 -0.26771867 -0.77285159 12 132 124
0.1515878 -0.26961061 -0.77021784 14 130 126
0.15117206 -0.2679061 -0.7708028 12 132 125
0.1516812 -0.26828191 -0.77179456 12 132 125
0.15151675 -0.26912948 -0.77050722 12 132 126
0.15389183 -0.27242631 -0.77381241 12 128 126
0.1541359 -0.27341104 -0.77349252 12 128 126
0.15389915 -0.27325657 -0.77249181 12 128 126
0.15337186 -0.27295944 -0.77130526 12 130 126
0.15335561 -0.27169079 -0.77288294 12 128 126
0.15355881 -0.27409279 -0.77036655 12 130 126
0.15350686 -0.27381361 -0.77058172 12 130 126
0.1530225 -0.27205461 -0.77150857 12 130 126
0.15450792 -0.27478066 -0.77363646 14 130 126
0.15442079 -0.27471513 -0.77310115 12 130 126
0.15436386 -0.27592993 -0.77077305 12 130 125
0.15467231 -0.27573007 -0.77334982 15 132 126
0.1545862 -0.27563536 -0.77284324 14 130 126
0.15499471 -0.27830532 -0.7715019 19 132 126
0.15569837 -0.278952 -0.77331913 20 135 127
0.15545477 -0.27899835 -0.7723639 20 133 126
0.15577129 -0.27925894 -0.77321792 21 135 127
0.15568784 -0.27923653 -0.77293682 21 133 127
0.15507178 -0.27923509 -0.77066416 20 133 126
0.15622477 -0.28028309 -0.77359307 20 133 127
0.15622731 -0.28120619 -0.77251023 19 134 126
0.15492605 -0.27938241 -0.76994896 20 132 126
0.15531901 -0.28042689 -0.77014697 20 132 126
0.15591642 -0.27995214 -0.77292204 21 133 127
0.1554254 -0.27942821 -0.77173758 20 133 126
0.15551747 -0.27968347 -0.77177131 20 133 126
0.15516172 -0.26312062 -0.78908861 21 137 127
0.15562381 -0.2659516 -0.78800899 17 136 126
0.15581547 -0.26653975 -0.78837276 16 132 126
0.15567502 -0.26647323 -0.78754532 16 134 126
0.15569958 -0.26683277 -0.78715456 16 134 126
0.15585931 -0.26650187 -0.78872126 15 134 126
0.1551196 -0.264698 -0.78617686 20 133 126
0.15518264 -0.26418865 -0.78753853 20 133 126
0.15493634 -0.26405194 -0.78575748 21 133 125
0.15548171 -0.26664212 -0.78589481 18 134 126
0.15524356 -0.26499748 -0.7866894 20 132 127
0.15537807 -0.26511335 -0.78759354 19 134 126
0.15640606 -0.2712144 -0.78926688 14 130 125
0.15649697 -0.27097237 -0.78694707 21 132 127
0.1563473 -0.26912704 -0.78828883 17 132 127
0.15641126 -0.27026659 -0.78810328 17 132 126
0.15632394 -0.26929247 -0.78899896 14 132 126
0.15573487 -0.26766396 -0.78610224 16 134 126
0.15629214 -0.26942971 -0.78693652 19 134 126
0.15601708 -0.26866633 -0.78634983 18 134 126
0.15594867 -0.26760754 -0.78760892 15 132 126
0.15599792 -0.26825714 -0.78688467 16 134 126
0.15731904 -0.27410927 -0.7873193 16 134 126
0.15787105 -0.27513847 -0.78906953 15 130 126
0.1568629 -0.27267638 -0.78900474 14 132 126
0.15705749 -0.27328965 -0.78827488 15 132 126
0.15764524 -0.27460757 -0.78894448 14 132 126
0.15727805 -0.27391499 -0.78565317 21 135 128
0.15730278 -0.27411258 -0.78637737 18 134 127
0.15684384 -0.27275398 -0.78792214 16 132 126
0.15700406 -0.27318907 -0.78712815 17 134 126
0.1573697 -0.27425897 -0.78581613 19 135 128
0.15767141 -0.2792294 -0.78798264 12 130 124
0.15738238 -0.27885953 -0.78880274 14 130 125
0.15759046 -0.27812716 -0.78759658 14 132 125
0.15762882 -0.2770848 -0.78683823 16 132 126
0.15770514 -0.27879342 -0.78756374 14 130 125
0.1578234 -0.27681315 -0.7859543 16 134 126
0.15777715 -0.27566519 -0.78714508 17 134 127
0.15787464 -0.275581 -0.78822535 16 132 127
0.15772219 -0.27667782 -0.78890353 14 130 126
0.15769705 -0.27681658 -0.78891224 14 132 126
0.15774117 -0.27652404 -0.78877693 14 132 126
0.15796871 -0.28071636 -0.78653747 15 132 123
0.15792859 -0.28020647 -0.786834 14 132 123
0.15785916 -0.28003153 -0.78713632 14 132 123
0.15741892 -0.27952716 -0.78887302 12 130 124
0.15759222 -0.28096768 -0.78802568 14 132 123
0.15770841 -0.28198817 -0.78896141 12 130 126
0.15766665 -0.28151923 -0.78825611 14 132 125
0.15778078 -0.28229922 -0.78837156 14 132 126
0.15749565 -0.28071809 -0.78941023 12 130 126
0.15071262 -0.28628665 -0.78816402 8 128 126
0.15047973 -0.28539068 -0.78872108 7 128 126
0.15253188 -0.28684473 -0.78912312 8 128 126
0.15131685 -0.28673017 -0.7882697 9 128 126
0.15797469 -0.28605264 -0.78790289 11 132 125
0.15813899 -0.28543979 -0.78722566 14 132 126
0.15751183 -0.28613245 -0.78875303 10 132 125
0.15753433 -0.28574878 -0.78943199 10 130 126
0.15781726 -0.28398275 -0.78831077 12 132 126
0.15748517 -0.28615659 -0.78930783 10 130 126
0.15782166 -0.28406757 -0.78793865 14 132 126
0.15774417 -0.28421381 -0.78931117 11 130 126
0.15877789 -0.28551143 -0.78626478 15 132 124
0.15870056 -0.285285 -0.78621036 15 132 124
0.15916651 -0.28689504 -0.78673559 12 130 124
0.15063474 -0.28801811 -0.78842789 10 128 126
0.15088665 -0.28871277 -0.78939056 9 128 126
0.15118177 -0.2881608 -0.78901201 9 128 126
0.1581247 -0.28720924 -0.7886886 10 130 126
0.15876161 -0.28887627 -0.78925264 10 130 126
0.15949178 -0.29041976 -0.78942519 10 128 126
0.15982054 -0.28869876 -0.78728628 11 130 125
0.15941948 -0.28991735 -0.78906196 10 128 126
0.15938982 -0.28791115 -0.78727412 12 128 126
0.15916629 -0.28911561 -0.78874463 10 130 126
0.15920667 -0.28874314 -0.78833723 11 128 126
0.15915993 -0.28869253 -0.78836781 11 130 126
0.16022398 -0.29008135 -0.7873736 12 128 126
0.16014121 -0.28999156 -0.78754497 11 128 126
0.16052322 -0.28971738 -0.78617114 12 130 125
0.16050705 -0.29006329 -0.78651237 12 128 126
0.16003925 -0.29244852 -0.78892541 12 130 126
0.16000625 -0.29160121 -0.78890073 11 128 126
0.16031665 -0.29233491 -0.78807986 14 128 126
0.16044195 -0.29199696 -0.78765625 12 130 126
0.16100211 -0.29784498 -0.78874421 18 128 126
0.15683326 -0.30174389 -0.78686929 12 130 125
0.15831214 -0.30129474 -0.78848267 11 130 126
0.15864317 -0.30111542 -0.78819245 12 130 126
0.15834296 -0.30204839 -0.78749704 10 130 126
0.15876992 -0.30103114 -0.78810066 12 130 126
0.15945886 -0.30235505 -0.78657168 11 130 125
0.16159081 -0.30654424 -0.78614599 12 130 125
0.15931702 -0.30573079 -0.78834814 11 130 126
0.160842 -0.30654752 -0.78684092 12 128 126
0.16023272 -0.30465522 -0.78761786 14 130 126
0.15901461 -0.30623454 -0.78857273 10 130 126
0.15980883 -0.30478114 -0.78781205 12 130 126
0.15967137 -0.30277514 -0.78659672 12 130 125
0.15854342 -0.30531541 -0.78839272 10 130 126
0.16013104 -0.30461919 -0.78764814 12 130 126
0.16079025 -0.30822331 -0.78556591 12 128 126
0.15986069 -0.30776778 -0.78656977 10 130 126
0.15877944 -0.30925015 -0.78603196 9 130 126
0.16034901 -0.30667949 -0.78724831 11 130 126
0.16026771 -0.30672854 -0.78727275 11 130 126
0.1600091 -0.30825692 -0.78592318 11 128 126
0.16051003 -0.30665392 -0.78712535 11 130 126
0.15936637 -0.30822313 -0.78655517 10 128 126
0.15985474 -0.30669305 -0.78769314 11 128 126
0.15854116 -0.31107783 -0.78564864 10 130 126
0.15876992 -0.31130236 -0.785568 11 128 126
0.15843219 -0.31095874 -0.78562599 10 128 126
0.1584982 -0.3127344 -0.78933495 10 130 124
0.15883151 -0.31212026 -0.78761923 11 130 124
0.15130435 -0.25474694 -0.80735254 19 132 119
0.15137978 -0.25492284 -0.80750275 19 132 119
0.15204293 -0.25556701 -0.80602711 16 132 121
0.15079583 -0.25342935 -0.80593169 21 132 121
0.1512958 -0.25474608 -0.80739474 19 132 119
0.15112625 -0.25397038 -0.80587834 20 132 121
0.15063766 -0.25354266 -0.80791861 21 133 118
0.15162677 -0.2558001 -0.80894071 19 134 118
0.15116931 -0.25483012 -0.80884367 20 133 118
0.15044291 -0.25328648 -0.80867231 21 133 117
0.15138978 -0.25930947 -0.80595732 12 130 123
0.15112825 -0.25971889 -0.80579793 11 130 124
0.1513 -0.25929886 -0.80603671 12 130 123
0.15131578 -0.25677598 -0.80835199 15 132 119
0.15140915 -0.25659093 -0.80846196 16 132 119
0.15215011 -0.25647908 -0.80603921 16 132 121
0.15199503 -0.25750425 -0.80630291 16 132 121
0.15206157 -0.25750265 -0.80595547 16 132 121
0.15179409 -0.25716546 -0.80753618 17 132 120
0.15192747 -0.25654152 -0.80717146 17 132 120
0.15211087 -0.25689924 -0.8060199 16 132 121
0.14303166 -0.26830712 -0.75406104 12 130 122
0.14305605 -0.26845279 -0.75401151 12 130 122
0.14498672 -0.27490807 -0.75284278 12 130 124
0.14647186 -0.27665508 -0.75395197 12 128 126
0.14600678 -0.27803856 -0.75228739 14 128 126
0.14575216 -0.27652502 -0.75292087 12 130 125
0.14526688 -0.27561033 -0.75277257 12 130 124
0.14711508 -0.27878669 -0.75365639 14 128 126
0.14756943 -0.27924198 -0.75417155 14 128 126
0.14692949 -0.27804559 -0.75382763 12 130 126
0.14698021 -0.28035074 -0.75242251 12 130 126
0.14655103 -0.28167856 -0.75083745 12 130 125
0.14655744 -0.28226289 -0.75048745 12 130 125
0.14684309 -0.28140125 -0.7515347 12 130 125
0.14877024 -0.28259063 -0.75409752 12 130 126
0.1480781 -0.28181747 -0.75340021 12 130 126
0.14717476 -0.28194675 -0.75175869 12 130 125
0.14703006 -0.28297049 -0.75085104 12 130 125
0.14738908 -0.28201094 -0.75208718 12 130 125
0.14856189 -0.28292048 -0.75352609 12 130 126
0.14758834 -0.28265989 -0.75201392 12 130 125
0.1490019 -0.28428599 -0.75351363 12 130 125
0.14914009 -0.28364629 -0.75408858 12 130 126
0.14869496 -0.28400573 -0.7531603 12 130 125
0.14832632 -0.28452054 -0.7522589 12 130 124
0.14880732 -0.28379413 -0.75346321 12 130 125
0.14857487 -0.28324166 -0.75334698 12 130 126
0.14961648 -0.267445 -0.76763093 14 130 125
0.14911565 -0.2671805 -0.76678538 14 130 125
0.1500663 -0.26722243 -0.76863784 14 130 125
0.14898297 -0.26717722 -0.76652539 14 130 125
0.15067054 -0.26741135 -0.76987863 12 132 124
0.15009674 -0.27029109 -0.76618707 12 132 124
0.15038574 -0.26783323 -0.76885843 12 132 124
0.15027253 -0.27006796 -0.76672453 12 132 124
0.14949226 -0.26816386 -0.76681346 14 130 125
0.1502663 -0.27021381 -0.76658756 12 132 124
0.15040052 -0.27025619 -0.76682127 12 130 125
0.15041323 -0.27069265 -0.76648021 12 132 124
0.15066506 -0.26859245 -0.76890159 12 132 124
0.15120925 -0.27148136 -0.76765561 12 132 126
0.15124828 -0.27082321 -0.76832271 12 132 126
0.15083824 -0.27100268 -0.7672016 12 132 125
0.15101784 -0.26923898 -0.76916569 12 132 125
0.15128027 -0.27002782 -0.76909328 12 132 126
0.15068212 -0.27011278 -0.7676124 12 132 125
0.15223221 -0.27519998 -0.76695001 16 130 126
0.1524764 -0.27489966 -0.76762986 15 130 126
0.15342404 -0.27456376 -0.76958197 12 130 125
0.15190023 -0.27516401 -0.76639324 16 130 126
0.15212645 -0.27259946 -0.768915 14 132 126
0.15230636 -0.2724247 -0.76937747 14 130 126
0.15203373 -0.27255246 -0.76876897 14 132 126
0.15119958 -0.27191171 -0.76730102 14 130 126
0.15149176 -0.27234349 -0.76765555 14 130 126
0.15184136 -0.27248356 -0.76836967 14 132 126
0.15183735 -0.27286798 -0.76806414 14 132 126
0.15150656 -0.27170667 -0.76818091 14 130 126
0.15425237 -0.2771607 -0.76934475 12 130 126
0.15343298 -0.27773112 -0.76758832 12 130 126
0.15355425 -0.27830115 -0.76749253 12 130 126
0.15350078 -0.27824277 -0.7674278 12 130 126
0.15361705 -0.27629119 -0.76872867 12 130 125
0.15315545 -0.27857769 -0.76661843 12 130 126
0.15297948 -0.27823985 -0.76649886 14 130 126
0.15362971 -0.2762495 -0.76877463 12 130 125
0.15296428 -0.27831194 -0.76643121 14 130 126
0.1542592 -0.26321316 -0.78349221 21 133 125
0.15392727 -0.26335752 -0.78216648 21 133 125
0.15450998 -0.26343435 -0.78433728 20 133 124
0.15423848 -0.26505274 -0.78174341 18 132 125
0.15432329 -0.26394188 -0.78281862 19 134 125
0.15433784 -0.26467478 -0.78238964 19 132 125
0.15456688 -0.26652306 -0.78204489 15 132 124
0.15455164 -0.26612365 -0.78229344 15 132 124
0.15493256 -0.26574248 -0.784244 18 132 125
0.15492344 -0.26505396 -0.78477407 19 132 125
0.15474966 -0.2668601 -0.78258586 14 130 125
0.15543993 -0.26750785 -0.78483784 16 132 126
0.15509464 -0.26674098 -0.78407592 16 132 125
0.15515098 -0.26711723 -0.78399348 15 134 126
0.15631151 -0.2711325 -0.78467607 27 133 130
0.15595846 -0.27112314 -0.78303909 26 131 129
0.15592349 -0.27031106 -0.7838015 25 131 129
0.15632132 -0.27054149 -0.78539538 25 133 129
0.15569851 -0.26897773 -0.7842713 19 134 126
0.15604138 -0.27137923 -0.78313422 27 130 130
0.15521736 -0.2676917 -0.78375447 15 132 126
0.15490839 -0.26788512 -0.782291 14 130 126
0.15526865 -0.26801029 -0.78360438 16 132 126
0.15530922 -0.26971075 -0.78186202 20 130 127
0.15534998 -0.26963407 -0.78211254 20 130 127
0.15688451 -0.27349102 -0.78461319 23 135 128
0.15685959 -0.27447572 -0.78357261 20 137 127
0.15729965 -0.27455449 -0.78498304 20 135 127
0.15722564 -0.27474552 -0.78454745 19 137 126
0.15675744 -0.27358967 -0.78408802 23 135 127
0.15734014 -0.27509764 -0.78459233 19 137 126
0.1563165 -0.27359563 -0.78227085 23 135 127
0.15651999 -0.27387983 -0.78294754 21 137 127
0.15643427 -0.27336973 -0.78303736 23 136 127
0.15652902 -0.27517208 -0.78174865 18 139 124
0.15651248 -0.27300993 -0.78374797 24 135 127
0.15596561 -0.27222559 -0.78194898 26 130 129
0.15818754 -0.27857083 -0.78486925 15 132 124
0.15806921 -0.27789727 -0.784558 15 134 124
0.15677297 -0.27585733 -0.7817331 18 137 125
0.15731326 -0.27651182 -0.78263521 17 136 125
0.15718395 -0.27577057 -0.78324407 18 137 126
0.15745841 -0.27668738 -0.78287798 17 136 125
0.15733778 -0.27639985 -0.78287613 17 136 125
0.15772134 -0.27581885 -0.78499186 18 136 127
0.15821686 -0.2787756 -0.78488934 15 132 123
0.15815775 -0.28132343 -0.78352332 16 134 123
0.15813467 -0.28118181 -0.78400731 15 134 123
0.1581666 -0.28065673 -0.78374749 16 132 124
0.1582664 -0.2796618 -0.78499722 15 132 123
0.15820542 -0.28097066 -0.78512907 16 134 123
0.15822418 -0.2807292 -0.78537017 15 134 123
0.15847747 -0.28314859 -0.7835896 18 134 124
0.15823376 -0.28162161 -0.78350294 17 134 124
0.15832953 -0.28146771 -0.78285915 16 132 123
0.15887299 -0.28468224 -0.78529292 16 134 123
0.15864198 -0.28356311 -0.78368372 18 134 124
0.15847389 -0.28342107 -0.7842105 18 134 124
0.15865636 -0.2836912 -0.78393275 17 134 124
0.15858114 -0.28361127 -0.784127 17 134 124
0.16102873 -0.29036596 -0.78431863 12 130 124
0.16085154 -0.29002836 -0.78520554 12 130 124
0.16148736 -0.29176363 -0.78477496 14 128 126
0.16130304 -0.29126766 -0.7843082 14 128 126
0.15664686 -0.30209509 -0.78532505 10 130 125
0.15483603 -0.30500856 -0.78252262 11 130 126
0.15614536 -0.30377266 -0.78409976 9 130 126
0.15466493 -0.30455548 -0.78248233 12 130 124
0.15615562 -0.30334634 -0.78422451 10 128 126
0.15493228 -0.30606374 -0.78230679 9 128 127
0.15698616 -0.304232 -0.78511703 7 128 126
0.15662169 -0.30486929 -0.78464562 7 130 126
0.15596452 -0.3048695 -0.78369528 8 128 126
0.15499739 -0.30600345 -0.78239572 9 128 127
0.15730913 -0.30366826 -0.7855348 6 130 126
0.15879114 -0.31039113 -0.78539938 10 130 126
0.15935054 -0.30967796 -0.78549594 10 130 126
0.16072369 -0.30872542 -0.78548831 12 130 125
0.15982248 -0.30995595 -0.78538203 12 128 126
0.15887752 -0.31139225 -0.7855261 11 130 126
0.159346 -0.31101459 -0.7851817 12 128 126
0.15265033 -0.25558352 -0.80094564 19 134 122
0.15268846 -0.25470555 -0.80000418 21 133 123
0.15305746 -0.2557058 -0.79863214 18 134 122
0.15274045 -0.25487685 -0.79983562 21 133 123
0.15269248 -0.25493801 -0.80016971 20 135 122
0.15304972 -0.25969818 -0.79810959 17 132 122
0.15280968 -0.25836921 -0.79986042 18 132 122
0.1530035 -0.25864413 -0.79851884 17 132 122
0.15293793 -0.25962356 -0.79887569 18 132 123
0.1526836 -0.25895298 -0.80066395 19 134 123
0.15273421 -0.25667381 -0.80052632 17 136 122
0.15294889 -0.25604945 -0.79936117 17 136 122
0.1529046 -0.25610724 -0.79961175 17 136 122
0.15311512 -0.25775334 -0.7980243 17 132 122
0.15303601 -0.25769347 -0.79850566 17 132 122
0.15298988 -0.25675347 -0.7989729 17 134 122
0.15268807 -0.26031804 -0.80096346 19 132 124
0.15369101 -0.26320848 -0.79792285 12 130 125
0.15309103 -0.26199698 -0.79985607 15 132 123
0.15313564 -0.26177272 -0.79964292 15 132 123
0.15331054 -0.26210168 -0.79907411 14 132 123
0.15284541 -0.26256698 -0.80088264 15 130 123
0.15340073 -0.26208678 -0.79864514 14 132 123
0.1531105 -0.25988504 -0.7978406 16 132 121
0.15296209 -0.2603884 -0.7994836 18 132 123
0.15306248 -0.25987875 -0.79815894 17 132 122
0.15342633 -0.26180887 -0.79812086 14 132 123
0.15342346 -0.26139498 -0.79761851 14 132 123
0.15451747 -0.26659915 -0.79735649 9 130 126
0.15439075 -0.27091941 -0.7978844 11 130 125
0.15473653 -0.26926762 -0.79740709 12 128 126
0.15452121 -0.27193493 -0.79737318 12 130 124
0.15121306 -0.26510835 -0.8129192 9 130 125
0.15060775 -0.26722348 -0.81429935 6 128 126
0.15154035 -0.2670041 -0.81352758 8 128 126
0.15147756 -0.26567584 -0.81298095 9 128 126
0.14641383 -0.27069682 -0.75861645 12 132 122
0.14658853 -0.27016649 -0.75930554 12 132 122
0.1471267 -0.26981455 -0.7606408 12 132 122
0.14741255 -0.27135444 -0.76022983 12 132 123
0.14708641 -0.26970556 -0.76062769 12 132 122
0.14713134 -0.26970878 -0.76072019 12 132 122
0.14876685 -0.27483281 -0.75983268 12 128 126
0.14883123 -0.27358326 -0.7611441 12 130 125
0.14886123 -0.27460176 -0.76024699 12 130 125
0.14886354 -0.27285725 -0.76189542 12 130 125
0.14846149 -0.27485716 -0.75917363 12 128 126
0.14866377 -0.27338278 -0.76098412 12 130 125
0.14730273 -0.27286273 -0.75861508 12 130 124
0.1472331 -0.27165759 -0.75960296 12 132 123
0.14777426 -0.27276218 -0.75970322 12 130 125
0.14747752 -0.27176157 -0.76002008 12 132 124
0.14814582 -0.27238157 -0.76084429 12 130 125
0.14763165 -0.2725592 -0.75959378 12 130 124
0.15033244 -0.27738935 -0.76099187 11 130 126
0.15007086 -0.27574596 -0.76175833 12 130 125
0.14976519 -0.27860585 -0.75898165 11 130 126
0.15018524 -0.27926433 -0.75926298 11 130 127
0.1493672 -0.27568474 -0.7603386 12 130 126
0.14981273 -0.27594012 -0.76107645 12 130 125
0.14967012 -0.27751887 -0.75960308 12 130 126
0.14955623 -0.27548498 -0.76088125 12 130 125
0.14961787 -0.27777132 -0.75930613 12 128 126
0.1493558 -0.27807108 -0.75853688 12 128 126
0.15055145 -0.27776405 -0.76118213 12 128 126
0.15138155 -0.27903268 -0.76208586 12 132 126
0.150628 -0.27865145 -0.76066607 12 128 127
0.15015014 -0.27968436 -0.75884086 11 130 127
0.15048745 -0.28066909 -0.75867128 11 130 126
0.15069221 -0.28016707 -0.75956661 11 130 126
0.15113525 -0.28116393 -0.75953984 12 130 126
0.15140341 -0.28149629 -0.75976473 12 130 126
0.15055132 -0.28074187 -0.75875098 11 130 126
0.15119202 -0.28160971 -0.759215 12 130 126
0.15165523 -0.28115669 -0.76059532 12 130 126
0.15171951 -0.28222981 -0.75965345 12 130 126
0.15147725 -0.28097746 -0.76043183 12 130 126
0.15246296 -0.28472418 -0.75919473 12 130 125
0.15262005 -0.28484944 -0.75942045 12 130 125
0.15173984 -0.28342739 -0.75859094 12 130 125
0.15276788 -0.26617727 -0.77698106 19 132 125
0.15378961 -0.26930484 -0.77662581 12 130 125
0.15422763 -0.26977992 -0.77710921 12 130 125
0.15345937 -0.26877105 -0.77656871 14 128 126
0.15369745 -0.27138019 -0.7741257 12 128 126
0.15297063 -0.26764846 -0.77633154 14 130 125
0.15311716 -0.26900822 -0.77518857 12 130 125
0.15299338 -0.26812622 -0.77583629 14 130 125
0.15258603 -0.2686846 -0.77384263 12 130 125
0.15321219 -0.2698929 -0.77444381 12 130 126
0.15269993 -0.26882526 -0.7740463 12 130 125
0.15411089 -0.2717931 -0.77463609 12 128 126
0.15428071 -0.27235845 -0.77462828 12 128 126
0.15475968 -0.27207077 -0.77628976 20 128 127
0.15482415 -0.27170852 -0.77671158 21 130 127
0.15559821 -0.2743654 -0.7774455 20 137 127
0.15563942 -0.27478102 -0.77730882 19 139 126
0.15543459 -0.27534351 -0.77629226 17 137 126
0.15561192 -0.2742587 -0.77755809 21 137 127
0.15540777 -0.27332339 -0.77751017 23 135 127
0.15634209 -0.27907032 -0.77530867 19 134 126
0.15600641 -0.27926579 -0.77404231 20 135 127
0.15627106 -0.27753288 -0.77668732 18 137 126
0.15623981 -0.27739921 -0.7767278 19 137 126
0.15677904 -0.27844745 -0.77734137 17 134 126
0.15573274 -0.27641109 -0.77614874 19 139 126
0.15580001 -0.27747092 -0.77525777 19 137 126
0.1558636 -0.27902666 -0.77383757 20 135 127
0.15577945 -0.27585733 -0.77687562 19 139 126
0.15592976 -0.27866378 -0.77442729 21 135 127
0.15490901 -0.27551538 -0.77445471 15 134 126
0.15809037 -0.28228348 -0.77714628 16 132 125
0.15706283 -0.27953997 -0.77708423 17 132 126
0.15631567 -0.28009811 -0.7741006 19 134 126
0.15640499 -0.28048456 -0.77395487 19 134 126
0.15643677 -0.27934313 -0.77532083 19 134 126
0.15463708 -0.25972882 -0.79325724 19 134 123
0.15503497 -0.26204914 -0.79109055 20 133 126
0.15486416 -0.26187104 -0.792579 18 132 125
0.155123 -0.26310289 -0.79088354 19 134 126
0.15517986 -0.26308936 -0.79034567 19 135 126
0.15486799 -0.2621794 -0.79272288 18 132 126
0.15498275 -0.26281264 -0.79202199 18 132 126
0.15518561 -0.26300761 -0.78949195 21 137 127
0.1550304 -0.26204622 -0.79081899 20 135 126
0.15513654 -0.26267248 -0.79018545 20 135 126
0.15567972 -0.26680177 -0.79216182 12 130 126
0.15564169 -0.2659249 -0.79122275 15 130 126
0.1551594 -0.26452303 -0.79266673 16 132 127
0.15573931 -0.26734543 -0.79249227 11 130 126
0.15554796 -0.26596239 -0.79192924 14 130 126
0.15543832 -0.26498798 -0.79112732 16 132 126
0.1555796 -0.26486799 -0.78955024 18 134 126
0.15598068 -0.26663417 -0.7896387 15 132 126
0.15559806 -0.26561263 -0.79099178 15 132 126
0.15508321 -0.26374105 -0.79173541 17 134 126
0.15599248 -0.26951811 -0.79271197 12 132 126
0.15599589 -0.26937562 -0.79188538 12 130 126
0.15629473 -0.27098802 -0.79061198 14 130 125
0.15593852 -0.26922196 -0.79291624 12 132 126
0.15586403 -0.2686379 -0.79231489 12 128 126
0.15615918 -0.26831594 -0.79013026 12 132 126
0.15614276 -0.26914731 -0.79052901 14 128 126
0.15606305 -0.26881343 -0.79097188 12 130 126
0.15584564 -0.26779175 -0.7921418 11 130 126
0.15619032 -0.26995888 -0.790474 14 128 126
0.15636915 -0.27503982 -0.79302019 10 132 124
0.1579095 -0.27532041 -0.78965944 14 132 126
0.15646926 -0.27384591 -0.7928564 11 134 124
0.15713836 -0.27407995 -0.79139149 14 134 126
0.15714091 -0.27405828 -0.7913869 14 134 126
0.15674424 -0.27250403 -0.79204804 15 136 124
0.15729608 -0.27370524 -0.79008418 14 132 126
0.15749156 -0.27418011 -0.79002082 14 132 126
0.15690742 -0.27289477 -0.79192382 15 136 124
0.15651292 -0.27176759 -0.78988302 14 130 125
0.1571672 -0.27338314 -0.79000914 14 132 126
0.15648761 -0.27650785 -0.79240286 11 130 125
0.15656164 -0.27807426 -0.79315835 12 130 124
0.15655753 -0.277448 -0.79268992 12 130 125
0.15673958 -0.27743986 -0.79149449 12 130 125
0.156473 -0.2771765 -0.79302734 11 132 124
0.15696941 -0.27887335 -0.79112703 12 130 124
0.15661448 -0.27653828 -0.79200757 11 130 125
0.1571635 -0.27622092 -0.79094249 12 130 126
0.15758125 -0.27642298 -0.78995281 14 130 126
0.15738568 -0.27777842 -0.78983033 12 130 125
0.15670677 -0.27702853 -0.79160893 11 130 125
0.15702745 -0.28126076 -0.79219437 11 132 125
0.15674892 -0.2807408 -0.79309374 11 132 124
0.15692545 -0.28083655 -0.79253072 12 130 125
0.15724312 -0.28174531 -0.7914955 11 132 126
0.15686175 -0.28091505 -0.79273045 11 132 125
0.15724508 -0.28245842 -0.79146779 10 132 126
0.15720779 -0.28045288 -0.79105717 14 128 126
0.15754063 -0.28208846 -0.79051316 12 130 126
0.15754807 -0.28159672 -0.78997451 12 128 126
0.15727203 -0.28063667 -0.79082072 14 128 126
0.15739584 -0.28039232 -0.78976852 12 130 126
0.15540758 -0.28690442 -0.79160851 15 132 123
0.1553473 -0.28656349 -0.7920258 15 134 122
0.15609592 -0.28481179 -0.7926423 11 134 124
0.15646856 -0.28502908 -0.79207057 11 130 125
0.15646119 -0.28462547 -0.792404 11 132 126
0.15631881 -0.28546023 -0.79188216 11 132 124
0.1560387 -0.28490928 -0.79262453 11 134 123
0.15515344 -0.28623232 -0.79249918 16 134 122
0.15734713 -0.28658846 -0.78968877 10 130 126
0.15689625 -0.28422722 -0.79211873 9 132 125
0.15748188 -0.28587696 -0.7895624 10 130 126
0.1572153 -0.28593355 -0.79038429 10 130 126
0.15732078 -0.28523451 -0.79034543 10 130 126
0.15720333 -0.28513876 -0.79075867 10 130 126
0.1566418 -0.28760266 -0.79062849 14 130 126
0.15629829 -0.28747517 -0.79085052 14 130 125
0.15701218 -0.28773823 -0.79039407 12 130 126
0.15494204 -0.2878637 -0.79306906 18 132 122
0.15623328 -0.28834942 -0.79220343 15 132 123
0.15632635 -0.28928402 -0.79332733 16 132 121
0.15582585 -0.28775063 -0.79188907 16 130 123
0.15753087 -0.28856841 -0.79097867 12 130 126
0.15781288 -0.29049194 -0.79318631 14 130 123
0.15671717 -0.28944245 -0.79308039 15 132 123
0.15780491 -0.2886965 -0.79082793 12 128 126
0.15854287 -0.28920248 -0.79019117 10 130 126
0.15871444 -0.28974456 -0.79048115 11 128 126
0.15825728 -0.29034004 -0.79243088 12 130 125
0.15848614 -0.28891525 -0.78995115 10 130 126
0.15915805 -0.29056337 -0.79045314 10 130 126
0.15991685 -0.2948651 -0.79200321 12 130 125
0.15970105 -0.29439837 -0.79298103 12 130 125
0.1598582 -0.2947734 -0.79318804 12 130 125
0.15970425 -0.29236099 -0.78984255 12 128 126
0.15834905 -0.29117444 -0.79312062 12 130 124
0.15877375 -0.29113963 -0.79204333 12 128 126
0.15430789 -0.29719254 -0.79270059 12 130 124
0.15625659 -0.29783243 -0.79321498 11 128 125
0.15501308 -0.29734305 -0.79305375 11 130 125
0.15933369 -0.29856071 -0.79168969 12 130 124
0.15995944 -0.29538214 -0.79297245 12 130 125
0.15846606 -0.2980839 -0.79335576 10 128 124
0.16036735 -0.29718891 -0.79032868 17 128 126
0.16054888 -0.29818457 -0.78993797 18 128 126
0.16002308 -0.29538095 -0.79193342 12 130 125
0.15840244 -0.2992906 -0.79191232 11 130 125
0.15858987 -0.29941601 -0.79137731 11 130 124
0.15871312 -0.29915741 -0.79171687 12 130 125
0.15137787 -0.25411388 -0.80504495 18 132 121
0.15147376 -0.25398499 -0.8046546 20 132 122
0.1521889 -0.25540936 -0.80495167 16 132 121
0.15244655 -0.25470904 -0.80187207 21 133 123
0.15238708 -0.25415045 -0.80160451 23 133 122
0.15251181 -0.25525308 -0.80201954 19 134 122
0.15245919 -0.25713679 -0.80382359 16 132 123
0.15220335 -0.25968054 -0.80379802 16 132 123
0.15237039 -0.25860199 -0.80342764 17 132 122
0.15212566 -0.25972289 -0.80427569 15 132 122
0.15212721 -0.25941536 -0.80447 15 132 122
0.1524213 -0.25713351 -0.8040725 16 132 123
0.1525456 -0.25761288 -0.80242348 18 132 122
0.15259491 -0.2597056 -0.80123192 19 134 123
0.15258405 -0.25931796 -0.8014794 19 134 123
0.15257338 -0.25734577 -0.80204946 18 134 122
0.15260415 -0.25728235 -0.8015874 18 134 122
0.14949989 -0.27093056 -0.76460671 12 130 125
0.14928828 -0.27093044 -0.76422787 12 130 125
0.14878164 -0.26838478 -0.76529616 14 130 126
0.14951637 -0.27123678 -0.76439852 12 130 125
0.14944734 -0.27085352 -0.76457232 12 130 125
0.14931245 -0.26908714 -0.76570165 14 130 126
0.14977254 -0.27077106 -0.76521873 12 130 125
0.14826925 -0.26794821 -0.7644605 14 130 125
0.14838749 -0.26877964 -0.76413721 14 130 125
0.14927682 -0.2724998 -0.76298004 12 130 125
0.14970468 -0.27251273 -0.76373613 12 130 125
0.14973597 -0.27382159 -0.76276439 12 130 125
0.14881872 -0.27227154 -0.76233888 12 132 125
0.1503119 -0.27354872 -0.76401001 12 130 125
0.14908995 -0.27168837 -0.76328254 12 130 125
0.15018587 -0.27508292 -0.76256448 12 132 124
0.15100265 -0.27407879 -0.76516479 14 132 125
0.15083648 -0.27520746 -0.76389909 14 130 125
0.15073419 -0.27351755 -0.76496506 14 130 125
0.15066819 -0.27504843 -0.76362467 14 130 125
0.15112397 -0.27407447 -0.76545465 14 132 125
0.15029356 -0.27572468 -0.76221752 12 130 125
0.151197 -0.27554736 -0.76447755 15 130 126
0.15163898 -0.27638876 -0.7648409 15 132 126
0.15099607 -0.27766353 -0.76228005 12 130 126
0.15157497 -0.27808174 -0.76331556 14 132 126
0.15145205 -0.27751717 -0.76348162 14 132 126
0.15092725 -0.27688915 -0.76274472 14 130 126
0.15234865 -0.27874178 -0.76472014 14 130 126
0.15170039 -0.27850217 -0.76329178 14 132 126
0.15200366 -0.27725816 -0.76504654 15 130 126
0.15178601 -0.27755499 -0.7642647 14 132 126
0.15178593 -0.27837309 -0.76360887 14 130 126
0.15194459 -0.27787191 -0.7644071 14 130 126
0.15311699 -0.2795299 -0.76587033 12 130 126
0.15185735 -0.27940515 -0.76290733 14 130 127
0.15224308 -0.27955332 -0.76367986 14 130 127
0.15331832 -0.28234407 -0.76275826 12 130 126
0.15418513 -0.26577798 -0.78119129 16 132 124
0.15401274 -0.26551914 -0.78086305 17 132 125
0.15376525 -0.2668182 -0.77935106 14 132 123
0.15413015 -0.2673077 -0.78014886 14 130 126
0.15372077 -0.26705903 -0.77907497 14 132 123
0.15369441 -0.26441014 -0.7806294 20 133 124
0.15445577 -0.2672435 -0.7811718 14 130 126
0.15392175 -0.2685869 -0.77784872 14 130 125
0.1541421 -0.26856178 -0.77854419 14 128 126
0.15433244 -0.26870808 -0.77889872 14 128 126
0.15464622 -0.26830178 -0.78056175 14 130 126
0.15492028 -0.26989198 -0.77930927 20 130 126
0.15522137 -0.27140927 -0.77856374 26 130 127
0.15496983 -0.27005735 -0.77931941 20 130 126
0.15539713 -0.27030617 -0.78150272 23 130 127
0.15510419 -0.26985759 -0.78047675 20 130 127
0.15589635 -0.2749401 -0.77828962 20 140 127
0.15598992 -0.2743845 -0.77952969 21 137 127
0.15602867 -0.27404681 -0.78017533 21 137 127
0.15633544 -0.27470449 -0.78119797 19 137 126
0.15588875 -0.27470103 -0.77853775 20 138 127
0.15539522 -0.27217329 -0.77864736 26 131 127
0.15577337 -0.27446744 -0.77812481 20 138 127
0.15577225 -0.27220884 -0.78090161 26 131 129
0.155811 -0.27320871 -0.77990544 24 135 128
0.15541029 -0.27159148 -0.7794562 27 130 129
0.15738085 -0.27820355 -0.78029341 16 134 124
0.15679319 -0.27646223 -0.78083879 17 136 124
0.15724321 -0.27893052 -0.77856797 16 132 125
0.15717205 -0.27821985 -0.77945024 16 134 125
0.15724403 -0.27720657 -0.78138644 17 134 124
0.15698291 -0.27736351 -0.78010893 17 136 125
0.1569676 -0.27859282 -0.77783304 16 134 125
0.15684192 -0.27720982 -0.77980149 17 136 125
0.15677217 -0.27780172 -0.77822214 17 136 126
0.15679075 -0.27789462 -0.7781505 17 136 126
0.15625724 -0.27557769 -0.77952188 19 139 126
0.15794003 -0.28096521 -0.7782535 16 132 125
0.15757383 -0.27985078 -0.7784521 16 132 125
0.15849371 -0.2827813 -0.7788533 18 132 126
0.15362696 -0.25955671 -0.79595602 16 132 123
0.1541118 -0.25975323 -0.79473561 15 132 123
0.15331644 -0.25741187 -0.79685324 18 134 122
0.15323873 -0.25819764 -0.7971912 17 132 122
0.15330675 -0.25681466 -0.79705781 17 134 122
0.15331352 -0.25686106 -0.79700154 18 134 122
0.15438116 -0.25881058 -0.79362518 19 134 122
0.15404694 -0.26036587 -0.79521495 14 132 123
0.15390949 -0.26256377 -0.79668188 12 130 125
0.15388392 -0.26137599 -0.79615766 14 130 123
0.1536199 -0.26116106 -0.79676044 14 132 123
0.15391618 -0.26067707 -0.79572201 14 132 123
0.15408336 -0.26231682 -0.79599565 14 130 126
0.15400599 -0.26352224 -0.7967124 12 130 126
0.15440917 -0.26163486 -0.79440725 14 132 125
0.15430795 -0.26107758 -0.79458827 14 132 123
0.15459104 -0.26190931 -0.79386991 15 132 126
0.1544316 -0.25982392 -0.79391408 16 132 123
0.15418202 -0.2643536 -0.79663205 11 130 126
0.15430498 -0.26545936 -0.79720539 9 130 126
0.15485188 -0.26533312 -0.79510814 14 130 127
0.15479125 -0.2657806 -0.79574752 14 128 127
0.15442847 -0.26444432 -0.79568416 12 130 126
0.15512359 -0.26597694 -0.79444069 14 128 127
0.15557902 -0.26728421 -0.7934767 12 128 126
0.15507877 -0.26471308 -0.79345095 15 130 126
0.1550141 -0.26542789 -0.79444814 14 130 126
0.15499505 -0.26696804 -0.79601228 11 130 126
0.1553752 -0.26719108 -0.79437816 11 128 126
0.15563257 -0.2701216 -0.795147 14 134 126
0.15519135 -0.27017167 -0.79635251 14 132 125
0.15587644 -0.27077326 -0.79448068 14 138 123
0.15609026 -0.27140129 -0.7938965 15 138 123
0.15517426 -0.26914129 -0.79639918 11 132 126
0.15593576 -0.27069277 -0.79431862 14 138 123
0.15564556 -0.26857215 -0.79420817 11 132 126
0.1552646 -0.26838517 -0.79591388 11 130 126
0.15596636 -0.26990265 -0.7936855 14 134 126
0.15605555 -0.27037948 -0.79362351 14 136 125
0.155818 -0.26937997 -0.79399949 12 132 126
0.1552875 -0.26785687 -0.7953912 11 128 126
0.15516378 -0.27420974 -0.79527771 10 130 126
0.15509929 -0.27418146 -0.79537326 10 130 126
0.15456223 -0.27312595 -0.79659271 10 130 126
0.15532057 -0.2728298 -0.79592139 14 132 123
0.15556592 -0.27395236 -0.7949543 11 130 124
0.155977 -0.27448568 -0.79403591 11 132 124
0.15623085 -0.27242273 -0.79345924 14 138 123
0.15587375 -0.27297977 -0.79440337 12 134 123
0.15612063 -0.27407172 -0.79366696 11 134 124
0.15524514 -0.2715373 -0.79620248 15 134 123
0.15506287 -0.27187359 -0.79668146 16 130 123
0.15499482 -0.27816275 -0.79488796 11 130 125
0.15496947 -0.27681074 -0.79504699 10 130 126
0.15563709 -0.27806342 -0.79435909 11 130 125
0.1553956 -0.27804875 -0.79456317 11 130 125
0.15561756 -0.27701551 -0.79434484 10 130 125
0.15621504 -0.27685711 -0.79357058 11 130 125
0.15544498 -0.27577686 -0.79437321 10 130 126
0.15469095 -0.27593282 -0.7953437 9 130 126
0.15457413 -0.28298792 -0.7943942 8 134 125
0.1556294 -0.28279334 -0.79393446 9 134 125
0.15464202 -0.28011698 -0.7950086 11 132 124
0.1564264 -0.28049269 -0.79356146 11 132 124
0.15604441 -0.28151634 -0.79387391 10 132 125
0.15628068 -0.28167745 -0.79367435 10 132 125
0.15641159 -0.28213659 -0.7935608 10 132 125
0.15455763 -0.28411207 -0.79402471 10 136 123
0.15547398 -0.28369141 -0.79373962 9 134 124
0.15523908 -0.28383207 -0.79380089 10 134 124
0.15622362 -0.29043633 -0.79688925 14 130 123
0.15759279 -0.29081133 -0.79447395 14 130 123
0.15678208 -0.29080474 -0.79669666 16 130 123
0.15599078 -0.29020122 -0.79666984 11 130 125
0.15572871 -0.28886801 -0.79357886 16 132 121
0.15574171 -0.28949535 -0.79510754 10 130 125
0.15623094 -0.28972232 -0.79459685 11 130 125
0.1554018 -0.28918508 -0.79508376 11 130 125
0.15679649 -0.28979987 -0.79354769 15 130 123
0.15461077 -0.28896433 -0.79627264 9 128 126
0.15584658 -0.28944319 -0.79474795 12 128 126
0.15899254 -0.29467991 -0.79403025 9 130 126
0.15850101 -0.29356843 -0.79404485 10 130 126
0.15894988 -0.29442692 -0.79397708 10 128 126
0.15935141 -0.2936013 -0.79336113 12 130 125
0.15970418 -0.29499879 -0.79350531 11 130 125
0.15823807 -0.29750869 -0.79375893 9 130 125
0.15840925 -0.29528683 -0.79445297 8 130 126
0.1516064 -0.26714003 -0.80965447 6 130 126
0.15234579 -0.26748061 -0.8114211 7 130 126
0.15066929 -0.26632312 -0.80912203 6 130 126
0.15124032 -0.26614767 -0.81114179 8 130 126
0.15193991 -0.26697946 -0.81164211 8 128 126
0.15085804 -0.26543081 -0.81130201 8 130 126
0.15080893 -0.26568109 -0.81075674 7 130 126
0.15114927 -0.26529804 -0.81230193 9 128 126
0.15136866 -0.26618874 -0.81141788 8 130 126
0.15144283 -0.26621142 -0.81157917 8 130 126
0 0 0 1 0 0 0 1 0 0 0 1 0 0 0 0 0 792 1 0 0
