ply
format ascii 1.0
comment PCL generated
element vertex 754
property float x
property float y
property float z
property uchar red
property uchar green
property uchar blue
element camera 1
property float view_px
property float view_py
property float view_pz
property float x_axisx
property float x_axisy
property float x_axisz
property float y_axisx
property float y_axisy
property float y_axisz
property float z_axisx
property float z_axisy
property float z_axisz
property float focal
property float scalex
property float scaley
property float centerx
property float centery
property int viewportx
property int viewporty
property float k1
property float k2
end_header
-0.04002624 -0.47819912 -0.6878975 123 138 125
-0.037827317 -0.47789249 -0.68824297 120 137 119
-0.037767168 -0.47748551 -0.68811411 121 137 119
-0.036714587 -0.47634026 -0.68794125 119 136 117
-0.046552133 -0.4823446 -0.68829942 106 143 116
-0.045152381 -0.48067987 -0.68790871 110 142 116
-0.045891609 -0.48133421 -0.68803513 107 143 115
-0.041372497 -0.48234597 -0.6891163 152 129 126
-0.042593744 -0.48151818 -0.68861943 135 133 124
-0.042552583 -0.4812409 -0.68852693 132 135 124
-0.043445446 -0.4821755 -0.68871504 132 134 123
-0.043576665 -0.48182371 -0.68856758 128 135 123
-0.04200837 -0.48154306 -0.6887244 140 132 125
-0.044876847 -0.48143843 -0.68821871 116 139 119
-0.043584198 -0.48108885 -0.68830335 122 137 123
-0.043731 -0.48040137 -0.68803531 118 139 121
-0.040706001 -0.48115894 -0.68881369 145 131 126
-0.039369032 -0.47962853 -0.6885407 130 134 123
-0.040047284 -0.47862971 -0.68804383 123 137 124
-0.040854272 -0.48129123 -0.68883055 146 131 126
-0.039909657 -0.47854152 -0.68804061 122 137 124
-0.037615813 -0.47982472 -0.68895441 121 137 118
-0.039467033 -0.4809804 -0.68900216 140 132 123
-0.038577396 -0.48131111 -0.68927777 129 136 120
-0.040106427 -0.48208821 -0.68925738 146 131 124
-0.037535518 -0.47924927 -0.68877536 121 135 118
-0.039858505 -0.48174456 -0.68918735 143 131 124
-0.05528862 -0.4861576 -0.68845236 134 150 116
-0.056483928 -0.48521149 -0.68799865 123 153 116
-0.056120008 -0.48578259 -0.68821859 115 157 114
-0.05058191 -0.48416767 -0.68837565 138 138 116
-0.049043387 -0.48613372 -0.68935251 142 135 118
-0.049437795 -0.48552123 -0.68906152 139 136 117
-0.050721701 -0.48506424 -0.68868834 152 135 118
-0.046850696 -0.48574528 -0.68947965 141 135 120
-0.046070904 -0.48611706 -0.68969274 146 135 122
-0.048373733 -0.48607087 -0.68942177 141 134 118
-0.047317527 -0.48608917 -0.68954509 143 135 120
-0.047317997 -0.485145 -0.68922329 136 135 119
-0.046045747 -0.48550552 -0.68948716 142 136 121
-0.047383092 -0.48316216 -0.68848401 109 142 115
-0.046394404 -0.48260352 -0.68841732 110 141 116
-0.048206016 -0.48310113 -0.68834305 102 145 113
-0.047250796 -0.48316732 -0.68850499 110 142 116
-0.046665899 -0.4833594 -0.68866068 119 139 118
-0.041776799 -0.48445815 -0.6897344 151 134 123
-0.041170079 -0.48508337 -0.69001168 147 137 121
-0.042251352 -0.48480076 -0.68977708 151 134 123
-0.04251688 -0.48469704 -0.68970877 151 133 124
-0.043003719 -0.48577616 -0.68997961 149 136 122
-0.044344459 -0.48514917 -0.68958503 147 134 124
-0.044539388 -0.48333421 -0.68893462 131 135 122
-0.043362148 -0.48307988 -0.68904114 140 133 124
-0.044127557 -0.48440185 -0.68936604 143 134 123
-0.043856479 -0.48478615 -0.68954146 148 133 124
-0.042299751 -0.48264968 -0.68906897 146 131 125
-0.037143908 -0.48527059 -0.69089341 123 137 120
-0.039333295 -0.48486161 -0.69028062 130 143 116
-0.037691347 -0.48574701 -0.69093883 127 137 120
-0.040142182 -0.48619184 -0.69056278 139 140 119
-0.039468218 -0.48248738 -0.68950802 137 135 121
-0.039284192 -0.4840138 -0.69001836 130 141 117
-0.040676679 -0.48278549 -0.68937802 151 131 125
-0.040386185 -0.48499691 -0.69012177 140 139 119
-0.040512059 -0.48510295 -0.69013166 141 140 119
-0.039076887 -0.48257738 -0.68960834 131 137 120
-0.035051912 -0.48522085 -0.69146883 118 136 120
-0.03510654 -0.48513928 -0.69142562 118 136 120
-0.03705899 -0.48495167 -0.69080573 121 138 119
-0.03556883 -0.48452213 -0.69108403 120 135 119
-0.036728863 -0.48471519 -0.69081891 120 137 119
-0.036743969 -0.48454526 -0.6907562 119 138 118
-0.058659069 -0.48946834 -0.68947989 128 150 114
-0.057034966 -0.48730791 -0.68871278 105 160 113
-0.06000299 -0.49015674 -0.68965966 153 140 117
-0.056649569 -0.48891455 -0.68940812 90 166 109
-0.058568072 -0.49003455 -0.68972147 123 152 112
-0.057427932 -0.48833436 -0.68910694 108 159 112
-0.057122286 -0.48640978 -0.68835324 112 159 114
-0.056308977 -0.49011809 -0.68994808 89 165 108
-0.053003721 -0.48918769 -0.68997008 152 140 118
-0.056392096 -0.49001694 -0.68989706 89 166 107
-0.054843236 -0.48980817 -0.68999952 115 155 111
-0.055161115 -0.48712674 -0.68885994 134 149 115
-0.05632684 -0.48669687 -0.68853128 108 160 113
-0.056243554 -0.48932767 -0.68963116 96 163 108
-0.055402435 -0.48731706 -0.68890756 127 152 114
-0.056495111 -0.4890759 -0.68949443 92 165 109
-0.050383858 -0.48992485 -0.69061893 139 148 117
-0.049154267 -0.48923096 -0.69051749 139 147 117
-0.049849398 -0.48860154 -0.69018722 140 143 117
-0.049338117 -0.48784268 -0.68996656 140 140 117
-0.049892552 -0.48819935 -0.69002897 140 141 117
-0.04905168 -0.48964784 -0.69068915 138 150 117
-0.051596865 -0.48907498 -0.69013631 141 140 117
-0.052349664 -0.48911384 -0.69003338 152 139 118
-0.051164839 -0.48827177 -0.68987876 147 138 118
-0.051724076 -0.48887461 -0.69003499 146 139 118
-0.045125667 -0.48666096 -0.68999547 150 136 123
-0.045771148 -0.48845899 -0.69060409 147 143 121
-0.047857922 -0.48970583 -0.69084734 141 150 118
-0.046018809 -0.48828527 -0.69051147 147 142 121
-0.046132986 -0.48869845 -0.69065505 146 144 120
-0.046774324 -0.48823205 -0.690409 145 144 120
-0.047637768 -0.48772207 -0.69011986 143 141 119
-0.048147719 -0.48842752 -0.69033098 140 145 118
-0.047804795 -0.48900476 -0.69058806 141 147 119
-0.048598319 -0.48978198 -0.69079494 138 151 117
-0.047763854 -0.48678601 -0.68975073 143 137 119
-0.048204761 -0.48654795 -0.68961155 142 136 119
-0.04160627 -0.48805007 -0.69103098 146 140 119
-0.043991499 -0.48951715 -0.69122976 147 144 120
-0.041976582 -0.48814145 -0.69100553 146 141 119
-0.041641306 -0.48964411 -0.6916827 149 138 120
-0.041442048 -0.48866099 -0.691311 147 139 119
-0.042999629 -0.48649573 -0.69021571 147 138 120
-0.043817271 -0.48705971 -0.69031793 148 139 121
-0.044673312 -0.48665038 -0.69004744 150 136 123
-0.044751082 -0.49001467 -0.69130731 148 144 120
-0.043643758 -0.4881328 -0.69074661 147 142 120
-0.038236402 -0.48792246 -0.69167536 125 137 119
-0.039943952 -0.48701301 -0.69093364 137 140 119
-0.039900638 -0.48904464 -0.69178122 140 137 120
-0.040430844 -0.48675144 -0.69072127 140 140 118
-0.039717212 -0.48821756 -0.69147933 137 137 119
-0.03726152 -0.48676866 -0.69141132 125 135 121
-0.040492043 -0.48636895 -0.6905508 141 140 119
-0.036885485 -0.48730135 -0.69172317 118 135 120
-0.057438578 -0.49372801 -0.69126409 136 144 118
-0.058986723 -0.49263746 -0.69068807 113 157 113
-0.057514481 -0.49230894 -0.69069523 113 155 113
-0.058654133 -0.49407503 -0.69128829 138 145 118
-0.057410393 -0.49409634 -0.69141257 143 141 119
-0.05774929 -0.49266255 -0.6908133 117 154 114
-0.057464782 -0.49036479 -0.68994033 98 162 108
-0.058687162 -0.49123397 -0.69017577 116 155 112
-0.059710082 -0.49144545 -0.69017625 136 147 115
-0.054840736 -0.4938297 -0.69154364 154 135 119
-0.054042608 -0.49168471 -0.69083828 144 141 118
-0.052758172 -0.49387348 -0.69173741 166 130 119
-0.054846898 -0.49351189 -0.69142848 152 136 119
-0.055065151 -0.4939889 -0.69158185 154 135 120
-0.05481369 -0.49238768 -0.69102585 144 140 119
-0.05538284 -0.49285719 -0.69114566 144 140 119
-0.056314286 -0.49354658 -0.69130605 142 141 119
-0.054907404 -0.49226636 -0.69096911 142 141 118
-0.054773849 -0.49083823 -0.69041979 120 151 113
-0.056595299 -0.4915038 -0.6904633 103 158 111
-0.054791082 -0.49143991 -0.69065601 129 147 115
-0.052306738 -0.49360466 -0.69170588 161 133 119
-0.050082222 -0.49230355 -0.69156629 140 146 116
-0.05240465 -0.490998 -0.69075131 145 141 117
-0.050769966 -0.49134892 -0.69112009 138 147 116
-0.052068777 -0.49352089 -0.69171089 160 134 119
-0.052580256 -0.49074164 -0.69063288 144 141 117
-0.050213419 -0.49125245 -0.69115609 137 148 116
-0.05157841 -0.49044874 -0.69066286 140 146 117
-0.051310148 -0.49041668 -0.69068563 139 147 116
-0.04962099 -0.49066404 -0.6910044 138 150 117
-0.048115537 -0.49158117 -0.6915496 137 149 117
-0.048805438 -0.491799 -0.69155425 136 150 117
-0.04802252 -0.4910782 -0.69136417 138 150 117
-0.045542825 -0.49054864 -0.69143087 145 146 120
-0.043896668 -0.49043286 -0.69162351 148 142 120
-0.057813291 -0.49423385 -0.69142652 142 142 119
-0.05355471 -0.49417695 -0.69177884 163 132 119
-0.059636224 -0.51317483 -0.69966429 147 142 124
-0.057295289 -0.51416045 -0.70038414 154 140 126
-0.046544567 -0.45082831 -0.68009716 129 135 120
-0.04324669 -0.4505842 -0.68033183 108 143 112
-0.04151639 -0.44943678 -0.68025035 97 140 114
-0.041335203 -0.44900805 -0.68018597 97 140 114
-0.042873237 -0.45103937 -0.6804415 104 144 111
-0.042207073 -0.44888994 -0.68010545 102 139 114
-0.041860163 -0.44883552 -0.68011761 101 139 114
-0.040666901 -0.44939342 -0.68030167 94 140 114
-0.039272726 -0.4480994 -0.68015766 95 136 116
-0.039651968 -0.44869664 -0.68024123 94 138 114
-0.039907169 -0.44970399 -0.68040699 92 141 113
-0.040708862 -0.45096031 -0.68057859 91 144 112
-0.039181817 -0.44947255 -0.68040615 93 139 114
-0.037989285 -0.4510856 -0.68065941 93 137 118
-0.039530467 -0.4499166 -0.6804601 92 140 114
-0.040491514 -0.45085716 -0.68056917 92 143 112
-0.033364687 -0.45114967 -0.68149477 92 136 117
-0.036435034 -0.45101228 -0.68080634 93 136 119
-0.055183824 -0.45456237 -0.68031049 137 131 119
-0.053074125 -0.4546977 -0.6803382 93 140 117
-0.054270942 -0.45463598 -0.68032515 118 134 118
-0.055740014 -0.45436978 -0.68026489 144 131 119
-0.055105764 -0.45355895 -0.68010342 126 135 120
-0.050474085 -0.45392153 -0.6803124 112 135 123
-0.049597517 -0.45461166 -0.68046564 112 137 123
-0.050635651 -0.4535116 -0.68023705 115 134 123
-0.049699187 -0.4542127 -0.68039477 115 137 123
-0.050966892 -0.45294818 -0.68012089 112 134 123
-0.051143173 -0.45385116 -0.68027133 108 136 122
-0.051512692 -0.45389763 -0.68026042 103 136 121
-0.048028834 -0.45167691 -0.68009001 137 131 125
-0.04737493 -0.45207834 -0.68022192 128 135 121
-0.047647834 -0.45374423 -0.68047249 116 141 119
-0.047882825 -0.45413011 -0.68051338 115 140 120
-0.045147602 -0.45148131 -0.68034357 118 144 112
-0.046834975 -0.45487636 -0.6807121 119 140 120
-0.045353007 -0.45215622 -0.68042761 119 144 113
-0.046765033 -0.45454153 -0.68066776 118 141 120
-0.046352305 -0.45301399 -0.68047321 117 142 116
-0.042613655 -0.4545933 -0.68099403 120 139 117
-0.042856786 -0.45449388 -0.68096191 119 140 117
-0.042450611 -0.45422834 -0.6809516 117 139 117
-0.041540574 -0.45456016 -0.68106574 119 138 116
-0.043045815 -0.45328641 -0.68076938 109 143 115
-0.044393323 -0.45388031 -0.6807602 119 142 117
-0.042343087 -0.45154497 -0.68056005 101 144 112
-0.044469323 -0.45352674 -0.68070167 119 143 116
-0.044621613 -0.45279866 -0.68058151 118 143 114
-0.043129031 -0.4523423 -0.6806221 107 144 113
-0.039363649 -0.45468032 -0.68126869 115 136 117
-0.039715536 -0.45499593 -0.68130416 117 136 116
-0.037872843 -0.45425203 -0.68133241 107 136 117
-0.037904024 -0.45411885 -0.68129766 106 137 116
-0.039790545 -0.45491746 -0.68127739 117 136 116
-0.038319096 -0.4534032 -0.68108344 106 136 117
-0.038887389 -0.45173764 -0.68073446 97 138 117
-0.040116183 -0.45169622 -0.68069965 96 141 114
-0.040312573 -0.45275334 -0.68085182 104 139 115
-0.040529527 -0.45253399 -0.68081427 103 141 115
-0.039871089 -0.45211968 -0.68076813 99 139 115
-0.040384427 -0.45144346 -0.68065596 94 142 113
-0.036197104 -0.45422789 -0.68160665 103 137 116
-0.0352013 -0.45485556 -0.68194443 102 137 114
-0.034521129 -0.45265588 -0.68159652 96 137 116
-0.035276841 -0.4535906 -0.68165076 100 137 116
-0.033413667 -0.45221499 -0.68172139 94 136 116
-0.035056397 -0.45326737 -0.68162376 99 137 116
-0.035841659 -0.4523375 -0.68123943 96 136 117
-0.037086811 -0.45445964 -0.68147033 104 137 116
-0.03493689 -0.45160395 -0.6812619 94 136 118
-0.036301687 -0.45328495 -0.68136317 99 136 117
-0.034542914 -0.45148826 -0.68131953 93 136 117
-0.032129087 -0.45469379 -0.682567 96 136 113
-0.033078037 -0.4521513 -0.68177813 93 136 115
-0.053600401 -0.45636356 -0.68063676 105 140 118
-0.053460784 -0.45616502 -0.68060112 102 140 118
-0.054606237 -0.45607266 -0.68058091 124 135 120
-0.050975226 -0.45746168 -0.68092662 109 145 116
-0.049487114 -0.45717356 -0.68096679 110 143 118
-0.049440365 -0.45569295 -0.68066329 112 141 121
-0.049181875 -0.45725867 -0.68100494 110 143 118
-0.049747527 -0.45758176 -0.68103385 110 144 118
-0.049859136 -0.45787433 -0.68108702 109 145 117
-0.050552342 -0.45617706 -0.68070352 107 142 118
-0.051037125 -0.45559818 -0.68057585 101 141 119
-0.051377181 -0.45524734 -0.68049651 96 140 119
-0.051518433 -0.45510241 -0.68046367 94 141 118
-0.049706984 -0.45585844 -0.68068194 111 141 120
-0.050065055 -0.45612195 -0.68071467 110 141 119
-0.045247491 -0.45626336 -0.68110782 124 142 119
-0.045866564 -0.45866171 -0.68152905 124 143 119
-0.047719099 -0.45792186 -0.68125737 113 144 117
-0.046780705 -0.45709664 -0.68116271 117 144 118
-0.046504643 -0.45881775 -0.68151504 120 144 118
-0.048345331 -0.45608416 -0.68082547 113 141 120
-0.046150997 -0.45584732 -0.68095839 120 142 119
-0.047729209 -0.45673048 -0.68101037 114 142 119
-0.047579505 -0.45608839 -0.68088979 116 141 120
-0.047891121 -0.45683074 -0.6810177 114 142 119
-0.047713079 -0.45526677 -0.68070853 117 140 121
-0.043136425 -0.4576281 -0.68151593 126 139 118
-0.042372804 -0.45657873 -0.68137151 125 138 117
-0.04250269 -0.45723397 -0.68148148 125 139 117
-0.041290782 -0.45838308 -0.68175662 122 139 116
-0.042168166 -0.45629492 -0.68133235 125 137 117
-0.043270592 -0.4554956 -0.68109977 124 139 118
-0.043828323 -0.45661709 -0.68127698 126 140 118
-0.044824407 -0.45698035 -0.68127614 127 141 119
-0.044836599 -0.456536 -0.6811893 126 141 119
-0.043595966 -0.45707959 -0.68138313 127 140 118
-0.03878434 -0.45677963 -0.68173254 113 138 116
-0.037139818 -0.45583463 -0.68178171 108 138 116
-0.038860306 -0.4583984 -0.68209606 117 140 117
-0.03715799 -0.45739636 -0.68214136 113 139 117
-0.038095552 -0.45768553 -0.68205535 115 139 117
-0.037945751 -0.45817578 -0.6821937 116 139 117
-0.038188867 -0.45533994 -0.68153882 110 137 116
-0.040147789 -0.45643157 -0.68151832 119 137 116
-0.038833681 -0.45520699 -0.68144387 113 137 116
-0.04043863 -0.45615643 -0.68143696 120 137 116
-0.040443666 -0.45585486 -0.68138236 120 137 116
-0.039984204 -0.45535916 -0.68134421 119 136 116
-0.034807757 -0.45675528 -0.68246609 107 138 115
-0.034193959 -0.45630577 -0.6824944 104 138 114
-0.034232974 -0.45642099 -0.68251783 105 137 114
-0.035901751 -0.45840991 -0.68266398 115 139 117
-0.034444522 -0.45772853 -0.68284357 112 137 115
-0.036711905 -0.45678055 -0.68208599 110 138 117
-0.0361664 -0.45652822 -0.68213671 108 139 116
-0.036963712 -0.45580143 -0.68180811 108 138 116
-0.036627471 -0.45833468 -0.68246377 115 140 117
-0.035764173 -0.45568857 -0.68202239 105 137 115
-0.036695801 -0.4577696 -0.68231887 113 140 117
-0.031375203 -0.45883524 -0.68386811 108 137 113
-0.031247351 -0.45799008 -0.68368012 106 136 114
-0.031419139 -0.45795557 -0.68363702 106 136 114
-0.030186318 -0.45707247 -0.6836679 98 137 113
-0.03144059 -0.45808145 -0.68366373 107 137 113
-0.031849049 -0.45607707 -0.68301827 100 136 113
-0.031962164 -0.45639127 -0.68308187 102 135 113
-0.031445652 -0.45569187 -0.68300545 97 136 114
-0.03119581 -0.45583516 -0.68310875 97 136 114
-0.048924502 -0.46063599 -0.68167323 131 144 121
-0.049109876 -0.45974272 -0.68150061 115 146 117
-0.045266151 -0.46112648 -0.68204653 132 144 118
-0.045082457 -0.46115521 -0.68206817 131 144 118
-0.045139465 -0.46129763 -0.68209106 131 144 117
-0.044939443 -0.46213874 -0.68227321 130 145 116
-0.045248169 -0.46174502 -0.68216926 133 144 118
-0.047045965 -0.45921806 -0.68155134 121 144 118
-0.042077061 -0.46044791 -0.68212587 126 141 116
-0.042982426 -0.46096385 -0.68215603 126 143 115
-0.04282954 -0.46161669 -0.68233216 130 142 117
-0.042932857 -0.46052167 -0.68207163 126 142 116
-0.042353235 -0.45990926 -0.68198484 124 141 116
-0.044419911 -0.46231595 -0.68233806 129 145 115
-0.044322401 -0.46076974 -0.68204087 128 143 117
-0.041997205 -0.45956773 -0.68193829 124 140 116
-0.044205174 -0.461173 -0.68212652 128 144 116
-0.037516955 -0.46000513 -0.68273181 121 140 119
-0.037173703 -0.46268895 -0.68359476 122 138 117
-0.037365768 -0.46184194 -0.68330461 122 138 118
-0.038192801 -0.46091643 -0.68285626 125 139 119
-0.038580462 -0.46172136 -0.68301076 128 138 119
-0.038039047 -0.46176729 -0.68313944 125 139 118
-0.040109161 -0.46050206 -0.68239993 128 139 118
-0.039769869 -0.46088114 -0.68254822 130 139 119
-0.039800346 -0.45981041 -0.68228096 124 139 117
-0.039344013 -0.46032301 -0.68248105 127 139 118
-0.04090894 -0.45900267 -0.68190205 121 140 116
-0.039391566 -0.46079007 -0.68258768 129 138 119
-0.036202125 -0.46260002 -0.68379694 122 137 117
-0.033730131 -0.46094844 -0.68393159 122 136 116
-0.034712367 -0.46058279 -0.68360764 119 136 115
-0.035008606 -0.46124297 -0.68371475 120 137 116
-0.036148131 -0.4617326 -0.68357623 120 138 116
-0.035153795 -0.45966786 -0.68322635 118 138 116
-0.036136638 -0.45954591 -0.6829356 118 139 117
-0.036637053 -0.46050042 -0.68308675 119 139 118
-0.036251429 -0.46129295 -0.68342006 119 138 117
-0.033086378 -0.45980981 -0.68377447 119 136 115
-0.031821586 -0.45909673 -0.68384475 111 137 113
-0.03880791 -0.46443194 -0.68378347 129 137 119
-0.038291272 -0.46340796 -0.68356931 128 138 119
-0.036683183 -0.46306291 -0.68381375 122 138 118
-0.057640687 -0.50481015 -0.69579691 145 137 123
-0.058212835 -0.50546104 -0.69602251 138 139 122
-0.057743523 -0.50561112 -0.69614071 139 138 123
-0.05346274 -0.50550777 -0.69657052 138 136 122
-0.054306965 -0.50459784 -0.69606262 143 136 123
-0.053943049 -0.50426137 -0.69595093 144 136 123
-0.055691224 -0.5054642 -0.69629979 143 136 125
-0.055315673 -0.50457436 -0.69594312 147 135 124
-0.055103112 -0.50434387 -0.69586349 147 136 124
-0.052609101 -0.50562668 -0.69672686 135 137 120
-0.061777797 -0.50930184 -0.69754833 145 137 124
-0.061586771 -0.50946414 -0.69764185 145 136 124
-0.05818304 -0.50764412 -0.69707561 145 135 124
-0.057572927 -0.5071398 -0.69689232 145 135 125
-0.059687953 -0.50955242 -0.69784063 147 135 124
-0.059727103 -0.50970221 -0.69790763 147 135 123
-0.056827515 -0.50703299 -0.69690806 144 137 125
-0.059073266 -0.50721604 -0.69677216 139 137 123
-0.05932872 -0.50780666 -0.69703472 142 136 123
-0.059277471 -0.50707901 -0.69668221 138 137 122
-0.059775215 -0.50775021 -0.69695783 139 137 122
-0.060115289 -0.50730658 -0.696702 134 139 121
-0.059729055 -0.50792956 -0.69705117 140 136 122
-0.055242792 -0.50969201 -0.69837701 148 140 123
-0.055358071 -0.50636321 -0.6967538 141 137 123
-0.05408271 -0.50710177 -0.69724512 138 139 121
-0.05648509 -0.50671226 -0.69679111 143 137 125
-0.054675754 -0.50758219 -0.69740438 140 139 122
-0.053541489 -0.50629163 -0.69692469 137 138 121
-0.05477928 -0.50661349 -0.69693679 140 137 123
-0.051837895 -0.50711823 -0.6975767 141 137 121
-0.052670043 -0.50699317 -0.69739228 141 137 121
-0.057564836 -0.51166326 -0.69909191 155 137 126
-0.056829378 -0.51048982 -0.69856161 149 140 125
-0.057257053 -0.51163477 -0.69910467 154 138 126
-0.056154646 -0.51119602 -0.69900006 153 139 125
-0.055976175 -0.51055676 -0.69869894 150 140 124
-0.055989999 -0.51029688 -0.6985653 149 140 124
-0.03482803 -0.42741495 -0.67775583 95 145 113
-0.035016075 -0.42762411 -0.67777157 96 144 113
-0.033556595 -0.42773104 -0.67781389 85 149 111
-0.034250993 -0.42757261 -0.67778355 90 147 112
-0.030934012 -0.4276481 -0.67806351 89 143 114
-0.031543117 -0.42689043 -0.67792892 93 146 114
-0.031206556 -0.42753792 -0.67802376 89 144 114
-0.032557435 -0.42714295 -0.67784011 89 148 113
-0.031719625 -0.42624655 -0.67785203 99 147 115
-0.032931998 -0.42676318 -0.6777609 88 151 111
-0.032524791 -0.42587164 -0.67772311 96 150 112
-0.025559323 -0.42762828 -0.67870736 86 140 113
-0.025175879 -0.42688763 -0.67866296 87 140 114
-0.023540024 -0.42566642 -0.67864847 87 140 114
-0.034464017 -0.43015245 -0.67808896 92 143 116
-0.03506235 -0.42995763 -0.67804897 95 142 116
-0.035321821 -0.43095484 -0.67816597 97 139 118
-0.034269616 -0.43008456 -0.67808563 90 143 115
-0.033736121 -0.43133622 -0.67825508 88 141 116
-0.035242349 -0.43033287 -0.67809087 97 141 117
-0.035742398 -0.42822093 -0.67782444 100 141 115
-0.035403337 -0.42822421 -0.67783225 98 142 115
-0.034154184 -0.42856655 -0.67790079 89 146 113
-0.035882179 -0.42883718 -0.67789513 101 140 116
-0.032526739 -0.43140128 -0.67836732 86 141 116
-0.029994054 -0.42994785 -0.67850399 88 138 116
-0.030012188 -0.42971069 -0.67846334 89 138 116
-0.030557735 -0.43119991 -0.67862231 86 139 116
-0.031741854 -0.43047795 -0.67833388 88 140 116
-0.032184817 -0.42843914 -0.67802137 86 145 113
-0.032284118 -0.42906845 -0.67808855 86 144 114
-0.030749042 -0.42779621 -0.67809927 89 142 114
-0.031989548 -0.42999661 -0.67823613 87 141 116
-0.030838333 -0.42865261 -0.67819577 90 140 115
-0.028971275 -0.42897615 -0.67849082 89 138 116
-0.028759455 -0.42969286 -0.6786322 87 138 116
-0.027634455 -0.42898279 -0.67865926 87 138 115
-0.029265942 -0.43136913 -0.67883736 85 138 116
-0.028818406 -0.42915779 -0.67853904 89 137 116
-0.037852749 -0.43484929 -0.67847282 97 135 119
-0.039477937 -0.43480507 -0.67840463 96 137 118
-0.037197053 -0.4345457 -0.67847049 99 135 120
-0.037798129 -0.43452847 -0.67844516 98 136 119
-0.040715501 -0.43461633 -0.67834818 96 139 116
-0.035949573 -0.43479323 -0.67855954 94 136 118
-0.034108985 -0.43524069 -0.67883003 98 138 117
-0.034852248 -0.43330687 -0.67841959 90 138 117
-0.03359209 -0.4335185 -0.67858857 93 139 117
-0.036194004 -0.4349452 -0.67855984 95 136 119
-0.03339611 -0.43268469 -0.67846596 89 141 116
-0.033873495 -0.43221098 -0.67834228 88 140 117
-0.035795622 -0.43231046 -0.67830086 99 137 120
-0.036952514 -0.43404606 -0.67843163 100 134 120
-0.036454547 -0.43420056 -0.67845911 96 136 119
-0.035230026 -0.43221623 -0.678307 96 138 119
-0.029988987 -0.43250251 -0.6789192 88 138 116
-0.031532198 -0.43524495 -0.67913109 98 138 116
-0.030292341 -0.43456668 -0.67917949 95 138 116
-0.029298386 -0.43258801 -0.6790126 87 138 116
-0.031855788 -0.43471709 -0.67901736 96 139 116
-0.030962233 -0.431692 -0.67864275 85 140 116
-0.031841855 -0.43343222 -0.67881334 92 139 116
-0.031375151 -0.43200603 -0.67863643 86 139 116
-0.032964319 -0.43339473 -0.67864311 92 140 116
-0.032750074 -0.43362236 -0.67871344 93 140 117
-0.032752741 -0.43175861 -0.67839295 86 141 116
-0.028638097 -0.43463382 -0.67935532 100 136 117
-0.028984411 -0.43424824 -0.67927414 96 136 116
-0.047841355 -0.43918684 -0.67842728 99 138 118
-0.041942801 -0.43892571 -0.67869216 100 135 118
-0.041187741 -0.43632126 -0.67847973 93 139 116
-0.042769358 -0.43807772 -0.67854971 92 138 116
-0.044451885 -0.43923435 -0.67855197 87 138 115
-0.041523907 -0.43612561 -0.67843693 91 140 115
-0.042600952 -0.43580881 -0.67832947 98 139 116
-0.042756297 -0.43650779 -0.67839044 94 140 115
-0.042231049 -0.43665835 -0.67844242 90 139 115
-0.044187475 -0.43817016 -0.67846149 90 139 115
-0.039902538 -0.4372043 -0.67862487 99 135 118
-0.038515013 -0.43685132 -0.67864382 99 134 119
-0.040441383 -0.43581486 -0.6784628 93 139 116
-0.039423216 -0.43655971 -0.67857844 97 136 118
-0.038921021 -0.43666482 -0.67860889 98 135 119
-0.036244068 -0.43627697 -0.67873466 102 136 119
-0.036066018 -0.43612495 -0.67873746 101 135 119
-0.031487897 -0.43571532 -0.67920095 99 138 116
-0.046964303 -0.44219652 -0.67877495 95 137 116
-0.045814898 -0.44188634 -0.67881918 90 136 115
-0.046208542 -0.44159818 -0.67874801 92 137 116
-0.045830607 -0.44144598 -0.6787554 90 137 116
-0.046319004 -0.44302523 -0.67894226 92 136 115
-0.045092046 -0.44232324 -0.67893678 86 136 115
-0.045850955 -0.4395923 -0.67852741 89 138 116
-0.048637498 -0.44037679 -0.67851865 100 138 118
-0.047670189 -0.44135615 -0.67864096 98 137 117
-0.047631696 -0.44196406 -0.67870003 99 137 117
-0.047508448 -0.44046214 -0.67856067 96 138 117
-0.042466994 -0.44144279 -0.67898911 95 135 118
-0.04254178 -0.44225749 -0.67909497 89 137 117
-0.041375171 -0.44266748 -0.67922294 85 142 117
-0.04156414 -0.44186413 -0.67910218 91 138 118
-0.042094696 -0.44301951 -0.6792261 84 141 117
-0.044558752 -0.43967292 -0.67859811 88 138 116
-0.044538416 -0.44070721 -0.6787464 87 137 115
-0.04459095 -0.44041762 -0.6787017 87 137 115
-0.044252053 -0.43960196 -0.67860895 89 137 116
-0.042335339 -0.44075105 -0.67890322 99 133 118
-0.043662846 -0.44112733 -0.67886597 92 135 116
-0.038415261 -0.44235781 -0.67928392 100 140 120
-0.037612945 -0.44205397 -0.67926747 106 140 120
-0.038590081 -0.44178113 -0.67921275 102 140 119
-0.03931402 -0.44259956 -0.67929083 94 142 118
-0.037608322 -0.44252402 -0.67932224 104 140 121
-0.039449163 -0.44281033 -0.67931211 92 143 118
-0.035620082 -0.44196996 -0.67946273 105 139 120
-0.035964791 -0.4432252 -0.6795947 101 141 120
-0.035395231 -0.44236478 -0.67955768 103 139 120
-0.032637838 -0.44215333 -0.67995125 99 137 118
-0.049024329 -0.44706169 -0.67924613 97 138 119
-0.045394141 -0.44724059 -0.67962897 109 131 123
-0.047052495 -0.44665423 -0.67937195 98 136 119
-0.045236297 -0.44702733 -0.67961317 109 131 122
-0.046401501 -0.44342273 -0.67899132 92 136 116
-0.047770668 -0.44366395 -0.6789161 98 137 117
-0.046271749 -0.44378248 -0.67904592 90 136 116
-0.047663748 -0.44571722 -0.67917919 93 138 117
-0.044681467 -0.44711465 -0.67967272 110 130 123
-0.041182183 -0.44703782 -0.67985696 97 135 117
-0.041400116 -0.44509655 -0.67956656 89 139 118
-0.042289075 -0.44473544 -0.67946523 90 139 119
-0.041222658 -0.44340965 -0.67933381 80 144 117
-0.042759579 -0.44460067 -0.67941654 91 138 118
-0.044260491 -0.44434366 -0.67928517 91 135 117
-0.044701718 -0.44520077 -0.6793859 97 133 119
-0.037626389 -0.44610399 -0.67990136 97 136 118
-0.038786538 -0.44671842 -0.67994028 97 135 117
-0.038572084 -0.44549623 -0.67972988 99 137 118
-0.037800465 -0.44679347 -0.6800167 96 134 117
-0.037687462 -0.44494393 -0.67968482 100 139 119
-0.038491312 -0.44472313 -0.67959398 101 139 119
-0.040247075 -0.44396853 -0.67944449 87 142 118
-0.037868999 -0.44363055 -0.67945206 100 141 120
-0.04095035 -0.44365272 -0.67938262 82 143 117
-0.03912852 -0.44405341 -0.67948294 94 142 119
-0.040243305 -0.44409463 -0.67946261 88 142 118
-0.036814954 -0.44656539 -0.68006611 95 134 117
-0.036702018 -0.44365978 -0.67955154 101 141 121
-0.036877237 -0.44474438 -0.67972225 99 139 119
-0.054216079 -0.45037714 -0.67953175 104 139 122
-0.054334845 -0.4495081 -0.67938381 107 140 122
-0.055679966 -0.45038146 -0.67947811 110 142 123
-0.05380154 -0.45084789 -0.67962486 102 138 122
-0.054555796 -0.44975755 -0.67941684 107 140 122
-0.055364363 -0.45101741 -0.67959487 108 142 123
-0.055123031 -0.44932184 -0.67932349 112 140 122
-0.04922929 -0.44780788 -0.67935002 97 137 120
-0.049025957 -0.44871354 -0.67951041 112 134 122
-0.050783288 -0.45047182 -0.67970675 113 132 124
-0.04999046 -0.44946545 -0.67958301 110 133 123
-0.051525928 -0.44922343 -0.67946088 98 137 120
-0.05004447 -0.44763353 -0.6792776 98 137 120
-0.050193992 -0.44765991 -0.67927396 99 138 120
-0.050164979 -0.44765666 -0.67927498 99 138 120
-0.047310472 -0.45106247 -0.68005931 136 132 123
-0.047146168 -0.45027018 -0.6799469 133 129 125
-0.045584928 -0.4493202 -0.6799472 119 135 119
-0.04831893 -0.45097604 -0.67994541 143 127 128
-0.048322991 -0.44734243 -0.6793462 98 137 120
-0.048674755 -0.44813338 -0.67944086 108 135 122
-0.04882057 -0.44728652 -0.67928618 96 139 119
-0.047197953 -0.44783843 -0.67954308 109 133 122
-0.046328373 -0.44815618 -0.67968434 118 129 124
-0.047881473 -0.4481124 -0.67951846 111 133 122
-0.042730708 -0.44878432 -0.68005663 104 138 115
-0.044503573 -0.44792315 -0.67981195 110 133 120
-0.0447619 -0.44764298 -0.67975134 111 132 121
-0.041550964 -0.44774622 -0.67995363 99 135 117
-0.039924584 -0.44748279 -0.68000585 96 135 116
-0.053962499 -0.45276582 -0.6799587 100 139 120
-0.053279303 -0.45296517 -0.68001366 93 139 119
-0.054926232 -0.45301905 -0.67999315 116 138 120
-0.055026405 -0.4526509 -0.67991412 112 139 121
-0.054872409 -0.4517099 -0.6797331 103 141 122
-0.055515792 -0.45122534 -0.67962414 108 142 123
-0.052230626 -0.45298618 -0.68006241 97 137 120
-0.05133998 -0.45275477 -0.68006748 108 134 123
-0.049489237 -0.45129922 -0.67991275 138 127 129
-0.037620939 -0.48856321 -0.69206578 115 137 119
-0.039393667 -0.49020532 -0.69235647 127 138 118
-0.03790044 -0.48809892 -0.69181979 122 136 120
-0.035321482 -0.48653397 -0.69183582 118 137 120
-0.049769502 -0.49370381 -0.69214457 142 143 117
-0.049814932 -0.49330252 -0.69198036 142 144 117
-0.045883294 -0.49297622 -0.69236362 136 143 120
-0.046729419 -0.4929435 -0.69224656 137 144 119
-0.046440497 -0.49316314 -0.69236976 135 144 119
-0.046266414 -0.49306935 -0.69235373 136 143 120
-0.048665188 -0.49245661 -0.69182724 135 149 117
-0.048442859 -0.49324363 -0.69216096 134 147 117
-0.043929193 -0.49209043 -0.69228816 141 141 120
-0.044574898 -0.49226367 -0.69225311 139 142 121
-0.044383265 -0.49280846 -0.69250166 137 141 121
-0.043108426 -0.49138427 -0.69213873 144 139 120
-0.041582059 -0.4905979 -0.69207931 148 136 120
-0.043925084 -0.49316671 -0.69272226 136 139 121
-0.041461539 -0.49138507 -0.69243526 139 137 120
-0.041171677 -0.49120802 -0.69241542 139 137 120
-0.04187059 -0.49159369 -0.69244546 139 137 120
-0.040556151 -0.49170181 -0.69275367 125 139 119
-0.040561263 -0.49159402 -0.69270641 127 138 119
-0.040954877 -0.49201462 -0.69280416 127 139 120
-0.038937408 -0.49029031 -0.6924879 119 139 117
-0.058666199 -0.4972887 -0.69257659 147 141 119
-0.057021577 -0.49585804 -0.69211954 147 142 119
-0.059811797 -0.49754736 -0.6926173 146 140 119
-0.056643322 -0.49499571 -0.69181377 146 142 119
-0.05826205 -0.4957751 -0.69200563 145 141 119
-0.059803512 -0.49650142 -0.69217986 145 141 119
-0.059477065 -0.49625906 -0.69210553 145 141 119
-0.056555323 -0.49517527 -0.69188899 146 142 119
-0.056207474 -0.49511263 -0.69189608 148 141 119
-0.052817889 -0.49430975 -0.69189483 166 131 119
-0.053263947 -0.49516127 -0.69217467 163 133 120
-0.053572312 -0.49502853 -0.69209844 163 134 119
-0.053894609 -0.49659738 -0.69265705 156 137 120
-0.053499598 -0.49554667 -0.69229835 161 134 120
-0.054140974 -0.49613309 -0.69246227 158 137 120
-0.050551131 -0.49768594 -0.69349635 144 138 122
-0.051314659 -0.49793723 -0.69347274 147 138 122
-0.051145624 -0.49739411 -0.69330078 145 139 121
-0.049422074 -0.49533719 -0.69281244 137 143 118
-0.050058376 -0.49764955 -0.69355732 143 139 122
-0.049736455 -0.49438635 -0.69241261 140 142 118
-0.050391197 -0.4956333 -0.6927734 140 142 119
-0.052687678 -0.49663779 -0.69277966 156 135 120
-0.052407235 -0.49635538 -0.69271922 155 136 120
-0.051411994 -0.49495396 -0.69235545 152 136 119
-0.052198846 -0.49486476 -0.69219559 159 134 119
-0.045494165 -0.49694282 -0.69401461 123 137 121
-0.046451136 -0.49744606 -0.69405562 127 137 121
-0.047017489 -0.49682567 -0.69369698 134 138 122
-0.046601702 -0.49668261 -0.69371068 132 138 122
-0.048219722 -0.49776709 -0.69387752 138 137 123
-0.047100406 -0.49781775 -0.69409615 130 136 122
-0.045820609 -0.49445364 -0.69295019 132 141 121
-0.047889173 -0.49506745 -0.69291914 135 142 119
-0.048520587 -0.49665433 -0.6934185 137 140 121
-0.048272349 -0.49610248 -0.69324833 137 141 120
-0.048323136 -0.49630722 -0.69331658 137 141 120
-0.048797909 -0.49764016 -0.69374281 139 139 122
-0.054098032 -0.49954981 -0.69381016 157 138 123
-0.053101275 -0.50019473 -0.69421089 151 137 123
-0.053217392 -0.50163633 -0.69483793 152 136 124
-0.055163555 -0.50090468 -0.69428974 161 137 124
-0.053946014 -0.50042266 -0.69421524 155 137 123
-0.054071404 -0.50129694 -0.69458926 156 136 124
-0.050231773 -0.50022811 -0.69465542 138 136 122
-0.048875526 -0.4983339 -0.69401067 139 137 122
-0.048917767 -0.4987022 -0.69417244 136 137 122
-0.050666299 -0.50126666 -0.69505984 135 136 121
-0.049682453 -0.49899125 -0.69417906 142 137 123
-0.052491982 -0.50181574 -0.6950109 148 135 124
-0.050364748 -0.49834973 -0.69379014 144 138 122
-0.051442266 -0.49996418 -0.69434506 146 136 123
-0.052390948 -0.4987081 -0.69364429 150 137 122
-0.052688107 -0.50131619 -0.69475806 149 136 124
-0.052638825 -0.5018121 -0.69498575 149 135 124
-0.051075183 -0.49988735 -0.69436616 145 136 123
-0.048635982 -0.49839333 -0.69407958 137 137 122
-0.057372194 -0.50422323 -0.6955741 150 138 124
-0.057892576 -0.50436693 -0.69558179 147 138 123
-0.052974664 -0.50344539 -0.69569033 145 136 123
-0.055106424 -0.50382876 -0.69563127 150 136 123
-0.05617442 -0.50287575 -0.695068 160 136 124
-0.055092908 -0.5030421 -0.69526619 155 136 123
-0.053163193 -0.50227761 -0.69513333 150 136 124
-0.052765734 -0.5030719 -0.6955424 146 136 123
-0.052766602 -0.50205398 -0.69507647 149 135 124
-0.052275132 -0.50283724 -0.69551384 142 136 122
-0.030441662 -0.45882747 -0.68405551 103 138 113
-0.028018471 -0.45762879 -0.68425584 95 138 112
-0.028075967 -0.45829111 -0.68440872 96 138 113
-0.027713099 -0.4576765 -0.68433231 95 138 112
-0.028761882 -0.45879596 -0.684389 96 139 112
-0.034604065 -0.46231097 -0.6840812 125 136 117
-0.033430289 -0.46098918 -0.68400937 123 135 116
-0.031881165 -0.46026897 -0.68413687 114 137 115
-0.031429056 -0.45937461 -0.68399858 110 137 113
-0.032261156 -0.46179789 -0.68445116 120 136 116
-0.031321935 -0.46064898 -0.68434459 112 137 115
-0.031182287 -0.46121579 -0.68451345 113 137 115
-0.031977609 -0.46272421 -0.68473309 121 135 118
-0.030507788 -0.46032915 -0.68442333 107 137 114
-0.029969782 -0.46196103 -0.68492448 109 135 117
-0.029380107 -0.45962974 -0.68446451 99 138 113
-0.032427333 -0.46248177 -0.68458897 123 135 118
-0.02763034 -0.45978934 -0.68487424 98 137 115
-0.028375663 -0.45947966 -0.68463963 98 138 114
-0.038905807 -0.46596566 -0.68423814 129 138 119
-0.038493682 -0.46512279 -0.6840651 127 138 119
-0.037259784 -0.46679536 -0.68480438 123 139 120
-0.037000746 -0.46425363 -0.68409646 122 139 118
-0.033558153 -0.46324286 -0.68456852 127 136 118
-0.035547409 -0.46357292 -0.68422043 124 137 118
-0.036084101 -0.46417016 -0.68427849 124 138 118
-0.03502062 -0.46457294 -0.68463784 125 137 119
-0.03382796 -0.46435806 -0.68480319 127 136 119
-0.036711134 -0.46665823 -0.68487012 122 139 120
-0.033398259 -0.46657637 -0.68544304 128 136 120
-0.035176713 -0.46500522 -0.6847257 124 138 118
-0.033538535 -0.46602592 -0.68527824 129 136 120
-0.029570129 -0.46376771 -0.68545789 114 135 119
-0.03205936 -0.46581438 -0.68550229 124 135 120
-0.029373504 -0.4630937 -0.68531764 109 135 119
-0.02939604 -0.46569139 -0.68600613 123 138 118
-0.030100232 -0.46570352 -0.68586749 124 137 119
-0.030053888 -0.46494228 -0.68567371 119 136 119
-0.032608971 -0.46493644 -0.68517387 125 136 119
-0.032530855 -0.46560642 -0.68535858 125 136 120
-0.032971464 -0.46642739 -0.68548381 128 136 120
-0.030826923 -0.46299529 -0.68501723 116 134 119
-0.032721743 -0.46446937 -0.68503416 126 135 119
-0.031031255 -0.4639174 -0.68521261 117 134 120
-0.028469652 -0.46617004 -0.68634766 122 138 117
-0.037361439 -0.46711341 -0.68488711 126 138 121
-0.033367619 -0.4680461 -0.68589854 125 136 120
-0.035391822 -0.46901304 -0.68582618 131 137 118
-0.034260027 -0.46825439 -0.68579757 129 136 119
-0.034559291 -0.46899208 -0.68597513 127 137 118
-0.0340656 -0.46893281 -0.68604863 125 137 118
-0.036464967 -0.46979186 -0.68587404 131 139 117
-0.035854451 -0.46791059 -0.68540263 128 138 119
-0.035718575 -0.46848255 -0.68560362 129 138 118
-0.035338074 -0.46740577 -0.68533933 127 138 119
-0.035706516 -0.46917105 -0.68581831 131 138 117
-0.030050974 -0.46831208 -0.68666762 121 137 118
-0.030242605 -0.46884862 -0.68680745 117 137 117
-0.031956118 -0.46688989 -0.68581462 129 136 119
-0.031329509 -0.46719769 -0.68603832 128 137 119
-0.032922272 -0.4683333 -0.68607676 123 136 119
-0.03287603 -0.46867225 -0.68619329 122 136 119
-0.032319561 -0.46911871 -0.68644667 121 137 118
-0.035571154 -0.4736304 -0.68726242 120 137 117
-0.035512462 -0.47307155 -0.68707877 121 137 118
-0.036486171 -0.47108147 -0.68627435 129 139 116
-0.034233723 -0.47075483 -0.68659353 119 136 117
-0.035090066 -0.47217876 -0.68687713 121 137 118
-0.036863048 -0.471926 -0.68646699 130 138 116
-0.041845124 -0.47850379 -0.68766898 119 139 123
-0.038788866 -0.47667897 -0.68762678 124 138 121
-0.037675709 -0.47636119 -0.68774408 122 138 119
-0.039687686 -0.47781008 -0.68783271 123 138 123
-0.039105024 -0.47658712 -0.68753105 125 138 122
-0.036431272 -0.47584128 -0.68783277 119 137 117
-0.036486033 -0.47494641 -0.68751281 121 138 117
-0.042284671 -0.47914019 -0.68782175 120 139 123
-0.044730753 -0.47904724 -0.68739957 107 143 115
-0.04318976 -0.47972259 -0.68788165 118 140 121
-0.061350331 -0.48404807 -0.68750048 156 140 120
-0.057494227 -0.48486558 -0.68785125 131 150 117
-0.060455345 -0.48343903 -0.68734241 119 154 116
-0.058824807 -0.48292044 -0.68722421 121 153 117
-0.059778687 -0.48278734 -0.68716109 105 160 115
0 0 0 1 0 0 0 1 0 0 0 1 0 0 0 0 0 754 1 0 0
