ply
format ascii 1.0
comment PCL generated
element vertex 681
property float x
property float y
property float z
property uchar red
property uchar green
property uchar blue
element camera 1
property float view_px
property float view_py
property float view_pz
property float x_axisx
property float x_axisy
property float x_axisz
property float y_axisx
property float y_axisy
property float y_axisz
property float z_axisx
property float z_axisy
property float z_axisz
property float focal
property float scalex
property float scaley
property float centerx
property float centery
property int viewportx
property int viewporty
property float k1
property float k2
end_header
0.050734278 0.45193917 -0.83999407 25 133 116
0.053207643 0.45239091 -0.83998215 20 133 116
0.054647982 0.4512158 -0.83941692 18 132 116
0.054811243 0.45177671 -0.83967847 18 132 116
0.055491053 0.45271084 -0.84010452 17 132 118
0.056175567 0.45143166 -0.83950305 15 134 116
0.058044869 0.45235071 -0.8401497 14 132 117
0.058067854 0.4514769 -0.83974814 14 132 116
0.058520857 0.4512786 -0.83972919 14 132 117
0.059013139 0.45194694 -0.84011376 14 130 117
0.060551871 0.45168257 -0.84019524 14 130 117
0.052621108 0.45025703 -0.83898002 20 133 115
0.056519002 0.44728759 -0.83755392 19 134 113
0.055483993 0.44839412 -0.83806282 18 134 113
0.055361431 0.44855323 -0.83813626 18 134 113
0.055401161 0.4492417 -0.83845961 17 134 114
0.054188885 0.44984195 -0.8387512 18 134 115
0.05444897 0.44912112 -0.83839649 18 134 114
0.053169057 0.44885397 -0.83827841 20 133 114
0.055013426 0.45063406 -0.8391301 17 132 115
0.055196378 0.45098183 -0.83929819 16 134 116
0.059063986 0.44862968 -0.8385151 16 132 114
0.059115369 0.44792929 -0.83815253 17 134 114
0.059182078 0.44915929 -0.83880568 15 134 114
0.05881799 0.44785306 -0.8380813 17 134 114
0.059025716 0.44945243 -0.8389433 15 132 115
0.060262844 0.44906086 -0.83886719 15 134 114
0.059544615 0.45053574 -0.83954614 14 132 116
0.058134414 0.45051661 -0.83931005 14 134 115
0.056810413 0.44969219 -0.83871019 16 134 115
0.058607463 0.44986314 -0.8390798 15 132 115
0.056724295 0.44932476 -0.83852398 17 132 114
0.059201349 0.45067096 -0.83955431 14 132 116
0.063257858 0.4475902 -0.83843893 16 134 114
0.061213702 0.44756255 -0.83817106 17 134 114
0.061614159 0.44764346 -0.83825761 17 134 114
0.062234469 0.44829568 -0.83862931 16 134 114
0.062912181 0.44811377 -0.83863193 16 134 114
0.062203541 0.44982231 -0.83938086 15 132 115
0.061566111 0.44985327 -0.83936489 14 132 115
0.062315881 0.4510605 -0.84003711 14 130 117
0.06088772 0.45049325 -0.83966672 14 132 116
0.061145816 0.44841793 -0.83858949 16 134 114
0.061400056 0.4501825 -0.8395294 14 132 115
0.065140732 0.45102829 -0.84022045 14 134 115
0.068083346 0.44992065 -0.84009194 15 134 114
0.067817144 0.44937187 -0.83984053 15 134 114
0.067952126 0.44963086 -0.83996022 15 134 114
0.065431997 0.45030087 -0.83995742 14 134 115
0.065624729 0.44930828 -0.83954448 14 134 114
0.065490618 0.44877508 -0.83928323 15 134 114
0.066923499 0.44825476 -0.83927006 15 134 114
0.066073455 0.44757798 -0.83883333 16 132 114
0.065034434 0.44727853 -0.83853757 16 134 114
0.065833345 0.44830266 -0.83912307 15 134 114
0.070338838 0.44777888 -0.83972818 15 136 113
0.068532027 0.44826147 -0.83949095 15 136 113
0.070513293 0.44835281 -0.8400026 15 136 113
0.069200031 0.44884431 -0.8398872 15 136 113
0.070787661 0.44839782 -0.84008616 15 134 114
0.055604257 0.44620857 -0.83706337 20 133 112
0.054830343 0.44662544 -0.83724505 21 133 113
0.055879943 0.447155 -0.83748865 19 134 113
0.060199831 0.44607207 -0.83737445 19 134 112
0.058756053 0.44542906 -0.83692914 21 133 112
0.05983644 0.4459216 -0.83726752 19 134 112
0.059740484 0.44593439 -0.83726317 19 134 112
0.057935789 0.446448 -0.83730716 19 134 112
0.059673354 0.44688246 -0.83768743 18 134 113
0.056835432 0.44604051 -0.83700597 20 133 112
0.058601715 0.44682547 -0.83754921 18 134 113
0.061147656 0.44610897 -0.83752 19 134 112
0.062861025 0.44442391 -0.8370164 20 133 112
0.062920146 0.44568667 -0.83757704 18 134 113
0.062467158 0.44617286 -0.83772773 18 134 113
0.063706137 0.44702277 -0.83824503 17 132 114
0.064274877 0.44490546 -0.83741325 19 134 112
0.063466594 0.44443208 -0.83711034 20 132 112
0.062807031 0.44603211 -0.83771026 18 134 113
0.06631133 0.443836 -0.83728904 18 134 113
0.064896651 0.44341001 -0.8368727 20 133 112
0.067965947 0.44454134 -0.837861 16 134 114
0.067888401 0.4456338 -0.838296 16 134 114
0.065526932 0.44419116 -0.83730084 19 134 112
0.066343173 0.44357765 -0.83718848 18 134 113
0.064888887 0.44699588 -0.83839422 17 132 114
0.066323623 0.44595882 -0.83817387 17 134 113
0.065748625 0.44505256 -0.83769852 18 134 113
0.066273704 0.44718245 -0.8386879 16 134 114
0.065580226 0.44551215 -0.83786845 18 134 113
0.071635664 0.44392774 -0.83842254 16 134 114
0.071067654 0.44454724 -0.83855766 16 134 114
0.071936481 0.44556651 -0.83918613 16 134 114
0.070305258 0.44438821 -0.83831841 16 134 114
0.069129817 0.4440951 -0.83792919 16 134 114
0.070444405 0.44469899 -0.83848166 16 134 114
0.070758842 0.44659382 -0.83934516 16 134 114
0.070865944 0.44722047 -0.83962792 16 134 114
0.07104674 0.44613466 -0.83922571 16 134 114
0.069705062 0.4465408 -0.83907092 16 134 114
0.069363683 0.44473332 -0.83824754 16 134 114
0.069441229 0.44690147 -0.83915567 16 134 114
0.075624198 0.4441655 -0.8394649 19 134 114
0.073804431 0.44704452 -0.84023297 16 134 114
0.075307168 0.44426927 -0.83943677 19 134 114
0.073485121 0.446574 -0.83997113 16 134 114
0.072775587 0.4465563 -0.83980256 16 134 114
0.072755821 0.44430479 -0.83884186 16 134 114
0.075205162 0.44387466 -0.8392455 19 134 114
0.075122148 0.44394982 -0.8392576 18 134 114
0.073096484 0.44371083 -0.83867121 16 134 114
0.074134298 0.44410387 -0.83908647 17 134 114
0.076384835 0.4456259 -0.84023148 19 134 114
0.077500097 0.44369602 -0.83974528 20 133 114
0.076925293 0.44398126 -0.83970881 20 133 114
0.076186813 0.44531736 -0.84005433 19 134 114
0.067523912 0.44275695 -0.83703721 17 134 114
0.066086985 0.44227895 -0.83658624 18 134 113
0.065545745 0.44191623 -0.83633542 18 134 113
0.06473206 0.4422642 -0.8363542 19 134 112
0.067044005 0.44319457 -0.83714825 17 134 113
0.065160185 0.44262746 -0.83658439 19 134 112
0.069071829 0.44073787 -0.83643287 15 132 116
0.069557175 0.44197279 -0.83708322 15 134 114
0.06934578 0.4421553 -0.83711922 15 136 113
0.068960361 0.44240752 -0.83714914 15 136 113
0.072252072 0.44043899 -0.83698845 15 132 116
0.069207117 0.44279554 -0.83737707 15 136 113
0.070714928 0.44218817 -0.83743978 15 134 114
0.070404574 0.44185534 -0.83721811 15 134 114
0.070454381 0.44190291 -0.83725101 15 134 114
0.069897518 0.44327512 -0.83775133 15 136 113
0.075567804 0.44024622 -0.83771908 18 134 115
0.075713068 0.44044453 -0.83784378 18 134 115
0.075206086 0.44025993 -0.83763504 17 134 114
0.074700251 0.44083437 -0.8377651 17 134 114
0.074458286 0.43958932 -0.8371495 16 134 115
0.075345553 0.4422853 -0.8385731 18 134 114
0.074189216 0.44303495 -0.83863562 17 132 114
0.074916102 0.44252914 -0.838579 18 132 115
0.072593465 0.44228038 -0.83790958 16 134 115
0.072804481 0.44139397 -0.83755594 16 132 116
0.074629821 0.44305527 -0.83875036 18 134 114
0.07394851 0.44153711 -0.83789504 16 134 115
0.078944594 0.44168553 -0.83930761 21 133 114
0.07870885 0.44324356 -0.83988118 21 133 114
0.077600554 0.44253993 -0.83930117 20 133 114
0.076701142 0.44310918 -0.83929586 20 133 114
0.076861963 0.44267008 -0.83915919 20 133 114
0.077685028 0.4411481 -0.83872908 21 133 115
0.077102408 0.44220802 -0.8390258 20 133 114
0.078560054 0.44029137 -0.8386113 21 133 115
0.076717205 0.44281086 -0.83917826 20 133 114
0.076809935 0.44157928 -0.83865702 20 133 115
0.072156355 0.43922123 -0.83638561 15 132 117
0.074685678 0.43802121 -0.83643031 16 132 116
0.075680263 0.43856969 -0.83695567 17 134 114
0.074752398 0.43819538 -0.83653301 16 132 116
0.075447187 0.43805963 -0.83664519 16 134 115
0.072719835 0.43916008 -0.8364867 15 132 117
0.07683558 0.43675902 -0.83638167 17 132 114
0.076326348 0.43777037 -0.83673358 17 134 114
0.078660138 0.43633258 -0.83669144 20 133 114
0.078602575 0.43642744 -0.83672166 19 134 114
0.078629911 0.43631697 -0.83667517 19 134 114
0.077331401 0.43835306 -0.83730668 19 134 114
0.077435344 0.4392111 -0.83777463 20 133 115
0.079253629 0.43699017 -0.83719409 21 133 114
0.062998585 0.47523651 -0.84775531 27 134 117
0.06330134 0.47507721 -0.84772635 26 134 117
0.059228521 0.47297803 -0.84696084 27 134 118
0.058298051 0.47080138 -0.84629512 25 134 117
0.059279863 0.47191143 -0.84664881 25 134 117
0.0600533 0.4726184 -0.84687817 25 134 117
0.059243172 0.47270939 -0.84688234 27 134 118
0.05850834 0.47112197 -0.84639525 25 134 117
0.056879591 0.47132111 -0.84640181 27 134 118
0.062600791 0.47273594 -0.84701908 23 133 117
0.062817857 0.47119588 -0.84658575 19 135 116
0.062956735 0.47104868 -0.84655029 19 134 117
0.063701764 0.47362041 -0.84732985 23 135 116
0.06443242 0.47458288 -0.84764445 23 135 116
0.064379565 0.47431871 -0.84756553 23 135 116
0.063584827 0.47418869 -0.84749031 25 134 117
0.061912894 0.47283462 -0.84701705 23 135 117
0.06155099 0.47300318 -0.84705031 24 133 118
0.062396478 0.47381276 -0.84732634 25 133 117
0.062019546 0.47387978 -0.84732902 25 134 117
0.061448626 0.472211 -0.84681278 21 135 117
0.067937315 0.47213188 -0.84703648 21 135 116
0.065420344 0.47129405 -0.84671241 19 135 116
0.068053931 0.47112408 -0.84681088 21 135 117
0.067017086 0.47324446 -0.8472442 21 135 116
0.066058487 0.4707185 -0.84661347 20 133 117
0.064714745 0.47325471 -0.84726059 21 135 116
0.064876385 0.47439215 -0.8475877 23 135 116
0.064482421 0.47076714 -0.84654433 19 134 117
0.064562626 0.47262877 -0.84708095 20 135 116
0.064952977 0.47267011 -0.84709042 21 133 117
0.051677793 0.46683523 -0.84547812 27 134 119
0.051755749 0.46688178 -0.84547824 27 134 119
0.051157579 0.4671289 -0.84565157 27 132 118
0.05404631 0.46754256 -0.84543598 27 133 119
0.053112671 0.46681613 -0.84527308 26 134 118
0.055371039 0.46889529 -0.84576052 27 134 118
0.055049162 0.46690676 -0.84519976 26 133 118
0.055964112 0.46918052 -0.8458128 27 134 118
0.054359846 0.46935314 -0.84594381 27 134 118
0.055794902 0.47024792 -0.84613073 27 132 118
0.055678573 0.47043648 -0.84619093 27 135 118
0.05321639 0.46732417 -0.84541517 27 134 119
0.057794873 0.46731716 -0.84526223 21 135 117
0.059423931 0.46922705 -0.84586525 20 135 117
0.059092958 0.46691591 -0.84516329 19 134 117
0.060449753 0.46814963 -0.84555793 18 134 117
0.057996836 0.46682513 -0.84511739 20 135 117
0.059854656 0.47069836 -0.84630835 21 133 118
0.058259122 0.46847016 -0.84561688 21 135 117
0.057582717 0.46996173 -0.84603107 25 134 117
0.058729984 0.46914849 -0.84582698 21 135 117
0.060527764 0.47069833 -0.84632707 20 135 117
0.057398479 0.46946409 -0.84588146 25 134 117
0.063845307 0.4670096 -0.84550565 16 134 117
0.062195487 0.46696913 -0.84534597 16 134 117
0.063823201 0.46905294 -0.84603781 17 134 116
0.063317001 0.46826199 -0.84578532 17 134 118
0.063936695 0.46699077 -0.84550899 16 134 117
0.064173296 0.46890932 -0.8460319 17 134 116
0.062032573 0.46895823 -0.84587818 18 134 117
0.06109146 0.46751365 -0.84539539 17 132 118
0.061124034 0.46918952 -0.84590203 18 134 117
0.063152961 0.47028849 -0.84633553 19 134 117
0.060765553 0.46819872 -0.84558541 18 134 117
0.061409801 0.46860918 -0.84574157 18 134 117
0.065362886 0.46711233 -0.84567165 16 136 116
0.067395799 0.46698216 -0.84587723 19 134 116
0.068163171 0.46952581 -0.84647262 20 137 116
0.067625597 0.46992356 -0.8464908 20 135 116
0.067970552 0.4681094 -0.84616786 20 135 117
0.066361099 0.46701154 -0.84576523 17 136 115
0.064573012 0.46726114 -0.84563255 16 134 117
0.065076292 0.47039634 -0.84647846 18 136 116
0.065924466 0.47026819 -0.84648919 20 133 118
0.065607563 0.46813712 -0.84591562 17 136 116
0.067276157 0.4705919 -0.8466444 20 135 116
0.064575784 0.46707919 -0.84558517 16 134 117
0.069017403 0.46711734 -0.84610116 20 135 116
0.071054526 0.46721512 -0.8463912 21 135 116
0.069316961 0.46711153 -0.84613985 20 135 116
0.070487872 0.46916777 -0.84670454 21 135 116
0.070279032 0.46890485 -0.84662449 21 135 116
0.068615787 0.46778437 -0.84618109 20 135 116
0.050806563 0.46430486 -0.84477127 25 133 118
0.052176189 0.46331224 -0.84430403 24 131 119
0.050874572 0.46445936 -0.84480953 25 133 118
0.050566126 0.46398464 -0.84470409 25 133 118
0.051737916 0.46385705 -0.84452206 24 133 119
0.049450681 0.4645656 -0.84506649 27 133 118
0.049474727 0.46488059 -0.84517252 27 134 118
0.050189558 0.46676818 -0.84571075 27 134 118
0.050773636 0.46512637 -0.84503704 26 134 118
0.049400862 0.46364671 -0.84475362 26 133 118
0.048878383 0.4642159 -0.84504175 27 133 118
0.054814205 0.4645941 -0.84452099 24 131 119
0.055811837 0.46455842 -0.84447384 21 133 117
0.054704864 0.46399868 -0.84435403 23 131 118
0.056263395 0.46630535 -0.84495878 24 133 118
0.055375785 0.46383321 -0.84428173 21 132 118
0.053142756 0.4649587 -0.84471071 25 131 120
0.053323038 0.46361038 -0.84429413 24 130 120
0.053277623 0.46505693 -0.84473348 25 131 120
0.054089352 0.46659595 -0.84515655 26 133 119
0.053201362 0.46456525 -0.84458888 24 133 119
0.055120911 0.4666678 -0.84512514 25 133 118
0.058722891 0.46384397 -0.84429604 18 132 116
0.059888959 0.46343651 -0.84422112 16 134 116
0.059197802 0.46555445 -0.84477413 18 132 117
0.058016393 0.46396419 -0.84430712 18 134 115
0.057080153 0.46345985 -0.8441419 19 134 116
0.057958573 0.4666315 -0.84506077 20 135 117
0.058043696 0.46605018 -0.84489524 20 133 117
0.057890605 0.46678093 -0.84510249 21 133 117
0.056776393 0.46673495 -0.84507042 24 133 118
0.061587412 0.46547505 -0.84488261 16 132 117
0.063130304 0.46399301 -0.84461266 14 134 117
0.060778346 0.4659493 -0.84494203 16 134 117
0.060818121 0.46534696 -0.84478217 16 132 117
0.063222982 0.46402788 -0.84463006 14 134 117
0.064089999 0.46670479 -0.84544677 16 132 117
0.062332392 0.46570608 -0.84501231 15 134 117
0.063583732 0.46641576 -0.84532124 16 132 117
0.064242199 0.46530959 -0.84507543 15 134 117
0.062011242 0.46631551 -0.84515148 16 132 117
0.064158052 0.46408314 -0.84472936 14 134 117
0.066635825 0.46387479 -0.84493154 16 134 116
0.066677183 0.46470553 -0.8451758 16 134 116
0.066540912 0.46342266 -0.84479123 16 134 117
0.067937694 0.46364355 -0.84499598 17 136 115
0.065801211 0.46335435 -0.84469694 15 134 117
0.065714046 0.46428281 -0.84495473 15 134 116
0.065466329 0.46633247 -0.84549224 16 134 117
0.064584233 0.4639096 -0.84472311 14 134 117
0.065520093 0.46564695 -0.8453092 16 134 117
0.066624314 0.46537524 -0.84535998 16 136 116
0.0658677 0.46444288 -0.84501648 15 134 116
0.07016547 0.46306109 -0.84515446 18 136 115
0.071103208 0.46467146 -0.84572625 19 135 115
0.07147748 0.46537167 -0.84596956 20 135 115
0.07194218 0.46620479 -0.8462621 20 135 115
0.071545437 0.46340939 -0.84546649 19 134 116
0.070788078 0.46398777 -0.84549677 19 134 116
0.068956137 0.46542224 -0.84563196 19 134 116
0.069898784 0.46557143 -0.84580028 19 135 116
0.070441127 0.46615762 -0.8460418 19 135 115
0.068803839 0.46428126 -0.8452819 18 136 115
0.069006942 0.46411854 -0.84526181 18 136 115
0.073827937 0.46313122 -0.84576893 20 135 114
0.073396079 0.46404082 -0.84592623 21 135 116
0.072383858 0.4648934 -0.84598911 20 135 115
0.073370457 0.46417877 -0.84595829 21 135 116
0.048964232 0.46274412 -0.84451687 26 133 118
0.064225346 0.46222883 -0.84416413 14 134 117
0.067763142 0.4624528 -0.84459859 17 134 115
0.066696145 0.46176147 -0.844235 15 134 116
0.06646467 0.4628244 -0.84460539 16 134 117
0.071167938 0.45987412 -0.84431243 17 136 115
0.06964723 0.46142599 -0.84455746 17 136 115
0.070617333 0.46097076 -0.84458017 18 134 115
0.07029745 0.46289068 -0.84513098 18 134 115
0.072122961 0.46259433 -0.84533012 19 134 116
0.071377195 0.46188772 -0.84498924 19 134 116
0.072030358 0.46182021 -0.84507257 19 134 116
0.072207168 0.46239203 -0.84528011 19 134 116
0.074600987 0.45933279 -0.84479523 20 133 115
0.073113985 0.45949489 -0.84453595 18 136 115
0.074239425 0.45937771 -0.84473372 20 133 115
0.074610956 0.4594315 -0.84482461 20 135 115
0.073942311 0.46045959 -0.84497255 19 135 115
0.073224738 0.46214902 -0.84537441 20 133 115
0.074659385 0.46156427 -0.84543198 21 135 115
0.072886378 0.46048656 -0.8447963 19 134 116
0.072579555 0.46151781 -0.8450681 19 134 116
0.07401605 0.46151868 -0.84530962 20 135 115
0.073108181 0.45874727 -0.84431362 18 136 115
0.075348109 0.45732653 -0.84427345 20 135 115
0.073115557 0.45846304 -0.84421581 18 134 115
0.075830184 0.4589133 -0.8449257 21 135 114
0.074417405 0.45889848 -0.84463257 19 134 115
0.077081285 0.45742902 -0.84471184 23 135 114
0.077015176 0.45624483 -0.84428126 21 137 114
0.076494142 0.45872596 -0.84500957 24 133 115
0.067756906 0.43365926 -0.83236641 17 134 113
0.067593627 0.43324798 -0.83210242 19 134 112
0.069352292 0.43260649 -0.83205074 17 134 113
0.069985949 0.43216938 -0.83193564 18 134 113
0.069687225 0.43274605 -0.83220798 17 132 114
0.070307322 0.43272936 -0.8323372 16 134 113
0.072242662 0.43042594 -0.83136559 19 134 112
0.071966015 0.43043894 -0.83132148 19 134 112
0.071623243 0.43039927 -0.83123177 20 133 112
0.070217602 0.43089786 -0.83123446 20 133 112
0.071304828 0.43133017 -0.83173549 18 134 112
0.074237339 0.43118605 -0.83238101 17 136 112
0.073363513 0.43108127 -0.83207524 18 134 113
0.073643371 0.43102881 -0.83211911 18 134 112
0.073304482 0.43007404 -0.83141059 19 135 111
0.072470136 0.43032673 -0.83135909 19 135 112
0.064222008 0.44104904 -0.8357749 20 132 112
0.064279586 0.44106606 -0.8357904 20 132 112
0.064266056 0.44122955 -0.83585572 20 132 112
0.064921133 0.43947011 -0.83522892 19 132 113
0.064924926 0.439951 -0.8354274 19 134 112
0.065193959 0.44063035 -0.83574724 19 132 113
0.067365721 0.43952778 -0.83561748 16 132 115
0.066835262 0.44104922 -0.83617187 16 134 114
0.066080756 0.44140843 -0.83620423 17 134 113
0.068586968 0.43995845 -0.83599746 15 134 116
0.066881612 0.43611634 -0.83367074 16 134 114
0.067747869 0.43868539 -0.83522302 16 134 115
0.067654364 0.43840823 -0.83505559 16 134 115
0.067826137 0.43663773 -0.83409095 15 132 115
0.067320466 0.43648955 -0.83393908 16 132 114
0.068276674 0.43625745 -0.83394021 14 134 115
0.065425217 0.43867311 -0.83487165 18 134 113
0.066805892 0.43811995 -0.83477592 17 134 114
0.065114833 0.43857098 -0.83476955 19 134 112
0.06698256 0.43926316 -0.83542597 16 134 114
0.068048567 0.43937552 -0.83564639 15 132 116
0.071939074 0.43838766 -0.83588547 14 134 116
0.071875885 0.43768054 -0.8354879 14 132 117
0.070893481 0.4383209 -0.83563691 14 134 116
0.070145205 0.43813881 -0.83538395 14 134 116
0.071079291 0.43923551 -0.83617449 14 134 116
0.07102868 0.4393898 -0.83624834 14 134 116
0.070252165 0.43844825 -0.83557487 14 134 116
0.070161819 0.43636137 -0.83440125 12 134 115
0.068522431 0.43796545 -0.83494031 14 134 116
0.071322329 0.43644309 -0.83469909 12 134 116
0.069351755 0.43786219 -0.83506286 14 134 116
0.068811119 0.43838701 -0.83523834 14 134 116
0.070103973 0.43595314 -0.8341608 12 134 115
0.072689675 0.43678001 -0.83520252 14 132 117
0.073368877 0.43726149 -0.83566862 14 134 116
0.073558085 0.43588153 -0.83497417 14 134 116
0.072909802 0.43704677 -0.83541387 14 134 116
0.073989682 0.4369781 -0.83570075 15 132 116
0.073187985 0.43625546 -0.83506662 14 134 116
0.075399674 0.43664801 -0.83592868 16 132 116
0.075456105 0.43714422 -0.83619422 16 134 115
0.076551974 0.43647209 -0.83615512 17 132 114
0.06742464 0.43427464 -0.83268303 17 134 113
0.06725619 0.43428418 -0.83266598 17 134 113
0.065919228 0.43538141 -0.83312577 19 134 112
0.072223052 0.43544868 -0.83433753 12 134 116
0.070799045 0.43306267 -0.83264029 15 134 113
0.072164156 0.43476224 -0.83392668 12 134 115
0.069549076 0.43323442 -0.83246374 15 134 113
0.072060116 0.43500075 -0.83404195 12 134 115
0.068440996 0.43465692 -0.83305055 15 132 114
0.069066711 0.4340798 -0.83284789 15 134 113
0.068670258 0.43386421 -0.83263528 15 134 113
0.071389839 0.4353157 -0.83407789 12 134 115
0.07270509 0.43200013 -0.83246899 16 134 113
0.07357914 0.43268329 -0.833103 15 134 113
0.073259152 0.43347821 -0.83347631 15 134 114
0.073950186 0.43309698 -0.83344406 15 134 113
0.072396591 0.43397707 -0.83352983 14 134 114
0.074194863 0.43350855 -0.83374941 15 134 114
0.074967943 0.434921 -0.83483559 15 134 115
0.073802352 0.43420905 -0.83405358 15 132 115
0.073997714 0.43387789 -0.8339113 15 132 115
0.073464766 0.43458408 -0.8341797 14 134 115
0.074682057 0.4353458 -0.83500749 14 134 115
0.075988002 0.43522543 -0.83532667 15 134 114
0.07448522 0.43458155 -0.83448464 15 132 115
0.079817459 0.43476161 -0.83617139 21 133 114
0.078862816 0.43396533 -0.835437 19 135 112
0.077364273 0.43500292 -0.83560663 17 134 114
0.077049337 0.43550158 -0.83580643 17 134 114
0.076920599 0.43330905 -0.83445388 17 136 113
0.076572977 0.43416947 -0.83486694 16 134 114
0.078315973 0.43267334 -0.8345058 19 135 112
0.07783898 0.43264499 -0.83433902 18 136 112
0.077063695 0.43279022 -0.83418399 17 136 113
0.077060163 0.43179125 -0.83357674 18 136 112
0.07577619 0.43082556 -0.83256096 18 136 112
0.076364465 0.43121389 -0.8329854 17 136 111
0.056709651 0.46289161 -0.8439635 19 134 116
0.0587641 0.46317655 -0.84411573 18 132 116
0.050672382 0.46101868 -0.84365189 25 133 118
0.049172278 0.46158242 -0.84406441 26 133 118
0.049671438 0.45988989 -0.84334618 26 133 117
0.050416041 0.46194294 -0.84404206 25 131 119
0.051503103 0.4615407 -0.84375167 24 131 119
0.049364142 0.45934224 -0.84318376 26 134 117
0.049725134 0.45981124 -0.84331244 26 133 117
0.051298458 0.46063125 -0.8434633 25 131 119
0.051326931 0.46061882 -0.84345686 25 131 119
0.051444244 0.45975175 -0.84315741 24 133 118
0.055617936 0.46109328 -0.84341919 19 134 116
0.056280456 0.45968932 -0.84298259 17 132 118
0.053393357 0.45905 -0.84281319 20 135 117
0.05547278 0.46020064 -0.84314686 19 134 117
0.055122081 0.45923403 -0.84285367 18 134 117
0.052841593 0.4596388 -0.84301424 21 135 118
0.053115305 0.46120238 -0.84352744 21 133 118
0.053154957 0.4618398 -0.84373927 23 131 119
0.055408221 0.46261927 -0.84391612 20 133 117
0.053595457 0.46172267 -0.8436836 21 132 118
0.059297923 0.46162325 -0.84366155 15 134 116
0.05920846 0.45990437 -0.84314692 15 132 117
0.060444325 0.46070066 -0.84343672 14 132 117
0.060133152 0.46209496 -0.84383762 15 134 116
0.059086066 0.46138161 -0.84358066 15 134 116
0.057583932 0.46004832 -0.84312099 16 132 117
0.056712925 0.46277693 -0.84392846 19 134 116
0.057269949 0.46123573 -0.84347451 18 132 117
0.059562642 0.46190745 -0.84375739 16 132 117
0.057215318 0.46025664 -0.84317249 17 132 118
0.064121872 0.46119839 -0.84378225 14 132 117
0.06140871 0.46278459 -0.84412795 15 132 117
0.064376585 0.4594804 -0.84318215 14 132 117
0.064281002 0.46136332 -0.84385532 14 132 117
0.06208666 0.46111822 -0.84359598 14 134 116
0.060957532 0.46072957 -0.84345788 14 132 117
0.062114831 0.46010926 -0.84329671 14 132 117
0.061352879 0.45993286 -0.84322906 14 132 117
0.062244661 0.46107188 -0.84358537 14 134 116
0.066418834 0.45937353 -0.84332603 15 132 117
0.065367684 0.4590553 -0.84311676 14 132 117
0.065610722 0.46079373 -0.84376746 14 134 117
0.064822815 0.46004412 -0.84342563 14 132 117
0.066231079 0.46089208 -0.84386164 15 132 117
0.067569718 0.46044323 -0.8438285 16 134 117
0.067297496 0.46001714 -0.84364039 16 132 117
0.067593805 0.46062875 -0.84390086 16 134 117
0.068956681 0.45946556 -0.84367216 17 132 116
0.069963515 0.45922396 -0.84380317 17 134 116
0.048642125 0.45695689 -0.84242165 28 132 117
0.052401386 0.45669925 -0.84193563 24 133 118
0.052526221 0.45809156 -0.8424716 23 133 118
0.049768679 0.45515281 -0.84165567 27 133 117
0.051671498 0.45689008 -0.84210354 24 135 117
0.051234085 0.45641643 -0.84197116 25 134 117
0.049963478 0.45619118 -0.84204262 27 133 117
0.048971903 0.4554418 -0.84186041 28 131 117
0.049705297 0.4582614 -0.8427853 26 134 117
0.05041676 0.45895845 -0.84297222 25 134 117
0.052189805 0.45877144 -0.84276772 23 133 118
0.050134916 0.45749867 -0.84248573 26 133 117
0.050317489 0.45743704 -0.8424499 26 133 117
0.053477831 0.45513842 -0.8412627 23 133 118
0.054307044 0.45653382 -0.84181255 20 133 117
0.056502309 0.4569841 -0.84195691 16 132 117
0.056470927 0.45804897 -0.84238797 16 134 117
0.056544878 0.45702645 -0.84197336 16 132 117
0.054756504 0.45642912 -0.84176248 19 134 117
0.055418245 0.45829245 -0.84250021 18 132 118
0.055101115 0.45822343 -0.84247577 18 134 117
0.052847728 0.45545974 -0.84140122 23 135 117
0.052798629 0.45815513 -0.84246993 23 133 118
0.054248467 0.45710346 -0.84203976 20 133 117
0.053015444 0.45605507 -0.84163564 23 135 117
0.060096465 0.45521706 -0.84146613 14 130 118
0.059968092 0.45750535 -0.84232932 14 130 117
0.058804978 0.45598096 -0.84167147 14 132 117
0.060274798 0.45757046 -0.84237444 14 130 118
0.060107373 0.45791084 -0.842493 14 130 117
0.058734033 0.45589113 -0.84163254 14 132 117
0.058580518 0.45821479 -0.84253544 15 132 117
0.057494551 0.45865756 -0.84266776 15 132 117
0.059054963 0.45889777 -0.84283191 14 132 117
0.059124175 0.45816836 -0.84254009 14 132 117
0.058161877 0.45808131 -0.84246349 15 132 117
0.062486518 0.45637646 -0.84199327 14 130 118
0.062119041 0.45650318 -0.84202117 14 130 118
0.062450655 0.45531031 -0.84161359 14 130 118
0.063999288 0.45699456 -0.84228253 14 132 117
0.064262606 0.45589641 -0.84190542 14 132 117
0.061498638 0.45740351 -0.84234792 14 130 118
0.06076394 0.45613405 -0.84184963 14 130 118
0.06164756 0.45789087 -0.84253657 14 130 117
0.062680379 0.45854059 -0.84280467 14 132 117
0.062141895 0.4575803 -0.84242809 14 130 117
0.065883033 0.45567638 -0.84201157 14 132 117
0.067733459 0.45647517 -0.84252036 15 132 116
0.067254931 0.45624158 -0.84238076 15 132 117
0.066640265 0.4567253 -0.84243482 15 132 117
0.06793455 0.45642644 -0.84253532 15 132 116
0.066155218 0.4551329 -0.84188962 14 132 117
0.064644694 0.4565185 -0.842152 14 132 117
0.067737795 0.45847809 -0.84312397 16 132 117
0.06489259 0.45855898 -0.84289771 14 132 117
0.064497039 0.45845747 -0.84282625 14 132 117
0.066834725 0.45803267 -0.84288508 15 132 117
0.064584628 0.45682746 -0.84225613 14 132 117
0.072227225 0.45645934 -0.84337145 16 136 116
0.071647413 0.4584507 -0.84390646 16 134 116
0.071765594 0.45664331 -0.8433308 16 136 116
0.071523324 0.45665282 -0.84328055 16 136 116
0.071044996 0.4586449 -0.84383833 16 134 116
0.071263894 0.45786503 -0.84362692 16 134 116
0.068923876 0.4580189 -0.84317631 16 134 117
0.069867022 0.45518774 -0.84250814 15 134 116
0.070621222 0.45635021 -0.84299403 16 134 117
0.069820568 0.45727158 -0.84311998 16 134 117
0.069337025 0.45765391 -0.84314418 16 134 117
0.069196112 0.45539439 -0.84244531 15 134 116
0.074741654 0.45555198 -0.84355068 19 134 116
0.072966114 0.45590952 -0.84333068 17 136 115
0.074546836 0.45575839 -0.84358221 19 134 116
0.073598772 0.45670372 -0.84371603 18 134 115
0.074187726 0.45594144 -0.84357464 18 136 115
0.073079541 0.45825639 -0.84413642 18 134 115
0.073055841 0.45804924 -0.8440609 18 134 115
0.07726711 0.45557231 -0.84412056 21 137 114
0.048807677 0.4529855 -0.84071839 28 132 115
0.048818808 0.4546113 -0.84151655 28 132 116
0.051657032 0.45352834 -0.84063989 24 135 116
0.052037828 0.45342258 -0.84054816 24 135 117
0.051479183 0.45364231 -0.84071314 25 134 116
0.050916743 0.45342064 -0.84067065 25 134 115
0.05111121 0.45477846 -0.84130895 26 133 117
0.049353745 0.45414779 -0.84122109 28 131 117
0.054589827 0.45366028 -0.8405543 18 134 116
0.05510018 0.45317417 -0.84032369 18 132 117
0.056051865 0.45474559 -0.84103769 17 132 118
0.054233294 0.45435658 -0.84088564 19 135 116
0.053633679 0.45399311 -0.84072477 20 135 116
0.054113436 0.45418766 -0.84080815 19 135 116
0.059639551 0.45227852 -0.84030902 14 130 117
0.06041168 0.45330682 -0.84077644 14 130 118
0.059469845 0.45294613 -0.84053475 14 130 117
0.058833595 0.45353818 -0.84067857 14 132 117
0.059456419 0.45325938 -0.84064829 14 130 117
0.058599662 0.45504314 -0.84129781 14 132 117
0.058465783 0.45479012 -0.8411721 14 132 117
0.058098067 0.45484063 -0.84117109 14 134 117
0.061599877 0.45241618 -0.8405146 14 130 117
0.063176982 0.45237923 -0.84057927 14 130 117
0.063814193 0.45295501 -0.84082025 14 132 117
0.062683448 0.4527061 -0.84067374 14 130 117
0.061175086 0.45193675 -0.84031922 14 130 117
0.063008167 0.4528513 -0.84074259 14 130 117
0.062502593 0.45457911 -0.84135032 12 132 117
0.062587664 0.4547942 -0.84143329 14 130 117
0.062027954 0.4545047 -0.8413009 12 132 117
0.062497787 0.45499566 -0.84150314 14 130 117
0.06056248 0.45285761 -0.84062773 14 130 118
0.06558644 0.45379737 -0.84127742 14 132 116
0.066975407 0.45148987 -0.84058416 15 134 115
0.065378264 0.45334551 -0.84109116 14 132 116
0.064767241 0.45228735 -0.84064209 14 132 116
0.066591017 0.45147753 -0.84053928 15 134 115
0.06666293 0.45194983 -0.84071863 15 132 115
0.068077534 0.45209616 -0.84094709 15 134 114
0.067753643 0.45292115 -0.84123379 15 134 115
0.067551315 0.45489562 -0.84200388 15 132 117
0.06670855 0.45421022 -0.8416028 15 132 117
0.066040605 0.4545351 -0.84163666 14 134 116
0.066321582 0.45378068 -0.84137219 14 134 116
0.071126081 0.45369053 -0.84215677 15 136 115
0.06932763 0.4513917 -0.84091258 15 134 114
0.07111688 0.45155632 -0.84137607 15 134 115
0.071727164 0.45190319 -0.84164023 15 134 115
0.07096336 0.45328897 -0.8419736 15 136 115
0.071752883 0.45298126 -0.84203935 15 136 115
0.06911204 0.45419189 -0.84197664 15 134 116
0.068443649 0.45146766 -0.84074944 15 134 114
0.069553673 0.45284566 -0.84151328 15 136 114
0.070814081 0.45375213 -0.84211397 15 136 115
0.068623833 0.45266888 -0.84126931 15 134 115
0.070333295 0.45449498 -0.84232575 15 134 116
0.075734608 0.45405442 -0.84322482 20 135 115
0.075453766 0.45363507 -0.84302193 19 134 115
0.074193992 0.45143872 -0.84200519 17 136 114
0.075775146 0.45170945 -0.84244114 19 134 115
0.074204735 0.45174691 -0.84211171 17 136 114
0.074741147 0.4514108 -0.84211498 17 136 114
0.07316719 0.45406449 -0.84272236 17 134 115
0.072609149 0.45299858 -0.84222692 15 136 115
0.072336741 0.45409873 -0.84257627 16 134 116
0.07309103 0.45411789 -0.8427273 17 134 115
0.07286787 0.45285955 -0.84222561 16 134 116
0.07277263 0.45300394 -0.84226006 15 136 115
0.077108137 0.4548009 -0.84381181 21 137 114
0.076957524 0.45506626 -0.84386665 21 137 115
0.077706389 0.45157984 -0.8428582 23 135 115
0.077885389 0.45180333 -0.8429774 23 136 114
0.076668546 0.45252427 -0.84292412 20 135 114
0.076602384 0.45209724 -0.84276366 20 135 114
0.065615006 0.45097631 -0.84025037 14 134 115
0.069333084 0.45000118 -0.84037846 15 134 114
0.070473805 0.44916946 -0.84031439 15 134 114
0.072231889 0.4498271 -0.84096658 15 134 115
0.072020687 0.44964987 -0.84085017 15 134 115
0.070739865 0.44923627 -0.8404004 15 134 114
0.068895392 0.45042095 -0.84044218 15 134 114
0.068958901 0.45059806 -0.84052557 15 134 114
0.073559552 0.44883645 -0.84087956 16 134 115
0.072689608 0.44986466 -0.84108341 15 134 115
0.072290488 0.45023987 -0.84113955 15 134 115
0.075968832 0.44734454 -0.84084004 18 134 114
0.075117894 0.44777241 -0.84081566 17 134 114
0.07472799 0.45020384 -0.84166187 17 136 114
0.074965283 0.44945407 -0.84142733 17 134 114
0.075785667 0.44844624 -0.84122133 18 134 114
0.075323753 0.44962916 -0.84157228 18 134 115
0.07534641 0.4495821 -0.84155923 18 134 115
0.075119786 0.44929025 -0.84139842 17 134 114
0.077232443 0.44810939 -0.84143752 20 133 114
0.077638067 0.44776514 -0.84141141 20 133 114
0.077775367 0.4506813 -0.84254986 23 135 115
0.07689368 0.44868657 -0.84157336 20 133 114
0.076273046 0.45103362 -0.84231788 19 135 114
0.07775116 0.45079207 -0.84258622 23 135 115
0.075883456 0.44681001 -0.84060097 18 134 114
0.073910229 0.44725138 -0.84034258 16 134 114
0.076886125 0.44560471 -0.8403585 19 134 114
0.078932054 0.44462579 -0.84050435 21 133 114
0.077632412 0.44641781 -0.84088719 20 133 114
0 0 0 1 0 0 0 1 0 0 0 1 0 0 0 0 0 681 1 0 0
