ply
format ascii 1.0
comment PCL generated
element vertex 755
property float x
property float y
property float z
property uchar red
property uchar green
property uchar blue
element camera 1
property float view_px
property float view_py
property float view_pz
property float x_axisx
property float x_axisy
property float x_axisz
property float y_axisx
property float y_axisy
property float y_axisz
property float z_axisx
property float z_axisy
property float z_axisz
property float focal
property float scalex
property float scaley
property float centerx
property float centery
property int viewportx
property int viewporty
property float k1
property float k2
end_header
0.10996382 -0.4115603 -0.69038606 12 130 124
0.11326569 -0.41162136 -0.6917097 11 128 126
0.11187531 -0.41038311 -0.69137681 11 130 124
0.11314326 -0.41132367 -0.69171613 11 128 126
0.11005402 -0.41379365 -0.69007808 11 128 126
0.10984062 -0.41584867 -0.68969923 10 130 126
0.10948 -0.41537249 -0.68962389 10 130 126
0.11064571 -0.41576716 -0.69003117 10 128 126
0.11032118 -0.41533157 -0.68996441 10 130 126
0.11032636 -0.41465953 -0.69006258 10 130 126
0.10828215 -0.41318166 -0.68946069 12 130 123
0.1108144 -0.41242161 -0.69057697 11 128 126
0.10810854 -0.41437179 -0.68922138 11 130 125
0.10757514 -0.41388336 -0.68907905 12 130 123
0.10830856 -0.4143548 -0.6893034 11 130 125
0.11364974 -0.41596881 -0.69122082 10 130 126
0.11255214 -0.4151212 -0.6908946 10 130 126
0.11275308 -0.41483605 -0.69101745 10 130 126
0.11411704 -0.41545159 -0.69148552 10 130 126
0.11343966 -0.41331896 -0.69151497 10 130 126
0.11373131 -0.41523802 -0.6913588 10 130 126
0.11144919 -0.41227961 -0.69085103 10 130 126
0.11140317 -0.41243926 -0.69080943 11 128 126
0.11189382 -0.41460547 -0.69069988 10 128 126
0.10710115 -0.41672173 -0.68856043 10 130 125
0.10622178 -0.41611487 -0.68835425 11 130 125
0.10734847 -0.41827753 -0.68850279 10 132 124
0.10559792 -0.41818157 -0.68796539 12 130 125
0.10617872 -0.41846105 -0.68813443 12 130 125
0.10980688 -0.41863596 -0.68938375 10 130 126
0.10860926 -0.41911122 -0.68890667 10 132 125
0.1092692 -0.41985443 -0.68903142 10 132 125
0.11078737 -0.41758162 -0.68986589 10 130 126
0.10774073 -0.41986763 -0.68850404 11 130 125
0.10897204 -0.41884032 -0.68906862 10 132 125
0.10890678 -0.41724786 -0.68920094 10 130 126
0.10815493 -0.41763803 -0.68886924 10 130 125
0.1077295 -0.41825551 -0.6886484 10 130 125
0.10898708 -0.41672337 -0.68927664 10 130 126
0.10806261 -0.41849506 -0.68876094 10 132 125
0.11030539 -0.41647121 -0.6898222 10 130 126
0.11421311 -0.41689107 -0.6913228 10 130 126
0.11343984 -0.41670844 -0.69103265 10 130 126
0.11425181 -0.4180207 -0.69118237 11 128 127
0.11369858 -0.41772652 -0.69099736 10 130 126
0.11408675 -0.41701669 -0.6912539 10 130 126
0.11400145 -0.41907287 -0.69093502 11 128 127
0.11277422 -0.41763133 -0.69063365 10 128 126
0.11439122 -0.41954869 -0.69102824 11 128 127
0.11150977 -0.41810527 -0.69005376 10 130 126
0.11348286 -0.41864306 -0.69078302 11 128 127
0.11311235 -0.4178485 -0.69074142 10 128 126
0.1156567 -0.41819167 -0.69173682 11 130 126
0.11594044 -0.41882473 -0.69176954 12 128 126
0.10609008 -0.41997987 -0.68791139 10 132 125
0.10677134 -0.42027932 -0.68811649 11 132 126
0.11071808 -0.42258438 -0.68916792 10 132 126
0.11028739 -0.42294031 -0.68898016 10 132 126
0.11070578 -0.42260903 -0.68916053 10 132 126
0.1105273 -0.42321572 -0.68901974 10 132 126
0.10931402 -0.4220821 -0.68878388 10 132 126
0.11076991 -0.42172956 -0.68930197 10 130 126
0.10767369 -0.42130867 -0.68831271 10 132 126
0.1082142 -0.42092437 -0.68854308 10 132 126
0.10808142 -0.42159343 -0.68841988 10 132 126
0.10847274 -0.42272425 -0.68842328 10 130 126
0.11058158 -0.42020035 -0.68944108 10 132 126
0.10748602 -0.42132917 -0.68824577 10 132 126
0.1137825 -0.42339072 -0.69010699 12 130 126
0.11190614 -0.42333704 -0.68949038 11 130 126
0.11464819 -0.42218345 -0.69064975 12 128 126
0.11445607 -0.42280662 -0.69045484 12 130 126
0.11327785 -0.42361853 -0.68989038 11 132 126
0.11423194 -0.42339888 -0.6902557 12 130 126
0.11208235 -0.42035395 -0.68997777 11 130 126
0.11359188 -0.42027929 -0.69060254 11 128 127
0.11243671 -0.42167348 -0.68994099 11 130 126
0.11231329 -0.4201124 -0.6901049 11 128 126
0.11161094 -0.42101932 -0.68969464 11 130 126
0.11622396 -0.42134747 -0.6914463 14 128 126
0.1156342 -0.42098588 -0.691266 12 128 126
0.11581671 -0.42062765 -0.69141829 12 128 127
0.11029292 -0.42749631 -0.68835437 10 132 125
0.10881907 -0.42654184 -0.68804544 10 130 126
0.1079376 -0.4248895 -0.68796974 9 132 126
0.10975502 -0.42618799 -0.6883381 10 130 126
0.10833225 -0.42429671 -0.68815815 10 130 126
0.10915911 -0.42401919 -0.68846601 10 132 126
0.11103489 -0.42499855 -0.68892592 10 132 126
0.11114938 -0.42501783 -0.68896008 10 132 125
0.11102244 -0.42538309 -0.68886495 10 132 125
0.11232422 -0.42737812 -0.68899977 11 130 125
0.1143524 -0.42503515 -0.69002634 12 130 126
0.11426929 -0.42507645 -0.68999249 12 130 126
0.11267516 -0.42454934 -0.68953788 11 132 126
0.11248735 -0.42643809 -0.68919504 10 132 124
0.11294167 -0.42421606 -0.68967646 11 132 126
0.11439561 -0.42419574 -0.690166 12 130 126
0.11184333 -0.42674223 -0.68893445 10 132 124
0.11630063 -0.42489204 -0.69073522 12 132 124
0.11094305 -0.42942685 -0.68837267 11 130 126
0.11070086 -0.42895079 -0.68834448 10 132 125
0.10996085 -0.42849931 -0.68817741 10 132 125
0.11112219 -0.43002138 -0.68837404 11 130 126
0.11017868 -0.4299899 -0.68811876 11 130 126
0.11053178 -0.43084392 -0.68815702 12 130 126
0.11205626 -0.43093735 -0.68859798 12 130 126
0.11153346 -0.42900094 -0.68858117 11 130 126
0.11286916 -0.42850482 -0.6890654 12 130 126
0.11201034 -0.42905614 -0.68873531 11 130 125
0.11203498 -0.43029603 -0.68864357 12 130 126
0.1125037 -0.42889324 -0.68891251 12 130 126
0.11124057 -0.43534479 -0.6881358 12 132 124
0.11132557 -0.43342045 -0.68823022 12 130 126
0.11115787 -0.43344039 -0.68819088 12 130 126
0.1101313 -0.43319732 -0.68796659 12 130 125
0.11138649 -0.43241954 -0.6882869 12 130 126
0.078495711 -0.40783063 -0.68150055 15 130 123
0.078508973 -0.40786749 -0.68150491 15 130 123
0.078967817 -0.40782782 -0.6815964 15 130 123
0.079303794 -0.40788546 -0.68166733 15 130 123
0.079769887 -0.41039374 -0.68172276 12 130 124
0.079027794 -0.41121429 -0.68156034 11 132 124
0.079987422 -0.410427 -0.68176317 12 130 125
0.079404436 -0.40933222 -0.68168139 14 130 123
0.078183495 -0.41054386 -0.68141782 14 130 123
0.08274664 -0.41076231 -0.68235517 12 132 124
0.081171431 -0.41169697 -0.68198329 11 130 125
0.083119296 -0.41178989 -0.68238592 11 132 124
0.080545977 -0.41195047 -0.68184102 11 130 125
0.082406551 -0.41039392 -0.68230104 12 132 124
0.082229152 -0.40963933 -0.68229234 12 132 123
0.080278851 -0.4100799 -0.68183535 12 130 124
0.080531761 -0.40898177 -0.68192208 14 130 123
0.081272498 -0.40913934 -0.68208706 12 132 123
0.081508249 -0.40909657 -0.68214202 14 130 123
0.084966652 -0.41127372 -0.68285835 14 132 123
0.085924126 -0.4115023 -0.68312514 14 132 125
0.084332459 -0.41122121 -0.68268698 14 130 123
0.084802851 -0.41102886 -0.682823 14 132 123
0.085034169 -0.41090333 -0.68289137 15 132 123
0.084127448 -0.40967491 -0.6827023 14 132 123
0.074590296 -0.41462699 -0.68084472 12 132 125
0.074602671 -0.41441798 -0.68084145 12 132 125
0.074780151 -0.41442314 -0.68086511 12 132 125
0.075961106 -0.41357183 -0.68100178 12 132 124
0.075433806 -0.4133676 -0.68092686 12 132 124
0.080036581 -0.41399181 -0.68174088 10 132 125
0.077004224 -0.41584849 -0.68123031 11 132 126
0.078375742 -0.41425297 -0.68145639 10 132 125
0.079781286 -0.41532218 -0.68170542 11 132 126
0.079730563 -0.41316047 -0.68168288 10 132 125
0.077173762 -0.41339597 -0.68121564 11 132 124
0.077601962 -0.41315696 -0.68129122 11 132 124
0.07619606 -0.41572332 -0.68108559 11 132 126
0.077457525 -0.4131324 -0.68126321 11 132 124
0.079206169 -0.41265801 -0.68158364 11 130 125
0.083479382 -0.41360199 -0.68243009 11 132 125
0.082214169 -0.41393736 -0.68219244 11 132 124
0.082713217 -0.41378024 -0.68228662 11 132 124
0.083159804 -0.41525611 -0.68233871 10 132 125
0.082662202 -0.41393957 -0.68227416 11 132 125
0.080542684 -0.41233474 -0.68183452 11 130 125
0.080095008 -0.41401947 -0.68175179 11 130 125
0.080192119 -0.41465139 -0.68177617 11 132 125
0.081119142 -0.41491476 -0.68197149 11 132 125
0.082545504 -0.41230726 -0.68225276 11 132 124
0.080118209 -0.41581824 -0.68176818 11 132 125
0.085977972 -0.41595617 -0.68294328 10 132 125
0.086043388 -0.41593733 -0.68295991 10 132 125
0.087384522 -0.41516194 -0.68332899 11 132 125
0.08605615 -0.41481972 -0.68304414 11 132 126
0.085595079 -0.41510263 -0.68291605 11 132 126
0.085944593 -0.41336364 -0.68308747 11 132 125
0.083997406 -0.41441658 -0.68250978 10 132 124
0.084127918 -0.41260666 -0.68258315 11 132 124
0.085936815 -0.41355819 -0.68308133 11 132 125
0.085204683 -0.41297555 -0.68288368 11 134 124
0.085092261 -0.41293484 -0.68285233 12 130 125
0.088369228 -0.41508558 -0.68356889 12 132 126
0.089308061 -0.41371885 -0.68389672 12 132 125
0.089727513 -0.41506487 -0.68390203 12 132 126
0.088541724 -0.41525128 -0.68359905 12 132 126
0.088529043 -0.41365677 -0.68371123 11 134 124
0.08899302 -0.41269442 -0.68389368 11 134 124
0.070807718 -0.41769972 -0.68046415 14 130 126
0.071272612 -0.41791329 -0.68053234 12 132 126
0.0710098 -0.41774824 -0.68049169 14 130 126
0.072069786 -0.41792709 -0.68063295 12 130 126
0.071495309 -0.41965511 -0.68064094 12 128 126
0.075419918 -0.41933542 -0.68111694 11 130 126
0.073898911 -0.4195444 -0.68093729 11 130 126
0.075977072 -0.41681862 -0.68109334 11 132 126
0.073230468 -0.41924933 -0.68084419 11 128 126
0.072910726 -0.41966265 -0.68081993 11 128 126
0.07511732 -0.41796234 -0.68102938 11 130 126
0.074042372 -0.41690502 -0.68084621 12 130 126
0.072936632 -0.41660109 -0.68068516 12 132 126
0.076079361 -0.41602352 -0.68107605 12 132 126
0.072478093 -0.41648629 -0.680619 12 132 126
0.074748643 -0.4172641 -0.68095672 11 130 126
0.078301892 -0.41931617 -0.68150163 11 132 126
0.076882616 -0.41972646 -0.6813212 10 132 125
0.076898396 -0.41962805 -0.68132436 10 132 125
0.079276919 -0.41785637 -0.68163979 11 132 126
0.079604685 -0.41894996 -0.68166715 11 132 126
0.078837201 -0.41872051 -0.68157506 11 132 126
0.076740883 -0.41715065 -0.68122756 10 132 125
0.076652579 -0.41934597 -0.68129271 10 130 125
0.077173904 -0.41714782 -0.68130207 11 132 126
0.077058248 -0.41870764 -0.68133926 10 132 125
0.076559782 -0.41723263 -0.68119937 10 132 125
0.08344689 -0.41872564 -0.68236786 10 132 126
0.081609674 -0.41924313 -0.68201137 11 132 126
0.083352998 -0.41904065 -0.68234938 10 132 126
0.083139792 -0.41721794 -0.68230945 10 132 126
0.080936559 -0.41951367 -0.68188071 11 132 126
0.080173492 -0.41940403 -0.68173766 11 132 126
0.081522405 -0.41613799 -0.68202323 11 132 126
0.08048965 -0.41883427 -0.68180227 11 132 126
0.082271352 -0.41619283 -0.68215925 10 132 125
0.080329545 -0.41828465 -0.68177962 11 132 126
0.08024931 -0.4177601 -0.68177128 11 134 126
0.087152779 -0.41707557 -0.6832056 11 132 126
0.087525249 -0.41886529 -0.68324798 11 130 125
0.086044684 -0.41892216 -0.68293107 10 132 125
0.086200036 -0.41869116 -0.68296897 10 132 125
0.085852027 -0.41869825 -0.68289465 10 132 125
0.085302636 -0.41930923 -0.68276483 10 130 126
0.084842429 -0.4190565 -0.68267179 10 130 126
0.087602355 -0.41619694 -0.68331754 11 132 126
0.085155174 -0.41701874 -0.68274635 10 132 125
0.087685578 -0.41611737 -0.68333703 11 132 126
0.084020309 -0.41931468 -0.68247986 10 130 126
0.08986526 -0.41818348 -0.68377519 10 132 125
0.089914106 -0.41789511 -0.6838001 10 132 125
0.090293348 -0.41713119 -0.68391389 10 132 125
0.089158036 -0.418547 -0.68362045 11 130 125
0.090684079 -0.41931847 -0.68387002 10 132 126
0.089950271 -0.41604391 -0.68388724 11 132 125
0.08826261 -0.41885138 -0.6834169 11 132 125
0.089258902 -0.41685349 -0.68370169 11 132 125
0.064911507 -0.42301077 -0.68031925 12 132 126
0.067040943 -0.42120966 -0.6802929 12 132 126
0.065552831 -0.42272681 -0.680336 12 132 126
0.068343513 -0.42277279 -0.6805653 14 136 126
0.068020746 -0.42194027 -0.68044984 14 134 126
0.066563569 -0.42369768 -0.68052161 14 134 126
0.071434706 -0.42380896 -0.68097848 11 132 126
0.069580518 -0.42277634 -0.68071538 12 134 126
0.071278431 -0.42172024 -0.68079686 11 130 126
0.070562117 -0.42192692 -0.68074346 11 132 126
0.071929581 -0.42192531 -0.68087673 11 128 126
0.069264866 -0.42101651 -0.68049127 12 132 126
0.069306821 -0.42265242 -0.68067247 12 134 126
0.069021016 -0.42257854 -0.68062866 14 134 126
0.070145026 -0.42185619 -0.68069196 12 132 126
0.073845536 -0.4225471 -0.6811437 10 130 126
0.074248701 -0.4237124 -0.6812343 10 132 126
0.075931586 -0.42256081 -0.68133235 10 130 126
0.075509511 -0.42197296 -0.68126684 10 132 126
0.07477691 -0.42256165 -0.68122828 10 130 126
0.075905673 -0.42277247 -0.6813398 10 130 126
0.075310044 -0.42036378 -0.68116009 11 130 126
0.07232064 -0.42140344 -0.68087471 10 130 126
0.073389679 -0.42096478 -0.68097138 11 130 126
0.074523062 -0.42120674 -0.68113023 10 130 126
0.074403733 -0.42020226 -0.68103558 11 128 126
0.079085276 -0.42187333 -0.68163872 10 132 126
0.078901999 -0.42365664 -0.68162662 9 132 126
0.079209559 -0.42236695 -0.68164915 10 132 126
0.076649293 -0.42345843 -0.68144989 10 132 126
0.079123177 -0.42245907 -0.68164247 10 130 126
0.078067869 -0.42186901 -0.68155617 11 130 126
0.076477766 -0.42033419 -0.681288 10 130 125
0.076600507 -0.42200968 -0.68138129 10 130 126
0.076263867 -0.42183709 -0.68133163 10 130 126
0.078000747 -0.4206984 -0.68149328 11 132 126
0.078283615 -0.42010373 -0.68150061 11 132 126
0.082775652 -0.42272779 -0.68225551 10 130 126
0.080943651 -0.42336297 -0.68188995 9 130 126
0.081026487 -0.42380428 -0.68191159 9 130 126
0.083635092 -0.42050561 -0.68240631 10 130 126
0.083835952 -0.42110205 -0.68245357 10 130 126
0.080208801 -0.42013514 -0.68173957 11 132 126
0.082580313 -0.42007869 -0.68219912 10 130 126
0.082956061 -0.42016837 -0.68227208 10 130 126
0.082542665 -0.42036349 -0.68219221 10 130 126
0.080873884 -0.42054686 -0.68186909 11 130 126
0.086847574 -0.42207366 -0.68310946 10 130 126
0.087415747 -0.42076671 -0.68321335 10 132 124
0.087671168 -0.42146945 -0.68327957 10 132 126
0.086415991 -0.42337543 -0.68303525 10 130 126
0.087490268 -0.42351028 -0.68327099 10 132 126
0.085352838 -0.42353094 -0.68280631 10 130 126
0.084744163 -0.42066544 -0.68264103 10 130 126
0.084927522 -0.42233846 -0.68269813 10 130 125
0.08594092 -0.42083871 -0.6828981 10 130 125
0.084220171 -0.42118758 -0.68253493 10 130 126
0.085060574 -0.42194813 -0.68272233 10 130 125
0.084361702 -0.42271125 -0.68258154 9 130 124
0.088510059 -0.42327768 -0.68346947 11 132 127
0.0895399 -0.42252493 -0.68364477 11 132 127
0.091468409 -0.42048398 -0.68398017 9 134 126
0.090492927 -0.42265624 -0.68379742 11 132 126
0.09043093 -0.42146522 -0.68380105 10 132 126
0.088619664 -0.42293882 -0.68348873 11 132 127
0.087979719 -0.42014363 -0.68332428 11 130 125
0.089723706 -0.4213455 -0.68367547 10 132 126
0.088171907 -0.42075074 -0.68337017 10 132 125
0.090323955 -0.42024979 -0.68377352 10 132 126
0.057587218 -0.42716822 -0.68038529 12 132 124
0.058078624 -0.42681697 -0.68038028 12 132 124
0.058660217 -0.42645866 -0.68037742 12 132 124
0.059323817 -0.42772192 -0.68046319 10 132 123
0.05732099 -0.42742023 -0.68039125 12 132 124
0.061703518 -0.42661557 -0.68046236 10 132 124
0.061555061 -0.42708671 -0.68049651 10 132 124
0.063874647 -0.42748341 -0.68066365 10 132 126
0.06363976 -0.42614093 -0.680529 10 132 126
0.063214839 -0.42730913 -0.6806106 10 132 126
0.061080858 -0.4257032 -0.68040019 11 130 124
0.061700575 -0.42547697 -0.68040025 11 132 124
0.063623324 -0.42423871 -0.6803717 12 132 126
0.061066389 -0.42660913 -0.68044817 10 132 123
0.060757365 -0.42706242 -0.68046635 10 130 123
0.061676048 -0.42511174 -0.68038034 12 130 125
0.067456715 -0.42760926 -0.68099707 11 132 125
0.066882148 -0.42578918 -0.68074656 12 134 126
0.067359261 -0.42487851 -0.68069541 12 136 126
0.068039067 -0.42436567 -0.68070644 12 136 125
0.066205077 -0.42660964 -0.68076867 11 134 126
0.065472171 -0.42639905 -0.68068027 11 132 126
0.064503625 -0.42437354 -0.68041939 12 132 127
0.065585218 -0.42526445 -0.68058681 11 134 126
0.065130517 -0.42546186 -0.6805681 11 132 126
0.065012462 -0.42572966 -0.68058282 11 132 126
0.07206554 -0.42531025 -0.68112594 10 132 126
0.071638286 -0.42592934 -0.68113941 10 132 126
0.071739495 -0.42469683 -0.68108279 10 132 126
0.072039105 -0.42574215 -0.68114609 10 132 126
0.071263351 -0.42540002 -0.68109852 10 132 126
0.069832899 -0.42448199 -0.68089372 11 134 125
0.0688437 -0.42715701 -0.6810835 11 134 124
0.069454171 -0.42629361 -0.68105066 11 132 125
0.070581079 -0.42393655 -0.68090826 11 134 126
0.069272645 -0.42538056 -0.68093526 11 134 125
0.070421122 -0.42403883 -0.68090367 11 134 126
0.074195378 -0.42586693 -0.68133533 10 130 126
0.075699635 -0.42653602 -0.68151212 10 130 126
0.075990975 -0.42544004 -0.68148142 10 130 126
0.073852241 -0.42664549 -0.68134433 10 130 126
0.074129082 -0.42626259 -0.68135011 10 130 126
0.073108301 -0.42513222 -0.68120104 10 132 126
0.073064372 -0.4247196 -0.68117684 10 132 126
0.072658055 -0.42725888 -0.681265 10 130 126
0.072788276 -0.42619914 -0.68122464 10 130 126
0.072975084 -0.42614987 -0.68123901 10 130 126
0.074327156 -0.42502013 -0.68130535 10 130 126
0.078474194 -0.42654228 -0.68176079 9 130 126
0.079484746 -0.4263567 -0.68184769 9 130 126
0.077967711 -0.42722866 -0.68176132 9 130 126
0.079498999 -0.4261035 -0.68183029 9 130 126
0.078429222 -0.42773035 -0.68184447 9 130 126
0.076367952 -0.42598867 -0.68154281 9 130 126
0.07881026 -0.42449021 -0.68165481 9 130 126
0.076210871 -0.42410204 -0.68143058 9 132 126
0.076355532 -0.42588148 -0.6815362 9 130 126
0.078703389 -0.42423365 -0.68163276 9 130 126
0.076811999 -0.42452425 -0.68150002 9 132 126
0.082908824 -0.42534065 -0.68240058 10 128 126
0.083621301 -0.42613396 -0.68258315 11 130 126
0.082261764 -0.42735749 -0.68239951 10 132 126
0.081902705 -0.42720389 -0.68232232 10 130 126
0.083730228 -0.42465016 -0.68251443 9 130 125
0.083554812 -0.42745072 -0.68264979 12 132 126
0.081452876 -0.42446291 -0.68204558 9 130 126
0.082156248 -0.42437226 -0.68218184 9 130 126
0.080238678 -0.42446885 -0.68179923 9 130 126
0.082656369 -0.42479023 -0.68231457 9 130 126
0.081304565 -0.42533198 -0.68207997 9 130 126
0.085644446 -0.42626423 -0.68301058 12 132 126
0.085969515 -0.42602891 -0.68306231 12 132 126
0.086609252 -0.42576581 -0.68316525 12 132 126
0.085783191 -0.42570162 -0.68301713 11 132 126
0.084692381 -0.42411047 -0.68268412 10 128 126
0.084597588 -0.42470309 -0.68269914 10 130 126
0.086397342 -0.42462 -0.68308568 10 132 126
0.085227795 -0.4244602 -0.68282163 10 130 126
0.091173097 -0.42466092 -0.68390161 12 132 126
0.08903604 -0.42526275 -0.68355709 12 134 126
0.08969453 -0.42513606 -0.68366289 12 134 126
0.090340599 -0.4249939 -0.68376648 12 134 126
0.059427284 -0.42958152 -0.6806879 10 132 123
0.05946305 -0.42907494 -0.68063432 10 132 123
0.059413433 -0.42990729 -0.68072248 11 130 123
0.057343762 -0.43146589 -0.68087631 12 134 123
0.059594322 -0.42998722 -0.68073195 11 130 123
0.060502876 -0.43161842 -0.68091035 11 132 123
0.05814752 -0.42937738 -0.68064219 12 132 123
0.058024008 -0.4279024 -0.68044925 11 132 123
0.061103716 -0.43121219 -0.68089908 11 132 124
0.063519537 -0.42929906 -0.6808331 10 132 126
0.0635598 -0.43161184 -0.68108338 11 132 125
0.064084649 -0.43005362 -0.68094653 11 132 126
0.063041352 -0.43141896 -0.6810329 11 132 125
0.061589357 -0.4314959 -0.68095744 11 132 124
0.061064057 -0.43015495 -0.6807844 11 130 124
0.062848143 -0.42850563 -0.6807102 10 132 125
0.062090348 -0.42900214 -0.68072003 10 132 124
0.060592413 -0.42993209 -0.68073404 11 130 124
0.061266869 -0.430666 -0.68085015 11 132 124
0.061004825 -0.4303309 -0.68079978 11 130 124
0.066342741 -0.4300676 -0.68114954 11 132 125
0.067680925 -0.43113282 -0.68137026 11 130 125
0.067112274 -0.42954597 -0.68116581 12 130 125
0.068061091 -0.430105 -0.6813032 11 132 125
0.067022875 -0.43012106 -0.68121409 11 132 125
0.066027865 -0.4284448 -0.68094802 11 132 126
0.066619098 -0.42822969 -0.68098235 11 132 125
0.065140806 -0.42857623 -0.68087608 11 132 126
0.065514289 -0.43050313 -0.68111897 11 132 125
0.06520091 -0.43011549 -0.68104696 11 132 126
0.069590919 -0.43063051 -0.68142849 11 130 126
0.068807654 -0.43125859 -0.68145925 11 130 126
0.071617469 -0.43142915 -0.68157589 11 128 126
0.072030783 -0.43025792 -0.681481 11 130 126
0.071745969 -0.42928225 -0.68137938 10 130 126
0.069404528 -0.42803878 -0.68116921 11 130 125
0.069567077 -0.43011686 -0.6813783 11 130 126
0.068751678 -0.42936322 -0.68127245 11 132 125
0.069011621 -0.42778152 -0.6811285 11 132 125
0.0710705 -0.42857018 -0.68128711 10 130 126
0.074377462 -0.43027163 -0.68167025 10 130 126
0.075374797 -0.42859483 -0.68162411 10 128 126
0.073333956 -0.43140927 -0.68167639 11 130 126
0.074381948 -0.43019405 -0.6816653 10 130 126
0.075359449 -0.42928886 -0.68167055 10 130 126
0.074137546 -0.42989203 -0.68162787 10 130 126
0.072763398 -0.43096662 -0.68160254 11 128 126
0.075292282 -0.42845365 -0.68160474 10 128 126
0.072369836 -0.42917565 -0.6813978 10 130 126
0.073879495 -0.42837095 -0.68146425 10 130 126
0.073670454 -0.4299565 -0.68159312 10 130 126
0.074058197 -0.42790794 -0.68143773 10 130 126
0.078403965 -0.4314878 -0.68206686 10 130 126
0.077907801 -0.43080774 -0.68198901 10 130 126
0.077204175 -0.43101925 -0.68194097 10 132 126
0.079983778 -0.4285447 -0.68204403 9 130 126
0.078482181 -0.43096989 -0.682046 10 130 126
0.077387244 -0.42830452 -0.68178004 10 130 126
0.079544097 -0.42824689 -0.68199086 9 130 126
0.076428249 -0.42826891 -0.68168205 10 128 126
0.077214539 -0.42988217 -0.68187058 10 130 126
0.07801266 -0.42949116 -0.68192339 10 130 126
0.077472508 -0.42887491 -0.68182749 10 130 126
0.083718933 -0.43073571 -0.68271399 12 132 126
0.082564563 -0.43018994 -0.68255544 11 132 126
0.082410306 -0.43069839 -0.68253475 11 132 126
0.08352641 -0.43063083 -0.68268752 12 132 126
0.080510534 -0.42864761 -0.68213922 9 130 126
0.080655091 -0.43009442 -0.68224323 9 132 126
0.082307912 -0.42846796 -0.68246979 11 132 126
0.080598392 -0.42851335 -0.68214869 9 130 126
0.080384754 -0.43044999 -0.68221092 9 132 126
0.058495294 -0.43411201 -0.68118602 12 130 124
0.058511507 -0.43381059 -0.68115675 12 132 124
0.059041742 -0.43507701 -0.68126959 12 130 125
0.059364937 -0.43362442 -0.68112421 12 130 124
0.059003472 -0.43375519 -0.68114299 12 130 124
0.05753047 -0.43428186 -0.6812104 12 132 123
0.059005022 -0.43236563 -0.68099052 12 132 124
0.059496604 -0.43201533 -0.68095165 12 132 124
0.058807962 -0.432724 -0.68103212 12 132 124
0.064070798 -0.43463969 -0.68146294 12 132 126
0.062539242 -0.43438765 -0.68131071 12 130 126
0.063733324 -0.43258849 -0.68119282 11 132 125
0.062637664 -0.43497765 -0.6813885 12 130 126
0.063269742 -0.43348587 -0.68126214 11 132 125
0.061556056 -0.43356493 -0.68115628 12 130 126
0.062625244 -0.43171257 -0.68103957 11 132 125
0.062062543 -0.43289554 -0.68112105 11 130 125
0.06207623 -0.4330219 -0.68113399 11 130 125
0.061254773 -0.43352008 -0.68113464 12 130 126
0.068315841 -0.43187022 -0.6815033 12 130 126
0.066734649 -0.43396106 -0.68161553 12 132 126
0.065239735 -0.43504331 -0.68161136 12 132 126
0.066705748 -0.43341851 -0.68154597 12 130 126
0.066581666 -0.43451917 -0.68167037 12 132 126
0.064659014 -0.43475401 -0.68152499 12 132 126
0.064597771 -0.4323296 -0.68123221 12 132 126
0.065242141 -0.43215519 -0.6812678 11 132 125
0.065240242 -0.43410379 -0.68149859 12 132 126
0.064645812 -0.43166369 -0.68115753 11 132 125
0.071169116 -0.43347538 -0.68179435 12 130 125
0.071556114 -0.43391958 -0.68184984 12 132 125
0.068710424 -0.4329907 -0.68165815 12 130 125
0.068794407 -0.43359762 -0.68173605 12 132 125
0.06873218 -0.43296361 -0.68165559 12 132 125
0.071450554 -0.43176627 -0.68160522 11 130 125
0.071203887 -0.43218702 -0.68164831 12 128 126
0.070247106 -0.43265516 -0.6816718 12 130 126
0.075561397 -0.43284538 -0.68197596 12 132 126
0.075782716 -0.43323433 -0.68203437 12 130 126
0.073084205 -0.43295416 -0.68181634 12 130 126
0.072885215 -0.43233269 -0.68173587 12 128 126
0.072271034 -0.43315989 -0.68178266 12 130 125
0.074056573 -0.43221653 -0.68180376 12 130 126
0.073987596 -0.4328593 -0.68186814 12 130 126
0.072916448 -0.43234628 -0.68173945 12 128 126
0.077816196 -0.43493706 -0.68235731 11 132 126
0.079862207 -0.43540788 -0.68250793 11 132 126
0.077948272 -0.43463615 -0.68234032 11 132 126
0.080038905 -0.43529308 -0.68250835 11 132 126
0.07920108 -0.43396154 -0.68235487 11 132 126
0.078588687 -0.43199891 -0.68212986 10 132 126
0.078549542 -0.43276867 -0.6822111 10 132 126
0.077242978 -0.43322274 -0.6821509 11 132 126
0.076423012 -0.43510422 -0.68228853 11 132 126
0.077848338 -0.43300113 -0.6821776 10 132 126
0.078665569 -0.43177494 -0.68211174 10 132 126
0.080333866 -0.43410125 -0.68244946 11 132 126
0.080461554 -0.43435362 -0.68248725 11 132 126
0.082811423 -0.43250224 -0.68265986 12 132 126
0.080211699 -0.43416044 -0.68243748 11 132 126
0.08012452 -0.43394744 -0.68240839 11 132 126
0.075036131 -0.43587822 -0.68227613 12 132 126
0.079414919 -0.43703359 -0.68263274 12 134 125
0.077294581 -0.43599856 -0.68241835 12 132 126
0.08161094 -0.43928346 -0.6830675 12 134 123
0.080373973 -0.43629268 -0.68263626 12 132 126
0.080192901 -0.43597603 -0.68258518 12 132 126
0.080518715 -0.4381085 -0.68282628 12 134 123
0.082408667 -0.44108036 -0.6834085 12 132 125
0.083514862 -0.43999287 -0.68338156 12 132 126
0.081811927 -0.44172013 -0.68342781 12 132 125
0.082527786 -0.44082457 -0.68338853 12 132 125
0.084086731 -0.44002491 -0.68342626 12 132 126
0.056434978 -0.41854045 -0.67937797 12 134 125
0.056250188 -0.42335433 -0.67999136 12 132 125
0.056736443 -0.42377067 -0.68007177 12 132 125
0.058484133 -0.4228473 -0.68003213 12 132 125
0.05857018 -0.42274144 -0.68002135 12 132 125
0.057773154 -0.42294183 -0.68000722 12 132 125
0.057699654 -0.4222109 -0.67989242 12 132 125
0.11458343 -0.40981278 -0.69262993 11 130 124
0.113872 -0.40921026 -0.6924473 12 130 124
0.11430945 -0.41070476 -0.6923213 11 130 125
0.11423543 -0.4104152 -0.69235039 11 130 125
0.11315073 -0.40942973 -0.6920861 11 130 123
0.11278187 -0.40951109 -0.69191343 11 130 123
0.11333348 -0.40997288 -0.69205242 11 130 124
0.11597486 -0.41195822 -0.69281495 10 130 126
0.11760431 -0.41208419 -0.69358313 10 128 126
0.11893016 -0.41087127 -0.69445324 11 128 126
0.11817711 -0.41132361 -0.69400311 11 128 126
0.1188378 -0.41072795 -0.69443506 11 128 126
0.11901927 -0.41167441 -0.69434685 10 128 126
0.11582233 -0.41051176 -0.69303632 11 130 125
0.11781413 -0.40892774 -0.69428873 12 130 126
0.11540642 -0.41189432 -0.69255179 11 128 126
0.11712622 -0.4093084 -0.69389141 12 130 126
0.11649837 -0.40929464 -0.69360548 12 130 125
0.1153743 -0.41175824 -0.69256592 11 128 126
0.11961878 -0.4107618 -0.69481736 11 130 126
0.12012399 -0.41074345 -0.69508111 12 130 126
0.1201274 -0.41035414 -0.69515401 12 130 126
0.11936589 -0.41074032 -0.69469351 11 130 126
0.11922993 -0.41010857 -0.69474262 12 128 126
0.11521233 -0.41528139 -0.69195688 10 130 126
0.11472338 -0.41356641 -0.69200456 11 128 126
0.11647213 -0.41577837 -0.69247019 11 128 126
0.11710538 -0.41484416 -0.6929211 11 128 126
0.1182877 -0.41470331 -0.69349009 10 130 126
0.11663434 -0.41580006 -0.6925413 11 128 126
0.11634082 -0.41492355 -0.69255513 11 128 126
0.11721247 -0.41497505 -0.69294816 10 130 126
0.1161471 -0.41487512 -0.69246846 11 128 126
0.11740623 -0.41214612 -0.69347686 10 128 126
0.11555406 -0.41529241 -0.69211966 10 130 126
0.11580727 -0.41371545 -0.69247192 11 128 126
0.11682165 -0.41387069 -0.69294214 10 130 126
0.11777208 -0.41237563 -0.69362116 9 130 126
0.12023266 -0.41233173 -0.69484252 12 130 126
0.12027843 -0.41421533 -0.69451624 12 130 126
0.12116565 -0.41495413 -0.69481939 15 128 126
0.11952036 -0.41310805 -0.69433832 10 130 126
0.12126983 -0.41455704 -0.69493729 15 128 126
0.11976829 -0.41567156 -0.69402182 12 128 126
0.11930597 -0.41366801 -0.69413942 10 130 126
0.11906628 -0.41623843 -0.69358712 11 128 126
0.11858281 -0.41602314 -0.69340146 10 130 125
0.11721043 -0.41659048 -0.6926707 12 128 126
0.11835955 -0.41654712 -0.69320786 12 128 126
0.11985423 -0.4166685 -0.69389182 14 128 126
0.11926626 -0.41602612 -0.69371885 11 128 126
0.12414016 -0.41987529 -0.69511747 12 130 125
0.12566487 -0.42216423 -0.69522941 12 130 126
0.12419384 -0.42025921 -0.69504392 12 130 125
0.090912916 -0.41386461 -0.68427294 12 134 124
0.091575913 -0.4143523 -0.68439651 14 132 123
0.090952061 -0.41357079 -0.6843015 12 134 123
0.090175726 -0.41425592 -0.68406987 12 132 125
0.089475475 -0.41255915 -0.68402123 12 134 125
0.091635682 -0.41662887 -0.68425423 11 132 125
0.091224499 -0.41779745 -0.68406731 11 132 126
0.092961632 -0.41916454 -0.68443394 11 132 126
0.093790874 -0.41990545 -0.68461227 10 132 126
0.093193054 -0.41975546 -0.68445516 10 132 126
0.092688963 -0.41936621 -0.68434221 11 132 126
0.095326662 -0.41917399 -0.68509871 12 132 126
0.094903231 -0.41799974 -0.6850667 16 130 125
0.093052082 -0.41850007 -0.68450868 12 132 125
0.092459589 -0.41620421 -0.68451166 14 130 125
0.092246756 -0.41671467 -0.68441397 12 130 125
0.092797831 -0.41744787 -0.68451494 14 132 126
0.097210556 -0.41946363 -0.68555641 11 132 126
0.096803576 -0.41989881 -0.68542767 10 132 126
0.097738504 -0.41964787 -0.6856783 10 132 126
0.097936116 -0.41991395 -0.68571204 10 130 126
0.097910985 -0.41860873 -0.68578422 12 132 125
0.10243279 -0.41980174 -0.68677783 11 132 126
0.10332064 -0.41749486 -0.68731058 12 132 125
0.10049105 -0.41991797 -0.6863296 10 132 126
0.10199206 -0.4181771 -0.68691617 11 132 125
0.10234936 -0.41737413 -0.68711233 12 132 125
0.10128886 -0.41851059 -0.68671149 11 132 125
0.099673957 -0.41868398 -0.6862275 12 132 124
0.10402847 -0.41924542 -0.68727046 11 132 126
0.10516108 -0.41760489 -0.68788463 12 132 125
0.10366096 -0.41804665 -0.68731654 12 132 126
0.10370484 -0.41781843 -0.68736261 12 132 125
0.091744803 -0.4226895 -0.68400103 11 132 126
0.09539856 -0.42147809 -0.68500203 11 130 126
0.095388673 -0.42200467 -0.6849755 11 130 126
0.094397523 -0.42271605 -0.68469542 11 130 126
0.095428184 -0.4213717 -0.68501425 10 132 126
0.095041797 -0.42281619 -0.68485188 11 130 126
0.094718389 -0.42122141 -0.68484378 11 132 126
0.094853118 -0.42071685 -0.68489867 11 130 126
0.093162335 -0.42103747 -0.6844185 11 130 126
0.091940485 -0.42179722 -0.68406397 11 130 126
0.092769466 -0.42281041 -0.68428296 11 132 126
0.093979381 -0.42029089 -0.68465883 10 132 126
0.099368341 -0.42198181 -0.68591291 11 130 125
0.098507464 -0.42207122 -0.68571973 11 130 126
0.099331558 -0.42082953 -0.68599898 10 130 126
0.099139243 -0.4227663 -0.68579936 12 130 125
0.099405989 -0.42208862 -0.68591225 12 128 126
0.095833585 -0.42211944 -0.68508178 10 132 126
0.09777876 -0.42124471 -0.68561167 10 130 126
0.097654574 -0.42065674 -0.68560719 10 130 126
0.098291129 -0.41992316 -0.68580097 10 130 126
0.096526645 -0.4200879 -0.68534893 10 132 126
0.10211698 -0.42317635 -0.68646765 11 130 125
0.10119696 -0.42344159 -0.68622631 12 130 125
0.10340229 -0.42359954 -0.68675846 10 130 125
0.10113975 -0.42343384 -0.68621278 12 130 125
0.10213684 -0.42296973 -0.68648458 11 130 125
0.099976383 -0.42347082 -0.68592507 12 130 124
0.099666022 -0.42365405 -0.6858409 12 130 124
0.10020817 -0.4205167 -0.68621755 10 132 126
0.099614359 -0.42202425 -0.6859625 12 128 126
0.1013817 -0.42159125 -0.68639046 11 132 125
0.1007048 -0.42149124 -0.6862483 11 130 125
0.1050514 -0.42314985 -0.68729472 10 130 126
0.10564399 -0.42177498 -0.68760312 10 132 126
0.1046706 -0.42234331 -0.68725908 10 130 126
0.10492651 -0.42325616 -0.6872474 10 130 126
0.10596149 -0.42282358 -0.68759674 10 130 126
0.10442096 -0.42172498 -0.68721831 10 132 126
0.10360548 -0.42090195 -0.68697566 11 132 126
0.10399564 -0.42130572 -0.68709117 10 132 126
0.10506331 -0.42118403 -0.68747884 10 132 126
0.093548506 -0.42682192 -0.6844427 12 132 124
0.094039321 -0.42602569 -0.6845662 12 130 125
0.094833821 -0.4247416 -0.68476593 11 130 125
0.094225377 -0.42673743 -0.68458521 12 132 125
0.093694411 -0.4253138 -0.68449187 12 130 126
0.093784146 -0.42521635 -0.68451279 12 130 126
0.094661996 -0.42410895 -0.68471515 11 130 126
0.097568035 -0.42677742 -0.68526644 12 132 125
0.097154185 -0.42700934 -0.68517601 12 132 125
0.098260067 -0.4244532 -0.68550575 12 130 125
0.09605746 -0.42411274 -0.68503964 11 130 126
0.095975064 -0.4264428 -0.68495804 12 132 126
0.096791767 -0.42440179 -0.68519026 12 128 126
0.096164055 -0.42421478 -0.68505985 11 130 126
0.10139351 -0.42766759 -0.68605995 12 130 126
0.10316401 -0.42536086 -0.6866169 10 130 125
0.10315789 -0.42686385 -0.68655187 10 130 125
0.10130691 -0.42677897 -0.68607503 11 132 125
0.10097063 -0.42652491 -0.6859985 11 132 125
0.10339024 -0.42732832 -0.68659246 10 130 125
0.10111146 -0.42540827 -0.68609381 12 130 125
0.10179548 -0.4252269 -0.68627197 11 130 125
0.10006525 -0.42673314 -0.68576241 12 132 125
0.099774353 -0.42430601 -0.68582767 12 130 124
0.10741939 -0.4269985 -0.68761522 10 132 126
0.10719003 -0.42736658 -0.68750995 10 132 126
0.10534835 -0.42496893 -0.68720323 10 130 126
0.10603478 -0.42500132 -0.68740404 9 132 126
0.10636843 -0.42544401 -0.68745881 9 132 126
0.10585449 -0.42384169 -0.68746692 9 130 126
0.1045398 -0.42679468 -0.68689251 10 130 125
0.10469636 -0.42660904 -0.68693781 10 130 125
0.10394879 -0.42604497 -0.6867829 10 130 125
0.10449425 -0.42571467 -0.6869272 10 130 125
0.10383531 -0.4242858 -0.68683004 10 130 125
0.10789511 -0.42620072 -0.68782598 10 132 126
0.10274915 -0.42997012 -0.68635553 11 130 126
0.10344691 -0.42989266 -0.68652213 11 128 126
0.10207225 -0.43078703 -0.68616998 11 130 126
0.1032106 -0.43020511 -0.6864565 11 128 126
0.10158325 -0.43081242 -0.68605411 11 130 125
0.10157207 -0.42897546 -0.68609363 11 130 125
0.10213806 -0.42909086 -0.68623966 11 130 125
0.10084092 -0.42855927 -0.68590719 12 132 125
0.10074869 -0.42949411 -0.68587583 12 132 125
0.10010549 -0.4310641 -0.68569648 12 132 125
0.10623238 -0.43101895 -0.68714839 10 132 125
0.10706219 -0.43135127 -0.6873343 10 132 125
0.10627241 -0.43002689 -0.68719143 10 132 126
0.10724731 -0.43145576 -0.68737477 10 132 125
0.10545386 -0.43050286 -0.68698084 10 130 126
0.10586803 -0.43075821 -0.68707061 10 130 126
0.10620204 -0.42831931 -0.68723148 10 130 126
0.10524302 -0.42870179 -0.68698978 10 130 126
0.10362662 -0.42819861 -0.68661952 10 130 126
0.10399815 -0.42915118 -0.68667758 10 130 126
0.10495159 -0.42986408 -0.68688256 10 130 126
0.10471795 -0.43008584 -0.68681955 10 130 126
0.10803419 -0.43085891 -0.68758708 10 132 125
0.10888727 -0.43070784 -0.68778747 11 130 126
0.1084194 -0.43100691 -0.68766689 11 132 126
0.10764946 -0.43027735 -0.68751842 10 132 125
0.10782313 -0.42852905 -0.68762511 10 132 125
0.10283311 -0.43295714 -0.68630838 11 130 126
0.10322598 -0.43291438 -0.68639469 11 130 126
0.10310417 -0.43253684 -0.68637532 11 130 126
0.10236818 -0.43429506 -0.68618172 12 132 126
0.10196441 -0.43424979 -0.68609458 12 130 126
0.1007875 -0.4329657 -0.68583816 12 130 126
0.10233141 -0.43176848 -0.68620318 11 130 126
0.10002947 -0.43169117 -0.68566185 12 132 125
0.10118157 -0.4336113 -0.68592983 12 130 126
0.10134321 -0.43280238 -0.68596911 12 130 126
0.10667662 -0.43241262 -0.68721813 11 132 125
0.10601584 -0.43174592 -0.68707395 11 130 126
0.1048694 -0.43295079 -0.68677872 11 132 126
0.10403738 -0.43353677 -0.68656993 11 132 126
0.10436957 -0.43202087 -0.68667763 11 130 126
0.10420895 -0.43457058 -0.68659109 12 132 126
0.1079933 -0.43233478 -0.68752253 12 132 125
0.10912666 -0.43205696 -0.68778551 12 130 126
0 0 0 1 0 0 0 1 0 0 0 1 0 0 0 0 0 755 1 0 0
