ply
format ascii 1.0
comment PCL generated
element vertex 944
property float x
property float y
property float z
property uchar red
property uchar green
property uchar blue
element camera 1
property float view_px
property float view_py
property float view_pz
property float x_axisx
property float x_axisy
property float x_axisz
property float y_axisx
property float y_axisy
property float y_axisz
property float z_axisx
property float z_axisy
property float z_axisz
property float focal
property float scalex
property float scaley
property float centerx
property float centery
property int viewportx
property int viewporty
property float k1
property float k2
end_header
-0.079028837 -0.19973598 -0.70350361 37 136 115
-0.079062507 -0.20048667 -0.70347059 35 137 113
-0.079022564 -0.20029882 -0.70347112 36 136 114
-0.078689776 -0.20041229 -0.70338351 36 136 114
-0.078634754 -0.20051821 -0.70336431 36 136 114
-0.078243189 -0.20142873 -0.70321935 36 137 114
-0.078893431 -0.20164618 -0.70336622 35 135 113
-0.079493508 -0.20171645 -0.70350879 34 136 113
-0.078034341 -0.20163596 -0.70315719 36 137 113
-0.078929611 -0.20390244 -0.70325196 36 135 113
-0.080091149 -0.20577087 -0.70344371 35 134 113
-0.080246814 -0.21281117 -0.70322502 30 135 114
-0.078680828 -0.2125061 -0.70282936 33 135 115
-0.079293653 -0.21268311 -0.70298266 33 134 115
-0.078785792 -0.21232505 -0.70285791 33 135 115
-0.078782648 -0.2128136 -0.70285183 33 134 115
-0.079375476 -0.21074684 -0.70305699 34 136 113
-0.081059344 -0.2140727 -0.70343864 32 136 114
-0.081269734 -0.21352682 -0.70348907 30 135 114
-0.080164678 -0.21431535 -0.70321512 34 135 114
-0.080145821 -0.21348494 -0.70320183 32 136 114
-0.08007776 -0.21503299 -0.70320141 36 135 114
-0.077585325 -0.21300443 -0.70254904 36 135 116
-0.08135061 -0.21950261 -0.70347106 31 136 118
-0.080325887 -0.21826346 -0.70324236 35 136 116
-0.080614679 -0.22042072 -0.70325541 27 137 119
-0.080263987 -0.2190261 -0.70320415 32 136 117
-0.076424636 -0.21948339 -0.70219356 43 136 118
-0.076886669 -0.21974583 -0.70230848 40 135 118
-0.077525705 -0.21997763 -0.70246822 36 137 118
-0.079314224 -0.21953139 -0.70293033 30 136 117
-0.079943895 -0.21857856 -0.7031315 33 135 116
-0.079873018 -0.22035506 -0.70306051 27 137 119
-0.075031742 -0.21959673 -0.70186704 43 136 118
-0.074817479 -0.22048697 -0.70178986 45 136 117
-0.074893951 -0.21930654 -0.70183766 44 136 117
-0.08168871 -0.22296566 -0.70347965 27 135 119
-0.081782155 -0.22404173 -0.70348114 27 134 118
-0.080263607 -0.22455241 -0.70302141 27 134 118
-0.08102607 -0.22438683 -0.70325035 27 134 118
-0.080098063 -0.22260852 -0.70304358 26 136 119
-0.078650601 -0.22446825 -0.70262867 27 134 118
-0.077165648 -0.22191209 -0.70233309 38 136 120
-0.076335914 -0.222445 -0.70212376 36 137 120
-0.078631826 -0.22450536 -0.70262337 27 134 118
-0.076566935 -0.22156501 -0.70219851 40 135 120
-0.078246772 -0.2219303 -0.70260155 34 135 119
-0.07993222 -0.22164313 -0.70303613 27 134 120
-0.078669846 -0.22216429 -0.70269948 33 136 119
-0.078701228 -0.22280209 -0.70268422 32 136 118
-0.079974726 -0.22281405 -0.7030043 27 135 119
-0.078792833 -0.22157213 -0.70275193 32 136 120
-0.074272737 -0.22321573 -0.70159692 36 136 117
-0.074542075 -0.22355337 -0.70165777 34 136 117
-0.073846206 -0.22352076 -0.70149189 36 137 117
-0.07494694 -0.22364396 -0.7017535 33 137 118
-0.07569357 -0.22149883 -0.70198601 40 136 119
-0.075588092 -0.22166623 -0.7019558 40 136 119
-0.074607834 -0.22243242 -0.70169258 38 136 117
-0.074490339 -0.22199436 -0.70167303 40 136 116
-0.076047212 -0.22349349 -0.70202982 33 137 120
-0.082102463 -0.22693869 -0.70339924 29 132 119
-0.081975907 -0.22588642 -0.70343351 28 134 118
-0.081084028 -0.22757354 -0.70305347 30 135 119
-0.080350444 -0.22542131 -0.70298833 27 134 118
-0.081516147 -0.22768319 -0.703174 30 135 119
-0.080254816 -0.22685823 -0.70285803 29 135 118
-0.076482236 -0.22544493 -0.70204991 28 138 119
-0.07817816 -0.22799805 -0.70227104 32 137 118
-0.077525474 -0.22602922 -0.70225716 28 138 119
-0.079863712 -0.22850154 -0.70263779 32 137 118
-0.07711564 -0.22651207 -0.7021243 29 137 118
-0.078579262 -0.22738104 -0.70241153 31 136 119
-0.079303749 -0.22766803 -0.70256394 31 135 119
-0.078799412 -0.22718965 -0.70247793 31 135 119
-0.078721084 -0.2271347 -0.70246321 31 135 119
-0.079081669 -0.22717139 -0.70254636 31 135 119
-0.078303792 -0.22572641 -0.70246381 27 137 118
-0.079111189 -0.22697376 -0.7025674 30 135 119
-0.07315138 -0.22822082 -0.70104963 29 140 116
-0.074919015 -0.22843118 -0.70145905 31 138 116
-0.074037313 -0.22828504 -0.70125788 30 140 116
-0.073677376 -0.22654122 -0.70129985 35 137 117
-0.072566524 -0.2273654 -0.70097208 30 140 116
-0.072721541 -0.22588637 -0.70111835 35 137 117
-0.075677022 -0.22777124 -0.70168948 33 138 117
-0.075294815 -0.22605936 -0.70172179 32 138 117
-0.075122498 -0.22500034 -0.70175707 30 138 118
-0.073721856 -0.22494456 -0.70142651 35 136 118
-0.073842876 -0.22577879 -0.70139521 35 137 117
-0.06953419 -0.22768399 -0.70035291 36 135 117
-0.069507398 -0.22785297 -0.70034534 36 135 118
-0.070815243 -0.2284335 -0.70056349 30 140 117
-0.069036424 -0.22758396 -0.70026779 38 135 117
-0.070195921 -0.22737601 -0.70047343 35 136 116
-0.070765652 -0.22709827 -0.70057744 34 139 115
-0.070802972 -0.22480668 -0.70075029 40 136 115
-0.07157734 -0.22725333 -0.70074892 32 139 116
-0.070431814 -0.22666927 -0.70052725 36 138 115
-0.070716508 -0.22526629 -0.70069641 39 136 115
-0.082580417 -0.23036753 -0.70326996 32 136 117
-0.082948685 -0.22899547 -0.70349854 32 133 119
-0.081840485 -0.22919874 -0.70315188 31 136 118
-0.083393931 -0.23171139 -0.70339459 32 137 114
-0.080858663 -0.23043309 -0.70275855 28 136 116
-0.080605038 -0.22973967 -0.70274144 30 136 117
-0.081888288 -0.23238669 -0.7028988 27 138 114
-0.081069224 -0.23049155 -0.70281518 29 137 116
-0.080900975 -0.23043032 -0.70277113 29 136 116
-0.083454311 -0.23224305 -0.70336717 31 137 114
-0.077660322 -0.23119938 -0.70188701 25 137 116
-0.077954084 -0.23175722 -0.70191085 23 138 116
-0.076412231 -0.22992793 -0.70169276 28 138 117
-0.076544032 -0.23010239 -0.70170993 28 138 117
-0.078810722 -0.23125534 -0.7021603 26 137 116
-0.077367179 -0.23059648 -0.70186704 27 137 116
-0.079122975 -0.23047759 -0.70229894 27 137 116
-0.07994812 -0.23061907 -0.70248461 27 137 117
-0.079872027 -0.2307369 -0.70245683 27 137 117
-0.077533625 -0.22863239 -0.70207 33 137 117
-0.079202071 -0.22959775 -0.70238996 29 137 116
-0.078642212 -0.22985896 -0.70223463 29 137 116
-0.07317917 -0.23124398 -0.70087188 20 138 116
-0.072580546 -0.23202725 -0.70071346 17 139 115
-0.072911032 -0.23222037 -0.70077145 17 139 115
-0.074628286 -0.23131718 -0.70116264 21 138 117
-0.072427645 -0.22918856 -0.70081615 26 140 117
-0.072422139 -0.23173878 -0.70069492 19 139 116
-0.075847231 -0.23155156 -0.70141941 23 138 117
-0.075399883 -0.22919169 -0.70151126 29 139 116
-0.073855489 -0.22921661 -0.70113796 27 139 117
-0.075186864 -0.23038988 -0.70135885 26 138 118
-0.076127917 -0.23143157 -0.70149708 24 136 118
-0.070999272 -0.23160779 -0.70044154 23 136 117
-0.068399265 -0.22886825 -0.7001195 37 134 120
-0.06871067 -0.22983171 -0.7001183 33 133 119
-0.069300413 -0.23226188 -0.70007783 26 136 117
-0.069779411 -0.2309678 -0.70024997 27 135 118
-0.069345348 -0.22877257 -0.70029384 34 135 119
-0.071478508 -0.22931367 -0.70064014 27 138 117
-0.070399299 -0.22976647 -0.70043075 28 136 117
-0.071274526 -0.22855552 -0.70064032 29 140 117
-0.071738102 -0.23010564 -0.70064813 24 139 116
-0.067951716 -0.23105632 -0.69990951 32 134 119
-0.068240531 -0.23034607 -0.70000023 33 133 119
-0.066318996 -0.23064135 -0.69968796 38 136 119
-0.06654796 -0.23213872 -0.69961959 32 137 119
-0.080555134 -0.23331873 -0.70239973 28 136 115
-0.08028733 -0.23484303 -0.70216906 27 141 113
-0.080980569 -0.23338249 -0.70250517 32 137 114
-0.080299191 -0.23365273 -0.70229721 26 138 114
-0.083184808 -0.23247376 -0.7032671 29 139 113
-0.080682628 -0.23296633 -0.70247197 28 136 115
-0.078859039 -0.23604055 -0.70170695 26 140 114
-0.07693848 -0.23554702 -0.70131499 23 136 116
-0.076842524 -0.2358676 -0.70126414 23 135 117
-0.079246767 -0.23553197 -0.70184118 26 142 113
-0.076565146 -0.23302415 -0.70145881 20 138 116
-0.078526385 -0.23491696 -0.70173311 25 140 114
-0.078667559 -0.23264615 -0.7020036 21 138 116
-0.077971198 -0.23273553 -0.70182592 20 138 115
-0.07864555 -0.2339291 -0.70186359 24 139 115
-0.078249477 -0.23352137 -0.70181072 23 139 116
-0.078237392 -0.23361067 -0.70179838 23 139 115
-0.072461858 -0.23357461 -0.70054501 19 137 116
-0.072847173 -0.23406097 -0.7005769 20 135 117
-0.072592646 -0.23483361 -0.70043236 21 137 116
-0.073412724 -0.23393266 -0.70071876 19 137 116
-0.073527813 -0.23618431 -0.70049047 25 134 117
-0.074691117 -0.23569953 -0.70080733 23 133 118
-0.073113576 -0.23300223 -0.70075047 18 137 116
-0.073467813 -0.23335364 -0.70079058 18 136 116
-0.075850725 -0.23463005 -0.70115864 21 135 118
-0.073971309 -0.23298095 -0.70092654 18 137 116
-0.075520173 -0.23415701 -0.70113444 20 135 117
-0.068420969 -0.23323947 -0.69979864 27 135 117
-0.06965401 -0.23605235 -0.6996963 27 135 117
-0.070349671 -0.23443472 -0.70003951 27 134 117
-0.069362603 -0.23430037 -0.69985676 27 135 117
-0.071370326 -0.23561989 -0.70009756 27 135 117
-0.070452005 -0.23410498 -0.70009649 26 136 117
-0.070892818 -0.23382454 -0.70021188 24 136 117
-0.071302272 -0.23289098 -0.70039505 20 137 116
-0.071657732 -0.23284888 -0.70046729 19 137 116
-0.072049312 -0.2359264 -0.70019418 26 134 117
-0.068119593 -0.23360071 -0.69970214 27 135 117
-0.080695853 -0.23854548 -0.70177948 33 137 114
-0.078661367 -0.23990986 -0.70110071 34 131 118
-0.076228969 -0.23767109 -0.70089054 24 133 118
-0.078726158 -0.23941594 -0.70118535 34 131 118
-0.076678962 -0.23691657 -0.70109636 25 131 118
-0.077102147 -0.23785651 -0.70105428 27 131 118
-0.078792252 -0.23843357 -0.70134497 32 132 117
-0.078950197 -0.23698874 -0.70160097 27 138 115
-0.078718603 -0.23848408 -0.70132053 32 132 117
-0.078041986 -0.23702146 -0.70138955 27 135 117
-0.079996571 -0.23952764 -0.70145214 36 132 117
-0.072929598 -0.23760414 -0.70015287 26 136 117
-0.075522527 -0.2397956 -0.70042682 26 133 117
-0.075143814 -0.23943587 -0.70039278 25 134 116
-0.074208967 -0.24002402 -0.70008743 27 134 117
-0.072309673 -0.23889449 -0.69981551 27 135 116
-0.075021751 -0.23671509 -0.70075554 24 133 118
-0.073888771 -0.23676988 -0.70049244 25 134 117
-0.075118586 -0.23871867 -0.70049113 25 134 117
-0.073741518 -0.23741119 -0.70036769 26 134 117
-0.074657559 -0.23687202 -0.70065111 25 133 117
-0.0739858 -0.23685904 -0.70050156 25 134 117
-0.071312785 -0.23648249 -0.69997406 27 135 117
-0.071658038 -0.23896275 -0.69967198 29 135 116
-0.071552351 -0.23897369 -0.69964898 29 134 116
-0.071414471 -0.23795046 -0.69977456 28 135 117
-0.07704109 -0.2438091 -0.70009935 32 133 114
-0.077156894 -0.24359652 -0.70015824 32 133 114
-0.077411041 -0.24171853 -0.70052093 28 134 115
-0.077061266 -0.24172369 -0.70044827 28 134 115
-0.077944852 -0.24242087 -0.70051444 30 135 114
-0.076557778 -0.24037237 -0.70057142 26 133 116
-0.078676976 -0.24264999 -0.70062798 31 135 113
-0.079940423 -0.24045119 -0.70129442 39 128 118
-0.077485539 -0.24092217 -0.70067573 29 132 116
-0.079171717 -0.24119316 -0.70099497 35 132 116
-0.07932245 -0.24133392 -0.70100272 35 132 116
-0.075948358 -0.24145259 -0.70025653 27 132 116
-0.07429786 -0.2406313 -0.70000988 28 132 117
-0.075069517 -0.24043296 -0.70022249 27 133 117
-0.075521179 -0.24133649 -0.70017576 28 131 117
-0.074705742 -0.24094221 -0.7000525 28 132 117
-0.073418617 -0.24031024 -0.69985956 28 134 117
-0.077424958 -0.24666393 -0.69964176 33 133 115
-0.07790637 -0.24646915 -0.69979924 35 133 115
-0.077249318 -0.2444014 -0.70004255 33 133 114
-0.053998079 -0.22327431 -0.69852328 41 134 116
-0.054761771 -0.22402523 -0.69855684 39 134 116
-0.053984784 -0.22435176 -0.69844288 38 133 117
-0.054728545 -0.22383976 -0.69856662 40 133 116
-0.050961219 -0.22456802 -0.69815248 43 134 118
-0.051997691 -0.22383842 -0.69830227 40 133 118
-0.052186623 -0.22363369 -0.69832581 41 134 117
-0.056958821 -0.22795753 -0.69850385 29 132 114
-0.058868773 -0.22761011 -0.69880408 31 136 115
-0.056692854 -0.22788264 -0.69847214 28 134 114
-0.059369676 -0.22779661 -0.69886011 32 136 115
-0.057918455 -0.22711271 -0.69870943 33 134 115
-0.057002448 -0.22692728 -0.69859415 32 133 114
-0.053043406 -0.22579773 -0.69821692 37 133 117
-0.055290829 -0.22835161 -0.69826865 31 132 115
-0.053703327 -0.22628981 -0.69825345 36 133 118
-0.054557763 -0.22800139 -0.69821191 33 132 116
-0.055836871 -0.22797996 -0.69836324 29 132 115
-0.052746471 -0.22741663 -0.69804835 38 132 118
-0.055994179 -0.22608596 -0.69853646 33 133 115
-0.054916419 -0.22500573 -0.69849968 36 133 117
-0.054097205 -0.22555709 -0.69835967 36 133 118
-0.053494986 -0.22462288 -0.69836611 37 134 117
-0.051846217 -0.22681922 -0.69803083 41 133 118
-0.052472215 -0.22474475 -0.69824851 38 133 118
-0.051489647 -0.22688898 -0.69799876 42 133 118
-0.065883137 -0.2315042 -0.69956189 36 137 118
-0.064804032 -0.23132806 -0.69940227 39 137 120
-0.062482499 -0.23045249 -0.69911504 33 137 117
-0.062083557 -0.2313443 -0.69898021 32 136 117
-0.060792502 -0.23100901 -0.69880515 29 135 116
-0.061268359 -0.22990735 -0.69896913 31 136 116
-0.06156119 -0.23160109 -0.69887757 30 135 116
-0.061429214 -0.22878951 -0.6990813 34 137 116
-0.057896636 -0.22987333 -0.69848001 27 132 115
-0.058755565 -0.23178013 -0.69843143 29 134 116
-0.057081986 -0.23046474 -0.69829446 30 132 116
-0.058749426 -0.23114546 -0.69849175 28 132 116
-0.058452696 -0.2323661 -0.69832712 31 135 117
-0.056980051 -0.2323571 -0.69809574 33 134 118
-0.06044735 -0.22890952 -0.69892293 30 136 115
-0.059357218 -0.22863853 -0.69878972 29 135 114
-0.058350064 -0.22998485 -0.69853711 28 132 115
-0.060218848 -0.23039967 -0.69876945 29 134 116
-0.05867799 -0.22855565 -0.69869971 29 134 114
-0.053482708 -0.23119837 -0.6977312 37 134 117
-0.054034196 -0.23136786 -0.69778991 37 134 117
-0.055410217 -0.23204805 -0.69790447 34 135 117
-0.054145314 -0.23028693 -0.69794023 37 134 117
-0.054686379 -0.23176032 -0.69783551 36 134 118
-0.056527145 -0.2287551 -0.6983766 28 131 115
-0.053755607 -0.22898582 -0.69803017 36 133 117
-0.054854278 -0.22941169 -0.69811755 34 133 117
-0.056493875 -0.23164813 -0.69809347 33 134 117
-0.05486802 -0.22924319 -0.69813544 34 133 117
-0.051059429 -0.23229134 -0.69737101 40 134 118
-0.051601451 -0.23051333 -0.69761145 40 134 116
-0.051858813 -0.23089454 -0.69758606 40 134 116
-0.05209871 -0.22977097 -0.69774604 40 133 117
-0.052329022 -0.23037964 -0.69769007 39 134 117
-0.068512931 -0.23617554 -0.6994462 29 134 117
-0.066710316 -0.23353329 -0.69948512 31 136 118
-0.067417689 -0.23395801 -0.69954479 30 136 118
-0.066875003 -0.23429969 -0.69941437 32 136 118
-0.066637531 -0.23419186 -0.69938993 32 137 118
-0.065066695 -0.23469771 -0.69910204 33 137 119
-0.066500522 -0.23481372 -0.69929487 32 137 118
-0.066768751 -0.23485246 -0.69932908 32 136 118
-0.065906629 -0.23553947 -0.69913 32 136 118
-0.065549098 -0.23372272 -0.6992783 33 138 119
-0.066031061 -0.23435387 -0.69927806 32 137 118
-0.06109336 -0.23402613 -0.69856119 29 134 116
-0.060748968 -0.23525172 -0.69837219 31 133 116
-0.061611932 -0.23609361 -0.69841492 33 133 117
-0.062914908 -0.2358408 -0.69864726 33 133 118
-0.060660627 -0.23360038 -0.69854009 29 134 116
-0.063452549 -0.23262909 -0.69908452 33 137 119
-0.062359039 -0.23322091 -0.69884819 31 135 118
-0.062638983 -0.23413864 -0.69879127 31 133 118
-0.064364597 -0.2324715 -0.69924474 33 139 119
-0.06408155 -0.23562756 -0.69885373 33 134 119
-0.058657873 -0.23455225 -0.69811696 33 134 118
-0.058173388 -0.23576735 -0.69786805 33 133 118
-0.057523467 -0.23427737 -0.69794875 33 134 118
-0.057262741 -0.23309249 -0.69805914 34 134 118
-0.058160629 -0.23430446 -0.69806015 33 134 118
-0.060106561 -0.23517171 -0.6982798 33 133 117
-0.059693348 -0.23264481 -0.69849288 29 134 116
-0.059046187 -0.23389959 -0.69825262 33 133 118
-0.059391201 -0.23458239 -0.69823188 33 133 117
-0.059228543 -0.23350985 -0.69832432 31 133 117
-0.053891104 -0.23537864 -0.69726944 40 133 116
-0.053124458 -0.23558238 -0.69714445 42 134 115
-0.052925732 -0.23484761 -0.6972062 41 134 115
-0.054048099 -0.23543777 -0.69728303 40 133 116
-0.054050129 -0.23492998 -0.69734395 38 133 116
-0.053593103 -0.2330922 -0.69750625 36 135 117
-0.056358255 -0.2350713 -0.69764304 35 133 119
-0.05571137 -0.23318677 -0.69779998 34 135 118
-0.055147637 -0.2324979 -0.69780993 34 135 117
-0.055719078 -0.23345737 -0.69776511 35 134 119
-0.051627014 -0.23622623 -0.6969161 42 134 114
-0.051705945 -0.23549424 -0.69702888 44 134 115
-0.049156964 -0.23539875 -0.69680643 39 134 114
-0.051060509 -0.23619297 -0.69686842 42 134 114
-0.049835756 -0.23521446 -0.6968959 42 133 115
-0.052394316 -0.23437671 -0.69721419 42 133 116
-0.05271548 -0.23528028 -0.697128 42 134 114
-0.052192345 -0.23274106 -0.69739598 38 136 116
-0.05207194 -0.23291495 -0.69736701 39 134 117
-0.050212946 -0.23306762 -0.69722211 43 133 118
-0.048099138 -0.23629953 -0.69663411 37 136 113
-0.044808753 -0.23616986 -0.69660157 39 137 114
-0.071440212 -0.23919097 -0.69959337 29 135 116
-0.071782134 -0.23975636 -0.69957811 30 135 116
-0.069097102 -0.2375768 -0.69935995 30 135 116
-0.068629429 -0.23856249 -0.69912237 32 136 115
-0.071149506 -0.23958102 -0.69947726 30 135 116
-0.069367349 -0.24014607 -0.69903845 33 137 114
-0.070690684 -0.23953745 -0.6993919 31 135 115
-0.06672705 -0.24013104 -0.69861841 32 137 115
-0.067213796 -0.24019322 -0.69867539 33 138 114
-0.065163329 -0.24014318 -0.6984061 30 136 117
-0.066457629 -0.23934615 -0.69869 33 137 116
-0.064951435 -0.23703922 -0.69880432 33 134 118
-0.067446187 -0.23865466 -0.69892401 33 136 115
-0.06768094 -0.2380832 -0.69904119 32 136 115
-0.067009784 -0.23682798 -0.69912851 32 134 117
-0.068139166 -0.24001378 -0.69882464 34 136 114
-0.068276815 -0.2368837 -0.69930196 30 135 116
-0.068182431 -0.23723458 -0.69923711 31 135 116
-0.063064054 -0.23918545 -0.69822478 31 135 118
-0.063432686 -0.23934154 -0.69826078 31 135 118
-0.061129089 -0.23698604 -0.69822299 33 133 117
-0.060553119 -0.23681603 -0.69815671 33 133 117
-0.060548048 -0.23711823 -0.69811493 33 133 117
-0.06374982 -0.23839431 -0.69844055 31 135 118
-0.06422729 -0.23670724 -0.69874746 33 134 118
-0.061907917 -0.23688336 -0.69835919 33 133 118
-0.063974805 -0.2367325 -0.69870436 33 134 118
-0.064236902 -0.23843317 -0.69851166 31 135 118
-0.058749028 -0.23930079 -0.69750452 33 134 119
-0.059377566 -0.23913296 -0.69763112 33 134 119
-0.057641312 -0.23948191 -0.69729549 33 134 118
-0.058775809 -0.24012898 -0.69740659 32 136 117
-0.059065279 -0.23973374 -0.69750422 33 134 119
-0.05917491 -0.23813982 -0.69772851 33 133 119
-0.060228202 -0.23940927 -0.69774634 33 134 118
-0.059228789 -0.2385345 -0.69768465 33 133 119
-0.060247667 -0.23759229 -0.69799638 33 133 118
-0.0602444 -0.2370026 -0.69807583 33 133 117
-0.058265772 -0.23709066 -0.69770676 33 134 118
-0.053075656 -0.23716843 -0.69693047 43 133 115
-0.053875037 -0.24008355 -0.69661373 36 136 116
-0.055421397 -0.23965307 -0.69692719 35 136 116
-0.053065404 -0.23837076 -0.6967454 40 134 115
-0.053565286 -0.23968488 -0.69662499 38 135 116
-0.054573413 -0.23713045 -0.6971463 40 133 116
-0.055559434 -0.23824835 -0.69713753 36 134 117
-0.056274924 -0.23717451 -0.69736427 35 134 119
-0.054951373 -0.23806591 -0.69708019 38 135 116
-0.055982042 -0.23831199 -0.69718516 36 134 118
-0.051325534 -0.23945166 -0.69640738 40 136 114
-0.050125215 -0.23796692 -0.69651788 38 136 113
-0.05174512 -0.23815493 -0.69663358 39 135 114
-0.052708004 -0.23744322 -0.69683141 42 134 114
-0.05138576 -0.23792835 -0.69663483 39 135 114
-0.051107921 -0.23660482 -0.69681102 41 134 114
-0.04977572 -0.23636284 -0.69672447 38 135 113
-0.048212033 -0.23709752 -0.69652826 40 136 112
-0.047284957 -0.23645911 -0.69660091 38 137 113
-0.047466855 -0.23646775 -0.69660246 38 136 113
-0.0466143 -0.23638347 -0.69660097 38 137 113
-0.0725618 -0.24195616 -0.6993764 33 134 116
-0.07430996 -0.24312304 -0.69959408 33 133 116
-0.072502054 -0.24194025 -0.69936484 33 134 116
-0.073036224 -0.24359281 -0.69920582 35 134 116
-0.071843266 -0.24089114 -0.69940615 31 135 115
-0.070296668 -0.241345 -0.699018 34 135 115
-0.070043899 -0.24053816 -0.69910789 33 136 114
-0.07162036 -0.24160399 -0.69923753 33 135 115
-0.069041654 -0.24044409 -0.69892389 34 136 114
-0.071456537 -0.24201348 -0.69913352 34 135 115
-0.064592563 -0.24178779 -0.69803113 34 135 116
-0.066910043 -0.24039461 -0.69860262 33 137 115
-0.061821409 -0.24246134 -0.69747508 34 135 115
-0.062728375 -0.24266273 -0.69757891 36 135 115
-0.062160306 -0.24193491 -0.69762617 35 136 116
-0.061189286 -0.24253713 -0.69736242 33 136 116
-0.062289026 -0.24229783 -0.69757855 35 136 115
-0.06402225 -0.24119578 -0.69805241 33 136 116
-0.061546735 -0.24039167 -0.6978178 32 134 118
-0.063044198 -0.24082541 -0.6979695 32 136 117
-0.061298911 -0.24055286 -0.69774938 32 136 117
-0.063864358 -0.24119906 -0.69802731 33 136 116
-0.057020776 -0.24146537 -0.69690287 32 136 117
-0.057637759 -0.24292956 -0.69676805 32 137 117
-0.05969812 -0.24362829 -0.6969294 32 136 115
-0.056803469 -0.24188627 -0.6968137 32 137 117
-0.058311503 -0.24303229 -0.69683921 32 137 116
-0.057032466 -0.24351974 -0.69660467 33 137 118
-0.058197968 -0.24044436 -0.69725698 32 136 117
-0.058749322 -0.24214773 -0.69703209 32 136 116
-0.058648583 -0.24169213 -0.69710016 32 136 116
-0.059591155 -0.24070239 -0.69744354 32 136 117
-0.059476763 -0.24244015 -0.69710004 31 137 115
-0.059380308 -0.24199262 -0.69716734 32 136 116
-0.05516756 -0.24387459 -0.69626462 33 139 116
-0.05389972 -0.24402197 -0.69603747 35 137 115
-0.054097682 -0.24174823 -0.69640529 36 137 117
-0.053639259 -0.24257812 -0.69620848 36 137 115
-0.052818637 -0.24210574 -0.6961453 37 136 115
-0.0554877 -0.24046218 -0.69681597 34 135 117
-0.056251742 -0.24263389 -0.69662148 33 137 118
-0.053896196 -0.24029045 -0.69658595 36 136 116
-0.054523334 -0.24106355 -0.69657367 35 137 116
-0.054639608 -0.2414535 -0.69653535 36 136 117
-0.056116153 -0.24343514 -0.6964829 33 138 118
-0.049303088 -0.24306925 -0.69575489 42 136 114
-0.049090512 -0.24314041 -0.69573152 42 136 114
-0.051465958 -0.2429367 -0.69591343 40 137 112
-0.052494448 -0.24411054 -0.69581944 36 138 113
-0.052454624 -0.24062927 -0.6963284 39 136 115
-0.051685888 -0.24211489 -0.69605076 40 137 113
-0.077464961 -0.24752893 -0.69947016 31 135 114
-0.077689126 -0.24759392 -0.69951069 33 134 114
-0.07441254 -0.24468681 -0.6993289 33 133 115
-0.074899726 -0.24488629 -0.69940495 33 133 116
-0.075743109 -0.24536605 -0.69950843 32 132 116
-0.075128563 -0.24689856 -0.69903797 29 135 114
-0.076164983 -0.24756616 -0.6991483 27 135 114
-0.073998995 -0.24552698 -0.69905287 33 134 115
-0.07260216 -0.24499701 -0.69883657 34 135 115
-0.073053107 -0.24632965 -0.69868267 31 135 116
-0.075328164 -0.24785356 -0.69889814 27 135 115
-0.073637925 -0.24573964 -0.69892532 33 134 115
-0.074469835 -0.24670671 -0.69892591 30 135 115
-0.071934812 -0.2455793 -0.69858795 34 135 116
-0.072166577 -0.24452004 -0.69883388 37 134 116
-0.060951844 -0.24478084 -0.69690174 33 137 114
-0.057633605 -0.24648324 -0.69618249 32 137 117
-0.058461864 -0.24641424 -0.69628847 33 138 116
-0.058249176 -0.24619047 -0.69630194 33 137 116
-0.058899727 -0.24741253 -0.69617021 33 137 116
-0.058454793 -0.24579696 -0.69639385 34 136 117
-0.058434468 -0.24540271 -0.69646311 33 137 116
-0.057800416 -0.24471503 -0.69650745 33 137 118
-0.057574775 -0.24485525 -0.69645309 33 137 118
-0.059967093 -0.2446558 -0.69679511 32 137 115
-0.052841205 -0.24452221 -0.69579184 35 138 113
-0.054115567 -0.24580908 -0.69578272 33 138 115
-0.05656885 -0.24490499 -0.69632363 33 137 119
-0.055708282 -0.24485508 -0.69619262 33 138 117
-0.054157231 -0.24453279 -0.69599557 33 139 114
-0.054355241 -0.24476416 -0.69598871 33 138 115
-0.051412627 -0.24440162 -0.69570768 37 137 114
-0.078599125 -0.24864522 -0.69951451 33 135 113
-0.078968786 -0.25017777 -0.69929552 32 136 113
-0.079005368 -0.24980848 -0.69937831 33 134 113
-0.077296779 -0.25025716 -0.69885856 30 136 112
-0.077294044 -0.24925482 -0.69907576 28 135 114
-0.078220382 -0.25066105 -0.69900888 30 136 112
-0.079555318 -0.25146252 -0.69917887 31 137 112
-0.073625289 -0.24839126 -0.69840765 27 135 117
-0.07464008 -0.24866129 -0.69857466 27 135 115
-0.075402975 -0.24881791 -0.69871032 27 135 114
-0.059267953 -0.25022018 -0.69574565 35 135 117
-0.059387129 -0.2486708 -0.6960156 34 135 116
-0.058585212 -0.24845386 -0.69596016 32 136 116
-0.05809756 -0.24822599 -0.69594234 31 136 116
-0.09379568 -0.20069924 -0.70812362 29 141 102
-0.093776345 -0.20061022 -0.70812368 29 142 102
-0.092995346 -0.20043601 -0.70784014 29 140 106
-0.091744989 -0.19974338 -0.70742232 32 137 112
-0.09282048 -0.20179181 -0.7076937 28 140 107
-0.09303882 -0.2028437 -0.70774621 31 143 103
-0.092746042 -0.20461152 -0.70758265 37 145 103
-0.093727343 -0.20863612 -0.70773393 58 131 117
-0.095130228 -0.20787008 -0.70824873 59 133 116
-0.095259175 -0.20799246 -0.70828336 57 133 116
-0.094447218 -0.20895007 -0.70795161 48 135 116
-0.093740314 -0.20761342 -0.70780236 70 127 117
-0.09712036 -0.21158764 -0.70881641 38 137 115
-0.097701147 -0.21200429 -0.70901567 38 137 115
-0.096427821 -0.21238163 -0.70855039 36 135 115
-0.094662376 -0.21233483 -0.70794082 34 136 116
-0.095558688 -0.21149993 -0.70826107 36 136 116
-0.094471149 -0.21108361 -0.70790398 36 138 115
-0.094546251 -0.21254358 -0.70789713 34 135 116
-0.093790613 -0.20999977 -0.70770586 46 134 116
-0.094306372 -0.21099463 -0.70785093 36 137 116
-0.094118603 -0.21044923 -0.70780283 42 135 117
-0.093231432 -0.21068156 -0.7075032 45 134 116
-0.097548038 -0.21573377 -0.70879376 39 135 115
-0.097277462 -0.21604493 -0.70867819 38 135 116
-0.09747269 -0.21658649 -0.70871937 39 134 116
-0.095896982 -0.21538335 -0.70821238 36 134 118
-0.0980836 -0.2131373 -0.70912111 38 136 115
-0.098454528 -0.21379815 -0.70922112 39 135 115
-0.097089387 -0.21360965 -0.70874053 37 136 115
-0.097689569 -0.21445316 -0.70891362 39 135 115
-0.096244805 -0.21296798 -0.70846963 36 134 115
-0.095650315 -0.21327485 -0.70824051 35 134 116
-0.094735675 -0.21588431 -0.70779496 36 134 118
-0.095037177 -0.21467718 -0.7079609 36 134 118
-0.093774475 -0.21528041 -0.707506 34 135 117
-0.093941346 -0.21578547 -0.7075361 35 135 117
-0.093575329 -0.21388531 -0.70751113 33 136 116
-0.094544448 -0.21467708 -0.70779651 34 135 117
-0.096736364 -0.21848257 -0.70837206 37 135 116
-0.098030612 -0.21935214 -0.70880401 40 134 115
-0.096644409 -0.21950153 -0.70830125 36 135 115
-0.097138189 -0.21971318 -0.70847052 37 135 114
-0.097321674 -0.21898986 -0.70856321 38 135 115
-0.097892292 -0.21788804 -0.70881438 40 134 116
-0.098407313 -0.21775238 -0.70900744 42 134 116
-0.094998315 -0.22027804 -0.70771283 31 135 114
-0.09503945 -0.2201668 -0.70772994 31 135 114
-0.09404134 -0.21771014 -0.70748723 33 134 117
-0.094067305 -0.21992962 -0.70742697 29 135 114
-0.095346116 -0.21697533 -0.7079407 34 135 117
-0.095798783 -0.22095564 -0.70793915 32 137 112
-0.096165575 -0.22313219 -0.707955 34 135 114
-0.098915145 -0.22433658 -0.70884007 40 134 112
-0.096226238 -0.22135364 -0.70806611 33 135 112
-0.0961188 -0.22442336 -0.70787346 34 135 114
-0.096993335 -0.22417539 -0.70818698 36 135 114
-0.097516812 -0.22209501 -0.70847869 37 135 113
-0.09836521 -0.22334862 -0.70870119 38 135 112
-0.098670669 -0.22189309 -0.70890576 40 134 113
-0.098609447 -0.22300833 -0.70881099 40 134 113
-0.097216226 -0.22094411 -0.70844603 37 134 113
-0.095621057 -0.22184946 -0.70783496 32 136 113
-0.095202267 -0.22450511 -0.70756787 33 134 115
-0.094833501 -0.22314961 -0.70752031 32 134 114
-0.095205463 -0.2227169 -0.70765954 33 134 114
-0.096489921 -0.22777392 -0.70783567 40 135 114
-0.096593656 -0.22810085 -0.70785487 40 135 113
-0.096746758 -0.22679974 -0.70796353 38 136 114
-0.097254492 -0.22736545 -0.70810407 40 135 114
-0.097547263 -0.22550108 -0.70830011 38 136 113
-0.097018406 -0.22534251 -0.70812804 37 135 114
-0.096507721 -0.22532903 -0.70795316 36 135 114
-0.097506672 -0.22571047 -0.70827311 38 136 113
-0.096853286 -0.22472097 -0.70810986 36 135 114
-0.095440224 -0.22660889 -0.70754796 36 136 113
-0.046031382 -0.24395585 -0.69543111 50 138 115
-0.034913722 -0.24383445 -0.69477671 33 131 118
-0.053274412 -0.2456819 -0.69568712 33 139 115
-0.051019389 -0.24461628 -0.69565129 36 137 114
-0.052228022 -0.24669908 -0.69543755 32 138 117
-0.051747009 -0.24695387 -0.69537002 32 137 119
-0.050513893 -0.24557592 -0.69548285 33 139 116
-0.052620027 -0.24647905 -0.69549429 32 138 117
-0.049296044 -0.24657623 -0.69518942 32 134 118
-0.050484698 -0.24652708 -0.69532019 33 137 118
-0.05000326 -0.24610659 -0.69534546 33 138 117
-0.049164176 -0.24736923 -0.69503498 29 134 119
-0.049522117 -0.24673443 -0.69518447 31 136 118
-0.045887299 -0.24700959 -0.69483352 35 136 116
-0.046830352 -0.24721897 -0.69487381 33 135 118
-0.046191927 -0.2470995 -0.69484198 35 135 117
-0.047011249 -0.24709736 -0.69491476 34 134 117
-0.047440358 -0.24603955 -0.69515282 38 135 117
-0.047674131 -0.24583597 -0.69520313 38 135 117
-0.048443448 -0.24583247 -0.69525021 35 135 117
-0.046673443 -0.24583863 -0.69514221 42 136 117
-0.048475094 -0.24733728 -0.69498479 30 133 119
-0.047118969 -0.2444707 -0.69541216 44 137 116
-0.043530859 -0.24701831 -0.69466174 40 133 118
-0.043610275 -0.24759853 -0.69455451 34 135 117
-0.041504562 -0.24760976 -0.69444567 33 138 117
-0.041154355 -0.24705905 -0.69453347 40 134 118
-0.042188045 -0.24687879 -0.69462043 42 133 118
-0.042301018 -0.24697696 -0.69460732 40 134 118
-0.0400666 -0.24728021 -0.69441843 32 136 117
-0.038374498 -0.24674071 -0.69442284 33 134 118
-0.037273381 -0.24664621 -0.69438201 33 134 118
-0.035568748 -0.24439892 -0.69470131 35 130 118
-0.036350451 -0.24629055 -0.69440705 30 132 119
-0.036820877 -0.24657847 -0.6943748 31 135 119
-0.034848273 -0.24414706 -0.69471854 31 131 118
-0.05803664 -0.25192067 -0.69528216 31 135 117
-0.057833895 -0.25035685 -0.69553858 31 136 117
-0.058205184 -0.25020775 -0.69561344 33 136 117
-0.057477452 -0.254062 -0.69482565 29 134 116
-0.058500018 -0.25382155 -0.69502223 33 133 116
-0.058520857 -0.25577894 -0.69466102 32 132 117
-0.0591802 -0.25260702 -0.69531649 34 134 117
-0.058986165 -0.25220716 -0.69535851 34 134 117
-0.059254877 -0.25331083 -0.69520754 34 133 117
-0.059484001 -0.25292224 -0.69530314 35 134 116
-0.057790384 -0.25707689 -0.69431919 30 133 116
-0.057005629 -0.25821441 -0.69403332 33 132 115
-0.056930985 -0.25698066 -0.69422317 29 134 116
-0.05794144 -0.25650197 -0.69444406 30 133 116
-0.05770082 -0.25663617 -0.69438416 30 133 116
-0.058048852 -0.25651187 -0.69445825 30 133 116
-0.05732549 -0.25621217 -0.69440496 29 134 116
-0.058507953 -0.25692791 -0.69445133 33 133 116
-0.05558823 -0.25882652 -0.69374353 32 133 114
-0.055613153 -0.25944939 -0.69366276 33 132 114
-0.05501359 -0.25822714 -0.6937598 31 132 115
-0.054811295 -0.26161289 -0.69324476 33 132 113
-0.055442654 -0.26155388 -0.69332439 33 132 113
-0.091394454 -0.19953845 -0.70731169 32 137 112
-0.089863665 -0.19913203 -0.70678878 30 138 112
-0.087989517 -0.19819117 -0.70620888 32 139 112
-0.089256987 -0.20041063 -0.70651507 27 135 114
-0.088886052 -0.19880548 -0.70647609 30 138 112
-0.090070806 -0.20013656 -0.70680171 27 138 113
-0.090726271 -0.20042756 -0.7070055 27 138 112
-0.086999334 -0.20082511 -0.7057519 29 134 116
-0.084250517 -0.19976342 -0.70493126 34 136 116
-0.08517991 -0.20091626 -0.705158 30 136 116
-0.087392226 -0.20027706 -0.70590961 30 133 116
-0.086369671 -0.19835338 -0.70569229 34 137 115
-0.087213829 -0.1980557 -0.70597166 33 139 113
-0.087709755 -0.20044842 -0.70599973 29 134 116
-0.081070088 -0.2001211 -0.70401263 34 136 115
-0.080225743 -0.19969577 -0.70380425 36 136 115
-0.080805324 -0.1994554 -0.70397675 36 137 115
-0.081806913 -0.20003846 -0.70421964 33 138 115
-0.083808027 -0.20020051 -0.70476729 33 138 116
-0.079544693 -0.20101409 -0.70355982 34 136 114
-0.07937286 -0.20018005 -0.70356363 36 136 115
-0.079411685 -0.19999465 -0.70358342 36 136 115
-0.092127167 -0.20303659 -0.70739341 31 142 108
-0.089432724 -0.20505163 -0.70640522 24 143 109
-0.08914832 -0.20327368 -0.70637375 27 138 111
-0.091483943 -0.20506395 -0.70711422 29 147 103
-0.090614989 -0.20467523 -0.7068283 27 145 105
-0.090933762 -0.20459336 -0.70694166 28 145 105
-0.090672217 -0.20282198 -0.70690483 27 140 109
-0.09138307 -0.2015751 -0.70717508 26 138 111
-0.091341987 -0.20344155 -0.70711261 27 143 106
-0.091404848 -0.20440726 -0.70710838 29 146 104
-0.090072647 -0.20246853 -0.70671356 27 139 110
-0.089585178 -0.20151755 -0.70657539 27 135 114
-0.08515925 -0.20327961 -0.70506155 27 137 115
-0.085409276 -0.20502761 -0.70508617 26 138 115
-0.08447168 -0.20247778 -0.70486879 28 136 115
-0.087740593 -0.20503357 -0.70582467 19 140 113
-0.08568538 -0.2041449 -0.70520127 25 139 114
-0.084531114 -0.20504202 -0.70480746 28 136 115
-0.087480076 -0.20127667 -0.70588124 27 134 115
-0.085452594 -0.20178732 -0.70520657 27 137 115
-0.08658649 -0.20275199 -0.70553684 25 137 114
-0.086271033 -0.2025959 -0.70544076 25 139 114
-0.086080939 -0.2030582 -0.7053619 24 139 114
-0.086089469 -0.20325726 -0.70535713 24 139 114
-0.080117501 -0.20365202 -0.70355868 33 134 113
-0.080375105 -0.20413385 -0.70360959 33 136 113
-0.082756534 -0.20466335 -0.70429003 31 135 115
-0.082333297 -0.20396942 -0.70420164 31 136 115
-0.08258155 -0.2043073 -0.70425725 31 136 115
-0.081895679 -0.20490476 -0.70402056 32 134 114
-0.082416452 -0.20495895 -0.70417267 31 136 115
-0.082672201 -0.20273563 -0.70434582 31 136 115
-0.081640586 -0.20150669 -0.70410079 32 137 114
-0.081179932 -0.20129256 -0.70398092 32 137 114
-0.082422785 -0.20298424 -0.70426953 31 136 115
-0.083853371 -0.20194037 -0.70469511 31 136 116
-0.079973757 -0.20293774 -0.70356005 33 134 113
-0.091876946 -0.20536372 -0.70723754 33 145 103
-0.092092641 -0.20850708 -0.7071858 60 129 116
-0.0919699 -0.20609517 -0.70723975 38 143 105
-0.087932378 -0.20690541 -0.70574147 26 138 111
-0.091546021 -0.20881376 -0.70698464 63 126 118
-0.0912567 -0.20895204 -0.70686197 61 127 118
-0.088411428 -0.20576279 -0.70601737 25 140 113
-0.088538043 -0.20597854 -0.70604908 27 138 114
-0.090169184 -0.20594585 -0.70662475 33 139 111
-0.090875901 -0.20627005 -0.70685643 38 140 109
-0.091074668 -0.20668359 -0.70690888 43 137 111
-0.089390308 -0.20607688 -0.70635021 32 138 113
-0.089914382 -0.20564188 -0.70654857 29 141 109
-0.088309519 -0.205097 -0.70601499 19 142 112
-0.086520761 -0.20762655 -0.70523411 32 134 112
-0.085230917 -0.20738275 -0.70486033 30 136 113
-0.084989175 -0.20812622 -0.70473915 30 136 113
-0.085226282 -0.20867276 -0.70477533 30 136 113
-0.084596388 -0.20616756 -0.70474738 31 135 115
-0.086946532 -0.20580366 -0.70551395 24 139 113
-0.087251768 -0.20812574 -0.7054258 32 136 110
-0.084852137 -0.20537433 -0.70488447 28 136 115
-0.084935464 -0.20591944 -0.70486754 31 135 115
-0.085244782 -0.20536952 -0.70500928 27 137 115
-0.085712552 -0.20632459 -0.70508146 30 135 113
-0.082574874 -0.20815627 -0.70404959 32 137 114
-0.082451895 -0.20812178 -0.70401829 33 137 113
-0.083096996 -0.20875633 -0.70415294 31 137 114
-0.083423458 -0.20758504 -0.70431781 31 136 115
-0.083732828 -0.20832855 -0.70435399 30 136 115
-0.080866404 -0.20635785 -0.70364791 33 135 113
-0.083280817 -0.2051343 -0.7044211 31 135 115
-0.083115675 -0.20539674 -0.70436031 31 136 115
-0.081816375 -0.20717432 -0.70389467 33 137 113
-0.081179291 -0.20552665 -0.70377791 33 136 113
-0.092883877 -0.21014549 -0.70740175 53 130 117
-0.092059471 -0.20907061 -0.70715368 63 127 118
-0.092138924 -0.21151246 -0.70711499 43 133 117
-0.092583783 -0.21126702 -0.70727199 46 132 117
-0.08859916 -0.21259147 -0.70579934 27 138 115
-0.090336971 -0.21234609 -0.70643324 29 137 115
-0.08910165 -0.2105312 -0.70599282 31 136 112
-0.088337719 -0.21152098 -0.70570964 29 136 113
-0.089426212 -0.21182024 -0.7061044 29 137 114
-0.088934489 -0.21124728 -0.70592827 30 136 113
-0.089628629 -0.21069908 -0.70618433 31 137 112
-0.090310782 -0.20959529 -0.70647764 48 131 115
-0.090801872 -0.21168257 -0.70661062 33 136 115
-0.088388011 -0.20924146 -0.70574492 35 135 110
-0.091687553 -0.20959723 -0.70700914 59 128 118
-0.089405365 -0.21002127 -0.7061165 36 134 112
-0.085271277 -0.21091294 -0.7047295 27 137 114
-0.08625146 -0.21218845 -0.70500547 27 137 114
-0.086629629 -0.21223906 -0.70513445 27 138 114
-0.085989349 -0.21171267 -0.70493859 27 138 114
-0.084292985 -0.20991932 -0.70443982 28 135 115
-0.086818144 -0.21235172 -0.70519429 27 137 114
-0.08594761 -0.21071671 -0.70496416 28 136 115
-0.087799788 -0.20980297 -0.70552832 32 136 110
-0.086886428 -0.20977183 -0.70525259 31 135 112
-0.085832179 -0.20995644 -0.70493317 28 138 113
-0.086093746 -0.21049349 -0.70500946 28 136 114
-0.083413109 -0.21068819 -0.7041468 27 137 114
-0.083723083 -0.20948875 -0.70428735 28 136 115
-0.081975006 -0.21228492 -0.70369667 27 137 114
-0.08301498 -0.21112764 -0.70402229 27 137 114
-0.082933024 -0.20974176 -0.70406306 30 136 114
-0.08237049 -0.20998612 -0.70389986 31 136 114
-0.082134657 -0.21089984 -0.70379883 30 136 114
-0.081821539 -0.21088466 -0.70371413 31 135 114
-0.092955485 -0.21357657 -0.70731795 32 136 117
-0.092415914 -0.2129693 -0.70716715 30 138 116
-0.092099741 -0.21622643 -0.70689726 33 135 118
-0.092348352 -0.21505731 -0.70703828 33 137 117
-0.092071183 -0.21488824 -0.70695424 32 137 117
-0.089323074 -0.21673349 -0.70596063 36 135 117
-0.088798106 -0.21666135 -0.70578998 36 135 117
-0.088583738 -0.21577428 -0.70573092 34 136 117
-0.091042206 -0.21618618 -0.7065289 33 136 117
-0.088281564 -0.21384208 -0.70565593 28 139 115
-0.091668092 -0.21610703 -0.70675534 33 135 118
-0.090409927 -0.21474162 -0.70636511 31 136 117
-0.090114623 -0.21434385 -0.70627731 29 137 116
-0.091258533 -0.21328227 -0.70674652 30 138 116
-0.091787785 -0.21644983 -0.70678186 33 135 118
-0.090375215 -0.21464422 -0.7063573 31 136 117
-0.085698739 -0.21658106 -0.70474172 35 136 114
-0.086663775 -0.21567868 -0.70507938 33 135 115
-0.084890783 -0.21421441 -0.7044822 29 135 114
-0.086641788 -0.21652454 -0.70506561 36 136 115
-0.085947998 -0.21594284 -0.7048319 33 137 115
-0.085671723 -0.21593788 -0.70473725 33 137 115
-0.08688198 -0.21366975 -0.70517951 28 136 115
-0.086482882 -0.21310928 -0.70504755 27 137 114
-0.084559768 -0.21336769 -0.70437539 27 134 114
-0.086888812 -0.21497339 -0.7051658 32 136 115
-0.086201623 -0.21349818 -0.70494491 27 135 115
-0.083255515 -0.21570487 -0.70398808 32 137 112
-0.083856627 -0.21467796 -0.70413762 29 136 113
-0.082584485 -0.21541788 -0.70383173 33 134 113
-0.082608528 -0.21464165 -0.70383978 31 135 113
-0.08337231 -0.21319202 -0.7040261 27 134 114
-0.08151982 -0.21393748 -0.70355594 31 135 114
-0.082930602 -0.21307153 -0.70391202 27 134 114
-0.093730129 -0.21799178 -0.70737529 33 134 117
-0.09360531 -0.21952231 -0.7072857 30 136 115
-0.092787132 -0.22036737 -0.70700753 27 134 115
-0.092177056 -0.21758775 -0.70687169 33 134 118
-0.092173666 -0.21913728 -0.70683926 27 135 116
-0.090773776 -0.22031832 -0.70636547 25 134 117
-0.088276014 -0.21870285 -0.70558619 32 136 118
-0.091172025 -0.22019376 -0.7064957 25 134 117
-0.088672981 -0.21879707 -0.70571262 31 136 118
-0.088093966 -0.22046573 -0.70550007 27 135 120
-0.090024397 -0.21863601 -0.70615172 30 135 116
-0.089871421 -0.21860269 -0.70610243 30 135 116
-0.090249941 -0.21679874 -0.70626259 35 136 117
-0.088816591 -0.21760747 -0.705778 34 135 117
-0.091139294 -0.21760069 -0.70653689 32 134 117
-0.084352612 -0.21812831 -0.7042672 31 137 114
-0.086269818 -0.21931928 -0.70489895 28 136 117
-0.084825166 -0.21816115 -0.70442438 31 137 115
-0.086948603 -0.22015986 -0.70512021 27 137 119
-0.085754141 -0.21991672 -0.70472383 27 137 118
-0.085775726 -0.21944487 -0.70473373 28 136 117
-0.086700864 -0.21873209 -0.70505363 30 136 117
-0.08784125 -0.21971697 -0.70542932 28 136 119
-0.08787103 -0.21990311 -0.70543659 27 137 119
-0.087490655 -0.21966103 -0.70530993 28 136 118
-0.084905498 -0.21705095 -0.70446408 33 138 113
-0.086138733 -0.21849255 -0.7048645 31 136 116
-0.083840325 -0.21711677 -0.70411247 32 138 112
-0.083387606 -0.21813795 -0.70398802 31 137 114
-0.082379989 -0.21993911 -0.7037136 28 136 118
-0.082937337 -0.2180136 -0.70387894 32 137 114
-0.082659364 -0.21754541 -0.70382321 33 138 113
-0.081689768 -0.21788433 -0.70358706 34 136 115
-0.094405897 -0.2237146 -0.70735681 31 135 115
-0.094211645 -0.2237594 -0.70729333 31 135 115
-0.093392961 -0.22077778 -0.70718771 27 134 115
-0.093005769 -0.22395238 -0.70690268 29 134 116
-0.094134949 -0.22396994 -0.70725828 31 135 115
-0.092549682 -0.22297995 -0.70680892 27 134 115
-0.092862807 -0.22275868 -0.70691919 27 134 116
-0.088142455 -0.22425555 -0.70534009 27 134 119
-0.089551754 -0.22402373 -0.70580012 27 132 118
-0.090296514 -0.22333929 -0.70607018 27 134 118
-0.088227913 -0.22115918 -0.70551634 26 136 120
-0.089371078 -0.22264425 -0.70580894 27 135 119
-0.088903874 -0.22385712 -0.70560175 27 134 119
-0.090773895 -0.22147833 -0.70631939 25 134 117
-0.091427475 -0.22230761 -0.706487 26 133 117
-0.090531684 -0.22101669 -0.70626527 24 135 118
-0.091745012 -0.2245508 -0.70647323 28 134 117
-0.090853848 -0.22085811 -0.70637721 24 133 118
-0.0917105 -0.22141828 -0.70662415 24 133 117
-0.086260334 -0.22421569 -0.70476955 28 132 120
-0.086088873 -0.22340603 -0.70472533 27 134 119
-0.085981488 -0.22327916 -0.70469487 27 134 119
-0.085365407 -0.22402973 -0.70450956 28 132 119
-0.087071016 -0.22392941 -0.70500839 27 134 119
-0.085638516 -0.22447813 -0.70458615 28 132 119
-0.085727587 -0.22089575 -0.7047013 27 135 119
-0.086821079 -0.22310993 -0.70495886 27 134 119
-0.087466612 -0.22236893 -0.70520949 27 135 120
-0.084616445 -0.22074552 -0.70433855 27 135 118
-0.087849267 -0.22106425 -0.70539975 26 136 120
-0.083437525 -0.22430959 -0.70394576 28 132 118
-0.08359006 -0.22304162 -0.70399904 28 134 118
-0.082906067 -0.22336023 -0.70379859 27 134 118
-0.081880346 -0.22163123 -0.70355839 27 135 119
-0.082002036 -0.22236785 -0.70357454 27 135 118
-0.082167812 -0.22094129 -0.70364857 27 135 119
-0.082715906 -0.22302529 -0.70374769 27 134 118
-0.094846323 -0.22780138 -0.70730668 37 135 114
-0.093065619 -0.22500011 -0.70687008 31 135 115
-0.093035132 -0.2253003 -0.70684695 31 135 115
-0.094319269 -0.22740261 -0.70715815 36 135 114
-0.093605079 -0.22824956 -0.70689017 34 135 114
-0.092051715 -0.22542053 -0.70652962 30 133 116
-0.092244267 -0.22542572 -0.70659077 30 133 116
-0.091964014 -0.22496535 -0.70652324 29 134 116
-0.094926886 -0.22832371 -0.70730811 38 136 114
-0.093454391 -0.2281328 -0.70684767 34 135 114
-0.088901043 -0.22758633 -0.70539975 30 135 116
-0.089150697 -0.22800259 -0.70545751 30 135 116
-0.089334831 -0.22817448 -0.70550811 30 135 116
-0.088851124 -0.22827844 -0.70534223 30 135 116
-0.090307258 -0.22843371 -0.70581388 31 135 115
-0.08851856 -0.22494127 -0.70542705 29 132 120
-0.089599498 -0.2255213 -0.70574367 29 134 118
-0.089362644 -0.22498055 -0.70569402 29 132 119
-0.089637324 -0.22518967 -0.70577157 29 132 119
-0.089640126 -0.22604844 -0.70573157 30 133 118
-0.086690038 -0.22747315 -0.70472139 30 133 117
-0.086945526 -0.22775123 -0.70477939 30 135 117
-0.084670722 -0.22825249 -0.70407104 30 132 119
-0.085212782 -0.22723426 -0.70429778 29 134 118
-0.08439482 -0.22521183 -0.70418519 29 131 119
-0.087514251 -0.22476788 -0.70512348 28 134 120
-0.087247416 -0.22677103 -0.70492667 29 134 117
-0.085752495 -0.22559611 -0.7045598 28 134 118
-0.087517768 -0.22549021 -0.70508164 29 132 120
-0.08774215 -0.22696799 -0.70505947 29 135 117
-0.083353601 -0.22804883 -0.70369166 30 132 119
-0.083963864 -0.22607099 -0.70400167 29 132 119
-0.083250158 -0.22702101 -0.70372742 29 134 119
-0.083239339 -0.22663623 -0.70375007 29 134 119
-0.082680143 -0.2247428 -0.70371515 28 132 118
-0.094778582 -0.22925115 -0.70719463 38 136 113
-0.095315516 -0.22899503 -0.70738566 38 137 113
-0.094975062 -0.23026182 -0.70717847 40 135 113
-0.092140101 -0.23210691 -0.70602769 36 134 114
-0.093501881 -0.23037675 -0.70669419 38 135 113
-0.092459366 -0.22985378 -0.70638633 35 134 114
-0.092753261 -0.22972406 -0.70650351 35 135 113
-0.089014381 -0.23231259 -0.70501328 36 132 118
-0.090805031 -0.23199444 -0.70560223 35 133 115
-0.089493297 -0.23069832 -0.7053113 33 133 116
-0.090404004 -0.23182355 -0.70549256 34 134 115
-0.090339206 -0.23136835 -0.70551419 33 134 115
-0.089157268 -0.22971821 -0.70529747 31 136 115
-0.091355257 -0.23189113 -0.70578527 35 133 114
-0.091773778 -0.22861224 -0.70628273 33 134 115
-0.089888252 -0.2295787 -0.70555419 31 136 115
-0.089215659 -0.22858077 -0.70544142 31 135 115
-0.087983765 -0.22858712 -0.70503384 30 135 116
-0.08672075 -0.23161718 -0.7043798 34 132 119
-0.085176632 -0.23187223 -0.7039054 33 134 116
-0.084836058 -0.23140526 -0.70384651 33 134 117
-0.085057348 -0.23082826 -0.70396185 33 133 118
-0.085074484 -0.23167372 -0.70389283 33 134 117
-0.08410839 -0.23008494 -0.70374906 31 133 118
-0.087480083 -0.22937356 -0.70481008 31 135 117
-0.085648 -0.22980137 -0.70422632 33 132 119
-0.087619014 -0.23184206 -0.70462447 35 132 119
-0.087232679 -0.229316 -0.7047419 31 135 117
-0.087427765 -0.2306312 -0.70467895 33 132 118
-0.083750151 -0.23080617 -0.70357955 31 137 115
-0.083889648 -0.22933833 -0.70374978 30 135 118
-0.092302367 -0.23312901 -0.70594835 36 133 114
-0.090825811 -0.2332547 -0.70547432 36 133 115
-0.090676874 -0.23497359 -0.70523149 37 134 114
-0.089183263 -0.2325519 -0.70504117 36 132 118
-0.090612851 -0.23354937 -0.70537412 36 133 115
-0.086508282 -0.23278828 -0.70420098 36 133 117
-0.086218469 -0.23290318 -0.70410162 37 133 117
-0.084224887 -0.23248559 -0.7035706 33 137 113
0 0 0 1 0 0 0 1 0 0 0 1 0 0 0 0 0 944 1 0 0
