ply
format ascii 1.0
comment PCL generated
element vertex 1027
property float x
property float y
property float z
property uchar red
property uchar green
property uchar blue
element camera 1
property float view_px
property float view_py
property float view_pz
property float x_axisx
property float x_axisy
property float x_axisz
property float y_axisx
property float y_axisy
property float y_axisz
property float z_axisx
property float z_axisy
property float z_axisz
property float focal
property float scalex
property float scaley
property float centerx
property float centery
property int viewportx
property int viewporty
property float k1
property float k2
end_header
0.25575781 -0.46538818 -0.8051194 10 130 124
0.25689954 -0.46494818 -0.80617416 11 130 124
0.25608104 -0.46664423 -0.80519301 9 128 127
0.25782874 -0.46600518 -0.80689067 10 128 126
0.25700179 -0.46643257 -0.80607402 9 130 126
0.25808784 -0.46490046 -0.80724061 11 130 125
0.25913152 -0.46675086 -0.80803972 9 130 126
0.25923508 -0.46598685 -0.80821073 10 128 126
0.25852001 -0.46497574 -0.80763841 11 128 124
0.25974163 -0.46576548 -0.80870706 10 130 124
0.25999749 -0.4660072 -0.80893737 10 130 124
0.25838557 -0.4682039 -0.80723941 9 128 126
0.2590028 -0.46900815 -0.8077628 9 130 126
0.25750813 -0.46751747 -0.80646396 9 128 126
0.25842339 -0.46685848 -0.80736715 9 130 126
0.25865951 -0.46716872 -0.80756718 9 130 126
0.25860485 -0.46716049 -0.80751657 9 130 126
0.25824627 -0.4684307 -0.8070932 9 128 126
0.25818095 -0.46934766 -0.80695844 9 128 127
0.25796893 -0.46917516 -0.80676979 9 128 127
0.25654528 -0.46901792 -0.80539596 8 128 127
0.2586582 -0.47046846 -0.80730498 9 128 127
0.25609195 -0.46702322 -0.80516613 8 128 127
0.25820103 -0.47057852 -0.80684662 8 128 126
0.25626361 -0.46843374 -0.80518317 8 128 127
0.2601546 -0.46803397 -0.80893165 9 130 126
0.25994158 -0.46958739 -0.80861312 9 130 126
0.25980929 -0.46731788 -0.80863738 9 130 126
0.25926268 -0.4716163 -0.80775785 9 128 127
0.25896963 -0.47084466 -0.8075667 9 128 127
0.25823069 -0.47240168 -0.80665314 7 130 126
0.25912187 -0.47256091 -0.807504 8 128 126
0.258412 -0.47222376 -0.80685216 8 128 126
0.25863123 -0.47299483 -0.80697131 7 130 126
0.25890696 -0.4735415 -0.80717331 7 130 126
0.25845635 -0.47419795 -0.80670816 7 130 126
0.25757346 -0.47358373 -0.80594206 7 130 126
0.25699198 -0.47180006 -0.80553806 7 128 126
0.25699574 -0.47378969 -0.8053965 7 128 126
0.25834453 -0.4737384 -0.80663896 7 130 126
0.26041463 -0.47107211 -0.8089658 9 130 126
0.26015463 -0.47425118 -0.80833834 8 130 126
0.26007396 -0.47259676 -0.80843377 9 128 126
0.25910112 -0.47613436 -0.80715674 7 130 126
0.25945964 -0.47729862 -0.80739927 7 130 126
0.25817707 -0.47528148 -0.80637163 7 130 126
0.25865856 -0.47599047 -0.80676103 7 130 126
0.25708985 -0.4750126 -0.80539316 7 130 126
0.25742903 -0.4781633 -0.80543751 7 130 126
0.25858596 -0.47839969 -0.80649775 7 130 126
0.25714567 -0.47681785 -0.80528957 7 130 126
0.25872523 -0.47773165 -0.80668581 7 130 126
0.25765607 -0.4763447 -0.80580741 7 130 126
0.26058215 -0.47626463 -0.80864114 8 128 126
0.26092252 -0.4770788 -0.80895966 8 130 126
0.26087594 -0.47619203 -0.80896914 8 130 126
0.26007816 -0.47715744 -0.80802709 8 130 126
0.25980738 -0.47627974 -0.80780107 8 130 126
0.25961176 -0.48082471 -0.80740094 8 128 126
0.25956622 -0.47931468 -0.80738789 8 128 126
0.25858989 -0.4789544 -0.80648279 7 130 126
0.25959834 -0.48075357 -0.80738986 8 128 126
0.25872204 -0.48045251 -0.80657709 8 128 127
0.25725913 -0.48026165 -0.80518693 7 130 126
0.25761181 -0.48038611 -0.80552107 7 130 126
0.25808075 -0.48225805 -0.80590081 8 128 127
0.25828475 -0.48119164 -0.80613726 8 128 127
0.25911188 -0.48171353 -0.8069123 8 128 127
0.26013064 -0.48135489 -0.80793494 8 128 126
0.2608611 -0.48041409 -0.80873978 8 128 126
0.26073363 -0.4812879 -0.80857658 8 130 126
0.26016349 -0.47963572 -0.80800521 8 128 126
0.25989643 -0.47918272 -0.80772036 8 128 126
0.25986558 -0.47968468 -0.80767673 8 128 126
0.25814971 -0.4827536 -0.80594212 8 128 127
0.25881222 -0.48365664 -0.80652761 8 128 127
0.25778502 -0.48269036 -0.80559522 8 128 127
0.25898889 -0.48303398 -0.80673259 8 128 127
0.25808588 -0.48264492 -0.80588692 8 128 127
0.25843811 -0.48435187 -0.80612653 8 128 127
0.25821599 -0.48398492 -0.80593467 8 128 127
0.25935304 -0.48584685 -0.80691838 8 128 127
0.25751895 -0.48537564 -0.80510694 8 128 127
0.25934255 -0.48608518 -0.80688661 8 128 127
0.26007992 -0.48632047 -0.80764598 8 130 127
0.26070082 -0.48575476 -0.80836296 9 128 127
0.2605598 -0.4849475 -0.80823219 9 128 127
0.25999933 -0.48472762 -0.80763096 8 130 127
0.26006666 -0.48365453 -0.80776316 8 130 127
0.25915715 -0.48873073 -0.80655843 9 128 126
0.25972641 -0.4869599 -0.80722159 8 130 127
0.25843531 -0.4875173 -0.80588931 8 130 126
0.25949454 -0.48799998 -0.80693567 8 130 126
0.25773841 -0.48780587 -0.80515069 8 130 126
0.25784698 -0.48777342 -0.80526584 8 130 126
0.25816077 -0.4900791 -0.80543882 9 128 126
0.25879675 -0.4894574 -0.80614203 9 128 126
0.26109314 -0.48975232 -0.80869943 10 128 126
0.26059371 -0.48858383 -0.80812532 9 130 126
0.26069704 -0.48818859 -0.80825734 9 130 126
0.26042145 -0.48907211 -0.80790865 9 130 126
0.25987208 -0.48793679 -0.80733222 9 128 126
0.26016918 -0.48784071 -0.80767083 9 128 126
0.2598255 -0.48956192 -0.80719918 9 130 126
0.25877553 -0.49028605 -0.80606681 9 128 126
0.25882196 -0.4920266 -0.80606794 10 128 126
0.25899604 -0.49099028 -0.80627722 9 130 126
0.25844625 -0.4932721 -0.80558658 10 130 126
0.25854906 -0.49205735 -0.80577159 10 128 126
0.25878888 -0.49413425 -0.80591428 10 130 126
0.2581206 -0.49179429 -0.80531383 10 128 126
0.26127586 -0.49099433 -0.80889368 10 130 126
0.26122651 -0.49266145 -0.80880457 11 130 126
0.25999427 -0.4940117 -0.80727434 11 130 125
0.26046821 -0.49287847 -0.80787349 10 130 125
0.25996312 -0.49289197 -0.80726308 10 130 125
0.26010215 -0.49296039 -0.80742782 10 130 125
0.26010263 -0.49046314 -0.80749619 10 128 126
0.25971556 -0.49686733 -0.80689955 10 130 126
0.25887129 -0.49476594 -0.8059963 10 130 126
0.25972801 -0.49536681 -0.80693412 10 130 125
0.25874716 -0.49444914 -0.80586356 10 130 126
0.2589049 -0.49643984 -0.80600774 10 130 126
0.25820053 -0.49719802 -0.80520123 10 130 126
0.25813052 -0.49608552 -0.80514663 10 130 126
0.25945917 -0.49762723 -0.80660385 10 130 126
0.26056826 -0.49774563 -0.80797756 10 130 126
0.26075003 -0.49714804 -0.80820286 11 130 126
0.26123467 -0.49652803 -0.80882192 11 130 126
0.26122692 -0.49524465 -0.80878747 12 130 126
0.2609697 -0.49483305 -0.80845553 12 128 126
0.25984046 -0.49666411 -0.80704921 10 130 126
0.26037139 -0.49559927 -0.80771321 11 130 126
0.26055554 -0.49599826 -0.80793291 11 130 126
0.2595785 -0.49813756 -0.80671751 10 130 126
0.25971237 -0.49997514 -0.80664134 11 130 125
0.25975096 -0.49880216 -0.80682915 10 130 126
0.25842586 -0.49891526 -0.80533355 10 130 126
0.26116639 -0.49951512 -0.80873042 12 130 125
0.2609711 -0.50025386 -0.80842149 14 130 125
0.26002938 -0.49936917 -0.80711901 11 130 125
0.26037467 -0.49808082 -0.8077271 10 130 126
0.26007536 -0.49970382 -0.80713767 11 130 125
0.26085016 -0.49833143 -0.80831522 10 132 126
0.26973835 -0.46857479 -0.81835717 12 130 126
0.27007514 -0.46826714 -0.81876564 12 130 126
0.26834977 -0.46881351 -0.81698209 12 128 126
0.26823851 -0.46940306 -0.81686145 12 128 126
0.26946387 -0.47020453 -0.81804556 12 128 126
0.2681725 -0.4688037 -0.8168087 12 128 126
0.26887268 -0.46772525 -0.81751573 12 130 125
0.2687937 -0.46929568 -0.81740731 12 128 126
0.27101278 -0.47382295 -0.81989682 10 130 126
0.26933274 -0.47077709 -0.8179155 11 130 126
0.27113441 -0.47414979 -0.82005197 11 128 127
0.27133396 -0.472202 -0.82003248 11 128 126
0.27138063 -0.47072279 -0.81991494 11 130 126
0.27061409 -0.47256282 -0.81936735 11 128 126
0.27059811 -0.47431761 -0.81945044 10 130 126
0.27083355 -0.47389024 -0.81972194 10 130 126
0.2700671 -0.47409615 -0.81885499 10 128 126
0.26871443 -0.47423294 -0.81732816 10 128 126
0.26844129 -0.47134829 -0.81706101 10 130 126
0.26933536 -0.47446164 -0.81802493 10 128 126
0.27166566 -0.47264859 -0.82056427 11 130 126
0.26956031 -0.47555134 -0.81828266 10 128 126
0.27026656 -0.47666258 -0.81908619 10 130 126
0.27088466 -0.47554579 -0.81977558 10 130 126
0.26924583 -0.47497755 -0.81792438 10 128 126
0.2701171 -0.47506288 -0.81890714 10 128 126
0.26970047 -0.47480091 -0.81843573 10 128 126
0.27097517 -0.4781855 -0.81989616 10 130 126
0.26974156 -0.47706264 -0.81849927 10 128 126
0.26993412 -0.47847775 -0.81872982 10 130 126
0.27092603 -0.47791094 -0.81983823 10 130 126
0.26976323 -0.47687614 -0.81852174 10 128 126
0.26834488 -0.47714606 -0.81693137 9 130 126
0.27153015 -0.47649494 -0.82053798 11 128 127
0.26861614 -0.47852749 -0.8172515 9 130 126
0.26920927 -0.47866482 -0.81793845 10 128 126
0.26934481 -0.47898573 -0.8181392 10 128 126
0.27039185 -0.47985682 -0.8194502 11 128 127
0.26931086 -0.4795391 -0.8181901 10 130 126
0.27001038 -0.47942641 -0.81895399 11 128 127
0.27100715 -0.4800165 -0.82016397 11 128 127
0.27006572 -0.47957429 -0.81903982 11 128 127
0.26824996 -0.48192659 -0.81683254 11 130 127
0.26910478 -0.47998288 -0.81798553 10 130 126
0.26874486 -0.47992 -0.81750363 10 130 126
0.27042964 -0.4817107 -0.81975305 12 128 127
0.26933464 -0.48011884 -0.81829286 10 130 126
0.26945481 -0.48193085 -0.8184464 12 128 128
0.27020502 -0.48172092 -0.81945217 12 128 127
0.26991329 -0.48427665 -0.81908238 12 130 126
0.27021164 -0.48373801 -0.81946433 12 130 126
0.268536 -0.48323503 -0.81721169 12 128 127
0.26948738 -0.48295346 -0.81848669 12 128 127
0.27006865 -0.48371753 -0.81926352 12 128 126
0.27018794 -0.48366538 -0.81942344 12 128 126
0.26937357 -0.48292607 -0.81833434 12 128 127
0.27060425 -0.48278973 -0.81998318 12 128 126
0.24786395 -0.46157891 -0.79970831 14 134 119
0.24802428 -0.46246788 -0.79972792 11 132 121
0.24898191 -0.46060005 -0.80069667 16 134 117
0.24874257 -0.46269014 -0.80024487 11 132 121
0.24972776 -0.46263692 -0.80099505 12 132 121
0.24795768 -0.46327996 -0.79954773 9 132 123
0.24793682 -0.46427217 -0.79933953 8 132 124
0.2479504 -0.46436605 -0.79933226 8 132 124
0.24802902 -0.46429721 -0.7994082 8 132 124
0.24752684 -0.46592987 -0.79869276 7 130 125
0.24664944 -0.46622249 -0.79795957 8 128 124
0.24697088 -0.46602961 -0.79824179 8 128 124
0.2500113 -0.46636733 -0.80045778 7 128 126
0.25002193 -0.46430472 -0.80089158 9 130 123
0.24895778 -0.4654848 -0.79987365 8 130 126
0.25063163 -0.46532977 -0.80112344 8 130 125
0.2494555 -0.46579704 -0.80017126 8 128 126
0.24822769 -0.46407333 -0.79960209 8 132 123
0.24904279 -0.46302083 -0.80042028 10 132 121
0.24835119 -0.46395224 -0.79971868 8 132 123
0.24673256 -0.46757826 -0.79777503 7 130 125
0.24804428 -0.46793902 -0.79872066 6 130 126
0.24725123 -0.46811774 -0.79807347 7 130 126
0.24692142 -0.46753743 -0.79792887 7 130 125
0.24732794 -0.47038651 -0.79768789 7 130 126
0.24696565 -0.46984363 -0.79750949 7 130 126
0.25172675 -0.47030008 -0.80101651 5 130 126
0.25012296 -0.46741635 -0.80034411 6 128 126
0.25053644 -0.46806228 -0.80053419 6 130 126
0.25052845 -0.46842277 -0.8004666 6 128 126
0.25120994 -0.46864697 -0.80092394 6 130 126
0.24974953 -0.46844709 -0.79989576 6 128 126
0.2492138 -0.46902397 -0.7993871 6 130 126
0.24887531 -0.47035462 -0.79888141 6 130 126
0.24817844 -0.46892998 -0.79863232 6 130 126
0.24958287 -0.47016251 -0.79944605 6 130 126
0.24910806 -0.46859109 -0.79939061 6 130 126
0.25015524 -0.46923146 -0.80005026 6 130 126
0.24796867 -0.47216359 -0.79787576 7 128 126
0.24793248 -0.47291434 -0.79771394 7 128 126
0.24771142 -0.47247663 -0.79761505 7 128 126
0.24791966 -0.47432578 -0.79745328 7 128 126
0.25126404 -0.47426254 -0.80023104 6 130 127
0.24962524 -0.47428933 -0.79885513 7 128 127
0.25142348 -0.47299984 -0.80047238 6 130 126
0.25064838 -0.47337267 -0.79979086 6 130 126
0.24997036 -0.47348663 -0.79921281 6 130 126
0.24946198 -0.47442034 -0.79870713 7 128 126
0.25067925 -0.47316775 -0.79983425 6 130 126
0.24918841 -0.47149077 -0.79890925 6 130 126
0.24832143 -0.47246927 -0.79808891 7 128 126
0.24842879 -0.47420889 -0.7978608 7 128 126
0.24809568 -0.47120464 -0.7981444 7 128 126
0.25048146 -0.47178248 -0.79982257 6 130 126
0.24880752 -0.47312486 -0.79833555 7 128 126
0.24947676 -0.47119236 -0.79917729 6 130 126
0.25203669 -0.47244126 -0.8010394 6 128 126
0.25198796 -0.47149298 -0.80107552 6 128 126
0.24838385 -0.47672626 -0.7974689 6 130 126
0.25005916 -0.4782232 -0.79875964 7 128 127
0.2501922 -0.47782764 -0.79894167 7 128 127
0.24987994 -0.47842038 -0.79856634 7 128 126
0.25075823 -0.47740752 -0.79952449 7 128 128
0.24938102 -0.47612929 -0.79847503 7 128 127
0.25099704 -0.47553882 -0.79989588 6 130 127
0.25016922 -0.47475171 -0.79927129 7 128 127
0.25031143 -0.4753488 -0.79933792 7 128 127
0.25006801 -0.47656012 -0.79902726 6 130 126
0.24890307 -0.47505313 -0.79818344 7 128 126
0.25069109 -0.47472346 -0.79971117 6 130 127
0.2491044 -0.47483432 -0.79837149 7 128 126
0.25251964 -0.47790569 -0.80101597 6 130 127
0.25222334 -0.47628722 -0.80088037 6 130 127
0.2520346 -0.47647995 -0.80068934 6 130 127
0.250438 -0.48044726 -0.79874015 7 128 126
0.25091195 -0.48118234 -0.7990495 7 128 126
0.25171241 -0.47913304 -0.80011469 7 128 128
0.25140595 -0.47896457 -0.79986399 7 128 128
0.25106582 -0.479965 -0.79939002 7 128 127
0.25107801 -0.47921997 -0.79952395 7 128 127
0.25143257 -0.47918013 -0.79985267 7 128 128
0.25026652 -0.48237342 -0.79833239 7 128 126
0.24971651 -0.48160857 -0.79795349 7 128 126
0.24958859 -0.48086432 -0.79793853 7 128 126
0.24976769 -0.48035252 -0.79816025 7 128 126
0.24887894 -0.48123109 -0.79727477 7 128 126
0.24854107 -0.47861338 -0.79731953 7 128 126
0.25263402 -0.4800441 -0.8008225 7 128 128
0.25288633 -0.48118606 -0.80088121 7 128 127
0.25266916 -0.48221049 -0.80050975 7 128 126
0.25228032 -0.47867063 -0.80071449 7 128 128
0.25153771 -0.48389015 -0.79930437 7 128 126
0.25177252 -0.4857583 -0.79934812 7 128 126
0.25072792 -0.4836953 -0.79861772 7 128 126
0.24984491 -0.48314914 -0.79789758 7 128 126
0.2495137 -0.48303071 -0.79762 7 128 126
0.24918269 -0.48269844 -0.79735643 7 130 126
0.24965122 -0.48487204 -0.79750007 7 130 126
0.25120071 -0.48591912 -0.79880768 7 130 126
0.25004804 -0.48616606 -0.79769588 7 130 126
0.25329006 -0.48573959 -0.80078834 7 128 126
0.25285721 -0.4845013 -0.8004781 7 128 126
0.2523872 -0.4855769 -0.79993612 7 128 126
0.25202945 -0.48440397 -0.79969412 7 128 126
0.25251171 -0.48476738 -0.80012417 7 128 126
0.25138268 -0.48857889 -0.79868042 8 130 126
0.25047299 -0.4876363 -0.79793078 8 130 126
0.25084102 -0.48671079 -0.79837459 7 130 126
0.25183198 -0.48755184 -0.7992112 7 130 126
0.25007004 -0.4877803 -0.7975471 8 130 126
0.24975441 -0.48676103 -0.79735518 8 130 126
0.25050905 -0.48903987 -0.79782909 8 130 126
0.25377077 -0.48678499 -0.80116564 7 128 126
0.25348094 -0.48996291 -0.80062032 8 130 126
0.25323185 -0.48924717 -0.80042154 8 130 126
0.25263527 -0.48938769 -0.79980028 8 130 126
0.25243086 -0.48867372 -0.79966217 7 130 126
0.25320867 -0.48746896 -0.80053777 7 128 126
0.2521776 -0.4871659 -0.79958135 7 130 126
0.25153697 -0.4905318 -0.7986356 8 130 126
0.25172094 -0.49116713 -0.79876101 8 130 126
0.2502149 -0.49035716 -0.79743862 8 130 126
0.25149065 -0.49191216 -0.79850036 8 130 126
0.25139165 -0.49307343 -0.79832911 9 128 126
0.25164539 -0.49362513 -0.79852235 9 128 126
0.2511043 -0.49347121 -0.79800123 9 128 126
0.25328362 -0.49279499 -0.80021852 9 128 126
0.25261474 -0.49387154 -0.79946274 9 128 126
0.25364959 -0.49225047 -0.80062878 9 128 126
0.25273058 -0.49320063 -0.79962891 9 128 126
0.25393566 -0.49141881 -0.80097908 9 128 126
0.25352949 -0.49062425 -0.80062246 8 130 126
0.25359765 -0.4909144 -0.80067265 8 130 126
0.25305843 -0.49147516 -0.80008328 8 130 126
0.25290444 -0.49148232 -0.79992533 8 130 126
0.25184321 -0.49444756 -0.79863185 9 130 126
0.25191799 -0.49535587 -0.79861099 9 130 126
0.25127184 -0.49511534 -0.79799432 9 128 126
0.25094065 -0.49577975 -0.79760003 9 128 126
0.25107217 -0.49744338 -0.79757333 9 130 126
0.25447428 -0.49773908 -0.80110955 9 130 126
0.25270915 -0.4975262 -0.79921448 9 130 126
0.25409833 -0.49753916 -0.80071568 9 130 126
0.25397107 -0.49658167 -0.8006385 9 130 126
0.25433138 -0.49509665 -0.80112189 9 130 126
0.2528798 -0.49631503 -0.7994839 9 130 126
0.25249389 -0.49697903 -0.79902357 9 130 126
0.25308952 -0.49552125 -0.79977936 9 130 126
0.25392586 -0.49469084 -0.8007133 9 130 126
0.25239891 -0.4945662 -0.79918003 9 130 126
0.25124696 -0.49849755 -0.79764551 9 130 126
0.2516523 -0.50002337 -0.79789853 10 128 126
0.25135285 -0.50032073 -0.79757684 10 128 126
0.25397137 -0.49904251 -0.80045706 10 128 126
0.25402752 -0.49885213 -0.80053508 9 130 126
0.25313237 -0.5008899 -0.79938322 10 130 125
0.25289875 -0.50065887 -0.79915285 10 128 126
0.25361893 -0.50046396 -0.79994655 10 130 125
0.25378475 -0.50109512 -0.80006701 10 130 124
0.25375879 -0.49883217 -0.80024636 9 130 126
0.25294611 -0.50038671 -0.79922873 10 128 126
0.25297594 -0.49883556 -0.79939961 9 130 126
0.25238428 -0.4999952 -0.79865628 10 128 126
0.25211382 -0.49989629 -0.79837263 10 128 126
0.25175416 -0.50230455 -0.79780102 10 130 124
0.25376689 -0.50298262 -0.79993713 12 130 122
0.25384074 -0.50274789 -0.80002391 12 130 122
0.25400707 -0.50227129 -0.80021769 11 132 122
0.25214034 -0.50370115 -0.79816306 12 130 123
0.25204211 -0.50197196 -0.79811037 10 130 124
0.25282383 -0.50326264 -0.79891276 12 130 123
0.26489091 -0.46666181 -0.81360888 11 130 126
0.26412252 -0.46569183 -0.81296033 12 130 126
0.26720017 -0.46994767 -0.81572467 11 128 126
0.26748279 -0.46798468 -0.81603068 12 130 126
0.26715568 -0.46998668 -0.81568176 11 128 126
0.26732984 -0.46958014 -0.81585467 11 130 126
0.26692769 -0.46956483 -0.81547391 11 128 126
0.26548299 -0.46971533 -0.8140927 10 130 126
0.26522639 -0.46933445 -0.81385756 11 128 127
0.26532608 -0.47016016 -0.81393117 10 130 126
0.26561773 -0.46925431 -0.81423348 10 130 126
0.26547268 -0.47038576 -0.81406528 10 130 126
0.26480848 -0.46983424 -0.81344527 11 128 127
0.26787344 -0.46953848 -0.81644249 11 130 126
0.26759452 -0.46888182 -0.81612331 11 130 126
0.26646221 -0.47221002 -0.81493813 9 130 126
0.26510352 -0.47134531 -0.81367707 10 128 126
0.26670614 -0.47116175 -0.81521571 10 130 126
0.26751712 -0.47177148 -0.8159644 10 128 126
0.26670653 -0.47232735 -0.81516653 9 130 126
0.26715899 -0.4730325 -0.81556875 9 130 126
0.2646611 -0.47374368 -0.81314313 10 130 127
0.26480502 -0.47309968 -0.81331092 10 130 126
0.26504701 -0.4739674 -0.81350309 10 130 127
0.26667455 -0.47431523 -0.81504869 9 130 126
0.26496854 -0.4725861 -0.81349158 10 128 126
0.26572964 -0.47294924 -0.81420505 9 130 126
0.26770931 -0.47420081 -0.81608427 9 130 126
0.26763722 -0.47091952 -0.81612837 10 130 126
0.26532167 -0.47476715 -0.81373459 10 130 127
0.26540777 -0.4749032 -0.81381518 10 130 127
0.26593417 -0.47575387 -0.81430739 10 128 127
0.26730052 -0.47507128 -0.81562877 9 130 126
0.26582888 -0.47598374 -0.8142029 10 130 127
0.26748669 -0.47541714 -0.81580216 9 130 126
0.26497844 -0.476468 -0.81333178 10 128 128
0.26728284 -0.47847679 -0.81554717 9 130 126
0.26472089 -0.47723764 -0.81302923 10 128 128
0.2657105 -0.47675613 -0.81405497 10 130 127
0.26523158 -0.47760484 -0.81352448 10 128 128
0.26659632 -0.47840017 -0.81485832 9 130 126
0.26778463 -0.47788885 -0.816145 9 130 126
0.26770505 -0.47764394 -0.81602585 9 130 126
0.26731709 -0.48082995 -0.81555587 10 130 126
0.26713112 -0.48171568 -0.81535906 11 128 127
0.26647779 -0.48074821 -0.81470937 10 130 127
0.26708031 -0.48130503 -0.81531197 10 130 126
0.26646549 -0.48066247 -0.81469786 10 130 127
0.26738986 -0.48239055 -0.81559914 11 130 127
0.26521063 -0.48217446 -0.81322694 11 128 127
0.26584923 -0.48085418 -0.81402576 10 130 127
0.26530209 -0.48169982 -0.81336278 11 128 127
0.26553297 -0.48175567 -0.81361157 11 128 127
0.2680845 -0.48001218 -0.81659251 10 128 126
0.26771507 -0.48149946 -0.81601834 11 128 127
0.26796672 -0.47996777 -0.81641215 10 128 126
0.26580602 -0.48299533 -0.81385225 11 130 127
0.26571873 -0.48245117 -0.81376481 11 130 127
0.26686001 -0.48515058 -0.81497484 12 128 126
0.2670455 -0.48464894 -0.81518573 11 130 126
0.26596025 -0.48379901 -0.81400913 11 130 126
0.26645583 -0.48511934 -0.81453866 12 128 126
0.26501608 -0.48408914 -0.8129918 11 128 127
0.26498637 -0.48599997 -0.8129583 10 130 126
0.26597974 -0.4843922 -0.81402749 12 128 127
0.26581579 -0.48583406 -0.8138501 11 130 126
0.26572561 -0.48550731 -0.81375337 11 130 126
0.26767755 -0.48587793 -0.81590551 12 130 126
0.26766595 -0.48489639 -0.81590074 12 128 126
0.26559383 -0.48714757 -0.81374973 11 130 126
0.26573271 -0.48691905 -0.81386042 11 130 126
0.26509151 -0.48719499 -0.81314212 10 132 126
0.26548854 -0.48884645 -0.81371814 12 130 126
0.26545745 -0.48893851 -0.81368351 12 130 126
0.26577821 -0.489333 -0.8141045 12 130 126
0.26513383 -0.48896158 -0.81327856 11 132 126
0.26490507 -0.49049616 -0.81304067 12 130 126
0.27805236 -0.47001582 -0.83117586 12 130 126
0.27823597 -0.47045827 -0.83169496 12 130 126
0.27870318 -0.46963897 -0.83237422 12 130 126
0.27834877 -0.46968234 -0.83166826 12 130 126
0.27853984 -0.46957031 -0.83201963 12 130 126
0.27645293 -0.4735392 -0.82906109 12 130 126
0.24337976 -0.47828734 -0.79289472 8 130 126
0.24277055 -0.4766922 -0.79280138 8 130 123
0.24288145 -0.47779062 -0.79263294 8 130 123
0.24398945 -0.47835985 -0.79333782 8 130 126
0.24406403 -0.47878692 -0.79331827 8 130 126
0.24307707 -0.4804534 -0.79232812 9 130 123
0.24331167 -0.47911853 -0.79270202 8 130 125
0.24385402 -0.47970533 -0.79302442 8 130 126
0.24333039 -0.48133013 -0.79238981 9 130 123
0.24244191 -0.47882777 -0.79208899 9 130 123
0.24440847 -0.48232752 -0.79310179 8 130 125
0.24302427 -0.48597395 -0.79126447 10 128 124
0.24303623 -0.48586363 -0.79128844 10 128 124
0.24413024 -0.48602524 -0.79210621 9 130 125
0.24316622 -0.48363742 -0.7918058 10 128 124
0.2422545 -0.48257145 -0.7912817 10 130 123
0.24379785 -0.48412797 -0.79221869 9 130 125
0.24340181 -0.48440337 -0.79184246 9 130 124
0.24430376 -0.48522881 -0.79242647 9 130 125
0.24476384 -0.48456165 -0.79301947 9 130 125
0.24415441 -0.48340738 -0.79265416 9 130 125
0.2437783 -0.48801261 -0.79169178 9 130 125
0.24273933 -0.48758897 -0.79093498 10 130 124
0.24353166 -0.48823008 -0.79149508 9 130 124
0.24198581 -0.48696354 -0.79040313 10 130 123
0.24365993 -0.48683944 -0.79166573 9 130 125
0.24154745 -0.48880538 -0.78985608 11 130 122
0.24501544 -0.48909643 -0.7927494 9 130 126
0.24531749 -0.48794785 -0.79312432 9 130 125
0.24485409 -0.48842573 -0.79265541 9 130 125
0.24454723 -0.48764428 -0.79239607 9 130 125
0.24426495 -0.48673281 -0.79215825 9 130 125
0.24245793 -0.49112698 -0.79029399 11 130 122
0.24341577 -0.49311277 -0.79079562 10 130 123
0.24386494 -0.49367473 -0.79108727 10 130 123
0.24511828 -0.493402 -0.79228556 10 130 124
0.24558358 -0.49237052 -0.79287529 10 130 125
0.24492969 -0.4937228 -0.79206026 10 130 123
0.24512701 -0.49249139 -0.79242218 10 130 124
0.24505959 -0.49107248 -0.79256797 10 128 126
0.24464625 -0.4904618 -0.79227835 10 128 126
0.24444284 -0.49303865 -0.79169613 10 130 124
0.24405916 -0.49464113 -0.79114652 10 130 123
0.24596792 -0.49769729 -0.79261053 10 130 123
0.24628165 -0.49793351 -0.79285687 10 130 124
0.24590605 -0.4950166 -0.79286861 10 130 123
0.24601305 -0.49484223 -0.79298228 10 130 124
0.24540758 -0.49513298 -0.7923885 10 130 123
0.24532846 -0.49456599 -0.79235256 10 130 123
0.24457403 -0.49423015 -0.79165536 10 130 123
0.24612223 -0.49870726 -0.7926563 10 130 124
0.24599636 -0.49869904 -0.79254705 10 130 123
0.24692042 -0.5041765 -0.79317558 12 130 122
0.25123101 -0.4626362 -0.80214173 14 132 120
0.25009862 -0.46185002 -0.80137962 15 132 119
0.25144187 -0.46411598 -0.80201 11 130 123
0.25132787 -0.46543548 -0.80164349 8 130 125
0.25031856 -0.46336669 -0.80131018 10 132 121
0.2503947 -0.46396056 -0.80123913 10 130 123
0.25070456 -0.46447232 -0.80136889 9 130 123
0.25546095 -0.46531183 -0.80491358 11 130 125
0.25559542 -0.4666923 -0.80477768 8 130 126
0.2534686 -0.46465716 -0.80350208 11 130 124
0.25245923 -0.4645198 -0.80272126 11 128 124
0.25237012 -0.46456543 -0.80264014 11 128 124
0.25277731 -0.46613234 -0.80263507 8 128 126
0.2521171 -0.46656346 -0.80201405 7 128 126
0.25162816 -0.46749893 -0.8014456 6 130 126
0.25288123 -0.47049713 -0.80195689 6 128 126
0.252491 -0.46743017 -0.80218607 6 130 126
0.25247481 -0.46742582 -0.80217272 6 130 126
0.25432989 -0.47030288 -0.80326074 6 130 126
0.25196555 -0.46927556 -0.80138081 6 128 126
0.25359601 -0.46980521 -0.80271059 6 130 126
0.25532404 -0.47045898 -0.80410278 6 130 126
0.25457218 -0.46824276 -0.80377126 7 128 126
0.25477326 -0.46958005 -0.80378163 6 130 126
0.25455025 -0.46824491 -0.80375344 7 128 126
0.25533357 -0.46998298 -0.80418569 6 130 126
0.25479546 -0.46897545 -0.8038677 7 128 126
0.25571546 -0.47034806 -0.80445087 7 128 126
0.25533774 -0.47013345 -0.80417204 6 130 126
0.2560972 -0.47021982 -0.80482078 7 128 126
0.25593093 -0.46700564 -0.80501115 8 128 127
0.25512415 -0.47074717 -0.80388099 7 128 126
0.25463918 -0.47254568 -0.8033421 7 128 126
0.25559065 -0.47165918 -0.80423027 7 128 126
0.25478289 -0.47102094 -0.80356526 7 128 126
0.25498512 -0.4718439 -0.8036893 7 128 126
0.25471777 -0.47105449 -0.80350614 7 128 126
0.25575429 -0.47081989 -0.80442697 7 128 126
0.25350794 -0.47315258 -0.80229783 7 128 127
0.25444561 -0.47385663 -0.80307662 7 128 127
0.25525928 -0.47436079 -0.80376124 7 128 127
0.25335249 -0.47353989 -0.80212736 6 130 126
0.25390995 -0.47312683 -0.80265862 7 128 126
0.25431615 -0.47411737 -0.80293977 7 128 127
0.25388786 -0.47308517 -0.80264229 7 128 126
0.25606653 -0.47363603 -0.80454308 7 128 126
0.25634122 -0.47235361 -0.80489624 7 128 126
0.25624207 -0.47084576 -0.80490488 7 128 126
0.25492203 -0.47461393 -0.80343962 7 128 127
0.25550032 -0.47542596 -0.80388427 7 128 127
0.25485516 -0.47697544 -0.80317265 6 130 126
0.2554915 -0.47772169 -0.80367488 6 130 126
0.25555757 -0.47777548 -0.80372906 7 128 127
0.25511354 -0.47625652 -0.80346632 7 128 127
0.25290459 -0.47579086 -0.80153942 6 130 127
0.25438923 -0.47707418 -0.80274934 6 130 126
0.25485134 -0.47811353 -0.80307311 6 130 126
0.25287384 -0.47522333 -0.80155903 6 130 127
0.25402483 -0.47796166 -0.80235308 6 130 127
0.25605634 -0.47851244 -0.80411887 7 128 126
0.25647417 -0.47810066 -0.80454761 7 128 126
0.25646549 -0.47551644 -0.80476528 7 128 126
0.25602227 -0.47754401 -0.80417156 7 128 127
0.25510973 -0.48091862 -0.80312616 7 128 126
0.25453177 -0.47863853 -0.80274934 7 128 127
0.25390008 -0.47986341 -0.80211669 7 128 127
0.25486514 -0.48003986 -0.80296159 7 128 127
0.2543838 -0.48003283 -0.80253541 7 128 127
0.25286949 -0.47856981 -0.80128008 7 128 128
0.25365096 -0.48022398 -0.80181032 7 128 127
0.25380942 -0.48136234 -0.8017776 7 128 126
0.25397658 -0.4800725 -0.80217087 7 128 127
0.25478432 -0.48196578 -0.80267543 7 128 126
0.25688824 -0.47971633 -0.80484104 7 128 126
0.25690264 -0.48222893 -0.8047561 7 130 126
0.25601727 -0.48021969 -0.80398059 7 128 126
0.25630319 -0.48000193 -0.80426234 7 128 126
0.25520185 -0.48277816 -0.80298054 7 128 126
0.25467569 -0.48273063 -0.80244613 7 128 126
0.25477013 -0.48452497 -0.8023144 7 128 126
0.25523135 -0.48448083 -0.8027938 7 128 126
0.25446394 -0.48534435 -0.80194795 7 128 126
0.25537166 -0.48596919 -0.80276591 7 128 126
0.25367731 -0.48319435 -0.80137551 7 128 126
0.2543425 -0.48528531 -0.80183643 7 128 126
0.25669706 -0.48440334 -0.80430406 7 130 126
0.25698477 -0.48601329 -0.80446404 8 128 127
0.25699982 -0.48582008 -0.80449903 8 128 127
0.25732428 -0.48362339 -0.80506468 8 128 127
0.25669026 -0.48325422 -0.80442923 7 130 126
0.25612071 -0.48430359 -0.80372375 7 128 126
0.25530776 -0.48861936 -0.80250466 8 128 126
0.25515312 -0.48670387 -0.80249798 7 128 126
0.255683 -0.48876604 -0.80285376 8 128 126
0.25479183 -0.48759872 -0.80208516 7 130 126
0.25414026 -0.48750138 -0.80146754 7 130 126
0.25468794 -0.48941574 -0.80185193 8 128 126
0.25454098 -0.48933536 -0.80171704 8 128 126
0.2539174 -0.48694339 -0.80129492 7 128 126
0.25761244 -0.48919863 -0.80491805 9 128 126
0.25676689 -0.48985344 -0.80394065 9 128 126
0.2572439 -0.48714969 -0.80465657 8 130 126
0.2566736 -0.48948124 -0.80386418 8 130 126
0.25617418 -0.48930106 -0.80332762 8 130 126
0.25696099 -0.4872449 -0.80434 8 128 126
0.25604433 -0.4881734 -0.80326915 7 130 126
0.25613779 -0.48737293 -0.8034305 7 130 126
0.25539598 -0.4930011 -0.80226851 9 130 126
0.25501239 -0.49070922 -0.80206817 9 128 126
0.25546986 -0.49274871 -0.80235773 9 130 126
0.25543478 -0.49399656 -0.80223674 9 130 126
0.25413167 -0.49118915 -0.80119288 9 128 126
0.25456795 -0.49199399 -0.80155152 9 128 126
0.25734186 -0.49153751 -0.80445647 9 128 126
0.25674781 -0.49315193 -0.80369008 9 130 126
0.25750679 -0.49279186 -0.80456704 10 128 126
0.25699326 -0.49298951 -0.80397642 9 130 126
0.2576485 -0.49378151 -0.80466741 10 128 126
0.25738952 -0.49036631 -0.80458987 9 128 126
0.25748423 -0.4904325 -0.80468935 9 128 126
0.25636846 -0.49249786 -0.80330992 9 130 126
0.2563034 -0.49111843 -0.80333889 9 128 126
0.25527346 -0.49488109 -0.80204725 9 130 126
0.25585821 -0.49474323 -0.80260652 9 130 126
0.25584835 -0.49558097 -0.80256695 9 130 126
0.25463098 -0.49545449 -0.80140561 9 130 126
0.25498298 -0.49798259 -0.80161107 9 130 126
0.25690556 -0.49652669 -0.80372745 10 128 126
0.25768751 -0.497554 -0.80460566 10 130 126
0.25794551 -0.49678585 -0.80491984 10 130 126
0.25678954 -0.49752352 -0.8035717 10 128 126
0.25739127 -0.49587536 -0.8043015 10 130 126
0.25629133 -0.49580932 -0.80305606 9 130 126
0.25661948 -0.49429548 -0.80348051 10 128 126
0.25693658 -0.49567807 -0.80378801 10 128 126
0.25717515 -0.4950929 -0.80407798 10 128 126
0.25652602 -0.49439523 -0.80337161 10 128 126
0.2551004 -0.49835625 -0.8017 10 128 126
0.2557539 -0.49859628 -0.80233741 10 130 126
0.25551516 -0.49839872 -0.80211353 10 128 126
0.255059 -0.5004949 -0.80147815 11 130 124
0.25479007 -0.50073838 -0.80118215 11 130 124
0.25810763 -0.4983086 -0.80505496 10 130 126
0.25681013 -0.50095135 -0.80333996 12 130 124
0.2572327 -0.49991041 -0.8039149 11 130 125
0.25805384 -0.49988535 -0.80485022 11 130 125
0.25672117 -0.49944916 -0.80336654 10 130 125
0.25623035 -0.49932083 -0.80281156 10 130 126
0.2563203 -0.4995001 -0.80290049 10 130 125
0.25647449 -0.49971336 -0.80306071 10 130 125
0.27460137 -0.46281517 -0.82416302 12 130 125
0.27389732 -0.46824291 -0.8240059 12 128 126
0.27378455 -0.46883467 -0.8239516 12 128 126
0.27387342 -0.46972215 -0.82437515 12 128 126
0.27333614 -0.47064739 -0.82358336 12 128 126
0.27388301 -0.46871355 -0.82411027 12 128 126
0.27327785 -0.46942422 -0.8231253 12 128 126
0.27247512 -0.46970165 -0.82165241 12 128 126
0.27378115 -0.47447699 -0.82451749 12 128 127
0.27322462 -0.47434205 -0.82352817 11 130 127
0.27311617 -0.47349879 -0.82332796 11 130 126
0.27359772 -0.4734455 -0.82418245 11 130 126
0.27306074 -0.47425166 -0.82323647 11 130 127
0.27290514 -0.47416916 -0.82295942 11 130 127
0.2727702 -0.47255564 -0.82269984 11 130 126
0.27245656 -0.47220585 -0.8220464 11 130 126
0.27207357 -0.47329536 -0.82141948 11 128 126
0.2723026 -0.47251034 -0.82177931 11 130 126
0.27204388 -0.4734329 -0.8213768 11 130 127
0.27203125 -0.47205788 -0.82119697 11 130 126
0.27295521 -0.47789934 -0.8231886 11 128 127
0.27355331 -0.47737229 -0.82428133 11 128 126
0.27319258 -0.47800452 -0.82364494 11 128 126
0.2724466 -0.47729811 -0.82218367 11 130 127
0.27294594 -0.47829974 -0.82319987 11 128 127
0.27360252 -0.47541201 -0.824233 11 130 127
0.27313182 -0.47492087 -0.82336801 11 130 127
0.27213416 -0.47692698 -0.82161039 11 128 127
0.27304983 -0.47583765 -0.82322866 11 130 127
0.27187425 -0.4756301 -0.82114011 11 128 127
0.27297086 -0.47567311 -0.82308733 11 130 127
0.27222168 -0.47556809 -0.82175648 11 128 127
0.27157575 -0.48089901 -0.82099819 11 130 127
0.27243504 -0.48051652 -0.82247406 12 128 128
0.27216002 -0.47969118 -0.82185501 12 128 128
0.27157924 -0.48083648 -0.82099473 11 130 127
0.27338874 -0.47855255 -0.82405651 11 128 126
0.27314025 -0.47976145 -0.82371426 12 128 127
0.27270448 -0.48044103 -0.82296211 12 130 127
0.27241388 -0.47914711 -0.82227623 11 130 127
0.27273038 -0.4802753 -0.82299358 12 130 127
0.27145267 -0.48281571 -0.82108331 12 128 126
0.27171102 -0.48256779 -0.82149291 12 128 126
0.27173653 -0.48282734 -0.82156932 12 130 126
0.27158287 -0.48352769 -0.82137799 12 130 126
0.27860028 -0.47063062 -0.83246821 12 130 126
0.27905285 -0.46908936 -0.83273864 12 130 126
0.27938136 -0.46862528 -0.83310109 12 130 126
0.27950928 -0.47002122 -0.83363539 12 130 126
0.24542934 -0.46653309 -0.79695958 8 130 123
0.24389353 -0.47027734 -0.79497296 7 130 125
0.24410276 -0.46722636 -0.79578722 8 132 121
0.24187228 -0.47006938 -0.79341358 10 130 123
0.24259733 -0.46974757 -0.79404598 9 130 123
0.2424579 -0.47055799 -0.79378456 9 128 124
0.24239011 -0.47028962 -0.79378122 9 130 123
0.2453565 -0.46849889 -0.7965017 7 130 125
0.24516018 -0.46884474 -0.79627508 7 130 125
0.2454083 -0.46794173 -0.79665619 7 130 124
0.24506845 -0.46870741 -0.79623002 7 130 125
0.24604385 -0.4682658 -0.79709613 7 130 125
0.24447113 -0.46963498 -0.79556835 7 130 125
0.24447767 -0.46698651 -0.79613149 8 130 122
0.24421895 -0.46764395 -0.79579127 8 130 123
0.24343216 -0.47222364 -0.79422909 8 128 126
0.24290867 -0.47124848 -0.79400665 8 130 125
0.24317564 -0.4725765 -0.79395753 8 130 125
0.24375179 -0.47332025 -0.79426688 8 128 126
0.24364328 -0.47431529 -0.79399598 8 130 125
0.24266689 -0.47280636 -0.79352409 8 130 123
0.24684654 -0.47370288 -0.79669368 7 130 126
0.24713653 -0.47349876 -0.79696733 7 128 126
0.2470334 -0.47357476 -0.79686934 7 128 126
0.24653928 -0.47335243 -0.7965067 7 130 126
0.2463028 -0.47290829 -0.79639447 7 130 126
0.2465715 -0.47213677 -0.79675388 7 130 126
0.24716938 -0.47319329 -0.79704958 7 128 126
0.24659745 -0.47075054 -0.79703182 7 128 126
0.2458899 -0.47109231 -0.7964018 7 128 126
0.24452142 -0.47317788 -0.79490471 7 130 125
0.24414246 -0.47178578 -0.79487544 7 128 126
0.24357626 -0.47485912 -0.79383409 8 130 125
0.24315664 -0.47501445 -0.79347861 8 130 124
0.24376851 -0.47751251 -0.79336566 8 130 126
0.24713142 -0.47464398 -0.79675567 7 130 126
0.24679881 -0.47492534 -0.79643816 7 130 126
0.24669173 -0.47537193 -0.79627752 7 130 126
0.24618188 -0.47536477 -0.79586279 7 130 126
0.24642402 -0.4754892 -0.79603988 7 130 126
0.24481526 -0.47521472 -0.79477262 8 128 126
0.24421594 -0.47492096 -0.79431587 8 128 126
0.24473156 -0.47684267 -0.79432583 8 128 126
0.24489462 -0.47623885 -0.7946099 8 128 126
0.24525613 -0.47836253 -0.79443687 7 130 126
0.24477719 -0.47693318 -0.79434508 8 128 126
0.24426323 -0.47678974 -0.79392427 8 128 126
0.24429487 -0.47661129 -0.79399365 8 128 126
0.24569204 -0.48065186 -0.79448694 8 128 126
0.24575639 -0.48051766 -0.79456288 8 128 126
0.24614742 -0.48236635 -0.79464984 8 128 126
0.24448435 -0.47934499 -0.79359943 8 128 126
0.24511555 -0.48122606 -0.79389483 8 128 126
0.24753475 -0.48227751 -0.79589295 8 128 126
0.24736126 -0.4798843 -0.79607195 7 130 126
0.24689391 -0.47862998 -0.79583251 7 130 126
0.24642871 -0.48063684 -0.79514408 7 130 126
0.24598463 -0.47881809 -0.79500312 7 130 126
0.24529067 -0.47958776 -0.79428363 7 130 126
0.24793009 -0.48188731 -0.79629767 7 130 126
0.24587983 -0.47993824 -0.7947557 7 130 126
0.24825317 -0.48180652 -0.79660684 7 130 126
0.24851066 -0.47972897 -0.79713935 7 130 126
0.24812505 -0.47917899 -0.79684985 7 130 126
0.24564691 -0.48322177 -0.79410261 8 128 126
0.24664368 -0.48405525 -0.79488736 8 130 126
0.24647427 -0.48310563 -0.79485035 8 128 126
0.2455658 -0.48306051 -0.79404992 8 128 126
0.24723384 -0.48315108 -0.79551876 8 128 126
0.24769403 -0.48339614 -0.79589772 8 128 126
0.24741122 -0.48549911 -0.79539591 8 130 126
0.24714224 -0.48561594 -0.79512352 8 130 126
0.24525063 -0.48349187 -0.79369408 8 130 125
0.24581894 -0.48411608 -0.79412603 8 130 126
0.24490629 -0.48345685 -0.79337162 8 130 125
0.24623565 -0.4853183 -0.79431081 8 130 126
0.24855028 -0.48495108 -0.79649198 8 128 126
0.24931112 -0.48550698 -0.79710269 8 128 126
0.24867283 -0.48442727 -0.79667014 8 128 126
0.24839412 -0.48487815 -0.79636025 8 128 126
0.24884358 -0.48269626 -0.79704303 7 130 126
0.24692197 -0.48720363 -0.79469514 9 128 126
0.24764857 -0.4879365 -0.79531187 9 130 126
0.24709626 -0.48662394 -0.79492241 8 130 126
0.24781281 -0.48827535 -0.79543304 9 130 126
0.2467158 -0.48686218 -0.79453415 9 128 126
0.24595508 -0.48920098 -0.7936098 9 130 126
0.24564601 -0.48729125 -0.7934823 9 130 126
0.24667971 -0.48865455 -0.79432195 10 128 126
0.24628612 -0.48909166 -0.79392362 9 130 126
0.24848533 -0.48925939 -0.79594797 9 130 126
0.2489845 -0.48946214 -0.79638851 9 130 126
0.24855839 -0.48901752 -0.79603833 9 130 126
0.2492471 -0.48969999 -0.79660767 9 130 126
0.24830131 -0.48958096 -0.79574782 9 130 126
0.24817105 -0.48962963 -0.79562575 9 130 126
0.24902464 -0.48646653 -0.79672414 8 130 126
0.24705075 -0.49112529 -0.79439569 10 128 126
0.24729106 -0.49150628 -0.79455793 10 128 126
0.24718747 -0.49151635 -0.79446101 9 130 126
0.24736299 -0.49090391 -0.79471743 10 128 126
0.2478209 -0.4903594 -0.79522336 10 128 126
0.24717376 -0.49378982 -0.79412574 9 130 125
0.24729989 -0.49336594 -0.79429114 9 130 125
0.24762978 -0.49395376 -0.7945044 9 130 125
0.24960122 -0.49113259 -0.79674721 9 128 126
0.2496344 -0.49153543 -0.79673707 9 128 126
0.24957412 -0.49352834 -0.7964595 9 128 126
0.24923167 -0.49214572 -0.7962628 9 128 126
0.24806586 -0.49264926 -0.79509437 9 128 126
0.24816069 -0.49123767 -0.79540032 9 130 126
0.2484664 -0.49122268 -0.79568434 9 130 126
0.24778253 -0.494764 -0.79455096 9 128 126
0.24706964 -0.49454713 -0.79394788 9 130 125
0.24792711 -0.49721301 -0.79442942 9 130 126
0.24724601 -0.49633807 -0.79391789 9 130 126
0.24735677 -0.4976272 -0.79386109 9 130 126
0.25062069 -0.49636903 -0.7972368 9 130 126
0.25038984 -0.496317 -0.79700661 9 130 126
0.25026754 -0.49571791 -0.79694045 9 128 126
0.24886465 -0.49745497 -0.79534107 9 130 126
0.25038555 -0.49422792 -0.7972061 9 128 126
0.2493712 -0.49454507 -0.79614645 9 128 126
0.24821134 -0.49496132 -0.79492933 9 128 126
0.24952881 -0.49508205 -0.7962516 9 128 126
0.25008792 -0.49463159 -0.79686368 9 128 126
0.24910039 -0.49444261 -0.79588246 9 128 126
0.24753435 -0.49943519 -0.79393345 10 130 126
0.24760875 -0.50016749 -0.79398119 10 130 125
0.24799779 -0.50040919 -0.79433542 10 130 126
0.24781004 -0.50139874 -0.79413223 10 130 125
0.25094339 -0.50031656 -0.79716921 10 130 126
0.25086662 -0.50097001 -0.79703498 10 130 125
0.25076064 -0.50108248 -0.7969262 10 130 125
0.24863076 -0.50171435 -0.79489821 10 130 125
0.24878272 -0.50157309 -0.79505223 10 130 125
0.24898338 -0.49835357 -0.79539537 9 130 126
0.24896288 -0.49947059 -0.79534191 9 130 126
0.24965614 -0.49827352 -0.79608339 9 130 126
0.24826504 -0.49873278 -0.79465216 9 130 126
0.24912944 -0.49853462 -0.79553896 9 130 126
0.24793534 -0.50456792 -0.79412198 12 130 124
0.25114581 -0.50354517 -0.7971676 12 130 123
0.24938366 -0.50489807 -0.79546291 12 130 123
0.24918351 -0.50444943 -0.79527998 11 130 123
0.24989633 -0.50339091 -0.79598302 11 130 123
0.24842913 -0.50416589 -0.79459536 11 130 123
0.24983725 -0.50285822 -0.79595089 10 130 123
0.24859658 -0.50466508 -0.79472888 12 130 124
0.26028308 -0.46492755 -0.80931699 12 130 123
0.26272497 -0.46668866 -0.81151676 10 130 126
0.26126653 -0.46619534 -0.81015033 10 130 125
0.26081184 -0.46626475 -0.80970335 10 130 125
0.26225752 -0.46598983 -0.81112969 11 130 126
0.26319385 -0.46582523 -0.8120482 12 128 126
0.26246285 -0.46523976 -0.8113966 12 130 125
0.26266003 -0.46759433 -0.81142348 10 130 126
0.26178744 -0.46694627 -0.81059456 10 130 126
0.26211905 -0.46780974 -0.81089395 10 130 126
0.26271385 -0.46756452 -0.81147629 10 130 126
0.26285306 -0.46917477 -0.81157041 10 130 126
0.26345769 -0.46809083 -0.81218362 10 130 126
0.26129791 -0.46763131 -0.810103 9 130 126
0.26146683 -0.47023982 -0.81011039 10 130 126
0.26036409 -0.46720153 -0.80920291 9 130 126
0.26145196 -0.46866772 -0.81020725 10 128 126
0.26045918 -0.46842399 -0.8092128 9 130 126
0.2620143 -0.47047824 -0.81065142 10 130 126
0.26254869 -0.46990871 -0.81123668 10 130 126
0.26406586 -0.46813658 -0.812778 11 128 127
0.2638855 -0.46994966 -0.81255347 10 130 126
0.2640768 -0.46702847 -0.81281781 11 128 127
0.26325899 -0.47155401 -0.8118605 10 130 126
0.26313803 -0.47384351 -0.81162 10 130 127
0.26238072 -0.47143435 -0.81097144 10 130 127
0.26363248 -0.47253004 -0.81219119 10 130 126
0.26284131 -0.47184485 -0.8114199 10 130 127
0.26183254 -0.47186539 -0.81039065 10 130 127
0.26237965 -0.47305635 -0.81088734 10 130 127
0.26184219 -0.47444507 -0.81014824 9 128 126
0.26178691 -0.47241086 -0.81031334 10 130 127
0.26223639 -0.47299063 -0.81073916 10 130 127
0.26284224 -0.47416082 -0.81127006 10 128 128
0.26081967 -0.47129539 -0.80938244 10 130 127
0.26434466 -0.47351781 -0.81284827 10 130 127
0.26435223 -0.47412571 -0.81282663 10 130 127
0.26371464 -0.47377115 -0.81220955 10 130 127
0.2634539 -0.47583032 -0.81181562 10 128 128
0.26273346 -0.47613031 -0.81101257 9 130 127
0.26358396 -0.47800177 -0.81183016 10 128 128
0.26169229 -0.47524267 -0.80992949 9 128 127
0.26256076 -0.47467169 -0.81090975 10 128 128
0.26342574 -0.47603658 -0.81177288 10 128 128
0.26233491 -0.47790983 -0.81046164 9 128 127
0.26108369 -0.47640154 -0.80918401 8 128 126
0.26277789 -0.47802129 -0.81094301 9 128 127
0.26162067 -0.47832471 -0.8096447 8 128 126
0.26221552 -0.47785988 -0.81033331 9 128 127
0.2644445 -0.47695392 -0.81276542 10 128 128
0.26450044 -0.47752997 -0.8127901 10 128 128
0.26380733 -0.47625944 -0.81216329 10 128 128
0.26381564 -0.47536099 -0.81222427 10 128 128
0.26324499 -0.47997689 -0.81128776 10 128 127
0.26220447 -0.48016819 -0.81012118 9 128 126
0.26338539 -0.47966146 -0.8114723 9 130 127
0.26366782 -0.480362 -0.8117184 10 130 127
0.26339665 -0.47997415 -0.81145549 10 128 127
0.26356354 -0.48184085 -0.81146473 10 130 126
0.26214832 -0.48155826 -0.81001693 9 130 126
0.2626141 -0.48233247 -0.81046391 10 128 126
0.26273561 -0.4813363 -0.81061703 10 128 126
0.26221082 -0.48073316 -0.81010526 9 130 126
0.26427925 -0.48014709 -0.81236118 10 130 127
0.26437661 -0.4820393 -0.81232631 11 128 127
0.26487732 -0.48187006 -0.81288451 11 128 127
0.26402107 -0.48053059 -0.81206095 10 130 127
0.2641145 -0.47858217 -0.81233817 10 128 128
0.26278964 -0.48279545 -0.81063414 10 130 126
0.2632809 -0.48419493 -0.81111401 10 130 126
0.26331928 -0.48445019 -0.81114972 10 130 126
0.26200044 -0.48297724 -0.8098346 10 128 127
0.26347178 -0.48550671 -0.8112914 10 130 126
0.26350188 -0.48607874 -0.81131476 10 130 126
0.26131374 -0.48565179 -0.8090499 9 130 126
0.26145321 -0.48564798 -0.80919528 10 128 127
0.261522 -0.48362955 -0.80933094 9 130 126
0.26237702 -0.48444611 -0.81019533 10 130 127
0.26464233 -0.48526797 -0.8125754 10 130 126
0.26442003 -0.48542872 -0.81232542 10 130 126
0.26420832 -0.48606944 -0.81208694 10 130 126
0.26428857 -0.48397085 -0.81218362 11 128 127
0.26377201 -0.48426762 -0.8116172 10 130 126
0.26388952 -0.48518646 -0.8117345 10 130 126
0.2631366 -0.48834729 -0.81089962 10 130 126
0.26351076 -0.48930529 -0.8112765 10 130 126
0.26244888 -0.48764604 -0.81019294 10 130 126
0.26347283 -0.48824233 -0.8112511 10 130 126
0.26259318 -0.4868854 -0.81035328 10 130 126
0.26135132 -0.48969087 -0.80900681 10 128 126
0.26210687 -0.48868895 -0.80981791 10 130 126
0.26229537 -0.48848283 -0.81001949 10 130 126
0.26241878 -0.48962045 -0.81012815 10 130 126
0.26456872 -0.48997736 -0.81260324 11 130 126
0.26469952 -0.48885012 -0.81271994 11 130 126
0.26447836 -0.48687744 -0.81238288 10 130 126
0.26371995 -0.48671401 -0.81153274 10 130 126
0.26345208 -0.49280444 -0.81119132 12 130 126
0.26245514 -0.49036458 -0.81015462 10 130 126
0.26326594 -0.49277946 -0.81099612 12 130 126
0.26242012 -0.49175957 -0.81011248 11 130 126
0.2623181 -0.49260706 -0.80999398 11 130 126
0.26248068 -0.49220636 -0.81017369 11 130 126
0.2625671 -0.49335089 -0.81024879 12 130 126
0.26244935 -0.49348447 -0.81012106 12 130 126
0.26192343 -0.49277821 -0.80956995 11 130 126
0.26415113 -0.49200034 -0.81205785 12 130 126
0.26408288 -0.49238876 -0.81196624 12 130 126
0.26173475 -0.49443933 -0.80936813 12 130 126
0.26160145 -0.49429902 -0.80921626 12 130 125
0.26347691 -0.49587134 -0.81132603 12 132 125
0.26354265 -0.49414313 -0.811279 12 130 125
0.2628209 -0.49601877 -0.81063533 12 130 125
0.26275006 -0.49797353 -0.81061548 11 132 125
0.26232514 -0.49589226 -0.81008941 12 130 126
0.26295662 -0.49690729 -0.81083614 12 132 126
0.26313242 -0.49774551 -0.81105345 11 132 125
0.26331663 -0.49798825 -0.81127036 11 132 125
0.26375064 -0.49766362 -0.81176239 12 132 125
0.26322821 -0.49889645 -0.81129491 12 132 125
0.26240492 -0.49831682 -0.81025785 11 132 125
0.26247138 -0.49922672 -0.81046933 12 132 125
0.26217824 -0.49941748 -0.81015879 12 132 125
0.26199475 -0.49914959 -0.80990684 12 132 126
0.27505812 -0.46230188 -0.82463944 12 130 125
0.27626109 -0.46280789 -0.82629764 12 130 125
0.27481195 -0.46610805 -0.82491452 12 130 125
0.27462736 -0.46650746 -0.82478493 12 130 125
0.27567583 -0.46677041 -0.8260228 12 130 125
0.27599472 -0.46381164 -0.82605559 12 130 125
0.27565518 -0.46322379 -0.82548004 12 130 125
0.27578238 -0.46398836 -0.825773 12 130 125
0.27600074 -0.46427146 -0.82612967 12 130 125
0.27605623 -0.46477276 -0.82628131 12 130 125
0.27502957 -0.46702972 -0.82529181 12 128 126
0.2750209 -0.46729168 -0.8253448 12 130 125
0.27431908 -0.46773401 -0.82465965 12 128 126
0.27501991 -0.47038582 -0.82600772 12 128 126
0.27503368 -0.47046268 -0.82603866 12 128 126
0.27636811 -0.4703798 -0.82799721 12 130 126
0.27640888 -0.47044542 -0.82808197 12 130 126
0.2754232 -0.47032976 -0.82648665 12 130 125
0.27581242 -0.46731293 -0.8263514 12 130 125
0.27459559 -0.47147927 -0.82565373 12 128 126
0.27480417 -0.47282851 -0.82611889 12 130 126
0.27490786 -0.4720369 -0.82612771 12 130 126
0.27527475 -0.47309271 -0.82674551 12 130 126
0.27388468 -0.47438502 -0.82469201 12 128 127
0.27392858 -0.47332689 -0.82475406 12 128 127
0.27480891 -0.47381979 -0.82617652 12 128 126
0.2739895 -0.47224692 -0.82484329 11 130 126
0.27614164 -0.47218302 -0.82795513 12 130 126
0.2757538 -0.47240967 -0.82736802 12 130 126
0.27540353 -0.47429091 -0.82709265 12 130 126
0.27549598 -0.47329938 -0.82709014 12 130 126
0.27525139 -0.47589093 -0.82700753 12 130 126
0.27489483 -0.47631273 -0.82646978 11 130 126
0.27448431 -0.47572085 -0.82575685 11 130 126
0.27535114 -0.47621414 -0.82719642 12 130 126
0.27393812 -0.47589043 -0.82486778 11 130 126
0.27520272 -0.47850314 -0.82714581 11 130 126
0.27503887 -0.47766161 -0.82681865 11 130 126
0.27393001 -0.47610357 -0.82486778 11 130 126
0.27407423 -0.47595534 -0.82509917 11 130 126
0.27597293 -0.4753173 -0.82849056 12 130 126
0.27558643 -0.47689271 -0.82775593 11 130 126
0.27565688 -0.47607401 -0.82784194 12 130 126
0.27499366 -0.47852078 -0.82679749 11 130 126
0.27500334 -0.47960702 -0.82681984 12 130 126
0.27509224 -0.47936556 -0.82696688 11 130 126
0.2737349 -0.48025072 -0.82483089 12 130 126
0 0 0 1 0 0 0 1 0 0 0 1 0 0 0 0 0 1027 1 0 0
