ply
format ascii 1.0
comment PCL generated
element vertex 799
property float x
property float y
property float z
property uchar red
property uchar green
property uchar blue
element camera 1
property float view_px
property float view_py
property float view_pz
property float x_axisx
property float x_axisy
property float x_axisz
property float y_axisx
property float y_axisy
property float y_axisz
property float z_axisx
property float z_axisy
property float z_axisz
property float focal
property float scalex
property float scaley
property float centerx
property float centery
property int viewportx
property int viewporty
property float k1
property float k2
end_header
-0.012939557 -0.2596038 -0.69133067 45 134 120
-0.014478355 -0.26261276 -0.69084376 46 136 122
-0.014603186 -0.25987402 -0.69128215 45 133 121
-0.011596789 -0.26254821 -0.69092852 45 137 122
-0.012685865 -0.26298693 -0.69081551 46 138 121
-0.013000418 -0.26176947 -0.69099069 46 137 121
-0.013257495 -0.26165864 -0.6909973 47 136 121
-0.013439435 -0.26222014 -0.69090301 47 137 121
-0.01363328 -0.26178026 -0.69096309 47 136 121
-0.014587015 -0.26633421 -0.69030988 41 136 122
-0.014176923 -0.26656687 -0.6902492 42 136 121
-0.010402849 -0.26659119 -0.69036055 43 136 122
-0.011294222 -0.26634669 -0.69035697 43 135 122
-0.01138768 -0.26570156 -0.69045049 43 136 122
-0.010584869 -0.26480982 -0.69062227 43 137 122
-0.011368593 -0.26744339 -0.69018734 42 135 122
-0.012917288 -0.26375878 -0.690687 47 138 122
-0.01355429 -0.26517436 -0.69044042 46 136 121
-0.01110756 -0.26494762 -0.69057781 43 137 122
-0.012402863 -0.26491731 -0.69052845 45 136 122
-0.013237977 -0.26596904 -0.69033015 44 136 121
-0.011875803 -0.26407877 -0.69068074 45 138 121
-0.008497254 -0.26723215 -0.69041717 42 133 124
-0.0066288882 -0.26699764 -0.69063318 40 133 124
-0.0092317965 -0.26730287 -0.69033569 42 135 123
-0.0091873594 -0.26756153 -0.69029778 43 134 123
-0.0086003225 -0.26573235 -0.69064391 41 134 123
-0.0083543779 -0.26541618 -0.69071794 40 134 122
-0.0095839212 -0.26563522 -0.69055384 43 136 122
-0.014374147 -0.26894078 -0.68991971 40 134 122
-0.014055649 -0.27146775 -0.68954217 42 134 122
-0.010876594 -0.27085567 -0.6897437 45 135 121
-0.011340357 -0.27115402 -0.6896795 45 135 121
-0.011397267 -0.27131635 -0.68965483 46 135 121
-0.0098104803 -0.26850727 -0.69011348 43 136 122
-0.01146279 -0.26952386 -0.68989092 43 135 122
-0.010724965 -0.26766726 -0.69018382 43 134 123
-0.011272939 -0.26766837 -0.69015861 43 135 122
-0.011021725 -0.26759887 -0.69017988 43 134 123
-0.012058997 -0.26836947 -0.69002432 43 135 122
-0.013218371 -0.26791099 -0.69003588 43 134 122
-0.0080153728 -0.27133095 -0.68986672 45 134 120
-0.0064035482 -0.26908159 -0.69033617 42 133 122
-0.0091884835 -0.27095869 -0.68984193 46 135 121
-0.0071228789 -0.26964355 -0.69019634 43 134 121
-0.0060159862 -0.26805651 -0.69052541 41 132 124
-0.0058662016 -0.26991376 -0.69024312 42 132 120
-0.0076178731 -0.26849255 -0.69032234 43 133 123
-0.0077605676 -0.26774913 -0.69040811 42 133 124
-0.0082793338 -0.26800737 -0.69032419 42 135 123
-0.0069700051 -0.2677103 -0.69048858 42 133 124
-0.0084428675 -0.26868737 -0.69021779 43 134 123
-0.0056496779 -0.26771799 -0.690597 40 133 124
0.0012364439 -0.27104485 -0.69025302 97 126 123
0.0015179206 -0.2710689 -0.69024694 103 125 123
-0.00034159655 -0.27148119 -0.69022077 71 131 122
0.00015215436 -0.27115583 -0.69025266 77 130 122
-0.00085918955 -0.27036908 -0.69035542 45 135 117
0.0024462342 -0.27093059 -0.69027686 106 125 123
0.010290569 -0.27053639 -0.69064575 57 132 115
-0.014264924 -0.27441981 -0.68917042 42 137 119
-0.014264493 -0.27165979 -0.68953013 41 133 122
-0.0098445639 -0.2753123 -0.68899643 56 140 125
-0.0099126734 -0.27504256 -0.68904781 55 140 125
-0.012438302 -0.27213776 -0.6894936 45 135 121
-0.013643646 -0.27404928 -0.68918425 46 136 120
-0.011232756 -0.27179292 -0.6896013 46 135 121
-0.011436555 -0.27211669 -0.68954891 46 135 121
-0.0072991834 -0.27480817 -0.68917197 55 138 121
-0.0060517965 -0.2731306 -0.68959874 49 134 119
-0.0073334486 -0.27492031 -0.68914449 55 137 121
-0.0066317986 -0.27426392 -0.68931597 54 136 120
-0.0059214402 -0.27293286 -0.68964869 48 134 118
-0.007192553 -0.27196097 -0.68981117 45 134 119
-0.0074949227 -0.27159873 -0.68985796 44 135 119
-0.0079011871 -0.27259451 -0.68964124 47 136 120
-0.0044593173 -0.27431342 -0.68941683 51 137 119
-0.0041836658 -0.27394444 -0.68951941 50 136 119
-0.0051391893 -0.27488074 -0.68923581 54 137 119
-0.0049818512 -0.27242348 -0.68982625 45 134 119
-0.0056532868 -0.27347115 -0.68953425 50 135 119
-0.0053150919 -0.27384445 -0.68946618 51 136 119
-0.0058011007 -0.2716873 -0.689951 43 133 117
-0.0055608186 -0.27479967 -0.68922275 55 136 119
-0.0056388453 -0.27283573 -0.68968689 47 134 118
0.001097203 -0.27253497 -0.68999183 98 127 123
0.0007918526 -0.27387246 -0.68975884 71 132 121
0.0018854006 -0.27482128 -0.68963414 50 139 118
0.00069583999 -0.27454257 -0.68964386 57 136 119
0.00072911067 -0.27367768 -0.68978941 75 132 121
0.00075824559 -0.27201089 -0.69009733 94 128 122
-0.00022774527 -0.27277097 -0.68994933 76 131 121
-0.0011520274 -0.27278391 -0.68995726 56 135 120
-0.00031116384 -0.27322501 -0.6898551 75 131 121
-0.00093971542 -0.27280036 -0.68995142 61 134 120
0.0031588534 -0.27485767 -0.68966383 43 138 117
0.0046210946 -0.27474239 -0.68973625 43 137 116
0.0030106003 -0.27453893 -0.68970412 47 138 116
0.0039412263 -0.27481249 -0.68970025 43 138 117
0.0029079469 -0.27418697 -0.68975669 54 136 117
0.0028225542 -0.27338719 -0.68988901 72 132 119
0.0090729743 -0.27298096 -0.69020468 54 134 117
0.009512919 -0.27220577 -0.69034815 59 133 116
0.009459462 -0.27272093 -0.69026166 58 133 117
0.0091790818 -0.27238378 -0.6903066 57 134 116
0.010187314 -0.27333334 -0.69019353 53 134 118
0.0098489616 -0.2722497 -0.69035453 59 134 116
-0.01388119 -0.27926543 -0.6884588 59 140 121
-0.013687641 -0.27899066 -0.6884892 59 140 121
-0.011514047 -0.27892238 -0.68847865 58 138 121
-0.01253546 -0.27925903 -0.68843883 59 139 121
-0.010489756 -0.27885434 -0.68847889 57 137 121
-0.010408547 -0.27672675 -0.6887908 58 139 124
-0.010174018 -0.27910107 -0.68843967 56 135 120
-0.012768891 -0.27676511 -0.68880421 54 139 122
-0.012904677 -0.2772834 -0.68873012 55 140 121
-0.011881935 -0.27693975 -0.68877232 57 141 123
-0.011688443 -0.27657494 -0.6888237 56 140 123
-0.0083767185 -0.27918056 -0.68842041 59 136 121
-0.0081237229 -0.27890247 -0.6884672 59 136 121
-0.0060562701 -0.27890947 -0.68845594 64 134 122
-0.0074599823 -0.27808008 -0.68860608 59 135 120
-0.0081497077 -0.27772841 -0.68867022 57 136 120
-0.008871899 -0.27709502 -0.68874937 57 137 121
-0.0090108458 -0.27574107 -0.68894541 57 139 124
-0.0081078578 -0.27597058 -0.68893063 57 138 123
-0.0093543408 -0.27611023 -0.68888396 56 139 123
-0.0081580803 -0.27697805 -0.68878156 57 137 121
-0.0024898446 -0.27868214 -0.68877262 69 134 119
-0.0041158227 -0.27852151 -0.68867093 63 135 121
-0.0023557297 -0.2768926 -0.68911189 54 136 119
-0.0032251719 -0.27839193 -0.68876654 64 135 120
-0.0046957135 -0.27860025 -0.68860972 63 135 121
-0.002626312 -0.27759451 -0.68896121 60 135 120
-0.0027097266 -0.27611864 -0.68922508 47 138 119
-0.0027269423 -0.27540526 -0.68934679 46 138 119
-0.0041110013 -0.27648848 -0.68903309 54 136 120
-0.0053808014 -0.27580431 -0.6890353 57 136 120
-0.0054021478 -0.27692124 -0.68884033 59 136 120
-0.00041386741 -0.2782304 -0.68896401 61 135 119
-0.00085743843 -0.27822787 -0.68893421 65 135 119
-0.00036504236 -0.27808213 -0.68898904 61 136 119
0.00092725304 -0.27747095 -0.68916655 50 137 118
-0.0013074251 -0.27607986 -0.68931353 48 137 118
-0.0013113935 -0.27770087 -0.68901587 61 135 119
-0.00026275113 -0.27603498 -0.68935412 46 140 118
0.00043102144 -0.27613312 -0.68935764 46 139 118
-0.00097967056 -0.27608901 -0.68932199 47 138 118
0.0028972488 -0.27599126 -0.68948913 37 141 117
0.0039499663 -0.27596754 -0.68953276 35 141 116
0.0033448171 -0.27551168 -0.68957639 36 141 117
0.0045849471 -0.27577281 -0.68958551 34 141 116
-0.022283407 -0.28307524 -0.68847007 69 136 128
-0.022159779 -0.28252223 -0.68852174 66 136 127
-0.018595837 -0.28196588 -0.6883738 66 135 124
-0.018147023 -0.28119504 -0.688438 58 136 120
-0.018239709 -0.28284976 -0.68823868 73 134 126
-0.019738609 -0.28165215 -0.68849361 65 137 125
-0.018389108 -0.28263605 -0.68827581 71 134 125
-0.021390066 -0.28261146 -0.68848014 75 136 130
-0.020765012 -0.281414 -0.68857247 63 136 125
-0.019894471 -0.28148207 -0.68852293 63 137 124
-0.015441613 -0.28131145 -0.68828684 67 137 123
-0.01613377 -0.28267086 -0.68817151 71 136 124
-0.015815981 -0.28225917 -0.68820447 69 136 124
-0.01542364 -0.28114396 -0.68830234 66 137 123
-0.01394355 -0.27993235 -0.68838918 62 140 121
-0.016594952 -0.28127372 -0.68834025 63 136 122
-0.016778231 -0.28143057 -0.68832964 64 135 122
-0.015211665 -0.27987093 -0.68844754 58 138 120
-0.015644373 -0.28048652 -0.68839192 61 138 121
-0.0099693751 -0.28103191 -0.68820977 61 136 120
-0.010287039 -0.27994466 -0.688348 58 136 120
-0.010143745 -0.28095746 -0.68822426 60 136 119
-0.010031729 -0.27999181 -0.68833405 58 136 120
-0.010351267 -0.28231013 -0.68807209 63 137 119
-0.010967059 -0.28306758 -0.68800324 65 138 119
-0.013183569 -0.28161845 -0.68822068 63 138 120
-0.013292862 -0.28236929 -0.688151 65 138 120
-0.013630069 -0.28220707 -0.68816948 65 138 120
-0.011773143 -0.27938777 -0.68841749 58 138 120
-0.012705376 -0.28125319 -0.68825054 62 138 120
-0.013530657 -0.282271 -0.68816251 65 139 120
-0.0076167583 -0.28165612 -0.6881215 64 136 120
-0.0059204772 -0.28123733 -0.68816698 63 134 120
-0.0094109569 -0.28295937 -0.68797529 65 137 119
-0.0074834893 -0.28222805 -0.68805617 64 136 120
-0.0062326035 -0.28086892 -0.68820935 64 135 121
-0.0081416005 -0.28035834 -0.68827438 63 135 121
-0.0080530969 -0.2798152 -0.68833774 61 135 121
-0.0084429439 -0.27937442 -0.68839151 59 136 121
-0.0086187776 -0.28054637 -0.68825459 62 136 120
-0.0088447351 -0.2821691 -0.68806499 65 136 120
-0.0022555497 -0.28181374 -0.68832386 63 136 120
-0.0020721036 -0.28146258 -0.68838382 65 135 120
-0.0033305301 -0.28158662 -0.68830305 66 135 119
-0.002781657 -0.28235543 -0.68821925 61 136 119
-0.0034694343 -0.2825605 -0.68815523 61 136 119
-0.0052857352 -0.28191257 -0.68813622 63 134 119
-0.0038562403 -0.28017035 -0.68845004 69 134 120
-0.0034952839 -0.2805891 -0.68843138 70 134 119
-0.0057019563 -0.27931169 -0.68839902 66 135 122
-0.0057195746 -0.28066373 -0.68824351 63 135 121
-0.0054087201 -0.27933508 -0.68842 66 135 122
-0.0004145226 -0.28296179 -0.68827468 53 137 120
0.0013932581 -0.28132984 -0.68863344 47 136 120
0.00087109557 -0.28121728 -0.68861568 49 136 120
0.0011360456 -0.28194693 -0.68852586 48 137 120
-0.00089996774 -0.28316948 -0.68821222 54 138 121
0.001179134 -0.28312418 -0.68835568 49 136 121
-0.0012636769 -0.27958253 -0.6887086 68 134 119
-0.0010854467 -0.27940649 -0.68874627 68 133 120
-0.00015493133 -0.28044218 -0.68865979 56 136 119
-0.00062053453 -0.28086334 -0.68856716 57 136 120
-0.0018272635 -0.2801291 -0.68859124 70 135 119
0.0023544359 -0.28184322 -0.6886192 45 135 121
-0.021506274 -0.28489131 -0.68820202 59 135 125
-0.023387831 -0.28521255 -0.6881752 57 135 124
-0.022780629 -0.28361323 -0.68840986 65 135 127
-0.021939086 -0.2833128 -0.68842465 75 137 130
-0.023500476 -0.28338456 -0.68847722 57 135 123
-0.023853304 -0.28550839 -0.68814212 53 134 123
-0.018215742 -0.28413904 -0.68808335 65 134 124
-0.017712854 -0.28416571 -0.68806803 66 135 124
-0.017700192 -0.28386799 -0.68809348 68 135 124
-0.019377733 -0.28531677 -0.68801129 52 134 120
-0.020088622 -0.28520614 -0.68806177 53 134 121
-0.019250065 -0.28481135 -0.68805456 57 133 122
-0.020420155 -0.28534821 -0.6880666 52 133 121
-0.020072406 -0.28468466 -0.68812931 60 134 124
-0.020985914 -0.28368425 -0.68832546 73 136 129
-0.015866246 -0.28508741 -0.68795043 54 140 119
-0.013817402 -0.28363284 -0.68803763 65 138 120
-0.013970523 -0.28477746 -0.68792909 61 138 118
-0.017007653 -0.28520659 -0.68796372 55 138 122
-0.016024282 -0.28460044 -0.68799812 58 138 121
-0.014406662 -0.28351301 -0.68806267 65 138 121
-0.016372776 -0.28521764 -0.68795103 54 139 120
-0.011895897 -0.28426906 -0.68791223 63 138 118
-0.013527496 -0.28486818 -0.68790728 61 138 117
-0.011964058 -0.28409809 -0.6879319 63 139 118
-0.011685906 -0.28391668 -0.6879406 64 138 118
-0.0065861419 -0.28331387 -0.6879316 61 135 119
-0.0092701605 -0.2833893 -0.68792653 65 137 119
-0.0043839859 -0.28369385 -0.68796027 60 137 119
-0.0041467361 -0.28398487 -0.68793583 61 136 119
-3.3639139e-05 -0.28468245 -0.68807495 55 137 120
0.00072434312 -0.28531533 -0.68803149 54 136 120
0.001892295 -0.28351277 -0.68834865 47 135 121
0.0014473125 -0.28582862 -0.68800259 53 136 120
0.0017636002 -0.28500041 -0.6881355 50 136 120
-0.0012678781 -0.28446972 -0.68802685 58 138 120
-0.0016503824 -0.28381607 -0.68808234 58 138 120
0.0015528777 -0.28338405 -0.68834633 48 135 121
0.003995386 -0.28709188 -0.68795472 48 132 118
0.0025276397 -0.28598326 -0.68803811 51 134 120
0.001953081 -0.28513908 -0.68812728 50 136 120
0.0027704437 -0.28463909 -0.68823558 47 133 120
0.0033431507 -0.2849322 -0.68822247 46 133 120
0.0023202947 -0.28523859 -0.68813115 49 136 120
0.0057594446 -0.2857292 -0.68824923 42 131 118
0.0045728181 -0.28488213 -0.68830395 43 133 118
0.0036932118 -0.28493315 -0.68823928 45 132 119
0.0048526726 -0.28344718 -0.68854427 40 135 120
0.0051218793 -0.28412443 -0.68845671 40 134 119
0.0069361553 -0.28617927 -0.68823832 43 130 118
0.0082453424 -0.28496835 -0.68848914 41 132 118
0.0089250952 -0.28534466 -0.68846905 39 134 117
0.0089802239 -0.28565344 -0.68842578 39 134 117
0.0085407048 -0.28673181 -0.68824112 41 133 118
0.0065660262 -0.28490269 -0.68841755 40 133 117
0.0058664838 -0.28489193 -0.68838573 40 133 118
0.0065827537 -0.28537041 -0.68834597 41 132 118
0.0074020009 -0.28450486 -0.68851918 40 133 118
0.006898521 -0.28570858 -0.68830866 42 131 118
0.0044017625 -0.28752193 -0.68790001 47 132 118
0.0088111563 -0.28878957 -0.68793553 42 133 118
0.0079738032 -0.28811395 -0.68799162 42 133 118
0.0086757522 -0.28841564 -0.68798548 42 133 118
0.0087260306 -0.28721109 -0.68817687 42 134 118
-0.0070982161 -0.31440789 -0.68386281 43 138 117
-0.0065651494 -0.31405443 -0.68389934 42 138 119
-0.0052259434 -0.31376895 -0.68393707 43 138 120
-0.0039305561 -0.31430444 -0.68389839 47 137 121
0.00072116766 -0.31410658 -0.6839363 65 134 119
0.0023994329 -0.31444031 -0.68387812 69 133 119
-0.0063255262 -0.31505686 -0.68377066 38 139 119
-0.0072463369 -0.31776157 -0.68348825 40 136 118
-0.0062363176 -0.31513625 -0.68376297 38 139 119
-0.0077853845 -0.31692132 -0.6835717 41 137 119
-0.0063330568 -0.317305 -0.68353975 39 137 118
-0.0084561035 -0.31672648 -0.68359554 42 138 117
-0.0027720986 -0.31621772 -0.68371427 52 137 120
-0.0024321896 -0.31533727 -0.68381858 54 136 121
-0.0046010967 -0.31737125 -0.68356138 45 136 119
-0.0027446726 -0.31625155 -0.68371081 52 137 120
-0.0036474983 -0.31774423 -0.68353009 47 138 119
-0.003388339 -0.31506529 -0.68382907 50 136 121
-0.005626501 -0.31597865 -0.68368375 39 138 119
-0.004014018 -0.31453487 -0.68386912 46 139 121
-0.0031846124 -0.314796 -0.68386143 51 137 120
-0.0052238195 -0.3176454 -0.68352187 43 135 119
-0.0043716598 -0.31680575 -0.68362778 46 135 119
-0.00048528682 -0.31734914 -0.68357372 55 137 119
0.0017779965 -0.31817836 -0.68346208 50 136 118
0.0019426282 -0.31641006 -0.6836502 59 134 119
0.0015780746 -0.31694338 -0.68359661 56 135 118
0.0019481943 -0.31613889 -0.68367922 60 134 118
0.00054843747 -0.31523684 -0.68379408 64 134 120
-0.00080199225 -0.31566808 -0.68376744 58 136 120
-0.0017268436 -0.31792641 -0.68352556 53 139 120
-0.00043873745 -0.31598526 -0.68372524 59 136 120
-0.0018327131 -0.31809214 -0.6835084 52 139 120
-0.0019319154 -0.31830937 -0.68348533 52 139 120
0.0057510557 -0.31555021 -0.68382347 60 135 119
0.0044977306 -0.31620887 -0.68367881 59 136 119
0.0051892721 -0.31517789 -0.68386114 62 135 119
0.0040028528 -0.31458408 -0.68391114 66 134 119
0.0056922128 -0.31738415 -0.68353987 53 136 120
0.0037843445 -0.31487498 -0.68385887 65 135 118
0.002761696 -0.31755129 -0.68351829 53 135 119
0.002894721 -0.31795046 -0.68347394 51 135 119
0.003149034 -0.31823802 -0.68344015 50 136 119
0.0022466355 -0.31753314 -0.68352622 53 135 118
0.0023756959 -0.31693047 -0.6835894 56 135 118
0.0069328491 -0.31599128 -0.68376887 54 136 119
0.0067181364 -0.31716412 -0.6835869 50 136 120
0.0061605871 -0.31579629 -0.68379205 58 135 119
0.0069884639 -0.31646812 -0.68369609 52 135 120
0.0073177018 -0.31557184 -0.6838491 53 136 119
-0.010130348 -0.3183679 -0.68339342 43 136 118
-0.006067751 -0.31935379 -0.68326342 43 136 117
-0.0066989157 -0.31887582 -0.6833452 42 135 117
-0.0072592795 -0.31881201 -0.68335277 42 136 117
-0.0035874355 -0.32196534 -0.6828981 47 139 116
-0.002087753 -0.32126254 -0.68306047 46 139 117
-0.0026201829 -0.32039046 -0.68316275 48 140 118
-0.0044567008 -0.31852537 -0.68342185 45 137 118
-0.0027753487 -0.31841671 -0.68346035 49 139 120
-0.0029760024 -0.31928107 -0.68330914 51 139 119
-0.0031668383 -0.31912819 -0.68333322 50 139 119
0.0015769582 -0.32002944 -0.68327552 46 136 119
0.00010461826 -0.32224739 -0.68301368 44 137 119
0.0016749336 -0.32024276 -0.68326068 46 136 119
-2.1869317e-05 -0.32196891 -0.68303311 45 138 119
0.0016533015 -0.32138038 -0.6831581 45 136 121
-0.0018596355 -0.3213377 -0.68305445 46 140 117
-0.0018838542 -0.32051894 -0.68317139 47 139 118
-0.0015575655 -0.32028794 -0.68320107 48 139 118
-0.00031308795 -0.32049543 -0.68315905 46 138 117
-0.0015198935 -0.31877688 -0.68341613 51 138 120
-0.00069424266 -0.31841332 -0.6834597 50 138 120
0.0051179426 -0.32120773 -0.6831075 42 132 120
0.0049469937 -0.32101446 -0.68313408 42 133 120
0.0036196399 -0.3214038 -0.68313354 43 135 121
0.0048016785 -0.319585 -0.68329525 46 136 121
0.0033260735 -0.32223016 -0.68305236 42 133 120
0.0031534079 -0.32148165 -0.6831398 43 136 121
0.0032391953 -0.3186495 -0.68340021 48 136 119
0.0028066656 -0.3203676 -0.68325174 46 136 121
0.0053734048 -0.31843084 -0.68339515 49 136 121
0.0034705545 -0.32019845 -0.68325919 46 136 121
0.0028065979 -0.31893045 -0.68338013 48 135 120
-0.0026858437 -0.32416731 -0.68259758 47 139 117
-0.0042750528 -0.32585379 -0.68230796 51 138 117
-0.0022420823 -0.32539439 -0.68238848 46 140 118
-0.002184639 -0.32283771 -0.68282515 45 140 116
-0.004370878 -0.32555258 -0.68235934 51 138 116
-0.0029024319 -0.32296911 -0.68279207 47 138 116
-0.0025660228 -0.32252169 -0.68286425 46 140 116
0.00087106356 -0.32432103 -0.68270648 43 137 120
0.00161162 -0.32609013 -0.68246788 42 133 120
0.00051660498 -0.32455769 -0.68264925 44 136 120
-0.00090323924 -0.32567132 -0.68239379 45 139 119
-0.0013089166 -0.32565087 -0.68237436 45 139 119
0.0005572954 -0.32409322 -0.68272501 44 136 120
0.00063851452 -0.32227814 -0.68303305 44 136 120
-0.00035759399 -0.32255575 -0.68294257 45 138 119
0.00043549598 -0.3228302 -0.68292999 44 138 120
-0.00037259585 -0.32443678 -0.6826207 45 138 119
-0.0013274627 -0.32543778 -0.68240839 45 139 119
0.0028044111 -0.32401058 -0.68278897 42 133 120
0.002605061 -0.32449186 -0.68271917 42 133 120
0.0034531192 -0.32257256 -0.68299586 42 132 120
0.002490981 -0.32535338 -0.68258649 40 134 120
-0.0025635136 -0.32797068 -0.68207186 47 138 118
-0.0023363265 -0.3269439 -0.68217385 47 138 118
-0.0022675875 -0.32799804 -0.68207687 46 137 117
-0.0035480403 -0.32723072 -0.68212909 48 139 116
-0.0027984842 -0.32649356 -0.68221712 48 138 118
0.0014147295 -0.32697883 -0.68236041 42 134 119
0.0013173381 -0.32981923 -0.68200737 40 135 118
-0.0014041897 -0.33003888 -0.68190914 45 134 118
0.00049182191 -0.32846409 -0.68215299 42 134 119
0.00058971939 -0.32896161 -0.68209416 42 135 118
5.603442e-05 -0.32691285 -0.68229872 43 136 119
-0.0017264475 -0.32678464 -0.68221122 45 139 119
-0.00071421172 -0.32780588 -0.682172 44 136 119
-0.0018404082 -0.32768255 -0.68212074 46 137 118
0.000835201 -0.32695618 -0.68233812 43 135 119
-0.0016655447 -0.32894918 -0.68201184 46 134 118
0.002151103 -0.32815406 -0.68222529 40 134 119
-0.0027478097 -0.33165193 -0.68169689 42 135 116
-0.0036185679 -0.33145016 -0.68168503 44 136 117
-0.0055668117 -0.33226448 -0.68153882 45 138 115
-0.0036718545 -0.33074564 -0.68176705 47 135 116
-0.0057634781 -0.33211625 -0.6815514 46 139 115
-0.00037574896 -0.33072549 -0.68186569 40 134 117
-0.018795103 -0.28664467 -0.68788087 40 138 118
-0.016934153 -0.28635004 -0.68785489 47 139 120
-0.015585279 -0.28598461 -0.68785357 53 138 119
-0.013862036 -0.28540039 -0.68786418 58 139 117
-0.014616981 -0.28602687 -0.68782228 55 139 118
-0.013056407 -0.285772 -0.68779278 61 138 118
-0.012926521 -0.28625515 -0.68773818 59 138 117
-0.013240781 -0.28623909 -0.68775439 58 138 117
-0.011359645 -0.28511861 -0.68779474 64 138 118
-0.012556667 -0.28492057 -0.68786484 62 138 118
-0.010005146 -0.28472245 -0.68778586 66 137 119
-0.010702778 -0.28494114 -0.68778878 65 137 119
-0.010658295 -0.28527832 -0.68774867 65 138 119
-0.0087173097 -0.28539494 -0.68770504 69 136 120
-0.0087951953 -0.28636038 -0.68759489 70 136 121
-0.00859812 -0.28536132 -0.68770939 69 136 120
-0.0086988462 -0.28519335 -0.68772799 69 136 120
-0.0083873468 -0.28425205 -0.68783212 66 136 119
-0.0059609134 -0.28489947 -0.68776053 66 135 120
-0.008511303 -0.28394488 -0.68786508 65 136 119
-0.0062808818 -0.28387302 -0.68787068 63 135 119
-0.0063420702 -0.28472143 -0.68777996 66 135 119
-0.005596308 -0.28635028 -0.68761373 71 135 121
-0.0053162929 -0.28631064 -0.68762708 71 135 121
-0.0041700355 -0.28565073 -0.68773496 67 135 120
-0.0047810813 -0.28578198 -0.68770105 68 135 120
-0.0042452049 -0.28709424 -0.68757802 73 135 121
-0.0021747628 -0.28683415 -0.6876747 69 137 121
-0.002718044 -0.28500301 -0.68787891 63 138 119
-0.0008184294 -0.2862443 -0.6878193 62 136 120
-0.00069637573 -0.28675485 -0.68776125 63 136 120
-0.018008079 -0.28996038 -0.68742174 40 138 116
-0.014040402 -0.28803462 -0.68755007 54 138 116
-0.015528956 -0.29101393 -0.68713135 50 139 114
-0.014320094 -0.2902481 -0.68717849 54 139 115
-0.016198806 -0.29094929 -0.68719184 47 137 115
-0.015052598 -0.28962675 -0.68734217 51 138 115
-0.0156136 -0.28786951 -0.68764454 46 139 116
-0.015526132 -0.28793803 -0.68763262 47 138 116
-0.016839964 -0.28725457 -0.68776548 42 141 119
-0.016837684 -0.2897453 -0.68742949 44 137 116
-0.017246827 -0.28880909 -0.68756837 41 139 117
-0.010097418 -0.2901727 -0.6869778 66 138 122
-0.010014057 -0.2875385 -0.68744051 68 137 121
-0.0099042021 -0.2890543 -0.68716687 67 137 122
-0.0098536033 -0.28947085 -0.68709075 67 136 123
-0.010276909 -0.29030627 -0.68696249 65 138 122
-0.011768389 -0.28718185 -0.68758541 61 137 118
-0.012618351 -0.28916872 -0.68727309 59 138 116
-0.011100773 -0.28729576 -0.68753409 64 137 119
-0.010739354 -0.28793189 -0.68740463 66 136 119
-0.011729274 -0.28898403 -0.68726438 63 138 118
-0.005989078 -0.29036331 -0.68699336 80 136 123
-0.0070511056 -0.29032719 -0.68697828 76 136 123
-0.0075888294 -0.29043132 -0.6869508 74 136 123
-0.0060047209 -0.28991231 -0.68706626 80 135 124
-0.00815049 -0.2901313 -0.68698841 71 136 123
-0.0093699452 -0.29068542 -0.68687445 68 137 124
-0.0072075445 -0.28778464 -0.68739784 73 135 122
-0.0087511661 -0.28961506 -0.68706608 69 137 123
-0.0066822553 -0.28784612 -0.68738943 73 135 122
-0.0097403638 -0.28937259 -0.68710417 67 137 123
-0.0071167261 -0.28794122 -0.68737048 73 135 122
-0.0084624775 -0.28855765 -0.68725479 70 136 122
-0.0044399593 -0.29093748 -0.6869626 81 135 124
-0.0037600666 -0.28921196 -0.68725401 76 137 122
-0.0041276747 -0.28963181 -0.68717444 77 136 123
-0.0021367562 -0.28897652 -0.68735921 75 136 122
-0.00439762 -0.28983623 -0.68713182 78 136 123
-0.0032616435 -0.28905028 -0.68729991 76 135 123
-0.0032430189 -0.28786069 -0.68748701 72 136 122
-0.0043626502 -0.2886616 -0.68732071 76 136 122
-0.0056520491 -0.28752193 -0.6874637 76 134 122
-0.0054785842 -0.28784254 -0.68741733 76 134 122
-0.0047152992 -0.28878006 -0.68729001 77 135 123
-0.0010166573 -0.29035106 -0.68720764 74 135 123
7.0120324e-05 -0.28981048 -0.68734783 68 136 122
0.00040542975 -0.28937405 -0.68743145 66 136 121
0.0019248943 -0.28783715 -0.68774444 56 135 119
0.001823717 -0.28800693 -0.6877135 57 135 119
0.0012114432 -0.28745225 -0.68776405 58 135 120
-0.00045313954 -0.28737342 -0.68768913 65 136 120
-0.00073170743 -0.2871505 -0.68770844 65 136 120
-0.0018979734 -0.28953674 -0.68728483 76 135 123
-0.0014880705 -0.28963146 -0.6872918 74 135 123
-0.0017497885 -0.2889742 -0.68737805 73 136 122
0.0057625435 -0.29081097 -0.68738931 47 138 116
0.0047304835 -0.28781113 -0.68786532 47 132 118
0.0037193671 -0.28767893 -0.68783945 50 134 118
0.005159772 -0.28965387 -0.687563 48 136 117
0.0030064615 -0.28757018 -0.68782407 52 134 118
0.0037266309 -0.28903791 -0.68760616 52 137 118
0.0032300928 -0.291015 -0.68729895 58 137 119
0.0024215616 -0.28937018 -0.687527 57 136 119
0.0027420896 -0.28922686 -0.68755567 55 137 118
0.0052048452 -0.29058188 -0.68740827 49 138 117
0.0080889491 -0.29001963 -0.68769199 43 132 119
0.0086004836 -0.29091698 -0.68757111 45 133 119
0.0060493392 -0.28987059 -0.68757248 46 136 116
0.0067569828 -0.28867862 -0.68783206 44 131 118
0.0083932243 -0.28937206 -0.68781877 43 132 118
0.008697873 -0.28961587 -0.68779784 42 132 119
0.010068388 -0.29006433 -0.68781465 42 132 120
-0.017242819 -0.29161584 -0.68714678 49 137 113
-0.016917687 -0.29115799 -0.68720675 46 138 114
-0.015586658 -0.29161102 -0.68702644 55 137 113
-0.011775885 -0.29308495 -0.68658972 67 138 120
-0.011104226 -0.29287574 -0.68660557 70 137 121
-0.012791218 -0.29288617 -0.68666577 64 138 118
-0.012640785 -0.29302979 -0.68663657 64 138 118
-0.011628713 -0.29127446 -0.68685997 62 138 119
-0.011831664 -0.29242325 -0.68669242 65 138 120
-0.012475568 -0.29283923 -0.68665826 64 138 118
-0.0071140826 -0.29126856 -0.68683451 79 135 124
-0.009460845 -0.29144245 -0.68676704 70 136 124
-0.0071530445 -0.29106224 -0.68685889 77 136 124
-0.0024007992 -0.29332325 -0.68671405 65 140 121
-0.0025921529 -0.29206359 -0.68688202 76 138 123
-0.0022804472 -0.29335001 -0.68671566 63 140 121
-0.0029455712 -0.29367959 -0.68664002 66 140 121
-0.0039455881 -0.29420921 -0.68652159 68 142 120
-0.0039530997 -0.2938582 -0.68657035 71 141 121
-0.0050563924 -0.29151461 -0.68685371 80 136 124
-0.0023760267 -0.29122442 -0.68700945 79 136 123
-0.0040736413 -0.29136512 -0.68691695 80 136 124
0.0015979821 -0.29369459 -0.68688089 59 137 119
0.0018489696 -0.29401594 -0.68685091 59 137 118
0.0014100706 -0.29222646 -0.6870724 60 137 120
0.0011179877 -0.29358843 -0.68686825 58 137 119
-9.870599e-05 -0.29411006 -0.68672723 55 139 119
0.00070237578 -0.29237583 -0.68701166 58 138 120
-0.00056599895 -0.29111284 -0.68711907 72 136 122
-0.00016248866 -0.29250419 -0.68694627 60 139 121
-0.0014066453 -0.29137376 -0.68703669 74 136 123
-0.0019413887 -0.29133156 -0.68701345 77 136 123
-0.00071865821 -0.29173115 -0.68702418 68 137 122
0.0054572602 -0.29412353 -0.68684959 59 136 117
0.0052430248 -0.29269168 -0.68708539 54 137 117
0.0028707038 -0.29437813 -0.68681777 57 137 117
0.0057548955 -0.29366419 -0.6869238 58 136 117
0.0048207408 -0.29206926 -0.68718916 50 138 116
0.0032832464 -0.29159617 -0.68722004 57 137 119
0.0021920402 -0.29364341 -0.68691349 59 137 118
0.002298628 -0.29301208 -0.68700284 59 136 119
0.0019563411 -0.29396611 -0.68686372 59 137 118
0.0050855088 -0.29128709 -0.68730325 50 139 117
0.0090161897 -0.29315415 -0.68725461 52 133 119
0.0078303255 -0.29442593 -0.6869626 58 135 117
0.0084281191 -0.29332113 -0.68717849 54 133 118
0.0086957607 -0.29457715 -0.68701571 57 135 117
0.0090309912 -0.29382837 -0.68715596 54 135 117
0.0065823039 -0.29463345 -0.68682289 61 135 117
0.0089965435 -0.29116359 -0.68755782 44 133 119
0.0066175568 -0.29308996 -0.6870718 54 136 117
0.0074372604 -0.29114151 -0.68745011 46 136 117
0.0066838125 -0.29185361 -0.68727946 50 136 117
0.0068895938 -0.29300559 -0.68710506 54 135 118
0.01004567 -0.29352143 -0.68729317 50 134 118
0.010568525 -0.29333147 -0.6873728 46 133 119
0.0099745486 -0.29151812 -0.68758309 43 131 120
0.010053539 -0.29152003 -0.6875906 43 132 120
0.011546643 -0.29458034 -0.68728417 43 136 118
0.011226835 -0.29308814 -0.68747383 40 134 119
-0.0064817485 -0.29755068 -0.68602169 68 140 118
-0.0068961792 -0.29860878 -0.68589401 67 139 118
-0.0069553629 -0.29841709 -0.68591648 68 138 118
-0.0025006819 -0.29551831 -0.68641531 51 141 119
-0.0027140044 -0.29806566 -0.68612176 65 136 120
-0.0032902206 -0.29752243 -0.68615186 60 138 119
-0.0023039796 -0.29878515 -0.68606341 71 134 121
-0.0023674602 -0.29852286 -0.68608922 69 135 121
-0.0037555764 -0.29662511 -0.68622786 54 141 118
-0.004113921 -0.29696611 -0.68617147 54 140 118
-0.0035946623 -0.29512885 -0.68641275 59 142 120
-0.0054148468 -0.2979033 -0.68600249 59 140 117
-0.0044597602 -0.29540685 -0.6863414 64 142 120
0.0012542435 -0.29597241 -0.6865679 63 135 118
0.0012699013 -0.29601133 -0.68656325 63 135 118
-0.00079607544 -0.29770559 -0.68626642 69 134 120
0.0014667701 -0.29646274 -0.68650979 66 135 117
-0.00056880421 -0.29681307 -0.68637902 64 136 120
-0.0015376383 -0.2962091 -0.68639094 58 138 119
-0.00092454767 -0.29674935 -0.68636584 62 137 119
-0.00058460096 -0.29554877 -0.68651831 55 139 119
0.00039902003 -0.29594541 -0.68653023 61 137 119
-0.0019279084 -0.29695162 -0.68628645 62 137 120
0.0041631842 -0.29783899 -0.6863063 75 134 117
0.0053694909 -0.29707399 -0.68639356 70 135 117
0.0047304966 -0.29855621 -0.68617886 76 135 117
0.0047004703 -0.29729044 -0.68637764 73 134 117
0.0024486394 -0.2954964 -0.68665344 62 136 117
0.0047893533 -0.29533443 -0.68666607 64 135 116
0.0044070687 -0.29569307 -0.6866197 66 135 117
0.0043981615 -0.29533428 -0.68666756 63 136 117
0.00886855 -0.29685548 -0.68666184 65 137 117
0.0094601354 -0.29578242 -0.68688846 61 135 117
0.0092846658 -0.29775819 -0.68653738 68 136 118
0.0078819897 -0.29876816 -0.68626279 73 136 118
0.0091670295 -0.29790962 -0.68650293 69 136 118
0.0086751739 -0.29664987 -0.686683 64 136 117
0.0060661156 -0.29648659 -0.68649036 67 136 117
0.0063464819 -0.29580361 -0.68662167 65 135 117
0.0062070666 -0.29811466 -0.686248 71 137 118
0.0068726991 -0.29704657 -0.68647313 68 136 117
0.007099356 -0.29644638 -0.6865868 65 137 117
0.007361629 -0.29732174 -0.68647277 68 137 117
0.01006791 -0.29876161 -0.6864326 70 136 118
0.012318451 -0.29810491 -0.68678361 48 135 119
0.011448096 -0.29805845 -0.68669623 56 135 119
0.012336705 -0.29796779 -0.68680769 47 135 119
0.010805385 -0.29659614 -0.68687367 57 136 118
0.010435787 -0.2958656 -0.68696237 56 137 117
0.011773237 -0.29497933 -0.68724602 43 136 118
0.011378717 -0.29712018 -0.68684047 56 135 119
0.01062858 -0.29510665 -0.68711138 52 136 117
-0.0067498661 -0.30193543 -0.68549764 63 137 118
-0.0058839256 -0.30115315 -0.68559372 59 139 119
-0.0071706139 -0.30050629 -0.68566811 63 137 115
-0.0080379276 -0.30211166 -0.68547314 68 136 115
-0.0079655088 -0.30185357 -0.68550426 67 136 115
-0.0071614329 -0.29992375 -0.68573761 63 137 115
-0.0046505621 -0.30184978 -0.68555504 65 138 120
-0.0033300645 -0.30003053 -0.68586069 68 135 121
-0.0042831013 -0.29973418 -0.68584645 65 137 119
-0.0038499946 -0.29888088 -0.68597156 65 136 119
-0.0047812592 -0.29916331 -0.68588901 62 137 118
-0.0031541889 -0.29900157 -0.68599343 68 135 120
0.0017730803 -0.30214393 -0.68568176 72 139 116
-0.0016010668 -0.29909575 -0.68604183 74 134 120
-0.0018642889 -0.29891193 -0.68606526 73 133 121
0.0058561852 -0.29998431 -0.68598074 73 136 119
0.0058345604 -0.30194744 -0.68576765 71 136 119
0.0046334481 -0.30032045 -0.68591803 72 138 117
0.0050543048 -0.30252784 -0.68568808 70 136 119
0.0045632417 -0.30069798 -0.68587565 72 138 117
0.0057761241 -0.30134755 -0.68583137 72 136 119
0.0021316886 -0.30209583 -0.68569422 71 139 116
0.0038463422 -0.30046099 -0.68590426 73 138 116
0.002120835 -0.30246854 -0.6856361 70 141 115
0.0092937825 -0.30258116 -0.68571734 62 136 116
0.0068015987 -0.3026284 -0.68570381 68 136 119
0.0096080853 -0.30194351 -0.68583196 63 136 116
0.008094593 -0.30192575 -0.68583202 68 136 119
0.0078297835 -0.30082682 -0.68602788 71 136 119
0.0072797192 -0.30252734 -0.68572289 68 136 119
0.0086854529 -0.2988975 -0.68630326 73 136 119
0.0068126945 -0.29978925 -0.68607098 73 136 119
0.0058734315 -0.30042535 -0.68593407 72 137 118
0.0076846341 -0.30049789 -0.68605745 72 136 119
0.0083150929 -0.29888538 -0.68627769 73 136 118
0.011404995 -0.30126643 -0.68612444 50 136 117
0.011387755 -0.30236784 -0.68587798 50 136 117
0.012114743 -0.30175087 -0.68606269 45 136 117
0.012521747 -0.30267677 -0.68588293 43 136 119
0.011060111 -0.30059689 -0.68621409 54 136 117
0.011089704 -0.29989687 -0.68634242 57 135 118
0.011191268 -0.30018836 -0.68630135 54 136 117
0.010859135 -0.30127427 -0.6860711 54 136 117
0.012038372 -0.29947072 -0.68652201 49 135 118
-0.010102954 -0.30431831 -0.68523288 64 134 114
-0.0072990917 -0.30420893 -0.6852392 55 138 119
-0.0065027722 -0.30421218 -0.68521649 56 138 119
-0.0074551175 -0.30344871 -0.6853224 61 137 118
-0.0093093058 -0.30370808 -0.68528944 65 135 114
-0.0072399941 -0.30309644 -0.68536109 62 138 118
-0.008624834 -0.30327296 -0.68533844 66 135 115
-0.0089118239 -0.30412051 -0.68524575 61 136 115
-0.0032210792 -0.30656946 -0.68490547 64 141 116
-0.0025470052 -0.30610502 -0.68497097 69 141 116
-0.0033840011 -0.30644754 -0.68491805 64 140 116
-0.0043131877 -0.30605441 -0.68495315 62 138 116
-0.0051168278 -0.30578232 -0.68497729 59 136 117
-0.005146801 -0.30349165 -0.68529576 64 137 119
-0.0049511995 -0.30492872 -0.68509525 62 136 118
-0.0048613311 -0.30353075 -0.68528914 66 137 119
-0.005563912 -0.30551386 -0.68501645 57 136 118
0.00040967239 -0.30453268 -0.68530124 69 142 116
-0.00023497711 -0.30540746 -0.68516368 69 142 116
0.0018579339 -0.30598715 -0.68524605 73 134 119
0.0014441467 -0.30445251 -0.685381 71 138 117
0.00044915674 -0.30590591 -0.68515766 71 138 117
0.00093038031 -0.30321032 -0.68548602 72 140 115
-0.00054821034 -0.3043887 -0.6852631 73 141 115
-0.00031742128 -0.30411485 -0.68530887 73 140 116
0.0054560914 -0.30452964 -0.68546534 62 138 118
0.0052768607 -0.30434787 -0.68548548 65 137 118
0.0029601441 -0.30595964 -0.68527299 71 134 119
0.0053440756 -0.30512926 -0.68539286 58 139 116
0.0053599468 -0.30439427 -0.68548065 63 137 118
0.0035186866 -0.30285516 -0.68561983 70 138 117
0.0024162205 -0.30415747 -0.68545741 71 137 118
0.0041546971 -0.3038663 -0.68552583 71 135 119
0.0026727093 -0.30321249 -0.68556356 70 138 117
0.00285886 -0.30492392 -0.68538535 72 134 119
0.0042539532 -0.30280358 -0.68564111 70 138 118
0.0094015803 -0.30592525 -0.68526906 54 133 118
0.0064732931 -0.30628011 -0.68525767 47 141 114
0.0090060635 -0.30371562 -0.68556923 57 137 115
0.0096950131 -0.3052097 -0.68536109 55 133 117
0.0089378664 -0.30557111 -0.68532211 54 134 117
0.0068721669 -0.30277571 -0.68568009 68 136 119
0.0075693 -0.30395573 -0.6855408 58 138 116
0.007280658 -0.30399036 -0.68553609 58 138 116
0.0076865065 -0.30405414 -0.68552935 58 138 116
0.007497719 -0.30329257 -0.68561971 62 137 117
0.011602071 -0.30364594 -0.68568856 46 135 118
0.012034466 -0.30344841 -0.68574303 45 135 119
0.010447138 -0.30332741 -0.68565601 55 135 117
-0.0031997461 -0.30949831 -0.68451041 62 138 118
-0.0020645901 -0.30730352 -0.68482232 68 142 116
-0.0032906234 -0.30840817 -0.68465811 63 140 117
-0.0025665285 -0.30774847 -0.68475616 66 141 116
-0.0035816543 -0.30879897 -0.6846016 61 139 117
-0.0035813223 -0.30948693 -0.68450773 61 138 118
-0.0037007674 -0.30797699 -0.6847114 62 139 117
-0.0028927459 -0.30674484 -0.68488735 65 142 116
-0.0041419952 -0.30794254 -0.68471003 60 139 117
-0.0045273639 -0.30911738 -0.68454748 58 138 118
0.0010379157 -0.30920771 -0.68476504 70 135 119
0.0013246438 -0.30789596 -0.68496674 72 133 119
0.0017571626 -0.30790454 -0.6849941 73 133 120
0.0017890268 -0.30984202 -0.6847263 71 135 118
4.881632e-05 -0.31012383 -0.68457216 69 137 119
0.0013855454 -0.31039479 -0.6846227 71 135 118
-0.0017206285 -0.30931091 -0.68456566 67 139 119
-0.00094213278 -0.30690348 -0.68494779 70 140 117
-0.001720609 -0.30965731 -0.68451846 66 139 119
-0.00017481169 -0.3083891 -0.68479788 70 135 119
-0.00094369799 -0.30689955 -0.68494827 70 140 117
0.0042880177 -0.30994526 -0.68476266 67 135 119
0.0050453115 -0.31052396 -0.68470365 71 132 122
0.0054165069 -0.30995685 -0.6847837 68 133 120
0.005599251 -0.31048387 -0.68471992 71 132 122
0.0057452768 -0.31013778 -0.68476713 69 133 121
0.0040192436 -0.31002164 -0.68474746 68 134 120
0.0041238302 -0.30696502 -0.68515676 58 138 116
0.0041481461 -0.30793369 -0.68502206 57 139 115
0.002412966 -0.30731809 -0.68509269 70 134 118
0.0029419139 -0.30737397 -0.68508953 66 136 117
0.0042419396 -0.30721173 -0.68512344 56 139 116
0.0029243897 -0.30698496 -0.68514353 67 135 118
0.0096185571 -0.30891857 -0.68486124 48 134 119
0.0063249329 -0.3104209 -0.68472457 69 132 122
0.0076611768 -0.30998719 -0.68475604 60 133 121
0.0088403542 -0.30896673 -0.68487084 54 133 120
0.0092000123 -0.30969545 -0.68476391 50 135 119
0.006288066 -0.30911294 -0.68489534 63 134 120
0.0058848094 -0.30914673 -0.68489593 63 135 119
0.0079081096 -0.30835727 -0.68497211 61 131 121
0.0072641266 -0.30702025 -0.68515116 51 137 116
0.0065967124 -0.30835041 -0.68498915 58 135 118
0.0079521853 -0.30683038 -0.68516707 51 135 117
0.010702502 -0.30880708 -0.68492258 42 136 118
-0.0059068408 -0.31251249 -0.68408507 45 136 119
-0.0023436123 -0.31102964 -0.68431687 63 138 119
-0.0043307194 -0.31302136 -0.68404484 49 137 120
-0.003981119 -0.31318477 -0.68403244 50 137 120
-0.0027647065 -0.31210479 -0.68418264 58 138 119
-0.0026406879 -0.31374577 -0.68399262 54 137 120
-0.0044189021 -0.31079692 -0.68432158 56 136 119
-0.0053299931 -0.31224349 -0.68412471 47 138 119
-0.0055412464 -0.31151316 -0.68421674 48 136 119
-0.005021737 -0.31133753 -0.68424511 52 136 120
0.0017031304 -0.3132593 -0.6841014 69 133 119
0.0014961486 -0.31360602 -0.68403351 68 133 119
0.0016626753 -0.31158051 -0.68443501 70 135 118
0.00061825506 -0.31364202 -0.68403029 65 134 119
-0.0003447521 -0.31303701 -0.68415475 63 136 119
-0.00096633716 -0.31226519 -0.68424469 63 137 119
-0.0019343203 -0.31325701 -0.68406451 59 136 121
-0.0019269881 -0.31071341 -0.68436325 65 138 120
-0.00077821536 -0.31220195 -0.68426454 63 137 119
0.0032226811 -0.31372458 -0.6840511 68 133 119
0.0030315504 -0.31271333 -0.68424541 69 135 118
0.0042607253 -0.3134397 -0.68414289 67 135 118
0.0026461224 -0.31290045 -0.68419516 69 135 118
0.0023042047 -0.31207949 -0.68434656 70 135 118
0.0052728504 -0.31146088 -0.68453658 69 134 120
0.0041466635 -0.31097874 -0.6846031 71 134 120
0.0034415172 -0.31092104 -0.68459964 70 135 119
0.0042828796 -0.31224391 -0.68437231 68 135 119
0.0057040486 -0.31148827 -0.68454021 69 133 121
0.0078422846 -0.31273752 -0.68428838 53 136 118
0.0079647191 -0.31337029 -0.68421662 52 137 119
0.008054914 -0.3127785 -0.68429238 52 136 119
0.0073273545 -0.3135564 -0.68416703 55 137 118
0.0070506744 -0.31272572 -0.68429017 59 136 119
0.0071558314 -0.31136152 -0.68453979 61 135 120
0.0079874136 -0.31182393 -0.68443716 54 136 119
0.0069003939 -0.31110603 -0.68459225 63 133 121
0.005937147 -0.31135088 -0.68456703 69 133 121
0 0 0 1 0 0 0 1 0 0 0 1 0 0 0 0 0 799 1 0 0
