ply
format ascii 1.0
comment PCL generated
element vertex 945
property float x
property float y
property float z
property uchar red
property uchar green
property uchar blue
element camera 1
property float view_px
property float view_py
property float view_pz
property float x_axisx
property float x_axisy
property float x_axisz
property float y_axisx
property float y_axisy
property float y_axisz
property float z_axisx
property float z_axisy
property float z_axisz
property float focal
property float scalex
property float scaley
property float centerx
property float centery
property int viewportx
property int viewporty
property float k1
property float k2
end_header
-0.099721588 0.3266179 -0.84005135 16 132 118
-0.10113145 0.32545587 -0.83819377 16 136 117
-0.10088464 0.32557252 -0.83851922 16 134 117
-0.099712662 0.32457134 -0.83987802 15 134 118
-0.099828385 0.32407168 -0.83967197 15 134 118
-0.10047789 0.32561684 -0.83903784 16 132 118
-0.10132367 0.32569835 -0.83798027 16 136 117
-0.099840283 0.32372016 -0.83961469 15 134 118
-0.10248422 0.32444483 -0.83643597 16 134 117
-0.10116746 0.32266581 -0.83788902 15 132 118
-0.10200545 0.32381296 -0.83696538 16 134 117
-0.10199951 0.32528859 -0.83707917 17 136 118
-0.10169421 0.32386288 -0.8373428 16 134 117
-0.10177252 0.32345471 -0.83721924 16 132 118
-0.1011119 0.32302687 -0.83798182 16 132 118
-0.099630684 0.32035223 -0.83955801 16 132 119
-0.099978223 0.32148024 -0.8392278 16 132 119
-0.1014697 0.32096422 -0.83739644 15 132 118
-0.10086977 0.3218706 -0.8381871 15 132 118
-0.099647671 0.31916794 -0.83944607 16 132 119
-0.10135122 0.32208583 -0.83762544 15 132 118
-0.10112633 0.32011381 -0.83773547 16 130 119
-0.10084487 0.31968069 -0.83803904 16 132 119
-0.10199704 0.31899375 -0.83655041 16 132 119
-0.10151012 0.32058561 -0.83730966 15 132 118
-0.10006899 0.31852639 -0.83887982 16 132 119
-0.099239267 0.32063317 -0.84017009 16 132 120
-0.10072433 0.31621724 -0.83785862 17 130 120
-0.10112859 0.31760514 -0.83748794 17 132 120
-0.10042061 0.31571484 -0.83818674 17 130 120
-0.099746682 0.31710801 -0.83914536 17 130 120
-0.10174271 0.31805047 -0.83677208 17 132 120
-0.10120787 0.31475705 -0.83709383 17 130 120
-0.10184469 0.31792173 -0.83663452 17 132 120
-0.10068452 0.31476253 -0.83775234 16 132 119
-0.10187627 0.31612706 -0.83640134 17 130 120
-0.099154748 0.31602645 -0.83986241 16 130 120
-0.099281751 0.31596628 -0.83967704 16 130 120
-0.099464245 0.3160097 -0.83942151 16 130 119
-0.1004109 0.31292513 -0.83785486 17 132 119
-0.10148873 0.31430322 -0.83668762 17 130 120
-0.10013016 0.31247717 -0.83814675 17 132 119
-0.1007535 0.31411961 -0.83758682 16 132 119
-0.10002287 0.31400475 -0.83848965 16 132 119
-0.10145377 0.31362185 -0.83663619 17 130 119
-0.10013435 0.31099841 -0.83793455 17 134 119
-0.10073651 0.31082687 -0.83714014 17 132 119
-0.10040415 0.31084085 -0.83756673 17 132 119
-0.09861403 0.31171292 -0.84011447 17 132 119
-0.099001341 0.31100911 -0.83946776 17 134 119
-0.09895698 0.31362081 -0.83988023 17 130 120
-0.099454872 0.31428456 -0.83926612 16 130 120
-0.098987311 0.31379184 -0.8398605 16 130 120
-0.10020058 0.31039187 -0.83775568 17 134 118
-0.099619076 0.30832806 -0.83812904 18 132 118
-0.099724159 0.30695525 -0.83774912 18 132 118
-0.099985473 0.30902648 -0.83778608 18 132 118
-0.099892475 0.30718142 -0.83757615 18 132 118
-0.10075479 0.30876848 -0.8367641 17 134 118
-0.098890655 0.30854496 -0.83920366 17 134 119
-0.098812774 0.30775362 -0.83916855 17 134 119
-0.09845116 0.30846494 -0.83980972 17 132 119
-0.098042838 0.30745062 -0.84020042 17 132 119
-0.09958747 0.31028903 -0.83852351 18 132 118
-0.099125803 0.31002635 -0.83913523 18 132 118
-0.099546328 0.30782908 -0.83814204 18 132 118
-0.099897563 0.3065207 -0.83745944 18 132 118
-0.099950053 0.30444551 -0.83701861 18 132 118
-0.099891052 0.30430946 -0.83706743 18 132 118
-0.10013852 0.30304858 -0.83651054 18 132 117
-0.09786395 0.30606234 -0.84019953 17 132 119
-0.099053517 0.30329821 -0.83801919 18 132 117
-0.099094711 0.30300337 -0.83790749 18 132 117
-0.098445132 0.30450645 -0.83909696 17 132 118
-0.098928675 0.30359551 -0.83824933 18 130 118
-0.098079421 0.30498832 -0.8397004 16 134 117
-0.099455811 0.30543035 -0.83783728 18 132 118
-0.098691843 0.30516595 -0.8388685 17 132 118
-0.098463647 0.30617553 -0.83937347 17 132 119
-0.098753914 0.30506396 -0.83876234 17 132 118
-0.099887215 0.3017883 -0.83655155 19 130 118
-0.099362828 0.30026233 -0.83690006 19 130 118
-0.099357247 0.30035064 -0.83692867 19 130 118
-0.098979786 0.30186096 -0.83781576 18 132 117
-0.099217437 0.30028358 -0.83711016 18 132 118
-0.099391334 0.29940405 -0.83666027 19 130 118
-0.098164484 0.29901659 -0.83836114 19 132 118
-0.097670175 0.30044997 -0.8393802 18 132 118
-0.097353913 0.29966664 -0.83967757 18 134 118
-0.098908879 0.29943737 -0.83736432 19 132 118
-0.097846039 0.30036598 -0.83910644 18 132 118
-0.097297288 0.29904363 -0.83963025 19 132 118
-0.097999349 0.30159971 -0.8391403 17 132 118
-0.098016746 0.29625055 -0.83779615 20 133 120
-0.097656481 0.29665136 -0.83843142 20 133 120
-0.096911192 0.29856628 -0.84007096 20 132 119
-0.096297026 0.29593962 -0.84016258 19 134 120
-0.0974181 0.29643422 -0.83870733 20 133 120
-0.097866483 0.29629371 -0.83802396 20 133 120
-0.096200421 0.2951695 -0.84007007 19 132 121
-0.098288484 0.29803067 -0.83791274 19 132 118
-0.097563446 0.29755872 -0.83883387 20 132 119
-0.098789893 0.29816642 -0.83722121 19 132 118
-0.098775357 0.29562247 -0.83651358 20 133 120
-0.098623738 0.29827547 -0.83749443 19 132 118
-0.098196834 0.29643288 -0.83758861 20 133 120
-0.095740385 0.29201105 -0.83967972 18 132 120
-0.096011333 0.29128712 -0.83907837 19 130 121
-0.096820399 0.29225847 -0.83831394 19 132 121
-0.096355379 0.29239485 -0.83897996 18 132 120
-0.097085521 0.29185548 -0.83782816 19 132 120
-0.096595243 0.29286996 -0.83881438 18 134 120
-0.09656895 0.29232344 -0.83867121 18 132 120
-0.098127492 0.29284355 -0.83665991 19 132 120
-0.096816368 0.29454488 -0.83900982 19 132 121
-0.097852767 0.29234946 -0.83691496 19 132 120
-0.097417817 0.29270282 -0.83763564 19 132 120
-0.098328866 0.29282066 -0.83636552 19 132 120
-0.098154068 0.29222915 -0.83645046 19 132 120
-0.096311837 0.29452837 -0.83972681 19 132 121
-0.095653139 0.29281023 -0.84007025 18 132 120
-0.09576612 0.29056394 -0.83918566 19 130 121
-0.096849531 0.29099923 -0.83786476 19 132 120
-0.09768904 0.29089686 -0.83671284 19 132 120
-0.097679898 0.29069453 -0.83666599 20 132 120
-0.097675003 0.29084891 -0.83671761 20 130 121
-0.095302939 0.29074162 -0.83990788 18 130 120
-0.095584787 0.28906137 -0.83900434 20 132 119
-0.096493788 0.3305639 -0.84545046 21 133 120
-0.096351266 0.33055437 -0.84570497 21 133 120
-0.095482394 0.33082417 -0.84746557 21 133 120
-0.095895484 0.32715663 -0.84649557 16 132 121
-0.095988065 0.32778522 -0.84632808 17 132 120
-0.096678659 0.32968086 -0.84508628 19 134 120
-0.095887199 0.3274903 -0.84650946 16 132 121
-0.096903369 0.32780626 -0.84469521 17 132 120
-0.096890099 0.32917035 -0.84470952 19 132 120
-0.096548453 0.32638386 -0.84533668 15 132 120
-0.096538454 0.32740685 -0.84534746 16 132 120
-0.096609384 0.32684791 -0.84522504 15 132 120
-0.095651351 0.32647768 -0.84696877 15 132 121
-0.095239133 0.32881889 -0.84796625 17 132 120
-0.095671423 0.32923615 -0.84691721 18 132 120
-0.095836222 0.32555413 -0.84651333 15 130 121
-0.09639366 0.32409808 -0.84530306 16 130 120
-0.096559271 0.32529831 -0.84518802 15 132 120
-0.096306905 0.32403842 -0.84544849 16 130 120
-0.096870258 0.32367039 -0.84441221 16 130 120
-0.096321769 0.32285935 -0.84525895 17 130 120
-0.097008005 0.32385027 -0.84419632 16 130 120
-0.096355587 0.32240066 -0.84513742 17 130 120
-0.094891511 0.3229183 -0.84797621 16 130 121
-0.095221221 0.32412812 -0.84751177 16 130 121
-0.095115937 0.32248223 -0.84746051 16 132 120
-0.095267504 0.32593226 -0.84769887 15 132 121
-0.095629446 0.32384109 -0.84664452 16 130 121
-0.095724128 0.32220486 -0.84621119 17 130 120
-0.095932059 0.31930608 -0.84537721 16 130 121
-0.096099205 0.32165593 -0.84546739 17 130 120
-0.096363135 0.32205337 -0.84507138 17 130 120
-0.096424237 0.32030863 -0.84469151 16 130 121
-0.096340925 0.31868663 -0.84461087 16 130 121
-0.096656278 0.32059681 -0.84434611 17 130 120
-0.094926246 0.31924659 -0.84723794 15 130 121
-0.094586678 0.31848863 -0.84772313 15 130 121
-0.094603539 0.31893203 -0.84777725 15 130 121
-0.09498091 0.31841922 -0.84697694 15 130 121
-0.095644504 0.31925404 -0.84588486 16 130 121
-0.095442906 0.32197094 -0.84672761 17 130 120
-0.095474623 0.31941769 -0.84624958 16 130 121
-0.096124932 0.31668949 -0.84458286 16 130 121
-0.096212111 0.31777939 -0.84466147 16 130 121
-0.096505053 0.31761622 -0.84415203 16 130 121
-0.094263799 0.31519502 -0.84796268 15 130 121
-0.094718404 0.31506345 -0.84698331 15 130 121
-0.094452322 0.31743559 -0.84782565 15 130 121
-0.095037378 0.31623825 -0.84644473 15 130 121
-0.094548427 0.31770712 -0.84765375 15 130 121
-0.095230862 0.31707212 -0.84623742 15 130 121
-0.094693646 0.31799132 -0.84742409 15 130 121
-0.09496893 0.31690294 -0.8466897 15 130 121
-0.095365532 0.31712705 -0.84599835 15 132 120
-0.095773585 0.31353047 -0.84455413 15 132 120
-0.095250346 0.31106552 -0.84515518 15 132 121
-0.094194241 0.3143813 -0.84800822 14 134 120
-0.094251119 0.31062031 -0.84702647 15 132 121
-0.09427844 0.3136991 -0.84768414 14 132 121
-0.094285205 0.31138065 -0.84713489 15 132 121
-0.094275698 0.31386027 -0.84772688 14 134 120
-0.09546262 0.31404424 -0.84526223 15 132 120
-0.095189907 0.31259903 -0.84558779 14 134 120
-0.095202081 0.31333855 -0.84569132 15 132 120
-0.095503561 0.31440333 -0.84523821 15 132 120
-0.095675819 0.31408551 -0.8448174 15 132 120
-0.095156088 0.30778643 -0.84474415 15 132 120
-0.095171832 0.30963397 -0.84503305 15 132 120
-0.095329501 0.30746689 -0.84434628 15 132 120
-0.094973333 0.30912811 -0.84533751 15 132 120
-0.095389329 0.30993316 -0.84465528 15 132 120
-0.094473124 0.30901203 -0.84630543 14 134 120
-0.093646556 0.30916518 -0.84797555 14 134 120
-0.094313808 0.30819994 -0.84648603 15 132 120
-0.094269454 0.30671245 -0.84632707 15 132 119
-0.094949566 0.30706793 -0.8450315 15 132 120
-0.093727142 0.30990684 -0.84793836 14 132 121
-0.093671538 0.30723456 -0.84760481 15 132 119
-0.093719892 0.30554163 -0.84714985 17 132 120
-0.093594156 0.30352205 -0.84695524 20 132 121
-0.093556061 0.30462381 -0.84727877 18 132 120
-0.093712918 0.30473652 -0.84698433 18 132 120
-0.093670145 0.30338371 -0.84676951 20 132 121
-0.094492763 0.30373025 -0.84517074 18 132 119
-0.094623782 0.3039504 -0.844962 18 132 119
-0.093894668 0.30657285 -0.8470453 15 132 119
-0.094487235 0.30583474 -0.84568739 16 132 119
-0.095031194 0.30550444 -0.84452444 16 132 120
-0.094694048 0.30638996 -0.84540904 15 132 119
-0.094283588 0.30585429 -0.84609777 16 132 119
-0.093436614 0.29954845 -0.846093 19 134 122
-0.093363315 0.29987407 -0.84634113 19 134 122
-0.092725292 0.30074912 -0.847835 20 132 122
-0.092550382 0.30037493 -0.84803581 19 132 122
-0.093055956 0.29960939 -0.84682751 19 132 122
-0.093048014 0.29961115 -0.84684306 19 132 122
-0.094101101 0.29983974 -0.84492809 21 133 123
-0.094252877 0.29952386 -0.84452951 21 133 123
-0.093247436 0.3023895 -0.84738845 21 132 122
-0.094191417 0.3025251 -0.84550333 20 133 121
-0.094610326 0.30128536 -0.84429926 20 133 121
-0.092075661 0.29768747 -0.84795588 16 132 121
-0.092576705 0.29615226 -0.84632105 15 130 122
-0.093078643 0.29544044 -0.84504592 15 130 122
-0.09198311 0.29502353 -0.84700674 15 128 122
-0.092196904 0.29616183 -0.84706509 15 130 122
-0.092126012 0.29641137 -0.84730738 15 130 122
-0.093162641 0.29628974 -0.84524691 15 132 122
-0.093247838 0.29557389 -0.8447727 15 130 122
-0.09340407 0.29542708 -0.84441525 15 130 122
-0.093466282 0.29654065 -0.84478772 16 132 121
-0.094044171 0.29766402 -0.84419757 18 134 122
-0.09328673 0.29833224 -0.84591144 18 134 122
-0.091605723 0.29535022 -0.84804493 15 128 122
-0.092415296 0.29354268 -0.8455081 16 130 121
-0.092306942 0.29237387 -0.84519887 17 130 120
-0.09293782 0.29410338 -0.84473956 15 132 121
-0.093154795 0.2944476 -0.84446996 15 130 122
-0.09322802 0.29484835 -0.84450573 15 130 122
-0.09288688 0.29355049 -0.84459448 16 130 121
-0.092732303 0.29184273 -0.84417152 17 130 120
-0.09323325 0.29422548 -0.84422421 15 132 121
-0.091350444 0.29297701 -0.84772462 18 130 120
-0.091505796 0.29255086 -0.84709281 18 130 120
-0.091688961 0.29426709 -0.84733009 15 130 121
-0.091914713 0.29075843 -0.84529084 19 132 118
-0.09184403 0.29030409 -0.84529114 20 132 119
-0.091737658 0.29064786 -0.84565079 19 132 118
-0.10849421 0.32931781 -0.82976967 20 135 118
-0.10844134 0.32950127 -0.82982421 20 135 118
-0.10887327 0.32858044 -0.82939535 20 135 117
-0.10777245 0.32705015 -0.83037823 19 135 117
-0.10866927 0.32765391 -0.8295331 20 135 117
-0.10873559 0.32783741 -0.82948041 20 135 117
-0.1070541 0.32868493 -0.83117133 21 135 118
-0.10725047 0.32835996 -0.83093798 20 135 118
-0.10801622 0.32617095 -0.83007771 19 135 117
-0.10765459 0.32556087 -0.83043611 19 134 118
-0.10799864 0.32496578 -0.8300795 19 134 118
-0.10786893 0.32285842 -0.83017617 18 132 119
-0.10880267 0.32331067 -0.82919866 19 134 118
-0.10898829 0.32436085 -0.82904553 19 135 117
-0.1088245 0.32362458 -0.82918882 19 135 118
-0.10669142 0.32257226 -0.83150333 17 132 120
-0.10673711 0.32399973 -0.83144504 18 134 118
-0.10620949 0.3231329 -0.83207989 16 134 118
-0.10635282 0.32317069 -0.83190793 16 134 118
-0.10681201 0.32546601 -0.83137709 18 136 117
-0.10601617 0.32604033 -0.83230656 19 135 117
-0.1072443 0.32500908 -0.83087033 18 136 118
-0.10812357 0.32009715 -0.82967407 18 130 119
-0.10926711 0.32224783 -0.8286562 19 132 118
-0.10786036 0.32173246 -0.83010954 17 134 119
-0.10776869 0.31946281 -0.82999313 17 130 120
-0.10900047 0.31842068 -0.82862812 17 132 118
-0.10936559 0.3221502 -0.82854259 19 132 118
-0.10850187 0.31874281 -0.82917011 17 132 118
-0.1087507 0.31898767 -0.82893151 17 132 118
-0.10692593 0.31953815 -0.83096081 16 132 119
-0.10683091 0.31870893 -0.83095491 16 132 119
-0.10578553 0.31929857 -0.83218169 15 134 118
-0.10649673 0.32070032 -0.83158684 16 132 119
-0.10730539 0.31978005 -0.83053303 17 130 120
-0.10725652 0.32177651 -0.83078021 17 132 120
-0.10737537 0.31927589 -0.83040154 16 132 119
-0.10827197 0.31749934 -0.82926887 17 130 119
-0.10758273 0.31642568 -0.82984644 16 132 119
-0.10842469 0.31764182 -0.82912868 17 130 119
-0.10751652 0.31472585 -0.82969874 17 130 119
-0.10866155 0.31717184 -0.82882768 17 132 118
-0.10867468 0.31540522 -0.82863736 17 130 118
-0.10830351 0.31579202 -0.82903785 17 130 119
-0.10569286 0.31636667 -0.83190519 16 132 119
-0.10643692 0.31584281 -0.83102101 16 132 119
-0.1056625 0.3147181 -0.83172894 17 132 120
-0.10607121 0.31562901 -0.83139569 16 132 119
-0.1064336 0.31496826 -0.83091348 16 132 119
-0.10663452 0.31665626 -0.8309074 16 132 119
-0.10731709 0.31509772 -0.82995927 17 130 120
-0.10723934 0.31486672 -0.8300153 16 132 119
-0.10645637 0.31680003 -0.83112144 16 132 119
-0.10751408 0.31115541 -0.82930923 17 132 116
-0.10777892 0.31430367 -0.82939786 17 130 119
-0.10766795 0.31428921 -0.82950431 17 130 119
-0.10843826 0.31264415 -0.82858866 17 132 118
-0.10823191 0.31158486 -0.8286798 17 132 116
-0.10520166 0.31214941 -0.83191037 17 132 119
-0.10519363 0.31319335 -0.83205366 17 134 119
-0.10616385 0.31063193 -0.83068681 17 132 118
-0.10497681 0.31388542 -0.83237457 17 132 120
-0.10570908 0.3128607 -0.83146018 17 132 119
-0.10557697 0.31333661 -0.83166271 17 134 119
-0.10651695 0.31433514 -0.83074337 17 132 120
-0.10612108 0.31405941 -0.83114803 17 132 120
-0.10585886 0.31378129 -0.83140546 17 132 119
-0.10702374 0.31231049 -0.82996368 17 132 118
-0.10608713 0.3130399 -0.83107311 17 132 119
-0.10751741 0.31035432 -0.82922918 18 134 116
-0.10782433 0.30959463 -0.82888764 18 134 116
-0.10784035 0.308245 -0.82876927 18 134 116
-0.10481431 0.30998403 -0.83206558 18 132 118
-0.10693766 0.30709672 -0.82957923 18 134 116
-0.10639222 0.30725396 -0.83014315 18 134 116
-0.104525 0.3083207 -0.83214128 18 132 118
-0.10535571 0.30823693 -0.83130234 18 132 117
-0.10428923 0.30752218 -0.83227426 18 132 117
-0.10494949 0.30918041 -0.831828 18 132 118
-0.10646196 0.30921686 -0.8302573 18 132 117
-0.10590511 0.30882266 -0.83082241 18 132 118
-0.10719457 0.30817163 -0.82939619 18 134 116
-0.10738511 0.30967918 -0.82930607 18 134 116
-0.10713577 0.30805308 -0.82945001 18 134 116
-0.10558707 0.30923283 -0.83119303 18 132 118
-0.10510215 0.3063584 -0.83129632 18 132 116
-0.10665796 0.3057124 -0.82961994 19 130 117
-0.10465027 0.30621523 -0.8317191 19 130 117
-0.10507769 0.30650124 -0.83134836 18 132 116
-0.10712041 0.30629024 -0.82927078 18 132 116
-0.10432521 0.30423617 -0.83165759 19 130 117
-0.10494661 0.30414492 -0.83102077 18 132 117
-0.10500681 0.30453077 -0.83103597 19 130 117
-0.10454698 0.30595556 -0.83177149 18 132 116
-0.10717617 0.3040038 -0.82877219 18 132 116
-0.10646232 0.30306488 -0.82929969 19 130 117
-0.10666723 0.30378097 -0.82923567 19 130 118
-0.10629565 0.30338603 -0.82952857 19 130 117
-0.10353843 0.30395922 -0.83238733 19 132 117
-0.10360908 0.30365789 -0.83225781 19 132 117
-0.10406064 0.30301693 -0.83168215 19 132 117
-0.10583934 0.30243656 -0.82979804 19 130 117
-0.10675309 0.30270249 -0.82893914 19 130 117
-0.10435463 0.30081314 -0.83096498 19 134 117
-0.10373767 0.30036381 -0.83149314 19 134 117
-0.10414082 0.30064648 -0.83114594 19 134 117
-0.10356244 0.29975638 -0.83155096 20 132 118
-0.10352226 0.30103865 -0.83183724 19 134 117
-0.10631865 0.30035356 -0.82886219 19 132 117
-0.10615345 0.30161038 -0.82932556 18 134 116
-0.10425431 0.29896641 -0.8306843 20 132 118
-0.10568447 0.29959401 -0.82934457 19 134 117
-0.10559779 0.29951119 -0.82941538 19 132 117
-0.1034053 0.2988559 -0.83156276 19 134 118
-0.10324743 0.30205351 -0.8323704 18 132 117
-0.10351998 0.29532263 -0.83060271 20 133 118
-0.10518847 0.29828715 -0.82955658 20 132 118
-0.10468967 0.29762325 -0.82992083 20 132 118
-0.10484999 0.29790646 -0.82981992 20 132 118
-0.10429545 0.29734907 -0.83026677 20 133 118
-0.10576534 0.2968615 -0.82866639 20 133 118
-0.10402287 0.29527044 -0.83008003 20 133 118
-0.10607979 0.29816908 -0.82861441 20 132 118
-0.10341154 0.29539859 -0.83075428 20 133 118
-0.10244457 0.29613397 -0.83203584 20 132 118
-0.10257241 0.29721996 -0.83216977 20 132 118
-0.10258394 0.29783016 -0.83231318 19 134 117
-0.10284125 0.29832718 -0.83214682 20 132 118
-0.10347208 0.29535663 -0.83066964 19 134 117
-0.10421944 0.29339701 -0.8294161 20 133 118
-0.10415957 0.29334143 -0.82946098 20 133 118
-0.10403025 0.29380232 -0.82971007 20 133 118
-0.10374966 0.29409215 -0.83006459 20 133 118
-0.10409492 0.29145336 -0.829005 20 132 119
-0.10394261 0.29106656 -0.82905155 20 132 119
-0.10189737 0.2932899 -0.83193231 19 132 118
-0.10147444 0.29319161 -0.83239645 19 132 118
-0.10192502 0.29364884 -0.83199042 19 134 118
-0.10188373 0.29454836 -0.83226383 19 134 118
-0.10184044 0.29268375 -0.831846 19 132 118
-0.10288779 0.29392254 -0.8309623 20 132 118
-0.10348194 0.29126036 -0.82959354 20 132 119
-0.10333638 0.29397526 -0.83046907 20 133 118
-0.10229112 0.29482141 -0.83187217 20 132 118
-0.10373268 0.28949404 -0.82892007 20 133 118
-0.1036741 0.29077947 -0.82926965 20 132 119
-0.10203177 0.28766268 -0.83040166 20 133 118
-0.10106226 0.2873435 -0.83139288 20 132 118
-0.10109139 0.2897788 -0.83198273 19 134 119
-0.10155558 0.28759834 -0.83091211 20 133 118
-0.10114519 0.28740799 -0.8313176 20 132 118
-0.10107386 0.28861097 -0.83170378 20 132 119
-0.10288306 0.28793177 -0.82952851 20 133 118
-0.10293856 0.28915793 -0.82974321 20 132 119
-0.10344899 0.28868446 -0.82904744 20 133 118
-0.1031853 0.29037276 -0.8297295 20 132 119
-0.10350659 0.28717545 -0.82864368 20 133 118
-0.10257148 0.29073825 -0.83052063 20 132 119
-0.10279629 0.29085919 -0.83028775 20 132 119
-0.11527954 0.31351402 -0.82186097 21 132 118
-0.11558671 0.31241038 -0.82145596 21 133 116
-0.11420684 0.31073472 -0.82264811 20 133 116
-0.11376769 0.31195441 -0.82319361 20 133 116
-0.11358345 0.31146866 -0.82333642 20 133 116
-0.11254277 0.31058529 -0.82430369 20 133 116
-0.11351166 0.31128788 -0.82339281 20 133 116
-0.11270037 0.31149939 -0.82422453 20 133 116
-0.11419939 0.31299785 -0.82286537 20 133 117
-0.11479662 0.3124651 -0.82222593 21 132 117
-0.11381792 0.31296772 -0.82323605 20 133 117
-0.11363377 0.31361824 -0.82348275 20 133 117
-0.11507127 0.31254941 -0.82196546 20 133 117
-0.11561946 0.31027481 -0.82121634 20 133 115
-0.11347698 0.31021535 -0.8233273 20 133 115
-0.11113136 0.30109274 -0.82420838 21 133 116
-0.10420746 0.32632536 -0.83444941 18 137 116
-0.10588191 0.32634854 -0.83246875 19 137 116
-0.10564841 0.32576266 -0.83272713 18 137 116
-0.10491723 0.325596 -0.83358663 18 136 116
-0.10397501 0.32352811 -0.83463156 16 134 117
-0.10541669 0.32567924 -0.83299851 18 136 116
-0.10380456 0.32388014 -0.83484513 16 136 117
-0.10501401 0.32317221 -0.83344543 15 136 117
-0.10568108 0.32309371 -0.83269548 16 134 117
-0.10585036 0.32251391 -0.83250648 16 134 118
-0.10494959 0.32316202 -0.83351791 15 136 117
-0.10523889 0.32405165 -0.83319056 16 136 117
-0.10342243 0.32258731 -0.83525783 15 134 117
-0.1026153 0.32379973 -0.83623886 15 134 117
-0.10289004 0.32575762 -0.83604479 17 137 116
-0.1032423 0.32570747 -0.83559585 17 137 116
-0.10420631 0.32119471 -0.83422279 15 134 118
-0.10382643 0.32009014 -0.83451283 16 132 119
-0.10483669 0.32054451 -0.83343327 16 134 119
-0.10375424 0.31905559 -0.83446556 16 134 119
-0.1040045 0.32072711 -0.83439165 15 134 117
-0.10532904 0.32032555 -0.83283788 16 132 119
-0.10488262 0.31877756 -0.83313543 16 132 119
-0.10466494 0.3199248 -0.83354497 16 134 119
-0.10516264 0.31944484 -0.83290654 16 132 119
-0.10230052 0.31882766 -0.83616298 17 132 120
-0.10285519 0.31883508 -0.83549291 17 132 120
-0.103095 0.31925613 -0.83524418 16 132 119
-0.10317455 0.32036665 -0.83527678 15 134 118
-0.10283316 0.32205147 -0.83586651 14 134 117
-0.10341259 0.32173371 -0.83518118 15 132 118
-0.10403864 0.31746617 -0.83393419 16 132 119
-0.10438732 0.31750834 -0.83353901 16 132 119
-0.10427432 0.31648931 -0.83354044 16 132 119
-0.10481413 0.31759995 -0.83306026 16 132 119
-0.10503432 0.31603575 -0.8325969 16 132 119
-0.10514514 0.31589428 -0.83244842 16 132 120
-0.10505632 0.31572384 -0.83252907 16 132 119
-0.10237791 0.31684625 -0.83584726 17 132 120
-0.10209886 0.31648678 -0.83615994 17 132 120
-0.10249846 0.31524014 -0.83552188 17 130 120
-0.1027087 0.31478536 -0.83520788 17 130 120
-0.10304739 0.31589109 -0.83490288 16 132 119
-0.10305628 0.31788608 -0.83514345 17 132 120
-0.10224812 0.31822297 -0.83616322 17 132 120
-0.10396265 0.31389481 -0.83354461 17 132 120
-0.10371214 0.3129032 -0.83367848 17 130 120
-0.10376167 0.31420344 -0.83382845 17 132 120
-0.10456266 0.31110847 -0.83245945 17 132 119
-0.10407695 0.31129673 -0.8330161 17 132 119
-0.10214381 0.31077868 -0.83532923 17 130 119
-0.10202953 0.31166878 -0.83560818 17 130 119
-0.10277168 0.31080192 -0.83452559 17 130 119
-0.1020776 0.31291738 -0.83573174 17 130 119
-0.10208574 0.31289074 -0.83571732 17 130 119
-0.10310372 0.31444746 -0.83467346 17 130 120
-0.10335096 0.31202468 -0.83397502 17 130 120
-0.10287092 0.31243178 -0.83464473 17 130 120
-0.10298888 0.31414476 -0.83476979 17 130 120
-0.10403706 0.30957949 -0.83282286 18 132 118
-0.1038159 0.30888885 -0.83296669 18 130 118
-0.10407179 0.30748147 -0.83249116 18 132 117
-0.10139297 0.30907616 -0.83602041 17 132 118
-0.10288028 0.30712548 -0.83384669 18 132 117
-0.10124096 0.30930468 -0.83624732 17 132 118
-0.10155973 0.30995125 -0.83595639 17 132 118
-0.10211655 0.30745819 -0.83485299 18 132 118
-0.10212427 0.30704349 -0.83477521 18 132 118
-0.10291119 0.3079775 -0.83394265 18 130 118
-0.10257393 0.30855095 -0.83445781 18 130 118
-0.10309416 0.30844563 -0.83377409 18 130 118
-0.10235876 0.30946666 -0.83486474 17 132 118
-0.10356133 0.30648154 -0.83289236 18 132 116
-0.10174702 0.30630058 -0.83510733 18 132 118
-0.10251997 0.30634376 -0.83415329 18 132 118
-0.10306244 0.30557364 -0.83331478 18 132 117
-0.10169867 0.30603498 -0.83511144 18 132 118
-0.10316994 0.30380112 -0.83281231 18 132 117
-0.10187747 0.30537027 -0.83475089 18 132 118
-0.10130314 0.30512452 -0.83542919 18 132 118
-0.10099151 0.30327168 -0.83546782 18 132 118
-0.10167902 0.30476186 -0.83488232 18 132 118
-0.10227659 0.30355743 -0.83389199 18 132 118
-0.10108234 0.30413514 -0.83551878 18 132 118
-0.10079712 0.30463475 -0.83597696 18 132 118
-0.10152136 0.30393347 -0.83492285 18 132 118
-0.1005579 0.30140415 -0.83563381 19 130 118
-0.10239564 0.29931897 -0.83292079 19 132 118
-0.099909112 0.29940182 -0.83598387 19 130 118
-0.10248546 0.29899272 -0.83273846 19 132 118
-0.10096772 0.29901677 -0.83460218 19 132 118
-0.1013933 0.29990736 -0.8342787 19 132 118
-0.10179713 0.30211914 -0.83422279 19 130 118
-0.10065705 0.30252427 -0.83574802 19 130 118
-0.10179815 0.30100936 -0.83400661 19 132 118
-0.10305713 0.30170044 -0.83254278 19 130 118
-0.10160749 0.30261141 -0.83455878 19 130 118
-0.10193899 0.30187741 -0.833996 19 130 118
-0.1018907 0.3020744 -0.83409542 19 130 118
-0.10003943 0.29611927 -0.83493072 20 132 119
-0.10134977 0.29809576 -0.83388531 19 132 118
-0.10034817 0.29664099 -0.83470023 20 132 119
-0.10087829 0.2978164 -0.83438361 19 132 118
-0.099811874 0.29747286 -0.83559227 20 130 119
-0.099866085 0.29687795 -0.83535755 20 130 119
-0.10127011 0.29730684 -0.83375967 19 134 118
-0.10079414 0.29619482 -0.8340295 20 132 119
-0.10059985 0.29492864 -0.83391654 20 132 119
-0.10201253 0.29774576 -0.83297622 19 134 118
-0.10241411 0.29800984 -0.83256096 19 134 118
-0.10209957 0.29670906 -0.83258462 19 134 118
-0.099490084 0.29655528 -0.83574939 20 132 120
-0.09935119 0.29770076 -0.83627099 20 130 120
-0.098866366 0.29531637 -0.83629388 21 132 121
-0.10013323 0.29273376 -0.83389753 20 132 119
-0.099657051 0.29390487 -0.83478898 20 132 119
-0.10112885 0.29374737 -0.8329581 19 134 118
-0.10048967 0.29458609 -0.83395892 20 132 119
-0.10085565 0.29320651 -0.83314574 19 134 118
-0.1001766 0.29172683 -0.83357739 20 132 119
-0.1013466 0.29405579 -0.83277589 19 134 118
-0.099326499 0.29229456 -0.83482188 21 132 121
-0.098471738 0.29134816 -0.83576161 20 132 120
-0.098937534 0.29352137 -0.83570296 21 132 121
-0.098866194 0.29492119 -0.83618283 21 132 121
-0.098985389 0.29469797 -0.83595246 21 132 121
-0.099660717 0.28775549 -0.83308893 20 132 118
-0.09989474 0.29069901 -0.83364135 19 134 119
-0.099775374 0.29055792 -0.83374536 20 132 119
-0.099992618 0.28742373 -0.83260602 20 132 118
-0.098530039 0.28935632 -0.83511281 20 132 119
-0.099371843 0.28737774 -0.83337229 20 132 118
-0.09824235 0.29021659 -0.83576256 20 132 120
-0.099456489 0.28744015 -0.8332752 20 132 118
-0.099155121 0.28874376 -0.83406806 20 132 119
-0.09917704 0.29054186 -0.83454722 20 132 120
-0.099238336 0.29068011 -0.83450049 20 132 120
-0.098584868 0.29026303 -0.83529854 20 132 120
-0.094512515 0.33104938 -0.85037959 20 132 119
-0.094634846 0.33012393 -0.8498348 17 132 119
-0.094818324 0.33095923 -0.84946275 20 133 119
-0.09426754 0.32632503 -0.85019743 15 132 121
-0.094702639 0.32725015 -0.84932488 15 132 120
-0.094543017 0.32625219 -0.84949309 15 132 121
-0.094004981 0.32680154 -0.85096264 15 132 120
-0.093732417 0.3275823 -0.85182303 15 132 119
-0.094119892 0.33006793 -0.85133815 16 132 119
-0.09502124 0.32815972 -0.84850955 16 132 120
-0.095114112 0.32736817 -0.84816211 16 132 121
-0.095034227 0.32794842 -0.8484515 16 132 121
-0.095018975 0.32685524 -0.8483935 16 130 121
-0.094921157 0.32681966 -0.84867764 16 130 121
-0.093503453 0.32262456 -0.85136235 14 132 121
-0.09347903 0.32267982 -0.85143429 14 132 121
-0.093796887 0.32440853 -0.85098588 15 132 121
-0.093942419 0.32432017 -0.85060525 15 132 120
-0.09428256 0.32257709 -0.84940958 15 132 120
-0.093681321 0.32284251 -0.85096216 14 132 120
-0.09431757 0.32382479 -0.84957081 15 132 120
-0.094110325 0.3252975 -0.85038072 15 132 120
-0.094638884 0.32345206 -0.8486948 15 132 120
-0.094882496 0.32594517 -0.84858221 15 132 121
-0.09390761 0.32603791 -0.85103381 15 132 121
-0.094552271 0.32519385 -0.84925711 15 132 121
-0.09360636 0.32001778 -0.85037172 14 130 121
-0.094343491 0.31839859 -0.84818387 14 130 121
-0.093434051 0.32123682 -0.85116816 14 130 121
-0.093352877 0.31988221 -0.85088921 14 130 121
-0.093998313 0.31899258 -0.84915268 14 130 121
-0.093825124 0.31953004 -0.84971994 14 130 121
-0.094398826 0.31836015 -0.84804773 14 132 120
-0.094001412 0.32169834 -0.84990209 14 132 120
-0.094498992 0.31945127 -0.84808004 15 130 121
-0.094140045 0.32006022 -0.84913278 14 132 120
-0.093951136 0.32042065 -0.84969717 14 132 121
-0.094448678 0.32208636 -0.84888685 15 132 120
-0.092772402 0.31488022 -0.85147822 14 130 122
-0.093467437 0.31446674 -0.84977829 14 132 121
-0.092997991 0.31653532 -0.85100847 14 130 121
-0.092957981 0.31648669 -0.85110301 14 130 121
-0.093731947 0.31498981 -0.84916252 14 132 121
-0.092902675 0.31644088 -0.85123467 14 130 121
-0.09403313 0.31593272 -0.84856212 14 132 121
-0.093565814 0.31604061 -0.84961426 14 132 121
-0.093010135 0.31749699 -0.85102862 14 130 121
-0.094061509 0.31507161 -0.84839314 14 132 121
-0.092699222 0.31833804 -0.85182321 14 130 121
-0.093625605 0.31669733 -0.84956211 14 132 121
-0.093552493 0.31059167 -0.84849119 14 132 121
-0.093136825 0.31182423 -0.84984899 14 132 121
-0.092568979 0.31444135 -0.85194755 14 130 122
-0.092600696 0.31188583 -0.85120147 14 132 121
-0.092854932 0.31076247 -0.85027456 14 132 120
-0.093363166 0.31278631 -0.84955823 14 132 121
-0.093615294 0.31361258 -0.84918225 14 132 121
-0.093276918 0.31355682 -0.84998482 14 132 121
-0.094098099 0.31429568 -0.84820783 14 132 121
-0.093461208 0.31166771 -0.84900463 14 132 121
-0.091868088 0.3086077 -0.85194212 17 130 120
-0.092531651 0.3090938 -0.85068578 14 134 118
-0.092514321 0.3066754 -0.84990788 17 132 120
-0.092581227 0.30899674 -0.85054958 14 134 118
-0.0922838 0.30886632 -0.85112667 15 132 119
-0.092241377 0.30791935 -0.85089654 16 132 119
-0.093412347 0.30684656 -0.848059 15 132 119
-0.093066134 0.30839515 -0.84924418 14 134 118
-0.093212388 0.30827799 -0.84885526 15 132 120
-0.093278937 0.30995569 -0.84903836 14 134 120
-0.092822157 0.30934063 -0.85004902 14 132 119
-0.092540205 0.30991739 -0.85087186 14 132 119
-0.091850743 0.30297568 -0.85047126 19 132 122
-0.092655681 0.30657196 -0.84958583 17 130 120
-0.092134736 0.30565509 -0.85047078 18 132 120
-0.092227273 0.30425835 -0.84996873 18 132 121
-0.092743926 0.30634776 -0.84935206 17 132 120
-0.092207529 0.30315304 -0.84975952 19 132 122
-0.093156017 0.30601719 -0.84841818 16 132 120
-0.092737295 0.30456316 -0.84896648 18 130 121
-0.092345417 0.30313244 -0.84946334 20 132 122
-0.091389298 0.30382404 -0.85190231 19 130 122
-0.091540538 0.3042343 -0.85158825 19 130 122
-0.091708012 0.30483073 -0.85127163 19 130 122
-0.092024975 0.30112123 -0.84947354 18 132 122
-0.092185907 0.30113482 -0.84913832 19 130 122
-0.092209637 0.30077162 -0.84895873 18 132 122
-0.092608057 0.30177262 -0.84847355 20 132 122
-0.092306279 0.30027238 -0.84855986 18 132 122
-0.092636339 0.30127871 -0.84821492 20 132 122
-0.091190137 0.29932687 -0.85098398 16 132 123
-0.091482602 0.29989302 -0.85037905 17 130 122
-0.091585115 0.29995871 -0.85012013 17 132 122
-0.091420189 0.30088124 -0.85089958 17 132 122
-0.091654733 0.30183205 -0.85059643 19 130 122
-0.091401182 0.30202213 -0.85135537 18 130 122
-0.091849737 0.29866698 -0.8489396 16 132 121
-0.091642648 0.29793385 -0.849145 16 130 123
-0.091516763 0.29879281 -0.84989274 16 132 123
-0.091604225 0.29558685 -0.84815878 15 130 122
-0.090996847 0.29777929 -0.85085171 16 130 123
-0.091079332 0.29728708 -0.8503958 15 130 123
-0.091159754 0.2958436 -0.84952098 15 130 121
-0.090594992 0.2972655 -0.85176355 16 130 121
-0.090549693 0.29678988 -0.85167974 16 130 121
-0.090462513 0.29683846 -0.85194945 16 130 121
-0.090921424 0.29637673 -0.8504374 16 130 121
-0.090714335 0.29683128 -0.85122985 16 130 121
-0.090365604 0.29233742 -0.85016131 20 132 120
-0.089899562 0.29317528 -0.85175979 19 132 120
-0.089997374 0.29300648 -0.85142773 19 132 120
-0.090008244 0.29263189 -0.85121632 21 132 121
-0.090897344 0.2943019 -0.84958804 16 130 120
-0.091454744 0.29451016 -0.84809208 15 130 121
-0.090447545 0.29442328 -0.85091996 16 132 119
-0.090763144 0.2928375 -0.84933841 19 132 119
-0.090795696 0.29415733 -0.84981483 17 130 120
-0.090739489 0.29270613 -0.84934902 19 132 119
-0.11074562 0.32721362 -0.8273524 21 135 116
-0.11027457 0.32844186 -0.82794821 21 135 116
-0.11118009 0.32827941 -0.82702827 21 135 116
-0.11136582 0.32254291 -0.8265335 21 133 116
-0.1121418 0.32330257 -0.82578349 21 133 116
-0.11058698 0.32280791 -0.82733631 20 133 116
-0.11021193 0.32391378 -0.82776105 20 135 116
-0.11001574 0.32515112 -0.82801002 20 135 115
-0.11046229 0.32410327 -0.82751524 21 133 116
-0.11086161 0.32372454 -0.82708812 21 133 116
-0.1111971 0.32421708 -0.826747 21 135 116
-0.10977469 0.31947461 -0.82792324 19 132 118
-0.11008514 0.32064781 -0.82769918 20 133 118
-0.11054444 0.31881416 -0.82709426 20 132 117
-0.109858 0.3199718 -0.8278771 19 132 117
-0.11116208 0.32143739 -0.82666898 21 133 116
-0.11128004 0.32156885 -0.8265596 21 133 116
-0.11097971 0.32075739 -0.82680196 21 132 117
-0.10920988 0.31476933 -0.82803053 17 132 118
-0.10934329 0.31449595 -0.82786578 17 132 118
-0.11061346 0.31469086 -0.82659143 19 132 117
-0.10946665 0.31557906 -0.82785392 18 130 118
-0.10995466 0.3151316 -0.82730937 19 130 118
-0.11110628 0.31560326 -0.82618856 20 132 117
-0.11084134 0.31628191 -0.82653105 20 132 117
-0.11075147 0.31720018 -0.82672274 20 132 117
-0.11110979 0.31549758 -0.82617342 20 132 117
-0.11176375 0.31404698 -0.82537758 21 132 118
-0.11190142 0.31141996 -0.82503432 21 132 117
-0.11034854 0.31085658 -0.82654327 19 134 116
-0.10986452 0.31271684 -0.82720304 18 132 117
-0.10862803 0.3120431 -0.82834697 17 132 116
-0.10896333 0.31274104 -0.82808816 17 132 118
-0.10980075 0.31250197 -0.82724404 18 132 117
-0.10970856 0.31094748 -0.82717925 19 134 116
-0.11071143 0.31239194 -0.82631618 20 132 117
-0.11053926 0.31276199 -0.82651871 19 132 117
-0.11010038 0.31371978 -0.82703596 19 130 118
-0.11105504 0.31129524 -0.82588583 20 133 116
-0.11029427 0.31266668 -0.82676148 19 132 117
-0.11029096 0.30768526 -0.82631034 21 132 117
-0.10896879 0.30883092 -0.8277126 19 134 116
-0.10920297 0.30937523 -0.82752806 19 132 117
-0.10914304 0.30668774 -0.82735771 20 132 116
-0.10895216 0.30912194 -0.82775384 19 132 117
-0.10824192 0.30809337 -0.82836682 18 134 115
-0.11054249 0.30955103 -0.8262319 20 133 116
-0.11012629 0.30984485 -0.82666624 20 132 117
-0.11037034 0.30960813 -0.8264057 20 133 116
-0.10970829 0.30958438 -0.827052 19 134 116
-0.10997348 0.30500686 -0.82618338 20 133 115
-0.10948957 0.30556613 -0.82678092 19 134 116
-0.11041863 0.30541167 -0.82583112 21 133 116
-0.10908181 0.3059496 -0.82726556 19 134 116
-0.11028643 0.30412763 -0.82569426 20 133 115
-0.10787298 0.30596188 -0.8284713 19 132 116
-0.10855936 0.30608413 -0.82781094 19 132 116
-0.11018734 0.30420569 -0.82580882 20 133 116
-0.1079409 0.30521256 -0.82825285 19 132 116
-0.1081413 0.30384281 -0.82777548 19 130 117
-0.11044538 0.30331451 -0.82535934 20 133 115
-0.11058406 0.30321282 -0.82519841 20 133 115
-0.11007705 0.30277207 -0.82561034 19 134 116
-0.10938773 0.3029075 -0.82632953 19 134 116
-0.10976664 0.30260155 -0.82588506 19 134 116
-0.10833862 0.29981834 -0.82671809 20 132 117
-0.10796946 0.30099142 -0.82734048 19 134 116
-0.10853914 0.30057287 -0.82667929 20 132 117
-0.1085779 0.30052909 -0.82663107 20 132 117
-0.1095194 0.30154824 -0.82590646 20 132 116
-0.10880882 0.30245659 -0.82681412 18 134 115
-0.10873888 0.30092868 -0.82655561 20 132 117
-0.10859665 0.2991305 -0.82632619 20 133 117
-0.10882936 0.30012381 -0.82629508 21 132 117
-0.11081427 0.30213553 -0.82473969 21 133 116
-0.10678748 0.29964238 -0.82822657 19 134 117
-0.10664288 0.30004901 -0.82845801 19 132 117
-0.10718108 0.30263889 -0.82849801 19 130 117
-0.1079632 0.29646555 -0.82636356 20 133 117
-0.10576497 0.29598901 -0.82849211 21 132 118
-0.1060443 0.29688638 -0.82838905 20 132 118
-0.10606749 0.29748896 -0.8284902 20 132 118
-0.10642985 0.29837039 -0.82829773 19 134 117
-0.10713954 0.29644451 -0.82717013 20 132 118
-0.1073028 0.29643971 -0.82700861 20 132 118
-0.10730336 0.29548824 -0.82679588 20 132 118
-0.10525398 0.29304108 -0.82826018 21 132 118
-0.10519394 0.29172492 -0.82794857 21 132 118
-0.10569515 0.29132673 -0.82733166 21 132 118
-0.10577357 0.2920303 -0.82745159 21 132 118
-0.1045818 0.28853804 -0.82781899 21 132 118
-0.10498293 0.28963906 -0.82764041 21 132 118
-0.098243117 0.32765931 -0.8424437 16 132 119
-0.098438159 0.32739109 -0.84212333 16 132 119
-0.097464263 0.32807097 -0.84372729 17 132 120
-0.097476147 0.32881391 -0.84370291 18 132 119
-0.097396508 0.32814366 -0.84383869 17 134 119
-0.098432727 0.32765201 -0.84213066 16 132 119
-0.098571241 0.32742551 -0.84190339 16 132 119
-0.09747982 0.32973191 -0.84368932 20 133 120
-0.098740511 0.32758799 -0.84162235 16 132 119
-0.098752059 0.32801959 -0.84159291 19 132 119
-0.098473243 0.32228613 -0.84159148 17 132 120
-0.097681545 0.32320851 -0.84300703 16 132 120
-0.098576866 0.3226954 -0.84147406 16 132 120
-0.097361535 0.32296795 -0.84350067 17 130 120
-0.097830288 0.32244745 -0.84266585 17 132 120
-0.097595736 0.32499754 -0.84337658 15 132 119
-0.097823374 0.32514349 -0.84302151 15 132 119
-0.098362707 0.32490054 -0.84210145 15 132 119
-0.098919317 0.3260389 -0.8413204 15 132 119
-0.097417697 0.32604921 -0.84380126 15 130 120
-0.098472938 0.32422492 -0.84183741 15 132 119
-0.099287264 0.32277644 -0.84031695 16 132 121
-0.097083718 0.32037714 -0.84362841 17 130 120
-0.097745575 0.31971714 -0.84248728 16 132 120
-0.097136289 0.31864548 -0.84331977 16 130 121
-0.098016866 0.31971076 -0.84205377 16 132 120
-0.097504295 0.31848866 -0.84271258 16 130 121
-0.097003497 0.32076016 -0.84380603 17 130 120
-0.098989137 0.32225826 -0.84074259 17 132 120
-0.098013185 0.3219302 -0.84230739 17 132 120
-0.097147003 0.32190415 -0.84372419 17 130 120
-0.09806779 0.32085744 -0.84210449 17 130 120
-0.099049307 0.31966761 -0.84037018 16 132 120
-0.098094925 0.3219043 -0.84217072 17 132 120
-0.097704917 0.3158294 -0.84207058 16 130 121
-0.098096319 0.31486869 -0.84132719 16 130 120
-0.096267045 0.31447285 -0.84396672 16 130 120
-0.097345628 0.31576943 -0.84259206 16 130 121
-0.096365489 0.31446871 -0.84382033 16 130 120
-0.097738817 0.31464717 -0.84181839 16 130 120
-0.097136773 0.31720155 -0.84314591 16 130 121
-0.097054027 0.31759822 -0.84333271 16 130 121
-0.098820403 0.31817609 -0.84057742 16 130 120
-0.098030172 0.31802106 -0.84182113 16 130 120
-0.098467186 0.31562409 -0.84086877 16 130 121
-0.097804271 0.31691241 -0.84206319 16 130 121
-0.09826012 0.3180669 -0.84145927 16 130 120
-0.096681602 0.31087333 -0.84278846 16 134 119
-0.095843308 0.31148937 -0.8440944 16 132 120
-0.096084647 0.31095883 -0.84366083 16 132 120
-0.095909938 0.31120181 -0.84395164 16 132 120
-0.0965994 0.31293768 -0.8432433 16 132 119
-0.095911436 0.31162065 -0.8440178 16 132 120
-0.096887209 0.31171924 -0.84263074 16 132 119
-0.09845154 0.31176081 -0.84035712 17 132 119
-0.098061554 0.31414968 -0.84126556 16 130 120
-0.096969709 0.3133989 -0.84277725 17 130 120
-0.097328715 0.3131043 -0.84220517 17 130 120
-0.098392613 0.31363395 -0.84070408 16 130 120
-0.09794572 0.31261209 -0.84122372 17 130 120
-0.098349348 0.31096569 -0.84039807 17 134 119
-0.09577585 0.31040317 -0.84401137 16 132 120
-0.097237512 0.30727267 -0.8413431 16 132 119
-0.095927328 0.30737391 -0.84331834 15 132 119
-0.096385606 0.30758202 -0.84266496 15 134 118
-0.096651845 0.30866033 -0.84243274 16 132 120
-0.095782235 0.3084718 -0.8437044 15 134 119
-0.096714698 0.30931053 -0.84245688 16 132 120
-0.097868256 0.30772883 -0.8405028 17 132 119
-0.097075738 0.30922174 -0.84192109 16 134 119
-0.097389475 0.30986014 -0.84158909 17 132 120
-0.09672574 0.30933219 -0.84244502 16 132 120
-0.09799879 0.30921906 -0.84059328 17 132 119
-0.095671199 0.30985942 -0.84409195 15 132 119
-0.097515777 0.30597427 -0.84068477 17 132 120
-0.095703453 0.30463195 -0.84310383 16 132 119
-0.096336789 0.30650464 -0.84256345 15 132 118
-0.095720619 0.30295345 -0.84271336 17 132 120
-0.095720716 0.3053073 -0.8432247 16 132 119
-0.096580572 0.30412605 -0.84168696 17 134 119
-0.096596166 0.30330473 -0.84151238 17 132 119
-0.097216032 0.30535251 -0.84099972 17 132 119
-0.097503304 0.30538189 -0.84059173 17 132 119
-0.095234305 0.30370402 -0.84373492 18 132 120
-0.095421784 0.3038241 -0.84342706 17 132 120
-0.095599271 0.30642176 -0.84367537 15 132 119
-0.097092234 0.30257022 -0.84066027 17 132 118
-0.096462078 0.30119178 -0.84129399 18 132 118
-0.096441917 0.30129606 -0.84134364 18 132 118
-0.096347868 0.30070025 -0.84136099 19 132 119
-0.096333802 0.30014062 -0.84126878 19 132 118
-0.09577097 0.29898259 -0.84185076 20 133 119
-0.096774608 0.30123898 -0.8408531 18 132 118
-0.09557797 0.29897779 -0.84215701 21 133 121
-0.095181599 0.30005842 -0.84305269 20 133 120
-0.094501175 0.29884839 -0.84389287 21 133 123
-0.095653601 0.30220547 -0.84267521 18 132 119
-0.095039584 0.30216867 -0.84376097 20 133 120
-0.09557762 0.29965565 -0.84230518 20 133 120
-0.095954143 0.29646093 -0.84080511 18 134 120
-0.095811918 0.29806089 -0.84151697 20 133 120
-0.095892288 0.2960625 -0.84077042 18 134 120
-0.094326377 0.29794505 -0.84385794 19 135 122
-0.094415791 0.29692411 -0.84335852 18 134 122
-0.095223658 0.29573652 -0.84170765 18 132 122
-0.094031543 0.29672262 -0.84387082 18 132 122
-0.095465973 0.29533267 -0.84119552 18 132 122
-0.095468268 0.29756194 -0.84190446 19 135 120
-0.095488563 0.29623264 -0.84145296 18 134 121
-0.095175765 0.29845262 -0.84266418 20 133 121
-0.095481768 0.29793832 -0.84200078 19 135 120
-0.095170267 0.29444718 -0.84134424 17 132 122
-0.095268264 0.29403728 -0.84106183 17 132 121
-0.094922885 0.29178998 -0.84081894 17 132 120
-0.094064198 0.2942175 -0.84294558 15 132 121
-0.094331689 0.29357818 -0.84232306 16 132 121
-0.095064625 0.29135868 -0.84045738 17 132 120
-0.092880234 0.29238266 -0.84412295 16 132 120
-0.093470715 0.2912423 -0.84284043 17 130 120
-0.09446121 0.29176986 -0.84151274 17 130 120
-0.0931454 0.29156971 -0.84344554 17 130 120
-0.093198672 0.29196125 -0.84349668 17 130 120
-0.093232282 0.29247791 -0.84361988 16 132 120
-0.093532607 0.29279631 -0.84327078 16 130 121
-0.09294425 0.28978702 -0.84324324 20 130 119
-0.09269347 0.29065332 -0.84384954 18 132 118
-0.092559911 0.29091999 -0.84412646 18 132 118
-0.093973219 0.28923005 -0.84150887 20 132 119
-0.093375906 0.29093832 -0.84288681 18 130 119
-0.094344892 0.28984517 -0.84111303 19 132 119
-0.092928655 0.29061243 -0.84347713 18 132 118
-0.093441777 0.29082447 -0.84275538 18 130 119
-0.093555756 0.32810375 -0.8527801 15 132 119
-0.093692422 0.32854745 -0.85232216 15 132 119
-0.093701355 0.32836616 -0.85219926 15 132 119
-0.093242183 0.32369381 -0.85239178 14 132 121
-0.093136281 0.32391614 -0.85288566 14 132 121
-0.093331672 0.32366115 -0.85202396 14 132 121
-0.092532009 0.31881103 -0.85267615 14 130 122
-0.092906907 0.32023662 -0.85202974 14 130 121
-0.092819005 0.32027209 -0.85236222 14 130 121
-0.092061616 0.3146081 -0.85322255 14 130 123
-0.092543319 0.31465533 -0.85210133 14 130 122
-0.092597023 0.31701562 -0.85205466 14 130 122
-0.092308827 0.3161186 -0.85346508 14 130 122
-0.091936357 0.31227151 -0.85286647 14 130 121
-0.092083171 0.31238139 -0.85255319 14 130 121
-0.092303865 0.31287411 -0.85217112 14 130 121
-0.091947332 0.31035128 -0.85235441 14 134 118
-0.09160918 0.30990201 -0.85331321 16 130 120
-0.091759108 0.30999604 -0.85272372 15 132 119
-0.091722131 0.30800414 -0.85216331 18 130 121
-0.09163475 0.30792871 -0.85246181 18 130 121
-0.09109927 0.30319497 -0.85284227 18 130 122
-0.091521494 0.30572566 -0.85201663 19 130 122
-0.091389462 0.30661291 -0.85284317 19 130 122
-0.090686478 0.30049631 -0.85325575 16 130 123
-0.091000259 0.30217677 -0.85283124 18 130 123
-0.089992069 0.29527152 -0.85285193 16 132 120
-0.090371557 0.29756984 -0.85273606 16 130 121
-0.090105824 0.29719427 -0.85352677 16 130 121
-0.090495065 0.29855379 -0.85285527 16 130 123
-0.090536214 0.29882163 -0.85285884 16 130 123
-0.090431601 0.29829761 -0.8529439 16 130 123
-0.089508988 0.29358336 -0.85359603 21 132 122
-0.089502782 0.29418337 -0.85410452 20 133 121
0 0 0 1 0 0 0 1 0 0 0 1 0 0 0 0 0 945 1 0 0
