ply
format ascii 1.0
comment PCL generated
element vertex 977
property float x
property float y
property float z
property uchar red
property uchar green
property uchar blue
element camera 1
property float view_px
property float view_py
property float view_pz
property float x_axisx
property float x_axisy
property float x_axisz
property float y_axisx
property float y_axisy
property float y_axisz
property float z_axisx
property float z_axisy
property float z_axisz
property float focal
property float scalex
property float scaley
property float centerx
property float centery
property int viewportx
property int viewporty
property float k1
property float k2
end_header
-0.080779642 -0.48618719 -0.68854141 128 144 119
-0.080614075 -0.48428804 -0.68799931 126 147 115
-0.080394447 -0.48404571 -0.68791431 128 148 115
-0.077849098 -0.48597494 -0.6882683 150 138 123
-0.076413736 -0.48534086 -0.68797702 158 134 124
-0.079850502 -0.48477796 -0.68806916 131 147 117
-0.079473354 -0.48574302 -0.68831009 136 144 120
-0.078088351 -0.48490494 -0.68797368 144 141 121
-0.079442382 -0.48550779 -0.68824226 135 144 120
-0.074010998 -0.48612702 -0.68825531 159 136 123
-0.073788241 -0.48554409 -0.68805993 156 136 124
-0.074713245 -0.48541775 -0.68800604 157 135 124
-0.075765759 -0.48510903 -0.68789315 156 135 124
-0.068991207 -0.48631111 -0.68818194 165 150 120
-0.070322625 -0.48618639 -0.68821162 159 145 120
-0.069829814 -0.48558199 -0.68798351 159 145 121
-0.070274167 -0.48536918 -0.68793261 157 144 121
-0.065207861 -0.48614457 -0.6881457 176 141 123
-0.064531185 -0.48620448 -0.68817806 176 140 124
-0.067738809 -0.48565665 -0.68794215 169 146 121
-0.062220339 -0.48596591 -0.68810987 173 137 122
-0.061858457 -0.48604017 -0.68813229 175 135 122
-0.063797832 -0.48555043 -0.6879608 178 137 124
-0.058769446 -0.48611987 -0.68820685 151 142 118
-0.058527324 -0.48628151 -0.68826574 143 146 117
-0.058485381 -0.48542809 -0.68799728 150 142 119
-0.053326655 -0.4856945 -0.68854159 178 133 121
-0.05468408 -0.48545739 -0.68828207 143 146 117
-0.053565904 -0.48594907 -0.68860102 174 135 120
-0.052178741 -0.48369792 -0.68798733 166 133 120
-0.050480187 -0.48279458 -0.68790394 124 142 115
-0.051717542 -0.48365253 -0.68803561 156 135 119
-0.049055044 -0.48372173 -0.68844968 108 144 112
-0.049159098 -0.48439938 -0.68868643 119 141 114
-0.080606587 -0.48803526 -0.6891771 126 145 118
-0.080379508 -0.48746088 -0.68895137 127 145 119
-0.082170531 -0.48868972 -0.68953884 128 142 117
-0.080981582 -0.487793 -0.68911964 129 144 118
-0.081136867 -0.4866083 -0.68871129 127 143 119
-0.081334256 -0.48680621 -0.68879861 127 143 119
-0.082558431 -0.48821831 -0.68940508 126 141 117
-0.077524818 -0.48813629 -0.68902296 145 137 122
-0.076219544 -0.48952997 -0.68949348 127 143 117
-0.077053033 -0.48866367 -0.68920195 138 139 120
-0.076609693 -0.48709053 -0.68858683 160 132 125
-0.07702364 -0.48731434 -0.68868977 157 133 124
-0.078629099 -0.48635152 -0.68843782 147 139 123
-0.078453362 -0.4868724 -0.68861526 145 139 122
-0.078929484 -0.48844624 -0.68921292 134 141 119
-0.07958477 -0.48809054 -0.68912452 129 144 119
-0.079232141 -0.48772061 -0.68896931 134 142 119
-0.080004923 -0.48723292 -0.68884039 129 145 119
-0.074410923 -0.4892579 -0.68938011 134 143 118
-0.072667629 -0.48896119 -0.68922108 152 140 123
-0.074295357 -0.48944625 -0.68943638 136 143 119
-0.072842792 -0.48742351 -0.68873382 147 141 120
-0.073374063 -0.48949257 -0.6894176 146 141 122
-0.073556095 -0.48876974 -0.68919212 143 142 120
-0.07550215 -0.48792943 -0.68889946 146 137 121
-0.074212432 -0.48787612 -0.68890637 139 142 119
-0.074556738 -0.48791534 -0.68891394 141 141 119
-0.073231786 -0.48635387 -0.6883505 155 138 122
-0.074662983 -0.48813531 -0.688995 139 141 119
-0.068655245 -0.48823431 -0.68882579 166 146 122
-0.071732305 -0.48984319 -0.68946517 161 141 125
-0.068369642 -0.48765084 -0.6886152 167 147 121
-0.071172282 -0.49022549 -0.68958402 161 140 125
-0.070931055 -0.48947668 -0.68931699 162 142 124
-0.07004039 -0.48983127 -0.68941772 164 141 125
-0.071169019 -0.48873734 -0.68907642 160 144 123
-0.070063069 -0.48794961 -0.68876487 164 147 122
-0.071328543 -0.48906097 -0.68918878 161 143 124
-0.071019553 -0.48805085 -0.68884808 160 144 123
-0.070349447 -0.48788688 -0.68875992 162 146 122
-0.07221096 -0.48815989 -0.68894625 155 141 123
-0.067062773 -0.48972031 -0.68938649 169 140 124
-0.064921819 -0.4878462 -0.68878019 174 140 124
-0.06775175 -0.49018234 -0.68952733 167 140 123
-0.068226628 -0.49022505 -0.68951857 167 140 124
-0.064871736 -0.48835382 -0.68897778 173 140 123
-0.067620888 -0.48847163 -0.68891376 169 143 123
-0.066696145 -0.48692212 -0.68838996 171 145 122
-0.066405863 -0.48731169 -0.68853074 172 142 123
-0.068209723 -0.48981917 -0.68937308 167 141 123
-0.067381382 -0.48862791 -0.68897241 169 142 123
-0.065389305 -0.48637891 -0.68822342 174 142 123
-0.060749795 -0.48842269 -0.6889897 174 133 120
-0.061217088 -0.4890269 -0.68921959 171 135 121
-0.061311897 -0.48814762 -0.68889946 176 133 121
-0.062136579 -0.48964009 -0.68946129 170 137 121
-0.061053939 -0.48782104 -0.68877506 178 132 121
-0.062507324 -0.48636517 -0.68823475 180 135 123
-0.063040935 -0.48795128 -0.68884432 177 137 122
-0.063432939 -0.48812544 -0.6889115 176 137 123
-0.061098088 -0.48647586 -0.68827623 183 131 122
-0.061842106 -0.48644546 -0.68826514 181 133 122
-0.059523474 -0.48676974 -0.68841189 161 138 119
-0.058509693 -0.48681128 -0.68845803 139 147 116
-0.059816416 -0.48737687 -0.68862522 164 137 119
-0.059884451 -0.48756045 -0.68869036 164 137 119
-0.059207506 -0.48736382 -0.68863899 150 142 118
-0.052959133 -0.48690677 -0.68905056 186 130 122
-0.053388555 -0.48704094 -0.68905306 177 133 120
-0.051660474 -0.4863587 -0.68902481 182 128 122
-0.086501993 -0.49344146 -0.69160563 140 140 118
-0.086012788 -0.49208498 -0.6910975 140 137 118
-0.084065698 -0.49185336 -0.69078416 138 138 116
-0.080941722 -0.49272865 -0.690826 131 141 119
-0.080095083 -0.49408072 -0.69121325 134 137 122
-0.081251197 -0.49159583 -0.69047147 126 144 117
-0.082693815 -0.49369243 -0.69127929 144 138 120
-0.083668739 -0.49349347 -0.69128788 147 138 119
-0.083766572 -0.49226546 -0.69089222 139 139 116
-0.08265017 -0.49254686 -0.69089526 137 141 117
-0.083754361 -0.49271673 -0.6910395 142 139 117
-0.077981733 -0.49328789 -0.69085127 131 140 120
-0.078707449 -0.49342805 -0.69093192 132 139 121
-0.078074366 -0.4921971 -0.69049579 126 141 119
-0.079701968 -0.49324831 -0.69091785 130 139 121
-0.074668609 -0.49382025 -0.69083196 143 142 121
-0.074945003 -0.49333823 -0.69071782 143 141 121
-0.073074758 -0.49386939 -0.69071454 149 143 120
-0.073823698 -0.49252024 -0.69039297 149 141 123
-0.072763659 -0.4910984 -0.68990159 156 140 124
-0.074489787 -0.49319255 -0.6906389 145 141 121
-0.076151118 -0.49383759 -0.69094616 135 141 120
-0.07584729 -0.49359974 -0.69085658 137 141 121
-0.075014688 -0.49057379 -0.68982774 132 143 119
-0.07525941 -0.49124628 -0.69005859 132 143 119
-0.075841196 -0.49259844 -0.69052595 132 142 119
-0.068452083 -0.49330798 -0.69056618 161 140 122
-0.070712991 -0.4935751 -0.69058263 156 143 121
-0.070313521 -0.49391368 -0.69071203 156 142 120
-0.070480384 -0.49248797 -0.69021749 158 143 121
-0.069325365 -0.49256131 -0.69028109 161 141 122
-0.069646493 -0.4936828 -0.69065499 158 141 121
-0.070669353 -0.49148265 -0.68992889 160 141 123
-0.071939826 -0.49262577 -0.69028616 155 143 121
-0.071928337 -0.49294505 -0.69037658 155 144 121
-0.071168408 -0.49160171 -0.6899755 159 141 123
-0.072259583 -0.49108002 -0.68985522 158 141 125
-0.071343139 -0.49292439 -0.69035578 156 143 121
-0.065110005 -0.49120691 -0.69001418 169 141 123
-0.064571857 -0.4917132 -0.69019413 167 141 124
-0.066104069 -0.49386808 -0.69083881 160 141 125
-0.065018184 -0.49202409 -0.69027996 166 141 124
-0.064609654 -0.49173471 -0.69019991 167 141 124
-0.06737107 -0.49098459 -0.68982476 166 140 123
-0.06834925 -0.49336809 -0.6905905 161 139 122
-0.067909665 -0.49204573 -0.69016016 164 140 123
-0.067792192 -0.49153385 -0.68999088 165 140 123
-0.064642273 -0.49024737 -0.68971658 171 142 123
-0.061744515 -0.49366939 -0.6909095 144 146 120
-0.061858293 -0.49189928 -0.69023025 159 139 121
-0.063747577 -0.49363166 -0.6908136 159 142 126
-0.061026908 -0.49320245 -0.69076079 143 145 119
-0.062519446 -0.49393633 -0.69097972 148 145 123
-0.064086802 -0.49370873 -0.69083309 160 141 126
-0.064292692 -0.49067482 -0.68986082 170 141 123
-0.064257368 -0.49112609 -0.6900053 168 142 123
-0.062176216 -0.49118602 -0.68998569 165 138 122
-0.063429214 -0.49311355 -0.6906293 161 140 125
-0.060057238 -0.49271211 -0.69063181 134 148 116
-0.060276851 -0.49369001 -0.69098729 130 151 117
-0.060540471 -0.49255055 -0.69053239 145 144 118
-0.084103644 -0.49479878 -0.69177687 152 138 119
-0.081528053 -0.49527869 -0.69174886 141 139 120
-0.082464039 -0.49471992 -0.69161904 145 138 120
-0.081373602 -0.49435443 -0.69140601 140 138 121
-0.078906365 -0.4951807 -0.6915465 136 140 122
-0.078245007 -0.49550292 -0.69162917 138 141 122
-0.079836689 -0.49536714 -0.69165939 134 140 121
-0.076613076 -0.49511009 -0.69141126 139 141 121
-0.078513227 -0.49457514 -0.69131172 137 139 122
-0.077143699 -0.49471468 -0.69129628 137 140 121
-0.07601729 -0.49518746 -0.69140822 140 142 121
-0.074999623 -0.4960677 -0.6916573 147 142 121
-0.075933956 -0.49463558 -0.69120753 139 141 121
-0.07462351 -0.49429598 -0.69097877 143 142 120
-0.072278336 -0.49563074 -0.69129699 158 142 120
-0.074013032 -0.49452692 -0.69101691 147 142 120
-0.073097616 -0.4944337 -0.69090575 150 144 120
-0.07201419 -0.49636593 -0.69159043 160 141 121
-0.071700975 -0.49627763 -0.69157231 158 142 121
-0.070405088 -0.49583218 -0.69146663 151 144 120
-0.070550255 -0.49648219 -0.69170851 154 142 121
-0.068766356 -0.49614096 -0.69166601 146 144 119
-0.069350168 -0.49429196 -0.69088429 157 141 121
-0.06852074 -0.49590915 -0.69157857 148 143 119
-0.069509283 -0.49542791 -0.6913473 150 144 120
-0.066722915 -0.4960576 -0.69169539 159 141 123
-0.067894645 -0.49513096 -0.69127738 157 141 121
-0.066891685 -0.49593151 -0.69163823 159 141 123
-0.064891435 -0.49444348 -0.69108921 161 141 127
-0.066499755 -0.49444088 -0.69103706 161 140 124
-0.06432984 -0.49591166 -0.69171041 172 139 128
-0.062642328 -0.49589202 -0.69177109 160 140 125
-0.063969582 -0.4944354 -0.69111949 158 142 126
-0.062533736 -0.4944711 -0.69119263 148 145 123
-0.061415892 -0.49472904 -0.69134396 142 146 120
-0.063586503 -0.49434158 -0.6910966 155 143 125
-0.059207931 -0.49545664 -0.69178987 144 142 120
-0.058461562 -0.49495503 -0.69164646 142 144 119
-0.060900755 -0.45447633 -0.68011469 151 136 126
-0.0622596 -0.45417586 -0.68013096 131 141 120
-0.062820293 -0.45446786 -0.68021321 120 145 118
-0.063422777 -0.45388162 -0.68013752 114 146 115
-0.057061393 -0.45395371 -0.68013585 150 132 121
-0.059974972 -0.45503002 -0.68021458 160 132 127
-0.059502292 -0.45456025 -0.68014419 156 133 126
-0.061543167 -0.45804012 -0.68082714 127 141 120
-0.060571913 -0.45716396 -0.68064296 128 144 123
-0.060630541 -0.4558982 -0.68037081 148 136 126
-0.061843719 -0.45806307 -0.6808309 131 139 120
-0.061867997 -0.45888743 -0.68100786 118 144 118
-0.060987111 -0.45522898 -0.68024266 155 134 127
-0.062813967 -0.45558125 -0.68039769 128 141 119
-0.061315969 -0.45545027 -0.68029511 153 134 126
-0.058813691 -0.45825642 -0.68093246 127 143 119
-0.058775898 -0.4578155 -0.68085408 128 142 119
-0.058987152 -0.45743981 -0.68078321 125 143 118
-0.058125459 -0.45698252 -0.68071562 139 137 119
-0.057289489 -0.45654881 -0.68065178 153 132 119
-0.059994187 -0.45694295 -0.68062443 131 142 122
-0.059945829 -0.45671114 -0.68057716 135 141 122
-0.058993556 -0.45562842 -0.68039435 153 133 123
-0.060324814 -0.45802578 -0.68083978 113 149 120
-0.057545412 -0.4553799 -0.68041664 159 129 121
-0.059059836 -0.45660505 -0.6806007 137 138 120
-0.055233665 -0.45788631 -0.68090624 138 136 120
-0.05468788 -0.45877856 -0.68107367 134 141 117
-0.053662136 -0.45868915 -0.68106383 118 145 114
-0.056035902 -0.45650825 -0.68065637 153 131 120
-0.056006398 -0.4559581 -0.68055785 152 130 120
-0.056514889 -0.45571893 -0.6805141 162 128 120
-0.060953435 -0.46244195 -0.68162858 121 139 118
-0.057882633 -0.4604958 -0.68133968 151 134 121
-0.057596322 -0.46241939 -0.68165636 145 134 119
-0.057380918 -0.46142554 -0.68149477 150 133 120
-0.056799024 -0.4619371 -0.68158185 151 133 120
-0.05753148 -0.46093449 -0.68141347 151 134 120
-0.058220353 -0.46033189 -0.68130833 147 136 120
-0.058776014 -0.46028835 -0.68129146 138 138 120
-0.060303666 -0.46237323 -0.68163049 127 137 118
-0.059076656 -0.45989439 -0.68121761 130 141 120
-0.053497408 -0.46268982 -0.68175107 123 154 114
-0.055081621 -0.46225318 -0.68165231 134 142 116
-0.052739263 -0.46156317 -0.68156821 114 156 113
-0.053100888 -0.46183753 -0.68161011 118 154 114
-0.053814404 -0.4600901 -0.68129849 118 145 113
-0.054440334 -0.45979622 -0.6812461 128 142 115
-0.055655114 -0.46092618 -0.68142343 142 137 118
-0.053718023 -0.45916814 -0.68114787 120 145 114
-0.05643785 -0.46252769 -0.68168074 147 134 119
-0.054347884 -0.460567 -0.68137294 124 143 114
-0.0494163 -0.46188706 -0.68186027 142 144 122
-0.050383214 -0.46087587 -0.68160951 117 151 116
-0.051197559 -0.46277556 -0.68188858 134 152 118
-0.051657774 -0.46255866 -0.68181634 126 155 117
-0.052727968 -0.46037993 -0.68136483 111 153 112
-0.051843107 -0.45905033 -0.68119514 106 149 112
-0.052100409 -0.46119368 -0.68154711 113 154 113
-0.052440524 -0.45960847 -0.68125123 108 151 112
-0.051475707 -0.46059623 -0.68148613 112 153 113
-0.052731588 -0.46052977 -0.68139046 111 154 112
-0.046716686 -0.46140563 -0.68197495 144 142 122
-0.048003443 -0.46078345 -0.68176377 138 142 122
-0.047235999 -0.46100065 -0.68185574 145 141 123
-0.048098009 -0.46005952 -0.68162823 127 144 120
-0.04581045 -0.4598437 -0.68174851 136 142 121
-0.048358042 -0.46234405 -0.68201715 158 140 126
-0.041683134 -0.46171749 -0.68247867 133 139 118
-0.042517051 -0.46254355 -0.68259239 135 141 118
-0.065595202 -0.46448666 -0.68198305 135 143 120
-0.065579034 -0.46582547 -0.68225503 148 139 123
-0.063942492 -0.46661931 -0.68238777 142 140 123
-0.064044207 -0.46657753 -0.68237919 142 139 123
-0.063072845 -0.46679026 -0.68242669 148 139 122
-0.061601412 -0.46496961 -0.68209761 140 138 120
-0.060929354 -0.46556401 -0.6822142 147 139 120
-0.062560841 -0.46484053 -0.68206477 134 138 121
-0.06201975 -0.46302947 -0.68170935 119 141 117
-0.062127244 -0.46305498 -0.68171191 119 141 117
-0.057027254 -0.46474904 -0.68211091 168 131 121
-0.059256379 -0.46580818 -0.68227565 159 137 120
-0.058111474 -0.46535957 -0.68221056 165 134 121
-0.057053261 -0.46530813 -0.68222493 175 130 121
-0.059245236 -0.4666017 -0.68243861 169 136 121
-0.060312025 -0.46666843 -0.68242723 160 139 121
-0.058955178 -0.46485072 -0.68209273 152 137 120
-0.057875782 -0.46323672 -0.68179673 145 135 119
-0.058179896 -0.46333018 -0.68181252 144 135 119
-0.060103521 -0.46520442 -0.68215245 149 138 120
-0.058713946 -0.46425059 -0.68198174 149 136 119
-0.059522908 -0.46562186 -0.68223387 156 138 120
-0.05502836 -0.46543527 -0.68229651 165 138 119
-0.055879585 -0.46667665 -0.68255681 185 130 122
-0.053271938 -0.46534514 -0.68238258 139 146 116
-0.053832274 -0.46449783 -0.68213421 143 148 116
-0.053255729 -0.46474177 -0.68223143 136 149 115
-0.053630944 -0.46375474 -0.68196082 136 151 115
-0.05458536 -0.46411759 -0.68202108 148 144 117
-0.054699946 -0.4637391 -0.68194175 144 144 117
-0.055938233 -0.46392328 -0.68196112 156 136 119
-0.056305341 -0.46298182 -0.68176258 147 135 118
-0.054517709 -0.46459818 -0.68212062 153 143 118
-0.051846236 -0.46593136 -0.68262887 144 142 118
-0.049376145 -0.46459183 -0.682491 157 138 123
-0.050943952 -0.46558669 -0.68261749 148 140 120
-0.050861239 -0.4656249 -0.68263525 149 139 120
-0.049442578 -0.46541321 -0.68270636 155 136 122
-0.049458507 -0.46658254 -0.68302017 152 134 119
-0.051002458 -0.4643389 -0.68228847 146 144 120
-0.05210134 -0.46313569 -0.68190491 127 155 116
-0.050437301 -0.46295691 -0.68198121 145 147 122
-0.052297425 -0.46388167 -0.68207866 128 153 116
-0.051029999 -0.463045 -0.68196017 139 150 120
-0.051010851 -0.46299726 -0.68194956 139 150 120
-0.047480609 -0.46633098 -0.68312865 154 134 121
-0.048249692 -0.4666799 -0.68315482 155 133 121
-0.04658775 -0.46676117 -0.68332547 161 134 126
-0.046227127 -0.46447137 -0.68273503 140 141 118
-0.046072297 -0.46631163 -0.68324924 159 136 126
-0.047597088 -0.46668318 -0.68321401 157 133 123
-0.046677891 -0.46379822 -0.68251371 143 141 119
-0.046253584 -0.46403179 -0.68261361 139 141 117
-0.046716269 -0.46449643 -0.68269861 141 140 117
-0.046876986 -0.46406618 -0.68256861 144 141 119
-0.04832593 -0.46617541 -0.68301105 151 134 120
-0.04332865 -0.4662796 -0.68356264 156 136 126
-0.041915044 -0.46505925 -0.68338996 146 136 123
-0.042749222 -0.46569785 -0.6834659 152 136 125
-0.042563915 -0.46489659 -0.6832391 152 136 124
-0.041439403 -0.46416217 -0.68317705 143 137 121
-0.043824155 -0.46464637 -0.68301588 150 138 123
-0.042608503 -0.46421415 -0.68302757 150 137 124
-0.044721764 -0.46543437 -0.68313479 156 138 126
-0.043629356 -0.46438131 -0.68296456 149 139 123
-0.044076726 -0.46466756 -0.68299484 150 139 123
-0.043236107 -0.46400806 -0.68290484 146 139 122
-0.039830934 -0.4639402 -0.68341571 135 138 119
-0.040030099 -0.4642472 -0.68347228 135 137 120
-0.040749092 -0.46545631 -0.68370873 137 137 120
-0.039605029 -0.46489099 -0.68376499 132 137 119
-0.065787926 -0.46843854 -0.68284744 155 141 123
-0.065809473 -0.46938244 -0.68305027 155 142 122
-0.066110454 -0.47059289 -0.68332678 158 143 121
-0.066575773 -0.47068778 -0.68337488 163 143 122
-0.065421999 -0.46926907 -0.68300289 151 142 122
-0.065619625 -0.47068942 -0.68331796 154 144 121
-0.063914679 -0.47029766 -0.68317187 145 145 121
-0.062094517 -0.47062689 -0.68330723 145 151 120
-0.060899228 -0.46941534 -0.68305767 149 149 119
-0.060667753 -0.46838549 -0.6828208 153 146 120
-0.061645485 -0.4690097 -0.68293798 151 146 120
-0.063812047 -0.468532 -0.68279254 145 141 122
-0.064019151 -0.4680742 -0.68269318 144 141 123
-0.061522946 -0.46701056 -0.68248588 155 140 121
-0.063875377 -0.46908486 -0.68291008 145 142 122
-0.064060919 -0.46686891 -0.68243545 143 140 123
-0.059300136 -0.47039694 -0.68335271 159 146 121
-0.058980357 -0.46997416 -0.68325758 164 144 122
-0.059190758 -0.4696314 -0.68315852 162 145 121
-0.058330387 -0.47048956 -0.68342227 170 140 124
-0.057563066 -0.46920893 -0.68312478 181 134 124
-0.059006762 -0.46974504 -0.68319672 163 144 121
-0.059340984 -0.46897125 -0.68299186 162 144 120
-0.058746953 -0.46854827 -0.68290555 170 140 121
-0.059297025 -0.46733558 -0.68260509 169 138 121
-0.057654846 -0.46692368 -0.6825462 186 130 122
-0.059811078 -0.46808973 -0.6827718 161 142 120
-0.060209323 -0.47006577 -0.68323088 150 151 120
-0.053518239 -0.46852082 -0.68316442 138 145 116
-0.05472143 -0.46987262 -0.68343908 152 141 120
-0.054002021 -0.46823785 -0.68307531 154 139 120
-0.054943759 -0.46988517 -0.68343252 157 140 121
-0.052978233 -0.46744391 -0.68292767 137 144 116
-0.055372119 -0.4685061 -0.68306357 174 133 123
-0.05354454 -0.46703768 -0.68279445 150 139 118
-0.053854603 -0.46744809 -0.68288207 154 138 119
-0.055115048 -0.46913689 -0.68324375 169 134 124
-0.055028226 -0.46806061 -0.68296891 170 134 122
-0.050938766 -0.47037435 -0.68384194 134 148 117
-0.049592435 -0.4693068 -0.68371236 156 136 122
-0.049628869 -0.46790317 -0.68333673 144 138 118
-0.049774885 -0.46905631 -0.68362534 150 138 120
-0.050181035 -0.46687281 -0.68303102 147 136 118
-0.052698012 -0.47011411 -0.68358612 103 162 109
-0.051416676 -0.46861157 -0.68333912 124 149 113
-0.051649757 -0.46718535 -0.68297374 139 142 116
-0.05142463 -0.4683325 -0.68327099 127 148 113
-0.05221802 -0.46796584 -0.68311077 128 148 113
-0.0472515 -0.46931398 -0.68397295 163 134 125
-0.047930736 -0.46879169 -0.6837607 164 132 124
-0.045922082 -0.46803445 -0.68377924 143 141 119
-0.04848605 -0.46897283 -0.68374807 169 130 125
-0.046331424 -0.46790868 -0.68370134 145 139 120
-0.046702094 -0.46753797 -0.68355662 148 137 121
-0.046318326 -0.46695262 -0.6834079 160 135 126
-0.046969093 -0.46752128 -0.68352753 147 137 119
-0.044267587 -0.46803677 -0.68397099 140 142 120
-0.043503713 -0.46707231 -0.68378538 152 137 125
-0.065757111 -0.47094318 -0.68340349 154 144 121
-0.064506248 -0.47124696 -0.68342268 141 144 122
-0.064443395 -0.47274926 -0.68388486 134 145 121
-0.062747695 -0.47171614 -0.68359756 146 145 122
-0.062278479 -0.47217074 -0.68374741 146 145 122
-0.061784483 -0.47173208 -0.68363053 148 146 121
-0.061027825 -0.47147116 -0.68357944 147 150 120
-0.060673494 -0.47145301 -0.68358541 147 151 120
-0.05906532 -0.47146386 -0.68366301 155 146 122
-0.058814127 -0.47184327 -0.68378389 157 143 123
-0.059580904 -0.47247615 -0.6839292 155 143 122
-0.060098637 -0.4707866 -0.68341917 149 153 120
-0.059076842 -0.47081378 -0.6834749 160 145 122
-0.056168176 -0.47177947 -0.68389237 167 136 124
-0.056417502 -0.47157413 -0.68382025 173 134 126
-0.053048398 -0.47091702 -0.68378198 106 161 110
-0.052452717 -0.47105542 -0.68387365 108 159 111
-0.085360043 -0.50581408 -0.6960789 142 147 121
-0.082549483 -0.50580502 -0.69579476 156 144 122
-0.08439891 -0.50839329 -0.69709861 145 144 121
-0.085053854 -0.50727105 -0.6966818 140 146 120
-0.084210157 -0.50817835 -0.69697529 146 144 122
-0.084254168 -0.50735497 -0.69660902 146 146 121
-0.085455596 -0.50610054 -0.69621718 140 147 121
-0.081320234 -0.50660378 -0.6960876 158 141 123
-0.081244685 -0.50645298 -0.6960144 159 141 123
-0.082380779 -0.50641358 -0.69605958 153 143 122
-0.082245059 -0.5069322 -0.69628924 152 142 122
-0.083360121 -0.50893772 -0.69725591 148 141 122
-0.08386413 -0.50954992 -0.69755822 149 142 122
-0.08250463 -0.50745374 -0.69654161 148 142 121
-0.082598306 -0.50816059 -0.69686604 149 141 122
-0.082920037 -0.50977165 -0.69761091 148 140 122
-0.060634408 -0.44597059 -0.67889738 131 142 122
-0.060028426 -0.44650269 -0.67891032 128 144 122
-0.059644092 -0.44591305 -0.67885703 126 142 121
-0.06032978 -0.44610584 -0.67889339 130 142 122
-0.061254878 -0.44915175 -0.67928779 132 143 122
-0.060685072 -0.44804934 -0.6791029 133 145 123
-0.061104164 -0.44791034 -0.67909521 129 145 122
-0.062122397 -0.44956139 -0.67937732 129 141 119
-0.056710146 -0.45105219 -0.67955303 113 144 124
-0.057658695 -0.45098892 -0.67954206 121 144 124
-0.058744758 -0.45012522 -0.679398 133 142 122
-0.058146194 -0.44967955 -0.67932427 130 142 122
-0.056837063 -0.45013437 -0.6794005 118 143 122
-0.058654986 -0.4474155 -0.67897546 130 143 121
-0.059124526 -0.44740936 -0.6789813 130 143 122
-0.060387522 -0.44761479 -0.67903048 132 145 123
-0.060369801 -0.44943157 -0.67930514 137 144 124
-0.058001637 -0.44842249 -0.67911851 132 141 120
-0.062433682 -0.45349985 -0.6800164 134 139 119
-0.062277328 -0.4534314 -0.67999572 137 138 120
-0.062626228 -0.45325711 -0.67998195 133 139 119
-0.061292153 -0.45333013 -0.67993659 148 136 124
-0.062843367 -0.45154589 -0.67970312 132 139 117
-0.061139908 -0.45320082 -0.67991126 148 136 124
-0.061790522 -0.45246223 -0.67981493 141 138 121
-0.062075395 -0.45123056 -0.67962879 135 141 119
-0.059438411 -0.45297477 -0.67989218 149 137 125
-0.057391994 -0.45358148 -0.68005389 147 134 122
-0.059955303 -0.45425043 -0.68007773 155 134 126
-0.058674734 -0.45304337 -0.67992753 147 136 123
-0.058155261 -0.45362371 -0.68003613 149 134 123
-0.057134107 -0.45273325 -0.67989993 138 136 122
-0.057282951 -0.45166928 -0.67967683 124 142 123
-0.05763083 -0.45232394 -0.67981386 136 138 123
-0.058915038 -0.45193633 -0.67973197 140 140 123
-0.088978499 -0.4977622 -0.69355601 140 137 122
-0.088140845 -0.4972553 -0.69322079 146 136 123
-0.08651682 -0.49460778 -0.69200569 141 140 119
-0.084891304 -0.49643147 -0.69245738 146 139 119
-0.08487694 -0.49700063 -0.69265896 146 138 120
-0.08441323 -0.49714071 -0.69265199 148 138 119
-0.08495988 -0.49530989 -0.692065 147 138 119
-0.084010959 -0.49803704 -0.69292307 149 138 119
-0.085687898 -0.49774778 -0.69305134 149 137 121
-0.087843709 -0.49706262 -0.6930986 147 136 122
-0.087568268 -0.49654135 -0.69286394 145 138 121
-0.08607237 -0.49731275 -0.69294226 147 137 121
-0.087405793 -0.49708679 -0.69304579 147 137 122
-0.08101248 -0.49790952 -0.69262636 135 143 119
-0.081572071 -0.4974255 -0.69250751 138 140 120
-0.080744706 -0.49648499 -0.69211578 135 140 120
-0.081051409 -0.49634066 -0.69209212 138 139 121
-0.083939716 -0.49779746 -0.6928305 149 137 119
-0.083225608 -0.49605659 -0.69215471 148 138 120
-0.082952403 -0.4966459 -0.69234473 146 138 120
-0.082424231 -0.49625176 -0.69216418 144 138 120
-0.081832059 -0.49632138 -0.69214457 141 138 120
-0.076902486 -0.4972218 -0.69216186 143 144 121
-0.079216845 -0.49780437 -0.69247109 134 144 119
-0.076833934 -0.49694225 -0.69206285 142 144 121
-0.077656887 -0.49650878 -0.6919533 139 142 121
-0.078589536 -0.49606359 -0.69184494 137 141 121
-0.079148218 -0.49688435 -0.69215262 134 143 120
-0.073382936 -0.4974063 -0.69203216 160 141 122
-0.075705431 -0.49779716 -0.69229656 150 144 122
-0.075865023 -0.49762133 -0.69224584 149 144 122
-0.069277346 -0.49691957 -0.69194597 150 143 120
-0.07134597 -0.49774683 -0.69216579 163 139 122
-0.072158799 -0.49760047 -0.69206482 165 139 122
-0.064925894 -0.49697629 -0.69212526 173 139 127
-0.064935066 -0.49754757 -0.69235772 176 139 126
-0.065099612 -0.49748182 -0.69232589 174 139 126
-0.066423774 -0.49635696 -0.6918276 159 142 124
-0.06713789 -0.49734405 -0.69220722 149 144 122
-0.065909259 -0.49663243 -0.69195515 162 141 125
-0.061597507 -0.49712417 -0.69232708 156 140 121
-0.06211235 -0.49678457 -0.69215816 160 140 123
-0.062862948 -0.49788785 -0.69258732 169 139 123
-0.063114204 -0.49645382 -0.69198108 166 140 125
-0.062854782 -0.49652421 -0.6920203 165 140 125
-0.064363509 -0.49703026 -0.69216537 179 138 127
-0.083996423 -0.49914405 -0.6933406 155 137 121
-0.086664006 -0.49875182 -0.69354761 149 137 123
-0.086758621 -0.49983642 -0.69393939 146 139 125
-0.087768897 -0.49856496 -0.6936385 150 136 124
-0.087045833 -0.49858987 -0.69354504 149 136 123
-0.086025916 -0.49942601 -0.69369268 146 138 123
-0.086853795 -0.49918297 -0.69372487 147 138 124
-0.081437334 -0.49988356 -0.69339889 149 140 121
-0.080118708 -0.49815771 -0.69263935 131 144 119
-0.08198148 -0.50041604 -0.69364679 155 138 122
-0.080927923 -0.49905849 -0.69304776 141 142 120
-0.081155978 -0.49976912 -0.69332933 148 140 121
-0.08212883 -0.49882933 -0.69306403 145 140 120
-0.082688987 -0.49911904 -0.69322103 149 139 121
-0.083098449 -0.49844119 -0.69299817 147 139 120
-0.083714813 -0.49925861 -0.69336009 155 137 121
-0.083139017 -0.50034988 -0.69372582 159 138 122
-0.082588285 -0.49954188 -0.69337296 151 139 121
-0.077837676 -0.50026852 -0.6933015 155 140 122
-0.077439442 -0.5016734 -0.69380361 149 140 119
-0.079326615 -0.50129491 -0.69374394 161 138 123
-0.079029135 -0.50115782 -0.69368064 160 138 123
-0.076542929 -0.49924269 -0.69286746 149 144 121
-0.076676555 -0.49873382 -0.69268519 151 144 122
-0.076655693 -0.49842933 -0.6925723 150 144 122
-0.079867586 -0.50133461 -0.69378358 160 138 123
-0.076817594 -0.49851352 -0.69261068 150 144 122
-0.078941211 -0.49884793 -0.69283313 143 143 121
-0.077678189 -0.49844974 -0.6926282 146 143 122
-0.0790141 -0.49899307 -0.69288951 144 142 121
-0.074418604 -0.50113177 -0.69351447 139 142 117
-0.072533965 -0.49886447 -0.69257528 158 139 121
-0.072932154 -0.49941179 -0.69280207 153 140 120
-0.074913159 -0.50079525 -0.69337386 149 141 118
-0.073931769 -0.50149071 -0.69366431 130 144 116
-0.074758649 -0.49907583 -0.69272715 154 141 121
-0.075556137 -0.50035572 -0.69323552 148 142 119
-0.07573165 -0.50010478 -0.69315064 147 142 119
-0.075879335 -0.50088179 -0.69344419 145 142 119
-0.074474648 -0.4996084 -0.69291121 154 140 120
-0.073947996 -0.49848163 -0.6924715 159 140 122
-0.069012031 -0.49920934 -0.69290274 128 148 117
-0.068537891 -0.50131011 -0.69380492 110 153 117
-0.068623677 -0.50041533 -0.69342732 117 152 118
-0.069915012 -0.50022322 -0.69327325 120 149 116
-0.069661982 -0.49973083 -0.69308269 124 148 116
-0.069724657 -0.50126487 -0.69371802 112 151 116
-0.069484681 -0.49895957 -0.69277179 131 147 117
-0.07182914 -0.49841434 -0.69241321 159 140 121
-0.072051413 -0.49810827 -0.69227356 165 139 122
-0.070538647 -0.49917305 -0.69280112 137 145 118
-0.071366929 -0.49892479 -0.69265133 147 142 119
-0.071642734 -0.49884859 -0.69260418 151 141 120
-0.065831162 -0.50055331 -0.69357419 152 144 122
-0.067054518 -0.50177109 -0.69404382 127 149 120
-0.066534378 -0.50020325 -0.69340992 143 147 121
-0.064488649 -0.49986431 -0.69332635 176 138 125
-0.065757073 -0.50020635 -0.69343275 155 143 123
-0.066956677 -0.49898103 -0.69288814 147 145 121
-0.068117544 -0.50089288 -0.69364882 117 152 119
-0.06809929 -0.49922594 -0.69295508 130 149 118
-0.068030566 -0.50085545 -0.69363588 118 152 118
-0.067511149 -0.49887967 -0.69282889 140 146 119
-0.068063386 -0.49901336 -0.69286764 133 148 118
-0.061897974 -0.50102508 -0.69389194 157 142 122
-0.063050166 -0.50194997 -0.69422323 163 141 123
-0.062312033 -0.50181931 -0.69419014 160 142 123
-0.060596034 -0.50178164 -0.69421637 154 146 124
-0.063252024 -0.49845734 -0.69280499 172 138 124
-0.063973106 -0.49849597 -0.69278532 179 138 125
-0.063584544 -0.4994902 -0.69321561 170 138 123
-0.061728347 -0.49808767 -0.69272739 158 139 121
-0.061527375 -0.49825969 -0.69280851 155 139 120
-0.056700569 -0.49845988 -0.69312906 152 145 122
-0.057680823 -0.50103086 -0.6941222 160 141 124
-0.058105916 -0.49967766 -0.69352669 153 146 123
-0.057450231 -0.50171745 -0.69442546 164 139 124
-0.058084164 -0.50063652 -0.69392705 157 143 123
-0.058527689 -0.50061089 -0.69388211 156 145 123
-0.058818728 -0.50013602 -0.69366467 152 146 123
-0.058977216 -0.50033224 -0.69373292 152 146 123
-0.056402639 -0.49987623 -0.69374311 159 141 123
-0.055272672 -0.49862465 -0.69332021 153 141 122
-0.056117978 -0.49990386 -0.69377917 159 141 123
-0.056028448 -0.49877825 -0.69331884 154 143 122
-0.08517316 -0.50442493 -0.69548547 147 145 123
-0.085841335 -0.50454241 -0.69562703 143 145 123
-0.084268272 -0.50374293 -0.69512087 158 141 123
-0.08442311 -0.50364524 -0.69510067 158 141 123
-0.083921358 -0.50436544 -0.69532382 157 143 122
-0.083814688 -0.50495613 -0.69554359 154 144 122
-0.07638251 -0.50371677 -0.69460428 159 138 122
-0.076800406 -0.50279361 -0.69423562 148 141 119
-0.07914035 -0.50272572 -0.69430715 160 138 122
-0.079150006 -0.50306487 -0.69445151 160 139 122
-0.078943416 -0.50418633 -0.69491875 160 140 122
-0.078106798 -0.50314558 -0.69444144 154 140 121
-0.072676636 -0.50235391 -0.69402689 117 145 115
-0.074533924 -0.50270075 -0.69416988 136 142 118
-0.074484214 -0.50217569 -0.69394922 130 144 116
-0.073793091 -0.50327963 -0.69441438 135 142 119
-0.071642287 -0.50277495 -0.69428205 119 145 115
-0.071312398 -0.50200409 -0.69393754 109 149 114
-0.066745527 -0.50270855 -0.69444752 129 148 120
-0.06395489 -0.50285292 -0.69458443 161 139 122
-0.063859269 -0.50356269 -0.6948874 158 140 122
-0.063598402 -0.50332391 -0.69479275 157 140 122
-0.062582672 -0.50222468 -0.6943509 159 142 123
-0.062422652 -0.50239313 -0.69442624 157 142 123
-0.05798652 -0.50253356 -0.69475251 159 140 124
-0.05845451 -0.50303441 -0.69494975 154 141 124
-0.039656889 -0.46642789 -0.6842317 132 137 120
-0.044979736 -0.47011858 -0.68454379 107 153 108
-0.046025869 -0.46915504 -0.68407327 150 139 122
-0.045350175 -0.47059941 -0.68464833 107 153 107
-0.042416826 -0.46754992 -0.68410605 134 140 118
-0.043528941 -0.46802139 -0.68408346 135 142 119
-0.044252932 -0.46961108 -0.68449193 110 151 109
-0.043061756 -0.46866265 -0.68436933 118 146 112
-0.042160574 -0.47017881 -0.68500227 148 136 122
-0.041426145 -0.47046623 -0.68520951 166 130 128
-0.041986868 -0.46950898 -0.68481141 144 137 121
-0.041914374 -0.46891376 -0.68462908 140 138 120
-0.041279651 -0.46900946 -0.68475854 154 133 124
-0.037660364 -0.47021466 -0.68579179 138 138 118
-0.03891306 -0.47022697 -0.68557441 152 133 123
-0.037908435 -0.46766382 -0.68496042 134 136 122
-0.039425984 -0.46964806 -0.68530506 156 131 126
-0.039861083 -0.47018352 -0.68539357 163 130 128
-0.03974653 -0.46851879 -0.68488485 150 133 125
-0.039320007 -0.46811327 -0.68483526 144 134 124
-0.038300965 -0.46791357 -0.68496698 139 135 123
-0.040709302 -0.46778575 -0.68446064 146 134 123
-0.040541105 -0.46964264 -0.68509692 165 129 128
-0.039144479 -0.46849412 -0.68499297 147 133 125
-0.072266877 -0.47349888 -0.68448424 122 155 110
-0.068457983 -0.47442839 -0.68448567 178 123 130
-0.067426071 -0.47446531 -0.68446541 167 128 128
-0.066959761 -0.4743633 -0.68442506 161 130 127
-0.065636031 -0.47382152 -0.68423462 145 138 124
-0.068325855 -0.47391942 -0.68434298 179 125 129
-0.067000918 -0.47360256 -0.68421316 163 132 126
-0.067336306 -0.47331008 -0.68414664 167 132 126
-0.061370287 -0.47328088 -0.68410403 146 144 122
-0.063797869 -0.4743562 -0.68438256 128 146 120
-0.061032277 -0.47375232 -0.68424338 148 142 122
-0.064203523 -0.47412628 -0.68430644 128 145 120
-0.062504977 -0.47300392 -0.68400055 141 145 122
-0.064164437 -0.4740302 -0.68427825 128 146 120
-0.058702856 -0.47441292 -0.68453205 148 140 123
-0.05726039 -0.47454843 -0.68464553 141 144 122
-0.056888048 -0.47405311 -0.68451965 146 142 123
-0.058814805 -0.47370145 -0.68431801 157 137 124
-0.059476636 -0.47305101 -0.68409908 156 140 123
-0.06042026 -0.4729217 -0.68401718 152 143 122
-0.058764722 -0.47305459 -0.68413389 160 138 124
-0.052745372 -0.47168335 -0.68404537 111 157 113
-0.053103555 -0.47257739 -0.68430525 123 151 117
-0.052999429 -0.47254664 -0.6843031 124 150 117
-0.054359127 -0.47344208 -0.68448955 131 147 119
-0.054288637 -0.47270915 -0.68426067 120 153 116
-0.053903729 -0.4719421 -0.68405604 123 152 116
-0.054848075 -0.47198817 -0.68402064 140 146 119
-0.056562494 -0.47424555 -0.68459266 141 144 122
-0.051539626 -0.47239855 -0.68440944 150 138 123
-0.05267508 -0.473885 -0.68475783 148 138 124
-0.051982269 -0.47216517 -0.68428499 136 145 120
-0.050519552 -0.47079778 -0.68401152 148 141 121
-0.050558735 -0.47223356 -0.68446869 171 130 128
-0.050998952 -0.47164863 -0.68423015 151 139 123
-0.051898863 -0.47447506 -0.68504578 157 134 126
-0.050719913 -0.47423905 -0.68511862 154 136 124
-0.049316049 -0.47243908 -0.68469518 168 132 126
-0.049040657 -0.47366843 -0.68514359 153 138 122
-0.050177485 -0.47249988 -0.68460441 172 130 128
-0.050170094 -0.47315782 -0.68482637 164 133 126
-0.045001939 -0.47316855 -0.68556762 98 152 108
-0.045955587 -0.47352961 -0.68554819 109 148 111
-0.048365097 -0.47420585 -0.68541926 135 145 117
-0.045360722 -0.47171089 -0.68502098 101 154 106
-0.045511506 -0.47139096 -0.68489027 102 155 106
-0.047004845 -0.47357363 -0.68540728 120 148 113
-0.047677916 -0.47320008 -0.68518156 130 146 115
-0.047168776 -0.47166657 -0.68474078 137 143 116
-0.047792967 -0.47070479 -0.68432665 162 134 123
-0.046956129 -0.47153243 -0.68472677 133 144 115
-0.047444228 -0.47275433 -0.68506593 130 146 115
-0.042390708 -0.47437412 -0.6862902 101 154 111
-0.042866196 -0.47389281 -0.68609089 112 148 114
-0.041040204 -0.47314399 -0.68607837 125 147 118
-0.041382402 -0.47452658 -0.68645281 97 159 110
-0.04234191 -0.47440702 -0.6863057 100 154 111
-0.04407068 -0.47171494 -0.68521935 114 147 111
-0.044176977 -0.47120458 -0.68503022 111 150 109
-0.044899601 -0.47148058 -0.68501168 96 156 104
-0.043735329 -0.4718487 -0.68531656 121 145 114
-0.044477131 -0.47219786 -0.68531984 106 150 109
-0.044747103 -0.47330371 -0.68565232 101 150 109
-0.040590074 -0.47455907 -0.68658477 98 158 111
-0.03808457 -0.47335279 -0.68668151 120 144 115
-0.038543623 -0.47437316 -0.68691289 115 147 114
-0.037807792 -0.47350299 -0.68678057 122 143 115
-0.038196281 -0.47195688 -0.68622553 122 145 114
-0.038900707 -0.47235286 -0.68621778 117 148 113
-0.039372917 -0.47183806 -0.68598014 134 141 118
-0.039521974 -0.4711937 -0.68576086 150 135 123
-0.039559841 -0.47076863 -0.68562686 159 132 125
-0.04080341 -0.47106242 -0.6854952 167 130 129
-0.040799078 -0.47395042 -0.68636101 105 155 113
-0.077115551 -0.47841197 -0.68602502 156 137 121
-0.072361857 -0.47638288 -0.68524963 119 152 113
-0.074243337 -0.47807649 -0.68578041 140 142 119
-0.072347969 -0.47548985 -0.68500435 118 156 110
-0.072286002 -0.47596556 -0.68513256 117 154 112
-0.073365487 -0.4780212 -0.68573421 131 144 119
-0.072428331 -0.47582597 -0.6850993 119 154 112
-0.073026866 -0.47462353 -0.68480819 121 154 110
-0.069083415 -0.47817251 -0.68565178 103 147 116
-0.068797 -0.47619611 -0.68503112 147 132 125
-0.069444239 -0.47705775 -0.68531364 132 138 122
-0.070041068 -0.47712958 -0.68534952 135 137 122
-0.069406629 -0.47694987 -0.68527919 134 136 122
-0.071098395 -0.47663006 -0.68524468 137 139 121
-0.072087958 -0.47726244 -0.68547678 121 147 117
-0.071810633 -0.47625214 -0.68518335 125 148 116
-0.071413524 -0.47596422 -0.68508089 130 145 117
-0.071164213 -0.47584745 -0.68503404 134 144 118
-0.065225638 -0.47817379 -0.68561357 123 147 116
-0.06667874 -0.47757608 -0.68542647 106 149 115
-0.066676997 -0.47830594 -0.68566447 108 149 115
-0.064638063 -0.47602859 -0.68491089 125 146 118
-0.065277033 -0.47767559 -0.68545133 122 147 116
-0.065667741 -0.4754734 -0.68474078 121 145 119
-0.067139558 -0.47529328 -0.68471533 147 134 125
-0.06656722 -0.47564745 -0.6848135 130 140 121
-0.06787587 -0.47687733 -0.68522286 121 141 119
-0.067942761 -0.47780511 -0.68551248 100 149 115
-0.062397249 -0.4768227 -0.68519509 142 142 120
-0.061691213 -0.47738206 -0.68538976 143 143 123
-0.062899336 -0.47754225 -0.68542421 140 144 120
-0.061044343 -0.47566381 -0.68483436 148 140 123
-0.061939459 -0.47653678 -0.68510801 144 141 122
-0.062760361 -0.47575071 -0.68484008 138 143 120
-0.063653007 -0.47489408 -0.68454975 130 144 120
-0.061369963 -0.4750897 -0.68464166 147 140 122
-0.061675452 -0.4746201 -0.68448472 143 140 122
-0.063235603 -0.47581586 -0.68485546 135 143 120
-0.062605821 -0.4757725 -0.68484908 139 142 120
-0.058976591 -0.47806346 -0.68569529 150 141 124
-0.058601841 -0.47695872 -0.68536174 144 143 124
-0.057659891 -0.47747743 -0.68555927 152 138 121
-0.057169117 -0.4771854 -0.68548548 153 137 120
-0.059217706 -0.47748002 -0.68550301 145 143 125
-0.058300778 -0.47500017 -0.68473864 143 142 123
-0.059194721 -0.47598231 -0.68501592 144 143 124
-0.060253054 -0.47509506 -0.68466991 150 139 124
-0.059007972 -0.47584277 -0.68497962 144 143 124
-0.059951089 -0.47537553 -0.68477762 148 140 124
-0.058439486 -0.47604087 -0.68507379 142 144 124
-0.054596007 -0.47709656 -0.68561876 161 134 122
-0.054416023 -0.47806939 -0.68592155 159 137 121
-0.053052031 -0.47550911 -0.68523431 159 134 126
-0.053452093 -0.47669446 -0.68556631 158 135 124
-0.052977979 -0.47746903 -0.68582714 157 139 123
-0.054787256 -0.47648016 -0.6854198 161 133 123
-0.056217577 -0.4764311 -0.68529892 152 137 121
-0.055748869 -0.47614375 -0.68524313 152 137 121
-0.056234486 -0.47475806 -0.68477184 141 144 122
-0.054877006 -0.4766494 -0.68546635 161 132 122
-0.055971269 -0.47631937 -0.68528199 153 137 121
-0.050748888 -0.47754925 -0.68613183 143 145 119
-0.049352143 -0.47611377 -0.68588066 137 145 118
-0.048936032 -0.47761402 -0.68640339 126 149 117
-0.049904454 -0.47736752 -0.68619263 136 146 119
-0.051900014 -0.47805449 -0.68612868 150 144 120
-0.049625203 -0.47670808 -0.68602699 137 146 118
-0.052670151 -0.47815543 -0.68605596 155 142 121
-0.051001903 -0.47585258 -0.68557984 149 140 122
-0.049934339 -0.47519302 -0.68551958 145 142 121
-0.051039312 -0.47544527 -0.6854527 150 139 122
-0.052028045 -0.47645158 -0.68562722 154 139 123
-0.051704045 -0.47467998 -0.68513721 154 135 125
-0.046576332 -0.47629541 -0.68634331 109 149 113
-0.046953429 -0.47839028 -0.68689483 112 148 115
-0.045151085 -0.47631159 -0.68652493 103 147 112
-0.046981677 -0.47704592 -0.68650734 111 149 114
-0.045815017 -0.47691911 -0.686616 106 147 113
-0.046658166 -0.4777647 -0.6867528 110 148 114
-0.046676535 -0.47528556 -0.6860162 115 147 113
-0.046853159 -0.47520763 -0.68596578 117 147 114
-0.04855419 -0.47704172 -0.68628168 125 148 117
-0.048293527 -0.4747386 -0.68560648 135 144 118
-0.048307247 -0.47519982 -0.68574744 132 145 117
-0.048283976 -0.47730273 -0.68640268 121 149 116
-0.042241648 -0.47616193 -0.68683559 100 153 112
-0.04212562 -0.47681481 -0.68706882 105 149 115
-0.042653635 -0.47667554 -0.68693888 101 152 113
-0.043132029 -0.47720665 -0.68703741 103 149 113
-0.042938236 -0.47706184 -0.68702066 103 150 113
-0.043654602 -0.47524899 -0.68639684 99 151 110
-0.044128768 -0.47765797 -0.68702996 101 148 112
-0.042610921 -0.47513655 -0.68648571 97 155 110
-0.044551741 -0.47674507 -0.68672013 101 147 112
-0.044027247 -0.47751853 -0.68700188 101 148 112
-0.043228298 -0.47561753 -0.68655145 98 153 111
-0.038787872 -0.47530806 -0.68717021 117 144 117
-0.039883826 -0.4753429 -0.68697494 109 150 115
-0.039765876 -0.47465783 -0.68677187 105 153 112
-0.040481281 -0.47655034 -0.68725932 113 146 119
-0.039566182 -0.47467178 -0.68681413 106 152 113
-0.081366517 -0.48177031 -0.68739021 127 143 115
-0.081251711 -0.48179439 -0.68738532 126 144 114
-0.080767974 -0.48185697 -0.68735325 127 146 114
-0.076645851 -0.47940201 -0.68625695 154 139 120
-0.076917544 -0.48138911 -0.68681246 138 143 119
-0.077287629 -0.48045313 -0.68660766 144 143 118
-0.078919053 -0.48168147 -0.68711823 133 147 114
-0.077865548 -0.48057243 -0.68670517 143 143 117
-0.078928843 -0.48096287 -0.68692124 137 145 114
-0.079107061 -0.48091882 -0.68692392 137 145 115
-0.077825993 -0.47990963 -0.68651867 147 142 117
-0.073160492 -0.47969997 -0.68618453 123 145 120
-0.073579483 -0.48179621 -0.68680716 127 147 120
-0.075454667 -0.48230004 -0.68696177 131 145 120
-0.072805844 -0.47910351 -0.68600667 121 144 120
-0.072353609 -0.47928736 -0.68605995 121 145 120
-0.074537218 -0.48177236 -0.6868028 129 145 120
-0.075313419 -0.47940847 -0.68617421 145 140 120
-0.073138528 -0.4787603 -0.68592632 127 143 120
-0.075513028 -0.48007184 -0.68635637 143 141 121
-0.074972913 -0.48109576 -0.68660754 129 143 120
-0.07524278 -0.48037982 -0.68642807 137 142 120
-0.075555079 -0.4811911 -0.68665326 135 142 121
-0.06911926 -0.48047695 -0.68633825 123 143 119
-0.07037653 -0.48099232 -0.68652117 119 148 118
-0.070961311 -0.48217267 -0.68688321 137 144 121
-0.069266804 -0.47979683 -0.68614161 107 149 116
-0.069172643 -0.48128316 -0.6865769 140 138 122
-0.071152009 -0.48174837 -0.68676305 126 147 119
-0.07182809 -0.48067042 -0.68645972 120 148 119
-0.06980601 -0.47907227 -0.68593985 102 149 116
-0.070407867 -0.48034748 -0.68633163 109 150 117
-0.07128565 -0.48101065 -0.68654823 116 150 118
-0.068857163 -0.47860584 -0.68578005 94 150 114
-0.071749628 -0.47900116 -0.68596309 116 146 119
-0.066249728 -0.48146814 -0.68661159 173 131 124
-0.066075332 -0.48217997 -0.68682939 189 127 127
-0.064644225 -0.47910655 -0.68589991 142 143 118
-0.064771809 -0.48065323 -0.68637055 171 135 122
-0.064563774 -0.47885543 -0.68582386 138 145 117
-0.067153305 -0.47973648 -0.68609488 130 141 119
-0.066600069 -0.47961384 -0.68605572 133 142 119
-0.066369347 -0.47974822 -0.68609411 138 140 120
-0.06805627 -0.48130116 -0.68656033 154 133 124
-0.067811906 -0.4805178 -0.68632841 140 137 122
-0.062510252 -0.48101652 -0.68652052 169 137 124
-0.060894206 -0.47915849 -0.68597507 147 144 126
-0.061087135 -0.4804768 -0.68639141 137 148 122
-0.062343001 -0.48240155 -0.68696922 147 145 119
-0.062831998 -0.48187697 -0.68678617 168 138 123
-0.063008353 -0.48146087 -0.68664759 178 134 125
-0.062536746 -0.48014134 -0.68624508 170 136 126
-0.061304022 -0.47875386 -0.68584102 147 143 125
-0.063673966 -0.48039275 -0.68630457 171 135 124
-0.063650802 -0.48081052 -0.68643212 179 134 125
-0.062138267 -0.47972664 -0.68612474 163 138 126
-0.057705268 -0.48084193 -0.68661219 148 140 119
-0.058103856 -0.48026049 -0.68642437 139 143 116
-0.058172643 -0.48063478 -0.68653768 139 144 116
-0.056810435 -0.48182151 -0.68693376 168 134 124
-0.058146682 -0.48071533 -0.68656301 139 144 117
-0.058381397 -0.47908041 -0.68604004 149 140 120
-0.060108334 -0.47953528 -0.68612248 135 147 122
-0.058732472 -0.47921541 -0.68607038 145 141 120
-0.057733327 -0.47904062 -0.68605101 152 137 119
-0.057915971 -0.47876853 -0.68595719 155 136 120
-0.059843644 -0.47853389 -0.68581152 149 142 125
-0.053824298 -0.48229218 -0.68732029 168 133 123
-0.054266848 -0.48102042 -0.68685871 165 137 123
-0.053568728 -0.48237461 -0.68736964 168 133 122
-0.054085717 -0.48144814 -0.68701673 165 136 123
-0.052856263 -0.47944853 -0.68645608 158 141 121
-0.053710595 -0.47919303 -0.68630552 158 141 121
-0.05524468 -0.47997835 -0.68645513 164 137 122
-0.056383383 -0.48102471 -0.68670839 169 133 123
-0.055166826 -0.4790349 -0.68617016 162 136 120
-0.055743609 -0.47908863 -0.68615228 163 134 120
-0.056524236 -0.47881484 -0.68602169 165 132 119
-0.050488822 -0.48240575 -0.68776512 120 143 114
-0.049493622 -0.48070741 -0.6873371 115 147 115
-0.049866289 -0.48128116 -0.68747669 118 145 115
-0.049723178 -0.48037419 -0.68719369 123 147 116
-0.049120296 -0.47930107 -0.68691945 120 149 117
-0.050299078 -0.48078606 -0.68725079 131 144 117
-0.051528811 -0.47897089 -0.68647474 146 144 120
-0.052175134 -0.4816744 -0.6872856 159 137 121
-0.052614585 -0.47966075 -0.68655384 157 140 121
-0.05192342 -0.48114353 -0.68714368 156 138 121
-0.051893663 -0.47911611 -0.68647248 149 143 120
-0.046659376 -0.48000479 -0.68748289 113 145 116
-0.048147015 -0.48105234 -0.68763566 100 149 113
-0.048541978 -0.47903374 -0.6869089 116 151 116
-0.047829431 -0.48023644 -0.68740517 108 147 115
-0.048210211 -0.48117542 -0.68766838 99 149 113
-0.047156248 -0.47933227 -0.68719155 116 147 116
-0.04757715 -0.47906199 -0.68704462 117 148 116
-0.045889284 -0.479837 -0.68752569 113 144 116
-0.080754012 -0.4828932 -0.68764287 125 147 113
-0.080466054 -0.48336324 -0.68773931 127 148 114
-0.080690563 -0.48269793 -0.6875838 125 148 113
-0.079089716 -0.48336753 -0.68762928 134 146 115
-0.07842239 -0.48434091 -0.68784308 141 142 119
-0.077352732 -0.48296106 -0.6873129 135 143 119
-0.07735198 -0.48284671 -0.68727505 134 144 118
-0.078366242 -0.48274276 -0.68735653 132 146 116
-0.079491377 -0.48254308 -0.687419 128 149 113
-0.075416826 -0.48315746 -0.68725318 137 142 121
-0.074432366 -0.48490775 -0.68784475 151 138 123
-0.074845687 -0.4846361 -0.68774945 149 138 123
-0.075079292 -0.48476979 -0.68779045 152 137 124
-0.073719926 -0.48326686 -0.68729347 135 145 120
-0.072431408 -0.48261198 -0.68705702 128 149 119
-0.073243037 -0.48398161 -0.68754625 139 143 121
-0.072799452 -0.48431909 -0.68766499 142 143 121
-0.072006032 -0.4838405 -0.68747991 138 146 120
-0.071632877 -0.48490983 -0.68784088 148 143 122
-0.071853012 -0.48408878 -0.68756032 141 146 121
-0.071621582 -0.48325148 -0.68725067 136 149 120
-0.068606243 -0.4843275 -0.68751138 166 140 123
-0.070793264 -0.48269179 -0.68703926 143 143 122
-0.06936606 -0.48270369 -0.68700767 161 134 125
-0.068702996 -0.48301494 -0.68709135 169 133 125
-0.069813453 -0.48303139 -0.68712425 155 139 123
-0.066285402 -0.48424372 -0.68750548 179 133 126
-0.066223115 -0.48535243 -0.68786311 176 140 123
-0.067319289 -0.48532879 -0.68784118 171 143 122
-0.065858938 -0.48473492 -0.68766916 179 136 125
-0.068335325 -0.48317331 -0.68713409 173 131 126
-0.067282587 -0.48253313 -0.68693417 183 127 128
-0.065304026 -0.4841722 -0.68748921 185 132 126
-0.064879507 -0.48356912 -0.68729061 194 130 126
-0.066980809 -0.48315811 -0.68714368 180 129 127
-0.066623032 -0.48284006 -0.68703955 185 128 127
-0.060721375 -0.48523313 -0.68788302 163 138 121
-0.063470945 -0.48314127 -0.68715996 195 129 125
-0.064291105 -0.4843401 -0.68755084 190 132 126
-0.063442439 -0.48431706 -0.6875515 186 133 125
-0.062985443 -0.48439759 -0.68758279 182 133 124
-0.062307306 -0.48248369 -0.68699569 147 145 119
-0.063059174 -0.48295417 -0.68711549 180 134 123
-0.062478848 -0.48357424 -0.68732178 177 134 123
-0.059023701 -0.48475191 -0.68777776 139 146 118
-0.060042042 -0.48448169 -0.68766975 140 146 118
-0.057417221 -0.48278537 -0.68721557 151 141 122
-0.057698283 -0.48276985 -0.68720424 145 143 121
-0.056361254 -0.48354602 -0.68749547 154 140 122
-0.055614565 -0.48293555 -0.68738306 170 134 124
-0.054961864 -0.48329693 -0.68755984 168 134 123
-0.054409947 -0.48321733 -0.6875909 173 132 123
-0.056520592 -0.48245218 -0.68714303 173 132 125
-0.052416023 -0.4828569 -0.68765575 164 133 121
0 0 0 1 0 0 0 1 0 0 0 1 0 0 0 0 0 977 1 0 0
