ply
format ascii 1.0
comment PCL generated
element vertex 726
property float x
property float y
property float z
property uchar red
property uchar green
property uchar blue
element camera 1
property float view_px
property float view_py
property float view_pz
property float x_axisx
property float x_axisy
property float x_axisz
property float y_axisx
property float y_axisy
property float y_axisz
property float z_axisx
property float z_axisy
property float z_axisz
property float focal
property float scalex
property float scaley
property float centerx
property float centery
property int viewportx
property int viewporty
property float k1
property float k2
end_header
0.29388288 -0.32562506 -0.86835599 47 135 128
0.29375184 -0.32446015 -0.86774009 47 134 128
0.29377919 -0.32479456 -0.86789566 47 134 128
0.29394487 -0.3243669 -0.86811215 46 134 128
0.295414 -0.32481572 -0.8710829 42 138 127
0.29505929 -0.32560587 -0.87069976 42 139 126
0.29498023 -0.32591411 -0.87067384 42 139 126
0.29484358 -0.32751212 -0.87068951 43 137 126
0.29487446 -0.32708451 -0.87069511 43 137 126
0.29481044 -0.32700306 -0.87055147 43 137 126
0.29332688 -0.32769993 -0.86780703 48 134 128
0.29368883 -0.32803917 -0.86852419 47 134 127
0.29338747 -0.32886952 -0.86822277 46 134 127
0.29353118 -0.3294957 -0.86863804 45 134 126
0.29372418 -0.32822454 -0.8686347 47 134 127
0.29472607 -0.32994542 -0.87082738 44 136 125
0.29495212 -0.32905433 -0.87112308 43 137 125
0.29470888 -0.33045754 -0.87107337 44 136 125
0.29387152 -0.33170873 -0.87041104 43 134 126
0.294718 -0.33087096 -0.87134975 44 136 125
0.29379249 -0.33210933 -0.87052655 43 134 125
0.29378447 -0.33251137 -0.8707661 42 133 126
0.2938652 -0.33226815 -0.87075269 43 133 126
0.29341489 -0.33239868 -0.8700546 42 133 126
0.29284602 -0.33320212 -0.86867356 42 134 126
0.29325727 -0.33386362 -0.87017792 42 132 126
0.29272813 -0.33232081 -0.86801082 42 134 126
0.29288834 -0.33311215 -0.86877543 42 134 126
0.29323357 -0.33265346 -0.869699 42 133 126
0.29313433 -0.33685604 -0.87070847 40 131 125
0.29285991 -0.33636937 -0.8695817 39 132 125
0.2929638 -0.33626816 -0.86990368 40 132 125
0.29306906 -0.33621764 -0.87024909 40 132 125
0.29340819 -0.33566234 -0.87121785 41 131 126
0.29261196 -0.33611864 -0.86870265 39 133 125
0.2929416 -0.33487973 -0.86944222 40 133 126
0.29245567 -0.33466357 -0.86787581 40 134 125
0.29245132 -0.33697355 -0.86840081 38 134 125
0.29265237 -0.33415547 -0.86837107 41 133 126
0.29262796 -0.33512703 -0.86852139 40 133 125
0.29264349 -0.34121564 -0.87087983 36 133 122
0.29296583 -0.33973873 -0.87142783 38 131 124
0.29257241 -0.34038123 -0.86986196 38 132 124
0.29226077 -0.34128326 -0.86892551 38 133 123
0.29302472 -0.33868024 -0.87091815 39 131 125
0.29245016 -0.34172526 -0.87026018 36 132 122
0.29197362 -0.34127954 -0.86764836 38 134 123
0.29229942 -0.33841196 -0.86828977 38 133 124
0.29264393 -0.33934933 -0.86963898 38 132 124
0.2921524 -0.3379969 -0.86771148 38 133 124
0.29239064 -0.33939695 -0.86877155 38 132 124
0.29217702 -0.34020081 -0.86816895 38 133 124
0.29244387 -0.34298527 -0.87044036 36 132 123
0.29235169 -0.34378856 -0.87020963 37 131 123
0.29216173 -0.34557006 -0.86980736 38 131 122
0.29231265 -0.3438988 -0.86997825 37 131 123
0.29249924 -0.34380859 -0.87133831 36 132 120
0.29239079 -0.3420527 -0.87002879 36 132 122
0.29195178 -0.34443006 -0.86795366 38 134 125
0.29228619 -0.34198815 -0.86947423 37 131 123
0.29212171 -0.34285569 -0.86869442 37 134 124
0.29222885 -0.34363848 -0.86933076 37 133 124
0.29242098 -0.34200957 -0.87018299 36 132 122
0.29178965 -0.3494845 -0.86779654 35 135 127
0.29216382 -0.34822837 -0.87087566 35 132 122
0.29221395 -0.34700707 -0.87064528 36 133 121
0.2922377 -0.34739384 -0.87112552 36 132 121
0.29210219 -0.34857658 -0.87045467 35 133 123
0.29191333 -0.34796473 -0.86842531 36 135 124
0.29205924 -0.34754273 -0.86945111 36 133 123
0.2919884 -0.34696135 -0.86880672 37 134 124
0.291996 -0.34767076 -0.86899626 37 133 124
0.29182658 -0.3485125 -0.86787033 36 135 126
0.29194051 -0.35139295 -0.87137985 28 132 124
0.29164079 -0.3518382 -0.8695206 30 132 127
0.29160374 -0.35124901 -0.86837792 31 135 127
0.2913844 -0.35234502 -0.86773801 30 133 129
0.29138112 -0.35237491 -0.86774814 30 133 129
0.29183304 -0.35050586 -0.86963969 32 133 125
0.29163966 -0.35081673 -0.86811012 33 134 127
0.29190597 -0.35002825 -0.86968607 33 134 125
0.29638708 -0.32990789 -0.87757742 44 136 126
0.2963632 -0.32969078 -0.87637657 44 136 126
0.29496959 -0.33383623 -0.87619346 35 138 125
0.29542506 -0.3325958 -0.87725908 36 137 125
0.29524869 -0.3330867 -0.87697136 36 136 125
0.29556534 -0.33215633 -0.87693769 37 137 125
0.29553875 -0.3321631 -0.8761391 38 138 125
0.29562306 -0.3319658 -0.87669712 38 136 125
0.29612988 -0.33079833 -0.87832761 42 135 126
0.29583147 -0.33139035 -0.87690902 39 135 125
0.2959584 -0.33131486 -0.87865394 40 135 126
0.29578745 -0.3315452 -0.87713706 38 137 125
0.29591161 -0.33146495 -0.87880206 39 135 125
0.29570574 -0.33195537 -0.87835407 38 135 125
0.29456666 -0.33486307 -0.87876981 31 136 124
0.29412547 -0.33576173 -0.87825769 33 136 125
0.29444155 -0.33510885 -0.87846988 32 136 124
0.29373103 -0.33664206 -0.87910891 32 136 124
0.29394564 -0.33613366 -0.87814474 33 137 124
0.29405466 -0.33668891 -0.87682217 35 136 124
0.2945118 -0.33584478 -0.87570721 36 138 123
0.2944926 -0.33609831 -0.87564015 36 137 124
0.29437253 -0.33590069 -0.87615186 36 137 124
0.2933282 -0.33787811 -0.87867361 33 134 124
0.29415667 -0.33750191 -0.87605101 36 136 124
0.29294145 -0.3414253 -0.87751096 39 133 124
0.29269573 -0.34083283 -0.87882787 40 133 125
0.2933051 -0.34176269 -0.87594664 38 134 123
0.29309431 -0.34064174 -0.87751317 37 134 124
0.29312453 -0.34128127 -0.87694716 38 134 123
0.2930361 -0.34119913 -0.87732762 38 135 123
0.2934128 -0.34099063 -0.87611103 36 133 123
0.29380825 -0.3382816 -0.87674761 36 134 124
0.29388857 -0.33824015 -0.8765049 36 135 124
0.29337016 -0.3407439 -0.87643677 36 134 123
0.29363826 -0.33877695 -0.87696362 35 135 123
0.29068848 -0.34446809 -0.878739 25 137 122
0.29061759 -0.34538117 -0.87810928 21 140 122
0.29064709 -0.34410408 -0.87909633 25 139 122
0.2918953 -0.34473801 -0.87719011 34 135 124
0.29141861 -0.34463239 -0.8777259 30 137 123
0.29116166 -0.34461328 -0.87798411 28 136 123
0.29258585 -0.34341142 -0.877716 42 134 126
0.29139909 -0.34315649 -0.87896681 33 137 124
0.29245442 -0.34268677 -0.87845874 42 134 126
0.29247823 -0.34391668 -0.87737101 40 134 125
0.29297006 -0.34200162 -0.87705082 39 134 123
0.29275203 -0.34201434 -0.87783891 41 134 124
0.29331782 -0.34256431 -0.87553477 38 134 122
0.29262868 -0.34212181 -0.87824005 42 133 125
0.29273322 -0.34235004 -0.87775803 41 134 124
0.29296461 -0.34438333 -0.87601191 41 134 124
0.2907871 -0.34591335 -0.877635 23 139 121
0.28976926 -0.34580138 -0.87916481 16 141 121
0.29085293 -0.34572348 -0.87749428 23 139 121
0.29069772 -0.34893692 -0.87781948 29 135 123
0.29090747 -0.34946713 -0.87706894 31 136 123
0.29085919 -0.34865963 -0.8773368 29 135 122
0.29089865 -0.3483206 -0.87725657 29 135 123
0.29146457 -0.349471 -0.87586284 35 133 124
0.29105005 -0.34710187 -0.87698197 28 135 124
0.29135993 -0.34723428 -0.87644494 30 136 123
0.29168063 -0.34595597 -0.87653524 31 136 123
0.29161668 -0.34703717 -0.87626296 31 136 123
0.29207289 -0.34586665 -0.87619209 34 135 124
0.29283229 -0.2982274 -0.85947347 40 134 125
0.29215881 -0.29828277 -0.85870957 36 135 124
0.29182598 -0.30261397 -0.85860986 35 134 124
0.29128033 -0.30267844 -0.85786402 33 134 124
0.29271579 -0.29951632 -0.85943425 42 135 125
0.29195443 -0.30268672 -0.85879695 36 134 125
0.29147765 -0.30065387 -0.85801572 33 134 124
0.29187024 -0.30083019 -0.85846668 36 134 124
0.29235977 -0.29975107 -0.85901743 39 134 125
0.29142788 -0.30154902 -0.85796684 33 134 124
0.29130626 -0.30107537 -0.85782337 32 134 124
0.29198056 -0.30498248 -0.85892963 34 135 124
0.29240614 -0.3036806 -0.85948348 38 136 125
0.29189873 -0.30646527 -0.85904855 33 136 123
0.29258582 -0.30275932 -0.85967547 39 134 125
0.29157376 -0.30296353 -0.85827297 34 134 125
0.29186803 -0.30422515 -0.85865778 34 135 125
0.29213372 -0.30751398 -0.85962349 34 135 123
0.29211009 -0.30747643 -0.85956615 34 135 123
0.29213095 -0.3071771 -0.85956138 34 135 123
0.29163474 -0.30748409 -0.85864902 32 136 124
0.28913686 -0.31184348 -0.85632497 26 133 125
0.28853965 -0.31385964 -0.85589623 21 133 125
0.28957406 -0.31314185 -0.85690749 26 133 126
0.28917548 -0.31308684 -0.85648572 25 133 125
0.28887296 -0.31329194 -0.85618949 24 133 125
0.29114851 -0.31415692 -0.85876596 30 133 127
0.2916469 -0.31098828 -0.8591702 33 133 124
0.29143074 -0.31203192 -0.85892421 32 134 124
0.29156783 -0.31098205 -0.85899806 33 133 124
0.29026273 -0.31460643 -0.85777658 27 134 126
0.28965488 -0.315963 -0.85734153 25 133 127
0.28960684 -0.3147904 -0.85711843 25 134 126
0.2905331 -0.31704774 -0.85841906 27 134 126
0.29043806 -0.31503266 -0.85802263 27 134 127
0.28929746 -0.31698263 -0.85706967 21 135 125
0.28910348 -0.31609169 -0.85675907 21 135 125
0.28871801 -0.31492761 -0.85620749 21 133 125
0.28840172 -0.31539816 -0.85590887 20 133 126
0.28911662 -0.31658161 -0.85682654 21 135 125
0.29143652 -0.31572527 -0.8596403 30 135 126
0.29101947 -0.31581786 -0.85874987 28 135 127
0.29108694 -0.31546247 -0.85884476 28 135 127
0.2909297 -0.3195301 -0.85944068 27 137 124
0.29017511 -0.31895635 -0.85840172 24 136 125
0.29079005 -0.31845033 -0.85890007 27 135 126
0.28956264 -0.32063144 -0.85835737 24 136 124
0.28921938 -0.31987283 -0.85769337 21 137 125
0.28931761 -0.31988007 -0.85780317 21 137 125
0.29033169 -0.32143271 -0.85950166 27 137 124
0.28891668 -0.3205812 -0.85736316 23 135 125
0.28942537 -0.32155484 -0.85826105 24 136 124
0.28812486 -0.32085589 -0.85597926 21 135 125
0.28928924 -0.32203832 -0.8580265 26 136 126
0.28924388 -0.32061261 -0.8579362 23 136 125
0.28846428 -0.32121205 -0.85657609 21 135 125
0.29104671 -0.31891343 -0.85937762 27 135 126
0.28983158 -0.32394874 -0.85921812 27 137 125
0.28888917 -0.32526389 -0.85771209 27 135 126
0.28819057 -0.32588857 -0.85653859 26 134 126
0.28918353 -0.32450476 -0.85812569 27 135 126
0.28949848 -0.3253423 -0.85883737 26 138 124
0.288109 -0.3258568 -0.85638446 26 134 126
0.28851938 -0.32321519 -0.85678995 26 134 126
0.28897834 -0.32367396 -0.85764617 26 136 125
0.28836015 -0.32508656 -0.85672671 26 134 126
0.28803736 -0.32434916 -0.85607684 25 134 126
0.2890369 -0.3223978 -0.85760176 26 134 126
0.2895017 -0.32307667 -0.85849351 27 135 126
0.28890178 -0.32898793 -0.85852939 27 137 124
0.28831142 -0.32883629 -0.85718542 26 137 125
0.28963071 -0.32753074 -0.85959578 27 137 124
0.28895244 -0.32866573 -0.85852391 27 138 123
0.28836474 -0.32878244 -0.85728246 26 137 125
0.28887093 -0.32846969 -0.85827518 27 137 124
0.28799859 -0.32764554 -0.85643679 26 136 126
0.28787819 -0.32641712 -0.85604817 26 134 126
0.28843322 -0.32695261 -0.85713512 27 135 126
0.28818411 -0.3281619 -0.85684645 25 137 124
0.28830814 -0.32733652 -0.85695946 27 135 126
0.28799421 -0.32847679 -0.856543 27 135 126
0.28738528 -0.33260751 -0.85628426 23 136 123
0.28766352 -0.33081245 -0.85642993 26 136 125
0.28751925 -0.33126011 -0.856224 24 136 124
0.28792191 -0.33266437 -0.85751545 24 138 124
0.28803864 -0.33270049 -0.85778964 26 136 124
0.28779799 -0.3332158 -0.85738355 24 136 124
0.2889483 -0.33082575 -0.85924572 28 135 124
0.28780824 -0.3304891 -0.85665607 26 136 125
0.28856415 -0.33303836 -0.85906231 27 135 123
0.28822675 -0.33099195 -0.85771912 27 135 125
0.28864247 -0.33300567 -0.85922378 27 135 123
0.2886802 -0.33063433 -0.85860348 28 135 124
0.28821158 -0.33565971 -0.85885525 26 134 123
0.28802025 -0.33781689 -0.85880727 27 133 123
0.28803161 -0.33763796 -0.85880131 27 133 123
0.2877475 -0.33473361 -0.85762799 23 135 123
0.28792661 -0.33541393 -0.85817116 24 135 123
0.28780788 -0.33566037 -0.85795194 23 135 122
0.28816485 -0.33446771 -0.85851979 24 138 123
0.28807202 -0.34032139 -0.85885268 29 132 122
0.288342 -0.33836317 -0.85950267 29 132 123
0.28803274 -0.33917359 -0.85875362 29 132 123
0.28786817 -0.34141484 -0.85836059 29 132 122
0.28810725 -0.34024897 -0.85893798 29 132 122
0.28713283 -0.34567386 -0.85632604 30 133 122
0.28784609 -0.34515205 -0.85848552 30 132 122
0.28824466 -0.34244946 -0.85924923 29 134 122
0.28784376 -0.34491703 -0.85843503 30 132 122
0.28758568 -0.34476027 -0.85759002 30 133 122
0.28839371 -0.342226 -0.85967946 30 132 122
0.2880809 -0.3425 -0.85883182 29 132 122
0.2873359 -0.34491223 -0.85686028 29 134 122
0.28775537 -0.3426621 -0.8580299 29 132 122
0.28771377 -0.34338507 -0.85788053 29 132 122
0.28701726 -0.34823841 -0.8563273 30 133 124
0.28757602 -0.34853792 -0.85795671 30 133 123
0.28775671 -0.34762049 -0.85845816 31 132 123
0.28801048 -0.34719223 -0.85921234 32 132 123
0.2878021 -0.34736311 -0.8585825 31 132 123
0.28812721 -0.34652978 -0.8595323 33 131 122
0.28768572 -0.34572217 -0.85808128 32 131 123
0.28774667 -0.34571338 -0.85827327 32 131 123
0.28727064 -0.3470234 -0.8568784 29 134 123
0.28798279 -0.34645101 -0.8590821 32 132 123
0.28727296 -0.34814402 -0.85698014 29 134 124
0.28706786 -0.35193732 -0.85682058 23 138 123
0.28702667 -0.35147834 -0.85669649 24 138 124
0.28646535 -0.353044 -0.8559913 25 136 123
0.28681126 -0.35306209 -0.85655195 21 138 122
0.28812489 -0.35344213 -0.85973155 30 132 123
0.28813648 -0.35098314 -0.85975027 33 133 122
0.28806075 -0.35001847 -0.85954875 31 135 121
0.28737298 -0.35349038 -0.85777569 21 137 123
0.28759843 -0.35156509 -0.85834014 27 135 122
0.28713396 -0.35090107 -0.85682839 26 134 125
0.28773728 -0.35096166 -0.85868859 28 134 122
0.2875562 -0.34996426 -0.85800403 30 133 124
0.28641689 -0.35570666 -0.85587591 23 135 123
0.28762212 -0.35611546 -0.8585211 25 133 123
0.28805426 -0.35444021 -0.85962743 29 132 123
0.28767765 -0.35598552 -0.85867411 26 133 123
0.2879523 -0.35370246 -0.8592844 29 134 123
0.28751683 -0.35387444 -0.85815293 24 135 123
0.28778735 -0.35424703 -0.85885978 27 134 123
0.29468819 -0.29482195 -0.86095285 42 136 124
0.29452035 -0.29458362 -0.86076182 41 136 124
0.29415357 -0.29550171 -0.86057514 40 136 124
0.2937862 -0.2960096 -0.86031348 40 136 124
0.29342738 -0.29850435 -0.86021525 44 136 125
0.2937535 -0.2960625 -0.86028099 40 135 124
0.29352483 -0.30196863 -0.86076033 43 136 126
0.29307413 -0.30036995 -0.86001319 43 135 125
0.29312906 -0.30161893 -0.86022812 42 135 126
0.29325056 -0.29998854 -0.86018729 43 136 125
0.29393712 -0.30364129 -0.86148381 43 136 125
0.29268506 -0.30490741 -0.86007786 38 135 125
0.29274091 -0.30648485 -0.8603434 37 135 124
0.2926949 -0.30344218 -0.85990894 39 134 125
0.29313245 -0.30387983 -0.86051404 42 134 126
0.29368207 -0.30500028 -0.8613447 43 135 125
0.29357156 -0.30528316 -0.86124057 42 135 125
0.29373056 -0.30727667 -0.86175054 42 135 124
0.29248381 -0.30696473 -0.86011583 36 135 124
0.29318652 -0.30995527 -0.86149192 42 134 124
0.29300267 -0.30945483 -0.86116523 40 133 125
0.29361087 -0.3102347 -0.86214685 43 133 125
0.29348913 -0.30975437 -0.86191374 43 133 125
0.29212776 -0.30872729 -0.8597976 35 135 124
0.29274264 -0.30933413 -0.86076957 39 133 125
0.29354656 -0.30907297 -0.86192095 43 133 125
0.29275998 -0.31391668 -0.86187643 39 132 127
0.29242823 -0.3135519 -0.86097199 37 133 127
0.29359186 -0.31295937 -0.86300844 43 132 127
0.29282314 -0.31435755 -0.86227393 39 132 127
0.29306 -0.31300071 -0.86193836 40 133 126
0.29272655 -0.31176159 -0.86106092 39 133 125
0.29241005 -0.31332931 -0.8608253 37 133 127
0.29322413 -0.31202808 -0.86183083 42 133 126
0.29222903 -0.31343684 -0.8605752 36 134 126
0.29327855 -0.31083113 -0.8617357 42 133 125
0.29167685 -0.31393832 -0.85983741 32 134 126
0.29198158 -0.31751636 -0.86111361 33 134 127
0.29183403 -0.31753594 -0.86071926 33 134 127
0.29235786 -0.3183102 -0.86254066 36 133 127
0.29263565 -0.31654134 -0.86241841 37 133 127
0.29271621 -0.31705859 -0.86289728 38 133 127
0.29298845 -0.31553742 -0.86288345 40 132 128
0.29250723 -0.31621519 -0.86190528 37 133 127
0.29248205 -0.31533089 -0.86174107 37 133 127
0.29184315 -0.31585106 -0.86049163 33 134 127
0.29239422 -0.3163712 -0.86169243 36 134 127
0.29314652 -0.3149735 -0.86306387 41 132 127
0.2918354 -0.31547874 -0.86042833 33 134 127
0.29099497 -0.32113144 -0.86010772 28 136 125
0.29114836 -0.3199482 -0.85996592 29 136 125
0.29135659 -0.32206911 -0.86120832 32 137 124
0.29169637 -0.32029539 -0.86125845 33 136 126
0.29112053 -0.32161731 -0.86053854 29 137 125
0.2918337 -0.32042503 -0.86159784 34 134 126
0.29153037 -0.32075858 -0.86108184 32 136 125
0.29248503 -0.32059762 -0.86334652 39 132 127
0.29193392 -0.32023871 -0.86176747 34 135 126
0.29239455 -0.3184908 -0.86269099 36 133 127
0.29202396 -0.31967139 -0.86190438 34 135 126
0.29243243 -0.31882873 -0.86286014 36 133 127
0.29243046 -0.31927228 -0.86294055 37 133 127
0.29081288 -0.32316399 -0.86046726 28 138 124
0.29037032 -0.32522359 -0.86020285 27 139 124
0.2903704 -0.32534271 -0.8602162 27 139 124
0.2907024 -0.32574451 -0.86067206 27 139 124
0.29202446 -0.32419649 -0.86310518 36 135 126
0.29174179 -0.32476145 -0.86254919 33 137 125
0.29162401 -0.32462448 -0.86219144 33 137 125
0.29183072 -0.32533315 -0.86297768 33 137 125
0.29184294 -0.32352331 -0.86248726 35 135 125
0.29145119 -0.3245436 -0.86180103 31 138 124
0.29151896 -0.3231653 -0.86175179 33 137 124
0.29157361 -0.32465431 -0.86207557 33 138 125
0.291612 -0.32249096 -0.86185437 33 137 125
0.29064149 -0.32694855 -0.86085427 27 140 123
0.29049665 -0.32626712 -0.86049026 27 139 124
0.29065874 -0.32682261 -0.86084157 27 140 123
0.29021591 -0.32954973 -0.8609336 30 137 123
0.29070687 -0.32938561 -0.86157787 31 137 123
0.2898739 -0.32998037 -0.86055732 29 136 123
0.29034469 -0.32893434 -0.86097127 29 139 123
0.29110837 -0.32999843 -0.86235464 33 137 123
0.29176107 -0.32742345 -0.86337632 33 135 125
0.29138699 -0.32869509 -0.86275917 33 137 124
0.29130018 -0.32881731 -0.86257565 32 137 124
0.29126042 -0.32908562 -0.86254323 32 137 124
0.29161772 -0.32661864 -0.86281949 32 137 124
0.29056108 -0.33235297 -0.86244369 30 138 124
0.28950074 -0.33024955 -0.86013001 29 136 123
0.28949887 -0.33035985 -0.8601715 29 136 123
0.28980112 -0.3309572 -0.86083013 29 136 123
0.28932413 -0.3314541 -0.86015874 29 135 124
0.2901926 -0.33290011 -0.86203545 28 139 124
0.29029736 -0.3327857 -0.86219275 28 139 124
0.28984466 -0.33150867 -0.86108941 28 138 124
0.28966147 -0.33368111 -0.8612861 27 138 124
0.28941855 -0.33298722 -0.86069196 28 136 124
0.2912803 -0.33134523 -0.86324781 33 138 124
0.29148564 -0.33099729 -0.86355561 33 137 125
0.28958386 -0.33710968 -0.86162686 31 136 123
0.29062951 -0.33736861 -0.86345214 34 137 124
0.29034522 -0.33688954 -0.86291099 33 137 124
0.29080248 -0.33606875 -0.86360651 33 138 125
0.29079968 -0.33495367 -0.86347914 31 138 124
0.28928852 -0.33669272 -0.86107349 30 133 124
0.28875294 -0.33694798 -0.86016756 29 134 124
0.2885364 -0.33718738 -0.85981911 29 134 124
0.29070285 -0.33435991 -0.8632462 29 139 124
0.28952172 -0.33557749 -0.86133283 29 135 124
0.28920838 -0.33461881 -0.8606478 28 135 124
0.28918725 -0.3340928 -0.86053771 27 135 124
0.29043385 -0.33963719 -0.8635729 36 134 124
0.28999498 -0.33996966 -0.86268634 34 134 123
0.28949872 -0.34115013 -0.86194056 33 132 123
0.28994626 -0.34036478 -0.86270231 34 133 123
0.29052237 -0.33916986 -0.86362392 36 135 124
0.28902993 -0.34139162 -0.86095732 31 133 122
0.28862125 -0.34112892 -0.86006564 30 133 122
0.28970891 -0.33865121 -0.8619293 33 136 123
0.28927159 -0.33799848 -0.86117637 32 134 124
0.29032093 -0.33853567 -0.86298078 35 136 124
0.28886721 -0.34085426 -0.86048776 30 133 122
0.29012853 -0.33885208 -0.86265081 35 135 124
0.28949338 -0.34425271 -0.86221433 37 130 124
0.28943756 -0.34390706 -0.86214405 36 130 123
0.29022118 -0.34363332 -0.86359376 40 129 124
0.28976673 -0.34556279 -0.86259311 41 130 124
0.28866783 -0.3453491 -0.86061418 35 130 123
0.28979212 -0.34398332 -0.86278194 38 130 124
0.28907621 -0.34320605 -0.86137658 33 132 123
0.28837195 -0.34460977 -0.85996825 33 131 122
0.28865862 -0.34244713 -0.86033237 30 132 122
0.28864247 -0.34447232 -0.86056191 33 131 123
0.28956786 -0.34245118 -0.86238933 35 130 123
0.288885 -0.34395894 -0.86104316 34 131 122
0.289352 -0.34774864 -0.86196107 39 131 123
0.28975382 -0.34826291 -0.86301017 41 131 123
0.28898883 -0.34912831 -0.86153078 37 133 122
0.28951687 -0.34828281 -0.86248225 40 130 123
0.28969288 -0.34728119 -0.86259735 41 131 124
0.28883699 -0.347011 -0.86093479 36 132 122
0.28894722 -0.34629184 -0.86111051 38 130 123
0.28997228 -0.34635794 -0.86297679 43 129 124
0.28933343 -0.34602067 -0.86180347 40 130 124
0.28829283 -0.34859979 -0.86000001 33 133 121
0.28881562 -0.34675989 -0.86088735 36 130 123
0.28944719 -0.35061398 -0.86271292 38 131 123
0.28849488 -0.35279876 -0.86059386 33 132 123
0.28938106 -0.35339409 -0.86343771 43 131 125
0.28938994 -0.35299596 -0.86333215 42 131 124
0.28962237 -0.3516798 -0.86358958 42 132 123
0.28967679 -0.35113111 -0.86357015 42 131 123
0.28910735 -0.35114342 -0.86193871 37 131 123
0.28909644 -0.3508091 -0.86191285 37 131 123
0.2893523 -0.35063633 -0.86248815 38 133 122
0.28829238 -0.35068947 -0.86010212 33 132 122
0.28831559 -0.34972632 -0.86015052 33 134 121
0.28886729 -0.3498973 -0.86139321 36 132 122
0.28877541 -0.35709351 -0.86217302 33 134 124
0.28909561 -0.35635448 -0.8630414 36 133 124
0.2890726 -0.35595855 -0.86290836 36 133 124
0.28878751 -0.35555631 -0.86196804 35 133 124
0.28885707 -0.35697368 -0.86240524 33 134 124
0.28860414 -0.35627106 -0.86151671 33 132 124
0.28908622 -0.35437822 -0.86270446 39 132 124
0.28889677 -0.35452145 -0.86215639 37 131 124
0.28888702 -0.35430941 -0.86210102 37 131 124
0.28904885 -0.35436776 -0.86259156 38 131 124
0.28863755 -0.35497916 -0.86143905 33 133 124
0.28880048 -0.35910341 -0.86223143 30 133 123
0.28872237 -0.35975623 -0.86197013 29 132 125
0.28904158 -0.35934559 -0.86298317 31 133 125
0.28858986 -0.36008805 -0.86154586 27 132 124
0.28844094 -0.35859457 -0.86114341 27 134 123
0.28822768 -0.35828295 -0.86050147 27 133 123
0.29551908 -0.32558215 -0.87170076 40 138 126
0.29568994 -0.32541105 -0.87212783 42 137 126
0.29600459 -0.32951614 -0.87445205 43 137 126
0.29553092 -0.32973233 -0.87288344 43 137 125
0.29579794 -0.32862297 -0.87347132 44 136 125
0.29596481 -0.3297576 -0.87438732 43 137 126
0.2957381 -0.32862809 -0.87326646 45 135 125
0.29531804 -0.32871416 -0.87193179 43 136 125
0.29566932 -0.32707384 -0.8727318 42 136 126
0.29622346 -0.32640359 -0.87435031 44 135 126
0.29579732 -0.32651645 -0.87303072 42 136 126
0.29523757 -0.32846752 -0.87163281 42 137 125
0.2948792 -0.33217913 -0.87325346 40 137 125
0.29459828 -0.33180678 -0.87193698 42 136 125
0.29435283 -0.33233896 -0.87177294 42 134 125
0.29468381 -0.33284479 -0.87340128 40 136 125
0.29437232 -0.3332864 -0.87292433 39 135 125
0.29428002 -0.33396786 -0.87342298 38 136 125
0.29537728 -0.33016038 -0.87255394 43 137 125
0.29503962 -0.33144635 -0.87289697 40 137 124
0.2954554 -0.33012366 -0.87278026 43 136 125
0.29512921 -0.33008733 -0.87161291 43 137 125
0.29519615 -0.33030906 -0.87210357 43 137 125
0.29535028 -0.33087638 -0.87330019 42 137 125
0.29499328 -0.3303574 -0.87150443 43 137 125
0.29480192 -0.33430371 -0.87524456 36 138 124
0.29382199 -0.33675915 -0.87298173 38 133 125
0.29414859 -0.33754075 -0.87465572 38 133 125
0.29399121 -0.3369619 -0.87373275 38 133 125
0.29436979 -0.33736911 -0.87538642 38 135 125
0.29370916 -0.33531049 -0.87207854 40 132 126
0.29339856 -0.33729872 -0.87176037 40 131 126
0.29399386 -0.33594161 -0.87319809 38 136 125
0.29347077 -0.33697721 -0.87188184 40 131 126
0.29384905 -0.33411142 -0.87211943 40 133 126
0.29338503 -0.33702514 -0.87162495 40 131 126
0.2930916 -0.34110469 -0.87283838 36 132 122
0.29311562 -0.34103853 -0.87288761 36 132 122
0.29306519 -0.34104165 -0.87263787 36 132 122
0.29381174 -0.3398073 -0.87505388 37 134 123
0.2940118 -0.33877331 -0.87494171 38 134 123
0.29332808 -0.34023222 -0.87308389 36 133 122
0.29405117 -0.33840543 -0.87477624 38 134 124
0.29370081 -0.33911011 -0.87385225 37 133 124
0.29364285 -0.3386645 -0.87338841 38 133 124
0.29277849 -0.34126228 -0.87158394 36 130 123
0.29385713 -0.33892241 -0.87433451 37 134 124
0.29384789 -0.33834893 -0.87398279 38 134 124
0.2928386 -0.34558725 -0.87441897 40 133 123
0.29289499 -0.34471437 -0.87409258 39 133 122
0.29287007 -0.3445037 -0.87376338 38 132 122
0.29241818 -0.34562379 -0.87171471 38 133 119
0.29293293 -0.34559745 -0.87504011 41 134 124
0.2927978 -0.34204951 -0.87220824 36 132 122
0.29280242 -0.34267059 -0.8724708 36 132 122
0.29300812 -0.34296116 -0.87361592 37 133 121
0.29300195 -0.34296852 -0.87358779 37 133 121
0.29259366 -0.34358525 -0.87177521 36 132 120
0.29292828 -0.34350157 -0.8734234 37 133 121
0.29271355 -0.3467201 -0.87476099 40 133 125
0.29274997 -0.34645438 -0.87520725 41 133 125
0.29246458 -0.34769306 -0.87415677 38 133 125
0.29182941 -0.34932843 -0.87507039 36 133 124
0.2922709 -0.3480801 -0.8747589 38 133 125
0.29200912 -0.34912065 -0.87407297 36 133 124
0.29233134 -0.34820914 -0.87218082 35 133 123
0.29242486 -0.34750637 -0.87251753 36 133 122
0.29247022 -0.34760484 -0.8728503 36 133 123
0.29242256 -0.34788406 -0.8726483 36 133 123
0.29221824 -0.34896502 -0.87173748 33 132 123
0.29266909 -0.34604812 -0.87354213 40 132 123
0.29141802 -0.35212186 -0.87344038 27 132 124
0.29133689 -0.35175088 -0.87395608 29 132 124
0.29183024 -0.35205004 -0.87198091 28 131 125
0.29195026 -0.3512626 -0.8716445 29 132 124
0.29179147 -0.35177943 -0.87257773 29 132 125
0.29187199 -0.35072154 -0.87284392 32 132 124
0.2918438 -0.35145831 -0.8724103 29 132 125
0.29026464 -0.35700822 -0.87470955 32 133 124
0.29011729 -0.35743049 -0.87512207 34 134 123
0.29012385 -0.35793871 -0.8749122 33 133 124
0.28785744 -0.3130644 -0.8548286 19 132 125
0.28858408 -0.31256679 -0.85580218 23 133 125
0.28780732 -0.32523444 -0.85574663 25 134 126
0.28685641 -0.32986188 -0.85460836 20 138 123
0.28731892 -0.32888302 -0.8551985 24 136 124
0.2872304 -0.32846421 -0.85491693 21 137 124
0.28761286 -0.32687759 -0.85555243 24 136 125
0.28764692 -0.32656655 -0.85558009 24 136 125
0.28736743 -0.33116773 -0.85585475 24 136 124
0.2862553 -0.34459853 -0.85504431 33 133 120
0.28639227 -0.34501618 -0.85521394 33 133 121
0.2864292 -0.34304118 -0.85547566 30 133 120
0.28649545 -0.34504312 -0.85537153 33 133 121
0.28617972 -0.342599 -0.85513371 30 135 119
0.28656468 -0.34564948 -0.85541642 33 133 121
0.28590181 -0.3426373 -0.85464424 30 133 119
0.28561193 -0.34231144 -0.85410362 28 132 119
0.28624642 -0.34873557 -0.85506713 36 134 123
0.28676125 -0.34597296 -0.85572171 33 134 122
0.28608313 -0.35136223 -0.85506254 31 133 123
0.28632498 -0.35305634 -0.85575253 26 136 123
0.28545156 -0.35299352 -0.8541252 29 135 121
0.28565606 -0.35161164 -0.85430694 33 134 122
0.28614613 -0.35209453 -0.85528386 28 135 123
0.28601801 -0.34977311 -0.85475904 36 133 123
0.28599352 -0.35055879 -0.85478759 33 133 124
0.2857568 -0.35060516 -0.85437292 35 134 122
0.28554663 -0.35138473 -0.85407227 33 133 122
0.28652993 -0.34967822 -0.85565633 33 134 125
0.2856479 -0.35522291 -0.85445201 25 134 123
0.28568527 -0.3557308 -0.8544957 25 134 123
0.28521913 -0.35703096 -0.853549 25 134 123
0.28620613 -0.35668528 -0.85542691 23 135 123
0.28637862 -0.35528663 -0.85582542 24 135 124
0.28579783 -0.35584691 -0.8547017 24 135 123
0.28558195 -0.35450062 -0.85437417 26 136 122
0.28554529 -0.35499853 -0.85427225 25 134 122
0.2856386 -0.35427976 -0.85449421 26 136 122
0.28647158 -0.35855293 -0.85581857 20 137 124
0.28503126 -0.3584832 -0.85302752 24 133 123
0.28499323 -0.35818389 -0.85299742 25 133 123
0.28591421 -0.35751519 -0.85482526 23 135 123
0.28553474 -0.35754165 -0.85410661 25 133 123
0.28602135 -0.35773733 -0.85499638 23 135 123
0.29449445 -0.31563616 -0.86568099 43 134 127
0.29373187 -0.31529641 -0.86445552 42 134 126
0.2937794 -0.31639263 -0.8649264 41 133 127
0.29352638 -0.31507313 -0.86398691 42 133 127
0.29298684 -0.31961352 -0.86426866 39 133 127
0.29319918 -0.31912899 -0.86460769 39 133 127
0.29254344 -0.32580757 -0.86504 38 136 126
0.29341018 -0.32502079 -0.867082 47 133 129
0.29268017 -0.32562366 -0.86533904 40 134 127
0.29299676 -0.32602078 -0.86634958 46 134 128
0.29351643 -0.32528171 -0.86747038 48 134 129
0.29265362 -0.32353187 -0.86452985 38 135 126
0.2921516 -0.32519361 -0.86377704 35 135 125
0.29228935 -0.32418361 -0.8637991 38 134 126
0.29275665 -0.3280735 -0.86625266 45 135 128
0.29256883 -0.32815161 -0.8656404 43 135 126
0.2932229 -0.32665005 -0.86711586 49 134 128
0.29292166 -0.32811311 -0.86684817 46 134 127
0.29303327 -0.32863063 -0.86751294 47 134 127
0.29193503 -0.32727194 -0.86374605 34 136 125
0.29331163 -0.32640216 -0.86730468 51 133 129
0.29291686 -0.3261942 -0.86619604 45 134 128
0.29243284 -0.32674029 -0.86499113 40 134 127
0.29237491 -0.32808334 -0.86509293 40 135 126
0.29217514 -0.32885563 -0.86470103 39 136 125
0.29187238 -0.33133447 -0.86475837 37 136 125
0.29196009 -0.33383003 -0.86625826 37 136 126
0.29168743 -0.33238664 -0.86477935 35 137 125
0.29222158 -0.33365408 -0.86688989 39 134 125
0.29160625 -0.33395106 -0.86534441 34 137 125
0.29173055 -0.3305819 -0.86398816 36 137 125
0.29226178 -0.33246887 -0.86649287 39 134 125
0.29224563 -0.33030516 -0.86562854 39 135 125
0.29230374 -0.33329368 -0.86694682 40 134 126
0.29242432 -0.3301343 -0.86618674 42 134 126
0.29196849 -0.3312895 -0.8650313 37 136 125
0.29251355 -0.33150613 -0.86700976 42 134 126
0.290829 -0.33700448 -0.86376494 35 137 125
0.29220128 -0.33555683 -0.8672986 38 136 125
0.29160556 -0.33773267 -0.86598551 37 136 124
0.29186466 -0.33601043 -0.86638075 38 136 125
0.29209217 -0.33707115 -0.867311 38 133 125
0.29209894 -0.33732659 -0.86738938 38 134 124
0.29141968 -0.33456957 -0.86492187 33 139 125
0.29223645 -0.33414555 -0.86711776 39 134 125
0.29152569 -0.33565873 -0.86535293 36 137 125
0.29172784 -0.33571929 -0.86591762 38 136 125
0.29159489 -0.33596891 -0.86558324 37 137 124
0.29138654 -0.33552226 -0.86495221 34 137 124
0.29091698 -0.33872694 -0.86426944 36 136 124
0.29056013 -0.33973828 -0.86385763 36 134 124
0.29074726 -0.34122804 -0.86462015 36 133 124
0.29085344 -0.34078166 -0.86470306 37 133 124
0.29190627 -0.34011748 -0.86731744 38 133 124
0.29139093 -0.34054419 -0.86607689 37 134 124
0.29118714 -0.34146377 -0.86567843 37 133 124
0.29137701 -0.33843353 -0.86547518 37 135 124
0.29144022 -0.33821335 -0.86560726 37 135 124
0.29126379 -0.34026772 -0.86562777 37 133 124
0.29136124 -0.33836353 -0.86540842 37 135 124
0.29161021 -0.33809364 -0.8660903 37 135 124
0.29080451 -0.34423435 -0.86463505 40 130 126
0.29042143 -0.34218183 -0.86410952 38 130 124
0.29034734 -0.34322679 -0.86386609 40 130 124
0.29148632 -0.34557217 -0.86638612 40 131 126
0.29171848 -0.34352949 -0.86700922 39 132 125
0.2918101 -0.3426367 -0.86725003 39 132 124
0.29169309 -0.3440266 -0.86695689 39 132 125
0.29169691 -0.34195656 -0.86698198 38 134 123
0.29135504 -0.34380332 -0.86593562 40 132 125
0.29127327 -0.34415939 -0.86569405 41 131 126
0.29162258 -0.34293213 -0.86669588 40 132 124
0.29074472 -0.34597534 -0.86443394 42 130 126
0.29071942 -0.34609541 -0.86440957 42 130 126
0.29041398 -0.34821278 -0.86429673 40 131 124
0.29019597 -0.34821481 -0.86391872 41 131 124
0.2902022 -0.3490634 -0.86411321 40 131 124
0.29068694 -0.34782749 -0.8646872 38 131 125
0.29174757 -0.34811866 -0.86744809 36 134 127
0.2912904 -0.34902474 -0.866319 34 134 126
0.291554 -0.34881619 -0.86699003 35 135 126
0.29105768 -0.34581715 -0.86504608 41 131 127
0.2916474 -0.34593645 -0.86695337 38 132 126
0.29121396 -0.34779477 -0.86592662 37 133 127
0.29125258 -0.34713987 -0.86592382 37 133 126
0.29085177 -0.35125032 -0.86599326 32 134 126
0.29029006 -0.35088769 -0.864878 37 131 125
0.29071665 -0.35021043 -0.86535674 34 133 125
0.29018149 -0.3513408 -0.86476731 37 133 125
0.28994325 -0.35194945 -0.86438888 40 131 125
0.29035628 -0.35320434 -0.86561406 35 133 127
0.29005185 -0.35105479 -0.86440927 38 131 124
0.2904509 -0.35283381 -0.86573261 33 133 126
0.29149249 -0.35144916 -0.86756718 32 133 129
0.29141182 -0.34970805 -0.86670983 34 135 127
0.29135436 -0.35105473 -0.86708111 33 134 127
0.29160905 -0.34962517 -0.86718976 34 135 127
0.29040751 -0.35482571 -0.86591512 33 133 126
0.29054093 -0.35573369 -0.86628765 30 133 125
0.2903651 -0.35444888 -0.86578918 33 133 126
0.29026046 -0.35485542 -0.86559147 34 133 125
0.29059437 -0.35403815 -0.86626303 32 133 127
0.29020733 -0.35601267 -0.865587 32 134 124
0.28990075 -0.35720563 -0.86505818 32 134 124
0.28966242 -0.35607857 -0.86442071 36 133 124
0.28953269 -0.35403693 -0.86391616 42 132 124
0.28998452 -0.35703185 -0.86521953 32 134 124
0.28971577 -0.35919681 -0.86457247 30 133 125
0.29913032 -0.31835267 -0.88025427 45 134 126
0.29917228 -0.31748745 -0.88192058 41 135 126
0.29914796 -0.31719786 -0.88273597 38 135 126
0.29926616 -0.31740975 -0.88147271 43 135 126
0.29875362 -0.31940672 -0.88083977 43 135 126
0.298509 -0.3202332 -0.88074684 43 135 128
0.29867712 -0.3185581 -0.88265234 33 136 125
0.29813591 -0.32093447 -0.88142157 43 135 126
0.29833749 -0.32040402 -0.88129497 41 135 127
0.29885438 -0.3190349 -0.88090295 42 135 126
0.29716969 -0.32523209 -0.883026 42 134 124
0.29714584 -0.32606119 -0.8823722 41 133 125
0.29489335 -0.3296003 -0.88282251 27 143 124
0.29498535 -0.32989788 -0.88215339 28 143 125
0.29651642 -0.32886916 -0.88077092 41 136 125
0.29660517 -0.32791081 -0.88187003 38 136 125
0.29595122 -0.32795793 -0.8830654 32 139 124
0.29644367 -0.32806146 -0.88198102 37 137 124
0.29617482 -0.32853732 -0.88186759 36 138 125
0.29532757 -0.32928213 -0.88251024 31 141 124
0.29696253 -0.32716545 -0.88163555 42 133 126
0.29666534 -0.32883823 -0.88037175 43 135 125
0.29515991 -0.33207378 -0.88026428 31 138 124
0.29581115 -0.33052444 -0.8801229 38 137 125
0.29588261 -0.33151966 -0.87936145 39 135 125
0.29546157 -0.33194682 -0.87982064 35 135 125
0 0 0 1 0 0 0 1 0 0 0 1 0 0 0 0 0 726 1 0 0
