ply
format ascii 1.0
comment PCL generated
element vertex 915
property float x
property float y
property float z
property uchar red
property uchar green
property uchar blue
element camera 1
property float view_px
property float view_py
property float view_pz
property float x_axisx
property float x_axisy
property float x_axisz
property float y_axisx
property float y_axisy
property float y_axisz
property float z_axisx
property float z_axisy
property float z_axisz
property float focal
property float scalex
property float scaley
property float centerx
property float centery
property int viewportx
property int viewporty
property float k1
property float k2
end_header
0.25974968 -0.50780302 -0.80642807 23 131 122
0.25951445 -0.50606871 -0.8061167 23 130 122
0.25898579 -0.50719559 -0.80560613 23 130 122
0.26116478 -0.50911611 -0.80897528 23 135 121
0.2610119 -0.50916004 -0.80870235 23 135 121
0.26094034 -0.50825983 -0.80842531 23 133 121
0.26067668 -0.50798368 -0.80789769 24 131 122
0.260461 -0.50753093 -0.80750775 23 133 121
0.2599791 -0.50674325 -0.8067342 23 131 121
0.25992754 -0.50876808 -0.80673081 24 131 122
0.2607334 -0.50717396 -0.80791485 24 131 122
0.25888097 -0.51013464 -0.80566001 23 133 122
0.26067862 -0.51216567 -0.80881202 23 135 122
0.26082918 -0.51139611 -0.80888581 23 135 122
0.26070312 -0.51083088 -0.80854893 23 133 122
0.2602222 -0.50984359 -0.80737734 23 133 122
0.25990078 -0.51065606 -0.80702806 23 133 122
0.25892732 -0.51530361 -0.80708092 25 131 123
0.25914031 -0.51630187 -0.80760092 25 131 123
0.25916696 -0.51604062 -0.80756474 25 131 123
0.25836349 -0.51500332 -0.8063187 24 131 122
0.25826719 -0.51750708 -0.80644596 26 133 122
0.2587311 -0.51672494 -0.80705523 26 131 123
0.25741613 -0.5175311 -0.80517638 27 133 122
0.25805691 -0.51516092 -0.80587929 24 133 122
0.25773185 -0.51666647 -0.80555534 25 133 122
0.25768903 -0.5175671 -0.80558813 27 133 122
0.25991908 -0.5156641 -0.80843937 25 133 123
0.25998622 -0.51474541 -0.80830687 24 133 123
0.25935701 -0.51758027 -0.80808359 26 133 122
0.25899121 -0.51784408 -0.80765045 27 131 122
0.25828102 -0.51960552 -0.8073023 30 135 122
0.25806189 -0.51887351 -0.80667663 29 134 122
0.25969329 -0.51848006 -0.80896759 28 131 123
0.25904331 -0.51838034 -0.80795085 27 132 122
0.25792339 -0.52000064 -0.80682421 31 135 122
0.2675609 -0.5005002 -0.81767124 24 131 126
0.26746196 -0.50057501 -0.81758207 24 131 126
0.26856166 -0.50109792 -0.81957477 25 133 126
0.26863152 -0.50146985 -0.81984293 25 133 126
0.26834354 -0.50012761 -0.81881547 23 133 125
0.26889881 -0.49955755 -0.81991374 24 133 126
0.26868472 -0.49930796 -0.8193844 23 133 125
0.26892713 -0.49943995 -0.81995237 24 133 126
0.2688289 -0.50097936 -0.82005411 25 133 126
0.26912645 -0.4985266 -0.8202064 24 133 126
0.2666108 -0.50244564 -0.81735778 25 131 126
0.26745597 -0.50213575 -0.81822526 25 131 126
0.26717684 -0.50409758 -0.81886137 26 130 126
0.26614705 -0.50505859 -0.81696087 29 131 125
0.26725522 -0.50515842 -0.8193841 26 133 125
0.26639369 -0.50219995 -0.8169418 25 131 126
0.2662473 -0.5038259 -0.81693947 27 131 124
0.26678646 -0.50359273 -0.81806374 26 130 126
0.26661029 -0.5032112 -0.8176077 25 131 125
0.26786086 -0.50550294 -0.82058734 26 133 125
0.26840362 -0.50275886 -0.82005942 25 133 125
0.26822713 -0.50224835 -0.81951165 25 133 125
0.2678906 -0.50475144 -0.82019204 26 133 125
0.26771107 -0.50250208 -0.81877643 26 131 126
0.26693586 -0.50651008 -0.81896406 27 133 123
0.26659888 -0.50653678 -0.81823868 28 132 124
0.267364 -0.50750524 -0.8201021 26 133 124
0.26673159 -0.50736457 -0.81869113 27 132 124
0.2662721 -0.50643104 -0.81750375 29 132 124
0.26648176 -0.50965703 -0.81868762 27 135 123
0.26616615 -0.50836879 -0.81773031 29 132 125
0.26712751 -0.50892574 -0.81985724 27 134 123
0.26633021 -0.50831759 -0.81805903 27 134 124
0.26606444 -0.50784045 -0.81739527 29 132 124
0.26570624 -0.50867838 -0.81684786 29 134 124
0.26587588 -0.51353782 -0.81894451 30 136 124
0.26685318 -0.51156628 -0.82026732 27 135 123
0.26551434 -0.51337624 -0.81793714 32 136 124
0.2655769 -0.51348257 -0.81815708 32 136 124
0.26547503 -0.51350003 -0.81790978 32 137 124
0.26630551 -0.51364332 -0.82009137 28 136 124
0.26581803 -0.51005632 -0.81742197 28 134 124
0.26590702 -0.51007247 -0.81761163 28 134 124
0.26697555 -0.51024234 -0.81988144 27 135 123
0.2655341 -0.51018119 -0.81686985 29 134 124
0.26674756 -0.50995892 -0.819323 27 135 123
0.26567748 -0.5104928 -0.81726098 30 133 124
0.26489505 -0.51668596 -0.81833351 29 135 124
0.26513901 -0.51705283 -0.81897759 32 134 124
0.26530072 -0.51618534 -0.81900465 29 135 124
0.26607922 -0.51443839 -0.82000965 27 137 123
0.26625884 -0.5141778 -0.82029283 27 137 123
0.26476333 -0.51656848 -0.81801468 28 135 124
0.26549467 -0.51368153 -0.81806552 32 137 124
0.26560971 -0.51466316 -0.81898159 28 136 124
0.26523784 -0.5155232 -0.81859004 27 137 123
0.26538292 -0.5148015 -0.8184967 29 136 124
0.26503918 -0.51492304 -0.81770569 31 135 124
0.26468301 -0.51521289 -0.81699049 32 134 124
0.26499438 -0.51947963 -0.81931943 38 136 125
0.26489225 -0.51988602 -0.81925356 39 135 124
0.26533413 -0.51907611 -0.82002765 40 134 126
0.26490355 -0.51857603 -0.81885159 34 135 125
0.26441064 -0.51888376 -0.81787229 33 134 124
0.26409611 -0.51902103 -0.81723666 32 134 124
0.26525903 -0.51836371 -0.81955969 35 135 125
0.26434055 -0.51873845 -0.81769902 32 136 124
0.2792888 -0.4858245 -0.83683473 20 135 127
0.28090662 -0.48402047 -0.8397944 25 131 128
0.2799527 -0.48511064 -0.83796465 21 133 127
0.28070724 -0.48415935 -0.83937317 24 131 128
0.28045791 -0.48522791 -0.83923674 26 133 127
0.28039992 -0.48574045 -0.83932018 27 131 128
0.27889374 -0.48830321 -0.83692622 23 136 127
0.27915454 -0.48845515 -0.83749861 23 136 127
0.27853644 -0.48857501 -0.83633608 24 135 127
0.27892631 -0.48830098 -0.83698916 23 136 127
0.27978668 -0.48919708 -0.83924836 27 134 127
0.28021228 -0.4891392 -0.84021759 30 133 128
0.27994886 -0.48918545 -0.8396216 28 134 128
0.27977252 -0.4884716 -0.83893055 26 134 127
0.27974755 -0.48827574 -0.83879071 26 134 127
0.27930108 -0.48949233 -0.8382057 23 136 127
0.27975604 -0.48883259 -0.83903736 26 134 127
0.28002158 -0.48754662 -0.83915693 27 132 128
0.27905217 -0.49265784 -0.83897024 25 134 127
0.27918079 -0.49061319 -0.83841842 24 135 127
0.279192 -0.4916414 -0.8388446 24 135 126
0.27898085 -0.49209401 -0.83860886 25 134 127
0.27794766 -0.49247396 -0.83638781 31 133 126
0.27885479 -0.49332428 -0.83876228 27 134 126
0.27801666 -0.49240333 -0.83653039 31 133 126
0.27819517 -0.49382928 -0.83735174 33 132 126
0.27870572 -0.49311239 -0.83835185 27 134 126
0.27803916 -0.49392238 -0.83701068 34 132 127
0.27975065 -0.49029019 -0.83957535 27 134 128
0.27942052 -0.49054778 -0.83890802 24 136 127
0.27933908 -0.49101594 -0.83890241 24 136 127
0.27896747 -0.49563971 -0.83997887 28 135 127
0.27826893 -0.49633858 -0.83867794 34 135 126
0.27815661 -0.49512258 -0.83782327 35 132 127
0.27823392 -0.49475589 -0.83782667 33 132 127
0.27836171 -0.49602771 -0.83874476 33 134 126
0.27770856 -0.4979012 -0.83811039 38 133 126
0.27773538 -0.4980039 -0.83822328 38 133 126
0.27766216 -0.49802357 -0.83805984 38 133 126
0.2781032 -0.49776936 -0.83897859 36 135 126
0.27718556 -0.49803111 -0.83693796 40 131 126
0.27767029 -0.49706656 -0.83761674 38 131 127
0.27793428 -0.500139 -0.84009641 39 133 127
0.27669144 -0.50142193 -0.83738518 42 133 127
0.27749953 -0.49996537 -0.83859569 38 133 128
0.27835897 -0.49846411 -0.83992565 35 135 127
0.2767849 -0.50177753 -0.83799028 42 133 127
0.27720243 -0.50084329 -0.83845448 40 133 127
0.27671763 -0.49928206 -0.83638269 42 132 127
0.27811074 -0.49834305 -0.83926046 36 134 127
0.27696925 -0.49993545 -0.83726376 40 132 127
0.27722961 -0.5000295 -0.83791989 38 135 127
0.2775456 -0.49811473 -0.83782566 39 132 127
0.27756366 -0.49871969 -0.83813387 38 134 126
0.27642256 -0.50395679 -0.83931983 41 131 127
0.27563959 -0.50546706 -0.83836931 40 132 127
0.27617157 -0.50445318 -0.83992207 38 130 127
0.27548525 -0.50575835 -0.83770472 40 134 126
0.27636611 -0.50406504 -0.83920515 41 131 127
0.27600789 -0.50475281 -0.8385278 41 132 127
0.27626482 -0.50339979 -0.83742297 43 133 127
0.27651721 -0.50296128 -0.83793575 43 133 127
0.27698529 -0.50239801 -0.83903974 43 132 127
0.27605292 -0.50423002 -0.83727628 44 133 127
0.27686045 -0.5028668 -0.8389408 43 132 127
0.27618209 -0.50239766 -0.83655161 43 133 127
0.27533329 -0.50619227 -0.83758241 40 132 127
0.27494976 -0.50721604 -0.83760297 38 131 127
0.27483261 -0.5075267 -0.83825445 36 132 126
0.27523842 -0.50644052 -0.83919811 36 130 127
0.27536854 -0.50609237 -0.83944929 36 130 127
0.27508509 -0.50685042 -0.83945352 34 131 127
0.27464899 -0.50803733 -0.83952814 33 132 126
0.27413058 -0.50943714 -0.83886546 33 133 124
0.27401501 -0.50972718 -0.83720917 36 132 126
0.27417222 -0.50933701 -0.83976001 33 133 124
0.27214688 -0.51089615 -0.83972394 28 131 123
0.27364004 -0.50998735 -0.83814716 33 133 124
0.27257305 -0.51063561 -0.83891827 30 132 123
0.27285257 -0.51046705 -0.83909827 31 132 124
0.27253133 -0.51069266 -0.83849221 30 132 123
0.27289048 -0.51066005 -0.83728993 32 132 124
0.27188101 -0.51184016 -0.83691335 27 135 123
0.27210838 -0.51105165 -0.83880174 28 131 123
0.27235091 -0.51077408 -0.8388719 29 132 123
0.28257218 -0.48575613 -0.8452915 30 132 129
0.28258637 -0.48622012 -0.84687859 27 134 128
0.28278548 -0.4841603 -0.84631246 25 131 128
0.2825475 -0.48628461 -0.84608948 29 132 129
0.28255507 -0.48624629 -0.84617507 29 132 129
0.282747 -0.48355013 -0.84459031 24 130 128
0.28280452 -0.48394498 -0.84629405 24 131 127
0.28251383 -0.48585871 -0.84425354 33 131 130
0.28280273 -0.48324922 -0.84509271 23 130 128
0.28185692 -0.48827687 -0.84778422 28 134 127
0.2813412 -0.4896175 -0.84736717 32 133 126
0.28131226 -0.49000153 -0.84459591 33 132 127
0.2816017 -0.48901597 -0.84690464 31 133 127
0.28171325 -0.48870209 -0.84720778 30 133 127
0.2820763 -0.48774356 -0.84763241 27 132 127
0.28192985 -0.48803872 -0.84418881 33 132 129
0.28178546 -0.48864678 -0.8453294 31 133 128
0.28201249 -0.48795947 -0.84561777 30 133 128
0.28212649 -0.48762465 -0.84584212 30 132 129
0.28192979 -0.4881784 -0.8452695 31 132 129
0.2796526 -0.49353328 -0.84766752 27 132 124
0.27999958 -0.49298427 -0.84728092 29 132 125
0.27992591 -0.49397901 -0.84575194 30 132 125
0.27957815 -0.49392158 -0.84725422 27 133 123
0.28051403 -0.49279216 -0.84556705 33 132 126
0.28038368 -0.49255812 -0.84651995 31 133 126
0.28064525 -0.49237823 -0.84532559 33 132 126
0.2805956 -0.49261916 -0.84507483 33 132 126
0.28094813 -0.49131852 -0.84454012 33 132 127
0.28073516 -0.49184021 -0.84635228 33 133 126
0.28050438 -0.49306163 -0.84461594 33 132 127
0.28080642 -0.49180293 -0.84497178 33 132 127
0.27912921 -0.4960978 -0.84799153 33 132 127
0.27928549 -0.49618119 -0.84739619 31 133 126
0.27978975 -0.49687377 -0.84534323 33 132 126
0.2795229 -0.4974688 -0.84612429 36 132 128
0.27943811 -0.49580055 -0.84696221 29 132 125
0.27945212 -0.49477801 -0.84722072 26 133 124
0.27984405 -0.49451226 -0.84570253 29 132 125
0.27954093 -0.49439296 -0.84695554 27 133 124
0.28012127 -0.4951022 -0.84443945 33 132 126
0.27973688 -0.49446288 -0.84614724 29 132 125
0.2788963 -0.50027901 -0.84445441 33 136 126
0.27923259 -0.49961099 -0.84459728 33 134 126
0.27882922 -0.49970326 -0.84548122 36 134 128
0.27899665 -0.49808595 -0.84778345 42 131 130
0.27886939 -0.49916148 -0.84626096 38 134 129
0.27863163 -0.49917251 -0.84757298 40 133 128
0.27828476 -0.50062072 -0.84625614 38 135 127
0.2780287 -0.50132775 -0.84672779 38 136 125
0.2783635 -0.50031036 -0.8464821 38 135 127
0.27816013 -0.50062108 -0.84785634 42 133 126
0.27937216 -0.49945724 -0.84438986 33 134 126
0.27657402 -0.50361472 -0.84432518 30 135 125
0.27627054 -0.50441027 -0.8447625 28 135 124
0.27761465 -0.50343692 -0.84546918 38 136 125
0.27691501 -0.50583404 -0.8475855 44 134 123
0.27660254 -0.50421023 -0.84494042 30 135 124
0.27745759 -0.50408214 -0.84608698 40 135 125
0.27648836 -0.50431406 -0.84490287 28 135 124
0.27659494 -0.50542623 -0.84654897 38 134 124
0.27739641 -0.5045566 -0.84774262 45 134 123
0.2776911 -0.50248533 -0.84762871 42 134 123
0.27760476 -0.50377977 -0.84644318 41 135 124
0.2776123 -0.50290281 -0.84790134 43 135 122
0.2776227 -0.50324303 -0.84716433 42 134 124
0.27551946 -0.50598097 -0.84570557 26 133 124
0.27636623 -0.50606024 -0.84716398 35 133 124
0.25183749 -0.51654434 -0.79820329 24 131 124
0.25397262 -0.51625746 -0.80089158 24 131 123
0.25206831 -0.51645583 -0.79845715 24 131 124
0.25271177 -0.52358323 -0.79972923 29 134 124
0.26628873 -0.50171864 -0.81663108 24 131 126
0.26546383 -0.50427091 -0.8155542 26 131 125
0.26462901 -0.50548327 -0.81422251 26 131 124
0.26600268 -0.50486267 -0.81663877 29 129 125
0.26491758 -0.50434083 -0.81456441 25 131 125
0.26599056 -0.50525624 -0.81668103 29 131 125
0.26599887 -0.5037064 -0.81644249 27 131 126
0.26358542 -0.50909841 -0.81323272 23 131 122
0.26392409 -0.50821424 -0.81355578 24 131 123
0.26391488 -0.50800925 -0.81349015 24 131 123
0.26497748 -0.50865257 -0.81550878 27 132 124
0.26394665 -0.50859088 -0.81368619 24 131 123
0.265228 -0.50952393 -0.81615818 27 134 124
0.26412258 -0.50723302 -0.81366712 25 131 123
0.26427293 -0.50638801 -0.81374085 26 131 124
0.26560825 -0.50687099 -0.81628835 29 132 124
0.26455793 -0.50639248 -0.81426412 27 131 123
0.26553586 -0.50625515 -0.81602824 29 132 124
0.26556721 -0.50592482 -0.81601733 29 131 124
0.26546305 -0.50756794 -0.8161664 28 132 124
0.26535413 -0.50922191 -0.81630892 27 134 124
0.26356304 -0.51053059 -0.81346989 24 131 123
0.26318303 -0.51304442 -0.81337881 27 134 124
0.26339182 -0.5115034 -0.8134076 25 133 123
0.2648536 -0.51127541 -0.81579006 28 134 125
0.26544318 -0.51041806 -0.81675225 30 133 124
0.26444754 -0.51207876 -0.81519085 27 137 124
0.26446864 -0.51264596 -0.81540358 29 135 125
0.26528683 -0.5114271 -0.81673026 31 135 124
0.26417169 -0.5104968 -0.81447208 25 133 123
0.26425964 -0.51145869 -0.81476808 27 134 124
0.26405799 -0.50989687 -0.81418425 24 131 123
0.264182 -0.51205575 -0.81472003 27 135 124
0.26391315 -0.51260239 -0.81432921 27 134 124
0.26344422 -0.51571429 -0.81485617 27 135 123
0.26352689 -0.51599592 -0.81510389 27 135 123
0.26286706 -0.51524568 -0.81380719 27 135 123
0.26253009 -0.51468754 -0.81301624 27 134 124
0.26238385 -0.51509184 -0.81293929 27 134 124
0.26353672 -0.51714522 -0.81570452 27 134 123
0.26344493 -0.5174287 -0.8156684 27 134 123
0.2643612 -0.51605016 -0.81672752 30 136 123
0.26460677 -0.51518416 -0.81678295 32 136 124
0.26417294 -0.51409751 -0.81532156 30 135 125
0.26372552 -0.51434231 -0.81452537 27 135 125
0.263717 -0.51408309 -0.81437206 27 135 125
0.26379275 -0.5153237 -0.81517786 27 135 124
0.26301587 -0.51832563 -0.81514603 27 137 122
0.26304692 -0.51819348 -0.8151747 27 135 122
0.26219815 -0.51828611 -0.81377757 28 135 122
0.26338643 -0.51853722 -0.81579995 27 137 122
0.26308858 -0.52226788 -0.81646121 39 135 123
0.26305443 -0.52166879 -0.81600302 38 136 123
0.26323023 -0.52210879 -0.81656253 38 137 122
0.27690637 -0.48630083 -0.83191359 28 129 129
0.27702257 -0.48540148 -0.83186334 24 131 128
0.27667534 -0.4854618 -0.83109909 23 131 128
0.27504057 -0.48992968 -0.82939667 17 136 126
0.27464271 -0.48996317 -0.8285526 17 136 126
0.27501181 -0.48840284 -0.82863069 17 134 126
0.27561191 -0.48849094 -0.83009917 19 134 126
0.27556077 -0.48806229 -0.82976013 18 134 126
0.27581474 -0.48962235 -0.83118129 20 133 126
0.27681398 -0.4868899 -0.83202803 27 130 128
0.2764588 -0.48765716 -0.83165348 26 131 127
0.27597576 -0.48894873 -0.83128262 21 132 126
0.27595684 -0.48866785 -0.83108282 21 132 126
0.27595818 -0.48647982 -0.82986331 21 132 127
0.27624425 -0.48782355 -0.83126122 24 131 127
0.27462465 -0.49043444 -0.82864809 18 136 127
0.27484262 -0.49059355 -0.8291266 17 136 126
0.27527708 -0.49389094 -0.83026159 25 134 126
0.27464959 -0.49205601 -0.82896608 21 135 127
0.27502182 -0.49342301 -0.8297841 24 135 126
0.27560401 -0.49399897 -0.83096695 27 134 126
0.27554327 -0.49396139 -0.8308329 26 134 126
0.27547044 -0.49192873 -0.83059478 20 135 126
0.27578843 -0.49045977 -0.83140177 20 133 126
0.275451 -0.49379626 -0.83063102 25 134 126
0.27505919 -0.49649215 -0.83099818 29 134 126
0.2752158 -0.49520278 -0.83067596 27 134 126
0.27519065 -0.49658152 -0.83124036 29 134 126
0.27522814 -0.49505204 -0.83062911 27 134 126
0.27519682 -0.49770159 -0.83171415 31 133 126
0.27488932 -0.4978551 -0.83119333 32 133 126
0.2749581 -0.49740541 -0.83117092 31 133 126
0.27385432 -0.49755216 -0.82916611 32 133 126
0.27415207 -0.49759102 -0.82973313 32 133 126
0.27455902 -0.49665147 -0.83017617 30 135 126
0.2755065 -0.49787444 -0.8323499 33 133 127
0.27578044 -0.4942542 -0.83140391 27 134 126
0.2761021 -0.4942514 -0.83212328 29 132 127
0.27544791 -0.49460846 -0.83081394 27 134 126
0.27429998 -0.49819881 -0.83021402 33 133 127
0.27512562 -0.49915424 -0.83209527 34 133 127
0.2746363 -0.49850678 -0.83094859 33 133 126
0.27496105 -0.49891245 -0.83170068 34 133 127
0.27522963 -0.49942893 -0.83238959 34 134 127
0.27475119 -0.49996129 -0.83169919 36 133 127
0.27337363 -0.4996551 -0.82892007 35 133 127
0.27377763 -0.50058877 -0.83003056 37 133 127
0.27422494 -0.50182056 -0.83132064 38 133 128
0.27385637 -0.50051916 -0.83017027 36 135 126
0.27317441 -0.49984351 -0.82857025 35 133 127
0.2732282 -0.4997468 -0.82865077 35 133 127
0.27353817 -0.50419253 -0.83102089 38 134 127
0.27386546 -0.50525028 -0.83188409 36 134 127
0.27416769 -0.50530446 -0.83241373 35 136 126
0.27271706 -0.5049696 -0.8298499 40 132 127
0.27346081 -0.50460577 -0.83100909 38 134 127
0.27414685 -0.50471479 -0.83220738 36 134 127
0.27206901 -0.50495553 -0.82860726 40 130 128
0.27303657 -0.50236988 -0.82916164 38 132 127
0.27284497 -0.50342518 -0.82935089 40 132 127
0.27382967 -0.50228864 -0.83073795 39 131 128
0.27391726 -0.5025174 -0.83104289 38 133 128
0.27340683 -0.50309962 -0.83032012 39 131 128
0.27271357 -0.50412536 -0.82946777 40 132 127
0.27144358 -0.50946981 -0.82944179 31 132 125
0.27229583 -0.50967151 -0.83142543 36 132 126
0.27258095 -0.50944835 -0.83196187 37 131 126
0.27185899 -0.50939703 -0.83031976 33 132 126
0.271851 -0.50890034 -0.83007324 35 132 126
0.27199265 -0.5094648 -0.83065063 35 132 126
0.27248678 -0.50676531 -0.83025146 38 132 127
0.27217996 -0.50745255 -0.83013558 40 131 127
0.27315 -0.50747931 -0.83180094 37 133 127
0.27247944 -0.50601107 -0.82979351 38 132 127
0.27303898 -0.50590378 -0.83068162 38 133 127
0.27210867 -0.50596797 -0.82913756 40 131 127
0.27125609 -0.51127726 -0.82974285 32 133 125
0.27128556 -0.51228184 -0.83014637 33 134 126
0.27033091 -0.51319838 -0.8285777 38 135 126
0.2707586 -0.51343799 -0.82949823 37 135 127
0.27108371 -0.51143408 -0.82946771 32 133 125
0.27068424 -0.5123713 -0.82899576 36 134 126
0.27208543 -0.5128054 -0.83215219 35 135 127
0.27230257 -0.512119 -0.8324011 35 135 126
0.27188179 -0.51067966 -0.83085722 33 133 126
0.27162814 -0.51153451 -0.83058476 32 134 125
0.27222174 -0.50978094 -0.83130801 35 132 126
0.27204925 -0.50999099 -0.83099413 33 133 125
0.27114439 -0.51478082 -0.83126527 33 138 126
0.27041289 -0.51507014 -0.82997561 38 136 127
0.27056581 -0.51524031 -0.83042181 37 137 127
0.27065486 -0.51697844 -0.83192068 36 137 126
0.27094808 -0.5161292 -0.83188754 35 137 127
0.27004442 -0.51690745 -0.82984716 42 136 128
0.27059799 -0.5175637 -0.8321389 36 139 126
0.26988024 -0.51607597 -0.82878757 43 134 128
0.27038488 -0.5167557 -0.83092517 39 136 127
0.26979741 -0.51684523 -0.82896233 45 135 128
0.2701973 -0.51670355 -0.83025032 41 135 128
0.27151093 -0.51502705 -0.83220798 32 138 126
0.26775709 -0.52148163 -0.8300091 33 136 124
0.26886344 -0.52002728 -0.83080721 36 135 126
0.26858789 -0.5199303 -0.83228141 31 136 123
0.26830962 -0.5204103 -0.83165103 33 134 124
0.26871508 -0.5200367 -0.83137488 34 135 125
0.26814002 -0.52121443 -0.82939094 36 135 125
0.26825508 -0.52066678 -0.83093172 34 134 125
0.26913047 -0.51985562 -0.82996833 38 137 126
0.26930851 -0.51949567 -0.83012778 38 137 127
0.26926005 -0.51935238 -0.82978159 40 136 127
0.26921499 -0.51884979 -0.82899642 43 135 128
0.27050164 -0.51757962 -0.83181876 37 138 127
0.26984698 -0.51855445 -0.83079493 38 137 127
0.2670967 -0.52243769 -0.83130771 34 134 123
0.26735967 -0.52184427 -0.8310799 31 135 123
0.26720276 -0.52319419 -0.83130527 36 134 123
0.25460127 -0.51755667 -0.80174714 26 131 123
0.25534904 -0.51689786 -0.80244893 25 133 121
0.25698033 -0.51578009 -0.80440301 25 133 122
0.25617254 -0.51703459 -0.8034265 26 133 121
0.2573427 -0.5173353 -0.80504841 26 134 122
0.25698856 -0.51656127 -0.80449069 25 134 121
0.25621226 -0.51599389 -0.8033728 25 131 122
0.25636721 -0.51515323 -0.80349767 24 131 122
0.25641868 -0.51606238 -0.80366421 25 133 121
0.2569432 -0.51466757 -0.80423981 24 131 122
0.25567278 -0.51786029 -0.80289215 27 133 121
0.2570878 -0.51888138 -0.80500638 29 134 122
0.25697032 -0.51854539 -0.8046754 27 134 122
0.27218604 -0.49207985 -0.8239817 21 133 125
0.27232349 -0.49401054 -0.82455939 30 131 127
0.27131504 -0.49514225 -0.82299656 25 133 125
0.27146637 -0.49571538 -0.82340628 26 133 125
0.27130628 -0.49522439 -0.82301253 25 133 125
0.27076685 -0.49537364 -0.822308 24 133 125
0.27083042 -0.49780285 -0.8230744 27 133 126
0.26979613 -0.4970122 -0.82114488 24 133 126
0.27019414 -0.49697998 -0.82181007 25 133 126
0.27006602 -0.49691832 -0.8215794 24 133 125
0.2719453 -0.49620178 -0.82454532 29 132 125
0.27225542 -0.49435729 -0.82451713 30 131 127
0.27116713 -0.49818256 -0.8237493 27 134 124
0.27128485 -0.4982065 -0.82395703 27 132 125
0.2706714 -0.49867114 -0.82309079 27 134 125
0.27146471 -0.49912953 -0.8245995 30 133 125
0.27080438 -0.49908215 -0.82346547 29 134 126
0.26985994 -0.49843049 -0.82163078 27 133 126
0.2704232 -0.5010857 -0.82350117 32 134 126
0.26968443 -0.49955714 -0.82162261 27 134 126
0.2695162 -0.49968418 -0.82128942 27 134 126
0.26928732 -0.49955359 -0.82077575 25 133 126
0.26966226 -0.49926376 -0.82151687 27 134 126
0.26937264 -0.50037569 -0.82112122 26 134 126
0.26917401 -0.5055052 -0.82296604 29 132 125
0.27001911 -0.50373459 -0.82379138 32 133 125
0.2685574 -0.50519079 -0.82177454 28 132 125
0.26893219 -0.50561792 -0.82258534 29 132 125
0.26926133 -0.50411701 -0.82260919 30 133 125
0.26909408 -0.50454003 -0.82247245 30 132 125
0.27038461 -0.50252771 -0.8239761 33 134 126
0.26921442 -0.50262654 -0.82154858 27 134 126
0.26955682 -0.50266588 -0.82230455 30 133 126
0.26920953 -0.50203097 -0.82113987 27 134 126
0.2700597 -0.5023945 -0.82319456 31 136 126
0.26891947 -0.50428122 -0.82202685 29 132 125
0.26761582 -0.5082975 -0.82077754 25 134 123
0.26846114 -0.50923508 -0.82256579 27 134 124
0.26810652 -0.50758064 -0.82159019 27 132 124
0.26885757 -0.5092932 -0.82335061 30 132 125
0.26895705 -0.50967139 -0.82360971 31 133 125
0.26790175 -0.50820893 -0.82129705 27 133 124
0.26830003 -0.50733662 -0.82192677 28 132 125
0.26815253 -0.50622118 -0.82140702 27 133 124
0.26945776 -0.50948495 -0.82453209 32 133 125
0.26948735 -0.50645733 -0.823798 30 133 124
0.26897722 -0.50647795 -0.82291305 29 132 125
0.26905647 -0.50770777 -0.82337052 30 132 125
0.26964685 -0.50611448 -0.82398736 30 133 124
0.26696444 -0.51327038 -0.8213315 27 137 124
0.2673938 -0.51301324 -0.82203442 27 137 124
0.2670134 -0.51188809 -0.82082039 27 135 123
0.26929423 -0.51028603 -0.8245554 32 134 124
0.26886433 -0.51164609 -0.82442403 33 134 124
0.26833659 -0.51236922 -0.82363337 29 136 123
0.26780662 -0.51107967 -0.82196277 27 135 123
0.26864651 -0.51118195 -0.82365024 29 135 124
0.26776415 -0.51146472 -0.82205153 27 135 123
0.2678096 -0.51275426 -0.82271546 27 137 124
0.26759785 -0.51082706 -0.82144207 26 136 123
0.26790974 -0.51060009 -0.8219505 27 135 123
0.26739636 -0.51369989 -0.82234228 27 138 123
0.26712635 -0.51546705 -0.82278997 27 138 123
0.26716056 -0.51567316 -0.82296699 27 137 124
0.26691845 -0.51524723 -0.82227421 27 137 124
0.26625514 -0.51565933 -0.82083654 31 137 124
0.26691729 -0.51571333 -0.82246542 27 137 124
0.26630244 -0.51559466 -0.82092434 31 137 124
0.26600605 -0.51734668 -0.82093441 35 136 126
0.26796123 -0.5138306 -0.82368141 30 137 123
0.2678535 -0.51448035 -0.82377505 29 137 123
0.26623631 -0.51968873 -0.82257372 40 134 125
0.26672053 -0.52002496 -0.82402676 38 136 126
0.26641458 -0.52024639 -0.82335657 40 135 126
0.26689884 -0.51959825 -0.8242473 36 136 125
0.26597452 -0.51882017 -0.82153052 40 134 126
0.26687482 -0.51857543 -0.82360113 33 137 124
0.26591432 -0.51834887 -0.82116574 38 136 126
0.26601562 -0.51762539 -0.82107592 36 134 127
0.26683864 -0.51825744 -0.82336581 33 137 124
0.27820772 -0.48556495 -0.83458185 24 131 128
0.2787123 -0.48632017 -0.83573413 23 135 127
0.27785116 -0.48520121 -0.83378959 24 131 128
0.27782083 -0.48620254 -0.83385581 26 133 127
0.27796543 -0.48603261 -0.83413607 26 131 129
0.27752265 -0.48573285 -0.83317184 27 130 128
0.27755699 -0.48539248 -0.83316195 26 130 129
0.27810693 -0.4844141 -0.8341952 21 132 127
0.27746868 -0.48563379 -0.83302957 27 130 128
0.27776787 -0.4850415 -0.83356774 24 131 128
0.27761245 -0.48387519 -0.8327015 19 132 126
0.27735016 -0.4856061 -0.83271194 27 130 128
0.27874228 -0.48704183 -0.83612311 23 133 127
0.27797782 -0.48907313 -0.83545804 24 135 126
0.27765933 -0.48948559 -0.8350085 24 135 126
0.27824295 -0.48798087 -0.83553451 23 135 127
0.27865776 -0.48767531 -0.83621204 23 135 127
0.27786365 -0.48938191 -0.83536083 24 135 126
0.27788392 -0.48674127 -0.83421731 26 133 127
0.2775535 -0.48740691 -0.83387041 25 133 127
0.27691379 -0.48861513 -0.83315736 25 131 127
0.27712089 -0.48778471 -0.83316129 26 131 127
0.27803361 -0.48761302 -0.83498025 21 135 127
0.27680475 -0.48848453 -0.83286202 25 133 126
0.27778739 -0.49143687 -0.83563834 27 134 126
0.27734122 -0.49232385 -0.83473206 27 134 126
0.27630123 -0.49412474 -0.83253473 30 132 126
0.27686739 -0.49316555 -0.83373767 30 132 127
0.27753484 -0.49267864 -0.835361 31 133 126
0.27794924 -0.49092701 -0.83590728 27 134 126
0.27732429 -0.49103484 -0.83462316 26 134 126
0.27656013 -0.49137375 -0.83313543 26 133 126
0.27673548 -0.49302936 -0.83339572 28 132 126
0.27658355 -0.4929437 -0.83310705 28 132 126
0.27649334 -0.49033365 -0.8330555 24 133 125
0.27663049 -0.49213293 -0.83323538 27 134 126
0.27689719 -0.49685356 -0.8355791 39 131 127
0.27714929 -0.49676624 -0.83622652 40 130 127
0.27735299 -0.49500051 -0.83579111 36 132 127
0.27665207 -0.49727398 -0.83513916 38 131 127
0.27648884 -0.49653774 -0.83427167 36 132 127
0.27615568 -0.4975864 -0.83394372 36 133 127
0.27607977 -0.49572262 -0.83275467 32 132 126
0.27714771 -0.49500674 -0.83523571 36 130 127
0.27587834 -0.49704343 -0.83289003 33 132 127
0.27694297 -0.49436948 -0.83436596 34 131 127
0.27652672 -0.49529445 -0.8337276 33 132 127
0.2750884 -0.50033462 -0.83247358 36 134 127
0.2752254 -0.50191045 -0.83353961 40 133 128
0.27598256 -0.50152326 -0.83548629 40 133 127
0.27546823 -0.50132471 -0.83387566 39 133 128
0.27576226 -0.50122052 -0.83469158 40 133 128
0.27602142 -0.50186467 -0.83576536 42 133 127
0.27613008 -0.49811438 -0.8341679 37 131 127
0.27575725 -0.4991751 -0.8336823 36 133 127
0.27641827 -0.49950519 -0.83567917 41 131 127
0.27616143 -0.50076735 -0.83561778 40 133 127
0.2764011 -0.49988079 -0.83582479 41 132 127
0.27610174 -0.50038958 -0.8352586 40 132 127
0.27497748 -0.50298303 -0.83357388 40 134 127
0.27487603 -0.50202328 -0.83277494 38 135 127
0.27460262 -0.50347155 -0.83276266 38 135 127
0.274995 -0.50546539 -0.83488488 40 135 127
0.27473766 -0.50457364 -0.83369851 39 134 127
0.27462474 -0.50491875 -0.83354175 38 135 127
0.27467963 -0.5044561 -0.83347225 38 135 127
0.27466503 -0.50533485 -0.83386409 39 134 127
0.27560905 -0.50298655 -0.83519548 42 133 128
0.27553186 -0.50244534 -0.83465272 41 133 128
0.27586612 -0.50196755 -0.83535886 42 133 128
0.27599242 -0.50248784 -0.83603418 42 133 128
0.27479687 -0.50587535 -0.83451426 39 135 126
0.27479026 -0.506962 -0.83560389 41 133 128
0.27416432 -0.50788593 -0.83481282 37 133 127
0.27419123 -0.50873512 -0.83578819 37 133 126
0.27422819 -0.50616944 -0.8331753 36 134 127
0.27511257 -0.50625837 -0.83577001 42 134 127
0.27518645 -0.50653642 -0.83627331 43 134 127
0.27397308 -0.50905353 -0.8354997 36 133 126
0.27364436 -0.50900382 -0.83443981 36 133 126
0.2735337 -0.50963783 -0.83477545 37 131 126
0.27383575 -0.50972909 -0.83579785 37 131 126
0.27403575 -0.50747478 -0.83401179 36 134 126
0.27370757 -0.50791132 -0.83347094 36 134 126
0.27130559 -0.51324576 -0.83577591 26 134 124
0.27173457 -0.51366806 -0.83351469 29 136 125
0.27175435 -0.51303363 -0.83443052 29 136 125
0.27205631 -0.51290941 -0.83401197 31 136 125
0.27254003 -0.51167917 -0.83554178 31 135 125
0.27233058 -0.51199794 -0.83533585 31 135 125
0.27259651 -0.51158828 -0.83560795 31 135 125
0.27255544 -0.51080102 -0.83246762 37 133 127
0.27250606 -0.5111081 -0.83248049 36 134 126
0.27335951 -0.51011401 -0.83456403 36 133 125
0.27261174 -0.51070583 -0.83258927 37 133 127
0.27265009 -0.51047152 -0.83258164 37 133 126
0.27134514 -0.51559407 -0.83259892 31 138 126
0.27134344 -0.51540101 -0.83283007 31 137 126
0.27100477 -0.51449353 -0.83522284 27 137 124
0.27121982 -0.51401788 -0.83499593 27 135 124
0.27030241 -0.51649052 -0.8350119 31 137 124
0.27077398 -0.51482987 -0.83559579 27 137 124
0.27029163 -0.51592869 -0.83575886 29 135 124
0.27067631 -0.51598424 -0.83444756 31 136 125
0.27086937 -0.51466399 -0.83549839 27 137 124
0.27036616 -0.51724494 -0.83385009 33 138 125
0.2715109 -0.51487374 -0.83289951 29 139 125
0.26931438 -0.51916832 -0.83268213 33 136 125
0.26940584 -0.51906919 -0.83268893 33 136 125
0.26833752 -0.52059215 -0.83377111 27 134 123
0.26790622 -0.52134341 -0.83460528 26 134 122
0.26838768 -0.52060425 -0.83397144 27 134 123
0.26841295 -0.52109152 -0.83551115 27 134 121
0.26965475 -0.51925474 -0.83408505 32 136 124
0.27017847 -0.51812941 -0.83350372 34 137 125
0.26971641 -0.51864439 -0.83449954 32 137 124
0.26871949 -0.52054089 -0.83589351 27 134 122
0.26958054 -0.51849395 -0.83508211 31 136 123
0.26898059 -0.51930541 -0.83623797 28 135 122
0.26804984 -0.52149236 -0.83552164 25 134 121
0.26766762 -0.52377516 -0.83243579 34 134 122
0.26690236 -0.52599239 -0.83293843 34 136 122
0.2639437 -0.52770758 -0.83279628 37 136 124
0.26384801 -0.52554667 -0.83282459 27 132 124
0.26567268 -0.52599972 -0.83288985 32 136 123
0.28353593 -0.47840452 -0.85007453 28 135 127
0.2835485 -0.47801355 -0.85127199 34 136 126
0.28391957 -0.47771478 -0.85070074 28 136 126
0.28438833 -0.47688568 -0.8514232 28 135 127
0.28318015 -0.47962648 -0.85011828 28 136 126
0.28296298 -0.48087195 -0.84953499 26 134 127
0.2825748 -0.47963193 -0.85167068 33 136 125
0.28249446 -0.48039079 -0.85133404 28 135 125
0.28324252 -0.47910678 -0.85035294 31 135 126
0.28187391 -0.48628539 -0.84882635 25 133 127
0.28104171 -0.4859857 -0.85002106 23 133 126
0.28015321 -0.49022776 -0.84892642 29 132 125
0.27972278 -0.48837578 -0.84998679 27 133 124
0.28069156 -0.49016377 -0.84843081 31 133 125
0.2803686 -0.49010378 -0.84876245 30 132 125
0.28091627 -0.48637173 -0.84960276 25 133 126
0.28114507 -0.48865813 -0.84855211 29 134 126
0.28053349 -0.48735055 -0.84959596 27 133 126
0.28009397 -0.4865582 -0.85029203 25 133 125
0.28185347 -0.48765725 -0.84826696 27 132 127
0.27951813 -0.48650616 -0.85084176 26 131 125
0.27939209 -0.49212202 -0.84882689 26 131 124
0.27956614 -0.49037749 -0.84942603 26 131 124
0.2804502 -0.49118111 -0.84822237 30 132 125
0.27989826 -0.49182498 -0.84847045 27 132 124
0.27683735 -0.50598335 -0.84820485 40 133 124
0.27682269 -0.50611597 -0.84808391 40 133 124
0.26362443 -0.50479525 -0.81234378 23 131 123
0.26331067 -0.50559342 -0.81191486 24 130 124
0.26235449 -0.50506306 -0.81044734 23 130 123
0.2619153 -0.50539994 -0.80973399 23 131 122
0.26346818 -0.50681573 -0.81246501 24 131 123
0.2628471 -0.50634432 -0.81133056 24 131 123
0.26311558 -0.50882471 -0.81251377 21 133 122
0.26160789 -0.50616467 -0.80931443 24 131 122
0.26273206 -0.50763309 -0.81154525 24 131 123
0.26342195 -0.50817072 -0.81280512 24 131 123
0.2613765 -0.50839972 -0.80925578 23 133 121
0.26151121 -0.5082261 -0.80948168 23 133 121
0.26215062 -0.5087086 -0.81077361 21 133 122
0.26189208 -0.5074718 -0.81007659 24 131 122
0.26177707 -0.50872213 -0.81006849 23 133 122
0.26161343 -0.50826889 -0.80968249 23 133 121
0.26132739 -0.51286465 -0.81017929 25 133 123
0.26254976 -0.51215386 -0.81226891 25 133 123
0.26251987 -0.51215166 -0.81221348 25 133 123
0.26158133 -0.51344579 -0.81077421 26 134 124
0.26277968 -0.51212376 -0.81268471 25 134 123
0.26261398 -0.51273483 -0.81251508 26 134 124
0.26114973 -0.51363301 -0.81002235 26 133 124
0.2617408 -0.51066738 -0.81040734 23 133 122
0.26223513 -0.5102241 -0.81122911 23 133 122
0.26169512 -0.51027393 -0.81021941 23 133 122
0.26106411 -0.51145571 -0.80932915 23 135 122
0.26098239 -0.51179862 -0.80926281 24 133 123
0.26184121 -0.51054186 -0.81056505 23 133 122
0.26147398 -0.51541954 -0.81119543 27 134 123
0.26026177 -0.51739258 -0.80966008 26 133 122
0.26175725 -0.51516968 -0.81166494 27 134 123
0.26210594 -0.51514578 -0.81239158 27 135 123
0.26091918 -0.51724511 -0.81097639 27 133 122
0.26204446 -0.51468307 -0.81201863 27 134 123
0.26037836 -0.51619327 -0.80942357 26 134 123
0.26140144 -0.51435488 -0.81071299 26 134 123
0.26052007 -0.51513517 -0.80934405 26 133 123
0.26172805 -0.51440781 -0.81133014 27 134 123
0.26065841 -0.51477432 -0.80948228 26 133 123
0.26028931 -0.51658666 -0.80938643 26 133 123
0.26035181 -0.51795185 -0.81009096 28 132 123
0.26157793 -0.51787513 -0.81266099 29 134 123
0.26012877 -0.51772022 -0.80952966 27 133 122
0.2745927 -0.4868952 -0.82737958 17 134 126
0.27495396 -0.48736617 -0.82814258 17 134 126
0.2745772 -0.48775357 -0.82765663 18 134 127
0.27417564 -0.48720679 -0.82680035 17 134 126
0.27418754 -0.48908651 -0.82748276 17 136 126
0.27318561 -0.48764232 -0.82518083 17 134 126
0.27326185 -0.48854768 -0.82552183 17 134 126
0.27337232 -0.48884001 -0.82580596 18 134 126
0.27332041 -0.48813829 -0.82555616 17 134 126
0.27290288 -0.49386001 -0.82577783 28 132 126
0.27273783 -0.49386227 -0.82541609 29 131 127
0.27393565 -0.49146575 -0.82743943 20 135 127
0.27339527 -0.49277887 -0.82658529 26 133 127
0.27246523 -0.4940612 -0.82486808 30 131 127
0.27273151 -0.49412104 -0.82546771 29 132 126
0.27438769 -0.49032232 -0.82816446 17 136 126
0.27273336 -0.49232602 -0.82512593 25 133 126
0.27266493 -0.49029171 -0.82466859 19 134 125
0.27372351 -0.49071422 -0.82687992 19 134 126
0.27391878 -0.49105784 -0.82732946 20 135 127
0.27349067 -0.49650118 -0.8280676 30 133 126
0.27348506 -0.49741486 -0.82841766 31 135 126
0.27369329 -0.49490663 -0.82788223 27 134 126
0.27276027 -0.49765691 -0.82691383 30 133 125
0.27192649 -0.49765936 -0.82507432 27 134 124
0.27323341 -0.49692115 -0.82766634 30 133 126
0.27244794 -0.4951413 -0.82523936 29 132 126
0.27253982 -0.4963136 -0.8258968 27 134 125
0.27275869 -0.49499503 -0.82586443 29 132 126
0.27270326 -0.49501085 -0.82574904 29 132 126
0.27273399 -0.49525365 -0.82591081 29 132 126
0.27385175 -0.49448481 -0.82806528 27 134 126
0.27132517 -0.50110114 -0.82505542 34 134 126
0.27161336 -0.49853435 -0.82470602 29 134 125
0.27205995 -0.50089335 -0.82648182 36 133 126
0.27177122 -0.50169945 -0.82613522 36 135 126
0.27240187 -0.50157845 -0.827456 37 133 127
0.27211946 -0.50159031 -0.82685 37 133 127
0.2721459 -0.49933186 -0.82613575 33 132 126
0.27280709 -0.49990964 -0.82778561 35 133 127
0.27236876 -0.49936804 -0.82663959 33 133 126
0.2720077 -0.49877587 -0.82564753 30 133 124
0.27256274 -0.49859369 -0.82681274 32 133 125
0.27191195 -0.49830848 -0.82528222 29 134 125
0.27122632 -0.50276834 -0.82563877 36 135 126
0.27146342 -0.50359279 -0.82647049 36 135 126
0.27102 -0.50294906 -0.82540834 35 135 126
0.27054161 -0.5042966 -0.82498366 33 133 126
0.27087933 -0.50510192 -0.82608694 34 134 125
0.27083102 -0.5056594 -0.82623678 34 133 125
0.27105597 -0.5032419 -0.82562059 35 135 126
0.27221853 -0.50408393 -0.82841122 40 131 127
0.27163309 -0.50401235 -0.82705605 37 133 127
0.27212456 -0.50230855 -0.82718116 38 133 127
0.27163219 -0.5030157 -0.82650626 36 134 126
0.27172139 -0.50230277 -0.82630712 36 135 126
0.27205914 -0.50253558 -0.82716459 38 133 127
0.27136022 -0.50661594 -0.82791132 36 132 127
0.2714642 -0.50654471 -0.82809699 36 132 127
0.27052101 -0.50764644 -0.82660711 31 132 125
0.27105147 -0.50762957 -0.82777685 33 132 126
0.27084947 -0.5095374 -0.82832241 30 132 124
0.2707468 -0.50873363 -0.82767534 31 132 125
0.27020875 -0.5091632 -0.82641864 31 132 125
0.26963529 -0.5090915 -0.82481498 32 133 125
0.26985103 -0.50961453 -0.82562077 31 133 125
0.27016294 -0.50950873 -0.82643396 31 133 125
0.26985162 -0.50958508 -0.8256104 31 133 125
0.27044401 -0.50787181 -0.82653731 31 132 125
0.27031323 -0.5109781 -0.82774246 33 132 125
0.26984408 -0.51362538 -0.82770181 38 135 126
0.26912844 -0.51315546 -0.82600981 35 134 124
0.27019966 -0.51342463 -0.82838541 40 133 127
0.26901996 -0.51299059 -0.82571942 34 135 124
0.27024901 -0.51177245 -0.82789308 34 133 125
0.26967806 -0.5106737 -0.82589561 32 133 124
0.26916245 -0.51242465 -0.82580662 33 133 124
0.27002487 -0.51067454 -0.82684833 31 133 124
0.2696155 -0.5113495 -0.82623577 32 134 124
0.27054104 -0.50995183 -0.8277179 30 132 124
0.26942876 -0.51007849 -0.82475996 33 134 125
0.26803476 -0.51595795 -0.82494175 32 137 124
0.26862064 -0.51627403 -0.82619613 38 135 127
0.26894155 -0.51733565 -0.82726973 42 135 127
0.26893944 -0.51697779 -0.82710999 42 135 127
0.26871035 -0.51737702 -0.82684708 39 134 127
0.26992196 -0.51468289 -0.82825798 42 133 128
0.27004561 -0.51428759 -0.8283748 41 133 127
0.26949701 -0.51586944 -0.82779282 43 134 128
0.26850888 -0.51409239 -0.8250342 36 134 124
0.26974121 -0.51556301 -0.82819903 43 134 127
0.2696183 -0.51571083 -0.8279922 43 134 127
0.26703933 -0.51986623 -0.82475746 36 136 126
0.26709473 -0.52132088 -0.82567853 40 136 127
0.26700976 -0.52141279 -0.82551914 41 135 128
0.26730132 -0.52035022 -0.82566291 36 137 126
0.26791582 -0.52095491 -0.82737708 38 137 127
0.26915163 -0.51850212 -0.82836837 45 135 128
0.26802424 -0.52004039 -0.8270002 38 136 128
0.26794845 -0.51939958 -0.82649833 36 136 127
0.26764992 -0.51891696 -0.82565999 32 137 125
0.26816112 -0.52014995 -0.82732236 40 135 128
0.26780057 -0.5180738 -0.82547683 32 136 125
0.268314 -0.51965153 -0.82733572 40 135 128
0.26793835 -0.52149189 -0.828013 38 136 127
0.26771185 -0.52291298 -0.82817608 40 137 124
0.28165218 -0.48522583 -0.84214765 29 129 129
0.28164676 -0.48487327 -0.84206444 27 130 128
0.28178439 -0.48558313 -0.84250832 30 129 129
0.2825391 -0.48523602 -0.84408349 30 129 130
0.28218567 -0.48442385 -0.84314835 26 131 127
0.28160882 -0.4830651 -0.84117144 23 131 128
0.28084433 -0.48584577 -0.84046382 30 131 128
0.28133908 -0.48312342 -0.840473 24 131 128
0.28100276 -0.48534897 -0.84064907 29 131 129
0.28181982 -0.48744187 -0.84317762 33 132 130
0.28111556 -0.49015266 -0.84365165 33 132 127
0.28057936 -0.49007273 -0.84181976 31 133 128
0.28202477 -0.48744193 -0.84384674 33 131 130
0.28179467 -0.48805025 -0.84371781 33 131 130
0.28144994 -0.48683742 -0.84210891 33 131 130
0.28158259 -0.48720688 -0.84252787 33 132 130
0.28106698 -0.48637241 -0.84111077 32 131 129
0.28057995 -0.48890018 -0.84093636 30 133 128
0.28063524 -0.48899969 -0.84109187 31 133 129
0.2810635 -0.48787552 -0.84163088 31 132 129
0.28022102 -0.49330702 -0.84306484 31 133 126
0.28071532 -0.49137214 -0.84308928 31 133 127
0.28041083 -0.4922806 -0.84275663 31 132 127
0.27988246 -0.49382645 -0.84214532 29 134 126
0.28021166 -0.4927583 -0.8424086 30 133 127
0.28053209 -0.49034977 -0.84189528 31 133 128
0.28043681 -0.49102351 -0.84196204 30 133 127
0.28086776 -0.49051699 -0.84308463 33 132 128
0.28036603 -0.49142367 -0.84195524 30 133 127
0.28046483 -0.49060336 -0.84181792 31 133 128
0.27999401 -0.49127007 -0.84065479 28 135 127
0.27929634 -0.49680072 -0.84129715 29 135 126
0.27914768 -0.49588659 -0.84051722 28 135 127
0.27914491 -0.49550056 -0.84032643 27 135 126
0.27994144 -0.49759856 -0.84368503 35 133 127
0.27941981 -0.49716353 -0.84184843 31 136 126
0.27952531 -0.49782965 -0.84250015 33 134 126
0.28015625 -0.49416876 -0.84371936 33 132 126
0.279944 -0.4966996 -0.84345341 33 133 126
0.27970785 -0.49594 -0.84220338 31 133 126
0.28000683 -0.49681145 -0.84376174 35 132 127
0.28007418 -0.49684718 -0.8440699 36 132 127
0.28008401 -0.49522716 -0.84368128 33 132 127
0.27928039 -0.49898508 -0.84305263 33 134 126
0.27912754 -0.49842301 -0.84198248 33 136 126
0.27816665 -0.50161475 -0.84398907 33 135 126
0.27835581 -0.50053561 -0.84299743 33 135 126
0.27817076 -0.50167167 -0.84407282 33 135 126
0.2783336 -0.49896163 -0.84035331 36 134 127
0.27806205 -0.50051546 -0.84152853 36 134 127
0.27820131 -0.49981189 -0.84110701 36 134 127
0.27816191 -0.50014716 -0.84149063 35 136 126
0.27829745 -0.50000215 -0.84212679 33 137 126
0.27945209 -0.49897617 -0.8435629 33 134 126
0.27949899 -0.4991602 -0.84394395 33 134 126
0.2746228 -0.50579679 -0.84350502 29 134 124
0.27515465 -0.50576037 -0.84159595 31 132 125
0.27612942 -0.50481248 -0.841322 33 132 126
0.27616233 -0.50410813 -0.84328669 31 135 126
0.27561408 -0.50443643 -0.84392083 29 135 125
0.27650458 -0.50398946 -0.84263837 32 133 125
0.27680519 -0.5033465 -0.84364468 32 134 125
0.27644119 -0.50406182 -0.84261101 32 133 125
0.27707243 -0.50288552 -0.84086257 40 131 127
0.27714914 -0.50270462 -0.84075236 40 130 128
0.27636456 -0.50434977 -0.84116626 35 132 127
0.27647316 -0.50394171 -0.84048122 38 130 127
0.2777223 -0.50232428 -0.8433091 34 135 126
0.27604294 -0.50476807 -0.84044451 36 130 127
0.27435428 -0.50684088 -0.84298748 30 133 124
0.27516383 -0.5060876 -0.84095788 32 132 125
0.27519557 -0.50590593 -0.841088 32 132 125
0.2745212 -0.5075267 -0.84140974 31 133 124
0.2741065 -0.50941271 -0.84038174 32 134 124
0.2745893 -0.5078159 -0.84075308 33 132 125
0.27399337 -0.50893545 -0.84360242 31 135 124
0.27406463 -0.50895965 -0.84182334 31 135 123
0.27404493 -0.5093537 -0.8409614 32 134 124
0.2741946 -0.50779235 -0.84267002 31 133 124
0.27395809 -0.50959623 -0.84221154 31 136 123
0.27398047 -0.50931019 -0.84264392 31 136 123
0.27238315 -0.51080358 -0.84334129 17 132 125
0.27293453 -0.51043773 -0.84283555 21 133 124
0.27363345 -0.51000464 -0.84113431 29 134 125
0.27313292 -0.51027149 -0.84384727 24 135 124
0.2715297 -0.51136583 -0.84385324 11 130 126
0.27306679 -0.51034701 -0.84046268 29 132 124
0.27256408 -0.51064622 -0.84026927 29 132 123
0.27335513 -0.51018065 -0.84077263 29 132 125
0.28407523 -0.47715425 -0.8520878 33 135 126
0 0 0 1 0 0 0 1 0 0 0 1 0 0 0 0 0 915 1 0 0
