ply
format ascii 1.0
comment PCL generated
element vertex 819
property float x
property float y
property float z
property uchar red
property uchar green
property uchar blue
element camera 1
property float view_px
property float view_py
property float view_pz
property float x_axisx
property float x_axisy
property float x_axisz
property float y_axisx
property float y_axisy
property float y_axisz
property float z_axisx
property float z_axisy
property float z_axisz
property float focal
property float scalex
property float scaley
property float centerx
property float centery
property int viewportx
property int viewporty
property float k1
property float k2
end_header
0.25151247 -0.43825775 -0.80589128 29 132 118
0.25190011 -0.43870157 -0.80605376 28 134 118
0.25077638 -0.43799475 -0.80547762 30 132 117
0.25249255 -0.43916756 -0.80637509 32 132 119
0.25119093 -0.4405303 -0.80528563 27 134 117
0.25146553 -0.43987373 -0.80557466 26 134 117
0.25359166 -0.44283041 -0.8064909 27 134 117
0.25400001 -0.443059 -0.80672413 26 136 117
0.25205603 -0.4399029 -0.80595452 26 133 119
0.25265646 -0.44005227 -0.80633712 30 133 118
0.25518513 -0.44377446 -0.80744416 24 135 119
0.25739914 -0.44685805 -0.80888045 23 133 119
0.25670633 -0.44588763 -0.80842537 25 134 120
0.25704607 -0.44571602 -0.80868763 27 134 120
0.25589252 -0.44388676 -0.8079161 24 138 119
0.25587904 -0.44420096 -0.80788934 24 136 119
0.2557005 -0.4559924 -0.80645967 23 130 118
0.2556037 -0.45825505 -0.80615783 30 131 116
0.2543782 -0.45792457 -0.80522281 27 131 116
0.25523272 -0.45879859 -0.80581087 31 131 116
0.25749236 -0.45884258 -0.80761719 29 131 116
0.25797132 -0.45886841 -0.80800015 27 131 116
0.25730798 -0.45894873 -0.80745757 29 131 116
0.25767717 -0.45675492 -0.80798417 26 131 117
0.25674254 -0.45874557 -0.80702347 30 131 116
0.25710016 -0.45631421 -0.80756086 25 130 118
0.25590917 -0.45593572 -0.80663133 23 130 119
0.25612053 -0.45664081 -0.80673271 25 130 118
0.25703514 -0.45633385 -0.80750608 25 130 118
0.25584561 -0.46020621 -0.80606872 28 131 117
0.25514093 -0.45921347 -0.80568099 30 131 116
0.25524926 -0.46138486 -0.80539799 23 131 117
0.25465617 -0.46040219 -0.80510235 25 131 117
0.25601095 -0.4628149 -0.80576366 17 132 116
0.25759184 -0.46001279 -0.80750763 25 130 117
0.25703865 -0.46054021 -0.8069725 24 131 117
0.25723478 -0.45952919 -0.80730224 27 131 116
0.25598449 -0.46147299 -0.80596507 23 131 117
0.25625491 -0.46106923 -0.80625141 24 131 117
0.26939136 -0.43861517 -0.81966615 38 132 117
0.26704717 -0.44110376 -0.81723857 36 134 114
0.26733539 -0.442507 -0.81735671 30 135 113
0.2671099 -0.44310856 -0.81711537 32 133 114
0.26988322 -0.4407846 -0.81998605 31 133 117
0.27051985 -0.44056392 -0.82064581 32 133 118
0.2705487 -0.44256657 -0.82054663 28 132 119
0.26860633 -0.44262183 -0.81857318 28 134 115
0.26845503 -0.44265401 -0.81841767 28 134 115
0.26785421 -0.44302481 -0.81778455 27 134 114
0.26813483 -0.44085231 -0.81823897 34 134 115
0.2680755 -0.44064811 -0.81819683 35 133 116
0.2676858 -0.44148433 -0.81774247 33 133 115
0.26824301 -0.44187352 -0.81826305 31 133 115
0.26890323 -0.44032308 -0.81904364 35 133 116
0.26707989 -0.44463754 -0.81699842 34 133 114
0.26720372 -0.44709945 -0.81696725 36 133 113
0.26940656 -0.44613054 -0.81916797 30 133 116
0.27030358 -0.44649959 -0.82003242 28 134 117
0.26988167 -0.44562817 -0.81967562 29 134 117
0.27072266 -0.44685745 -0.82042301 28 132 117
0.26979098 -0.44568783 -0.81958133 29 134 116
0.26984432 -0.44556826 -0.81964284 29 134 117
0.27008238 -0.4437238 -0.82000309 27 134 118
0.26898476 -0.44442058 -0.81885213 28 134 116
0.26779127 -0.4452827 -0.81759495 29 135 113
0.26842386 -0.44464919 -0.8182708 29 134 115
0.26826888 -0.4463326 -0.81802231 32 134 114
0.26788908 -0.44527128 -0.81769472 29 135 113
0.26746008 -0.4477157 -0.81715256 36 133 113
0.26742095 -0.45083147 -0.81697297 39 129 116
0.27034703 -0.4496274 -0.82000029 29 134 116
0.27019852 -0.44858161 -0.81983495 30 132 116
0.27021834 -0.45102349 -0.81987685 30 133 116
0.26963884 -0.45047095 -0.81926215 32 132 116
0.27057654 -0.4494381 -0.8202402 29 134 116
0.26993421 -0.45039383 -0.81957239 30 133 116
0.26935357 -0.44935843 -0.81895226 33 131 117
0.26950103 -0.4479638 -0.81914991 32 132 116
0.26814505 -0.44971353 -0.81772631 36 132 115
0.26811868 -0.44984254 -0.81769443 36 132 115
0.26873952 -0.44827133 -0.81838018 33 132 115
0.27012199 -0.44799659 -0.81976515 30 132 116
0.26817626 -0.44986898 -0.81775051 36 130 116
0.27094552 -0.45426631 -0.82038343 24 131 119
0.27043793 -0.45462885 -0.81985223 24 131 120
0.2681956 -0.45489159 -0.81761968 23 130 121
0.26969701 -0.45480993 -0.81910646 24 130 120
0.26783225 -0.45500946 -0.8172515 23 130 121
0.26879889 -0.45457205 -0.81824154 24 131 120
0.27120447 -0.453821 -0.82067668 25 131 119
0.2683197 -0.45164177 -0.81786716 35 130 116
0.27026334 -0.45181379 -0.81990844 27 132 117
0.2686891 -0.45316386 -0.81821549 27 131 118
0.26890177 -0.45248714 -0.81845737 28 132 117
0.26968524 -0.45262745 -0.8192783 26 133 117
0.26899531 -0.45131245 -0.81858706 33 132 115
0.26949909 -0.45129618 -0.81911784 32 132 116
0.26938841 -0.45529461 -0.81876391 23 130 121
0.2839222 -0.43889627 -0.83700472 36 132 126
0.28446135 -0.44243309 -0.83797777 33 133 125
0.28482363 -0.44235203 -0.83883566 35 132 125
0.28521577 -0.44331914 -0.83991796 36 132 126
0.28486279 -0.4419772 -0.83887506 36 132 126
0.28521243 -0.44311729 -0.83988053 36 132 126
0.28398192 -0.44135588 -0.83695072 33 132 125
0.28380486 -0.44010296 -0.83665764 33 133 125
0.28408745 -0.4403812 -0.83720797 33 133 125
0.28380549 -0.44160846 -0.83658665 30 132 124
0.28486288 -0.44528881 -0.83895111 32 132 126
0.28422093 -0.44655567 -0.83735234 28 131 127
0.28544885 -0.44677004 -0.84018916 32 131 126
0.28493765 -0.44552383 -0.83910525 32 132 126
0.28427947 -0.4470067 -0.83745056 28 131 127
0.28473353 -0.44620952 -0.83857316 30 132 126
0.28412923 -0.44470143 -0.83724272 29 132 125
0.28418612 -0.44574696 -0.83732271 29 132 126
0.28423807 -0.44545761 -0.83746314 29 132 125
0.28392595 -0.44649473 -0.83665776 27 131 126
0.28464267 -0.44345406 -0.83854276 33 132 125
0.28397837 -0.44486618 -0.83687162 29 131 125
0.28553179 -0.44847873 -0.83993602 29 129 127
0.285523 -0.4497554 -0.83953494 27 130 127
0.28541815 -0.44835779 -0.83979839 29 129 127
0.2854571 -0.44757202 -0.84009671 30 131 126
0.28593457 -0.44976693 -0.84016281 27 131 126
0.28498945 -0.45057917 -0.83846629 24 131 126
0.28495917 -0.45114183 -0.83824897 23 131 126
0.28448498 -0.4485963 -0.83798027 27 130 127
0.28399631 -0.44972324 -0.83690655 24 131 126
0.28390411 -0.44886774 -0.83664477 25 131 127
0.28403693 -0.44891271 -0.83695608 25 131 127
0.28378701 -0.44941068 -0.8364026 24 131 127
0.28472832 -0.44730255 -0.83847439 29 131 127
0.28553674 -0.45219389 -0.83926708 24 131 126
0.28541139 -0.45253471 -0.8391965 23 131 125
0.28543615 -0.45264649 -0.83931708 23 131 125
0.28494591 -0.45334849 -0.83866572 23 130 126
0.28787324 -0.44181499 -0.84513873 38 133 126
0.28897986 -0.44704199 -0.8473621 36 132 127
0.28897154 -0.44650617 -0.84740669 37 131 127
0.28833327 -0.44719732 -0.84549069 33 132 126
0.28866231 -0.44665137 -0.8465026 36 132 127
0.28896782 -0.44681087 -0.84735715 36 132 127
0.28788221 -0.44419959 -0.84494603 36 133 126
0.28784314 -0.44435343 -0.84481138 35 133 126
0.28816229 -0.4435077 -0.84580868 37 133 126
0.28875822 -0.45104885 -0.84713864 28 131 127
0.28856546 -0.45005748 -0.84646738 29 132 126
0.28801283 -0.4506675 -0.84494978 27 131 126
0.28894013 -0.44902396 -0.8474232 33 131 127
0.28858817 -0.45086938 -0.84662837 28 131 127
0.28887576 -0.44883841 -0.84721625 33 131 127
0.28824842 -0.44885594 -0.84541851 30 132 126
0.28812858 -0.44942853 -0.84513992 29 132 126
0.28854728 -0.447687 -0.84614235 33 132 126
0.28871438 -0.44850174 -0.84671277 33 131 127
0.28798893 -0.45037732 -0.8448472 27 131 126
0.28823429 -0.44957709 -0.84545946 29 132 126
0.28841129 -0.4541876 -0.84662515 26 131 127
0.2877951 -0.45485565 -0.84491694 28 129 129
0.28878897 -0.45398867 -0.84770894 26 130 127
0.28858745 -0.45408359 -0.84712869 26 131 127
0.28829452 -0.45476669 -0.84638035 26 131 127
0.28796405 -0.45349988 -0.84519631 28 129 128
0.28807998 -0.45237243 -0.84537113 27 131 126
0.28827262 -0.45266661 -0.84596664 28 131 127
0.28799948 -0.45380428 -0.84534097 28 129 128
0.28789386 -0.45154527 -0.84471941 26 130 126
0.28777412 -0.45306236 -0.84458834 27 131 127
0.28668386 -0.45839226 -0.84446687 23 130 126
0.28712311 -0.4566569 -0.84419113 24 131 126
0.28751749 -0.45667914 -0.84501052 27 131 127
0.2872701 -0.45772886 -0.84503901 24 131 126
0.28784746 -0.45724338 -0.84604585 29 131 127
0.28747502 -0.45880562 -0.84607893 25 131 126
0.28749993 -0.45784831 -0.84561074 26 130 126
0.28822777 -0.45642331 -0.84676224 28 129 128
0.28819761 -0.45736721 -0.84704149 29 131 127
0.28799421 -0.4558655 -0.84585273 28 131 128
0.28841516 -0.45525301 -0.84686017 26 130 127
0.28772536 -0.45544904 -0.84489405 28 131 128
0.28786823 -0.45567152 -0.84540397 28 131 128
0.28738421 -0.4621408 -0.84773338 23 130 126
0.28782663 -0.45920119 -0.84707123 28 129 127
0.28766194 -0.46065888 -0.84751385 26 130 127
0.287687 -0.45934543 -0.84684324 27 128 127
0.26633665 -0.44265789 -0.81648439 38 132 114
0.26575118 -0.44592997 -0.81566334 40 131 113
0.26609543 -0.44456416 -0.81608278 38 131 114
0.26683286 -0.44554022 -0.81673408 36 132 114
0.2662608 -0.44407246 -0.81627387 38 130 115
0.26620984 -0.44365031 -0.81626856 38 131 114
0.26303309 -0.45036784 -0.81297392 38 132 116
0.26586193 -0.44889581 -0.81563151 36 134 114
0.26577106 -0.44910425 -0.81553477 38 133 115
0.26667339 -0.45067403 -0.81628603 38 130 116
0.26603621 -0.45013058 -0.815723 38 131 115
0.26601091 -0.4506945 -0.81566697 38 131 116
0.26671624 -0.44888002 -0.81642926 37 131 114
0.2649186 -0.44980106 -0.81469959 38 132 116
0.26444158 -0.45017377 -0.81423038 38 133 116
0.26363349 -0.4514364 -0.81340921 38 133 117
0.26355484 -0.45458612 -0.81312686 26 133 118
0.26658496 -0.45404783 -0.81606448 27 131 119
0.26688242 -0.4549619 -0.81633008 24 130 120
0.26696676 -0.45495287 -0.81641287 24 130 120
0.2651864 -0.45423725 -0.81469095 28 129 119
0.26491356 -0.45498133 -0.8144033 25 130 119
0.26669019 -0.45457301 -0.81615281 26 130 120
0.26479152 -0.45429653 -0.81430298 28 129 119
0.26456335 -0.45219672 -0.81421804 36 132 117
0.26504281 -0.45347404 -0.81457621 31 129 118
0.26406097 -0.45135862 -0.81380785 38 133 116
0.26554742 -0.45157021 -0.81517947 37 131 116
0.26466638 -0.4528434 -0.81426907 33 132 117
0.26367339 -0.45470598 -0.81321323 26 133 118
0.2655445 -0.45155698 -0.81517762 37 131 116
0.26657984 -0.45548528 -0.81600022 23 130 121
0.26574779 -0.45534301 -0.81519687 24 130 120
0.26565072 -0.45578346 -0.81506884 23 130 120
0.26684776 -0.45520258 -0.81628358 23 130 121
0.28048968 -0.4390153 -0.83149588 34 132 123
0.27987176 -0.43876737 -0.83060795 33 131 122
0.28058791 -0.43866 -0.83167535 35 132 123
0.27954131 -0.43927032 -0.83007139 31 131 122
0.27911544 -0.44170037 -0.82951218 27 131 123
0.27864239 -0.44096494 -0.82899213 28 131 123
0.27901509 -0.44265652 -0.8294102 27 131 123
0.27894807 -0.44286141 -0.82933885 27 131 123
0.28049096 -0.44293085 -0.83138144 29 132 125
0.28071436 -0.44136798 -0.83175147 33 132 124
0.28023219 -0.44149488 -0.83108318 31 132 124
0.28015202 -0.44278342 -0.83092117 28 132 124
0.28100911 -0.44064471 -0.83218586 33 133 124
0.27972373 -0.44120151 -0.83033586 29 131 123
0.27964401 -0.4404335 -0.83021247 30 131 123
0.2797595 -0.44016922 -0.83038092 31 131 123
0.28024849 -0.43960243 -0.8310985 33 132 123
0.27929112 -0.4471471 -0.82965553 24 133 124
0.2792362 -0.4453522 -0.82962424 25 131 124
0.27894413 -0.44714817 -0.82928622 24 133 124
0.27835166 -0.4451538 -0.82867426 25 133 123
0.28076172 -0.444473 -0.83171284 28 132 125
0.28035226 -0.44560137 -0.83111608 26 133 124
0.28049842 -0.4464165 -0.83124876 26 131 124
0.2804088 -0.44568056 -0.83118296 26 133 124
0.28021595 -0.44412324 -0.83097386 27 133 123
0.2798079 -0.44379842 -0.83041769 27 133 123
0.28062436 -0.44357741 -0.83154428 28 132 124
0.27945679 -0.44664809 -0.8298896 24 133 124
0.2788662 -0.44753978 -0.82922131 23 133 123
0.27827418 -0.44813171 -0.82863706 23 133 123
0.28127754 -0.44932264 -0.83223033 24 131 124
0.28111091 -0.44931927 -0.83203477 24 131 124
0.28141442 -0.44906536 -0.8323878 24 131 124
0.28103405 -0.44872534 -0.83193749 25 130 124
0.2808032 -0.44946346 -0.83167547 23 131 123
0.27968332 -0.44894138 -0.83026826 23 131 123
0.28056714 -0.44827604 -0.83134991 25 130 124
0.28007078 -0.44743279 -0.83065867 25 131 124
0.27969894 -0.44762263 -0.83019733 24 131 124
0.28094989 -0.44750208 -0.8317849 25 131 124
0.29176515 -0.44225344 -0.8584221 38 133 126
0.29183111 -0.44161588 -0.85912913 38 132 126
0.2917552 -0.44273138 -0.85973054 37 133 125
0.29167891 -0.44281328 -0.85648382 37 134 127
0.2917915 -0.44179457 -0.8579483 38 134 126
0.29162183 -0.44318748 -0.85586751 37 134 127
0.2916913 -0.44205162 -0.85658151 38 133 128
0.29171336 -0.44647267 -0.85964918 29 134 124
0.29168147 -0.44532639 -0.85880154 33 132 125
0.29168835 -0.44423509 -0.85913223 35 132 125
0.29171267 -0.4464604 -0.85963088 29 134 124
0.29160967 -0.44693941 -0.85643375 29 132 125
0.29170421 -0.44435331 -0.85960257 35 132 125
0.29163206 -0.44336772 -0.8563298 37 133 127
0.29161429 -0.44604832 -0.85646123 31 132 126
0.29162064 -0.44625133 -0.85682964 30 132 125
0.29166573 -0.44404787 -0.85813916 35 133 125
0.29163501 -0.44545853 -0.85721266 33 132 126
0.2916663 -0.44936764 -0.85869861 31 132 123
0.29184133 -0.44916418 -0.858033 29 134 124
0.29160219 -0.44899037 -0.85922408 31 132 123
0.29178634 -0.4487339 -0.85855037 29 134 124
0.29189581 -0.4499431 -0.85730088 30 132 124
0.2918734 -0.44924742 -0.85743368 29 132 125
0.29185644 -0.44927487 -0.85681927 29 132 125
0.29165941 -0.44726676 -0.85791367 27 134 124
0.2916401 -0.44748464 -0.85655367 29 132 125
0.29179099 -0.44814557 -0.85881895 27 134 124
0.2916103 -0.44728497 -0.85635048 29 132 125
0.29058483 -0.45296398 -0.85935229 40 130 126
0.2899541 -0.45447752 -0.85912168 47 128 131
0.29043335 -0.45306236 -0.8594504 43 129 127
0.2904433 -0.45398167 -0.858908 42 128 129
0.29157838 -0.4544287 -0.85696805 33 131 127
0.2911756 -0.45338511 -0.85835642 35 130 127
0.29118794 -0.45384419 -0.85806662 35 129 128
0.29174879 -0.45405519 -0.85688728 34 129 126
0.29194993 -0.45482802 -0.85590798 32 131 126
0.29194015 -0.45264366 -0.85618007 32 131 125
0.29172757 -0.45209765 -0.85719955 33 131 124
0.29153228 -0.45224747 -0.85806799 34 131 124
0.29192415 -0.45416039 -0.85609442 32 131 126
0.2899898 -0.45780987 -0.85633099 33 131 129
0.28995356 -0.45801029 -0.85621679 32 131 129
0.28997907 -0.45693484 -0.85702199 36 130 129
0.28926021 -0.45522526 -0.8593474 54 128 131
0.28974071 -0.45695445 -0.85724777 40 129 130
0.28919071 -0.45677868 -0.85797423 46 129 130
0.28890985 -0.45697281 -0.8591013 51 130 130
0.28893468 -0.4560582 -0.85949063 54 130 131
0.28881598 -0.45862839 -0.85868889 45 132 128
0.28898406 -0.45837921 -0.85782987 43 131 128
0.28889367 -0.45802224 -0.85858071 46 131 129
0.29142344 -0.45607886 -0.85625565 29 131 127
0.29127026 -0.45546842 -0.85694313 32 131 129
0.28769606 -0.46263415 -0.85751212 33 134 126
0.28762481 -0.46280703 -0.85782772 33 136 125
0.28786126 -0.46167609 -0.85917825 39 135 125
0.28825176 -0.46052322 -0.85833484 42 133 128
0.28838459 -0.4598659 -0.85918856 44 134 127
0.28907958 -0.45938057 -0.85597891 33 132 127
0.28920177 -0.4591161 -0.85586375 33 132 127
0.28834996 -0.46066919 -0.85734266 38 133 127
0.28836712 -0.46103191 -0.85639507 33 132 127
0.28878224 -0.46010262 -0.85607606 33 132 127
0.28792164 -0.46212137 -0.85652304 33 133 127
0.28759167 -0.46297047 -0.85781699 33 136 126
0.28745607 -0.46376124 -0.85842085 33 136 125
0.2874985 -0.46396831 -0.85742128 30 132 126
0.28740931 -0.4642292 -0.85828108 32 133 125
0.28751892 -0.46351549 -0.85639435 30 132 127
0.2862097 -0.46952572 -0.85813016 25 131 125
0.28607655 -0.47035542 -0.85724986 27 131 126
0.28563735 -0.47069973 -0.8581295 16 130 126
0.28573874 -0.46960139 -0.8595376 11 130 126
0.28634137 -0.46969819 -0.85743058 30 131 125
0.2868422 -0.46763238 -0.85907334 30 131 124
0.28655076 -0.46743473 -0.85625243 32 132 125
0.2867485 -0.46693423 -0.85759062 30 132 124
0.28690273 -0.46728483 -0.85892248 30 132 124
0.2864767 -0.46848798 -0.85608798 34 132 125
0.28646326 -0.46909252 -0.85621905 35 132 125
0.29007229 -0.44679213 -0.86270368 33 132 120
0.29080653 -0.44647074 -0.8610993 31 132 122
0.29081833 -0.44533819 -0.86116439 36 133 123
0.29091272 -0.4457418 -0.86092228 33 133 123
0.29149437 -0.44687337 -0.86005533 29 134 123
0.29144961 -0.44489735 -0.86019075 36 133 124
0.28991914 -0.44786477 -0.86287147 36 133 119
0.28928599 -0.45073083 -0.86363542 63 133 120
0.28998998 -0.44826102 -0.86262542 40 131 120
0.28979552 -0.44842133 -0.86302125 42 131 120
0.28981319 -0.44765773 -0.8631531 36 132 119
0.29038748 -0.4503186 -0.86137229 46 132 122
0.29033425 -0.45027068 -0.86149234 46 132 121
0.29071209 -0.45116827 -0.86054486 43 131 122
0.29069412 -0.45115599 -0.8605848 43 131 122
0.29099959 -0.44790208 -0.86049622 28 132 122
0.29100758 -0.44832587 -0.86040735 29 134 122
0.29127315 -0.44909084 -0.85998929 31 132 122
0.29131338 -0.44981524 -0.85982943 33 132 122
0.29003558 -0.45308396 -0.85982627 48 128 128
0.28893247 -0.45361048 -0.86140025 36 132 123
0.2901147 -0.45259747 -0.86016494 42 130 125
0.28855395 -0.45496735 -0.86071765 48 130 128
0.28770462 -0.45465955 -0.86268651 27 134 120
0.288665 -0.45426455 -0.8612361 40 130 125
0.28897044 -0.45415518 -0.86075789 43 130 126
0.28931153 -0.45409241 -0.86016178 49 129 128
0.28984621 -0.45131451 -0.86219335 54 132 121
0.28988257 -0.45155489 -0.86182654 49 131 121
0.28745389 -0.45450568 -0.86337084 29 135 119
0.28817153 -0.45373264 -0.862795 33 133 120
0.28952613 -0.45178306 -0.86230063 50 131 121
0.28894189 -0.45277593 -0.86233032 40 132 120
0.28725803 -0.45478478 -0.8634764 27 134 119
0.28872558 -0.45674103 -0.86229074 46 132 127
0.28823128 -0.45660311 -0.86308181 38 133 124
0.28922379 -0.45753264 -0.86228651 52 131 129
0.28837878 -0.45523098 -0.86112785 46 130 127
0.28857169 -0.45536685 -0.86091882 49 130 129
0.28883427 -0.45538735 -0.86043447 54 129 130
0.28906533 -0.45609343 -0.86062628 55 129 131
0.28888428 -0.45685273 -0.86011815 54 130 130
0.28889036 -0.45671731 -0.8600837 54 130 130
0.28910273 -0.45817262 -0.86178088 52 131 129
0.28895608 -0.45788196 -0.86094409 52 130 129
0.28823587 -0.46223897 -0.86149216 46 138 125
0.28817099 -0.46186733 -0.86125344 44 136 125
0.28858492 -0.46278173 -0.86246073 56 137 127
0.28901625 -0.46184263 -0.86330909 59 136 127
0.28849134 -0.4619419 -0.86205071 50 136 126
0.28876162 -0.46104124 -0.86251467 50 135 127
0.28758425 -0.46253553 -0.85982007 38 138 125
0.2881009 -0.46094829 -0.86009318 42 136 126
0.28908822 -0.45953563 -0.86285502 48 134 127
0.28843024 -0.45994002 -0.86027199 46 134 127
0.28826308 -0.46047479 -0.8602131 44 136 126
0.28886369 -0.45927063 -0.86141652 48 134 127
0.25105482 -0.44158992 -0.80501741 25 134 115
0.25089726 -0.45638207 -0.80271542 24 133 113
0.25036842 -0.45670119 -0.80230123 25 133 112
0.25078017 -0.45756698 -0.80250072 26 134 113
0.25150859 -0.45779181 -0.80299807 26 131 115
0.25179464 -0.45684838 -0.80330718 23 131 115
0.25142822 -0.45895797 -0.80278569 27 131 117
0.25046664 -0.45809937 -0.80218023 26 133 114
0.25030136 -0.45820633 -0.80203658 26 133 114
0.25411639 -0.45770159 -0.80503786 27 131 117
0.25284731 -0.4572413 -0.80407244 24 131 116
0.25395271 -0.45710027 -0.80496764 25 131 116
0.25253719 -0.45872322 -0.80367678 27 131 117
0.25311151 -0.45649967 -0.80435812 23 130 116
0.25194734 -0.45904735 -0.80317211 27 131 117
0.25135881 -0.45997041 -0.80259573 24 131 118
0.2513507 -0.46022806 -0.80255491 23 131 118
0.25326106 -0.46106243 -0.80394059 23 130 119
0.25317228 -0.4614813 -0.80380702 20 130 118
0.25200367 -0.45908952 -0.80321121 27 131 117
0.25360745 -0.45935476 -0.80445385 28 129 117
0.25222319 -0.46124667 -0.80309629 20 130 119
0.27055636 -0.43835112 -0.82083982 36 133 118
0.27085322 -0.43909991 -0.82106948 34 133 118
0.27366957 -0.43856445 -0.82402855 36 132 120
0.27345735 -0.43893486 -0.82378137 34 133 119
0.27407598 -0.43854374 -0.82446116 36 132 120
0.27165568 -0.43793404 -0.82193416 36 133 119
0.27224925 -0.43770424 -0.82257468 37 131 119
0.27202618 -0.43810093 -0.82231408 36 133 119
0.27154776 -0.43809381 -0.82181019 36 133 119
0.27114788 -0.44008502 -0.82129031 31 133 118
0.27114931 -0.43981507 -0.82130802 32 133 118
0.27103215 -0.44314474 -0.82099015 26 133 120
0.27112889 -0.44285634 -0.82110292 27 133 120
0.27326718 -0.44330299 -0.82330716 27 133 121
0.27342892 -0.44065747 -0.82364756 30 132 120
0.27153283 -0.44330052 -0.82147533 26 133 122
0.27381507 -0.44293836 -0.82390928 28 131 122
0.27333111 -0.44180748 -0.82347053 29 132 121
0.27355096 -0.44114357 -0.82374531 30 132 121
0.27288696 -0.43949836 -0.82314241 32 132 119
0.27152571 -0.44140914 -0.82158208 28 131 120
0.27199244 -0.44188032 -0.82204908 28 131 121
0.27157971 -0.44109353 -0.82165849 28 132 120
0.2723631 -0.44115153 -0.82248646 29 132 120
0.27113256 -0.44336057 -0.8210752 26 133 121
0.27093989 -0.44369301 -0.82086325 26 134 119
0.27107188 -0.44625542 -0.82081282 27 134 118
0.27319765 -0.44708967 -0.82302296 26 133 119
0.27316031 -0.44595394 -0.82303262 27 133 120
0.27440372 -0.44611046 -0.82437909 26 133 119
0.27321547 -0.44654179 -0.82306665 26 133 119
0.2726253 -0.44696 -0.82240582 26 133 119
0.27402243 -0.44502997 -0.82401192 27 133 120
0.27152967 -0.44371766 -0.8214435 26 131 122
0.27194169 -0.44379923 -0.82187307 26 133 121
0.27166212 -0.44501752 -0.82149357 26 133 120
0.27258551 -0.44519278 -0.82245684 27 131 120
0.27178341 -0.44428816 -0.82167208 26 133 121
0.2722789 -0.44607672 -0.82207185 26 133 119
0.27144125 -0.44797605 -0.82110924 26 133 117
0.27107027 -0.45073 -0.82076418 27 135 115
0.27309027 -0.45105773 -0.82278961 24 135 118
0.27288124 -0.44994089 -0.82264626 26 133 118
0.27257723 -0.45002469 -0.82233387 26 134 117
0.27437669 -0.45073733 -0.82410944 23 133 118
0.27401334 -0.45035425 -0.82376546 24 133 118
0.27320606 -0.4491027 -0.82302558 26 133 118
0.27211705 -0.44871256 -0.82184237 26 133 117
0.27230823 -0.4495911 -0.82205248 26 134 117
0.27180907 -0.44995782 -0.82151002 27 134 117
0.27208909 -0.45032385 -0.82181567 27 133 118
0.27182403 -0.45047298 -0.82152754 26 134 117
0.27273273 -0.44946402 -0.82251424 26 134 118
0.27141973 -0.4545292 -0.82083005 24 130 119
0.27137801 -0.45470127 -0.8207736 24 131 120
0.27165297 -0.45491391 -0.82103252 23 130 120
0.27285653 -0.45399252 -0.82234812 23 130 121
0.27170482 -0.45153782 -0.82135302 26 134 117
0.273049 -0.45179346 -0.82269132 24 133 118
0.27309492 -0.45254594 -0.82267767 24 131 119
0.27266082 -0.45143989 -0.8223272 25 133 117
0.27350646 -0.45137066 -0.82318753 24 133 118
0.28281817 -0.43447062 -0.83504969 34 131 123
0.28319103 -0.43755746 -0.83524388 33 132 124
0.28311634 -0.43669003 -0.83522791 33 131 124
0.28272599 -0.43906376 -0.83449745 33 133 125
0.28272429 -0.43943775 -0.83446348 33 133 125
0.28349072 -0.43784371 -0.83606994 33 131 124
0.28349245 -0.43929845 -0.83595145 33 133 125
0.28333035 -0.43603212 -0.83576554 32 131 124
0.2831389 -0.4413411 -0.83485991 30 132 125
0.28256226 -0.43968433 -0.83423579 33 133 124
0.28260151 -0.44113389 -0.83418036 31 133 124
0.28316721 -0.44200295 -0.83484799 29 132 125
0.2828114 -0.44328326 -0.83431941 27 133 123
0.28163284 -0.44279128 -0.8328976 30 132 124
0.28185251 -0.44296035 -0.8331598 29 132 125
0.28127804 -0.44216895 -0.83248651 32 132 124
0.2835812 -0.44281423 -0.83595979 28 132 124
0.2833595 -0.44226757 -0.83533901 28 132 124
0.28351471 -0.43957925 -0.83599502 33 133 125
0.28195775 -0.44368699 -0.83325285 28 132 125
0.2827619 -0.44619486 -0.83407193 26 131 126
0.28204748 -0.44446018 -0.83331215 28 132 125
0.28295535 -0.44478306 -0.8344 27 131 126
0.28146249 -0.44504926 -0.83256209 28 131 125
0.28274137 -0.44678435 -0.83400947 26 130 126
0.28185052 -0.44644728 -0.83294636 27 131 126
0.28148869 -0.44628295 -0.83251631 27 131 124
0.28368598 -0.44525015 -0.83610696 27 131 126
0.28372294 -0.44464743 -0.83625668 28 129 126
0.2836715 -0.4459419 -0.83601779 27 131 126
0.28325608 -0.4454664 -0.83481604 26 131 126
0.28339273 -0.44432998 -0.83529663 27 131 124
0.28301582 -0.44980839 -0.83450001 23 131 125
0.2826103 -0.44802094 -0.83387512 24 131 125
0.281762 -0.44773927 -0.83282191 25 131 124
0.28258741 -0.44856331 -0.8338871 24 131 125
0.28210247 -0.44905984 -0.83331203 24 131 125
0.28170398 -0.44896615 -0.83277243 24 131 124
0.28357944 -0.44878355 -0.83576792 25 131 127
0.28374657 -0.44827902 -0.83622414 25 131 126
0.28327161 -0.44931167 -0.83489466 23 131 125
0.28334892 -0.4479354 -0.83502257 24 131 126
0.28953812 -0.44677714 -0.84886092 36 133 127
0.2899605 -0.44616953 -0.849953 36 133 126
0.2905117 -0.44651529 -0.85100061 33 133 126
0.29049939 -0.44565657 -0.85125941 36 133 126
0.2898618 -0.44573015 -0.84989059 37 133 127
0.28972065 -0.44574365 -0.84958851 38 133 127
0.28972116 -0.44802073 -0.84906852 35 132 127
0.29078445 -0.44877034 -0.8512944 33 131 127
0.28979737 -0.44809991 -0.84922749 35 132 127
0.2905407 -0.44774809 -0.85080242 33 132 126
0.28996345 -0.44859865 -0.849567 36 130 128
0.28986695 -0.4477371 -0.84938204 35 132 127
0.28933176 -0.44944265 -0.84841013 32 132 126
0.28991318 -0.45001322 -0.84955448 33 131 127
0.28996 -0.45090941 -0.84971255 32 129 127
0.28987879 -0.44902614 -0.84941286 34 131 127
0.28966871 -0.44928735 -0.84903562 34 131 127
0.29021159 -0.45031393 -0.85014242 33 129 127
0.2902315 -0.4531782 -0.85021067 25 131 125
0.29042709 -0.45277449 -0.85058796 27 131 126
0.29093614 -0.45409471 -0.85152751 25 131 125
0.290786 -0.45412165 -0.85124296 24 131 125
0.29040638 -0.45170578 -0.85056794 31 129 127
0.28963998 -0.45310777 -0.8491841 26 131 127
0.28896895 -0.45412004 -0.84816909 25 131 126
0.29020455 -0.45421025 -0.85022914 24 131 125
0.28937313 -0.45487526 -0.84891391 24 131 126
0.28966644 -0.45355278 -0.8492716 25 131 126
0.29111108 -0.45432657 -0.85183054 25 131 125
0.29054758 -0.45546496 -0.85110539 20 133 124
0.28983244 -0.45827425 -0.85189092 24 131 126
0.28939947 -0.45743069 -0.85059774 24 131 126
0.28936198 -0.45655817 -0.84992975 24 131 126
0.29073346 -0.45599946 -0.85177886 20 133 124
0.29009795 -0.45585901 -0.85064435 21 133 125
0.28943771 -0.45792297 -0.85100251 24 131 126
0.28916997 -0.45893064 -0.85068113 27 130 127
0.28880879 -0.45684898 -0.84868526 26 130 127
0.28900614 -0.45831275 -0.84991097 27 130 127
0.28891212 -0.45873573 -0.84979087 27 131 126
0.28894687 -0.45742375 -0.84935677 26 130 127
0.28867632 -0.45853648 -0.84896803 29 131 127
0.2891264 -0.46013728 -0.85178709 23 131 125
0.28842014 -0.46173769 -0.8511436 23 130 125
0.2881411 -0.46156636 -0.84964383 23 130 125
0.28798002 -0.46243304 -0.8502745 23 130 125
0.28822201 -0.46215734 -0.85091758 23 130 125
0.28815481 -0.46180052 -0.85006726 23 130 125
0.28845522 -0.45962629 -0.84897941 28 129 127
0.2884196 -0.45920667 -0.84852761 31 128 128
0.28760937 -0.46223426 -0.84843618 23 130 125
0.28862828 -0.4603821 -0.85013497 24 131 126
0.28908396 -0.45910209 -0.85052884 27 130 127
0.28775385 -0.46134415 -0.84816873 26 130 126
0.28460595 -0.47677407 -0.85088485 26 133 127
0.28531229 -0.475658 -0.85154736 24 131 127
0.28529319 -0.47564825 -0.85165721 25 131 127
0.25965384 -0.44684523 -0.81047672 32 134 120
0.25938776 -0.44701448 -0.8102712 29 135 120
0.25759628 -0.44628403 -0.80905706 27 134 120
0.25890633 -0.4459815 -0.80999267 33 134 120
0.26132163 -0.44630331 -0.81183231 38 132 116
0.25914142 -0.44783953 -0.81004471 26 134 120
0.25905138 -0.44781458 -0.80998325 26 134 120
0.26134604 -0.4511632 -0.81156069 28 134 117
0.26264024 -0.4491348 -0.81268579 39 132 115
0.26216683 -0.4483752 -0.81231433 38 132 114
0.26254642 -0.45028582 -0.81257737 36 133 117
0.26059356 -0.45112169 -0.81093913 26 133 118
0.26059055 -0.45037043 -0.81095672 27 134 117
0.26043764 -0.44817615 -0.81097895 30 133 118
0.26150247 -0.44833952 -0.8117916 36 132 115
0.26126957 -0.44844839 -0.81160384 34 133 116
0.2620331 -0.44811097 -0.81221783 38 132 114
0.26157975 -0.44885129 -0.81181604 34 133 114
0.26222676 -0.45381111 -0.8120541 27 131 118
0.2621119 -0.4529233 -0.81202543 30 132 117
0.26273116 -0.45361856 -0.81250465 28 132 117
0.26221469 -0.45397487 -0.81203067 27 133 117
0.26261696 -0.45342422 -0.8124215 29 132 117
0.26275718 -0.45218277 -0.81264102 33 133 117
0.2609905 -0.45460096 -0.81092459 24 131 117
0.26035327 -0.45398998 -0.8104338 25 131 117
0.26186997 -0.45161417 -0.81194609 31 133 117
0.26089829 -0.45118564 -0.81118846 27 134 118
0.26118082 -0.45303398 -0.81122208 28 134 117
0.26033077 -0.45265955 -0.81055921 25 133 118
0.25962797 -0.45698613 -0.80952984 23 131 117
0.25914842 -0.45757779 -0.80908448 24 130 118
0.26274446 -0.4567495 -0.8122766 24 130 119
0.26080748 -0.45896184 -0.81038737 23 130 118
0.2626884 -0.45749214 -0.81218213 23 130 119
0.26163203 -0.45782048 -0.8112033 23 131 118
0.26090774 -0.45839742 -0.81051153 24 130 118
0.26231018 -0.456166 -0.81191695 24 131 118
0.26027259 -0.45654351 -0.81012082 24 130 118
0.25977013 -0.45581457 -0.80976003 23 131 117
0.26021525 -0.45838061 -0.80988801 24 131 117
0.26040086 -0.45586467 -0.81029934 23 131 117
0.260847 -0.45508218 -0.81076247 23 131 117
0.26109824 -0.45569021 -0.81091851 24 131 118
0.2596373 -0.45955691 -0.80927163 23 131 117
0.26146245 -0.45901904 -0.81097901 23 130 119
0.26119271 -0.45914662 -0.81072646 23 130 118
0.27481785 -0.43778381 -0.82521617 36 133 121
0.27432927 -0.438191 -0.82473481 36 132 120
0.27637205 -0.43910992 -0.82668996 33 131 121
0.27773005 -0.43917221 -0.82805359 31 131 122
0.27747744 -0.4389562 -0.82781941 32 131 122
0.27642331 -0.43708223 -0.82690352 36 132 122
0.27584076 -0.43744612 -0.82625765 36 133 121
0.27458978 -0.44008434 -0.82488948 33 132 121
0.27537277 -0.44204307 -0.82555139 30 132 122
0.27456433 -0.44110647 -0.82481164 32 132 121
0.27493817 -0.44191369 -0.82514417 30 133 121
0.27706161 -0.44150069 -0.82729489 29 131 122
0.27669418 -0.44273227 -0.8269102 28 131 123
0.27778795 -0.44205987 -0.82807761 27 131 123
0.27766755 -0.44210878 -0.82794893 28 131 123
0.27619329 -0.44265926 -0.82637274 29 132 122
0.27569002 -0.44186199 -0.82587701 30 132 122
0.27773118 -0.43974951 -0.8280167 29 131 121
0.27695805 -0.44116613 -0.82718259 30 131 122
0.27618432 -0.44128767 -0.8263976 30 132 122
0.27606869 -0.43974984 -0.82634002 31 132 121
0.27532443 -0.44529998 -0.82537079 27 133 120
0.27507159 -0.44558761 -0.8251003 27 133 120
0.27467355 -0.44559544 -0.82469082 27 133 120
0.27504075 -0.44597197 -0.8250528 26 133 120
0.27688655 -0.44536674 -0.82704532 26 133 123
0.27780825 -0.44579214 -0.82806998 25 133 123
0.27684268 -0.44599751 -0.8269906 25 133 122
0.27766868 -0.44694066 -0.82790375 24 133 122
0.27692622 -0.44602016 -0.82708359 25 133 122
0.27734005 -0.44410264 -0.82757688 27 131 123
0.27774218 -0.44384262 -0.82801849 26 131 123
0.27560282 -0.44438401 -0.82570332 28 132 122
0.27632537 -0.44489914 -0.82645684 27 131 122
0.27685648 -0.44494519 -0.82702422 26 133 123
0.27566817 -0.44379476 -0.82579732 28 132 122
0.27525178 -0.44756329 -0.82519901 25 134 119
0.27502733 -0.44752765 -0.82497007 25 134 119
0.27748927 -0.44871333 -0.82768536 23 133 122
0.27622393 -0.44845101 -0.8262217 24 133 121
0.27658132 -0.44831744 -0.82662803 24 133 121
0.28705454 -0.44261914 -0.84309059 35 135 125
0.28737286 -0.44278097 -0.8438378 35 134 126
0.28719968 -0.44224104 -0.84334469 36 135 126
0.28651628 -0.44459093 -0.84200412 33 133 126
0.28593424 -0.44409221 -0.84109974 35 132 127
0.28648758 -0.44352767 -0.84218633 34 133 125
0.28603566 -0.4440473 -0.84128612 35 132 127
0.28585935 -0.444141 -0.84095871 36 130 127
0.28565234 -0.44620335 -0.84051371 33 132 126
0.28645873 -0.44667378 -0.84159249 33 131 127
0.28588036 -0.44671619 -0.84079999 32 131 126
0.28582305 -0.44508246 -0.84080231 34 132 127
0.28772017 -0.44620258 -0.84405708 33 133 126
0.28764445 -0.4451018 -0.84413582 33 134 125
0.28721127 -0.44617879 -0.84292543 33 131 127
0.28712627 -0.44696829 -0.84255689 32 131 126
0.28647578 -0.44791847 -0.84147257 30 131 127
0.28655508 -0.44958052 -0.8412903 27 131 126
0.28569502 -0.44737354 -0.84050077 30 131 126
0.28579122 -0.44755518 -0.84060055 30 131 126
0.28658786 -0.45017052 -0.84118575 25 131 126
0.28565836 -0.44810468 -0.84024549 29 132 126
0.28613842 -0.44931898 -0.84067845 27 131 126
0.28734213 -0.4502967 -0.84255165 25 131 126
0.28776285 -0.44940722 -0.84407115 28 131 126
0.28758979 -0.4507376 -0.84359592 26 130 126
0.28753769 -0.44761246 -0.84334922 32 131 127
0.28713948 -0.45080206 -0.84190178 24 131 126
0.28724083 -0.44994605 -0.84227794 27 130 127
0.28664362 -0.45216936 -0.84126359 24 131 126
0.2870349 -0.45389748 -0.84255064 24 131 126
0.28593335 -0.4543159 -0.84102499 23 130 126
0.28604436 -0.4546102 -0.84130931 23 130 126
0.28606588 -0.45318595 -0.84076375 23 131 126
0.28618866 -0.45470551 -0.84156239 23 130 126
0.28749105 -0.45434138 -0.8439734 27 131 127
0.28755227 -0.45276761 -0.84393287 25 131 126
0.28754783 -0.45131186 -0.84354508 24 131 125
0.28749356 -0.45123446 -0.84330529 24 131 125
0.28718144 -0.45352179 -0.84284377 24 131 126
0.28710556 -0.45624888 -0.84388447 24 131 127
0.28622702 -0.4554148 -0.84200305 23 130 126
0.28667521 -0.45769855 -0.84408951 23 131 126
0.28653303 -0.4574528 -0.843723 23 130 127
0.28617761 -0.45667908 -0.84271395 23 130 126
0.28724355 -0.45528999 -0.8435744 26 131 127
0.29110742 -0.44299629 -0.85404742 38 135 127
0.29152352 -0.44224802 -0.85553581 38 135 127
0.29118204 -0.44263089 -0.85431963 38 135 127
0.29088691 -0.44557679 -0.85216582 34 134 126
0.29129648 -0.44467655 -0.85403323 34 135 126
0.29128194 -0.44473064 -0.85395408 34 134 126
0.29144219 -0.44405809 -0.85486507 36 133 127
0.29119301 -0.44606856 -0.85295355 33 133 126
0.29158148 -0.4465695 -0.85573703 29 132 125
0.2915639 -0.44609752 -0.85557389 31 133 126
0.29141039 -0.44612956 -0.85439563 32 133 126
0.29157802 -0.44709766 -0.85574144 29 132 125
0.29145616 -0.44531739 -0.85469943 33 133 126
0.29132229 -0.44671655 -0.85375273 31 133 126
0.29162449 -0.45077321 -0.85424894 31 131 126
0.29190466 -0.45053276 -0.85557419 30 132 125
0.29190019 -0.44993988 -0.85585082 29 132 125
0.29187641 -0.45094329 -0.8552478 30 132 125
0.29136196 -0.45002636 -0.85349226 32 129 126
0.29124355 -0.44996759 -0.85289788 33 128 127
0.29119834 -0.4485299 -0.85270017 32 131 126
0.29119337 -0.45042816 -0.85246402 33 128 127
0.29124674 -0.44758731 -0.85317081 30 132 125
0.2914198 -0.44835642 -0.85442114 30 131 126
0.2918804 -0.45437679 -0.85538882 30 132 126
0.29169586 -0.45349196 -0.85432732 28 131 126
0.29196003 -0.45378974 -0.85573125 32 131 126
0.29138824 -0.45449752 -0.85285372 25 133 124
0.29199764 -0.45144102 -0.85564578 29 132 125
0.29163623 -0.45178303 -0.85405737 30 131 126
0.29178989 -0.45185447 -0.85471344 29 132 125
0.29124293 -0.45135799 -0.85239553 33 128 127
0.29133219 -0.45141274 -0.85277569 33 128 127
0.2919237 -0.45140097 -0.85532105 30 132 125
0.29156917 -0.4523513 -0.85372901 29 131 125
0.29045007 -0.45698103 -0.85206288 21 133 125
0.29085431 -0.4578177 -0.85501963 24 131 126
0.29086104 -0.45772845 -0.8548981 23 131 125
0.29082802 -0.45712385 -0.85376823 21 133 125
0.29002884 -0.45836338 -0.85271579 24 131 126
0.29050729 -0.458211 -0.85432273 24 131 126
0.2907944 -0.45808268 -0.8557111 24 131 126
0.28961784 -0.45883384 -0.85450053 29 131 127
0.29002303 -0.45857596 -0.85490048 27 131 126
0.2911377 -0.45606869 -0.85330594 24 131 125
0.29114735 -0.45671687 -0.85445571 24 131 125
0.29114264 -0.45634231 -0.85379583 24 131 125
0.29147074 -0.45557269 -0.85418957 27 131 126
0.29105222 -0.45590296 -0.85264152 20 133 123
0.28799647 -0.46258962 -0.85463411 27 131 126
0.28891018 -0.45988882 -0.85578823 33 132 127
0.2885617 -0.46133855 -0.85397869 27 130 126
0.28895551 -0.45988581 -0.85541832 32 132 127
0.28802368 -0.46237555 -0.85510463 28 132 127
0.28894237 -0.4606761 -0.85236025 24 131 125
0.28913254 -0.45995644 -0.85313153 27 131 126
0.28885886 -0.46084404 -0.85266721 24 131 125
0.28901044 -0.46035275 -0.85292292 25 131 126
0.28894469 -0.46018761 -0.85446036 29 131 127
0.28924975 -0.45943028 -0.85396683 29 131 127
0.28700492 -0.46581224 -0.85526115 28 132 126
0.28800038 -0.46594456 -0.85326636 25 130 127
0.28779736 -0.46618152 -0.85355282 25 130 127
0.2876201 -0.46648797 -0.85375953 25 131 127
0.28773373 -0.46313062 -0.85567659 28 132 127
0.28781345 -0.46422073 -0.85475141 27 133 127
0.28790048 -0.46312806 -0.85460383 27 131 127
0.28817493 -0.46453106 -0.85318267 24 131 126
0.28822625 -0.46451318 -0.85274106 23 131 126
0.28812864 -0.46420407 -0.85336542 24 131 126
0.28820461 -0.46350285 -0.8522895 23 130 126
0.28684136 -0.46694517 -0.85517097 28 131 126
0.28657621 -0.46946269 -0.85547251 34 132 125
0.28705427 -0.47000176 -0.85413694 28 129 126
0.28701752 -0.47065803 -0.8541069 29 129 125
0.2868416 -0.46954182 -0.85477394 31 131 126
0.2872597 -0.46850449 -0.85390562 26 130 126
0.2872968 -0.46868759 -0.85377848 25 131 126
0.28748 -0.46699867 -0.85383284 25 131 127
0.28743958 -0.46821016 -0.85354424 24 131 126
0.28649595 -0.47321972 -0.85248935 23 130 127
0.28669417 -0.47123778 -0.85429031 31 129 126
0.28658846 -0.47120804 -0.85459924 32 131 125
0.28662038 -0.47215471 -0.85337788 27 130 126
0.28543448 -0.47290999 -0.85561323 34 132 125
0.28501064 -0.47416109 -0.85523897 32 132 124
0.28574461 -0.47458464 -0.85274857 24 131 127
0.28579989 -0.47289559 -0.85464638 32 131 126
0.28565174 -0.47284663 -0.8551048 33 132 125
0.28547105 -0.47406438 -0.85411596 28 129 126
0.28520057 -0.47595608 -0.85310465 26 131 127
0.28338197 -0.47845045 -0.85377127 38 135 127
0.28429234 -0.47721037 -0.85347229 31 133 127
0.28442153 -0.4769913 -0.85325629 31 133 127
0.28394726 -0.47812447 -0.85551745 34 131 127
0.28418025 -0.47729689 -0.85537082 34 131 127
0.28435859 -0.47577003 -0.85577792 34 131 126
0.2846027 -0.47582528 -0.85508817 32 131 126
0.28437474 -0.47625136 -0.85545462 33 131 126
0.28536797 -0.47463641 -0.8537178 27 131 126
0.28320831 -0.47892162 -0.85550505 33 131 127
0 0 0 1 0 0 0 1 0 0 0 1 0 0 0 0 0 819 1 0 0
