ply
format ascii 1.0
comment PCL generated
element vertex 662
property float x
property float y
property float z
property uchar red
property uchar green
property uchar blue
element camera 1
property float view_px
property float view_py
property float view_pz
property float x_axisx
property float x_axisy
property float x_axisz
property float y_axisx
property float y_axisy
property float y_axisz
property float z_axisx
property float z_axisy
property float z_axisz
property float focal
property float scalex
property float scaley
property float centerx
property float centery
property int viewportx
property int viewporty
property float k1
property float k2
end_header
-0.24036404 0.049994614 -0.80897915 127 138 121
-0.23926364 0.050426077 -0.80704486 117 143 121
-0.2398607 0.050757114 -0.80801046 132 140 121
-0.23983838 0.049283709 -0.80820477 109 142 119
-0.24006177 0.048873454 -0.80865026 107 141 118
-0.23910433 0.050356802 -0.80678421 113 143 121
-0.23828593 0.051077429 -0.8055656 102 144 121
-0.23799405 0.05140584 -0.80515862 98 144 121
-0.23805308 0.049882684 -0.80522096 82 148 119
-0.23831396 0.052617449 -0.80562627 120 140 123
-0.23820218 0.051996738 -0.80546016 110 142 122
-0.23838243 0.050353851 -0.80569172 95 146 120
-0.23866852 0.047484171 -0.80672479 89 143 118
-0.23880491 0.047081687 -0.80708981 95 140 118
-0.23903142 0.048407063 -0.80703962 90 145 118
-0.24009807 0.04868352 -0.80876684 108 141 118
-0.2388254 0.047627062 -0.8069452 91 143 118
-0.23919335 0.047503628 -0.80761307 99 141 118
-0.23883671 0.048529465 -0.80666739 86 147 117
-0.23794328 0.045365497 -0.80582261 93 136 118
-0.2385568 0.046615347 -0.80674779 94 140 118
-0.23837852 0.045528445 -0.80664229 99 136 119
-0.2382575 0.045983493 -0.80630147 94 138 118
-0.23917536 0.045240052 -0.80827534 115 132 121
-0.23843342 0.046011053 -0.8066414 96 138 119
-0.23903446 0.042435609 -0.80892026 99 136 119
-0.23880871 0.042682994 -0.80831856 100 136 118
-0.23852852 0.041646678 -0.80809844 90 138 117
-0.23913229 0.04294572 -0.80893898 104 135 119
-0.23912284 0.044283301 -0.80839336 116 132 121
-0.23822519 0.043398079 -0.80682063 100 135 118
-0.23792049 0.044519749 -0.80596846 96 135 118
-0.23849957 0.044236336 -0.80717182 105 134 119
-0.23936871 0.044845283 -0.80874491 120 131 121
-0.23828101 0.044024751 -0.80678934 102 134 119
-0.23770915 0.034409579 -0.80699521 59 131 119
-0.23807725 0.034389559 -0.80776858 61 131 120
-0.23779221 0.034294475 -0.8071785 58 132 119
-0.23751633 0.033958837 -0.80662674 55 133 118
-0.23782463 0.034036573 -0.80726695 56 133 118
-0.23724101 0.034258503 -0.80604893 57 132 119
-0.23700227 0.034581125 -0.80570543 62 130 120
-0.23705563 0.033913072 -0.80569112 54 133 118
-0.23649804 0.032119188 -0.80513072 56 133 117
-0.24537997 0.053358823 -0.82028311 115 147 121
-0.24435744 0.05073553 -0.81712258 133 136 125
-0.24501863 0.051179763 -0.81901282 119 138 122
-0.24528615 0.052141301 -0.81995821 110 146 122
-0.24537967 0.049232695 -0.82004434 131 129 121
-0.2449505 0.050325725 -0.81870407 126 133 122
-0.24527973 0.051339105 -0.81985223 116 140 121
-0.24553032 0.049212683 -0.82053834 130 131 120
-0.2454316 0.052003983 -0.82039464 110 145 121
-0.24486899 0.045767426 -0.8187809 126 128 123
-0.24444871 0.045622785 -0.81798238 137 127 125
-0.24457017 0.045202535 -0.81837726 134 128 125
-0.24502271 0.046701234 -0.8187809 124 127 121
-0.24548906 0.045356281 -0.82018501 110 130 120
-0.24515995 0.045804463 -0.81935918 118 129 121
-0.24539903 0.045966852 -0.8198818 114 129 120
-0.2448011 0.04863245 -0.81810212 138 125 122
-0.24562767 0.045695949 -0.82061458 110 131 119
-0.24530005 0.048479076 -0.81973189 132 128 121
-0.24540696 0.048381876 -0.82007664 130 128 121
-0.24398859 0.045499813 -0.81720954 143 127 127
-0.24432744 0.044843674 -0.81799054 140 128 127
-0.24474519 0.044519562 -0.81885391 127 129 125
-0.24454759 0.044907443 -0.81843203 135 128 126
-0.24561587 0.044031326 -0.82064271 101 129 121
-0.24461903 0.042650066 -0.81863099 115 127 126
-0.24422695 0.044598166 -0.81779462 141 128 128
-0.24474476 0.042694908 -0.81891346 114 127 126
-0.24409489 0.043127712 -0.81750876 125 128 127
-0.24382961 0.042409256 -0.81713605 116 128 127
-0.24367937 0.041742131 -0.81692094 108 128 126
-0.24454848 0.037390541 -0.81927443 35 136 111
-0.24491422 0.037329495 -0.82007211 34 136 110
-0.2434831 0.037371669 -0.81718087 42 135 113
-0.2437956 0.037244283 -0.81779385 36 136 111
-0.24466628 0.037022632 -0.81959939 30 137 109
-0.24472012 0.036668435 -0.81973451 30 138 109
-0.24451692 0.036707941 -0.81929725 30 137 110
-0.24469338 0.03345447 -0.81993425 33 137 112
-0.24478188 0.033443224 -0.82010412 34 137 112
-0.24450909 0.033245794 -0.81960654 31 137 112
-0.24322651 0.034580439 -0.81741297 36 136 113
-0.24347226 0.033950642 -0.81784451 34 135 113
-0.2430048 0.033546247 -0.81720418 38 135 114
-0.24328043 0.035183359 -0.81736457 37 134 113
-0.24297751 0.034853794 -0.81688541 40 134 114
-0.24464536 0.033063319 -0.81990665 35 136 112
-0.24460627 0.030338217 -0.82052749 68 133 115
-0.24468379 0.032571863 -0.82010525 41 136 113
-0.24416398 0.031721305 -0.8193258 46 134 114
-0.24435338 0.030780474 -0.81993067 60 134 115
-0.24352688 0.031684704 -0.81845057 66 134 115
-0.24343322 0.030363891 -0.81865329 84 133 117
-0.24261503 0.031623185 -0.8171581 80 134 118
-0.24290657 0.032900263 -0.81719202 46 134 115
-0.24269868 0.031400926 -0.81734943 85 134 118
-0.24445301 0.028648518 -0.82051706 86 134 116
-0.24424197 0.027671885 -0.82015198 95 136 115
-0.24341618 0.027327027 -0.81879896 97 137 115
-0.24302061 0.02757681 -0.81819618 102 137 116
-0.2435603 0.028330237 -0.81900412 88 136 115
-0.24817443 0.046014715 -0.83656013 45 136 117
-0.24964866 0.045387674 -0.83635467 44 136 113
-0.25202841 0.041321285 -0.83824146 30 137 107
-0.25208887 0.041927479 -0.83703196 31 138 107
-0.25137663 0.041934211 -0.83634073 32 137 107
-0.25175145 0.04109282 -0.83848906 28 138 107
-0.24933295 0.044700924 -0.83640039 43 137 113
-0.25203741 0.040311266 -0.83768302 32 138 107
-0.25207803 0.040789552 -0.83807933 30 137 107
-0.25221595 0.040777877 -0.83725274 31 138 106
-0.2484381 0.039153371 -0.83636999 25 131 119
-0.24885869 0.038169064 -0.83670503 17 130 120
-0.24851996 0.037970118 -0.83693057 10 130 123
-0.25041711 0.037659295 -0.83637905 33 132 115
-0.25100493 0.040972423 -0.83662194 32 136 108
-0.2517876 0.039899863 -0.83720827 34 137 107
-0.25122395 0.040681757 -0.83679861 33 135 108
-0.25198007 0.033984464 -0.83950412 62 133 117
-0.24965055 0.034384783 -0.84004259 23 130 123
-0.24955425 0.035007279 -0.83948767 19 130 123
-0.25086364 0.034730859 -0.83981669 45 133 120
-0.24834161 0.036160275 -0.83839238 2 128 127
-0.24880806 0.036206521 -0.83838201 8 130 126
-0.25009757 0.034233067 -0.84020543 30 132 122
-0.25146148 0.03365818 -0.83692151 41 132 117
-0.25145748 0.033621885 -0.83680564 40 131 117
-0.25058848 0.034649134 -0.83739293 29 132 120
-0.25184184 0.034234155 -0.83962905 61 133 118
-0.25041479 0.034934565 -0.83774197 28 132 120
-0.25172621 0.033872727 -0.83826733 52 133 117
-0.2506001 0.034977999 -0.83837545 36 132 120
-0.24942134 0.0368906 -0.83703399 11 130 122
-0.25104403 0.036093548 -0.83646238 35 132 116
-0.24995586 0.035962194 -0.83687317 18 130 121
-0.25135586 0.036177993 -0.83634263 40 131 115
-0.25157091 0.033510063 -0.83637279 40 132 116
-0.24612135 0.035901066 -0.8366816 68 130 127
-0.24664836 0.036550671 -0.83663309 27 130 127
-0.24561024 0.034924723 -0.83706802 108 131 127
-0.2455769 0.034798466 -0.83715796 109 131 127
-0.24541086 0.03428397 -0.83746928 116 131 127
-0.24773379 0.035883747 -0.83831304 9 128 128
-0.24755162 0.034389138 -0.83945358 16 128 128
-0.24569544 0.034019936 -0.83797812 104 131 127
-0.24530219 0.03362561 -0.83794409 121 131 127
-0.24743301 0.03466545 -0.83909494 21 130 127
-0.24574104 0.033712417 -0.83829337 102 131 127
-0.2450565 0.033357181 -0.83794725 129 132 127
-0.24715403 0.033747509 -0.83964556 29 129 127
-0.23626986 0.051823169 -0.80113691 144 130 125
-0.23573251 0.05089543 -0.80060482 113 137 122
-0.23607613 0.051844709 -0.80090702 140 131 124
-0.23584652 0.050892655 -0.80074048 116 136 123
-0.23605685 0.051098857 -0.80096728 125 134 123
-0.23618089 0.051786628 -0.80103791 141 131 124
-0.23475283 0.049029339 -0.79941308 66 146 119
-0.23538384 0.047892492 -0.80059069 72 148 121
-0.23491487 0.047394451 -0.80002165 68 148 120
-0.23513131 0.048102044 -0.80009055 69 148 121
-0.23551367 0.048353985 -0.80057132 73 148 122
-0.24303719 0.057685684 -0.81499779 155 131 123
-0.24248342 0.053068519 -0.81360215 145 136 125
-0.24303719 0.053033829 -0.81475472 140 141 126
-0.24215654 0.053659715 -0.81291944 153 133 124
-0.24233411 0.05390897 -0.81328785 154 134 125
-0.24428916 0.049841132 -0.8167603 138 129 124
-0.24393557 0.049300734 -0.81609166 133 127 123
-0.2430428 0.049338669 -0.81467545 122 130 122
-0.24410066 0.050032217 -0.81646752 134 131 124
-0.24317405 0.049186587 -0.81486106 124 129 122
-0.24221782 0.048913669 -0.81329578 112 131 119
-0.24214406 0.051390886 -0.81301832 132 133 123
-0.2422082 0.049349468 -0.8133356 113 133 120
-0.24239427 0.051996864 -0.81348443 136 136 124
-0.24271055 0.052076612 -0.81413543 134 139 125
-0.24267167 0.052024059 -0.81405926 133 138 124
-0.24222332 0.051532935 -0.81317043 133 134 123
-0.24430428 0.048260711 -0.81678832 143 123 124
-0.2436823 0.045590371 -0.81678909 138 127 126
-0.24383208 0.048732173 -0.81588989 133 124 123
-0.24286664 0.047795262 -0.81470358 123 129 122
-0.24333657 0.047917787 -0.81540614 128 127 123
-0.24306339 0.048264474 -0.81484091 124 127 122
-0.24328659 0.046110898 -0.81600457 131 128 125
-0.24167521 0.046707015 -0.81295192 109 133 119
-0.24190257 0.047225934 -0.81321943 111 132 119
-0.24248743 0.045959376 -0.81464678 121 131 122
-0.2419524 0.047608644 -0.81320167 112 132 120
-0.24272701 0.046465859 -0.81494021 123 130 124
-0.24216311 0.045695171 -0.81412989 117 132 121
-0.24351628 0.041754015 -0.81667292 106 129 126
-0.24338575 0.043609582 -0.81651217 123 129 126
-0.24262242 0.043014094 -0.81503993 112 130 124
-0.24260548 0.042182885 -0.81496918 105 129 124
-0.24252628 0.042658087 -0.81484139 108 130 124
-0.2425485 0.04383551 -0.81496572 117 131 123
-0.24254154 0.043360248 -0.81491476 113 130 123
-0.24200065 0.044840816 -0.8140465 116 133 120
-0.24231137 0.044585079 -0.81459308 118 132 122
-0.24200705 0.043606136 -0.81395894 108 132 121
-0.24241441 0.035743617 -0.81573474 42 135 114
-0.24238789 0.035803244 -0.81567687 43 134 115
-0.24169017 0.034192216 -0.81488872 45 135 117
-0.24228521 0.035276625 -0.81562763 43 134 115
-0.24265154 0.033611149 -0.81662065 42 133 116
-0.24292776 0.035667595 -0.81660551 40 135 114
-0.24273153 0.036888395 -0.81588227 45 135 114
-0.241366 0.034649629 -0.81422585 47 133 118
-0.24145651 0.036222093 -0.81365734 56 132 118
-0.24160396 0.035443418 -0.81432217 50 134 117
-0.2411425 0.034437288 -0.81388128 48 133 118
-0.24191618 0.033156991 -0.81549406 45 134 117
-0.24086697 0.032903384 -0.81375855 53 134 118
-0.24081612 0.032856986 -0.81367558 54 133 119
-0.24856831 0.054560274 -0.83126813 119 127 124
-0.24817787 0.056556355 -0.82862157 161 135 125
-0.24857129 0.054146264 -0.83204257 101 125 124
-0.24887407 0.05372142 -0.83034259 124 134 121
-0.2489634 0.05277453 -0.83009505 102 140 118
-0.2488589 0.053664513 -0.83020681 121 135 121
-0.24880497 0.054508172 -0.83057857 142 129 124
-0.24847329 0.055312552 -0.82928181 145 136 124
-0.24957071 0.048855931 -0.83129102 115 129 121
-0.24911332 0.049999166 -0.83004427 131 127 123
-0.2494207 0.049742598 -0.8311401 121 127 122
-0.24929626 0.049186524 -0.83036375 124 129 123
-0.24943785 0.050631229 -0.8316564 121 126 122
-0.24912599 0.052312348 -0.83090723 115 132 121
-0.24898846 0.052602511 -0.83017451 104 139 119
-0.24930283 0.052242473 -0.83193046 127 124 123
-0.24915776 0.051791862 -0.83095539 122 128 122
-0.24895225 0.051128536 -0.82956767 118 135 121
-0.24887031 0.051057566 -0.82906592 113 138 120
-0.25004971 0.046453416 -0.83150607 79 131 116
-0.25003386 0.046297714 -0.83134401 77 132 116
-0.24971041 0.045328628 -0.82952815 58 135 111
-0.25021768 0.045363307 -0.83137268 68 133 115
-0.25008759 0.045166437 -0.83077264 63 133 114
-0.25004199 0.046362896 -0.83141726 78 131 116
-0.24939911 0.048317123 -0.83026612 112 130 120
-0.24911636 0.048240326 -0.82909 120 130 122
-0.24961162 0.048799776 -0.83142191 114 129 121
-0.24942593 0.045623455 -0.82864964 65 135 112
-0.24931729 0.046427161 -0.82873076 83 133 115
-0.24934295 0.046264008 -0.82872874 79 133 115
-0.25015092 0.041274607 -0.82988518 63 130 119
-0.25067142 0.043963671 -0.83213508 64 133 116
-0.2498301 0.041794904 -0.82949805 72 127 122
-0.25038439 0.043267317 -0.83125544 66 131 117
-0.25106722 0.041753322 -0.83189273 48 135 111
-0.25132704 0.041336477 -0.83220828 42 136 110
-0.2503387 0.044553444 -0.83150744 67 132 116
-0.2495276 0.042003781 -0.82858366 69 128 120
-0.24950792 0.043531723 -0.82852006 58 132 115
-0.25005937 0.043174546 -0.83049816 71 129 120
-0.24957579 0.043558184 -0.8287639 59 133 114
-0.2510159 0.039886057 -0.83150089 38 138 109
-0.25022772 0.037968323 -0.83015198 42 136 110
-0.25076708 0.038505677 -0.83180076 42 136 110
-0.25137308 0.040701397 -0.8321625 38 137 108
-0.25105315 0.03914867 -0.83234 41 135 109
-0.24970652 0.039192978 -0.82880294 58 131 117
-0.25014964 0.040310498 -0.82972664 58 131 117
-0.24960828 0.038957197 -0.8285988 58 131 118
-0.25026488 0.03851312 -0.82985628 41 137 110
-0.25032255 0.040082913 -0.83005196 52 133 115
-0.24968088 0.037737474 -0.82867587 46 135 113
-0.24963288 0.03491303 -0.83074158 46 134 113
-0.24914713 0.033232123 -0.83019775 50 134 116
-0.24903041 0.033615768 -0.8296479 45 134 115
-0.24883775 0.033486225 -0.82914633 44 134 115
-0.25009698 0.035136193 -0.83199722 51 133 113
-0.24949829 0.035145748 -0.83013594 43 134 113
-0.24998342 0.037071887 -0.83002132 43 136 111
-0.25017652 0.036541566 -0.83135629 43 136 110
-0.2500281 0.036991823 -0.83028483 43 136 111
-0.24935433 0.035045728 -0.82966805 43 134 113
-0.249314 0.035878155 -0.82862109 43 135 113
-0.24894826 0.030415865 -0.8302775 58 138 114
-0.24949686 0.031812023 -0.83151066 61 135 115
-0.24960738 0.030968623 -0.83169776 70 137 115
-0.2489334 0.029476969 -0.83019495 65 138 114
-0.24929525 0.030396011 -0.83100826 67 137 114
-0.24870186 0.030366467 -0.82975513 52 137 114
-0.24969208 0.03280123 -0.83195859 58 135 115
-0.24838856 0.031349886 -0.82857382 44 136 114
-0.2483494 0.031167513 -0.82851756 45 135 114
-0.24861279 0.030680373 -0.8294571 49 137 114
-0.2490398 0.031965025 -0.83030087 52 135 115
-0.24920122 0.031823464 -0.83082527 54 136 115
-0.24815193 0.028990723 -0.82860512 54 139 113
-0.24876763 0.027243625 -0.83037603 80 138 116
-0.24947532 0.02576402 -0.83227998 103 136 119
-0.24916805 0.02713123 -0.8312636 87 137 117
-0.24968567 0.027040727 -0.83237964 100 137 117
-0.24875151 0.027561042 -0.83026922 74 137 116
-0.24922885 0.028495042 -0.83102435 79 138 115
-0.24895708 0.027363883 -0.83075589 80 138 116
-0.23676944 0.052820545 -0.80218804 151 128 126
-0.23722045 0.053089894 -0.80339193 138 133 124
-0.23685455 0.052749783 -0.80238515 148 129 125
-0.23688793 0.053476878 -0.80264908 152 130 125
-0.23645179 0.050177727 -0.80172062 108 140 122
-0.23641792 0.051457547 -0.80145323 137 132 125
-0.23718227 0.050132833 -0.80325115 102 142 120
-0.23650205 0.050645567 -0.80175358 118 137 123
-0.23717926 0.050120484 -0.80324674 102 142 120
-0.23690768 0.050953384 -0.80255246 122 136 122
-0.23768538 0.051685609 -0.80445063 108 141 121
-0.23741584 0.05209478 -0.80378091 122 136 123
-0.23773035 0.051737029 -0.80456525 107 141 122
-0.23729026 0.052422788 -0.80347234 130 134 124
-0.23779464 0.051164649 -0.80471331 99 143 120
-0.23781344 0.051406246 -0.80476671 101 143 121
-0.23631938 0.050465856 -0.80140442 115 138 123
-0.23699352 0.048213109 -0.80320519 77 148 119
-0.23656836 0.048559267 -0.8022356 79 148 121
-0.23673679 0.048161495 -0.80268204 79 147 120
-0.23642655 0.04796423 -0.80221021 79 147 120
-0.23629074 0.047894105 -0.80206382 77 148 120
-0.23568234 0.04735326 -0.80148351 73 148 119
-0.23541285 0.046924908 -0.80129886 71 149 117
-0.23664744 0.034008756 -0.8050316 57 131 119
-0.23470996 0.034365393 -0.80246294 54 130 122
-0.23630494 0.03340606 -0.80442083 50 131 118
-0.23564751 0.03469184 -0.80373716 63 128 122
-0.23516113 0.035824679 -0.80305809 67 127 123
-0.23457155 0.035532266 -0.80201674 51 132 119
-0.23481682 0.035319682 -0.80252349 58 130 121
-0.23479097 0.03515245 -0.80251175 58 129 122
-0.23480308 0.03634816 -0.80227154 57 132 119
-0.23630843 0.032346476 -0.80474544 55 133 117
-0.23444262 0.031700358 -0.80255747 55 134 119
-0.24602814 0.053029448 -0.82207334 104 149 121
-0.24637087 0.0541857 -0.8230933 119 145 121
-0.24660344 0.053385962 -0.82360101 105 147 121
-0.24597892 0.05286324 -0.82192683 102 149 121
-0.24653319 0.054433011 -0.82354134 121 144 121
-0.24589938 0.053497095 -0.82179517 113 147 121
-0.246088 0.05465791 -0.8224287 128 144 121
-0.24653083 0.050627153 -0.82351124 106 138 120
-0.24655184 0.048890356 -0.82413405 109 131 120
-0.24593489 0.049492888 -0.82173532 122 133 120
-0.24665396 0.050030459 -0.82414025 105 136 120
-0.24616693 0.049824171 -0.82246155 116 134 120
-0.24598536 0.050030485 -0.82179075 120 135 120
-0.24605332 0.051034044 -0.82201743 112 140 121
-0.2458581 0.052505832 -0.8215881 103 148 121
-0.24634126 0.05270404 -0.82284629 97 150 120
-0.24654458 0.052610803 -0.82336676 96 148 121
-0.24588722 0.051967368 -0.82163584 106 146 120
-0.24659531 0.046562675 -0.82352877 93 132 118
-0.24716339 0.045665607 -0.82452333 72 135 113
-0.24642086 0.046224605 -0.82298434 95 132 118
-0.24658497 0.048303142 -0.82418215 105 131 120
-0.24711074 0.045973301 -0.82451862 76 134 114
-0.24647489 0.047351126 -0.82355094 101 132 119
-0.24621294 0.047901172 -0.82286996 111 131 120
-0.24605352 0.048400275 -0.82233709 119 130 120
-0.24584037 0.048452687 -0.82157797 124 129 120
-0.24582215 0.047904622 -0.82147104 121 130 120
-0.24590625 0.04819772 -0.82179445 121 130 120
-0.24741232 0.041941863 -0.82424259 55 134 114
-0.24749985 0.041448992 -0.82431424 54 134 114
-0.24663141 0.044465043 -0.82300591 78 132 116
-0.2458038 0.044438329 -0.82104969 99 131 119
-0.24688068 0.043964621 -0.82362926 68 133 115
-0.24636403 0.04402072 -0.82240319 82 131 117
-0.24565613 0.037831523 -0.82144111 34 136 110
-0.2452291 0.037125949 -0.82080805 31 138 109
-0.24543646 0.03738901 -0.82116818 32 137 110
-0.24709657 0.039871775 -0.82380176 45 134 113
-0.24609247 0.037348203 -0.82288659 37 137 111
-0.24549253 0.038222689 -0.8210699 43 135 112
-0.24649526 0.039683718 -0.82264048 50 133 114
-0.24677549 0.039783873 -0.82313347 46 135 113
-0.24735624 0.040928476 -0.82399076 54 134 115
-0.24634975 0.034955703 -0.82362503 35 135 112
-0.24630012 0.035564031 -0.82358319 38 136 112
-0.2455879 0.03396954 -0.82187629 36 136 112
-0.2455947 0.03335619 -0.82182521 33 137 112
-0.24671671 0.036750291 -0.82460868 39 135 112
-0.24660602 0.035274301 -0.8242119 34 135 112
-0.24522439 0.036642883 -0.82083851 32 137 110
-0.24668278 0.037070367 -0.82456976 40 135 112
-0.24511871 0.034547526 -0.82070714 35 137 111
-0.24561618 0.034581862 -0.82198739 38 137 112
-0.24556349 0.035813134 -0.82176864 36 136 112
-0.24557622 0.030594464 -0.82260352 64 134 114
-0.24607883 0.030984515 -0.82366544 61 133 115
-0.2455745 0.029360441 -0.82320327 87 134 116
-0.24555668 0.030189967 -0.82275283 71 134 115
-0.24551617 0.030315882 -0.82259017 69 133 115
-0.24652077 0.031338099 -0.82459396 58 134 114
-0.24526028 0.032404959 -0.82131803 44 136 113
-0.24559423 0.031585399 -0.82227498 51 134 113
-0.24631503 0.032477051 -0.8235721 36 134 113
-0.24507253 0.032283306 -0.82094818 46 136 113
-0.24537764 0.031167928 -0.82192838 55 134 114
-0.24668224 0.032957338 -0.82422537 28 135 112
-0.24487191 0.028809428 -0.82150292 88 134 116
-0.24484153 0.028310033 -0.82144761 94 135 115
-0.24578007 0.029128935 -0.82375354 92 133 116
-0.24817087 0.063806459 -0.83518231 64 137 115
-0.24868625 0.052902129 -0.83397263 91 127 119
-0.24812819 0.053066492 -0.83520305 62 132 116
-0.24892366 0.053049315 -0.83306122 105 125 122
-0.24806936 0.050167773 -0.83597958 55 139 116
-0.24838534 0.052342746 -0.83509821 74 132 116
-0.2486569 0.052019596 -0.83435929 88 129 119
-0.24823061 0.050327156 -0.83553791 65 137 117
-0.24877237 0.051214807 -0.83405077 94 130 120
-0.24805494 0.048934415 -0.83602941 54 140 117
-0.24945626 0.050592076 -0.83278006 109 127 121
-0.24853025 0.050106674 -0.83475918 80 134 119
-0.24906288 0.050703794 -0.83354026 100 129 120
-0.2495911 0.05042937 -0.83255106 112 127 121
-0.2486437 0.04954173 -0.83467501 78 135 118
-0.24810919 0.048817478 -0.83593071 55 141 117
-0.2492062 0.047512095 -0.83493483 68 135 117
-0.24944749 0.048435189 -0.8335247 89 132 118
-0.2498084 0.047040604 -0.83447051 75 133 116
-0.24913257 0.047862984 -0.83466882 72 134 117
-0.24912478 0.046833433 -0.83581477 54 137 115
-0.24999635 0.048080385 -0.8324405 99 129 119
-0.25013533 0.04544745 -0.83525896 56 135 114
-0.25046277 0.044990461 -0.83334976 63 134 115
-0.25006354 0.047503438 -0.83276761 92 130 118
-0.25029442 0.045186181 -0.83438993 59 134 115
-0.25025523 0.045418624 -0.83435392 61 134 115
-0.25239906 0.04107194 -0.83625937 32 138 106
-0.25220439 0.041738518 -0.83609474 32 138 106
-0.25168878 0.042105775 -0.83586848 33 138 108
-0.25165904 0.041411407 -0.83514482 33 138 107
-0.25018907 0.041768868 -0.83378249 40 137 110
-0.24989077 0.041042574 -0.8336997 38 136 110
-0.24898763 0.042933967 -0.83522737 44 136 113
-0.24889338 0.042440161 -0.83508629 43 135 113
-0.24840231 0.041087188 -0.83488148 39 134 113
-0.24914475 0.043940376 -0.83595473 45 135 113
-0.24847525 0.043526739 -0.8359217 46 136 114
-0.24857718 0.043954857 -0.83623052 46 136 114
-0.25071722 0.041938633 -0.83355886 40 137 109
-0.25124511 0.041312847 -0.832793 38 138 108
-0.25041953 0.044221014 -0.83509779 46 136 112
-0.25044882 0.044862691 -0.83367229 60 134 115
-0.25082448 0.043022428 -0.83412558 42 137 110
-0.25042266 0.044029541 -0.83542931 42 137 111
-0.25044009 0.044644557 -0.83414733 56 135 114
-0.2508392 0.043720756 -0.83271003 58 134 114
-0.25222474 0.040795848 -0.83560848 33 137 107
-0.2521753 0.040380254 -0.83581781 34 137 107
-0.25130659 0.040708713 -0.83575147 34 136 108
-0.25188771 0.040976051 -0.83426917 34 137 107
-0.24881791 0.039881453 -0.83557963 37 134 114
-0.24935924 0.039205391 -0.83579946 36 133 114
-0.25074515 0.039483752 -0.83448541 38 135 112
-0.25050309 0.038950738 -0.83518386 38 133 112
-0.25114295 0.039751362 -0.83391887 38 136 110
-0.25104678 0.040092226 -0.83366823 38 136 110
-0.25029659 0.038977318 -0.8353197 39 133 113
-0.25031814 0.038732454 -0.8355369 39 133 113
-0.25034818 0.039798021 -0.83449495 38 135 112
-0.25133631 0.038427681 -0.83484191 38 135 112
-0.2508119 0.037125826 -0.83361536 43 133 111
-0.25119853 0.038531598 -0.83393306 40 134 111
-0.25101972 0.03723184 -0.83464068 41 133 112
-0.2513335 0.040004302 -0.83275253 38 137 109
-0.24790943 0.039825544 -0.83586645 26 133 117
-0.24771377 0.039218504 -0.83604032 18 132 119
-0.24615888 0.038651321 -0.83448869 32 133 120
-0.24670134 0.037971169 -0.83558673 10 130 125
-0.24681436 0.039442271 -0.8347308 33 133 117
-0.2453745 0.037809364 -0.83412868 30 132 122
-0.24604729 0.037336428 -0.83524126 11 128 126
-0.246877 0.037403867 -0.8361758 2 128 127
-0.24693412 0.039943058 -0.83458441 40 133 116
-0.24438676 0.037956495 -0.83359712 33 132 123
-0.24436216 0.039173346 -0.83426404 17 130 124
-0.24621661 0.040368065 -0.83484513 25 133 119
-0.2475905 0.040747657 -0.83499908 37 134 114
-0.24697474 0.040978778 -0.83514965 27 133 117
-0.25069454 0.034794331 -0.83450711 49 133 115
-0.25133187 0.036518726 -0.83627355 40 132 114
-0.25131708 0.03626987 -0.83618319 40 132 115
-0.25041583 0.034020972 -0.8337301 53 134 115
-0.25099191 0.034961913 -0.83518076 46 133 115
-0.25082514 0.0357107 -0.83500218 46 133 115
-0.25107494 0.036838081 -0.83538461 41 133 113
-0.25046855 0.035053909 -0.83378327 51 133 115
-0.25063294 0.036769446 -0.8329767 45 135 111
-0.25091273 0.037043542 -0.83426863 42 133 112
-0.25088546 0.03617223 -0.8349933 45 133 115
-0.25053239 0.035031032 -0.83416408 51 133 116
-0.24462312 0.035920028 -0.83495641 86 132 125
-0.2449284 0.036538798 -0.83466953 54 131 125
-0.24515079 0.035611395 -0.83590251 91 131 127
-0.24454644 0.034622047 -0.83622396 141 132 127
-0.24564382 0.036880888 -0.83515644 25 130 126
-0.25143251 0.032553289 -0.83582085 52 133 116
-0.25089598 0.031403862 -0.83551973 73 134 117
-0.25069699 0.0309579 -0.83511573 79 135 116
-0.25146276 0.032623604 -0.83591944 51 133 116
-0.2508297 0.031211065 -0.83472764 71 135 115
-0.25046369 0.03053982 -0.83619851 94 134 117
-0.25084955 0.031897478 -0.83438951 62 135 116
-0.25032774 0.030861363 -0.83321983 77 136 116
-0.25022325 0.031879883 -0.83305323 68 136 115
-0.25051478 0.031336624 -0.83364481 70 135 116
-0.25080809 0.032782301 -0.83434993 54 133 116
-0.250251 0.031268202 -0.83307868 74 135 116
-0.24995154 0.029041111 -0.83272725 95 139 115
-0.24965043 0.026917577 -0.83365905 108 137 118
-0.24970716 0.027162755 -0.83286518 102 137 117
-0.24985401 0.028388288 -0.83316875 100 138 116
-0.24149534 0.052809909 -0.81120777 155 133 125
-0.24197195 0.053404968 -0.81244683 153 133 125
-0.24191481 0.053316191 -0.81229836 153 133 125
-0.24159594 0.053254768 -0.81146759 158 133 125
-0.24102114 0.053094771 -0.80997026 165 133 126
-0.24126503 0.053399254 -0.81060433 164 133 126
-0.2412706 0.050838608 -0.81110221 128 137 121
-0.24133813 0.049706992 -0.81136656 118 135 120
-0.24165043 0.04973302 -0.81207258 118 133 121
-0.24157433 0.05079281 -0.81179589 127 135 121
-0.24149704 0.050989609 -0.81160116 130 135 121
-0.24181093 0.051580478 -0.81225532 135 134 122
-0.24141362 0.051668234 -0.81127399 139 135 123
-0.24082881 0.050421651 -0.8100757 127 138 120
-0.24150503 0.052291512 -0.81134915 148 134 124
-0.24116987 0.051742081 -0.81061929 144 135 123
-0.24036498 0.049352013 -0.80914658 116 140 119
-0.24071585 0.050568387 -0.80974299 131 137 121
-0.24048029 0.047857229 -0.809843 110 139 118
-0.24093029 0.046011645 -0.81151229 111 136 118
-0.24026725 0.045600373 -0.81009823 127 133 121
-0.24103099 0.045839429 -0.81180543 110 136 118
-0.2403288 0.048453793 -0.80929083 109 140 118
-0.24063702 0.048302382 -0.81004775 109 138 118
-0.24145952 0.046565987 -0.81252706 109 134 119
-0.24130563 0.046824705 -0.81208664 108 135 118
-0.24126285 0.048060764 -0.81155294 109 135 119
-0.24051851 0.048317432 -0.8097735 109 139 118
-0.24131265 0.047981463 -0.81169397 109 135 119
-0.24021249 0.046173178 -0.80979222 124 133 121
-0.23990378 0.04540582 -0.80951798 125 132 121
-0.2409206 0.044212978 -0.81178045 114 132 120
-0.24126783 0.04470931 -0.81264406 109 135 118
-0.24023801 0.043733325 -0.81046057 124 131 122
-0.24030805 0.042529512 -0.81077629 115 131 122
-0.23975991 0.042247787 -0.81006455 108 134 120
-0.23929417 0.04161533 -0.80953699 96 137 119
-0.23945037 0.042469319 -0.80960184 104 135 119
-0.23953083 0.04457571 -0.80914307 121 131 121
-0.23949 0.043176077 -0.80949467 110 134 120
-0.23994482 0.033437792 -0.8119306 52 134 119
-0.23889944 0.033858743 -0.80937994 57 134 118
-0.23889601 0.033254541 -0.80961126 53 136 117
-0.24011636 0.033498418 -0.81229776 52 134 120
-0.24767636 0.056692116 -0.82713628 159 136 124
-0.24786434 0.057441324 -0.82813823 147 136 123
-0.24830705 0.055136785 -0.82835853 134 142 122
-0.24805517 0.053409278 -0.82703519 86 153 119
-0.24830778 0.053050078 -0.82757866 84 153 118
-0.24842131 0.053950772 -0.82822126 108 147 119
-0.24800178 0.052826721 -0.82669979 72 156 118
-0.24756293 0.054767799 -0.82650578 129 142 123
-0.247807 0.053902015 -0.82669383 103 149 120
-0.24700254 0.054237287 -0.82475138 115 144 121
-0.24788305 0.056202009 -0.82767141 155 137 125
-0.24863391 0.051436629 -0.82817799 99 146 119
-0.24867953 0.051504005 -0.8283087 99 146 118
-0.24822408 0.051606715 -0.82714522 87 149 119
-0.24825753 0.049421065 -0.82729173 118 133 122
-0.24808632 0.048954628 -0.82697749 121 130 123
-0.24780744 0.050447125 -0.8264432 97 141 120
-0.24698761 0.04946233 -0.82510346 101 135 120
-0.2474421 0.049727224 -0.82585675 103 136 120
-0.24709554 0.051947117 -0.82490695 90 146 120
-0.24709065 0.050021656 -0.82525289 95 138 119
-0.24732803 0.051061425 -0.82555914 87 145 118
-0.24697317 0.049702395 -0.8250652 98 137 119
-0.24913262 0.046836141 -0.82838988 92 132 117
-0.24868469 0.047551662 -0.82774454 103 131 119
-0.248229 0.047447059 -0.82677853 97 131 119
-0.24921648 0.045619957 -0.82816988 63 134 112
-0.24829495 0.046443928 -0.82654756 79 132 115
-0.24846715 0.045177568 -0.82644171 54 136 110
-0.24851415 0.045786478 -0.82676375 66 135 112
-0.248005 0.047730312 -0.82645261 104 130 120
-0.2474063 0.048609167 -0.82576978 112 130 121
-0.24726775 0.048339032 -0.8254624 107 131 120
-0.24718253 0.046428822 -0.82479131 81 133 115
-0.24914494 0.042809561 -0.82775813 63 131 117
-0.24817523 0.044694785 -0.8257373 51 136 110
-0.2486739 0.043430805 -0.82677573 59 132 114
-0.248928 0.042652864 -0.82730448 65 130 118
-0.24902882 0.042338211 -0.82751423 67 129 119
-0.24875872 0.041262157 -0.82679278 63 129 119
-0.24815969 0.042570531 -0.82551932 53 134 114
-0.24810877 0.043618295 -0.82549566 51 135 112
-0.24826512 0.042493932 -0.82575732 54 133 114
-0.24816357 0.041473098 -0.82542914 53 133 115
-0.24780948 0.042006325 -0.82485473 50 135 113
-0.24764155 0.043041106 -0.82477003 54 135 112
-0.24764453 0.04191808 -0.82464314 52 134 113
-0.24232586 0.04111525 -0.82845509 40 129 126
-0.24166358 0.041124552 -0.82786381 33 129 126
-0.24915117 0.038910646 -0.82754964 51 134 115
-0.24934772 0.040307213 -0.8280943 66 129 121
-0.24925844 0.040638875 -0.8279078 68 129 121
-0.24928175 0.040848229 -0.82797515 70 128 122
-0.24853002 0.04084928 -0.82622868 58 132 118
-0.24898869 0.037114795 -0.82747972 40 136 111
-0.24846721 0.037214674 -0.82659847 38 136 110
-0.24819155 0.040434323 -0.82547611 50 134 115
-0.24821925 0.040077701 -0.8255958 48 134 115
-0.24832074 0.038382441 -0.82611465 42 135 112
-0.24672544 0.037176274 -0.8246209 42 136 112
-0.24762015 0.039148618 -0.82508677 45 135 113
-0.24701141 0.03827893 -0.82462597 43 136 112
-0.24921866 0.03574178 -0.82846218 43 135 114
-0.24870469 0.0348964 -0.82798624 41 134 114
-0.24820143 0.036846321 -0.82629746 36 136 110
-0.24906106 0.035395969 -0.82835436 42 135 113
-0.24826278 0.035496607 -0.8269906 38 136 112
-0.2481674 0.0350076 -0.8268432 33 136 112
-0.24814643 0.035803434 -0.82656819 34 135 111
-0.24801986 0.036109034 -0.82613993 32 136 110
-0.24787952 0.034315508 -0.8263337 27 134 113
-0.24804188 0.035173107 -0.82643646 30 135 112
-0.24800333 0.036180556 -0.82608676 32 136 110
-0.24719392 0.036551688 -0.82506579 37 135 111
-0.24742806 0.036402497 -0.82528752 34 136 110
-0.2471471 0.035574287 -0.82497257 33 136 111
-0.24809735 0.032127641 -0.82747072 32 134 114
-0.24822211 0.032930855 -0.82757568 32 134 114
-0.24806505 0.029655786 -0.82824886 44 139 112
-0.24694894 0.029466061 -0.82614875 72 136 115
-0.24752799 0.029316001 -0.82732606 59 138 113
-0.24751161 0.031655069 -0.82647681 47 134 115
-0.24700019 0.029333448 -0.8262946 71 136 114
-0.2464063 0.029859735 -0.82495683 84 133 116
-0.24801143 0.032173395 -0.82726669 32 134 114
-0.24795441 0.033101775 -0.82682687 27 134 114
-0.24758616 0.032820679 -0.82618475 32 134 114
-0.24688701 0.031464078 -0.82529706 56 134 114
-0.24755767 0.033103999 -0.82601219 27 134 114
-0.24674739 0.028811743 -0.82589638 92 135 116
-0.24780251 0.028045274 -0.82807279 89 137 115
-0.24747144 0.027861822 -0.82745987 102 135 117
-0.24748161 0.027919762 -0.82747006 100 136 117
-0.24785991 0.029017324 -0.82802373 59 138 114
-0.24858569 0.03332698 -0.84087801 7 128 127
-0.24888356 0.033816602 -0.8403452 11 130 126
-0.24952398 0.033789214 -0.84032506 25 131 124
-0.25164431 0.033444803 -0.84044874 70 134 120
0 0 0 1 0 0 0 1 0 0 0 1 0 0 0 0 0 662 1 0 0
