ply
format ascii 1.0
comment PCL generated
element vertex 639
property float x
property float y
property float z
property uchar red
property uchar green
property uchar blue
element camera 1
property float view_px
property float view_py
property float view_pz
property float x_axisx
property float x_axisy
property float x_axisz
property float y_axisx
property float y_axisy
property float y_axisz
property float z_axisx
property float z_axisy
property float z_axisz
property float focal
property float scalex
property float scaley
property float centerx
property float centery
property int viewportx
property int viewporty
property float k1
property float k2
end_header
0.054177456 0.74686968 -0.91397494 92 136 107
0.053969368 0.74543852 -0.9136039 93 136 108
0.053831425 0.74435163 -0.913275 94 135 108
0.053721771 0.74567837 -0.91432959 94 137 107
0.053748332 0.74476349 -0.91371757 94 136 107
0.054155361 0.74433094 -0.91250175 91 135 108
0.055383842 0.74772996 -0.91183394 81 134 108
0.055141371 0.74631554 -0.91147333 83 133 109
0.055644285 0.74677557 -0.91066527 78 133 109
0.055678118 0.7469157 -0.91067964 78 132 109
0.054963138 0.74473763 -0.91086966 85 133 110
0.055326175 0.74609256 -0.9109298 82 133 110
0.052607294 0.74099064 -0.91271663 99 135 108
0.05264451 0.74125445 -0.91283947 99 135 108
0.052528676 0.74194139 -0.91392243 101 136 108
0.052586183 0.7413528 -0.91314423 99 136 107
0.052780554 0.74046135 -0.91169822 96 136 108
0.052938443 0.74084747 -0.91190517 96 136 109
0.052841634 0.74335843 -0.91439742 100 136 107
0.053130608 0.74382961 -0.91439176 97 136 107
0.053603046 0.74118584 -0.9114002 92 135 108
0.054013222 0.74292445 -0.91178095 90 135 109
0.053358629 0.74413651 -0.9142555 97 136 107
0.054165818 0.74265993 -0.91121805 89 134 109
0.054217648 0.74314594 -0.91147202 89 134 109
0.054744601 0.74387282 -0.91079628 86 133 110
0.052369315 0.73842138 -0.91339546 100 136 108
0.052431963 0.73820919 -0.9132365 99 136 108
0.052411709 0.73825973 -0.91329348 99 137 108
0.052174404 0.73750424 -0.91437811 101 136 108
0.052542139 0.73712462 -0.91263413 96 137 108
0.052564129 0.73706239 -0.91248965 96 137 108
0.052463427 0.73740083 -0.91315353 97 137 108
0.052427247 0.73634779 -0.91334271 96 138 107
0.052922424 0.73820257 -0.91107738 93 137 108
0.053475495 0.73984659 -0.91068375 91 136 108
0.052646108 0.73597568 -0.91178131 94 137 108
0.052520029 0.73607409 -0.91263622 95 137 107
0.052687176 0.73535001 -0.91125238 93 137 108
0.052525919 0.7337659 -0.91162419 96 135 109
0.052439988 0.73330098 -0.91180241 97 135 109
0.052158233 0.73281342 -0.91273516 99 134 109
0.051879592 0.73253256 -0.91378021 101 135 109
0.052257482 0.73353881 -0.91274375 98 136 108
0.052264806 0.7325536 -0.91211188 97 134 109
0.052792568 0.7353425 -0.91087848 92 137 108
0.051725451 0.73217547 -0.91428667 101 135 108
0.051708892 0.7320869 -0.91436249 101 135 108
0.051764641 0.73051596 -0.91356438 98 134 109
0.051809914 0.72944844 -0.91297674 97 133 109
0.051602524 0.7298305 -0.91435939 98 134 108
0.051807169 0.73152769 -0.91359746 100 134 109
0.052109938 0.72958332 -0.91130251 95 133 109
0.052124415 0.73213655 -0.91250312 99 134 109
0.052411962 0.73138762 -0.91087747 96 133 109
0.052468646 0.73214287 -0.91100395 96 134 110
0.052341312 0.73210216 -0.91153949 97 134 110
0.051407333 0.72693497 -0.91376156 95 134 108
0.051339872 0.72703397 -0.91420418 96 134 108
0.051288992 0.72694224 -0.91439909 96 134 108
0.051224306 0.72503644 -0.91315389 93 135 108
0.051113434 0.72580785 -0.91438925 96 134 109
0.051671416 0.72626078 -0.91172886 90 135 108
0.051602095 0.72662324 -0.91244745 92 135 108
0.051673688 0.72702831 -0.91233653 92 135 108
0.051630147 0.72713655 -0.91269112 93 135 108
0.051708315 0.727193 -0.91225755 93 134 108
0.052020896 0.72796482 -0.91096586 94 133 109
0.051118936 0.72254276 -0.91260368 89 135 108
0.050923586 0.72323859 -0.91375202 92 135 109
0.050859008 0.72335422 -0.91407639 94 135 109
0.051034678 0.72130787 -0.91235846 87 136 108
0.051170442 0.72244847 -0.91234398 88 135 108
0.051533528 0.72421724 -0.91101551 88 136 107
0.05058001 0.71917093 -0.91301614 87 135 109
0.049960688 0.71755868 -0.91434699 86 137 107
0.048741426 0.71331745 -0.91237199 87 140 103
0.04865469 0.71396327 -0.91365403 89 139 104
0.04890978 0.7144984 -0.91357619 86 140 104
0.048740309 0.71211189 -0.91156995 88 140 103
0.048860498 0.71008849 -0.91066039 90 138 104
0.049244214 0.712488 -0.9106707 85 140 103
0.052455295 0.74802512 -0.92326206 119 136 108
0.052375957 0.74667084 -0.92586046 124 134 110
0.05240101 0.7466284 -0.92613512 124 134 110
0.052357443 0.74764276 -0.92347449 119 136 108
0.051941197 0.74573141 -0.92498469 123 134 110
0.051914327 0.7456944 -0.92488158 123 134 110
0.051800445 0.74507457 -0.92244804 123 135 109
0.05200021 0.7462486 -0.92272866 121 135 109
0.051824767 0.74536628 -0.92428327 123 134 110
0.052090969 0.74674153 -0.92236596 120 136 109
0.052066199 0.7466411 -0.92287791 120 136 109
0.051423971 0.74108469 -0.92415106 124 134 110
0.05129493 0.74095583 -0.92506486 126 133 110
0.051475052 0.74091697 -0.92355055 123 133 110
0.051485974 0.74279052 -0.92550683 125 133 111
0.051311348 0.74051118 -0.92444527 125 134 110
0.0512526 0.7405386 -0.92495525 126 133 110
0.051623765 0.74353814 -0.92239207 124 133 110
0.051618952 0.74409837 -0.92372775 124 134 110
0.051565565 0.74147552 -0.92276889 123 134 110
0.051550284 0.74067813 -0.92241138 123 134 110
0.05162134 0.74372512 -0.92289478 124 134 110
0.050925985 0.73739219 -0.92602783 131 133 110
0.050995152 0.73763794 -0.92473096 126 134 110
0.050982244 0.73640931 -0.92361045 124 134 110
0.051035997 0.73656881 -0.92256635 119 134 110
0.051009834 0.73908651 -0.92606449 129 133 110
0.051209271 0.73945153 -0.92415172 124 134 110
0.05109784 0.7390182 -0.92460537 125 133 110
0.051285844 0.74011439 -0.92422491 125 133 110
0.051125135 0.737957 -0.92326343 122 133 110
0.051295079 0.74002719 -0.92405748 125 133 110
0.050847899 0.73322535 -0.92420894 124 133 110
0.050871711 0.73283213 -0.92323703 120 132 111
0.050855413 0.73379064 -0.9244498 125 133 110
0.05082456 0.7342636 -0.92568022 129 134 110
0.050806344 0.73414069 -0.92608714 130 134 110
0.050898522 0.73526347 -0.92454511 126 134 110
0.050930995 0.73452187 -0.92318761 121 133 110
0.050896306 0.73363012 -0.92323941 120 133 110
0.050951902 0.73423588 -0.92247254 119 132 110
0.05089293 0.73480451 -0.92429167 125 133 110
0.050599076 0.72936225 -0.92413777 114 134 110
0.050572425 0.72869408 -0.92357588 111 133 110
0.050632682 0.72927457 -0.92345524 114 134 110
0.050683655 0.73099184 -0.92518735 122 134 110
0.050520796 0.72954333 -0.92569339 114 134 109
0.050697476 0.72964805 -0.92264253 113 134 110
0.050788641 0.73179585 -0.92406219 121 133 110
0.05073081 0.730151 -0.92264301 114 133 110
0.050820615 0.73231876 -0.924137 122 133 110
0.050780348 0.73096985 -0.92277473 116 133 110
0.050773576 0.73101354 -0.92304254 117 133 110
0.050323769 0.72641766 -0.92593926 108 134 109
0.050310798 0.72652406 -0.92516339 107 134 109
0.050365176 0.72770089 -0.92589384 108 134 108
0.050289612 0.72561187 -0.9255839 108 134 110
0.050334193 0.72686124 -0.92574048 108 134 109
0.050323375 0.72696656 -0.92506772 107 134 108
0.050334875 0.72648746 -0.92337352 106 135 109
0.050313842 0.72606629 -0.92292261 106 134 109
0.050268885 0.72575545 -0.92307287 105 135 108
0.050425917 0.72671938 -0.92231774 107 134 109
0.050381996 0.72701335 -0.9235943 107 134 109
0.049804199 0.72188669 -0.92430711 99 136 108
0.049898375 0.72282475 -0.92541915 103 135 109
0.049687203 0.72087431 -0.9232161 93 138 106
0.049982887 0.72304118 -0.92522895 103 135 109
0.049842007 0.72171944 -0.9237203 96 137 107
0.049826331 0.72229451 -0.92492431 101 136 109
0.050239358 0.72443271 -0.92565006 107 135 110
0.050083242 0.72330904 -0.92386729 101 136 109
0.049989328 0.72245491 -0.92367709 97 137 108
0.050187614 0.72454751 -0.92264646 104 135 109
0.050193585 0.72422302 -0.92453432 105 135 109
0.050136603 0.72413141 -0.92230642 102 135 109
0.048827536 0.71894014 -0.92286444 96 138 106
0.048371639 0.71832091 -0.92580312 113 136 109
0.048051659 0.71724522 -0.92424834 115 136 108
0.048366401 0.71830511 -0.9258064 114 135 109
0.049062658 0.72026008 -0.92603445 104 135 110
0.049406059 0.72067493 -0.92480868 99 136 108
0.049054056 0.71990108 -0.92496043 102 136 108
0.049323335 0.72010177 -0.92354375 96 138 107
0.047890633 0.716582 -0.92398047 117 136 108
0.047890469 0.71649045 -0.92358136 117 136 108
0.047914982 0.71677011 -0.92364216 116 136 108
0.05268763 0.72555125 -0.93933773 102 138 106
0.052515782 0.72549665 -0.93909806 98 138 106
0.052485794 0.72632301 -0.93837959 105 137 108
0.052231144 0.74666798 -0.92150998 117 136 108
0.052069671 0.74624741 -0.92195147 120 136 109
0.052251946 0.74674916 -0.92147654 117 136 108
0.051737245 0.74417752 -0.92181742 123 133 110
0.052262351 0.74485087 -0.91978043 116 135 108
0.051837321 0.744964 -0.92199922 122 134 109
0.052430779 0.74557602 -0.91935027 114 136 109
0.052533094 0.74605316 -0.9187001 114 134 109
0.052452318 0.74559736 -0.91915506 114 135 108
0.052428808 0.74526769 -0.91914231 114 136 109
0.052439626 0.74437332 -0.91837722 113 135 108
0.052467685 0.74715936 -0.92015582 115 135 109
0.051601257 0.74257487 -0.92224824 123 134 109
0.051603962 0.74126518 -0.92036074 117 135 109
0.051591311 0.74210966 -0.92214596 123 133 110
0.05156634 0.74083418 -0.92174625 120 134 109
0.051612377 0.74300367 -0.9222405 124 133 110
0.051874772 0.74161506 -0.91849285 112 136 108
0.051920559 0.7438246 -0.92054451 119 134 109
0.051680069 0.74370563 -0.9216218 122 134 109
0.051867012 0.74235106 -0.91929114 115 135 109
0.051813908 0.74375868 -0.92100871 120 134 109
0.052382074 0.7440418 -0.91846585 113 136 108
0.051530451 0.73821563 -0.92084074 119 133 110
0.051208489 0.73655468 -0.92145473 118 133 110
0.051196668 0.73671532 -0.92164034 118 134 110
0.051411856 0.736525 -0.92027295 117 133 110
0.051598161 0.73752081 -0.91994321 118 133 110
0.051618002 0.73944873 -0.91936493 114 134 109
0.051600561 0.73918808 -0.92064184 118 134 109
0.051563296 0.74015242 -0.92121983 119 135 109
0.051592905 0.7392717 -0.92092246 119 134 110
0.051624537 0.73876107 -0.91999662 117 133 110
0.051129129 0.73413604 -0.92032582 115 133 110
0.051143255 0.73375773 -0.92001104 114 134 109
0.05101322 0.73405474 -0.9216013 117 133 110
0.051099125 0.73434204 -0.92074925 116 133 110
0.051080473 0.73323309 -0.92050463 115 133 110
0.051312611 0.7357924 -0.92031777 116 133 110
0.051300749 0.73422289 -0.91928309 114 133 110
0.051362447 0.73544246 -0.91978776 116 133 110
0.051244538 0.73501486 -0.92015994 116 133 110
0.051639825 0.73566741 -0.91836369 114 132 110
0.051504422 0.73535711 -0.91891807 114 133 110
0.050853092 0.73048663 -0.92082918 112 133 110
0.050786827 0.73029572 -0.92172045 113 133 110
0.050890572 0.73186749 -0.92172837 115 132 110
0.050832633 0.7314195 -0.92219776 115 132 110
0.050797835 0.73000795 -0.92122012 111 133 110
0.050875057 0.73087239 -0.92088926 112 132 110
0.051047232 0.73222619 -0.92033756 114 133 109
0.051054262 0.73117185 -0.91913038 111 133 109
0.050901856 0.7290346 -0.91856527 107 133 110
0.051168967 0.73204571 -0.9187699 112 133 109
0.05098303 0.73159325 -0.92038548 112 133 110
0.051068485 0.73159653 -0.91942406 112 133 109
0.050439537 0.72625118 -0.9209348 105 135 109
0.050456293 0.72598082 -0.91994476 104 134 109
0.050361618 0.72592366 -0.92176569 105 135 109
0.050263997 0.72487682 -0.92129123 103 135 108
0.050375506 0.72594267 -0.92152393 105 135 109
0.050357968 0.72546321 -0.92074496 104 134 109
0.05068155 0.72722322 -0.91878003 104 134 109
0.050633393 0.72811663 -0.92146635 109 133 110
0.050482564 0.72595137 -0.91940391 104 134 109
0.050553501 0.72680098 -0.9200179 105 134 109
0.050441977 0.72516143 -0.91841155 101 134 108
0.050550349 0.72647089 -0.91937351 104 134 109
0.050139356 0.72130197 -0.91987306 91 136 108
0.050087944 0.72325897 -0.9219166 98 136 107
0.049858898 0.7213459 -0.92213696 92 138 106
0.049974304 0.72078192 -0.92074925 89 137 107
0.0501897 0.72460806 -0.92218894 103 135 109
0.050335966 0.72326601 -0.9183982 96 134 109
0.050256222 0.72334439 -0.92009157 98 135 108
0.050292227 0.72238785 -0.91880047 94 135 109
0.050264675 0.72409379 -0.92034507 101 135 109
0.050237972 0.72326088 -0.920421 98 136 108
0.047960244 0.71680892 -0.92219025 113 136 108
0.049951833 0.72060561 -0.92047739 89 137 107
0.050169982 0.72061139 -0.91876793 89 135 109
0.050109472 0.7205441 -0.91898304 89 135 109
0.049356651 0.71887046 -0.91838437 91 137 109
0.049271159 0.71905601 -0.91978246 92 137 107
0.049749639 0.71983707 -0.91905832 90 136 108
0.047854334 0.71334064 -0.92069423 113 134 108
0.047832478 0.71407723 -0.92131597 114 134 108
0.047699235 0.71328831 -0.92173529 116 133 108
0.047787126 0.71410608 -0.9216485 115 133 108
0.047962479 0.71679062 -0.92212367 113 136 108
0.047807269 0.71286052 -0.92069513 114 133 108
0.047699731 0.71278965 -0.92135149 115 133 108
0.05256144 0.74546051 -0.93464935 134 131 114
0.052526943 0.74439466 -0.93497664 114 131 114
0.052372187 0.74657714 -0.93405062 166 131 113
0.052090339 0.74350411 -0.93471229 139 133 111
0.052502129 0.74350411 -0.93517995 120 132 113
0.052693766 0.7428872 -0.93553734 119 134 112
0.051631231 0.74097002 -0.93451881 156 135 110
0.051895577 0.74165696 -0.93479359 155 135 109
0.05200934 0.74203444 -0.9349001 155 135 110
0.051792987 0.74311739 -0.93443823 155 134 110
0.051686589 0.73989064 -0.9346993 148 135 110
0.052595925 0.74021381 -0.93598855 154 138 107
0.052670062 0.73712128 -0.93605936 77 133 116
0.051822376 0.74016076 -0.93489426 154 136 109
0.051367894 0.73712242 -0.93459082 129 134 113
0.051411487 0.73858136 -0.93444675 136 134 112
0.051305756 0.73693782 -0.93454909 131 134 113
0.051122222 0.73781371 -0.93424052 145 134 111
0.052271415 0.73459506 -0.93582553 72 132 117
0.051840901 0.73482639 -0.93534636 94 133 115
0.052510228 0.73576516 -0.93596065 65 131 117
0.052649081 0.73400861 -0.93628448 48 131 119
0.050407723 0.73307246 -0.934089 141 131 111
0.050743055 0.73501867 -0.93419135 143 134 111
0.050897636 0.73593748 -0.93423587 144 134 112
0.051448844 0.73264056 -0.93520051 95 131 115
0.052328121 0.73300296 -0.93605006 60 131 118
0.052342962 0.73084557 -0.93648875 91 131 115
0.052638724 0.73036575 -0.93689668 89 132 114
0.051270708 0.73179352 -0.93518662 115 131 113
0.052325752 0.73035467 -0.93658096 102 131 113
0.052271262 0.73205733 -0.93614501 66 130 117
0.050379626 0.73145014 -0.93416393 143 131 111
0.051789392 0.72915012 -0.93608379 132 132 110
0.051776581 0.72921199 -0.936068 132 132 110
0.051467735 0.72935545 -0.93563277 135 131 111
0.05137293 0.73038167 -0.93553907 135 131 111
0.050402611 0.73040342 -0.93415427 143 131 111
0.052083574 0.72814256 -0.93664503 128 133 109
0.0519404 0.72837943 -0.93633473 131 132 110
0.051863495 0.72592503 -0.93771559 92 139 109
0.051656093 0.72571331 -0.93757725 87 139 109
0.051580753 0.72551894 -0.93760383 85 139 110
0.051675286 0.72640079 -0.93715328 102 137 109
0.051350895 0.72699714 -0.93633038 114 135 110
0.050539263 0.72584677 -0.93439651 117 139 109
0.050570991 0.7250244 -0.93438268 110 141 108
0.050482139 0.72539622 -0.93404567 117 140 108
0.050442319 0.72664678 -0.93410552 127 136 109
0.050610684 0.72471923 -0.93450624 106 143 107
0.0510283 0.72526056 -0.9365356 88 140 110
0.0526825 0.72094691 -0.93689811 27 131 120
0.052327253 0.7222563 -0.93732464 43 136 117
0.050734017 0.72123426 -0.93499988 85 133 109
0.050871931 0.72237027 -0.93589801 80 136 109
0.051200971 0.72252637 -0.93635643 70 137 110
0.051463082 0.72242749 -0.9365744 63 136 112
0.051156662 0.72272134 -0.93643713 72 137 110
0.050709024 0.72338808 -0.93549085 91 139 108
0.050567206 0.72358334 -0.93474895 100 140 107
0.050847225 0.72311044 -0.93625331 82 138 108
0.050521877 0.72361827 -0.9345243 102 141 107
0.050820827 0.72415143 -0.93566018 91 141 108
0.050736245 0.72423834 -0.93523115 96 141 108
0.05605115 0.74719232 -0.91016144 73 133 108
0.05545748 0.74539489 -0.91028666 79 133 109
0.055819664 0.74592179 -0.90994531 75 134 109
0.055795126 0.74423558 -0.9092297 75 133 110
0.054730132 0.74207318 -0.90979779 83 135 109
0.055592969 0.74367368 -0.90926415 77 134 109
0.054597847 0.74225891 -0.91010499 84 134 109
0.055647559 0.74293917 -0.90879351 74 134 109
0.054257222 0.74061698 -0.9098801 85 135 109
0.055601064 0.7411682 -0.90830785 76 134 109
0.055339761 0.73753315 -0.90739936 75 134 109
0.055639412 0.73970652 -0.90779281 75 134 110
0.054058272 0.73963833 -0.90980989 86 136 109
0.055774681 0.73965937 -0.90760124 74 134 110
0.054685272 0.73889244 -0.90873253 81 135 109
0.054898269 0.73911297 -0.90853667 80 135 109
0.054952331 0.73911726 -0.90846837 80 135 109
0.054117948 0.73895699 -0.90954095 85 136 109
0.053799268 0.73796666 -0.90984988 87 136 108
0.053924974 0.73885208 -0.90982896 86 136 109
0.053687055 0.73717636 -0.9098686 87 136 109
0.053601943 0.73922163 -0.91042233 90 135 109
0.054441236 0.73709506 -0.90864271 81 136 109
0.052708551 0.73306942 -0.91030586 93 135 109
0.053769153 0.73292798 -0.90864062 84 136 109
0.053300094 0.73268938 -0.90924776 88 135 109
0.052997515 0.73456019 -0.91027129 91 136 108
0.054101449 0.73403502 -0.90848249 82 136 109
0.054403476 0.73364735 -0.90792263 79 136 108
0.05385834 0.73378164 -0.90876985 84 136 109
0.053777274 0.73614854 -0.90950936 85 137 108
0.054431535 0.73434299 -0.90804297 79 136 108
0.054462075 0.7344836 -0.90802652 79 136 108
0.054266471 0.73537463 -0.90854609 81 136 109
0.054798555 0.73385018 -0.90734059 76 136 109
0.054776408 0.73506266 -0.90765637 77 136 108
0.052428536 0.73039991 -0.91031748 94 133 109
0.052584387 0.72965628 -0.90948111 89 134 109
0.052570634 0.7304405 -0.90982306 91 133 109
0.052512493 0.72853565 -0.909316 88 133 109
0.053731617 0.72940546 -0.90757424 81 134 109
0.053585503 0.72930986 -0.90772659 82 134 109
0.053505979 0.72946906 -0.90788853 83 133 109
0.053192642 0.7295295 -0.90831459 84 134 109
0.054033332 0.73159271 -0.90783542 81 134 109
0.054208416 0.73138088 -0.90751445 79 134 109
0.054182108 0.73207635 -0.90776849 80 135 109
0.053992003 0.73034579 -0.90750891 80 134 109
0.052062035 0.72744328 -0.91039968 91 134 109
0.052509312 0.72823435 -0.90918845 87 134 108
0.052179173 0.72738808 -0.90996003 90 134 108
0.052159697 0.72633374 -0.90957427 86 135 108
0.052565373 0.72729343 -0.90874368 84 134 108
0.052229945 0.72638506 -0.90941262 86 135 108
0.052710634 0.72664499 -0.90829265 82 134 108
0.053078949 0.7281338 -0.90804207 83 133 108
0.053079031 0.72805303 -0.90803355 82 134 108
0.049273498 0.71174973 -0.91040248 85 140 104
0.049422942 0.71041298 -0.90962464 85 139 104
0.049492083 0.71061772 -0.9095487 85 139 104
0.049222004 0.71121657 -0.91032773 87 139 104
0.049468305 0.71277505 -0.91034508 83 141 103
0.05213983 0.746014 -0.93397373 165 132 112
0.052026812 0.74624854 -0.93338573 161 132 112
0.052388091 0.74793333 -0.93291044 165 132 113
0.052396197 0.74694961 -0.93388778 170 131 113
0.051888414 0.7466231 -0.93258125 155 132 112
0.051972076 0.74650598 -0.93296188 158 132 112
0.051532961 0.7448768 -0.93220556 149 133 111
0.05146898 0.74477136 -0.93040031 144 134 111
0.051548462 0.74613762 -0.93177909 146 133 111
0.051527765 0.74591905 -0.93132424 145 134 111
0.051554222 0.74508661 -0.93268311 150 133 111
0.051540628 0.74559891 -0.93192571 147 133 111
0.051296178 0.74181473 -0.93281364 155 133 111
0.051304668 0.74176317 -0.93318886 155 134 110
0.051378224 0.74243528 -0.93332809 155 133 111
0.051267665 0.74163377 -0.93253845 155 133 111
0.051156066 0.74032861 -0.93312174 157 134 110
0.051223971 0.74078631 -0.93370289 157 134 110
0.051121149 0.74100751 -0.9302358 151 133 111
0.051341493 0.74269336 -0.93153661 151 133 111
0.05141893 0.74341887 -0.93158591 150 133 112
0.051439524 0.7440331 -0.93030685 145 134 111
0.051368657 0.74273306 -0.93221271 153 133 111
0.050804995 0.73699576 -0.93290198 151 135 110
0.050988331 0.73855442 -0.93326306 153 135 110
0.050840579 0.73737347 -0.93336099 153 135 110
0.050742943 0.736516 -0.93302667 151 135 110
0.050909761 0.73756212 -0.93143111 146 135 109
0.050904185 0.73765665 -0.93215394 148 135 109
0.051115766 0.74020171 -0.93233937 155 133 111
0.050990812 0.73920816 -0.93062866 150 134 110
0.051041558 0.73955137 -0.93142676 152 134 110
0.050855052 0.73703963 -0.93063563 143 135 109
0.051050812 0.73979771 -0.93125737 152 134 110
0.050495405 0.73253578 -0.93035245 132 131 112
0.050431192 0.73380995 -0.93344671 146 132 111
0.050510835 0.73297572 -0.93088669 135 132 112
0.050249368 0.73252928 -0.93383574 143 131 111
0.050488763 0.73354548 -0.93217605 141 132 111
0.050565623 0.73333251 -0.93019342 134 132 112
0.050690837 0.73535889 -0.93123126 142 134 110
0.050648663 0.7348603 -0.93145341 142 134 111
0.050682489 0.73522645 -0.93117028 142 134 111
0.050553113 0.73332471 -0.9306944 135 133 112
0.05061432 0.73419404 -0.93082535 138 133 111
0.050277047 0.7287882 -0.93219495 137 132 110
0.050274525 0.729662 -0.9329592 139 132 110
0.050284527 0.72902226 -0.93267906 138 132 110
0.050267551 0.72905463 -0.93212885 137 132 110
0.050316725 0.72917861 -0.93393451 144 130 111
0.05028405 0.73101681 -0.93173897 136 132 111
0.050250586 0.73062724 -0.93182045 135 133 110
0.050358929 0.73109114 -0.93075055 132 132 111
0.050238598 0.72891837 -0.93026316 129 134 109
0.050242137 0.73093224 -0.93224877 137 132 110
0.050281458 0.725178 -0.93318528 114 141 107
0.050173108 0.72517788 -0.93274486 113 140 107
0.0504083 0.72595686 -0.93383449 122 138 108
0.050061401 0.72551715 -0.93234909 115 138 108
0.050345719 0.72767752 -0.9338755 137 132 110
0.049898203 0.72661489 -0.93031996 116 137 107
0.050053079 0.7271468 -0.93244493 129 133 109
0.050205007 0.72837478 -0.93030614 129 134 109
0.04978206 0.72581297 -0.93113673 115 136 107
0.04997582 0.72698617 -0.93075866 121 135 108
0.049921416 0.72151709 -0.93249577 106 138 106
0.049998004 0.72234035 -0.93247235 108 140 106
0.049999647 0.72198689 -0.93266815 107 138 106
0.049710818 0.72090685 -0.93168545 106 137 106
0.050179355 0.72184718 -0.93370891 105 136 106
0.049717031 0.72374457 -0.93092752 106 140 106
0.049803279 0.72312528 -0.93137413 107 141 106
0.049903072 0.72344762 -0.93172973 108 141 106
0.050460543 0.72454995 -0.93382466 110 143 107
0.050062023 0.72326821 -0.93240362 110 141 107
0.049476419 0.72267652 -0.93011516 106 139 106
0.049432509 0.7205466 -0.93046337 111 138 107
0.049600899 0.72050852 -0.93141013 110 137 106
0.049739257 0.72012156 -0.93256855 114 135 106
0.052626293 0.74522692 -0.91748077 110 135 109
0.052512124 0.74524313 -0.91832769 112 135 109
0.052675311 0.745983 -0.91754323 110 134 109
0.052928865 0.74608499 -0.91658306 106 134 109
0.052770227 0.74488944 -0.91639286 106 136 108
0.053479318 0.74597001 -0.91510725 98 136 107
0.053753246 0.74629635 -0.91463614 95 136 107
0.053100217 0.74802822 -0.91734719 108 133 110
0.053288735 0.74692035 -0.9161799 103 134 109
0.053581778 0.74715763 -0.91560519 100 135 108
0.053520087 0.74730831 -0.91585308 101 135 108
0.052583247 0.74306113 -0.91513097 103 137 107
0.052294049 0.74256295 -0.91623521 109 135 108
0.052246023 0.74276417 -0.91698003 111 135 108
0.052429497 0.74365157 -0.91736418 110 136 108
0.051990569 0.74104613 -0.91568679 108 135 109
0.052015439 0.74166214 -0.91701269 110 136 108
0.052249428 0.74292499 -0.9173643 111 136 108
0.051790193 0.74095792 -0.91804236 111 135 108
0.051884107 0.740753 -0.91627949 109 135 108
0.052743066 0.74358714 -0.91504854 102 137 107
0.051695481 0.73941189 -0.91794002 110 135 108
0.05200199 0.73687738 -0.9161979 105 135 109
0.051831342 0.73674989 -0.91747379 111 133 110
0.051890783 0.73706359 -0.9169758 108 135 109
0.051660586 0.7398361 -0.91811138 110 136 108
0.051869426 0.73956913 -0.91582316 107 136 108
0.051865973 0.73924768 -0.91622657 107 136 108
0.051718783 0.74014157 -0.91713274 109 136 108
0.051937338 0.73925465 -0.91529572 106 136 108
0.051950984 0.73927855 -0.91509265 105 135 108
0.051535226 0.73246801 -0.91595578 105 135 108
0.051627565 0.7329638 -0.91569525 105 135 108
0.051540352 0.73285228 -0.91630721 107 134 109
0.051670279 0.73359913 -0.91599107 107 133 109
0.051674966 0.73259264 -0.91491973 103 134 108
0.051794603 0.73427635 -0.91572911 105 135 108
0.051964775 0.73605675 -0.9163025 106 135 109
0.051801976 0.73407656 -0.91547078 104 135 108
0.051737629 0.7338016 -0.91566122 106 134 109
0.051858298 0.73444808 -0.91543794 104 135 108
0.051934164 0.73581958 -0.91628432 106 135 109
0.051099196 0.72931421 -0.91744769 104 134 109
0.051255442 0.73208034 -0.91807944 110 134 109
0.051296994 0.73134983 -0.917418 108 133 109
0.051173337 0.73141891 -0.91819561 110 134 109
0.051234819 0.73174965 -0.91801554 110 134 109
0.051157996 0.72870338 -0.91675097 101 134 109
0.051654525 0.73142391 -0.91452134 101 135 109
0.051571261 0.73087645 -0.91499883 101 134 108
0.051358309 0.73144937 -0.91699839 107 134 109
0.051419001 0.73100877 -0.91631907 104 134 109
0.051540941 0.72933769 -0.91464442 98 134 108
0.05085367 0.72545379 -0.91566741 99 134 109
0.050847586 0.72594613 -0.91616446 99 134 109
0.050422002 0.72464359 -0.91805017 100 134 108
0.050776549 0.7265752 -0.91725791 102 134 109
0.050785668 0.72477341 -0.91553426 97 134 109
0.051185016 0.72762746 -0.91565365 99 133 109
0.050901171 0.72697544 -0.91673994 102 134 109
0.051258359 0.72805208 -0.91561222 99 133 109
0.051257074 0.72734833 -0.91496259 97 134 109
0.051225822 0.72847682 -0.91620332 100 133 109
0.050876092 0.72832829 -0.91815323 105 134 110
0.050421469 0.72198886 -0.91596478 95 135 109
0.050422568 0.72103858 -0.91541368 92 135 109
0.050368857 0.72438669 -0.91835892 100 134 108
0.050414171 0.72157705 -0.91588247 93 135 109
0.050458811 0.72074139 -0.91451854 92 135 109
0.050451782 0.72099501 -0.91480124 92 135 109
0.050718136 0.72346252 -0.91490883 95 134 109
0.050619327 0.72280151 -0.91506934 95 135 109
0.050693236 0.72427529 -0.91577232 97 134 109
0.05056753 0.7245872 -0.91694546 98 134 108
0.050493576 0.72303587 -0.91617763 96 134 109
0.049415246 0.71695387 -0.91560489 87 138 106
0.049789082 0.71770751 -0.91569173 86 138 106
0.049924847 0.71961802 -0.91784155 89 136 108
0.049487349 0.71844834 -0.91746587 89 137 108
0.049214758 0.71834648 -0.91805565 91 137 108
0.049761936 0.71788043 -0.91599095 87 137 107
0.050154287 0.71902829 -0.91496539 89 136 108
0.050286282 0.72002691 -0.91568458 89 135 109
0.050413158 0.72052908 -0.91482824 91 135 109
0.050344285 0.72006494 -0.91464555 90 135 109
0.050097656 0.71855819 -0.91451615 88 137 107
0.049009472 0.71590829 -0.91514909 88 139 105
0.049403355 0.71631223 -0.91475916 86 138 106
0.051854577 0.74512827 -0.92633241 125 133 111
0.05203585 0.74623859 -0.92687041 127 134 110
0.051579349 0.74802077 -0.92992568 137 134 110
0.051816963 0.74635565 -0.927625 130 134 110
0.052002016 0.74676943 -0.92748094 129 134 110
0.051514361 0.74423766 -0.92817843 135 134 111
0.051541705 0.74719477 -0.92936307 136 134 110
0.051542919 0.7462495 -0.92871052 134 134 110
0.051510368 0.74692565 -0.93004876 139 134 110
0.051548619 0.7452665 -0.92790991 131 134 111
0.051174581 0.74154866 -0.92975807 148 133 112
0.051167943 0.74132556 -0.92743421 134 133 111
0.051352125 0.74323463 -0.92955178 143 134 111
0.051165029 0.74143934 -0.92949754 146 133 111
0.051094722 0.74072748 -0.92893529 144 133 111
0.051215805 0.74174964 -0.92753899 134 133 111
0.051348757 0.74247473 -0.92654657 128 133 111
0.051460505 0.74338597 -0.92682171 129 133 111
0.051086918 0.7404353 -0.92625374 129 133 110
0.051342893 0.7428506 -0.92808926 135 133 111
0.051384922 0.74275053 -0.92656541 128 133 111
0.050803557 0.73653013 -0.93003291 141 136 109
0.050927501 0.73810816 -0.9287498 144 134 110
0.05081173 0.73657924 -0.92977124 140 135 109
0.050849233 0.73715639 -0.92970401 142 135 109
0.050871383 0.73702216 -0.92813289 139 135 110
0.051016424 0.73959422 -0.928168 141 133 110
0.050976805 0.73863709 -0.92696065 135 133 110
0.051038124 0.74016702 -0.92917085 147 133 111
0.050927397 0.73760206 -0.92657077 134 133 110
0.051028609 0.73956209 -0.92624205 130 133 110
0.05069242 0.73389679 -0.92880738 134 134 110
0.050707262 0.73365462 -0.92830157 133 134 110
0.050574597 0.73333061 -0.92997968 133 132 112
0.050694946 0.73293608 -0.92767096 131 134 110
0.050614461 0.73284316 -0.92880738 131 133 111
0.050828103 0.7357921 -0.92732996 135 134 110
0.050816357 0.73533106 -0.92725414 134 135 109
0.05079639 0.73601693 -0.92929107 138 135 109
0.050839409 0.73594087 -0.92696822 134 135 109
0.050830897 0.73617011 -0.92774343 136 135 109
0.050435923 0.73059487 -0.92862803 123 132 111
0.050280228 0.72875023 -0.92917281 124 134 109
0.050464958 0.73121339 -0.92896253 124 132 111
0.050440196 0.73083246 -0.92891008 124 132 111
0.050410718 0.73044515 -0.92895281 124 133 110
0.05035736 0.73038757 -0.93005228 129 133 110
0.050496735 0.73172605 -0.92916459 127 132 111
0.050620757 0.73136252 -0.92673826 123 133 110
0.050522432 0.73240733 -0.92972654 131 132 112
0.050653439 0.73196244 -0.92707795 127 134 110
0.0504517 0.72913402 -0.92621261 112 133 109
0.050552543 0.73079133 -0.92698771 120 134 109
0.050076559 0.72652745 -0.92900133 117 136 109
0.050103255 0.72519195 -0.9276073 111 135 109
0.049869213 0.72627556 -0.92987794 114 137 107
0.05010327 0.72679859 -0.92911202 119 135 109
0.050090834 0.72737396 -0.92971754 121 135 109
0.050177086 0.7282021 -0.93003041 126 135 109
0.050233588 0.72843271 -0.92978042 127 134 109
0.050338451 0.72706145 -0.92642921 110 134 109
0.05032368 0.72641516 -0.92628258 109 134 110
0.050281551 0.72849333 -0.92875451 121 134 109
0.050343189 0.72711831 -0.92636532 109 134 109
0.050258879 0.72777557 -0.92873156 122 134 110
0.049416173 0.72171104 -0.92974198 107 138 107
0.049499433 0.72358698 -0.93001741 104 139 106
0.049378905 0.72099704 -0.92950594 108 138 107
0.049391452 0.72086811 -0.92991686 109 139 107
0.049321 0.72180289 -0.92742014 104 136 109
0.049298815 0.72117251 -0.92645401 104 134 110
0.049490076 0.7217986 -0.92632478 105 134 110
0.049373448 0.72148114 -0.92649573 104 135 110
0.049520191 0.72345483 -0.92853612 103 137 107
0.049609512 0.72427922 -0.92923796 104 138 107
0.049230296 0.72074127 -0.92620379 103 135 110
0.048283651 0.71804547 -0.92707616 117 136 108
0.048808403 0.71959174 -0.92876881 113 137 108
0.048342597 0.71824932 -0.92635936 115 136 108
0.048720654 0.71934932 -0.92800045 112 136 109
0.048914727 0.71984148 -0.92928934 113 137 108
0.049235053 0.7205438 -0.92831475 108 137 108
0 0 0 1 0 0 0 1 0 0 0 1 0 0 0 0 0 639 1 0 0
