ply
format ascii 1.0
comment PCL generated
element vertex 947
property float x
property float y
property float z
property uchar red
property uchar green
property uchar blue
element camera 1
property float view_px
property float view_py
property float view_pz
property float x_axisx
property float x_axisy
property float x_axisz
property float y_axisx
property float y_axisy
property float y_axisz
property float z_axisx
property float z_axisy
property float z_axisz
property float focal
property float scalex
property float scaley
property float centerx
property float centery
property int viewportx
property int viewporty
property float k1
property float k2
end_header
0.10190319 0.55021316 -0.87144053 102 137 124
0.10196185 0.54866379 -0.87138081 109 137 126
0.10134915 0.5470134 -0.87050897 100 138 124
0.10111004 0.5474838 -0.87031072 100 138 124
0.10416281 0.50761068 -0.87142569 91 141 126
0.10411134 0.50703573 -0.87129474 91 141 126
0.10401896 0.49850377 -0.87049991 97 137 126
0.10377738 0.49910858 -0.86983657 96 138 126
0.10405176 0.4983061 -0.87058198 97 137 126
0.10410962 0.50152433 -0.87102968 91 139 125
0.10309457 0.49730903 -0.86833107 97 138 127
0.10472223 0.49415094 -0.87145162 113 140 127
0.10404696 0.49773303 -0.87050229 98 138 127
0.10358788 0.49734905 -0.86910421 100 138 127
0.1045434 0.49347371 -0.87089288 111 140 126
0.10431357 0.49395412 -0.87038505 111 140 127
0.10415696 0.49338901 -0.86989057 109 140 126
0.10689066 0.56576651 -0.87906575 116 141 125
0.10661685 0.56168395 -0.878434 115 141 126
0.10698988 0.55782038 -0.87836975 114 141 127
0.10710637 0.5585444 -0.87869066 115 142 127
0.10706223 0.55950963 -0.87884963 116 142 126
0.1072153 0.55775267 -0.87865812 115 141 128
0.1070345 0.56046861 -0.87899929 117 142 126
0.10745639 0.55869639 -0.87929231 117 142 127
0.10741614 0.55415678 -0.87815064 115 143 129
0.10634581 0.55316377 -0.87671226 109 142 128
0.10767259 0.55430484 -0.87893176 115 143 128
0.1076117 0.55279738 -0.8784045 114 145 128
0.1075472 0.55588585 -0.87894142 116 141 129
0.10716181 0.5520671 -0.87754357 115 143 128
0.10672732 0.5522182 -0.87708062 113 143 128
0.10639571 0.55188328 -0.87670577 111 142 128
0.10631688 0.55156982 -0.87660545 111 142 128
0.10538047 0.55160153 -0.87558073 106 140 127
0.10594297 0.55097264 -0.87616527 110 141 127
0.10588539 0.54928267 -0.87598997 111 140 126
0.10536186 0.54921848 -0.87540317 108 139 125
0.10787094 0.55073005 -0.87897986 117 144 127
0.10765504 0.54914117 -0.87829924 120 143 127
0.10797445 0.55010247 -0.87920171 117 143 128
0.10758209 0.55112976 -0.87822956 117 144 127
0.10752184 0.55102021 -0.87805521 118 144 127
0.10598183 0.54831338 -0.87614393 114 140 126
0.10701225 0.54760861 -0.87739539 122 142 127
0.10710729 0.54720157 -0.87756169 123 142 127
0.10665895 0.54740727 -0.87703222 120 141 127
0.10587813 0.54699373 -0.87604052 116 140 126
0.10613906 0.5457955 -0.87636113 121 141 126
0.10593678 0.54694605 -0.87612641 116 140 126
0.10554021 0.54722583 -0.87554282 114 139 125
0.10559566 0.54663074 -0.87558973 115 139 126
0.10798515 0.54814178 -0.87929255 120 142 129
0.10793576 0.5477255 -0.87924689 120 143 128
0.10756474 0.54876524 -0.87805033 121 143 127
0.10765267 0.54745853 -0.87847328 124 143 128
0.10590902 0.54426628 -0.87591588 120 139 126
0.10730024 0.54340988 -0.87796968 126 143 128
0.10728178 0.5441733 -0.87799054 128 143 128
0.10732193 0.54354352 -0.87801111 127 144 128
0.10674769 0.54255146 -0.87707728 121 142 127
0.10691272 0.54161739 -0.87729138 119 143 127
0.10598066 0.54282105 -0.87599385 114 140 126
0.10575551 0.54180944 -0.87566537 107 141 126
0.10573079 0.54251289 -0.87563872 110 141 126
0.10575184 0.54358417 -0.87568069 115 140 126
0.107715 0.54376721 -0.87922627 124 145 128
0.10761186 0.54175365 -0.87867963 123 144 128
0.10747816 0.54428995 -0.87842417 128 144 128
0.10739424 0.53754109 -0.87852407 115 144 127
0.10705907 0.53882492 -0.87784481 113 143 127
0.10665312 0.53882724 -0.87727326 109 143 127
0.10691088 0.53945941 -0.87753367 113 143 127
0.10584974 0.53864765 -0.87593496 102 143 125
0.10610083 0.53831506 -0.87636828 104 143 125
0.10707481 0.53767878 -0.87803078 111 143 126
0.10765874 0.5382995 -0.8791973 119 143 128
0.10745449 0.53880429 -0.87846094 117 143 128
0.10675699 0.53694731 -0.87750351 109 145 126
0.10696889 0.53556865 -0.87780488 112 145 127
0.10684269 0.53448391 -0.87754726 112 146 126
0.10737266 0.53533798 -0.87847716 116 145 127
0.10590986 0.53616357 -0.87604874 103 145 125
0.10675464 0.53416884 -0.87741202 112 145 126
0.10695679 0.53351516 -0.87774283 113 146 126
0.10658604 0.53329444 -0.8771733 108 144 126
0.10761333 0.53526932 -0.8791607 118 144 127
0.10745022 0.53425479 -0.87860793 118 145 127
0.10742056 0.53204232 -0.87849778 110 147 126
0.10688951 0.53283912 -0.87765515 109 145 126
0.10741807 0.53123456 -0.8785128 104 148 125
0.10698387 0.53221649 -0.87781608 106 146 126
0.10765352 0.53179598 -0.8792038 108 148 125
0.10748458 0.53221923 -0.87868482 111 148 126
0.10760454 0.53313929 -0.87902546 119 147 127
0.10721667 0.52585304 -0.87847131 115 145 126
0.1071489 0.52701426 -0.87830478 106 146 125
0.10647103 0.52694559 -0.87732333 107 143 126
0.1054819 0.52593791 -0.87581319 102 142 126
0.1063636 0.52683562 -0.8771593 106 142 126
0.10589068 0.52644318 -0.87643659 104 142 126
0.1069961 0.52571964 -0.87813878 114 144 126
0.10555999 0.52529371 -0.87595749 104 142 126
0.10594235 0.52535129 -0.87653238 107 142 126
0.10732692 0.52390081 -0.87895697 111 144 125
0.10709219 0.52449626 -0.87847364 112 144 125
0.10631592 0.52395838 -0.87739903 103 143 125
0.10734501 0.52303737 -0.87916327 106 144 124
0.10754615 0.52537525 -0.87911952 118 144 126
0.10713439 0.51761281 -0.87898254 117 144 131
0.10685004 0.51957005 -0.87845415 103 144 126
0.10680124 0.51965886 -0.87835169 102 144 126
0.10732649 0.51605797 -0.87902039 114 143 129
0.10687913 0.51408464 -0.87776363 103 141 128
0.10714391 0.51710838 -0.87894744 117 143 131
0.1068399 0.51531255 -0.87798566 107 142 129
0.10687777 0.51501852 -0.87798268 107 142 129
0.10575771 0.5158655 -0.87587881 96 142 128
0.10647088 0.51688421 -0.87749296 107 144 129
0.10571752 0.51636821 -0.87581831 96 143 128
0.10586761 0.51446968 -0.87604332 96 141 129
0.10600649 0.51606488 -0.87643343 100 143 129
0.10615438 0.5173564 -0.87682682 103 144 128
0.10748825 0.51424223 -0.87898606 108 142 128
0.10718547 0.51240653 -0.87852317 102 142 128
0.10703226 0.51349235 -0.87798083 102 141 127
0.10666248 0.51317012 -0.87740958 99 141 128
0.10734773 0.51084459 -0.87919778 100 144 127
0.10689376 0.51171702 -0.8781811 98 142 128
0.10570119 0.51017559 -0.87550557 92 141 127
0.10585336 0.51285952 -0.87600046 92 141 128
0.10677288 0.51068598 -0.87815011 96 142 128
0.10635455 0.51161808 -0.87716955 95 142 128
0.1058825 0.51070273 -0.87597317 92 141 127
0.10742362 0.51353037 -0.87866414 106 141 127
0.10738805 0.5072242 -0.87916559 106 142 128
0.10701231 0.50897747 -0.87862808 97 143 128
0.10672894 0.50822741 -0.87788492 97 143 128
0.10677513 0.50817156 -0.87797707 97 143 128
0.10691503 0.50621468 -0.87796605 105 141 128
0.10665084 0.50607848 -0.8773647 103 142 127
0.10572951 0.50963587 -0.87554759 92 141 126
0.10632485 0.50737286 -0.87685496 96 143 127
0.10591365 0.50898713 -0.87595528 93 142 126
0.1057834 0.50851321 -0.87560558 93 142 126
0.10613629 0.5083608 -0.8764587 95 142 127
0.10592834 0.50696647 -0.87585843 95 142 127
0.10707664 0.50522578 -0.87815523 108 140 128
0.10740094 0.50472128 -0.87878072 113 139 130
0.1073283 0.50259876 -0.87826115 115 138 130
0.1064067 0.50576425 -0.87677765 102 142 128
0.10731674 0.50324017 -0.87834466 114 138 131
0.10603911 0.50564605 -0.87595153 98 142 128
0.10643794 0.50219989 -0.87643403 109 137 130
0.10603842 0.50389338 -0.87577569 102 139 128
0.10714992 0.50216299 -0.87783623 115 137 131
0.10609736 0.50444341 -0.87593424 101 141 128
0.10682391 0.50275558 -0.87723833 111 138 130
0.10764782 0.50219208 -0.87922937 117 138 132
0.10746495 0.50531173 -0.87907958 112 139 130
0.1071578 0.50190663 -0.87783867 116 137 131
0.10729571 0.50016171 -0.87822521 122 139 130
0.10698562 0.50070405 -0.87757766 118 138 130
0.10656679 0.5010075 -0.87673134 114 138 130
0.10730198 0.50040561 -0.87822151 122 138 131
0.10629757 0.49925476 -0.87593913 120 139 129
0.10629125 0.49996692 -0.87603247 116 139 129
0.10619306 0.50052649 -0.87586874 114 138 129
0.10743013 0.50112021 -0.87844157 120 138 131
0.10625893 0.49073008 -0.87590975 113 138 129
0.10636796 0.48978087 -0.87627023 111 138 129
0.10641929 0.48926282 -0.87650961 112 138 128
0.10618299 0.48788562 -0.87630224 111 139 127
0.10614184 0.48825815 -0.87609893 110 138 127
0.10624323 0.48844239 -0.87629414 111 138 127
0.11120035 0.53741264 -0.89756495 127 145 128
0.11144154 0.53757864 -0.8960256 127 146 128
0.11152203 0.53961819 -0.89818484 132 144 129
0.1113755 0.53853536 -0.89794517 131 144 129
0.11157668 0.53943568 -0.89745033 131 144 130
0.11168657 0.54066253 -0.89814323 134 142 130
0.1116584 0.54030198 -0.89790964 134 143 130
0.11171961 0.53886086 -0.89505297 132 143 129
0.1116376 0.53938395 -0.89675146 131 144 129
0.11169433 0.5395503 -0.89637536 133 143 129
0.11122534 0.53524965 -0.89496315 133 145 129
0.11125778 0.53600895 -0.89562297 130 145 128
0.11125164 0.53690708 -0.89664698 127 145 128
0.11102749 0.53566277 -0.89666128 130 144 129
0.11113689 0.53606129 -0.89644057 129 144 129
0.11102675 0.53471339 -0.89569372 133 143 129
0.11042602 0.53467596 -0.89839679 118 144 128
0.11085449 0.5340516 -0.89594442 134 143 129
0.11038321 0.53347087 -0.89735234 121 143 128
0.11018898 0.53355902 -0.89826584 115 143 128
0.11078613 0.53595465 -0.89817047 124 144 127
0.11073734 0.53451329 -0.89691103 129 143 129
0.11138187 0.53665274 -0.89539033 128 146 128
0.11012278 0.52996886 -0.89720786 118 144 128
0.10941048 0.5294506 -0.89846337 106 143 127
0.1102165 0.53195149 -0.8978169 116 144 127
0.11022805 0.52981716 -0.89693004 119 144 127
0.10974451 0.53030795 -0.89812309 110 144 127
0.11030567 0.52953696 -0.89665705 121 144 128
0.11074192 0.53076053 -0.89611542 128 145 128
0.11005173 0.53310913 -0.898507 112 144 128
0.11054971 0.53312999 -0.89639032 128 143 129
0.11071505 0.5321455 -0.8959136 130 143 129
0.11075888 0.53240669 -0.89566815 132 143 129
0.10923374 0.52875847 -0.89858627 103 143 127
0.10974229 0.5260914 -0.89645374 116 142 127
0.10966963 0.52739948 -0.89703566 114 142 127
0.10991254 0.52660716 -0.89616108 119 142 128
0.10976108 0.5270648 -0.89669549 116 142 128
0.11027759 0.52814698 -0.89609933 123 144 128
0.11011274 0.52665418 -0.89576554 122 142 128
0.11034354 0.52749646 -0.89567047 125 143 128
0.1104705 0.52865398 -0.89593112 125 144 128
0.11033953 0.52680993 -0.89536923 126 143 128
0.11041412 0.52923763 -0.89631015 124 144 128
0.11015797 0.52177882 -0.89632314 114 143 126
0.11018802 0.52228481 -0.8959499 116 145 126
0.10949231 0.52487957 -0.89703792 108 143 126
0.10989112 0.52429366 -0.8961485 115 144 126
0.11015026 0.52327567 -0.89574182 117 145 126
0.10945167 0.52439147 -0.89727575 106 145 125
0.10974356 0.52393943 -0.89663106 111 144 125
0.1102424 0.52504295 -0.89502501 125 142 128
0.10970711 0.51816696 -0.89620739 116 141 127
0.11009579 0.51989865 -0.89576876 118 142 127
0.1100716 0.5186336 -0.89511621 121 143 127
0.11032534 0.52059698 -0.89543682 119 144 126
0.11023627 0.52034295 -0.8955754 119 144 127
0.11038814 0.52015144 -0.89497864 122 145 127
0.10976417 0.51709104 -0.89508861 119 142 127
0.10718001 0.50243759 -0.89755201 102 140 127
0.10739768 0.50308609 -0.89619786 101 140 127
0.10710386 0.50350928 -0.89852101 99 138 127
0.10794221 0.50250548 -0.89516705 109 142 127
0.1076997 0.50266027 -0.89569831 106 141 128
0.10640192 0.4989267 -0.89852655 112 141 127
0.10655079 0.49978921 -0.89863825 109 141 127
0.1064059 0.49823186 -0.8981213 115 141 127
0.10716642 0.50004095 -0.89677674 113 141 128
0.10736571 0.50127554 -0.89683151 108 140 128
0.10701007 0.50040698 -0.89744818 109 141 128
0.10727471 0.50031364 -0.89659339 112 140 128
0.10782661 0.50113434 -0.89549059 114 141 128
0.10745519 0.49991277 -0.89584422 115 140 128
0.10744038 0.50067371 -0.89629048 111 140 128
0.10636277 0.49803135 -0.8981455 115 141 127
0.1064904 0.49771392 -0.89759386 116 142 127
0.106456 0.49640575 -0.89822119 112 140 127
0.10685001 0.49442369 -0.89775217 111 138 127
0.10624582 0.49750054 -0.89862454 113 141 127
0.10656192 0.49595743 -0.89844155 112 139 127
0.10662603 0.49513763 -0.89632654 116 141 126
0.10723811 0.49194774 -0.89697558 117 138 129
0.10701899 0.49317285 -0.89775848 111 137 128
0.10711087 0.49151155 -0.89590806 119 138 129
0.10704902 0.49241656 -0.89668679 116 138 128
0.10703821 0.49278304 -0.89727896 114 137 128
0.10696471 0.493379 -0.89715463 113 138 128
0.10796922 0.49026376 -0.89750439 117 139 128
0.10788643 0.49135762 -0.89853233 112 139 128
0.10772181 0.49186623 -0.89854264 112 138 128
0.10741212 0.48922628 -0.89545763 123 139 129
0.10725226 0.48871702 -0.89507562 120 139 129
0.107783 0.48770976 -0.89692354 116 138 129
0.10776132 0.48732698 -0.8969323 118 138 129
0.10785 0.48917586 -0.89707017 116 139 128
0.10753148 0.48934472 -0.89588201 122 139 129
0.10790572 0.48879334 -0.89729267 115 139 128
0.10794541 0.49020076 -0.89738113 117 139 128
0.1074634 0.48818994 -0.8956778 120 138 129
0.10635038 0.48374033 -0.89870149 113 140 129
0.10657724 0.48458534 -0.89731228 113 139 128
0.10762873 0.48624659 -0.8967942 122 138 130
0.10752589 0.48607662 -0.89672506 121 138 130
0.10903632 0.54100406 -0.91059083 120 139 129
0.10804439 0.49355492 -0.91073495 75 135 128
0.10934503 0.55618602 -0.88353521 125 146 127
0.10960392 0.54925472 -0.88431221 132 142 129
0.1092568 0.54561722 -0.884381 129 142 129
0.10919842 0.54493159 -0.88459462 130 142 130
0.10935575 0.54614872 -0.88441998 128 142 129
0.10916907 0.54737461 -0.88350892 127 141 129
0.10956567 0.54830998 -0.88441736 131 142 129
0.10915572 0.54634488 -0.88376802 127 141 129
0.1092104 0.54202902 -0.88503039 138 144 129
0.10905389 0.54201889 -0.8844952 139 145 128
0.10900007 0.54397613 -0.88400644 131 143 129
0.10905106 0.5423699 -0.88445675 139 145 128
0.10880185 0.54373533 -0.88329929 129 143 129
0.10876505 0.54257601 -0.88334739 133 145 128
0.10904593 0.54356921 -0.8842445 133 144 129
0.10929448 0.53863919 -0.88558072 127 140 130
0.10915015 0.53855717 -0.88495654 126 141 130
0.10937981 0.53745431 -0.88634086 125 140 130
0.10953863 0.53779656 -0.88694787 125 139 130
0.10952926 0.53920078 -0.88646036 129 139 130
0.10963509 0.53881723 -0.88705879 128 139 130
0.10894953 0.540829 -0.88419437 137 144 129
0.10884636 0.53810436 -0.88384354 125 142 129
0.10902272 0.53972042 -0.88444585 131 142 129
0.10896256 0.5395605 -0.88424009 131 142 129
0.10844797 0.53339356 -0.8834548 107 142 127
0.10932048 0.53539854 -0.8863771 117 140 128
0.10923459 0.53601038 -0.88611788 119 140 129
0.10914344 0.53466201 -0.88577259 114 141 128
0.10944887 0.53645325 -0.88683385 121 140 129
0.10884993 0.53502721 -0.88474989 114 141 128
0.10879898 0.53690022 -0.88390255 121 142 128
0.10884681 0.5360465 -0.88439959 118 141 129
0.10886585 0.53640628 -0.88436675 119 142 129
0.10896078 0.53552312 -0.88508576 116 141 128
0.10926199 0.53098148 -0.88635397 110 141 127
0.10944607 0.5317508 -0.88696331 112 140 127
0.10929056 0.52969611 -0.88683301 114 141 126
0.10931288 0.53086263 -0.88661319 112 140 127
0.10930694 0.5320366 -0.88626546 109 141 127
0.1088045 0.531874 -0.88452667 107 141 126
0.10847973 0.53303695 -0.88354105 106 142 127
0.10882945 0.53213829 -0.88462549 107 141 126
0.10886028 0.5328092 -0.88477004 108 141 127
0.10847059 0.53046942 -0.88334358 106 141 125
0.10912357 0.53171772 -0.88555944 108 141 126
0.10901807 0.5274266 -0.88617432 115 140 128
0.10884366 0.52650499 -0.8856138 116 141 128
0.10864861 0.5263527 -0.8847546 117 141 128
0.10907119 0.52638912 -0.88669372 114 140 128
0.10869041 0.52601361 -0.88503706 116 140 128
0.10906644 0.52617055 -0.8867296 114 140 128
0.10890725 0.52922672 -0.88525063 110 141 126
0.10843788 0.52825958 -0.88337409 109 142 125
0.10848229 0.52676469 -0.88390255 116 140 127
0.10870182 0.52766854 -0.88468033 115 140 127
0.10852031 0.52922654 -0.88352734 106 141 125
0.10887773 0.52431136 -0.88611233 113 141 129
0.10840515 0.52177393 -0.88406962 112 143 128
0.10891424 0.52213353 -0.88659602 115 141 127
0.10852709 0.52258563 -0.88457525 112 143 128
0.10859239 0.52264613 -0.88489723 113 143 128
0.10889724 0.52254981 -0.88645285 115 141 128
0.10883427 0.52499628 -0.88587958 115 140 128
0.10834005 0.52502054 -0.88359952 117 141 128
0.10864871 0.5247581 -0.88503253 115 141 128
0.10835646 0.52355105 -0.88372904 115 142 128
0.10832179 0.52507484 -0.88351339 117 141 128
0.10825545 0.52400315 -0.88324666 116 142 128
0.10881317 0.51910853 -0.88620126 122 141 128
0.10868237 0.51854712 -0.88543797 124 142 128
0.10893415 0.52023399 -0.88684177 120 140 128
0.10886718 0.51797676 -0.88666379 126 140 128
0.10888409 0.51925957 -0.88663173 122 141 128
0.10840822 0.5212636 -0.88410074 113 143 128
0.10865339 0.52090538 -0.88530171 116 143 127
0.10836814 0.51912439 -0.88366246 120 145 128
0.10867787 0.52035058 -0.88536447 118 143 127
0.10843085 0.51947761 -0.8840186 120 144 128
0.10844796 0.52127576 -0.88430309 113 143 128
0.10855686 0.51388478 -0.88392484 120 143 126
0.10878407 0.51483023 -0.88549823 122 141 127
0.10897918 0.51549709 -0.88680911 124 140 128
0.1088824 0.51394475 -0.88581967 120 141 127
0.10891674 0.51438236 -0.88613933 121 141 127
0.10891493 0.51573706 -0.88650513 124 140 128
0.10870609 0.51708591 -0.88558817 125 141 128
0.10862742 0.51699835 -0.88507402 125 142 128
0.10858606 0.51536018 -0.88446724 123 142 127
0.10846546 0.51593161 -0.88382822 124 144 127
0.10856666 0.51517642 -0.88430619 122 143 127
0.10898767 0.51272917 -0.88657099 117 140 128
0.10900602 0.5129568 -0.88661999 117 141 127
0.10884678 0.51024652 -0.88639516 114 139 127
0.10870204 0.51037389 -0.88548392 112 139 127
0.1087443 0.51081175 -0.88562036 112 140 127
0.10848819 0.51312482 -0.88358593 118 143 126
0.10848139 0.51106107 -0.88398564 109 141 126
0.10871918 0.51209432 -0.88513774 114 141 126
0.10863752 0.51320946 -0.88442945 119 142 126
0.10863113 0.51138341 -0.884781 111 140 127
0.1088892 0.51287293 -0.88595313 117 141 127
0.10894206 0.50949216 -0.88706976 113 138 128
0.10854146 0.50682294 -0.88477117 112 138 128
0.10827138 0.50677097 -0.88328326 115 140 128
0.10848264 0.50741476 -0.8845107 116 139 128
0.10851639 0.50888038 -0.88459694 111 140 128
0.10838887 0.50881487 -0.88382995 109 140 127
0.10835668 0.50655127 -0.88381743 117 140 128
0.10873932 0.50272566 -0.88632691 110 139 128
0.10872015 0.50229222 -0.88640726 115 139 128
0.10846098 0.50522548 -0.88420683 107 139 127
0.10838453 0.50534678 -0.88384193 110 139 128
0.10836399 0.50408614 -0.88364512 108 139 128
0.10835142 0.50481796 -0.88363945 111 139 128
0.10835762 0.50185096 -0.88360554 107 140 128
0.10852827 0.50016558 -0.8847934 119 140 129
0.10864182 0.50177044 -0.8859275 116 140 129
0.108342 0.50012743 -0.88326013 113 140 129
0.10869327 0.50152874 -0.88631916 119 139 129
0.11040546 0.5423494 -0.90205526 114 140 127
0.11070727 0.54121774 -0.9008823 115 141 128
0.11113633 0.53870374 -0.89900899 128 144 129
0.11074729 0.53982222 -0.90023738 117 142 128
0.11097483 0.53781801 -0.89895898 125 144 128
0.11032625 0.53954542 -0.90104741 106 142 127
0.11063614 0.53965497 -0.90041447 114 143 127
0.11008705 0.53806138 -0.90115947 108 141 127
0.11009563 0.5386287 -0.90131104 106 141 127
0.11006755 0.53819662 -0.90124917 107 141 126
0.11021951 0.53773433 -0.90073043 111 142 127
0.10946578 0.53343379 -0.90126276 104 142 126
0.10952106 0.53538144 -0.90146041 104 140 127
0.10977579 0.5336718 -0.89985806 107 143 127
0.10992845 0.53499091 -0.90000021 109 142 127
0.10966685 0.53576928 -0.90111482 106 140 127
0.11021647 0.5358339 -0.89978689 114 143 127
0.11031848 0.53477407 -0.8989011 115 144 127
0.10960129 0.53571707 -0.90124667 105 140 127
0.11036498 0.53626537 -0.89967501 116 143 127
0.10935628 0.53288734 -0.90143192 103 142 126
0.10965956 0.531681 -0.89888543 107 143 127
0.10959812 0.53307796 -0.90046906 105 143 127
0.10945088 0.53273511 -0.90084517 104 142 126
0.10960684 0.5324955 -0.89988834 107 142 127
0.109808 0.53314137 -0.89953893 108 144 127
0.10642604 0.49693093 -0.9027136 107 137 126
0.1072568 0.4950529 -0.90131968 114 137 128
0.10725981 0.49565122 -0.90269864 119 137 128
0.10675861 0.49507004 -0.89995974 106 137 127
0.10632931 0.49660051 -0.90163219 103 137 126
0.10619312 0.4976747 -0.89906257 112 141 127
0.10580562 0.49797785 -0.9019348 101 139 125
0.10669322 0.49510202 -0.89944088 106 137 127
0.10643011 0.49652922 -0.89910382 110 140 127
0.10679216 0.4949466 -0.89885372 108 137 128
0.10612343 0.49780142 -0.89944386 110 141 127
0.10742786 0.49454343 -0.90074861 115 136 128
0.1077456 0.49467739 -0.90198565 107 136 129
0.10776667 0.493976 -0.90067691 103 135 129
0.10814291 0.49149871 -0.89946437 107 138 127
0.10799173 0.49261004 -0.90007621 103 136 128
0.10784466 0.49184576 -0.89893967 110 138 127
0.10799863 0.4919427 -0.89946961 106 138 127
0.10848431 0.49294817 -0.90241992 98 136 128
0.10837109 0.49181372 -0.90041834 101 137 128
0.10850026 0.49202597 -0.90184724 106 137 128
0.10852756 0.49151415 -0.90170962 112 138 128
0.10845343 0.49122596 -0.90075821 110 138 127
0.10833838 0.48913279 -0.89951193 121 139 128
0.10832635 0.48921204 -0.89934695 120 139 128
0.1063296 0.48426566 -0.90018898 114 140 129
0.1064164 0.48493588 -0.90131664 115 140 129
0.10708565 0.48435083 -0.90259016 118 139 129
0.10632201 0.48337412 -0.90092367 111 140 128
0.10687302 0.48477188 -0.90223861 117 140 129
0.10721478 0.48265094 -0.90256929 115 141 126
0.10635226 0.4843505 -0.90114188 114 141 128
0.10685431 0.48223904 -0.90272206 114 139 126
0.10283912 0.55043864 -0.87239778 101 139 124
0.10307518 0.5488534 -0.87252361 111 138 126
0.10230613 0.54963928 -0.87180758 105 138 125
0.10486542 0.54985631 -0.87480587 108 139 126
0.10442361 0.54922169 -0.87417948 109 139 126
0.10391812 0.55001736 -0.87358397 108 138 126
0.10262457 0.54876941 -0.87206441 110 137 126
0.10349132 0.54852521 -0.87290454 110 138 125
0.1031769 0.54645789 -0.8723591 102 137 124
0.10537703 0.54550284 -0.87520087 116 138 126
0.10517059 0.54522091 -0.87489158 114 139 125
0.10534533 0.54662967 -0.87522179 113 139 125
0.10535438 0.54517961 -0.87514985 116 139 126
0.10463996 0.54728097 -0.87425929 104 139 124
0.10471691 0.54816794 -0.87445867 107 138 125
0.1036187 0.54720324 -0.87291586 105 138 125
0.10364802 0.54667568 -0.8728953 103 138 125
0.10452887 0.54793036 -0.8741864 107 138 125
0.10477138 0.54201543 -0.87405032 105 140 126
0.1048971 0.54190356 -0.87426281 105 140 126
0.10476386 0.54150671 -0.87403041 103 140 126
0.10403154 0.54119033 -0.87277919 100 140 126
0.10509121 0.54155177 -0.87458837 104 140 126
0.10517372 0.54297942 -0.87474883 109 140 126
0.10513987 0.54483408 -0.87481636 114 139 125
0.10469835 0.54399312 -0.87405479 110 139 125
0.10371295 0.54281789 -0.87246805 100 139 125
0.10469855 0.54414088 -0.87407887 110 139 125
0.10548146 0.51506698 -0.87522227 91 143 127
0.10550158 0.51019353 -0.87498558 91 141 126
0.10490793 0.51026273 -0.87341011 89 140 126
0.10550187 0.51336712 -0.87514406 91 140 128
0.1051745 0.51006442 -0.87410927 90 140 126
0.10555837 0.507806 -0.87500668 94 141 127
0.10514399 0.50819939 -0.87401384 94 141 127
0.10555449 0.50700086 -0.87494397 95 142 126
0.10517874 0.50794071 -0.87408215 94 141 127
0.1054001 0.5059495 -0.87449485 95 142 127
0.10470708 0.50677741 -0.87284559 95 142 127
0.10422406 0.50656235 -0.87159932 95 141 126
0.10525104 0.50933236 -0.87430245 91 141 126
0.1042803 0.50801998 -0.87173396 91 141 126
0.10544438 0.50926214 -0.87481731 92 141 126
0.1043424 0.50928283 -0.87188625 89 140 126
0.10488363 0.50228912 -0.87296152 96 138 127
0.10453439 0.50229204 -0.87213176 93 139 126
0.1056068 0.50290799 -0.87473738 101 138 128
0.10489216 0.5028044 -0.87302941 95 140 126
0.10585103 0.50327247 -0.87535149 102 138 129
0.10515576 0.5047285 -0.87381905 94 142 126
0.10503215 0.50565434 -0.87357169 95 142 127
0.10497833 0.50429422 -0.87335628 94 141 126
0.10472918 0.50371903 -0.87270856 94 141 126
0.10437595 0.50406784 -0.87186134 94 141 126
0.10581087 0.50136381 -0.87507695 107 136 129
0.10544895 0.49831638 -0.87388378 113 139 127
0.10553914 0.50068814 -0.87439394 105 136 129
0.10522163 0.49807432 -0.87335509 110 139 127
0.10568926 0.49944258 -0.87455755 112 138 128
0.10467226 0.50120908 -0.87238646 96 138 126
0.10509152 0.50032443 -0.87333328 101 137 128
0.10439128 0.50023144 -0.87166393 94 139 126
0.10434085 0.50117761 -0.87159705 93 138 126
0.1051268 0.500606 -0.87343293 101 137 128
0.10497552 0.49985111 -0.87303114 99 137 127
0.10542655 0.4951466 -0.87349433 121 140 127
0.10535404 0.49466065 -0.87332958 121 140 126
0.10511017 0.49687979 -0.87286693 112 139 127
0.10578138 0.49776214 -0.87451583 120 140 127
0.10573331 0.49147785 -0.87451196 113 138 127
0.10566465 0.49246949 -0.8743751 120 139 126
0.10533644 0.49140736 -0.87341398 111 138 126
0.10523728 0.49400002 -0.8730408 121 140 127
0.1053457 0.49390548 -0.87338144 122 140 126
0.10540688 0.49360177 -0.87358886 122 140 126
0.10521396 0.49411556 -0.87296176 121 140 127
0.10497879 0.4916774 -0.87238377 109 139 124
0.10554009 0.4853006 -0.8746978 110 139 127
0.10527544 0.48542279 -0.8737461 109 138 126
0.10509538 0.4849371 -0.87290514 110 138 127
0.11035684 0.53756523 -0.88989812 134 140 131
0.11017289 0.53728211 -0.88938963 131 140 131
0.10993095 0.53771222 -0.88824022 131 139 130
0.10972546 0.53737807 -0.88768297 127 139 130
0.1096333 0.53847367 -0.88713992 128 139 130
0.10985648 0.53800249 -0.88784522 131 139 130
0.11032341 0.53590643 -0.88999802 128 140 130
0.10991325 0.53344828 -0.88837773 119 141 129
0.11041135 0.53459114 -0.89024937 132 141 129
0.1101334 0.53481179 -0.88924974 124 140 130
0.10988034 0.53439236 -0.88830727 117 140 129
0.11008438 0.53458375 -0.88905948 123 140 129
0.10972635 0.53523612 -0.88777322 119 140 129
0.11046378 0.5370689 -0.89056391 132 140 131
0.10985432 0.53659421 -0.88829875 125 140 129
0.10995873 0.53697157 -0.88869852 128 139 131
0.11037716 0.53670943 -0.89023042 130 140 130
0.10963567 0.53020817 -0.88802707 121 141 128
0.10945144 0.52959514 -0.8875432 117 140 128
0.10986506 0.52979052 -0.88978249 126 141 129
0.10962185 0.52995294 -0.8881951 121 141 128
0.11029869 0.53199422 -0.89017898 133 141 129
0.10976774 0.5307253 -0.88838941 123 141 128
0.10968819 0.53103739 -0.88803029 120 140 128
0.10947104 0.53111732 -0.88722241 113 140 128
0.10964543 0.53099018 -0.88788527 119 141 128
0.10956065 0.53260183 -0.88721663 111 140 128
0.10939596 0.53005242 -0.88718736 115 140 127
0.10945104 0.5262925 -0.88906443 121 140 129
0.10923411 0.52563488 -0.88790703 116 140 129
0.1098628 0.52851993 -0.8905853 127 141 129
0.10997247 0.52909034 -0.89100611 129 141 130
0.10950553 0.52674979 -0.88915348 121 141 128
0.10936366 0.52745837 -0.88793802 118 141 128
0.10957153 0.52913356 -0.88859487 121 140 128
0.10961481 0.52849013 -0.88906586 122 141 129
0.10947327 0.52784604 -0.88845128 120 140 129
0.10961391 0.52827847 -0.8891319 122 141 129
0.10987316 0.52912569 -0.89036959 127 141 129
0.10965779 0.52346736 -0.89098692 126 142 127
0.10949361 0.52294797 -0.89001942 124 142 127
0.10919303 0.52176541 -0.88822609 119 141 127
0.1094691 0.52324897 -0.88991135 124 141 128
0.10954173 0.52268177 -0.89026296 125 142 128
0.10937401 0.52363449 -0.88941675 121 141 128
0.10920434 0.5240519 -0.88812417 118 140 128
0.1093396 0.52502203 -0.8889333 119 141 128
0.10931385 0.52434301 -0.88887894 120 140 128
0.10945649 0.52451342 -0.88990402 122 141 127
0.10938784 0.5251857 -0.88925862 120 141 128
0.10919124 0.52488142 -0.8878597 116 140 128
0.10964819 0.51768458 -0.89029998 134 139 129
0.10940196 0.51850355 -0.88931698 130 140 128
0.10949162 0.51983452 -0.88988918 129 141 128
0.109676 0.5199784 -0.8907249 130 141 128
0.10953772 0.51992774 -0.89010572 129 141 128
0.10923272 0.52136266 -0.88843256 120 142 127
0.10932755 0.52022749 -0.88907146 125 141 127
0.10914873 0.51915646 -0.88817471 126 140 128
0.10906142 0.51892233 -0.88770908 125 140 128
0.10926559 0.5200637 -0.88874084 125 141 128
0.10978394 0.51702785 -0.89097404 134 139 129
0.1096268 0.51639575 -0.89001006 131 139 129
0.10962608 0.51392055 -0.89078307 124 141 129
0.10949646 0.51534665 -0.88937545 127 140 128
0.10930559 0.51374036 -0.88846821 121 140 128
0.10979167 0.51733613 -0.89093429 134 139 129
0.10937099 0.51610261 -0.88874346 128 140 128
0.10926958 0.51609331 -0.88829225 127 140 128
0.1094394 0.51628715 -0.88908583 129 140 129
0.10958453 0.5167765 -0.88983309 131 139 129
0.10938581 0.51671457 -0.88893956 129 139 129
0.10928741 0.51151848 -0.88936007 119 140 128
0.10911279 0.51048464 -0.88853014 117 139 128
0.10945539 0.51240444 -0.89039093 121 140 128
0.10918268 0.51003814 -0.89070612 119 139 128
0.10955857 0.5129686 -0.89098132 123 140 128
0.10922392 0.51086289 -0.88965768 119 139 128
0.10905521 0.51115412 -0.8874765 117 139 128
0.1091423 0.51304835 -0.88748926 119 140 128
0.10904793 0.51050836 -0.88763797 117 139 128
0.1092327 0.51272047 -0.88826758 119 140 128
0.10921022 0.51187074 -0.88838452 119 140 128
0.10911544 0.51238835 -0.8875106 119 140 128
0.1091485 0.50932389 -0.89049405 115 139 128
0.10897603 0.50959271 -0.88760692 114 138 128
0.10902259 0.50917542 -0.88823074 112 138 128
0.10907137 0.5096156 -0.88928002 115 139 128
0.10884592 0.50229603 -0.88829136 119 139 130
0.10895459 0.50329316 -0.89088005 113 140 129
0.10881391 0.50306815 -0.88896894 115 139 129
0.10898424 0.50304872 -0.89088851 115 139 130
0.10876978 0.50255674 -0.88765824 117 139 128
0.10880453 0.50276494 -0.8874445 114 139 129
0.10781594 0.48708737 -0.89034796 117 140 128
0.10804167 0.48745832 -0.88961917 124 140 129
0.10735344 0.48335221 -0.88984293 119 138 129
0.10715736 0.48262444 -0.88979435 118 138 129
0.10791026 0.48338467 -0.88849932 123 139 128
0.10746244 0.48323533 -0.88955241 120 138 129
0.10770445 0.48487675 -0.88985252 117 140 128
0.10791114 0.48509216 -0.88930333 119 141 128
0.10809171 0.48537633 -0.88871551 123 140 128
0.10728469 0.48138419 -0.88905203 120 138 130
0.10705499 0.4810822 -0.88935536 118 138 129
0.10745043 0.4799186 -0.88817096 119 137 130
0.11015257 0.54413241 -0.90631652 122 139 128
0.11001981 0.54266185 -0.90408438 108 140 126
0.11018061 0.54415691 -0.90572095 123 139 128
0.10999167 0.54249847 -0.90408367 106 139 127
0.10869587 0.49416864 -0.90573692 80 134 128
0.10851166 0.49432945 -0.90514493 85 135 128
0.1076744 0.49527997 -0.90445912 110 135 129
0.10813149 0.49492267 -0.90644413 94 133 129
0.10766862 0.49545342 -0.90625745 105 132 130
0.10864379 0.49163511 -0.90462208 112 137 128
0.10819087 0.49050367 -0.90528011 121 138 129
0.10874391 0.49235839 -0.90498543 102 137 128
0.10839391 0.49075446 -0.90470946 120 138 129
0.10853902 0.49155805 -0.90497291 111 138 128
0.10866095 0.49251673 -0.90549904 99 136 128
0.10876454 0.49342605 -0.9056285 88 135 127
0.1086745 0.49294204 -0.90432435 97 136 128
0.10858952 0.49258521 -0.903175 103 136 128
0.1087562 0.49139851 -0.90388888 116 138 127
0.10859028 0.49259406 -0.90318984 103 136 128
0.1064638 0.4864291 -0.90337378 113 139 130
0.10661438 0.48715159 -0.90420294 114 139 130
0.10687409 0.4871242 -0.90387487 118 139 130
0.10661875 0.48500016 -0.90320402 112 140 128
0.1058015 0.48609394 -0.90390694 102 139 130
0.10656169 0.48516357 -0.90324616 111 140 129
0.11034027 0.54750383 -0.90759718 120 138 128
0.10928316 0.54217631 -0.91035372 115 139 128
0.11001404 0.54392654 -0.9072687 115 138 127
0.11005823 0.54388648 -0.90694416 117 138 128
0.10898603 0.53890407 -0.90950257 105 140 128
0.10900794 0.53876537 -0.90896469 105 139 128
0.10897463 0.53882015 -0.90958536 105 139 128
0.10747098 0.49571753 -0.90679187 108 132 130
0.1085007 0.4944624 -0.90777659 80 133 128
0.10850192 0.49444181 -0.9083029 78 133 128
0.10842115 0.49445316 -0.91006368 70 134 127
0.1076434 0.49529964 -0.90934324 79 133 128
0.10809874 0.49235097 -0.90908343 91 136 128
0.10797083 0.49173644 -0.90844554 100 136 129
0.10819169 0.49206471 -0.90850723 95 136 129
0.10861856 0.49343598 -0.90681273 85 135 128
0.10843623 0.49283075 -0.90762967 88 136 128
0.10792255 0.49074408 -0.90670472 114 138 130
0.10819358 0.49195319 -0.90810734 97 136 129
0.10876383 0.49403211 -0.90712541 76 135 128
0.10855425 0.493303 -0.90778178 82 135 128
0.10727652 0.56895393 -0.87973905 115 139 127
0.107119 0.56518543 -0.87939817 117 142 125
0.10820206 0.56503791 -0.88188338 123 141 126
0.10841554 0.56448382 -0.88229126 123 141 126
0.10810089 0.56498307 -0.88162553 122 142 126
0.10786401 0.5657568 -0.88120532 122 142 126
0.10795516 0.56502032 -0.88127768 122 142 126
0.10783931 0.5665195 -0.88119358 121 141 126
0.107671 0.56563032 -0.88065696 121 141 126
0.10752682 0.56592304 -0.88018918 119 142 126
0.1079082 0.56666541 -0.88141495 122 141 126
0.10718869 0.56385076 -0.8794601 119 142 125
0.10719251 0.5617854 -0.87932926 119 142 125
0.10822229 0.56137121 -0.88159955 123 142 127
0.10854565 0.56158543 -0.88242733 125 142 128
0.10847029 0.5626806 -0.88229579 124 142 127
0.10839489 0.56125879 -0.88202918 124 143 128
0.10744466 0.56442446 -0.87991488 121 142 125
0.10789831 0.56206632 -0.88082379 122 142 127
0.10755458 0.56137496 -0.87992764 120 142 126
0.10804578 0.5626722 -0.88123417 122 142 126
0.10744812 0.56095201 -0.87963265 120 142 126
0.10787729 0.5601241 -0.88061005 121 143 127
0.10780906 0.55979598 -0.88038015 121 142 127
0.10750102 0.55908287 -0.87947607 119 142 127
0.10754513 0.55754805 -0.8793084 117 141 128
0.10768441 0.55678058 -0.87951684 117 141 128
0.10883481 0.5587312 -0.88272095 124 144 128
0.1085391 0.55820906 -0.88189292 123 143 128
0.10849455 0.55723852 -0.88157928 121 144 128
0.10889884 0.55667299 -0.88244039 122 145 127
0.108574 0.55325812 -0.88132036 121 145 127
0.10850033 0.55341452 -0.88107574 120 145 127
0.10876991 0.55306953 -0.88195908 124 144 128
0.1089014 0.5533812 -0.88236475 125 144 128
0.1087939 0.55530638 -0.88191843 120 146 127
0.10790024 0.55518806 -0.87971407 116 143 128
0.10902039 0.55661148 -0.88272244 122 146 127
0.10835531 0.55594426 -0.88097256 119 144 127
0.10790311 0.5537926 -0.87943596 115 145 127
0.10793536 0.55581981 -0.87992829 117 143 128
0.10813673 0.55507249 -0.88026422 117 144 128
0.10845277 0.54964614 -0.88069946 123 142 129
0.1088102 0.54959172 -0.88190043 125 142 129
0.10903998 0.55002993 -0.88269532 127 142 129
0.10853695 0.55016649 -0.88100803 123 142 129
0.10879464 0.55028796 -0.88188159 125 142 129
0.10842828 0.5512169 -0.88073939 121 143 128
0.10826581 0.55263817 -0.88034987 118 145 127
0.10839736 0.55059671 -0.88058257 121 143 128
0.10832872 0.55024827 -0.88032985 121 143 128
0.10860984 0.54630101 -0.88198739 124 142 129
0.10894583 0.54721481 -0.88284075 126 141 129
0.10860562 0.54701859 -0.88173091 126 143 129
0.10806897 0.54539758 -0.88042247 124 144 129
0.10824431 0.54630262 -0.88072336 125 143 129
0.10825373 0.54734385 -0.88043886 123 142 129
0.10835224 0.54684544 -0.88092136 125 143 128
0.10842006 0.54816484 -0.88075054 123 142 128
0.10826232 0.54651052 -0.8807199 125 143 129
0.10786208 0.54650474 -0.87937397 122 144 128
0.10881521 0.54467076 -0.88319808 124 142 128
0.10858864 0.54385066 -0.88229251 124 142 129
0.10846645 0.54116231 -0.88225824 135 145 128
0.10801991 0.54141605 -0.88009524 127 144 129
0.1083978 0.54163939 -0.88183713 132 145 128
0.10808352 0.54423314 -0.88054955 124 144 128
0.10868165 0.54438436 -0.88263547 124 142 129
0.10847035 0.54461533 -0.88193303 123 142 129
0.10783777 0.54428279 -0.87970608 124 144 128
0.10814174 0.54412073 -0.88073719 124 144 128
0.10810133 0.5381794 -0.88109332 124 143 128
0.10853833 0.53840053 -0.8827455 127 143 128
0.10839985 0.53714603 -0.88222307 121 142 128
0.10823693 0.53753752 -0.8816067 121 143 128
0.10776389 0.53754383 -0.87981796 120 142 128
0.10820457 0.53763348 -0.88148427 122 143 129
0.10811976 0.54047263 -0.88078511 130 145 128
0.10801579 0.53975588 -0.88047385 127 144 128
0.10789437 0.54022741 -0.87978101 126 144 129
0.10791668 0.53859943 -0.88029635 124 143 128
0.10808685 0.54016501 -0.88070703 129 144 128
0.10829345 0.5349893 -0.88199121 117 144 128
0.10817807 0.53373808 -0.88185436 113 144 127
0.10835946 0.53497803 -0.88237619 116 143 127
0.10840578 0.53474188 -0.88274276 114 143 127
0.10805475 0.53330934 -0.88132471 113 145 127
0.10797314 0.53325099 -0.88087916 115 145 127
0.10794975 0.53672463 -0.88049549 119 142 128
0.10782538 0.53701061 -0.88004434 117 142 128
0.10767011 0.53497177 -0.8793211 119 145 128
0.10835738 0.53704292 -0.88205814 120 143 129
0.10776655 0.53679425 -0.87980747 117 142 128
0.10815126 0.53579521 -0.88119543 120 144 128
0.10787933 0.53309596 -0.88036352 115 146 127
0.10783808 0.5317896 -0.88018179 104 147 125
0.10778723 0.53169286 -0.87989289 104 147 125
0.10808576 0.53237343 -0.88158375 104 145 126
0.10783158 0.52568996 -0.88052016 116 143 126
0.10812318 0.52629423 -0.88211417 115 141 126
0.10813221 0.52597189 -0.88226676 116 142 127
0.1083499 0.52758145 -0.88310617 111 142 125
0.10803872 0.52600861 -0.88168597 116 142 126
0.10775818 0.5267505 -0.87991792 109 145 125
0.10784437 0.52672315 -0.88034844 112 144 125
0.10767653 0.5267964 -0.87950873 107 145 125
0.1073443 0.52223915 -0.8793565 103 144 124
0.10759202 0.5233885 -0.87983191 110 145 125
0.10799515 0.52253288 -0.88186198 112 144 127
0.10762727 0.52170181 -0.88052404 104 145 125
0.10783796 0.52375728 -0.880786 115 144 127
0.1076037 0.52251166 -0.88016278 107 145 125
0.10779584 0.52431399 -0.880445 116 144 126
0.10794352 0.52436006 -0.88134265 116 143 127
0.10815861 0.5238837 -0.8826763 116 142 128
0.10819038 0.52399033 -0.88286477 116 142 128
0.10765854 0.52518433 -0.87956625 117 144 125
0.10795705 0.523278 -0.88147742 114 144 127
0.10774247 0.51773363 -0.8808865 122 145 130
0.10799062 0.51783168 -0.88191241 123 145 129
0.10774735 0.51899964 -0.88101935 117 144 130
0.10800542 0.51986492 -0.88215441 116 144 129
0.10790106 0.51943672 -0.88168848 117 144 129
0.10756787 0.51879346 -0.88023829 116 144 129
0.10755742 0.51858419 -0.88018525 117 144 130
0.10759822 0.52011859 -0.880418 110 145 127
0.10802883 0.52075332 -0.88231754 113 144 128
0.10778785 0.5205245 -0.88125908 111 144 127
0.10757688 0.51756489 -0.88019037 121 144 131
0.10777099 0.51504248 -0.88030642 113 142 127
0.10749105 0.51638567 -0.87952411 117 143 130
0.10799904 0.51596832 -0.88149047 118 143 127
0.10753155 0.51623827 -0.87964994 116 143 129
0.10834756 0.51461661 -0.88290662 121 144 127
0.10817022 0.51568162 -0.88223773 120 143 127
0.10768876 0.51406401 -0.87970746 108 142 126
0.10791628 0.51418096 -0.8808006 112 142 126
0.108054 0.51554704 -0.88166755 118 143 127
0.10770572 0.5118416 -0.88019484 104 142 127
0.10816367 0.51041806 -0.88246834 104 141 126
0.1075708 0.51226449 -0.87952399 103 142 126
0.10769082 0.51220393 -0.88002956 104 142 126
0.10765588 0.51118165 -0.88018286 102 142 127
0.10807014 0.51194626 -0.88174719 108 142 126
0.10791198 0.51279795 -0.88085186 108 142 126
0.10822988 0.51330727 -0.88226467 115 143 126
0.10804699 0.5124324 -0.88155317 109 142 126
0.10821387 0.51209325 -0.88240045 111 142 126
0.10743333 0.5086394 -0.8795085 102 142 129
0.10791615 0.50895327 -0.88152146 104 141 127
0.10745161 0.50872219 -0.87959594 102 142 129
0.10802511 0.50888664 -0.8819496 105 141 127
0.10768052 0.50823313 -0.88044918 105 140 129
0.10817289 0.5091778 -0.88259506 105 140 126
0.10792967 0.50715345 -0.88145655 110 140 128
0.10788882 0.50730991 -0.88123173 109 140 128
0.10782988 0.5065552 -0.88097572 111 140 129
0.10807229 0.50660545 -0.88224143 113 140 128
0.10787898 0.50600994 -0.88127077 114 139 129
0.10791801 0.50302804 -0.88089538 115 139 130
0.1082583 0.50339127 -0.88304037 110 140 128
0.10809685 0.5039764 -0.88209599 115 139 129
0.10793263 0.50271541 -0.88095582 115 139 130
0.10798495 0.50293231 -0.88130116 115 139 130
0.10764032 0.50446844 -0.87970173 114 139 130
0.10763413 0.50303888 -0.87933022 115 138 131
0.10790878 0.50568765 -0.88139671 115 139 129
0.10788386 0.50560337 -0.88124621 115 139 129
0.10782775 0.50569904 -0.88097513 114 139 129
0.10792434 0.49928716 -0.88113731 119 141 129
0.1082956 0.49967578 -0.88297683 115 140 129
0.10829804 0.50153208 -0.88312781 106 141 128
0.10824522 0.50066173 -0.88280499 111 140 129
0.10806817 0.50161952 -0.88178104 110 140 129
0.10780939 0.50193721 -0.88012064 115 138 131
0.10785871 0.50059122 -0.88066363 116 140 129
0.10779475 0.4994742 -0.88046384 119 140 129
0.10770433 0.50040954 -0.87973839 120 139 130
0.11066032 0.5371511 -0.89129227 133 141 130
0.11160934 0.53821903 -0.89473999 130 144 129
0.11119337 0.53704065 -0.89354932 130 144 129
0.11067766 0.53706318 -0.89142251 133 140 131
0.11058856 0.53702921 -0.89103806 134 140 131
0.11061543 0.536129 -0.89125621 135 140 131
0.11076321 0.53011572 -0.89388382 134 143 129
0.11104725 0.52947468 -0.89476281 135 145 129
0.11063965 0.53017694 -0.89346021 134 143 129
0.11029792 0.53004622 -0.89223182 132 142 130
0.11030941 0.53075069 -0.89218569 133 141 130
0.1098531 0.52584922 -0.89179385 126 142 128
0.11038097 0.52697623 -0.89357501 130 143 128
0.11018428 0.52662915 -0.89281011 128 143 128
0.10996001 0.52569902 -0.89268053 126 142 128
0.1103163 0.52713639 -0.89294231 130 143 128
0.11070999 0.52822596 -0.89392459 132 144 129
0.11022004 0.52888083 -0.89195192 130 142 129
0.11025461 0.52710932 -0.89265352 130 143 128
0.11068583 0.52911997 -0.89351422 133 143 129
0.10997082 0.52663666 -0.89180869 128 142 128
0.11046484 0.5278073 -0.89316547 131 143 128
0.1103646 0.52193093 -0.89395213 124 145 127
0.11001464 0.52214175 -0.8926006 126 143 127
0.11040152 0.52198571 -0.89412713 124 145 127
0.11050461 0.52156413 -0.89437383 123 146 127
0.11021639 0.52426553 -0.89432585 126 142 128
0.10982121 0.52466625 -0.89214963 126 142 128
0.10971684 0.52406716 -0.89142269 126 142 127
0.10968751 0.52465761 -0.89130092 126 141 128
0.11006479 0.524638 -0.89369106 127 141 128
0.10969203 0.52434421 -0.89129549 126 142 128
0.11009298 0.5187425 -0.89313871 128 142 128
0.11015074 0.51903665 -0.89328223 127 143 127
0.10994693 0.51801115 -0.89270741 129 141 128
0.10997462 0.51823509 -0.89232409 130 141 128
0.10993873 0.51764357 -0.89446551 124 142 127
0.1104788 0.52141279 -0.89422512 123 146 127
0.10994073 0.52137506 -0.89200586 127 143 127
0.11043741 0.52108455 -0.89401466 124 145 127
0.11038581 0.52109641 -0.89380372 125 145 127
0.11000215 0.52016234 -0.89211041 128 143 127
0.10972661 0.51617241 -0.89403045 119 142 127
0.10966657 0.51427507 -0.89174134 123 141 129
0.10984168 0.51663339 -0.89411378 121 142 127
0.10983374 0.51670885 -0.89425343 121 141 127
0.10978933 0.51659834 -0.89431256 120 141 127
0.10980441 0.5163067 -0.89239198 127 140 128
0.10978547 0.51572633 -0.89256555 124 141 128
0.10991362 0.51737511 -0.89432383 124 141 128
0.10978625 0.51601344 -0.8922196 126 141 128
0.10973267 0.51493728 -0.89198178 124 141 128
0.10915614 0.50992489 -0.891159 118 139 128
0.109441 0.51338774 -0.89182103 119 140 128
0.10916034 0.51193309 -0.89230061 114 140 127
0.10887524 0.50768203 -0.89107347 107 139 127
0.10812705 0.50293905 -0.89442265 109 141 127
0.10811657 0.50271308 -0.89460623 110 141 127
0.10824296 0.50308722 -0.8940205 109 141 127
0.10838591 0.50225109 -0.8939817 114 141 128
0.10851184 0.50266302 -0.89324582 113 140 128
0.10874205 0.50306439 -0.89207572 112 140 129
0.10721561 0.49008617 -0.89486617 123 139 129
0.10730383 0.48696977 -0.89410496 116 138 129
0.10741089 0.4874731 -0.89323813 118 139 128
0.10728728 0.48729607 -0.89434999 117 138 129
0.10747339 0.48754644 -0.89253217 117 140 128
0.10753753 0.48679924 -0.8915506 113 141 128
0.10746654 0.48830938 -0.89282477 120 139 129
0.1077641 0.48950025 -0.89155602 123 138 129
0.10762676 0.48817801 -0.89165604 118 140 128
0.10764037 0.48776379 -0.8913635 116 140 128
0.10749417 0.48836762 -0.89251274 119 140 129
0.10731292 0.48581785 -0.89237547 113 140 128
0.10707795 0.48575914 -0.89441931 113 138 129
0.1074694 0.4862369 -0.89198345 113 140 128
0 0 0 1 0 0 0 1 0 0 0 1 0 0 0 0 0 947 1 0 0
