ply
format ascii 1.0
comment PCL generated
element vertex 718
property float x
property float y
property float z
property uchar red
property uchar green
property uchar blue
element camera 1
property float view_px
property float view_py
property float view_pz
property float x_axisx
property float x_axisy
property float x_axisz
property float y_axisx
property float y_axisy
property float y_axisz
property float z_axisx
property float z_axisy
property float z_axisz
property float focal
property float scalex
property float scaley
property float centerx
property float centery
property int viewportx
property int viewporty
property float k1
property float k2
end_header
0.14978366 0.070697255 -0.80797905 179 123 119
0.14989822 0.070540935 -0.80823797 177 123 120
0.14917511 0.068754651 -0.80694675 166 131 120
0.14930831 0.069226623 -0.80716693 170 129 120
0.14890254 0.068726443 -0.80638033 167 131 120
0.14876337 0.071077868 -0.80607188 181 122 118
0.14898869 0.070712134 -0.80646753 180 123 119
0.14949998 0.071249157 -0.80740654 183 121 119
0.14972244 0.071853429 -0.80782622 186 119 119
0.14872438 0.070759349 -0.80599189 179 123 118
0.14942139 0.071127251 -0.80726105 182 122 119
0.15031774 0.066407956 -0.80853808 187 132 126
0.14990936 0.065016687 -0.8073138 208 131 130
0.14912522 0.064514793 -0.8058244 214 130 131
0.15001674 0.067550518 -0.80848628 171 132 123
0.14929739 0.065752752 -0.80659455 197 131 128
0.14996682 0.065754913 -0.80769855 197 131 128
0.14897235 0.066998564 -0.80625927 182 131 125
0.14850177 0.067531087 -0.80539757 178 132 122
0.14846654 0.067576759 -0.80533445 176 132 122
0.14899851 0.065579072 -0.80598801 200 130 128
0.14855783 0.067692518 -0.80555195 175 132 121
0.15045311 0.06472718 -0.8081367 212 132 130
0.15023535 0.064375103 -0.80753994 216 131 131
0.14993957 0.062778763 -0.80521619 218 131 131
0.15002261 0.063327014 -0.80598366 217 131 131
0.15080433 0.064397447 -0.80876362 218 132 131
0.15104048 0.064020261 -0.808523 219 132 131
0.15227655 0.061064798 -0.80545932 224 133 131
0.15171339 0.061384257 -0.80539733 222 132 131
0.15135756 0.061487097 -0.80521762 221 132 131
0.1519151 0.062429555 -0.80762792 219 133 130
0.15150048 0.063412189 -0.80881792 217 133 130
0.15291175 0.061065804 -0.80842453 213 133 129
0.1524751 0.061239298 -0.80652219 221 132 131
0.1515568 0.063159719 -0.80822045 219 133 130
0.15188023 0.062520251 -0.80775744 219 133 131
0.15271971 0.061064627 -0.80730397 218 133 130
0.15418755 0.059971068 -0.80745983 213 134 129
0.15343928 0.06031362 -0.80603236 222 133 130
0.15401611 0.060070522 -0.80567914 223 133 130
0.1552736 0.059373528 -0.80839336 211 133 128
0.15794972 0.057972029 -0.80762619 225 132 130
0.15529582 0.059352081 -0.80872607 209 134 128
0.15814905 0.057827532 -0.80895543 219 134 130
0.15672961 0.058592711 -0.80860847 215 133 129
0.15645218 0.058770798 -0.80755448 219 133 129
0.1560511 0.05899645 -0.80699462 221 132 129
0.15455873 0.059764121 -0.80711114 215 133 129
0.15441361 0.059841726 -0.80688268 216 134 129
0.15540618 0.059328161 -0.80704838 218 133 129
0.159162 0.057469092 -0.80879748 226 132 130
0.15481655 0.073208526 -0.81968337 168 126 118
0.15411134 0.070038177 -0.81728256 173 128 122
0.15426908 0.0693876 -0.81747061 192 128 125
0.15393065 0.069196612 -0.81683075 192 129 125
0.15511295 0.070130713 -0.82040924 192 127 125
0.15481164 0.068604879 -0.81891268 203 130 128
0.15489486 0.07168255 -0.82036406 190 123 122
0.15486792 0.069827877 -0.8195588 198 127 126
0.15485415 0.070245035 -0.81968069 196 126 125
0.15433072 0.070522673 -0.81794244 172 126 122
0.15456027 0.070013739 -0.81870717 201 127 125
0.15444334 0.069278635 -0.81807286 206 128 127
0.15425444 0.065055005 -0.81725138 209 133 130
0.15405944 0.066311479 -0.81688625 211 132 129
0.15524442 0.066355273 -0.81994963 198 133 129
0.1553966 0.06806092 -0.82054853 195 132 129
0.15520804 0.066740334 -0.81990665 198 133 129
0.15513383 0.067163087 -0.8197732 198 132 129
0.15516706 0.067255624 -0.81986862 198 132 129
0.15505463 0.067748778 -0.8195495 200 131 129
0.15501666 0.068166703 -0.81943136 201 131 129
0.15435706 0.064823329 -0.81749833 208 133 130
0.1547831 0.067155726 -0.81874496 203 132 129
0.15475504 0.066810809 -0.81866503 204 132 129
0.15542585 0.064060576 -0.81962013 200 134 128
0.15486988 0.063858941 -0.81799972 204 134 129
0.15527204 0.063965529 -0.81911433 201 134 128
0.15494187 0.063252158 -0.81728238 203 134 128
0.15531549 0.063397907 -0.81838638 199 134 127
0.15557119 0.063099451 -0.81855857 196 134 127
0.15618989 0.062525623 -0.81937283 189 135 125
0.15603024 0.062634096 -0.81900841 191 135 125
0.1563541 0.06162947 -0.81844038 185 135 123
0.15599979 0.063008651 -0.81952858 192 135 125
0.15632664 0.061341513 -0.81786686 185 135 123
0.15614097 0.062589996 -0.81931299 189 135 124
0.15794298 0.059840184 -0.81877083 167 138 118
0.15754586 0.06047193 -0.82036227 168 137 117
0.15731899 0.060084794 -0.81781542 174 137 120
0.15719663 0.060492206 -0.81926274 173 137 118
0.16016661 0.057811175 -0.81716126 196 134 122
0.15977013 0.058166288 -0.81739199 190 135 122
0.1588722 0.058817457 -0.81731218 177 136 121
0.15868439 0.058901168 -0.81705487 175 137 120
0.15972736 0.058850285 -0.82014364 183 135 121
0.15914859 0.059367485 -0.8204276 174 136 119
0.15920496 0.059314046 -0.82038754 175 136 119
0.1598264 0.058547635 -0.81922644 186 135 122
0.15883975 0.059410866 -0.81963563 172 137 118
0.16021039 0.058238372 -0.81917548 191 134 123
0.15880965 0.059469838 -0.81978053 171 137 118
0.16492069 0.055006936 -0.81789756 223 132 128
0.16589767 0.054722261 -0.81943238 223 132 129
0.16440073 0.055159267 -0.81748307 223 132 128
0.16619344 0.054627839 -0.82018602 222 132 129
0.15760696 0.082732037 -0.84021568 79 130 124
0.15869588 0.080396809 -0.8395797 85 133 120
0.15894583 0.079461001 -0.84008497 93 132 124
0.15928327 0.076286972 -0.83890074 116 125 126
0.15895955 0.076790027 -0.83729643 156 126 126
0.15941206 0.076224253 -0.83968723 95 124 125
0.15901259 0.078428045 -0.83941406 108 130 124
0.15882701 0.079803117 -0.83903515 90 133 119
0.15933716 0.073124096 -0.83722514 146 124 126
0.15959385 0.073244199 -0.83962655 125 129 127
0.15958931 0.072918825 -0.83942538 131 129 128
0.15946402 0.073395528 -0.83851594 132 126 127
0.15945479 0.074963443 -0.83920097 106 124 126
0.15928075 0.075029135 -0.83804029 132 125 126
0.15929042 0.074575029 -0.83781838 136 125 126
0.15913644 0.074820578 -0.83695191 158 125 126
0.1592177 0.074983664 -0.83759356 143 125 126
0.15903127 0.075257912 -0.83652997 169 125 126
0.15895168 0.076022163 -0.83648354 173 126 126
0.15974781 0.071801335 -0.83999377 139 132 128
0.15980236 0.070353456 -0.83896327 156 129 127
0.16024721 0.06894026 -0.84000504 166 127 125
0.16008396 0.068640925 -0.83887947 172 128 125
0.1599527 0.069248512 -0.83874524 167 128 126
0.15963341 0.071008757 -0.83845043 154 130 128
0.15944912 0.071740836 -0.83738416 158 127 127
0.15946855 0.072223216 -0.8379671 151 128 127
0.15958171 0.070328586 -0.83740669 165 129 127
0.15954427 0.072097309 -0.83855236 147 129 128
0.16026254 0.066113301 -0.83955199 173 129 127
0.16031013 0.067314789 -0.839261 175 127 126
0.16018336 0.065680541 -0.83777803 181 130 128
0.16030832 0.067041166 -0.83959991 173 127 126
0.1602086 0.0653385 -0.83903575 175 130 128
0.16019316 0.065238215 -0.83871311 177 130 128
0.1602184 0.066412047 -0.83820033 180 128 127
0.16024491 0.067152709 -0.83876723 177 127 126
0.16017516 0.066443339 -0.83799231 180 129 127
0.15983683 0.068008989 -0.83712864 181 128 126
0.15981378 0.068354949 -0.83720815 180 128 126
0.16068357 0.063525058 -0.84023315 161 134 125
0.16175164 0.060604885 -0.83744287 134 142 117
0.16112316 0.062307023 -0.83897376 149 137 122
0.16182938 0.060810558 -0.83845258 135 142 117
0.16144586 0.06138226 -0.83804131 141 140 119
0.1614271 0.061198771 -0.837412 140 140 118
0.16060269 0.063308157 -0.83895099 160 134 125
0.16058382 0.063197382 -0.83709359 167 134 125
0.16049197 0.063384198 -0.83648169 172 134 126
0.16125424 0.061423637 -0.83679545 144 139 119
0.16145822 0.060853366 -0.83634955 138 140 117
0.16043337 0.063732445 -0.83875108 167 133 126
0.16195494 0.060165592 -0.83665913 133 142 117
0.16215295 0.060381871 -0.8388387 132 143 116
0.16246469 0.060019448 -0.83850437 134 142 117
0.16415 0.058671366 -0.83889401 145 136 121
0.16288409 0.059850957 -0.83948231 136 141 118
0.1631206 0.059715305 -0.83981931 138 140 118
0.16214633 0.060068622 -0.83734679 132 143 116
0.16250423 0.060066875 -0.83893061 134 142 117
0.16270269 0.059717666 -0.83797169 136 140 118
0.16267595 0.059553519 -0.83672082 137 141 118
0.16552544 0.057973232 -0.8367337 170 136 124
0.16410515 0.058683202 -0.83750349 149 137 121
0.16367742 0.05890958 -0.83760971 144 138 120
0.16565526 0.057818901 -0.83755678 167 135 124
0.16563761 0.057878889 -0.83705509 169 135 124
0.1661253 0.057579774 -0.83777803 170 134 125
0.16662577 0.057597224 -0.83682299 177 134 126
0.1670631 0.057546999 -0.83664244 179 133 126
0.16735128 0.057501722 -0.83664519 180 133 127
0.15886351 0.076279975 -0.84450072 102 118 124
0.15854485 0.076317742 -0.84702265 109 119 124
0.1584143 0.07747598 -0.84540737 97 123 124
0.1582703 0.077705249 -0.84587711 97 125 124
0.15924996 0.074405871 -0.84698862 112 126 124
0.16008873 0.072568171 -0.84543782 112 133 124
0.15927394 0.07432729 -0.84722209 112 126 123
0.15971312 0.073280454 -0.84731197 112 129 123
0.16002582 0.072670206 -0.84593582 112 132 124
0.16006738 0.072508879 -0.84660792 112 133 123
0.15915261 0.075115547 -0.84532928 107 122 124
0.15950477 0.074322164 -0.84465778 107 125 124
0.1587739 0.075955465 -0.84608853 107 119 124
0.15915629 0.075373016 -0.84458131 104 121 124
0.15869293 0.075757936 -0.84730244 111 120 124
0.15989092 0.07334166 -0.84422958 109 129 125
0.16055819 0.070220061 -0.84719127 131 128 123
0.1602806 0.071611814 -0.84801626 117 131 123
0.16055492 0.070083216 -0.846816 134 128 124
0.16086039 0.069100089 -0.84728563 139 124 124
0.16087866 0.06884294 -0.84681553 143 124 124
0.16067386 0.070022717 -0.8478083 130 127 123
0.16024281 0.072198264 -0.84497595 113 134 125
0.16049273 0.069947436 -0.84534168 140 128 124
0.16043197 0.070258521 -0.84595209 137 128 123
0.16053139 0.069945425 -0.84437352 141 128 124
0.16029455 0.07160341 -0.84543371 120 132 124
0.15995732 0.064588971 -0.84458053 136 131 123
0.160484 0.066474795 -0.84732664 130 126 124
0.16006 0.065235868 -0.84680772 121 130 124
0.16040878 0.066351488 -0.84781927 123 126 124
0.16047417 0.066270925 -0.84625345 137 127 124
0.16004066 0.065007538 -0.8457433 129 130 123
0.16020146 0.065507911 -0.84465373 142 129 123
0.16059156 0.067090102 -0.84531629 147 126 124
0.16042824 0.066225275 -0.84543437 142 128 123
0.16073765 0.067632243 -0.84566301 149 125 124
0.16066134 0.067107037 -0.84595472 145 125 124
0.16079377 0.067495868 -0.84646922 144 124 124
0.15825361 0.060804859 -0.84543878 111 132 118
0.15925767 0.061644629 -0.84620142 105 133 120
0.15873827 0.062322292 -0.84674776 91 132 121
0.16158748 0.060982663 -0.84576243 131 137 120
0.15823203 0.063353278 -0.84759367 71 131 122
0.15978526 0.062323894 -0.84680349 99 134 121
0.16044092 0.062926352 -0.84526616 128 134 122
0.1606158 0.062765785 -0.84516317 131 134 122
0.15927455 0.06355536 -0.84654617 97 132 122
0.16097338 0.062186841 -0.84528875 132 135 121
0.16107057 0.061838895 -0.84557861 129 136 120
0.16188526 0.060741842 -0.84556705 137 138 120
0.15986885 0.063901477 -0.84499961 126 132 122
0.15916631 0.064209275 -0.84611535 104 131 123
0.15951094 0.064363785 -0.84720486 103 131 123
0.16052064 0.063499212 -0.84430492 139 134 121
0.16135186 0.061911091 -0.84496748 140 136 121
0.1619013 0.059145387 -0.84581727 139 136 122
0.16148129 0.059567694 -0.84588969 154 137 122
0.15986681 0.060311291 -0.84546322 133 135 119
0.15883283 0.060309269 -0.84541076 126 133 119
0.16044486 0.059988286 -0.84571075 147 135 121
0.1614297 0.059893481 -0.84582573 156 137 121
0.16247149 0.058312017 -0.84572119 134 134 123
0.16292624 0.05846034 -0.84543723 144 135 122
0.16332629 0.059425924 -0.84440202 153 137 119
0.16262805 0.060186904 -0.84422642 142 139 118
0.16667089 0.055957094 -0.84571552 133 133 123
0.14655478 0.06434457 -0.79956311 218 131 128
0.14808349 0.063093074 -0.80033141 219 131 128
0.14716618 0.064147361 -0.80065548 212 131 128
0.14810185 0.063230015 -0.80069143 217 131 128
0.15295808 0.070603825 -0.81522262 152 125 119
0.15274163 0.070019968 -0.81471545 167 125 121
0.15260369 0.069155715 -0.81431133 189 126 124
0.15383166 0.069433875 -0.81668997 185 129 124
0.15343051 0.069098756 -0.81587279 193 128 125
0.15380183 0.068573251 -0.81649184 207 129 128
0.15226476 0.069722183 -0.81367886 173 126 121
0.15223189 0.06991896 -0.81361121 168 127 121
0.15233856 0.069347672 -0.81383252 183 125 123
0.15201381 0.068774678 -0.81309849 197 125 125
0.15372445 0.06574396 -0.8160761 211 132 130
0.15345149 0.064498559 -0.81537455 211 133 130
0.15355057 0.066079319 -0.81567729 212 132 129
0.15367973 0.064611711 -0.81592166 210 133 130
0.15394047 0.067312941 -0.81665617 212 131 129
0.15249033 0.067567743 -0.81377953 209 128 127
0.15288314 0.06593667 -0.81414342 213 132 129
0.1530509 0.066127412 -0.81450683 213 132 129
0.15338401 0.067636453 -0.81549352 212 129 128
0.1527687 0.066222362 -0.81399298 212 131 129
0.15325032 0.067382701 -0.81517994 212 130 129
0.15417589 0.062883012 -0.81508017 211 132 130
0.15290943 0.063997127 -0.81349933 213 133 130
0.15359141 0.063802503 -0.81486976 211 133 130
0.15357541 0.063001662 -0.81380337 212 133 129
0.15315665 0.063770123 -0.81379521 212 133 129
0.15370113 0.063439757 -0.81466466 211 133 130
0.15413725 0.061769675 -0.81355631 213 132 129
0.15504715 0.060744777 -0.81420434 203 133 126
0.15465581 0.06166064 -0.81456071 207 133 128
0.1560654 0.06082622 -0.81645131 188 135 123
0.15452282 0.061307088 -0.81382215 209 133 128
0.15468557 0.062493019 -0.8157022 206 133 128
0.15467153 0.060989864 -0.81372458 208 133 127
0.15442324 0.062571339 -0.81525058 210 133 129
0.15765548 0.059173014 -0.81566161 179 138 122
0.15722074 0.05985909 -0.81659883 177 137 121
0.15817037 0.057765007 -0.81300926 188 138 125
0.1564388 0.059157677 -0.81313682 198 135 126
0.15565497 0.060545094 -0.81523108 194 134 124
0.15539044 0.060430281 -0.81436867 199 134 125
0.15648788 0.05966042 -0.8145926 192 135 124
0.15560707 0.059992399 -0.81364334 201 134 126
0.15808164 0.05781699 -0.81296545 189 138 125
0.15658933 0.059750304 -0.81504673 189 135 124
0.16120835 0.056676835 -0.81459445 218 133 127
0.159729 0.057192218 -0.81404537 203 136 125
0.16025878 0.056959689 -0.81326491 210 136 127
0.16068357 0.056823749 -0.81366807 214 135 128
0.15827963 0.058804583 -0.81591469 174 138 121
0.15914398 0.058322717 -0.81635457 185 137 121
0.15852995 0.058597028 -0.81586593 179 137 122
0.1593795 0.05763898 -0.81504351 195 136 123
0.15969698 0.05791923 -0.81638944 193 135 122
0.1613684 0.056539547 -0.81368679 220 134 129
0.1614207 0.056477722 -0.81324083 221 135 129
0.16371042 0.055337362 -0.81574965 226 131 127
0.16491973 0.054950688 -0.81441504 233 130 128
0.16542509 0.054806061 -0.81460184 233 131 129
0.16492508 0.05496883 -0.81528068 230 131 129
0.16582152 0.054707401 -0.81539732 232 131 130
0.16245581 0.055938732 -0.81292337 227 133 130
0.16334794 0.055578373 -0.8132934 229 132 130
0.16226424 0.055978909 -0.81345195 225 133 129
0.16340065 0.055435102 -0.81530893 226 131 126
0.15794687 0.073453546 -0.8309437 161 130 123
0.15815237 0.073160484 -0.83169281 176 128 125
0.15764748 0.073351465 -0.83008236 163 131 124
0.15784207 0.072457477 -0.83076674 179 132 126
0.15834028 0.072956271 -0.83231992 179 129 125
0.15770704 0.070519306 -0.82972157 183 131 126
0.15782148 0.071568727 -0.83046085 182 132 126
0.1580009 0.070059709 -0.83036709 181 131 125
0.15800577 0.0697648 -0.83026367 181 131 124
0.15721098 0.071763061 -0.82881778 186 132 127
0.1574505 0.070660636 -0.82902861 184 131 126
0.15751213 0.0703215 -0.82905108 183 131 125
0.15742324 0.070008084 -0.82860053 182 130 125
0.15845132 0.068958141 -0.83147854 180 131 124
0.15829983 0.068840228 -0.83082289 180 130 124
0.15850861 0.069640182 -0.83195072 180 131 125
0.15830174 0.070808731 -0.83154404 179 131 126
0.15799716 0.068115309 -0.82941103 181 129 123
0.15820719 0.067025177 -0.82926643 188 130 124
0.1582644 0.067701057 -0.83001095 184 130 124
0.15862392 0.067302085 -0.83114463 187 131 125
0.15832581 0.065937549 -0.82889825 195 130 125
0.15867668 0.067140527 -0.83122236 188 130 126
0.15879869 0.065499797 -0.83042669 195 131 126
0.15889052 0.065676123 -0.83093828 193 130 127
0.15891978 0.065034777 -0.8305524 196 131 127
0.1586159 0.065412402 -0.82961571 199 130 127
0.15913668 0.065066345 -0.83145791 193 131 127
0.159951 0.060868394 -0.82991296 186 133 126
0.15986833 0.060652059 -0.82939011 191 132 127
0.16041522 0.061167147 -0.83181375 159 135 122
0.15994869 0.062620938 -0.83188587 177 132 125
0.16046794 0.061118633 -0.83193648 156 135 122
0.16058002 0.061006594 -0.83218724 150 135 121
0.15943705 0.06426663 -0.83197922 193 131 127
0.15954709 0.062312189 -0.83016479 198 132 128
0.15900151 0.063316807 -0.82911187 203 131 128
0.15956761 0.062183067 -0.83009875 199 131 128
0.15883541 0.063638344 -0.8288095 204 131 127
0.15950042 0.062737651 -0.83046752 198 131 128
0.1619648 0.059384342 -0.83096474 175 135 126
0.16107433 0.060313135 -0.83232236 145 136 121
0.16033038 0.060524903 -0.83071649 168 134 123
0.16119409 0.05953797 -0.82867801 206 132 129
0.1598324 0.060515698 -0.82899356 196 133 127
0.16012312 0.060282201 -0.82880211 201 132 128
0.16572817 0.057699323 -0.83202338 187 133 126
0.16572388 0.057426784 -0.82962376 193 134 125
0.16552229 0.057582233 -0.83013183 190 134 125
0.16509521 0.057755966 -0.82984841 187 135 125
0.16577931 0.057662021 -0.83191317 188 133 126
0.16449004 0.058315784 -0.83218753 176 135 125
0.16280651 0.058919825 -0.83071291 178 135 126
0.16497476 0.05776703 -0.82946777 188 135 125
0.1635012 0.058401208 -0.82934386 195 134 127
0.16431521 0.058154039 -0.83008277 181 135 125
0.1627562 0.058763634 -0.82955295 195 134 128
0.16431883 0.058087144 -0.82965845 188 134 126
0.16667815 0.057034694 -0.82904202 196 133 126
0.16618 0.057370003 -0.83073318 194 133 127
0.16676387 0.057147946 -0.83012199 198 133 126
0.16649964 0.057269067 -0.83057886 195 133 126
0.14795326 0.069384731 -0.80456364 177 128 119
0.14806615 0.070297271 -0.80479264 179 125 118
0.148194 0.06901335 -0.80498308 171 130 119
0.14809112 0.070144385 -0.80483276 178 125 118
0.14758188 0.066497475 -0.80300981 188 132 123
0.14723158 0.066374399 -0.80232924 193 131 124
0.14776094 0.067297809 -0.80370039 180 132 121
0.14807205 0.065474667 -0.80385381 200 131 127
0.14843939 0.065382622 -0.80472368 203 130 128
0.14770399 0.065972589 -0.80309069 193 132 125
0.14825399 0.065705597 -0.8043586 198 131 126
0.1481842 0.067908257 -0.80477774 173 132 120
0.14991225 0.062289778 -0.80321836 221 132 130
0.14954461 0.06281855 -0.80322802 220 131 130
0.14975914 0.062407356 -0.80275452 221 131 130
0.15029426 0.061617479 -0.80264831 222 132 130
0.14852589 0.064124472 -0.80388325 215 130 130
0.14750694 0.06418018 -0.80153799 209 132 128
0.1497135 0.062222708 -0.8021301 221 131 130
0.14914757 0.062851325 -0.8022874 218 131 130
0.14896376 0.063820392 -0.80420685 217 130 131
0.14819562 0.064408705 -0.80377322 213 130 130
0.15069464 0.061575729 -0.80398196 222 132 130
0.15199052 0.060751121 -0.80403203 225 132 131
0.15128565 0.061423291 -0.80502409 221 132 131
0.15126595 0.061105728 -0.80351883 224 132 130
0.15591504 0.0726818 -0.82458037 202 126 129
0.15592319 0.073255025 -0.82458937 183 126 126
0.15583515 0.069324754 -0.82264674 196 129 128
0.1562393 0.069056861 -0.8239339 190 128 127
0.15597287 0.069235265 -0.82308638 194 129 128
0.15606961 0.07081978 -0.82432896 204 126 129
0.15609397 0.069303557 -0.8235563 193 128 128
0.15512155 0.072064392 -0.82134944 192 123 123
0.15542042 0.069239259 -0.82106966 195 130 128
0.15554322 0.071538009 -0.82274717 203 125 128
0.15536274 0.070327163 -0.82140481 196 127 127
0.15506777 0.071403898 -0.82079422 189 124 123
0.15567416 0.071781181 -0.8233918 207 125 129
0.15619776 0.066871628 -0.82312429 188 130 126
0.156563 0.066265494 -0.82411164 190 130 127
0.15651636 0.067185514 -0.82421494 186 129 126
0.15630352 0.064982451 -0.82294375 195 132 128
0.15634754 0.067401014 -0.82374096 185 129 126
0.15654787 0.066016011 -0.82399607 190 130 127
0.15553473 0.067448325 -0.82086694 195 132 129
0.15585399 0.067643978 -0.82203865 190 131 127
0.15607607 0.067619346 -0.82282501 188 130 126
0.15560789 0.067931458 -0.82121378 193 132 128
0.15601812 0.067369238 -0.82257402 189 130 127
0.15816034 0.060979936 -0.82334721 161 137 116
0.15817966 0.060852759 -0.82315725 160 137 115
0.15712638 0.063614123 -0.82407242 188 133 126
0.15779139 0.060599133 -0.82148385 164 137 115
0.15796663 0.061229385 -0.82292181 164 136 116
0.15639775 0.064217441 -0.8227343 195 133 128
0.15677857 0.062504955 -0.82129931 182 135 122
0.1569525 0.062376626 -0.82165051 181 135 122
0.15682121 0.064321861 -0.82423103 195 132 128
0.15725099 0.061772875 -0.82166272 176 135 120
0.15684599 0.062524319 -0.82154185 182 135 123
0.15861571 0.060554545 -0.82431328 163 136 116
0.15815178 0.060330559 -0.82136792 160 138 115
0.15833941 0.060141474 -0.82108027 163 137 116
0.15989876 0.059484217 -0.82333773 185 135 121
0.1600268 0.059249263 -0.82253605 187 134 122
0.16087037 0.05885011 -0.82351953 200 133 125
0.159678 0.059826314 -0.82437629 181 134 120
0.15829317 0.06023515 -0.82141793 161 138 115
0.16047476 0.058575172 -0.82131422 192 133 123
0.16125944 0.058016971 -0.82149297 203 132 125
0.15968019 0.059259612 -0.8215763 182 135 121
0.16081005 0.058751363 -0.82293183 199 133 125
0.16055037 0.058927204 -0.82283968 195 133 124
0.16005152 0.059136953 -0.82218671 188 135 122
0.15878481 0.072671577 -0.8342973 172 129 127
0.15897258 0.073630534 -0.8355239 171 127 126
0.15888044 0.07568641 -0.83597755 177 126 126
0.15906951 0.074012361 -0.83610976 170 126 126
0.15878063 0.074734263 -0.83514071 177 127 127
0.15882228 0.076051012 -0.83575499 178 125 125
0.15862969 0.074429169 -0.83426487 178 128 126
0.15839778 0.073140033 -0.83260971 179 129 125
0.15884945 0.076099977 -0.83592743 178 125 125
0.15929185 0.0716113 -0.83609825 166 126 126
0.15914898 0.069793366 -0.83476454 174 128 126
0.15925081 0.070081756 -0.8353163 173 127 125
0.15905088 0.068446115 -0.83380955 180 130 125
0.15930025 0.071548969 -0.8361097 167 125 127
0.15876694 0.070065446 -0.8332094 176 130 126
0.15893102 0.070451863 -0.83407861 173 128 126
0.15881343 0.071153514 -0.83382916 173 129 126
0.15895841 0.070973635 -0.83439821 171 128 126
0.15876943 0.069809027 -0.83312249 177 130 125
0.15966655 0.064947017 -0.83394825 189 130 128
0.15966214 0.065776184 -0.83453214 188 130 128
0.15965478 0.065860808 -0.83454543 188 130 128
0.15971954 0.066368818 -0.83535439 186 130 127
0.15966749 0.066479661 -0.83508819 187 129 127
0.15952063 0.065378539 -0.8333115 190 130 127
0.159476 0.067353517 -0.83476448 185 129 126
0.15924677 0.066451885 -0.83302861 186 130 126
0.15952085 0.06571117 -0.83358949 189 130 127
0.15941747 0.064933769 -0.83249778 190 131 127
0.15914804 0.068041064 -0.83392775 182 130 125
0.16101629 0.06087571 -0.83413619 142 137 119
0.16078813 0.060738128 -0.83271295 143 136 120
0.16080353 0.060833905 -0.832977 144 136 120
0.1605403 0.063138753 -0.83612168 170 134 126
0.16045704 0.062936544 -0.835307 169 133 126
0.16094102 0.060976353 -0.83395034 144 137 120
0.16009499 0.063220955 -0.8336826 174 132 126
0.16015145 0.063268438 -0.83416677 174 133 126
0.16023175 0.06252028 -0.83302432 166 134 124
0.16000485 0.064395875 -0.83571726 187 132 129
0.16012149 0.063612297 -0.83473825 178 132 127
0.16210897 0.059522454 -0.83270824 153 138 123
0.16123882 0.060331777 -0.83327609 142 138 119
0.16131067 0.060184378 -0.83271646 144 137 120
0.16491282 0.058296222 -0.83468843 170 136 123
0.16466345 0.058463275 -0.83551759 164 137 123
0.16545661 0.058036678 -0.83588868 172 136 124
0.16427261 0.058656275 -0.83484042 162 137 122
0.16455843 0.05854442 -0.83617669 161 138 123
0.16441299 0.058555141 -0.83416992 166 136 123
0.16430533 0.058533903 -0.8333832 169 136 124
0.16438638 0.058511868 -0.83354396 169 136 124
0.16267051 0.059388343 -0.83399755 151 139 121
0.1627288 0.059242055 -0.8328855 157 137 124
0.16219005 0.059650917 -0.83428597 145 139 121
0.16223723 0.059510086 -0.83317488 151 139 122
0.16736978 0.057332914 -0.83299404 193 132 128
0.16638042 0.057577442 -0.83323634 187 133 127
0.15879458 0.074117169 -0.85039121 80 127 124
0.15852731 0.075089119 -0.84950513 93 123 124
0.15861984 0.074893281 -0.8496123 91 124 123
0.15899526 0.07475581 -0.84839612 107 125 123
0.15870667 0.075275585 -0.84876704 103 123 123
0.15906546 0.073706895 -0.85041076 82 128 124
0.15897542 0.074232042 -0.84969831 91 126 123
0.15916541 0.073346183 -0.8506946 78 129 124
0.15887217 0.07477349 -0.84901983 99 124 123
0.15906855 0.070306398 -0.85048711 69 128 125
0.15936346 0.068459965 -0.84904331 82 125 125
0.15953681 0.06845063 -0.84894609 87 125 124
0.1582326 0.070843279 -0.85129946 36 132 124
0.15866165 0.068636045 -0.8495335 56 126 125
0.15972497 0.070384569 -0.85025352 88 128 124
0.15938298 0.072053201 -0.85177666 63 132 124
0.15977888 0.071196511 -0.85091531 82 129 124
0.15965076 0.072074898 -0.85081011 78 132 123
0.16007045 0.071633019 -0.84916806 102 131 123
0.16005279 0.070877865 -0.85032701 93 129 124
0.16105697 0.068608508 -0.84810585 139 122 124
0.16032745 0.070995115 -0.84868008 114 129 123
0.16029595 0.070768058 -0.84916979 109 129 123
0.15868673 0.066363908 -0.84903336 64 130 124
0.15838963 0.064926937 -0.84918571 68 131 123
0.15888974 0.065548316 -0.84880543 76 130 124
0.16020596 0.066791549 -0.84823054 114 126 124
0.16025667 0.066828497 -0.84821111 115 126 124
0.15836085 0.068173923 -0.84946179 44 128 125
0.15974848 0.068188839 -0.84873867 96 124 125
0.15956907 0.064405337 -0.84804803 98 131 124
0.15032904 0.071326278 -0.80903327 183 121 120
0.15055937 0.068517059 -0.80983806 164 132 122
0.15041135 0.071552709 -0.80917847 182 120 120
0.1502637 0.067935131 -0.80905527 165 132 122
0.15143387 0.067994222 -0.8116414 196 127 125
0.1517552 0.068168119 -0.81243342 204 126 126
0.15083313 0.067128137 -0.80994743 188 131 125
0.15073238 0.066705704 -0.80955428 190 131 126
0.15077519 0.065179333 -0.80904967 208 132 129
0.15132929 0.065439172 -0.8104561 215 131 129
0.15149401 0.066195413 -0.81111324 213 129 129
0.15192828 0.065715447 -0.81206846 213 130 129
0.15197793 0.065015711 -0.811975 214 132 129
0.15200627 0.065341845 -0.8121497 213 131 129
0.15191828 0.066943139 -0.81242889 209 128 128
0.15419395 0.061078712 -0.81270874 213 133 128
0.15423624 0.06092529 -0.81250715 213 132 128
0.15261044 0.063829951 -0.81242967 213 133 130
0.15345193 0.060761847 -0.80968952 210 134 128
0.15352264 0.061142005 -0.8105402 211 133 128
0.15337823 0.061384294 -0.81052881 211 134 128
0.15360275 0.060891677 -0.81035 211 133 128
0.15179242 0.064021535 -0.810633 216 133 130
0.15293463 0.062081113 -0.81042707 212 134 129
0.15260002 0.062700547 -0.81056923 213 134 129
0.1514972 0.063833438 -0.80957913 217 132 130
0.15169652 0.063499257 -0.80955034 216 133 130
0.15231434 0.062607057 -0.80969155 213 133 129
0.15373743 0.06040607 -0.80956924 209 134 128
0.15561064 0.059507992 -0.81196767 202 135 127
0.15623932 0.058934871 -0.81158191 198 136 127
0.15631035 0.059026174 -0.81225127 199 135 127
0.15534231 0.059565879 -0.81127924 203 134 127
0.15765832 0.058063373 -0.81263959 191 137 126
0.15452194 0.06033209 -0.81186634 208 133 127
0.15575334 0.059462257 -0.81226552 202 135 127
0.15531476 0.05931117 -0.80987078 201 135 127
0.15783231 0.057993881 -0.80903435 217 134 129
0.15703337 0.058387212 -0.81023699 205 135 128
0.15566215 0.059140749 -0.80932498 207 134 128
0.15731144 0.058260981 -0.80941391 213 134 128
0.15705884 0.058386687 -0.80974299 209 135 128
0.15965331 0.057275441 -0.80941272 227 132 130
0.161108 0.056673143 -0.81181562 225 134 130
0.1605092 0.056922633 -0.81078702 226 133 130
0.15966974 0.057199288 -0.8112976 217 135 129
0.15870562 0.057519089 -0.81257409 197 137 127
0.15895274 0.05748928 -0.81026822 218 134 129
0.16046946 0.056883756 -0.81214553 219 135 129
0.16155434 0.056416459 -0.81114906 230 132 131
0.16215423 0.056068692 -0.81226337 229 133 131
0.1564597 0.073058479 -0.82635713 187 127 127
0.15647539 0.07260184 -0.82649857 195 128 128
0.1562067 0.072866596 -0.82550693 197 126 129
0.15678366 0.072412103 -0.82761461 191 130 128
0.1565764 0.068411715 -0.82476515 181 128 125
0.15725745 0.070272207 -0.82817835 183 131 125
0.15756448 0.068823539 -0.82843381 179 130 123
0.15688285 0.070876829 -0.8272143 185 131 126
0.15734413 0.069798909 -0.82821447 181 130 124
0.1562776 0.071797825 -0.82560784 204 128 129
0.1567253 0.070741177 -0.8265872 188 130 127
0.15634184 0.071190879 -0.82549435 200 127 129
0.15676285 0.070669115 -0.82667863 186 130 126
0.15640631 0.070793293 -0.82549852 196 128 128
0.1579468 0.067065097 -0.82846522 187 130 123
0.1577197 0.064678378 -0.82660413 200 131 127
0.15800875 0.065296367 -0.82758784 198 131 126
0.15744822 0.065303542 -0.82634771 195 130 127
0.15717985 0.065876707 -0.82606936 189 131 126
0.15759306 0.067040376 -0.8276307 186 129 124
0.15707643 0.067613445 -0.82625151 183 129 124
0.15697041 0.065028496 -0.82510668 193 131 128
0.15743423 0.067226678 -0.82738018 183 130 124
0.15695918 0.066139936 -0.82540125 189 130 126
0.15733036 0.067750476 -0.82717609 182 129 124
0.15735027 0.067399964 -0.82714009 183 129 124
0.15835482 0.065303423 -0.82850897 199 130 126
0.15802488 0.062226743 -0.82498497 174 134 121
0.15787221 0.064037353 -0.82641238 197 132 126
0.15809123 0.062017482 -0.8249281 172 134 120
0.15826118 0.063063174 -0.82636726 187 133 123
0.15861273 0.061825458 -0.82583678 178 134 120
0.15852849 0.063877545 -0.82788908 198 132 125
0.15903266 0.061700359 -0.82735705 192 133 125
0.15895773 0.062894791 -0.8284452 204 131 127
0.15932031 0.061414357 -0.82820225 200 132 127
0.15886104 0.062330529 -0.82738954 193 132 124
0.15867575 0.06321077 -0.82765824 196 132 125
0.15885232 0.062677227 -0.82775891 197 132 126
0.16062835 0.059813712 -0.8281095 208 132 129
0.16070075 0.059331276 -0.82559294 202 132 126
0.15966552 0.060011793 -0.82541013 185 134 122
0.15968736 0.059894759 -0.82480121 182 134 120
0.15994574 0.060217798 -0.82778841 204 132 128
0.15921694 0.060206309 -0.82473189 173 135 118
0.15893789 0.06039248 -0.82469893 169 136 117
0.16548994 0.057147287 -0.82691163 204 132 127
0.16574474 0.057122201 -0.82747018 202 133 126
0.16428085 0.057741988 -0.82746464 206 133 127
0.16696182 0.056758616 -0.82791549 185 132 127
0.16696748 0.056603353 -0.82701433 187 132 127
0.15806146 0.080456942 -0.8423577 83 134 125
0.15737787 0.082618028 -0.84092778 75 131 124
0.15773056 0.081226446 -0.84167856 77 133 124
0.15768421 0.081995033 -0.8409009 79 132 124
0.15748562 0.082376577 -0.84094417 76 132 124
0.15705551 0.080923513 -0.84373927 68 134 124
0.15829343 0.080503151 -0.84171945 86 135 125
0.15734258 0.080018401 -0.84409809 70 136 124
0.15824676 0.079782523 -0.84302193 86 135 125
0.15880843 0.079231068 -0.84137934 92 130 124
0.15869868 0.079253413 -0.84179324 91 130 124
0.15837631 0.079638548 -0.84266657 87 133 124
0.15870738 0.079808109 -0.84116405 90 132 124
0.15900987 0.076950498 -0.84276879 96 121 124
0.15919308 0.077132575 -0.84129715 89 124 125
0.15907526 0.076593839 -0.84271771 95 121 124
0.15919435 0.077851489 -0.84048021 86 128 125
0.15905114 0.078245543 -0.84102756 91 127 124
0.15893564 0.07754796 -0.8426106 97 123 124
0.15956026 0.073313028 -0.84166849 123 128 127
0.16001922 0.07253769 -0.84304094 118 132 126
0.15945721 0.073965482 -0.842507 116 126 126
0.15988325 0.073361844 -0.84405923 109 129 125
0.1596415 0.073101401 -0.84173304 123 129 127
0.15930833 0.074549831 -0.84285969 113 123 126
0.15911253 0.075741544 -0.84309423 102 120 125
0.15948202 0.074536182 -0.84098727 107 126 127
0.15955545 0.074369833 -0.8405413 107 128 127
0.15955755 0.074555866 -0.84045768 104 127 127
0.15936884 0.074861407 -0.84164894 106 124 126
0.16049121 0.069915608 -0.84352392 143 128 125
0.16041224 0.069284111 -0.84173763 156 127 125
0.16059108 0.068709336 -0.84303594 159 126 124
0.16057058 0.069004491 -0.84320116 155 126 125
0.16051525 0.069589645 -0.8433575 147 128 125
0.16041605 0.070190161 -0.84302348 141 129 125
0.16012166 0.07034111 -0.84075588 149 130 126
0.16032268 0.070461467 -0.8423183 140 130 125
0.16010451 0.070944279 -0.84137309 141 130 126
0.1601125 0.072259098 -0.84303784 119 133 127
0.16028096 0.070512988 -0.84208751 141 130 125
0.16033125 0.066027507 -0.8430264 156 129 125
0.16057269 0.067345403 -0.84340149 160 126 125
0.16011336 0.06482897 -0.84266096 153 131 125
0.16032629 0.065752432 -0.84229559 160 129 126
0.16031983 0.065837346 -0.84263581 158 129 125
0.1606023 0.067461185 -0.84331393 161 126 125
0.16038375 0.06776686 -0.84046644 170 127 125
0.1604107 0.067415535 -0.840976 168 127 125
0.1605882 0.067380533 -0.84306562 162 126 125
0.16044961 0.066495843 -0.84194046 165 128 126
0.16047974 0.066540532 -0.84226704 164 128 126
0.16168183 0.061688595 -0.84263128 138 139 119
0.16032593 0.063826174 -0.84374774 139 134 122
0.16090757 0.062846482 -0.84277362 138 136 120
0.16124535 0.062228579 -0.84182143 136 138 120
0.16124353 0.062268276 -0.84211355 137 138 120
0.16135572 0.0620685 -0.84135002 138 138 120
0.16101907 0.062726028 -0.84132379 144 137 122
0.16037281 0.063900016 -0.84192669 151 133 124
0.16039164 0.064015828 -0.84079975 161 133 126
0.16072993 0.06312909 -0.84249693 139 135 121
0.16221781 0.060591199 -0.84106976 133 142 117
0.16223474 0.060704496 -0.84352422 137 140 118
0.16311011 0.059716105 -0.84071022 142 140 118
0.16534701 0.057534017 -0.84233046 170 134 121
0.16568775 0.057301786 -0.84202665 170 133 122
0.16464533 0.05848942 -0.8403331 149 136 121
0.16439213 0.058402169 -0.84198689 161 137 119
0.16517954 0.057685055 -0.84227687 169 135 121
0.16230273 0.06049756 -0.84177947 135 142 117
0.16261919 0.06019051 -0.84313375 140 140 117
0.1630888 0.059671558 -0.84178102 146 140 117
0.16404052 0.058679305 -0.84219873 160 138 118
0.16317046 0.0596091 -0.84302157 148 139 118
0.15886015 0.072791778 -0.85197836 51 132 124
0 0 0 1 0 0 0 1 0 0 0 1 0 0 0 0 0 718 1 0 0
