ply
format ascii 1.0
comment PCL generated
element vertex 637
property float x
property float y
property float z
property uchar red
property uchar green
property uchar blue
element camera 1
property float view_px
property float view_py
property float view_pz
property float x_axisx
property float x_axisy
property float x_axisz
property float y_axisx
property float y_axisy
property float y_axisz
property float z_axisx
property float z_axisy
property float z_axisz
property float focal
property float scalex
property float scaley
property float centerx
property float centery
property int viewportx
property int viewporty
property float k1
property float k2
end_header
-0.19730037 0.32385552 -0.80560207 112 137 111
-0.19650742 0.32256642 -0.80551142 85 143 108
-0.19638416 0.32236305 -0.80549854 80 143 108
-0.20113528 0.32069632 -0.80889642 105 141 113
-0.20048083 0.32046437 -0.80839276 107 140 114
-0.19845845 0.31866962 -0.80707026 88 137 115
-0.19976582 0.31968287 -0.80797696 99 138 114
-0.19960795 0.31993827 -0.80773437 102 138 114
-0.19976154 0.31968343 -0.80797261 99 138 114
-0.1990439 0.31851381 -0.80769104 87 138 114
-0.1973988 0.32172507 -0.80612588 72 146 108
-0.19761655 0.3191278 -0.80624455 86 137 115
-0.19819295 0.32012823 -0.80660087 90 139 114
-0.19828552 0.32026386 -0.80665797 91 139 114
-0.19735062 0.32052675 -0.80609018 76 141 111
-0.19771636 0.32139987 -0.80631751 78 143 110
-0.1967058 0.31971323 -0.80577821 82 140 112
-0.19600563 0.31852183 -0.80545169 91 138 115
-0.19640802 0.32003307 -0.8056438 82 142 111
-0.19590291 0.32202706 -0.80525845 83 143 109
-0.19617887 0.32162997 -0.80544752 81 143 109
-0.1960198 0.32019874 -0.80544746 85 142 111
-0.19937296 0.3162429 -0.80819094 88 143 113
-0.19829488 0.31757051 -0.807069 85 138 114
-0.19877988 0.31634775 -0.80761135 88 142 114
-0.19871114 0.31741634 -0.80748063 86 139 114
-0.19947462 0.31750774 -0.80821317 87 140 113
-0.19881998 0.31716365 -0.80760103 86 141 113
-0.19954517 0.31515947 -0.80842561 91 145 112
-0.19783334 0.31655496 -0.80676466 95 141 112
-0.19786255 0.3167789 -0.8067584 92 140 113
-0.19676705 0.31730345 -0.80587006 83 141 112
-0.19707152 0.31713009 -0.80607986 90 140 113
-0.19518422 0.31760103 -0.80510855 91 141 112
-0.19570595 0.31822532 -0.80531973 93 138 115
-0.19519542 0.31698647 -0.80514055 87 143 110
-0.19758202 0.31127363 -0.80714673 95 145 111
-0.19777265 0.31066737 -0.80737627 90 145 111
-0.19940956 0.30856973 -0.80874866 96 145 110
-0.19791108 0.30864894 -0.80742031 99 146 111
-0.19477628 0.31010616 -0.8056367 120 138 116
-0.1945021 0.30902287 -0.80559701 116 138 117
-0.19622712 0.31026271 -0.80639499 103 142 114
-0.19592412 0.30955142 -0.806306 102 142 114
-0.19527155 0.30922127 -0.80598921 108 140 116
-0.19677192 0.30995083 -0.80670679 95 144 113
-0.19711947 0.30967045 -0.80684042 95 145 112
-0.19666444 0.30965459 -0.80665618 96 144 113
-0.19596261 0.30864844 -0.80634809 102 142 114
-0.19750433 0.30455193 -0.80691856 99 144 111
-0.1978336 0.30492482 -0.80719322 99 145 109
-0.19753297 0.30420822 -0.80692548 98 143 111
-0.19864377 0.30297276 -0.80773979 91 142 112
-0.1984075 0.3043007 -0.80761462 95 145 109
-0.1952614 0.30405951 -0.80592859 106 139 116
-0.1958327 0.30300882 -0.80613267 103 140 115
-0.19589943 0.30356491 -0.80615801 102 140 115
-0.19497205 0.30420578 -0.80582434 107 139 117
-0.19581719 0.30417854 -0.80612975 103 139 116
-0.19386955 0.30460238 -0.80542684 113 138 117
-0.19472688 0.3059386 -0.80576819 111 139 116
-0.19347546 0.30655029 -0.80528998 116 137 119
-0.19527936 0.30528632 -0.80596209 108 139 116
-0.19683579 0.30344483 -0.80650812 99 141 114
-0.19323663 0.30579919 -0.80518258 115 138 118
-0.19836259 0.30175385 -0.80764902 94 141 114
-0.1989976 0.30182964 -0.80813551 92 142 113
-0.19798128 0.30266359 -0.80722028 94 141 114
-0.19909605 0.30084252 -0.80835372 93 143 113
-0.19868799 0.30249023 -0.80779856 91 141 113
-0.19785319 0.29973599 -0.80724537 98 139 114
-0.19736835 0.29976082 -0.80674249 99 138 114
-0.19816448 0.30021438 -0.80757052 97 140 114
-0.19785689 0.30151582 -0.80725741 96 140 115
-0.19664256 0.29883292 -0.80636549 104 138 113
-0.19449075 0.29888764 -0.80544853 117 139 113
-0.19445451 0.29934347 -0.80546546 116 138 113
-0.19641042 0.29942968 -0.80630863 104 137 114
-0.19359264 0.3009308 -0.80520964 118 139 114
-0.19467278 0.29944476 -0.80556607 114 139 114
-0.19511503 0.30128619 -0.80586594 108 138 115
-0.19410226 0.30240977 -0.8055051 111 138 115
-0.19583051 0.30035543 -0.80612022 105 137 115
-0.19513798 0.30202758 -0.80587769 106 139 115
-0.19633336 0.30177575 -0.80630851 101 139 115
-0.1962049 0.30111623 -0.80625904 103 138 114
-0.19895571 0.29761246 -0.80845124 95 142 114
-0.19870827 0.29791796 -0.80817789 96 141 114
-0.19857475 0.29684368 -0.80809784 95 140 114
-0.19810861 0.29782319 -0.80756092 97 140 114
-0.19886373 0.29524317 -0.80851072 91 143 114
-0.19729309 0.29862699 -0.806678 100 137 114
-0.19844247 0.29606333 -0.80802798 94 141 115
-0.198039 0.29714361 -0.80753589 96 139 114
-0.19432385 0.29830277 -0.80540401 118 140 112
-0.19438164 0.29863226 -0.80540919 118 139 113
-0.19630596 0.29733074 -0.80633068 104 139 113
-0.19709417 0.29559344 -0.80687732 97 139 115
-0.19709758 0.29536673 -0.80690181 97 139 115
-0.19796614 0.29438117 -0.8077336 97 139 115
-0.19897223 0.29291451 -0.80880475 104 139 113
-0.1987872 0.29334107 -0.80859536 102 139 113
-0.19858593 0.2917949 -0.80853915 113 136 112
-0.1968406 0.29341912 -0.80706453 112 137 115
-0.19621223 0.29359689 -0.80674016 114 138 114
-0.19677591 0.29357132 -0.80700982 110 137 115
-0.19708298 0.29405683 -0.80707735 104 138 115
-0.19837891 0.28396693 -0.80895597 113 138 115
-0.19814217 0.28373989 -0.80879915 114 138 115
-0.19827592 0.28280675 -0.80894023 113 138 115
-0.19357619 0.27744359 -0.80573189 102 140 114
-0.19392857 0.27545834 -0.80592167 85 145 109
-0.19411406 0.2763693 -0.80600661 96 141 112
-0.1941915 0.27631238 -0.80604541 96 141 112
-0.19289485 0.27608618 -0.80534256 85 145 110
-0.19305952 0.27566972 -0.80544937 82 146 108
-0.19394131 0.27278316 -0.80578172 100 138 113
-0.19352841 0.27508718 -0.80571485 82 146 108
-0.19350441 0.27524424 -0.8057127 81 146 108
-0.19378524 0.27372599 -0.80576175 93 142 111
-0.1953622 0.27418396 -0.80663884 101 138 112
-0.19489871 0.27462241 -0.80640692 96 140 111
-0.1861894 0.31499764 -0.80055678 79 137 114
-0.18664277 0.31419075 -0.80090266 86 137 113
-0.18632178 0.31117961 -0.80115962 101 136 115
-0.18594907 0.31345898 -0.80064225 88 136 115
-0.18571857 0.31286317 -0.80060321 91 135 116
-0.18401739 0.31057844 -0.80007225 96 135 116
-0.18371394 0.31129813 -0.79983288 90 135 116
-0.18448143 0.31218261 -0.80009103 90 135 116
-0.18490526 0.3126899 -0.80022466 89 135 116
-0.18509707 0.31187353 -0.80042809 96 135 116
-0.18569632 0.30821595 -0.80106747 101 135 117
-0.18562448 0.30767646 -0.80106419 100 135 117
-0.18266286 0.30817983 -0.79956931 91 134 116
-0.18275742 0.3073363 -0.79967034 95 133 116
-0.18396237 0.30992332 -0.80009168 94 135 116
-0.18486814 0.30814886 -0.80065536 95 135 116
-0.18484583 0.30864069 -0.80061114 97 135 116
-0.18522441 0.30945915 -0.8007409 102 135 116
-0.18364286 0.31034994 -0.79990631 93 135 116
-0.18079308 0.30753744 -0.79877877 92 134 115
-0.18154588 0.30731645 -0.7990846 96 133 115
-0.18482341 0.30299729 -0.80072355 105 134 115
-0.18236823 0.30433887 -0.79950535 100 134 115
-0.18350767 0.30387178 -0.80007237 102 133 115
-0.18361257 0.30422768 -0.80012888 103 133 115
-0.18277451 0.30506656 -0.79971719 102 133 116
-0.18461658 0.30311668 -0.80062097 104 134 115
-0.1840777 0.30469981 -0.80036288 103 133 116
-0.18448959 0.30597392 -0.80056781 99 134 117
-0.18452139 0.30533704 -0.80058259 100 134 116
-0.18378778 0.30529734 -0.80022097 102 134 116
-0.18257041 0.30578119 -0.79962176 101 133 115
-0.1841998 0.30552924 -0.80042434 100 134 116
-0.17894493 0.30294198 -0.79805142 97 131 117
-0.18009533 0.3034831 -0.798509 93 134 115
-0.17852403 0.30366707 -0.79788452 95 132 116
-0.17814204 0.30467412 -0.79773319 89 134 114
-0.18034384 0.30302161 -0.79860753 96 134 115
-0.18096115 0.30637342 -0.79888493 96 134 115
-0.18132529 0.30538762 -0.79902279 97 134 115
-0.18157579 0.30507684 -0.79912162 98 134 115
-0.18016677 0.30432409 -0.79853898 90 135 113
-0.17716257 0.30292955 -0.79741257 98 129 118
-0.1775105 0.30470815 -0.79750943 89 133 114
-0.18574721 0.30157092 -0.80115283 102 134 116
-0.18203157 0.3023212 -0.79930532 96 134 115
-0.18272832 0.30073377 -0.79963136 98 134 116
-0.18372829 0.29962492 -0.80009818 98 133 117
-0.18165721 0.30086923 -0.79913247 101 134 115
-0.18173407 0.30205339 -0.79916704 97 135 115
-0.18487649 0.29910126 -0.80063343 96 131 118
-0.18233931 0.30269083 -0.79947203 97 135 115
-0.18450508 0.30037579 -0.80047762 96 133 117
-0.18548334 0.29979065 -0.80094808 97 132 118
-0.18426628 0.3008725 -0.80037528 97 132 117
-0.18480583 0.30095154 -0.80064893 99 133 117
-0.18514568 0.29967383 -0.8007744 96 131 118
-0.17858236 0.29913986 -0.79783356 96 134 115
-0.17960529 0.30013084 -0.79829586 103 133 116
-0.18026885 0.29941842 -0.79855901 103 134 116
-0.17905253 0.29999763 -0.79805696 100 133 116
-0.17944872 0.29949662 -0.79821199 100 134 115
-0.17968135 0.30063045 -0.79834175 103 132 117
-0.17914183 0.30172333 -0.79813063 102 131 117
-0.18112902 0.29965323 -0.79892266 105 134 116
-0.18053438 0.30076197 -0.79868513 103 133 116
-0.18144655 0.29937857 -0.79904914 106 135 116
-0.18034667 0.30096439 -0.79861033 103 133 116
-0.18074042 0.30178508 -0.79876602 100 133 116
-0.17750327 0.2989848 -0.7974053 93 134 115
-0.17711271 0.29931068 -0.79730767 93 134 115
-0.17764856 0.30232018 -0.79753542 99 130 118
-0.17674753 0.30192545 -0.79727662 96 131 117
-0.18560845 0.29864162 -0.80097586 94 132 118
-0.1855537 0.29852587 -0.80094451 95 131 119
-0.18301259 0.29494953 -0.7996546 103 133 117
-0.18340535 0.29537308 -0.79985905 102 134 117
-0.183274 0.29600456 -0.79981762 102 135 116
-0.18165712 0.29812551 -0.79911035 108 134 116
-0.18517873 0.29528263 -0.80071265 98 136 116
-0.18174052 0.29654941 -0.79909575 107 133 117
-0.18473849 0.29595956 -0.80051953 99 135 116
-0.18350388 0.29775226 -0.79997581 101 135 116
-0.18486631 0.2973015 -0.80060244 97 134 117
-0.18517217 0.29716837 -0.80074257 96 133 117
-0.18444009 0.29719701 -0.8004021 99 134 116
-0.18422575 0.29698375 -0.80029857 100 135 116
-0.17793897 0.2952289 -0.79750937 102 133 116
-0.17855951 0.2979264 -0.79778588 96 134 115
-0.18037169 0.29542908 -0.79848713 104 132 117
-0.17786495 0.29672867 -0.79749501 98 134 115
-0.17833498 0.29611418 -0.79767728 100 134 115
-0.17855282 0.29733238 -0.79777712 97 134 115
-0.18016551 0.2986421 -0.79849249 101 135 115
-0.18133409 0.2981658 -0.79897332 107 134 116
-0.17963527 0.29874176 -0.79827029 99 134 115
-0.18105391 0.29713523 -0.79881817 105 133 116
-0.18056171 0.29822743 -0.79864669 103 134 115
-0.17744385 0.29554689 -0.79734778 100 133 116
-0.17721716 0.29552189 -0.79728359 99 134 115
-0.18575591 0.29416183 -0.80099154 97 136 116
-0.18362728 0.29198006 -0.79991984 104 132 118
-0.18231915 0.2939471 -0.79930836 106 132 118
-0.184771 0.2916671 -0.80046386 103 133 118
-0.18362245 0.29249135 -0.79992092 104 133 117
-0.18341196 0.29215458 -0.79981816 104 133 117
-0.18261594 0.29333028 -0.79944593 106 132 118
-0.18449 0.29227373 -0.80033481 103 133 118
-0.18443301 0.29378587 -0.80032587 101 134 117
-0.18523154 0.29386339 -0.80071259 99 135 116
-0.18323667 0.2948603 -0.79976112 103 133 117
-0.18485455 0.29431346 -0.80053598 99 135 117
-0.18315786 0.29464939 -0.79972047 103 133 117
-0.17893912 0.29130894 -0.79789746 98 135 118
-0.17775796 0.29353949 -0.79743242 99 134 116
-0.17971686 0.29260531 -0.79820585 103 133 117
-0.18011524 0.29247379 -0.79836315 103 133 117
-0.17919984 0.29121274 -0.79800045 98 136 117
-0.18146373 0.29323313 -0.79890865 105 132 117
-0.18095905 0.29345655 -0.79870778 105 132 117
-0.18163793 0.29437324 -0.79898614 106 132 118
-0.17889357 0.29383677 -0.79788184 103 133 116
-0.17976293 0.29302222 -0.7982251 103 133 117
-0.18162787 0.29277527 -0.79897141 105 132 118
-0.17760262 0.29183343 -0.79738611 95 137 117
-0.1858526 0.29086646 -0.80102521 101 134 118
-0.18333192 0.28873563 -0.79986143 108 132 119
-0.18448068 0.28817046 -0.80045253 110 133 118
-0.18233369 0.28796071 -0.79937077 104 132 118
-0.18272829 0.28843495 -0.79956168 106 132 118
-0.18462804 0.28731018 -0.80054271 110 133 119
-0.18208207 0.28725371 -0.79925644 103 132 118
-0.18421564 0.29070428 -0.80020875 104 132 118
-0.18384941 0.28979287 -0.80007613 106 133 118
-0.18380962 0.28992644 -0.80005091 106 133 118
-0.18279798 0.29083556 -0.7995258 104 132 118
-0.18548302 0.29086062 -0.8008067 102 133 118
-0.18315798 0.29085106 -0.79969698 104 133 117
-0.18039703 0.28790858 -0.79853225 98 134 118
-0.17858702 0.28883076 -0.79780501 91 137 117
-0.17839819 0.29003623 -0.79770297 94 137 117
-0.1808295 0.2874175 -0.79871243 99 133 118
-0.17859545 0.28945297 -0.79779363 93 136 117
-0.18040173 0.28732884 -0.79854774 96 134 117
-0.1814594 0.28877494 -0.79893398 102 132 118
-0.18046105 0.2898849 -0.79851925 100 134 118
-0.18147935 0.28875706 -0.79894221 102 132 118
-0.18100896 0.28857732 -0.79875958 101 133 118
-0.18136667 0.28948906 -0.79888433 102 132 118
-0.17855413 0.29060623 -0.79775256 95 137 118
-0.17766593 0.28767079 -0.79748124 83 138 115
-0.17770293 0.28809977 -0.79748124 84 138 116
-0.18222973 0.28530696 -0.79933745 100 133 118
-0.18486348 0.28377002 -0.8006658 97 134 119
-0.18188499 0.28597057 -0.79916215 101 133 118
-0.18347736 0.2840693 -0.79996824 98 134 118
-0.18166521 0.28458604 -0.79905593 100 134 118
-0.18210232 0.28654039 -0.79926962 101 132 118
-0.18360561 0.28661373 -0.8000294 105 133 119
-0.18340342 0.28581065 -0.79992718 101 133 119
-0.18466128 0.28512916 -0.80056316 101 134 118
-0.18482517 0.28473875 -0.80064607 100 134 119
-0.18286163 0.2869589 -0.79965323 105 133 119
-0.18303177 0.28616589 -0.79973924 102 133 119
-0.17878312 0.28506821 -0.79794806 86 136 116
-0.17886358 0.28511193 -0.79797679 86 136 116
-0.17990051 0.2838884 -0.79838848 91 135 116
-0.18139111 0.28648746 -0.79894054 100 134 118
-0.18132293 0.28368524 -0.79892254 97 135 117
-0.17977315 0.28628677 -0.7983104 91 136 116
-0.18060011 0.28428772 -0.79863894 95 136 116
-0.17891307 0.28599593 -0.79797608 87 137 115
-0.17916884 0.28613856 -0.79807532 88 137 116
-0.1858643 0.2811752 -0.80116791 93 136 117
-0.18393274 0.2797254 -0.80012977 92 134 117
-0.18302074 0.28041929 -0.79968691 94 134 117
-0.18172981 0.2816948 -0.79906529 97 134 117
-0.18248881 0.28132841 -0.79943764 95 134 117
-0.18271984 0.27982226 -0.79952598 92 134 117
-0.1837741 0.28011265 -0.80005747 93 134 117
-0.18447082 0.28117606 -0.80042708 94 135 117
-0.18347228 0.28274918 -0.79995871 97 134 118
-0.18446751 0.28065053 -0.80041426 93 135 117
-0.18246253 0.28248599 -0.79944563 97 135 117
-0.18419904 0.28216997 -0.80031163 95 135 117
-0.18200901 0.28295219 -0.79922765 98 134 117
-0.18121053 0.27931803 -0.79881316 91 133 118
-0.17992967 0.28319383 -0.79841495 91 134 116
-0.18091421 0.28128693 -0.79874486 92 134 117
-0.18011837 0.2824004 -0.7984705 90 134 116
-0.1813785 0.27977365 -0.7988894 92 133 118
-0.1806341 0.28195274 -0.79865319 92 134 117
-0.18588686 0.27908456 -0.80113041 91 136 116
-0.185559 0.27605572 -0.80074131 95 134 117
-0.18596427 0.27548274 -0.80096126 93 136 115
-0.1824625 0.27707383 -0.79926103 91 133 117
-0.1833621 0.27679029 -0.79969049 93 133 117
-0.18222322 0.27772406 -0.79917872 92 133 117
-0.18291962 0.2768876 -0.79947692 92 133 117
-0.18350028 0.27721325 -0.79978234 94 134 117
-0.18212143 0.27542132 -0.79900044 88 132 116
-0.1829371 0.27907979 -0.79961199 92 134 117
-0.18408315 0.27899611 -0.80017912 92 134 117
-0.18358077 0.27852696 -0.79990029 92 134 117
-0.1845368 0.27790433 -0.80034024 93 135 116
-0.18416816 0.27849624 -0.80019164 92 134 117
-0.18447937 0.27881232 -0.80036598 92 134 117
-0.18078381 0.27709207 -0.79852599 85 133 116
-0.18082957 0.27650151 -0.79851073 85 132 116
-0.18100676 0.27803013 -0.79866379 88 133 117
-0.18046078 0.27820277 -0.79846346 86 133 117
-0.18099876 0.27841461 -0.79868203 89 133 117
-0.18444309 0.27492881 -0.80014408 91 134 116
-0.18511963 0.27370754 -0.80046916 89 133 117
-0.1947087 0.32730034 -0.80322701 110 135 113
-0.19478877 0.32227945 -0.80456787 98 139 110
-0.19581172 0.32394961 -0.80466563 131 132 113
-0.19555047 0.32311234 -0.80476898 111 137 111
-0.19143538 0.32265148 -0.80252695 92 138 111
-0.19121484 0.3229931 -0.80232364 86 139 112
-0.19441311 0.32168481 -0.80438364 104 136 112
-0.19532099 0.3208822 -0.80498761 92 140 111
-0.19496839 0.32079861 -0.80477965 97 138 112
-0.19450334 0.31970981 -0.80457956 104 136 114
-0.19345079 0.31955081 -0.80412877 114 136 114
-0.19117598 0.32027546 -0.8027373 90 142 111
-0.19002821 0.31848049 -0.80222338 77 148 107
-0.19076957 0.31966501 -0.80255276 86 144 110
-0.19078331 0.31912163 -0.80261618 86 145 109
-0.19248061 0.31850126 -0.80370808 104 140 113
-0.19304492 0.31913507 -0.80396783 111 138 114
-0.19070135 0.32196304 -0.8022415 87 141 111
-0.19270563 0.31983131 -0.80367762 107 138 114
-0.19191091 0.32094541 -0.80307037 99 139 112
-0.19167757 0.32035446 -0.80302113 96 140 112
-0.1905254 0.32130331 -0.80223441 83 142 111
-0.19499023 0.31727174 -0.80503505 91 142 111
-0.19434632 0.31688336 -0.8047623 94 143 109
-0.19358389 0.31637323 -0.80436862 91 144 109
-0.18977723 0.31484511 -0.80244869 88 143 109
-0.19031301 0.31563851 -0.80261481 80 146 107
-0.19190156 0.31499103 -0.8034538 74 148 105
-0.19091992 0.31462038 -0.80302435 82 145 107
-0.1905238 0.31524658 -0.8027615 80 145 107
-0.19082698 0.31665671 -0.80274451 71 150 105
-0.19237044 0.31750426 -0.8036474 93 143 110
-0.19052354 0.317637 -0.80252898 74 149 106
-0.19162995 0.31810999 -0.80320436 92 144 110
-0.19294654 0.3156063 -0.80397815 76 148 105
-0.19308625 0.31680134 -0.80407447 92 144 109
-0.19095072 0.31788921 -0.8027904 82 147 107
-0.18884714 0.31456792 -0.80200738 89 140 111
-0.1892702 0.31739342 -0.80190271 76 148 107
-0.18879682 0.31582376 -0.80183601 82 143 109
-0.18937729 0.31712833 -0.80198944 77 147 107
-0.19343218 0.31091955 -0.80477244 130 135 116
-0.19167744 0.3109616 -0.8039161 118 135 116
-0.19012246 0.31075147 -0.80320859 99 138 114
-0.1920418 0.31073982 -0.80412233 122 135 116
-0.19093022 0.3121393 -0.80338532 109 138 114
-0.19045897 0.31324059 -0.80299699 103 138 112
-0.19038343 0.31147987 -0.80322385 102 138 114
-0.19253305 0.3138037 -0.80391276 84 145 107
-0.19214024 0.3128922 -0.80385447 103 141 111
-0.19131657 0.31271327 -0.8034839 111 137 114
-0.19109383 0.31366995 -0.80323964 95 141 110
-0.19009873 0.31405926 -0.80270511 94 141 110
-0.19025534 0.3141737 -0.802764 91 142 109
-0.18810183 0.31190142 -0.80199796 97 138 113
-0.18941185 0.31302348 -0.80252939 92 140 111
-0.18902597 0.31138155 -0.80256861 93 139 113
-0.18817045 0.31164443 -0.80207288 97 138 113
-0.18857299 0.31155998 -0.80230027 95 138 113
-0.18738165 0.31212187 -0.80158186 99 138 113
-0.18829602 0.31361648 -0.80184996 93 139 112
-0.18770993 0.3138043 -0.80151647 91 139 112
-0.18861258 0.31368124 -0.80200666 93 139 111
-0.19352035 0.30972987 -0.80498528 132 135 118
-0.19155036 0.30858323 -0.80409217 123 133 117
-0.19292063 0.30833283 -0.80481851 124 134 118
-0.19312268 0.31008631 -0.80471194 134 133 118
-0.19241197 0.3082737 -0.80456704 123 134 118
-0.19308837 0.31023219 -0.80467707 134 133 118
-0.19052622 0.30946827 -0.80352402 109 135 115
-0.18950388 0.30850706 -0.80312115 101 135 116
-0.19179499 0.31017372 -0.804066 120 134 117
-0.19023117 0.30951995 -0.80337936 105 136 115
-0.18977508 0.30989602 -0.80313021 98 137 114
-0.1912917 0.31041992 -0.80380565 114 136 116
-0.18875986 0.30702811 -0.80284035 104 134 117
-0.18859252 0.30754209 -0.80270326 101 135 116
-0.18754914 0.30855593 -0.80203742 94 137 116
-0.18663789 0.30744976 -0.8016277 97 135 117
-0.18819968 0.30773294 -0.80246902 100 135 116
-0.18929294 0.30715567 -0.8031249 105 134 116
-0.18855236 0.31029555 -0.80245709 95 137 114
-0.18903783 0.31015098 -0.80272573 92 138 114
-0.18605095 0.30881613 -0.80122048 101 135 116
-0.1877556 0.30908751 -0.80211204 94 137 115
-0.1860275 0.30738872 -0.80130255 97 135 117
-0.18798539 0.31036115 -0.80215025 97 137 114
-0.19210342 0.30377203 -0.80460244 112 137 116
-0.19216818 0.30369881 -0.80463529 112 137 116
-0.19194858 0.30499235 -0.8045249 112 136 117
-0.19291596 0.3041425 -0.80501574 113 138 117
-0.19033067 0.30616549 -0.80370367 109 134 117
-0.19294715 0.30594617 -0.80503327 115 137 118
-0.19109099 0.30370274 -0.80411845 108 137 116
-0.19153585 0.30375275 -0.80433041 109 137 115
-0.18973382 0.30367205 -0.80346859 103 136 116
-0.19007298 0.30507821 -0.80359519 107 135 116
-0.19063804 0.30405921 -0.8038922 108 136 116
-0.18767849 0.30339941 -0.8023085 104 135 115
-0.18867446 0.30415022 -0.80286878 105 134 116
-0.18809637 0.30420035 -0.80253112 105 134 116
-0.18927775 0.3047896 -0.80320346 105 134 117
-0.18828982 0.30506423 -0.8026216 107 133 116
-0.18852568 0.30646864 -0.80274379 106 133 117
-0.1860114 0.30456424 -0.80134839 102 134 116
-0.18579678 0.30400816 -0.80122894 103 134 116
-0.18847869 0.30614117 -0.80271745 107 132 117
-0.18604553 0.30431956 -0.8013671 103 134 116
-0.19122316 0.3020725 -0.80416316 109 138 115
-0.19248377 0.3011446 -0.80470651 116 139 114
-0.19220129 0.30228624 -0.80464607 111 139 115
-0.19115844 0.30141398 -0.80408734 111 138 114
-0.19137925 0.2999891 -0.80408204 114 139 114
-0.19151796 0.29986268 -0.80414015 114 139 114
-0.18955593 0.30157313 -0.80331129 102 139 114
-0.19079873 0.30090654 -0.80387139 110 138 114
-0.19022778 0.30082929 -0.80358177 106 139 113
-0.19108641 0.30078703 -0.80400401 111 138 114
-0.18786839 0.29999748 -0.80228096 97 137 115
-0.18863364 0.29969752 -0.80266452 100 139 114
-0.18916203 0.30221072 -0.80315852 101 137 115
-0.1867357 0.2994312 -0.80162817 95 134 117
-0.18768835 0.3005107 -0.80222797 97 135 116
-0.18775822 0.30107474 -0.80230248 98 134 116
-0.18637422 0.3006469 -0.80147928 99 134 116
-0.1863867 0.29996881 -0.80145818 97 133 117
-0.18717086 0.30262053 -0.80202544 104 135 115
-0.18857297 0.30253476 -0.80283761 102 136 115
-0.18712816 0.30089599 -0.8019284 98 134 116
-0.19227946 0.29812661 -0.80441731 118 140 113
-0.1920134 0.29785264 -0.80428022 116 140 113
-0.19259238 0.29862446 -0.80458194 120 140 113
-0.18875326 0.29643813 -0.80261445 99 141 114
-0.1877827 0.29570931 -0.80208856 98 140 115
-0.18827139 0.2968764 -0.80236852 100 140 114
-0.18686326 0.29496819 -0.80158937 97 138 116
-0.18911676 0.29597291 -0.8027975 98 142 114
-0.18697536 0.29826692 -0.80169791 96 137 115
-0.18744978 0.29706234 -0.80193537 99 139 114
-0.1865353 0.2976917 -0.8014552 96 135 116
-0.18694612 0.29650095 -0.80165887 98 138 115
-0.18619169 0.29740357 -0.8012678 95 135 117
-0.19036677 0.29452682 -0.80351621 104 141 114
-0.1900844 0.29462278 -0.80334544 102 141 114
-0.19056349 0.29441324 -0.80363995 106 141 114
-0.19070925 0.29291999 -0.80386037 112 139 115
-0.19017638 0.29147708 -0.80361956 99 141 113
-0.19099492 0.29213116 -0.8040871 114 138 115
-0.19017003 0.29323426 -0.80350578 104 140 114
-0.18878439 0.29293352 -0.80267477 93 141 114
-0.1887328 0.29185072 -0.80271119 90 141 113
-0.18802725 0.29184636 -0.80228472 94 139 114
-0.18760043 0.29170683 -0.80203527 95 138 115
-0.18790668 0.29267254 -0.8021602 97 139 116
-0.1890806 0.29334164 -0.80282843 94 141 114
-0.18720797 0.29242241 -0.80176091 99 137 116
-0.1878249 0.2940309 -0.80209249 97 139 116
-0.1862205 0.2935901 -0.80124426 98 136 117
-0.18661894 0.29170308 -0.80144739 99 135 117
-0.1880246 0.29420465 -0.80219853 97 139 116
-0.19095539 0.28741363 -0.80418438 105 143 111
-0.19037239 0.28772894 -0.80382723 98 144 111
-0.18962523 0.29063466 -0.80331123 87 144 111
-0.18962136 0.28907889 -0.80334514 90 144 112
-0.1906167 0.28891847 -0.80394608 99 144 111
-0.18923974 0.29002264 -0.80309814 87 143 112
-0.18865387 0.28891355 -0.80278325 93 141 113
-0.18882503 0.28978619 -0.80286241 90 142 112
-0.18813467 0.28894565 -0.80248052 95 140 114
-0.18884288 0.29008424 -0.80286586 89 142 113
-0.18619244 0.29053974 -0.80124819 101 135 117
-0.18760817 0.29009777 -0.80212444 95 139 115
-0.18746756 0.29059321 -0.80201709 95 138 115
-0.1866979 0.29026037 -0.80156654 99 136 117
-0.19074418 0.28697658 -0.80407226 103 143 112
-0.19076218 0.28657308 -0.804106 104 142 112
-0.19033904 0.28570205 -0.80389935 101 139 114
-0.18836391 0.28431198 -0.80270493 95 141 115
-0.18809985 0.28551561 -0.80250853 93 140 115
-0.18831411 0.28550452 -0.8026399 93 141 114
-0.18834898 0.28501803 -0.80267531 94 141 115
-0.18795712 0.28367835 -0.80247444 96 139 116
-0.18856631 0.28519076 -0.80280322 94 141 115
-0.18751036 0.28573272 -0.80216151 97 139 116
-0.18856061 0.28651896 -0.80277157 94 141 114
-0.18613243 0.28393215 -0.8013618 97 136 118
-0.18957701 0.28098661 -0.80343378 93 142 115
-0.19061035 0.27976763 -0.80401254 99 140 116
-0.18947092 0.28157464 -0.80338299 94 142 115
-0.19109909 0.27950916 -0.8042922 102 139 117
-0.18905409 0.2800968 -0.80310047 90 142 115
-0.18890274 0.2820802 -0.80304474 95 141 115
-0.18877031 0.28112409 -0.80294579 93 141 115
-0.18678598 0.27940732 -0.80169743 91 137 116
-0.18664211 0.27999306 -0.80162024 92 137 116
-0.18646142 0.28314692 -0.80157238 96 136 118
-0.1866883 0.28277826 -0.80170375 96 137 118
-0.18655491 0.28128606 -0.80159253 94 136 117
-0.1864741 0.28058615 -0.80152917 93 137 116
-0.18841732 0.28227985 -0.80275124 95 140 116
-0.18633467 0.28247449 -0.80148149 95 137 118
-0.19119668 0.27773896 -0.80434269 88 143 113
-0.1923027 0.27749059 -0.80498612 95 142 114
-0.19210683 0.27643973 -0.80487055 84 145 110
-0.19177975 0.27605683 -0.80467027 79 146 109
-0.19220045 0.27568591 -0.80492187 78 146 108
-0.19175704 0.27604157 -0.80465519 79 146 109
-0.1874456 0.27885637 -0.8020736 90 139 115
-0.18695855 0.2773082 -0.80168355 90 137 115
-0.18677039 0.27714306 -0.80155843 90 137 115
-0.18784694 0.27900526 -0.80232841 90 139 115
-0.18783891 0.27886048 -0.80231494 90 139 115
-0.18774933 0.27902144 -0.80226952 90 139 115
-0.19239317 0.27445832 -0.80496049 84 143 110
-0.19188228 0.27414775 -0.80461192 85 142 111
-0.17658724 0.30403882 -0.79724663 90 132 116
-0.17566106 0.30309871 -0.79697978 92 131 116
-0.17466494 0.30314061 -0.79669285 88 132 116
-0.17574655 0.30336279 -0.7969988 91 132 116
-0.17518644 0.30193037 -0.79682887 90 133 115
-0.17501871 0.3025687 -0.79679835 90 132 116
-0.17554823 0.30188754 -0.79693156 91 132 116
-0.17530432 0.30221087 -0.79687047 91 132 116
-0.17554212 0.30031618 -0.79688907 89 134 114
-0.17570758 0.29943776 -0.79691833 90 135 115
-0.17609902 0.29883531 -0.79701513 90 135 114
-0.17695485 0.29596946 -0.79721677 98 134 116
-0.17541026 0.29868436 -0.79682308 90 135 115
-0.17548805 0.298538 -0.79684281 90 135 115
-0.17562702 0.29868591 -0.79688299 90 135 115
-0.17678335 0.29488575 -0.79714727 99 134 116
-0.17655538 0.29275739 -0.79708195 94 135 117
-0.17539716 0.29461432 -0.79673153 92 135 116
-0.17604068 0.29295179 -0.79692715 92 136 117
-0.17556897 0.29474938 -0.79678291 93 135 116
-0.17513418 0.2920132 -0.79668188 88 136 117
-0.17612869 0.29111612 -0.79697675 90 136 118
-0.1769606 0.2896755 -0.79724222 89 137 117
-0.17666849 0.29074019 -0.79713565 91 136 117
-0.17672218 0.28981283 -0.79717255 88 136 117
-0.17679675 0.28703633 -0.79725868 80 137 115
-0.20254707 0.31891468 -0.8112607 127 135 114
-0.20129764 0.31938529 -0.80947435 98 140 112
-0.20193671 0.31837589 -0.81060874 107 137 113
-0.20119776 0.3199147 -0.80919039 99 141 113
-0.20102416 0.31899792 -0.80931145 92 140 112
-0.20180827 0.31825379 -0.81046027 104 138 112
-0.20141037 0.31575328 -0.81009024 96 144 112
-0.20102517 0.31538722 -0.80963421 87 146 112
-0.2004264 0.31561756 -0.80918282 90 145 111
-0.20036392 0.31632665 -0.8091048 90 144 112
-0.20180255 0.30316916 -0.81049693 109 138 114
-0.2012099 0.30313423 -0.80963594 93 140 112
-0.2004018 0.30298826 -0.80909938 87 143 110
-0.20065039 0.30503792 -0.80940992 96 144 111
-0.20054252 0.30497637 -0.80933559 96 144 111
-0.20065811 0.29892856 -0.80973059 98 144 114
-0.20006266 0.2996825 -0.80922323 96 142 114
-0.20049499 0.29936475 -0.8095597 97 143 114
-0.20006865 0.30060872 -0.80911249 93 142 113
-0.20121965 0.2968531 -0.81017184 96 144 115
-0.20021698 0.29663426 -0.80952024 94 144 114
-0.20015715 0.29604447 -0.80949003 92 144 114
-0.20111617 0.29734853 -0.81007516 95 145 114
-0.2007957 0.29833692 -0.80985504 97 145 114
-0.20069747 0.29836103 -0.80978775 97 145 114
-0.19978766 0.29759282 -0.80919993 95 144 114
-0.20097964 0.29323938 -0.81009531 98 142 113
-0.20104168 0.29292074 -0.81014699 99 142 112
-0.20113795 0.29334933 -0.81018728 96 142 113
-0.20004214 0.29198331 -0.80957693 108 139 112
-0.20042522 0.29365468 -0.80973798 98 141 114
-0.19943962 0.29463875 -0.80906874 92 143 114
-0.20072748 0.29422674 -0.8098976 94 143 114
-0.20023365 0.28926727 -0.80976099 110 138 113
-0.20101963 0.28856003 -0.81028783 110 138 115
-0.20006746 0.28804928 -0.80969226 112 137 116
-0.20043516 0.28944051 -0.80988497 110 138 113
-0.19905946 0.29058871 -0.8090241 116 136 112
-0.19965534 0.28880912 -0.80941147 111 137 114
-0.19911967 0.29094893 -0.80905616 116 135 111
-0.20035131 0.29046127 -0.80981493 110 137 111
-0.20192596 0.28411773 -0.81155574 115 140 113
-0.20139022 0.28423792 -0.81089979 107 143 112
-0.2013554 0.28331867 -0.81092334 103 145 109
-0.20159246 0.285265 -0.8110708 113 140 115
-0.19974412 0.28453475 -0.80975914 111 139 115
-0.20052536 0.28389022 -0.81027335 105 142 112
-0.20105539 0.28487572 -0.81052065 106 142 113
-0.19961232 0.28386295 -0.80972815 109 140 113
-0.1989024 0.28605494 -0.80908197 112 137 117
-0.19894263 0.28540105 -0.80917525 112 137 116
-0.19933541 0.28551927 -0.80941534 112 138 116
-0.19956648 0.28630546 -0.80948269 113 137 117
-0.20128921 0.28288648 -0.81080699 103 145 109
-0.20122814 0.28096473 -0.81057376 101 140 112
-0.20030963 0.28118742 -0.81005055 105 141 111
-0.2004316 0.28298777 -0.81025279 103 144 110
-0.19902189 0.28248298 -0.80937624 110 139 113
-0.20020367 0.28256783 -0.81008983 105 142 111
-0.19998972 0.28148577 -0.80989367 107 140 112
0 0 0 1 0 0 0 1 0 0 0 1 0 0 0 0 0 637 1 0 0
