ply
format ascii 1.0
comment PCL generated
element vertex 864
property float x
property float y
property float z
property uchar red
property uchar green
property uchar blue
element camera 1
property float view_px
property float view_py
property float view_pz
property float x_axisx
property float x_axisy
property float x_axisz
property float y_axisx
property float y_axisy
property float y_axisz
property float z_axisx
property float z_axisy
property float z_axisz
property float focal
property float scalex
property float scaley
property float centerx
property float centery
property int viewportx
property int viewporty
property float k1
property float k2
end_header
0.24004981 -0.0070363069 -0.89566022 189 135 126
0.23967128 -0.0070824055 -0.8956241 190 135 126
0.23892565 -0.0059197014 -0.89499313 190 135 126
0.2416341 -0.0068037128 -0.89506769 179 135 124
0.2433295 -0.0085179647 -0.89528674 171 135 122
0.2434895 -0.0085520204 -0.89523286 170 135 122
0.24301524 -0.0086456994 -0.89550543 174 134 123
0.24362855 -0.009725376 -0.89578891 173 134 123
0.24219859 -0.0081565306 -0.89555156 179 134 124
0.24046068 -0.0091040144 -0.89653784 191 134 128
0.24074784 -0.0089943381 -0.89639586 189 134 127
0.24271391 -0.0093117207 -0.89590055 178 133 124
0.24507174 -0.009446308 -0.89500409 159 134 121
0.2425109 -0.012415841 -0.89659679 184 134 126
0.24371268 -0.01288597 -0.897475 183 133 126
0.24403836 -0.012768029 -0.89755285 182 133 126
0.24329372 -0.01332187 -0.89756066 186 133 127
0.2434295 -0.012522754 -0.89710325 183 134 126
0.24328437 -0.012367235 -0.89693272 182 133 126
0.24274199 -0.011158974 -0.89589036 178 134 124
0.24183722 -0.010449086 -0.89628744 184 134 126
0.24198683 -0.011343909 -0.89610797 183 134 126
0.24221824 -0.011462101 -0.8960157 182 134 125
0.24276975 -0.010133814 -0.89603144 178 134 124
0.24273357 -0.010364465 -0.89600945 178 133 125
0.24507849 -0.0098945908 -0.89524418 161 133 121
0.2471233 -0.011632755 -0.89502227 148 134 120
0.24742641 -0.012893355 -0.89553398 151 134 121
0.24658164 -0.01168579 -0.89533758 154 134 121
0.24439965 -0.010911937 -0.89621902 172 133 123
0.24489342 -0.013397536 -0.89751691 178 133 125
0.24508913 -0.013260601 -0.89729851 175 134 125
0.2465855 -0.012678189 -0.89593208 158 134 122
0.24430506 -0.011985501 -0.89698243 177 133 125
0.24454759 -0.010555253 -0.89588857 169 133 122
0.24672383 -0.013541746 -0.89640492 160 134 122
0.2482435 -0.013614493 -0.89533144 146 134 120
0.24762923 -0.01755615 -0.89825618 167 133 124
0.24794522 -0.016704936 -0.89767426 161 133 123
0.24677104 -0.017301258 -0.89809775 171 133 124
0.24746048 -0.014863415 -0.8964349 157 134 122
0.24608135 -0.016880695 -0.89782435 174 133 125
0.24657725 -0.016259992 -0.89739567 168 133 124
0.24466372 -0.016721439 -0.89795452 182 133 126
0.244251 -0.015052064 -0.89816791 185 133 127
0.24466509 -0.014387968 -0.89787173 181 133 126
0.24611013 -0.01372408 -0.89689624 167 134 124
0.24615578 -0.014606896 -0.89689708 167 134 124
0.24532115 -0.015173526 -0.89746696 175 133 125
0.24919841 -0.016517848 -0.89624798 148 133 120
0.24827448 -0.014785218 -0.89611572 150 134 121
0.24873424 -0.015091936 -0.89580524 146 134 120
0.24939799 -0.016454535 -0.89598018 145 133 119
0.24912426 -0.016767135 -0.89650047 150 132 121
0.24879113 -0.016332161 -0.89658129 151 133 121
0.24829784 -0.016470488 -0.89723098 157 133 122
0.24918054 -0.014944242 -0.89517385 142 133 119
0.24664694 -0.020338865 -0.89837861 176 133 125
0.24702469 -0.01991746 -0.89848495 174 133 125
0.24672419 -0.019406743 -0.8980763 174 133 125
0.24638766 -0.019837888 -0.89801437 176 133 125
0.24560528 -0.019693702 -0.89763242 180 133 126
0.24558088 -0.017871358 -0.89821184 179 133 126
0.24599218 -0.018230734 -0.89809084 177 134 125
0.25025997 -0.018999252 -0.89626491 144 133 120
0.25083011 -0.019068386 -0.89564633 138 132 119
0.25098866 -0.01933693 -0.89556116 137 132 119
0.25010532 -0.01782947 -0.89603156 142 132 119
0.24999319 -0.018549971 -0.89640903 145 132 120
0.25136989 -0.020707833 -0.8957606 135 133 118
0.25122517 -0.020307779 -0.89570379 136 133 119
0.24991143 -0.019617381 -0.89700037 149 133 121
0.2483326 -0.018309981 -0.89824504 163 133 123
0.25014728 -0.020061161 -0.89691782 147 133 120
0.25019774 -0.021020219 -0.89748985 150 133 121
0.24907185 -0.020200074 -0.89839566 160 133 122
0.24978422 -0.021425422 -0.89835465 156 133 121
0.2504079 -0.021314682 -0.89742726 148 133 120
0.24639872 -0.022148734 -0.89842552 180 133 125
0.25079581 -0.021884015 -0.8971647 145 133 120
0.25107488 -0.02179472 -0.89675701 142 133 119
0.24978366 -0.021799769 -0.89850593 157 133 121
0.25068235 -0.021834491 -0.89730155 146 133 120
0.25116122 -0.023510531 -0.89721835 145 133 120
0.25093779 -0.024458533 -0.89797491 150 134 120
0.25111043 -0.024295019 -0.89779395 148 133 120
0.25234944 -0.024454083 -0.89656031 135 134 117
0.25223273 -0.024522919 -0.89691544 136 134 117
0.25212207 -0.023775125 -0.89666784 135 134 117
0.25251007 -0.024087464 -0.89587605 133 134 117
0.25209558 -0.024187079 -0.89703327 137 134 118
0.25254753 -0.027233738 -0.89768511 143 134 117
0.25243443 -0.026169186 -0.89742082 141 134 117
0.25213048 -0.026068034 -0.89816362 143 134 118
0.25212294 -0.025475226 -0.89787126 141 135 118
0.25226158 -0.026922185 -0.89827007 145 135 118
0.2535511 -0.02784518 -0.89564317 135 133 116
0.25333685 -0.027250713 -0.89577973 135 133 116
0.25328282 -0.027571874 -0.89609176 137 133 116
0.25346228 -0.027411859 -0.89558971 134 133 116
0.25272426 -0.028414261 -0.89785731 147 134 117
0.25041685 -0.030339649 -0.89866316 174 133 123
0.2501865 -0.033085953 -0.89790487 181 132 125
0.25018388 -0.032418162 -0.89804715 180 132 125
0.2499456 -0.032187268 -0.89792585 181 132 125
0.24933369 -0.030464878 -0.89796829 182 132 125
0.24964407 -0.029451193 -0.89850861 179 132 124
0.24944779 -0.030273726 -0.89809072 181 132 125
0.24917048 -0.031275813 -0.89756745 183 133 125
0.25319245 -0.031937294 -0.8977232 153 133 118
0.25285673 -0.031912446 -0.89821613 156 133 119
0.25400183 -0.032121222 -0.8965289 143 133 117
0.25384003 -0.032818429 -0.89673185 147 132 118
0.25256377 -0.031588782 -0.89866096 160 133 120
0.25393268 -0.032675214 -0.89660317 145 133 117
0.25482729 -0.032934181 -0.8952803 134 133 116
0.25376973 -0.030549791 -0.89659816 140 134 116
0.2530441 -0.029902872 -0.89793903 147 134 117
0.25419405 -0.03082696 -0.89576578 135 133 116
0.25419152 -0.031446949 -0.89606661 138 133 116
0.25111577 -0.034027908 -0.89827633 176 132 124
0.25093374 -0.035973281 -0.89758843 176 134 124
0.25103024 -0.035497572 -0.89779961 176 134 124
0.25465068 -0.036964104 -0.89561856 143 134 117
0.25370359 -0.036402203 -0.89667803 153 134 119
0.25414985 -0.037078362 -0.89606869 148 135 118
0.25203109 -0.036269598 -0.89831883 170 135 122
0.2542257 -0.035920035 -0.89631432 148 133 118
0.25248349 -0.033491727 -0.89866185 166 132 121
0.25321975 -0.034499194 -0.89767522 158 132 120
0.25443259 -0.033511892 -0.89587694 141 132 117
0.2545718 -0.035227206 -0.89584857 143 133 117
0.25525659 -0.036140274 -0.89493918 135 134 115
0.25391418 -0.034276817 -0.89671439 149 132 118
0.25418395 -0.035422079 -0.89643657 148 133 118
0.25392142 -0.033684842 -0.89664322 148 132 118
0.2508679 -0.037944075 -0.89698696 176 135 124
0.25016394 -0.037390683 -0.8965351 180 135 124
0.25132635 -0.038294129 -0.89728415 175 135 123
0.25099745 -0.039006382 -0.89679378 176 134 123
0.25184211 -0.037400134 -0.89798898 171 136 122
0.2498184 -0.039262947 -0.89570439 181 135 125
0.25075686 -0.039874509 -0.89633697 178 134 124
0.25049159 -0.040042743 -0.89606559 178 135 124
0.25430208 -0.040031541 -0.89598799 150 134 117
0.25223625 -0.037545811 -0.89788169 168 136 121
0.25235093 -0.039212652 -0.89733672 168 135 121
0.25319481 -0.040714368 -0.89642328 161 134 120
0.25244418 -0.039993726 -0.89705884 167 134 121
0.25363967 -0.039837923 -0.89642161 156 134 119
0.25349528 -0.037253082 -0.89670068 155 135 119
0.25543934 -0.040253699 -0.89508396 140 133 116
0.25266796 -0.037656631 -0.89752823 164 135 121
0.25530449 -0.040360931 -0.89522225 141 133 116
0.2553505 -0.038517345 -0.89502501 138 133 116
0.25337681 -0.038571943 -0.8969239 159 135 120
0.25245881 -0.037465148 -0.89771307 166 135 121
0.25178552 -0.042291224 -0.89672947 173 134 123
0.25141165 -0.04171218 -0.89648992 174 135 123
0.25095162 -0.042195227 -0.89603293 176 135 124
0.25095752 -0.041896481 -0.89607853 176 135 124
0.2501671 -0.041163277 -0.89550543 180 135 124
0.25106716 -0.044247791 -0.89582354 177 135 124
0.24990949 -0.043256521 -0.89493936 181 136 124
0.25105906 -0.044873927 -0.89570552 177 136 123
0.25320747 -0.041179776 -0.89634788 162 133 120
0.25575596 -0.041656807 -0.89494789 139 133 116
0.255833 -0.042042505 -0.89496028 139 133 115
0.25439361 -0.043039791 -0.89606112 156 133 119
0.25264746 -0.041683178 -0.89678675 168 134 121
0.25416648 -0.041998021 -0.89594996 155 133 119
0.25578877 -0.043523163 -0.89533871 145 133 116
0.25267926 -0.043972507 -0.89647913 168 135 121
0.25452283 -0.043761279 -0.89608961 157 133 119
0.25355482 -0.044850942 -0.89616132 163 134 121
0.25304413 -0.042531583 -0.89659184 166 134 121
0.25201508 -0.04372175 -0.89666378 172 135 123
0.25274864 -0.0429851 -0.89659739 168 134 122
0.2506516 -0.045395285 -0.89531571 178 136 123
0.25184575 -0.045880999 -0.89639968 173 136 123
0.25095981 -0.045292415 -0.8955996 177 136 123
0.25087887 -0.048714943 -0.89542031 176 137 123
0.25110358 -0.048097253 -0.89565843 176 137 123
0.25064078 -0.048266828 -0.8952089 178 137 123
0.25568143 -0.047889054 -0.89607173 151 133 118
0.2548129 -0.04599287 -0.89585114 154 134 118
0.25386426 -0.047350571 -0.89610875 161 135 120
0.25362065 -0.048717491 -0.89632303 163 135 120
0.2557857 -0.045473978 -0.89571393 149 133 116
0.25533068 -0.045002673 -0.89574742 152 133 117
0.25337565 -0.045514677 -0.8961817 164 135 121
0.25315139 -0.04613528 -0.89622146 166 135 121
0.25355679 -0.046384688 -0.89612502 163 135 120
0.2547504 -0.045959592 -0.8958618 155 134 119
0.25230488 -0.046343442 -0.89640975 171 135 122
0.25603908 -0.048045456 -0.89547414 146 133 116
0.25586814 -0.046143781 -0.89577574 149 133 117
0.25604677 -0.046569601 -0.89522862 146 133 116
0.25138384 -0.050124593 -0.89597982 175 137 123
0.25152579 -0.051556841 -0.89620417 175 137 123
0.25178096 -0.050943665 -0.89641076 173 136 123
0.25137731 -0.052646641 -0.89607638 175 137 123
0.25042611 -0.050526895 -0.89502585 178 137 123
0.25084427 -0.052413408 -0.89550859 176 137 123
0.2553525 -0.04967007 -0.89637965 153 133 118
0.25583911 -0.049339533 -0.89637423 150 133 118
0.25550261 -0.05007134 -0.89655679 152 133 118
0.25580999 -0.050123964 -0.89664626 149 133 117
0.25541314 -0.052059136 -0.89724261 151 134 118
0.25525501 -0.050616119 -0.89669341 153 133 118
0.25280803 -0.050664898 -0.89650404 168 135 122
0.25225607 -0.049077637 -0.8964411 170 136 123
0.25414678 -0.050402254 -0.89640284 160 134 120
0.25352138 -0.049256384 -0.89637184 164 135 121
0.2545079 -0.049466278 -0.89632219 158 134 119
0.25646296 -0.052292623 -0.8954643 140 133 115
0.2560702 -0.052067872 -0.89666158 145 134 116
0.25594118 -0.04954493 -0.89618456 149 133 117
0.25594386 -0.051605351 -0.89690799 147 134 117
0.25651857 -0.051416032 -0.89495677 139 133 115
0.2517868 -0.055303484 -0.89700383 170 135 122
0.2518923 -0.05384177 -0.89683461 171 136 122
0.25127774 -0.054247238 -0.89626366 173 136 123
0.25038844 -0.053720932 -0.89524031 177 136 123
0.2500695 -0.05503086 -0.89520079 178 136 123
0.24971348 -0.055439241 -0.89493102 180 136 123
0.25012392 -0.05509077 -0.89526826 178 136 123
0.25102803 -0.054486759 -0.89604622 173 136 123
0.25355133 -0.055937581 -0.89764684 158 135 120
0.25555149 -0.056365278 -0.89812964 145 135 118
0.25347805 -0.056007054 -0.89764345 159 135 120
0.25483242 -0.054639116 -0.89769286 152 135 118
0.25460154 -0.056297645 -0.89792305 151 135 119
0.25381941 -0.055676494 -0.89765823 157 135 120
0.25535432 -0.053142808 -0.8975473 150 135 117
0.25231156 -0.055320635 -0.89726508 167 135 122
0.25491771 -0.053509358 -0.8975172 153 135 118
0.25307956 -0.05373184 -0.89713687 164 135 121
0.25497836 -0.052951682 -0.8974241 153 135 118
0.25419486 -0.053588033 -0.89736593 157 135 119
0.25638363 -0.056498505 -0.89619631 135 136 115
0.25618047 -0.056613851 -0.89699733 138 136 116
0.25591862 -0.054176483 -0.89759701 145 135 117
0.25588685 -0.055665057 -0.89796841 143 136 117
0.25644568 -0.05585051 -0.89584905 135 136 114
0.25635076 -0.052888371 -0.8959915 141 134 115
0.25618058 -0.053821128 -0.89657831 142 135 116
0.2566424 -0.054165918 -0.89508897 135 135 114
0.25660086 -0.054194663 -0.89522505 136 134 115
0.25085306 -0.057964496 -0.89667469 171 136 121
0.2513231 -0.057605252 -0.89705342 169 135 121
0.25168255 -0.05987924 -0.89800274 164 136 120
0.25168508 -0.058158718 -0.89755994 166 136 121
0.25152922 -0.059307661 -0.89770091 165 136 121
0.251077 -0.060239248 -0.89749861 167 136 120
0.25089207 -0.060093641 -0.8972767 169 136 121
0.24945542 -0.060361784 -0.89592904 179 135 122
0.25097281 -0.059882991 -0.89729989 168 136 121
0.24930413 -0.058739748 -0.89534372 180 135 122
0.25092009 -0.059413772 -0.89712173 169 136 121
0.25090802 -0.060416114 -0.89737916 169 136 121
0.25258523 -0.060366876 -0.89853764 158 136 119
0.25301617 -0.059976585 -0.8985526 156 136 119
0.25557193 -0.05831952 -0.89871705 145 135 118
0.25528672 -0.057969563 -0.89852101 146 135 118
0.25225231 -0.056681249 -0.89750797 166 134 122
0.25462642 -0.057432912 -0.89819056 149 136 118
0.25352409 -0.058375563 -0.8982079 155 136 119
0.25342423 -0.057538606 -0.8979708 156 136 119
0.25440341 -0.057119008 -0.89806348 151 135 119
0.2559731 -0.059477061 -0.89879084 142 134 117
0.25592536 -0.057535991 -0.89830112 142 135 117
0.25638485 -0.057898562 -0.89666164 136 135 115
0.25617936 -0.058160115 -0.89754504 139 135 116
0.25602061 -0.059541479 -0.898646 142 134 117
0.25634629 -0.058543168 -0.8970387 137 135 115
0.25652277 -0.058255706 -0.89615059 134 135 115
0.25676605 -0.060080733 -0.89505249 125 135 113
0.25670671 -0.058456235 -0.8951934 129 136 113
0.25652611 -0.059084117 -0.89622205 132 135 114
0.25665727 -0.05827859 -0.89543736 130 136 113
0.24764988 -0.063508667 -0.89496934 189 135 124
0.24856839 -0.062850498 -0.89576674 185 134 123
0.24972785 -0.063002832 -0.89693487 178 134 122
0.24909489 -0.062390402 -0.89614373 182 134 123
0.24997206 -0.063531168 -0.8973248 176 134 122
0.24981593 -0.064082958 -0.8973335 177 134 122
0.24923469 -0.064416759 -0.89686686 180 135 122
0.25069273 -0.063150465 -0.89792055 172 135 121
0.25161293 -0.061565865 -0.89839232 164 136 120
0.25042495 -0.060963996 -0.89705211 173 135 121
0.25164512 -0.061471276 -0.89839798 164 137 120
0.25109655 -0.061801109 -0.89794695 168 136 121
0.25148848 -0.061458029 -0.89823955 165 136 120
0.25153747 -0.061720613 -0.89836043 165 135 120
0.25189969 -0.061780252 -0.89875054 162 136 120
0.25371844 -0.060604788 -0.8988052 153 135 119
0.25635076 -0.062229402 -0.89716721 130 133 115
0.2562688 -0.063193657 -0.89874882 136 134 115
0.25639221 -0.063253768 -0.89751959 130 133 114
0.25643352 -0.064139754 -0.89776772 129 133 114
0.25651887 -0.063408025 -0.89632827 124 133 113
0.2566399 -0.062874556 -0.89555818 121 134 112
0.25613952 -0.060779344 -0.89841521 139 134 116
0.25632516 -0.060793445 -0.89742607 135 134 115
0.25634056 -0.061015394 -0.89732361 134 134 115
0.25621673 -0.060934629 -0.89799005 137 134 116
0.2567271 -0.061666429 -0.89520609 123 134 113
0.24800341 -0.066754706 -0.89636409 187 134 123
0.24787244 -0.066419318 -0.89610177 188 134 124
0.2476085 -0.067709841 -0.89617091 189 134 124
0.24773864 -0.067979269 -0.89641064 189 134 124
0.25023362 -0.067295156 -0.89863712 174 135 121
0.2505191 -0.066284113 -0.89863586 173 135 121
0.25035185 -0.06579861 -0.89835483 173 135 121
0.25050724 -0.066479735 -0.8986761 173 135 121
0.25026679 -0.065312944 -0.89813632 174 134 122
0.24825254 -0.067014068 -0.89669502 186 134 123
0.24837656 -0.064857572 -0.8961671 185 134 123
0.24870539 -0.064509004 -0.89638108 183 134 123
0.24871202 -0.065487921 -0.89668179 183 134 123
0.25016388 -0.064600259 -0.89782238 174 135 121
0.25038868 -0.065340869 -0.89826286 173 135 121
0.25642538 -0.067340784 -0.89691454 125 133 115
0.25642866 -0.066816539 -0.89713997 126 133 114
0.25635985 -0.065635219 -0.89822018 132 133 114
0.25642508 -0.066531718 -0.89730275 127 133 115
0.25653276 -0.067974679 -0.89580572 119 133 115
0.25650263 -0.065538675 -0.89698768 125 133 114
0.25652197 -0.065267995 -0.89686358 124 133 113
0.25667608 -0.066076711 -0.89504468 116 132 113
0.25656167 -0.066531055 -0.89609951 120 133 114
0.25663608 -0.067942873 -0.89493459 114 132 115
0.24683592 -0.068437591 -0.89545512 193 133 125
0.24693339 -0.069399729 -0.89586568 190 134 124
0.24799515 -0.069330148 -0.89713216 186 134 123
0.24761263 -0.070901841 -0.89714575 185 134 123
0.24687351 -0.071090557 -0.89636713 187 135 124
0.2468676 -0.071444541 -0.8964811 187 135 124
0.24678773 -0.071383901 -0.89637065 187 135 124
0.24742152 -0.071822993 -0.89723283 183 135 123
0.24690862 -0.071053304 -0.8963939 187 135 124
0.24658321 -0.071869433 -0.8963061 187 135 124
0.24907616 -0.0710968 -0.89863521 176 136 121
0.24860308 -0.07056471 -0.89808261 180 135 122
0.24882765 -0.069562539 -0.89798516 181 134 123
0.2496652 -0.069238521 -0.89865857 176 135 122
0.24813607 -0.069846682 -0.89743406 184 135 123
0.25612774 -0.070243545 -0.89808244 133 132 114
0.25613773 -0.071884155 -0.89760011 129 133 114
0.25621036 -0.071347326 -0.89634639 127 133 114
0.25615636 -0.070002854 -0.89759415 132 132 114
0.25612432 -0.070590042 -0.89808339 132 133 114
0.25624034 -0.069965743 -0.89674401 128 132 114
0.25622889 -0.068566911 -0.89776564 132 132 115
0.25631589 -0.070044182 -0.89612412 125 132 115
0.25616208 -0.068372674 -0.89839756 135 133 114
0.25624219 -0.069360003 -0.89713544 129 132 114
0.2462469 -0.075553663 -0.89755189 184 136 124
0.24564086 -0.076153144 -0.89721394 185 136 125
0.24681371 -0.075547695 -0.89813483 182 136 123
0.24555229 -0.074520282 -0.89633715 188 136 125
0.24487068 -0.07579045 -0.89624357 188 136 126
0.24579915 -0.073265657 -0.89599478 189 136 125
0.24772198 -0.073563889 -0.89828652 180 135 123
0.24640329 -0.072962977 -0.89654231 187 136 124
0.24727958 -0.075380325 -0.89857966 180 136 123
0.24634556 -0.073992103 -0.89692533 186 136 124
0.24877031 -0.072416574 -0.89873463 176 136 121
0.25586528 -0.076021537 -0.89835536 122 134 112
0.25609258 -0.075018786 -0.89652371 107 134 112
0.25604767 -0.073003173 -0.89851105 128 133 114
0.25606075 -0.074265465 -0.89743429 116 134 113
0.25610042 -0.074785776 -0.89660865 108 134 112
0.25616825 -0.073265575 -0.89640158 117 134 113
0.25613788 -0.073359743 -0.89691365 119 134 114
0.25622103 -0.073152386 -0.89548397 116 133 113
0.25614926 -0.074033491 -0.89632356 111 134 113
0.25613871 -0.074865751 -0.89605182 104 135 112
0.25616235 -0.074237742 -0.89596486 109 134 113
0.2446779 -0.079532206 -0.89840132 177 137 126
0.24542254 -0.076209381 -0.89702159 185 136 125
0.24495798 -0.07687936 -0.89697653 184 137 125
0.24441126 -0.076848201 -0.89639133 186 136 126
0.24504867 -0.078769535 -0.89829743 178 137 125
0.24534856 -0.076394148 -0.89706516 185 136 125
0.24451315 -0.077532843 -0.89694107 184 137 125
0.24492568 -0.078825861 -0.89820695 178 137 125
0.25572553 -0.07634861 -0.89861697 124 133 114
0.25568205 -0.076868966 -0.89858919 122 134 113
0.25559714 -0.078150138 -0.89846385 117 133 113
0.25563091 -0.077713631 -0.89845264 118 134 113
0.25559357 -0.07894519 -0.89783651 108 135 112
0.25562513 -0.078153253 -0.89814812 114 134 112
0.25588909 -0.07641767 -0.8977294 115 135 112
0.25495484 -0.083068751 -0.89842075 110 132 118
0.25510281 -0.082056046 -0.89742965 102 133 115
0.25512391 -0.081953965 -0.89805865 108 132 115
0.25508979 -0.082181446 -0.89817941 109 132 116
0.25532845 -0.080643646 -0.89832598 110 134 113
0.25457039 -0.085464872 -0.89802021 99 133 121
0.25471944 -0.084549196 -0.89745116 101 132 120
0.25470918 -0.084639534 -0.8978616 104 132 120
0.23809175 0.0076543186 -0.8837291 158 130 114
0.23745179 0.0084588267 -0.88365734 173 127 119
0.23804301 0.0071077854 -0.88434476 158 132 115
0.23732935 0.0054984442 -0.88682038 176 135 122
0.23853408 0.0044129859 -0.88649935 163 133 118
0.23866056 0.0039048628 -0.8868621 166 133 119
0.23771121 0.005708375 -0.88616151 165 136 118
0.23733523 0.005759615 -0.88655078 173 136 121
0.23857179 0.0047677117 -0.88609838 157 134 116
0.24749047 -0.020325717 -0.8989529 173 133 124
0.24763195 -0.020299049 -0.89904499 172 133 124
0.24864168 -0.020066513 -0.89885271 165 133 123
0.24839403 -0.020443361 -0.89916354 168 133 123
0.24784248 -0.023633856 -0.89936572 180 131 125
0.24722441 -0.022918299 -0.89901233 180 131 125
0.24795385 -0.023811977 -0.899423 180 131 125
0.24853674 -0.023409246 -0.89944917 173 132 124
0.24859558 -0.022920853 -0.89950144 171 132 124
0.24877603 -0.022977915 -0.8994596 169 133 123
0.24929819 -0.023207081 -0.89923435 165 133 122
0.24966051 -0.022462234 -0.89886206 160 133 121
0.24978463 -0.028378241 -0.89897043 176 131 124
0.24917307 -0.026986144 -0.89923745 179 131 125
0.25182655 -0.026675798 -0.89887136 148 135 118
0.25076687 -0.025816282 -0.89887708 157 133 120
0.25078273 -0.027615298 -0.89940655 165 133 121
0.2503632 -0.026612321 -0.89919633 165 133 121
0.25032645 -0.02573052 -0.89894801 161 133 121
0.25202236 -0.028125318 -0.89919621 153 135 118
0.25152573 -0.031990767 -0.89912379 172 132 123
0.25150445 -0.032032508 -0.89910775 172 132 122
0.25124955 -0.032114517 -0.89888614 173 131 123
0.25242233 -0.032093648 -0.89884359 163 132 121
0.25199422 -0.029378884 -0.89960545 160 135 119
0.25202349 -0.03393307 -0.8989529 171 132 122
0.25548458 -0.059645072 -0.89905572 145 134 118
0.25585884 -0.058504794 -0.89885372 144 134 118
0.25585976 -0.058658257 -0.89889419 143 134 117
0.25168824 -0.063784793 -0.89911431 164 136 120
0.25240132 -0.062760405 -0.8991884 160 136 119
0.25273535 -0.061911535 -0.899001 158 136 119
0.25342762 -0.061745971 -0.89909977 155 136 118
0.25301406 -0.06307146 -0.89944172 157 136 118
0.25449759 -0.063671954 -0.89995468 149 135 116
0.25478926 -0.06326557 -0.89991039 148 135 116
0.25376216 -0.062948681 -0.89960092 154 135 118
0.25332633 -0.06321419 -0.89957613 156 136 118
0.25256342 -0.064219438 -0.89967656 159 136 118
0.25347686 -0.064160705 -0.89986116 155 135 117
0.25588742 -0.06135501 -0.89954233 143 134 117
0.25600266 -0.063743003 -0.89979804 139 134 114
0.2558679 -0.06161559 -0.89967614 143 134 116
0.25616333 -0.062433165 -0.8989476 139 133 116
0.25168461 -0.06683062 -0.89992869 167 135 120
0.25134423 -0.064505875 -0.89894885 168 135 120
0.25085163 -0.067954957 -0.89941943 171 136 120
0.25079462 -0.067143247 -0.89913535 172 135 121
0.25116411 -0.067930914 -0.89972174 170 136 121
0.25169703 -0.068017513 -0.90027308 167 136 120
0.25313482 -0.068019122 -0.90050542 159 135 119
0.25572717 -0.065978266 -0.90035403 142 134 115
0.25309211 -0.068202153 -0.90049583 159 136 118
0.25521299 -0.067207575 -0.90031761 146 134 116
0.25550625 -0.067317821 -0.90027297 145 133 116
0.25381616 -0.067432851 -0.90046966 155 134 118
0.25393251 -0.065405525 -0.90028679 153 135 117
0.25367859 -0.064889126 -0.90009671 154 135 117
0.25214469 -0.064842917 -0.8997485 162 136 118
0.25386068 -0.06579899 -0.90037352 153 135 117
0.25261316 -0.06553831 -0.90003228 160 136 118
0.25530192 -0.064617068 -0.90038162 144 134 115
0.25597483 -0.066399917 -0.89968586 140 133 115
0.25607213 -0.068260208 -0.89901656 138 132 114
0.25627971 -0.064787999 -0.89900297 135 134 114
0.25611261 -0.067203201 -0.89904833 137 133 114
0.25610983 -0.066075526 -0.8992936 138 133 115
0.25117287 -0.068608589 -0.8999061 169 136 120
0.25027332 -0.068394981 -0.89896888 175 135 121
0.25183749 -0.069168061 -0.90068817 165 136 120
0.2515308 -0.068887532 -0.90032226 167 136 120
0.2513693 -0.072024442 -0.90090805 164 137 119
0.25018689 -0.068907171 -0.89901787 174 135 121
0.25013596 -0.068663538 -0.89890707 175 135 121
0.2502526 -0.06882263 -0.89905369 174 135 121
0.25083619 -0.071193889 -0.9002102 168 136 120
0.25000533 -0.06952253 -0.89902121 174 135 121
0.2536492 -0.070678458 -0.90090907 153 135 117
0.25376749 -0.070849262 -0.90087092 152 135 117
0.25550842 -0.071326107 -0.90029103 141 133 115
0.25523564 -0.072054416 -0.90038925 142 133 115
0.25301099 -0.071348064 -0.90112942 155 136 117
0.25550291 -0.069391578 -0.90027505 143 133 116
0.25239226 -0.068778232 -0.90066195 162 136 119
0.25471631 -0.06879992 -0.90038353 149 134 117
0.2542544 -0.06914632 -0.90051711 151 134 117
0.25427127 -0.069437988 -0.90058005 151 135 117
0.25237688 -0.069929793 -0.90092051 161 136 119
0.25415403 -0.069236398 -0.90054935 151 134 117
0.25600734 -0.071629301 -0.89921498 134 133 114
0.25594792 -0.070443712 -0.89958906 138 133 115
0.25606978 -0.070668966 -0.89890134 134 133 114
0.25605795 -0.068479821 -0.89907819 138 133 114
0.24790712 -0.076043308 -0.89951056 178 135 123
0.24911171 -0.075163059 -0.90015632 173 135 121
0.24986705 -0.074213423 -0.90037626 169 135 120
0.24932376 -0.074689738 -0.90013194 172 135 121
0.24881162 -0.074512452 -0.89964092 174 136 121
0.25016728 -0.073955707 -0.90051353 168 135 120
0.2493035 -0.075956397 -0.90064287 171 135 121
0.24908526 -0.075729437 -0.9003706 173 135 122
0.25062895 -0.07259737 -0.90043312 167 137 119
0.25168958 -0.075747818 -0.9025178 160 135 119
0.25109065 -0.074051186 -0.90137041 163 136 119
0.25129586 -0.075199686 -0.90196872 162 135 119
0.24955732 -0.072825208 -0.89956075 171 136 120
0.2518633 -0.074632697 -0.90226889 160 135 119
0.25302714 -0.075975582 -0.90193802 151 133 118
0.25561461 -0.075002514 -0.89937425 131 133 114
0.25396419 -0.074699342 -0.90112585 146 133 117
0.2550185 -0.073800869 -0.90042591 140 133 115
0.25411668 -0.075207569 -0.90077978 143 134 116
0.25545657 -0.073462166 -0.90012175 138 133 115
0.25568181 -0.073014647 -0.90007037 137 132 115
0.2555877 -0.074846692 -0.89946061 132 133 114
0.25490722 -0.074647591 -0.90021133 139 133 116
0.25391638 -0.072515056 -0.90092397 149 135 117
0.25246122 -0.074209131 -0.90202421 157 135 119
0.2527017 -0.072971404 -0.90149647 156 135 118
0.2526316 -0.072361864 -0.90129989 156 136 118
0.25336695 -0.072807208 -0.90121388 152 135 117
0.2559475 -0.072473101 -0.8995198 134 133 114
0.25587851 -0.074438617 -0.89912456 129 133 113
0.24788691 -0.07921987 -0.90123922 170 136 124
0.24764675 -0.07888674 -0.90081936 171 137 124
0.24611235 -0.078415737 -0.8991105 176 137 124
0.24644484 -0.07855998 -0.89950514 175 137 124
0.24614446 -0.078265481 -0.89905381 177 137 124
0.24715327 -0.078375518 -0.90006208 174 137 124
0.24633162 -0.078612678 -0.8994295 175 137 124
0.24755909 -0.079110056 -0.90086621 171 136 124
0.25078243 -0.077262156 -0.90253389 161 135 120
0.25052685 -0.077547319 -0.90248162 161 135 121
0.25004783 -0.077455379 -0.90205306 164 135 121
0.24834786 -0.079651214 -0.90188968 166 137 123
0.25092861 -0.076619886 -0.90230578 162 135 120
0.24883385 -0.0792327 -0.90205276 165 137 123
0.24843468 -0.076565273 -0.90024364 174 136 122
0.24999097 -0.076816387 -0.9016512 166 135 121
0.24957541 -0.078257345 -0.90211433 164 135 122
0.25446644 -0.079139262 -0.90138209 132 134 115
0.25350308 -0.077605493 -0.90251499 146 133 118
0.25460199 -0.078933097 -0.90017933 128 133 114
0.25420013 -0.078966498 -0.90231627 138 134 117
0.25381896 -0.07819894 -0.90236735 142 134 117
0.25319031 -0.076968782 -0.90253985 149 133 118
0.25484625 -0.077736802 -0.89982158 129 133 114
0.25470835 -0.078625903 -0.89991599 127 134 114
0.25485456 -0.077983208 -0.89978606 128 133 114
0.25530341 -0.076801963 -0.89930838 128 133 114
0.25352657 -0.077228747 -0.90162182 144 133 117
0.25525215 -0.079549 -0.89910316 118 134 113
0.24415383 -0.080907784 -0.89893192 173 138 127
0.24495947 -0.081227951 -0.89994383 167 138 128
0.2452094 -0.082662985 -0.90136373 157 138 132
0.24468225 -0.081175171 -0.89967048 168 138 128
0.24564144 -0.083669193 -0.90259176 149 138 135
0.24590896 -0.080329739 -0.90008736 170 137 126
0.24638519 -0.081853777 -0.90179062 159 137 130
0.2458365 -0.080974258 -0.90055126 167 137 127
0.24564737 -0.0825684 -0.90168917 157 138 132
0.24710798 -0.080613792 -0.90144461 165 137 126
0.24696821 -0.081506051 -0.90204978 160 137 128
0.24668708 -0.082522772 -0.90259176 154 137 131
0.24590431 -0.083546124 -0.90272081 150 137 135
0.25472036 -0.081863493 -0.90133154 125 133 119
0.25477931 -0.083146788 -0.8997975 117 133 120
0.25477096 -0.083563648 -0.90044117 115 132 121
0.25471029 -0.083231315 -0.90272635 115 132 120
0.25474429 -0.083895072 -0.9017871 112 132 120
0.25473908 -0.083883151 -0.90199512 112 132 120
0.25494471 -0.082148582 -0.89962375 118 133 118
0.25482538 -0.08130499 -0.90089953 125 133 118
0.25509095 -0.08169657 -0.8992328 116 133 116
0.25511068 -0.0818047 -0.89904654 115 133 116
0.25514904 -0.080337837 -0.90000814 121 133 114
0.25436819 -0.086134255 -0.90211314 80 136 125
0.2544314 -0.085866645 -0.90130371 89 134 122
0.25458738 -0.084794581 -0.90258718 98 133 122
0.25432339 -0.086350031 -0.90247697 74 136 126
0.25457177 -0.085338868 -0.89923501 98 133 121
0.2546666 -0.084759541 -0.89947635 104 133 121
0.25466713 -0.08438345 -0.90217108 107 132 121
0.25443482 -0.085940391 -0.90058011 91 134 122
0.25457603 -0.085066885 -0.90102106 100 133 121
0.23641793 0.0060207765 -0.88732678 186 137 125
0.23604083 0.0026323129 -0.89091283 187 135 126
0.23628557 0.0040013823 -0.88952804 186 136 125
0.23662257 0.002883998 -0.89040148 185 135 125
0.23655801 0.003145555 -0.8901943 185 136 125
0.23685803 0.0038247278 -0.88916594 184 136 124
0.23710854 0.0032864395 -0.88943064 181 135 124
0.23867278 0.0025509738 -0.88827282 170 132 121
0.23962189 0.002309666 -0.88735235 162 131 118
0.23738173 0.0021426515 -0.89030856 180 134 124
0.23838553 0.0035985587 -0.88751477 171 133 121
0.23853014 0.0021237363 -0.88890427 171 132 121
0.23746897 0.0030928557 -0.88918954 179 134 123
0.23707084 0.0031141709 -0.88966066 182 135 125
0.23858 0.00079531944 -0.89054054 176 135 123
0.24003927 -0.00059200462 -0.89055562 172 135 121
0.23930067 0.00093640515 -0.88944668 170 133 120
0.2393546 0.0012621917 -0.88894457 168 132 120
0.24011455 -0.0009782929 -0.89097595 173 136 122
0.23824315 0.0012507925 -0.89035678 176 135 123
0.23953663 -0.00042714714 -0.89096767 175 136 123
0.2411014 -0.00041321234 -0.88841105 162 131 119
0.24119809 8.9196255e-05 -0.88752973 160 130 118
0.24168727 -0.0005173164 -0.88737845 159 129 118
0.24196975 -0.00096109568 -0.8874191 159 129 118
0.24098393 -0.00038571155 -0.88860905 164 132 119
0.24120183 -0.00015472283 -0.88785595 161 130 119
0.24027587 -0.00047545845 -0.89008045 169 135 120
0.24056317 -0.0012717757 -0.89062721 171 135 121
0.24268629 -0.0027868678 -0.88894838 161 132 120
0.24086529 -0.0019611679 -0.8910082 172 135 122
0.24331093 -0.0032788031 -0.88873243 158 131 119
0.24186295 -0.0026120499 -0.89034635 167 134 121
0.2416342 -0.0023648888 -0.89026791 168 134 121
0.24159352 -0.0024970807 -0.89066803 169 134 122
0.24148548 -0.0024845502 -0.89087594 170 135 122
0.2413974 -0.0020834568 -0.8901726 169 133 121
0.24235798 -0.0023601837 -0.88877308 162 131 120
0.24460928 -0.0052132877 -0.89000309 156 133 121
0.24461064 -0.0047348277 -0.88887256 153 131 119
0.24424472 -0.0048118946 -0.89019078 159 133 121
0.24733104 -0.0085862 -0.89008015 146 133 119
0.24782549 -0.0092475312 -0.89043617 145 134 119
0.24702106 -0.008258298 -0.8902033 147 133 120
0.24604256 -0.0072474075 -0.8906886 152 134 121
0.24631551 -0.0073832758 -0.88996953 150 132 120
0.24757208 -0.0090156067 -0.89068121 146 135 120
0.25722429 -0.055744279 -0.8900575 96 136 110
0.25709197 -0.05694424 -0.8906951 94 136 110
0.25730544 -0.061317604 -0.89004874 94 134 112
0.25189438 -0.078759067 -0.90402126 154 135 120
0.25168011 -0.078167252 -0.90358806 156 135 120
0.25156698 -0.0773715 -0.9031387 158 135 120
0.25183433 -0.078550354 -0.90387917 155 135 120
0.25003719 -0.079165868 -0.90281349 161 136 123
0.25281245 -0.077825457 -0.9030444 150 134 119
0.2528955 -0.079397172 -0.90368879 147 135 119
0.25436917 -0.079951316 -0.90288246 137 134 118
0.2520169 -0.078662023 -0.90398824 154 135 120
0.25275922 -0.077264808 -0.90285587 151 134 119
0.2476614 -0.081728943 -0.90278643 157 137 127
0.24718754 -0.08391282 -0.90415508 139 137 133
0.24747981 -0.083352923 -0.90395534 142 138 131
0.24866273 -0.081755474 -0.9035939 150 136 127
0.2483152 -0.082602017 -0.90403616 145 137 129
0.24986489 -0.082316205 -0.90471727 144 135 128
0.2495665 -0.081723869 -0.90409815 149 136 127
0.24881025 -0.082017541 -0.90389949 147 136 127
0.24906047 -0.082855925 -0.90467948 141 136 129
0.24928235 -0.080830522 -0.90325719 156 136 125
0.24880546 -0.083097719 -0.9047215 139 136 130
0.25007808 -0.080339506 -0.90344054 157 136 123
0.25137818 -0.082420759 -0.90583634 138 135 126
0.25016606 -0.080646127 -0.90371579 155 136 124
0.25018191 -0.081903659 -0.90458626 146 136 126
0.25109604 -0.08156132 -0.905038 145 135 124
0.25170571 -0.08129447 -0.90530616 145 136 123
0.25208822 -0.081803672 -0.90568233 141 134 124
0.25445807 -0.080205508 -0.90295792 135 135 117
0.25255251 -0.082297519 -0.90567201 135 134 124
0.25433785 -0.08048223 -0.90322262 134 135 118
0.25214088 -0.080598377 -0.9048695 147 135 121
0.25326553 -0.08236213 -0.90520352 130 134 123
0.25437933 -0.082516022 -0.90335518 122 133 120
0.25464743 -0.081582338 -0.90280104 125 134 118
0.25410202 -0.081530057 -0.90386313 130 134 120
0.25460377 -0.081184603 -0.9028728 128 134 118
0.25413555 -0.082676798 -0.90383613 122 134 121
0.25423554 -0.082821086 -0.90364587 121 133 121
0.24564205 -0.084426418 -0.90328443 132 138 135
0.24826781 -0.083995074 -0.90510696 133 136 132
0.2498243 -0.084139816 -0.90610164 126 136 131
0.25022793 -0.08438646 -0.90653908 117 136 130
0.25315419 -0.085380383 -0.90585876 94 136 128
0.25359955 -0.085172534 -0.90452844 98 135 127
0.25446615 -0.085132167 -0.90285152 93 134 123
0.25390103 -0.086443335 -0.90351588 74 137 128
0.25388318 -0.084713541 -0.90412843 104 134 124
0.25393713 -0.08551199 -0.90375656 90 135 126
0.25384313 -0.084644563 -0.90422964 106 133 125
0.24984695 -0.085425988 -0.9072513 85 135 129
0.25004101 -0.085123219 -0.90709126 94 135 130
0.25061715 -0.08433494 -0.90671659 119 135 130
0.25009182 -0.085408211 -0.90739036 85 135 129
0.25031751 -0.085755393 -0.90784484 72 135 128
0.25237545 -0.084486559 -0.90702444 113 134 129
0.2531673 -0.086042508 -0.90673083 72 138 129
0.23733164 0.0090627167 -0.88319117 176 125 120
0.23736976 0.0097358357 -0.88279623 171 125 121
0.23824315 0.0088167237 -0.88275051 149 129 115
0.23632863 0.002064582 -0.89139372 186 135 126
0.23627175 0.001346336 -0.89177448 188 134 126
0.23946895 -0.00049811427 -0.89109039 175 136 122
0.24008423 -0.001390271 -0.89142174 174 136 122
0.23783785 0.00044611061 -0.8916176 181 135 124
0.23746143 0.00081441156 -0.89158726 183 134 125
0.23898834 -0.0013295817 -0.89206105 179 135 124
0.2386401 -0.0012201208 -0.89215457 181 135 124
0.23854484 -0.0016482025 -0.89242327 182 135 124
0.24024336 -0.0012433234 -0.89112604 173 136 122
0.23987831 -0.002452042 -0.89222974 177 135 123
0.23909222 -0.0033196392 -0.89286309 181 135 124
0.23980142 -0.0025172734 -0.8922745 177 136 123
0.23934001 -0.0037678492 -0.89329451 182 135 124
0.23926868 -0.0049057812 -0.89427823 186 135 125
0.23980826 -0.004336853 -0.89386678 183 135 125
0.23852484 -0.0023701938 -0.89271063 183 135 125
0.23801044 -0.0024154559 -0.89294714 186 135 125
0.24155371 -0.0029284318 -0.89147806 170 136 122
0.24142349 -0.0025140615 -0.89105618 171 135 122
0.24256928 -0.0039552022 -0.89161873 167 135 122
0.2412784 -0.0028973904 -0.89182568 171 136 122
0.24310128 -0.0047827703 -0.89216632 165 136 122
0.24165806 -0.0037350575 -0.89234996 171 135 122
0.2406303 -0.0025030014 -0.89203638 174 135 122
0.24070518 -0.0033470718 -0.89271891 176 135 123
0.24069473 -0.0041484372 -0.89342743 178 135 123
0.24301393 -0.005394768 -0.89279366 167 136 123
0.24330118 -0.0053407243 -0.89253294 165 136 122
0.24243775 -0.0044994564 -0.89243901 168 136 122
0.24208398 -0.0058485935 -0.893902 174 136 123
0.24363238 -0.0063654296 -0.89322996 165 136 122
0.24345939 -0.0059261802 -0.89293998 165 136 122
0.2424975 -0.0069845156 -0.8946777 174 135 123
0.24181047 -0.0066006565 -0.89482808 178 135 124
0.24350668 -0.0079273703 -0.8948195 169 135 122
0.24577986 -0.0072502233 -0.8914305 154 135 121
0.245252 -0.0065603955 -0.89128494 156 135 121
0.24549884 -0.0072016884 -0.89197862 156 136 121
0.24496335 -0.0081808809 -0.89359623 160 135 121
0.24545622 -0.0072236015 -0.89208806 156 136 121
0.24504517 -0.0073110834 -0.89266551 158 135 121
0.24536142 -0.0074830558 -0.89245021 157 136 121
0.24666797 -0.009014586 -0.89234638 151 136 120
0.24656801 -0.0084684892 -0.89194387 151 135 121
0.24416859 -0.0079569221 -0.89433658 164 135 121
0.2454682 -0.0093972525 -0.89450687 157 134 120
0.24624567 -0.0096137235 -0.89375728 153 135 120
0.24716294 -0.010423827 -0.89356375 148 134 120
0.24691764 -0.0099248774 -0.89325893 150 134 120
0.24721469 -0.010821127 -0.89401489 148 134 120
0.24793153 -0.011824234 -0.89430308 144 134 120
0.24816638 -0.011883949 -0.89384526 144 134 120
0.24822052 -0.012738343 -0.8948096 144 134 120
0.2484706 -0.01271753 -0.89398313 145 134 120
0.24992561 -0.015779631 -0.89485329 138 132 119
0.24996035 -0.015418738 -0.8942883 134 132 118
0.25542527 -0.037518464 -0.89481646 135 134 115
0.25582764 -0.040000834 -0.89452958 135 133 114
0.25611278 -0.040756498 -0.89362329 129 132 114
0.24896 -0.044581737 -0.89395434 186 135 125
0.24987164 -0.043751206 -0.89482874 181 135 124
0.24919164 -0.044885661 -0.89409542 185 135 125
0.24870238 -0.043264322 -0.89395159 186 135 125
0.25599888 -0.04303094 -0.89466476 139 133 115
0.25628176 -0.043123856 -0.89354742 133 132 115
0.25608498 -0.044544674 -0.89471424 143 132 115
0.256172 -0.042120565 -0.89372736 132 132 114
0.25648314 -0.043292936 -0.89272642 129 132 114
0.24963336 -0.048481882 -0.8942982 182 137 124
0.25013819 -0.046302587 -0.89481127 180 136 124
0.2496084 -0.046271183 -0.89435089 182 136 124
0.25003949 -0.045674182 -0.89474642 181 136 124
0.24944885 -0.045108166 -0.89428753 184 135 124
0.25008765 -0.045096554 -0.89480937 180 135 124
0.25608775 -0.045245532 -0.89485806 144 133 116
0.25632718 -0.047000304 -0.89417726 140 133 115
0.25689057 -0.048683304 -0.89209974 129 133 113
0.25618643 -0.0469504 -0.89476836 143 133 116
0.2564061 -0.047231562 -0.89388531 139 133 115
0.25685862 -0.047457922 -0.89198124 128 133 113
0.25704581 -0.047875006 -0.89125067 124 133 112
0.25679705 -0.046973288 -0.89213639 129 133 113
0.25620395 -0.044956136 -0.89428109 141 133 115
0.25686526 -0.045360342 -0.89143819 127 132 114
0.24922201 -0.051471535 -0.89396995 180 138 124
0.25015241 -0.050451025 -0.89476693 179 137 123
0.25026807 -0.049711108 -0.89485484 179 137 123
0.24982771 -0.050389376 -0.89448118 179 138 123
0.24829014 -0.050779905 -0.89314574 184 138 124
0.24999076 -0.048927505 -0.89459932 180 137 124
0.25686568 -0.0523692 -0.89283741 127 134 113
0.25680348 -0.051948588 -0.89297032 128 134 113
0.2567676 -0.052290235 -0.89364892 131 133 113
0.25656021 -0.051102452 -0.89431334 137 133 114
0.25663832 -0.051923554 -0.89444816 136 133 114
0.25687879 -0.05022322 -0.892111 127 134 113
0.25659728 -0.04883701 -0.89337927 135 133 114
0.25706193 -0.048870724 -0.89139432 125 133 113
0.25674611 -0.050710637 -0.89265388 129 133 113
0.25674582 -0.049129259 -0.89273125 131 133 114
0.2570596 -0.04940147 -0.8913787 124 133 112
0.24798946 -0.053138483 -0.89297312 183 138 124
0.24845704 -0.056418002 -0.89400649 183 137 123
0.24985954 -0.054604858 -0.89490169 179 136 123
0.24964449 -0.055547919 -0.89488953 180 136 123
0.24920182 -0.053370405 -0.89409316 181 137 123
0.24962662 -0.053789604 -0.89454317 180 137 123
0.24894172 -0.053106077 -0.89381623 181 138 124
0.24823919 -0.05348213 -0.89327008 183 138 124
0.25670016 -0.054312512 -0.89486408 134 134 114
0.25684658 -0.056187104 -0.89334261 117 136 112
0.25677475 -0.054175932 -0.89394408 127 134 114
0.25678197 -0.054595556 -0.89391261 125 135 113
0.2567018 -0.053672519 -0.89475918 134 134 114
0.25686574 -0.054213315 -0.89299524 120 134 113
0.25684273 -0.054251872 -0.89319909 121 134 113
0.25698408 -0.052782446 -0.89212775 122 134 112
0.24794246 -0.058653031 -0.89404321 187 136 123
0.2478725 -0.056888867 -0.89353544 185 137 123
0.24834347 -0.058100462 -0.89429849 185 136 123
0.24892233 -0.057804491 -0.89473778 183 135 123
0.24843562 -0.057525575 -0.89424175 184 136 123
0.25678617 -0.058013104 -0.8945927 127 135 113
0.25714937 -0.060049351 -0.89175981 106 135 112
0.25689158 -0.06032623 -0.89407712 119 135 112
0.25689974 -0.058012299 -0.89359349 120 136 113
0.25684139 -0.057933755 -0.89409286 124 135 113
0.25681826 -0.056675632 -0.89376724 121 136 113
0.25712183 -0.059361145 -0.89175886 106 135 112
0.25710741 -0.058320254 -0.89128911 101 135 112
0.2567569 -0.063771307 -0.89474142 116 133 112
0.2567634 -0.063158952 -0.89479899 117 133 112
0.25691605 -0.063254647 -0.89266163 105 134 112
0.25706351 -0.063333839 -0.89116013 96 134 112
0.25686294 -0.060812011 -0.89423102 119 135 112
0.25686815 -0.060580365 -0.89430499 120 135 112
0.25670058 -0.068056494 -0.89399934 103 134 113
0.25680616 -0.066128455 -0.89325887 95 135 111
0.25673658 -0.066271678 -0.89417219 106 134 112
0.25669301 -0.067155123 -0.89444494 109 133 113
0.25682241 -0.065458268 -0.89328796 100 134 111
0.25689307 -0.064754069 -0.89257711 100 134 111
0.25659475 -0.069340698 -0.89436358 113 132 115
0.25642332 -0.07082092 -0.89475697 118 132 114
0.25649008 -0.069921963 -0.89488941 117 132 114
0.25654119 -0.071476221 -0.89300531 107 133 114
0.25646222 -0.07210584 -0.89323312 110 133 114
0.25669485 -0.070832714 -0.89188778 96 134 113
0.2567189 -0.068517223 -0.89349759 98 135 113
0.25667977 -0.070401922 -0.89245933 100 134 114
0.25629407 -0.073633224 -0.89372391 104 135 112
0.25629884 -0.074074365 -0.89334583 99 136 112
0.25625306 -0.073810466 -0.89446837 107 134 113
0.25630778 -0.07375937 -0.89339477 102 135 113
0.25635445 -0.07291586 -0.89362645 108 134 113
0.2565895 -0.072354361 -0.89175326 100 134 113
0 0 0 1 0 0 0 1 0 0 0 1 0 0 0 0 0 864 1 0 0
