ply
format ascii 1.0
comment PCL generated
element vertex 604
property float x
property float y
property float z
property uchar red
property uchar green
property uchar blue
element camera 1
property float view_px
property float view_py
property float view_pz
property float x_axisx
property float x_axisy
property float x_axisz
property float y_axisx
property float y_axisy
property float y_axisz
property float z_axisx
property float z_axisy
property float z_axisz
property float focal
property float scalex
property float scaley
property float centerx
property float centery
property int viewportx
property int viewporty
property float k1
property float k2
end_header
0.25913322 -0.29821932 -0.84804571 10 132 123
0.25983405 -0.29829985 -0.84796244 10 132 123
0.26196811 -0.29820472 -0.848023 11 132 122
0.26125932 -0.29925212 -0.8477174 10 132 123
0.2608225 -0.2990768 -0.84775782 10 132 123
0.26089361 -0.29948768 -0.84764093 10 132 123
0.26647452 -0.30020723 -0.84764731 10 132 123
0.26721713 -0.30000255 -0.84774172 10 132 123
0.26708815 -0.29914257 -0.84793782 10 132 121
0.26831999 -0.29932347 -0.84801751 10 132 123
0.26759675 -0.30089441 -0.84756023 10 132 124
0.24307509 -0.30646411 -0.84789079 8 132 122
0.23969941 -0.31012025 -0.84732324 9 132 123
0.24008738 -0.3087461 -0.84776646 9 132 123
0.24168515 -0.30754203 -0.84781957 9 132 123
0.24067482 -0.30906138 -0.84745079 9 132 123
0.24108888 -0.30935866 -0.84720623 9 132 123
0.24228099 -0.30990338 -0.84667909 8 132 122
0.24293764 -0.3086375 -0.84701979 8 132 122
0.24127232 -0.30953845 -0.84707808 9 132 123
0.23892528 -0.31170094 -0.84690982 9 132 123
0.23969547 -0.31254193 -0.8462677 9 132 123
0.2398522 -0.31293336 -0.84604293 9 132 123
0.23967917 -0.31233507 -0.84636283 9 132 123
0.24105993 -0.31091869 -0.84656829 9 132 123
0.24083906 -0.31238806 -0.84598988 9 132 123
0.22043726 -0.28788233 -0.86800402 10 132 117
0.21987671 -0.28978446 -0.86781043 10 132 117
0.2191104 -0.28926036 -0.86887771 10 132 117
0.21954405 -0.28963032 -0.8682425 10 132 117
0.21865638 -0.29016727 -0.86899114 10 132 117
0.21965747 -0.28916472 -0.86831599 10 132 117
0.23799406 -0.27523473 -0.8592509 12 132 117
0.23899789 -0.27452484 -0.85883904 12 134 115
0.24355519 -0.27490234 -0.85674059 12 134 114
0.24326171 -0.27457228 -0.85689831 12 134 114
0.24355598 -0.27472419 -0.85675311 12 134 114
0.2369072 -0.27715641 -0.85954553 10 134 118
0.23823906 -0.27541968 -0.85912615 11 134 117
0.23717429 -0.27808329 -0.85933155 11 132 118
0.2365863 -0.2790325 -0.8595019 11 132 119
0.23685035 -0.27800384 -0.85948569 11 132 118
0.2373154 -0.27923983 -0.8591392 11 132 119
0.23850602 -0.27769974 -0.85876077 11 134 117
0.23951283 -0.27753764 -0.85831094 11 136 117
0.23821449 -0.2780757 -0.85885358 11 134 118
0.23738219 -0.27875516 -0.85916334 11 134 118
0.23805483 -0.27864429 -0.85886312 11 134 118
0.24407399 -0.27726844 -0.85631585 10 134 116
0.24270272 -0.27887461 -0.85676628 10 134 118
0.24050364 -0.27905855 -0.85768026 11 134 118
0.24186699 -0.27835241 -0.85716105 11 134 118
0.24330106 -0.27696961 -0.85666621 11 134 117
0.24361783 -0.27784222 -0.85646254 10 134 117
0.24073038 -0.27778351 -0.85772097 11 136 117
0.2403712 -0.27822179 -0.85783488 12 134 117
0.24169171 -0.27659842 -0.85741758 12 134 116
0.24167326 -0.27591738 -0.85750359 12 134 115
0.24442644 -0.27768618 -0.85615242 10 134 117
0.24447021 -0.27685654 -0.85620213 11 134 117
0.24489762 -0.27842319 -0.85592121 11 132 119
0.23617718 -0.27932373 -0.85966474 10 132 120
0.23558412 -0.28319898 -0.85934508 10 134 120
0.2359691 -0.28057131 -0.85956401 10 134 120
0.2356731 -0.28234544 -0.85943258 10 134 120
0.2381402 -0.2828705 -0.85819638 11 132 119
0.23678392 -0.28313833 -0.85879999 10 134 120
0.2398347 -0.28106162 -0.85768038 11 134 118
0.23721266 -0.28287995 -0.85863727 10 134 120
0.24004909 -0.28160194 -0.85749084 11 134 118
0.23975158 -0.28308338 -0.85739338 11 132 118
0.23638137 -0.28199053 -0.85916382 10 134 120
0.23719856 -0.28140172 -0.85887182 10 134 120
0.23813951 -0.27979276 -0.85867506 11 132 119
0.23678684 -0.281569 -0.85903829 10 134 120
0.23747317 -0.27992925 -0.85896462 11 132 119
0.23767093 -0.2802251 -0.85882825 11 132 119
0.24392518 -0.28160301 -0.85587597 9 132 120
0.24347751 -0.27998647 -0.85629421 10 132 120
0.24316925 -0.28172719 -0.85616583 9 132 119
0.24402526 -0.27985096 -0.85609132 9 132 120
0.24063884 -0.28303376 -0.85700405 11 132 118
0.24336495 -0.28062266 -0.85624725 9 132 119
0.24387866 -0.27952364 -0.85619915 10 132 120
0.24089594 -0.280633 -0.85727966 11 134 118
0.24097833 -0.27979454 -0.85738027 11 134 118
0.24284585 -0.2802071 -0.85652494 10 132 118
0.24039355 -0.28011441 -0.85757554 11 134 118
0.24092978 -0.28083017 -0.85723346 11 134 118
0.24468884 -0.27952603 -0.85589641 10 132 120
0.23205259 -0.28705117 -0.85973847 10 132 118
0.23529176 -0.28397173 -0.85921997 10 132 120
0.23494634 -0.28351468 -0.85952955 10 134 120
0.2339223 -0.28515154 -0.85944784 10 132 120
0.23397921 -0.28518522 -0.8594119 10 132 120
0.23629887 -0.28660819 -0.85797602 10 130 120
0.235222 -0.28456789 -0.85906327 10 132 120
0.2362515 -0.28621176 -0.85811782 9 132 119
0.23624071 -0.28368586 -0.85889643 10 132 120
0.23432733 -0.28564551 -0.85911691 10 132 118
0.23533805 -0.2857621 -0.85864753 10 132 120
0.23743105 -0.28609419 -0.85760158 10 132 118
0.24019922 -0.28683361 -0.85631955 10 134 116
0.23975828 -0.28683528 -0.85649616 10 134 116
0.23801374 -0.28637075 -0.85730374 10 132 118
0.23965669 -0.2861447 -0.85669643 10 134 116
0.23861563 -0.28702199 -0.85691178 10 132 117
0.23704018 -0.28603938 -0.85779816 10 132 118
0.23935032 -0.28398043 -0.85732722 11 132 118
0.23850887 -0.28433168 -0.85762095 10 132 118
0.23795791 -0.28328305 -0.85820502 10 132 118
0.23804083 -0.28441489 -0.85781866 10 132 118
0.23641028 -0.28326905 -0.85894752 10 132 120
0.24039701 -0.28646958 -0.85633153 10 134 116
0.2406029 -0.28591219 -0.85638684 10 134 116
0.24130425 -0.28417075 -0.85649872 10 132 118
0.24228615 -0.28524289 -0.85586667 10 132 118
0.24195568 -0.28512582 -0.85602647 10 132 118
0.24059752 -0.28329131 -0.85697705 11 132 118
0.2406674 -0.28442201 -0.85670304 11 132 117
0.23101985 -0.28948161 -0.85945672 10 132 117
0.23193324 -0.28882882 -0.85918903 10 132 118
0.23107588 -0.28984156 -0.85931176 10 132 117
0.23123872 -0.29078048 -0.8589251 10 132 117
0.23205949 -0.28868806 -0.85916823 10 132 118
0.2361916 -0.28992805 -0.85695958 10 132 117
0.23442914 -0.29004636 -0.8576799 10 132 117
0.23557965 -0.28871951 -0.85761267 10 130 118
0.23442708 -0.28932148 -0.85791457 10 132 118
0.23433346 -0.28932926 -0.85795236 10 132 118
0.23539539 -0.29024214 -0.85720092 10 132 117
0.23416507 -0.28774983 -0.85853225 10 132 118
0.23468362 -0.28862834 -0.85802752 10 132 118
0.23551284 -0.2874302 -0.8580566 10 132 118
0.23428933 -0.28835773 -0.85828364 10 132 118
0.23258419 -0.28832811 -0.85902482 10 132 118
0.23444395 -0.28721455 -0.85858452 10 132 118
0.24006061 -0.28822514 -0.85598487 10 134 116
0.23793884 -0.28992555 -0.85627508 10 132 116
0.23829043 -0.2907117 -0.85592425 10 132 117
0.23868926 -0.28968123 -0.85607207 10 132 117
0.23650262 -0.2899113 -0.85683614 10 132 117
0.23897474 -0.28722328 -0.85671067 10 132 117
0.23735732 -0.28954586 -0.85661089 10 132 117
0.23730804 -0.28949746 -0.8566463 10 132 117
0.2366918 -0.28932539 -0.85694921 10 132 117
0.23687282 -0.28975913 -0.8567366 10 132 117
0.22824979 -0.2936278 -0.85951483 9 132 117
0.22990802 -0.29117876 -0.85948855 10 132 117
0.22917777 -0.29393867 -0.85890198 10 132 117
0.23000912 -0.29249769 -0.8589747 10 132 117
0.22863108 -0.29434693 -0.85904479 10 132 117
0.22894421 -0.29350534 -0.85917789 10 132 117
0.23020825 -0.2942166 -0.85824746 10 130 118
0.23224147 -0.2919448 -0.85798621 10 132 117
0.23068076 -0.29478204 -0.85778368 10 132 118
0.23227425 -0.29406124 -0.85718817 10 132 120
0.23185065 -0.29445735 -0.85727113 10 132 120
0.23018126 -0.2938256 -0.85840619 10 130 118
0.2348545 -0.292712 -0.85657573 10 132 118
0.23384243 -0.29370037 -0.85664517 10 132 118
0.23330714 -0.2918607 -0.8575387 10 132 117
0.23287019 -0.29141939 -0.85788941 10 132 117
0.23446329 -0.29197511 -0.85699892 10 132 117
0.23415814 -0.29215544 -0.85706377 10 132 118
0.2328423 -0.29183421 -0.85774851 10 132 117
0.234878 -0.29139394 -0.85703468 10 132 117
0.23633459 -0.29326656 -0.8558991 10 132 117
0.23746383 -0.29134506 -0.85604292 10 132 117
0.22538978 -0.29703078 -0.85976118 7 132 121
0.2264806 -0.29601952 -0.85958737 8 132 119
0.22710851 -0.29695436 -0.85880345 8 132 120
0.2322246 -0.29620177 -0.8564055 9 132 120
0.23228753 -0.29691407 -0.85610992 9 132 120
0.23046574 -0.29693562 -0.85697174 9 132 121
0.23187606 -0.29672521 -0.85637373 9 132 120
0.23212789 -0.29542908 -0.85674119 9 132 120
0.22987701 -0.29732093 -0.85711807 9 132 121
0.23253907 -0.29544592 -0.85655373 9 132 120
0.23250215 -0.29513797 -0.85668188 9 132 120
0.23433763 -0.27436993 -0.86134583 12 132 116
0.23611957 -0.27401954 -0.86028701 12 132 117
0.23580785 -0.27451876 -0.86042255 11 132 117
0.23180676 -0.27672026 -0.86258262 11 132 117
0.23027013 -0.27878368 -0.86322874 10 132 117
0.2307197 -0.27869785 -0.86295009 10 132 117
0.2355717 -0.27778485 -0.86016053 10 132 118
0.23390132 -0.27826038 -0.86103094 10 130 118
0.23450309 -0.27874014 -0.86064672 10 132 118
0.23417743 -0.27800053 -0.86090678 10 130 118
0.23382908 -0.27806914 -0.86109161 10 130 118
0.23467636 -0.27807483 -0.8606233 10 132 118
0.23278779 -0.27721685 -0.86186951 11 130 118
0.23493928 -0.27640367 -0.86068386 11 130 118
0.23253137 -0.27897263 -0.86172366 10 132 118
0.23261157 -0.27734479 -0.861956 11 130 118
0.23509021 -0.2760376 -0.86065418 11 130 118
0.23393463 -0.27726585 -0.86115402 11 130 118
0.22841677 -0.28299704 -0.8632412 12 132 114
0.23084687 -0.27978465 -0.86261839 10 132 117
0.23216206 -0.2793003 -0.86190373 10 130 118
0.23109411 -0.27944276 -0.8625586 10 130 118
0.23042195 -0.28089604 -0.86256307 11 132 117
0.22858772 -0.28220296 -0.86337072 12 132 115
0.23033728 -0.2828114 -0.86209506 11 132 117
0.23202033 -0.28233588 -0.86118156 10 132 118
0.23212747 -0.28263271 -0.86103719 10 132 120
0.23210897 -0.28143501 -0.86136448 10 132 118
0.23005518 -0.28211209 -0.86245364 11 132 117
0.23414159 -0.28260756 -0.86013889 10 132 120
0.23329464 -0.280972 -0.86092639 10 132 120
0.23271102 -0.28167209 -0.86098713 10 132 120
0.235045 -0.2800706 -0.86014122 10 132 120
0.23354414 -0.28082189 -0.8608281 10 132 120
0.2330392 -0.27957001 -0.86134285 10 130 120
0.23489118 -0.28004414 -0.86023116 10 132 120
0.23304474 -0.28009897 -0.86124003 10 130 120
0.23483339 -0.27930063 -0.86040324 10 132 120
0.2279992 -0.28323871 -0.8634308 12 132 114
0.23227188 -0.28578484 -0.85999686 9 134 118
0.2307708 -0.28538409 -0.86105275 11 132 118
0.23131657 -0.28670594 -0.86030322 10 132 117
0.23010573 -0.28704703 -0.8609491 11 132 117
0.23131089 -0.28558895 -0.86065376 10 134 118
0.23109822 -0.28663087 -0.86046207 10 132 117
0.23196699 -0.2844767 -0.86059189 10 132 118
0.22977136 -0.28538802 -0.86167043 11 132 117
0.22979879 -0.28358427 -0.86220717 11 132 117
0.22958833 -0.28594056 -0.86161381 11 132 117
0.23037504 -0.28439519 -0.86160254 11 132 117
0.23093694 -0.28388283 -0.861413 11 132 118
0.23276556 -0.28335479 -0.86051345 10 132 120
0.23245002 -0.28444988 -0.86030656 10 132 120
0.23412277 -0.2836141 -0.85986233 10 132 120
0.22455347 -0.2899012 -0.86313385 11 132 115
0.2257368 -0.2896305 -0.86256087 11 132 115
0.22747923 -0.29093131 -0.86096585 10 132 116
0.22759905 -0.28997827 -0.86128831 10 134 116
0.22623631 -0.29056555 -0.86188233 11 132 117
0.22653434 -0.29030308 -0.86180812 11 132 117
0.22839858 -0.28798249 -0.86162615 12 132 115
0.227694 -0.29010293 -0.8611781 10 134 116
0.22857372 -0.28785715 -0.86157465 12 132 115
0.2290484 -0.29049987 -0.86021799 10 132 116
0.22939409 -0.28950521 -0.86042154 10 134 116
0.22946836 -0.28908217 -0.86054319 10 134 116
0.22953428 -0.28874743 -0.86063498 10 134 116
0.22971855 -0.28773323 -0.86092275 11 132 117
0.22876784 -0.28745607 -0.86162299 12 132 115
0.22980426 -0.2896134 -0.86012393 10 132 116
0.22384284 -0.29164588 -0.86309427 9 134 116
0.22401258 -0.29107818 -0.86320078 10 132 116
0.22281931 -0.29386908 -0.86303979 8 132 118
0.22426057 -0.29317954 -0.86214745 8 134 116
0.22315212 -0.29363436 -0.86286265 8 132 117
0.22382356 -0.29357192 -0.86234784 8 132 117
0.22848277 -0.29189882 -0.85999453 10 132 117
0.22821915 -0.29152152 -0.86028701 10 132 117
0.22712883 -0.2926276 -0.86053461 9 132 117
0.22774847 -0.29287115 -0.8600806 10 130 118
0.2268457 -0.29378432 -0.86028659 9 132 117
0.22470433 -0.29125655 -0.86254525 10 132 116
0.22618844 -0.29228228 -0.86123991 9 132 117
0.22617617 -0.29155532 -0.86152565 10 132 117
0.22716382 -0.29175141 -0.86084312 10 132 117
0.2247005 -0.29142219 -0.86248422 10 132 116
0.22494796 -0.29113224 -0.86244297 10 134 116
0.22492172 -0.29125112 -0.8624137 10 132 116
0.22502966 -0.29547104 -0.86069757 8 132 119
0.21777363 -0.30415776 -0.86271554 7 132 118
0.21690591 -0.30540988 -0.86290181 8 132 118
0.21680033 -0.30709895 -0.8621071 8 132 118
0.25150406 -0.29092845 -0.85163027 10 132 118
0.25143948 -0.29036418 -0.85175955 10 132 118
0.25290295 -0.28811711 -0.85187799 12 132 117
0.25269723 -0.29007381 -0.85152954 11 132 117
0.25230199 -0.29035911 -0.85155576 10 132 117
0.25216967 -0.28959078 -0.85173714 10 132 117
0.25360096 -0.28991899 -0.85135311 12 132 117
0.25255361 -0.29084706 -0.85139197 11 132 118
0.25349948 -0.29012898 -0.85132921 12 132 117
0.25309458 -0.2904062 -0.851363 11 132 118
0.24775396 -0.29488823 -0.8514083 10 132 118
0.24633013 -0.2946721 -0.85183364 10 132 118
0.24877739 -0.2923339 -0.85191971 10 132 118
0.25082433 -0.29209799 -0.85146195 10 132 118
0.25007004 -0.29267871 -0.85148108 10 132 118
0.24841414 -0.29303899 -0.85180098 10 132 118
0.25095627 -0.2915175 -0.8516041 10 132 118
0.25181508 -0.29289135 -0.85092521 9 132 119
0.2507821 -0.2929005 -0.8512131 9 134 118
0.24914648 -0.2949166 -0.85101616 9 132 120
0.25018606 -0.29463589 -0.85081494 9 132 120
0.24916814 -0.29445875 -0.85115939 9 132 119
0.25112563 -0.2942054 -0.85069078 8 134 120
0.25427169 -0.29282022 -0.8503595 11 132 121
0.25582045 -0.29280257 -0.85006034 11 132 121
0.25498232 -0.29443994 -0.84976465 9 132 122
0.25408512 -0.2936838 -0.85015345 10 132 121
0.25538939 -0.2920818 -0.85034764 11 132 120
0.25370234 -0.29419258 -0.85008556 9 132 120
0.25364441 -0.29219779 -0.85070425 10 134 120
0.25423408 -0.29245698 -0.85047734 11 132 120
0.25263941 -0.29151392 -0.85116988 10 134 118
0.25279766 -0.29377964 -0.8503927 9 132 120
0.25347254 -0.29297137 -0.85049337 10 132 120
0.25196889 -0.29174587 -0.85125613 9 134 118
0.25915399 -0.29361084 -0.84938174 12 134 120
0.25796068 -0.29303265 -0.8496899 12 132 121
0.25842518 -0.29348829 -0.84950846 12 134 121
0.25694093 -0.29393733 -0.84958011 11 132 122
0.25640264 -0.29341471 -0.84980279 11 132 121
0.25654799 -0.29348043 -0.84976351 11 132 121
0.26096869 -0.29430383 -0.84903437 12 134 118
0.259799 -0.29335663 -0.84936738 12 136 119
0.24684498 -0.29497445 -0.85160708 10 132 118
0.245737 -0.29639459 -0.85133421 10 132 118
0.24757715 -0.29525656 -0.85131252 10 132 118
0.24415614 -0.2974807 -0.85131085 10 130 118
0.24613553 -0.29614905 -0.85132915 10 132 118
0.24574254 -0.29643077 -0.85131884 9 132 118
0.24615833 -0.29725894 -0.85088581 9 132 119
0.24743801 -0.29697889 -0.8506552 9 132 120
0.2470118 -0.29664916 -0.85090321 9 132 120
0.25153041 -0.2959148 -0.84995419 8 132 121
0.24998379 -0.29536688 -0.85059851 8 134 120
0.24937373 -0.29625523 -0.85041076 8 132 120
0.24842349 -0.29622549 -0.85069036 9 132 120
0.24805839 -0.29527104 -0.85117954 9 132 119
0.25556251 -0.29591948 -0.84917438 8 132 122
0.25462827 -0.29513425 -0.8496176 8 132 121
0.2533797 -0.29648373 -0.84934729 8 132 122
0.25252712 -0.29637375 -0.84955674 8 132 122
0.25309104 -0.29583526 -0.84965169 8 132 121
0.25397322 -0.2964561 -0.84924132 8 132 122
0.25969723 -0.29620782 -0.84858209 11 132 121
0.25891051 -0.29664171 -0.84853023 11 132 121
0.25949493 -0.29558122 -0.84878546 11 134 120
0.25758597 -0.29725549 -0.84848094 9 132 122
0.25732186 -0.29584193 -0.84896964 10 132 121
0.25656301 -0.29523656 -0.84926409 10 132 123
0.25692856 -0.29602268 -0.84896171 9 132 122
0.25740924 -0.29586795 -0.84894997 10 132 121
0.25654587 -0.29630843 -0.84891838 9 132 123
0.26313236 -0.29716194 -0.84827667 12 132 121
0.26331437 -0.29713938 -0.84828371 12 132 121
0.26115859 -0.29712903 -0.84826505 12 132 121
0.25994599 -0.2972829 -0.84825295 11 132 121
0.2671029 -0.29776835 -0.84823942 12 132 121
0.26567748 -0.29824752 -0.84809577 11 132 121
0.2653093 -0.29770613 -0.84819472 12 132 121
0.26475152 -0.29707098 -0.84831256 12 132 121
0.26368463 -0.29757157 -0.84818679 12 132 121
0.26768622 -0.29881364 -0.84805304 11 132 122
0.26845759 -0.2982277 -0.84826136 11 132 121
0.26901647 -0.29789296 -0.8483938 11 132 121
0.26989296 -0.29659721 -0.84870189 12 132 121
0.27147123 -0.29575163 -0.84883833 12 132 120
0.27426121 -0.29771572 -0.8489567 11 132 121
0.27350992 -0.2973794 -0.84889209 11 132 121
0.27514562 -0.2968348 -0.84915906 12 132 121
0.27511108 -0.29561767 -0.84927481 12 132 120
0.27400383 -0.29494828 -0.84921867 12 132 119
0.27203107 -0.29651201 -0.84881371 12 132 121
0.27436021 -0.29541674 -0.84920543 12 132 119
0.24205063 -0.30176675 -0.85029745 9 132 120
0.24222456 -0.30227011 -0.85003078 9 132 121
0.24253109 -0.30081576 -0.85052478 9 132 120
0.24387382 -0.29995903 -0.85041869 9 132 119
0.24192543 -0.30179211 -0.85032976 9 132 120
0.24328698 -0.301204 -0.85010666 9 132 120
0.24524893 -0.30248883 -0.84901923 9 132 121
0.24668066 -0.3021113 -0.8488279 9 132 121
0.24689823 -0.30235398 -0.84868604 9 132 121
0.245453 -0.30208695 -0.8491227 9 132 121
0.2447208 -0.30010116 -0.85011303 9 132 120
0.24385986 -0.30345264 -0.84895664 9 132 121
0.24357376 -0.30551761 -0.84814256 8 132 121
0.24323809 -0.30420324 -0.84881622 9 132 121
0.24166109 -0.30346903 -0.84968072 9 132 121
0.24216259 -0.30390105 -0.84930271 9 132 121
0.24100819 -0.30322781 -0.85001922 9 132 121
0.2480046 -0.3029803 -0.84818059 9 132 121
0.24457762 -0.30313221 -0.84890968 9 132 121
0.22840872 -0.30961072 -0.85173815 8 132 118
0.23038088 -0.30792582 -0.85179788 8 132 119
0.22937113 -0.30963567 -0.85125995 8 132 117
0.228699 -0.31001306 -0.85135281 8 132 117
0.23003112 -0.30899417 -0.85132915 8 132 118
0.23137634 -0.30882549 -0.85093683 8 132 120
0.22981575 -0.31002617 -0.85091597 8 132 118
0.23012862 -0.30982301 -0.85090256 8 132 118
0.22997268 -0.30919853 -0.8512491 8 132 118
0.23207213 -0.3073163 -0.85140216 8 132 119
0.22736286 -0.31133023 -0.85139847 8 132 119
0.22723241 -0.31178316 -0.85123104 8 132 119
0.2284936 -0.31073436 -0.85105211 8 132 117
0.24575742 -0.27611363 -0.85577291 12 136 117
0.24513793 -0.27917248 -0.8557781 11 132 120
0.24548435 -0.27903244 -0.85566384 11 132 119
0.24398899 -0.28167281 -0.85584003 10 130 120
0.24647237 -0.27944389 -0.85526961 11 134 118
0.24563494 -0.27973109 -0.8555274 11 132 120
0.24569842 -0.28044525 -0.85539979 11 132 120
0.24780776 -0.27953523 -0.85477817 12 134 118
0.24528579 -0.28077957 -0.85549897 10 134 120
0.24742745 -0.28116941 -0.85467499 12 132 119
0.24670993 -0.28297764 -0.85466778 10 132 118
0.24535775 -0.28261295 -0.85520846 10 132 120
0.24776924 -0.27962768 -0.85477847 12 134 118
0.24698804 -0.28076869 -0.85489219 12 132 119
0.24795954 -0.28020075 -0.85462576 12 134 118
0.24993624 -0.28311768 -0.85355151 11 132 118
0.24815653 -0.28157231 -0.85435385 12 132 118
0.2481917 -0.28183249 -0.85430312 12 132 119
0.25252116 -0.2828939 -0.85277313 12 132 117
0.24271481 -0.28493881 -0.85575986 10 132 118
0.24248342 -0.28708673 -0.85544682 10 134 116
0.24339461 -0.28649092 -0.85523164 10 132 118
0.24285749 -0.28587988 -0.85553199 10 132 118
0.24248251 -0.28571478 -0.85569447 10 132 118
0.24545017 -0.2868349 -0.85444421 11 132 118
0.24702232 -0.28503194 -0.85420048 11 132 118
0.24515133 -0.2864204 -0.85461938 10 134 118
0.24775407 -0.2861155 -0.85375971 11 134 118
0.24690993 -0.28480399 -0.85427862 11 132 118
0.24557339 -0.28429085 -0.85484797 10 132 118
0.2446972 -0.28425431 -0.85517013 10 132 120
0.24472138 -0.2856833 -0.85490388 10 132 118
0.24666569 -0.28409076 -0.85449052 10 132 118
0.24752085 -0.28348115 -0.85429239 10 132 118
0.24573834 -0.28345615 -0.85493892 10 132 120
0.25005737 -0.28558424 -0.85310376 12 132 118
0.25010264 -0.28602126 -0.85302138 12 132 118
0.25005814 -0.28617746 -0.85301071 12 132 118
0.25126627 -0.28639647 -0.85260218 11 134 118
0.2506727 -0.28478161 -0.85303867 12 132 118
0.25185585 -0.28650454 -0.85240263 12 132 118
0.2484518 -0.28590351 -0.85356224 12 132 118
0.24817409 -0.28609055 -0.85362029 12 132 118
0.24822602 -0.28536978 -0.85372615 12 132 118
0.25030828 -0.28473341 -0.85316074 12 132 118
0.24925072 -0.28458768 -0.85352772 11 134 118
0.24858691 -0.28463188 -0.85373503 11 134 118
0.25279465 -0.28420472 -0.85253942 12 134 117
0.2522282 -0.28474271 -0.85258508 12 132 117
0.25269085 -0.28584564 -0.85230654 12 134 117
0.25223824 -0.2863445 -0.85233223 12 132 117
0.25247613 -0.28578517 -0.8523652 12 134 117
0.23977992 -0.29017463 -0.85551548 9 132 116
0.23990856 -0.29098243 -0.85522503 9 132 116
0.24099396 -0.28783119 -0.85576373 10 134 116
0.24081962 -0.29027048 -0.85510266 9 132 116
0.24050312 -0.2906372 -0.85510665 9 132 116
0.24215071 -0.28823718 -0.85523248 10 132 117
0.24180198 -0.28884777 -0.85517526 9 134 116
0.24326643 -0.29029283 -0.85423517 10 132 118
0.24250168 -0.28905728 -0.85486412 9 132 117
0.2417977 -0.29053944 -0.85467941 9 132 117
0.24402747 -0.28930873 -0.8542546 10 132 118
0.2430416 -0.29001975 -0.85439384 10 132 118
0.24348493 -0.2881386 -0.85478646 10 132 118
0.24717696 -0.29088733 -0.85279542 10 132 118
0.24790233 -0.28974918 -0.85285842 11 132 118
0.24653022 -0.28969342 -0.85330409 11 132 118
0.24802244 -0.29084876 -0.85253948 11 132 119
0.24458618 -0.29062724 -0.8536765 10 134 118
0.24802838 -0.29000947 -0.85275221 11 132 119
0.24516237 -0.28925219 -0.85387349 11 132 118
0.24514839 -0.28735247 -0.85443223 11 132 118
0.24471395 -0.28715667 -0.85464144 11 132 118
0.24618487 -0.28771868 -0.85396248 11 134 118
0.24664944 -0.28735006 -0.85390723 11 134 118
0.25149769 -0.28833395 -0.8521499 11 132 118
0.25179401 -0.28726959 -0.85228628 11 132 118
0.25008592 -0.29049134 -0.85207886 10 132 118
0.25005162 -0.29066902 -0.85205233 10 132 118
0.24877454 -0.28933924 -0.85269237 11 132 118
0.24828228 -0.29050875 -0.85254586 11 132 119
0.24841672 -0.28765023 -0.85323513 11 134 118
0.25035125 -0.28852129 -0.85241312 11 132 118
0.24933828 -0.28869927 -0.8526814 11 134 118
0.24845633 -0.28876117 -0.85293877 11 134 118
0.23864222 -0.29154143 -0.85554117 9 132 116
0.23716179 -0.29257157 -0.85579562 10 132 117
0.2372596 -0.29352024 -0.85546917 10 132 117
0.2385117 -0.2921803 -0.85539657 9 132 116
0.24018855 -0.29423127 -0.85395664 10 132 118
0.23975764 -0.29333609 -0.8544665 10 132 118
0.23998904 -0.29355681 -0.85428596 10 132 118
0.23875906 -0.29425722 -0.85457355 10 132 118
0.23962401 -0.2938394 -0.85434449 10 132 118
0.2421912 -0.29466471 -0.85309482 10 132 118
0.24225456 -0.29370499 -0.85341609 10 132 118
0.2433964 -0.29381308 -0.85297698 10 132 118
0.24192207 -0.29449746 -0.85324901 10 132 118
0.24358168 -0.29482952 -0.85254824 10 130 118
0.2428502 -0.29256213 -0.8536163 10 132 118
0.24172196 -0.29251254 -0.85403037 10 132 118
0.24106301 -0.29162431 -0.85458052 9 132 117
0.24243762 -0.29232788 -0.85384506 10 132 118
0.24214076 -0.29122338 -0.85434556 9 132 117
0.24154283 -0.29177877 -0.85435647 9 132 117
0.24118263 -0.29166928 -0.85452235 9 132 117
0.24658592 -0.29342079 -0.85214156 10 132 118
0.24716449 -0.29257497 -0.85224807 10 132 118
0.24731261 -0.29201117 -0.85237831 10 132 118
0.24583416 -0.29368022 -0.85225642 10 132 118
0.24686988 -0.29240748 -0.85237306 10 132 118
0.24477009 -0.29377908 -0.85253024 10 130 118
0.24469022 -0.29332238 -0.85271883 10 132 118
0.244809 -0.29256025 -0.85295433 10 132 118
0.24688035 -0.29206493 -0.85248035 10 132 118
0.24579513 -0.29154938 -0.85300606 10 132 118
0.24621938 -0.2919277 -0.85273731 10 132 118
0.24825956 -0.29163453 -0.85225487 10 132 118
0.24874224 -0.29150987 -0.85216951 10 132 118
0.2360532 -0.2970103 -0.85454553 9 132 118
0.23515864 -0.29843056 -0.8542822 9 132 119
0.24019063 -0.29509866 -0.85363305 10 132 120
0.23884073 -0.29646629 -0.853585 10 132 120
0.23835465 -0.29686216 -0.8536073 10 132 120
0.24014632 -0.29856518 -0.852229 10 132 121
0.2401575 -0.29814845 -0.85239553 10 132 121
0.23796594 -0.29812658 -0.85323662 9 132 120
0.23694898 -0.29758662 -0.85388029 9 132 119
0.23889266 -0.29562125 -0.85394913 10 132 118
0.23714285 -0.29547814 -0.85478264 10 132 118
0.23883073 -0.29551753 -0.85402489 10 132 118
0.23895694 -0.29570064 -0.85388386 10 132 118
0.23679331 -0.29676589 -0.8543328 10 132 118
0.24341586 -0.29514942 -0.85248005 10 130 118
0.24346815 -0.295039 -0.85250694 10 130 118
0.24315619 -0.29506093 -0.85260737 10 130 118
0.24103306 -0.29539567 -0.85321468 10 132 120
0.24256358 -0.29562271 -0.8525849 10 130 118
0.24420342 -0.29514521 -0.85221308 10 130 118
0.23228161 -0.30216452 -0.8537339 9 132 120
0.23155424 -0.30115601 -0.85461491 8 132 120
0.2346786 -0.30129048 -0.85316104 9 132 120
0.23544985 -0.3004415 -0.85323071 9 132 120
0.23374121 -0.30266395 -0.85293847 9 132 120
0.2345864 -0.30144295 -0.85313213 9 132 120
0.23445936 -0.30025151 -0.85370016 9 132 120
0.23532006 -0.29900011 -0.8539378 9 132 120
0.23458728 -0.29903826 -0.85424781 9 132 120
0.23259142 -0.30065817 -0.85433614 9 132 120
0.23285758 -0.30155301 -0.85377038 9 132 120
0.23667084 -0.29940861 -0.85320657 9 132 120
0.23682757 -0.30003142 -0.8528958 9 132 120
0.23169583 -0.3041667 -0.85308594 9 132 120
0.23167576 -0.30292785 -0.85367209 8 132 119
0.23293723 -0.3028675 -0.8531335 9 132 120
0.22763675 -0.30920291 -0.85245365 8 132 119
0.22754478 -0.30975652 -0.85215914 8 132 119
0.2267402 -0.31017798 -0.85240155 8 132 120
0.2268932 -0.31045461 -0.85212302 8 132 119
0.22690795 -0.30964842 -0.8526355 8 132 120
0.22887531 -0.30871099 -0.85204911 8 132 119
0.2296323 -0.30751196 -0.85243315 8 132 120
0.23001744 -0.30791572 -0.85198623 8 132 120
0.22546853 -0.3107208 -0.85289145 8 132 120
0.22478382 -0.31116682 -0.8530879 8 132 121
0.22687349 -0.27686036 -0.8659516 11 132 115
0.22492592 -0.27878273 -0.86698496 11 132 115
0.22742315 -0.27726498 -0.86545312 11 132 117
0.2282054 -0.27846584 -0.8646524 10 132 116
0.22803615 -0.27629355 -0.8652007 11 132 117
0.22884208 -0.27601331 -0.86469626 11 132 117
0.22964646 -0.27555189 -0.86424375 11 132 117
0.22436021 -0.28283352 -0.86604136 11 132 114
0.22427458 -0.28304964 -0.86604357 11 132 114
0.22685979 -0.28164732 -0.86465412 11 132 114
0.22494034 -0.28196618 -0.86588234 11 132 114
0.22486727 -0.28236657 -0.86579019 11 132 114
0.22660238 -0.27933595 -0.86563361 10 132 116
0.22859967 -0.27980489 -0.86406618 10 132 116
0.22296129 -0.28407958 -0.8669197 11 132 115
0.22392064 -0.28553617 -0.86541098 12 132 114
0.22274543 -0.28563687 -0.86656439 11 132 115
0.22474599 -0.28429309 -0.86514586 12 132 114
0.22575554 -0.28322878 -0.86490673 12 132 114
0.2238839 -0.28827626 -0.86433148 12 132 114
0.22416714 -0.28826794 -0.86406046 12 132 114
0.22204979 -0.28981578 -0.86553621 10 132 116
0.22350013 -0.29032335 -0.86394483 11 132 117
0.22254376 -0.29052377 -0.86479604 10 132 116
0.22344939 -0.2881451 -0.86480653 12 132 114
0.22144024 -0.28733355 -0.86718976 10 132 116
0.22098842 -0.28923321 -0.86685246 10 132 117
0.22052288 -0.29179347 -0.8662107 9 132 118
0.22118203 -0.29245853 -0.86522102 9 132 118
0.2224558 -0.29283783 -0.86380166 9 132 118
0.22147976 -0.29111481 -0.86559469 9 132 117
0.22121042 -0.29210281 -0.86536872 9 132 118
0.22280551 -0.29171306 -0.86401719 9 132 117
0.22228868 -0.29117575 -0.86478192 9 132 117
0.21808024 -0.29874903 -0.86541522 7 132 118
0.21837342 -0.29798341 -0.86547035 7 132 118
0.21716446 -0.29737744 -0.8671295 8 132 117
0.2171654 -0.30203053 -0.86446643 7 132 118
0.21749251 -0.30233505 -0.86395729 7 132 118
0.2174442 -0.3021186 -0.86413646 7 132 118
0.21697469 -0.30378515 -0.86368167 7 132 118
0 0 0 1 0 0 0 1 0 0 0 1 0 0 0 0 0 604 1 0 0
