ply
format ascii 1.0
comment PCL generated
element vertex 1029
property float x
property float y
property float z
property uchar red
property uchar green
property uchar blue
element camera 1
property float view_px
property float view_py
property float view_pz
property float x_axisx
property float x_axisy
property float x_axisz
property float y_axisx
property float y_axisy
property float y_axisz
property float z_axisx
property float z_axisy
property float z_axisz
property float focal
property float scalex
property float scaley
property float centerx
property float centery
property int viewportx
property int viewporty
property float k1
property float k2
end_header
-0.044931356 -0.15334101 -0.70349044 29 134 117
-0.044118844 -0.15419647 -0.70316869 28 134 117
-0.041022398 -0.15291575 -0.70311636 31 137 117
-0.044431534 -0.15314148 -0.70348018 29 134 116
-0.042062651 -0.15222964 -0.7034387 31 136 116
-0.042828202 -0.15236618 -0.70349634 30 136 116
-0.039394204 -0.1537199 -0.70277303 36 137 118
-0.040309366 -0.15260243 -0.70315206 33 137 117
-0.039289553 -0.15415697 -0.70264316 36 136 118
-0.038612578 -0.15366672 -0.70273131 38 137 118
-0.03786644 -0.15211441 -0.70310795 42 134 118
-0.038124032 -0.15077101 -0.70349991 43 132 118
-0.037334967 -0.15158571 -0.7032153 44 133 119
-0.037895814 -0.15131447 -0.70333213 43 133 118
-0.037395943 -0.15053609 -0.70351118 45 131 118
-0.035723761 -0.15040495 -0.70349771 50 132 119
-0.036812961 -0.15294094 -0.70281625 45 135 119
-0.036129437 -0.15286437 -0.70282328 46 135 119
-0.036073338 -0.1517877 -0.70312095 47 133 119
-0.035414919 -0.15143648 -0.70320481 48 135 118
-0.036922436 -0.15074874 -0.70342696 46 132 118
-0.034252964 -0.15228878 -0.70294911 53 136 119
-0.034829684 -0.1525301 -0.70289207 50 136 119
-0.035238232 -0.15393925 -0.70251536 51 135 119
-0.034653123 -0.15305629 -0.70274651 52 136 118
-0.033340186 -0.15115096 -0.70324463 54 136 118
-0.036142502 -0.15368924 -0.70259672 46 136 119
-0.029354312 -0.15296912 -0.70280486 54 137 116
-0.0297971 -0.15169953 -0.70313382 52 137 117
-0.029977979 -0.15187912 -0.70308316 52 137 117
-0.030690309 -0.15093745 -0.70332628 51 138 117
-0.03289821 -0.1511903 -0.70323497 54 137 118
-0.03074092 -0.15047938 -0.70345026 50 138 117
-0.032225721 -0.15098153 -0.70329863 53 137 118
-0.032663886 -0.15194581 -0.7030322 55 136 118
-0.027504917 -0.15066496 -0.70349789 54 138 117
-0.028628679 -0.15056105 -0.70347333 50 138 117
-0.029178834 -0.15263678 -0.70289785 54 136 116
-0.028767953 -0.15097569 -0.70335174 50 138 117
-0.028459551 -0.15182148 -0.70313787 53 137 117
-0.052613437 -0.15772961 -0.70342982 40 133 119
-0.049097754 -0.15663506 -0.70319569 38 131 117
-0.050077278 -0.15679125 -0.70330268 39 131 118
-0.049803007 -0.15781167 -0.7029773 40 131 118
-0.051955611 -0.15749334 -0.70339614 41 132 119
-0.047436278 -0.15484147 -0.70345527 33 131 116
-0.047264457 -0.15606083 -0.70309258 35 132 118
-0.048494965 -0.15686733 -0.70304269 38 130 118
-0.048808575 -0.15623477 -0.70326263 38 130 117
-0.047700606 -0.15616661 -0.70312488 36 132 117
-0.046801794 -0.15775771 -0.70259023 36 133 118
-0.045781497 -0.15604353 -0.70290685 32 132 117
-0.047326662 -0.15757445 -0.70270002 38 131 119
-0.045646634 -0.15567359 -0.70298541 31 132 118
-0.046111442 -0.15750578 -0.70257199 36 133 119
-0.046922181 -0.15737557 -0.70270246 36 132 119
-0.041020487 -0.15486702 -0.70260376 31 136 118
-0.041933324 -0.15532938 -0.70259136 31 136 118
-0.043491602 -0.15771493 -0.70221835 35 134 119
-0.041141685 -0.15705332 -0.70213377 34 135 119
-0.042530697 -0.15721039 -0.70223534 34 134 119
-0.042967796 -0.15569326 -0.70263237 32 134 118
-0.043169111 -0.15505445 -0.70282286 30 133 118
-0.042247329 -0.15462171 -0.70281041 30 135 118
-0.043122537 -0.15515605 -0.70279056 30 135 118
-0.041902483 -0.15457445 -0.70277643 30 136 118
-0.038973648 -0.15624255 -0.70215285 40 135 119
-0.037660804 -0.15763991 -0.7017712 41 137 119
-0.040137336 -0.15750159 -0.70196038 38 134 120
-0.038256578 -0.15629557 -0.70209533 40 136 119
-0.039229289 -0.15715919 -0.70197451 38 136 119
-0.03819482 -0.15782495 -0.70176637 40 136 119
-0.039771054 -0.15580796 -0.70230573 36 135 119
-0.040835101 -0.1565879 -0.7022109 34 135 119
-0.038610257 -0.1547962 -0.70244467 39 135 119
-0.040230293 -0.15709403 -0.70205551 36 135 119
-0.040938381 -0.15632394 -0.70227659 33 136 119
-0.03421317 -0.15548447 -0.70214987 54 136 117
-0.035106882 -0.15630858 -0.70198834 51 136 118
-0.03568637 -0.15443435 -0.70239568 50 136 118
-0.035185259 -0.15508205 -0.7022506 51 135 118
-0.036495969 -0.15483457 -0.70232266 45 136 119
-0.037001494 -0.15719636 -0.70182824 42 138 119
-0.036692485 -0.15477143 -0.70233899 45 136 119
-0.036968261 -0.15777545 -0.7017048 42 138 119
-0.056992993 -0.16048364 -0.70328283 36 133 117
-0.058322988 -0.16165122 -0.70328242 41 132 116
-0.057164572 -0.16096924 -0.70321316 36 133 117
-0.059387125 -0.16207187 -0.70338881 45 132 116
-0.055378273 -0.15869616 -0.70346802 37 133 117
-0.056444939 -0.16158877 -0.70297003 33 134 118
-0.055407893 -0.16064551 -0.70306528 36 134 118
-0.055180438 -0.1603936 -0.70309556 36 134 118
-0.055116229 -0.15961365 -0.70325136 36 134 118
-0.052763052 -0.15867695 -0.70320672 39 133 120
-0.053208545 -0.16159256 -0.7025851 33 135 119
-0.053797659 -0.16042748 -0.70292634 36 134 119
-0.053967956 -0.16197261 -0.70258898 32 136 118
-0.053686589 -0.16186477 -0.70257992 32 136 118
-0.053865172 -0.16082644 -0.70284212 35 135 119
-0.050469086 -0.1617433 -0.70211816 37 135 118
-0.048978023 -0.15929674 -0.7024734 40 132 119
-0.049767651 -0.16081443 -0.70223033 38 133 118
-0.049563095 -0.16129607 -0.70207667 39 133 119
-0.051952079 -0.16137719 -0.70245785 33 135 118
-0.051976077 -0.16024755 -0.70272404 36 134 119
-0.050723102 -0.15929291 -0.70275468 38 132 119
-0.052249379 -0.16076986 -0.70264459 34 135 119
-0.051496275 -0.16035008 -0.7026273 36 134 119
-0.052459095 -0.15982457 -0.70289546 37 134 119
-0.046298612 -0.16020717 -0.70194274 39 133 120
-0.047456678 -0.16145673 -0.70177555 42 134 120
-0.045866992 -0.16185969 -0.70155817 45 135 121
-0.046213157 -0.16103198 -0.70176166 42 133 120
-0.045829847 -0.16171953 -0.7015847 45 135 121
-0.047630604 -0.15857521 -0.70248336 39 132 119
-0.048013516 -0.15914463 -0.70238829 40 132 119
-0.047926903 -0.15964045 -0.70225513 40 132 119
-0.048450984 -0.15953135 -0.70234495 40 132 119
-0.048420813 -0.16155788 -0.70183969 40 133 119
-0.042734843 -0.16076554 -0.70151818 40 135 121
-0.042126466 -0.16188674 -0.7012676 37 135 121
-0.043301724 -0.16066416 -0.70157754 42 135 122
-0.043205481 -0.16091698 -0.70152396 42 135 121
-0.041748479 -0.16023858 -0.70154476 37 134 121
-0.043429654 -0.15844378 -0.7020539 36 134 120
-0.042732555 -0.15959081 -0.70174354 40 134 121
-0.044704806 -0.15973136 -0.70190728 40 133 120
-0.04426495 -0.16075464 -0.70164829 43 135 122
-0.043943714 -0.16029231 -0.70171428 42 134 122
-0.042426981 -0.15831989 -0.70198166 36 134 120
-0.039134342 -0.16079102 -0.70128089 38 134 120
-0.037478916 -0.16111818 -0.70115584 41 135 121
-0.037872348 -0.16100846 -0.70119077 40 135 121
-0.039061926 -0.1611001 -0.70122731 38 134 120
-0.039862618 -0.16196138 -0.70112127 36 134 121
-0.038679451 -0.16015662 -0.70136482 38 136 120
-0.040749107 -0.15956125 -0.70160007 34 135 119
-0.040393267 -0.16091613 -0.70132703 35 134 120
-0.040396396 -0.15922423 -0.70163953 36 134 120
-0.037974816 -0.15880865 -0.70156002 40 136 119
-0.040599156 -0.16023973 -0.70146513 34 135 119
-0.033534862 -0.16191167 -0.70085168 50 137 118
-0.034486718 -0.16112842 -0.70104408 50 135 120
-0.035548236 -0.16081351 -0.70115256 48 136 120
-0.034459651 -0.16038066 -0.70118487 53 136 120
-0.035000097 -0.16125202 -0.70104414 48 136 120
-0.036739256 -0.16030106 -0.70126617 43 135 120
-0.035072833 -0.16002664 -0.70127904 52 134 121
-0.035626311 -0.15935501 -0.70139939 49 136 120
-0.036532108 -0.16140601 -0.70108175 44 135 121
-0.034753218 -0.15821975 -0.70156801 54 136 119
-0.032526068 -0.16178995 -0.70087272 53 137 118
-0.032866236 -0.16192067 -0.70084018 52 137 118
-0.060583971 -0.16305791 -0.70341086 47 132 116
-0.062583834 -0.16454045 -0.70346212 47 133 118
-0.062004242 -0.16541719 -0.70318609 43 134 119
-0.061865948 -0.16497415 -0.70325059 45 134 118
-0.061711024 -0.16584091 -0.70305037 42 134 119
-0.05921004 -0.16358066 -0.7030558 40 133 117
-0.059724908 -0.16474611 -0.70291686 39 133 118
-0.059513435 -0.16311328 -0.70320469 42 133 117
-0.059989851 -0.16523053 -0.70286834 39 133 119
-0.058900356 -0.16434513 -0.70284647 37 134 119
-0.057367448 -0.16544038 -0.70239633 38 136 118
-0.058763687 -0.16492613 -0.70271832 37 135 118
-0.056925159 -0.16547158 -0.70231819 38 136 118
-0.057388309 -0.16342212 -0.70276546 34 135 117
-0.059125338 -0.16534202 -0.70270222 38 135 119
-0.055336256 -0.1647339 -0.70224667 36 136 119
-0.054559428 -0.16460651 -0.70215529 36 136 119
-0.056125116 -0.16584717 -0.7021302 38 136 118
-0.053928226 -0.16571769 -0.70182264 36 137 120
-0.053894442 -0.16365647 -0.7022559 34 135 119
-0.055435162 -0.16281082 -0.70260781 33 135 118
-0.054794099 -0.1632735 -0.7024464 34 135 118
-0.05655171 -0.16570938 -0.70221776 38 136 118
-0.056539018 -0.16259743 -0.70278013 33 135 118
-0.05451129 -0.16294108 -0.70247239 33 135 118
-0.055826534 -0.16255696 -0.70270121 33 135 118
-0.048915714 -0.16458991 -0.70127398 38 136 118
-0.049693163 -0.16419697 -0.70147103 38 136 119
-0.050197929 -0.1650081 -0.70138776 38 136 120
-0.050082549 -0.16373797 -0.70162171 38 136 119
-0.049546093 -0.16286014 -0.70171332 40 134 119
-0.051295381 -0.1626877 -0.70204329 36 135 119
-0.050882231 -0.16270739 -0.70196974 37 135 119
-0.052191511 -0.16371951 -0.70197439 34 136 119
-0.05189959 -0.16337766 -0.70199805 35 136 119
-0.051957306 -0.1645246 -0.70176381 36 136 120
-0.046648901 -0.16434202 -0.70112419 43 136 120
-0.048592072 -0.16584156 -0.70099241 38 137 118
-0.046825889 -0.16599374 -0.70079958 42 136 120
-0.046738837 -0.16527247 -0.70094043 42 136 120
-0.046137583 -0.16524631 -0.7008909 43 136 120
-0.04493038 -0.1656137 -0.70070475 46 135 121
-0.048281364 -0.16318865 -0.70149261 41 134 120
-0.047041193 -0.16325779 -0.70137572 43 135 121
-0.045845073 -0.1628754 -0.701352 45 135 121
-0.048363328 -0.16355807 -0.70142627 40 135 119
-0.047661338 -0.16298579 -0.70148122 42 135 120
-0.048743889 -0.16549174 -0.70107484 38 137 118
-0.04175387 -0.16479748 -0.70068967 40 133 119
-0.044794247 -0.16594042 -0.70062864 45 135 121
-0.042555187 -0.16491231 -0.70070779 41 134 120
-0.041183595 -0.16356736 -0.70088762 36 134 119
-0.041385766 -0.16467012 -0.70069504 39 133 118
-0.043746069 -0.16440091 -0.70086992 42 135 122
-0.043672003 -0.16424699 -0.70089632 42 135 121
-0.042601887 -0.16287829 -0.70110202 38 135 121
-0.044123787 -0.16256021 -0.70127666 43 135 122
-0.044893343 -0.16375722 -0.70108491 46 135 122
-0.037801523 -0.16455902 -0.70058262 42 135 120
-0.037898004 -0.16396062 -0.70068705 42 135 120
-0.038150284 -0.16369474 -0.70073956 42 133 120
-0.03981591 -0.16569133 -0.70044971 42 134 118
-0.037926324 -0.16341157 -0.70078105 42 134 120
-0.040979188 -0.16387966 -0.70082051 37 134 119
-0.039388545 -0.16253553 -0.70099837 37 134 121
-0.038230207 -0.16297735 -0.70086718 41 133 120
-0.040798441 -0.16251522 -0.70106304 34 134 120
-0.039541893 -0.16239248 -0.70103121 37 134 121
-0.033329573 -0.163333 -0.70061255 51 137 118
-0.034610152 -0.1654723 -0.70032024 48 137 118
-0.033777788 -0.1647846 -0.70040089 51 137 118
-0.033390678 -0.16574188 -0.70023966 52 137 117
-0.034347501 -0.16540307 -0.70032269 49 137 118
-0.033936653 -0.16558783 -0.70028096 51 137 118
-0.036071926 -0.16401683 -0.7006067 43 137 120
-0.035917439 -0.16392456 -0.70061529 44 137 119
-0.036147766 -0.16234133 -0.70089447 43 135 120
-0.036394477 -0.16454229 -0.70053232 43 137 120
-0.034757115 -0.16217004 -0.70085984 46 136 119
-0.032062564 -0.16514255 -0.70036775 54 138 117
-0.030319996 -0.16454718 -0.70051867 55 137 117
-0.031666122 -0.16475071 -0.70044345 55 137 118
-0.030882081 -0.16589828 -0.70028305 53 136 117
-0.032361545 -0.16589683 -0.70023668 53 136 117
-0.032713681 -0.16459514 -0.70043033 53 137 117
-0.031662926 -0.16249904 -0.70079547 54 137 118
-0.031776834 -0.16361438 -0.70061773 55 137 118
-0.032406215 -0.16249689 -0.70076823 53 137 118
-0.065258659 -0.1692394 -0.70318371 40 132 119
-0.064565405 -0.16761056 -0.70327288 42 134 119
-0.065993272 -0.16867416 -0.70343637 42 133 120
-0.065962769 -0.16938713 -0.7033214 40 133 119
-0.061709579 -0.16971198 -0.70236713 34 134 119
-0.06231932 -0.16928221 -0.70257342 36 133 119
-0.061644532 -0.16722517 -0.70281589 39 133 120
-0.06111192 -0.16991161 -0.70220602 33 134 118
-0.060554989 -0.16933191 -0.70219833 33 134 118
-0.062749796 -0.16650817 -0.7031197 42 133 120
-0.064376563 -0.16931918 -0.70297509 38 132 120
-0.061502617 -0.16624151 -0.70294422 40 134 120
-0.06350375 -0.16735181 -0.70312232 42 133 120
-0.06273628 -0.16690207 -0.70305765 42 133 120
-0.064102754 -0.16876854 -0.70301121 40 131 120
-0.056746006 -0.16945378 -0.70158541 37 134 119
-0.057086799 -0.16785124 -0.70191914 37 135 118
-0.059521891 -0.16914225 -0.70206648 34 135 118
-0.057809673 -0.16738576 -0.70211196 36 136 118
-0.056966502 -0.16793132 -0.70188665 37 135 118
-0.059494335 -0.16867957 -0.70214546 35 135 119
-0.059432499 -0.16846867 -0.70217454 35 135 119
-0.058001116 -0.16718714 -0.70217818 36 136 118
-0.060148835 -0.16774353 -0.70242667 37 134 119
-0.060122509 -0.16930731 -0.70213169 33 135 118
-0.059932299 -0.16914017 -0.70213157 33 135 118
-0.053236321 -0.1695784 -0.70110947 30 136 120
-0.054638062 -0.16795172 -0.70152837 36 135 120
-0.054101013 -0.16912244 -0.70128632 33 136 120
-0.056194372 -0.16972484 -0.70146012 36 134 119
-0.05370234 -0.16909228 -0.7012406 32 136 120
-0.053725336 -0.1669724 -0.70156026 36 136 120
-0.053679854 -0.16642143 -0.70165008 36 137 120
-0.055704571 -0.16884857 -0.70153266 37 134 120
-0.055741794 -0.16757584 -0.7017619 38 135 120
-0.054267842 -0.1669995 -0.70163822 36 136 120
-0.053948049 -0.16712546 -0.70156735 36 136 120
-0.048871063 -0.16707501 -0.70082396 36 136 118
-0.049391765 -0.1696686 -0.70051146 32 136 120
-0.051246408 -0.16885158 -0.70092517 32 136 120
-0.051402494 -0.16887167 -0.70094651 31 136 120
-0.04911679 -0.16727163 -0.70083249 36 136 119
-0.050850641 -0.16613078 -0.70127106 36 138 119
-0.051682543 -0.16654253 -0.70133728 35 137 120
-0.051888965 -0.16833204 -0.70110232 32 136 120
-0.050047666 -0.16710168 -0.70100325 35 136 119
-0.051916309 -0.1665234 -0.70137602 35 137 120
-0.051557634 -0.1681087 -0.70108479 32 136 120
-0.046085447 -0.16736802 -0.70052278 41 135 121
-0.045986693 -0.16724165 -0.70053285 42 136 120
-0.045890354 -0.16806534 -0.7004025 39 135 120
-0.04596011 -0.16847959 -0.70034736 38 136 120
-0.046475567 -0.16802287 -0.70046008 39 135 120
-0.047114253 -0.1678533 -0.70054239 38 136 120
-0.046311125 -0.16679931 -0.70062906 42 136 120
-0.04811335 -0.16676444 -0.70079905 38 136 119
-0.048668098 -0.16912028 -0.70049208 34 135 120
-0.048000198 -0.16689725 -0.70076853 38 136 119
-0.045460317 -0.16622977 -0.70063776 43 136 120
-0.041577049 -0.16747886 -0.70023859 42 134 118
-0.041045465 -0.16709596 -0.70026886 43 134 117
-0.042550154 -0.16913506 -0.70003939 41 136 119
-0.042158056 -0.16789559 -0.7002058 41 135 118
-0.041226424 -0.16817746 -0.70011544 43 136 118
-0.042858914 -0.16878892 -0.7001074 40 135 119
-0.042061914 -0.16682507 -0.70036143 42 133 118
-0.044921927 -0.16837707 -0.70027161 39 135 120
-0.04358789 -0.1682729 -0.70022178 38 135 118
-0.04443286 -0.16607071 -0.700589 45 135 120
-0.043396175 -0.16639259 -0.70049065 43 135 119
-0.038312603 -0.1694787 -0.69981354 45 136 118
-0.039709572 -0.16865838 -0.69999349 45 137 119
-0.037981428 -0.16740683 -0.70012772 43 137 119
-0.038395166 -0.16983517 -0.69976038 46 136 117
-0.040330596 -0.16940856 -0.69989789 45 138 119
-0.04017501 -0.1682706 -0.70006579 44 136 119
-0.040451605 -0.16718158 -0.70023787 43 135 118
-0.039308812 -0.16798544 -0.70008326 44 137 119
-0.040156338 -0.16827187 -0.70006508 44 136 119
-0.039667521 -0.16615953 -0.7003687 42 134 118
-0.033581175 -0.16875538 -0.69979119 50 136 117
-0.034732614 -0.16766396 -0.69998109 50 136 117
-0.036264829 -0.16935039 -0.69976544 47 135 117
-0.034843035 -0.16831234 -0.69988692 48 136 117
-0.035788253 -0.16978267 -0.69968975 47 134 118
-0.036761705 -0.16701898 -0.70014602 44 136 119
-0.036953241 -0.16957963 -0.69974899 46 134 117
-0.0344554 -0.16648725 -0.70015657 50 137 118
-0.036027193 -0.16648877 -0.70020622 45 136 119
-0.034164283 -0.16656494 -0.70013511 50 137 117
-0.032084234 -0.167724 -0.70000917 53 136 117
-0.032098103 -0.16716616 -0.70009148 53 137 116
-0.031885013 -0.16763403 -0.70003557 53 137 116
-0.033186231 -0.16901621 -0.69974446 51 135 118
-0.032580502 -0.16764723 -0.69998825 53 136 117
-0.032462724 -0.16623054 -0.70018959 53 136 117
-0.029351529 -0.16834556 -0.70004332 54 136 116
-0.030888887 -0.16807751 -0.70002586 54 136 116
-0.029447148 -0.16615856 -0.70029277 53 134 117
-0.030056689 -0.16824707 -0.70003247 54 136 116
-0.028480655 -0.16955586 -0.69997686 54 136 116
-0.026494468 -0.16824339 -0.70028996 48 140 114
-0.025857383 -0.16853087 -0.70032984 47 139 115
-0.026202638 -0.16843455 -0.70030314 48 139 115
-0.027983846 -0.16893829 -0.70007992 53 138 116
-0.028517146 -0.16709083 -0.70024538 52 137 116
-0.028922044 -0.16715187 -0.7002095 53 137 116
-0.028455621 -0.16612083 -0.70036173 52 137 116
-0.029279409 -0.16884197 -0.69998896 54 136 116
-0.028830821 -0.1681626 -0.70009935 54 136 116
-0.024962207 -0.16965893 -0.70030969 50 135 115
-0.06847772 -0.17223564 -0.70339954 40 133 116
-0.066652201 -0.1705312 -0.70328599 38 133 118
-0.067831635 -0.17326285 -0.70306122 40 134 114
-0.066857293 -0.17204057 -0.70306039 40 133 116
-0.067570493 -0.17182782 -0.70326018 40 133 116
-0.064910486 -0.17283714 -0.70247978 37 135 116
-0.064541265 -0.17007384 -0.7028898 37 133 119
-0.064723782 -0.1713638 -0.70270067 37 134 117
-0.064483687 -0.17019582 -0.70285505 37 133 119
-0.067705825 -0.17326665 -0.70303214 40 134 114
-0.066043124 -0.17183147 -0.70291406 38 133 116
-0.060734514 -0.17124547 -0.70190281 32 136 118
-0.062804513 -0.17287606 -0.70203608 34 136 116
-0.062184837 -0.17241071 -0.70199233 34 135 117
-0.062078279 -0.1733226 -0.70181924 34 135 117
-0.063008882 -0.17278157 -0.70209181 35 135 116
-0.063796565 -0.17281975 -0.70224375 35 136 115
-0.063479975 -0.17005543 -0.70267141 36 132 119
-0.062203605 -0.17157456 -0.70213562 33 135 116
-0.063871518 -0.17305356 -0.70221764 35 136 115
-0.06376633 -0.17062785 -0.70262867 36 134 119
-0.059677988 -0.17346023 -0.70135903 33 136 119
-0.057252888 -0.1733892 -0.70098031 32 136 118
-0.056806557 -0.17226671 -0.70110434 33 135 118
-0.059269335 -0.17311664 -0.70135319 33 136 119
-0.058589105 -0.17260087 -0.70133352 33 135 119
-0.058904551 -0.17337573 -0.70124906 33 136 119
-0.056985851 -0.17005278 -0.70151812 36 134 119
-0.060117271 -0.17173558 -0.70171827 33 136 119
-0.058997165 -0.17165825 -0.70155913 34 135 119
-0.058544822 -0.17060106 -0.70166612 34 134 119
-0.060221452 -0.17206223 -0.70167977 33 136 119
-0.057975098 -0.17050289 -0.70159495 36 134 119
-0.052996613 -0.17209759 -0.70064038 30 133 120
-0.053577092 -0.17255473 -0.70063418 30 133 120
-0.053600926 -0.17279488 -0.70059437 30 135 119
-0.056208875 -0.17343941 -0.70081824 31 135 118
-0.054895785 -0.17368165 -0.70060426 31 133 119
-0.054826565 -0.17139831 -0.70100081 31 136 119
-0.055302989 -0.17147359 -0.7010476 32 136 119
-0.055107884 -0.17018062 -0.70124882 33 134 120
-0.055835925 -0.17239618 -0.70095366 32 136 119
-0.054861791 -0.17066519 -0.70113319 32 134 120
-0.054124776 -0.17052764 -0.70106441 31 133 120
-0.050018813 -0.17139371 -0.70032299 31 135 120
-0.049340513 -0.17124546 -0.7002719 32 136 120
-0.049139146 -0.17272402 -0.70006615 33 134 120
-0.049852788 -0.17240438 -0.7001794 32 134 120
-0.050707649 -0.17313358 -0.70017594 32 133 120
-0.049141429 -0.17025758 -0.70037514 31 136 120
-0.052077491 -0.17196554 -0.70052731 30 133 120
-0.052429739 -0.17054264 -0.7008366 28 135 120
-0.052318688 -0.17149779 -0.70064855 30 133 120
-0.052278228 -0.17133287 -0.70067167 30 133 120
-0.051892813 -0.17122927 -0.70063001 30 133 120
-0.045605768 -0.17236425 -0.69974929 34 136 118
-0.046142038 -0.17284742 -0.69973743 34 135 119
-0.047239531 -0.1736642 -0.69973886 34 135 119
-0.048107404 -0.17351303 -0.69986135 34 135 119
-0.045874123 -0.17135727 -0.69993359 34 136 119
-0.046539985 -0.17004317 -0.7001695 34 135 119
-0.047752868 -0.17061071 -0.70020461 33 136 119
-0.047953814 -0.17024212 -0.70026839 33 136 119
-0.048709776 -0.17018355 -0.70034188 33 136 120
-0.046600711 -0.17097883 -0.70005769 34 135 119
-0.046590183 -0.17050435 -0.70011616 34 135 119
-0.041305438 -0.17089075 -0.69973195 45 137 118
-0.042359933 -0.17166227 -0.69966853 42 137 118
-0.043178365 -0.17069557 -0.69983512 40 137 119
-0.042765077 -0.17079523 -0.69979864 41 137 119
-0.042970281 -0.1707806 -0.69981146 40 138 118
-0.04356024 -0.17014547 -0.69993877 38 137 118
-0.037582003 -0.17041203 -0.69965154 46 135 117
-0.040360827 -0.17069927 -0.69972306 46 137 118
-0.037855037 -0.17010817 -0.69970435 46 135 117
-0.039815862 -0.17011955 -0.69977415 46 137 118
-0.035440177 -0.17011829 -0.69963247 47 136 117
-0.031527035 -0.1709287 -0.6996488 54 135 117
-0.030866345 -0.17059825 -0.69971448 54 136 116
-0.031426147 -0.17079048 -0.69966483 53 136 116
-0.030981291 -0.16999975 -0.69974786 53 136 116
-0.030426739 -0.17121717 -0.69970083 55 135 116
-0.026896359 -0.17369959 -0.69992197 56 136 114
-0.028723547 -0.17062211 -0.69989091 55 135 116
-0.028090576 -0.17223467 -0.69986439 56 135 115
-0.027929373 -0.17185304 -0.69991171 55 136 115
-0.027986484 -0.17109735 -0.69995159 54 136 115
-0.027993722 -0.1707295 -0.69996464 54 136 115
-0.026201935 -0.17205182 -0.70009643 52 136 115
-0.025907863 -0.17147197 -0.70014781 50 136 114
-0.026508987 -0.17224137 -0.70005822 54 136 115
-0.026863188 -0.17064068 -0.7000823 51 135 115
-0.023179721 -0.17300265 -0.70035368 54 137 115
-0.022671055 -0.17335711 -0.7004137 53 137 113
-0.02252792 -0.1726408 -0.70042396 54 137 115
-0.023111988 -0.17276622 -0.70035934 54 137 115
-0.022836113 -0.1736989 -0.70039797 53 137 113
-0.021843629 -0.1701577 -0.70048618 55 138 117
-0.025252134 -0.17273165 -0.70016229 52 137 115
-0.025348542 -0.17028889 -0.70024711 46 136 115
-0.024754029 -0.17201097 -0.70022243 52 137 115
-0.024877731 -0.1702085 -0.70028156 47 136 115
-0.021177061 -0.17372729 -0.70056939 52 137 113
-0.02097775 -0.17155886 -0.70057839 55 137 116
-0.020809401 -0.17192514 -0.70059669 55 137 116
-0.020849727 -0.17297143 -0.70060158 54 136 114
-0.070106246 -0.17524607 -0.70335656 47 134 114
-0.068867438 -0.17490298 -0.70306158 48 133 113
-0.065414928 -0.17479597 -0.70227522 45 134 114
-0.064783476 -0.17444098 -0.7021755 40 136 114
-0.065128021 -0.17567694 -0.70204258 46 135 113
-0.06673561 -0.17390248 -0.70270282 40 135 114
-0.065108471 -0.17448321 -0.70225209 42 136 114
-0.067654774 -0.17450447 -0.70282197 45 134 113
-0.062818445 -0.17688741 -0.70136046 43 136 114
-0.062556244 -0.17738307 -0.70124936 43 136 114
-0.062851936 -0.17657965 -0.70140916 43 136 114
-0.063418865 -0.17690501 -0.70145237 45 135 114
-0.061820444 -0.17658071 -0.70124686 38 137 114
-0.063454635 -0.17686927 -0.70146304 45 135 114
-0.061934564 -0.17504415 -0.7014882 38 135 117
-0.062277377 -0.17438084 -0.70167458 36 135 117
-0.064245664 -0.17408819 -0.70211262 36 137 114
-0.063340619 -0.17410205 -0.70193285 36 136 116
-0.062925436 -0.17555858 -0.70158982 41 135 115
-0.063822106 -0.17433742 -0.70198488 38 136 115
-0.057189524 -0.17648926 -0.70052236 31 136 115
-0.057051007 -0.17560017 -0.70062393 31 136 116
-0.056987137 -0.17529951 -0.70065558 31 136 117
-0.05919065 -0.17736587 -0.70071918 33 138 114
-0.056945503 -0.17516765 -0.70066726 31 136 117
-0.058539778 -0.17759556 -0.70058364 32 137 114
-0.058760148 -0.17383176 -0.7011463 33 136 119
-0.059276775 -0.17516343 -0.70104176 33 137 117
-0.059017736 -0.17537749 -0.70096976 33 137 116
-0.058116231 -0.17408411 -0.70100683 32 136 118
-0.058537111 -0.17523552 -0.70091224 33 137 116
-0.059761126 -0.17512338 -0.7011255 33 137 117
-0.05489463 -0.17612363 -0.70025665 29 135 116
-0.052921042 -0.17549442 -0.70006579 32 134 118
-0.053257499 -0.17673515 -0.6999225 33 135 118
-0.055568248 -0.1768592 -0.70024097 29 136 115
-0.055549767 -0.17705019 -0.7002086 29 136 115
-0.05592021 -0.17685314 -0.70029074 29 135 115
-0.056306023 -0.17580748 -0.70048624 30 135 116
-0.056535397 -0.17743626 -0.70028967 29 135 114
-0.054758072 -0.17509006 -0.70038474 29 135 117
-0.056302372 -0.17407906 -0.70072609 31 135 118
-0.055902813 -0.17547083 -0.70048064 30 135 116
-0.049927142 -0.17522293 -0.69977945 35 135 119
-0.049522173 -0.17468685 -0.69982684 34 135 119
-0.049931884 -0.17444699 -0.69991326 33 135 118
-0.049640272 -0.17451257 -0.69987315 34 135 119
-0.050304797 -0.17524746 -0.69982737 35 135 119
-0.051439155 -0.17517303 -0.6999554 33 134 118
-0.050860826 -0.17399378 -0.70007896 32 134 119
-0.048656527 -0.17387325 -0.69986731 34 135 119
-0.023074435 -0.17433387 -0.70036519 54 136 113
-0.025259845 -0.17386612 -0.70012617 54 136 115
-0.023345437 -0.17482615 -0.70032781 57 136 113
-0.023414489 -0.17409347 -0.70033032 54 136 113
-0.020782528 -0.17447901 -0.70057875 54 137 112
-0.061083857 -0.17937875 -0.7007373 48 137 114
-0.062143091 -0.17866085 -0.70103258 48 137 114
-0.058484301 -0.17988613 -0.70022118 48 135 116
-0.05717871 -0.17996402 -0.69999874 46 135 116
-0.0581658 -0.1798231 -0.70017982 47 135 116
-0.05842923 -0.17990832 -0.70020878 48 135 116
-0.060195658 -0.17931776 -0.70058239 45 138 114
-0.060134478 -0.17866392 -0.70067406 41 137 115
-0.058233581 -0.17901494 -0.70031691 41 135 115
-0.060339585 -0.17944522 -0.70058554 47 137 116
-0.060208682 -0.17859577 -0.70069647 41 137 115
-0.059890714 -0.17883374 -0.70060891 42 137 115
-0.052986424 -0.17802536 -0.6996817 38 135 118
-0.055605244 -0.18035516 -0.69969934 51 134 117
-0.054924905 -0.17973237 -0.69969767 47 135 117
-0.054825891 -0.17824909 -0.69991595 37 135 116
-0.055074427 -0.1787924 -0.69986701 40 134 116
-0.055374801 -0.17819329 -0.70000488 34 135 115
-0.056124624 -0.13060601 -0.7127102 52 134 112
-0.055967685 -0.12988274 -0.71303034 53 135 112
-0.05768102 -0.13341981 -0.71172446 50 134 113
-0.05836546 -0.13381273 -0.71165025 51 134 112
-0.056692235 -0.13248977 -0.71198422 47 135 114
-0.058231048 -0.13291496 -0.71201062 52 134 111
-0.059278995 -0.13427795 -0.71157664 54 133 111
-0.058379412 -0.13336717 -0.71183991 52 134 111
-0.055596057 -0.13336965 -0.71144819 47 134 114
-0.054085139 -0.13235718 -0.71164483 52 134 114
-0.054832716 -0.13181789 -0.7119844 52 134 114
-0.056416724 -0.13285488 -0.71178943 46 135 114
-0.056295551 -0.13342848 -0.71152943 45 135 114
-0.055376366 -0.1328679 -0.71162522 48 134 114
-0.056589317 -0.13389818 -0.71137649 44 136 115
-0.042428929 -0.17365898 -0.69942105 42 136 117
-0.043601859 -0.17347749 -0.69947296 38 138 117
-0.042500038 -0.17312911 -0.69949406 42 137 118
-0.042039324 -0.17308038 -0.69948655 43 137 118
-0.040974554 -0.17254706 -0.69951928 46 137 118
-0.039580714 -0.17299072 -0.69939119 48 136 117
-0.039269336 -0.17330772 -0.69933611 50 136 117
-0.037932985 -0.17176569 -0.69947898 48 135 117
-0.040253002 -0.17204456 -0.69954467 47 136 118
-0.037372194 -0.17128371 -0.69952017 47 135 116
-0.038985938 -0.17130966 -0.69958901 46 135 117
-0.038638934 -0.17147881 -0.69955015 47 136 117
-0.035723928 -0.17157859 -0.69943696 51 135 117
-0.035334598 -0.17109488 -0.6994949 50 136 117
-0.034921285 -0.17041944 -0.6995787 49 135 117
-0.034298655 -0.17260417 -0.69932532 56 134 117
-0.031037848 -0.17204405 -0.69960481 56 135 116
-0.031093568 -0.1720743 -0.69959825 56 135 116
-0.048940554 -0.17535773 -0.69960785 37 135 118
-0.0497775 -0.1760373 -0.69959563 37 135 118
-0.049954109 -0.17682107 -0.69946837 38 136 118
-0.045685042 -0.17400099 -0.69950044 34 136 117
-0.046935532 -0.17473961 -0.69949764 36 136 118
-0.047871012 -0.17622763 -0.69931388 40 135 118
-0.046994071 -0.1752457 -0.69940573 38 136 117
-0.045462292 -0.17557347 -0.69925427 39 137 116
-0.046782371 -0.17744763 -0.69907844 45 136 116
-0.046032421 -0.17717114 -0.69908106 45 135 116
-0.047008749 -0.17635868 -0.69922227 42 135 118
-0.045745116 -0.17510401 -0.69932407 38 137 117
-0.04332969 -0.17684877 -0.69903779 49 135 116
-0.041737031 -0.17616934 -0.69908416 52 134 117
-0.042281948 -0.17634743 -0.69907528 51 135 116
-0.044687517 -0.17395931 -0.69942594 36 136 117
-0.043952785 -0.17404908 -0.69939959 38 137 117
-0.042836927 -0.17542961 -0.69920611 46 136 116
-0.042772755 -0.17408969 -0.69937009 42 136 117
-0.044284586 -0.17651451 -0.69910228 45 136 116
-0.039651167 -0.17396283 -0.69927603 48 136 116
-0.039795585 -0.17412934 -0.69926238 50 136 117
-0.053385984 -0.18084377 -0.69926989 47 135 115
-0.053404532 -0.18087061 -0.69926834 48 135 115
-0.053463768 -0.17976916 -0.69946307 44 134 117
-0.053640552 -0.17942643 -0.6995486 43 135 117
-0.054444663 -0.1810392 -0.69940382 51 134 117
-0.051462274 -0.18020923 -0.69909114 46 135 115
-0.049690723 -0.17849049 -0.69912571 45 135 117
-0.052458994 -0.17862543 -0.69950104 39 134 117
-0.050315358 -0.17818655 -0.69926667 42 136 117
-0.052341063 -0.1781859 -0.69955808 38 135 117
-0.051206537 -0.18071483 -0.69897974 49 136 115
-0.049585715 -0.1794782 -0.69896144 50 136 116
-0.050086591 -0.17978027 -0.6989792 49 136 116
-0.051185317 -0.18065622 -0.69898587 49 136 115
-0.0499136 -0.17927508 -0.69903356 47 136 116
-0.050150372 -0.18080284 -0.69883281 54 135 116
-0.048338819 -0.17807171 -0.69905746 46 135 117
-0.046293397 -0.17785399 -0.69900447 47 135 116
-0.046641875 -0.17851153 -0.69891977 50 136 116
-0.044465803 -0.17775732 -0.69894952 49 136 115
-0.04374126 -0.17782597 -0.69891971 52 134 116
-0.05423766 -0.18169178 -0.69926453 52 135 115
-0.053134747 -0.18180867 -0.69907826 50 135 114
-0.053362072 -0.18228488 -0.69906336 54 135 115
-0.057919197 -0.13449904 -0.71130079 47 135 112
-0.055767551 -0.13456625 -0.71096247 45 134 115
-0.055905543 -0.1341323 -0.7111727 46 134 115
-0.06059102 -0.13569605 -0.71121192 55 133 108
-0.060615774 -0.13594376 -0.71112549 54 134 108
-0.059756581 -0.13515458 -0.71129411 54 133 110
-0.059361253 -0.13647544 -0.71075499 48 135 110
-0.060346022 -0.13779658 -0.7104063 49 136 108
-0.060220525 -0.13808863 -0.71028191 48 137 108
-0.05877417 -0.13578585 -0.71092689 47 135 112
-0.059433095 -0.13842565 -0.71002525 46 138 108
-0.057148181 -0.13847683 -0.70962536 43 136 111
-0.057623949 -0.13795885 -0.70990902 43 137 111
-0.057914004 -0.13715075 -0.71027648 43 136 112
-0.056673381 -0.13760957 -0.70988911 42 136 113
-0.056433082 -0.13776574 -0.70979065 43 136 112
-0.05632177 -0.13559194 -0.7106325 43 135 115
-0.056139834 -0.13709369 -0.71001184 43 136 112
-0.0561396 -0.13594943 -0.71046382 44 135 114
-0.060680918 -0.14077266 -0.70938444 54 136 106
-0.060905412 -0.14110237 -0.70930636 55 135 106
-0.06263712 -0.13885139 -0.71040553 54 136 108
-0.062967919 -0.13897111 -0.71041983 55 135 108
-0.059357997 -0.14211294 -0.70869917 53 136 107
-0.057195634 -0.13956176 -0.70924497 44 136 110
-0.057929568 -0.14169216 -0.70863497 47 137 109
-0.056804247 -0.13936704 -0.70925403 43 136 111
-0.057289556 -0.14076093 -0.70885569 45 136 110
-0.058804031 -0.14049079 -0.70917201 50 135 108
-0.057673462 -0.13965335 -0.70928407 46 135 110
-0.059249274 -0.13969512 -0.70953095 48 136 108
-0.060290731 -0.13909777 -0.70991796 48 137 107
-0.060395237 -0.13925897 -0.70987755 49 137 107
-0.058437157 -0.1393287 -0.70952725 46 136 109
-0.055126585 -0.14159514 -0.708269 51 136 111
-0.055136252 -0.14134845 -0.70835507 49 137 110
-0.052838776 -0.14165504 -0.7079159 64 132 112
-0.055492476 -0.13902655 -0.70918614 46 136 111
-0.05599929 -0.1401695 -0.70887226 45 136 111
-0.056584433 -0.1420074 -0.70833588 45 136 111
-0.055087227 -0.13906962 -0.70911568 47 136 111
-0.050694861 -0.14196865 -0.70756596 68 132 111
-0.049557675 -0.14188202 -0.70746672 70 131 110
-0.049057662 -0.14183097 -0.70742768 70 131 110
-0.052086912 -0.14245157 -0.7075544 68 132 112
-0.051009052 -0.14169812 -0.70769799 66 132 111
-0.061034277 -0.14632107 -0.70758313 71 127 115
-0.05745998 -0.14436598 -0.70770794 50 134 113
-0.058376033 -0.14465967 -0.70773041 58 131 114
-0.058097191 -0.14467275 -0.70769238 54 133 113
-0.05791783 -0.14343689 -0.70805556 52 135 111
-0.058106415 -0.14341302 -0.70809054 53 134 111
-0.060415994 -0.14617288 -0.70752269 72 126 116
-0.057189848 -0.1429054 -0.70812422 47 136 111
-0.053124111 -0.14318424 -0.70746541 63 133 113
-0.055077121 -0.14325935 -0.70771736 53 135 112
-0.056581706 -0.14292504 -0.70803773 44 137 111
-0.052714594 -0.14311039 -0.7074331 65 132 113
-0.080719158 -0.16549551 -0.70775932 56 132 118
-0.079571903 -0.16517395 -0.70749831 59 132 117
-0.086110324 -0.16875002 -0.70871043 49 141 111
-0.085938312 -0.16958436 -0.7084744 50 141 113
-0.086124241 -0.16907793 -0.70864326 49 142 111
-0.085389413 -0.16847147 -0.70854479 47 140 113
-0.084373474 -0.16885994 -0.70814097 47 138 118
-0.086221986 -0.1687534 -0.70874476 49 141 111
-0.082192756 -0.16934061 -0.70743626 50 136 120
-0.082593277 -0.16864936 -0.70764875 51 135 121
-0.08379589 -0.16908674 -0.70791203 47 137 120
-0.082638443 -0.16721809 -0.70796824 48 135 118
-0.081532411 -0.16675632 -0.70773309 52 134 119
-0.0829539 -0.16769364 -0.70796025 48 136 119
-0.081555538 -0.16634081 -0.70783079 51 133 119
-0.083685137 -0.17073143 -0.70758331 51 137 121
-0.049388632 -0.14236772 -0.70727074 72 130 110
-0.047037091 -0.14251052 -0.70695913 72 132 109
-0.047345571 -0.14197333 -0.70718849 71 132 109
-0.047269579 -0.14139278 -0.70739126 68 132 109
-0.043231927 -0.14146484 -0.70693445 83 131 110
-0.042993024 -0.14253718 -0.70651978 89 130 111
-0.044716083 -0.1425617 -0.70669049 72 133 109
-0.042782847 -0.14110468 -0.70701778 81 131 110
-0.041470304 -0.14185736 -0.70660758 96 129 111
-0.041766744 -0.1415251 -0.70675898 91 130 111
-0.043416776 -0.14119533 -0.70705146 78 131 110
-0.039986923 -0.14119835 -0.70673871 86 133 109
-0.040851895 -0.14220814 -0.7064234 101 129 111
-0.038395826 -0.14216816 -0.70629513 91 133 108
-0.039500047 -0.14115946 -0.70672446 84 133 108
-0.039472058 -0.14223062 -0.70633507 96 131 109
-0.036761269 -0.14162271 -0.70640516 84 135 107
-0.033378262 -0.14253718 -0.7058515 88 132 110
-0.033884637 -0.14149317 -0.70627803 81 134 110
-0.033434566 -0.14255813 -0.70584714 88 132 110
-0.035378218 -0.1425304 -0.70598048 89 133 108
-0.03407206 -0.14248356 -0.70591563 88 133 109
-0.032167807 -0.14193714 -0.70607132 83 132 111
-0.032854699 -0.14249267 -0.70586222 87 131 111
-0.059745502 -0.14626633 -0.70740873 67 128 115
-0.058834489 -0.14619727 -0.70731843 59 130 115
-0.05503254 -0.14619337 -0.70684856 45 136 115
-0.055822637 -0.14577833 -0.7070747 43 137 114
-0.054402702 -0.14405456 -0.70738775 54 134 113
-0.054203313 -0.14439839 -0.70726275 53 134 114
-0.053751223 -0.1453425 -0.70693231 52 134 116
-0.052914221 -0.14460209 -0.70703268 58 133 116
-0.054037657 -0.14595626 -0.7067948 48 136 116
-0.051662114 -0.14279743 -0.70739883 68 131 112
-0.051515914 -0.14402375 -0.70703077 63 132 113
-0.051253259 -0.1448638 -0.70675939 61 132 114
-0.052684851 -0.14341378 -0.70734304 63 132 114
-0.0512481 -0.1438047 -0.70706189 65 132 113
-0.051818073 -0.14404005 -0.70706165 63 133 113
-0.050427713 -0.1445823 -0.70673603 63 132 113
-0.051974937 -0.14630422 -0.70642245 54 133 117
-0.050411351 -0.14511073 -0.70657372 61 132 113
-0.051781822 -0.14631373 -0.7063936 54 133 116
-0.049141958 -0.14298815 -0.70704597 71 131 110
-0.04660603 -0.14528762 -0.70604444 65 132 113
-0.045213904 -0.14521088 -0.70588797 65 132 112
-0.045266412 -0.14610477 -0.7056042 63 133 113
-0.046843927 -0.14571184 -0.7059375 63 132 113
-0.045070056 -0.14454611 -0.70608538 66 133 112
-0.046354748 -0.14443688 -0.70628834 66 133 111
-0.045765702 -0.14332835 -0.70656985 69 132 110
-0.046239011 -0.14275636 -0.70679426 71 132 110
-0.046936437 -0.14446257 -0.70635289 66 133 111
-0.048345756 -0.14385216 -0.70668995 69 131 111
-0.046425283 -0.14296664 -0.70675069 71 132 110
-0.047383212 -0.14263026 -0.70695603 73 131 109
-0.041170023 -0.14445543 -0.70569181 95 128 116
-0.041135997 -0.14304307 -0.70615774 103 128 113
-0.042578336 -0.1429977 -0.70632535 92 129 112
-0.044409581 -0.14317639 -0.70645803 75 132 110
-0.043356441 -0.14342539 -0.70626736 84 131 112
-0.044858474 -0.14500901 -0.70590895 66 133 112
-0.042670984 -0.14351638 -0.70616633 89 129 113
-0.041984368 -0.14287232 -0.70630419 97 129 112
-0.038370602 -0.14500833 -0.70530623 88 131 113
-0.037172321 -0.14473593 -0.70530277 88 132 111
-0.038402986 -0.14512041 -0.70526874 87 131 114
-0.040736753 -0.1432368 -0.70606363 102 128 113
-0.039059266 -0.14398491 -0.70571738 91 132 112
-0.03897395 -0.14440228 -0.70557362 88 132 113
-0.040963318 -0.14387025 -0.70586622 99 128 114
-0.040806059 -0.14345822 -0.70599407 101 128 114
-0.039626919 -0.14351566 -0.70590645 95 131 112
-0.033379097 -0.14281158 -0.70575315 87 132 110
-0.034933366 -0.14543018 -0.70492762 83 132 114
-0.035116062 -0.14461003 -0.70521843 87 131 113
-0.033598129 -0.14333814 -0.70558262 86 131 111
-0.035147693 -0.14541435 -0.70494336 83 132 114
-0.0358507 -0.14424717 -0.70539325 88 132 111
-0.033981368 -0.14330442 -0.70561349 88 131 111
-0.035166502 -0.14438675 -0.70529991 88 131 112
-0.03612332 -0.14532807 -0.70502257 88 130 113
-0.036095068 -0.14279358 -0.70593047 89 134 108
-0.036803015 -0.14506906 -0.70515853 88 131 112
-0.061652455 -0.14949003 -0.70685416 54 134 111
-0.061307736 -0.14838703 -0.70707923 61 131 113
-0.059763618 -0.14649084 -0.70734292 67 127 116
-0.058766257 -0.14829558 -0.70676309 44 136 112
-0.060281698 -0.14785895 -0.70705944 61 130 114
-0.060413823 -0.1484206 -0.70693296 58 131 114
-0.059147097 -0.14686263 -0.70717359 59 130 115
-0.060239509 -0.14808892 -0.7069959 59 131 114
-0.058020044 -0.14892516 -0.7065109 41 136 113
-0.057625476 -0.14955454 -0.70630169 41 135 113
-0.057831638 -0.14826556 -0.7066558 41 137 113
-0.059078265 -0.1494025 -0.70651972 42 136 112
-0.05879486 -0.1491176 -0.70655739 42 136 112
-0.055356879 -0.14963005 -0.70599991 40 135 114
-0.053813532 -0.14910607 -0.70594054 42 134 116
-0.054957483 -0.1492009 -0.7060588 42 135 114
-0.05370786 -0.14998184 -0.7057057 37 135 114
-0.052753557 -0.14978233 -0.70563751 37 134 115
-0.054310333 -0.14865504 -0.70611656 43 135 115
-0.055212501 -0.14864039 -0.70623308 44 135 115
-0.054848 -0.14850152 -0.70622247 45 135 115
-0.055613592 -0.14878677 -0.70624632 42 136 114
-0.054263312 -0.14694047 -0.7065466 47 135 116
-0.054491825 -0.14710109 -0.7065345 46 135 116
-0.051154219 -0.14960295 -0.70543325 40 134 115
-0.049918603 -0.15023041 -0.70502633 35 135 117
-0.049117751 -0.14912772 -0.70521104 42 134 116
-0.050508313 -0.14863838 -0.70560467 46 133 114
-0.049128547 -0.14847192 -0.70540792 47 133 116
-0.049207538 -0.14845929 -0.70542574 47 133 116
-0.051823042 -0.14927198 -0.70564187 42 133 114
-0.052335951 -0.14783038 -0.70607567 47 133 116
-0.052173857 -0.14671108 -0.70633721 52 134 117
-0.051195543 -0.14656198 -0.70624346 55 133 116
-0.045356229 -0.14755552 -0.70516604 54 134 115
-0.045289729 -0.14789046 -0.70505267 52 135 115
-0.047804724 -0.14945193 -0.70492858 41 135 117
-0.046575747 -0.14884154 -0.70494193 45 135 116
-0.047538769 -0.14969417 -0.70481551 38 136 117
-0.04824096 -0.14999948 -0.70482135 36 135 117
-0.045239955 -0.14678583 -0.70538777 60 133 114
-0.046076346 -0.14712593 -0.70539564 57 134 115
-0.047881804 -0.14649053 -0.70581979 61 131 114
-0.047939725 -0.14899379 -0.70508343 44 134 117
-0.042526193 -0.14903571 -0.70438725 52 135 117
-0.043537065 -0.14940585 -0.7043795 47 135 117
-0.041092765 -0.14939147 -0.70413345 47 135 117
-0.041755442 -0.14992994 -0.70403934 39 136 116
-0.044035826 -0.14867985 -0.70465648 52 135 117
-0.043880835 -0.14874892 -0.70461774 52 135 117
-0.038868293 -0.15000871 -0.70377433 45 133 117
-0.037265979 -0.15015484 -0.70361078 49 130 119
-0.04065812 -0.14875528 -0.70428669 56 134 118
-0.035756547 -0.15011042 -0.70357674 50 133 118
-0.035769653 -0.14989713 -0.70363331 51 132 118
-0.035352249 -0.14905919 -0.70384604 55 133 117
-0.030148197 -0.1497734 -0.70366001 52 137 118
-0.030914366 -0.15012233 -0.70354897 51 138 117
-0.032178767 -0.14972773 -0.70364922 55 137 118
-0.029912006 -0.14928663 -0.70380497 54 136 118
-0.02950138 -0.15019991 -0.70354313 49 138 117
-0.029441638 -0.15016596 -0.70355374 49 138 117
-0.061127018 -0.15158331 -0.70624441 47 135 111
-0.061331555 -0.15194632 -0.70618647 48 136 110
-0.06124327 -0.15167867 -0.70623899 48 135 111
-0.060573153 -0.15307102 -0.7057876 44 136 111
-0.061926082 -0.15082461 -0.70654911 53 134 111
-0.061668761 -0.15095578 -0.70647991 51 135 111
-0.058005806 -0.15209764 -0.7057088 40 135 112
-0.057430852 -0.15224349 -0.70559573 40 135 113
-0.058348209 -0.15381128 -0.70531422 42 134 113
-0.057887498 -0.15259276 -0.70556623 42 134 114
-0.057132319 -0.15427811 -0.70503449 42 134 114
-0.060271576 -0.15345921 -0.70565307 43 136 111
-0.059473623 -0.15232098 -0.70583731 42 136 111
-0.0595548 -0.15047222 -0.7063064 42 136 111
-0.060520813 -0.15208903 -0.70602411 43 137 110
-0.060284298 -0.15307297 -0.70575058 43 136 111
-0.055542406 -0.15397169 -0.70490092 42 133 115
-0.055581309 -0.15364866 -0.70499367 42 132 116
-0.054807682 -0.15284912 -0.70510292 40 133 115
-0.054786913 -0.15330334 -0.70497715 41 132 115
-0.052802481 -0.15109515 -0.70529991 36 134 114
-0.052823946 -0.15420131 -0.70446235 45 131 116
-0.054954179 -0.15078366 -0.70565647 38 134 114
-0.054663137 -0.15150519 -0.7054351 37 135 114
-0.055096816 -0.15192553 -0.70538127 38 133 114
-0.055648673 -0.1526227 -0.70527107 40 133 115
-0.056621946 -0.15181272 -0.7055999 40 134 114
-0.050755367 -0.15273705 -0.70450133 40 133 116
-0.049012352 -0.15397896 -0.70391309 36 132 116
-0.048872858 -0.1519857 -0.704391 35 133 117
-0.04909353 -0.15077257 -0.70473039 34 135 117
-0.049301412 -0.15370503 -0.70402771 37 131 116
-0.04891973 -0.1536331 -0.7039851 36 132 116
-0.051877052 -0.15295975 -0.704633 41 133 116
-0.052127071 -0.15362188 -0.70449841 43 131 116
-0.051914092 -0.15160322 -0.70500666 37 134 115
-0.051005624 -0.1515988 -0.70484573 37 134 116
-0.052110448 -0.150599 -0.70531344 35 135 115
-0.052501339 -0.15055579 -0.70539492 35 134 115
-0.045158837 -0.15298748 -0.70361072 29 134 116
-0.044945404 -0.15187551 -0.70385796 31 136 117
-0.046107963 -0.15193003 -0.704009 33 135 116
-0.046758287 -0.15338299 -0.70373839 33 133 116
-0.047638927 -0.15400358 -0.70370847 33 132 115
-0.047015805 -0.15121256 -0.70431852 34 135 117
-0.048016872 -0.15131836 -0.70443523 33 135 117
-0.047664031 -0.15173024 -0.70428145 34 134 117
-0.046273045 -0.15057936 -0.70437109 33 137 117
-0.04829675 -0.15150635 -0.70442814 34 134 117
-0.042556617 -0.1515459 -0.70369351 31 136 116
-0.044768173 -0.15063439 -0.70414853 33 138 116
-0.041817602 -0.15048304 -0.70388412 33 138 116
-0.044370979 -0.15162256 -0.7038613 31 137 116
-0.044446088 -0.15132381 -0.70394355 32 136 117
-0.040397666 -0.15130578 -0.70351994 34 136 116
-0.061042044 -0.15484202 -0.7054134 50 134 111
-0.060567256 -0.15685129 -0.70481122 48 136 109
-0.061164577 -0.15708421 -0.70484364 55 134 111
-0.061162751 -0.15584296 -0.70516944 52 135 111
-0.061313704 -0.15601212 -0.70514858 54 134 111
-0.057117078 -0.15670398 -0.70427626 41 132 116
-0.058488183 -0.15624163 -0.70469123 46 133 113
-0.057491947 -0.15680215 -0.70431691 42 134 115
-0.057629958 -0.15565713 -0.70471495 44 133 114
-0.058161777 -0.15752468 -0.70421201 43 134 114
-0.058280498 -0.15799202 -0.70408332 43 134 114
-0.058922596 -0.1552218 -0.70502228 45 134 113
-0.058952499 -0.15511978 -0.70505309 45 134 113
-0.060413584 -0.15434803 -0.70544803 43 136 111
-0.058644686 -0.15482752 -0.70508933 43 135 112
-0.060140654 -0.15526256 -0.70517194 45 135 111
-0.059905354 -0.15705606 -0.70466983 48 136 110
-0.05375161 -0.15749584 -0.70361477 40 132 119
-0.052824277 -0.15559466 -0.70406407 43 132 117
-0.052902523 -0.15750626 -0.70352852 41 132 120
-0.054292772 -0.15709582 -0.7037816 40 132 118
-0.053998932 -0.15637752 -0.70395696 42 131 117
-0.055342127 -0.15773614 -0.70370287 39 131 118
-0.055777393 -0.15451075 -0.70477611 42 133 115
-0.055116177 -0.15525356 -0.70444357 42 132 116
-0.055526566 -0.15639913 -0.70412886 40 131 117
-0.055946395 -0.15447626 -0.70481068 42 133 115
-0.05616549 -0.15685177 -0.70407045 39 132 117
-0.055697072 -0.15441985 -0.70479447 42 133 115
-0.050083976 -0.15535371 -0.70370322 38 131 117
-0.051709127 -0.15536989 -0.70395643 41 131 116
-0.051065143 -0.15511529 -0.70392656 40 132 116
-0.050370991 -0.1552621 -0.70377463 39 131 117
-0.052721538 -0.15473559 -0.70429742 45 131 116
-0.04812263 -0.15475515 -0.70357633 36 130 116
-0.061407071 -0.15925306 -0.70438689 53 135 111
-0.058252182 -0.16022219 -0.70356798 41 133 116
-0.05867916 -0.1603163 -0.70362699 43 132 117
-0.057953682 -0.15846521 -0.7038939 42 132 116
-0.060107287 -0.15965509 -0.70404792 49 133 113
-0.060511395 -0.15927905 -0.70420891 51 135 111
-0.060286429 -0.15999135 -0.70400846 49 134 113
-0.057828933 -0.15909828 -0.70373023 41 132 116
-0.059414767 -0.15896244 -0.70406669 46 133 113
-0.079120673 -0.16583149 -0.70723617 58 133 119
-0.078539237 -0.16556305 -0.70713758 60 133 118
-0.078848526 -0.16568604 -0.70719421 59 132 119
-0.075356014 -0.16589843 -0.70622617 63 134 120
-0.073244415 -0.16537866 -0.70580202 57 136 117
-0.073581688 -0.16588356 -0.70578933 60 134 118
-0.073061764 -0.16594319 -0.70564914 58 134 118
-0.074073404 -0.16565044 -0.70595562 60 135 119
-0.075552158 -0.16466108 -0.70652765 62 136 117
-0.07609088 -0.1648746 -0.70662796 65 133 118
-0.068685427 -0.16586733 -0.70458627 48 136 117
-0.072085664 -0.16508749 -0.70556933 56 137 116
-0.065629885 -0.16597097 -0.70379776 46 136 119
-0.066529401 -0.16549446 -0.70412958 47 137 117
-0.066554315 -0.16586007 -0.70405608 46 136 118
-0.062537991 -0.16419941 -0.70352215 48 133 118
-0.08036679 -0.16678992 -0.70739836 54 133 120
-0.081728891 -0.16966298 -0.70726794 48 136 120
-0.080986172 -0.16976863 -0.70706546 48 136 119
-0.077116646 -0.16644339 -0.70658928 63 133 121
-0.078594998 -0.16651221 -0.70697427 59 133 120
-0.079070225 -0.16635489 -0.70712739 58 132 120
-0.079474747 -0.16626123 -0.70725113 57 132 120
-0.079233311 -0.16719268 -0.70703405 55 134 119
-0.07995034 -0.16836987 -0.70703369 52 134 119
-0.078094758 -0.16876362 -0.70646578 53 134 120
-0.076714098 -0.16656421 -0.70646161 63 134 120
-0.079199567 -0.16975215 -0.70660102 48 136 119
-0.078997441 -0.16914383 -0.70664936 51 135 119
-0.07643348 -0.16847531 -0.70605743 53 134 120
-0.076236971 -0.1670001 -0.70625561 61 134 120
-0.074052297 -0.16802414 -0.70554328 51 135 118
-0.072524972 -0.16928095 -0.7050246 42 134 118
-0.072684184 -0.16818991 -0.70521706 47 134 118
-0.072648823 -0.1666306 -0.70543402 55 133 118
-0.07530833 -0.16908585 -0.70566767 47 135 119
-0.073641315 -0.16689222 -0.70562899 55 134 118
-0.07602673 -0.16731001 -0.70614868 58 134 120
-0.073612347 -0.16627914 -0.70572668 58 134 119
-0.075919859 -0.16825074 -0.70596135 53 134 120
-0.075779475 -0.16804343 -0.705962 54 135 120
-0.074516676 -0.16685176 -0.70585287 58 134 119
-0.07117027 -0.16975512 -0.70459658 40 134 118
-0.069659188 -0.1684913 -0.70439893 41 135 117
-0.069639608 -0.16957153 -0.70419872 40 134 118
-0.068965696 -0.16790992 -0.70430845 43 136 117
-0.069684461 -0.16892633 -0.70432764 41 135 117
-0.070451498 -0.16694191 -0.70485914 47 136 117
-0.069595873 -0.16633527 -0.70473653 48 136 117
-0.070402689 -0.16720784 -0.70480883 46 135 117
-0.071090803 -0.16680644 -0.70503563 50 136 117
-0.071725413 -0.16912158 -0.70485771 41 135 117
-0.072137266 -0.16878864 -0.70500678 43 135 117
-0.067352667 -0.16950636 -0.70362979 40 134 118
-0.067651279 -0.16895725 -0.70379406 41 134 118
-0.067726403 -0.1673229 -0.70409691 43 136 118
-0.067506664 -0.1668869 -0.70411527 44 136 117
-0.065467753 -0.16664706 -0.70363975 45 135 119
-0.066034831 -0.16662221 -0.70378757 45 135 118
-0.065656073 -0.16641596 -0.70372665 46 135 119
-0.082569711 -0.17069818 -0.70731086 50 136 120
-0.080127701 -0.17172365 -0.70648342 50 137 117
-0.077371992 -0.17226166 -0.70568937 48 136 119
-0.077476457 -0.17225932 -0.70571226 48 136 119
-0.07878343 -0.17105517 -0.70624071 48 136 118
-0.078107134 -0.17115092 -0.70603609 48 137 118
-0.077446356 -0.17093697 -0.70589495 47 136 119
-0.07739687 -0.17098589 -0.70587194 47 136 119
-0.073676385 -0.17352475 -0.7046169 43 135 118
-0.073664322 -0.17158021 -0.70495468 42 135 118
-0.073111713 -0.17314368 -0.70453411 42 134 118
-0.074025348 -0.17348431 -0.70471644 43 135 118
-0.072456934 -0.17184475 -0.70458841 40 135 117
-0.073028937 -0.17241013 -0.70464087 41 135 117
-0.074708059 -0.17035006 -0.70535833 43 135 119
-0.074565217 -0.17119199 -0.70521617 43 136 118
-0.076160483 -0.17330877 -0.70529068 46 134 120
-0.073909238 -0.17042984 -0.70517135 42 134 119
-0.076038405 -0.17158251 -0.70549041 46 134 119
-0.075861596 -0.17012128 -0.70564324 43 136 119
-0.068931527 -0.17160384 -0.7036407 39 134 116
-0.069712967 -0.17297491 -0.70361984 39 135 115
-0.070740439 -0.17255175 -0.7039842 40 135 116
-0.070494078 -0.17326312 -0.70378947 40 135 115
-0.070147544 -0.17057087 -0.7041648 39 134 118
-0.069475517 -0.16993806 -0.70408654 39 134 118
-0.071659282 -0.17119853 -0.70448035 40 134 118
-0.070781164 -0.1706726 -0.70432532 40 134 118
-0.072238065 -0.17167611 -0.7045595 40 134 117
-0.067926928 -0.16997589 -0.70367098 39 133 118
-0.076827444 -0.17390837 -0.70535392 48 135 119
-0.073160082 -0.17420177 -0.70437312 43 136 118
-0.074408472 -0.17403191 -0.70472836 45 135 118
-0.073878139 -0.17514116 -0.70442826 47 135 118
-0.075833976 -0.17406137 -0.70510185 47 135 120
-0.075347252 -0.17384258 -0.70500439 45 134 119
-0.07180535 -0.17508523 -0.70386416 46 135 116
-0.071954429 -0.17455627 -0.70398867 44 135 117
0 0 0 1 0 0 0 1 0 0 0 1 0 0 0 0 0 1029 1 0 0
