ply
format ascii 1.0
comment PCL generated
element vertex 635
property float x
property float y
property float z
property uchar red
property uchar green
property uchar blue
element camera 1
property float view_px
property float view_py
property float view_pz
property float x_axisx
property float x_axisy
property float x_axisz
property float y_axisx
property float y_axisy
property float y_axisz
property float z_axisx
property float z_axisy
property float z_axisz
property float focal
property float scalex
property float scaley
property float centerx
property float centery
property int viewportx
property int viewporty
property float k1
property float k2
end_header
0.099153295 0.4161486 -0.83711642 66 136 123
0.098555483 0.41598395 -0.83641762 65 136 123
0.098880179 0.41566166 -0.83652496 65 136 123
0.099763602 0.41536674 -0.83726484 65 137 122
0.1020875 0.41384038 -0.8397519 68 138 121
0.10169955 0.41205552 -0.83803809 69 136 121
0.097000457 0.43769664 -0.84796733 56 135 123
0.098159626 0.434021 -0.84714568 56 137 122
0.098448142 0.43358317 -0.84713376 55 138 122
0.099432699 0.43257025 -0.84741151 56 138 122
0.099890754 0.43221423 -0.84777927 57 139 123
0.098321833 0.42964676 -0.84481966 65 137 123
0.099246271 0.42962292 -0.84563923 68 138 123
0.099584527 0.43014368 -0.8462165 65 138 123
0.098619647 0.42958879 -0.84505725 66 137 123
0.099048033 0.42876813 -0.8450129 75 136 125
0.099500909 0.42820626 -0.84512615 81 137 125
0.098382212 0.42919946 -0.84463906 68 137 124
0.10029458 0.43154016 -0.84798819 58 139 123
0.10012326 0.43055618 -0.84721786 66 138 123
0.10031583 0.43121845 -0.84784615 61 138 123
0.10057212 0.4308908 -0.84803516 61 138 123
0.10047767 0.43061909 -0.84775543 63 138 124
0.099867649 0.42922491 -0.84614152 76 138 125
0.099613875 0.42863736 -0.8454566 78 137 125
0.099538535 0.42740482 -0.84469891 86 137 126
0.10116984 0.42738521 -0.84697026 79 137 125
0.10062309 0.42745885 -0.8462404 81 137 125
0.1010282 0.42475727 -0.8450315 68 138 123
0.10069793 0.42442963 -0.84434843 69 138 123
0.10083383 0.42622584 -0.84572893 76 138 124
0.10116994 0.42636311 -0.84629422 73 138 124
0.10188156 0.4259263 -0.84719867 80 137 124
0.10214479 0.42604336 -0.84772915 85 138 125
0.10180461 0.42643484 -0.84735775 78 137 125
0.10115215 0.42385817 -0.84471947 71 138 123
0.10109046 0.42393869 -0.84465766 69 138 122
0.10180113 0.42358625 -0.84563297 83 138 124
0.10530397 0.46962613 -0.87107527 105 139 128
0.10542088 0.46922594 -0.87141687 104 139 128
0.10562634 0.46556807 -0.87116152 106 138 128
0.10646994 0.45916083 -0.86985248 97 131 128
0.10646693 0.45661366 -0.86912191 93 133 126
0.10706536 0.4579151 -0.87085652 94 131 126
0.1071505 0.4580183 -0.87110883 95 131 126
0.10623145 0.45792606 -0.86896342 97 132 127
0.10632315 0.45880741 -0.86938614 97 131 127
0.10649224 0.45770633 -0.86945695 94 132 127
0.10648484 0.45172194 -0.86843628 94 135 127
0.10632437 0.45215797 -0.86808759 93 135 127
0.10691854 0.45028839 -0.86892682 96 133 128
0.10653367 0.45052478 -0.86801344 92 132 128
0.1081588 0.44366845 -0.87078154 91 136 128
0.1082001 0.44365761 -0.87102818 91 136 128
0.10811417 0.44406801 -0.87066382 93 135 128
0.10806559 0.44462159 -0.87058139 95 135 129
0.10808045 0.44029528 -0.86849588 71 137 126
0.10806033 0.43983468 -0.86813068 69 138 125
0.10826293 0.44145924 -0.87034178 81 137 127
0.10826946 0.44099763 -0.87016302 80 136 127
0.10808975 0.43975514 -0.86829829 70 137 126
0.10788302 0.44287348 -0.86871791 91 136 128
0.10799979 0.43960708 -0.86761379 68 137 126
0.10798023 0.4431006 -0.86943448 91 136 128
0.10819042 0.44199306 -0.87009639 81 137 127
0.10788629 0.44100505 -0.86770046 79 136 127
0.10817721 0.43634906 -0.86944109 95 138 128
0.10823469 0.43716568 -0.86948693 90 138 127
0.1083004 0.43768427 -0.86983842 89 137 128
0.1083789 0.43696699 -0.87122136 96 138 128
0.10840483 0.43725717 -0.87129849 95 137 128
0.10822462 0.43696228 -0.86952251 92 138 127
0.10820051 0.43749031 -0.86911118 87 138 127
0.1081557 0.43853173 -0.86869973 78 138 126
0.10850658 0.43943954 -0.87107557 82 136 127
0.10797419 0.43616408 -0.86764801 90 138 128
0.10803396 0.43869165 -0.86783123 73 138 126
0.10805281 0.43547979 -0.86858594 97 138 128
0.10806999 0.43494046 -0.86829263 97 138 127
0.10642809 0.47250929 -0.87561244 107 140 128
0.10646127 0.47148374 -0.87561119 105 140 128
0.10650535 0.47172251 -0.87575799 106 141 128
0.10687999 0.47018164 -0.87671387 107 140 127
0.10729516 0.46808764 -0.87785107 104 139 127
0.10712178 0.46924016 -0.87738109 107 140 127
0.10666877 0.46697769 -0.87576115 101 137 128
0.10682929 0.46851593 -0.87647891 101 140 127
0.1067781 0.46711487 -0.87613404 101 137 128
0.10661398 0.46798575 -0.87571138 102 138 127
0.1074628 0.46699601 -0.87835282 101 139 126
0.10726341 0.46601105 -0.87707669 99 137 127
0.10712677 0.46675393 -0.87719458 100 138 127
0.10700606 0.46551719 -0.87586629 98 135 127
0.10720583 0.46517232 -0.8762548 98 134 127
0.10752891 0.46515587 -0.87738466 98 136 127
0.10743492 0.46649626 -0.87801254 99 138 127
0.10756403 0.46492448 -0.87735456 99 135 126
0.107961 0.46389756 -0.87903672 94 134 126
0.10773768 0.46338698 -0.87737179 95 133 126
0.1077252 0.46602803 -0.87899983 99 138 125
0.1076868 0.46601075 -0.87875897 99 138 125
0.10778161 0.46507674 -0.87872392 97 137 125
0.10792349 0.46032947 -0.87874359 85 134 124
0.10798566 0.46024722 -0.8767364 95 134 124
0.1078494 0.45919257 -0.87820613 84 135 123
0.10810357 0.46274161 -0.87921727 91 132 125
0.10784069 0.4590165 -0.87804222 84 135 123
0.10795917 0.46088344 -0.87901789 86 133 125
0.1078402 0.46097893 -0.87629229 95 133 125
0.10767139 0.46190819 -0.87594974 95 132 126
0.10788423 0.46188927 -0.87720931 94 133 125
0.10771102 0.46218526 -0.87638581 95 132 126
0.10780818 0.46081957 -0.87598628 95 134 125
0.10798581 0.46045807 -0.87678921 95 134 124
0.10782093 0.45871976 -0.8791967 81 135 123
0.10819737 0.45593718 -0.87907124 108 139 128
0.10817649 0.45602474 -0.87899387 107 139 127
0.10793567 0.45710373 -0.87818885 97 137 126
0.10801245 0.45677122 -0.87846005 100 138 126
0.1079009 0.45894977 -0.87620515 93 135 124
0.10782025 0.45830259 -0.87845933 86 136 124
0.10783955 0.45818573 -0.87787914 89 137 124
0.10780356 0.45880973 -0.87902153 81 135 123
0.1081507 0.45166603 -0.87899584 95 137 127
0.10823868 0.45189938 -0.87664014 100 137 127
0.10820485 0.45187002 -0.8776595 99 137 128
0.10817125 0.4520835 -0.87912732 98 137 128
0.10816713 0.4515945 -0.87833965 95 137 127
0.10821193 0.45226386 -0.87817407 100 137 127
0.10823719 0.45156395 -0.87570512 100 136 127
0.10825705 0.44969377 -0.8787027 96 136 128
0.10834179 0.44902757 -0.87890476 99 136 128
0.10820007 0.45096087 -0.87678158 96 136 127
0.10825396 0.45006865 -0.87625992 96 135 127
0.10825889 0.44950873 -0.87685001 95 135 128
0.10822718 0.45116177 -0.87565321 97 135 127
0.10818134 0.45094946 -0.87739164 95 136 127
0.1083732 0.44265801 -0.87826407 101 138 127
0.10476858 0.43507037 -0.87860733 98 142 128
0.10418379 0.48014006 -0.8975755 97 140 125
0.10451985 0.48020017 -0.89699882 97 140 125
0.10472599 0.48095912 -0.89777064 99 140 126
0.10452408 0.47924966 -0.89524788 95 139 125
0.1048523 0.48011592 -0.8956399 97 139 126
0.10486558 0.48057741 -0.89674395 98 140 126
0.10515126 0.48142737 -0.89733011 101 140 127
0.10510828 0.48063305 -0.89554125 100 138 126
0.10287363 0.45295686 -0.85907042 93 136 126
0.10334352 0.45181727 -0.85917568 94 136 126
0.10370033 0.45132667 -0.85976243 95 135 126
0.10347274 0.45047423 -0.85922694 95 135 126
0.10287192 0.44943428 -0.85878265 94 136 126
0.10277817 0.44841194 -0.85886049 95 137 126
0.10238096 0.44802076 -0.85807014 94 136 126
0.10271843 0.44470185 -0.85749042 97 139 126
0.10296036 0.44512147 -0.85815322 99 139 126
0.10280292 0.44445881 -0.85757506 99 139 127
0.10283802 0.44481605 -0.8577829 98 139 126
0.10215975 0.44670156 -0.85714144 95 136 127
0.10190941 0.44698045 -0.85674495 94 135 126
0.10195495 0.44677073 -0.85675424 94 135 126
0.10234132 0.4455114 -0.8570385 94 137 127
0.10246216 0.44629607 -0.8575933 95 137 127
0.10585277 0.43187448 -0.85815638 80 134 128
0.10550844 0.43227491 -0.85756487 82 135 128
0.10552166 0.43364897 -0.85836768 85 135 128
0.10547427 0.43199933 -0.85732913 82 135 128
0.10593729 0.43282467 -0.85889024 80 135 128
0.10560375 0.43164706 -0.85743839 81 134 128
0.10527705 0.43365943 -0.85780615 86 135 128
0.10513669 0.43361914 -0.85749769 87 135 128
0.10510137 0.43364969 -0.85744554 88 135 128
0.1061189 0.42865363 -0.85766488 85 140 126
0.10652774 0.43052429 -0.85923618 79 137 127
0.10634822 0.42825371 -0.85802847 89 140 126
0.10627905 0.42952955 -0.8583315 82 138 127
0.10673326 0.42908582 -0.85917616 88 139 126
0.10664078 0.42947555 -0.85911113 85 139 126
0.1064012 0.43117338 -0.85918051 76 135 128
0.1059434 0.43130189 -0.85813504 79 135 128
0.10574335 0.43101439 -0.8575716 80 135 128
0.10552637 0.43041661 -0.85687184 82 136 128
0.10601901 0.42974448 -0.85783142 79 137 127
0.10559233 0.43125764 -0.85728902 81 135 128
0.1060637 0.42754126 -0.85709107 89 140 126
0.10556211 0.42743224 -0.85591346 86 139 127
0.10361563 0.45269048 -0.86003453 96 137 126
0.10342548 0.44740638 -0.85985637 99 137 126
0.10425345 0.44904608 -0.86126894 98 136 127
0.10424659 0.44841933 -0.8613652 99 137 127
0.10397553 0.44756913 -0.86094034 100 137 126
0.10420037 0.44963035 -0.86105311 98 136 127
0.1036125 0.44901219 -0.85991526 97 137 126
0.10424013 0.44722208 -0.86154485 101 138 126
0.10525158 0.44518468 -0.86344242 97 136 126
0.10520779 0.44534183 -0.86335033 98 136 127
0.10582909 0.44105685 -0.862867 87 134 128
0.1053618 0.44023967 -0.86166251 91 135 127
0.10596119 0.44058281 -0.86277729 87 134 128
0.10590798 0.44212183 -0.86363602 86 134 127
0.10594085 0.43995231 -0.86236185 87 134 128
0.10702569 0.43663058 -0.86292744 85 134 130
0.10623564 0.43564799 -0.86099815 87 135 129
0.10644609 0.43567896 -0.86144853 87 135 129
0.10676839 0.43600258 -0.86221433 86 135 129
0.10668754 0.43631428 -0.8621304 85 135 129
0.10654299 0.43679875 -0.86196035 84 135 129
0.1059595 0.43704483 -0.86093241 86 135 129
0.10543996 0.43756104 -0.86039478 89 136 128
0.10582616 0.43819976 -0.8612839 87 136 128
0.10630888 0.43930572 -0.86254251 84 134 128
0.10636404 0.4377538 -0.86188287 83 134 128
0.10637382 0.4349716 -0.8609851 84 135 128
0.10718031 0.434782 -0.86258757 83 135 129
0.10707428 0.4332993 -0.86165547 75 136 128
0.10632939 0.43531677 -0.86105698 86 135 129
0.10671277 0.43378875 -0.86113071 78 135 128
0.10665591 0.43378758 -0.86101079 78 135 128
0.10675769 0.43187645 -0.8602612 72 136 127
0.10629076 0.43385106 -0.86026269 79 136 128
0.10578106 0.43525115 -0.85987312 85 136 129
0.10751755 0.43313876 -0.86270416 76 135 128
0.10771733 0.43244883 -0.86319602 74 135 128
0.10747371 0.43374598 -0.8628149 78 136 128
0.10734483 0.43059322 -0.8610974 76 138 126
0.10723023 0.43152797 -0.86113751 69 136 127
0.10679058 0.43060681 -0.8598752 80 137 126
0.10794353 0.4291943 -0.86353225 93 138 125
0.10790902 0.42959613 -0.86337143 88 138 125
0.10746218 0.43136364 -0.86167121 69 136 127
0.10760723 0.43009734 -0.86187488 81 139 125
0.10523508 0.46752453 -0.88695437 101 137 126
0.1060825 0.46942756 -0.88704479 111 139 126
0.10672193 0.46858928 -0.88573402 111 139 127
0.10622775 0.46794197 -0.88608921 106 139 126
0.10632153 0.46798551 -0.88601989 107 139 126
0.10685112 0.46791896 -0.88562077 108 139 126
0.10765598 0.4677175 -0.88460481 109 139 126
0.10799723 0.4679448 -0.8837052 110 139 126
0.10319921 0.46310946 -0.88684589 96 138 125
0.10474041 0.46643421 -0.88695759 97 137 125
0.10653488 0.4666945 -0.88576865 102 137 126
0.10455377 0.46541399 -0.88652152 97 137 125
0.10458521 0.46555847 -0.88655555 97 137 125
0.10365362 0.46423897 -0.88666683 97 137 125
0.10523684 0.4652724 -0.88602024 100 138 125
0.10488977 0.46342263 -0.88580328 101 137 126
0.10629858 0.46337587 -0.88530385 102 137 126
0.10734194 0.46437919 -0.88501185 103 138 126
0.10737415 0.46580675 -0.88510752 104 139 125
0.1046477 0.46381965 -0.88591826 101 138 125
0.10640898 0.46333352 -0.88526177 102 137 126
0.10829988 0.46295404 -0.88329107 113 136 127
0.10807087 0.46289662 -0.88370043 110 137 127
0.10817174 0.4629761 -0.88352418 111 137 127
0.10770159 0.46579653 -0.88455558 106 138 126
0.10760432 0.46654466 -0.8847329 105 138 126
0.10807646 0.46530309 -0.88366503 108 137 126
0.10358948 0.46218985 -0.8865996 102 138 125
0.1055882 0.45925003 -0.88584763 106 139 127
0.10500968 0.45959446 -0.88642275 107 139 126
0.10475111 0.46100792 -0.88581091 102 138 126
0.106455 0.45908573 -0.88474327 103 139 127
0.10499153 0.45915234 -0.88675326 109 140 126
0.10539193 0.46011078 -0.88552958 103 139 126
0.10488717 0.46108824 -0.88556439 101 139 126
0.10700674 0.46262741 -0.88492262 102 137 126
0.10515312 0.46274844 -0.88561898 101 137 126
0.10590615 0.46250024 -0.88526392 101 138 126
0.10634376 0.46202248 -0.88493657 101 138 126
0.10568781 0.46158522 -0.88500887 100 138 126
0.1062166 0.46270218 -0.88522786 101 138 125
0.10751347 0.46021861 -0.88378453 101 139 126
0.1078338 0.46203709 -0.88384038 106 138 126
0.10805339 0.46183047 -0.88337415 109 137 127
0.10794267 0.46144211 -0.88344324 107 137 127
0.10688668 0.45803931 -0.88337588 100 139 126
0.10609298 0.45671839 -0.88331825 99 138 125
0.10442862 0.45543998 -0.88387924 101 137 125
0.10593085 0.45723763 -0.88367528 101 139 126
0.10514882 0.45714265 -0.88448167 104 138 126
0.10588872 0.45779783 -0.88421321 102 139 126
0.10467871 0.45644867 -0.8843255 103 137 126
0.10495157 0.45732412 -0.88497233 104 138 126
0.10503156 0.4571428 -0.88464659 104 138 126
0.10574961 0.45764112 -0.88422424 102 139 126
0.10573593 0.45815325 -0.88484609 104 139 127
0.10419019 0.45579007 -0.88423675 103 137 126
0.10453065 0.45830715 -0.88667601 109 139 126
0.10378774 0.45761028 -0.88654679 110 138 126
0.10382529 0.45451546 -0.8834632 86 136 125
0.10427753 0.48107687 -0.8988921 101 140 126
0.099376917 0.41440472 -0.83615708 63 135 122
0.099539056 0.41370538 -0.83580387 63 135 122
0.10176343 0.40841225 -0.83554012 68 134 123
0.10070422 0.40727502 -0.83304697 69 134 123
0.09606649 0.45168379 -0.85143065 66 133 122
0.095988408 0.44781116 -0.85011846 58 135 122
0.096102104 0.44743425 -0.85010713 58 135 122
0.096099138 0.45098689 -0.85124958 66 133 122
0.098685496 0.44364405 -0.85162461 64 134 123
0.097989351 0.44536135 -0.85137856 66 135 124
0.097431488 0.44469777 -0.85068619 61 136 122
0.098558955 0.44398984 -0.85158807 65 135 123
0.096972056 0.44581535 -0.85052127 62 135 122
0.097594537 0.4427599 -0.8503446 58 134 123
0.097371824 0.44182715 -0.84984684 56 135 122
0.098094307 0.44217733 -0.85062772 59 135 123
0.099038437 0.44316393 -0.85182768 65 135 123
0.09735202 0.44051796 -0.84940165 57 135 123
0.097414412 0.44094157 -0.84959495 56 136 122
0.096963853 0.43953624 -0.84870428 57 135 123
0.097284161 0.43961078 -0.84901392 58 135 123
0.098677121 0.44083905 -0.85070038 62 136 123
0.099017113 0.43984586 -0.85062617 64 136 124
0.098767288 0.4402608 -0.85056239 62 136 123
0.099835612 0.43987536 -0.85152167 66 137 123
0.096886158 0.43893847 -0.84837466 56 136 122
0.098517291 0.43876249 -0.84973031 61 136 123
0.098971389 0.43724146 -0.84944975 62 137 124
0.098587975 0.43785721 -0.84938782 61 137 123
0.099388637 0.43936524 -0.850766 65 136 124
0.097962908 0.43771827 -0.8487761 59 136 123
0.097794786 0.43747079 -0.84852922 58 136 123
0.098420888 0.43558225 -0.84830749 59 136 123
0.097150028 0.4379316 -0.84818614 57 135 123
0.10099006 0.43588442 -0.8515628 74 137 124
0.099943094 0.4366419 -0.85027158 65 138 123
0.099752136 0.4358021 -0.84959227 63 137 124
0.099867806 0.43652457 -0.85010076 63 138 124
0.099952154 0.43927824 -0.85147202 66 138 123
0.099575013 0.43532375 -0.84910131 61 138 123
0.099661738 0.4336907 -0.8483023 61 139 123
0.099793628 0.43539551 -0.84945697 63 138 124
0.10066427 0.43512854 -0.85066801 71 137 124
0.10000347 0.43261388 -0.84818429 59 139 122
0.10061716 0.43348968 -0.84963447 66 138 123
0.10082445 0.43431759 -0.85044253 70 137 124
0.10171326 0.43211058 -0.8505438 76 138 124
0.10187726 0.43177626 -0.85060704 78 136 125
0.10087751 0.43246844 -0.84943885 66 138 123
0.10199509 0.43266916 -0.85131156 80 137 124
0.10105751 0.43334895 -0.85023379 70 137 124
0.10123508 0.43186614 -0.84965032 69 138 124
0.10265926 0.42788622 -0.84942484 86 136 126
0.10142171 0.43020323 -0.84896207 71 138 124
0.10142157 0.43043548 -0.84909922 71 138 124
0.10133362 0.42973149 -0.8485446 70 138 124
0.10126332 0.43113258 -0.84926295 69 138 123
0.10177602 0.42977673 -0.84926647 75 137 125
0.10215963 0.4313978 -0.85082817 80 137 125
0.10232837 0.42681283 -0.84841597 84 137 126
0.10234118 0.42630318 -0.84819263 87 137 125
0.10447057 0.42051455 -0.84813768 80 139 124
0.10516696 0.42249152 -0.85132515 77 136 126
0.10524228 0.42032114 -0.84987718 69 139 123
0.10541063 0.42205471 -0.85163319 73 137 126
0.10500048 0.42066601 -0.84950435 73 138 124
0.10509949 0.42310601 -0.85161412 79 136 127
0.10493105 0.42135641 -0.84984565 76 137 125
0.10600207 0.41910759 -0.85065585 74 141 124
0.10513578 0.41983324 -0.84919572 70 140 123
0.10613189 0.41904488 -0.85092616 74 141 124
0.10600623 0.41982999 -0.85147554 62 141 122
0.10591434 0.47106472 -0.87358415 103 140 128
0.1059524 0.47123432 -0.87374741 104 140 128
0.10574054 0.47107241 -0.8729347 104 140 128
0.10578977 0.47158656 -0.87318194 105 140 129
0.10547655 0.47107068 -0.87194651 104 140 129
0.10602209 0.47314185 -0.87424219 108 139 129
0.10586782 0.47374955 -0.87372226 108 140 129
0.10591142 0.47315839 -0.87382764 108 139 129
0.1062517 0.46684882 -0.87418538 102 138 128
0.10649858 0.4684073 -0.87538964 102 138 127
0.10640166 0.46721318 -0.87482768 102 137 128
0.10628486 0.46687019 -0.87431836 102 138 128
0.10630371 0.46809676 -0.87457997 102 139 127
0.10649206 0.4673782 -0.87520653 101 138 128
0.10555663 0.46971622 -0.87201393 104 140 128
0.10576973 0.46890041 -0.8726567 104 140 127
0.10592239 0.46932414 -0.87330836 104 140 127
0.10549672 0.4694055 -0.8717308 104 140 128
0.10551085 0.46785361 -0.87148923 105 138 128
0.10643028 0.46547681 -0.87410331 103 136 128
0.10598847 0.46619838 -0.87280273 104 138 128
0.10627127 0.4652946 -0.87338746 104 136 128
0.10627212 0.46670794 -0.87420595 103 137 128
0.10620099 0.46619755 -0.87363338 103 137 128
0.10732507 0.46252415 -0.8746388 96 131 127
0.10705894 0.46026042 -0.87194812 95 131 127
0.10749815 0.45910227 -0.87254679 90 130 126
0.10777587 0.45979753 -0.87501234 95 134 125
0.1077093 0.45970467 -0.8744818 95 133 125
0.10755058 0.46048981 -0.87404162 93 132 126
0.1075954 0.46056145 -0.8744064 94 131 126
0.10761026 0.45877078 -0.87323195 93 132 125
0.10815563 0.45162615 -0.87514955 101 136 127
0.10824547 0.4451873 -0.87222826 94 135 128
0.10822745 0.44457942 -0.87160164 93 135 128
0.10879275 0.44176999 -0.87399423 96 136 128
0.10869413 0.44137409 -0.87310368 92 136 127
0.10862192 0.44148016 -0.87270337 90 136 128
0.10846349 0.44308728 -0.87241375 92 136 128
0.10862304 0.44101784 -0.87251228 89 137 127
0.10463138 0.47556862 -0.88947529 97 138 125
0.10482321 0.476414 -0.88997 98 138 126
0.105484 0.47175533 -0.88814777 107 139 126
0.10481818 0.4713034 -0.88840926 101 138 125
0.10446435 0.47091803 -0.88850236 98 136 125
0.10402814 0.47227237 -0.88919425 93 138 124
0.10409239 0.47180387 -0.88900751 94 137 124
0.10587005 0.47199652 -0.88791955 111 139 126
0.10491354 0.47352067 -0.88890851 102 139 125
0.1046944 0.47416922 -0.88916445 100 139 125
0.10523269 0.47416589 -0.8886916 104 139 125
0.10488722 0.47390914 -0.88896972 101 140 125
0.10408554 0.46883044 -0.88813937 92 136 124
0.10357664 0.46869847 -0.88844222 93 136 125
0.10379848 0.46995994 -0.8886289 91 135 124
0.10465666 0.46870768 -0.88775468 97 137 125
0.10414959 0.4698478 -0.88838416 94 136 125
0.10549308 0.47034788 -0.88771015 107 138 125
0.1053202 0.47014457 -0.88775766 105 138 126
0.10559127 0.46996057 -0.88754123 108 138 126
0.10403272 0.46587768 -0.88714623 95 137 125
0.10372558 0.45906863 -0.88802552 109 138 126
0.10458314 0.45889598 -0.88721454 110 139 127
0.10587608 0.48355687 -0.90379781 96 139 126
0.10607895 0.48372135 -0.90382725 99 140 127
0.097406283 0.42694491 -0.84237236 67 136 123
0.0978458 0.42658997 -0.84255505 70 137 123
0.098538436 0.425475 -0.84249097 71 137 123
0.099355981 0.42629439 -0.84380496 84 137 125
0.09862648 0.42521203 -0.84240967 70 137 123
0.099259377 0.42465505 -0.84270495 71 138 123
0.099210039 0.42483521 -0.84276515 73 138 123
0.10019213 0.42412862 -0.84349197 69 138 123
0.099806555 0.42434505 -0.84312314 72 139 123
0.099262074 0.42335534 -0.84188861 64 138 122
0.099468082 0.42284209 -0.84175217 64 137 122
0.10049124 0.42345792 -0.84345013 65 138 122
0.099780716 0.42345658 -0.84252685 67 139 122
0.10118124 0.4230704 -0.84410632 71 138 123
0.10071585 0.4218677 -0.84268892 65 137 123
0.10127936 0.42276305 -0.84403449 74 137 123
0.10188155 0.42134169 -0.8439011 85 137 126
0.10073257 0.42324653 -0.84362239 64 137 122
0.10098606 0.422093 -0.84319931 70 137 123
0.10058638 0.42046523 -0.84158891 65 137 124
0.10182102 0.4192678 -0.84247452 80 137 125
0.1025381 0.41443628 -0.84092653 69 139 121
0.10220236 0.41505924 -0.84067392 63 137 121
0.098890647 0.4443509 -0.85198772 67 135 124
0.099666707 0.44203684 -0.85204518 65 136 123
0.10081737 0.44162539 -0.85347039 76 138 125
0.10124581 0.43795687 -0.85308349 81 137 125
0.10118517 0.43665552 -0.85226774 77 136 125
0.10100528 0.43823466 -0.85278636 77 137 124
0.10174587 0.43507633 -0.85230476 82 136 125
0.10241209 0.43294907 -0.85209864 85 137 125
0.10472935 0.43171945 -0.85547394 87 134 128
0.10512335 0.42914477 -0.85543483 87 137 128
0.10515427 0.42915046 -0.85552937 87 137 128
0.10532635 0.4284004 -0.85575014 85 138 127
0.10591173 0.42611623 -0.85584122 90 139 126
0.10538961 0.42552724 -0.85410869 85 137 127
0.10534494 0.42455497 -0.85329241 85 136 127
0.10577749 0.42388302 -0.85388708 90 136 126
0.10538452 0.4251096 -0.85379332 85 137 127
0.1051465 0.42550057 -0.85345364 84 136 128
0.10521523 0.42573717 -0.85381758 83 137 127
0.10507438 0.42457417 -0.85261637 83 135 128
0.10552877 0.4222815 -0.85210747 74 137 126
0.10599527 0.42084271 -0.85223407 66 140 123
0.10612415 0.45239174 -0.86754036 90 134 127
0.105952 0.45184883 -0.86697572 91 134 127
0.10551542 0.44797972 -0.86459881 100 136 127
0.10631531 0.44910493 -0.86687094 97 133 127
0.10542339 0.44856122 -0.86458606 99 136 127
0.10582472 0.45031375 -0.86621785 93 134 127
0.1057762 0.45068458 -0.86621284 93 134 127
0.10560069 0.45094562 -0.86583823 95 133 128
0.10646392 0.44455662 -0.86573744 97 133 128
0.10730442 0.44381499 -0.8667677 96 135 128
0.10697258 0.44419396 -0.86639363 97 134 128
0.10560118 0.44359732 -0.86402661 91 133 127
0.10581329 0.44391343 -0.86447769 92 134 127
0.10679373 0.44386587 -0.86598986 95 134 128
0.10550337 0.44456038 -0.86396515 94 135 127
0.10560314 0.44473705 -0.86420792 95 134 127
0.10563899 0.44393805 -0.8641994 92 134 127
0.10544347 0.44520053 -0.86390227 96 135 127
0.10720959 0.44104695 -0.86514956 82 135 128
0.10666198 0.44100085 -0.86426902 80 134 127
0.10707165 0.44053054 -0.86464459 78 134 127
0.10730515 0.44288087 -0.86632746 92 135 128
0.10661138 0.44313517 -0.86538726 92 134 128
0.1073857 0.44021261 -0.86495644 77 134 128
0.10630004 0.44159698 -0.86401892 83 134 127
0.10781784 0.44128942 -0.86746413 81 137 127
0.10775701 0.44188854 -0.86743313 86 136 128
0.10758358 0.44152933 -0.86638039 86 135 128
0.1077368 0.4409976 -0.86691439 80 136 127
0.10788637 0.44033062 -0.86736667 74 137 127
0.10751367 0.44152468 -0.86606932 86 135 128
0.10747938 0.44334006 -0.86696786 95 135 129
0.10732229 0.43756354 -0.8638019 82 133 129
0.10759454 0.43741536 -0.86485982 79 135 128
0.10762361 0.43766353 -0.8650822 78 135 128
0.10767828 0.43923643 -0.86583054 71 135 127
0.10752354 0.43606311 -0.86409014 85 135 129
0.10748585 0.43594381 -0.86386251 86 134 130
0.10795458 0.43732876 -0.8673752 82 138 127
0.10794318 0.43698189 -0.86732048 84 138 127
0.10784467 0.43624759 -0.86660433 88 138 128
0.10792875 0.43777436 -0.86711878 78 137 127
0.10787008 0.43777338 -0.86664551 77 137 127
0.10797983 0.43270347 -0.86524183 82 137 127
0.10797011 0.43242759 -0.86487931 79 137 127
0.10795943 0.43518472 -0.86728483 93 138 128
0.10800435 0.43457085 -0.86722952 94 138 128
0.10808009 0.43278423 -0.86644763 90 138 127
0.10789131 0.43310937 -0.86476439 80 137 128
0.10776971 0.43478951 -0.86536258 87 136 128
0.10790244 0.43289608 -0.86465371 79 136 128
0.10793401 0.43453655 -0.86645073 88 138 128
0.10776941 0.43540895 -0.86594242 91 137 129
0.10791452 0.43311113 -0.86495328 80 137 127
0.10803239 0.43056849 -0.86466026 88 138 126
0.10808004 0.43021438 -0.86513174 95 138 125
0.10812122 0.43123981 -0.86578923 91 137 126
0.10806616 0.43098509 -0.86511987 88 138 126
0.10803852 0.43116766 -0.86484212 85 137 126
0.10793085 0.46834096 -0.88232023 111 139 127
0.1079656 0.46746966 -0.8818925 107 139 126
0.1078311 0.46836859 -0.88158983 111 140 127
0.10807507 0.46750027 -0.88274229 108 138 127
0.10824123 0.4633846 -0.88173491 105 135 127
0.10825293 0.46477225 -0.88274086 106 136 127
0.10821803 0.46308926 -0.88117337 102 134 126
0.10821187 0.46472222 -0.88202327 103 135 126
0.10820144 0.46489912 -0.88195181 102 135 126
0.10822991 0.46402806 -0.88192052 104 136 126
0.10784139 0.46657175 -0.88024038 101 139 125
0.10806304 0.46443135 -0.88017225 96 135 125
0.10788153 0.46536222 -0.87956011 97 137 126
0.10792302 0.46637803 -0.8806985 101 138 125
0.10811132 0.46313214 -0.8794803 92 132 126
0.10768566 0.45924067 -0.88274735 99 139 126
0.10778521 0.45943984 -0.88137829 92 137 125
0.10786303 0.45953149 -0.88004595 85 135 124
0.10816801 0.46182922 -0.88276124 108 136 127
0.10826052 0.46239367 -0.88304251 111 136 127
0.10823175 0.46213335 -0.88260794 108 136 127
0.10811536 0.46258238 -0.8797577 94 132 126
0.1082346 0.46265504 -0.8816576 104 135 126
0.1081157 0.4627229 -0.87957156 92 132 126
0.10830301 0.46266991 -0.88278401 111 136 127
0.10812306 0.46204084 -0.88062572 97 134 126
0.10811895 0.46246019 -0.87998462 94 133 125
0.10689417 0.45612836 -0.88192946 105 139 128
0.10688941 0.45585996 -0.88173664 106 139 128
0.10622772 0.45656145 -0.88303483 100 138 126
0.10657346 0.4567433 -0.88276196 102 138 127
0.10689969 0.45624316 -0.88200784 105 139 127
0.10746226 0.45867851 -0.88314527 100 139 127
0.10791345 0.45792404 -0.87996095 92 137 125
0.10807839 0.45674029 -0.87998599 104 138 128
0.10784297 0.45788348 -0.88163245 102 139 127
0.1078207 0.45800212 -0.88175595 102 139 127
0.10790729 0.45770898 -0.8807584 99 138 127
0.10787193 0.45782694 -0.88117117 101 139 127
0.10579598 0.45504785 -0.88238633 102 138 126
0.10561112 0.45466119 -0.8818301 96 138 127
0.10530046 0.45454362 -0.88197237 93 137 127
0.10379417 0.45205104 -0.88104188 74 134 127
0.10527211 0.45388255 -0.881387 91 137 127
0.10546313 0.45411277 -0.88142562 93 137 127
0.10519768 0.45368984 -0.88127667 90 137 127
0.10360873 0.45272657 -0.8818357 73 135 125
0.10741856 0.45418397 -0.8804692 107 139 128
0.10483682 0.45174229 -0.88044715 80 135 127
0.10450283 0.45213681 -0.88049358 80 136 127
0.10600145 0.45339924 -0.88049567 96 137 128
0.10618445 0.45222589 -0.88040376 89 137 127
0.10777634 0.45120496 -0.87976772 91 136 127
0.10747474 0.45298135 -0.88031191 99 138 127
0.1079698 0.45414665 -0.87972325 109 139 128
0.10790732 0.45393276 -0.87979001 107 139 128
0.10714877 0.44736794 -0.88031191 97 136 128
0.10600343 0.44876614 -0.88031197 94 138 127
0.10656022 0.44776177 -0.88031602 96 137 128
0.10546038 0.44915906 -0.88031542 93 139 126
0.10642997 0.44886157 -0.88030422 94 138 127
0.10589565 0.45098063 -0.88034153 83 136 126
0.10538653 0.45073843 -0.88036352 82 136 126
0.10518956 0.45054498 -0.88036913 83 136 126
0.10558737 0.45025292 -0.88033789 87 137 126
0.10444741 0.44889531 -0.8803634 91 138 127
0.10766042 0.44798684 -0.88008791 98 136 128
0.10747742 0.44966573 -0.88022959 93 136 127
0.10735218 0.44520241 -0.88000149 98 137 128
0.10712507 0.44639784 -0.88041186 98 136 128
0.1072202 0.44562128 -0.88019073 98 137 128
0.10674394 0.44674999 -0.88066715 99 136 128
0.10354116 0.44666874 -0.8807711 99 140 127
0.10543746 0.44677112 -0.88067299 99 137 128
0.10744967 0.44694987 -0.88024139 97 136 128
0.10813612 0.44475809 -0.87946731 100 137 128
0.10710814 0.44179532 -0.87942052 100 137 128
0.10585089 0.4416748 -0.88013977 98 139 127
0.10573611 0.44075489 -0.87999731 99 137 128
0.10566955 0.44063303 -0.88000816 99 137 128
0.10647167 0.44040272 -0.87949097 99 136 127
0.10574422 0.44153503 -0.88016987 98 138 127
0.1064474 0.44250351 -0.88001674 98 139 127
0.10531852 0.44207349 -0.8807748 101 139 127
0.10542293 0.44137087 -0.88032192 98 138 127
0.10572654 0.44256017 -0.88067156 101 139 126
0.10715289 0.44333905 -0.87983525 98 139 127
0.10490804 0.4414452 -0.8808071 100 138 127
0.10366613 0.43674847 -0.8804943 97 141 128
0.1035661 0.43588063 -0.88052046 97 143 128
0.10473713 0.43870845 -0.88006872 99 137 128
0.10510057 0.43679836 -0.87931514 99 139 128
0.10411704 0.43790996 -0.8802011 99 139 128
0.10471656 0.43834049 -0.87997603 99 138 128
0.10423554 0.43884718 -0.88039881 99 137 128
0.10394258 0.43552178 -0.87998271 98 142 128
0.10519305 0.48016682 -0.89438206 100 138 126
0.10478225 0.47935101 -0.89448285 96 139 126
0.10469089 0.47769174 -0.89196754 97 140 126
0.10493145 0.47771946 -0.89132994 99 139 126
0.10473584 0.47757801 -0.89160603 97 140 126
0.10457506 0.47730649 -0.89151639 96 140 125
0 0 0 1 0 0 0 1 0 0 0 1 0 0 0 0 0 635 1 0 0
