ply
format ascii 1.0
comment PCL generated
element vertex 640
property float x
property float y
property float z
property uchar red
property uchar green
property uchar blue
element camera 1
property float view_px
property float view_py
property float view_pz
property float x_axisx
property float x_axisy
property float x_axisz
property float y_axisx
property float y_axisy
property float y_axisz
property float z_axisx
property float z_axisy
property float z_axisz
property float focal
property float scalex
property float scaley
property float centerx
property float centery
property int viewportx
property int viewporty
property float k1
property float k2
end_header
-0.12862657 -0.41185671 -0.7022922 165 138 113
-0.12753941 -0.4119902 -0.70139194 166 137 110
-0.12927951 -0.4115707 -0.70283473 165 139 114
-0.12799764 -0.41328931 -0.7017017 147 141 108
-0.12758282 -0.41231856 -0.7014147 162 138 109
-0.12844685 -0.41292551 -0.7020942 152 141 110
-0.12931156 -0.41283056 -0.70281482 152 142 111
-0.12991065 -0.41264787 -0.7033208 154 142 113
-0.12715739 -0.41520709 -0.7009567 165 130 119
-0.12739718 -0.41530237 -0.70114571 160 132 119
-0.128521 -0.41453812 -0.70207596 136 142 110
-0.12795514 -0.41456726 -0.70162064 148 137 113
-0.12874317 -0.41574323 -0.70221019 132 141 112
-0.12812075 -0.41345018 -0.70179439 144 141 107
-0.1258913 -0.4159767 -0.69999963 178 130 124
-0.12614337 -0.41519737 -0.70020974 176 131 121
-0.13007578 -0.41827878 -0.70323896 126 137 108
-0.12833028 -0.41631818 -0.7018646 144 135 116
-0.13002466 -0.41660452 -0.70322102 110 146 107
-0.13001065 -0.41607705 -0.70321703 106 149 107
-0.12948839 -0.41719484 -0.70278233 128 139 111
-0.13037902 -0.41622132 -0.70351076 100 152 105
-0.1265993 -0.41705459 -0.70048106 158 131 121
-0.12623397 -0.41698506 -0.70022053 161 133 121
-0.12595907 -0.41633108 -0.70003903 173 131 123
-0.12960184 -0.42109212 -0.70279688 130 130 115
-0.13044165 -0.42126852 -0.70348799 128 130 111
-0.13053779 -0.42480215 -0.70350975 118 129 114
-0.14263789 -0.4071444 -0.71498525 142 150 114
-0.14201134 -0.41171029 -0.71428037 111 142 110
-0.14214797 -0.40894201 -0.71441734 128 151 111
-0.1423464 -0.40986139 -0.71463394 120 148 111
-0.14013484 -0.41132033 -0.71226144 130 144 112
-0.1419152 -0.40988794 -0.71417046 124 148 111
-0.14147541 -0.41194957 -0.713705 114 141 111
-0.14154859 -0.41062889 -0.71377897 122 146 111
-0.1401979 -0.41058215 -0.71232629 133 147 112
-0.14036012 -0.40976775 -0.71249723 135 152 111
-0.14101399 -0.40880001 -0.71319664 136 156 110
-0.14099872 -0.40933585 -0.71318251 134 152 111
-0.14054117 -0.41010717 -0.71269357 133 149 111
-0.14271791 -0.41597602 -0.71480817 114 136 109
-0.14273898 -0.41354102 -0.71496552 108 139 110
-0.1412067 -0.41597649 -0.71333164 114 135 111
-0.14253815 -0.41230014 -0.71484125 104 140 110
-0.14181176 -0.41473204 -0.71399367 111 137 110
-0.14108595 -0.41499531 -0.71326876 111 136 111
-0.14052401 -0.41564491 -0.71268237 113 135 111
-0.14219573 -0.41480353 -0.7143653 111 137 110
-0.1405022 -0.41241628 -0.71266794 120 140 112
-0.13960548 -0.41348639 -0.71173424 122 138 113
-0.13935341 -0.41352272 -0.71146423 124 138 113
-0.14064266 -0.41291335 -0.71283305 116 139 112
-0.1394078 -0.41462371 -0.71155393 118 136 113
-0.13938911 -0.41567782 -0.71156371 113 133 113
-0.14007828 -0.41431293 -0.71226597 114 136 112
-0.14309302 -0.41692591 -0.71522564 110 135 108
-0.14116628 -0.41987517 -0.71349978 97 136 104
-0.14198227 -0.4167223 -0.7141307 112 137 108
-0.14157985 -0.41975817 -0.71389347 96 136 104
-0.14244848 -0.41616499 -0.7145533 114 136 109
-0.14131695 -0.41818148 -0.71356076 105 137 106
-0.14215969 -0.41764674 -0.71434826 107 135 107
-0.14131011 -0.41915643 -0.71360278 101 136 105
-0.1393066 -0.41749215 -0.71156108 109 137 109
-0.13895895 -0.41929248 -0.71133143 102 141 106
-0.14132144 -0.41694146 -0.71349847 111 137 108
-0.13945849 -0.41703892 -0.71168184 110 136 110
-0.13920788 -0.41704631 -0.71143711 110 135 111
-0.13919051 -0.41667646 -0.71139741 111 134 112
-0.14296892 -0.4218908 -0.71515626 105 132 107
-0.14264762 -0.4208532 -0.71487361 100 132 106
-0.13943981 -0.42374918 -0.71152079 164 122 119
-0.14122806 -0.42151296 -0.71343112 125 127 111
-0.14036582 -0.42330524 -0.71245611 148 125 116
-0.14237577 -0.42095575 -0.71459097 104 131 106
-0.14224993 -0.42071918 -0.7144863 104 131 106
-0.14132847 -0.42358604 -0.71337241 135 127 114
-0.14088227 -0.42089012 -0.71314818 115 131 108
-0.14106457 -0.42164141 -0.71326262 127 127 111
-0.13912053 -0.42193013 -0.71136075 135 131 112
-0.14034422 -0.42079893 -0.71263587 114 134 108
-0.13920183 -0.42149797 -0.71147478 128 133 111
-0.13948299 -0.42334926 -0.71159434 159 123 118
-0.14010179 -0.42262137 -0.71225202 146 125 115
-0.14317542 -0.42533606 -0.71509176 134 131 113
-0.14313897 -0.42547795 -0.71503699 136 131 114
-0.14207236 -0.42456523 -0.71400774 120 134 110
-0.1418803 -0.42477891 -0.71379775 121 135 110
-0.14021736 -0.42481038 -0.71217436 146 130 115
-0.14077406 -0.42492428 -0.71270514 136 133 112
-0.14010975 -0.42427161 -0.71212316 151 127 116
-0.14059117 -0.42404586 -0.71261442 146 126 116
-0.15167201 -0.39228061 -0.72350347 82 156 108
-0.15279925 -0.39250335 -0.72480798 87 149 114
-0.15175058 -0.39096907 -0.72348166 73 152 110
-0.15452114 -0.39617527 -0.72693759 66 152 120
-0.1543607 -0.39468959 -0.72668529 78 146 120
-0.15185477 -0.39552245 -0.72395629 142 143 121
-0.15358594 -0.3942017 -0.72580773 103 143 121
-0.15350172 -0.39374205 -0.72569811 109 140 121
-0.15388021 -0.39569288 -0.7261861 84 149 120
-0.15413918 -0.3963424 -0.72649455 72 154 120
-0.1542708 -0.39405194 -0.72655398 84 144 120
-0.15326913 -0.39583048 -0.72552037 100 148 120
-0.15199308 -0.39358544 -0.72396702 106 149 114
-0.15278862 -0.39292112 -0.72482681 96 147 115
-0.15121573 -0.39386502 -0.72309822 109 153 112
-0.1527255 -0.39389706 -0.72483009 115 143 119
-0.15338433 -0.39349344 -0.72555345 109 140 120
-0.1518179 -0.39400026 -0.72379845 114 148 115
-0.15085365 -0.39737558 -0.72307211 152 143 119
-0.15097782 -0.39891556 -0.72351789 130 144 116
-0.15116508 -0.39905238 -0.72375095 123 144 116
-0.15047403 -0.39960611 -0.72310364 135 142 115
-0.15283491 -0.39771184 -0.72531468 93 150 117
-0.15114518 -0.39898351 -0.72371531 124 144 116
-0.15150547 -0.3992677 -0.72416633 112 145 115
-0.15332808 -0.39869165 -0.72589201 104 142 119
-0.15409765 -0.39681956 -0.72650385 72 152 120
-0.15195 -0.3996352 -0.7246244 119 141 117
-0.15397406 -0.39957002 -0.7265805 122 134 122
-0.152822 -0.39957786 -0.72546506 119 138 119
-0.15410653 -0.39734006 -0.72654963 81 149 120
-0.15137559 -0.40034005 -0.72411823 131 138 116
-0.1541727 -0.39817643 -0.72667342 97 142 121
-0.15402935 -0.4008455 -0.72669011 138 128 124
-0.15362802 -0.40319449 -0.72638983 136 132 118
-0.15311709 -0.40421274 -0.72589821 136 134 117
-0.15201992 -0.40342557 -0.7246775 140 133 118
-0.15341996 -0.40237737 -0.72612131 138 130 120
-0.15336215 -0.40198821 -0.72603774 138 130 121
-0.15067978 -0.40429124 -0.72328782 142 136 115
-0.15273653 -0.40103197 -0.72541136 137 132 120
-0.15222913 -0.40204474 -0.72487211 139 132 120
-0.15232348 -0.40220615 -0.72495598 140 131 120
-0.15086526 -0.40216371 -0.7235446 136 137 116
-0.1513067 -0.40195456 -0.72398227 137 136 117
-0.15330929 -0.40074605 -0.72597986 137 130 122
-0.1511475 -0.40262833 -0.72379643 138 136 117
-0.15097588 -0.40130475 -0.72369212 134 138 116
-0.1533235 -0.40759775 -0.72629768 123 137 111
-0.15320581 -0.40766317 -0.72616529 122 138 111
-0.15329741 -0.40790904 -0.72629035 122 138 111
-0.15361695 -0.40602943 -0.72652322 127 136 113
-0.15152422 -0.40773556 -0.72420996 115 141 110
-0.15074287 -0.40802079 -0.72332013 110 143 109
-0.15373144 -0.40504283 -0.72658336 130 134 115
-0.15115078 -0.40586054 -0.72377545 127 138 113
-0.15087695 -0.40578771 -0.72348249 129 138 113
-0.15052477 -0.40461576 -0.72311819 139 136 115
-0.15115735 -0.40710205 -0.72376812 116 141 111
-0.1505924 -0.40809113 -0.72315061 110 143 109
-0.15214324 -0.40541825 -0.72484517 129 137 114
-0.15116793 -0.40506938 -0.72380292 134 136 114
-0.15351638 -0.41040418 -0.72668093 121 133 114
-0.15333347 -0.41049084 -0.72646189 121 133 114
-0.1530419 -0.41150048 -0.72616547 120 130 116
-0.15178317 -0.41106752 -0.72459561 119 129 120
-0.15292089 -0.40953264 -0.72589785 121 134 114
-0.15327312 -0.41130689 -0.72643733 121 130 116
-0.15309884 -0.41171545 -0.72624832 121 130 117
-0.15116757 -0.40853456 -0.72383159 112 141 110
-0.151539 -0.40855667 -0.72426492 114 140 111
-0.15243629 -0.40930331 -0.72531742 119 135 115
-0.15091568 -0.40958449 -0.72354674 113 136 115
-0.15212569 -0.41008234 -0.72496176 119 132 118
-0.15053985 -0.41198993 -0.72312862 115 126 126
-0.15334085 -0.40872711 -0.72636724 122 136 112
-0.15120327 -0.41448396 -0.72394872 101 132 120
-0.1524778 -0.41276962 -0.72545397 110 131 118
-0.15303624 -0.41238594 -0.72617167 116 130 117
-0.1535819 -0.41239038 -0.7268405 117 131 115
-0.15094955 -0.41647395 -0.72376293 103 133 119
-0.15094048 -0.41638154 -0.72375089 103 133 119
-0.15121664 -0.41782331 -0.72410703 101 133 118
-0.15054919 -0.42567393 -0.72304976 124 136 109
-0.15131986 -0.42437515 -0.7240628 111 140 107
-0.15149479 -0.4259451 -0.72405964 123 134 112
-0.15091793 -0.42388493 -0.72368127 109 142 105
-0.15071717 -0.42642748 -0.72314298 130 134 111
-0.1513887 -0.42573062 -0.72396958 121 135 112
-0.15215923 -0.4303492 -0.72415769 138 133 116
-0.15130059 -0.42928761 -0.72334373 142 130 116
-0.15094995 -0.42785114 -0.72323096 138 130 115
-0.1521481 -0.4295288 -0.72432375 132 132 116
-0.15139323 -0.4305793 -0.7231738 149 131 116
-0.15215313 -0.43190843 -0.72389597 141 133 117
-0.15266287 -0.43219638 -0.72451073 129 134 118
-0.1235147 -0.41131923 -0.69833809 177 134 120
-0.12356661 -0.4111214 -0.6983785 177 133 120
-0.13924424 -0.41201386 -0.71130663 133 142 113
-0.13516691 -0.41179925 -0.70770597 141 149 113
-0.13824409 -0.41192779 -0.7103554 128 146 110
-0.13572782 -0.41186276 -0.70818949 139 148 113
-0.13877806 -0.41251695 -0.71084481 124 143 110
-0.13886166 -0.41223711 -0.71092236 127 144 111
-0.13890837 -0.41515121 -0.71104681 116 135 112
-0.13792747 -0.41546965 -0.71014798 115 136 112
-0.13849097 -0.41407335 -0.71061516 119 140 111
-0.13821529 -0.41599217 -0.71041852 114 134 113
-0.13603932 -0.41486183 -0.7084462 112 141 109
-0.13838325 -0.41567689 -0.71056038 115 134 113
-0.13864921 -0.41300526 -0.71072882 123 142 110
-0.13849743 -0.41531751 -0.71065307 116 135 113
-0.13494608 -0.41420069 -0.70750773 122 143 111
-0.13633414 -0.41367507 -0.70870519 121 143 110
-0.13586545 -0.41216233 -0.7083109 136 147 113
-0.13787633 -0.41285634 -0.71003699 122 144 110
-0.13496096 -0.41237032 -0.70753145 137 147 113
-0.13506968 -0.41319993 -0.70762002 130 145 112
-0.13505161 -0.41273066 -0.70760727 134 146 113
-0.13903433 -0.41794121 -0.71132195 107 138 109
-0.13868366 -0.41887581 -0.71102476 104 141 107
-0.1371458 -0.41873872 -0.70956516 114 137 110
-0.13623443 -0.41974446 -0.70877129 116 137 109
-0.1374703 -0.41723016 -0.709773 117 133 112
-0.13734531 -0.41867971 -0.70974946 113 137 109
-0.13809319 -0.41738629 -0.71037042 113 135 111
-0.13678007 -0.41898432 -0.70923632 115 137 109
-0.13816792 -0.41859454 -0.71051943 109 138 108
-0.13631189 -0.41756871 -0.70874357 116 135 111
-0.13534908 -0.41776213 -0.70788682 115 137 110
-0.13664015 -0.41790897 -0.70904201 119 134 112
-0.13540716 -0.41859558 -0.70795161 119 135 110
-0.13523102 -0.41776267 -0.70778137 115 137 110
-0.13669845 -0.41607559 -0.70906556 111 136 111
-0.13655008 -0.41785011 -0.70896065 118 134 111
-0.13872752 -0.42294806 -0.71089858 156 126 117
-0.13859332 -0.423035 -0.71076512 157 126 117
-0.13647361 -0.42246768 -0.70882726 116 140 107
-0.13774185 -0.4210211 -0.71012574 108 141 106
-0.13775387 -0.42173386 -0.71008152 121 137 109
-0.13665959 -0.42220598 -0.70902151 114 140 107
-0.13718773 -0.42273852 -0.70947391 131 135 111
-0.13676561 -0.4229342 -0.70906395 129 136 110
-0.13664654 -0.42180422 -0.70903832 112 141 107
-0.13507834 -0.42281643 -0.70748824 121 138 108
-0.1361547 -0.42151123 -0.70859534 115 139 107
-0.13622676 -0.42140937 -0.70867044 114 140 107
-0.13737498 -0.42000955 -0.70985198 108 140 106
-0.13810791 -0.42043793 -0.7105127 104 142 105
-0.13838281 -0.42010051 -0.71079576 102 143 104
-0.13892497 -0.42394069 -0.71100795 169 122 120
-0.13711008 -0.42639345 -0.70907331 154 127 115
-0.13538174 -0.42503545 -0.70758885 130 135 109
-0.13558148 -0.42482248 -0.70779532 132 134 110
-0.13530096 -0.42586264 -0.70743686 132 133 109
-0.13665019 -0.42560542 -0.70872223 151 127 114
-0.1360812 -0.42498103 -0.7082479 140 131 112
-0.13547458 -0.42584345 -0.70760101 135 132 110
-0.15108022 -0.39113835 -0.72271562 74 152 110
-0.15092383 -0.3920114 -0.72257292 79 156 109
-0.14879131 -0.39159903 -0.72015578 124 130 126
-0.14981626 -0.39223534 -0.72126156 94 148 114
-0.14908637 -0.39073807 -0.72042865 112 130 126
-0.14930566 -0.3911213 -0.720676 106 135 123
-0.15000904 -0.39107794 -0.72141397 83 146 115
-0.14833331 -0.38869795 -0.7195369 72 146 114
-0.14797743 -0.39169779 -0.71930194 140 125 129
-0.14829868 -0.38924792 -0.71952617 85 142 117
-0.14823769 -0.39066783 -0.71952856 117 131 124
-0.14881906 -0.38952342 -0.72008926 88 138 119
-0.15075794 -0.39329168 -0.72243935 95 156 110
-0.15092704 -0.39304951 -0.72264475 91 157 109
-0.1505423 -0.39399052 -0.72222769 108 153 113
-0.15060146 -0.39596897 -0.72254181 147 146 120
-0.14969933 -0.39588109 -0.72155327 140 146 120
-0.14868532 -0.39588279 -0.72046679 132 145 118
-0.14906156 -0.39446682 -0.72069269 107 151 114
-0.14925948 -0.39437193 -0.72089291 106 152 113
-0.1496681 -0.39595771 -0.72152942 141 146 120
-0.1488793 -0.39462885 -0.72051764 109 150 114
-0.14853135 -0.39318115 -0.71999121 130 135 122
-0.14818607 -0.39449158 -0.71977204 129 139 121
-0.1475822 -0.39502746 -0.71919578 142 135 124
-0.14805402 -0.39396161 -0.71957493 138 134 124
-0.14782277 -0.3933728 -0.71926701 151 126 129
-0.15040158 -0.39873087 -0.72284371 143 142 118
-0.1498642 -0.39655086 -0.7218191 152 143 122
-0.14924906 -0.39653882 -0.72115737 148 143 121
-0.15022697 -0.3966777 -0.72223377 154 144 121
-0.14922304 -0.39763001 -0.72135216 141 143 118
-0.14832008 -0.39674586 -0.72020406 140 143 120
-0.14924806 -0.39781895 -0.72141749 140 143 118
-0.14761868 -0.39953306 -0.72001338 101 157 109
-0.14918701 -0.40008184 -0.72181046 117 148 111
-0.14714025 -0.39851585 -0.71929413 106 154 111
-0.14793676 -0.39943662 -0.72033602 107 154 110
-0.14819756 -0.39895028 -0.72051865 117 150 112
-0.14725557 -0.39862406 -0.71943998 106 154 111
-0.14736605 -0.39736319 -0.71930504 124 147 116
-0.14711501 -0.39813101 -0.71918958 111 153 112
-0.14975673 -0.4039225 -0.72236919 135 142 112
-0.14982639 -0.4042066 -0.72242332 137 140 113
-0.15008663 -0.40421492 -0.72267932 140 138 114
-0.15001307 -0.40145621 -0.72273713 130 143 112
-0.14913227 -0.40284029 -0.72180575 125 150 108
-0.14927462 -0.40202713 -0.72198236 125 149 109
-0.14920828 -0.40202323 -0.72191703 124 149 109
-0.14751689 -0.40127102 -0.72011214 97 162 104
-0.14766252 -0.40183574 -0.72029161 103 161 104
-0.14843597 -0.4005565 -0.7210716 104 155 107
-0.14781411 -0.40154955 -0.72044307 103 160 105
-0.14921528 -0.40075064 -0.72191757 117 150 109
-0.1470813 -0.40133163 -0.71964616 91 165 103
-0.14669657 -0.40219474 -0.71926731 93 168 101
-0.14731976 -0.40054804 -0.71987092 87 163 104
-0.15044796 -0.4050051 -0.72303057 137 137 115
-0.14835919 -0.40682903 -0.72095746 147 130 116
-0.14972012 -0.40693793 -0.72227049 129 138 112
-0.14693733 -0.40794477 -0.71955949 154 126 117
-0.15031077 -0.40537238 -0.72287458 135 137 114
-0.14954251 -0.4053987 -0.72213155 144 133 115
-0.14892249 -0.4065282 -0.72150826 142 132 115
-0.1492292 -0.40768188 -0.72178018 129 136 112
-0.14805363 -0.40748668 -0.72064811 145 130 115
-0.14919512 -0.40486717 -0.7217952 138 140 113
-0.1484279 -0.40482664 -0.72103935 130 147 109
-0.14769664 -0.4065443 -0.72031444 146 133 114
-0.1480366 -0.40503171 -0.72065324 129 148 108
-0.14708671 -0.40444621 -0.71971875 113 163 101
-0.14680274 -0.40557656 -0.71943605 125 152 105
-0.14832605 -0.40511549 -0.72093827 133 144 110
-0.14950402 -0.41053101 -0.72202718 121 133 119
-0.14806761 -0.41193223 -0.72059095 134 127 124
-0.14856015 -0.4116483 -0.72108638 130 128 123
-0.14747165 -0.41130477 -0.71997672 137 131 120
-0.14791773 -0.41105869 -0.72042567 133 131 120
-0.14788282 -0.41182199 -0.72040176 134 128 123
-0.14931725 -0.40985611 -0.72182751 121 136 116
-0.14947732 -0.40852863 -0.72199875 120 139 111
-0.14794977 -0.40935668 -0.72049659 137 131 116
-0.14692615 -0.41088998 -0.71945947 145 127 121
-0.14775608 -0.4089627 -0.72032166 140 130 116
-0.14948507 -0.40839604 -0.72201037 120 139 111
-0.14916061 -0.40821066 -0.72170258 125 137 112
-0.14777923 -0.40928394 -0.72033399 139 130 117
-0.14866939 -0.41400844 -0.72130066 124 130 122
-0.14874043 -0.41353723 -0.72134882 125 129 123
-0.15003601 -0.41444045 -0.72270924 113 130 123
-0.15033422 -0.41331717 -0.72295475 114 128 125
-0.14959 -0.41436264 -0.72225279 116 130 122
-0.1496281 -0.41472235 -0.72230971 115 130 122
-0.14979288 -0.41274917 -0.72237664 120 127 125
-0.14693859 -0.41288388 -0.7194646 140 127 122
-0.14677854 -0.41338739 -0.71929371 140 127 120
-0.14779992 -0.41567397 -0.72038585 126 128 114
-0.14959568 -0.41528562 -0.72230482 114 132 121
-0.14894508 -0.41494223 -0.72160941 119 131 120
-0.14709261 -0.41288754 -0.71962917 139 127 122
-0.14938548 -0.41567823 -0.72208029 114 130 119
-0.14926279 -0.41896498 -0.72201073 100 135 117
-0.14834094 -0.41905671 -0.72094738 103 135 118
-0.14760439 -0.41899952 -0.72009093 105 135 119
-0.14946945 -0.41848925 -0.72222537 101 135 117
-0.14880204 -0.41919607 -0.72148895 100 136 117
-0.14808385 -0.41945174 -0.7206701 102 135 118
-0.14923218 -0.41924673 -0.72198999 99 135 117
-0.1480407 -0.41607571 -0.72064149 123 128 114
-0.14748476 -0.4169046 -0.72002292 121 129 115
-0.14824408 -0.41779634 -0.72080797 109 133 118
-0.14884543 -0.41748607 -0.72145981 107 134 119
-0.14783333 -0.41726381 -0.72038478 116 131 116
-0.14775354 -0.41779464 -0.72028375 113 132 117
-0.14760494 -0.41605616 -0.72017634 126 127 113
-0.14918485 -0.42154059 -0.72185272 108 137 113
-0.15018575 -0.42284262 -0.72293597 107 142 106
-0.14865315 -0.42175561 -0.72121674 113 135 115
-0.14928696 -0.42277464 -0.72188973 113 139 110
-0.14896867 -0.42139542 -0.72160965 109 136 115
-0.14927761 -0.42121443 -0.7219829 106 137 114
-0.14761956 -0.42267126 -0.71995032 124 135 116
-0.14720884 -0.42017519 -0.71966177 106 136 118
-0.14678967 -0.42054796 -0.7191481 110 136 118
-0.14739724 -0.42250952 -0.71970487 124 134 117
-0.14760214 -0.42020336 -0.72011536 105 136 117
-0.14732377 -0.42140228 -0.71970284 115 136 117
-0.14706533 -0.42060411 -0.71946329 110 136 118
-0.15054274 -0.42696503 -0.72288072 135 132 113
-0.15022482 -0.42734057 -0.72247517 137 132 113
-0.14821282 -0.42758152 -0.72015554 115 140 106
-0.14973836 -0.42666832 -0.72200578 126 136 110
-0.14959779 -0.42572159 -0.72196442 116 141 105
-0.14889181 -0.4273369 -0.72095877 120 138 108
-0.14872187 -0.42706272 -0.72079974 116 140 106
-0.14982282 -0.42476416 -0.72234172 112 143 104
-0.14971007 -0.4239634 -0.72230023 115 142 105
-0.14807034 -0.42410222 -0.72036892 125 138 111
-0.14711626 -0.42426223 -0.71923715 131 136 114
-0.14883144 -0.42384049 -0.72128552 121 139 109
-0.14778438 -0.42713752 -0.71972394 106 144 103
-0.14938448 -0.42409748 -0.72190583 115 141 106
-0.1494953 -0.4240146 -0.72204393 115 141 106
-0.15071838 -0.42788413 -0.72295034 140 129 116
-0.15048108 -0.42908528 -0.72232944 147 130 116
-0.15061495 -0.43018869 -0.72218782 150 131 117
-0.15075372 -0.42955235 -0.7225973 148 130 116
-0.14963637 -0.42984402 -0.72114176 146 134 116
-0.1496439 -0.42972282 -0.72118771 146 134 116
-0.14805529 -0.42931977 -0.71951199 127 141 110
-0.14931603 -0.42936382 -0.72093421 142 135 115
-0.14898923 -0.42780942 -0.72099876 126 136 110
-0.1495426 -0.42831114 -0.72148758 136 133 114
-0.14821254 -0.42783469 -0.72010785 117 139 108
-0.15483162 -0.39866209 -0.72749263 105 136 122
-0.15490839 -0.40212226 -0.72779715 129 130 121
-0.15452281 -0.4009321 -0.72725916 135 128 124
-0.15601096 -0.40407413 -0.72926062 115 136 116
-0.15568477 -0.40267161 -0.72878498 119 133 119
-0.15496194 -0.40297261 -0.7279073 128 132 119
-0.15560648 -0.40419117 -0.7287668 119 135 116
-0.15638702 -0.4040651 -0.72972488 110 137 116
-0.15472533 -0.40081543 -0.72751266 132 128 124
-0.15727651 -0.40378082 -0.7308448 97 139 115
-0.15501763 -0.40125877 -0.72789234 129 129 123
-0.15657724 -0.40124753 -0.72996598 98 138 117
-0.15650028 -0.4029856 -0.72982877 108 135 118
-0.15537502 -0.40118474 -0.72836894 122 131 122
-0.15651047 -0.40649256 -0.7301805 111 133 117
-0.15711011 -0.40454072 -0.73066276 101 138 116
-0.15688294 -0.40450048 -0.73037672 104 138 115
-0.15605816 -0.40668848 -0.72964752 116 133 118
-0.15638672 -0.40717989 -0.73011869 113 132 118
-0.1571541 -0.4046323 -0.73072928 101 138 115
-0.15526956 -0.40512186 -0.72846526 124 133 117
-0.15488793 -0.40662658 -0.72808999 124 134 115
-0.15520403 -0.40593463 -0.72847307 124 133 117
-0.15460677 -0.40692821 -0.72773021 125 135 113
-0.15575072 -0.40666902 -0.72925276 119 132 117
-0.15496473 -0.40609413 -0.72816092 125 134 115
-0.15443574 -0.40523228 -0.72739732 131 133 115
-0.15398148 -0.40718412 -0.72702211 126 136 112
-0.15407428 -0.40537247 -0.72699988 130 135 114
-0.15646678 -0.4108125 -0.73066443 111 131 116
-0.15522546 -0.40948135 -0.72881377 118 134 113
-0.15662988 -0.40867752 -0.73059273 109 132 117
-0.15505308 -0.408521 -0.72845107 118 135 112
-0.15501598 -0.40835413 -0.72837842 119 136 112
-0.15620677 -0.41094398 -0.73033273 113 131 116
-0.15491287 -0.40982363 -0.72841018 119 135 112
-0.15434705 -0.41025025 -0.72762442 120 135 112
-0.15621656 -0.41177285 -0.73045111 113 130 115
-0.1547057 -0.40894446 -0.72804111 120 136 111
-0.15529151 -0.41177949 -0.72911215 116 131 115
-0.15438694 -0.40882593 -0.72757018 121 137 110
-0.15384158 -0.41120729 -0.72709954 122 132 114
-0.15423776 -0.40878695 -0.7273683 122 136 110
-0.15377323 -0.41095364 -0.72701353 122 132 114
-0.15548681 -0.41228613 -0.72937983 114 130 115
-0.15528417 -0.41228089 -0.72908759 114 131 114
-0.13203782 -0.41144881 -0.7051301 165 140 117
-0.13107821 -0.41208684 -0.70432484 164 139 116
-0.13482065 -0.41228208 -0.70740986 139 148 113
-0.13110362 -0.4152644 -0.70416063 109 150 107
-0.13133162 -0.41395423 -0.70444381 134 144 111
-0.13354303 -0.41547662 -0.70629454 112 142 109
-0.13167448 -0.41429681 -0.70472407 128 144 111
-0.13091052 -0.41359112 -0.70409602 139 144 112
-0.13151281 -0.41315517 -0.70465362 149 140 114
-0.13298097 -0.41547966 -0.70579958 110 144 109
-0.13254212 -0.41234145 -0.70552737 152 143 114
-0.1332339 -0.413315 -0.70609117 140 142 113
-0.13460872 -0.41326877 -0.70722234 131 145 112
-0.1323445 -0.41218349 -0.7053656 155 142 115
-0.13354853 -0.41443527 -0.70634401 128 140 111
-0.1319675 -0.41313586 -0.70505035 149 140 114
-0.13398555 -0.41358814 -0.70670801 132 143 112
-0.13054536 -0.414359 -0.70374972 127 147 109
-0.13089561 -0.41903681 -0.70388037 124 136 106
-0.13172461 -0.4194541 -0.7046302 127 134 107
-0.13158526 -0.41934314 -0.70450479 126 135 107
-0.13117577 -0.41797486 -0.70415407 113 142 105
-0.13276115 -0.41966558 -0.70557296 126 134 108
-0.13178653 -0.41871449 -0.70469922 119 138 107
-0.13278781 -0.41953516 -0.70559949 125 135 108
-0.13406409 -0.4191846 -0.70676947 119 138 109
-0.13310136 -0.41770995 -0.70589864 108 143 107
-0.13424951 -0.41607329 -0.70688331 104 141 109
-0.13387966 -0.41788062 -0.70658642 112 140 108
-0.13457748 -0.41776067 -0.7071988 113 138 109
-0.13267389 -0.41676188 -0.70550734 103 146 107
-0.13354893 -0.41844362 -0.70630425 113 141 108
-0.13080375 -0.41706568 -0.70383769 104 148 104
-0.13045387 -0.41625151 -0.70357031 99 152 105
-0.13203833 -0.42304173 -0.70480096 123 132 113
-0.13311312 -0.42275247 -0.70571619 124 136 108
-0.13266243 -0.42215526 -0.70533973 126 135 108
-0.13239028 -0.42328867 -0.7050972 122 133 112
-0.13265145 -0.42239571 -0.70532799 125 135 109
-0.13289152 -0.42369357 -0.70551842 121 134 112
-0.13110013 -0.42196009 -0.70401579 127 130 112
-0.13402833 -0.42289183 -0.70650429 123 138 107
-0.13215451 -0.42056754 -0.70496666 130 133 107
-0.1343597 -0.4211517 -0.70693642 124 136 109
-0.13283664 -0.4214485 -0.70552379 127 135 108
-0.13213308 -0.42008758 -0.70498282 131 132 108
-0.13341992 -0.42233151 -0.70599055 125 137 107
-0.13355118 -0.42170075 -0.70615739 125 136 108
-0.13077094 -0.42103803 -0.70374757 129 130 110
-0.13080853 -0.42003644 -0.70379132 133 131 107
-0.13539414 -0.42721292 -0.70739794 140 129 111
-0.13487156 -0.42596221 -0.70701277 130 134 108
-0.13145767 -0.42518175 -0.70422941 124 129 113
-0.13145597 -0.42475972 -0.70423687 124 128 116
-0.13163143 -0.42428377 -0.70440567 122 129 116
-0.13252571 -0.42458636 -0.7051369 123 132 114
-0.13255744 -0.42505646 -0.70512062 126 130 114
-0.13394713 -0.42409211 -0.70638871 121 137 109
-0.13475025 -0.42553985 -0.70693731 128 135 108
-0.1345869 -0.42481562 -0.70686525 125 136 109
-0.13157794 -0.4244028 -0.70434934 123 129 116
-0.13075034 -0.42552486 -0.70367438 123 129 111
-0.13058211 -0.42542246 -0.70353681 120 129 112
-0.13457216 -0.42825419 -0.70656633 141 130 110
-0.14787437 -0.38978755 -0.71909696 100 139 118
-0.14701484 -0.39473411 -0.71859592 159 132 125
-0.14750582 -0.39337924 -0.71894485 159 124 130
-0.14740844 -0.39458722 -0.71897358 151 131 126
-0.14670126 -0.39879236 -0.71888983 103 158 108
-0.14658776 -0.4002184 -0.71904659 80 167 104
-0.14623411 -0.40341917 -0.71882933 105 167 101
-0.1459848 -0.40096885 -0.71847278 88 164 105
-0.14626591 -0.40364581 -0.71887147 106 168 100
-0.14642715 -0.40155274 -0.71895808 86 168 102
-0.14310616 -0.40408766 -0.71558559 168 142 120
-0.14528021 -0.40261081 -0.7178005 115 159 108
-0.14484091 -0.40268791 -0.71734428 124 155 111
-0.14523487 -0.40238014 -0.71774411 114 159 108
-0.14520644 -0.40110672 -0.71766919 109 157 109
-0.14561282 -0.4011021 -0.71809065 98 161 107
-0.14410284 -0.40732944 -0.71653247 127 153 109
-0.14447829 -0.40783072 -0.71693921 136 144 111
-0.14643309 -0.40494886 -0.71906835 114 163 101
-0.14374633 -0.40747237 -0.71614498 126 155 109
-0.14637357 -0.40630922 -0.71900088 131 147 107
-0.14479339 -0.40734577 -0.71728247 132 147 110
-0.14513111 -0.40736544 -0.71764922 135 144 110
-0.14575624 -0.4046146 -0.71835166 117 165 102
-0.14471687 -0.40480742 -0.71725756 134 157 108
-0.14377145 -0.40657952 -0.71619946 131 155 110
-0.1444698 -0.40580237 -0.71696007 127 158 107
-0.14330055 -0.40548921 -0.7157501 153 148 116
-0.14353827 -0.40684456 -0.71594524 133 154 111
-0.14320421 -0.40457225 -0.71568543 164 144 119
-0.14639147 -0.40995473 -0.71896207 151 125 120
-0.14600962 -0.4097344 -0.7185691 147 127 118
-0.14489222 -0.41074955 -0.71736419 131 131 115
-0.14386956 -0.41109279 -0.71628082 117 136 111
-0.14552027 -0.41015986 -0.71804208 139 129 116
-0.14613795 -0.40944901 -0.7187131 150 126 118
-0.14502186 -0.41058928 -0.71750546 132 131 115
-0.14468332 -0.40896687 -0.71716243 138 135 114
-0.14319862 -0.40931147 -0.71555042 124 147 111
-0.1438514 -0.41061389 -0.71626163 120 137 112
-0.14296252 -0.41115466 -0.71529704 109 143 109
-0.1439241 -0.41018531 -0.71633983 123 138 112
-0.14351088 -0.41064471 -0.71589178 117 140 110
-0.14309388 -0.41123265 -0.71543986 110 142 110
-0.14657696 -0.41312811 -0.71908182 141 126 120
-0.14599356 -0.41497827 -0.71842617 134 127 114
-0.14503103 -0.41579273 -0.71733952 127 130 111
-0.14586703 -0.41300458 -0.71829027 138 129 120
-0.14621639 -0.4146564 -0.71867812 136 127 115
-0.14414538 -0.4153094 -0.71634376 122 133 112
-0.14433858 -0.41590348 -0.71655935 122 132 110
-0.14375775 -0.41552481 -0.7159065 120 134 111
-0.14444749 -0.41240373 -0.71683264 121 134 115
-0.14303508 -0.41266641 -0.7153337 105 140 109
-0.14332266 -0.41279778 -0.71562606 109 138 111
-0.14443919 -0.41325507 -0.71676475 123 133 115
-0.14471042 -0.41385102 -0.7170077 127 132 116
-0.14381011 -0.41380081 -0.71606737 117 136 112
-0.14373876 -0.4131822 -0.71603554 115 136 112
-0.14653109 -0.41789034 -0.71897477 122 130 114
-0.14501891 -0.41898832 -0.71740854 109 131 111
-0.14543819 -0.41936457 -0.71782482 107 133 113
-0.14398767 -0.41912323 -0.71635711 104 131 107
-0.1451444 -0.4184266 -0.71755075 113 130 110
-0.14540255 -0.41806757 -0.71782243 117 129 110
-0.14597292 -0.41812032 -0.71840066 119 130 112
-0.14580056 -0.41928354 -0.71819514 110 133 114
-0.14425139 -0.4164629 -0.71649414 119 132 109
-0.14402133 -0.41808584 -0.71635628 110 131 107
-0.14385319 -0.4185985 -0.71620518 107 131 106
-0.14416099 -0.41605425 -0.71636182 121 133 110
-0.14394613 -0.41653702 -0.71615595 117 133 108
-0.14308429 -0.41766733 -0.7152698 107 134 107
-0.14350958 -0.41799253 -0.71577299 107 133 106
-0.14670049 -0.42086726 -0.71903366 114 135 118
-0.14685395 -0.42319793 -0.71903121 131 134 117
-0.14560983 -0.42282698 -0.7177667 124 133 116
-0.14549071 -0.42292434 -0.71763933 124 133 115
-0.14549716 -0.42269313 -0.71766382 122 134 115
-0.14485706 -0.42376381 -0.71693623 125 133 114
-0.14377765 -0.42357856 -0.71586484 117 132 112
-0.14628501 -0.4210605 -0.71858394 115 135 118
-0.14437617 -0.42242926 -0.71655667 113 133 113
-0.14321376 -0.42171961 -0.7154249 105 132 108
-0.14470449 -0.42112237 -0.71698129 107 133 113
-0.14344858 -0.42316684 -0.715563 113 132 110
-0.14528157 -0.42028096 -0.71762615 105 134 114
-0.14577191 -0.41992328 -0.7181493 105 134 116
-0.14439447 -0.42235726 -0.71658045 113 132 114
-0.14342844 -0.42164958 -0.71564794 105 133 108
-0.14703383 -0.42466167 -0.71910161 129 136 114
-0.1466285 -0.42764452 -0.71820605 108 141 102
-0.14681984 -0.42653063 -0.7186237 115 140 107
-0.14592552 -0.42663947 -0.71763921 126 137 109
-0.14529492 -0.42587799 -0.71716285 144 133 115
-0.14588085 -0.42721909 -0.71751332 123 138 107
-0.14334705 -0.42560863 -0.71525478 138 131 114
-0.14493491 -0.42496118 -0.71690947 140 133 116
-0.14364065 -0.42415455 -0.71567863 122 132 112
-0.14529766 -0.42520562 -0.71725279 145 133 116
-0.14575741 -0.42455292 -0.71777302 140 133 116
-0.14542358 -0.42479205 -0.71741599 141 133 116
-0.14740217 -0.42867479 -0.71891659 116 143 106
-0.14744483 -0.42892772 -0.71889019 119 142 107
-0.14651272 -0.42884371 -0.71778548 122 141 105
-0.14624611 -0.42791668 -0.71774089 114 140 103
-0.14607659 -0.42788464 -0.71758968 117 139 104
-0.15996461 -0.40732598 -0.73462731 98 136 114
-0.15823002 -0.40727732 -0.73255688 109 133 117
-0.15870468 -0.40649697 -0.73298079 100 136 115
-0.15808535 -0.40603903 -0.7321707 99 137 115
-0.1579233 -0.40774605 -0.73221737 112 132 118
-0.15789545 -0.40610269 -0.73192143 99 136 115
-0.15747595 -0.40614411 -0.73135954 98 137 116
-0.15741511 -0.40494412 -0.73110926 98 138 115
-0.15921338 -0.4082756 -0.73384213 109 132 116
-0.15951695 -0.40866724 -0.73423505 104 132 116
-0.15855813 -0.40964577 -0.73324317 106 132 118
-0.15761763 -0.40997729 -0.732108 113 130 118
-0.15768391 -0.41128287 -0.73234874 107 131 119
-0.15772723 -0.41049856 -0.73231363 110 131 118
-0.15750916 -0.41090715 -0.73207426 110 131 118
-0.15676475 -0.40950018 -0.73088664 109 131 118
-0.15674567 -0.40998057 -0.73092711 110 130 117
-0.15666436 -0.41098717 -0.73095542 112 130 117
0 0 0 1 0 0 0 1 0 0 0 1 0 0 0 0 0 640 1 0 0
